<?xml version="1.0" encoding="utf-8"?>
<!-- Generator: Adobe Illustrator 19.2.0, SVG Export Plug-In . SVG Version: 6.00 Build 0)  -->
<svg version="1.1" id="Layer_1" xmlns="http://www.w3.org/2000/svg" xmlns:xlink="http://www.w3.org/1999/xlink" x="0px" y="0px"
	 viewBox="0 0 235.8 245.8" style="enable-background:new 0 0 235.8 245.8;" xml:space="preserve">
<style type="text/css">
	.st0{fill:#FFFFFF;}
	.st1{fill:#1488C6;}
</style>
<g id="XMLID_1_">
	<path id="XMLID_3_" class="st0" d="M184.9,182.6H45.2c-19.4,0-35.1-15.8-35.1-35.2c0-16,10.5-29.6,25.5-33.8
		c-0.7-3.2-1.1-6.4-1.1-9.7c0-24.5,19.9-44.4,44.4-44.4c5.5,0,10.8,1,15.8,2.9c8.9-17.1,26.6-27.9,46.1-27.9c28.7,0,52,23.3,52,52
		c0,3.2-0.3,6.3-0.9,9.4c20.8,3.4,36.5,21.5,36.5,43C228.4,163,208.9,182.6,184.9,182.6z"/>
	<path id="XMLID_2_" class="st0" d="M78.9,67.4c-20.2,0-36.6,16.4-36.6,36.6c0,3.9,0.6,7.7,1.8,11.4l1.4,4.4l-4.6,0.7
		c-13.4,2.1-23.1,13.4-23.1,27c0,15.1,12.3,27.3,27.3,27.3h139.6c19.7,0,35.7-16,35.7-35.7c0-18.9-14.8-34.6-33.6-35.7l-4.8-0.3
		l1.3-4.7c1.1-3.9,1.6-7.8,1.6-11.8c0-24.4-19.8-44.2-44.2-44.2c-17.7,0-33.6,10.5-40.6,26.7l-1.6,3.8L95,71.1
		C89.9,68.7,84.6,67.4,78.9,67.4z"/>
</g>
<g id="XMLID_1066_">
	<path id="XMLID_1067_" class="st1" d="M184.2,183.4H44.6c-19.4,0-35.1-15.8-35.1-35.2c0-16,10.5-29.6,25.5-33.8
		c-0.7-3.2-1.1-6.4-1.1-9.7c0-24.5,19.9-44.4,44.4-44.4c5.5,0,10.8,1,15.8,2.9c8.9-17.1,26.6-27.9,46.1-27.9c28.7,0,52,23.3,52,52
		c0,3.2-0.3,6.3-0.9,9.4c20.8,3.4,36.5,21.5,36.5,43C227.8,163.8,208.2,183.4,184.2,183.4z M78.3,68.2c-20.2,0-36.6,16.4-36.6,36.6
		c0,3.9,0.6,7.7,1.8,11.4l1.4,4.4l-4.6,0.7c-13.4,2.1-23.1,13.4-23.1,27c0,15.1,12.3,27.3,27.3,27.3h139.6c19.7,0,35.7-16,35.7-35.7
		c0-18.9-14.8-34.6-33.6-35.7l-4.8-0.3l1.3-4.7c1.1-3.9,1.6-7.8,1.6-11.8c0-24.4-19.8-44.2-44.2-44.2c-17.7,0-33.6,10.5-40.6,26.7
		L98,73.7l-3.7-1.8C89.3,69.4,83.9,68.2,78.3,68.2z"/>
</g>
<g id="XMLID_964_">
	<g id="XMLID_1011_">
		<polygon id="XMLID_1065_" class="st1" points="74.4,110.4 85.2,110.4 85.2,120.9 74.4,120.9 74.4,110.4 		"/>
		<polygon id="XMLID_1064_" class="st1" points="87.7,110.4 98.5,110.4 98.5,120.9 87.7,120.9 87.7,110.4 		"/>
		<rect id="XMLID_1063_" x="87.7" y="96.9" class="st1" width="10.8" height="10.5"/>
		<polygon id="XMLID_1062_" class="st1" points="101,110.4 111.8,110.4 111.8,120.9 101,120.9 101,110.4 		"/>
		<rect id="XMLID_1061_" x="101" y="96.9" class="st1" width="10.8" height="10.5"/>
		<polygon id="XMLID_1060_" class="st1" points="114.3,110.4 125.1,110.4 125.1,120.9 114.3,120.9 114.3,110.4 		"/>
		<rect id="XMLID_1059_" x="114.3" y="96.9" class="st1" width="10.8" height="10.5"/>
		<polygon id="XMLID_1058_" class="st1" points="127.6,110.4 138.4,110.4 138.4,120.9 127.6,120.9 127.6,110.4 		"/>
		<rect id="XMLID_1012_" x="114.3" y="83.4" class="st1" width="10.8" height="10.5"/>
	</g>
	<g id="XMLID_1000_">
		<path id="XMLID_1010_" class="st1" d="M89.5,136.1c-1.7,0-3,1.3-3,2.9c0,1.6,1.4,2.9,3,2.9c1.7,0,3-1.3,3-2.9
			C92.6,137.4,91.2,136.1,89.5,136.1"/>
		<path id="XMLID_1007_" class="st1" d="M173.4,115.9c-3.6-2-8.5-2.3-12.6-1.1c-0.5-4.3-3.4-8-6.8-10.7l-1.4-1.1l-1.1,1.3
			c-2.3,2.6-3,6.9-2.7,10.2c0.2,2.4,1,4.9,2.5,6.8c-1.2,0.7-2.5,1.2-3.7,1.6c-2.4,0.8-5,1.2-7.6,1.2H68.8l-0.2,1.6
			c-0.5,5.3,0.2,10.7,2.5,15.5l1,1.9l0.1,0.2c6.7,11.1,18.5,15.7,31.3,15.7c24.8,0,45.3-10.8,54.8-33.5c6.3,0.3,12.7-1.5,15.8-7.3
			l0.8-1.5L173.4,115.9L173.4,115.9z M89.5,144.6c-3.2,0-5.7-2.5-5.7-5.6c0-3.1,2.6-5.6,5.7-5.6s5.7,2.5,5.7,5.6
			C95.3,142.1,92.7,144.6,89.5,144.6L89.5,144.6z"/>
	</g>
</g>
</svg>
