<?xml version="1.0" encoding="utf-8"?>
<!-- Generator: Adobe Illustrator 19.2.0, SVG Export Plug-In . SVG Version: 6.00 Build 0)  -->
<svg version="1.1" id="Layer_1" xmlns="http://www.w3.org/2000/svg" xmlns:xlink="http://www.w3.org/1999/xlink" x="0px" y="0px"
	 viewBox="0 0 235.8 245.8" style="enable-background:new 0 0 235.8 245.8;" xml:space="preserve">
<style type="text/css">
	.st0{fill:#FFFFFF;}
	.st1{fill:#1488C6;}
</style>
<g id="XMLID_4_">
	<path id="XMLID_6_" class="st0" d="M185.3,183.4H44.8c-19.5,0-35.4-15.9-35.4-35.4c0-16.1,10.6-29.8,25.7-34
		c-0.7-3.2-1.1-6.5-1.1-9.7c0-24.6,20-44.7,44.7-44.7c5.5,0,10.9,1,16,2.9c9-17.2,26.8-28.1,46.4-28.1c28.9,0,52.3,23.5,52.3,52.3
		c0,3.2-0.3,6.4-0.9,9.5c20.9,3.4,36.7,21.6,36.7,43.3C229.2,163.7,209.5,183.4,185.3,183.4z"/>
	<path id="XMLID_5_" class="st0" d="M78.7,67.5c-20.3,0-36.8,16.5-36.8,36.8c0,3.9,0.6,7.8,1.8,11.5l1.4,4.4l-4.6,0.7
		c-13.5,2.1-23.3,13.5-23.3,27.1c0,15.2,12.3,27.5,27.5,27.5h140.5c19.8,0,36-16.1,36-36c0-19-14.9-34.8-33.9-35.9l-4.9-0.3l1.3-4.7
		c1.1-3.9,1.6-7.9,1.6-11.9c0-24.5-19.9-44.5-44.5-44.5c-17.8,0-33.8,10.6-40.9,26.9L98.6,73l-3.7-1.8
		C89.8,68.7,84.4,67.5,78.7,67.5z"/>
</g>
<g id="XMLID_1086_">
	<path id="XMLID_1088_" class="st1" d="M184.3,182.5H43.8c-19.5,0-35.4-15.9-35.4-35.4c0-16.1,10.6-29.8,25.7-34
		c-0.7-3.2-1.1-6.5-1.1-9.7c0-24.6,20-44.7,44.7-44.7c5.5,0,10.9,1,16,2.9c9-17.2,26.8-28.1,46.4-28.1c28.9,0,52.3,23.5,52.3,52.3
		c0,3.2-0.3,6.4-0.9,9.5c20.9,3.4,36.7,21.6,36.7,43.3C228.2,162.8,208.5,182.5,184.3,182.5z"/>
	<path id="XMLID_1087_" class="st1" d="M77.7,66.6c-20.3,0-36.8,16.5-36.8,36.8c0,3.9,0.6,7.8,1.8,11.5l1.4,4.4l-4.6,0.7
		c-13.5,2.1-23.3,13.5-23.3,27.1c0,15.2,12.3,27.5,27.5,27.5h140.5c19.8,0,36-16.1,36-36c0-19-14.9-34.8-33.9-35.9l-4.9-0.3l1.3-4.7
		c1.1-3.9,1.6-7.9,1.6-11.9c0-24.5-19.9-44.5-44.5-44.5c-17.8,0-33.8,10.6-40.9,26.9l-1.6,3.8l-3.7-1.8
		C88.8,67.8,83.3,66.6,77.7,66.6z"/>
</g>
<g id="XMLID_1070_">
	<g id="XMLID_1076_">
		<polygon id="XMLID_1085_" class="st0" points="73.8,109.1 84.7,109.1 84.7,119.7 73.8,119.7 73.8,109.1 		"/>
		<polygon id="XMLID_1084_" class="st0" points="87.2,109.1 98.1,109.1 98.1,119.7 87.2,119.7 87.2,109.1 		"/>
		<rect id="XMLID_1083_" x="87.2" y="95.5" class="st0" width="10.9" height="10.6"/>
		<polygon id="XMLID_1082_" class="st0" points="100.6,109.1 111.5,109.1 111.5,119.7 100.6,119.7 100.6,109.1 		"/>
		<rect id="XMLID_1081_" x="100.6" y="95.5" class="st0" width="10.9" height="10.6"/>
		<polygon id="XMLID_1080_" class="st0" points="113.9,109.1 124.9,109.1 124.9,119.7 113.9,119.7 113.9,109.1 		"/>
		<rect id="XMLID_1079_" x="113.9" y="95.5" class="st0" width="10.9" height="10.6"/>
		<polygon id="XMLID_1078_" class="st0" points="127.3,109.1 138.3,109.1 138.3,119.7 127.3,119.7 127.3,109.1 		"/>
		<rect id="XMLID_1077_" x="113.9" y="81.9" class="st0" width="10.9" height="10.6"/>
	</g>
	<g id="XMLID_1071_">
		<path id="XMLID_1075_" class="st0" d="M89,134.9c-1.7,0-3,1.3-3,3c0,1.6,1.4,2.9,3,2.9c1.7,0,3-1.3,3-2.9
			C92.1,136.3,90.7,134.9,89,134.9"/>
		<path id="XMLID_1072_" class="st0" d="M173.4,114.5c-3.7-2.1-8.5-2.3-12.7-1.1c-0.5-4.3-3.4-8-6.9-10.7l-1.4-1.1l-1.2,1.3
			c-2.3,2.6-3,6.9-2.7,10.2c0.2,2.4,1,4.9,2.6,6.9c-1.2,0.7-2.5,1.2-3.7,1.6c-2.4,0.8-5,1.2-7.6,1.2H68.1l-0.2,1.6
			c-0.5,5.4,0.2,10.7,2.5,15.6l1,1.9l0.1,0.2c6.8,11.1,18.6,15.8,31.5,15.8c25,0,45.6-10.8,55.1-33.7c6.3,0.3,12.8-1.5,15.9-7.4
			l0.8-1.5L173.4,114.5L173.4,114.5z M89,143.5c-3.2,0-5.8-2.5-5.8-5.6c0-3.1,2.6-5.6,5.8-5.6s5.8,2.5,5.8,5.6
			C94.8,141,92.2,143.5,89,143.5L89,143.5z"/>
	</g>
</g>
</svg>
