<?xml version="1.0" encoding="UTF-8" standalone="no"?>
<svg
   fill="#677285"
   height="70px"
   width="70px"
   version="1.1"
   id="svg510"
   sodipodi:docname="build-cache.svg"
   inkscape:version="1.2.1 (9c6d41e, 2022-07-14)"
   xmlns:inkscape="http://www.inkscape.org/namespaces/inkscape"
   xmlns:sodipodi="http://sodipodi.sourceforge.net/DTD/sodipodi-0.dtd"
   xmlns="http://www.w3.org/2000/svg"
   xmlns:svg="http://www.w3.org/2000/svg">
  <defs
     id="defs514" />
  <sodipodi:namedview
     id="namedview512"
     pagecolor="#505050"
     bordercolor="#eeeeee"
     borderopacity="1"
     inkscape:showpageshadow="0"
     inkscape:pageopacity="0"
     inkscape:pagecheckerboard="0"
     inkscape:deskcolor="#505050"
     showgrid="false"
     inkscape:zoom="6.459715"
     inkscape:cx="16.719004"
     inkscape:cy="9.830155"
     inkscape:window-width="1910"
     inkscape:window-height="1017"
     inkscape:window-x="1733"
     inkscape:window-y="30"
     inkscape:window-maximized="0"
     inkscape:current-layer="svg510" />
  <path
     d="m 35.431838,58.069954 q -9.828133,0 -16.917893,-7.089757 -7.08976,-7.089766 -7.08976,-16.917896 V 30.686224 L 6.8477256,35.262685 Q 6.2475343,35.862874 5.4222709,35.825365 4.5970077,35.787849 3.9968167,35.18766 3.3966251,34.587465 3.3966251,33.724693 q 0,-0.862776 0.6001916,-1.462964 L 12.0994,24.159145 q 0.375119,-0.37512 0.750239,-0.525169 0.37512,-0.150056 0.825263,-0.150056 0.450143,0 0.825263,0.150056 0.37512,0.150056 0.750239,0.525169 l 8.177608,8.177605 q 0.600191,0.600189 0.600191,1.425452 0,0.825263 -0.600191,1.425458 -0.600192,0.600189 -1.462967,0.600189 -0.862775,0 -1.462966,-0.600189 l -4.57646,-4.501436 v 3.376077 q 0,8.027557 5.739331,13.766887 5.739329,5.739329 13.766888,5.739329 1.725551,0 3.338562,-0.225074 1.61302,-0.225074 3.113493,-0.750242 0.600196,-0.150082 1.275406,-0.03753 0.67522,0.112553 1.125362,0.562683 0.900285,0.900284 0.750242,1.950622 -0.150082,1.050334 -1.350431,1.500476 -2.025647,0.825264 -4.088809,1.162875 -2.063153,0.337622 -4.163825,0.337625 z M 57.113747,44.490626 q -0.450142,0 -0.825263,-0.150082 -0.375114,-0.150082 -0.750232,-0.525164 l -8.102588,-8.102582 q -0.600189,-0.600195 -0.600189,-1.500483 0,-0.900285 0.600189,-1.500473 0.600195,-0.600195 1.50048,-0.600195 0.900285,0 1.50048,0.600195 l 4.426408,4.426408 v -3.075978 q 0,-8.02756 -5.739329,-13.76689 -5.739327,-5.73933 -13.766887,-5.73933 -1.725551,0 -3.338568,0.262583 -1.613014,0.262584 -3.113487,0.712728 -0.600195,0.150047 -1.275411,0 -0.675214,-0.150018 -1.125358,-0.600162 -0.900287,-0.900287 -0.712727,-1.950622 0.18756,-1.050335 1.387942,-1.500478 2.025646,-0.750239 4.051294,-1.087847 2.025647,-0.337607 4.126315,-0.337607 9.82813,0 16.91789,7.089763 7.089766,7.089758 7.089766,16.917891 v 3.226031 l 4.576458,-4.576461 q 0.600189,-0.600192 1.462968,-0.600192 0.862772,0 1.462967,0.600192 0.600189,0.600189 0.600189,1.462967 0,0.86277 -0.600189,1.462965 l -8.177613,8.177606 q -0.375121,0.375121 -0.750241,0.525167 -0.375118,0.150083 -0.825264,0.150083 z"
     id="path508"
     style="stroke-width:1.50048" />
</svg>
