<?xml version="1.0" encoding="UTF-8" standalone="no"?>
<svg
   fill="#677285"
   height="70px"
   width="70px"
   version="1.1"
   id="svg310"
   sodipodi:docname="build-drivers.svg"
   inkscape:version="1.2.1 (9c6d41e, 2022-07-14)"
   xmlns:inkscape="http://www.inkscape.org/namespaces/inkscape"
   xmlns:sodipodi="http://sodipodi.sourceforge.net/DTD/sodipodi-0.dtd"
   xmlns="http://www.w3.org/2000/svg"
   xmlns:svg="http://www.w3.org/2000/svg">
  <defs
     id="defs314" />
  <sodipodi:namedview
     id="namedview312"
     pagecolor="#505050"
     bordercolor="#eeeeee"
     borderopacity="1"
     inkscape:showpageshadow="0"
     inkscape:pageopacity="0"
     inkscape:pagecheckerboard="0"
     inkscape:deskcolor="#505050"
     showgrid="false"
     inkscape:zoom="6.459715"
     inkscape:cx="38.701398"
     inkscape:cy="14.474323"
     inkscape:window-width="1718"
     inkscape:window-height="1041"
     inkscape:window-x="5"
     inkscape:window-y="43"
     inkscape:window-maximized="0"
     inkscape:current-layer="svg310" />
  <path
     d="m 56.859616,27.255414 q -0.359653,0 -0.647376,-0.215801 -0.287734,-0.215802 -0.431586,-0.57545 L 55.34907,24.737834 Q 54.629761,24.450111 53.874487,23.946593 53.119214,23.44308 52.615699,22.867634 l -2.301786,0.863167 q -0.359653,0.143868 -0.719306,0 -0.359656,-0.143866 -0.575448,-0.503513 l -0.575445,-0.935101 q -0.215801,-0.359654 -0.143868,-0.719307 0.07194,-0.359657 0.431584,-0.647378 l 1.798269,-1.438616 q -0.143867,-0.359654 -0.251753,-0.791239 -0.107885,-0.431584 -0.107885,-0.863169 0,-0.431585 0.107885,-0.863169 0.107886,-0.431585 0.251753,-0.79124 L 48.73143,14.739454 q -0.359653,-0.287723 -0.39562,-0.647377 -0.03595,-0.359655 0.107886,-0.719309 l 0.575463,-0.9351 q 0.2158,-0.359654 0.575448,-0.503516 0.359653,-0.143861 0.719306,0 l 2.301786,0.86317 q 0.503515,-0.575446 1.258788,-1.114927 0.755274,-0.539481 1.474583,-0.755273 L 55.780654,9.2007829 Q 55.92452,8.8411289 56.21224,8.6253366 56.499975,8.4095448 56.859616,8.4095448 h 1.007032 q 0.359653,0 0.647376,0.2157918 0.287734,0.215792 0.431586,0.5754463 l 0.431584,1.7263391 q 0.719306,0.215792 1.474579,0.755273 0.755276,0.539481 1.258791,1.114927 l 2.301786,-0.86317 q 0.359654,-0.143861 0.719307,0 0.359652,0.143862 0.575448,0.503516 l 0.575445,0.9351 q 0.2158,0.359654 0.143868,0.719309 -0.07193,0.359653 -0.431585,0.647377 l -1.798272,1.438615 q 0.143868,0.359654 0.251753,0.791239 0.107885,0.431584 0.107885,0.863169 0,0.431585 -0.107885,0.863169 -0.107885,0.431585 -0.251753,0.79124 l 1.798272,1.438616 q 0.359654,0.287734 0.39562,0.647378 0.03595,0.359653 -0.107885,0.719307 l -0.575445,0.935101 q -0.215801,0.359653 -0.575448,0.503513 -0.359653,0.143868 -0.719306,0 l -2.301786,-0.863167 q -0.503515,0.575446 -1.258791,1.078959 -0.755274,0.503518 -1.474579,0.791241 l -0.431585,1.726338 q -0.143867,0.359658 -0.431587,0.57545 -0.287734,0.215801 -0.647375,0.215801 z m 0.503515,-5.25095 q 1.798271,0 2.985128,-1.186857 1.186857,-1.186859 1.186857,-2.985129 0,-1.79827 -1.186857,-2.985128 -1.186857,-1.186858 -2.985128,-1.186858 -1.798269,0 -2.985127,1.186858 -1.186859,1.186858 -1.186859,2.985128 0,1.79827 1.186859,2.985129 1.186858,1.186857 2.985127,1.186857 z m -8.559764,20.85993 q -0.07193,0 -0.647376,-0.575445 l -0.07193,-1.510546 q -0.503517,-0.287735 -1.042998,-0.647379 -0.539481,-0.359653 -0.971065,-0.719306 l -1.366685,0.719306 q -0.07194,0 -0.863171,-0.215801 l -0.863168,-1.294755 0.07194,-0.863167 1.438616,-1.007032 q -0.143868,-0.287735 -0.143868,-0.539481 v -1.078963 q 0,-0.251752 0.143868,-0.539481 l -1.438616,-1.007029 q -0.07194,0 -0.07194,-0.86317 l 0.863168,-1.294754 q 0.07194,-0.07193 0.863171,-0.215802 l 1.366685,0.719307 1.007031,-0.719307 q 0.503515,-0.359653 1.007033,-0.647378 l 0.07193,-1.510546 q 0,-0.143868 0.647376,-0.575446 h 1.726338 q 0.07194,0 0.647379,0.575446 l 0.07193,1.510546 q 0.503515,0.287734 1.007032,0.647378 l 1.007029,0.719307 1.366685,-0.719307 q 0.07194,0 0.863171,0.215802 l 0.86317,1.294754 -0.07193,0.86317 -1.438616,1.007029 q 0.143867,0.287735 0.143867,0.539481 v 1.078963 q 0,0.251753 -0.143867,0.539481 l 1.438616,1.007032 q 0.07193,0 0.07193,0.863167 l -0.86317,1.294755 q -0.07194,0.07194 -0.863171,0.215801 l -1.366685,-0.719306 q -0.431583,0.359653 -0.971065,0.719306 -0.539481,0.359656 -1.042996,0.647379 l -0.07193,1.510546 q 0,0.143867 -0.647379,0.575445 z m 0.86317,-4.459708 q 1.150893,0 1.942131,-0.79124 0.791239,-0.791237 0.791239,-1.942131 0,-1.150893 -0.791239,-1.942129 -0.791238,-0.791241 -1.942131,-0.791241 -1.150893,0 -1.942132,0.791241 -0.791238,0.791236 -0.791238,1.942129 0,1.150894 0.791238,1.942131 0.791239,0.79124 1.942132,0.79124 z M 26.504821,38.260819 q -4.747433,0 -7.768525,-3.093024 -3.021094,-3.093026 -3.021094,-7.696595 h -0.719307 q -0.575447,0 -1.007032,-0.431584 -0.431584,-0.431588 -0.431584,-1.007034 0,-0.575445 0.431584,-1.007031 0.431585,-0.431585 1.007032,-0.431585 h 0.719307 q 0,-2.877231 1.438616,-5.179017 1.438616,-2.301785 3.740401,-3.740401 v 2.805301 q 0,0.431584 0.323688,0.755273 0.32369,0.323689 0.755274,0.323689 0.503516,0 0.791239,-0.323689 0.287722,-0.323689 0.287722,-0.755273 v -3.740395 q 0.575447,-0.143862 1.582477,-0.251759 1.007031,-0.107897 1.942132,-0.107897 0.9351,0 1.942131,0.107897 1.007034,0.107897 1.582478,0.251759 v 3.7404 q 0,0.431585 0.287735,0.755274 0.287734,0.323689 0.791237,0.323689 0.431584,0 0.755273,-0.323689 0.323689,-0.323689 0.323689,-0.755274 v -2.8053 q 2.301787,1.438615 3.668471,3.740401 1.366685,2.301786 1.366685,5.179018 h 0.719307 q 0.575448,0 1.007032,0.431583 0.431584,0.431587 0.431584,1.007032 0,0.575446 -0.431584,1.007034 -0.431584,0.431584 -1.007032,0.431584 H 37.29445 q 0,4.603569 -3.021095,7.696596 -3.021093,3.093022 -7.768525,3.093022 z m 0,-4.315847 q 3.021095,0 4.747432,-1.798273 1.726339,-1.798268 1.726339,-4.675499 H 20.03105 q 0,2.877231 1.726338,4.675499 1.72634,1.798273 4.747433,1.798273 z M 3.77469,60.199716 v -6.617633 q 0,-2.445648 1.1508925,-4.064089 1.1508929,-1.618444 3.2368857,-2.625475 3.8842638,-1.8702 8.3080068,-3.093024 4.423744,-1.222824 10.034346,-1.222824 5.610603,0 10.034348,1.222824 4.423741,1.222824 8.308004,3.093024 2.085994,1.007031 3.236887,2.625475 1.150891,1.618441 1.150891,4.064089 v 6.617633 z"
     id="path308"
     style="stroke-width:1.43862" />
</svg>
