<?xml version="1.0" encoding="UTF-8" standalone="no"?>
<svg
   fill="#677285"
   height="70px"
   width="70px"
   version="1.1"
   id="svg734"
   sodipodi:docname="build-packaging-software.svg"
   inkscape:version="1.2.1 (9c6d41e, 2022-07-14)"
   xmlns:inkscape="http://www.inkscape.org/namespaces/inkscape"
   xmlns:sodipodi="http://sodipodi.sourceforge.net/DTD/sodipodi-0.dtd"
   xmlns="http://www.w3.org/2000/svg"
   xmlns:svg="http://www.w3.org/2000/svg">
  <defs
     id="defs738" />
  <sodipodi:namedview
     id="namedview736"
     pagecolor="#505050"
     bordercolor="#eeeeee"
     borderopacity="1"
     inkscape:showpageshadow="0"
     inkscape:pageopacity="0"
     inkscape:pagecheckerboard="0"
     inkscape:deskcolor="#505050"
     showgrid="false"
     inkscape:zoom="11.985714"
     inkscape:cx="35.041716"
     inkscape:cy="35.083433"
     inkscape:window-width="1910"
     inkscape:window-height="1017"
     inkscape:window-x="1733"
     inkscape:window-y="30"
     inkscape:window-maximized="0"
     inkscape:current-layer="svg734" />
  <path
     d="m 11.701132,65.609058 q -1.8482715,0 -3.2344753,-1.50172 Q 7.0804529,62.605617 7.0804529,60.834356 V 22.944785 Q 6.0022944,22.790763 5.0011472,21.404559 4,20.018355 4,18.401117 V 8.6206794 Q 4,6.849419 5.3862038,5.4247095 6.7724076,4 8.6206794,4 H 60.988379 q 1.77126,0 3.19597,1.4247095 1.424709,1.4247095 1.424709,3.1959699 v 9.7804376 q 0,1.617238 -1.001147,3.003442 -1.001147,1.386204 -2.079306,1.540226 v 37.889571 q 0,1.771261 -1.424709,3.272982 -1.424709,1.50172 -3.19597,1.50172 z M 60.988379,18.401117 V 8.6206794 H 8.6206794 V 18.401117 Z M 27.87351,39.194175 h 13.862038 q 1.001147,0 1.655744,-0.654597 0.654596,-0.654596 0.654596,-1.655743 0,-1.001147 -0.654596,-1.655744 -0.654597,-0.654596 -1.655744,-0.654596 H 27.87351 q -1.001147,0 -1.655743,0.654596 -0.654597,0.654597 -0.654597,1.655744 0,1.001147 0.654597,1.655743 0.654596,0.654597 1.655743,0.654597 z"
     id="path732"
     style="stroke-width:1.54023" />
</svg>
