<?xml version="1.0" encoding="UTF-8" standalone="no"?>
<svg
   fill="#677285"
   height="70px"
   width="70px"
   version="1.1"
   id="svg379"
   sodipodi:docname="build-exporters.svg"
   inkscape:version="1.2.1 (9c6d41e, 2022-07-14)"
   xmlns:inkscape="http://www.inkscape.org/namespaces/inkscape"
   xmlns:sodipodi="http://sodipodi.sourceforge.net/DTD/sodipodi-0.dtd"
   xmlns="http://www.w3.org/2000/svg"
   xmlns:svg="http://www.w3.org/2000/svg">
  <defs
     id="defs383" />
  <sodipodi:namedview
     id="namedview381"
     pagecolor="#505050"
     bordercolor="#eeeeee"
     borderopacity="1"
     inkscape:showpageshadow="0"
     inkscape:pageopacity="0"
     inkscape:pagecheckerboard="0"
     inkscape:deskcolor="#505050"
     showgrid="false"
     inkscape:zoom="4.3697917"
     inkscape:cx="28.834327"
     inkscape:cy="16.59118"
     inkscape:window-width="1910"
     inkscape:window-height="1017"
     inkscape:window-x="1733"
     inkscape:window-y="30"
     inkscape:window-maximized="0"
     inkscape:current-layer="svg379" />
  <path
     d="m 9.7876272,63.236986 q -2.0072603,0 -3.4123423,-1.405082 Q 4.9702026,60.426822 4.9702026,58.419561 V 10.245315 q 0,-2.0072603 1.4050823,-3.4123423 1.405082,-1.4050823 3.4123423,-1.4050823 H 57.961872 q 2.007261,0 3.412343,1.4050823 1.405082,1.405082 1.405082,3.4123423 v 4.817424 q 0,1.043776 -0.682467,1.726244 -0.682469,0.682468 -1.726245,0.682468 -1.043776,0 -1.726243,-0.682468 -0.68247,-0.682468 -0.68247,-1.726244 V 10.245315 H 9.7876272 V 58.419561 H 57.961872 v -4.817425 q 0,-1.043773 0.68247,-1.726243 0.682467,-0.68247 1.726243,-0.68247 1.043776,0 1.726245,0.68247 0.682467,0.68247 0.682467,1.726243 v 4.817425 q 0,2.007261 -1.405082,3.412343 -1.405082,1.405082 -3.412343,1.405082 z M 56.677227,36.741152 H 28.495293 q -1.043776,0 -1.726246,-0.68247 -0.682466,-0.68247 -0.682466,-1.726243 0,-1.043775 0.682466,-1.726245 0.68247,-0.682467 1.726246,-0.682467 h 28.181934 l -7.386719,-7.46701 q -0.642322,-0.722613 -0.682467,-1.686098 -0.04015,-0.963485 0.682467,-1.6861 0.722615,-0.722612 1.6861,-0.722612 0.963485,0 1.686097,0.722612 l 11.56182,11.56182 q 0.722615,0.722615 0.722615,1.6861 0,0.963485 -0.722615,1.686098 l -11.56182,11.561819 q -0.722612,0.722613 -1.686097,0.722613 -0.963485,0 -1.6861,-0.722613 -0.722613,-0.722615 -0.682467,-1.6861 0.04015,-0.963485 0.682467,-1.686097 z"
     id="path377"
     style="stroke-width:1.60581" />
</svg>
