<?xml version="1.0" encoding="UTF-8" standalone="no"?>
<svg
   fill="#677285"
   height="70px"
   width="70px"
   version="1.1"
   id="svg448"
   sodipodi:docname="build-frontends.svg"
   inkscape:version="1.2.1 (9c6d41e, 2022-07-14)"
   xmlns:inkscape="http://www.inkscape.org/namespaces/inkscape"
   xmlns:sodipodi="http://sodipodi.sourceforge.net/DTD/sodipodi-0.dtd"
   xmlns="http://www.w3.org/2000/svg"
   xmlns:svg="http://www.w3.org/2000/svg">
  <defs
     id="defs452" />
  <sodipodi:namedview
     id="namedview450"
     pagecolor="#505050"
     bordercolor="#eeeeee"
     borderopacity="1"
     inkscape:showpageshadow="0"
     inkscape:pageopacity="0"
     inkscape:pagecheckerboard="0"
     inkscape:deskcolor="#505050"
     showgrid="false"
     inkscape:zoom="3.0899093"
     inkscape:cx="136.89722"
     inkscape:cy="6.958133"
     inkscape:window-width="1910"
     inkscape:window-height="1017"
     inkscape:window-x="1733"
     inkscape:window-y="30"
     inkscape:window-maximized="0"
     inkscape:current-layer="svg448" />
  <path
     d="m 9.9345473,66.734156 q -1.9272382,0 -3.3726668,-1.44543 Q 5.1164518,63.843299 5.1164518,61.916061 V 7.3109787 q 0,-1.9272382 1.4454287,-3.3726668 Q 8.0073091,2.4928832 9.9345473,2.4928832 H 35.22955 q 0.963619,0 1.887085,0.401508 0.923467,0.4015077 1.565883,1.0439207 L 55.064043,20.319836 q 0.642412,0.642413 1.043919,1.565881 0.401507,0.923467 0.401507,1.887089 V 37.664981 L 34.025025,60.149425 v 6.584731 z m 30.1130967,0 q -0.481811,0 -0.843166,-0.361359 -0.361358,-0.361355 -0.361358,-0.843166 v -2.409049 q 0,-0.481807 0.160608,-0.883315 0.160608,-0.40151 0.562108,-0.803017 L 55.144347,45.936044 59.80184,50.352631 44.143028,66.011442 q -0.401507,0.401507 -0.803017,0.562109 -0.401507,0.160608 -0.883318,0.160608 z M 61.969977,48.184488 57.392788,43.6876 l 2.56965,-2.48935 q 0.722713,-0.722713 1.726484,-0.682565 1.003771,0.04015 1.646184,0.682565 l 1.043919,1.12422 q 0.722714,0.722717 0.722714,1.726485 0,1.003771 -0.722714,1.726484 z M 36.434071,24.977327 H 51.691375 L 34.025025,7.3109787 V 22.568282 q 0,1.043919 0.682562,1.726484 0.682564,0.682561 1.726484,0.682561 z"
     id="path446"
     style="stroke-width:1.60603" />
</svg>
