<?xml version="1.0" encoding="UTF-8" standalone="no"?>
<svg
   fill="#677285"
   height="70px"
   width="70px"
   version="1.1"
   id="svg574"
   sodipodi:docname="build-multi-stage.svg"
   inkscape:version="1.2.1 (9c6d41e, 2022-07-14)"
   xmlns:inkscape="http://www.inkscape.org/namespaces/inkscape"
   xmlns:sodipodi="http://sodipodi.sourceforge.net/DTD/sodipodi-0.dtd"
   xmlns="http://www.w3.org/2000/svg"
   xmlns:svg="http://www.w3.org/2000/svg">
  <defs
     id="defs578" />
  <sodipodi:namedview
     id="namedview576"
     pagecolor="#505050"
     bordercolor="#eeeeee"
     borderopacity="1"
     inkscape:showpageshadow="0"
     inkscape:pageopacity="0"
     inkscape:pagecheckerboard="0"
     inkscape:deskcolor="#505050"
     showgrid="false"
     inkscape:zoom="6.1798186"
     inkscape:cx="35.59975"
     inkscape:cy="5.259054"
     inkscape:window-width="1910"
     inkscape:window-height="1017"
     inkscape:window-x="1733"
     inkscape:window-y="30"
     inkscape:window-maximized="0"
     inkscape:current-layer="svg574" />
  <path
     d="M 17.595934,54.362924 H 28.598398 V 42.840657 h 8.923259 V 31.318393 h 8.923262 V 19.70949 h 5.804448 q 1.126235,0 1.862622,-0.736384 0.736386,-0.736387 0.736386,-1.862623 0,-1.126236 -0.736386,-1.862623 -0.736387,-0.736384 -1.862622,-0.736384 H 41.2469 v 11.522267 h -8.923256 v 11.522266 h -8.923261 v 11.608899 h -5.804449 q -1.126236,0 -1.862623,0.736387 -0.736384,0.736383 -0.736384,1.862621 0,1.126235 0.736384,1.862622 0.736387,0.736386 1.862623,0.736386 z M 8.9325762,65.625289 q -2.0792058,0 -3.6386107,-1.559406 Q 3.7345613,62.506481 3.7345613,60.427276 V 8.447125 q 0,-2.0792058 1.5594042,-3.6386107 Q 6.8533704,3.2491101 8.9325762,3.2491101 H 60.912727 q 2.079205,0 3.638607,1.5594042 1.559406,1.5594049 1.559406,3.6386107 v 51.980151 q 0,2.079205 -1.559406,3.638607 -1.559402,1.559406 -3.638607,1.559406 z"
     id="path572"
     style="stroke-width:1.73267" />
</svg>
