<svg width="58" height="58" viewBox="0 0 58 58" fill="none" xmlns="http://www.w3.org/2000/svg">
<mask id="mask0_7183_173508" style="mask-type:alpha" maskUnits="userSpaceOnUse" x="0" y="6" width="50" height="51">
<g clip-path="url(#clip0_7183_173508)">
<path d="M42.7077 29.4166H39.5827V21.0833C39.5827 18.7916 37.7077 16.9166 35.416 16.9166H27.0827V13.7916C27.0827 10.9166 24.7493 8.58325 21.8743 8.58325C18.9993 8.58325 16.666 10.9166 16.666 13.7916V16.9166H8.33268C6.04102 16.9166 4.18685 18.7916 4.18685 21.0833V28.9999H7.29102C10.3952 28.9999 12.916 31.5208 12.916 34.6249C12.916 37.7291 10.3952 40.2499 7.29102 40.2499H4.16602V48.1666C4.16602 50.4583 6.04102 52.3333 8.33268 52.3333H16.2493V49.2083C16.2493 46.1041 18.7702 43.5832 21.8743 43.5832C24.9785 43.5832 27.4993 46.1041 27.4993 49.2083V52.3333H35.416C37.7077 52.3333 39.5827 50.4583 39.5827 48.1666V39.8333H42.7077C45.5827 39.8333 47.916 37.4999 47.916 34.6249C47.916 31.7499 45.5827 29.4166 42.7077 29.4166Z" fill="black"/>
</g>
</mask>
<g mask="url(#mask0_7183_173508)">
<rect y="6.5" width="50" height="50" fill="#677285"/>
</g>
<mask id="mask1_7183_173508" style="mask-type:alpha" maskUnits="userSpaceOnUse" x="36" y="1" width="22" height="23">
<g clip-path="url(#clip1_7183_173508)">
<path d="M53.8375 8.83331L54.5616 7.22914L56.1658 6.50498C56.5233 6.33998 56.5233 5.83581 56.1658 5.67081L54.5616 4.94664L53.8375 3.33331C53.6725 2.97581 53.1683 2.97581 53.0033 3.33331L52.2791 4.93748L50.6658 5.66164C50.3083 5.82664 50.3083 6.33081 50.6658 6.49581L52.27 7.21998L52.9941 8.83331C53.1591 9.19081 53.6725 9.19081 53.8375 8.83331ZM46.5408 10.2083L45.0833 6.99998C44.7625 6.28498 43.7358 6.28498 43.415 6.99998L41.9575 10.2083L38.7491 11.6658C38.0341 11.9958 38.0341 13.0133 38.7491 13.3341L41.9575 14.7916L43.415 18C43.745 18.715 44.7625 18.715 45.0833 18L46.5408 14.7916L49.7491 13.3341C50.4641 13.0041 50.4641 11.9866 49.7491 11.6658L46.5408 10.2083ZM52.9941 16.1666L52.27 17.7708L50.6658 18.495C50.3083 18.66 50.3083 19.1641 50.6658 19.3291L52.27 20.0533L52.9941 21.6666C53.1591 22.0241 53.6633 22.0241 53.8283 21.6666L54.5525 20.0625L56.1658 19.3383C56.5233 19.1733 56.5233 18.6691 56.1658 18.5041L54.5616 17.78L53.8375 16.1666C53.6725 15.8091 53.1591 15.8091 52.9941 16.1666Z" fill="black"/>
</g>
</mask>
<g mask="url(#mask1_7183_173508)">
<rect x="36" y="1.5" width="22" height="22" fill="#677285"/>
</g>
<defs>
<clipPath id="clip0_7183_173508">
<rect width="50" height="50" fill="white" transform="translate(0 6.5)"/>
</clipPath>
<clipPath id="clip1_7183_173508">
<rect width="22" height="22" fill="white" transform="translate(36 1.5)"/>
</clipPath>
</defs>
</svg>
