<svg width="830" height="125" viewBox="0 0 830 125" fill="none" xmlns="http://www.w3.org/2000/svg">
<g clip-path="url(#clip0_507_143)">
<rect width="830" height="125" rx="6" fill="#0F52FF"/>
<path opacity="0.05" d="M71.3839 68.4761C139.084 72.3822 171.283 96.3328 238.625 94.5118C281.208 93.3703 342.909 83.3135 376.211 72.5348C409.512 61.7561 448.786 51.3538 491.526 54.4531C525.43 56.9079 554.338 67.4755 587.442 71.8643C629.388 77.4408 672.955 72.665 715.134 69.7773C757.313 66.8896 805.643 66.6875 839.695 79.0668C874.016 91.5723 882.075 113.543 870.524 131.33C858.973 149.117 831.685 163.744 804.978 177.874C757.742 202.879 710.517 227.862 663.281 252.866C643.969 263.083 622.717 273.849 592.559 277.003C568.496 279.51 542.622 276.755 517.916 273.997C426.763 263.825 335.61 253.653 244.468 243.458C207.676 239.341 169.764 235.02 138.809 225.107C108.761 215.489 87.8038 201.451 59.9652 190.633C35.1957 181.003 5.55584 174.123 -21.3264 165.611C-48.2085 157.099 -73.4475 146.187 -82.2077 132.508C-93.0767 115.606 -65.1811 99.541 -42.1645 87.6868C-15.2324 73.7721 27.7561 65.9323 71.395 68.4538L71.3839 68.4761Z" fill="black"/>
<path opacity="0.06" d="M227.983 115.718C294.961 109.774 360.595 90.6084 426.007 82.051C473.744 75.8013 532.851 78.7789 578.39 88.1503C623.929 97.5217 663.73 105.994 713.22 109.548C775.765 114.039 831.545 83.0618 879.91 101.125C917.75 115.256 940.006 163.126 929.195 184.106C905.889 229.348 822.533 264.757 727.597 285.227C632.66 305.698 526.033 313.447 421.148 320.978C333.322 327.285 238.072 333.081 158.803 314.726C81.8617 296.896 38.6564 260.607 0.164599 226.481C-23.6379 205.361 -48.1005 183.027 -44.7357 159.684C-41.4946 136.114 -41.3895 102.704 15.1954 101.125C79.8029 99.3428 162.105 121.54 227.983 115.718Z" fill="black"/>
<path d="M38.48 47.04C41.5733 47.04 44.2267 47.6 46.44 48.72C48.6533 49.84 50.3467 51.4533 51.52 53.56C52.6933 55.6667 53.28 58.1733 53.28 61.08C53.28 63.96 52.6933 66.4533 51.52 68.56C50.3467 70.64 48.6533 72.24 46.44 73.36C44.2267 74.4533 41.5733 75 38.48 75H30.2V47.04H38.48ZM38.48 72.68C42.3733 72.68 45.3333 71.6667 47.36 69.64C49.4133 67.5867 50.44 64.7333 50.44 61.08C50.44 57.4 49.4133 54.5333 47.36 52.48C45.3333 50.4 42.3733 49.36 38.48 49.36H33V72.68H38.48ZM67.2022 75.32C65.1489 75.32 63.2955 74.8667 61.6422 73.96C60.0155 73.0267 58.7222 71.72 57.7622 70.04C56.8289 68.3333 56.3622 66.3467 56.3622 64.08C56.3622 61.8133 56.8422 59.84 57.8022 58.16C58.7622 56.4533 60.0689 55.1467 61.7222 54.24C63.3755 53.3067 65.2289 52.84 67.2822 52.84C69.3355 52.84 71.1889 53.3067 72.8422 54.24C74.5222 55.1467 75.8289 56.4533 76.7622 58.16C77.7222 59.84 78.2022 61.8133 78.2022 64.08C78.2022 66.32 77.7222 68.2933 76.7622 70C75.8022 71.7067 74.4822 73.0267 72.8022 73.96C71.1222 74.8667 69.2555 75.32 67.2022 75.32ZM67.2022 72.88C68.6422 72.88 69.9755 72.56 71.2022 71.92C72.4289 71.2533 73.4155 70.2667 74.1622 68.96C74.9355 67.6267 75.3222 66 75.3222 64.08C75.3222 62.16 74.9489 60.5467 74.2022 59.24C73.4555 57.9067 72.4689 56.92 71.2422 56.28C70.0155 55.6133 68.6822 55.28 67.2422 55.28C65.8022 55.28 64.4689 55.6133 63.2422 56.28C62.0155 56.92 61.0289 57.9067 60.2822 59.24C59.5622 60.5467 59.2022 62.16 59.2022 64.08C59.2022 66 59.5622 67.6267 60.2822 68.96C61.0289 70.2667 62.0022 71.2533 63.2022 71.92C64.4289 72.56 65.7622 72.88 67.2022 72.88ZM81.2263 64.08C81.2263 61.8133 81.6796 59.84 82.5863 58.16C83.4929 56.4533 84.7463 55.1467 86.3463 54.24C87.9463 53.3067 89.7729 52.84 91.8263 52.84C94.5196 52.84 96.7329 53.5067 98.4663 54.84C100.226 56.1733 101.36 57.9867 101.866 60.28H98.8663C98.4929 58.7067 97.6796 57.48 96.4263 56.6C95.1996 55.6933 93.6663 55.24 91.8263 55.24C90.3596 55.24 89.0396 55.5733 87.8663 56.24C86.6929 56.9067 85.7596 57.9067 85.0663 59.24C84.3996 60.5467 84.0663 62.16 84.0663 64.08C84.0663 66 84.3996 67.6267 85.0663 68.96C85.7596 70.2933 86.6929 71.2933 87.8663 71.96C89.0396 72.6267 90.3596 72.96 91.8263 72.96C93.6663 72.96 95.1996 72.52 96.4263 71.64C97.6796 70.7333 98.4929 69.48 98.8663 67.88H101.866C101.36 70.12 100.226 71.92 98.4663 73.28C96.7063 74.64 94.4929 75.32 91.8263 75.32C89.7729 75.32 87.9463 74.8667 86.3463 73.96C84.7463 73.0267 83.4929 71.72 82.5863 70.04C81.6796 68.3333 81.2263 66.3467 81.2263 64.08ZM118.037 75L109.037 65.2V75H106.237V45.4H109.037V62.92L117.837 53.16H121.757L111.397 64.04L121.837 75H118.037ZM144.416 62.96C144.416 63.92 144.39 64.6533 144.336 65.16H126.216C126.296 66.8133 126.696 68.2267 127.416 69.4C128.136 70.5733 129.083 71.4667 130.256 72.08C131.43 72.6667 132.71 72.96 134.096 72.96C135.91 72.96 137.43 72.52 138.656 71.64C139.91 70.76 140.736 69.5733 141.136 68.08H144.096C143.563 70.2133 142.416 71.96 140.656 73.32C138.923 74.6533 136.736 75.32 134.096 75.32C132.043 75.32 130.203 74.8667 128.576 73.96C126.95 73.0267 125.67 71.72 124.736 70.04C123.83 68.3333 123.376 66.3467 123.376 64.08C123.376 61.8133 123.83 59.8267 124.736 58.12C125.643 56.4133 126.91 55.1067 128.536 54.2C130.163 53.2933 132.016 52.84 134.096 52.84C136.176 52.84 137.99 53.2933 139.536 54.2C141.11 55.1067 142.31 56.3333 143.136 57.88C143.99 59.4 144.416 61.0933 144.416 62.96ZM141.576 62.88C141.603 61.2533 141.27 59.8667 140.576 58.72C139.91 57.5733 138.99 56.7067 137.816 56.12C136.643 55.5333 135.363 55.24 133.976 55.24C131.896 55.24 130.123 55.9067 128.656 57.24C127.19 58.5733 126.376 60.4533 126.216 62.88H141.576ZM151.539 57.04C152.152 55.68 153.086 54.6267 154.339 53.88C155.619 53.1333 157.179 52.76 159.019 52.76V55.68H158.259C156.232 55.68 154.606 56.2267 153.379 57.32C152.152 58.4133 151.539 60.24 151.539 62.8V75H148.739V53.16H151.539V57.04ZM171.328 64.04C171.328 61.8 171.781 59.84 172.688 58.16C173.594 56.4533 174.834 55.1467 176.408 54.24C178.008 53.3067 179.808 52.84 181.808 52.84C183.728 52.84 185.461 53.3067 187.008 54.24C188.554 55.1733 189.688 56.3867 190.408 57.88V45.4H193.208V75H190.408V70.12C189.741 71.64 188.648 72.8933 187.128 73.88C185.608 74.84 183.821 75.32 181.768 75.32C179.768 75.32 177.968 74.8533 176.368 73.92C174.794 72.9867 173.554 71.6667 172.648 69.96C171.768 68.2533 171.328 66.28 171.328 64.04ZM190.408 64.08C190.408 62.32 190.048 60.7733 189.328 59.44C188.608 58.1067 187.621 57.08 186.368 56.36C185.141 55.64 183.781 55.28 182.288 55.28C180.741 55.28 179.354 55.6267 178.128 56.32C176.901 57.0133 175.928 58.0267 175.208 59.36C174.514 60.6667 174.168 62.2267 174.168 64.04C174.168 65.8267 174.514 67.4 175.208 68.76C175.928 70.0933 176.901 71.12 178.128 71.84C179.354 72.5333 180.741 72.88 182.288 72.88C183.781 72.88 185.141 72.52 186.368 71.8C187.621 71.08 188.608 70.0533 189.328 68.72C190.048 67.3867 190.408 65.84 190.408 64.08ZM208.36 75.32C206.307 75.32 204.453 74.8667 202.8 73.96C201.173 73.0267 199.88 71.72 198.92 70.04C197.987 68.3333 197.52 66.3467 197.52 64.08C197.52 61.8133 198 59.84 198.96 58.16C199.92 56.4533 201.227 55.1467 202.88 54.24C204.533 53.3067 206.387 52.84 208.44 52.84C210.493 52.84 212.347 53.3067 214 54.24C215.68 55.1467 216.987 56.4533 217.92 58.16C218.88 59.84 219.36 61.8133 219.36 64.08C219.36 66.32 218.88 68.2933 217.92 70C216.96 71.7067 215.64 73.0267 213.96 73.96C212.28 74.8667 210.413 75.32 208.36 75.32ZM208.36 72.88C209.8 72.88 211.133 72.56 212.36 71.92C213.587 71.2533 214.573 70.2667 215.32 68.96C216.093 67.6267 216.48 66 216.48 64.08C216.48 62.16 216.107 60.5467 215.36 59.24C214.613 57.9067 213.627 56.92 212.4 56.28C211.173 55.6133 209.84 55.28 208.4 55.28C206.96 55.28 205.627 55.6133 204.4 56.28C203.173 56.92 202.187 57.9067 201.44 59.24C200.72 60.5467 200.36 62.16 200.36 64.08C200.36 66 200.72 67.6267 201.44 68.96C202.187 70.2667 203.16 71.2533 204.36 71.92C205.587 72.56 206.92 72.88 208.36 72.88ZM222.384 64.08C222.384 61.8133 222.837 59.84 223.744 58.16C224.651 56.4533 225.904 55.1467 227.504 54.24C229.104 53.3067 230.931 52.84 232.984 52.84C235.677 52.84 237.891 53.5067 239.624 54.84C241.384 56.1733 242.517 57.9867 243.024 60.28H240.024C239.651 58.7067 238.837 57.48 237.584 56.6C236.357 55.6933 234.824 55.24 232.984 55.24C231.517 55.24 230.197 55.5733 229.024 56.24C227.851 56.9067 226.917 57.9067 226.224 59.24C225.557 60.5467 225.224 62.16 225.224 64.08C225.224 66 225.557 67.6267 226.224 68.96C226.917 70.2933 227.851 71.2933 229.024 71.96C230.197 72.6267 231.517 72.96 232.984 72.96C234.824 72.96 236.357 72.52 237.584 71.64C238.837 70.7333 239.651 69.48 240.024 67.88H243.024C242.517 70.12 241.384 71.92 239.624 73.28C237.864 74.64 235.651 75.32 232.984 75.32C230.931 75.32 229.104 74.8667 227.504 73.96C225.904 73.0267 224.651 71.72 223.744 70.04C222.837 68.3333 222.384 66.3467 222.384 64.08ZM254.915 75.32C252.409 75.32 250.355 74.7467 248.755 73.6C247.182 72.4267 246.302 70.84 246.115 68.84H248.995C249.129 70.0667 249.702 71.0667 250.715 71.84C251.755 72.5867 253.142 72.96 254.875 72.96C256.395 72.96 257.582 72.6 258.435 71.88C259.315 71.16 259.755 70.2667 259.755 69.2C259.755 68.4533 259.515 67.84 259.035 67.36C258.555 66.88 257.942 66.5067 257.195 66.24C256.475 65.9467 255.489 65.64 254.235 65.32C252.609 64.8933 251.289 64.4667 250.275 64.04C249.262 63.6133 248.395 62.9867 247.675 62.16C246.982 61.3067 246.635 60.1733 246.635 58.76C246.635 57.6933 246.955 56.7067 247.595 55.8C248.235 54.8933 249.142 54.1733 250.315 53.64C251.489 53.1067 252.822 52.84 254.315 52.84C256.662 52.84 258.555 53.44 259.995 54.64C261.435 55.8133 262.209 57.44 262.315 59.52H259.515C259.435 58.24 258.929 57.2133 257.995 56.44C257.089 55.64 255.835 55.24 254.235 55.24C252.822 55.24 251.675 55.5733 250.795 56.24C249.915 56.9067 249.475 57.7333 249.475 58.72C249.475 59.5733 249.729 60.28 250.235 60.84C250.769 61.3733 251.422 61.8 252.195 62.12C252.969 62.4133 254.009 62.7467 255.315 63.12C256.889 63.5467 258.142 63.96 259.075 64.36C260.009 64.76 260.809 65.3467 261.475 66.12C262.142 66.8933 262.489 67.92 262.515 69.2C262.515 70.3733 262.195 71.4267 261.555 72.36C260.915 73.2667 260.022 73.9867 258.875 74.52C257.729 75.0533 256.409 75.32 254.915 75.32Z" fill="white"/>
<path d="M796.073 58.4886C794.675 57.5476 791.003 57.1457 788.334 57.8655C788.191 55.206 786.819 52.9644 784.311 51.0086L783.383 50.3855L782.764 51.3206C781.548 53.1671 781.035 55.6282 781.216 57.8655C781.359 59.244 781.838 60.7929 782.764 61.9171C779.29 63.9332 776.087 63.4753 761.903 63.4753H740.005C739.941 66.6791 740.456 72.8409 744.373 77.8574C744.806 78.4118 745.28 78.9475 745.796 79.464C748.981 82.6541 753.793 84.994 760.989 85C771.968 85.0102 781.374 79.0739 787.096 64.7223C788.978 64.753 793.949 65.0599 796.381 60.3589C796.441 60.28 797 59.1126 797 59.1126L796.073 58.4886ZM754.296 55.5595H748.138V61.7187H754.296V55.5595ZM762.251 55.5595H756.093V61.7187H762.251V55.5595ZM770.206 55.5595H764.048V61.7187H770.206V55.5595ZM778.162 55.5595H772.004V61.7187H778.162V55.5595ZM746.341 55.5595H740.183V61.7187H746.341V55.5595ZM754.296 47.7802H748.138V53.9394H754.296V47.7802ZM762.251 47.7802H756.093V53.9394H762.251V47.7802ZM770.206 47.7802H764.048V53.9394H770.206V47.7802ZM770.206 40H764.048V46.1592H770.206V40Z" fill="white"/>
</g>
<defs>
<clipPath id="clip0_507_143">
<rect width="830" height="125" rx="6" fill="white"/>
</clipPath>
</defs>
</svg>
