<?xml version="1.0" encoding="UTF-8" standalone="no"?>
<svg
   height="48"
   width="48"
   version="1.1"
   id="svg5971"
   sodipodi:docname="engine-rootless.svg"
   inkscape:version="1.2.1 (9c6d41e, 2022-07-14)"
   xmlns:inkscape="http://www.inkscape.org/namespaces/inkscape"
   xmlns:sodipodi="http://sodipodi.sourceforge.net/DTD/sodipodi-0.dtd"
   xmlns="http://www.w3.org/2000/svg"
   xmlns:svg="http://www.w3.org/2000/svg">
  <defs
     id="defs5975" />
  <sodipodi:namedview
     id="namedview5973"
     pagecolor="#505050"
     bordercolor="#eeeeee"
     borderopacity="1"
     inkscape:showpageshadow="0"
     inkscape:pageopacity="0"
     inkscape:pagecheckerboard="0"
     inkscape:deskcolor="#505050"
     showgrid="false"
     inkscape:zoom="6.6041667"
     inkscape:cx="24.07571"
     inkscape:cy="24.15142"
     inkscape:window-width="1189"
     inkscape:window-height="1025"
     inkscape:window-x="526"
     inkscape:window-y="51"
     inkscape:window-maximized="0"
     inkscape:current-layer="svg5971" />
  <path
     d="M24 43.8q-.3 0-.6-.025t-.55-.125q-6.55-2.15-10.7-8.3Q8 29.2 8 21.9v-9.8q0-.95.55-1.725.55-.775 1.4-1.125l13-4.85q.55-.2 1.05-.2t1.05.2l13 4.85q.85.35 1.4 1.125.55.775.55 1.725v9.8q0 7.3-4.15 13.45-4.15 6.15-10.7 8.3-.25.1-.55.125-.3.025-.6.025Zm0-2.9q5.3-1.75 8.775-6.425Q36.25 29.8 36.85 24H24V7.25L11 12.1v9.8q0 .6.025 1.025.025.425.125 1.075H24Z"
     id="path5969"
     style="fill:#677285;fill-opacity:1" />
</svg>
