<?xml version="1.0" encoding="UTF-8" standalone="no"?>
<svg
   height="48"
   width="48"
   version="1.1"
   id="svg4421"
   sodipodi:docname="engine-networking.svg"
   inkscape:version="1.2.1 (9c6d41e, 2022-07-14)"
   xmlns:inkscape="http://www.inkscape.org/namespaces/inkscape"
   xmlns:sodipodi="http://sodipodi.sourceforge.net/DTD/sodipodi-0.dtd"
   xmlns="http://www.w3.org/2000/svg"
   xmlns:svg="http://www.w3.org/2000/svg">
  <defs
     id="defs4425" />
  <sodipodi:namedview
     id="namedview4423"
     pagecolor="#505050"
     bordercolor="#eeeeee"
     borderopacity="1"
     inkscape:showpageshadow="0"
     inkscape:pageopacity="0"
     inkscape:pagecheckerboard="0"
     inkscape:deskcolor="#505050"
     showgrid="false"
     inkscape:zoom="6.6041667"
     inkscape:cx="24.07571"
     inkscape:cy="24.15142"
     inkscape:window-width="1189"
     inkscape:window-height="1025"
     inkscape:window-x="526"
     inkscape:window-y="51"
     inkscape:window-maximized="0"
     inkscape:current-layer="svg4421" />
  <path
     d="M9 44q-1.25 0-2.125-.875T6 41v-7.5q0-1.25.875-2.125T9 30.5h3v-5q0-1.25.875-2.125T15 22.5h7.5v-5h-3q-1.25 0-2.125-.875T16.5 14.5V7q0-1.25.875-2.125T19.5 4h9q1.25 0 2.125.875T31.5 7v7.5q0 1.25-.875 2.125T28.5 17.5h-3v5H33q1.25 0 2.125.875T36 25.5v5h3q1.25 0 2.125.875T42 33.5V41q0 1.25-.875 2.125T39 44h-9q-1.25 0-2.125-.875T27 41v-7.5q0-1.25.875-2.125T30 30.5h3v-5H15v5h3q1.25 0 2.125.875T21 33.5V41q0 1.25-.875 2.125T18 44Z"
     id="path4419"
     style="fill:#677285;fill-opacity:1" />
</svg>
