<svg width="70" height="70" viewBox="0 0 70 70" fill="none" xmlns="http://www.w3.org/2000/svg">
  <path d="M14.7791 54.7305C16.5876 44.2236 19.4577 40.5254 24.2005 40.7525L28.7571 45.3091C28.9841 50.0518 25.2861 52.9221 14.7791 54.7305Z" fill="#71CFFF"/>
  <path d="M20.9791 38.1836C32.3102 15.7188 45.2724 8.32395 61.3353 8.16491C61.4947 24.2282 54.5757 37.1891 31.1174 48.3219L20.9791 38.1836Z" fill="#2854A1"/>
  <circle cx="45.5538" cy="23.9553" r="5.32911" transform="rotate(45 45.5538 23.9553)" fill="#71CFFF"/>
  <path d="M42.667 49.9593L43.3346 40.8354L31.6612 48.2206L29.2648 53.698C28.9119 54.5047 29.6985 55.3408 30.5252 55.0377L42.014 50.8252C42.3829 50.6899 42.6384 50.3511 42.667 49.9593Z" fill="#2854A1"/>
  <path d="M19.3871 26.6792L28.5109 26.0116L21.1257 37.685L15.6483 40.0814C14.8416 40.4343 14.0055 39.6477 14.3086 38.8209L18.5212 27.3322C18.6564 26.9633 18.9952 26.7078 19.3871 26.6792Z" fill="#2854A1"/>
  <line x1="9.38519" y1="52.0973" x2="2.45713" y2="59.0254" stroke="#71CFFF" stroke-width="2" stroke-linecap="round" stroke-linejoin="round"/>
  <line x1="11.4706" y1="58.354" x2="1.41422" y2="68.4105" stroke="#71CFFF" stroke-width="2" stroke-linecap="round" stroke-linejoin="round"/>
  <line x1="17.7275" y1="60.4396" x2="10.7995" y2="67.3677" stroke="#71CFFF" stroke-width="2" stroke-linecap="round" stroke-linejoin="round"/>
</svg>
