<svg width="48" height="48" viewBox="0 0 48 48" fill="none" xmlns="http://www.w3.org/2000/svg">
<g clip-path="url(#clip0_805_32084)">
<path d="M13.6006 34.1473C14.5307 28.7438 16.0067 26.8419 18.4459 26.9586L20.7893 29.302C20.906 31.7411 19.0042 33.2173 13.6006 34.1473Z" fill="#CD6A0A"/>
<path d="M16.7891 25.6374C22.6165 14.0841 29.2828 10.281 37.5437 10.1992C37.6257 18.4603 34.0673 25.1259 22.003 30.8514L16.7891 25.6374Z" fill="#55A4F1"/>
<path d="M27.4898 20.2577C28.5601 21.328 30.2954 21.328 31.3657 20.2577C32.436 19.1874 32.436 17.4521 31.3657 16.3818C30.2954 15.3115 28.5601 15.3115 27.4898 16.3818C26.4195 17.4521 26.4195 19.1874 27.4898 20.2577Z" fill="white"/>
<path d="M27.943 31.6933L28.2863 27.001L22.2828 30.7991L21.0504 33.616C20.8689 34.0309 21.2734 34.4609 21.6986 34.305L27.6071 32.1386C27.7968 32.069 27.9282 31.8948 27.943 31.6933Z" fill="#55A4F1"/>
<path d="M15.9707 19.7208L20.6629 19.3774L16.8648 25.3809L14.0478 26.6133C13.633 26.7948 13.203 26.3903 13.3589 25.9651L15.5253 20.0566C15.5949 19.8669 15.7691 19.7355 15.9707 19.7208Z" fill="#55A4F1"/>
<path d="M10.8267 32.793L7.26367 36.356" stroke="#1760CA" stroke-width="2" stroke-linecap="round" stroke-linejoin="round"/>
<path d="M11.8994 36.0107L6.72754 41.1827" stroke="#1760CA" stroke-width="2" stroke-linecap="round" stroke-linejoin="round"/>
<path d="M15.1172 37.083L11.5542 40.646" stroke="#1760CA" stroke-width="2" stroke-linecap="round" stroke-linejoin="round"/>
</g>
<defs>
<clipPath id="clip0_805_32084">
<rect width="36" height="36" fill="white" transform="translate(6 6)"/>
</clipPath>
</defs>
</svg>
