<svg width="99" height="33" viewBox="0 0 99 33" fill="none" xmlns="http://www.w3.org/2000/svg">
<path d="M26.5297 14.0505C29.5026 7.99006 30 2.3082 30 2.3082C30 2.3082 24.3158 2.80558 18.2537 5.78C22.3847 6.66146 25.6453 9.92094 26.5297 14.0507V14.0505Z" fill="#00A58C"/>
<path opacity="0.5" d="M26.5282 18.5726C25.6278 22.76 22.2838 26.05 18.0682 26.8721L18.3777 27.1816C19.5352 28.3391 21.0517 28.9172 22.5682 28.9172C24.0848 28.9172 25.6011 28.3393 26.758 27.1816C29.0714 24.8681 29.0714 21.1156 26.758 18.8022L26.5284 18.5724L26.5282 18.5726Z" fill="#00A58C"/>
<path d="M22.5091 16.3071C22.5091 15.5717 22.3867 14.8643 22.1599 14.2042C21.5097 12.3059 20.0053 10.8016 18.107 10.1514C17.4469 9.92475 16.7395 9.8024 16.0042 9.8024C12.4167 9.8024 9.49866 12.7205 9.49866 16.3071C9.49866 17.1894 9.67503 18.0311 9.9952 18.7992C10.6553 20.3849 11.9255 21.6551 13.5112 22.3152C14.2793 22.6354 15.1212 22.8117 16.0042 22.8117C19.5908 22.8117 22.5088 19.8937 22.5088 16.3071H22.5091Z" fill="#00A58C"/>
<path opacity="0.5" d="M5.43896 14.2431C6.26029 10.0275 9.5511 6.68353 13.7385 5.78315L13.5203 5.56494C11.206 3.25061 7.45435 3.25061 5.14002 5.56494C2.82654 7.87842 2.82654 11.6309 5.14002 13.9444L5.43896 14.2433V14.2431Z" fill="#00A58C"/>
<path d="M5.47559 18.5536C2.49822 24.6196 2 30.3082 2 30.3082C2 30.3082 7.68796 29.81 13.7522 26.8334C9.61884 25.9505 6.35684 22.6879 5.47559 18.5536Z" fill="#00A58C"/>
<path d="M77.9658 8.51944C77.4538 8.51944 77.0459 8.91682 77.0459 9.41182C77.0459 9.91776 77.4538 10.3151 77.9658 10.3151C78.4827 10.3151 78.8801 9.91776 78.8801 9.41182C78.8797 8.91682 78.4823 8.51944 77.9658 8.51944ZM77.9711 10.1252C77.5685 10.1252 77.2744 9.80961 77.2744 9.41223C77.2744 9.02052 77.5684 8.69929 77.9658 8.69929C78.3628 8.69929 78.6512 9.02052 78.6512 9.4179C78.6512 9.80961 78.3628 10.1252 77.9711 10.1252Z" fill="#00A58C"/>
<path d="M78.1725 9.43934V9.42841C78.281 9.3956 78.3572 9.31984 78.3572 9.22141C78.3572 9.13432 78.3191 9.06343 78.2701 9.02576C78.2049 8.98768 78.1287 8.96054 77.9598 8.96054C77.8132 8.96054 77.6985 8.97148 77.6171 8.98809V9.88047H77.8241V9.52117H77.9217C78.0364 9.52117 78.0907 9.56492 78.1069 9.66254C78.134 9.76624 78.1502 9.84766 78.1777 9.88047H78.4009C78.3791 9.84766 78.3625 9.79338 78.3357 9.65727C78.3082 9.53697 78.2592 9.47175 78.1725 9.43934ZM77.9274 9.37413H77.8298V9.11852C77.8517 9.11285 77.8893 9.10718 77.944 9.10718C78.0749 9.10718 78.1344 9.16187 78.1344 9.24369C78.134 9.33605 78.0416 9.37413 77.9274 9.37413Z" fill="#00A58C"/>
<path d="M40.5015 10.4234C41.47 10.4234 42.285 10.0743 42.9785 9.37387C43.6631 8.68281 44.003 7.83863 44.003 6.84093V0.855506C44.003 0.664309 43.9402 0.504304 43.8122 0.379135C43.6842 0.253966 43.5307 0.190369 43.3463 0.190369C43.158 0.190369 43.0041 0.253966 42.8809 0.379135C42.7574 0.504304 42.697 0.664309 42.697 0.855506V4.0463C42.0639 3.52294 41.3327 3.25883 40.5015 3.25883C39.5354 3.25883 38.7086 3.6076 38.0244 4.30838C37.3399 5.00633 37 5.85092 37 6.84133C37 7.83175 37.3423 8.6739 38.0244 9.37428C38.7086 10.0722 39.533 10.4234 40.5015 10.4234ZM38.4806 5.97082C38.5948 5.69739 38.7507 5.46123 38.946 5.2587C39.1416 5.05575 39.3746 4.89534 39.6399 4.77544C39.9076 4.65513 40.194 4.59639 40.5035 4.59639C40.813 4.59639 41.0925 4.65513 41.3603 4.77544C41.628 4.89575 41.8585 5.05616 42.0566 5.26113C42.2547 5.46609 42.4106 5.70428 42.5244 5.97325C42.6387 6.24465 42.6966 6.53226 42.6966 6.8389C42.6966 7.14555 42.6383 7.43558 42.5244 7.70455V7.70941C42.4102 7.98081 42.2543 8.219 42.0566 8.42154C41.8589 8.62691 41.626 8.78692 41.3603 8.90723C41.0925 9.02753 40.8085 9.08627 40.5035 9.08627C40.1985 9.08627 39.9076 9.02753 39.6399 8.90723C39.3721 8.78692 39.1416 8.62651 38.946 8.42356C38.7503 8.22062 38.5944 7.98243 38.4806 7.71144C38.3663 7.43801 38.3084 7.14797 38.3084 6.84133C38.308 6.53469 38.3663 6.24465 38.4806 5.97082Z" fill="#00A58C"/>
<path d="M71.9696 9.07678C71.9696 8.89044 71.9092 8.72558 71.7853 8.60041C71.6621 8.47524 71.5062 8.41164 71.3198 8.41164C71.157 8.4165 71.0124 8.47038 70.8892 8.57894C70.6936 8.74867 70.4817 8.87829 70.2512 8.96336C70.0207 9.04842 69.7692 9.09055 69.4946 9.09055C69.2523 9.09055 69.0194 9.05288 68.7982 8.97511C68.5767 8.89733 68.3701 8.7912 68.1858 8.65185C67.9994 8.51251 67.839 8.34764 67.7017 8.15199C67.5644 7.95877 67.4595 7.74407 67.3898 7.50832H72.3418C72.5253 7.50832 72.6793 7.44472 72.8073 7.31956C72.9353 7.19439 72.9981 7.03438 72.9981 6.84318C72.9981 6.34777 72.9118 5.88801 72.7421 5.46592C72.5719 5.0414 72.3131 4.65698 71.9736 4.31267L71.9692 4.31024C71.2777 3.61229 70.4509 3.26068 69.4921 3.26068C68.5325 3.26068 67.6993 3.60986 67.0147 4.31024C66.3301 5.00818 65.9902 5.85277 65.9902 6.84318C65.9902 7.8336 66.3325 8.67575 67.0147 9.37613C67.6993 10.0741 68.5236 10.4257 69.4921 10.4257C70.372 10.4257 71.1331 10.1356 71.7804 9.55558C71.906 9.42312 71.9696 9.26312 71.9696 9.07678ZM67.6924 5.53438C67.8301 5.34116 67.9925 5.17345 68.1793 5.03451C68.368 4.89557 68.5726 4.78904 68.7986 4.71126C69.0243 4.63349 69.2547 4.59581 69.4925 4.59581C69.7299 4.59581 69.9604 4.63349 70.1836 4.71126C70.4072 4.78904 70.6126 4.89517 70.7961 5.03451C70.9824 5.17345 71.1452 5.33873 71.2826 5.53438C71.4223 5.7276 71.5272 5.94229 71.5997 6.17805H67.3853C67.4526 5.94472 67.555 5.73003 67.6924 5.53438Z" fill="#00A58C"/>
<path d="M74.3696 10.4257C74.5531 10.4257 74.7026 10.3596 74.8278 10.23C74.9562 10.1004 75.0186 9.9424 75.0186 9.76092V6.84356C75.0186 6.53246 75.0769 6.23999 75.1907 5.96616C75.305 5.69273 75.4609 5.45657 75.6586 5.25404C75.8571 5.05109 76.0896 4.89068 76.3549 4.77524C76.6227 4.65736 76.9071 4.59822 77.2121 4.59822C77.5167 4.59822 77.8055 4.6525 78.0688 4.75863C78.1733 4.80562 78.2645 4.82952 78.3435 4.82952C78.4346 4.82952 78.5205 4.81291 78.5995 4.77767C78.6785 4.74243 78.7485 4.69503 78.8069 4.63386C78.8652 4.5727 78.9114 4.50181 78.9466 4.41917C78.9814 4.33897 79.0001 4.25188 79.0001 4.15749C79.0001 3.97359 78.9417 3.82493 78.8255 3.70948H78.8279C78.7117 3.59403 78.5646 3.5041 78.3876 3.43808C78.2106 3.37205 78.0174 3.32709 77.8055 3.30116C77.5957 3.27524 77.398 3.26349 77.2145 3.26349C76.7977 3.26349 76.4064 3.33195 76.0386 3.46846C75.6708 3.60537 75.3305 3.80103 75.0186 4.05582V3.92862C75.0186 3.74472 74.9558 3.58917 74.8278 3.45914C74.7002 3.32951 74.5487 3.26349 74.3696 3.26349C74.1898 3.26349 74.0318 3.32951 73.9042 3.45914C73.7758 3.58876 73.713 3.74675 73.713 3.92862V9.76092C73.713 9.94483 73.7758 10.1004 73.9042 10.23C74.0318 10.3596 74.1857 10.4257 74.3696 10.4257Z" fill="#00A58C"/>
<path d="M51.4904 5.46835C51.3203 5.04626 51.0667 4.65941 50.7244 4.31024C50.0329 3.61229 49.2066 3.26068 48.2473 3.26068C47.2881 3.26068 46.4545 3.60986 45.7703 4.31024C45.0857 5.00818 44.7458 5.85277 44.7458 6.84318C44.7458 7.8336 45.0881 8.67575 45.7703 9.37613C46.4549 10.0741 47.2788 10.4257 48.2473 10.4257C49.2159 10.4257 50.0309 10.0765 50.7244 9.37613C51.409 8.68507 51.7488 7.84089 51.7488 6.84318C51.744 6.34818 51.6581 5.89044 51.4904 5.46835ZM50.2703 7.70397V7.70883C50.1561 7.98024 50.0001 8.21842 49.8024 8.42096C49.6043 8.62633 49.3718 8.78634 49.1061 8.90665C48.8408 9.02696 48.5544 9.08569 48.2494 9.08569C47.9443 9.08569 47.6535 9.02696 47.3857 8.90665C47.118 8.78634 46.8875 8.62593 46.6918 8.42299C46.4962 8.22004 46.3402 7.98186 46.2264 7.71086C46.1122 7.43743 46.0543 7.1474 46.0543 6.84075C46.0543 6.53411 46.1126 6.24407 46.2264 5.97065C46.3406 5.69722 46.4966 5.46106 46.6918 5.25852C46.8875 5.05558 47.1204 4.89517 47.3857 4.77527C47.6535 4.65496 47.9399 4.59622 48.2494 4.59622C48.5588 4.59622 48.8383 4.65496 49.1061 4.77527C49.3739 4.89557 49.6043 5.05598 49.8024 5.26095C50.0005 5.46592 50.1565 5.70411 50.2703 5.97308C50.3845 6.24448 50.4425 6.53209 50.4425 6.83873C50.4429 7.14537 50.3845 7.43541 50.2703 7.70397Z" fill="#00A58C"/>
<path d="M62.628 6.19269L65.2472 4.45207C65.4141 4.33703 65.4955 4.16082 65.4963 3.92385C65.4959 3.83514 65.4777 3.75089 65.4428 3.67149C65.408 3.59129 65.3614 3.51837 65.3031 3.4568C65.2448 3.39563 65.1751 3.34581 65.0957 3.313C65.0167 3.28019 64.9304 3.26115 64.8397 3.26115C64.7092 3.26115 64.593 3.29436 64.4905 3.36242L60.7516 5.8504V0.860255C60.7516 0.671489 60.6889 0.513509 60.5609 0.383884C60.4329 0.254259 60.2814 0.188232 60.1023 0.188232C59.9233 0.188232 59.7649 0.254259 59.6365 0.383884C59.5085 0.513509 59.4457 0.671489 59.4457 0.860255V9.75129C59.4457 9.9352 59.5085 10.0932 59.6365 10.2252C59.7645 10.3573 59.9184 10.4233 60.1023 10.4233C60.2862 10.4233 60.4353 10.3573 60.5609 10.2252C60.6889 10.0932 60.7516 9.9352 60.7516 9.75129V7.44235L61.5152 6.93074L64.4046 10.2487C64.5209 10.3642 64.6675 10.4209 64.8421 10.4209C64.9329 10.4209 65.0191 10.4043 65.0981 10.369C65.1771 10.3358 65.2472 10.2864 65.3055 10.2252C65.3639 10.1641 65.4104 10.0932 65.4453 10.0105C65.4801 9.93034 65.4987 9.84325 65.4987 9.75575C65.4987 9.58116 65.4384 9.42561 65.3173 9.2887L62.628 6.19269Z" fill="#00A58C"/>
<path d="M55.9841 10.4282C56.8595 10.4282 57.621 10.1382 58.2659 9.55808C58.4032 9.41671 58.4733 9.25387 58.4733 9.0651C58.4733 8.87634 58.4126 8.7135 58.2894 8.58873C58.1659 8.46356 58.0099 8.39997 57.824 8.39997C57.6656 8.40483 57.5283 8.45182 57.412 8.54134C57.2026 8.72524 56.9838 8.86216 56.7485 8.95411C56.5156 9.04607 56.262 9.09103 55.9849 9.09103C55.6799 9.09103 55.3959 9.03189 55.1282 8.91401C54.8604 8.79613 54.6275 8.63572 54.4274 8.43521C54.2273 8.2347 54.0689 7.99408 53.9547 7.72308C53.8404 7.44966 53.7825 7.15719 53.7825 6.84569C53.7825 6.53418 53.8409 6.24212 53.9547 5.96829C54.0689 5.69486 54.2269 5.4587 54.4274 5.25616V5.25373C54.6275 5.05079 54.8604 4.89038 55.1282 4.77493C55.3959 4.65705 55.6799 4.59791 55.9849 4.59791C56.2596 4.59791 56.5136 4.6449 56.7485 4.73928C56.9814 4.83367 57.205 4.97261 57.4165 5.15449C57.542 5.25576 57.6842 5.30761 57.8426 5.30761C58.0314 5.30761 58.1849 5.24401 58.3084 5.11682C58.432 4.98962 58.4924 4.82921 58.4924 4.63802C58.4924 4.44722 58.4178 4.2702 58.2663 4.13329C57.6239 3.55322 56.8623 3.26318 55.9845 3.26318C55.0184 3.26318 54.1916 3.61236 53.5075 4.31274C52.8229 5.01069 52.483 5.85487 52.483 6.84569C52.483 7.8361 52.8253 8.67825 53.5075 9.37863C54.1912 10.0766 55.0156 10.4282 55.9841 10.4282Z" fill="#00A58C"/>
<path d="M42.647 32.5202C41.5737 32.5202 40.577 32.3592 39.657 32.0372C38.7523 31.6999 38.047 31.2782 37.541 30.7722C37.311 30.5269 37.2113 30.2509 37.242 29.9442C37.288 29.6222 37.4413 29.3615 37.702 29.1622C38.0087 28.9169 38.3077 28.8172 38.599 28.8632C38.9057 28.8939 39.1663 29.0242 39.381 29.2542C39.6417 29.5455 40.0557 29.8215 40.623 30.0822C41.2057 30.3275 41.8497 30.4502 42.555 30.4502C43.4443 30.4502 44.119 30.3045 44.579 30.0132C45.0543 29.7219 45.2997 29.3462 45.315 28.8862C45.3303 28.4262 45.108 28.0275 44.648 27.6902C44.2033 27.3529 43.383 27.0769 42.187 26.8622C40.6383 26.5555 39.5113 26.0955 38.806 25.4822C38.116 24.8689 37.771 24.1175 37.771 23.2282C37.771 22.4462 38.001 21.8022 38.461 21.2962C38.921 20.7749 39.5113 20.3915 40.232 20.1462C40.9527 19.8855 41.704 19.7552 42.486 19.7552C43.498 19.7552 44.395 19.9162 45.177 20.2382C45.959 20.5602 46.58 21.0049 47.04 21.5722C47.2547 21.8175 47.3543 22.0782 47.339 22.3542C47.3237 22.6149 47.1933 22.8372 46.948 23.0212C46.7027 23.1899 46.4113 23.2435 46.074 23.1822C45.7367 23.1209 45.453 22.9829 45.223 22.7682C44.8397 22.4002 44.4257 22.1472 43.981 22.0092C43.5363 21.8712 43.0227 21.8022 42.44 21.8022C41.7653 21.8022 41.1903 21.9172 40.715 22.1472C40.255 22.3772 40.025 22.7145 40.025 23.1592C40.025 23.4352 40.094 23.6882 40.232 23.9182C40.3853 24.1329 40.6767 24.3322 41.106 24.5162C41.5353 24.6849 42.164 24.8535 42.992 25.0222C44.142 25.2522 45.0467 25.5435 45.706 25.8962C46.3807 26.2489 46.8637 26.6629 47.155 27.1382C47.4463 27.5982 47.592 28.1349 47.592 28.7482C47.592 29.4535 47.4003 30.0899 47.017 30.6572C46.649 31.2245 46.097 31.6769 45.361 32.0142C44.6403 32.3515 43.7357 32.5202 42.647 32.5202ZM55.2623 32.5202C54.0356 32.5202 52.9393 32.2442 51.9733 31.6922C51.0226 31.1249 50.2713 30.3659 49.7193 29.4152C49.1826 28.4492 48.9143 27.3605 48.9143 26.1492C48.9143 24.9072 49.1826 23.8032 49.7193 22.8372C50.2559 21.8712 50.9919 21.1199 51.9273 20.5832C52.8626 20.0312 53.9359 19.7552 55.1473 19.7552C56.0519 19.7552 56.8799 19.9315 57.6313 20.2842C58.3826 20.6215 59.0573 21.1352 59.6553 21.8252C59.8699 22.0705 59.9466 22.3235 59.8853 22.5842C59.8239 22.8449 59.6553 23.0749 59.3793 23.2742C59.1646 23.4275 58.9269 23.4812 58.6663 23.4352C58.4056 23.3739 58.1679 23.2359 57.9533 23.0212C57.2019 22.2239 56.2666 21.8252 55.1473 21.8252C54.3653 21.8252 53.6753 22.0092 53.0773 22.3772C52.4793 22.7299 52.0116 23.2282 51.6743 23.8722C51.3369 24.5162 51.1683 25.2752 51.1683 26.1492C51.1683 26.9772 51.3369 27.7132 51.6743 28.3572C52.0269 29.0012 52.5099 29.5149 53.1233 29.8982C53.7366 30.2662 54.4496 30.4502 55.2623 30.4502C55.7989 30.4502 56.2666 30.3889 56.6653 30.2662C57.0793 30.1282 57.4549 29.9212 57.7923 29.6452C58.0376 29.4459 58.2906 29.3385 58.5513 29.3232C58.8119 29.2925 59.0419 29.3615 59.2413 29.5302C59.5019 29.7449 59.6476 29.9902 59.6783 30.2662C59.7089 30.5269 59.6169 30.7645 59.4023 30.9792C58.2983 32.0065 56.9183 32.5202 55.2623 32.5202ZM68.0758 32.5202C66.8338 32.5202 65.7374 32.2519 64.7868 31.7152C63.8361 31.1632 63.0848 30.4119 62.5328 29.4612C61.9961 28.4952 61.7278 27.3912 61.7278 26.1492C61.7278 24.8919 61.9961 23.7879 62.5328 22.8372C63.0848 21.8712 63.8361 21.1199 64.7868 20.5832C65.7374 20.0312 66.8338 19.7552 68.0758 19.7552C69.3024 19.7552 70.3911 20.0312 71.3418 20.5832C72.2924 21.1199 73.0361 21.8712 73.5728 22.8372C74.1248 23.7879 74.4008 24.8919 74.4008 26.1492C74.4008 27.3912 74.1324 28.4952 73.5958 29.4612C73.0591 30.4119 72.3154 31.1632 71.3648 31.7152C70.4141 32.2519 69.3178 32.5202 68.0758 32.5202ZM68.0758 30.4502C68.8731 30.4502 69.5784 30.2662 70.1918 29.8982C70.8051 29.5302 71.2804 29.0242 71.6178 28.3802C71.9704 27.7362 72.1468 26.9925 72.1468 26.1492C72.1468 25.3059 71.9704 24.5622 71.6178 23.9182C71.2804 23.2589 70.8051 22.7452 70.1918 22.3772C69.5784 22.0092 68.8731 21.8252 68.0758 21.8252C67.2784 21.8252 66.5731 22.0092 65.9598 22.3772C65.3464 22.7452 64.8634 23.2589 64.5108 23.9182C64.1581 24.5622 63.9818 25.3059 63.9818 26.1492C63.9818 26.9925 64.1581 27.7362 64.5108 28.3802C64.8634 29.0242 65.3464 29.5302 65.9598 29.8982C66.5731 30.2662 67.2784 30.4502 68.0758 30.4502ZM82.1823 32.5432C81.1243 32.5432 80.1736 32.3209 79.3303 31.8762C78.5023 31.4162 77.8429 30.7492 77.3523 29.8752C76.8769 29.0012 76.6393 27.9279 76.6393 26.6552V20.9972C76.6393 20.6599 76.7466 20.3839 76.9613 20.1692C77.1913 19.9392 77.4749 19.8242 77.8123 19.8242C78.1496 19.8242 78.4256 19.9392 78.6403 20.1692C78.8703 20.3839 78.9853 20.6599 78.9853 20.9972V26.6552C78.9853 27.5139 79.1463 28.2269 79.4683 28.7942C79.7903 29.3462 80.2273 29.7602 80.7793 30.0362C81.3313 30.2969 81.9523 30.4272 82.6423 30.4272C83.3016 30.4272 83.8843 30.2969 84.3903 30.0362C84.9116 29.7755 85.3256 29.4229 85.6323 28.9782C85.9389 28.5335 86.0923 28.0352 86.0923 27.4832H87.5413C87.5413 28.4339 87.3036 29.2925 86.8283 30.0592C86.3683 30.8259 85.7319 31.4315 84.9193 31.8762C84.1219 32.3209 83.2096 32.5432 82.1823 32.5432ZM87.2653 32.4282C86.9279 32.4282 86.6443 32.3209 86.4143 32.1062C86.1996 31.8762 86.0923 31.5925 86.0923 31.2552V20.9972C86.0923 20.6445 86.1996 20.3609 86.4143 20.1462C86.6443 19.9315 86.9279 19.8242 87.2653 19.8242C87.6179 19.8242 87.9016 19.9315 88.1163 20.1462C88.3309 20.3609 88.4383 20.6445 88.4383 20.9972V31.2552C88.4383 31.5925 88.3309 31.8762 88.1163 32.1062C87.9016 32.3209 87.6179 32.4282 87.2653 32.4282ZM96.147 32.4282C95.3803 32.4282 94.6903 32.2365 94.077 31.8532C93.4637 31.4545 92.9807 30.9179 92.628 30.2432C92.2753 29.5685 92.099 28.8095 92.099 27.9662V16.9952C92.099 16.6579 92.2063 16.3819 92.421 16.1672C92.6357 15.9525 92.9117 15.8452 93.249 15.8452C93.5863 15.8452 93.8623 15.9525 94.077 16.1672C94.2917 16.3819 94.399 16.6579 94.399 16.9952V27.9662C94.399 28.5795 94.5677 29.0932 94.905 29.5072C95.2423 29.9212 95.6563 30.1282 96.147 30.1282H96.929C97.205 30.1282 97.435 30.2355 97.619 30.4502C97.8183 30.6649 97.918 30.9409 97.918 31.2782C97.918 31.6155 97.7877 31.8915 97.527 32.1062C97.2817 32.3209 96.9597 32.4282 96.561 32.4282H96.147ZM91.041 22.2852C90.719 22.2852 90.4583 22.1932 90.259 22.0092C90.0597 21.8252 89.96 21.5952 89.96 21.3192C89.96 21.0125 90.0597 20.7672 90.259 20.5832C90.4583 20.3992 90.719 20.3072 91.041 20.3072H96.354C96.676 20.3072 96.9367 20.3992 97.136 20.5832C97.3353 20.7672 97.435 21.0125 97.435 21.3192C97.435 21.5952 97.3353 21.8252 97.136 22.0092C96.9367 22.1932 96.676 22.2852 96.354 22.2852H91.041Z" fill="#00A58C"/>
</svg>
