<?xml version="1.0" encoding="utf-8"?>
<!-- Generator: Adobe Illustrator 18.1.1, SVG Export Plug-In . SVG Version: 6.00 Build 0)  -->
<svg version="1.1" id="Layer_1" xmlns="http://www.w3.org/2000/svg" xmlns:xlink="http://www.w3.org/1999/xlink" x="0px" y="0px"
	 viewBox="-838 38.1 760 650" enable-background="new -838 38.1 760 650" xml:space="preserve">
<g>
	<g>
		<defs>
			<circle id="SVGID_1_" cx="-458" cy="393.1" r="270"/>
		</defs>
		<clipPath id="SVGID_2_">
			<use xlink:href="#SVGID_1_"  overflow="visible"/>
		</clipPath>
		<g clip-path="url(#SVGID_2_)">
			<circle fill="#DADBDC" cx="-458" cy="393.1" r="270"/>
		</g>
	</g>
	<g>
		<defs>
			<circle id="SVGID_3_" cx="-458" cy="393.1" r="270"/>
		</defs>
		<clipPath id="SVGID_4_">
			<use xlink:href="#SVGID_3_"  overflow="visible"/>
		</clipPath>
		<circle clip-path="url(#SVGID_4_)" fill="#FFFFFF" cx="-458" cy="393.1" r="270"/>
	</g>
	<g>
		<defs>
			<circle id="SVGID_5_" cx="-458" cy="393.1" r="270"/>
		</defs>
		<clipPath id="SVGID_6_">
			<use xlink:href="#SVGID_5_"  overflow="visible"/>
		</clipPath>
		<path clip-path="url(#SVGID_6_)" fill="#3B96D2" d="M-588.1,483.6c13.2,3.3,24.7,8.2,37.9,11.5c28,8.2,56,18.1,84,26.3
			c13.2,3.3,13.2,3.3,11.5,16.5c-1.6,21.4-1.6,41.2-3.3,62.6c0,1.6,0,3.3-1.6,4.9c-6.6-1.6-13.2-4.9-21.4-8.2
			c-34.6-14.8-69.1-29.6-102.1-44.5c-3.3,0-4.9-1.6-4.9-6.6C-588.1,526.4-588.1,505-588.1,483.6z"/>
	</g>
	<g>
		<defs>
			<circle id="SVGID_7_" cx="-458" cy="393.1" r="270"/>
		</defs>
		<clipPath id="SVGID_8_">
			<use xlink:href="#SVGID_7_"  overflow="visible"/>
		</clipPath>
		<path clip-path="url(#SVGID_8_)" fill="#1B6799" d="M-360.9,501.7c1.6,1.6,1.6,4.9,1.6,6.6c0,19.8,0,39.5,0,59.3
			c0,4.9-1.6,8.2-6.6,9.9c-26.3,9.9-51,19.8-77.4,29.6c-6.6,3.3-9.9,0-8.2-6.6c1.6-11.5,1.6-23,1.6-32.9c0-11.5,0-21.4,0-32.9
			c0-8.2,0-8.2,8.2-11.5c19.8-6.6,37.9-11.5,57.6-16.5C-375.7,505-369.1,501.7-360.9,501.7z"/>
	</g>
	<g>
		<defs>
			<circle id="SVGID_9_" cx="-458" cy="393.1" r="270"/>
		</defs>
		<clipPath id="SVGID_10_">
			<use xlink:href="#SVGID_9_"  overflow="visible"/>
		</clipPath>
		<path clip-path="url(#SVGID_10_)" fill="#AE9036" d="M-217.6,478.7c3.3,0,4.9,0,4.9,4.9c0,21.4,0,42.8,0,64.2
			c0,6.6-4.9,8.2-8.2,9.9c-18.1,8.2-36.2,14.8-54.3,23c-8.2,3.3-18.1,6.6-28,11.5c1.6-29.6,3.3-57.6,0-85.6c3.3,0,8.2-1.6,11.5-1.6
			c14.8-4.9,31.3-9.9,47.7-14.8c8.2-1.6,18.1-3.3,24.7-9.9l0,0C-219.3,478.7-219.3,478.7-217.6,478.7z"/>
	</g>
	<g>
		<defs>
			<circle id="SVGID_11_" cx="-458" cy="393.1" r="270"/>
		</defs>
		<clipPath id="SVGID_12_">
			<use xlink:href="#SVGID_11_"  overflow="visible"/>
		</clipPath>
		<path clip-path="url(#SVGID_12_)" fill="#3B96D2" d="M-578.2,480.3c4.9-1.6,8.2-3.3,13.2-3.3c23-3.3,44.5-8.2,67.5-13.2
			c3.3,0,6.6,0,9.9,0c31.3,8.2,60.9,16.5,92.2,24.7c9.9,3.3,19.8,4.9,29.6,8.2c-3.3,3.3-6.6,3.3-9.9,4.9
			c-21.4,4.9-42.8,9.9-64.2,18.1c-6.6,1.6-11.5,3.3-19.8,1.6C-497.5,508.3-538.7,495.1-578.2,480.3
			C-578.2,482-578.2,482-578.2,480.3z"/>
	</g>
	<g>
		<defs>
			<circle id="SVGID_13_" cx="-458" cy="393.1" r="270"/>
		</defs>
		<clipPath id="SVGID_14_">
			<use xlink:href="#SVGID_13_"  overflow="visible"/>
		</clipPath>
		<path clip-path="url(#SVGID_14_)" fill="#F8CA4D" d="M-309.8,503.4c-19.8-6.6-39.5-11.5-59.3-18.1s-39.5-11.5-59.3-18.1
			c-1.6,0-3.3,0-4.9-3.3c8.2-1.6,16.5-3.3,24.7-6.6c16.5-3.3,31.3-6.6,47.7-11.5c13.2-3.3,24.7,0,36.2,3.3
			c32.9,8.2,64.2,16.5,97.1,24.7c1.6,0,3.3,0,6.6,0c0,1.6,0,1.6,0,3.3l0,0c-3.3,0-6.6,0-8.2,1.6c-18.1,4.9-36.2,9.9-52.7,16.5
			C-291.7,500.1-300,505-309.8,503.4z"/>
	</g>
	<g>
		<defs>
			<circle id="SVGID_15_" cx="-458" cy="393.1" r="270"/>
		</defs>
		<clipPath id="SVGID_16_">
			<use xlink:href="#SVGID_15_"  overflow="visible"/>
		</clipPath>
		<path clip-path="url(#SVGID_16_)" fill="#F8CA4D" d="M-309.8,505c1.6,1.6,3.3,4.9,3.3,8.2c0,24.7,0,49.4,0,75.7
			c-14.8-6.6-29.6-11.5-44.5-16.5c-3.3-1.6-3.3-4.9-3.3-6.6c1.6-19.8,1.6-39.5,1.6-59.3c0-3.3,1.6-6.6-1.6-9.9l1.6-1.6
			c13.2,1.6,24.7,6.6,36.2,9.9C-314.8,505-313.1,506.7-309.8,505L-309.8,505z"/>
	</g>
	<g>
		<defs>
			<circle id="SVGID_17_" cx="-458" cy="393.1" r="270"/>
		</defs>
		<clipPath id="SVGID_18_">
			<use xlink:href="#SVGID_17_"  overflow="visible"/>
		</clipPath>
		<path clip-path="url(#SVGID_18_)" fill="#F8CA4D" d="M-357.6,495.1c-19.8-4.9-41.2-11.5-60.9-16.5c-6.6-1.6-11.5-3.3-18.1-4.9
			c-1.6,0-4.9-1.6-6.6-3.3c0-1.6,1.6-1.6,1.6-1.6c26.3,8.2,54.3,16.5,80.7,23c1.6,0,1.6,1.6,1.6,1.6
			C-357.6,493.5-357.6,493.5-357.6,495.1z"/>
	</g>
	<g>
		<defs>
			<circle id="SVGID_19_" cx="-458" cy="393.1" r="270"/>
		</defs>
		<clipPath id="SVGID_20_">
			<use xlink:href="#SVGID_19_"  overflow="visible"/>
		</clipPath>
		<path clip-path="url(#SVGID_20_)" fill="#F8CA4D" d="M-357.6,495.1v-1.6c1.6,0,3.3,0,4.9,1.6l-1.6,1.6
			C-355.9,495.1-355.9,495.1-357.6,495.1z"/>
	</g>
	<g>
		<defs>
			<circle id="SVGID_21_" cx="-458" cy="393.1" r="270"/>
		</defs>
		<clipPath id="SVGID_22_">
			<use xlink:href="#SVGID_21_"  overflow="visible"/>
		</clipPath>
		<path clip-path="url(#SVGID_22_)" fill="#ED5951" d="M-604.5,628.5c-9.9-3.3-19.8-9.9-29.6-14.8c-31.3-16.5-62.6-34.6-93.8-51
			c-3.3-1.6-4.9-3.3-4.9-6.6c-1.6-24.7-3.3-49.4-1.6-74.1c8.2,0,14.8,4.9,21.4,6.6c36.2,14.8,70.8,28,107,42.8
			c3.3,1.6,6.6,1.6,6.6,8.2c0,26.3-1.6,54.3-1.6,80.7C-602.9,621.9-602.9,625.2-604.5,628.5z"/>
	</g>
	<g>
		<defs>
			<circle id="SVGID_23_" cx="-458" cy="393.1" r="270"/>
		</defs>
		<clipPath id="SVGID_24_">
			<use xlink:href="#SVGID_23_"  overflow="visible"/>
		</clipPath>
		<path clip-path="url(#SVGID_24_)" fill="#9F2622" d="M-591.4,529.7c3.3,3.3,6.6,0,9.9-1.6c26.3-8.2,52.7-14.8,77.4-23
			c3.3,1.6,1.6,4.9,1.6,8.2c0,14.8,0,31.3,0,46.1c0,9.9-1.6,21.4-1.6,31.3c0,3.3-1.6,4.9-4.9,6.6c-8.2,3.3-16.5,6.6-23,9.9
			c-21.4,8.2-42.8,16.5-62.6,23c-1.6,0-1.6,0-3.3,0c0,0,0,0,0-1.6c0-24.7,0-51,0-75.7c0-3.3,0-8.2,0-11.5c0-4.9,0-8.2,3.3-11.5
			C-593,529.7-593,528.1-591.4,529.7z"/>
	</g>
	<g>
		<defs>
			<circle id="SVGID_25_" cx="-458" cy="393.1" r="270"/>
		</defs>
		<clipPath id="SVGID_26_">
			<use xlink:href="#SVGID_25_"  overflow="visible"/>
		</clipPath>
		<path clip-path="url(#SVGID_26_)" fill="#ED5951" d="M-591.4,529.7c-1.6,0-3.3,1.6-3.3,1.6c-3.3,0-4.9,0-8.2-1.6
			c-39.5-16.5-79-31.3-116.9-47.7c-1.6-1.6-4.9-1.6-8.2-3.3c11.5-4.9,24.7-4.9,34.6-8.2c13.2-3.3,26.3-4.9,39.5-9.9
			c6.6-1.6,14.8-1.6,21.4,1.6c31.3,11.5,64.2,21.4,95.5,32.9c8.2,3.3,16.5,4.9,24.7,8.2c1.6,0,3.3,1.6,4.9,3.3
			C-535.4,511.6-563.4,518.2-591.4,529.7z"/>
	</g>
	<g>
		<defs>
			<circle id="SVGID_27_" cx="-458" cy="393.1" r="270"/>
		</defs>
		<clipPath id="SVGID_28_">
			<use xlink:href="#SVGID_27_"  overflow="visible"/>
		</clipPath>
		<g clip-path="url(#SVGID_28_)">
			<path fill="#ED5951" d="M-316.4,498.4c-9.9-3.3-19.8-9.9-29.6-14.8c-31.3-16.5-62.6-34.6-93.8-51c-3.3-1.6-4.9-3.3-4.9-6.6
				c-1.6-24.7-3.3-49.4-1.6-74.1c8.2,0,14.8,4.9,21.4,6.6c36.2,14.8,70.8,28,107,42.8c3.3,1.6,6.6,1.6,6.6,8.2
				c0,26.3-1.6,54.3-1.6,80.7C-314.8,491.9-314.8,495.1-316.4,498.4z"/>
			<path fill="#9F2622" d="M-303.2,398c3.3,3.3,6.6,0,9.9-1.6c26.3-8.2,52.7-14.8,77.4-23c3.3,1.6,1.6,4.9,1.6,8.2
				c0,14.8,0,31.3,0,46.1c0,9.9-1.6,21.4-1.6,31.3c0,3.3-1.6,4.9-4.9,6.6c-8.2,3.3-16.5,6.6-23,9.9c-21.4,8.2-42.8,16.5-62.6,23
				c-1.6,0-1.6,0-3.3,0c0,0,0,0,0-1.6c0-24.7,0-51,0-75.7c0-3.3,0-8.2,0-11.5c0-4.9,0-8.2,3.3-11.5
				C-304.9,399.7-304.9,398-303.2,398z"/>
			<path fill="#ED5951" d="M-303.2,398c-1.6,0-3.3,1.6-3.3,1.6c-3.3,0-4.9,0-8.2-1.6c-39.5-16.5-79-31.3-116.9-47.7
				c-1.6-1.6-4.9-1.6-8.2-3.3c11.5-4.9,24.7-4.9,34.6-8.2c13.2-3.3,26.3-4.9,39.5-9.9c6.6-1.6,14.8-1.6,21.4,1.6
				c31.3,11.5,64.2,21.4,95.5,32.9c8.2,3.3,16.5,4.9,24.7,8.2c1.6,0,3.3,1.6,4.9,3.3C-247.3,381.5-275.3,388.1-303.2,398z"/>
		</g>
	</g>
	<g>
		<defs>
			<circle id="SVGID_29_" cx="-458" cy="393.1" r="270"/>
		</defs>
		<clipPath id="SVGID_30_">
			<use xlink:href="#SVGID_29_"  overflow="visible"/>
		</clipPath>
		<g clip-path="url(#SVGID_30_)">
			<path fill="#F8CA4D" d="M-472.8,508.3c-9.9-3.3-19.8-9.9-29.6-14.8c-31.3-16.5-62.6-34.6-93.8-51c-3.3-1.6-4.9-3.3-4.9-6.6
				c-1.6-24.7-3.3-49.4-1.6-74.1c8.2,0,14.8,4.9,21.4,6.6c36.2,14.8,70.8,28,107,42.8c3.3,1.6,6.6,1.6,6.6,8.2
				c0,26.3-1.6,54.3-1.6,80.7C-471.2,501.7-471.2,505-472.8,508.3z"/>
			<path fill="#AE9036" d="M-458,407.9c3.3,3.3,6.6,0,9.9-1.6c26.3-8.2,52.7-14.8,77.4-23c3.3,1.6,1.6,4.9,1.6,8.2
				c0,14.8,0,31.3,0,46.1c0,9.9-1.6,21.4-1.6,31.3c0,3.3-1.6,4.9-4.9,6.6c-8.2,3.3-16.5,6.6-23,9.9c-21.4,8.2-42.8,16.5-62.6,23
				c-1.6,0-1.6,0-3.3,0c0,0,0,0,0-1.6c0-24.7,0-51,0-75.7c0-3.3,0-8.2,0-11.5c0-4.9,0-8.2,3.3-11.5
				C-461.3,409.5-459.6,407.9-458,407.9z"/>
			<path fill="#F8CA4D" d="M-458,407.9c-1.6,0-3.3,1.6-3.3,1.6c-3.3,0-4.9,0-8.2-1.6c-39.5-16.5-79-31.3-116.9-47.7
				c-1.6-1.6-4.9-1.6-8.2-3.3c9.9-4.9,23-4.9,34.6-8.2c13.2-3.3,26.3-4.9,39.5-9.9c6.6-1.6,14.8-1.6,21.4,1.6
				c31.3,11.5,64.2,21.4,95.5,32.9c8.2,3.3,16.5,4.9,24.7,8.2c1.6,0,3.3,1.6,4.9,3.3C-403.7,389.8-431.7,396.4-458,407.9z"/>
		</g>
	</g>
</g>
<g>
	<g>
		<path fill="#773A6C" d="M-268.7,335.4c3.3-11.5,9.9-24.7,9.9-36.2c3.3-39.5-23-59.3-60.9-46.1c-4.9,1.6-9.9,1.6-13.2,1.6
			C-316.4,286.1-298.3,315.7-268.7,335.4z"/>
		<path fill="#773A6C" d="M-268.7,335.4c3.3-11.5,9.9-24.7,9.9-36.2c3.3-39.5-23-59.3-60.9-46.1c-4.9,1.6-9.9,1.6-13.2,1.6
			C-316.4,286.1-298.3,315.7-268.7,335.4z"/>
	</g>
	<path fill="#773A6C" d="M-281.8,215.3c-8.2-3.3-13.2-9.9-18.1-18.1c-3.3-3.3-8.2-6.6-11.5-8.2c-11.5,8.2-14.8,16.5-6.6,29.6
		c6.6,9.9,13.2,19.8,26.3,18.1c8.2,0,14.8-3.3,23-3.3C-272,226.8-276.9,220.2-281.8,215.3z"/>
</g>
<path fill="#B661A5" d="M-229.2,251.5c-4.9,0-9.9,0-13.2-6.6c-8.2-4.9-18.1-8.2-26.3-13.2c-6.6,1.6-14.8,3.3-23,3.3
	c-13.2,1.6-19.8-8.2-26.3-18.1c-8.2-11.5-3.3-21.4,6.6-29.6c-9.9-14.8-21.4-28-34.6-39.5c-32.9-14.8-67.5-23-105.4-24.7
	c4.9,1.6,9.9,3.3,14.8,6.6l0,0c4.9,0,8.2,0,8.2,6.6c11.5-4.9,16.5,4.9,21.4,13.2c31.3,29.6,47.7,70.8,74.1,103.7
	c4.9,0,9.9,0,13.2-1.6c37.9-11.5,64.2,8.2,60.9,46.1c-1.6,13.2-6.6,24.7-9.9,36.2c3.3,8.2,11.5,11.5,19.8,14.8
	c28,14.8,39.5,9.9,52.7-18.1c0,0,0-1.6,1.6-1.6C-202.8,300.9-214.3,274.5-229.2,251.5z"/>
<path fill="#B158A1" d="M-487.6,72c0,8.2,0,16.5,0,23c-1.6,26.3-1.6,24.7-28,29.6c-9.9,1.6-19.8,0-26.3,9.9l0,0
	c-6.6,0-11.5,0-18.1,0c16.5-11.5,21.4-29.6,19.8-47.7c6.6-6.6,16.5-3.3,23-9.9C-507.4,77-497.5,77-487.6,72z"/>
<g>
	<path fill="#3B96D2" d="M-596.3,343.7c-9.9-3.3-19.8-9.9-29.6-14.8c-31.3-16.5-62.6-34.6-93.8-51c-3.3-1.6-4.9-3.3-4.9-6.6
		c-1.6-24.7-3.3-49.4-1.6-74.1c6.6,0,13.2,3.3,19.8,6.6c36.2,13.2,70.8,28,107,42.8c3.3,1.6,6.6,1.6,6.6,8.2
		c0,26.3-1.6,54.3-1.6,80.7C-594.6,337.1-594.6,340.4-596.3,343.7z"/>
	<path fill="#1B6799" d="M-581.5,244.9c3.3,3.3,6.6,0,9.9-1.6c26.3-8.2,52.7-14.8,77.4-23c3.3,1.6,1.6,4.9,1.6,8.2
		c0,14.8,0,31.3,0,46.1c0,9.9-1.6,21.4-1.6,31.3c0,3.3-1.6,4.9-4.9,6.6c-8.2,3.3-16.5,6.6-23,9.9c-21.4,8.2-42.8,16.5-62.6,23
		c-1.6,0-1.6,0-3.3,0c0,0,0,0,0-1.6c0-24.7,0-51,0-75.7c0-3.3,0-8.2,0-11.5c0-4.9,0-8.2,3.3-11.5
		C-584.8,244.9-583.1,243.3-581.5,244.9z"/>
	<path fill="#3B96D2" d="M-581.5,244.9c-1.6,0-3.3,1.6-3.3,1.6c-3.3,0-4.9,0-8.2-1.6c-39.5-16.5-79-31.3-116.9-47.7
		c-3.3-1.6-6.6-3.3-9.9-3.3c13.2-4.9,24.7-6.6,36.2-9.9c13.2-3.3,26.3-4.9,39.5-8.2c6.6-1.6,14.8-1.6,21.4,0
		c31.3,11.5,64.2,21.4,95.5,32.9c8.2,3.3,16.5,4.9,24.7,8.2c1.6,0,3.3,1.6,4.9,3.3C-527.1,226.8-555.1,233.4-581.5,244.9z"/>
</g>
<path fill="#B158A1" d="M-476.1,75.3c0,0,84-11.5,128.4,69.1s-46.1,19.8-46.1,19.8s-56-57.6-102.1-46.1
	c-46.1,11.5-1.6-44.5-1.6-44.5S-489.3,75.3-476.1,75.3z"/>
<path fill="#B158A1" d="M-673.7,207c18.1-32.9,36.2-65.9,69.1-85.6c14.8,1.6,24.7,13.2,37.9,16.5c-39.5,18.1-52.7,52.7-56,92.2
	c-1.6,13.2-1.6,28-8.2,41.2c-3.3,8.2-6.6,16.5-18.1,18.1c-11.5,0-18.1-4.9-24.7-14.8c-8.2-11.5-6.6-24.7-4.9-37.9
	C-677,226.8-675.3,216.9-673.7,207z"/>
<path fill="#773A6C" d="M-566.7,137.9c-13.2-3.3-23-14.8-37.9-16.5c3.3-3.3,6.6-6.6,9.9-9.9c9.9-4.9,21.4-8.2,29.6-18.1
	c8.2-1.6,16.5-4.9,24.7-6.6c0,19.8-3.3,36.2-19.8,47.7C-563.4,136.2-565,137.9-566.7,137.9z"/>
</svg>
