<?xml version="1.0" encoding="utf-8"?>
<!-- Generator: Adobe Illustrator 18.1.1, SVG Export Plug-In . SVG Version: 6.00 Build 0)  -->
<svg version="1.1" id="Calque_1" xmlns="http://www.w3.org/2000/svg" xmlns:xlink="http://www.w3.org/1999/xlink" x="0px" y="0px"
	 viewBox="0 0 323.5 227" enable-background="new 0 0 323.5 227" xml:space="preserve">
<rect x="1222.5" y="1520.5" fill="#FFFFFF" stroke="#1A1A1A" stroke-width="9" stroke-linecap="round" stroke-linejoin="round" stroke-miterlimit="10" width="210" height="110"/>
<g display="none">
	<rect x="6485.5" y="-6300.5" display="inline" fill="none" stroke="#00FFFF" stroke-miterlimit="10" width="32" height="32"/>
	<rect x="6485.5" y="-6580.5" display="inline" fill="none" stroke="#00FFFF" stroke-miterlimit="10" width="250" height="250"/>
	<rect x="6485.5" y="-6238.5" display="inline" fill="none" stroke="#00FFFF" stroke-miterlimit="10" width="20" height="20"/>
	<rect x="6854.5" y="-6300.5" display="inline" fill="none" stroke="#00FFFF" stroke-miterlimit="10" width="32" height="32"/>
	<rect x="6854.5" y="-6580.5" display="inline" fill="none" stroke="#00FFFF" stroke-miterlimit="10" width="250" height="250"/>
	<rect x="6854.5" y="-6238.5" display="inline" fill="none" stroke="#00FFFF" stroke-miterlimit="10" width="20" height="20"/>
</g>
<g display="none">
	<rect x="6485.5" y="-7544.5" display="inline" fill="none" stroke="#00FFFF" stroke-miterlimit="10" width="32" height="32"/>
	<rect x="6485.5" y="-7824.5" display="inline" fill="none" stroke="#00FFFF" stroke-miterlimit="10" width="250" height="250"/>
	<rect x="6485.5" y="-7482.5" display="inline" fill="none" stroke="#00FFFF" stroke-miterlimit="10" width="20" height="20"/>
	<rect x="6854.5" y="-7544.5" display="inline" fill="none" stroke="#00FFFF" stroke-miterlimit="10" width="32" height="32"/>
	<rect x="6854.5" y="-7824.5" display="inline" fill="none" stroke="#00FFFF" stroke-miterlimit="10" width="250" height="250"/>
	<rect x="6854.5" y="-7482.5" display="inline" fill="none" stroke="#00FFFF" stroke-miterlimit="10" width="20" height="20"/>
</g>
<rect x="7993.5" y="-8427.5" display="none" fill="none" stroke="#00FFFF" stroke-miterlimit="10" width="32" height="32"/>
<rect x="7993.5" y="-8707.5" display="none" fill="none" stroke="#00FFFF" stroke-miterlimit="10" width="250" height="250"/>
<rect x="7993.5" y="-8365.5" display="none" fill="none" stroke="#00FFFF" stroke-miterlimit="10" width="20" height="20"/>
<rect x="8362.5" y="-8427.5" display="none" fill="none" stroke="#00FFFF" stroke-miterlimit="10" width="32" height="32"/>
<rect x="8362.5" y="-8707.5" display="none" fill="none" stroke="#00FFFF" stroke-miterlimit="10" width="250" height="250"/>
<rect x="8362.5" y="-8365.5" display="none" fill="none" stroke="#00FFFF" stroke-miterlimit="10" width="20" height="20"/>
<g display="none">
	<rect x="7993.5" y="-6932.5" display="inline" fill="none" stroke="#00FFFF" stroke-miterlimit="10" width="32" height="32"/>
	<rect x="7993.5" y="-7212.5" display="inline" fill="none" stroke="#00FFFF" stroke-miterlimit="10" width="250" height="250"/>
	<rect x="7993.5" y="-6870.5" display="inline" fill="none" stroke="#00FFFF" stroke-miterlimit="10" width="20" height="20"/>
	<rect x="8362.5" y="-6932.5" display="inline" fill="none" stroke="#00FFFF" stroke-miterlimit="10" width="32" height="32"/>
	<rect x="8362.5" y="-7212.5" display="inline" fill="none" stroke="#00FFFF" stroke-miterlimit="10" width="250" height="250"/>
	<rect x="8362.5" y="-6870.5" display="inline" fill="none" stroke="#00FFFF" stroke-miterlimit="10" width="20" height="20"/>
</g>
<g display="none">
	<rect x="6485.5" y="-8152.5" display="inline" fill="none" stroke="#00FFFF" stroke-miterlimit="10" width="32" height="32"/>
	<rect x="6485.5" y="-8432.5" display="inline" fill="none" stroke="#00FFFF" stroke-miterlimit="10" width="250" height="250"/>
	<rect x="6485.5" y="-8090.5" display="inline" fill="none" stroke="#00FFFF" stroke-miterlimit="10" width="20" height="20"/>
</g>
<g display="none">
	<rect x="6854.5" y="-8152.5" display="inline" fill="none" stroke="#00FFFF" stroke-miterlimit="10" width="32" height="32"/>
	<rect x="6854.5" y="-8432.5" display="inline" fill="none" stroke="#00FFFF" stroke-miterlimit="10" width="250" height="250"/>
	<rect x="6854.5" y="-8090.5" display="inline" fill="none" stroke="#00FFFF" stroke-miterlimit="10" width="20" height="20"/>
</g>
<g display="none">
	<rect x="7993.5" y="-8152.5" display="inline" fill="none" stroke="#00FFFF" stroke-miterlimit="10" width="32" height="32"/>
	<rect x="7993.5" y="-8432.5" display="inline" fill="none" stroke="#00FFFF" stroke-miterlimit="10" width="250" height="250"/>
	<rect x="7993.5" y="-8090.5" display="inline" fill="none" stroke="#00FFFF" stroke-miterlimit="10" width="20" height="20"/>
	<rect x="8362.5" y="-8152.5" display="inline" fill="none" stroke="#00FFFF" stroke-miterlimit="10" width="32" height="32"/>
	<rect x="8362.5" y="-8432.5" display="inline" fill="none" stroke="#00FFFF" stroke-miterlimit="10" width="250" height="250"/>
	<rect x="8362.5" y="-8090.5" display="inline" fill="none" stroke="#00FFFF" stroke-miterlimit="10" width="20" height="20"/>
</g>
<g>
	<path fill="#1A1A1A" d="M118.5,840.2c0,4.4-3.6,8-8,8c-4.4,0-8-3.6-8-8s3.6-8,8-8C114.9,832.2,118.5,835.8,118.5,840.2z"/>
</g>
<g>
	<g>
		<path fill="#1A1A1A" d="M206.7,840.2c0,4.4-3.6,8-8,8c-4.4,0-8-3.6-8-8s3.6-8,8-8C203.1,832.2,206.7,835.8,206.7,840.2z"/>
	</g>
</g>
<path fill="none" stroke="#1A1A1A" stroke-width="9" stroke-linecap="round" stroke-miterlimit="10" d="M252.5,836.9
	c0-48.5-49.5-91.7-98-91.7c-48.5,0-98,35.4-98,83.9v59.3H252L252.5,836.9z"/>
<path fill="none" stroke="#1A1A1A" stroke-width="9" stroke-linecap="round" stroke-miterlimit="10" d="M61.3,891.5
	c0,0,8.4,58.8-23.1,88.1"/>
<path fill="none" stroke="#1A1A1A" stroke-width="9" stroke-linecap="round" stroke-miterlimit="10" d="M92.2,1010.1
	c24.2-22.6,33.3-52.4,33.3-85.4V891"/>
<path fill="none" stroke="#1A1A1A" stroke-width="9" stroke-linecap="round" stroke-miterlimit="10" d="M149.9,1036.2
	c29.5-27.6,40.6-74.3,40.6-103.8V893"/>
<line fill="none" stroke="#1A1A1A" stroke-width="9" stroke-linecap="round" stroke-miterlimit="10" x1="247.5" y1="892" x2="247.5" y2="979"/>
<g>
	<g>
		<path fill="#1A1A1A" d="M1439,225h-223V2h223V225z M1225,216h205V11h-205V216z"/>
	</g>
	<g>
		<g>
			<path fill="#1A1A1A" d="M1276.5,166.5c-2.5,0-4.5-2-4.5-4.5V59c0-2.5,2-4.5,4.5-4.5s4.5,2,4.5,4.5v103
				C1281,164.5,1279,166.5,1276.5,166.5z"/>
		</g>
		<g>
			<path fill="#1A1A1A" d="M1310.5,166.5c-2.5,0-4.5-2-4.5-4.5V59c0-2.5,2-4.5,4.5-4.5s4.5,2,4.5,4.5v103
				C1315,164.5,1313,166.5,1310.5,166.5z"/>
		</g>
		<g>
			<path fill="#1A1A1A" d="M1344.5,166.5c-2.5,0-4.5-2-4.5-4.5V59c0-2.5,2-4.5,4.5-4.5s4.5,2,4.5,4.5v103
				C1349,164.5,1347,166.5,1344.5,166.5z"/>
		</g>
		<g>
			<path fill="#1A1A1A" d="M1378.5,166.5c-2.5,0-4.5-2-4.5-4.5V59c0-2.5,2-4.5,4.5-4.5s4.5,2,4.5,4.5v103
				C1383,164.5,1381,166.5,1378.5,166.5z"/>
		</g>
	</g>
</g>
<g>
	<polygon fill="#1A1A1A" points="2300,39 2291,39 2291,-3 2334,-3 2334,6 2300,6 	"/>
</g>
<g>
	<polygon fill="#1A1A1A" points="2519,225 2480,225 2480,216 2510,216 2510,180 2519,180 	"/>
</g>
<g>
	<polygon fill="#1A1A1A" points="2519,37 2510,37 2510,6 2478,6 2478,-3 2519,-3 	"/>
</g>
<g>
	<polygon fill="#1A1A1A" points="2336,225 2291,225 2291,182 2300,182 2300,216 2336,216 	"/>
</g>
<g>
	<rect x="2510" y="77" fill="#1A1A1A" width="9" height="67"/>
</g>
<g>
	<rect x="2291" y="77" fill="#1A1A1A" width="9" height="67"/>
</g>
<g>
	<rect x="2377" y="-3" fill="#1A1A1A" width="68" height="9"/>
</g>
<g>
	<rect x="2372" y="216" fill="#1A1A1A" width="68" height="9"/>
</g>
<g>
	<path fill="#1A1A1A" d="M2387.5,143.5c-2.5,0-4.5-2-4.5-4.5V81c0-2.5,2-4.5,4.5-4.5c2.5,0,4.5,2,4.5,4.5v58
		C2392,141.5,2390,143.5,2387.5,143.5z"/>
</g>
<g>
	<path fill="#1A1A1A" d="M2422.5,143.5c-2.5,0-4.5-2-4.5-4.5V81c0-2.5,2-4.5,4.5-4.5c2.5,0,4.5,2,4.5,4.5v58
		C2427,141.5,2425,143.5,2422.5,143.5z"/>
</g>
<g>
	<path fill="#1A1A1A" d="M2458.5,143.5c-2.5,0-4.5-2-4.5-4.5V81c0-2.5,2-4.5,4.5-4.5c2.5,0,4.5,2,4.5,4.5v58
		C2463,141.5,2461,143.5,2458.5,143.5z"/>
</g>
<g>
	<path fill="#1A1A1A" d="M2352.5,143.5c-2.5,0-4.5-2-4.5-4.5V81c0-2.5,2-4.5,4.5-4.5c2.5,0,4.5,2,4.5,4.5v58
		C2357,141.5,2355,143.5,2352.5,143.5z"/>
</g>
<g>
	
		<rect x="33.5" y="60.4" fill="none" stroke="#FFFFFF" stroke-width="9" stroke-linecap="round" stroke-miterlimit="10" width="55.9" height="55.9"/>
	
		<rect x="89.3" y="60.4" fill="none" stroke="#FFFFFF" stroke-width="9" stroke-linecap="round" stroke-miterlimit="10" width="55.9" height="55.9"/>
	
		<rect x="89.3" y="4.5" fill="none" stroke="#FFFFFF" stroke-width="9" stroke-linecap="round" stroke-miterlimit="10" width="55.9" height="55.9"/>
	
		<rect x="145.2" y="60.4" fill="none" stroke="#FFFFFF" stroke-width="9" stroke-linecap="round" stroke-miterlimit="10" width="55.9" height="55.9"/>
	<path fill="none" stroke="#FFFFFF" stroke-width="9" stroke-linecap="round" stroke-miterlimit="10" d="M66.5,178.9
		c-9.3,0-16.9-7.6-16.9-16.9c0-9.3,7.6-16.9,16.9-16.9c9.3,0,16.9,7.6,16.9,16.9C83.4,171.3,75.8,178.9,66.5,178.9 M313.1,91.7
		c-10.7-6.2-25-7-37.1-3.5c-1.5-12.9-10-24.2-20.1-32.3l-4-3.2l-3.4,3.9c-6.8,7.8-8.8,20.8-7.8,30.8c0.7,7.3,3,14.8,7.5,20.7
		c-3.4,2.1-7.3,3.7-10.8,4.9c-7.1,2.4-14.7,3.7-22.2,3.7H32.7h-1.2H5.4l-0.5,4.8c-1.5,16.1,0.7,32.3,7.4,47l2.9,5.9l0.3,0.5
		c19.7,33.5,54.4,47.6,92.1,47.6c73.1,0,133.4-32.6,161-101.6c18.5,1,37.4-4.5,46.5-22.2l2.3-4.5L313.1,91.7z"/>
</g>
<polygon fill="none" stroke="#1A1A1A" stroke-width="9" stroke-linecap="round" stroke-miterlimit="10" points="2489.5,909.2 
	2489.5,821.5 2371.4,821.5 2316.5,874 2316.5,965.5 2435.8,965.5 "/>
<line fill="none" stroke="#1A1A1A" stroke-width="9" stroke-linecap="round" stroke-miterlimit="10" x1="2284.5" y1="875" x2="2284.5" y2="966"/>
<line fill="none" stroke="#1A1A1A" stroke-width="9" stroke-linecap="round" stroke-miterlimit="10" x1="2521.5" y1="819" x2="2521.5" y2="910"/>
<line fill="none" stroke="#1A1A1A" stroke-width="9" stroke-linecap="round" stroke-miterlimit="10" x1="2287" y1="917.5" x2="2316" y2="917.5"/>
<line fill="none" stroke="#1A1A1A" stroke-width="9" stroke-linecap="round" stroke-miterlimit="10" x1="2489" y1="864.5" x2="2521" y2="864.5"/>
<g>
	<polygon fill="none" stroke="#1A1A1A" stroke-width="9" stroke-linecap="round" stroke-miterlimit="10" points="124,1589.5 
		97,1542.5 124,1495.5 178,1495.5 205,1542.5 178,1589.5 	"/>
	<polygon fill="none" stroke="#1A1A1A" stroke-width="9" stroke-linecap="round" stroke-miterlimit="10" points="44,1636.5 
		17,1589.5 44,1542.5 98,1542.5 125,1589.5 98,1636.5 	"/>
	<polygon fill="none" stroke="#1A1A1A" stroke-width="9" stroke-linecap="round" stroke-miterlimit="10" points="205,1636.5 
		178,1589.5 205,1542.5 259,1542.5 286,1589.5 259,1636.5 	"/>
	<polygon fill="none" stroke="#1A1A1A" stroke-width="9" stroke-linecap="round" stroke-miterlimit="10" points="44,1730.5 
		17,1683.5 44,1636.5 98,1636.5 125,1683.5 98,1730.5 	"/>
	<polygon fill="none" stroke="#1A1A1A" stroke-width="9" stroke-linecap="round" stroke-miterlimit="10" points="205,1730.5 
		178,1683.5 205,1636.5 259,1636.5 286,1683.5 259,1730.5 	"/>
	<polygon fill="none" stroke="#1A1A1A" stroke-width="9" stroke-linecap="round" stroke-miterlimit="10" points="124,1683.5 
		97,1636.5 124,1589.5 178,1589.5 205,1636.5 178,1683.5 	"/>
	<polygon fill="none" stroke="#1A1A1A" stroke-width="9" stroke-linecap="round" stroke-miterlimit="10" points="124,1777.5 
		97,1730.5 124,1683.5 178,1683.5 205,1730.5 178,1777.5 	"/>
</g>
<circle fill="none" stroke="#1A1A1A" stroke-width="9" stroke-linecap="round" stroke-miterlimit="10" cx="1328.5" cy="892.5" r="127"/>
<g>
	<path fill="none" stroke="#1A1A1A" stroke-width="9" stroke-linecap="round" stroke-linejoin="round" stroke-miterlimit="10" d="
		M1312.3,892.5c0,0-22.2-38.1-59.4-38.1c-21.6,0-29.8,16.7-29.8,38.1H1312.3z"/>
	<path fill="none" stroke="#1A1A1A" stroke-width="9" stroke-linecap="round" stroke-linejoin="round" stroke-miterlimit="10" d="
		M1328.5,908.7c0,0-38.1,22.2-38.1,59.4c0,21.6,17.1,29.8,38.1,29.8V908.7z"/>
	<path fill="none" stroke="#1A1A1A" stroke-width="9" stroke-linecap="round" stroke-linejoin="round" stroke-miterlimit="10" d="
		M1344.7,892.5c0,0,22.2,38.1,59.4,38.1c21.6,0,29.8-17.1,29.8-38.1H1344.7z"/>
	<path fill="none" stroke="#1A1A1A" stroke-width="9" stroke-linecap="round" stroke-linejoin="round" stroke-miterlimit="10" d="
		M1328.5,876.3c0,0,38.1-22.2,38.1-59.4c0-21.6-17.1-29.8-38.1-29.8V876.3z"/>
</g>
<circle fill="#FFFFFF" stroke="#1A1A1A" stroke-width="9" stroke-linecap="round" stroke-miterlimit="10" cx="1328.5" cy="892.5" r="33.5"/>
<rect x="1241.5" y="1504.5" fill="#FFFFFF" stroke="#1A1A1A" stroke-width="9" stroke-linecap="round" stroke-miterlimit="10" width="173" height="134"/>
<line fill="none" stroke="#1A1A1A" stroke-width="9" stroke-linecap="round" stroke-miterlimit="10" x1="1328.5" y1="1505" x2="1328.5" y2="1704"/>
<rect x="1208.5" y="1619.5" fill="#FFFFFF" stroke="#1A1A1A" stroke-width="9" stroke-linecap="round" stroke-miterlimit="10" width="238" height="22"/>
<polyline fill="none" stroke="#1A1A1A" stroke-width="9" stroke-linecap="round" stroke-miterlimit="10" points="1265.2,1749.8 
	1328.5,1704.5 1391.8,1749.8 "/>
<line fill="none" stroke="#1A1A1A" stroke-width="9" stroke-linecap="round" stroke-miterlimit="10" x1="1297" y1="1727.5" x2="1360" y2="1727.5"/>
</svg>
