<?xml version="1.0" encoding="utf-8"?>
<!-- Generator: Adobe Illustrator 18.1.1, SVG Export Plug-In . SVG Version: 6.00 Build 0)  -->
<svg version="1.1" id="Layer_1" xmlns="http://www.w3.org/2000/svg" xmlns:xlink="http://www.w3.org/1999/xlink" x="0px" y="0px"
	 viewBox="312.2 27.5 760 651" enable-background="new 312.2 27.5 760 651" xml:space="preserve">
<circle fill="#FFFFFF" cx="693.3" cy="392.7" r="270"/>
<g>
	<path fill="#3B96D2" d="M670.2,384.5c-31.3-11.5-64.2-18.1-95.5-28c-29.6-9.9-60.9-19.8-90.5-29.6c-6.6-1.6-9.9-6.6-9.9-13.2
		c-1.6-13.2-4.9-23-14.8-32.9c-6.6-6.6-6.6-14.8-4.9-21.4c1.6-14.8,3.3-28,1.6-42.8c-3.3-18.1-8.2-32.9-18.1-47.7
		c-4.9-4.9-8.2-9.9-13.2-13.2c-21.4,31.3-14.8,62.6-1.6,93.8c-8.2,1.6-13.2-3.3-19.8-4.9c-23-6.6-47.7-8.2-70.8-1.6
		c-1.6,1.6-4.9,3.3-8.2,1.6c-1.6,3.3-8.2,1.6-8.2,8.2c14.8,14.8,34.6,21.4,54.3,23c11.5,1.6,23,1.6,32.9,1.6
		c18.1,1.6,29.6,11.5,29.6,29.6c0,18.1,1.6,36.2,4.9,54.3c18.1,0,34.6-6.6,51-11.5c28-8.2,54.3-3.3,79,11.5
		c18.1,11.5,36.2,23,57.6,28C642.2,394.4,657,396,670.2,384.5z"/>
	<path fill="#D0E6EF" d="M701.5,512.9c-6.6,28-21.4,47.7-51,56c-6.6,1.6-11.5,3.3-18.1,4.9c56,13.2,112,14.8,166.3,0
		c47.7-13.2,85.6-37.9,112-80.7c-6.6-1.6-11.5,3.3-16.5,6.6c-9.9,4.9-19.8,9.9-31.3,11.5c-26.3,9.9-52.7,9.9-79,9.9
		C755.8,522.8,727.8,517.8,701.5,512.9z"/>
	<path opacity="0.34" fill="#1F233E" enable-background="new    " d="M862.8,512.9c11.5-1.6,21.4-6.6,31.3-11.5
		c4.9-3.3,9.9-6.6,16.5-6.6c1.6,0,1.6-1.6,1.6-1.6c-8.2,0-16.5,1.6-23,4.9c-8.2,3.3-18.1,8.2-26.3,11.5
		C862.8,509.6,862.8,511.3,862.8,512.9z"/>
	<path opacity="0.34" fill="#1F233E" enable-background="new    " d="M862.8,512.9c0-1.6,0-1.6,0-3.3c-29.6,3.3-57.6,8.2-87.3,6.6
		c-18.1,0-37.9-4.9-56-4.9c-6.6,0-13.2-3.3-18.1,1.6c28,6.6,54.3,9.9,82.3,9.9C810.1,521.1,838.1,521.1,862.8,512.9z"/>
	<path fill="#FFFFFF" d="M655.4,511.3c14.8,9.9,21.4,8.2,34.6-3.3c6.6-11.5,6.6-16.5-1.6-26.3l0,0l0,0l0,0l0,0
		c-4.9-9.9-13.2-13.2-23-9.9c-8.2,1.6-18.1,4.9-21.4,16.5C642.2,498.1,645.5,506.3,655.4,511.3z M658.7,508L658.7,508
		c4.9,1.6,9.9,3.3,14.8,3.3C668.6,511.3,663.6,511.3,658.7,508z"/>
	<path fill="#0069A1" d="M444.7,381.2c8.2,29.6,18.1,57.6,32.9,84c16.5,28,37.9,49.4,62.6,67.5c28,19.8,59.3,32.9,92.2,41.2
		c6.6-1.6,11.5-3.3,18.1-4.9c29.6-8.2,44.5-28,51-56c4.9-4.9,11.5-3.3,18.1-1.6c18.1,1.6,37.9,4.9,56,4.9c29.6,0,59.3-3.3,87.3-6.6
		c8.2-3.3,18.1-8.2,26.3-11.5c6.6-3.3,14.8-6.6,23-4.9c4.9-14.8,14.8-26.3,18.1-41.2c1.6-6.6,3.3-13.2,4.9-19.8
		c1.6-4.9,1.6-8.2,0-9.9c-1.6-9.9-18.1-21.4-67.5-36.2c-29.6-9.9-56-16.5-77.4-21.4c-69.1,6.6-92.2,24.7-92.2,24.7l-14.8,6.6
		c-1.6,0-3.3,1.6-4.9,1.6c0,0-1.6,0-1.6,1.6l-4.9,1.6l0,0c-26.3,9.9-54.3,4.9-79-6.6c-9.9-4.9-18.1-9.9-28-16.5
		c-24.7-16.5-51-19.8-79-11.5c-9.9,3.3-21.4,4.9-32.9,8.2C447.9,374.6,444.7,376.3,444.7,381.2z M645.5,488.2
		c3.3-9.9,11.5-13.2,21.4-16.5s18.1,1.6,23,9.9c8.2,9.9,9.9,13.2,1.6,26.3c-11.5,11.5-19.8,13.2-34.6,3.3
		C645.5,506.3,642.2,498.1,645.5,488.2z"/>
	<path fill="#141718" d="M658.7,489.9C657,489.9,657,489.9,658.7,489.9c-1.6-1.6-1.6-3.3-1.6-3.3s0-3.3-1.6-4.9c0-1.6,0-1.6,0-3.3
		v-1.6c3.3-1.6,6.6-3.3,11.5-3.3c9.9-3.3,18.1,1.6,23,9.9l0,0c-1.6,1.6-1.6,1.6-3.3,3.3c-1.6,4.9-1.6,11.5-8.2,13.2
		C668.6,498.1,662,496.4,658.7,489.9z"/>
</g>
<g>
	<path fill="#ED5951" d="M601.1,318.6c9.9,1.6,19.8,6.6,29.6,9.9c21.4,6.6,44.5,14.8,65.9,21.4c9.9,3.3,9.9,3.3,9.9,13.2
		c0,16.5-1.6,32.9-3.3,49.4c0,1.6,0,3.3-1.6,3.3c-4.9-1.6-11.5-3.3-16.5-6.6c-26.3-11.5-54.3-23-80.7-34.6c-3.3-1.6-4.9-3.3-4.9-6.6
		C601.1,351.6,601.1,335.1,601.1,318.6z"/>
	<path fill="#9F2622" d="M780.5,331.8c1.6,1.6,1.6,3.3,1.6,4.9c0,14.8,0,31.3,0,46.1c0,3.3-1.6,6.6-4.9,8.2
		c-19.8,8.2-41.2,16.5-60.9,23c-4.9,1.6-6.6,0-6.6-4.9c1.6-8.2,0-18.1,1.6-26.3c0-8.2,0-18.1,0-26.3c0-6.6,0-6.6,6.6-8.2
		c14.8-4.9,29.6-9.9,46.1-13.2C769,335.1,773.9,331.8,780.5,331.8z"/>
	<path fill="#AE9036" d="M894.1,313.7c3.3,0,4.9,0,4.9,3.3c0,16.5,0,32.9,0,51c0,4.9-3.3,6.6-6.6,8.2c-14.8,6.6-29.6,11.5-42.8,18.1
		c-6.6,3.3-13.2,4.9-23,8.2c1.6-23,3.3-46.1,0-67.5c3.3,0,6.6-1.6,9.9-1.6c13.2-3.3,24.7-8.2,37.9-11.5c6.6-1.6,13.2-3.3,19.8-6.6
		l0,0C892.5,313.7,892.5,313.7,894.1,313.7z"/>
	<path fill="#ED5951" d="M609.3,315.3c3.3-1.6,6.6-1.6,9.9-3.3c18.1-3.3,34.6-6.6,52.7-9.9c3.3,0,4.9,0,8.2,0
		c24.7,6.6,47.7,13.2,72.4,19.8c8.2,1.6,14.8,4.9,23,6.6c-1.6,3.3-4.9,3.3-6.6,3.3c-16.5,3.3-34.6,8.2-51,14.8
		c-4.9,1.6-9.9,3.3-14.8,1.6C671.8,336.7,640.6,326.9,609.3,315.3C609.3,317,609.3,315.3,609.3,315.3z"/>
	<path fill="#F8CA4D" d="M821.7,333.5c-16.5-4.9-31.3-9.9-47.7-14.8c-14.8-4.9-31.3-9.9-46.1-13.2c-1.6,0-3.3,0-3.3-1.6
		c6.6-1.6,13.2-3.3,19.8-4.9c13.2-3.3,24.7-4.9,37.9-8.2c9.9-3.3,19.8,0,29.6,1.6c26.3,6.6,51,13.2,77.4,19.8c1.6,0,3.3,0,4.9,0
		c0,1.6,0,1.6,0,3.3l0,0c-1.6,0-4.9,0-6.6,1.6c-14.8,3.3-28,8.2-42.8,13.2C834.8,330.2,828.3,335.1,821.7,333.5z"/>
	<path fill="#F8CA4D" d="M820,335.1c1.6,1.6,1.6,3.3,1.6,6.6c0,19.8,0,39.5,0,59.3c-13.2-4.9-23-9.9-34.6-13.2
		c-3.3-1.6-3.3-3.3-3.3-6.6c1.6-14.8,1.6-31.3,1.6-46.1c0-3.3,0-4.9-1.6-8.2l1.6-1.6c9.9,1.6,19.8,4.9,29.6,8.2
		C816.7,335.1,818.4,335.1,820,335.1L820,335.1z"/>
	<path fill="#F8CA4D" d="M783.8,326.9c-16.5-4.9-32.9-8.2-47.7-13.2c-4.9-1.6-9.9-3.3-14.8-3.3c-1.6,0-4.9,0-4.9-3.3
		c0-1.6,0-1.6,1.6-1.6c21.4,6.6,42.8,13.2,64.2,18.1C782.2,323.6,782.2,325.2,783.8,326.9C783.8,325.2,783.8,326.9,783.8,326.9z"/>
	<path fill="#F8CA4D" d="M783.8,326.9C783.8,326.9,783.8,325.2,783.8,326.9c1.6-1.6,3.3-1.6,3.3,0l-1.6,1.6
		C785.4,326.9,783.8,326.9,783.8,326.9z"/>
	<path fill="#ED5951" d="M586.2,432.2c-8.2-3.3-14.8-8.2-23-11.5c-24.7-13.2-49.4-26.3-74.1-41.2c-1.6-1.6-4.9-3.3-4.9-6.6
		c-1.6-19.8-1.6-37.9-1.6-57.6c6.6,0,11.5,3.3,16.5,4.9c28,11.5,56,23,84,34.6c3.3,1.6,4.9,1.6,4.9,6.6c0,21.4,0,42.8-1.6,64.2
		C587.9,427.3,587.9,430.6,586.2,432.2z"/>
	<path fill="#9F2622" d="M597.8,353.2c3.3,3.3,4.9,0,8.2,0c19.8-6.6,41.2-11.5,60.9-18.1c1.6,1.6,1.6,3.3,1.6,6.6
		c0,11.5,0,24.7,0,36.2c0,8.2-1.6,16.5-1.6,24.7c0,3.3-1.6,4.9-3.3,4.9c-6.6,3.3-13.2,4.9-18.1,8.2c-16.5,6.6-32.9,13.2-49.4,18.1
		h-1.6l0,0c0-19.8,0-39.5,0-60.9c0-3.3,0-6.6,0-9.9S594.5,356.5,597.8,353.2C596.1,354.9,597.8,353.2,597.8,353.2z"/>
	<path fill="#ED5951" d="M597.8,353.2c-1.6,0-1.6,1.6-3.3,1.6s-4.9,0-6.6-1.6c-31.3-13.2-62.6-24.7-92.2-37.9
		c-1.6,0-3.3-1.6-6.6-3.3c9.9-3.3,18.1-4.9,28-6.6c9.9-3.3,21.4-4.9,31.3-6.6c4.9-1.6,11.5-1.6,16.5,0c24.7,8.2,51,16.5,75.7,24.7
		c6.6,1.6,13.2,4.9,19.8,6.6c1.6,0,1.6,0,3.3,1.6C642.2,340,619.2,345,597.8,353.2z"/>
	<g>
		<path fill="#3B96D2" d="M693.3,341.7c-8.2-3.3-14.8-8.2-23-11.5c-24.7-13.2-49.4-26.3-74.1-41.2c-1.6-1.6-4.9-3.3-4.9-6.6
			c-1.6-19.8-1.6-37.9-1.6-57.6c6.6,0,11.5,3.3,16.5,4.9c28,13.2,56,24.7,84,36.2c3.3,0,4.9,1.6,4.9,4.9c0,21.4,0,42.8-1.6,64.2
			C694.9,336.7,694.9,340,693.3,341.7z"/>
		<path fill="#1B6799" d="M704.8,262.7c3.3,3.3,4.9,0,8.2,0c19.8-6.6,41.2-11.5,60.9-18.1c1.6,1.6,1.6,3.3,1.6,6.6
			c0,11.5,0,24.7,0,36.2c0,8.2-1.6,16.5-1.6,24.7c0,3.3-1.6,4.9-3.3,4.9c-6.6,3.3-13.2,4.9-18.1,8.2c-16.5,6.6-32.9,13.2-49.4,18.1
			h-1.6l0,0c0-19.8,0-39.5,0-60.9c0-3.3,0-6.6,0-9.9S701.5,266,704.8,262.7C703.1,264.3,703.1,262.7,704.8,262.7z"/>
		<path fill="#3B96D2" d="M704.8,262.7c-1.6,0-1.6,1.6-3.3,1.6s-4.9,0-6.6-1.6c-31.3-13.2-62.6-24.7-92.2-37.9
			c-1.6,0-3.3-1.6-6.6-3.3c9.9-3.3,18.1-4.9,28-6.6c9.9-3.3,21.4-4.9,31.3-6.6c4.9-1.6,11.5-1.6,16.5,0c24.7,8.2,51,16.5,75.7,24.7
			c6.6,4.9,13.2,6.6,19.8,8.2c1.6,0,1.6,0,3.3,1.6C747.6,249.5,726.2,254.4,704.8,262.7z"/>
	</g>
	<g>
		<path fill="#F8CA4D" d="M569.8,349.9c-8.2-3.3-14.8-8.2-23-11.5c-24.7-13.2-49.4-26.3-74.1-41.2c-1.6-1.6-4.9-3.3-4.9-6.6
			c-1.6-18.1-1.6-37.9-1.6-57.6c6.6,0,11.5,3.3,16.5,4.9c28,11.5,56,23,84,34.6c3.3,1.6,4.9,1.6,4.9,6.6c0,21.4,0,42.8-1.6,64.2
			C571.4,345,571.4,346.6,569.8,349.9z"/>
		<path fill="#AE9036" d="M581.3,270.9c3.3,3.3,4.9,0,8.2,0c19.8-6.6,41.2-11.5,60.9-18.1c1.6,1.6,1.6,3.3,1.6,6.6
			c0,11.5,0,24.7,0,36.2c0,8.2-1.6,16.5-1.6,24.7c0,3.3-1.6,4.9-3.3,4.9c-6.6,3.3-13.2,4.9-18.1,8.2c-16.5,6.6-32.9,13.2-49.4,18.1
			H578l0,0c0-19.8,0-39.5,0-60.9c0-3.3,0-6.6,0-9.9C578,277.5,578,274.2,581.3,270.9C579.7,272.5,579.7,270.9,581.3,270.9z"/>
		<path fill="#F8CA4D" d="M581.3,270.9c-1.6,0-1.6,1.6-3.3,1.6c-1.6,0-4.9,0-6.6-1.6c-31.3-13.2-62.6-24.7-92.2-37.9
			c-1.6,0-3.3-1.6-6.6-3.3c9.9-3.3,18.1-4.9,28-6.6c9.9-3.3,21.4-4.9,31.3-6.6c4.9-1.6,11.5-1.6,16.5,0c24.7,8.2,51,16.5,75.7,24.7
			c6.6,1.6,13.2,4.9,19.8,6.6c1.6,0,1.6,0,3.3,1.6C624.1,257.7,602.7,262.7,581.3,270.9z"/>
	</g>
</g>
</svg>
