<svg width="800" height="156" viewBox="0 0 800 156" xmlns="http://www.w3.org/2000/svg"><title>Collections On-Boarding Collapsed</title><g fill="none" fill-rule="evenodd"><path fill="#FBFBFC" d="M0 0h800v156H0z"/><path d="M91.442 126.9c-1.098 0-1.965.367-2.6 1.1-.636.73-.954 1.73-.954 3.003 0 1.308.306 2.318.92 3.032.612.713 1.486 1.07 2.62 1.07.698 0 1.493-.126 2.386-.376v1.017c-.692.26-1.547.39-2.563.39-1.47 0-2.607-.447-3.407-1.34-.8-.893-1.2-2.163-1.2-3.808 0-1.03.193-1.933.578-2.708a4.147 4.147 0 0 1 1.67-1.79c.726-.42 1.582-.63 2.566-.63 1.048 0 1.964.192 2.748.575l-.492.998c-.757-.356-1.513-.534-2.27-.534zm10.85 5.347c0 1.22-.31 2.175-.924 2.86-.615.687-1.465 1.03-2.55 1.03-.67 0-1.264-.158-1.784-.472a3.113 3.113 0 0 1-1.203-1.353c-.28-.588-.423-1.277-.423-2.065 0-1.22.306-2.173.916-2.854.61-.68 1.46-1.022 2.543-1.022 1.048 0 1.88.35 2.5 1.047.616.697.925 1.64.925 2.83zm-5.71 0c0 .957.192 1.686.575 2.188.383.5.946.752 1.69.752.742 0 1.306-.25 1.69-.75.386-.498.578-1.228.578-2.19 0-.952-.192-1.676-.577-2.17-.385-.495-.954-.742-1.706-.742-.743 0-1.303.244-1.682.73-.378.49-.567 1.216-.567 2.182zm8.833 3.753h-1.135v-10.637h1.135V136zm3.54 0h-1.134v-10.637h1.136V136zm5.572.137c-1.107 0-1.98-.338-2.62-1.012-.642-.674-.962-1.61-.962-2.81 0-1.207.298-2.167.892-2.877.595-.71 1.394-1.067 2.396-1.067.94 0 1.682.31 2.23.927.546.618.82 1.432.82 2.444v.72h-5.162c.024.88.246 1.546.668 2.002.42.456 1.015.684 1.78.684.807 0 1.605-.17 2.393-.506v1.01c-.4.175-.78.3-1.137.374-.358.075-.79.113-1.296.113zm-.307-6.816c-.602 0-1.08.197-1.44.59-.357.39-.568.933-.632 1.626h3.917c0-.715-.16-1.263-.478-1.644-.32-.38-.775-.57-1.367-.57zm7.99 6.817c-1.084 0-1.923-.334-2.518-1.002-.595-.667-.892-1.612-.892-2.833 0-1.254.302-2.222.906-2.906.603-.683 1.464-1.025 2.58-1.025.36 0 .72.04 1.08.117.36.078.643.17.848.274l-.35.965c-.25-.1-.523-.184-.82-.25a3.663 3.663 0 0 0-.785-.1c-1.523 0-2.284.972-2.284 2.913 0 .92.185 1.627.557 2.12.37.49.92.738 1.65.738.625 0 1.265-.135 1.92-.404v1.005c-.5.26-1.13.39-1.892.39zm6.092-.937c.2 0 .394-.015.58-.044.188-.03.336-.06.445-.093v.87c-.123.058-.304.107-.543.146a4.08 4.08 0 0 1-.646.057c-1.45 0-2.174-.764-2.174-2.29v-4.457h-1.073v-.547l1.074-.472.478-1.6h.657v1.738h2.172v.882H127.1v4.41c0 .45.106.796.32 1.038.214.24.508.362.882.362zm3.657.8h-1.136v-7.492h1.135V136zm-1.23-9.522c0-.26.062-.45.19-.57a.67.67 0 0 1 .478-.182.67.67 0 0 1 .472.184c.132.123.198.312.198.568 0 .255-.066.445-.198.57a.662.662 0 0 1-.472.188.655.655 0 0 1-.478-.188c-.128-.125-.19-.315-.19-.57zm10.102 5.77c0 1.22-.308 2.174-.923 2.86-.616.686-1.466 1.03-2.55 1.03-.67 0-1.265-.16-1.785-.473a3.113 3.113 0 0 1-1.203-1.353c-.282-.588-.424-1.277-.424-2.065 0-1.22.306-2.173.916-2.854.61-.68 1.46-1.022 2.543-1.022 1.048 0 1.88.35 2.5 1.047.616.697.925 1.64.925 2.83zm-5.708 0c0 .956.19 1.685.574 2.187.383.5.946.752 1.69.752.742 0 1.306-.25 1.69-.75.386-.498.578-1.228.578-2.19 0-.952-.192-1.676-.577-2.17-.386-.495-.955-.742-1.707-.742-.743 0-1.303.244-1.682.73-.377.49-.566 1.216-.566 2.182zM147.948 136v-4.847c0-.61-.14-1.066-.417-1.367-.277-.3-.712-.45-1.304-.45-.784 0-1.358.21-1.723.635-.365.425-.547 1.124-.547 2.1V136h-1.135v-7.492h.924l.185 1.025h.053c.233-.37.56-.655.978-.858.42-.203.887-.304 1.402-.304.903 0 1.582.22 2.037.654.455.435.683 1.13.683 2.088V136h-1.135zM191.8 133.34c0 .88-.318 1.566-.956 2.058-.638.493-1.504.74-2.598.74-1.185 0-2.096-.154-2.734-.46v-1.12a7.2 7.2 0 0 0 1.34.41c.483.1.96.15 1.435.15.775 0 1.358-.147 1.75-.44.392-.295.588-.704.588-1.228 0-.346-.07-.63-.208-.85-.14-.222-.372-.426-.698-.613-.327-.187-.822-.398-1.488-.635-.93-.333-1.593-.727-1.992-1.183-.4-.457-.598-1.052-.598-1.785 0-.77.29-1.383.868-1.84.58-.455 1.344-.683 2.297-.683.993 0 1.907.183 2.74.547l-.36 1.01c-.826-.345-1.628-.52-2.408-.52-.616 0-1.097.134-1.443.398-.346.264-.52.63-.52 1.1 0 .347.064.63.192.852.126.22.342.423.645.608.303.184.767.388 1.39.612 1.05.373 1.77.774 2.164 1.203.394.428.59.984.59 1.668zm4.294 1.86c.2 0 .394-.015.58-.044.188-.03.336-.06.445-.093v.87c-.124.058-.305.107-.544.146a4.08 4.08 0 0 1-.646.057c-1.45 0-2.174-.764-2.174-2.29v-4.457h-1.073v-.547l1.073-.472.478-1.6h.657v1.738h2.174v.882h-2.173v4.41c0 .45.108.796.322 1.038.214.24.508.362.882.362zm7.13.8l-.226-1.066h-.055c-.373.47-.746.787-1.117.953-.372.167-.835.25-1.39.25-.744 0-1.326-.192-1.748-.575-.422-.382-.632-.927-.632-1.633 0-1.514 1.21-2.307 3.63-2.38l1.27-.04v-.466c0-.588-.125-1.022-.378-1.302s-.658-.42-1.214-.42c-.624 0-1.33.19-2.12.574l-.348-.87c.37-.2.774-.356 1.214-.47.44-.114.88-.17 1.323-.17.893 0 1.555.197 1.985.593.43.396.646 1.032.646 1.907V136h-.84zm-2.564-.8c.707 0 1.26-.193 1.665-.58.403-.388.605-.93.605-1.628v-.677l-1.135.048c-.902.032-1.553.172-1.952.42-.4.25-.598.635-.598 1.16 0 .41.124.722.373.936.248.213.596.32 1.042.32zm8.736.937c-1.084 0-1.924-.334-2.52-1.002-.593-.667-.89-1.612-.89-2.833 0-1.254.3-2.222.905-2.906.605-.683 1.465-1.025 2.582-1.025.36 0 .72.04 1.08.117.36.078.642.17.847.274l-.35.965c-.25-.1-.523-.184-.82-.25a3.663 3.663 0 0 0-.786-.1c-1.522 0-2.283.972-2.283 2.913 0 .92.187 1.627.558 2.12.372.49.922.738 1.65.738.625 0 1.266-.135 1.922-.404v1.005c-.5.26-1.132.39-1.894.39zm4.792-3.972c.196-.278.495-.643.896-1.094l2.42-2.562h1.347l-3.035 3.192 3.248 4.3h-1.375l-2.645-3.54-.855.737V136h-1.12v-10.637h1.12v5.64c0 .25-.018.638-.054 1.162h.054zM269.85 133.34c0 .88-.32 1.566-.957 2.058-.638.493-1.504.74-2.598.74-1.184 0-2.096-.154-2.734-.46v-1.12a7.2 7.2 0 0 0 1.34.41c.484.1.962.15 1.436.15.775 0 1.358-.147 1.75-.44.392-.295.588-.704.588-1.228 0-.346-.07-.63-.208-.85-.14-.222-.372-.426-.697-.613-.327-.187-.823-.398-1.488-.635-.93-.333-1.594-.727-1.993-1.183-.4-.457-.6-1.052-.6-1.785 0-.77.29-1.383.87-1.84.578-.455 1.343-.683 2.296-.683.993 0 1.907.183 2.74.547l-.36 1.01c-.826-.345-1.628-.52-2.407-.52-.617 0-1.097.134-1.444.398-.346.264-.52.63-.52 1.1 0 .347.065.63.192.852.128.22.343.423.646.608.303.184.767.388 1.39.612 1.05.373 1.77.774 2.165 1.203.393.428.59.984.59 1.668zm5.038 2.797c-1.107 0-1.98-.338-2.62-1.012-.642-.674-.962-1.61-.962-2.81 0-1.207.298-2.167.892-2.877.595-.71 1.394-1.067 2.396-1.067.94 0 1.682.31 2.23.927.546.618.82 1.432.82 2.444v.72h-5.162c.023.88.245 1.546.666 2.002.422.456 1.016.684 1.78.684.808 0 1.605-.17 2.394-.506v1.01c-.4.175-.78.3-1.138.374-.358.075-.79.113-1.296.113zm-.307-6.816c-.6 0-1.08.197-1.438.59-.358.39-.57.933-.633 1.626h3.916c0-.715-.16-1.263-.478-1.644-.32-.38-.775-.57-1.367-.57zm8.416-.95c.332 0 .63.028.895.083l-.156 1.053a3.865 3.865 0 0 0-.82-.103c-.607 0-1.125.246-1.556.74-.43.49-.646 1.104-.646 1.837V136h-1.134v-7.492h.936l.13 1.388h.055c.277-.488.612-.864 1.004-1.128a2.262 2.262 0 0 1 1.292-.397zm3.937 7.63l-2.844-7.492h1.216l1.613 4.443c.364 1.04.578 1.715.642 2.025h.055c.05-.242.208-.742.475-1.5.266-.76.865-2.415 1.794-4.967h1.217L288.26 136h-1.327zm6.508 0h-1.134v-7.492h1.135V136zm-1.23-9.522c0-.26.064-.45.192-.57a.67.67 0 0 1 .478-.182.67.67 0 0 1 .472.184c.132.123.198.312.198.568 0 .255-.066.445-.198.57a.662.662 0 0 1-.472.188.655.655 0 0 1-.478-.188c-.128-.125-.192-.315-.192-.57zm6.63 9.66c-1.083 0-1.923-.335-2.518-1.003-.594-.667-.892-1.612-.892-2.833 0-1.254.302-2.222.906-2.906.604-.683 1.464-1.025 2.58-1.025.36 0 .72.04 1.08.117.36.078.643.17.848.274l-.348.965c-.25-.1-.524-.184-.82-.25a3.663 3.663 0 0 0-.787-.1c-1.523 0-2.284.972-2.284 2.913 0 .92.186 1.627.557 2.12.372.49.922.738 1.65.738.625 0 1.266-.135 1.922-.404v1.005c-.5.26-1.133.39-1.894.39zm6.837 0c-1.107 0-1.98-.34-2.62-1.013-.642-.674-.962-1.61-.962-2.81 0-1.207.298-2.167.892-2.877.595-.71 1.394-1.067 2.396-1.067.94 0 1.682.31 2.23.927.546.618.82 1.432.82 2.444v.72h-5.162c.024.88.246 1.546.668 2.002.42.456 1.015.684 1.78.684.807 0 1.604-.17 2.393-.506v1.01c-.4.175-.78.3-1.137.374-.358.075-.79.113-1.296.113zm-.307-6.817c-.602 0-1.082.197-1.44.59-.357.39-.568.933-.632 1.626h3.917c0-.715-.16-1.263-.478-1.644-.32-.38-.775-.57-1.367-.57zM343.497 126.9c-1.098 0-1.965.367-2.6 1.1-.637.73-.955 1.73-.955 3.003 0 1.308.307 2.318.92 3.032.613.713 1.487 1.07 2.62 1.07.7 0 1.494-.126 2.387-.376v1.017c-.694.26-1.548.39-2.564.39-1.472 0-2.608-.447-3.408-1.34-.8-.893-1.2-2.163-1.2-3.808 0-1.03.193-1.933.578-2.708a4.147 4.147 0 0 1 1.668-1.79c.727-.42 1.582-.63 2.567-.63 1.05 0 1.965.192 2.75.575l-.493.998c-.757-.356-1.513-.534-2.27-.534zm10.85 5.347c0 1.22-.31 2.175-.924 2.86-.615.687-1.465 1.03-2.55 1.03-.67 0-1.265-.158-1.784-.472a3.113 3.113 0 0 1-1.204-1.353c-.283-.588-.424-1.277-.424-2.065 0-1.22.305-2.173.916-2.854.61-.68 1.458-1.022 2.543-1.022 1.05 0 1.882.35 2.5 1.047.617.697.926 1.64.926 2.83zm-5.71 0c0 .957.192 1.686.575 2.188.383.5.946.752 1.688.752.743 0 1.307-.25 1.692-.75.385-.498.578-1.228.578-2.19 0-.952-.193-1.676-.578-2.17-.385-.495-.953-.742-1.705-.742-.743 0-1.304.244-1.682.73-.378.49-.567 1.216-.567 2.182zM361.463 136v-4.847c0-.61-.14-1.066-.417-1.367-.278-.3-.713-.45-1.306-.45-.785 0-1.36.21-1.723.635-.365.425-.547 1.124-.547 2.1V136h-1.135v-7.492h.923l.184 1.025h.055c.232-.37.558-.655.978-.858.42-.203.886-.304 1.4-.304.903 0 1.582.22 2.038.654.456.435.684 1.13.684 2.088V136h-1.135zm5.886-.8c.2 0 .394-.015.58-.044.188-.03.336-.06.445-.093v.87c-.123.058-.304.107-.543.146a4.08 4.08 0 0 1-.646.057c-1.45 0-2.174-.764-2.174-2.29v-4.457h-1.073v-.547l1.073-.472.478-1.6h.657v1.738h2.173v.882h-2.173v4.41c0 .45.107.796.32 1.038.215.24.51.362.883.362zm7.13.8l-.226-1.066h-.055c-.373.47-.746.787-1.117.953-.372.167-.836.25-1.392.25-.742 0-1.325-.192-1.746-.575-.422-.382-.632-.927-.632-1.633 0-1.514 1.21-2.307 3.63-2.38l1.27-.04v-.466c0-.588-.126-1.022-.378-1.302-.253-.28-.658-.42-1.214-.42-.624 0-1.33.19-2.12.574l-.348-.87c.37-.2.774-.356 1.214-.47.44-.114.88-.17 1.323-.17.893 0 1.555.197 1.985.593.43.396.646 1.032.646 1.907V136h-.84zm-2.564-.8c.706 0 1.26-.193 1.665-.58.402-.388.604-.93.604-1.628v-.677l-1.135.048c-.904.032-1.554.172-1.953.42-.4.25-.598.635-.598 1.16 0 .41.123.722.372.936.248.213.595.32 1.042.32zm6.877.8h-1.134v-7.492h1.135V136zm-1.23-9.522c0-.26.064-.45.192-.57a.67.67 0 0 1 .478-.182.67.67 0 0 1 .472.184c.132.123.198.312.198.568 0 .255-.066.445-.198.57a.662.662 0 0 1-.472.188.655.655 0 0 1-.478-.188c-.128-.125-.19-.315-.19-.57zm8.764 9.522v-4.847c0-.61-.14-1.066-.417-1.367-.278-.3-.713-.45-1.305-.45-.784 0-1.36.21-1.723.635-.366.425-.548 1.124-.548 2.1V136h-1.135v-7.492h.923l.185 1.025h.054c.232-.37.558-.655.977-.858.42-.203.886-.304 1.4-.304.904 0 1.583.22 2.038.654.456.435.684 1.13.684 2.088V136h-1.136zm6.63.137c-1.106 0-1.98-.338-2.62-1.012-.64-.674-.96-1.61-.96-2.81 0-1.207.296-2.167.89-2.877.596-.71 1.395-1.067 2.397-1.067.94 0 1.683.31 2.23.927.547.618.82 1.432.82 2.444v.72h-5.16c.022.88.244 1.546.665 2.002.422.456 1.015.684 1.78.684.808 0 1.605-.17 2.394-.506v1.01c-.402.175-.782.3-1.14.374-.357.075-.79.113-1.295.113zm-.307-6.816c-.6 0-1.08.197-1.44.59-.356.39-.567.933-.63 1.626h3.916c0-.715-.16-1.263-.478-1.644-.32-.38-.775-.57-1.368-.57zm8.416-.95c.332 0 .63.028.895.083l-.157 1.053a3.865 3.865 0 0 0-.82-.103c-.606 0-1.124.246-1.555.74-.43.49-.646 1.104-.646 1.837V136h-1.135v-7.492h.936l.13 1.388h.056c.278-.488.613-.864 1.005-1.128a2.262 2.262 0 0 1 1.293-.397zM444.958 136h-1.326l-5.462-8.388h-.054c.073.985.11 1.887.11 2.707V136h-1.074v-9.994h1.312l5.45 8.353h.053a75.97 75.97 0 0 1-.06-1.187 20.58 20.58 0 0 1-.035-1.432v-5.734h1.086V136zm9.044-3.753c0 1.22-.307 2.175-.922 2.86-.616.687-1.466 1.03-2.55 1.03-.67 0-1.265-.158-1.784-.472a3.113 3.113 0 0 1-1.204-1.353c-.282-.588-.423-1.277-.423-2.065 0-1.22.304-2.173.915-2.854.61-.68 1.458-1.022 2.543-1.022 1.048 0 1.88.35 2.498 1.047.618.697.926 1.64.926 2.83zm-5.708 0c0 .957.192 1.686.575 2.188.38.5.944.752 1.687.752.743 0 1.307-.25 1.692-.75.384-.498.577-1.228.577-2.19 0-.952-.193-1.676-.578-2.17-.386-.495-.955-.742-1.707-.742-.742 0-1.303.244-1.68.73-.38.49-.57 1.216-.57 2.182zm12.797 2.748h-.06c-.524.76-1.308 1.142-2.352 1.142-.98 0-1.742-.335-2.286-1.005-.545-.67-.817-1.623-.817-2.858s.273-2.194.82-2.878c.547-.683 1.308-1.025 2.283-1.025 1.017 0 1.796.37 2.338 1.11h.09l-.05-.542-.026-.526v-3.05h1.135V136h-.923l-.15-1.005zm-2.268.192c.775 0 1.336-.21 1.685-.633.348-.42.523-1.102.523-2.04v-.24c0-1.06-.177-1.82-.53-2.273-.353-.452-.917-.68-1.692-.68-.665 0-1.175.26-1.528.777s-.53 1.248-.53 2.19c0 .958.176 1.68.527 2.168.35.488.866.732 1.545.732zm8.914.95c-1.108 0-1.98-.338-2.622-1.012-.64-.674-.96-1.61-.96-2.81 0-1.207.297-2.167.892-2.877s1.393-1.067 2.396-1.067c.94 0 1.682.31 2.228.927.547.618.82 1.432.82 2.444v.72h-5.16c.022.88.245 1.546.666 2.002.422.456 1.015.684 1.78.684.808 0 1.605-.17 2.393-.506v1.01c-.402.175-.78.3-1.14.374-.356.075-.788.113-1.294.113zm-.308-6.816c-.6 0-1.08.197-1.44.59-.356.39-.567.933-.63 1.626h3.916c0-.715-.16-1.263-.48-1.644-.318-.38-.773-.57-1.366-.57zM519.3 136h-1.326l-5.462-8.388h-.054c.072.985.11 1.887.11 2.707V136h-1.074v-9.994h1.312l5.448 8.353h.055c-.01-.124-.03-.52-.062-1.187a20.578 20.578 0 0 1-.035-1.432v-5.734h1.087V136zm5.742.137c-1.107 0-1.98-.338-2.62-1.012-.64-.674-.962-1.61-.962-2.81 0-1.207.298-2.167.893-2.877.594-.71 1.393-1.067 2.396-1.067.937 0 1.68.31 2.227.927.547.618.82 1.432.82 2.444v.72h-5.16c.022.88.244 1.546.666 2.002.42.456 1.015.684 1.78.684.807 0 1.605-.17 2.393-.506v1.01c-.4.175-.78.3-1.138.374-.358.075-.79.113-1.296.113zm-.307-6.816c-.602 0-1.08.197-1.44.59-.357.39-.568.933-.63 1.626h3.916c0-.715-.16-1.263-.478-1.644-.32-.38-.775-.57-1.367-.57zm7.417 5.88c.2 0 .394-.015.58-.044.188-.03.336-.06.445-.093v.87c-.123.058-.304.107-.543.146a4.08 4.08 0 0 1-.646.057c-1.45 0-2.174-.764-2.174-2.29v-4.457h-1.073v-.547l1.074-.472.478-1.6h.657v1.738h2.173v.882h-2.174v4.41c0 .45.106.796.32 1.038.214.24.508.362.882.362zm8.64.8l-1.374-4.396c-.086-.268-.248-.88-.485-1.832h-.055a25.06 25.06 0 0 1-.478 1.846L536.985 136h-1.313l-2.044-7.492h1.19c.483 1.882.85 3.315 1.104 4.3.253.984.397 1.647.434 1.99h.055c.05-.26.132-.597.243-1.01.112-.412.21-.74.29-.98l1.375-4.3h1.23l1.34 4.3c.255.783.43 1.442.52 1.975h.054c.02-.164.068-.417.147-.76.08-.34.554-2.18 1.425-5.515h1.175L542.14 136h-1.348zm11.24-3.753c0 1.22-.31 2.175-.924 2.86-.615.687-1.465 1.03-2.55 1.03-.67 0-1.265-.158-1.784-.472a3.113 3.113 0 0 1-1.203-1.353c-.282-.588-.423-1.277-.423-2.065 0-1.22.305-2.173.916-2.854.61-.68 1.458-1.022 2.543-1.022 1.048 0 1.88.35 2.498 1.047.618.697.927 1.64.927 2.83zm-5.71 0c0 .957.192 1.686.575 2.188.383.5.946.752 1.688.752.743 0 1.307-.25 1.692-.75.385-.498.578-1.228.578-2.19 0-.952-.193-1.676-.578-2.17-.385-.495-.953-.742-1.705-.742-.743 0-1.304.244-1.682.73-.378.49-.567 1.216-.567 2.182zm11.116-3.876c.333 0 .63.028.895.083l-.157 1.053a3.865 3.865 0 0 0-.82-.103c-.606 0-1.125.246-1.555.74-.43.49-.645 1.104-.645 1.837V136h-1.135v-7.492h.937l.13 1.388h.054c.28-.488.614-.864 1.006-1.128a2.262 2.262 0 0 1 1.292-.397zm3.418 3.795c.196-.278.494-.643.895-1.094l2.42-2.562h1.348l-3.035 3.192 3.247 4.3h-1.374l-2.646-3.54-.854.737V136h-1.12v-10.637h1.12v5.64c0 .25-.018.638-.055 1.162h.056zM604.682 126.006h1.25l-3.6 9.994h-1.15l-3.582-9.994h1.23l2.297 6.467c.265.742.474 1.465.63 2.167a18.09 18.09 0 0 1 .642-2.208l2.282-6.426zm8.92 6.24c0 1.222-.307 2.176-.922 2.862-.615.686-1.465 1.03-2.55 1.03-.67 0-1.264-.16-1.784-.473a3.113 3.113 0 0 1-1.203-1.353c-.282-.588-.424-1.277-.424-2.065 0-1.22.305-2.173.915-2.854.61-.68 1.46-1.022 2.543-1.022 1.048 0 1.88.35 2.5 1.047.616.697.925 1.64.925 2.83zm-5.707 0c0 .958.19 1.687.574 2.19.382.5.945.75 1.688.75s1.307-.25 1.692-.748c.385-.5.577-1.23.577-2.19 0-.953-.192-1.677-.577-2.17-.385-.496-.954-.743-1.706-.743-.743 0-1.303.244-1.682.73-.378.49-.567 1.216-.567 2.182zm8.832 3.754h-1.135v-10.637h1.135V136zm3.473-7.492v4.86c0 .61.14 1.067.417 1.367.278.3.713.452 1.305.452.784 0 1.357-.215 1.72-.643.362-.428.543-1.128.543-2.1v-3.936h1.135V136h-.937l-.164-1.005h-.062c-.233.37-.555.652-.968.848-.412.196-.883.294-1.41.294-.913 0-1.595-.217-2.05-.65-.452-.433-.68-1.125-.68-2.078v-4.902h1.15zM637.276 136v-4.874c0-.597-.128-1.045-.383-1.343-.255-.3-.652-.448-1.19-.448-.706 0-1.228.203-1.565.608-.337.406-.506 1.03-.506 1.873V136h-1.134v-4.874c0-.597-.128-1.045-.383-1.343-.255-.3-.654-.448-1.197-.448-.71 0-1.23.213-1.562.64-.33.425-.495 1.124-.495 2.094V136h-1.134v-7.492h.923l.183 1.025h.055a2.23 2.23 0 0 1 .906-.854c.39-.206.826-.31 1.31-.31 1.17 0 1.936.425 2.296 1.273h.055a2.39 2.39 0 0 1 .97-.93 3.012 3.012 0 0 1 1.45-.342c.847 0 1.482.22 1.903.654.422.435.633 1.13.633 2.088V136h-1.134zm6.638.137c-1.108 0-1.982-.338-2.622-1.012-.64-.674-.96-1.61-.96-2.81 0-1.207.297-2.167.892-2.877.594-.71 1.393-1.067 2.396-1.067.938 0 1.68.31 2.228.927.547.618.82 1.432.82 2.444v.72h-5.16c.022.88.244 1.546.666 2.002.42.456 1.015.684 1.78.684.807 0 1.605-.17 2.393-.506v1.01c-.4.175-.78.3-1.138.374-.36.075-.79.113-1.296.113zm-.308-6.816c-.602 0-1.08.197-1.44.59-.357.39-.568.933-.63 1.626h3.916c0-.715-.16-1.263-.48-1.644-.318-.38-.774-.57-1.366-.57zM692.656 133.34c0 .88-.32 1.566-.957 2.058-.64.493-1.505.74-2.598.74-1.185 0-2.097-.154-2.735-.46v-1.12a7.2 7.2 0 0 0 1.34.41c.483.1.962.15 1.436.15.774 0 1.358-.147 1.75-.44.392-.295.587-.704.587-1.228 0-.346-.07-.63-.208-.85-.14-.222-.37-.426-.697-.613-.326-.187-.822-.398-1.487-.635-.93-.333-1.594-.727-1.993-1.183-.4-.457-.598-1.052-.598-1.785 0-.77.29-1.383.868-1.84.58-.455 1.345-.683 2.297-.683.994 0 1.907.183 2.74.547l-.36 1.01c-.826-.345-1.628-.52-2.407-.52-.615 0-1.096.134-1.443.398-.346.264-.52.63-.52 1.1 0 .347.065.63.192.852.128.22.343.423.646.608.303.184.767.388 1.39.612 1.05.373 1.77.774 2.165 1.203.394.428.59.984.59 1.668zm5.038 2.797c-1.107 0-1.98-.338-2.62-1.012-.642-.674-.962-1.61-.962-2.81 0-1.207.298-2.167.892-2.877.595-.71 1.394-1.067 2.396-1.067.94 0 1.682.31 2.23.927.546.618.82 1.432.82 2.444v.72h-5.162c.023.88.245 1.546.667 2.002.42.456 1.015.684 1.78.684.807 0 1.605-.17 2.393-.506v1.01c-.4.175-.78.3-1.138.374-.358.075-.79.113-1.296.113zm-.307-6.816c-.602 0-1.08.197-1.44.59-.357.39-.568.933-.632 1.626h3.917c0-.715-.16-1.263-.478-1.644-.32-.38-.775-.57-1.367-.57zm7.99 6.817c-1.084 0-1.923-.334-2.518-1.002-.596-.667-.893-1.612-.893-2.833 0-1.254.302-2.222.906-2.906.603-.683 1.464-1.025 2.58-1.025.36 0 .72.04 1.08.117.36.078.643.17.848.274l-.348.965c-.25-.1-.524-.184-.82-.25a3.663 3.663 0 0 0-.786-.1c-1.522 0-2.283.972-2.283 2.913 0 .92.185 1.627.557 2.12.37.49.92.738 1.65.738.625 0 1.265-.135 1.92-.404v1.005c-.5.26-1.13.39-1.892.39zm7.09-7.766c.332 0 .63.028.895.083l-.157 1.053a3.865 3.865 0 0 0-.82-.103c-.606 0-1.125.246-1.555.74-.43.49-.646 1.104-.646 1.837V136h-1.135v-7.492h.935l.13 1.388h.055c.278-.488.613-.864 1.005-1.128a2.262 2.262 0 0 1 1.292-.397zm5.462 7.767c-1.11 0-1.983-.338-2.623-1.012-.64-.674-.96-1.61-.96-2.81 0-1.207.297-2.167.892-2.877.593-.71 1.392-1.067 2.395-1.067.94 0 1.68.31 2.228.927.547.618.82 1.432.82 2.444v.72h-5.16c.022.88.244 1.546.666 2.002.42.456 1.014.684 1.78.684.806 0 1.604-.17 2.392-.506v1.01c-.4.175-.78.3-1.138.374-.358.075-.79.113-1.295.113zm-.31-6.816c-.6 0-1.08.197-1.438.59-.358.39-.568.933-.632 1.626h3.917c0-.715-.16-1.263-.48-1.644-.318-.38-.773-.57-1.366-.57zm7.418 5.88c.2 0 .394-.015.58-.044.188-.03.336-.06.445-.093v.87c-.123.058-.304.107-.543.146a4.08 4.08 0 0 1-.646.057c-1.45 0-2.174-.764-2.174-2.29v-4.457h-1.073v-.547l1.073-.472.48-1.6h.655v1.738h2.174v.882h-2.175v4.41c0 .45.107.796.32 1.038.215.24.51.362.883.362z" fill="#066DA5"/><path d="M128 102v-6h-20v6h-4v14h28v-14h-4zm-18-4h16v4h-16v-4zm20 16h-24v-10h24v10zm-2-22h-20v2h20v-2zm0-4h-20v2h20v-2z" fill="#066DA5" fill-rule="nonzero"/><path fill="#066DA5" opacity=".457" d="M245.03 102.006h8.85v2.965h-8.85v9.153h-2.987v-9.152h-8.81v-2.964h8.81V92.81h2.986zM149.557 100.566v-2.943h19.98v2.943h-19.98zm0 8.788v-2.944h19.98v2.944h-19.98zM329.03 102.006h8.85v2.965h-8.85v9.153h-2.987v-9.152h-8.81v-2.964h8.81V92.81h2.986zM413.03 102.006h8.85v2.965h-8.85v9.153h-2.987v-9.152h-8.81v-2.964h8.81V92.81h2.986zM497.03 102.006h8.85v2.965h-8.85v9.153h-2.987v-9.152h-8.81v-2.964h8.81V92.81h2.986zM665.03 102.006h8.85v2.965h-8.85v9.153h-2.987v-9.152h-8.81v-2.964h8.81V92.81h2.986zM581.03 102.006h8.85v2.965h-8.85v9.153h-2.987v-9.152h-8.81v-2.964h8.81V92.81h2.986z"/><path d="M535.4 97c-.8-.6-1.4-1.8-1.4-3 0-2.2 1.8-4 4-4s4 1.8 4 4c0 1.2-.6 2.2-1.4 3l4.6 9h.8c2.2 0 4 1.8 4 4s-1.8 4-4 4-4-1.8-4-4c0-1.2.6-2.4 1.4-3l-4.6-9h-1.6l-4.6 9c.8.8 1.4 1.8 1.4 3 0 2.2-1.8 4-4 4s-4-1.8-4-4 1.8-4 4-4h.8l4.6-9z" fill="#066DA5" fill-rule="nonzero"/><path d="M352 84h36v36h-36z"/><path d="M358 90v24h24V90h-24zm22 22h-20V92h20v20zm-10-4c3.4 0 6-2.6 6-6s-2.6-6-6-6-6 2.6-6 6 2.6 6 6 6zM278 86v30h16V86h-16zm14 28h-12v-12h12v12zm0-14h-12V88h12v12zm-6 10c1.2 0 2-.8 2-2s-.8-2-2-2-2 .8-2 2 .8 2 2 2zm0-14c1.2 0 2-.8 2-2s-.8-2-2-2-2 .8-2 2 .8 2 2 2zM440 90v22h28V90h-28zm26 20h-24v-8h24v8zm0-10h-24v-8h24v8zm-20-2c1.2 0 2-.8 2-2s-.8-2-2-2-2 .8-2 2 .8 2 2 2zm8 0c1.2 0 2-.8 2-2s-.8-2-2-2-2 .8-2 2 .8 2 2 2zm-8 10c1.2 0 2-.8 2-2s-.8-2-2-2-2 .8-2 2 .8 2 2 2zm8 0c1.2 0 2-.8 2-2s-.8-2-2-2-2 .8-2 2 .8 2 2 2zM710 98V88h-8v10h-6v18h20V98h-6zm-6-8h4v8h-4v-8zm10 24h-16v-14h16v14zm-8-8c-1.1 0-2 .9-2 2s.9 2 2 2 2-.9 2-2-.9-2-2-2z" fill="#066DA5" fill-rule="nonzero"/><path d="M212 102h-20v-2h20v2zm4 8h-20v-2h20v2zm-8-18v2h-20v-2h20z" fill="#066DA5"/><path d="M612 88v28h20V88h-20zm18 26h-16V90h16v24zm-8-8c1.2 0 2.4-.4 3.4-1.2l-4.2-4 1.4-1.4 4.2 4.2c.8-1.2 1.2-2.4 1.2-3.6 0-3.4-2.6-6-6-6s-6 2.6-6 6 2.6 6 6 6z" fill="#066DA5" fill-rule="nonzero"/><path d="M353.018 34.037c-1.14 0-2.022.428-2.647 1.284-.624.857-.936 2.05-.936 3.58 0 3.184 1.194 4.776 3.584 4.776 1.002 0 2.216-.25 3.642-.752v2.54c-1.172.487-2.48.73-3.926.73-2.076 0-3.665-.63-4.765-1.888-1.102-1.26-1.652-3.068-1.652-5.425 0-1.484.27-2.784.81-3.9.54-1.117 1.318-1.973 2.33-2.57 1.012-.595 2.2-.892 3.56-.892 1.386 0 2.78.335 4.18 1.005l-.977 2.46a16.165 16.165 0 0 0-1.61-.663 4.807 4.807 0 0 0-1.592-.283zm8.818 6.484c0 1.082.177 1.9.532 2.453.355.553.933.83 1.734.83.794 0 1.365-.275 1.713-.825.35-.55.523-1.37.523-2.457 0-1.08-.176-1.89-.527-2.43-.35-.54-.927-.81-1.728-.81-.794 0-1.367.268-1.72.805-.35.537-.526 1.35-.526 2.436zm7.55 0c0 1.78-.47 3.17-1.407 4.17-.94 1.004-2.244 1.505-3.918 1.505-1.048 0-1.972-.23-2.773-.688a4.58 4.58 0 0 1-1.847-1.978c-.43-.86-.644-1.863-.644-3.01 0-1.782.464-3.17 1.395-4.16.93-.988 2.24-1.483 3.926-1.483 1.05 0 1.974.228 2.775.684.8.456 1.416 1.11 1.845 1.963.43.853.645 1.853.645 2.998zm5.438 5.48h-2.978V30.805h2.978V46zm6.104 0h-2.98V30.805h2.98V46zm7.646-9.004c-.63 0-1.126.2-1.484.6-.358.4-.563.97-.615 1.705h4.18c-.014-.735-.206-1.303-.577-1.703-.37-.4-.872-.6-1.504-.6zm.42 9.2c-1.758 0-3.13-.486-4.12-1.456-.99-.97-1.485-2.344-1.485-4.12 0-1.83.456-3.245 1.37-4.244.915-1 2.18-1.5 3.795-1.5 1.543 0 2.744.44 3.603 1.32.86.878 1.29 2.092 1.29 3.642v1.445h-7.042c.033.847.283 1.507.752 1.983.47.475 1.127.713 1.973.713a8.19 8.19 0 0 0 1.866-.207 9.333 9.333 0 0 0 1.836-.654v2.304c-.52.26-1.077.454-1.67.58-.592.128-1.315.19-2.168.19zm11.31 0c-3.4 0-5.1-1.866-5.1-5.596 0-1.856.463-3.273 1.388-4.253.924-.98 2.25-1.47 3.974-1.47 1.263 0 2.396.247 3.4.742l-.88 2.304c-.47-.19-.905-.344-1.31-.464a4.216 4.216 0 0 0-1.21-.18c-1.55 0-2.324 1.1-2.324 3.3 0 2.136.775 3.203 2.324 3.203a5.3 5.3 0 0 0 1.592-.23 5.747 5.747 0 0 0 1.465-.717v2.55a4.8 4.8 0 0 1-1.46.634c-.49.117-1.112.175-1.86.175zm10.448-2.374c.52 0 1.146-.114 1.875-.342v2.217c-.742.332-1.654.498-2.734.498-1.192 0-2.06-.3-2.603-.903-.544-.602-.815-1.506-.815-2.71v-5.264h-1.426v-1.26l1.64-.995.86-2.305h1.903v2.324h3.057v2.236h-3.057v5.264c0 .423.12.736.357.938.237.2.55.302.942.302zm3.955-11.562c0-.97.54-1.455 1.62-1.455 1.082 0 1.622.485 1.622 1.455 0 .462-.136.822-.406 1.08-.27.256-.676.385-1.216.385-1.08 0-1.62-.49-1.62-1.465zM417.813 46h-2.98V35.082h2.98V46zm5.498-5.48c0 1.082.178 1.9.533 2.453.355.553.932.83 1.733.83.794 0 1.366-.275 1.714-.825.348-.55.522-1.37.522-2.457 0-1.08-.175-1.89-.527-2.43-.35-.54-.928-.81-1.728-.81-.795 0-1.368.268-1.72.805-.35.537-.526 1.35-.526 2.436zm7.55 0c0 1.78-.47 3.17-1.407 4.17-.937 1.004-2.243 1.505-3.916 1.505-1.048 0-1.973-.23-2.773-.688a4.58 4.58 0 0 1-1.846-1.978c-.43-.86-.645-1.863-.645-3.01 0-1.782.466-3.17 1.397-4.16.93-.988 2.24-1.483 3.926-1.483 1.048 0 1.972.228 2.773.684.8.456 1.415 1.11 1.845 1.963.43.853.644 1.853.644 2.998zM443.397 46h-2.978v-6.377c0-.788-.14-1.38-.42-1.772-.28-.393-.726-.59-1.338-.59-.833 0-1.435.278-1.807.835-.37.556-.556 1.48-.556 2.768V46h-2.98V35.082h2.276l.4 1.397h.166c.332-.53.79-.928 1.372-1.198.583-.27 1.245-.405 1.987-.405 1.27 0 2.235.343 2.892 1.03.658.687.986 1.678.986 2.974V46zm10.684-3.242c0 1.12-.39 1.972-1.167 2.558-.778.586-1.942.88-3.49.88-.795 0-1.473-.054-2.032-.162a7.683 7.683 0 0 1-1.573-.473V43.1c.554.26 1.177.478 1.87.654.694.176 1.304.264 1.83.264 1.082 0 1.623-.313 1.623-.938a.782.782 0 0 0-.215-.57c-.143-.148-.39-.314-.742-.5-.352-.185-.82-.4-1.407-.65-.84-.35-1.457-.676-1.85-.975-.395-.3-.682-.643-.86-1.03-.18-.388-.27-.865-.27-1.43 0-.97.377-1.722 1.13-2.252.75-.53 1.817-.796 3.197-.796 1.315 0 2.594.286 3.838.86l-.9 2.148a16.527 16.527 0 0 0-1.532-.576 4.815 4.815 0 0 0-1.455-.226c-.88 0-1.318.238-1.318.713 0 .267.14.498.425.693.283.196.903.485 1.86.87.853.344 1.478.667 1.875.966.397.3.69.645.88 1.035.188.392.282.857.282 1.398z" fill="#066DA5"/></g></svg>