<?xml version="1.0" encoding="UTF-8"?>
<svg width="740px" height="310px" viewBox="0 0 740 310" version="1.1" xmlns="http://www.w3.org/2000/svg" xmlns:xlink="http://www.w3.org/1999/xlink" style="background: #FFFFFF;">
    <!-- Generator: Sketch 49 (51002) - http://www.bohemiancoding.com/sketch -->
    <title>interlock-deploy-production-1</title>
    <desc>Created with Sketch.</desc>
    <defs>
        <circle id="path-1" cx="4" cy="4" r="4"></circle>
        <circle id="path-2" cx="4" cy="4" r="4"></circle>
    </defs>
    <g id="interlock-deploy-production-1" stroke="none" stroke-width="1" fill="none" fill-rule="evenodd">
        <g id="all" transform="translate(9.000000, 10.000000)">
            <text id="Docker-swarm-managed" font-family="OpenSans-Semibold, Open Sans" font-size="10" font-weight="500" fill="#E0E4E7">
                <tspan x="7" y="281">Docker swarm managed with UCP</tspan>
            </text>
            <g id="nodes" transform="translate(8.000000, 100.000000)">
                <g id="workers" transform="translate(357.000000, 0.000000)">
                    <g id="node" transform="translate(242.000000, 0.000000)">
                        <text id="node-6" font-family="OpenSans-Semibold, Open Sans" font-size="10" font-weight="500" fill="#82949E">
                            <tspan x="37.3129883" y="149">node-6</tspan>
                        </text>
                        <g id="ucp" transform="translate(1.000000, 112.000000)">
                            <rect id="Rectangle-138" fill="#439FD1" x="0" y="0" width="106" height="22" rx="2"></rect>
                            <text id="UCP" font-family="OpenSans, Open Sans" font-size="10" font-weight="normal" fill="#FFFFFF">
                                <tspan x="43.6953125" y="15">UCP </tspan>
                            </text>
                        </g>
                        <g id="wordpress-copy" transform="translate(1.000000, 89.000000)">
                            <rect id="Rectangle-138" fill="#00B6B5" x="0" y="0" width="106" height="22" rx="2"></rect>
                            <text id="interlock-proxy:80" font-family="OpenSans, Open Sans" font-size="10" font-weight="normal" fill="#FFFFFF">
                                <tspan x="11.3442383" y="15">interlock-proxy:80</tspan>
                            </text>
                        </g>
                        <g id="label">
                            <g id="node-label">
                                <path d="M0,2.00295631 C0,0.896754086 0.897702336,0 1.99174577,0 L71,0 L71,10.6452381 C71,16.5244408 66.2312425,21.2904762 60.3513837,21.2904762 L0,21.2904762 L0,2.00295631 Z" id="Rectangle-127" fill="#445D6E"></path>
                                <text id="worker-node" font-family="OpenSans, Open Sans" font-size="8" font-weight="normal" fill="#FFFFFF">
                                    <tspan x="6" y="14">worker node</tspan>
                                </text>
                            </g>
                        </g>
                        <rect id="node-border" stroke="#445D6E" stroke-width="2" x="0" y="0" width="108" height="135" rx="2"></rect>
                    </g>
                    <g id="node" transform="translate(128.000000, 0.000000)">
                        <text id="node-5" font-family="OpenSans-Semibold, Open Sans" font-size="10" font-weight="500" fill="#82949E">
                            <tspan x="37.3129883" y="149">node-5</tspan>
                        </text>
                        <g id="ucp" transform="translate(1.000000, 112.000000)">
                            <rect id="Rectangle-138" fill="#439FD1" x="0" y="0" width="106" height="22" rx="2"></rect>
                            <text id="UCP" font-family="OpenSans, Open Sans" font-size="10" font-weight="normal" fill="#FFFFFF">
                                <tspan x="43.6953125" y="15">UCP </tspan>
                            </text>
                        </g>
                        <g id="wordpress" transform="translate(1.000000, 89.000000)">
                            <rect id="Rectangle-138" fill="#00B6B5" x="0" y="0" width="106" height="22" rx="2"></rect>
                            <text id="interlock-proxy:80" font-family="OpenSans, Open Sans" font-size="10" font-weight="normal" fill="#FFFFFF">
                                <tspan x="10.8442383" y="15">interlock-proxy:80</tspan>
                            </text>
                        </g>
                        <g id="wordpress-copy" transform="translate(12.000000, 70.000000)" fill="#FFFFFF" font-family="OpenSans, Open Sans" font-size="10" font-weight="normal">
                            <text id="interlock-proxy:80">
                                <tspan x="0.344238281" y="11">interlock-proxy:80</tspan>
                            </text>
                        </g>
                        <g id="label">
                            <g id="node-label">
                                <path d="M0,2.00295631 C0,0.896754086 0.897702336,0 1.99174577,0 L71,0 L71,10.6452381 C71,16.5244408 66.2312425,21.2904762 60.3513837,21.2904762 L0,21.2904762 L0,2.00295631 Z" id="Rectangle-127" fill="#445D6E"></path>
                                <text id="worker-node" font-family="OpenSans, Open Sans" font-size="8" font-weight="normal" fill="#FFFFFF">
                                    <tspan x="6" y="14">worker node</tspan>
                                </text>
                            </g>
                        </g>
                        <rect id="node-border" stroke="#445D6E" stroke-width="2" x="0" y="0" width="108" height="135" rx="2"></rect>
                    </g>
                    <g id="node-copy-3">
                        <text id="node-4" font-family="OpenSans-Semibold, Open Sans" font-size="10" font-weight="500" fill="#82949E">
                            <tspan x="37.3129883" y="149">node-4</tspan>
                        </text>
                        <g id="ucp" transform="translate(1.000000, 112.000000)">
                            <rect id="Rectangle-138" fill="#439FD1" x="0" y="0" width="106" height="22" rx="2"></rect>
                            <text id="UCP" font-family="OpenSans, Open Sans" font-size="10" font-weight="normal" fill="#FFFFFF">
                                <tspan x="43.6953125" y="15">UCP </tspan>
                            </text>
                        </g>
                        <g id="wordpress-copy" transform="translate(1.000000, 89.000000)">
                            <rect id="Rectangle-138" fill="#00B6B5" x="0" y="0" width="106" height="22" rx="2"></rect>
                            <text id="interlock-extension" font-family="OpenSans, Open Sans" font-size="10" font-weight="normal" fill="#FFFFFF">
                                <tspan x="8.85400391" y="15">interlock-extension</tspan>
                            </text>
                        </g>
                        <g id="wordpress-copy-2" transform="translate(1.000000, 66.000000)">
                            <rect id="Rectangle-138" fill="#FFB463" x="0" y="0" width="106" height="22" rx="2"></rect>
                            <text id="wordpress:8000" font-family="OpenSans, Open Sans" font-size="10" font-weight="normal" fill="#FFFFFF">
                                <tspan x="16.0390625" y="15">wordpress:8000</tspan>
                            </text>
                        </g>
                        <g id="label">
                            <g id="node-label">
                                <path d="M0,2.00295631 C0,0.896754086 0.897702336,0 1.99174577,0 L71,0 L71,10.6452381 C71,16.5244408 66.2312425,21.2904762 60.3513837,21.2904762 L0,21.2904762 L0,2.00295631 Z" id="Rectangle-127" fill="#445D6E"></path>
                                <text id="worker-node" font-family="OpenSans, Open Sans" font-size="8" font-weight="normal" fill="#FFFFFF">
                                    <tspan x="6" y="14">worker node</tspan>
                                </text>
                            </g>
                        </g>
                        <rect id="node-border" stroke="#445D6E" stroke-width="2" x="0" y="0" width="108" height="135" rx="2"></rect>
                    </g>
                </g>
                <g id="managers">
                    <g id="node" transform="translate(228.000000, 0.000000)">
                        <text id="node-3" font-family="OpenSans-Semibold, Open Sans" font-size="10" font-weight="500" fill="#82949E">
                            <tspan x="37.3129883" y="149">node-3</tspan>
                        </text>
                        <g id="ucp" transform="translate(1.000000, 112.000000)">
                            <rect id="Rectangle-138" fill="#439FD1" x="0" y="0" width="106" height="22" rx="2"></rect>
                            <text id="UCP" font-family="OpenSans, Open Sans" font-size="10" font-weight="normal" fill="#FFFFFF">
                                <tspan x="43.6953125" y="15">UCP </tspan>
                            </text>
                        </g>
                        <g id="label">
                            <g id="node-label">
                                <path d="M0,2.00295631 C0,0.896754086 0.897702336,0 1.99174577,0 L71,0 L71,10.6452381 C71,16.5244408 66.2312425,21.2904762 60.3513837,21.2904762 L0,21.2904762 L0,2.00295631 Z" id="Rectangle-127" fill="#445D6E"></path>
                                <text id="manager-node" font-family="OpenSans, Open Sans" font-size="8" font-weight="normal" fill="#FFFFFF">
                                    <tspan x="6" y="14">manager node</tspan>
                                </text>
                            </g>
                        </g>
                        <rect id="node-border" stroke="#445D6E" stroke-width="2" x="0" y="0" width="108" height="135" rx="2"></rect>
                    </g>
                    <g id="node-copy" transform="translate(114.000000, 0.000000)">
                        <text id="node-2" font-family="OpenSans-Semibold, Open Sans" font-size="10" font-weight="500" fill="#82949E">
                            <tspan x="37.3129883" y="149">node-2</tspan>
                        </text>
                        <g id="ucp" transform="translate(1.000000, 112.000000)">
                            <rect id="Rectangle-138" fill="#439FD1" x="0" y="0" width="106" height="22" rx="2"></rect>
                            <text id="UCP" font-family="OpenSans, Open Sans" font-size="10" font-weight="normal" fill="#FFFFFF">
                                <tspan x="43.6953125" y="15">UCP </tspan>
                            </text>
                        </g>
                        <g id="label">
                            <g id="node-label">
                                <path d="M0,2.00295631 C0,0.896754086 0.897702336,0 1.99174577,0 L71,0 L71,10.6452381 C71,16.5244408 66.2312425,21.2904762 60.3513837,21.2904762 L0,21.2904762 L0,2.00295631 Z" id="Rectangle-127" fill="#445D6E"></path>
                                <text id="manager-node" font-family="OpenSans, Open Sans" font-size="8" font-weight="normal" fill="#FFFFFF">
                                    <tspan x="6" y="14">manager node</tspan>
                                </text>
                            </g>
                        </g>
                        <rect id="node-border" stroke="#445D6E" stroke-width="2" x="0" y="0" width="108" height="135" rx="2"></rect>
                    </g>
                    <g id="node-copy-2">
                        <text id="node-1" font-family="OpenSans-Semibold, Open Sans" font-size="10" font-weight="500" fill="#82949E">
                            <tspan x="37.3129883" y="149">node-1</tspan>
                        </text>
                        <g id="ucp" transform="translate(1.000000, 112.000000)">
                            <rect id="Rectangle-138" fill="#439FD1" x="0" y="0" width="106" height="22" rx="2"></rect>
                            <text id="UCP" font-family="OpenSans, Open Sans" font-size="10" font-weight="normal" fill="#FFFFFF">
                                <tspan x="43.6953125" y="15">UCP </tspan>
                            </text>
                        </g>
                        <g id="wordpress" transform="translate(1.000000, 89.000000)">
                            <rect id="Rectangle-138" fill="#00B6B5" x="0" y="0" width="106" height="22" rx="2"></rect>
                            <text id="ucp-interlock" font-family="OpenSans, Open Sans" font-size="10" font-weight="normal" fill="#FFFFFF">
                                <tspan x="22.6435547" y="15">ucp-interlock</tspan>
                            </text>
                        </g>
                        <g id="label">
                            <g id="node-label">
                                <path d="M0,2.00295631 C0,0.896754086 0.897702336,0 1.99174577,0 L71,0 L71,10.6452381 C71,16.5244408 66.2312425,21.2904762 60.3513837,21.2904762 L0,21.2904762 L0,2.00295631 Z" id="Rectangle-127" fill="#445D6E"></path>
                                <text id="manager-node" font-family="OpenSans, Open Sans" font-size="8" font-weight="normal" fill="#FFFFFF">
                                    <tspan x="6" y="14">manager node</tspan>
                                </text>
                            </g>
                        </g>
                        <rect id="node-border" stroke="#445D6E" stroke-width="2" x="0" y="0" width="108" height="135" rx="2"></rect>
                    </g>
                </g>
            </g>
            <g id="load-balancer" transform="translate(492.000000, 55.000000)">
                <g id="L7">
                    <rect id="Rectangle-138" fill="#445D6E" x="0" y="0" width="224" height="22" rx="2"></rect>
                    <text id="your-load-balancer" font-family="OpenSans, Open Sans" font-size="10" font-weight="normal" fill="#FFFFFF">
                        <tspan x="68.4379883" y="15">your load balancer</tspan>
                    </text>
                </g>
                <g id="arrow" transform="translate(170.000000, 33.000000) scale(1, -1) rotate(-90.000000) translate(-170.000000, -33.000000) translate(158.000000, 29.000000)">
                    <path d="M2,4 L24,4" id="Line" stroke="#445D6E" stroke-width="2" stroke-linecap="round" stroke-linejoin="round"></path>
                    <g id="Oval">
                        <use fill="#445D6E" fill-rule="evenodd" xlink:href="#path-1"></use>
                        <circle stroke="#F7F8F9" stroke-width="2" cx="4" cy="4" r="5"></circle>
                    </g>
                </g>
                <g id="arrow" transform="translate(56.000000, 33.000000) scale(1, -1) rotate(-90.000000) translate(-56.000000, -33.000000) translate(44.000000, 29.000000)">
                    <path d="M2,4 L24,4" id="Line" stroke="#445D6E" stroke-width="2" stroke-linecap="round" stroke-linejoin="round"></path>
                    <g id="Oval">
                        <use fill="#445D6E" fill-rule="evenodd" xlink:href="#path-2"></use>
                        <circle stroke="#F7F8F9" stroke-width="2" cx="4" cy="4" r="5"></circle>
                    </g>
                </g>
            </g>
            <path d="M0,89.0026084 C0,87.8965983 0.899745421,87 1.99463835,87 L721.005362,87 C722.10697,87 723,87.8872198 723,89.0026084 L723,288.997392 C723,290.103402 722.100255,291 721.005362,291 L1.99463835,291 C0.89303001,291 0,290.11278 0,288.997392 L0,89.0026084 Z" id="group" stroke="#E0E4E7" stroke-width="2" stroke-dasharray="5,5,5,5"></path>
            <g id="user" transform="translate(532.000000, 0.000000)" fill="#82949E">
                <text id="http://wordpress.exa" font-family="OpenSans-Semibold, Open Sans" font-size="10" font-weight="500">
                    <tspan x="0.129394531" y="42">http://wordpress.example.org</tspan>
                </text>
                <path d="M73,13 C76.59125,13 79.5,10.083125 79.5,6.5 C79.5,2.90875 76.59125,0 73,0 C69.40875,0 66.5,2.90875 66.5,6.5 C66.5,10.083125 69.40875,13 73,13 L73,13 Z M73,16.25 C68.669375,16.25 60,18.419375 60,22.75 L60,26 L86,26 L86,22.75 C86,18.419375 77.330625,16.25 73,16.25 L73,16.25 Z" id="Shape"></path>
            </g>
        </g>
    </g>
</svg>