<?xml version="1.0" encoding="UTF-8"?>
<svg width="740px" height="321px" viewBox="0 0 740 321" version="1.1" xmlns="http://www.w3.org/2000/svg" xmlns:xlink="http://www.w3.org/1999/xlink" style="background: #FFFFFF;">
    <!-- Generator: Sketch 49 (51002) - http://www.bohemiancoding.com/sketch -->
    <title>interlock-architecture-1</title>
    <desc>Created with Sketch.</desc>
    <defs>
        <circle id="path-1" cx="4" cy="4" r="4"></circle>
        <circle id="path-2" cx="4" cy="4" r="4"></circle>
        <circle id="path-3" cx="4" cy="4" r="4"></circle>
        <circle id="path-4" cx="4" cy="4" r="4"></circle>
        <circle id="path-5" cx="4" cy="4" r="4"></circle>
        <circle id="path-6" cx="4" cy="5" r="4"></circle>
        <circle id="path-7" cx="4" cy="5" r="4"></circle>
    </defs>
    <g id="interlock-architecture-1" stroke="none" stroke-width="1" fill="none" fill-rule="evenodd">
        <g id="all" transform="translate(6.000000, 5.000000)">
            <text id="Docker-swarm-managed" font-family="OpenSans-Semibold, Open Sans" font-size="10" font-weight="500" fill="#E0E4E7">
                <tspan x="8" y="297">Docker swarm managed with UCP</tspan>
            </text>
            <g id="nodes" transform="translate(133.000000, 100.000000)">
                <g id="workers" transform="translate(122.000000, 0.000000)">
                    <g id="node-4" transform="translate(248.000000, 0.000000)">
                        <g id="ucp" transform="translate(1.000000, 112.000000)">
                            <rect id="Rectangle-138" fill="#439FD1" x="0" y="0" width="106" height="22" rx="2"></rect>
                            <text id="UCP" font-family="OpenSans, Open Sans" font-size="10" font-weight="normal" fill="#FFFFFF">
                                <tspan x="43.6953125" y="15">UCP </tspan>
                            </text>
                        </g>
                        <g id="wordpress-copy" transform="translate(1.000000, 89.000000)">
                            <rect id="Rectangle-138" fill="#00B6B5" x="0" y="0" width="106" height="22" rx="2"></rect>
                            <text id="interlock-proxy:80" font-family="OpenSans, Open Sans" font-size="10" font-weight="normal" fill="#FFFFFF">
                                <tspan x="11.3442383" y="15">interlock-proxy:80</tspan>
                            </text>
                        </g>
                        <g id="label">
                            <g id="node-label">
                                <path d="M0,2.00295631 C0,0.896754086 0.897702336,0 1.99174577,0 L71,0 L71,10.6452381 C71,16.5244408 66.2312425,21.2904762 60.3513837,21.2904762 L0,21.2904762 L0,2.00295631 Z" id="Rectangle-127" fill="#445D6E"></path>
                                <text id="worker-node" font-family="OpenSans, Open Sans" font-size="8" font-weight="normal" fill="#FFFFFF">
                                    <tspan x="6" y="14">worker node</tspan>
                                </text>
                            </g>
                        </g>
                        <rect id="node-border" stroke="#445D6E" stroke-width="2" x="0" y="0" width="108" height="135" rx="2"></rect>
                    </g>
                    <g id="node-3" transform="translate(124.000000, 0.000000)">
                        <g id="ucp" transform="translate(1.000000, 112.000000)">
                            <rect id="Rectangle-138" fill="#439FD1" x="0" y="0" width="106" height="22" rx="2"></rect>
                            <text id="UCP" font-family="OpenSans, Open Sans" font-size="10" font-weight="normal" fill="#FFFFFF">
                                <tspan x="43.6953125" y="15">UCP </tspan>
                            </text>
                        </g>
                        <g id="wordpress-copy" transform="translate(1.000000, 89.000000)">
                            <rect id="Rectangle-138" fill="#00B6B5" x="0" y="0" width="106" height="22" rx="2"></rect>
                            <text id="interlock-proxy:80" font-family="OpenSans, Open Sans" font-size="10" font-weight="normal" fill="#FFFFFF">
                                <tspan x="11.3442383" y="15">interlock-proxy:80</tspan>
                            </text>
                        </g>
                        <g id="label">
                            <g id="node-label">
                                <path d="M0,2.00295631 C0,0.896754086 0.897702336,0 1.99174577,0 L71,0 L71,10.6452381 C71,16.5244408 66.2312425,21.2904762 60.3513837,21.2904762 L0,21.2904762 L0,2.00295631 Z" id="Rectangle-127" fill="#445D6E"></path>
                                <text id="worker-node" font-family="OpenSans, Open Sans" font-size="8" font-weight="normal" fill="#FFFFFF">
                                    <tspan x="6" y="14">worker node</tspan>
                                </text>
                            </g>
                        </g>
                        <rect id="node-border" stroke="#445D6E" stroke-width="2" x="0" y="0" width="108" height="135" rx="2"></rect>
                    </g>
                    <g id="node-2">
                        <g id="ucp" transform="translate(1.000000, 112.000000)">
                            <rect id="Rectangle-138" fill="#439FD1" x="0" y="0" width="106" height="22" rx="2"></rect>
                            <text id="UCP" font-family="OpenSans, Open Sans" font-size="10" font-weight="normal" fill="#FFFFFF">
                                <tspan x="43.6953125" y="15">UCP </tspan>
                            </text>
                        </g>
                        <g id="extension" transform="translate(1.000000, 89.000000)">
                            <rect id="Rectangle-138" fill="#00B6B5" x="0" y="0" width="106" height="22" rx="2"></rect>
                            <text id="interlock-extension" font-family="OpenSans, Open Sans" font-size="10" font-weight="normal" fill="#FFFFFF">
                                <tspan x="8.35400391" y="15">interlock-extension</tspan>
                            </text>
                        </g>
                        <g id="wordpress-copy-2" transform="translate(1.000000, 66.000000)">
                            <rect id="Rectangle-138" fill="#FFB463" x="0" y="0" width="106" height="22" rx="2"></rect>
                            <text id="wordpress:8000" font-family="OpenSans, Open Sans" font-size="10" font-weight="normal" fill="#FFFFFF">
                                <tspan x="16.0390625" y="15">wordpress:8000</tspan>
                            </text>
                        </g>
                        <g id="label">
                            <g id="node-label">
                                <path d="M0,2.00295631 C0,0.896754086 0.897702336,0 1.99174577,0 L71,0 L71,10.6452381 C71,16.5244408 66.2312425,21.2904762 60.3513837,21.2904762 L0,21.2904762 L0,2.00295631 Z" id="Rectangle-127" fill="#445D6E"></path>
                                <text id="worker-node" font-family="OpenSans, Open Sans" font-size="8" font-weight="normal" fill="#FFFFFF">
                                    <tspan x="6" y="14">worker node</tspan>
                                </text>
                            </g>
                        </g>
                        <rect id="node-border" stroke="#445D6E" stroke-width="2" x="0" y="0" width="108" height="135" rx="2"></rect>
                    </g>
                </g>
                <g id="managers">
                    <g id="node">
                        <g id="ucp" transform="translate(1.000000, 112.000000)">
                            <rect id="Rectangle-138" fill="#439FD1" x="0" y="0" width="106" height="22" rx="2"></rect>
                            <text id="UCP" font-family="OpenSans, Open Sans" font-size="10" font-weight="normal" fill="#FFFFFF">
                                <tspan x="43.6953125" y="15">UCP </tspan>
                            </text>
                        </g>
                        <g id="interlock" transform="translate(1.000000, 89.000000)">
                            <rect id="Rectangle-138" fill="#00B6B5" x="0" y="0" width="106" height="22" rx="2"></rect>
                            <text id="ucp-interlock" font-family="OpenSans, Open Sans" font-size="10" font-weight="normal" fill="#FFFFFF">
                                <tspan x="22.6435547" y="15">ucp-interlock</tspan>
                            </text>
                        </g>
                        <g id="label">
                            <g id="node-label">
                                <path d="M0,2.00295631 C0,0.896754086 0.897702336,0 1.99174577,0 L71,0 L71,10.6452381 C71,16.5244408 66.2312425,21.2904762 60.3513837,21.2904762 L0,21.2904762 L0,2.00295631 Z" id="Rectangle-127" fill="#445D6E"></path>
                                <text id="manager-node" font-family="OpenSans, Open Sans" font-size="8" font-weight="normal" fill="#FFFFFF">
                                    <tspan x="6" y="14">manager node</tspan>
                                </text>
                            </g>
                        </g>
                        <rect id="node-border" stroke="#445D6E" stroke-width="2" x="0" y="0" width="108" height="135" rx="2"></rect>
                    </g>
                </g>
            </g>
            <g id="load-balancer" transform="translate(378.000000, 55.000000)">
                <g id="L7">
                    <rect id="Rectangle-138" fill="#445D6E" x="0" y="0" width="234" height="22" rx="2"></rect>
                    <text id="your-load-balancer" font-family="OpenSans, Open Sans" font-size="10" font-weight="normal" fill="#FFFFFF">
                        <tspan x="73.4379883" y="15">your load balancer</tspan>
                    </text>
                </g>
                <g id="arrow" transform="translate(175.000000, 33.000000) scale(1, -1) rotate(-90.000000) translate(-175.000000, -33.000000) translate(163.000000, 29.000000)">
                    <path d="M2,4 L24,4" id="Line" stroke="#445D6E" stroke-width="2" stroke-linecap="round" stroke-linejoin="round"></path>
                    <g id="Oval">
                        <use fill="#445D6E" fill-rule="evenodd" xlink:href="#path-1"></use>
                        <circle stroke="#F7F8F9" stroke-width="2" cx="4" cy="4" r="5"></circle>
                    </g>
                </g>
                <g id="arrow" transform="translate(57.000000, 33.000000) scale(1, -1) rotate(-90.000000) translate(-57.000000, -33.000000) translate(45.000000, 29.000000)">
                    <path d="M2,4 L24,4" id="Line" stroke="#445D6E" stroke-width="2" stroke-linecap="round" stroke-linejoin="round"></path>
                    <g id="Oval">
                        <use fill="#445D6E" fill-rule="evenodd" xlink:href="#path-2"></use>
                        <circle stroke="#F7F8F9" stroke-width="2" cx="4" cy="4" r="5"></circle>
                    </g>
                </g>
            </g>
            <path d="M0,92.9911272 C0,91.891458 0.895288359,91 1.99262649,91 L726.007374,91 C727.107871,91 728,91.8889081 728,92.9911272 L728,304.008873 C728,305.108542 727.104712,306 726.007374,306 L1.99262649,306 C0.892129269,306 0,305.111092 0,304.008873 L0,92.9911272 Z" id="group" stroke="#E0E4E7" stroke-width="2" stroke-dasharray="5,5,5,5"></path>
            <g id="user" transform="translate(420.000000, 0.000000)" fill="#82949E">
                <text id="http://wordpress.exa" font-family="OpenSans-Semibold, Open Sans" font-size="10" font-weight="500">
                    <tspan x="0.129394531" y="42">http://wordpress.example.org</tspan>
                </text>
                <path d="M73,13 C76.59125,13 79.5,10.083125 79.5,6.5 C79.5,2.90875 76.59125,0 73,0 C69.40875,0 66.5,2.90875 66.5,6.5 C66.5,10.083125 69.40875,13 73,13 L73,13 Z M73,16.25 C68.669375,16.25 60,18.419375 60,22.75 L60,26 L86,26 L86,22.75 C86,18.419375 77.330625,16.25 73,16.25 L73,16.25 Z" id="Shape"></path>
            </g>
            <g id="networks" transform="translate(6.000000, 174.000000)">
                <g id="wordpress-net" transform="translate(351.000000, 0.000000)">
                    <text font-family="OpenSans-Semibold, Open Sans" font-size="10" font-weight="500" fill="#E0E4E7">
                        <tspan x="293.941406" y="75">wordpress-net</tspan>
                    </text>
                    <path d="M286.078683,72.7028593 L10.6033191,72.7028593" id="common" stroke="#E0E4E7" stroke-width="2" stroke-linecap="round" stroke-linejoin="round"></path>
                    <g id="arrow-3" transform="translate(253.500000, 47.000000) scale(1, -1) rotate(-90.000000) translate(-253.500000, -47.000000) translate(228.500000, 41.500000)">
                        <g id="Oval">
                            <use fill="#00B6B5" fill-rule="evenodd" xlink:href="#path-3"></use>
                            <circle stroke="#F7F8F9" stroke-width="2" cx="4" cy="4" r="5"></circle>
                        </g>
                        <polyline id="Path-2" stroke="#E0E4E7" stroke-width="2" stroke-linecap="round" stroke-linejoin="round" points="49.7028656 10.4773245 4.08975869 10.4773245 4.08975869 4.67693802"></polyline>
                    </g>
                    <g id="arrow-2" transform="translate(129.500000, 47.000000) scale(1, -1) rotate(-90.000000) translate(-129.500000, -47.000000) translate(104.500000, 41.500000)">
                        <g id="Oval">
                            <use fill="#00B6B5" fill-rule="evenodd" xlink:href="#path-4"></use>
                            <circle stroke="#F7F8F9" stroke-width="2" cx="4" cy="4" r="5"></circle>
                        </g>
                        <polyline id="Path-2" stroke="#E0E4E7" stroke-width="2" stroke-linecap="round" stroke-linejoin="round" points="49.7028656 10.4773245 4.08975869 10.4773245 4.08975869 4.67693802"></polyline>
                    </g>
                    <g id="arrow-1" transform="translate(5.500000, 36.000000) scale(1, -1) rotate(-90.000000) translate(-5.500000, -36.000000) translate(-30.500000, 30.500000)">
                        <g id="Oval">
                            <use fill="#FFB463" fill-rule="evenodd" xlink:href="#path-5"></use>
                            <circle stroke="#F7F8F9" stroke-width="2" cx="4" cy="4" r="5"></circle>
                        </g>
                        <polyline id="Path-2" stroke="#E0E4E7" stroke-width="2" stroke-linecap="round" stroke-linejoin="round" points="71.7028656 10.4773245 4.08975869 10.4773245 4.08975869 4.67693802"></polyline>
                    </g>
                </g>
                <g id="ucp-interlock" transform="translate(0.000000, 22.000000)">
                    <text font-family="OpenSans-Semibold, Open Sans" font-size="10" font-weight="500" fill="#E0E4E7">
                        <tspan x="0.273925781" y="53">ucp-interlock</tspan>
                    </text>
                    <path d="M244.353587,50.7028593 L70.3892056,50.7028593" id="common" stroke="#E0E4E7" stroke-width="2" stroke-linecap="round" stroke-linejoin="round"></path>
                    <g id="arrow-2" transform="translate(248.500000, 25.000000) scale(1, -1) rotate(-90.000000) translate(-248.500000, -25.000000) translate(223.500000, 20.500000)">
                        <g id="Oval">
                            <use fill="#00B6B5" fill-rule="evenodd" xlink:href="#path-6"></use>
                            <circle stroke="#F7F8F9" stroke-width="2" cx="4" cy="5" r="5"></circle>
                        </g>
                        <polyline id="Path-2" stroke="#E0E4E7" stroke-width="2" stroke-linecap="round" stroke-linejoin="round" points="49.7028656 0.0354891765 4.08975869 0.0354891765 4.08975869 5.67693802"></polyline>
                    </g>
                    <g id="arrow-1" transform="translate(126.500000, 25.000000) scale(1, -1) rotate(-90.000000) translate(-126.500000, -25.000000) translate(101.500000, 20.500000)">
                        <g id="Oval">
                            <use fill="#00B6B5" fill-rule="evenodd" xlink:href="#path-7"></use>
                            <circle stroke="#F7F8F9" stroke-width="2" cx="4" cy="5" r="5"></circle>
                        </g>
                        <polyline id="Path-2" stroke="#E0E4E7" stroke-width="2" stroke-linecap="round" stroke-linejoin="round" points="49.7028656 0.0354891765 4.08975869 0.0354891765 4.08975869 5.67693802"></polyline>
                    </g>
                </g>
            </g>
        </g>
    </g>
</svg>