<?xml version="1.0" encoding="UTF-8"?>
<svg width="740px" height="270px" viewBox="0 0 740 270" version="1.1" xmlns="http://www.w3.org/2000/svg" xmlns:xlink="http://www.w3.org/1999/xlink" style="background: #FFFFFF;">
    <!-- Generator: Sketch 49 (51002) - http://www.bohemiancoding.com/sketch -->
    <title>interlock-overview-1</title>
    <desc>Created with Sketch.</desc>
    <defs>
        <circle id="path-1" cx="4" cy="4" r="4"></circle>
        <circle id="path-2" cx="4" cy="4" r="4"></circle>
        <circle id="path-3" cx="4" cy="4" r="4"></circle>
        <circle id="path-4" cx="4" cy="4" r="4"></circle>
        <circle id="path-5" cx="4" cy="4" r="4"></circle>
    </defs>
    <g id="interlock-overview-1" stroke="none" stroke-width="1" fill="none" fill-rule="evenodd">
        <text id="Docker-swarm-managed" font-family="OpenSans-Semibold, Open Sans" font-size="10" font-weight="500" fill="#E0E4E7">
            <tspan x="91" y="258">Docker swarm managed with UCP</tspan>
        </text>
        <g id="nodes" transform="translate(108.000000, 117.000000)">
            <g id="workers" transform="translate(321.000000, 0.000000)">
                <g id="node-1" transform="translate(107.000000, 0.000000)">
                    <text id="node-5" font-family="OpenSans-Semibold, Open Sans" font-size="10" font-weight="500" fill="#82949E">
                        <tspan x="32.3129883" y="116">node-5</tspan>
                    </text>
                    <g id="node">
                        <g id="node-label">
                            <path d="M0,2.00295631 C0,0.896754086 0.897702336,0 1.99174577,0 L71,0 L71,10.6452381 C71,16.5244408 66.2312425,21.2904762 60.3513837,21.2904762 L0,21.2904762 L0,2.00295631 Z" id="Rectangle-127" fill="#445D6E"></path>
                            <text id="worker-node" font-family="OpenSans, Open Sans" font-size="8" font-weight="normal" fill="#FFFFFF">
                                <tspan x="6" y="14">worker node</tspan>
                            </text>
                        </g>
                    </g>
                    <g id="app" transform="translate(1.000000, 79.000000)">
                        <rect id="Rectangle-138" fill="#439FD1" x="0" y="0" width="95" height="22" rx="2"></rect>
                        <text id="UCP" font-family="OpenSans, Open Sans" font-size="10" font-weight="normal" fill="#FFFFFF">
                            <tspan x="38.1953125" y="15">UCP </tspan>
                        </text>
                    </g>
                    <g id="app-copy" transform="translate(1.000000, 56.000000)">
                        <rect id="Rectangle-138" fill="#FFB463" x="0" y="0" width="95" height="22" rx="2"></rect>
                        <text id="wordpress:8000" font-family="OpenSans, Open Sans" font-size="10" font-weight="normal" fill="#FFFFFF">
                            <tspan x="10.5390625" y="15">wordpress:8000</tspan>
                        </text>
                    </g>
                    <rect id="node-border" stroke="#445D6E" stroke-width="2" x="0" y="0" width="97" height="102" rx="2"></rect>
                </g>
                <g id="node-1-copy">
                    <text id="node-4" font-family="OpenSans-Semibold, Open Sans" font-size="10" font-weight="500" fill="#82949E">
                        <tspan x="32.3129883" y="116">node-4</tspan>
                    </text>
                    <g id="node">
                        <g id="node-label">
                            <path d="M0,2.00295631 C0,0.896754086 0.897702336,0 1.99174577,0 L71,0 L71,10.6452381 C71,16.5244408 66.2312425,21.2904762 60.3513837,21.2904762 L0,21.2904762 L0,2.00295631 Z" id="Rectangle-127" fill="#E0E4E7"></path>
                            <text id="worker-node" font-family="OpenSans, Open Sans" font-size="8" font-weight="normal" fill="#FFFFFF">
                                <tspan x="6" y="14">worker node</tspan>
                            </text>
                        </g>
                    </g>
                    <g id="app" transform="translate(1.000000, 79.000000)">
                        <rect id="Rectangle-138" fill="#A1CFE8" x="0" y="0" width="95" height="22" rx="2"></rect>
                        <text id="UCP" font-family="OpenSans, Open Sans" font-size="10" font-weight="normal" fill="#FFFFFF">
                            <tspan x="38.1953125" y="15">UCP</tspan>
                        </text>
                    </g>
                    <rect id="node-border" stroke="#E0E4E7" stroke-width="2" x="0" y="0" width="97" height="102" rx="2"></rect>
                </g>
            </g>
            <g id="managers">
                <g id="node-1" transform="translate(214.000000, 0.000000)">
                    <text id="node-3" font-family="OpenSans-Semibold, Open Sans" font-size="10" font-weight="500" fill="#82949E">
                        <tspan x="32.3129883" y="116">node-3</tspan>
                    </text>
                    <g id="node">
                        <g id="node-label">
                            <path d="M0,2.00295631 C0,0.896754086 0.897702336,0 1.99174577,0 L71,0 L71,10.6452381 C71,16.5244408 66.2312425,21.2904762 60.3513837,21.2904762 L0,21.2904762 L0,2.00295631 Z" id="Rectangle-127" fill="#E0E4E7"></path>
                            <text id="manager-node" font-family="OpenSans, Open Sans" font-size="8" font-weight="normal" fill="#FFFFFF">
                                <tspan x="6" y="14">manager node</tspan>
                            </text>
                        </g>
                    </g>
                    <g id="app" transform="translate(1.000000, 79.000000)">
                        <rect id="Rectangle-138" fill="#A1CFE8" x="0" y="0" width="95" height="22" rx="2"></rect>
                        <text id="UCP" font-family="OpenSans, Open Sans" font-size="10" font-weight="normal" fill="#FFFFFF">
                            <tspan x="38.1953125" y="15">UCP</tspan>
                        </text>
                    </g>
                    <rect id="node-border" stroke="#E0E4E7" stroke-width="2" x="0" y="0" width="97" height="102" rx="2"></rect>
                </g>
                <g id="node-1-copy-3" transform="translate(107.000000, 0.000000)">
                    <text id="node-2" font-family="OpenSans-Semibold, Open Sans" font-size="10" font-weight="500" fill="#82949E">
                        <tspan x="32.3129883" y="116">node-2</tspan>
                    </text>
                    <g id="node">
                        <g id="node-label">
                            <path d="M0,2.00295631 C0,0.896754086 0.897702336,0 1.99174577,0 L71,0 L71,10.6452381 C71,16.5244408 66.2312425,21.2904762 60.3513837,21.2904762 L0,21.2904762 L0,2.00295631 Z" id="Rectangle-127" fill="#E0E4E7"></path>
                            <text id="manager-node" font-family="OpenSans, Open Sans" font-size="8" font-weight="normal" fill="#FFFFFF">
                                <tspan x="6" y="14">manager node</tspan>
                            </text>
                        </g>
                    </g>
                    <g id="app" transform="translate(1.000000, 79.000000)">
                        <rect id="Rectangle-138" fill="#A1CFE8" x="0" y="0" width="95" height="22" rx="2"></rect>
                        <text id="UCP" font-family="OpenSans, Open Sans" font-size="10" font-weight="normal" fill="#FFFFFF">
                            <tspan x="38.1953125" y="15">UCP</tspan>
                        </text>
                    </g>
                    <rect id="node-border" stroke="#E0E4E7" stroke-width="2" x="0" y="0" width="97" height="102" rx="2"></rect>
                </g>
                <g id="node-1-copy-2">
                    <text id="node-1" font-family="OpenSans-Semibold, Open Sans" font-size="10" font-weight="500" fill="#82949E">
                        <tspan x="32.3129883" y="116">node-1</tspan>
                    </text>
                    <g id="node">
                        <g id="node-label">
                            <path d="M0,2.00295631 C0,0.896754086 0.897702336,0 1.99174577,0 L71,0 L71,10.6452381 C71,16.5244408 66.2312425,21.2904762 60.3513837,21.2904762 L0,21.2904762 L0,2.00295631 Z" id="Rectangle-127" fill="#E0E4E7"></path>
                            <text id="manager-node" font-family="OpenSans, Open Sans" font-size="8" font-weight="normal" fill="#FFFFFF">
                                <tspan x="6" y="14">manager node</tspan>
                            </text>
                        </g>
                    </g>
                    <g id="app" transform="translate(1.000000, 79.000000)">
                        <rect id="Rectangle-138" fill="#A1CFE8" x="0" y="0" width="95" height="22" rx="2"></rect>
                        <text id="UCP" font-family="OpenSans, Open Sans" font-size="10" font-weight="normal" fill="#FFFFFF">
                            <tspan x="38.1953125" y="15">UCP</tspan>
                        </text>
                    </g>
                    <rect id="node-border" stroke="#E0E4E7" stroke-width="2" x="0" y="0" width="97" height="102" rx="2"></rect>
                </g>
            </g>
        </g>
        <g id="load-balancer" transform="translate(107.000000, 72.000000)">
            <g id="lb">
                <rect id="Rectangle-138" fill="#445D6E" x="0" y="0" width="527" height="22" rx="2"></rect>
                <text id="swarm-routing-mesh" font-family="OpenSans, Open Sans" font-size="10" font-weight="normal" fill="#FFFFFF">
                    <tspan x="214.819415" y="15">swarm routing mesh</tspan>
                </text>
            </g>
            <g id="arrow-copy-2" transform="translate(477.500000, 32.500000) scale(1, -1) rotate(-90.000000) translate(-477.500000, -32.500000) translate(465.500000, 28.500000)">
                <path d="M2,4 L24,4" id="Line" stroke="#445D6E" stroke-width="2" stroke-linecap="round" stroke-linejoin="round"></path>
                <g id="Oval">
                    <use fill="#445D6E" fill-rule="evenodd" xlink:href="#path-1"></use>
                    <circle stroke="#F7F8F9" stroke-width="2" cx="4" cy="4" r="5"></circle>
                </g>
            </g>
            <g id="arrow-copy-3" transform="translate(370.500000, 32.500000) scale(1, -1) rotate(-90.000000) translate(-370.500000, -32.500000) translate(358.500000, 28.500000)">
                <path d="M2,4 L24,4" id="Line" stroke="#E0E4E7" stroke-width="2" stroke-linecap="round" stroke-linejoin="round"></path>
                <g id="Oval">
                    <use fill="#E0E4E7" fill-rule="evenodd" xlink:href="#path-2"></use>
                    <circle stroke="#F7F8F9" stroke-width="2" cx="4" cy="4" r="5"></circle>
                </g>
            </g>
            <g id="arrow-copy-4" transform="translate(263.500000, 32.500000) scale(1, -1) rotate(-90.000000) translate(-263.500000, -32.500000) translate(251.500000, 28.500000)">
                <path d="M2,4 L24,4" id="Line" stroke="#E0E4E7" stroke-width="2" stroke-linecap="round" stroke-linejoin="round"></path>
                <g id="Oval">
                    <use fill="#E0E4E7" fill-rule="evenodd" xlink:href="#path-3"></use>
                    <circle stroke="#F7F8F9" stroke-width="2" cx="4" cy="4" r="5"></circle>
                </g>
            </g>
            <g id="arrow-copy-5" transform="translate(156.500000, 32.500000) scale(1, -1) rotate(-90.000000) translate(-156.500000, -32.500000) translate(144.500000, 28.500000)">
                <path d="M2,4 L24,4" id="Line" stroke="#E0E4E7" stroke-width="2" stroke-linecap="round" stroke-linejoin="round"></path>
                <g id="Oval">
                    <use fill="#E0E4E7" fill-rule="evenodd" xlink:href="#path-4"></use>
                    <circle stroke="#F7F8F9" stroke-width="2" cx="4" cy="4" r="5"></circle>
                </g>
            </g>
            <g id="arrow-copy-6" transform="translate(49.500000, 32.500000) scale(1, -1) rotate(-90.000000) translate(-49.500000, -32.500000) translate(37.500000, 28.500000)">
                <path d="M2,4 L24,4" id="Line" stroke="#E0E4E7" stroke-width="2" stroke-linecap="round" stroke-linejoin="round"></path>
                <g id="Oval">
                    <use fill="#E0E4E7" fill-rule="evenodd" xlink:href="#path-5"></use>
                    <circle stroke="#F7F8F9" stroke-width="2" cx="4" cy="4" r="5"></circle>
                </g>
            </g>
        </g>
        <path d="M86,64.0091623 C86,62.8995326 86.9024627,62 88.0006502,62 L651.99935,62 C653.104278,62 654,62.9050608 654,64.0091623 L654,262.990838 C654,264.100467 653.097537,265 651.99935,265 L88.0006502,265 C86.8957216,265 86,264.094939 86,262.990838 L86,64.0091623 Z" id="group" stroke="#E0E4E7" stroke-width="2" stroke-dasharray="5,5,5,5"></path>
        <g id="user" transform="translate(324.000000, 7.000000)" fill="#82949E">
            <text id="http://node-5:8000" font-family="OpenSans-Semibold, Open Sans" font-size="10" font-weight="500">
                <tspan x="0.526855469" y="42">http://node-5:8000</tspan>
            </text>
            <path d="M46,13 C49.59125,13 52.5,10.083125 52.5,6.5 C52.5,2.90875 49.59125,0 46,0 C42.40875,0 39.5,2.90875 39.5,6.5 C39.5,10.083125 42.40875,13 46,13 L46,13 Z M46,16.25 C41.669375,16.25 33,18.419375 33,22.75 L33,26 L59,26 L59,22.75 C59,18.419375 50.330625,16.25 46,16.25 L46,16.25 Z" id="Shape"></path>
        </g>
    </g>
</svg>