<svg width="800" height="546" viewBox="0 0 800 546" xmlns="http://www.w3.org/2000/svg"><title>roles_permission</title><g fill="none" fill-rule="evenodd"><path fill="#FBFBFC" d="M1 0h800v546H1z"/><path d="M378.1 60.06h.977c.957 0 1.664-.16 2.12-.478.455-.32.683-.82.683-1.504 0-.677-.233-1.16-.698-1.445-.466-.287-1.187-.43-2.163-.43h-.92v3.858zm0 2.46V68h-3.027V53.723h4.16c1.94 0 3.376.353 4.307 1.06.93.706 1.397 1.778 1.397 3.217 0 .84-.232 1.587-.694 2.24-.462.656-1.116 1.168-1.963 1.54 2.15 3.21 3.548 5.282 4.2 6.22h-3.36l-3.408-5.48h-1.61zm12.315 0c0 1.082.177 1.9.532 2.453.355.553.933.83 1.734.83.795 0 1.366-.275 1.715-.825.348-.55.522-1.37.522-2.457 0-1.08-.176-1.89-.527-2.43-.352-.54-.928-.81-1.73-.81-.793 0-1.366.268-1.718.805-.35.537-.527 1.35-.527 2.436zm7.55 0c0 1.78-.47 3.17-1.407 4.17-.938 1.004-2.243 1.505-3.916 1.505-1.05 0-1.973-.23-2.774-.688a4.58 4.58 0 0 1-1.846-1.978c-.43-.86-.644-1.863-.644-3.01 0-1.782.465-3.17 1.396-4.16.93-.988 2.24-1.483 3.926-1.483 1.048 0 1.973.228 2.774.684.8.456 1.416 1.11 1.845 1.963.43.853.644 1.853.644 2.998zm5.438 5.48h-2.978V52.805h2.978V68zm7.647-9.004c-.632 0-1.126.2-1.485.6-.358.4-.563.97-.615 1.705h4.18c-.013-.735-.205-1.303-.576-1.703-.37-.4-.873-.6-1.504-.6zm.42 9.2c-1.758 0-3.132-.486-4.12-1.456-.99-.97-1.486-2.344-1.486-4.12 0-1.83.458-3.245 1.372-4.244.915-1 2.18-1.5 3.794-1.5 1.543 0 2.744.44 3.604 1.32.86.878 1.29 2.092 1.29 3.642v1.445h-7.042c.032.847.283 1.507.752 1.983.47.475 1.126.713 1.972.713a8.19 8.19 0 0 0 1.866-.207 9.333 9.333 0 0 0 1.836-.654v2.304c-.52.26-1.078.454-1.67.58-.593.128-1.315.19-2.168.19zm14.492-3.438c0 1.12-.39 1.972-1.167 2.558-.778.586-1.942.88-3.49.88-.796 0-1.473-.054-2.033-.162a7.683 7.683 0 0 1-1.572-.473V65.1c.554.26 1.177.478 1.87.654.694.176 1.304.264 1.83.264 1.082 0 1.622-.313 1.622-.938a.782.782 0 0 0-.214-.57c-.144-.148-.39-.314-.743-.5-.35-.185-.82-.4-1.406-.65-.84-.35-1.458-.676-1.85-.975-.395-.3-.682-.643-.86-1.03-.18-.388-.27-.865-.27-1.43 0-.97.377-1.722 1.13-2.252.75-.53 1.817-.796 3.197-.796 1.315 0 2.594.286 3.838.86l-.9 2.148a16.527 16.527 0 0 0-1.532-.576 4.815 4.815 0 0 0-1.455-.226c-.88 0-1.318.238-1.318.713 0 .267.14.498.424.693.284.196.904.485 1.86.87.854.344 1.48.667 1.876.966.397.3.69.645.88 1.035.188.392.282.857.282 1.398z" fill="#066DA5"/><path fill-opacity=".05" fill="#066DA5" d="M20 101h760v425H20z"/><path d="M22 103v421h756V103H22zm-2-2h760v425H20V101z" fill-opacity=".1" fill="#066DA5" fill-rule="nonzero"/><path fill-opacity=".05" fill="#066DA5" d="M50 173h496v333H50z"/><path d="M52 175v329h492V175H52zm-2-2h496v333H50V173z" fill-opacity=".1" fill="#066DA5" fill-rule="nonzero"/><path fill="#066DA5" opacity=".05" d="M80 240h320v246H80z"/><path d="M82 242v242h316V242H82zm-2-2h320v246H80V240z" fill="#066DA5" fill-rule="nonzero" opacity=".1"/><path fill="#066DA5" d="M110 307h157v159H110zM558.023 190.156c0-.72.172-1.265.516-1.64.343-.375.832-.563 1.468-.563.63 0 1.118.19 1.465.567.346.377.52.923.52 1.636 0 .703-.175 1.248-.524 1.633-.35.384-.837.577-1.462.577s-1.112-.19-1.46-.566c-.35-.377-.525-.925-.525-1.644zM589.97 196h-6.462v-11.422h6.46v1.578h-4.593v3.11h4.305v1.562h-4.305v3.586h4.594V196zm4.194-4.414l-2.898-4.227h2.093l1.968 3.023 1.985-3.024h2.078l-2.906 4.226L599.54 196h-2.08l-2.132-3.234-2.125 3.234h-2.078l3.04-4.414zm10.344 4.57c-1.344 0-2.395-.392-3.153-1.176-.757-.783-1.136-1.863-1.136-3.238 0-1.41.35-2.52 1.053-3.328.704-.807 1.67-1.21 2.9-1.21 1.14 0 2.04.345 2.702 1.038.66.693.992 1.646.992 2.86v.992h-5.758c.025.838.252 1.483.68 1.933.426.45 1.028.676 1.804.676.51 0 .985-.048 1.426-.144.44-.098.912-.258 1.418-.482v1.492c-.448.214-.902.365-1.36.453-.458.09-.982.133-1.57.133zm-.336-7.562c-.583 0-1.05.185-1.402.554-.352.37-.562.91-.63 1.618h3.923c-.01-.714-.183-1.254-.516-1.62-.333-.37-.792-.552-1.375-.552zm9.265 7.562c-1.307 0-2.3-.38-2.98-1.144-.68-.763-1.02-1.858-1.02-3.285 0-1.454.356-2.57 1.067-3.352.71-.78 1.738-1.172 3.082-1.172.91 0 1.732.17 2.46.508l-.554 1.477c-.776-.302-1.416-.453-1.922-.453-1.494 0-2.242.993-2.242 2.977 0 .97.186 1.698.56 2.185.37.487.917.73 1.635.73.818 0 1.592-.203 2.32-.61v1.602c-.327.193-.678.33-1.05.414a6.305 6.305 0 0 1-1.356.126zm-55.414 27c0-.72.172-1.265.516-1.64.343-.375.832-.563 1.468-.563.63 0 1.118.19 1.465.567.346.377.52.923.52 1.636 0 .703-.175 1.248-.524 1.633-.35.384-.837.577-1.462.577s-1.112-.19-1.46-.566c-.35-.377-.525-.925-.525-1.644zm35 5.844h-2.29l-5.616-9.102h-.062l.04.508c.072.97.108 1.854.108 2.656V229h-1.695v-11.422h2.265l5.602 9.055h.047c-.01-.12-.03-.556-.063-1.31-.032-.75-.048-1.34-.048-1.76v-5.985h1.71V229zm8.227 0l-.367-1.203h-.063c-.416.526-.836.884-1.258 1.074-.42.19-.963.286-1.625.286-.848 0-1.51-.23-1.988-.687-.477-.46-.716-1.108-.716-1.947 0-.89.33-1.562.993-2.015.66-.453 1.67-.7 3.023-.742l1.492-.047v-.462c0-.552-.13-.965-.387-1.238-.257-.274-.657-.41-1.2-.41-.44 0-.866.064-1.272.195a9.61 9.61 0 0 0-1.172.46l-.593-1.312a6.39 6.39 0 0 1 1.54-.558 7.083 7.083 0 0 1 1.577-.192c1.1 0 1.93.24 2.49.72.56.478.838 1.23.838 2.257V229h-1.312zm-2.734-1.25c.666 0 1.2-.186 1.605-.56.405-.37.607-.893.607-1.565v-.75l-1.11.047c-.864.03-1.493.176-1.887.433-.393.258-.59.653-.59 1.184 0 .384.115.683.344.894.23.21.573.316 1.032.316zm13.89 1.25h-1.843v-5.328c0-.662-.125-1.155-.375-1.48-.25-.326-.64-.49-1.172-.49-.71 0-1.228.232-1.56.693-.33.46-.495 1.227-.495 2.3V229h-1.835v-8.64h1.438l.257 1.132h.094c.24-.41.587-.73 1.043-.953a3.363 3.363 0 0 1 1.504-.337c1.33 0 2.21.453 2.642 1.36h.125c.255-.428.614-.76 1.078-1 .463-.24.994-.36 1.593-.36 1.032 0 1.783.26 2.254.78.472.522.707 1.316.707 2.384V229h-1.837v-5.328c0-.662-.126-1.155-.378-1.48-.253-.326-.645-.49-1.176-.49-.715 0-1.237.224-1.568.67-.33.444-.496 1.128-.496 2.05V229zm11.79.156c-1.344 0-2.395-.392-3.153-1.176-.758-.783-1.137-1.863-1.137-3.238 0-1.41.352-2.52 1.055-3.328.704-.807 1.67-1.21 2.9-1.21 1.14 0 2.04.345 2.702 1.038.662.693.993 1.646.993 2.86v.992h-5.758c.026.838.252 1.483.68 1.933.427.45 1.028.676 1.804.676.512 0 .987-.048 1.427-.144.44-.098.913-.258 1.418-.482v1.492c-.448.214-.9.365-1.36.453-.458.09-.98.133-1.57.133zm-.337-7.562c-.584 0-1.05.185-1.403.554-.352.37-.56.91-.63 1.618h3.923c-.01-.714-.182-1.254-.516-1.62-.333-.37-.79-.552-1.375-.552zm11.585 4.945c0 .843-.307 1.49-.922 1.94-.614.45-1.494.676-2.64.676-1.15 0-2.076-.174-2.774-.523v-1.586c1.015.47 1.96.703 2.835.703 1.13 0 1.696-.34 1.696-1.023a.81.81 0 0 0-.187-.547c-.125-.146-.33-.297-.617-.453a10.62 10.62 0 0 0-1.195-.532c-.994-.385-1.667-.77-2.02-1.156-.35-.386-.526-.886-.526-1.5 0-.74.298-1.315.894-1.724.597-.408 1.408-.613 2.434-.613 1.016 0 1.976.206 2.883.617l-.594 1.383c-.93-.385-1.715-.578-2.35-.578-.97 0-1.454.276-1.454.828 0 .27.127.5.38.688.252.188.803.446 1.652.774.713.276 1.23.53 1.554.758.323.23.563.493.72.793.155.3.233.657.233 1.074zm6.367 2.616c-1.093 0-1.942-.393-2.546-1.18h-.11c.073.73.11 1.172.11 1.33v3.538h-1.836V220.36h1.484c.042.16.128.546.258 1.156h.094c.573-.875 1.432-1.313 2.578-1.313 1.078 0 1.918.39 2.52 1.172.6.78.902 1.878.902 3.29 0 1.41-.306 2.512-.918 3.304-.612.79-1.457 1.186-2.535 1.186zm-.445-7.453c-.73 0-1.262.214-1.597.64-.336.428-.504 1.11-.504 2.048v.274c0 1.052.166 1.814.5 2.285.333.47.877.706 1.632.706.636 0 1.125-.26 1.47-.78.343-.522.515-1.264.515-2.228 0-.968-.17-1.7-.512-2.2-.34-.496-.84-.745-1.503-.745zM652.805 229l-.367-1.203h-.063c-.417.526-.836.884-1.258 1.074-.422.19-.963.286-1.625.286-.85 0-1.512-.23-1.988-.687-.477-.46-.715-1.108-.715-1.947 0-.89.33-1.562.99-2.015.663-.453 1.67-.7 3.025-.742l1.492-.047v-.462c0-.552-.13-.965-.387-1.238-.258-.274-.657-.41-1.2-.41-.442 0-.866.064-1.273.195a9.61 9.61 0 0 0-1.17.46l-.595-1.312a6.39 6.39 0 0 1 1.54-.558 7.083 7.083 0 0 1 1.577-.192c1.098 0 1.927.24 2.487.72.56.478.84 1.23.84 2.257V229h-1.312zm-2.735-1.25c.667 0 1.202-.186 1.606-.56.403-.37.605-.893.605-1.565v-.75l-1.108.047c-.865.03-1.494.176-1.887.433-.393.258-.59.653-.59 1.184 0 .384.115.683.344.894.228.21.572.316 1.03.316zm10.094 1.406c-1.307 0-2.3-.38-2.98-1.144-.68-.763-1.02-1.858-1.02-3.285 0-1.454.356-2.57 1.066-3.352.71-.78 1.74-1.172 3.082-1.172.912 0 1.732.17 2.46.508l-.553 1.477c-.777-.302-1.418-.453-1.923-.453-1.495 0-2.242.993-2.242 2.977 0 .97.186 1.698.558 2.185.373.487.918.73 1.637.73.818 0 1.59-.203 2.32-.61v1.602c-.328.193-.678.33-1.05.414a6.305 6.305 0 0 1-1.356.126zm8.21 0c-1.343 0-2.394-.392-3.15-1.176-.76-.783-1.138-1.863-1.138-3.238 0-1.41.35-2.52 1.055-3.328.704-.807 1.67-1.21 2.9-1.21 1.14 0 2.04.345 2.702 1.038.662.693.992 1.646.992 2.86v.992h-5.757c.026.838.252 1.483.68 1.933.426.45 1.028.676 1.804.676.51 0 .987-.048 1.427-.144.44-.098.912-.258 1.418-.482v1.492c-.448.214-.9.365-1.36.453-.458.09-.98.133-1.57.133zm-.335-7.562c-.584 0-1.052.185-1.403.554-.352.37-.56.91-.63 1.618h3.923c-.01-.714-.183-1.254-.516-1.62-.333-.37-.792-.552-1.375-.552zm11.585 4.945c0 .843-.307 1.49-.922 1.94-.614.45-1.495.676-2.64.676-1.152 0-2.076-.174-2.774-.523v-1.586c1.015.47 1.96.703 2.835.703 1.13 0 1.695-.34 1.695-1.023a.81.81 0 0 0-.187-.547c-.125-.146-.33-.297-.617-.453a10.62 10.62 0 0 0-1.196-.532c-.994-.385-1.668-.77-2.02-1.156-.35-.386-.527-.886-.527-1.5 0-.74.3-1.315.895-1.724.596-.408 1.408-.613 2.434-.613 1.015 0 1.976.206 2.882.617l-.593 1.383c-.932-.385-1.716-.578-2.35-.578-.97 0-1.454.276-1.454.828 0 .27.126.5.38.688.25.188.802.446 1.65.774.715.276 1.233.53 1.556.758.323.23.562.493.72.793.155.3.233.657.233 1.074zm-121.602 29.616c0-.72.172-1.265.516-1.64.343-.375.832-.563 1.468-.563.63 0 1.118.19 1.465.567.346.377.52.923.52 1.636 0 .703-.175 1.248-.524 1.633-.35.384-.837.577-1.462.577s-1.112-.19-1.46-.566c-.35-.377-.525-.925-.525-1.644zM592.227 262h-2.164l-3.586-5.172-1.102.9V262h-1.867v-11.422h1.867v5.453a70.803 70.803 0 0 1 1.523-1.803l3.086-3.65h2.125a728.55 728.55 0 0 1-4.29 5.01l4.407 6.413zm5.086.156c-1.344 0-2.395-.392-3.153-1.176-.758-.783-1.137-1.863-1.137-3.238 0-1.41.352-2.52 1.055-3.328.703-.807 1.67-1.21 2.9-1.21 1.14 0 2.04.345 2.702 1.038.66.693.992 1.646.992 2.86v.992h-5.758c.026.838.253 1.483.68 1.933.427.45 1.028.676 1.804.676.51 0 .986-.048 1.426-.144.44-.098.913-.258 1.418-.482v1.492c-.448.214-.9.365-1.36.453-.458.09-.98.133-1.57.133zm-.336-7.562c-.584 0-1.05.185-1.403.554-.35.37-.56.91-.63 1.618h3.923c-.01-.714-.182-1.254-.515-1.62-.334-.37-.792-.552-1.375-.552zm10.164-1.39c.37 0 .675.025.915.077l-.18 1.712a3.47 3.47 0 0 0-.813-.094c-.734 0-1.33.24-1.785.72-.455.478-.683 1.1-.683 1.866V262h-1.836v-8.64h1.437l.242 1.523h.094c.288-.516.66-.925 1.122-1.227.46-.302.957-.453 1.49-.453zM617.26 262h-1.844v-5.313c0-.666-.134-1.164-.402-1.492-.27-.328-.694-.492-1.278-.492-.776 0-1.343.23-1.703.688-.358.46-.538 1.227-.538 2.305V262h-1.836v-8.64h1.438l.258 1.132h.093c.26-.41.63-.73 1.11-.953a3.718 3.718 0 0 1 1.593-.337c2.073 0 3.11 1.055 3.11 3.164V262zm6.328.156c-1.344 0-2.395-.392-3.152-1.176-.758-.783-1.137-1.863-1.137-3.238 0-1.41.35-2.52 1.055-3.328.703-.807 1.67-1.21 2.898-1.21 1.14 0 2.042.345 2.703 1.038.662.693.992 1.646.992 2.86v.992h-5.758c.027.838.253 1.483.68 1.933.427.45 1.03.676 1.805.676.51 0 .986-.048 1.426-.144.44-.098.912-.258 1.418-.482v1.492c-.448.214-.9.365-1.36.453-.458.09-.982.133-1.57.133zm-.336-7.562c-.583 0-1.05.185-1.402.554-.352.37-.562.91-.63 1.618h3.923c-.01-.714-.182-1.254-.515-1.62-.333-.37-.792-.552-1.375-.552zm7.617 7.406h-1.836v-12.156h1.837V262zm12.188 0l-.367-1.203h-.063c-.417.526-.836.884-1.258 1.074-.422.19-.963.286-1.625.286-.85 0-1.512-.23-1.988-.687-.477-.46-.715-1.108-.715-1.947 0-.89.33-1.562.99-2.015.663-.453 1.67-.7 3.025-.742l1.492-.047v-.462c0-.552-.13-.965-.387-1.238-.258-.274-.657-.41-1.2-.41-.442 0-.866.064-1.273.195a9.61 9.61 0 0 0-1.17.46l-.595-1.312a6.39 6.39 0 0 1 1.54-.558 7.083 7.083 0 0 1 1.577-.192c1.098 0 1.927.24 2.487.72.56.478.84 1.23.84 2.257V262h-1.312zm-2.735-1.25c.667 0 1.202-.186 1.606-.56.403-.37.605-.893.605-1.565v-.75l-1.108.047c-.865.03-1.494.176-1.887.433-.393.258-.59.653-.59 1.184 0 .384.115.683.344.894.228.21.572.316 1.03.316zm10.094 1.406c-1.307 0-2.3-.38-2.98-1.144-.68-.763-1.02-1.858-1.02-3.285 0-1.454.356-2.57 1.066-3.352.71-.78 1.74-1.172 3.082-1.172.912 0 1.732.17 2.46.508l-.553 1.477c-.777-.302-1.418-.453-1.923-.453-1.495 0-2.242.993-2.242 2.977 0 .97.186 1.698.558 2.185.373.487.918.73 1.637.73.818 0 1.59-.203 2.32-.61v1.602c-.328.193-.678.33-1.05.414a6.305 6.305 0 0 1-1.356.126zm7.922 0c-1.307 0-2.3-.38-2.98-1.144-.68-.763-1.02-1.858-1.02-3.285 0-1.454.355-2.57 1.066-3.352.71-.78 1.74-1.172 3.082-1.172.912 0 1.732.17 2.46.508l-.553 1.477c-.775-.302-1.416-.453-1.92-.453-1.496 0-2.243.993-2.243 2.977 0 .97.186 1.698.558 2.185.373.487.918.73 1.637.73.818 0 1.59-.203 2.32-.61v1.602c-.328.193-.678.33-1.05.414a6.305 6.305 0 0 1-1.356.126zm8.21 0c-1.343 0-2.394-.392-3.15-1.176-.76-.783-1.138-1.863-1.138-3.238 0-1.41.35-2.52 1.054-3.328.704-.807 1.67-1.21 2.9-1.21 1.14 0 2.04.345 2.702 1.038.662.693.992 1.646.992 2.86v.992h-5.758c.026.838.253 1.483.68 1.933.427.45 1.03.676 1.805.676.51 0 .985-.048 1.426-.144.44-.098.91-.258 1.417-.482v1.492c-.448.214-.9.365-1.36.453-.458.09-.982.133-1.57.133zm-.335-7.562c-.582 0-1.05.185-1.4.554-.353.37-.563.91-.63 1.618h3.922c-.01-.714-.183-1.254-.516-1.62-.333-.37-.792-.552-1.375-.552zm11.587 4.945c0 .843-.307 1.49-.922 1.94-.615.45-1.495.676-2.64.676-1.152 0-2.076-.174-2.774-.523v-1.586c1.017.47 1.962.703 2.837.703 1.13 0 1.695-.34 1.695-1.023a.81.81 0 0 0-.187-.547c-.125-.146-.33-.297-.617-.453a10.62 10.62 0 0 0-1.196-.532c-.995-.385-1.668-.77-2.02-1.156-.35-.386-.527-.886-.527-1.5 0-.74.298-1.315.895-1.724.596-.408 1.407-.613 2.433-.613 1.016 0 1.977.206 2.883.617l-.593 1.383c-.933-.385-1.717-.578-2.352-.578-.968 0-1.452.276-1.452.828 0 .27.126.5.38.688.25.188.802.446 1.65.774.715.276 1.233.53 1.556.758.323.23.562.493.718.793.157.3.235.657.235 1.074zm7.79 0c0 .843-.308 1.49-.923 1.94-.615.45-1.495.676-2.64.676-1.152 0-2.076-.174-2.774-.523v-1.586c1.016.47 1.96.703 2.836.703 1.13 0 1.695-.34 1.695-1.023a.81.81 0 0 0-.186-.547c-.125-.146-.33-.297-.617-.453a10.62 10.62 0 0 0-1.196-.532c-.994-.385-1.667-.77-2.018-1.156-.352-.386-.528-.886-.528-1.5 0-.74.3-1.315.895-1.724.595-.408 1.406-.613 2.433-.613 1.015 0 1.976.206 2.882.617l-.593 1.383c-.933-.385-1.717-.578-2.352-.578-.97 0-1.453.276-1.453.828 0 .27.126.5.38.688.25.188.802.446 1.65.774.715.276 1.233.53 1.556.758.323.23.562.493.72.793.155.3.233.657.233 1.074zm-127.564 29.616c0-.72.172-1.265.516-1.64.343-.375.832-.563 1.468-.563.63 0 1.118.19 1.465.567.346.377.52.923.52 1.636 0 .703-.175 1.248-.524 1.633-.35.384-.837.577-1.462.577s-1.112-.19-1.46-.566c-.35-.377-.525-.925-.525-1.644zM592.516 295h-1.875v-5.148h-5.265V295h-1.867v-11.422h1.867v4.672h5.266v-4.672h1.876V295zm10.476-4.336c0 1.412-.362 2.513-1.086 3.305-.724.79-1.732 1.186-3.023 1.186-.807 0-1.52-.182-2.14-.547a3.61 3.61 0 0 1-1.43-1.57c-.334-.683-.5-1.475-.5-2.376 0-1.4.36-2.495 1.078-3.28.72-.788 1.732-1.18 3.04-1.18 1.25 0 2.24.4 2.968 1.206.73.805 1.094 1.89 1.094 3.254zm-6.29 0c0 1.995.738 2.992 2.212 2.992 1.458 0 2.188-.997 2.188-2.992 0-1.974-.735-2.96-2.204-2.96-.77 0-1.33.254-1.675.765-.347.51-.52 1.24-.52 2.194zm14.204 1.875c0 .843-.307 1.49-.922 1.94-.614.45-1.494.676-2.64.676-1.15 0-2.076-.174-2.774-.523v-1.586c1.016.47 1.96.703 2.836.703 1.13 0 1.696-.34 1.696-1.023a.81.81 0 0 0-.188-.547c-.125-.146-.33-.297-.617-.453a10.62 10.62 0 0 0-1.195-.532c-.995-.385-1.668-.77-2.02-1.156-.352-.386-.527-.886-.527-1.5 0-.74.298-1.315.894-1.724.596-.408 1.407-.613 2.433-.613 1.015 0 1.976.206 2.883.617l-.594 1.383c-.932-.385-1.716-.578-2.352-.578-.968 0-1.453.276-1.453.828 0 .27.126.5.38.688.252.188.802.446 1.65.774.715.276 1.233.53 1.556.758.323.23.563.493.72.793.155.3.233.657.233 1.074zm5.203 1.132c.447 0 .895-.07 1.343-.21v1.382c-.203.088-.465.163-.785.222-.32.06-.652.09-.996.09-1.74 0-2.61-.916-2.61-2.75v-4.656h-1.18v-.813l1.266-.67.625-1.83h1.133v1.922h2.46v1.39h-2.46v4.625c0 .443.11.77.332.98.222.21.512.317.87.317zm2.32-2.18v-1.562h4.015v1.562h-4.015zM629.46 295l-3.312-9.54h-.062c.088 1.418.133 2.746.133 3.985V295h-1.697v-11.422h2.633l3.172 9.086h.047l3.266-9.086h2.64V295h-1.796v-5.648c0-.568.015-1.308.043-2.22.03-.91.054-1.463.075-1.655h-.063L631.11 295h-1.65zm17.298-4.336c0 1.412-.362 2.513-1.086 3.305-.724.79-1.732 1.186-3.024 1.186-.807 0-1.52-.182-2.14-.547a3.61 3.61 0 0 1-1.43-1.57c-.333-.683-.5-1.475-.5-2.376 0-1.4.36-2.495 1.078-3.28.72-.788 1.732-1.18 3.04-1.18 1.25 0 2.24.4 2.968 1.206.73.805 1.094 1.89 1.094 3.254zm-6.29 0c0 1.995.738 2.992 2.212 2.992 1.458 0 2.187-.997 2.187-2.992 0-1.974-.734-2.96-2.203-2.96-.77 0-1.33.254-1.676.765-.346.51-.52 1.24-.52 2.194zM654.962 295l-.257-1.133h-.094c-.256.4-.62.716-1.09.945-.472.23-1.01.344-1.614.344-1.047 0-1.828-.26-2.343-.78-.516-.522-.774-1.31-.774-2.368v-5.65h1.85v5.33c0 .66.136 1.157.407 1.488.27.33.695.496 1.273.496.77 0 1.338-.23 1.7-.692.362-.46.543-1.233.543-2.316v-4.305h1.843V295h-1.445zm11.665 0h-1.844v-5.313c0-.666-.133-1.164-.4-1.492-.27-.328-.695-.492-1.278-.492-.776 0-1.344.23-1.704.688-.36.46-.54 1.227-.54 2.305V295h-1.835v-8.64h1.438l.26 1.132h.092c.26-.41.63-.73 1.11-.953a3.718 3.718 0 0 1 1.594-.337c2.073 0 3.11 1.055 3.11 3.164V295zm5.773-1.328c.448 0 .896-.07 1.344-.21v1.382c-.203.088-.465.163-.785.222-.32.06-.652.09-.996.09-1.74 0-2.608-.916-2.608-2.75v-4.656h-1.18v-.813l1.265-.67.625-1.83h1.133v1.922h2.46v1.39h-2.46v4.625c0 .443.11.77.332.98.222.21.512.317.87.317zm6.844 1.484c-1.344 0-2.394-.392-3.152-1.176-.758-.783-1.137-1.863-1.137-3.238 0-1.41.352-2.52 1.055-3.328.703-.807 1.67-1.21 2.898-1.21 1.14 0 2.042.345 2.703 1.038.66.693.992 1.646.992 2.86v.992h-5.758c.026.838.252 1.483.68 1.933.427.45 1.028.676 1.804.676.51 0 .986-.048 1.426-.144.44-.098.913-.258 1.418-.482v1.492c-.448.214-.9.365-1.36.453-.458.09-.98.133-1.57.133zm-.336-7.562c-.583 0-1.05.185-1.402.554-.352.37-.56.91-.63 1.618h3.923c-.01-.714-.182-1.254-.516-1.62-.332-.37-.79-.552-1.374-.552zm8.696 7.562c-1.08 0-1.92-.39-2.524-1.172-.604-.78-.906-1.877-.906-3.29 0-1.415.306-2.518.918-3.307.612-.79 1.46-1.184 2.543-1.184 1.135 0 2 .42 2.594 1.258h.093c-.088-.62-.133-1.108-.133-1.468v-3.148h1.844V295h-1.436l-.32-1.133h-.087c-.588.86-1.45 1.29-2.585 1.29zm.492-1.484c.755 0 1.304-.212 1.648-.637.344-.424.52-1.113.53-2.066v-.26c0-1.088-.176-1.86-.53-2.32-.354-.458-.91-.687-1.664-.687-.646 0-1.143.262-1.492.785-.35.524-.524 1.27-.524 2.24 0 .957.17 1.687.508 2.19.34.503.847.754 1.524.754zm17.422-10.094h1.937l-4 11.422h-1.97l-3.983-11.422h1.922l2.383 7.102c.125.338.257.774.398 1.308.14.534.232.93.274 1.192.067-.396.17-.854.312-1.375.14-.52.254-.907.343-1.157l2.383-7.07zm10.593 7.086c0 1.412-.363 2.513-1.087 3.305-.724.79-1.73 1.186-3.023 1.186-.807 0-1.52-.182-2.14-.547a3.61 3.61 0 0 1-1.43-1.57c-.334-.683-.5-1.475-.5-2.376 0-1.4.36-2.495 1.078-3.28.72-.788 1.732-1.18 3.04-1.18 1.25 0 2.238.4 2.968 1.206.73.805 1.093 1.89 1.093 3.254zm-6.29 0c0 1.995.737 2.992 2.21 2.992 1.46 0 2.19-.997 2.19-2.992 0-1.974-.736-2.96-2.204-2.96-.77 0-1.33.254-1.676.765-.347.51-.52 1.24-.52 2.194zM720.055 295h-1.836v-12.156h1.835V295zm8.718 0l-.257-1.133h-.094c-.255.4-.62.716-1.09.945-.47.23-1.01.344-1.613.344-1.048 0-1.83-.26-2.345-.78-.516-.522-.773-1.31-.773-2.368v-5.65h1.85v5.33c0 .66.137 1.157.407 1.488.27.33.695.496 1.273.496.77 0 1.337-.23 1.7-.692.36-.46.542-1.233.542-2.316v-4.305h1.844V295h-1.447zm11.344 0h-1.844v-5.328c0-.662-.125-1.155-.375-1.48-.25-.326-.64-.49-1.17-.49-.71 0-1.23.232-1.56.693-.33.46-.496 1.227-.496 2.3V295h-1.836v-8.64h1.437l.258 1.132h.095c.24-.41.587-.73 1.043-.953a3.363 3.363 0 0 1 1.504-.337c1.328 0 2.208.453 2.64 1.36h.125c.256-.428.615-.76 1.08-1 .462-.24.993-.36 1.592-.36 1.03 0 1.782.26 2.253.78.472.522.707 1.316.707 2.384V295h-1.836v-5.328c0-.662-.126-1.155-.38-1.48-.25-.326-.643-.49-1.174-.49-.714 0-1.236.224-1.567.67-.33.444-.496 1.128-.496 2.05V295zm11.79.156c-1.345 0-2.395-.392-3.153-1.176-.758-.783-1.137-1.863-1.137-3.238 0-1.41.352-2.52 1.055-3.328.703-.807 1.67-1.21 2.898-1.21 1.14 0 2.042.345 2.703 1.038.662.693.993 1.646.993 2.86v.992h-5.758c.026.838.252 1.483.68 1.933.427.45 1.028.676 1.804.676.51 0 .986-.048 1.426-.144.44-.098.913-.258 1.418-.482v1.492c-.448.214-.9.365-1.36.453-.458.09-.98.133-1.57.133zm-.337-7.562c-.583 0-1.05.185-1.402.554-.352.37-.56.91-.63 1.618h3.923c-.01-.714-.18-1.254-.515-1.62-.333-.37-.79-.552-1.375-.552zm11.586 4.945c0 .843-.307 1.49-.922 1.94-.614.45-1.494.676-2.64.676-1.15 0-2.076-.174-2.774-.523v-1.586c1.016.47 1.96.703 2.836.703 1.13 0 1.696-.34 1.696-1.023a.81.81 0 0 0-.188-.547c-.125-.146-.33-.297-.617-.453a10.62 10.62 0 0 0-1.195-.532c-.995-.385-1.668-.77-2.02-1.156-.352-.386-.527-.886-.527-1.5 0-.74.298-1.315.894-1.724.596-.408 1.407-.613 2.433-.613 1.015 0 1.976.206 2.883.617l-.594 1.383c-.932-.385-1.716-.578-2.352-.578-.968 0-1.453.276-1.453.828 0 .27.126.5.38.688.252.188.802.446 1.65.774.715.276 1.233.53 1.556.758.323.23.563.493.72.793.155.3.233.657.233 1.074zM412.023 257.156c0-.72.172-1.265.516-1.64.343-.375.832-.563 1.468-.563.63 0 1.118.19 1.465.567.346.377.52.923.52 1.636 0 .703-.175 1.248-.524 1.633-.35.384-.837.577-1.462.577s-1.112-.19-1.46-.566c-.35-.377-.525-.925-.525-1.644zm30.344-4.14c-1.073 0-1.916.38-2.53 1.14-.616.76-.923 1.81-.923 3.15 0 1.4.296 2.46.887 3.178.592.72 1.447 1.08 2.567 1.08.485-.002.953-.05 1.406-.146.454-.096.925-.22 1.414-.37v1.6c-.895.34-1.91.508-3.046.508-1.67 0-2.955-.506-3.85-1.52-.897-1.012-1.345-2.462-1.345-4.347 0-1.188.218-2.227.653-3.118.435-.89 1.063-1.573 1.886-2.047.823-.474 1.79-.71 2.9-.71 1.165 0 2.244.244 3.233.733l-.672 1.555a10.03 10.03 0 0 0-1.222-.48 4.405 4.405 0 0 0-1.356-.207zm9.47 1.187c.37 0 .673.026.913.078l-.18 1.712a3.47 3.47 0 0 0-.812-.094c-.735 0-1.33.24-1.785.72-.456.478-.684 1.1-.684 1.866V263h-1.837v-8.64h1.438l.243 1.523h.094c.286-.516.66-.925 1.12-1.227.462-.302.958-.453 1.49-.453zm5.968 8.953c-1.344 0-2.395-.392-3.153-1.176-.757-.783-1.136-1.863-1.136-3.238 0-1.41.35-2.52 1.054-3.328.703-.807 1.67-1.21 2.9-1.21 1.14 0 2.04.345 2.702 1.038.66.693.992 1.646.992 2.86v.992h-5.758c.026.838.253 1.483.68 1.933.427.45 1.03.676 1.805.676.51 0 .986-.048 1.426-.144.44-.098.913-.258 1.418-.482v1.492c-.448.214-.9.365-1.36.453-.457.09-.98.133-1.57.133zm-.336-7.562c-.585 0-1.052.185-1.404.554-.35.37-.56.91-.628 1.618h3.92c-.01-.714-.18-1.254-.514-1.62-.334-.37-.792-.552-1.375-.552zM468.655 263l-.367-1.203h-.063c-.417.526-.836.884-1.258 1.074-.423.19-.965.286-1.626.286-.85 0-1.512-.23-1.99-.687-.475-.46-.713-1.108-.713-1.947 0-.89.33-1.562.993-2.015.66-.453 1.67-.7 3.023-.742l1.492-.047v-.462c0-.552-.128-.965-.386-1.238-.258-.274-.658-.41-1.2-.41-.442 0-.867.064-1.273.195a9.61 9.61 0 0 0-1.173.46l-.594-1.312a6.39 6.39 0 0 1 1.54-.558 7.083 7.083 0 0 1 1.578-.192c1.1 0 1.93.24 2.49.72.56.478.84 1.23.84 2.257V263h-1.314zm-2.734-1.25c.667 0 1.202-.186 1.605-.56.404-.37.606-.893.606-1.565v-.75l-1.11.047c-.864.03-1.493.176-1.886.433-.394.258-.59.653-.59 1.184 0 .384.114.683.344.894.23.21.574.316 1.032.316zm9.828-.078c.448 0 .896-.07 1.344-.21v1.382c-.203.088-.465.163-.785.222-.322.06-.654.09-.998.09-1.74 0-2.61-.916-2.61-2.75v-4.656h-1.18v-.813l1.267-.67.624-1.83h1.133v1.922h2.46v1.39h-2.46v4.625c0 .443.11.77.332.98.22.21.51.317.87.317zm6.844 1.484c-1.344 0-2.395-.392-3.153-1.176-.756-.783-1.135-1.863-1.135-3.238 0-1.41.35-2.52 1.054-3.328.703-.807 1.67-1.21 2.898-1.21 1.14 0 2.04.345 2.703 1.038.662.693.993 1.646.993 2.86v.992h-5.758c.026.838.253 1.483.68 1.933.427.45 1.03.676 1.805.676.51 0 .985-.048 1.425-.144.44-.098.913-.258 1.418-.482v1.492c-.447.214-.9.365-1.36.453-.457.09-.98.133-1.57.133zm-.336-7.562c-.584 0-1.05.185-1.403.554-.35.37-.56.91-.628 1.618h3.92c-.01-.714-.18-1.254-.514-1.62-.334-.37-.792-.552-1.375-.552zm-70.235 34.562c0-.72.172-1.265.516-1.64.343-.375.832-.563 1.468-.563.63 0 1.118.19 1.465.567.346.377.52.923.52 1.636 0 .703-.175 1.248-.524 1.633-.35.384-.837.577-1.462.577s-1.112-.19-1.46-.566c-.35-.377-.525-.925-.525-1.644zm27.352-.265h1.297c.87 0 1.5-.16 1.89-.484.39-.323.586-.802.586-1.437 0-.647-.21-1.11-.632-1.392-.422-.28-1.058-.422-1.907-.422h-1.235v3.735zm0 1.548V296h-1.867v-11.422h3.226c1.474 0 2.565.276 3.274.828.708.552 1.062 1.386 1.062 2.5 0 1.422-.74 2.435-2.218 3.04l3.226 5.054h-2.125l-2.734-4.563h-1.845zM453.633 296l-.258-1.133h-.094c-.254.4-.617.716-1.09.945-.47.23-1.008.344-1.612.344-1.047 0-1.828-.26-2.344-.78-.515-.522-.773-1.31-.773-2.368v-5.65h1.853v5.33c0 .66.135 1.157.406 1.488.27.33.694.496 1.272.496.77 0 1.337-.23 1.7-.692.36-.46.542-1.233.542-2.316v-4.305h1.844V296h-1.445zm11.664 0h-1.844v-5.313c0-.666-.134-1.164-.402-1.492-.267-.328-.693-.492-1.277-.492-.776 0-1.343.23-1.703.688-.36.46-.54 1.227-.54 2.305V296h-1.835v-8.64h1.438l.258 1.132h.094c.26-.41.63-.73 1.11-.953a3.718 3.718 0 0 1 1.594-.337c2.072 0 3.11 1.055 3.11 3.164V296zm-53.274 27.156c0-.72.172-1.265.516-1.64.343-.375.832-.563 1.468-.563.63 0 1.118.19 1.465.567.346.377.52.923.52 1.636 0 .703-.175 1.248-.524 1.633-.35.384-.837.577-1.462.577s-1.112-.19-1.46-.566c-.35-.377-.525-.925-.525-1.644zm27.352-.265h1.297c.87 0 1.5-.16 1.89-.484.39-.323.586-.802.586-1.437 0-.647-.21-1.11-.632-1.392-.422-.28-1.058-.422-1.907-.422h-1.235v3.735zm0 1.548V329h-1.867v-11.422h3.226c1.474 0 2.565.276 3.274.828.708.552 1.062 1.386 1.062 2.5 0 1.422-.74 2.435-2.218 3.04l3.226 5.054h-2.125l-2.734-4.563h-1.845zm11.938 4.718c-1.344 0-2.395-.392-3.153-1.176-.758-.783-1.137-1.863-1.137-3.238 0-1.41.352-2.52 1.055-3.328.703-.807 1.67-1.21 2.9-1.21 1.14 0 2.04.345 2.702 1.038.66.693.992 1.646.992 2.86v.992h-5.758c.026.838.253 1.483.68 1.933.427.45 1.028.676 1.804.676.51 0 .986-.048 1.426-.144.44-.098.913-.258 1.418-.482v1.492c-.448.214-.9.365-1.36.453-.458.09-.98.133-1.57.133zm-.336-7.562c-.584 0-1.05.185-1.403.554-.35.37-.56.91-.63 1.618h3.923c-.01-.714-.182-1.254-.515-1.62-.334-.37-.792-.552-1.375-.552zm11.586 4.945c0 .843-.308 1.49-.922 1.94-.614.45-1.494.676-2.64.676-1.15 0-2.076-.174-2.773-.523v-1.586c1.015.47 1.96.703 2.836.703 1.13 0 1.695-.34 1.695-1.023a.81.81 0 0 0-.188-.547c-.125-.146-.33-.297-.617-.453a10.62 10.62 0 0 0-1.195-.532c-.995-.385-1.668-.77-2.02-1.156-.35-.386-.527-.886-.527-1.5 0-.74.3-1.315.895-1.724.597-.408 1.408-.613 2.434-.613 1.015 0 1.976.206 2.882.617l-.594 1.383c-.932-.385-1.716-.578-2.35-.578-.97 0-1.455.276-1.455.828 0 .27.127.5.38.688.252.188.803.446 1.652.774.713.276 1.23.53 1.554.758.322.23.562.493.718.793.156.3.235.657.235 1.074zm5.203 1.132c.448 0 .895-.07 1.343-.21v1.382c-.204.088-.465.163-.786.222-.32.06-.652.09-.996.09-1.74 0-2.61-.916-2.61-2.75v-4.656h-1.18v-.813l1.267-.67.625-1.83h1.132v1.922h2.46v1.39h-2.46v4.625c0 .443.11.77.333.98.22.21.51.317.87.317zm8.476 1.328l-.367-1.203h-.063c-.416.526-.835.884-1.257 1.074-.422.19-.964.286-1.625.286-.85 0-1.512-.23-1.99-.687-.475-.46-.713-1.108-.713-1.947 0-.89.33-1.562.992-2.015.66-.453 1.668-.7 3.022-.742l1.492-.047v-.462c0-.552-.13-.965-.386-1.238-.258-.274-.658-.41-1.2-.41-.442 0-.867.064-1.273.195a9.61 9.61 0 0 0-1.172.46l-.594-1.312a6.39 6.39 0 0 1 1.538-.558 7.083 7.083 0 0 1 1.58-.192c1.098 0 1.927.24 2.487.72.56.478.84 1.23.84 2.257V329h-1.313zm-2.734-1.25c.666 0 1.202-.186 1.605-.56.404-.37.606-.893.606-1.565v-.75l-1.11.047c-.865.03-1.494.176-1.887.433-.394.258-.59.653-.59 1.184 0 .384.114.683.344.894.23.21.572.316 1.03.316zm10.992-7.547c.37 0 .674.026.914.078l-.18 1.712a3.47 3.47 0 0 0-.812-.094c-.735 0-1.33.24-1.785.72-.456.478-.684 1.1-.684 1.866V329h-1.836v-8.64h1.438l.242 1.523h.094c.287-.516.66-.925 1.122-1.227.46-.302.957-.453 1.488-.453zm5.734 7.47c.448 0 .896-.07 1.344-.212v1.384c-.203.088-.465.163-.785.222-.32.06-.652.09-.996.09-1.74 0-2.61-.916-2.61-2.75v-4.656h-1.18v-.813l1.266-.67.625-1.83h1.133v1.922h2.462v1.39h-2.46v4.625c0 .443.11.77.33.98.223.21.513.317.872.317zm-78.21 28.483c0-.72.17-1.265.515-1.64.343-.375.832-.563 1.468-.563.63 0 1.118.19 1.465.567.346.377.52.923.52 1.636 0 .703-.175 1.248-.524 1.633-.35.384-.837.577-1.462.577s-1.112-.19-1.46-.566c-.35-.377-.525-.925-.525-1.644zm32.07 2.742c0 1.016-.367 1.813-1.102 2.39-.734.58-1.747.868-3.04.868-1.29 0-2.348-.2-3.17-.6v-1.767a8.62 8.62 0 0 0 1.66.577 7.04 7.04 0 0 0 1.636.21c.74 0 1.285-.14 1.637-.42.35-.282.527-.66.527-1.134 0-.427-.16-.79-.484-1.086-.323-.296-.99-.648-2-1.054-1.042-.422-1.776-.904-2.203-1.445-.427-.542-.64-1.193-.64-1.954 0-.953.338-1.703 1.015-2.25.677-.547 1.586-.82 2.726-.82 1.094 0 2.183.24 3.266.72l-.594 1.522c-1.016-.427-1.922-.64-2.72-.64-.603 0-1.06.13-1.374.394-.312.263-.468.61-.468 1.043 0 .297.062.55.187.762.125.21.33.41.617.598.287.187.802.434 1.547.742.84.35 1.453.674 1.844.976.392.303.678.644.86 1.025.183.38.274.828.274 1.343zm5.234 1.774c.448 0 .896-.07 1.344-.21v1.382c-.203.088-.465.163-.785.222-.32.06-.653.09-.996.09-1.74 0-2.61-.916-2.61-2.75v-4.656h-1.178v-.813l1.265-.67.625-1.83h1.133v1.922h2.46v1.39h-2.46v4.625c0 .443.11.77.332.98.22.21.512.317.87.317zm10.735-3.008c0 1.412-.362 2.513-1.086 3.305-.724.79-1.732 1.186-3.024 1.186-.807 0-1.52-.182-2.14-.547a3.61 3.61 0 0 1-1.43-1.57c-.334-.683-.5-1.475-.5-2.376 0-1.4.36-2.495 1.078-3.28.72-.788 1.733-1.18 3.04-1.18 1.25 0 2.24.4 2.97 1.206.728.805 1.092 1.89 1.092 3.254zm-6.29 0c0 1.995.737 2.992 2.21 2.992 1.46 0 2.19-.997 2.19-2.992 0-1.974-.735-2.96-2.204-2.96-.772 0-1.33.254-1.677.765-.346.51-.52 1.24-.52 2.194zm12.782 4.492c-1.094 0-1.943-.393-2.547-1.18h-.11c.073.73.11 1.172.11 1.33v3.538h-1.836V353.36h1.484c.042.16.128.546.258 1.156h.094c.573-.875 1.432-1.313 2.578-1.313 1.078 0 1.918.39 2.52 1.172.6.78.902 1.878.902 3.29 0 1.41-.306 2.512-.918 3.304-.612.79-1.457 1.186-2.535 1.186zm-.446-7.453c-.73 0-1.262.214-1.598.64-.336.428-.504 1.11-.504 2.048v.274c0 1.052.166 1.814.5 2.285.333.47.877.706 1.633.706.636 0 1.126-.26 1.47-.78.343-.522.515-1.264.515-2.228 0-.968-.17-1.7-.512-2.2-.34-.496-.842-.745-1.504-.745zm-54.087 34.453c0-.72.172-1.265.516-1.64.343-.375.832-.563 1.468-.563.63 0 1.118.19 1.465.567.346.377.52.923.52 1.636 0 .703-.175 1.248-.524 1.633-.35.384-.837.577-1.462.577s-1.112-.19-1.46-.566c-.35-.377-.525-.925-.525-1.644zm34.774.024c0 1.885-.524 3.327-1.57 4.324-1.047.997-2.555 1.496-4.524 1.496h-3.195v-11.422h3.53c1.82 0 3.233.49 4.243 1.47 1.012.978 1.517 2.356 1.517 4.132zm-1.97.062c0-2.734-1.278-4.1-3.835-4.1h-1.617v8.288h1.328c2.75 0 4.125-1.396 4.125-4.188zm8 5.914c-1.343 0-2.393-.392-3.15-1.176-.76-.783-1.138-1.863-1.138-3.238 0-1.41.35-2.52 1.054-3.328.703-.807 1.67-1.21 2.898-1.21 1.14 0 2.042.345 2.703 1.038.662.693.993 1.646.993 2.86v.992h-5.758c.026.838.252 1.483.68 1.933.426.45 1.028.676 1.804.676.51 0 .986-.048 1.426-.144.44-.098.913-.258 1.418-.482v1.492c-.448.214-.9.365-1.36.453-.458.09-.98.133-1.57.133zm-.335-7.562c-.583 0-1.05.185-1.402.554-.352.37-.56.91-.63 1.618h3.923c-.01-.714-.182-1.254-.516-1.62-.333-.37-.79-.552-1.375-.552zM460.11 395h-1.837v-12.156h1.836V395zm6.398.156c-1.344 0-2.395-.392-3.153-1.176-.757-.783-1.136-1.863-1.136-3.238 0-1.41.35-2.52 1.053-3.328.704-.807 1.67-1.21 2.9-1.21 1.14 0 2.04.345 2.702 1.038.66.693.992 1.646.992 2.86v.992h-5.758c.025.838.252 1.483.68 1.933.426.45 1.028.676 1.804.676.51 0 .985-.048 1.426-.144.44-.098.912-.258 1.418-.482v1.492c-.448.214-.902.365-1.36.453-.458.09-.982.133-1.57.133zm-.336-7.562c-.583 0-1.05.185-1.402.554-.352.37-.562.91-.63 1.618h3.923c-.01-.714-.183-1.254-.516-1.62-.333-.37-.792-.552-1.375-.552zm9 6.078c.448 0 .896-.07 1.344-.21v1.382c-.204.088-.465.163-.786.222-.32.06-.652.09-.996.09-1.74 0-2.61-.916-2.61-2.75v-4.656h-1.18v-.813l1.267-.67.626-1.83h1.133v1.922h2.46v1.39h-2.46v4.625c0 .443.11.77.33.98.222.21.512.317.872.317zm6.844 1.484c-1.344 0-2.395-.392-3.153-1.176-.758-.783-1.136-1.863-1.136-3.238 0-1.41.35-2.52 1.054-3.328.704-.807 1.67-1.21 2.9-1.21 1.14 0 2.04.345 2.703 1.038.66.693.992 1.646.992 2.86v.992h-5.758c.026.838.253 1.483.68 1.933.427.45 1.03.676 1.805.676.51 0 .985-.048 1.425-.144.44-.098.913-.258 1.418-.482v1.492c-.448.214-.9.365-1.36.453-.457.09-.98.133-1.57.133zm-.336-7.562c-.584 0-1.05.185-1.403.554-.35.37-.56.91-.63 1.618h3.923c-.01-.714-.182-1.254-.515-1.62-.334-.37-.792-.552-1.375-.552zM279.023 324.156c0-.72.172-1.265.516-1.64.343-.375.832-.563 1.468-.563.63 0 1.118.19 1.465.567.346.377.52.923.52 1.636 0 .703-.175 1.248-.524 1.633-.35.384-.837.577-1.462.577s-1.112-.19-1.46-.566c-.35-.377-.525-.925-.525-1.644zM304.508 330v-11.422h1.867V330h-1.867zm12.29 0h-1.845v-5.313c0-.666-.134-1.164-.402-1.492-.267-.328-.693-.492-1.277-.492-.776 0-1.343.23-1.703.688-.36.46-.54 1.227-.54 2.305V330h-1.835v-8.64h1.438l.258 1.132h.094c.26-.41.63-.73 1.11-.953a3.718 3.718 0 0 1 1.594-.337c2.072 0 3.11 1.055 3.11 3.164V330zm8.358-2.46c0 .843-.307 1.49-.922 1.94-.614.45-1.494.676-2.64.676-1.15 0-2.076-.174-2.774-.523v-1.586c1.016.47 1.96.703 2.836.703 1.13 0 1.696-.34 1.696-1.023a.81.81 0 0 0-.188-.547c-.125-.146-.33-.297-.617-.453a10.62 10.62 0 0 0-1.195-.532c-.995-.385-1.668-.77-2.02-1.156-.352-.386-.527-.886-.527-1.5 0-.74.298-1.315.894-1.724.596-.408 1.407-.613 2.433-.613 1.015 0 1.976.206 2.883.617l-.594 1.383c-.932-.385-1.716-.578-2.352-.578-.968 0-1.453.276-1.453.828 0 .27.126.5.38.688.252.188.802.446 1.65.774.715.276 1.233.53 1.556.758.323.23.563.493.72.793.155.3.233.657.233 1.074zm6.367 2.616c-1.093 0-1.942-.393-2.546-1.18h-.11c.073.73.11 1.172.11 1.33v3.538h-1.836V321.36h1.485c.042.16.128.546.258 1.156h.094c.572-.875 1.432-1.313 2.578-1.313 1.078 0 1.918.39 2.52 1.172.6.78.902 1.878.902 3.29 0 1.41-.306 2.512-.918 3.304-.613.79-1.458 1.186-2.537 1.186zm-.445-7.453c-.73 0-1.262.214-1.598.64-.335.428-.503 1.11-.503 2.048v.274c0 1.052.166 1.814.5 2.285.333.47.877.706 1.632.706.635 0 1.124-.26 1.468-.78.344-.522.516-1.264.516-2.228 0-.968-.17-1.7-.512-2.2-.34-.496-.842-.745-1.504-.745zm9.805 7.453c-1.344 0-2.395-.392-3.153-1.176-.757-.783-1.136-1.863-1.136-3.238 0-1.41.35-2.52 1.054-3.328.704-.807 1.67-1.21 2.9-1.21 1.14 0 2.04.345 2.702 1.038.66.693.992 1.646.992 2.86v.992h-5.758c.026.838.253 1.483.68 1.933.427.45 1.03.676 1.805.676.51 0 .984-.048 1.425-.144.44-.098.912-.258 1.418-.482v1.492c-.448.214-.902.365-1.36.453-.458.09-.982.133-1.57.133zm-.336-7.562c-.583 0-1.05.185-1.402.554-.352.37-.562.91-.63 1.618h3.923c-.01-.714-.183-1.254-.516-1.62-.333-.37-.792-.552-1.375-.552zm9.265 7.562c-1.307 0-2.3-.38-2.98-1.144-.68-.763-1.02-1.858-1.02-3.285 0-1.454.356-2.57 1.067-3.352.71-.78 1.737-1.172 3.08-1.172.912 0 1.733.17 2.462.508l-.555 1.478c-.776-.303-1.416-.454-1.922-.454-1.494 0-2.242.993-2.242 2.977 0 .97.186 1.698.56 2.185.37.487.917.73 1.635.73.818 0 1.592-.203 2.32-.61v1.602c-.327.193-.678.33-1.05.414a6.305 6.305 0 0 1-1.356.126zm7.657-1.484c.447 0 .895-.07 1.342-.21v1.382c-.203.088-.464.163-.785.222-.32.06-.652.09-.996.09-1.738 0-2.608-.916-2.608-2.75v-4.656h-1.18v-.813l1.266-.67.625-1.83h1.133v1.922h2.46v1.39h-2.46v4.625c0 .443.11.77.332.98.22.21.51.317.87.317zm-78.447 28.484c0-.72.172-1.265.516-1.64.343-.375.832-.563 1.468-.563.63 0 1.118.19 1.465.567.346.377.52.923.52 1.636 0 .703-.175 1.248-.524 1.633-.35.384-.837.577-1.462.577s-1.112-.19-1.46-.566c-.35-.377-.525-.925-.525-1.644zm31.993-5.578h1.937l-4 11.422h-1.97L303 351.578h1.922l2.383 7.102c.125.338.257.774.398 1.308.14.534.232.93.274 1.192.067-.396.17-.854.312-1.375.14-.52.254-.907.343-1.157l2.383-7.07zM316.102 363h-1.836v-8.64h1.836V363zm-1.946-10.93c0-.328.09-.58.27-.757.18-.178.436-.266.77-.266.322 0 .574.088.753.265.18.178.27.43.27.758 0 .313-.09.56-.27.74-.18.178-.432.268-.755.268-.333 0-.59-.09-.77-.27-.18-.18-.27-.425-.27-.738zm8.344 11.086c-1.344 0-2.395-.392-3.152-1.176-.758-.783-1.137-1.863-1.137-3.238 0-1.41.352-2.52 1.056-3.328.703-.807 1.67-1.21 2.898-1.21 1.14 0 2.042.345 2.703 1.038.662.693.992 1.646.992 2.86v.992H320.1c.026.838.252 1.483.68 1.933.426.45 1.028.676 1.804.676.51 0 .986-.048 1.426-.144.44-.098.912-.258 1.418-.482v1.492c-.448.214-.9.365-1.36.453-.458.09-.98.133-1.57.133zm-.336-7.562c-.583 0-1.05.185-1.402.554-.352.37-.56.91-.63 1.618h3.923c-.01-.714-.183-1.254-.516-1.62-.334-.37-.793-.552-1.376-.552zM334.71 363l-1.116-4.03c-.136-.428-.38-1.42-.735-2.978h-.07c-.303 1.406-.543 2.404-.72 2.992L330.922 363h-2.03l-2.423-8.64h1.874l1.1 4.257a29.6 29.6 0 0 1 .533 2.703h.046c.053-.38.132-.816.24-1.308.105-.492.198-.86.276-1.106l1.312-4.547h2.015l1.274 4.546c.08.255.176.646.294 1.172.117.526.186.935.207 1.227h.063c.078-.64.26-1.537.547-2.688l1.117-4.258h1.844l-2.437 8.64h-2.062z"/><path d="M167.492 398h-5.772l-9.316-16.2h-.132c.186 2.86.278 4.9.278 6.122V398h-4.057v-21.416h5.727l9.302 16.04h.103c-.147-2.783-.22-4.75-.22-5.903v-10.136h4.087V398zm8.598-8.218c0 1.62.266 2.847.8 3.677.53.83 1.398 1.244 2.6 1.244 1.19 0 2.047-.412 2.57-1.238.522-.825.783-2.053.783-3.684 0-1.62-.263-2.837-.79-3.647-.528-.81-1.392-1.216-2.594-1.216-1.192 0-2.05.402-2.58 1.207-.526.806-.79 2.024-.79 3.655zm11.324 0c0 2.666-.704 4.75-2.11 6.255-1.406 1.504-3.364 2.256-5.874 2.256-1.572 0-2.96-.344-4.16-1.033-1.2-.688-2.124-1.677-2.77-2.966-.643-1.29-.965-2.793-.965-4.512 0-2.676.698-4.756 2.094-6.24s3.36-2.227 5.888-2.227c1.572 0 2.96.342 4.16 1.026 1.2.684 2.124 1.666 2.77 2.945.643 1.28.966 2.778.966 4.497zM206.222 398h-4.468v-9.565c0-1.182-.21-2.068-.63-2.66-.42-.59-1.088-.885-2.006-.885-1.25 0-2.154.417-2.71 1.252-.557.835-.835 2.22-.835 4.153V398h-4.468v-16.377h3.413l.6 2.095h.25a4.72 4.72 0 0 1 2.058-1.795c.874-.405 1.867-.608 2.98-.608 1.905 0 3.35.516 4.337 1.546.986 1.03 1.48 2.518 1.48 4.46V398zm11.382-13.506c-.947 0-1.69.3-2.227.9-.537.602-.844 1.454-.922 2.557h6.27c-.02-1.102-.308-1.954-.865-2.555-.557-.6-1.31-.9-2.256-.9zm.63 13.8c-2.637 0-4.697-.73-6.182-2.184-1.484-1.455-2.226-3.515-2.226-6.18 0-2.745.686-4.867 2.058-6.366 1.372-1.5 3.27-2.25 5.69-2.25 2.315 0 4.117.66 5.406 1.98 1.29 1.317 1.934 3.14 1.934 5.463v2.168h-10.562c.05 1.27.425 2.26 1.128 2.973.703.713 1.69 1.07 2.96 1.07.985 0 1.918-.103 2.797-.308a14 14 0 0 0 2.754-.98v3.456c-.78.39-1.615.68-2.504.87-.89.192-1.973.287-3.252.287z" fill="#FFF" opacity=".6"/><path d="M117.21 273.006h2.14L115.95 283h-2.31l-3.392-9.994h2.14l1.88 5.947c.105.35.213.76.325 1.227.11.467.18.792.208.974.05-.42.22-1.153.513-2.2l1.893-5.948zm3.397 9.994v-9.994h2.12V283h-2.12zm10.39 0h-5.755v-9.994h5.756v1.736h-3.637v2.195h3.385v1.736h-3.384v2.577H131V283zm11.82 0h-2.413l-1.354-5.25c-.05-.187-.135-.573-.256-1.16-.12-.584-.19-.977-.21-1.178-.026.246-.094.642-.204 1.186-.11.545-.193.933-.253 1.166L136.78 283h-2.405l-2.55-9.994h2.085l1.278 5.455c.223 1.008.385 1.88.485 2.62.028-.26.09-.663.188-1.207.1-.545.192-.968.278-1.27l1.456-5.597h2.003l1.456 5.598c.064.25.144.634.24 1.15.095.514.168.956.218 1.325.047-.356.12-.8.22-1.33s.19-.96.273-1.29l1.272-5.454h2.085L142.817 283zm16.51-5.01c0 1.654-.41 2.925-1.232 3.814-.82.888-1.996 1.333-3.527 1.333-1.53 0-2.707-.445-3.527-1.333-.82-.89-1.23-2.165-1.23-3.828 0-1.664.41-2.934 1.234-3.81.823-.88 2.002-1.317 3.538-1.317 1.535 0 2.71.44 3.523 1.325.814.884 1.22 2.155 1.22 3.814zm-7.295 0c0 1.116.212 1.957.635 2.522.424.565 1.058.847 1.9.847 1.692 0 2.537-1.124 2.537-3.37 0-2.252-.84-3.378-2.522-3.378-.844 0-1.48.284-1.908.85-.428.57-.642 1.41-.642 2.527zm18.23 5.01h-2.692l-4.348-7.56h-.06c.085 1.335.13 2.287.13 2.857V283h-1.895v-9.994h2.673l4.34 7.485h.048c-.068-1.298-.102-2.216-.102-2.754v-4.73h1.907V283zm2.517 0v-9.994h2.118v8.244h4.054V283h-6.173zm10.6-5.88l2.086-4.114h2.284l-3.316 6.104V283h-2.105v-3.82l-3.317-6.174h2.297l2.07 4.115zM83.77 210.442h.684c.67 0 1.164-.11 1.483-.335.32-.223.48-.574.48-1.052 0-.474-.164-.812-.49-1.012-.326-.2-.83-.3-1.514-.3h-.643v2.7zm0 1.723V216h-2.12v-9.994h2.913c1.358 0 2.363.247 3.015.742.65.494.977 1.245.977 2.252 0 .588-.162 1.11-.485 1.57-.324.457-.782.816-1.374 1.076a403.624 403.624 0 0 0 2.94 4.354h-2.352l-2.386-3.835H83.77zM96.65 216h-5.757v-9.994h5.756v1.736H93.01v2.195h3.384v1.736h-3.384v2.577h3.637V216zm7.983-2.775c0 .902-.324 1.613-.974 2.132-.65.52-1.554.78-2.71.78-1.068 0-2.01-.2-2.83-.602v-1.97c.673.302 1.244.514 1.71.637.468.123.895.185 1.283.185.465 0 .82-.09 1.07-.267.248-.178.372-.442.372-.793a.875.875 0 0 0-.164-.523c-.108-.152-.27-.3-.48-.44-.213-.142-.645-.368-1.296-.677-.61-.288-1.07-.563-1.374-.828a3.105 3.105 0 0 1-.732-.923c-.182-.35-.273-.762-.273-1.23 0-.885.3-1.58.9-2.086.598-.505 1.426-.758 2.484-.758.518 0 1.014.062 1.485.185.472.123.965.296 1.48.52l-.683 1.647c-.533-.22-.974-.372-1.323-.458a4.258 4.258 0 0 0-1.03-.13c-.4 0-.708.093-.923.28a.925.925 0 0 0-.32.732c0 .187.042.35.13.488.086.14.223.274.413.404.19.13.636.363 1.343.7.934.447 1.574.895 1.92 1.344.347.45.52 1 .52 1.65zM110.3 216h-2.12v-8.23h-2.713v-1.764h7.547v1.764H110.3V216zm6.37-5.558h.685c.67 0 1.164-.11 1.483-.335.32-.223.48-.574.48-1.052 0-.474-.164-.812-.49-1.012-.326-.2-.83-.3-1.514-.3h-.643v2.7zm0 1.723V216h-2.118v-9.994h2.912c1.358 0 2.363.247 3.015.742.65.494.977 1.245.977 2.252 0 .588-.162 1.11-.486 1.57-.322.457-.78.816-1.373 1.076a403.634 403.634 0 0 0 2.94 4.354h-2.352l-2.386-3.835h-1.13zm7.124 3.835v-9.994h2.12V216h-2.12zm8.88-8.374c-.797 0-1.415.3-1.852.9-.438.598-.656 1.433-.656 2.504 0 2.23.836 3.343 2.508 3.343.702 0 1.552-.175 2.55-.526v1.777c-.82.342-1.736.513-2.748.513-1.454 0-2.566-.44-3.336-1.323-.77-.882-1.155-2.148-1.155-3.797 0-1.04.19-1.95.567-2.73.38-.783.922-1.382 1.63-1.8.71-.416 1.54-.625 2.492-.625.97 0 1.946.235 2.926.704l-.683 1.723c-.374-.18-.75-.334-1.128-.466a3.365 3.365 0 0 0-1.116-.198zm8.532 8.374h-2.12v-8.23h-2.713v-1.764h7.546v1.764h-2.714V216zm10.007 0h-5.755v-9.994h5.755v1.736h-3.636v2.195h3.383v1.736h-3.383v2.577h3.636V216zm10.377-5.093c0 1.645-.468 2.905-1.404 3.78-.937.876-2.29 1.313-4.058 1.313h-2.83v-9.994h3.138c1.632 0 2.898.43 3.8 1.292.903.86 1.354 2.064 1.354 3.61zm-2.2.055c0-2.147-.95-3.22-2.845-3.22h-1.128v6.508h.91c2.04 0 3.062-1.096 3.062-3.288zm12.153-3.336c-.797 0-1.415.3-1.852.9-.437.598-.655 1.433-.655 2.504 0 2.23.836 3.343 2.508 3.343.702 0 1.552-.175 2.55-.526v1.777c-.82.342-1.736.513-2.748.513-1.454 0-2.566-.44-3.336-1.323-.77-.882-1.156-2.148-1.156-3.797 0-1.04.19-1.95.567-2.73.38-.783.923-1.382 1.632-1.8.708-.416 1.54-.625 2.49-.625.972 0 1.947.235 2.927.704l-.684 1.723c-.374-.18-.75-.334-1.128-.466a3.365 3.365 0 0 0-1.115-.198zm13.467 3.363c0 1.654-.41 2.925-1.23 3.814-.82.888-1.996 1.333-3.528 1.333-1.53 0-2.707-.445-3.527-1.333-.82-.89-1.23-2.165-1.23-3.828 0-1.664.41-2.934 1.234-3.81.82-.88 2-1.317 3.536-1.317s2.71.44 3.524 1.325c.814.884 1.22 2.155 1.22 3.814zm-7.294 0c0 1.116.212 1.957.636 2.522.424.565 1.057.847 1.9.847 1.69 0 2.537-1.124 2.537-3.37 0-2.252-.842-3.378-2.524-3.378-.843 0-1.48.284-1.907.85-.43.57-.644 1.41-.644 2.527zm18.232 5.01h-2.694l-4.347-7.56h-.062c.087 1.335.13 2.287.13 2.857V216h-1.893v-9.994h2.672l4.34 7.485h.05c-.07-1.298-.103-2.216-.103-2.754v-4.73h1.908V216zm6.37 0H200.2v-8.23h-2.714v-1.764h7.547v1.764h-2.714V216zm6.372-5.558h.684c.67 0 1.164-.11 1.483-.335.32-.223.478-.574.478-1.052 0-.474-.162-.812-.488-1.012-.326-.2-.83-.3-1.514-.3h-.643v2.7zm0 1.723V216h-2.12v-9.994h2.913c1.358 0 2.363.247 3.015.742.65.494.977 1.245.977 2.252 0 .588-.162 1.11-.485 1.57-.324.457-.782.816-1.374 1.076a403.602 403.602 0 0 0 2.94 4.354h-2.352l-2.386-3.835h-1.128zm16.194-1.176c0 1.654-.41 2.925-1.23 3.814-.82.888-1.996 1.333-3.528 1.333-1.53 0-2.707-.445-3.527-1.333-.82-.89-1.23-2.165-1.23-3.828 0-1.664.41-2.934 1.233-3.81.822-.88 2-1.317 3.537-1.317 1.536 0 2.71.44 3.524 1.325.814.884 1.22 2.155 1.22 3.814zm-7.294 0c0 1.116.212 1.957.636 2.522.424.565 1.057.847 1.9.847 1.69 0 2.537-1.124 2.537-3.37 0-2.252-.84-3.378-2.523-3.378-.843 0-1.48.284-1.907.85-.428.57-.643 1.41-.643 2.527zm9.366 5.01v-9.994h2.12v8.244h4.052V216h-6.172zM54.613 148h-2.68v-12.85h7.365v2.233h-4.685v3.313h4.36v2.224h-4.36V148zm17.658-12.85v8.315c0 .95-.212 1.78-.637 2.496-.425.716-1.038 1.264-1.84 1.644-.804.38-1.753.572-2.85.572-1.65 0-2.934-.424-3.848-1.27-.914-.847-1.37-2.006-1.37-3.476v-8.28h2.714v7.867c0 .99.2 1.716.597 2.18.4.462 1.058.694 1.978.694.89 0 1.536-.232 1.938-.698.4-.466.602-1.197.602-2.193v-7.85h2.716zM75.418 148v-12.85h2.725v10.6h5.212V148h-7.937zm10.17 0v-12.85h2.724v10.6h5.212V148h-7.936zm20.302-10.767c-1.027 0-1.82.386-2.383 1.156-.563.77-.844 1.843-.844 3.22 0 2.866 1.075 4.298 3.226 4.298.9 0 1.994-.225 3.277-.677v2.287c-1.055.44-2.232.66-3.533.66-1.87 0-3.3-.568-4.29-1.702-.99-1.134-1.485-2.76-1.485-4.882 0-1.336.243-2.507.73-3.51.485-1.006 1.184-1.777 2.095-2.313.91-.536 1.98-.804 3.204-.804 1.247 0 2.5.302 3.76.905l-.88 2.216c-.48-.23-.962-.428-1.45-.598a4.326 4.326 0 0 0-1.43-.255zm17.313 4.325c0 2.127-.527 3.76-1.582 4.904-1.054 1.142-2.565 1.714-4.534 1.714-1.97 0-3.48-.572-4.535-1.714-1.054-1.143-1.58-2.783-1.58-4.922 0-2.14.528-3.772 1.585-4.9 1.058-1.128 2.574-1.692 4.55-1.692 1.973 0 3.483.57 4.53 1.705 1.045 1.137 1.568 2.772 1.568 4.905zm-9.378 0c0 1.435.273 2.516.818 3.243.545.727 1.36 1.09 2.443 1.09 2.174 0 3.26-1.444 3.26-4.332 0-2.895-1.08-4.342-3.242-4.342-1.084 0-1.902.365-2.453 1.094-.55.73-.825 1.812-.825 3.248zm23.44 6.442h-3.462l-5.59-9.72h-.08c.112 1.716.168 2.94.168 3.673V148h-2.434v-12.85h3.437l5.58 9.624h.062c-.088-1.67-.132-2.85-.132-3.542v-6.082h2.453V148zm8.192 0h-2.725v-10.582h-3.49v-2.268h9.704v2.268h-3.49V148zm8.19-7.146h.88c.862 0 1.497-.143 1.908-.43.41-.287.615-.738.615-1.354 0-.61-.21-1.043-.63-1.3-.418-.258-1.066-.387-1.945-.387h-.827v3.47zm0 2.215V148h-2.723v-12.85h3.744c1.746 0 3.038.318 3.876.954.838.636 1.257 1.6 1.257 2.896a3.41 3.41 0 0 1-.623 2.017c-.416.59-1.005 1.05-1.767 1.384a518.954 518.954 0 0 0 3.78 5.6h-3.024l-3.067-4.93h-1.452zm20.823-1.512c0 2.127-.528 3.76-1.582 4.904-1.055 1.142-2.567 1.714-4.535 1.714-1.97 0-3.48-.572-4.536-1.714-1.054-1.143-1.582-2.783-1.582-4.922 0-2.14.53-3.772 1.587-4.9 1.057-1.128 2.573-1.692 4.548-1.692s3.485.57 4.53 1.705c1.047 1.137 1.57 2.772 1.57 4.905zm-9.378 0c0 1.435.272 2.516.817 3.243.544.727 1.36 1.09 2.443 1.09 2.173 0 3.26-1.444 3.26-4.332 0-2.895-1.08-4.342-3.243-4.342-1.084 0-1.9.365-2.452 1.094-.55.73-.826 1.812-.826 3.248zm12.04 6.442v-12.85h2.725v10.6h5.212V148h-7.937z" fill="#066DA5"/></g></svg>