<svg width="800" height="436" viewBox="0 0 800 436" xmlns="http://www.w3.org/2000/svg"><title>Grants Outlines</title><g fill="none" fill-rule="evenodd"><path fill="#FBFBFC" d="M0 0h800v436H0z"/><path fill="#066DA5" opacity=".05" d="M20 100h760v316H20z"/><path d="M378.682 53.982h5.664v7.403c-.918.3-1.783.51-2.593.63s-1.64.18-2.485.18c-2.155 0-3.8-.633-4.937-1.9-1.135-1.265-1.703-3.083-1.703-5.453 0-2.305.66-4.102 1.977-5.39 1.32-1.29 3.147-1.934 5.484-1.934 1.465 0 2.877.293 4.238.878l-1.006 2.422a7.184 7.184 0 0 0-3.252-.78c-1.308 0-2.356.44-3.144 1.317-.788.88-1.182 2.06-1.182 3.545 0 1.55.318 2.733.952 3.55.635.817 1.558 1.226 2.77 1.226.63 0 1.272-.065 1.923-.196v-2.978h-2.705v-2.52zm14.922-3.105c.403 0 .738.03 1.005.088l-.225 2.793a3.412 3.412 0 0 0-.88-.098c-.95 0-1.69.244-2.22.733-.53.488-.797 1.17-.797 2.05V62h-2.978V51.082h2.256l.44 1.836h.146a4.104 4.104 0 0 1 1.372-1.48 3.383 3.383 0 0 1 1.88-.56zM403.124 62l-.575-1.484h-.08c-.5.63-1.017 1.07-1.547 1.313-.53.243-1.222.365-2.075.365-1.05 0-1.874-.3-2.476-.898-.602-.6-.903-1.452-.903-2.56 0-1.158.404-2.012 1.215-2.562.81-.55 2.032-.855 3.667-.913l1.894-.06v-.477c0-1.107-.566-1.66-1.7-1.66-.872 0-1.897.263-3.075.79l-.986-2.01c1.257-.66 2.65-.988 4.18-.988 1.465 0 2.588.32 3.37.957.78.638 1.17 1.61 1.17 2.91V62h-2.08zm-.878-5.06l-1.152.04c-.866.027-1.51.183-1.934.47-.423.286-.635.722-.635 1.308 0 .84.482 1.26 1.446 1.26.69 0 1.243-.2 1.656-.596.413-.397.62-.925.62-1.582v-.9zM418.35 62h-2.98v-6.377c0-.788-.14-1.38-.42-1.772-.28-.393-.725-.59-1.337-.59-.833 0-1.435.278-1.806.835-.37.556-.557 1.48-.557 2.768V62h-2.98V51.082h2.277l.4 1.397h.166c.332-.53.79-.928 1.372-1.198.583-.27 1.245-.405 1.988-.405 1.27 0 2.233.343 2.89 1.03.658.687.987 1.678.987 2.974V62zm7.666-2.178c.52 0 1.145-.114 1.875-.342v2.217c-.742.332-1.653.498-2.734.498-1.19 0-2.06-.3-2.602-.903-.544-.602-.816-1.506-.816-2.71v-5.264h-1.425v-1.26l1.64-.995.86-2.305h1.904v2.324h3.056v2.236h-3.056v5.264c0 .423.12.736.356.938.238.2.552.302.943.302z" fill="#066DA5"/><path fill="#FFF" d="M40 217h220v179H40z"/><path d="M41 218v177h218V218H41zm-1-1h220v179H40V217z" fill-opacity=".4" fill="#066DA5" fill-rule="nonzero"/><path fill="#FFF" d="M488 217h272v179H488z"/><path d="M489 218v177h270V218H489zm-1-1h272v179H488V217z" fill-opacity=".4" fill="#066DA5" fill-rule="nonzero"/><path d="M125.157 196.225c0 .902-.324 1.613-.974 2.132-.65.52-1.553.78-2.71.78-1.067 0-2.01-.2-2.83-.602v-1.97c.674.302 1.245.514 1.712.637.467.123.894.185 1.282.185.465 0 .82-.09 1.07-.267.248-.178.372-.442.372-.793a.875.875 0 0 0-.165-.523c-.11-.152-.27-.3-.482-.44-.212-.142-.644-.368-1.295-.677-.61-.288-1.07-.563-1.374-.828a3.105 3.105 0 0 1-.732-.923c-.182-.35-.273-.762-.273-1.23 0-.885.298-1.58.898-2.086.6-.505 1.427-.758 2.485-.758.52 0 1.015.062 1.486.185.47.123.964.296 1.48.52l-.684 1.647c-.533-.22-.974-.372-1.323-.458a4.258 4.258 0 0 0-1.03-.13c-.4 0-.707.093-.922.28a.925.925 0 0 0-.32.732c0 .187.043.35.13.488.087.14.224.274.414.404.19.13.636.363 1.343.7.934.447 1.574.895 1.92 1.344.347.45.52 1 .52 1.65zm9.947-7.22v6.468c0 .738-.166 1.385-.496 1.94-.33.557-.808.983-1.432 1.28-.625.296-1.363.444-2.215.444-1.284 0-2.282-.33-2.993-.988-.71-.66-1.067-1.56-1.067-2.705v-6.44h2.113v6.12c0 .77.155 1.334.465 1.694.31.36.822.54 1.538.54.692 0 1.195-.182 1.507-.544.312-.362.468-.93.468-1.706v-6.104h2.114zm2.447 0h3.11c1.418 0 2.447.203 3.088.606.64.404.96 1.046.96 1.925 0 .597-.14 1.087-.42 1.47a1.68 1.68 0 0 1-1.118.69v.07c.633.14 1.09.404 1.37.792.28.387.42.902.42 1.545 0 .91-.328 1.622-.987 2.132-.658.51-1.553.766-2.683.766h-3.74v-9.994zm2.12 3.96h1.23c.575 0 .99-.09 1.248-.268.257-.177.386-.47.386-.882 0-.382-.14-.657-.42-.823-.28-.167-.724-.25-1.33-.25h-1.114v2.222zm0 1.68v2.605h1.38c.584 0 1.015-.112 1.293-.335.278-.223.417-.565.417-1.025 0-.83-.593-1.244-1.778-1.244h-1.312zm6.24 7.294c-.477 0-.894-.05-1.25-.15v-1.765c.365.092.697.137.998.137.465 0 .798-.145.998-.434.2-.29.3-.742.3-1.357v-9.364h2.12v9.35c0 1.168-.266 2.057-.8 2.667-.533.61-1.32.916-2.365.916zM157.35 199h-5.756v-9.994h5.756v1.736h-3.637v2.195h3.385v1.736h-3.384v2.577h3.638V199zm6.33-8.374c-.798 0-1.415.3-1.853.9-.437.598-.656 1.433-.656 2.504 0 2.23.835 3.343 2.508 3.343.702 0 1.55-.175 2.55-.526v1.777c-.82.342-1.737.513-2.75.513-1.452 0-2.564-.44-3.334-1.323-.77-.882-1.156-2.148-1.156-3.797 0-1.04.19-1.95.568-2.73.378-.783.92-1.382 1.63-1.8.71-.416 1.54-.625 2.492-.625.97 0 1.946.235 2.926.704l-.684 1.723c-.374-.18-.75-.334-1.128-.466a3.365 3.365 0 0 0-1.114-.198zm8.53 8.374h-2.118v-8.23h-2.714v-1.764h7.547v1.764h-2.714V199zm10.152-2.775c0 .902-.324 1.613-.974 2.132-.65.52-1.553.78-2.71.78-1.067 0-2.01-.2-2.83-.602v-1.97c.674.302 1.245.514 1.712.637.467.123.894.185 1.282.185.465 0 .82-.09 1.07-.267.248-.178.372-.442.372-.793a.875.875 0 0 0-.164-.523c-.11-.152-.27-.3-.482-.44-.212-.142-.643-.368-1.295-.677-.61-.288-1.068-.563-1.373-.828a3.105 3.105 0 0 1-.732-.923c-.182-.35-.273-.762-.273-1.23 0-.885.3-1.58.9-2.086.598-.505 1.426-.758 2.484-.758.52 0 1.015.062 1.487.185.47.123.965.296 1.48.52l-.684 1.647c-.534-.22-.975-.372-1.324-.458a4.258 4.258 0 0 0-1.03-.13c-.4 0-.707.093-.922.28a.925.925 0 0 0-.32.732c0 .187.042.35.13.488.086.14.224.274.413.404.19.13.637.363 1.343.7.934.447 1.574.895 1.92 1.344.347.45.52 1 .52 1.65zM355.377 193.442h.684c.67 0 1.165-.11 1.484-.335.32-.223.478-.574.478-1.052 0-.474-.162-.812-.488-1.012-.326-.2-.83-.3-1.514-.3h-.643v2.7zm0 1.723V199h-2.12v-9.994h2.913c1.358 0 2.363.247 3.015.742.65.494.977 1.245.977 2.252 0 .588-.162 1.11-.485 1.57-.324.457-.782.816-1.374 1.076a403.613 403.613 0 0 0 2.94 4.354h-2.352l-2.385-3.835h-1.128zm16.194-1.176c0 1.654-.41 2.925-1.23 3.814-.82.888-1.995 1.333-3.527 1.333-1.53 0-2.707-.445-3.527-1.333-.82-.89-1.23-2.165-1.23-3.828 0-1.664.41-2.934 1.234-3.81.822-.88 2-1.317 3.537-1.317 1.536 0 2.71.44 3.524 1.325.815.884 1.22 2.155 1.22 3.814zm-7.293 0c0 1.116.212 1.957.636 2.522.424.565 1.057.847 1.9.847 1.69 0 2.537-1.124 2.537-3.37 0-2.252-.84-3.378-2.523-3.378-.843 0-1.48.284-1.907.85-.428.57-.643 1.41-.643 2.527zm9.366 5.01v-9.994h2.12v8.244h4.052V199h-6.172zm13.665 0h-5.756v-9.994h5.756v1.736h-3.637v2.195h3.385v1.736h-3.384v2.577h3.638V199zm7.984-2.775c0 .902-.325 1.613-.974 2.132-.65.52-1.553.78-2.71.78-1.067 0-2.01-.2-2.83-.602v-1.97c.674.302 1.245.514 1.712.637.467.123.894.185 1.28.185.466 0 .823-.09 1.07-.267.25-.178.374-.442.374-.793a.875.875 0 0 0-.164-.523c-.11-.152-.27-.3-.482-.44-.212-.142-.644-.368-1.296-.677-.61-.288-1.068-.563-1.374-.828a3.105 3.105 0 0 1-.73-.923c-.183-.35-.274-.762-.274-1.23 0-.885.3-1.58.898-2.086.6-.505 1.428-.758 2.485-.758.52 0 1.015.062 1.487.185.472.123.965.296 1.48.52l-.683 1.647c-.533-.22-.974-.372-1.322-.458a4.258 4.258 0 0 0-1.03-.13c-.4 0-.708.093-.922.28a.925.925 0 0 0-.32.732c0 .187.042.35.13.488.085.14.223.274.412.404.19.13.637.363 1.344.7.934.447 1.574.895 1.92 1.344.347.45.52 1 .52 1.65zM581.503 190.626c-.798 0-1.415.3-1.853.9-.437.598-.656 1.433-.656 2.504 0 2.23.836 3.343 2.51 3.343.7 0 1.55-.175 2.55-.526v1.777c-.822.342-1.738.513-2.75.513-1.453 0-2.565-.44-3.335-1.323-.77-.882-1.157-2.148-1.157-3.797 0-1.04.19-1.95.568-2.73.38-.783.923-1.382 1.63-1.8.71-.416 1.54-.625 2.493-.625.97 0 1.946.235 2.926.704l-.685 1.723c-.374-.18-.75-.334-1.128-.466a3.365 3.365 0 0 0-1.114-.198zm13.467 3.363c0 1.654-.41 2.925-1.23 3.814-.82.888-1.997 1.333-3.528 1.333-1.53 0-2.707-.445-3.527-1.333-.82-.89-1.23-2.165-1.23-3.828 0-1.664.41-2.934 1.233-3.81.823-.88 2.002-1.317 3.538-1.317 1.535 0 2.71.44 3.524 1.325.813.884 1.22 2.155 1.22 3.814zm-7.294 0c0 1.116.212 1.957.636 2.522.423.565 1.057.847 1.9.847 1.69 0 2.536-1.124 2.536-3.37 0-2.252-.84-3.378-2.522-3.378-.844 0-1.48.284-1.908.85-.428.57-.642 1.41-.642 2.527zm9.365 5.01v-9.994h2.12v8.244h4.054V199h-6.173zm7.91 0v-9.994h2.12v8.244h4.053V199h-6.173zm13.665 0h-5.756v-9.994h5.755v1.736h-3.636v2.195h3.382v1.736h-3.383v2.577h3.635V199zm6.33-8.374c-.797 0-1.415.3-1.852.9-.438.598-.656 1.433-.656 2.504 0 2.23.836 3.343 2.508 3.343.702 0 1.552-.175 2.55-.526v1.777c-.82.342-1.736.513-2.748.513-1.454 0-2.566-.44-3.336-1.323-.77-.882-1.154-2.148-1.154-3.797 0-1.04.19-1.95.567-2.73.378-.783.922-1.382 1.63-1.8.71-.416 1.54-.625 2.492-.625.97 0 1.946.235 2.926.704l-.683 1.723c-.373-.18-.75-.334-1.127-.466a3.365 3.365 0 0 0-1.115-.198zm8.532 8.374h-2.12v-8.23h-2.713v-1.764h7.546v1.764h-2.713V199zm4.252 0v-9.994h2.118V199h-2.12zm13.705-5.01c0 1.654-.41 2.925-1.23 3.814-.82.888-1.997 1.333-3.528 1.333-1.532 0-2.707-.445-3.528-1.333-.82-.89-1.23-2.165-1.23-3.828 0-1.664.41-2.934 1.233-3.81.822-.88 2.002-1.317 3.537-1.317 1.536 0 2.71.44 3.524 1.325.814.884 1.22 2.155 1.22 3.814zm-7.294 0c0 1.116.213 1.957.636 2.522.424.565 1.058.847 1.9.847 1.692 0 2.537-1.124 2.537-3.37 0-2.252-.84-3.378-2.523-3.378-.843 0-1.478.284-1.907.85-.428.57-.642 1.41-.642 2.527zm18.232 5.01h-2.693l-4.35-7.56h-.06c.086 1.335.13 2.287.13 2.857V199h-1.894v-9.994h2.673l4.34 7.485h.047c-.068-1.298-.102-2.216-.102-2.754v-4.73h1.907V199zm8.415-2.775c0 .902-.325 1.613-.974 2.132-.65.52-1.553.78-2.71.78-1.067 0-2.01-.2-2.83-.602v-1.97c.674.302 1.245.514 1.712.637.467.123.894.185 1.282.185.464 0 .82-.09 1.07-.267.248-.178.372-.442.372-.793a.875.875 0 0 0-.165-.523c-.11-.152-.27-.3-.482-.44-.212-.142-.644-.368-1.295-.677-.61-.288-1.07-.563-1.374-.828a3.105 3.105 0 0 1-.732-.923c-.182-.35-.273-.762-.273-1.23 0-.885.298-1.58.898-2.086.6-.505 1.427-.758 2.484-.758.52 0 1.016.062 1.487.185.47.123.964.296 1.48.52l-.684 1.647c-.534-.22-.974-.372-1.323-.458a4.258 4.258 0 0 0-1.03-.13c-.4 0-.708.093-.922.28a.925.925 0 0 0-.32.732c0 .187.043.35.13.488.086.14.224.274.413.404.19.13.637.363 1.344.7.934.447 1.574.895 1.92 1.344.347.45.52 1 .52 1.65zM107.05 242.99c0 1.6-.406 2.857-1.215 3.773-.808.916-1.933 1.374-3.373 1.374-1.472 0-2.608-.45-3.408-1.35-.8-.9-1.2-2.17-1.2-3.81 0-1.628.402-2.89 1.204-3.785.802-.896 1.94-1.343 3.418-1.343 1.435 0 2.556.454 3.363 1.366.806.91 1.21 2.17 1.21 3.773zm-7.965 0c0 1.353.288 2.38.865 3.08.576.698 1.414 1.048 2.512 1.048 1.107 0 1.944-.348 2.51-1.046.564-.697.846-1.725.846-3.083 0-1.345-.28-2.365-.844-3.06-.563-.695-1.396-1.042-2.498-1.042-1.108 0-1.95.35-2.526 1.05-.577.7-.865 1.716-.865 3.05zm13.44-2.62c.332 0 .63.028.895.083l-.157 1.053a3.865 3.865 0 0 0-.82-.103c-.607 0-1.125.246-1.556.74-.43.49-.646 1.104-.646 1.837V248h-1.134v-7.492h.937l.13 1.388h.055c.278-.488.612-.864 1.004-1.128a2.262 2.262 0 0 1 1.292-.397zm8.29.138v.718l-1.386.164c.126.16.24.368.34.625.1.258.15.548.15.872 0 .733-.25 1.32-.75 1.757-.502.437-1.19.656-2.066.656-.223 0-.432-.018-.628-.055-.483.255-.725.577-.725.964a.49.49 0 0 0 .254.454c.17.098.458.147.868.147h1.326c.81 0 1.435.17 1.87.513.435.342.653.84.653 1.49 0 .83-.332 1.462-.997 1.897-.666.436-1.636.653-2.912.653-.98 0-1.735-.182-2.266-.547-.53-.364-.796-.88-.796-1.545 0-.454.146-.848.438-1.18.29-.334.7-.56 1.23-.678a1.187 1.187 0 0 1-.482-.403 1.067 1.067 0 0 1-.195-.637c0-.273.072-.513.218-.718.146-.205.376-.403.69-.594a2.024 2.024 0 0 1-.946-.813 2.39 2.39 0 0 1-.366-1.312c0-.82.246-1.453.738-1.897.492-.445 1.19-.667 2.092-.667.392 0 .745.047 1.06.138h2.59zm-5.973 8.75c0 .405.17.713.512.923.342.21.832.315 1.47.315.953 0 1.658-.142 2.116-.427.458-.285.687-.67.687-1.16 0-.404-.125-.686-.376-.843-.25-.157-.72-.236-1.414-.236h-1.36c-.515 0-.916.122-1.204.368-.287.246-.43.6-.43 1.06zm.615-6.35c0 .523.148.92.444 1.19.298.268.71.402 1.24.402 1.106 0 1.66-.538 1.66-1.613 0-1.126-.56-1.69-1.682-1.69-.533 0-.943.145-1.23.432-.287.286-.43.712-.43 1.277zM126.962 248l-.226-1.066h-.054c-.374.47-.747.787-1.118.953-.37.167-.835.25-1.39.25-.744 0-1.326-.192-1.748-.575-.42-.382-.632-.927-.632-1.633 0-1.514 1.21-2.307 3.63-2.38l1.27-.04v-.466c0-.588-.125-1.022-.378-1.302s-.657-.42-1.213-.42c-.625 0-1.33.19-2.12.574l-.348-.87c.37-.2.773-.356 1.213-.47.44-.114.88-.17 1.323-.17.894 0 1.556.197 1.987.593.43.396.646 1.032.646 1.907V248h-.84zm-2.564-.8c.707 0 1.262-.193 1.665-.58.403-.388.605-.93.605-1.628v-.677l-1.135.048c-.902.032-1.553.172-1.95.42-.4.25-.6.635-.6 1.16 0 .41.125.722.373.936.248.213.596.32 1.042.32zm10.87.8v-4.847c0-.61-.14-1.066-.417-1.367-.277-.3-.713-.45-1.305-.45-.784 0-1.358.21-1.723.635-.364.425-.547 1.124-.547 2.1V248h-1.134v-7.492h.923l.185 1.025h.055c.232-.37.558-.655.977-.858.42-.203.887-.304 1.402-.304.902 0 1.58.22 2.037.654.454.435.682 1.13.682 2.088V248h-1.134zm4.6 0h-1.135v-7.492h1.135V248zm-1.23-9.522c0-.26.063-.45.19-.57a.67.67 0 0 1 .48-.182.67.67 0 0 1 .47.184c.133.123.2.312.2.568 0 .255-.067.445-.2.57a.662.662 0 0 1-.47.188.655.655 0 0 1-.48-.188c-.127-.125-.19-.315-.19-.57zm8.428 9.522h-5.434v-.772l4.088-5.838h-3.835v-.882h5.08v.882l-4.034 5.728h4.136V248zm6.365 0l-.225-1.066h-.055c-.373.47-.746.787-1.117.953-.372.167-.835.25-1.39.25-.744 0-1.326-.192-1.748-.575-.422-.382-.632-.927-.632-1.633 0-1.514 1.21-2.307 3.63-2.38l1.27-.04v-.466c0-.588-.125-1.022-.378-1.302s-.658-.42-1.214-.42c-.623 0-1.33.19-2.118.574l-.348-.87c.37-.2.773-.356 1.213-.47.44-.114.88-.17 1.323-.17.893 0 1.555.197 1.985.593.43.396.646 1.032.646 1.907V248h-.84zm-2.563-.8c.707 0 1.26-.193 1.665-.58.403-.388.605-.93.605-1.628v-.677l-1.135.048c-.902.032-1.553.172-1.952.42-.398.25-.598.635-.598 1.16 0 .41.124.722.373.936.248.213.596.32 1.042.32zm8.162 0c.2 0 .394-.015.58-.044.187-.03.335-.06.445-.093v.87c-.123.058-.305.107-.544.146a4.08 4.08 0 0 1-.645.057c-1.45 0-2.174-.764-2.174-2.29v-4.457h-1.072v-.547l1.073-.472.48-1.6h.656v1.738H160v.882h-2.174v4.41c0 .45.107.796.32 1.038.216.24.51.362.883.362zm3.657.8h-1.135v-7.492h1.135V248zm-1.23-9.522c0-.26.063-.45.19-.57a.67.67 0 0 1 .48-.182.67.67 0 0 1 .47.184c.133.123.2.312.2.568 0 .255-.067.445-.2.57a.662.662 0 0 1-.47.188.655.655 0 0 1-.48-.188c-.127-.125-.19-.315-.19-.57zm10.103 5.77c0 1.22-.308 2.174-.923 2.86-.616.686-1.465 1.03-2.55 1.03-.67 0-1.265-.16-1.784-.473a3.113 3.113 0 0 1-1.203-1.353c-.283-.588-.424-1.277-.424-2.065 0-1.22.305-2.173.916-2.854.61-.68 1.458-1.022 2.543-1.022 1.048 0 1.88.35 2.498 1.047.618.697.927 1.64.927 2.83zm-5.708 0c0 .956.19 1.685.574 2.187.383.5.945.752 1.688.752s1.307-.25 1.692-.75c.385-.498.578-1.228.578-2.19 0-.952-.193-1.676-.578-2.17-.385-.495-.953-.742-1.705-.742-.742 0-1.303.244-1.68.73-.38.49-.568 1.216-.568 2.182zM178.676 248v-4.847c0-.61-.14-1.066-.417-1.367-.28-.3-.714-.45-1.307-.45-.784 0-1.358.21-1.723.635-.364.425-.546 1.124-.546 2.1V248h-1.135v-7.492h.922l.184 1.025h.055c.233-.37.56-.655.978-.858.42-.203.887-.304 1.402-.304.902 0 1.58.22 2.037.654.456.435.684 1.13.684 2.088V248h-1.134zm13.555 0l-1.243-3.18h-4.006l-1.23 3.18h-1.175l3.95-10.035h.98l3.93 10.035h-1.204zm-1.605-4.225l-1.162-3.096c-.15-.393-.305-.874-.465-1.444-.1.438-.244.92-.43 1.443l-1.176 3.095h3.233zM70.45 322h-1.162v-8.962h-3.165v-1.032h7.492v1.032H70.45V322zm6.686.137c-1.108 0-1.982-.338-2.622-1.012-.64-.674-.96-1.61-.96-2.81 0-1.207.297-2.167.892-2.877s1.393-1.067 2.396-1.067c.94 0 1.68.31 2.228.927.547.618.82 1.432.82 2.444v.72h-5.16c.022.88.244 1.546.666 2.002.422.456 1.015.684 1.78.684.807 0 1.605-.17 2.393-.506v1.01c-.402.175-.78.3-1.14.374-.357.075-.788.113-1.294.113zm-.308-6.816c-.6 0-1.08.197-1.44.59-.357.39-.567.933-.63 1.626h3.916c0-.715-.16-1.263-.48-1.644-.318-.38-.773-.57-1.366-.57zm9.605 6.68l-.226-1.066h-.055c-.373.47-.746.787-1.117.953-.372.167-.835.25-1.39.25-.744 0-1.326-.192-1.748-.575-.422-.382-.632-.927-.632-1.633 0-1.514 1.21-2.307 3.63-2.38l1.27-.04v-.466c0-.588-.125-1.022-.378-1.302s-.658-.42-1.214-.42c-.624 0-1.33.19-2.12.574l-.348-.87c.37-.2.774-.356 1.214-.47.44-.114.88-.17 1.322-.17.893 0 1.555.197 1.985.593.43.396.646 1.032.646 1.907V322h-.84zm-2.564-.8c.706 0 1.26-.193 1.664-.58.403-.388.605-.93.605-1.628v-.677l-1.136.048c-.902.032-1.553.172-1.952.42-.4.25-.598.635-.598 1.16 0 .41.124.722.373.936.248.213.596.32 1.042.32zm15.29.8v-4.874c0-.597-.126-1.045-.382-1.343-.255-.3-.65-.448-1.19-.448-.706 0-1.227.203-1.565.608-.337.406-.505 1.03-.505 1.873V322h-1.135v-4.874c0-.597-.128-1.045-.383-1.343-.255-.3-.654-.448-1.196-.448-.71 0-1.232.213-1.562.64-.33.425-.496 1.124-.496 2.094V322H89.61v-7.492h.924l.185 1.025h.053a2.23 2.23 0 0 1 .906-.854c.39-.206.825-.31 1.308-.31 1.172 0 1.937.425 2.297 1.273h.055a2.39 2.39 0 0 1 .97-.93 3.012 3.012 0 0 1 1.45-.342c.847 0 1.482.22 1.904.654.42.435.632 1.13.632 2.088V322H99.16zm13.564 0l-1.245-3.18h-4.006l-1.23 3.18h-1.177l3.952-10.035h.976l3.93 10.035h-1.202zm-1.607-4.225l-1.162-3.096c-.15-.393-.305-.874-.465-1.444-.1.438-.244.92-.43 1.443l-1.176 3.095h3.233z" fill="#066DA5"/><path fill="#FFF" d="M280 217h188v179H280z"/><path d="M281 395h186V218H281v177zm-1-178h188v179H280V217z" fill-opacity=".4" fill="#066DA5" fill-rule="nonzero"/><path d="M327.18 264h-1.326l-5.46-8.388h-.056c.073.985.11 1.887.11 2.707V264h-1.074v-9.994h1.313l5.448 8.353h.054c-.01-.124-.03-.52-.062-1.187a20.578 20.578 0 0 1-.034-1.432v-5.734h1.087V264zm9.045-3.753c0 1.22-.308 2.175-.923 2.86-.615.687-1.465 1.03-2.55 1.03-.67 0-1.265-.158-1.784-.472a3.113 3.113 0 0 1-1.203-1.353c-.283-.588-.424-1.277-.424-2.065 0-1.22.306-2.173.917-2.854.61-.68 1.458-1.022 2.543-1.022 1.048 0 1.88.35 2.498 1.047.618.697.927 1.64.927 2.83zm-5.708 0c0 .957.19 1.686.574 2.188.384.5.946.752 1.69.752.742 0 1.306-.25 1.69-.75.386-.498.58-1.228.58-2.19 0-.952-.194-1.676-.58-2.17-.384-.495-.952-.742-1.704-.742-.743 0-1.304.244-1.682.73-.378.49-.567 1.216-.567 2.182zM348.304 264l-1.244-3.18h-4.006l-1.23 3.18h-1.177l3.952-10.035h.976l3.93 10.035h-1.202zm-1.607-4.225l-1.162-3.096c-.15-.393-.305-.874-.465-1.444-.1.438-.244.92-.43 1.443l-1.176 3.095h3.233zm7.007 4.362c-1.085 0-1.924-.334-2.52-1.002-.594-.667-.89-1.612-.89-2.833 0-1.254.3-2.222.905-2.906.603-.683 1.463-1.025 2.58-1.025.36 0 .72.04 1.08.117.36.078.642.17.847.274l-.35.965c-.25-.1-.523-.184-.82-.25a3.663 3.663 0 0 0-.785-.1c-1.522 0-2.283.972-2.283 2.913 0 .92.184 1.627.556 2.12.37.49.922.738 1.65.738.625 0 1.265-.135 1.922-.404v1.005c-.502.26-1.133.39-1.894.39zm6.665 0c-1.086 0-1.925-.334-2.52-1.002-.595-.667-.892-1.612-.892-2.833 0-1.254.302-2.222.906-2.906.604-.683 1.464-1.025 2.58-1.025.36 0 .72.04 1.08.117.36.078.643.17.848.274l-.35.965c-.25-.1-.523-.184-.82-.25a3.663 3.663 0 0 0-.785-.1c-1.522 0-2.283.972-2.283 2.913 0 .92.185 1.627.557 2.12.372.49.923.738 1.652.738.624 0 1.264-.135 1.92-.404v1.005c-.5.26-1.132.39-1.893.39zm6.835 0c-1.107 0-1.98-.338-2.622-1.012-.64-.674-.96-1.61-.96-2.81 0-1.207.297-2.167.892-2.877s1.394-1.067 2.396-1.067c.94 0 1.683.31 2.23.927.547.618.82 1.432.82 2.444v.72h-5.16c.022.88.244 1.546.665 2.002.422.456 1.015.684 1.78.684.808 0 1.605-.17 2.394-.506v1.01c-.402.175-.782.3-1.14.374-.357.075-.79.113-1.295.113zm-.308-6.816c-.6 0-1.08.197-1.44.59-.356.39-.567.933-.63 1.626h3.916c0-.715-.16-1.263-.478-1.644-.32-.38-.775-.57-1.368-.57zm9.83 4.636c0 .697-.26 1.235-.78 1.613-.518.378-1.247.567-2.186.567-.993 0-1.767-.158-2.323-.472v-1.053c.36.183.746.326 1.158.43.413.106.81.158 1.193.158.593 0 1.048-.094 1.367-.283.32-.19.48-.478.48-.865 0-.292-.128-.54-.38-.75-.254-.206-.747-.45-1.48-.734-.698-.26-1.193-.486-1.487-.68a2.03 2.03 0 0 1-.657-.66 1.72 1.72 0 0 1-.214-.88c0-.612.248-1.094.745-1.447.498-.352 1.18-.53 2.045-.53a5.98 5.98 0 0 1 2.365.493l-.403.923c-.752-.31-1.433-.465-2.044-.465-.538 0-.943.086-1.217.254-.273.17-.41.4-.41.697 0 .202.05.373.154.514.102.14.268.276.496.404.227.127.665.312 1.312.553.89.325 1.49.65 1.8.98.313.327.47.74.47 1.236zm6.68 0c0 .697-.26 1.235-.78 1.613-.52.378-1.25.567-2.188.567-.994 0-1.77-.158-2.325-.472v-1.053c.36.183.746.326 1.16.43.41.106.81.158 1.192.158.592 0 1.048-.094 1.367-.283.32-.19.478-.478.478-.865 0-.292-.126-.54-.38-.75-.252-.206-.745-.45-1.48-.734-.696-.26-1.192-.486-1.486-.68a2.03 2.03 0 0 1-.656-.66 1.72 1.72 0 0 1-.215-.88c0-.612.248-1.094.745-1.447.497-.352 1.178-.53 2.044-.53a5.98 5.98 0 0 1 2.365.493l-.404.923c-.752-.31-1.434-.465-2.044-.465-.538 0-.944.086-1.217.254-.273.17-.41.4-.41.697 0 .202.05.373.154.514.1.14.266.276.494.404.228.127.666.312 1.313.553.888.325 1.49.65 1.8.98.313.327.47.74.47 1.236zM320.536 292.844V297h-1.162v-9.994h2.74c1.227 0 2.133.235 2.72.704.584.47.877 1.176.877 2.12 0 1.32-.67 2.214-2.01 2.68l2.715 4.49h-1.374l-2.42-4.156h-2.084zm0-.998h1.593c.82 0 1.42-.163 1.804-.49.382-.325.574-.814.574-1.465 0-.66-.195-1.136-.585-1.428-.39-.292-1.015-.438-1.876-.438h-1.51v3.822zm10.486 5.29c-1.107 0-1.98-.337-2.62-1.01-.64-.675-.962-1.612-.962-2.81 0-1.208.298-2.168.893-2.878.594-.71 1.393-1.067 2.396-1.067.937 0 1.68.31 2.227.927.547.618.82 1.432.82 2.444v.72h-5.16c.022.88.244 1.546.666 2.002.42.456 1.015.684 1.78.684.807 0 1.605-.17 2.393-.506v1.01c-.4.175-.78.3-1.138.374-.358.075-.79.113-1.296.113zm-.307-6.815c-.602 0-1.08.197-1.44.59-.357.39-.568.933-.63 1.626h3.916c0-.715-.16-1.263-.478-1.644-.32-.38-.775-.57-1.367-.57zm9.604 6.68l-.226-1.066h-.055c-.375.47-.747.787-1.12.953-.37.167-.834.25-1.39.25-.743 0-1.325-.192-1.746-.575-.422-.382-.633-.927-.633-1.633 0-1.514 1.21-2.307 3.63-2.38l1.273-.04v-.466c0-.588-.127-1.022-.38-1.302s-.657-.42-1.213-.42c-.624 0-1.33.19-2.12.574l-.348-.87c.37-.2.774-.356 1.214-.47.44-.114.88-.17 1.322-.17.894 0 1.555.197 1.986.593.43.396.646 1.032.646 1.907V297h-.84zm-2.564-.8c.706 0 1.26-.193 1.664-.58.404-.388.605-.93.605-1.628v-.677l-1.134.048c-.902.032-1.552.172-1.95.42-.4.25-.6.635-.6 1.16 0 .41.125.722.373.936.25.213.596.32 1.043.32zm10.842-.205h-.062c-.524.76-1.308 1.142-2.35 1.142-.98 0-1.743-.335-2.288-1.005-.545-.67-.817-1.623-.817-2.858s.274-2.194.82-2.878c.548-.683 1.31-1.025 2.285-1.025 1.016 0 1.795.37 2.337 1.11h.09l-.05-.542-.026-.526v-3.05h1.135V297h-.922l-.15-1.005zm-2.27.192c.775 0 1.337-.21 1.685-.633.35-.42.523-1.102.523-2.04v-.24c0-1.06-.176-1.82-.53-2.273-.353-.452-.917-.68-1.692-.68-.665 0-1.174.26-1.527.777-.354.517-.53 1.248-.53 2.19 0 .958.175 1.68.526 2.168.35.488.866.732 1.545.732zm18.232-4.198c0 1.6-.405 2.857-1.214 3.773-.81.916-1.933 1.374-3.373 1.374-1.472 0-2.608-.45-3.408-1.35-.8-.9-1.2-2.17-1.2-3.81 0-1.628.4-2.89 1.203-3.785.802-.896 1.942-1.343 3.418-1.343 1.436 0 2.557.454 3.364 1.366.806.91 1.21 2.17 1.21 3.773zm-7.964 0c0 1.353.288 2.38.864 3.08.577.698 1.414 1.048 2.513 1.048 1.107 0 1.943-.348 2.508-1.046.567-.697.85-1.725.85-3.083 0-1.345-.282-2.365-.845-3.06-.563-.695-1.396-1.042-2.5-1.042-1.106 0-1.948.35-2.525 1.05-.576.7-.864 1.716-.864 3.05zm15.148 5.01v-4.847c0-.61-.14-1.066-.417-1.367-.278-.3-.713-.45-1.306-.45-.782 0-1.357.21-1.72.635-.366.425-.548 1.124-.548 2.1V297h-1.135v-7.492h.923l.185 1.025h.054c.232-.37.558-.655.977-.858.42-.203.886-.304 1.4-.304.904 0 1.583.22 2.038.654.456.435.684 1.13.684 2.088V297h-1.136zm4.6 0h-1.134v-10.637h1.135V297zm1.218-7.492h1.216l1.64 4.272c.36.976.584 1.68.67 2.113h.056c.06-.233.183-.63.372-1.193.19-.563.808-2.294 1.856-5.192h1.217l-3.22 8.53c-.32.844-.692 1.442-1.12 1.795-.425.354-.948.53-1.567.53-.347 0-.69-.038-1.026-.116v-.91c.25.056.53.083.84.083.78 0 1.336-.438 1.67-1.313l.416-1.066-3.02-7.532zM320.536 363h-1.162v-9.994h5.57v1.032h-4.408v3.657h4.143v1.033h-4.144V363zm6.96-7.492v4.86c0 .61.138 1.067.416 1.367.278.3.713.452 1.306.452.784 0 1.357-.215 1.72-.643.36-.428.542-1.128.542-2.1v-3.936h1.135V363h-.936l-.165-1.005h-.062c-.232.37-.555.652-.967.848-.413.196-.883.294-1.412.294-.91 0-1.594-.217-2.047-.65-.454-.433-.68-1.125-.68-2.078v-4.902h1.148zm8.66 7.492h-1.135v-10.637h1.136V363zm3.54 0h-1.134v-10.637h1.135V363zm10.494-9.1c-1.098 0-1.965.367-2.6 1.1-.636.73-.954 1.73-.954 3.003 0 1.308.306 2.318.92 3.032.612.713 1.486 1.07 2.62 1.07.698 0 1.493-.126 2.387-.376v1.017c-.693.26-1.548.39-2.564.39-1.473 0-2.61-.447-3.41-1.34-.798-.893-1.198-2.163-1.198-3.808 0-1.03.192-1.933.577-2.708a4.147 4.147 0 0 1 1.667-1.79c.727-.42 1.583-.63 2.567-.63 1.048 0 1.964.192 2.748.575l-.492.998c-.757-.356-1.513-.534-2.27-.534zm10.85 5.347c0 1.22-.31 2.175-.924 2.86-.615.687-1.465 1.03-2.55 1.03-.67 0-1.264-.158-1.784-.472a3.113 3.113 0 0 1-1.203-1.353c-.283-.588-.425-1.277-.425-2.065 0-1.22.306-2.173.916-2.854.612-.68 1.46-1.022 2.544-1.022 1.048 0 1.88.35 2.5 1.047.616.697.925 1.64.925 2.83zm-5.71 0c0 .957.192 1.686.575 2.188.383.5.946.752 1.69.752.742 0 1.306-.25 1.69-.75.386-.498.578-1.228.578-2.19 0-.952-.192-1.676-.577-2.17-.385-.495-.954-.742-1.706-.742-.743 0-1.303.244-1.682.73-.378.49-.567 1.216-.567 2.182zM368.156 363v-4.847c0-.61-.14-1.066-.417-1.367-.278-.3-.713-.45-1.305-.45-.784 0-1.358.21-1.723.635-.365.425-.547 1.124-.547 2.1V363h-1.135v-7.492h.923l.186 1.025h.054c.233-.37.56-.655.978-.858.42-.203.886-.304 1.4-.304.904 0 1.583.22 2.038.654.456.435.684 1.13.684 2.088V363h-1.135zm5.886-.8c.202 0 .395-.015.582-.044.187-.03.335-.06.444-.093v.87c-.123.058-.304.107-.543.146a4.08 4.08 0 0 1-.646.057c-1.45 0-2.174-.764-2.174-2.29v-4.457h-1.073v-.547l1.073-.472.48-1.6h.655v1.738h2.174v.882h-2.174v4.41c0 .45.107.796.32 1.038.215.24.51.362.883.362zm5.94-6.83c.334 0 .633.028.897.083l-.157 1.053a3.865 3.865 0 0 0-.82-.103c-.607 0-1.125.246-1.556.74-.43.49-.646 1.104-.646 1.837V363h-1.135v-7.492h.937l.13 1.388h.055c.278-.488.613-.864 1.004-1.128a2.262 2.262 0 0 1 1.29-.397zm8.485 3.877c0 1.22-.308 2.175-.923 2.86-.615.687-1.465 1.03-2.55 1.03-.67 0-1.264-.158-1.784-.472a3.113 3.113 0 0 1-1.203-1.353c-.283-.588-.424-1.277-.424-2.065 0-1.22.306-2.173.917-2.854.61-.68 1.458-1.022 2.543-1.022 1.048 0 1.88.35 2.5 1.047.616.697.925 1.64.925 2.83zm-5.708 0c0 .957.19 1.686.574 2.188.384.5.947.752 1.69.752.742 0 1.306-.25 1.69-.75.387-.498.58-1.228.58-2.19 0-.952-.193-1.676-.58-2.17-.384-.495-.952-.742-1.704-.742-.743 0-1.304.244-1.682.73-.378.49-.567 1.216-.567 2.182zM391.59 363h-1.136v-10.637h1.135V363z" fill="#066DA5"/><path d="M498 306.01l-51 13.517V308H300v16.427l-54-10.996V297h-96v39h96v-18.44l54 10.995V342h147v-18.335l51-13.518V356h80v-83h-80v33.01z" fill="#066DA5"/><path d="M178.113 322h-2.12v-8.23h-2.713v-1.764h7.547v1.764h-2.714V322zm6.276-6.303c-.443 0-.79.14-1.04.42-.25.28-.395.68-.43 1.194h2.925c-.01-.514-.144-.912-.404-1.192-.258-.28-.61-.42-1.05-.42zm.293 6.44c-1.23 0-2.192-.34-2.885-1.02-.693-.678-1.04-1.64-1.04-2.884 0-1.28.32-2.27.96-2.97.642-.7 1.527-1.05 2.657-1.05 1.08 0 1.92.308 2.522.924.602.615.903 1.465.903 2.55v1.01h-4.93c.024.594.2 1.056.527 1.39.33.332.79.498 1.38.498.462 0 .897-.048 1.307-.144.41-.094.84-.247 1.285-.457v1.614a4.896 4.896 0 0 1-1.17.406c-.415.09-.92.134-1.517.134zm9.666-.137l-.405-1.04h-.054c-.35.443-.71.75-1.083.92-.37.17-.855.257-1.453.257-.733 0-1.31-.21-1.732-.63-.422-.418-.633-1.015-.633-1.79 0-.81.283-1.41.85-1.795.568-.385 1.423-.598 2.567-.64l1.326-.04v-.335c0-.775-.396-1.162-1.19-1.162-.61 0-1.328.185-2.152.554l-.69-1.41c.88-.46 1.855-.69 2.926-.69 1.025 0 1.81.224 2.358.67.547.447.82 1.126.82 2.037V322h-1.455zm-.617-3.54l-.806.026c-.606.02-1.058.128-1.354.328-.296.2-.444.506-.444.916 0 .588.336.882 1.01.882.484 0 .87-.14 1.16-.417.29-.278.433-.647.433-1.107v-.63zm11.06 3.54h-2.084v-4.464c0-.55-.093-.965-.278-1.24-.184-.276-.475-.414-.87-.414-.535 0-.922.196-1.164.588-.24.392-.362 1.037-.362 1.934V322h-2.085v-7.643h1.594l.28.978h.116c.206-.35.502-.626.89-.824.386-.197.83-.296 1.332-.296 1.144 0 1.92.374 2.324 1.12h.185c.206-.355.508-.63.907-.826.398-.196.848-.294 1.35-.294.866 0 1.52.222 1.965.666.444.445.667 1.157.667 2.137V322h-2.093v-4.464c0-.55-.092-.965-.277-1.24-.185-.276-.475-.414-.872-.414-.51 0-.892.182-1.145.547-.253.363-.38.942-.38 1.735V322zm10.706-9.994h3.11c1.417 0 2.445.202 3.086.605.64.404.96 1.046.96 1.925 0 .597-.14 1.087-.42 1.47a1.68 1.68 0 0 1-1.118.69v.07c.634.14 1.09.404 1.37.792.28.387.42.902.42 1.545 0 .91-.328 1.622-.987 2.132-.657.51-1.552.766-2.682.766h-3.74v-9.994zm2.118 3.958h1.23c.575 0 .99-.09 1.248-.267.258-.177.386-.47.386-.882 0-.382-.14-.657-.42-.823-.28-.167-.723-.25-1.33-.25h-1.114v2.222zm0 1.682v2.604h1.38c.584 0 1.015-.112 1.293-.335.28-.223.418-.565.418-1.025 0-.83-.592-1.244-1.777-1.244h-1.312zM314.377 324.442h.684c.67 0 1.165-.11 1.484-.335.32-.223.478-.574.478-1.052 0-.474-.162-.812-.488-1.012-.326-.2-.83-.3-1.514-.3h-.643v2.7zm0 1.723V330h-2.12v-9.994h2.913c1.358 0 2.363.247 3.015.742.65.494.977 1.245.977 2.252 0 .588-.162 1.11-.485 1.57-.324.457-.782.816-1.374 1.076a403.613 403.613 0 0 0 2.94 4.354h-2.352l-2.385-3.835h-1.128zm10.124-2.468c-.44 0-.787.14-1.038.42-.25.28-.394.68-.43 1.194h2.925c-.01-.514-.144-.912-.403-1.192-.26-.28-.61-.42-1.053-.42zm.295 6.44c-1.23 0-2.192-.34-2.885-1.02-.693-.678-1.04-1.64-1.04-2.884 0-1.28.32-2.27.962-2.97.64-.7 1.525-1.05 2.655-1.05 1.08 0 1.92.308 2.523.924.6.615.902 1.465.902 2.55v1.01h-4.93c.024.594.2 1.056.528 1.39.328.332.788.498 1.38.498.46 0 .896-.048 1.306-.144.41-.094.84-.247 1.285-.457v1.614a4.896 4.896 0 0 1-1.168.406c-.414.09-.92.134-1.517.134zm10.144-2.407c0 .784-.273 1.38-.817 1.79-.545.412-1.36.617-2.444.617-.557 0-1.03-.038-1.423-.113a5.378 5.378 0 0 1-1.1-.332v-1.722c.387.182.823.335 1.308.458a5.3 5.3 0 0 0 1.282.184c.757 0 1.135-.218 1.135-.656a.548.548 0 0 0-.15-.4c-.1-.102-.274-.22-.52-.348a13.12 13.12 0 0 0-.984-.455c-.588-.246-1.02-.474-1.296-.684a1.924 1.924 0 0 1-.6-.722c-.127-.27-.19-.605-.19-1 0-.68.264-1.206.79-1.577.526-.37 1.273-.556 2.24-.556.92 0 1.815.2 2.685.6l-.628 1.505c-.384-.165-.742-.3-1.075-.404a3.37 3.37 0 0 0-1.018-.157c-.616 0-.923.165-.923.498 0 .187.1.348.297.485.2.137.634.34 1.303.61.597.24 1.035.466 1.313.675.278.21.483.45.615.725.133.273.2.6.2.977zm4.846.746c.365 0 .802-.08 1.313-.24v1.552c-.52.233-1.16.35-1.915.35-.834 0-1.442-.212-1.822-.634-.38-.42-.57-1.053-.57-1.897v-3.684h-1v-.882l1.15-.696.6-1.614h1.334v1.627h2.14v1.566h-2.14v3.684c0 .297.083.515.25.657.166.14.386.212.66.212zm7.123-6.262c.282 0 .516.02.703.06l-.157 1.956a2.388 2.388 0 0 0-.615-.068c-.665 0-1.183.17-1.554.513-.372.342-.557.82-.557 1.435V330h-2.086v-7.643h1.58l.306 1.286h.103c.237-.43.557-.774.96-1.036a2.368 2.368 0 0 1 1.316-.393zm2.002-1.832c0-.68.378-1.02 1.135-1.02.756 0 1.135.34 1.135 1.02 0 .323-.095.575-.284.755-.19.18-.473.27-.85.27-.758 0-1.136-.342-1.136-1.025zm2.174 9.618H349v-7.643h2.086V330zm5.29.137c-2.378 0-3.567-1.306-3.567-3.917 0-1.3.322-2.29.97-2.977.646-.686 1.574-1.03 2.782-1.03.884 0 1.677.174 2.378.52l-.615 1.614c-.328-.132-.633-.24-.916-.325a2.95 2.95 0 0 0-.848-.126c-1.085 0-1.627.77-1.627 2.31 0 1.495.542 2.242 1.627 2.242.4 0 .772-.053 1.114-.16a4.023 4.023 0 0 0 1.025-.503v1.784a3.36 3.36 0 0 1-1.02.444c-.345.082-.78.123-1.303.123zm7.315-1.66c.366 0 .803-.08 1.314-.24v1.55c-.52.234-1.158.35-1.914.35-.834 0-1.44-.21-1.822-.633-.38-.42-.57-1.053-.57-1.897v-3.684h-1v-.882l1.15-.696.6-1.614h1.334v1.627h2.14v1.566h-2.14v3.684c0 .297.083.515.25.657.166.14.386.212.66.212zm6.024-4.78c-.442 0-.79.14-1.04.42-.25.28-.393.68-.43 1.194h2.926c-.01-.514-.144-.912-.403-1.192-.26-.28-.61-.42-1.053-.42zm.294 6.44c-1.23 0-2.192-.34-2.885-1.02-.693-.678-1.04-1.64-1.04-2.884 0-1.28.32-2.27.96-2.97.642-.7 1.527-1.05 2.657-1.05 1.08 0 1.92.308 2.523.924.6.615.902 1.465.902 2.55v1.01h-4.93c.024.594.2 1.056.528 1.39.328.332.788.498 1.38.498.46 0 .896-.048 1.306-.144.41-.094.838-.247 1.284-.457v1.614a4.896 4.896 0 0 1-1.17.406c-.413.09-.92.134-1.516.134zm7.232 0c-.898 0-1.603-.35-2.115-1.046-.513-.696-.77-1.663-.77-2.898 0-1.253.26-2.23.783-2.93.522-.698 1.24-1.048 2.157-1.048.962 0 1.695.374 2.2 1.12h.07a8.524 8.524 0 0 1-.158-1.523v-2.447h2.092V330h-1.6l-.404-.99h-.09c-.473.75-1.195 1.127-2.166 1.127zm.732-1.66c.533 0 .924-.156 1.172-.466.248-.31.384-.836.407-1.578v-.226c0-.82-.126-1.408-.38-1.764-.252-.355-.663-.533-1.233-.533-.464 0-.826.196-1.083.59-.257.395-.386.968-.386 1.72s.13 1.316.39 1.692c.26.376.63.564 1.114.564zm13.754-6.85c-.798 0-1.415.3-1.853.898-.437.6-.656 1.434-.656 2.505 0 2.23.836 3.343 2.51 3.343.7 0 1.55-.175 2.548-.526v1.777c-.82.342-1.736.513-2.748.513-1.453 0-2.565-.44-3.336-1.323-.77-.882-1.154-2.148-1.154-3.797 0-1.04.19-1.95.568-2.73.378-.783.92-1.382 1.63-1.8.71-.416 1.54-.625 2.492-.625.97 0 1.946.235 2.925.704l-.682 1.723c-.374-.18-.75-.334-1.128-.466a3.365 3.365 0 0 0-1.114-.198zm6.172 4.538c0 .757.125 1.328.373 1.716.25.388.654.582 1.214.582.556 0 .956-.193 1.2-.578.244-.385.366-.958.366-1.72 0-.755-.123-1.323-.37-1.7-.245-.38-.65-.568-1.21-.568-.555 0-.956.187-1.202.563-.247.375-.37.944-.37 1.705zm5.285 0c0 1.244-.33 2.217-.985 2.92-.656.7-1.57 1.052-2.74 1.052-.735 0-1.382-.16-1.942-.482-.56-.322-.992-.783-1.292-1.384-.3-.6-.452-1.303-.452-2.105 0-1.25.326-2.22.978-2.912.652-.693 1.568-1.04 2.748-1.04.734 0 1.38.16 1.94.48.562.318.993.776 1.293 1.373.302.597.453 1.297.453 2.1zM411.96 330h-2.085v-4.464c0-.55-.098-.965-.294-1.24-.195-.276-.507-.414-.935-.414-.584 0-1.005.195-1.265.584-.26.39-.39 1.036-.39 1.938V330h-2.085v-7.643h1.593l.28.978h.117c.232-.37.552-.648.96-.837a3.27 3.27 0 0 1 1.39-.284c.89 0 1.564.24 2.025.72.46.482.69 1.176.69 2.083V330zm5.366-1.524c.365 0 .802-.08 1.313-.24v1.552c-.52.233-1.16.35-1.915.35-.834 0-1.442-.212-1.822-.634-.38-.42-.57-1.053-.57-1.897v-3.684h-1v-.882l1.15-.696.6-1.614h1.334v1.627h2.14v1.566h-2.14v3.684c0 .297.083.515.25.657.166.14.386.212.66.212zm7.123-6.262c.282 0 .516.02.703.06l-.157 1.956a2.388 2.388 0 0 0-.615-.068c-.665 0-1.183.17-1.554.513-.372.342-.557.82-.557 1.435V330h-2.086v-7.643h1.58l.306 1.286h.103c.237-.43.557-.774.96-1.036a2.368 2.368 0 0 1 1.316-.393zm3.472 3.95c0 .758.124 1.33.372 1.717.25.388.653.582 1.214.582.556 0 .956-.193 1.2-.578.243-.385.365-.958.365-1.72 0-.755-.123-1.323-.37-1.7-.245-.38-.648-.568-1.21-.568-.555 0-.956.187-1.202.563-.245.375-.368.944-.368 1.705zm5.284 0c0 1.245-.328 2.218-.984 2.92-.657.702-1.57 1.053-2.742 1.053-.733 0-1.38-.16-1.94-.482-.56-.322-.992-.783-1.293-1.384-.3-.6-.45-1.303-.45-2.105 0-1.25.325-2.22.976-2.912.652-.693 1.568-1.04 2.748-1.04.735 0 1.382.16 1.943.48.56.318.99.776 1.292 1.373.3.597.45 1.297.45 2.1zm3.808 3.836h-2.085v-10.637h2.084V330z" fill="#FFF"/><path d="M543.376 248l-.725-2.38h-3.642l-.725 2.38H536l3.527-10.035h2.59L545.66 248h-2.284zm-1.23-4.156a703.65 703.65 0 0 1-1.132-3.657 10.323 10.323 0 0 1-.18-.67c-.15.583-.582 2.025-1.293 4.327h2.606zM625.258 238.006h3.11c1.417 0 2.446.202 3.087.605.64.404.96 1.046.96 1.925 0 .597-.14 1.087-.42 1.47a1.68 1.68 0 0 1-1.118.69v.07c.633.14 1.09.404 1.37.792.28.387.42.902.42 1.545 0 .91-.328 1.622-.987 2.132-.658.51-1.553.766-2.683.766h-3.74v-9.994zm2.12 3.958h1.23c.574 0 .99-.09 1.247-.267.257-.177.386-.47.386-.882 0-.382-.14-.657-.42-.823-.28-.167-.723-.25-1.33-.25h-1.113v2.222zm0 1.682v2.604h1.38c.583 0 1.014-.112 1.292-.335.278-.223.417-.565.417-1.025 0-.83-.593-1.244-1.778-1.244h-1.313zM704.503 239.626c-.798 0-1.415.3-1.853.9-.437.598-.656 1.433-.656 2.504 0 2.23.836 3.343 2.51 3.343.7 0 1.55-.175 2.55-.526v1.777c-.822.342-1.738.513-2.75.513-1.453 0-2.565-.44-3.335-1.323-.77-.882-1.157-2.148-1.157-3.797 0-1.04.19-1.95.568-2.73.38-.783.923-1.382 1.63-1.8.71-.416 1.54-.625 2.493-.625.97 0 1.946.235 2.926.704l-.685 1.723c-.374-.18-.75-.334-1.128-.466a3.365 3.365 0 0 0-1.114-.198z" fill="#066DA5"/><path d="M517.124 295h-2.693l-4.347-7.56h-.062c.088 1.335.13 2.287.13 2.857V295h-1.892v-9.994h2.673l4.34 7.485h.05c-.07-1.298-.103-2.216-.103-2.754v-4.73h1.907V295zm4.013-3.835c0 .757.124 1.328.372 1.716.248.388.652.582 1.213.582.556 0 .956-.193 1.2-.578.243-.385.365-.958.365-1.72 0-.755-.123-1.323-.37-1.7-.245-.38-.648-.568-1.21-.568-.555 0-.956.187-1.202.563-.246.375-.37.944-.37 1.705zm5.284 0c0 1.244-.327 2.217-.983 2.92-.657.7-1.57 1.052-2.742 1.052-.733 0-1.38-.16-1.94-.482-.562-.322-.992-.783-1.293-1.384-.3-.6-.45-1.303-.45-2.105 0-1.25.325-2.22.976-2.912.652-.693 1.568-1.04 2.748-1.04.734 0 1.38.16 1.942.48.56.318.99.776 1.292 1.373.3.597.45 1.297.45 2.1zm4.143 3.972c-.897 0-1.603-.35-2.115-1.046-.513-.696-.77-1.663-.77-2.898 0-1.253.262-2.23.783-2.93.523-.698 1.242-1.048 2.158-1.048.962 0 1.695.374 2.2 1.12h.07a8.524 8.524 0 0 1-.158-1.523v-2.447h2.092V295h-1.6l-.403-.99h-.09c-.473.75-1.196 1.127-2.167 1.127zm.732-1.66c.533 0 .924-.156 1.172-.466.25-.31.384-.836.407-1.578v-.226c0-.82-.126-1.408-.38-1.764-.252-.355-.664-.533-1.233-.533-.464 0-.825.196-1.083.59-.257.395-.386.968-.386 1.72s.13 1.316.39 1.692c.26.376.632.564 1.115.564zm8.873-4.78c-.442 0-.788.14-1.04.42-.25.28-.393.68-.43 1.194h2.926c-.01-.514-.144-.912-.403-1.192-.26-.28-.61-.42-1.052-.42zm.294 6.44c-1.23 0-2.192-.34-2.885-1.02-.693-.678-1.04-1.64-1.04-2.884 0-1.28.32-2.27.962-2.97.64-.7 1.524-1.05 2.654-1.05 1.08 0 1.92.308 2.523.924.6.615.902 1.465.902 2.55v1.01h-4.93c.023.594.2 1.056.527 1.39.328.332.788.498 1.38.498.46 0 .896-.048 1.306-.144.41-.094.84-.247 1.285-.457v1.614a4.896 4.896 0 0 1-1.17.406c-.413.09-.92.134-1.516.134zm14.73-.137l-.723-2.38h-3.645L550.1 295h-2.283l3.528-10.035h2.59L557.478 295h-2.284zm-1.23-4.156a703.535 703.535 0 0 1-1.13-3.657 10.323 10.323 0 0 1-.182-.67c-.15.583-.58 2.025-1.292 4.327h2.605z" fill="#FFF"/><path d="M609.014 292.34c0 .88-.32 1.566-.957 2.058-.638.493-1.504.74-2.598.74-1.186 0-2.097-.154-2.735-.46v-1.12a7.2 7.2 0 0 0 1.34.41c.483.1.96.15 1.435.15.775 0 1.358-.147 1.75-.44.392-.295.588-.704.588-1.228 0-.346-.07-.63-.21-.85-.138-.222-.37-.426-.696-.613-.326-.187-.82-.398-1.487-.635-.93-.333-1.594-.727-1.992-1.183-.4-.457-.6-1.052-.6-1.785 0-.77.29-1.383.87-1.84.578-.455 1.344-.683 2.297-.683.993 0 1.907.183 2.74.547l-.362 1.01c-.824-.345-1.627-.52-2.406-.52-.615 0-1.096.134-1.442.398-.347.264-.52.63-.52 1.1 0 .347.064.63.192.852.127.22.343.423.646.608.303.184.766.388 1.39.612 1.05.373 1.77.774 2.164 1.203.395.428.592.984.592 1.668zm5.038 2.797c-1.108 0-1.982-.338-2.622-1.012-.64-.674-.96-1.61-.96-2.81 0-1.207.297-2.167.892-2.877s1.393-1.067 2.396-1.067c.94 0 1.68.31 2.228.927.547.618.82 1.432.82 2.444v.72h-5.16c.022.88.244 1.546.666 2.002.422.456 1.015.684 1.78.684.807 0 1.605-.17 2.393-.506v1.01c-.4.175-.78.3-1.138.374-.358.075-.79.113-1.295.113zm-.308-6.816c-.6 0-1.08.197-1.44.59-.357.39-.567.933-.63 1.626h3.916c0-.715-.16-1.263-.48-1.644-.318-.38-.773-.57-1.366-.57zm7.99 6.817c-1.083 0-1.923-.334-2.518-1.002-.594-.667-.892-1.612-.892-2.833 0-1.254.302-2.222.906-2.906.604-.683 1.464-1.025 2.58-1.025.36 0 .72.04 1.08.117.36.078.643.17.848.274l-.348.965c-.25-.1-.524-.184-.82-.25a3.663 3.663 0 0 0-.787-.1c-1.522 0-2.283.972-2.283 2.913 0 .92.186 1.627.557 2.12.372.49.922.738 1.65.738.625 0 1.266-.135 1.922-.404v1.005c-.502.26-1.134.39-1.895.39zm7.09-7.766c.333 0 .63.028.896.083l-.158 1.053a3.865 3.865 0 0 0-.82-.103c-.606 0-1.124.246-1.555.74-.43.49-.646 1.104-.646 1.837V295h-1.134v-7.492h.937l.13 1.388h.054c.278-.488.613-.864 1.005-1.128a2.262 2.262 0 0 1 1.292-.397zm5.182 7.767c-1.108 0-1.98-.338-2.622-1.012-.64-.674-.96-1.61-.96-2.81 0-1.207.297-2.167.892-2.877s1.393-1.067 2.396-1.067c.94 0 1.682.31 2.228.927.547.618.82 1.432.82 2.444v.72h-5.16c.022.88.245 1.546.666 2.002.422.456 1.015.684 1.78.684.808 0 1.605-.17 2.393-.506v1.01c-.402.175-.78.3-1.14.374-.356.075-.788.113-1.294.113zm-.308-6.816c-.6 0-1.08.197-1.44.59-.356.39-.567.933-.63 1.626h3.916c0-.715-.16-1.263-.48-1.644-.318-.38-.773-.57-1.366-.57zm7.417 5.88c.2 0 .394-.015.58-.044.188-.03.336-.06.446-.093v.87c-.122.058-.304.107-.543.146a4.08 4.08 0 0 1-.646.057c-1.448 0-2.173-.764-2.173-2.29v-4.457h-1.073v-.547l1.073-.472.48-1.6h.655v1.738h2.174v.882h-2.174v4.41c0 .45.107.796.32 1.038.216.24.51.362.883.362zm12.613.8l-1.245-3.18h-4.005l-1.23 3.18h-1.177l3.952-10.035H651L654.93 295h-1.202zm-1.607-4.225l-1.16-3.096c-.15-.393-.306-.874-.466-1.444-.1.438-.244.92-.43 1.443l-1.176 3.095h3.233zM690.18 295h-1.326l-5.46-8.388h-.056c.073.985.11 1.887.11 2.707V295h-1.074v-9.994h1.313l5.448 8.353h.054c-.01-.124-.03-.52-.062-1.187a20.578 20.578 0 0 1-.034-1.432v-5.734h1.087V295zm9.045-3.753c0 1.22-.308 2.175-.923 2.86-.615.687-1.465 1.03-2.55 1.03-.67 0-1.265-.158-1.784-.472a3.113 3.113 0 0 1-1.203-1.353c-.283-.588-.424-1.277-.424-2.065 0-1.22.306-2.173.917-2.854.61-.68 1.458-1.022 2.543-1.022 1.048 0 1.88.35 2.498 1.047.618.697.927 1.64.927 2.83zm-5.708 0c0 .957.19 1.686.574 2.188.384.5.946.752 1.69.752.742 0 1.306-.25 1.69-.75.386-.498.58-1.228.58-2.19 0-.952-.194-1.676-.58-2.17-.384-.495-.952-.742-1.704-.742-.743 0-1.304.244-1.682.73-.378.49-.567 1.216-.567 2.182zm12.796 2.748h-.06c-.525.76-1.31 1.142-2.353 1.142-.98 0-1.742-.335-2.286-1.005-.545-.67-.817-1.623-.817-2.858s.273-2.194.82-2.878c.547-.683 1.308-1.025 2.283-1.025 1.017 0 1.796.37 2.338 1.11h.09l-.05-.542-.026-.526v-3.05h1.135V295h-.923l-.15-1.005zm-2.27.192c.776 0 1.337-.21 1.686-.633.348-.42.522-1.102.522-2.04v-.24c0-1.06-.177-1.82-.53-2.273-.353-.452-.917-.68-1.692-.68-.665 0-1.174.26-1.528.777-.353.517-.53 1.248-.53 2.19 0 .958.176 1.68.527 2.168.35.488.865.732 1.544.732zm8.915.95c-1.107 0-1.98-.338-2.622-1.012-.64-.674-.96-1.61-.96-2.81 0-1.207.297-2.167.892-2.877s1.393-1.067 2.396-1.067c.94 0 1.682.31 2.23.927.545.618.82 1.432.82 2.444v.72h-5.162c.023.88.245 1.546.666 2.002.422.456 1.015.684 1.78.684.808 0 1.605-.17 2.394-.506v1.01c-.4.175-.78.3-1.14.374-.356.075-.788.113-1.294.113zm-.308-6.816c-.6 0-1.08.197-1.44.59-.356.39-.567.933-.63 1.626h3.916c0-.715-.16-1.263-.478-1.644-.32-.38-.775-.57-1.368-.57zm8.805-3.314h2.823c1.326 0 2.286.198 2.878.595.593.397.89 1.024.89 1.88 0 .593-.166 1.082-.497 1.467-.33.385-.813.634-1.446.748v.07c1.517.258 2.276 1.056 2.276 2.39 0 .894-.302 1.592-.906 2.093-.604.5-1.448.752-2.533.752h-3.485v-9.994zm1.162 4.28h1.914c.822 0 1.412-.13 1.772-.387.36-.26.54-.693.54-1.303 0-.56-.2-.965-.602-1.214-.4-.248-1.04-.372-1.914-.372h-1.71v3.275zm0 .984v3.74h2.085c.807 0 1.414-.157 1.822-.47.408-.312.612-.8.612-1.466 0-.62-.21-1.075-.626-1.367-.417-.292-1.05-.437-1.904-.437h-1.99zM688.014 342.34c0 .88-.32 1.566-.957 2.058-.638.493-1.504.74-2.598.74-1.186 0-2.097-.154-2.735-.46v-1.12a7.2 7.2 0 0 0 1.34.41c.483.1.96.15 1.435.15.775 0 1.358-.147 1.75-.44.392-.295.588-.704.588-1.228 0-.346-.07-.63-.21-.85-.138-.222-.37-.426-.696-.613-.326-.187-.82-.398-1.487-.635-.93-.333-1.594-.727-1.992-1.183-.4-.457-.6-1.052-.6-1.785 0-.77.29-1.383.87-1.84.578-.455 1.344-.683 2.297-.683.993 0 1.907.183 2.74.547l-.362 1.01c-.824-.345-1.627-.52-2.406-.52-.615 0-1.096.134-1.442.398-.347.264-.52.63-.52 1.1 0 .347.064.63.192.852.127.22.343.423.646.608.303.184.766.388 1.39.612 1.05.373 1.77.774 2.164 1.203.395.428.592.984.592 1.668zm5.038 2.797c-1.108 0-1.982-.338-2.622-1.012-.64-.674-.96-1.61-.96-2.81 0-1.207.297-2.167.892-2.877s1.393-1.067 2.396-1.067c.94 0 1.68.31 2.228.927.547.618.82 1.432.82 2.444v.72h-5.16c.022.88.244 1.546.666 2.002.422.456 1.015.684 1.78.684.807 0 1.605-.17 2.393-.506v1.01c-.4.175-.78.3-1.138.374-.358.075-.79.113-1.295.113zm-.308-6.816c-.6 0-1.08.197-1.44.59-.357.39-.567.933-.63 1.626h3.916c0-.715-.16-1.263-.48-1.644-.318-.38-.773-.57-1.366-.57zm8.415-.95c.332 0 .63.028.895.083l-.158 1.053a3.865 3.865 0 0 0-.82-.103c-.606 0-1.124.246-1.555.74-.43.49-.646 1.104-.646 1.837V345h-1.135v-7.492h.938l.13 1.388h.054c.278-.488.613-.864 1.005-1.128a2.262 2.262 0 0 1 1.292-.397zm3.937 7.63l-2.844-7.492h1.217l1.613 4.443c.365 1.04.58 1.715.643 2.025h.054c.05-.242.21-.742.475-1.5.267-.76.865-2.415 1.795-4.967h1.217L706.423 345h-1.326zm6.507 0h-1.134v-7.492h1.134V345zm-1.23-9.522c0-.26.064-.45.19-.57a.67.67 0 0 1 .48-.182.67.67 0 0 1 .472.184c.132.123.198.312.198.568 0 .255-.066.445-.198.57a.662.662 0 0 1-.472.188.655.655 0 0 1-.48-.188c-.126-.125-.19-.315-.19-.57zm6.63 9.66c-1.084 0-1.923-.335-2.518-1.003-.595-.667-.892-1.612-.892-2.833 0-1.254.302-2.222.906-2.906.603-.683 1.464-1.025 2.58-1.025.36 0 .72.04 1.08.117.36.078.643.17.848.274l-.35.965c-.25-.1-.523-.184-.82-.25a3.663 3.663 0 0 0-.785-.1c-1.522 0-2.283.972-2.283 2.913 0 .92.185 1.627.557 2.12.37.49.92.738 1.65.738.625 0 1.265-.135 1.92-.404v1.005c-.5.26-1.13.39-1.892.39zm6.837 0c-1.107 0-1.98-.34-2.62-1.013-.64-.674-.96-1.61-.96-2.81 0-1.207.296-2.167.89-2.877.596-.71 1.394-1.067 2.397-1.067.94 0 1.682.31 2.228.927.547.618.82 1.432.82 2.444v.72h-5.16c.022.88.245 1.546.666 2.002.423.456 1.016.684 1.782.684.806 0 1.604-.17 2.392-.506v1.01c-.4.175-.78.3-1.138.374-.358.075-.79.113-1.295.113zm-.307-6.817c-.6 0-1.08.197-1.44.59-.357.39-.567.933-.63 1.626h3.916c0-.715-.16-1.263-.48-1.644-.32-.38-.774-.57-1.367-.57zm8.805-3.314h2.823c1.327 0 2.287.198 2.88.595.592.397.888 1.024.888 1.88 0 .593-.165 1.082-.496 1.467-.33.385-.812.634-1.446.748v.07c1.518.258 2.277 1.056 2.277 2.39 0 .894-.302 1.592-.906 2.093-.604.5-1.448.752-2.533.752h-3.486v-9.994zm1.162 4.28h1.914c.82 0 1.41-.13 1.77-.387.36-.26.54-.693.54-1.303 0-.56-.2-.965-.6-1.214-.402-.248-1.04-.372-1.915-.372h-1.71v3.275zm0 .984v3.74h2.085c.807 0 1.414-.157 1.822-.47.408-.312.612-.8.612-1.466 0-.62-.21-1.075-.627-1.367-.417-.292-1.052-.437-1.904-.437h-1.99z" fill="#066DA5"/><path d="M514.157 317.225c0 .902-.324 1.613-.974 2.132-.65.52-1.553.78-2.71.78-1.067 0-2.01-.2-2.83-.602v-1.97c.674.302 1.245.514 1.712.637.467.123.894.185 1.282.185.465 0 .82-.09 1.07-.267.248-.178.372-.442.372-.793a.875.875 0 0 0-.165-.523c-.11-.152-.27-.3-.482-.44-.212-.142-.644-.368-1.295-.677-.61-.288-1.07-.563-1.374-.828a3.105 3.105 0 0 1-.732-.923c-.182-.35-.273-.762-.273-1.23 0-.885.298-1.58.898-2.086.6-.505 1.427-.758 2.485-.758.52 0 1.015.062 1.486.185.47.123.964.296 1.48.52l-.684 1.647c-.533-.22-.974-.372-1.323-.458a4.258 4.258 0 0 0-1.03-.13c-.4 0-.707.093-.922.28a.925.925 0 0 0-.32.732c0 .187.043.35.13.488.087.14.224.274.414.404.19.13.636.363 1.343.7.934.447 1.574.895 1.92 1.344.347.45.52 1 .52 1.65zm4.813-3.528c-.442 0-.79.14-1.04.42-.25.28-.394.68-.43 1.194h2.926c-.01-.514-.144-.912-.404-1.192-.26-.28-.61-.42-1.052-.42zm.294 6.44c-1.23 0-2.192-.34-2.885-1.02-.694-.678-1.04-1.64-1.04-2.884 0-1.28.32-2.27.96-2.97.64-.7 1.526-1.05 2.656-1.05 1.08 0 1.92.308 2.523.924.6.615.9 1.465.9 2.55v1.01h-4.928c.023.594.198 1.056.527 1.39.327.332.787.498 1.38.498.46 0 .895-.048 1.305-.144.41-.094.84-.247 1.285-.457v1.614a4.896 4.896 0 0 1-1.17.406c-.413.09-.92.134-1.516.134zm7.916 0c-2.38 0-3.57-1.306-3.57-3.917 0-1.3.325-2.29.972-2.977.647-.686 1.575-1.03 2.782-1.03.884 0 1.677.174 2.38.52l-.616 1.614c-.328-.132-.634-.24-.916-.325a2.95 2.95 0 0 0-.848-.126c-1.084 0-1.627.77-1.627 2.31 0 1.495.543 2.242 1.627 2.242.4 0 .773-.053 1.115-.16a4.023 4.023 0 0 0 1.024-.503v1.784a3.36 3.36 0 0 1-1.022.444c-.344.082-.778.123-1.302.123zm8.36-7.923c.283 0 .517.02.704.06l-.157 1.956a2.388 2.388 0 0 0-.615-.068c-.666 0-1.184.17-1.555.513-.372.342-.558.82-.558 1.435V320h-2.086v-7.643h1.58l.307 1.286h.104c.237-.43.557-.774.96-1.036a2.368 2.368 0 0 1 1.316-.393zm4.977 1.483c-.442 0-.79.14-1.04.42-.25.28-.394.68-.43 1.194h2.926c-.01-.514-.144-.912-.404-1.192-.26-.28-.61-.42-1.053-.42zm.294 6.44c-1.23 0-2.192-.34-2.884-1.02-.693-.678-1.04-1.64-1.04-2.884 0-1.28.32-2.27.96-2.97.64-.7 1.527-1.05 2.657-1.05 1.08 0 1.92.308 2.522.924.602.615.903 1.465.903 2.55v1.01h-4.93c.024.594.2 1.056.527 1.39.33.332.79.498 1.38.498.462 0 .897-.048 1.307-.144.41-.094.838-.247 1.285-.457v1.614a4.896 4.896 0 0 1-1.17.406c-.414.09-.92.134-1.516.134zm8.033-1.66c.364 0 .802-.08 1.312-.24v1.55c-.52.234-1.157.35-1.914.35-.833 0-1.44-.21-1.82-.633-.38-.42-.57-1.053-.57-1.897v-3.684h-1v-.882l1.15-.696.6-1.614h1.334v1.627h2.14v1.566h-2.14v3.684c0 .297.083.515.25.657.165.14.385.212.66.212zm6.658-8.47h3.11c1.42 0 2.447.2 3.088.604.64.404.96 1.046.96 1.925 0 .597-.14 1.087-.42 1.47a1.68 1.68 0 0 1-1.118.69v.07c.634.14 1.09.404 1.37.792.28.387.42.902.42 1.545 0 .91-.328 1.622-.987 2.132-.658.51-1.553.766-2.683.766h-3.74v-9.994zm2.12 3.957h1.23c.575 0 .99-.09 1.248-.267.258-.177.386-.47.386-.882 0-.382-.14-.657-.42-.823-.28-.167-.724-.25-1.33-.25h-1.114v2.222zm0 1.682v2.604H559c.584 0 1.015-.112 1.293-.335.278-.223.417-.565.417-1.025 0-.83-.592-1.244-1.777-1.244h-1.313z" fill="#FFF"/><path d="M609.014 317.34c0 .88-.32 1.566-.957 2.058-.638.493-1.504.74-2.598.74-1.186 0-2.097-.154-2.735-.46v-1.12a7.2 7.2 0 0 0 1.34.41c.483.1.96.15 1.435.15.775 0 1.358-.147 1.75-.44.392-.295.588-.704.588-1.228 0-.346-.07-.63-.21-.85-.138-.222-.37-.426-.696-.613-.326-.187-.82-.398-1.487-.635-.93-.333-1.594-.727-1.992-1.183-.4-.457-.6-1.052-.6-1.785 0-.77.29-1.383.87-1.84.578-.455 1.344-.683 2.297-.683.993 0 1.907.183 2.74.547l-.362 1.01c-.824-.345-1.627-.52-2.406-.52-.615 0-1.096.134-1.442.398-.347.264-.52.63-.52 1.1 0 .347.064.63.192.852.127.22.343.423.646.608.303.184.766.388 1.39.612 1.05.373 1.77.774 2.164 1.203.395.428.592.984.592 1.668zm4.293 1.86c.2 0 .394-.015.58-.044.188-.03.336-.06.445-.093v.87c-.123.058-.304.107-.543.146a4.08 4.08 0 0 1-.647.057c-1.45 0-2.174-.764-2.174-2.29v-4.457h-1.074v-.547l1.073-.472.477-1.6h.657v1.738h2.173v.882h-2.173v4.41c0 .45.107.796.32 1.038.215.24.51.362.883.362zm7.13.8l-.226-1.066h-.054c-.373.47-.746.787-1.117.953-.373.167-.837.25-1.393.25-.742 0-1.325-.192-1.746-.575-.42-.382-.63-.927-.63-1.633 0-1.514 1.21-2.307 3.628-2.38l1.272-.04v-.466c0-.588-.127-1.022-.38-1.302-.252-.28-.657-.42-1.213-.42-.624 0-1.33.19-2.12.574l-.348-.87c.37-.2.773-.356 1.213-.47.44-.114.88-.17 1.323-.17.893 0 1.555.197 1.985.593.432.396.647 1.032.647 1.907V320h-.84zm-2.564-.8c.706 0 1.26-.193 1.665-.58.403-.388.605-.93.605-1.628v-.677l-1.135.048c-.903.032-1.553.172-1.952.42-.4.25-.598.635-.598 1.16 0 .41.124.722.373.936.25.213.596.32 1.043.32zm8.736.937c-1.085 0-1.925-.334-2.52-1.002-.594-.667-.892-1.612-.892-2.833 0-1.254.302-2.222.906-2.906.604-.683 1.464-1.025 2.58-1.025.36 0 .72.04 1.08.117.36.078.643.17.848.274l-.348.965c-.25-.1-.524-.184-.82-.25a3.663 3.663 0 0 0-.787-.1c-1.522 0-2.283.972-2.283 2.913 0 .92.186 1.627.557 2.12.373.49.923.738 1.652.738.624 0 1.265-.135 1.92-.404v1.005c-.5.26-1.132.39-1.893.39zm4.79-3.972c.197-.278.496-.643.897-1.094l2.42-2.562h1.346l-3.035 3.192 3.247 4.3H634.9l-2.644-3.54-.855.737V320h-1.12v-10.637h1.12v5.64c0 .25-.017.638-.053 1.162h.054zm14.316-5.264c-1.098 0-1.966.367-2.6 1.1-.637.73-.955 1.73-.955 3.003 0 1.308.308 2.318.92 3.032.614.713 1.487 1.07 2.622 1.07.697 0 1.493-.126 2.386-.376v1.017c-.693.26-1.547.39-2.564.39-1.472 0-2.607-.447-3.407-1.34-.8-.893-1.2-2.163-1.2-3.808 0-1.03.193-1.933.578-2.708a4.147 4.147 0 0 1 1.668-1.79c.726-.42 1.582-.63 2.566-.63 1.048 0 1.964.192 2.748.575l-.493.998c-.756-.356-1.513-.534-2.27-.534zM690.18 320h-1.326l-5.46-8.388h-.056c.073.985.11 1.887.11 2.707V320h-1.074v-9.994h1.313l5.448 8.353h.054c-.01-.124-.03-.52-.062-1.187a20.578 20.578 0 0 1-.034-1.432v-5.734h1.087V320zm9.045-3.753c0 1.22-.308 2.175-.923 2.86-.615.687-1.465 1.03-2.55 1.03-.67 0-1.265-.158-1.784-.472a3.113 3.113 0 0 1-1.203-1.353c-.283-.588-.424-1.277-.424-2.065 0-1.22.306-2.173.917-2.854.61-.68 1.458-1.022 2.543-1.022 1.048 0 1.88.35 2.498 1.047.618.697.927 1.64.927 2.83zm-5.708 0c0 .957.19 1.686.574 2.188.384.5.946.752 1.69.752.742 0 1.306-.25 1.69-.75.386-.498.58-1.228.58-2.19 0-.952-.194-1.676-.58-2.17-.384-.495-.952-.742-1.704-.742-.743 0-1.304.244-1.682.73-.378.49-.567 1.216-.567 2.182zm12.796 2.748h-.06c-.525.76-1.31 1.142-2.353 1.142-.98 0-1.742-.335-2.286-1.005-.545-.67-.817-1.623-.817-2.858s.273-2.194.82-2.878c.547-.683 1.308-1.025 2.283-1.025 1.017 0 1.796.37 2.338 1.11h.09l-.05-.542-.026-.526v-3.05h1.135V320h-.923l-.15-1.005zm-2.27.192c.776 0 1.337-.21 1.686-.633.348-.42.522-1.102.522-2.04v-.24c0-1.06-.177-1.82-.53-2.273-.353-.452-.917-.68-1.692-.68-.665 0-1.174.26-1.528.777-.353.517-.53 1.248-.53 2.19 0 .958.176 1.68.527 2.168.35.488.865.732 1.544.732zm8.915.95c-1.107 0-1.98-.338-2.622-1.012-.64-.674-.96-1.61-.96-2.81 0-1.207.297-2.167.892-2.877s1.393-1.067 2.396-1.067c.94 0 1.682.31 2.23.927.545.618.82 1.432.82 2.444v.72h-5.162c.023.88.245 1.546.666 2.002.422.456 1.015.684 1.78.684.808 0 1.605-.17 2.394-.506v1.01c-.4.175-.78.3-1.14.374-.356.075-.788.113-1.294.113zm-.308-6.816c-.6 0-1.08.197-1.44.59-.356.39-.567.933-.63 1.626h3.916c0-.715-.16-1.263-.478-1.644-.32-.38-.775-.57-1.368-.57zm13.084-2.42c-1.098 0-1.965.367-2.6 1.1-.636.73-.954 1.73-.954 3.003 0 1.308.306 2.318.92 3.032.612.713 1.486 1.07 2.62 1.07.698 0 1.493-.126 2.386-.376v1.017c-.692.26-1.547.39-2.563.39-1.472 0-2.608-.447-3.408-1.34-.8-.893-1.2-2.163-1.2-3.808 0-1.03.193-1.933.578-2.708a4.147 4.147 0 0 1 1.668-1.79c.728-.42 1.584-.63 2.568-.63 1.048 0 1.964.192 2.748.575l-.492.998c-.757-.356-1.513-.534-2.27-.534zM688.014 367.34c0 .88-.32 1.566-.957 2.058-.638.493-1.504.74-2.598.74-1.186 0-2.097-.154-2.735-.46v-1.12a7.2 7.2 0 0 0 1.34.41c.483.1.96.15 1.435.15.775 0 1.358-.147 1.75-.44.392-.295.588-.704.588-1.228 0-.346-.07-.63-.21-.85-.138-.222-.37-.426-.696-.613-.326-.187-.82-.398-1.487-.635-.93-.333-1.594-.727-1.992-1.183-.4-.457-.6-1.052-.6-1.785 0-.77.29-1.383.87-1.84.578-.455 1.344-.683 2.297-.683.993 0 1.907.183 2.74.547l-.362 1.01c-.824-.345-1.627-.52-2.406-.52-.615 0-1.096.134-1.442.398-.347.264-.52.63-.52 1.1 0 .347.064.63.192.852.127.22.343.423.646.608.303.184.766.388 1.39.612 1.05.373 1.77.774 2.164 1.203.395.428.592.984.592 1.668zm5.038 2.797c-1.108 0-1.982-.338-2.622-1.012-.64-.674-.96-1.61-.96-2.81 0-1.207.297-2.167.892-2.877s1.393-1.067 2.396-1.067c.94 0 1.68.31 2.228.927.547.618.82 1.432.82 2.444v.72h-5.16c.022.88.244 1.546.666 2.002.422.456 1.015.684 1.78.684.807 0 1.605-.17 2.393-.506v1.01c-.4.175-.78.3-1.138.374-.358.075-.79.113-1.295.113zm-.308-6.816c-.6 0-1.08.197-1.44.59-.357.39-.567.933-.63 1.626h3.916c0-.715-.16-1.263-.48-1.644-.318-.38-.773-.57-1.366-.57zm8.415-.95c.332 0 .63.028.895.083l-.158 1.053a3.865 3.865 0 0 0-.82-.103c-.606 0-1.124.246-1.555.74-.43.49-.646 1.104-.646 1.837V370h-1.135v-7.492h.938l.13 1.388h.054c.278-.488.613-.864 1.005-1.128a2.262 2.262 0 0 1 1.292-.397zm3.937 7.63l-2.844-7.492h1.217l1.613 4.443c.365 1.04.58 1.715.643 2.025h.054c.05-.242.21-.742.475-1.5.267-.76.865-2.415 1.795-4.967h1.217L706.423 370h-1.326zm6.507 0h-1.134v-7.492h1.134V370zm-1.23-9.522c0-.26.064-.45.19-.57a.67.67 0 0 1 .48-.182.67.67 0 0 1 .472.184c.132.123.198.312.198.568 0 .255-.066.445-.198.57a.662.662 0 0 1-.472.188.655.655 0 0 1-.48-.188c-.126-.125-.19-.315-.19-.57zm6.63 9.66c-1.084 0-1.923-.335-2.518-1.003-.595-.667-.892-1.612-.892-2.833 0-1.254.302-2.222.906-2.906.603-.683 1.464-1.025 2.58-1.025.36 0 .72.04 1.08.117.36.078.643.17.848.274l-.35.965c-.25-.1-.523-.184-.82-.25a3.663 3.663 0 0 0-.785-.1c-1.522 0-2.283.972-2.283 2.913 0 .92.185 1.627.557 2.12.37.49.92.738 1.65.738.625 0 1.265-.135 1.92-.404v1.005c-.5.26-1.13.39-1.892.39zm6.837 0c-1.107 0-1.98-.34-2.62-1.013-.64-.674-.96-1.61-.96-2.81 0-1.207.296-2.167.89-2.877.596-.71 1.394-1.067 2.397-1.067.94 0 1.682.31 2.228.927.547.618.82 1.432.82 2.444v.72h-5.16c.022.88.245 1.546.666 2.002.423.456 1.016.684 1.782.684.806 0 1.604-.17 2.392-.506v1.01c-.4.175-.78.3-1.138.374-.358.075-.79.113-1.295.113zm-.307-6.817c-.6 0-1.08.197-1.44.59-.357.39-.567.933-.63 1.626h3.916c0-.715-.16-1.263-.48-1.644-.32-.38-.774-.57-1.367-.57zm13.084-2.42c-1.098 0-1.965.367-2.6 1.1-.637.73-.955 1.73-.955 3.003 0 1.308.307 2.318.92 3.032.613.713 1.487 1.07 2.622 1.07.697 0 1.492-.126 2.385-.376v1.017c-.693.26-1.548.39-2.564.39-1.472 0-2.608-.447-3.408-1.34-.8-.893-1.2-2.163-1.2-3.808 0-1.03.193-1.933.578-2.708a4.147 4.147 0 0 1 1.668-1.79c.727-.42 1.582-.63 2.567-.63 1.05 0 1.965.192 2.75.575l-.493.998c-.757-.356-1.513-.534-2.27-.534z" fill="#066DA5"/><path d="M514.157 342.225c0 .902-.324 1.613-.974 2.132-.65.52-1.553.78-2.71.78-1.067 0-2.01-.2-2.83-.602v-1.97c.674.302 1.245.514 1.712.637.467.123.894.185 1.282.185.465 0 .82-.09 1.07-.267.248-.178.372-.442.372-.793a.875.875 0 0 0-.165-.523c-.11-.152-.27-.3-.482-.44-.212-.142-.644-.368-1.295-.677-.61-.288-1.07-.563-1.374-.828a3.105 3.105 0 0 1-.732-.923c-.182-.35-.273-.762-.273-1.23 0-.885.298-1.58.898-2.086.6-.505 1.427-.758 2.485-.758.52 0 1.015.062 1.486.185.47.123.964.296 1.48.52l-.684 1.647c-.533-.22-.974-.372-1.323-.458a4.258 4.258 0 0 0-1.03-.13c-.4 0-.707.093-.922.28a.925.925 0 0 0-.32.732c0 .187.043.35.13.488.087.14.224.274.414.404.19.13.636.363 1.343.7.934.447 1.574.895 1.92 1.344.347.45.52 1 .52 1.65zm4.813-3.528c-.442 0-.79.14-1.04.42-.25.28-.394.68-.43 1.194h2.926c-.01-.514-.144-.912-.404-1.192-.26-.28-.61-.42-1.052-.42zm.294 6.44c-1.23 0-2.192-.34-2.885-1.02-.694-.678-1.04-1.64-1.04-2.884 0-1.28.32-2.27.96-2.97.64-.7 1.526-1.05 2.656-1.05 1.08 0 1.92.308 2.523.924.6.615.9 1.465.9 2.55v1.01h-4.928c.023.594.198 1.056.527 1.39.327.332.787.498 1.38.498.46 0 .895-.048 1.305-.144.41-.094.84-.247 1.285-.457v1.614a4.896 4.896 0 0 1-1.17.406c-.413.09-.92.134-1.516.134zm9.078-7.923c.282 0 .517.02.704.06l-.157 1.956a2.388 2.388 0 0 0-.617-.068c-.665 0-1.183.17-1.555.513-.37.342-.557.82-.557 1.435V345h-2.084v-7.643h1.58l.307 1.286h.102c.237-.43.558-.774.96-1.036a2.368 2.368 0 0 1 1.317-.393zm3.91 7.786l-2.912-7.643h2.18l1.477 4.355a7.77 7.77 0 0 1 .308 1.565h.04c.023-.437.126-.96.308-1.565l1.47-4.355h2.18l-2.91 7.643h-2.14zm6.057-9.618c0-.68.377-1.02 1.133-1.02.757 0 1.135.34 1.135 1.02 0 .323-.094.575-.284.755-.19.18-.472.27-.85.27-.757 0-1.135-.342-1.135-1.025zM540.48 345h-2.085v-7.643h2.085V345zm5.29.137c-2.377 0-3.567-1.306-3.567-3.917 0-1.3.324-2.29.97-2.977.648-.686 1.575-1.03 2.783-1.03.884 0 1.677.174 2.38.52l-.616 1.614c-.328-.132-.634-.24-.916-.325a2.95 2.95 0 0 0-.848-.126c-1.085 0-1.627.77-1.627 2.31 0 1.495.543 2.242 1.628 2.242.4 0 .772-.053 1.114-.16a4.023 4.023 0 0 0 1.026-.503v1.784a3.36 3.36 0 0 1-1.022.444c-.344.082-.778.123-1.303.123zm7.26-6.44c-.44 0-.787.14-1.038.42-.25.28-.394.68-.43 1.194h2.925c-.01-.514-.144-.912-.404-1.192-.26-.28-.61-.42-1.053-.42zm.295 6.44c-1.23 0-2.192-.34-2.885-1.02-.692-.678-1.04-1.64-1.04-2.884 0-1.28.32-2.27.962-2.97.64-.7 1.525-1.05 2.656-1.05 1.08 0 1.92.308 2.522.924.602.615.902 1.465.902 2.55v1.01h-4.928c.022.594.198 1.056.526 1.39.328.332.788.498 1.38.498.46 0 .896-.048 1.307-.144.41-.094.837-.247 1.284-.457v1.614a4.896 4.896 0 0 1-1.17.406c-.414.09-.92.134-1.517.134zM568.06 345l-.726-2.38h-3.644l-.724 2.38h-2.283l3.527-10.035h2.59L570.343 345h-2.283zm-1.232-4.156a703.762 703.762 0 0 1-1.13-3.657 10.324 10.324 0 0 1-.182-.67c-.15.583-.58 2.025-1.292 4.327h2.604z" fill="#FFF"/><path d="M202.694 131.554l-.13-.194c.327-1.26.848-2.663 1.563-4.21h1.08c-.175.674-.35 1.434-.522 2.28a32.63 32.63 0 0 0-.373 2.124h-1.618zm-3.243 0l-.104-.194c.13-.527.337-1.183.624-1.968.287-.786.594-1.533.923-2.242h1.08a42.608 42.608 0 0 0-.905 4.404h-1.617zM211.564 140h-2.1v-11.048h-3.78v-1.802h9.66v1.802h-3.78V140zm9.773.176c-1.512 0-2.694-.44-3.546-1.323-.853-.882-1.28-2.096-1.28-3.643 0-1.588.396-2.836 1.187-3.744.79-.908 1.878-1.362 3.26-1.362 1.284 0 2.298.39 3.042 1.168.743.78 1.115 1.852 1.115 3.217v1.115h-6.477c.03.944.284 1.67.764 2.176.48.508 1.158.76 2.03.76.575 0 1.11-.053 1.605-.162a8.408 8.408 0 0 0 1.595-.54v1.68c-.504.24-1.014.41-1.53.508-.515.1-1.104.15-1.766.15zm-.378-8.508c-.656 0-1.182.208-1.578.624-.395.416-.63 1.022-.707 1.82h4.412c-.012-.803-.205-1.41-.58-1.824-.375-.413-.89-.62-1.547-.62zM233.544 140l-.413-1.354h-.07c-.468.592-.94.995-1.414 1.21-.475.213-1.084.32-1.83.32-.954 0-1.7-.258-2.235-.774-.536-.515-.804-1.245-.804-2.188 0-1.002.372-1.758 1.117-2.268.744-.51 1.877-.788 3.4-.835l1.68-.05v-.52c0-.62-.145-1.085-.435-1.393-.29-.308-.74-.46-1.35-.46-.498 0-.975.072-1.432.218-.457.147-.897.32-1.32.52l-.666-1.478a7.19 7.19 0 0 1 1.73-.628 7.968 7.968 0 0 1 1.776-.216c1.237 0 2.17.27 2.8.808.63.54.945 1.386.945 2.54V140h-1.476zm-3.076-1.406c.75 0 1.352-.21 1.806-.63.454-.418.68-1.005.68-1.76v-.845l-1.247.052c-.973.035-1.68.198-2.123.488-.442.29-.663.734-.663 1.33 0 .435.13.77.388 1.008.257.237.644.356 1.16.356zM246.095 140h-2.074v-5.994c0-.744-.14-1.3-.42-1.666-.283-.366-.722-.55-1.32-.55-.797 0-1.38.26-1.753.78-.372.517-.558 1.38-.558 2.587V140h-2.067v-9.72h1.618l.29 1.274h.106c.27-.463.66-.82 1.173-1.073a3.783 3.783 0 0 1 1.69-.376c1.495 0 2.486.51 2.972 1.53h.14c.288-.482.692-.857 1.213-1.126.522-.27 1.12-.404 1.793-.404 1.16 0 2.006.292 2.536.878.53.586.795 1.48.795 2.68V140h-2.066v-5.994c0-.744-.142-1.3-.426-1.666-.284-.366-.725-.55-1.323-.55-.803 0-1.39.252-1.762.752-.372.5-.558 1.27-.558 2.308V140zm13.913-12.85h3.814c1.77 0 3.05.258 3.837.774.787.515 1.18 1.33 1.18 2.443 0 .75-.193 1.374-.58 1.872-.386.497-.943.81-1.67.94v.088c.903.17 1.567.505 1.992 1.006.424.5.637 1.18.637 2.035 0 1.153-.404 2.057-1.21 2.71-.805.653-1.926.98-3.362.98h-4.64v-12.85zm2.1 5.31h2.022c.88 0 1.52-.14 1.925-.418.404-.28.606-.752.606-1.42 0-.603-.217-1.04-.654-1.31-.436-.27-1.13-.404-2.078-.404h-1.82v3.55zm0 1.704v4.07h2.233c.88 0 1.543-.17 1.992-.506.448-.337.672-.87.672-1.595 0-.668-.23-1.163-.686-1.486-.457-.322-1.15-.483-2.083-.483h-2.127zm20.9 5.836v-6.23c0-.787-.178-1.373-.535-1.76-.358-.386-.917-.58-1.68-.58-1.013 0-1.752.276-2.218.827-.466.55-.7 1.453-.7 2.707V140h-1.458v-13.676h1.46v4.14c0 .498-.024.91-.07 1.24h.087a2.976 2.976 0 0 1 1.226-1.095c.53-.268 1.135-.4 1.815-.4 1.177 0 2.06.28 2.65.838.588.56.883 1.45.883 2.668V140h-1.46zm10.38 0l-.29-1.37h-.07c-.48.602-.96 1.01-1.437 1.225-.476.214-1.072.32-1.787.32-.955 0-1.704-.245-2.246-.738-.542-.492-.813-1.192-.813-2.1 0-1.945 1.556-2.965 4.667-3.06l1.636-.05v-.6c0-.755-.163-1.313-.488-1.673-.325-.36-.845-.54-1.56-.54-.803 0-1.71.245-2.725.737l-.448-1.115c.475-.258.995-.46 1.56-.606a6.757 6.757 0 0 1 1.7-.22c1.15 0 2 .254 2.554.764.553.51.83 1.327.83 2.452V140h-1.08zm-3.295-1.028c.908 0 1.62-.25 2.14-.747.518-.498.778-1.196.778-2.092v-.87l-1.458.06c-1.16.042-1.997.222-2.51.542-.512.32-.77.816-.77 1.49 0 .527.16.928.48 1.204.32.274.767.412 1.34.412zm13.596-1.6c0 .897-.335 1.588-1.002 2.074-.668.487-1.606.73-2.813.73-1.277 0-2.273-.202-2.988-.607v-1.354c.463.234.96.42 1.49.554a6.22 6.22 0 0 0 1.533.202c.762 0 1.348-.122 1.758-.365.41-.243.615-.614.615-1.112 0-.375-.162-.696-.488-.962-.325-.267-.96-.582-1.902-.945-.897-.334-1.534-.626-1.912-.875-.377-.25-.658-.53-.843-.848-.184-.316-.277-.694-.277-1.134 0-.784.32-1.403.958-1.857.64-.455 1.515-.682 2.628-.682 1.037 0 2.05.212 3.04.634l-.517 1.187c-.968-.398-1.844-.597-2.63-.597-.69 0-1.212.108-1.564.325-.35.217-.527.516-.527.897 0 .258.065.477.197.66.132.18.344.353.637.518.293.164.855.4 1.687.71 1.144.417 1.916.836 2.317 1.258.402.423.602.953.602 1.592zm9.298-4.245h1.46c.978 0 1.687-.182 2.126-.545.44-.363.66-.902.66-1.617 0-.727-.238-1.248-.713-1.565-.473-.316-1.188-.474-2.143-.474h-1.39v4.2zm0 1.74V140h-2.1v-12.85h3.63c1.658 0 2.885.31 3.682.932.797.62 1.196 1.56 1.196 2.813 0 1.6-.833 2.74-2.497 3.418l3.63 5.687h-2.39l-3.077-5.133h-2.075zm13.43 5.31c-1.512 0-2.694-.442-3.546-1.324-.853-.882-1.28-2.096-1.28-3.643 0-1.588.396-2.836 1.187-3.744.79-.908 1.877-1.362 3.26-1.362 1.283 0 2.297.39 3.04 1.168.745.78 1.117 1.852 1.117 3.217v1.115h-6.477c.03.944.284 1.67.764 2.176.48.508 1.158.76 2.03.76.575 0 1.11-.053 1.605-.162a8.408 8.408 0 0 0 1.594-.54v1.68c-.504.24-1.014.41-1.53.508-.515.1-1.104.15-1.766.15zm-.378-8.51c-.656 0-1.182.21-1.578.625-.395.416-.63 1.022-.707 1.82h4.412c-.012-.803-.205-1.41-.58-1.824-.375-.413-.89-.62-1.547-.62zm13.034 5.564c0 .95-.345 1.68-1.037 2.186-.69.506-1.682.76-2.97.76-1.296 0-2.336-.197-3.12-.59v-1.783c1.142.527 2.205.79 3.19.79 1.27 0 1.907-.383 1.907-1.15 0-.247-.07-.452-.21-.616-.142-.164-.373-.334-.695-.51a11.95 11.95 0 0 0-1.346-.597c-1.12-.434-1.877-.867-2.272-1.3-.396-.435-.593-.997-.593-1.69 0-.83.334-1.477 1.005-1.937.67-.46 1.584-.69 2.738-.69 1.142 0 2.223.232 3.243.695l-.668 1.556c-1.05-.434-1.93-.65-2.645-.65-1.09 0-1.635.31-1.635.93 0 .305.142.563.426.774.284.21.904.5 1.86.87.802.31 1.385.595 1.748.853.363.26.633.556.81.893.174.337.262.74.262 1.208zm5.854 1.276c.504 0 1.008-.08 1.51-.237v1.554c-.227.1-.52.183-.882.25-.36.068-.734.102-1.12.102-1.957 0-2.936-1.03-2.936-3.094v-5.238h-1.327v-.914l1.424-.756.703-2.057h1.274v2.162h2.77v1.564h-2.77v5.203c0 .498.125.866.374 1.103.25.237.575.356.98.356zm8.385-8.402c.416 0 .758.03 1.028.087l-.2 1.926a3.904 3.904 0 0 0-.915-.105c-.827 0-1.496.27-2.01.81-.51.538-.768 1.24-.768 2.1V140h-2.065v-9.72H350l.27 1.713h.107a3.85 3.85 0 0 1 1.26-1.38c.52-.34 1.078-.51 1.675-.51zm4.895 9.896h-2.065v-9.72h2.065V140zm-2.188-12.296c0-.37.1-.653.303-.852.202-.2.49-.3.865-.3.364 0 .646.1.85.3.2.2.302.483.302.852 0 .352-.1.63-.303.83-.203.203-.485.304-.85.304-.374 0-.662-.1-.864-.303-.202-.202-.303-.48-.303-.83zm9.06 12.472c-1.47 0-2.587-.43-3.352-1.288-.765-.858-1.147-2.09-1.147-3.696 0-1.634.4-2.89 1.2-3.77.8-.88 1.956-1.318 3.468-1.318 1.025 0 1.948.19 2.77.57l-.625 1.662c-.873-.34-1.594-.51-2.163-.51-1.68 0-2.522 1.116-2.522 3.35 0 1.09.21 1.907.628 2.455.42.55 1.033.823 1.842.823.92 0 1.79-.228 2.61-.685v1.8a4.08 4.08 0 0 1-1.182.467c-.42.094-.927.14-1.525.14zm8.614-1.67c.504 0 1.008-.08 1.512-.237v1.554c-.228.1-.523.183-.883.25-.36.068-.734.102-1.12.102-1.958 0-2.936-1.03-2.936-3.094v-5.238h-1.328v-.914l1.423-.756.703-2.057h1.275v2.162h2.77v1.564h-2.77v5.203c0 .498.125.866.374 1.103.25.237.576.356.98.356zm7.7 1.67c-1.512 0-2.694-.44-3.547-1.323-.852-.882-1.28-2.096-1.28-3.643 0-1.588.397-2.836 1.188-3.744.79-.908 1.878-1.362 3.26-1.362 1.284 0 2.297.39 3.042 1.168.744.78 1.116 1.852 1.116 3.217v1.115h-6.478c.03.944.284 1.67.765 2.176.48.508 1.157.76 2.03.76.574 0 1.11-.053 1.604-.162a8.408 8.408 0 0 0 1.595-.54v1.68c-.504.24-1.014.41-1.53.508-.515.1-1.104.15-1.766.15zm-.378-8.508c-.657 0-1.183.208-1.578.624-.396.416-.63 1.022-.708 1.82h4.413c-.012-.803-.205-1.41-.58-1.824-.376-.413-.89-.62-1.547-.62zm9.782 8.508c-1.213 0-2.16-.44-2.84-1.32-.68-.877-1.02-2.11-1.02-3.7 0-1.593.346-2.833 1.034-3.72.69-.89 1.642-1.332 2.86-1.332 1.278 0 2.25.47 2.92 1.415h.104c-.1-.7-.15-1.25-.15-1.654v-3.542h2.075V140h-1.616l-.36-1.274h-.097c-.662.966-1.632 1.45-2.91 1.45zm.554-1.67c.85 0 1.467-.24 1.854-.716.387-.478.586-1.253.598-2.325v-.29c0-1.225-.2-2.095-.598-2.61-.398-.516-1.022-.774-1.872-.774-.727 0-1.286.295-1.68.884-.39.59-.588 1.43-.588 2.518 0 1.08.19 1.9.572 2.466.38.565.952.848 1.714.848zm17.745-9.738c-1.207 0-2.157.427-2.848 1.283-.692.856-1.038 2.037-1.038 3.543 0 1.576.332 2.768.997 3.577.665.81 1.627 1.213 2.887 1.213.545 0 1.072-.054 1.582-.163.508-.108 1.04-.247 1.59-.417v1.8c-1.008.382-2.15.573-3.428.573-1.88 0-3.325-.57-4.333-1.71-1.01-1.14-1.513-2.77-1.513-4.89 0-1.337.245-2.506.734-3.508.49-1.002 1.198-1.77 2.124-2.302.925-.534 2.012-.8 3.26-.8 1.313 0 2.526.275 3.64.826l-.757 1.75a11.285 11.285 0 0 0-1.375-.542 4.956 4.956 0 0 0-1.525-.232zm14.343 6.354c0 1.588-.407 2.827-1.22 3.718-.816.89-1.95 1.336-3.403 1.336-.908 0-1.71-.205-2.408-.615-.698-.41-1.234-.998-1.61-1.766-.374-.768-.562-1.658-.562-2.672 0-1.576.405-2.807 1.213-3.69.81-.886 1.95-1.328 3.42-1.328 1.406 0 2.52.452 3.34 1.357.82.907 1.23 2.127 1.23 3.662zm-7.075 0c0 2.244.83 3.366 2.488 3.366 1.64 0 2.46-1.122 2.46-3.366 0-2.22-.826-3.33-2.478-3.33-.867 0-1.496.286-1.885.86-.39.575-.585 1.398-.585 2.47zm18 4.878h-2.074v-5.977c0-.75-.15-1.31-.452-1.678-.3-.37-.78-.554-1.437-.554-.872 0-1.51.26-1.915.774-.404.516-.606 1.38-.606 2.593V140h-2.067v-9.72h1.618l.29 1.274h.106c.293-.463.71-.82 1.248-1.073a4.182 4.182 0 0 1 1.793-.376c2.332 0 3.498 1.186 3.498 3.56V140zm6.495-1.494c.504 0 1.008-.08 1.512-.237v1.554c-.228.1-.523.183-.883.25-.362.068-.735.102-1.122.102-1.957 0-2.935-1.03-2.935-3.094v-5.238h-1.328v-.914l1.424-.756.702-2.057h1.275v2.162h2.768v1.564h-2.768v5.203c0 .498.124.866.373 1.103.25.237.576.356.98.356zm8.385-8.402c.416 0 .76.03 1.028.087l-.202 1.926a3.904 3.904 0 0 0-.913-.105c-.826 0-1.495.27-2.008.81-.514.538-.77 1.24-.77 2.1V140h-2.066v-9.72h1.618l.272 1.713h.106a3.85 3.85 0 0 1 1.26-1.38c.52-.34 1.077-.51 1.675-.51zm11.452 5.018c0 1.588-.407 2.827-1.22 3.718-.816.89-1.95 1.336-3.403 1.336-.908 0-1.71-.205-2.408-.615-.697-.41-1.233-.998-1.608-1.766s-.563-1.658-.563-2.672c0-1.576.404-2.807 1.213-3.69.81-.886 1.948-1.328 3.42-1.328 1.405 0 2.518.452 3.34 1.357.82.907 1.23 2.127 1.23 3.662zm-7.075 0c0 2.244.83 3.366 2.487 3.366 1.64 0 2.46-1.122 2.46-3.366 0-2.22-.826-3.33-2.478-3.33-.867 0-1.496.286-1.885.86-.39.575-.585 1.398-.585 2.47zM465.136 140h-2.066v-13.676h2.066V140zm16.013-4.825c0 1.57-.396 2.796-1.187 3.678-.79.882-1.884 1.323-3.278 1.323-.862 0-1.626-.202-2.294-.607-.667-.405-1.183-.985-1.546-1.74-.364-.757-.545-1.642-.545-2.655 0-1.57.39-2.794 1.177-3.67.785-.876 1.875-1.314 3.27-1.314 1.347 0 2.418.45 3.21 1.346.795.897 1.192 2.11 1.192 3.64zm-7.34 0c0 1.23.247 2.168.74 2.812.49.645 1.215.967 2.17.967.955 0 1.68-.32 2.175-.962.495-.642.743-1.58.743-2.817 0-1.225-.248-2.155-.743-2.79-.495-.636-1.226-.954-2.193-.954-.955 0-1.676.314-2.162.94-.486.628-.73 1.563-.73 2.805zM490.3 140v-6.23c0-.787-.18-1.373-.537-1.76-.358-.386-.917-.58-1.68-.58-1.007 0-1.745.273-2.214.818-.47.545-.704 1.444-.704 2.698V140h-1.46v-9.633h1.188l.237 1.32h.07a2.98 2.98 0 0 1 1.258-1.104c.54-.26 1.14-.392 1.802-.392 1.16 0 2.033.28 2.62.84.585.56.878 1.455.878 2.686V140h-1.46zm14.747-11.232c-1.207 0-2.156.427-2.848 1.283-.692.856-1.038 2.037-1.038 3.543 0 1.576.333 2.768.998 3.577.665.81 1.627 1.213 2.887 1.213.545 0 1.072-.054 1.582-.163.51-.108 1.04-.247 1.59-.417v1.8c-1.008.382-2.15.573-3.428.573-1.88 0-3.325-.57-4.333-1.71-1.01-1.14-1.513-2.77-1.513-4.89 0-1.337.245-2.506.734-3.508.49-1.002 1.198-1.77 2.124-2.302.925-.534 2.012-.8 3.26-.8 1.313 0 2.526.275 3.64.826l-.757 1.75a11.285 11.285 0 0 0-1.375-.542 4.956 4.956 0 0 0-1.525-.232zm14.344 6.354c0 1.588-.407 2.827-1.22 3.718-.816.89-1.95 1.336-3.402 1.336-.91 0-1.71-.205-2.41-.615-.696-.41-1.232-.998-1.607-1.766-.374-.768-.562-1.658-.562-2.672 0-1.576.405-2.807 1.213-3.69.81-.886 1.95-1.328 3.42-1.328 1.407 0 2.52.452 3.34 1.357.82.907 1.23 2.127 1.23 3.662zm-7.075 0c0 2.244.83 3.366 2.488 3.366 1.64 0 2.46-1.122 2.46-3.366 0-2.22-.825-3.33-2.478-3.33-.867 0-1.495.286-1.885.86-.39.575-.585 1.398-.585 2.47zM523.83 140h-2.066v-13.676h2.065V140zm5.018 0h-2.066v-13.676h2.066V140zm7.198.176c-1.512 0-2.694-.44-3.546-1.323-.853-.882-1.28-2.096-1.28-3.643 0-1.588.396-2.836 1.187-3.744.79-.908 1.878-1.362 3.26-1.362 1.284 0 2.298.39 3.042 1.168.743.78 1.115 1.852 1.115 3.217v1.115h-6.477c.03.944.284 1.67.764 2.176.48.508 1.158.76 2.03.76.575 0 1.11-.053 1.605-.162a8.408 8.408 0 0 0 1.595-.54v1.68c-.504.24-1.014.41-1.53.508-.515.1-1.104.15-1.766.15zm-.378-8.508c-.656 0-1.182.208-1.578.624-.395.416-.63 1.022-.707 1.82h4.412c-.012-.803-.205-1.41-.58-1.824-.375-.413-.89-.62-1.547-.62zm10.424 8.508c-1.47 0-2.59-.43-3.353-1.288-.766-.858-1.148-2.09-1.148-3.696 0-1.634.4-2.89 1.2-3.77.8-.88 1.955-1.318 3.467-1.318 1.024 0 1.947.19 2.767.57l-.624 1.662c-.873-.34-1.593-.51-2.162-.51-1.68 0-2.52 1.116-2.52 3.35 0 1.09.208 1.907.627 2.455.42.55 1.033.823 1.84.823.92 0 1.792-.228 2.612-.685v1.8a4.08 4.08 0 0 1-1.183.467c-.42.094-.928.14-1.525.14zm8.613-1.67c.504 0 1.008-.08 1.512-.237v1.554c-.23.1-.523.183-.884.25-.36.068-.733.102-1.12.102-1.957 0-2.936-1.03-2.936-3.094v-5.238h-1.327v-.914l1.424-.756.703-2.057h1.275v2.162h2.768v1.564h-2.768v5.203c0 .498.124.866.373 1.103.25.237.576.356.98.356zm5.52 1.494h-2.066v-9.72h2.065V140zm-2.19-12.296c0-.37.102-.653.304-.852.202-.2.49-.3.865-.3.363 0 .646.1.848.3.202.2.303.483.303.852 0 .352-.1.63-.303.83-.202.203-.485.304-.848.304-.375 0-.663-.1-.866-.303-.203-.202-.304-.48-.304-.83zm13.765 7.418c0 1.588-.407 2.827-1.222 3.718-.814.89-1.948 1.336-3.4 1.336-.91 0-1.712-.205-2.41-.615-.697-.41-1.233-.998-1.608-1.766s-.562-1.658-.562-2.672c0-1.576.404-2.807 1.213-3.69.81-.886 1.95-1.328 3.42-1.328 1.406 0 2.52.452 3.34 1.357.82.907 1.23 2.127 1.23 3.662zm-7.075 0c0 2.244.83 3.366 2.487 3.366 1.64 0 2.46-1.122 2.46-3.366 0-2.22-.825-3.33-2.478-3.33-.867 0-1.495.286-1.885.86-.39.575-.585 1.398-.585 2.47zm18 4.878h-2.075v-5.977c0-.75-.15-1.31-.452-1.678-.302-.37-.78-.554-1.437-.554-.872 0-1.51.26-1.915.774-.405.516-.607 1.38-.607 2.593V140h-2.065v-9.72h1.617l.29 1.274h.106c.293-.463.71-.82 1.248-1.073a4.182 4.182 0 0 1 1.793-.376c2.332 0 3.498 1.186 3.498 3.56V140zm15.74 0l-1.282-3.568h-4.913L591.013 140h-2.215l4.807-12.902h2.286L600.7 140h-2.232zm-1.836-5.38l-1.205-3.497c-.088-.234-.21-.603-.365-1.107a23.946 23.946 0 0 1-.32-1.108c-.16.72-.39 1.51-.695 2.364l-1.16 3.35h3.744zm6.784-7.47l.132.194a21.898 21.898 0 0 1-.66 2.043c-.286.777-.585 1.5-.896 2.167h-1.072c.41-1.67.71-3.138.896-4.404h1.6zm3.243 0l.123.194c-.14.533-.35 1.19-.633 1.97-.28.778-.585 1.525-.914 2.24h-1.098c.152-.586.325-1.33.518-2.233.194-.9.328-1.625.405-2.17h1.6z" fill="#066DA5"/></g></svg>