<?xml version="1.0" encoding="utf-8"?>
<!-- Generator: Adobe Illustrator 23.0.1, SVG Export Plug-In . SVG Version: 6.00 Build 0)  -->
<svg version="1.1" id="Layer_1" xmlns="http://www.w3.org/2000/svg" xmlns:xlink="http://www.w3.org/1999/xlink" x="0px" y="0px"
	 viewBox="0 0 740 350" style="enable-background:new 0 0 740 350;" xml:space="preserve">
<style type="text/css">
	.st0{fill:#FFFFFF;}
	.st1{fill-rule:evenodd;clip-rule:evenodd;fill:#445D6E;}
	.st2{fill:#F7F8F9;}
	.st3{font-family:'OpenSans';}
	.st4{font-size:10px;}
	.st5{fill:#82949E;}
	.st6{fill:none;stroke:#445D6E;stroke-width:2;stroke-linecap:round;stroke-linejoin:round;}
	.st7{fill:none;stroke:#F7F8F9;stroke-width:2;}
	.st8{fill-rule:evenodd;clip-rule:evenodd;fill:#FFB463;}
	.st9{fill:none;stroke:#FFB463;stroke-width:2;stroke-linecap:round;stroke-linejoin:round;}
	.st10{font-size:8px;}
	.st11{fill-rule:evenodd;clip-rule:evenodd;fill:#1488C6;}
	.st12{fill:none;stroke:#445D6E;stroke-width:2;}
	.st13{fill:none;stroke:#82949E;stroke-width:2;stroke-dasharray:5,5,5,5;}
</style>
<rect class="st0" width="740" height="350"/>
<title>configure-external-storage-1</title>
<desc>Created with Sketch.</desc>
<g id="dtr-diagrams">
	<g id="configure-external-storage-1">
		<g transform="translate(154.000000, 18.000000)">
			<g id="object-storage" transform="translate(34.000000, 235.000000)">
				<path id="node-border" class="st1" d="M2,0h361c1.1,0,2,0.9,2,2v76c0,1.1-0.9,2-2,2H2c-1.1,0-2-0.9-2-2V2C0,0.9,0.9,0,2,0z"/>
				<text transform="matrix(1 0 0 1 131.9214 44)" class="st2 st3 st4">shared object storage</text>
			</g>
			<g>
				<text transform="matrix(1 0 0 1 7.025 206.0095)" class="st5 st3 st4">DTR cluster</text>
				<g id="arrows-copy" transform="translate(104.000000, 166.000000)">
					
						<g id="arrow-copy-2" transform="translate(218.500000, 37.000000) rotate(-90.000000) translate(-218.500000, -37.000000) translate(182.000000, 33.000000)">
						<path id="Line" class="st6" d="M2,4h71"/>
						<g id="Oval">
							<g>
								<circle id="path-1" class="st1" cx="4" cy="4" r="4"/>
							</g>
							<circle class="st7" cx="4" cy="4" r="5"/>
						</g>
					</g>
					
						<g id="arrow-copy-3" transform="translate(111.500000, 37.000000) rotate(-90.000000) translate(-111.500000, -37.000000) translate(75.000000, 33.000000)">
						<path class="st6" d="M2,4h71"/>
						<g>
							<g>
								<circle id="path-2" class="st1" cx="4" cy="4" r="4"/>
							</g>
							<circle class="st7" cx="4" cy="4" r="5"/>
						</g>
					</g>
					
						<g id="arrow-copy-4" transform="translate(4.500000, 37.000000) rotate(-90.000000) translate(-4.500000, -37.000000) translate(-32.000000, 33.000000)">
						<path class="st6" d="M2,4h71"/>
						<g>
							<g>
								<circle id="path-3" class="st1" cx="4" cy="4" r="4"/>
							</g>
							<circle class="st7" cx="4" cy="4" r="5"/>
						</g>
					</g>
				</g>
				<g id="network" transform="translate(33.000000, 23.000000)">
					<path id="Rectangle-138" class="st8" d="M2,0h362c1.1,0,2,0.9,2,2v18c0,1.1-0.9,2-2,2H2c-1.1,0-2-0.9-2-2V2C0,0.9,0.9,0,2,0z"
						/>
					<text transform="matrix(1 0 0 1 146.0513 15)" class="st0 st3 st4">overlay network</text>
				</g>
				<g id="arrows" transform="translate(104.000000, 42.000000)">
					
						<g transform="translate(218.500000, 18.000000) rotate(-90.000000) translate(-218.500000, -18.000000) translate(201.000000, 14.000000)">
						<path class="st9" d="M0,4h31"/>
						<g>
							<g>
								<circle id="path-4" class="st8" cx="31" cy="4" r="4"/>
							</g>
							<circle class="st7" cx="31" cy="4" r="5"/>
						</g>
					</g>
					
						<g transform="translate(111.500000, 18.000000) rotate(-90.000000) translate(-111.500000, -18.000000) translate(94.000000, 14.000000)">
						<path class="st9" d="M0,4h31"/>
						<g>
							<g>
								<circle id="path-5" class="st8" cx="31" cy="4" r="4"/>
							</g>
							<circle class="st7" cx="31" cy="4" r="5"/>
						</g>
					</g>
					
						<g transform="translate(4.500000, 18.000000) rotate(-90.000000) translate(-4.500000, -18.000000) translate(-13.000000, 14.000000)">
						<path class="st9" d="M0,4h31"/>
						<g>
							<g>
								<circle id="path-6" class="st8" cx="31" cy="4" r="4"/>
							</g>
							<circle class="st7" cx="31" cy="4" r="5"/>
						</g>
					</g>
				</g>
				<g id="nodes" transform="translate(60.000000, 70.000000)">
					<g id="node-3" transform="translate(214.000000, 0.000000)">
						<g id="node">
							<g id="node-label">
								<path id="Rectangle-127" class="st1" d="M0,2c0-1.1,0.9-2,2-2h69v10.6c0,5.9-4.8,10.6-10.6,10.6H0V2z"/>
								<text transform="matrix(1 0 0 1 6 14)" class="st0 st3 st10">worker node</text>
							</g>
						</g>
						<g id="engine" transform="translate(1.000000, 79.000000)">
							<path class="st11" d="M2,0h91c1.1,0,2,0.9,2,2v18c0,1.1-0.9,2-2,2H2c-1.1,0-2-0.9-2-2V2C0,0.9,0.9,0,2,0z"/>
							<text transform="matrix(1 0 0 1 7.5972 15)" class="st0 st3 st4">Docker Engine EE</text>
						</g>
						<g id="ucp" transform="translate(1.000000, 56.000000)">
							<path class="st11" d="M2,0h91c1.1,0,2,0.9,2,2v18c0,1.1-0.9,2-2,2H2c-1.1,0-2-0.9-2-2V2C0,0.9,0.9,0,2,0z"/>
							<text transform="matrix(1 0 0 1 20.4756 15)" class="st0 st3 st4">UCP worker</text>
						</g>
						<g id="dtr" transform="translate(1.000000, 33.000000)">
							<path class="st8" d="M2,0h91c1.1,0,2,0.9,2,2v18c0,1.1-0.9,2-2,2H2c-1.1,0-2-0.9-2-2V2C0,0.9,0.9,0,2,0z"/>
							<text transform="matrix(1 0 0 1 38.498 15)" class="st0 st3 st4">DTR</text>
						</g>
						<path class="st12" d="M2,0h93c1.1,0,2,0.9,2,2v98c0,1.1-0.9,2-2,2H2c-1.1,0-2-0.9-2-2V2C0,0.9,0.9,0,2,0z"/>
					</g>
					<g id="node-2" transform="translate(107.000000, 0.000000)">
						<g>
							<g>
								<path class="st1" d="M0,2c0-1.1,0.9-2,2-2h69v10.6c0,5.9-4.8,10.6-10.6,10.6H0V2z"/>
								<text transform="matrix(1 0 0 1 6 14)" class="st0 st3 st10">worker node</text>
							</g>
						</g>
						<g transform="translate(1.000000, 79.000000)">
							<path class="st11" d="M2,0h91c1.1,0,2,0.9,2,2v18c0,1.1-0.9,2-2,2H2c-1.1,0-2-0.9-2-2V2C0,0.9,0.9,0,2,0z"/>
							<text transform="matrix(1 0 0 1 7.5972 15)" class="st0 st3 st4">Docker Engine EE</text>
						</g>
						<g transform="translate(1.000000, 56.000000)">
							<path class="st11" d="M2,0h91c1.1,0,2,0.9,2,2v18c0,1.1-0.9,2-2,2H2c-1.1,0-2-0.9-2-2V2C0,0.9,0.9,0,2,0z"/>
							<text transform="matrix(1 0 0 1 20.4756 15)" class="st0 st3 st4">UCP worker</text>
						</g>
						<g transform="translate(1.000000, 33.000000)">
							<path class="st8" d="M2,0h91c1.1,0,2,0.9,2,2v18c0,1.1-0.9,2-2,2H2c-1.1,0-2-0.9-2-2V2C0,0.9,0.9,0,2,0z"/>
							<text transform="matrix(1 0 0 1 38.498 15)" class="st0 st3 st4">DTR</text>
						</g>
						<path class="st12" d="M2,0h93c1.1,0,2,0.9,2,2v98c0,1.1-0.9,2-2,2H2c-1.1,0-2-0.9-2-2V2C0,0.9,0.9,0,2,0z"/>
					</g>
					<g id="node-1">
						<g>
							<g>
								<path class="st1" d="M0,2c0-1.1,0.9-2,2-2h69v10.6c0,5.9-4.8,10.6-10.6,10.6H0V2z"/>
								<text transform="matrix(1 0 0 1 6 14)" class="st0 st3 st10">worker node</text>
							</g>
						</g>
						<g transform="translate(1.000000, 79.000000)">
							<path class="st11" d="M2,0h91c1.1,0,2,0.9,2,2v18c0,1.1-0.9,2-2,2H2c-1.1,0-2-0.9-2-2V2C0,0.9,0.9,0,2,0z"/>
							<text transform="matrix(1 0 0 1 7.5972 15)" class="st0 st3 st4">Docker Engine EE</text>
						</g>
						<g transform="translate(1.000000, 56.000000)">
							<path class="st11" d="M2,0h91c1.1,0,2,0.9,2,2v18c0,1.1-0.9,2-2,2H2c-1.1,0-2-0.9-2-2V2C0,0.9,0.9,0,2,0z"/>
							<text transform="matrix(1 0 0 1 20.4756 15)" class="st0 st3 st4">UCP worker</text>
						</g>
						<g transform="translate(1.000000, 33.000000)">
							<path class="st8" d="M2,0h91c1.1,0,2,0.9,2,2v18c0,1.1-0.9,2-2,2H2c-1.1,0-2-0.9-2-2V2C0,0.9,0.9,0,2,0z"/>
							<text transform="matrix(1 0 0 1 38.498 15)" class="st0 st3 st4">DTR</text>
						</g>
						<path class="st12" d="M2,0h93c1.1,0,2,0.9,2,2v98c0,1.1-0.9,2-2,2H2c-1.1,0-2-0.9-2-2V2C0,0.9,0.9,0,2,0z"/>
					</g>
				</g>
				<path id="group" class="st13" d="M2,0h429c1.1,0,2,0.9,2,2v212c0,1.1-0.9,2-2,2H2c-1.1,0-2-0.9-2-2V2C0,0.9,0.9,0,2,0z"/>
			</g>
		</g>
	</g>
</g>
</svg>
