<?xml version="1.0" encoding="utf-8"?>
<!-- Generator: Adobe Illustrator 23.0.1, SVG Export Plug-In . SVG Version: 6.00 Build 0)  -->
<svg version="1.1" id="Layer_1" xmlns="http://www.w3.org/2000/svg" xmlns:xlink="http://www.w3.org/1999/xlink" x="0px" y="0px"
	 viewBox="0 0 740 250" style="enable-background:new 0 0 740 250;" xml:space="preserve">
<style type="text/css">
	.st0{fill:#FFFFFF;}
	.st1{fill:#82949E;}
	.st2{font-family:'OpenSans';}
	.st3{font-size:12px;}
	.st4{fill:none;stroke:#82949E;stroke-width:2;stroke-dasharray:5,5,5,5;}
	.st5{fill-rule:evenodd;clip-rule:evenodd;fill:#82949E;}
	.st6{fill-rule:evenodd;clip-rule:evenodd;fill:#82949E;stroke:#FFFFFF;stroke-width:2;}
	.st7{fill-rule:evenodd;clip-rule:evenodd;fill:#254356;}
	.st8{fill:#E0E4E7;}
	.st9{font-family:'Courier-Bold';}
	.st10{font-size:13px;}
	.st11{fill:#254356;}
	.st12{fill-rule:evenodd;clip-rule:evenodd;fill:#E0E4E7;}
	.st13{fill:none;stroke:#E0E4E7;stroke-width:2;stroke-linecap:round;stroke-linejoin:round;}
	.st14{font-family:'OpenSans-Bold';}
	.st15{font-size:18px;}
	.st16{font-size:14px;}
	.st17{fill:none;stroke:#E0E4E7;stroke-linecap:square;}
	.st18{fill:#8F9EA8;}
	.st19{font-family:'MyriadPro-Regular';}
	.st20{font-size:26px;}
</style>
<rect class="st0" width="740" height="250"/>
<title>cache-overview-1</title>
<desc>Created with Sketch.</desc>
<g id="dtr-diagrams">
	<g id="cache-overview-1">
		<g id="all" transform="translate(126.000000, 3.000000)">
			<g id="right" transform="translate(288.000000, 0.000000)">
				<text transform="matrix(1 0 0 1 11.025 234.0095)" class="st1 st2 st3">Asia office</text>
				<path id="group" class="st4" d="M2,0h196c1.1,0,2,0.9,2,2v241c0,1.1-0.9,2-2,2H2c-1.1,0-2-0.9-2-2V2C0,0.9,0.9,0,2,0z"/>
				<g id="users" transform="translate(57.000000, 34.000000)">
					<path id="user-copy-2" class="st5" d="M69,28c4.7,0,8.5-3.8,8.5-8.5c0-4.7-3.8-8.5-8.5-8.5s-8.5,3.8-8.5,8.5
						C60.5,24.2,64.3,28,69,28L69,28z M69,32.2c-5.7,0-17,2.8-17,8.5V45h34v-4.2C86,35.1,74.7,32.2,69,32.2L69,32.2z"/>
					<path id="user-copy" class="st5" d="M17,28c4.7,0,8.5-3.8,8.5-8.5c0-4.7-3.8-8.5-8.5-8.5s-8.5,3.8-8.5,8.5
						C8.5,24.2,12.3,28,17,28L17,28z M17,32.2c-5.7,0-17,2.8-17,8.5V45h34v-4.2C34,35.1,22.7,32.2,17,32.2L17,32.2z"/>
					<path id="user" class="st6" d="M43,26.5c7.3,0,13.2-5.9,13.2-13.2C56.2,5.9,50.3,0,43,0S29.8,5.9,29.8,13.2
						C29.8,20.6,35.7,26.5,43,26.5L43,26.5z M43,33.1c-8.8,0-26.5,4.4-26.5,13.2V53h53v-6.6C69.5,37.5,51.8,33.1,43,33.1L43,33.1z"
						/>
				</g>
				<g id="terminal" transform="translate(17.000000, 86.000000)">
					<path id="Rectangle-2" class="st7" d="M2,0h166c1.1,0,2,0.9,2,2v98c0,1.1-0.9,2-2,2H2c-1.1,0-2-0.9-2-2V2C0,0.9,0.9,0,2,0z"/>
					<path id="Rectangle-2-Copy" class="st5" d="M2,0h166c1.1,0,2,0.9,2,2v16c0,1.1-0.9,2-2,2H2c-1.1,0-2-0.9-2-2V2C0,0.9,0.9,0,2,0
						z"/>
					<text transform="matrix(1 0 0 1 11 38)" class="st8 st9 st10">&gt; docker pull</text>
					<text transform="matrix(1 0 0 1 112.4165 38)" class="st8 st9 st10"> </text>
					<text transform="matrix(1 0 0 1 11 74)" class="st8 st9 st10">dtr.example.org/</text>
					<text transform="matrix(1 0 0 1 135.8203 74)" class="st8 st9 st10"> </text>
					<text transform="matrix(1 0 0 1 11 92)" class="st8 st9 st10">website/ui:3-stable</text>
					<text transform="matrix(1 0 0 1 51 13)" class="st11 st9 st3">localhost</text>
				</g>
			</g>
			<g id="arrow" transform="translate(208.000000, 112.000000)">
				<circle id="Oval" class="st12" cx="4" cy="10" r="4"/>
				<path id="Path-3" class="st13" d="M4,10c0,0,10.6-9.5,32-9.5S68,10,68,10"/>
			</g>
			<g id="slow" transform="translate(229.000000, 83.000000)">
				<circle id="Oval-Copy" class="st12" cx="16" cy="12" r="12"/>
				<text transform="matrix(1 0 0 1 13 19)" class="st0 st14 st15">!</text>
				<text transform="matrix(1 0 0 1 0 49)" class="st8 st2 st16">slow</text>
			</g>
			<g id="middle">
				<text transform="matrix(1 0 0 1 11.025 234.0095)" class="st1 st2 st3">DTR cluster (US)</text>
				<path class="st4" d="M2,0h196c1.1,0,2,0.9,2,2v241c0,1.1-0.9,2-2,2H2c-1.1,0-2-0.9-2-2V2C0,0.9,0.9,0,2,0z"/>
				<g id="website-dev" transform="translate(31.000000, 47.000000)">
					<text transform="matrix(1 0 0 1 38 40)" class="st1 st2 st3">1</text>
					<text transform="matrix(1 0 0 1 44.8613 40)" class="st1 st2 st3"> </text>
					<text transform="matrix(1 0 0 1 38 57)" class="st1 st2 st3">2</text>
					<text transform="matrix(1 0 0 1 44.8613 57)" class="st1 st2 st3"> </text>
					<text transform="matrix(1 0 0 1 38 74)" class="st1 st2 st3">3-stable</text>
					<path id="Line" class="st17" d="M31.5,31.5v42"/>
					<text transform="matrix(1 0 0 1 31 19)" class="st1 st2 st16">website/ui</text>
					<text transform="matrix(1 0 0 1 0 22)" class="st18 st19 st20"></text>
				</g>
			</g>
		</g>
	</g>
</g>
</svg>
