<?xml version="1.0" encoding="utf-8"?>
<!-- Generator: Adobe Illustrator 23.0.1, SVG Export Plug-In . SVG Version: 6.00 Build 0)  -->
<svg version="1.1" id="Layer_1" xmlns="http://www.w3.org/2000/svg" xmlns:xlink="http://www.w3.org/1999/xlink" x="0px" y="0px"
	 viewBox="0 0 740 250" style="enable-background:new 0 0 740 250;" xml:space="preserve">
<style type="text/css">
	.st0{fill:#FFFFFF;}
	.st1{fill-rule:evenodd;clip-rule:evenodd;fill:#82949E;}
	.st2{fill:none;stroke:#82949E;stroke-width:2;stroke-linecap:round;stroke-linejoin:round;}
	.st3{fill:none;stroke:#F7F8F9;stroke-width:2;}
	.st4{font-family:'OpenSans';}
	.st5{font-size:8px;}
	.st6{fill:none;stroke:#82949E;stroke-width:2;}
	.st7{fill-rule:evenodd;clip-rule:evenodd;fill:#FFFFFF;}
	.st8{fill:#82949E;}
	.st9{font-family:'Courier-Bold';}
	.st10{font-size:30px;}
	.st11{fill:none;stroke:#FFFFFF;stroke-width:3;}
</style>
<rect y="-2" class="st0" width="740" height="252"/>
<title>dr-overview-3</title>
<desc>Created with Sketch.</desc>
<g id="dtr-diagrams">
	<g id="dr-overview-3">
		<g id="group" transform="translate(29.000000, 55.000000)">
			<g id="dtr">
				<g id="network" transform="translate(0.000000, 127.000000)">
					<path id="Rectangle-138" class="st1" d="M2,0h678c1.1,0,2,0.9,2,2v10c0,1.1-0.9,2-2,2H2c-1.1,0-2-0.9-2-2V2C0,0.9,0.9,0,2,0z"
						/>
				</g>
				<g id="arrows" transform="translate(229.000000, 102.000000)">
				</g>
				<g id="nodes">
					<g id="node-5" transform="translate(476.000000, 0.000000)">
						
							<g id="arrow" transform="translate(48.500000, 119.000000) rotate(-90.000000) translate(-48.500000, -119.000000) translate(32.000000, 115.000000)">
							<path id="Line" class="st2" d="M2,4h31"/>
							<g id="Oval">
								<g>
									<circle id="path-1" class="st1" cx="4" cy="4" r="4"/>
								</g>
								<circle class="st3" cx="4" cy="4" r="5"/>
							</g>
						</g>
						<g id="node">
							<g id="node-label">
								<path id="Rectangle-127" class="st1" d="M0,2c0-1.1,0.9-2,2-2h69v10.6c0,5.9-4.8,10.6-10.6,10.6H0V2z"/>
								<text transform="matrix(1 0 0 1 6 14)" class="st0 st4 st5">worker node</text>
							</g>
						</g>
						<g id="engine" transform="translate(0.000000, 43.000000)">
							<path class="st1" d="M2,0h93c1.1,0,2,0.9,2,2v55c0,1.1-0.9,2-2,2H2c-1.1,0-2-0.9-2-2V2C0,0.9,0.9,0,2,0z"/>
						</g>
						<path id="node-border" class="st6" d="M2,0h93c1.1,0,2,0.9,2,2v98c0,1.1-0.9,2-2,2H2c-1.1,0-2-0.9-2-2V2C0,0.9,0.9,0,2,0z"/>
						<g id="error" transform="translate(32.000000, 55.000000)">
							<circle id="Oval-3" class="st7" cx="17" cy="17" r="17"/>
							<text transform="matrix(1 0 0 1 8.4985 27)" class="st8 st9 st10">!</text>
						</g>
					</g>
					<g id="node-4" transform="translate(367.000000, 0.000000)">
						
							<g transform="translate(48.500000, 119.000000) rotate(-90.000000) translate(-48.500000, -119.000000) translate(32.000000, 115.000000)">
							<path class="st2" d="M2,4h31"/>
							<g>
								<g>
									<circle id="path-2" class="st1" cx="4" cy="4" r="4"/>
								</g>
								<circle class="st3" cx="4" cy="4" r="5"/>
							</g>
						</g>
						<g>
							<g>
								<path class="st1" d="M0,2c0-1.1,0.9-2,2-2h69v10.6c0,5.9-4.8,10.6-10.6,10.6H0V2z"/>
								<text transform="matrix(1 0 0 1 6 14)" class="st0 st4 st5">worker node</text>
							</g>
						</g>
						<g transform="translate(0.000000, 43.000000)">
							<path class="st1" d="M2,0h93c1.1,0,2,0.9,2,2v55c0,1.1-0.9,2-2,2H2c-1.1,0-2-0.9-2-2V2C0,0.9,0.9,0,2,0z"/>
						</g>
						<path class="st6" d="M2,0h93c1.1,0,2,0.9,2,2v98c0,1.1-0.9,2-2,2H2c-1.1,0-2-0.9-2-2V2C0,0.9,0.9,0,2,0z"/>
						<g transform="translate(32.000000, 55.000000)">
							<circle class="st7" cx="17" cy="17" r="17"/>
							<text transform="matrix(1 0 0 1 8.4985 27)" class="st8 st9 st10">!</text>
						</g>
					</g>
					<g id="node-3" transform="translate(218.000000, 0.000000)">
						
							<g transform="translate(48.500000, 119.000000) rotate(-90.000000) translate(-48.500000, -119.000000) translate(32.000000, 115.000000)">
							<path class="st2" d="M2,4h31"/>
							<g>
								<g>
									<circle id="path-3" class="st1" cx="4" cy="4" r="4"/>
								</g>
								<circle class="st3" cx="4" cy="4" r="5"/>
							</g>
						</g>
						<g>
							<g>
								<path class="st1" d="M0,2c0-1.1,0.9-2,2-2h69v10.6c0,5.9-4.8,10.6-10.6,10.6H0V2z"/>
								<text transform="matrix(1 0 0 1 6 14)" class="st0 st4 st5">worker node</text>
							</g>
						</g>
						<g transform="translate(0.000000, 43.000000)">
							<path class="st1" d="M2,0h93c1.1,0,2,0.9,2,2v55c0,1.1-0.9,2-2,2H2c-1.1,0-2-0.9-2-2V2C0,0.9,0.9,0,2,0z"/>
						</g>
						<path class="st6" d="M2,0h93c1.1,0,2,0.9,2,2v98c0,1.1-0.9,2-2,2H2c-1.1,0-2-0.9-2-2V2C0,0.9,0.9,0,2,0z"/>
						<g transform="translate(32.000000, 55.000000)">
							<circle class="st7" cx="17" cy="17" r="17"/>
							<text transform="matrix(1 0 0 1 8.4985 27)" class="st8 st9 st10">!</text>
						</g>
					</g>
					<g id="node-2" transform="translate(109.000000, 0.000000)">
						
							<g transform="translate(48.500000, 119.000000) rotate(-90.000000) translate(-48.500000, -119.000000) translate(32.000000, 115.000000)">
							<path class="st2" d="M2,4h31"/>
							<g>
								<g>
									<circle id="path-4" class="st1" cx="4" cy="4" r="4"/>
								</g>
								<circle class="st3" cx="4" cy="4" r="5"/>
							</g>
						</g>
						<g>
							<g>
								<path class="st1" d="M0,2c0-1.1,0.9-2,2-2h69v10.6c0,5.9-4.8,10.6-10.6,10.6H0V2z"/>
								<text transform="matrix(1 0 0 1 6 14)" class="st0 st4 st5">worker node</text>
							</g>
						</g>
						<g transform="translate(0.000000, 43.000000)">
							<path class="st1" d="M2,0h93c1.1,0,2,0.9,2,2v55c0,1.1-0.9,2-2,2H2c-1.1,0-2-0.9-2-2V2C0,0.9,0.9,0,2,0z"/>
						</g>
						<path class="st6" d="M2,0h93c1.1,0,2,0.9,2,2v98c0,1.1-0.9,2-2,2H2c-1.1,0-2-0.9-2-2V2C0,0.9,0.9,0,2,0z"/>
						<g transform="translate(32.000000, 55.000000)">
							<circle class="st7" cx="17" cy="17" r="17"/>
							<text transform="matrix(1 0 0 1 8.4985 27)" class="st8 st9 st10">!</text>
						</g>
					</g>
					<g id="node-1">
						
							<g transform="translate(48.500000, 119.000000) rotate(-90.000000) translate(-48.500000, -119.000000) translate(32.000000, 115.000000)">
							<path class="st2" d="M2,4h31"/>
							<g>
								<g>
									<circle id="path-5" class="st1" cx="4" cy="4" r="4"/>
								</g>
								<circle class="st3" cx="4" cy="4" r="5"/>
							</g>
						</g>
						<g>
							<g>
								<path class="st1" d="M0,2c0-1.1,0.9-2,2-2h69v10.6c0,5.9-4.8,10.6-10.6,10.6H0V2z"/>
								<text transform="matrix(1 0 0 1 6 14)" class="st0 st4 st5">worker node</text>
							</g>
						</g>
						<g transform="translate(0.000000, 43.000000)">
							<path class="st1" d="M2,0h93c1.1,0,2,0.9,2,2v55c0,1.1-0.9,2-2,2H2c-1.1,0-2-0.9-2-2V2C0,0.9,0.9,0,2,0z"/>
						</g>
						<path class="st6" d="M2,0h93c1.1,0,2,0.9,2,2v98c0,1.1-0.9,2-2,2H2c-1.1,0-2-0.9-2-2V2C0,0.9,0.9,0,2,0z"/>
						<g transform="translate(32.000000, 55.000000)">
							<circle class="st7" cx="17" cy="17" r="17"/>
							<text transform="matrix(1 0 0 1 8.4985 27)" class="st8 st9 st10">!</text>
						</g>
					</g>
				</g>
			</g>
		</g>
		<g transform="translate(356.000000, 175.000000)">
			<circle class="st1" cx="14" cy="14" r="14"/>
			<path id="Path-5" class="st11" d="M14,14L8.3,8.3L14,14l5.7-5.7L14,14z M14,14l-5.7,5.7L14,14l5.7,5.7L14,14z"/>
		</g>
	</g>
</g>
</svg>
