<?xml version="1.0" encoding="utf-8"?>
<!-- Generator: Adobe Illustrator 23.0.1, SVG Export Plug-In . SVG Version: 6.00 Build 0)  -->
<svg version="1.1" id="Layer_1" xmlns="http://www.w3.org/2000/svg" xmlns:xlink="http://www.w3.org/1999/xlink" x="0px" y="0px"
	 viewBox="0 0 740 250" style="enable-background:new 0 0 740 250;" xml:space="preserve">
<style type="text/css">
	.st0{fill:#FFFFFF;}
	.st1{fill-rule:evenodd;clip-rule:evenodd;fill:#439FD1;}
	.st2{fill:none;stroke:#82949E;stroke-width:2;stroke-linecap:round;stroke-linejoin:round;stroke-dasharray:8;}
	.st3{fill:none;stroke:#F7F8F9;stroke-width:2;}
	.st4{font-family:'OpenSans';}
	.st5{font-size:8px;}
	.st6{fill:none;stroke:#82949E;stroke-width:2;stroke-dasharray:8;}
	.st7{fill-rule:evenodd;clip-rule:evenodd;fill:#FFFFFF;}
	.st8{fill:none;stroke:#439FD1;stroke-width:2;stroke-linecap:round;stroke-linejoin:round;}
	.st9{fill-rule:evenodd;clip-rule:evenodd;fill:#445D6E;}
	.st10{fill-rule:evenodd;clip-rule:evenodd;fill:#1488C6;}
	.st11{font-size:10px;}
	.st12{fill:none;stroke:#445D6E;stroke-width:2;}
</style>
<rect class="st0" width="740" height="250"/>
<title>repair-replica-4</title>
<desc>Created with Sketch.</desc>
<g id="dtr-diagrams">
	<g id="repair-replica-4">
		<g id="group" transform="translate(30.000000, 55.000000)">
			<g id="dtr">
				<g id="network" transform="translate(0.000000, 127.000000)">
					<path id="Rectangle-138" class="st1" d="M2,0h678c1.1,0,2,0.9,2,2v10c0,1.1-0.9,2-2,2H2c-1.1,0-2-0.9-2-2V2C0,0.9,0.9,0,2,0z"
						/>
				</g>
				<g id="arrows" transform="translate(229.000000, 102.000000)">
				</g>
				<g id="nodes">
					<g id="node-1-copy-4" transform="translate(476.000000, 0.000000)">
						
							<g id="arrow" transform="translate(48.500000, 119.000000) rotate(-90.000000) translate(-48.500000, -119.000000) translate(32.000000, 115.000000)">
							<path id="Line" class="st2" d="M2,4h31"/>
							<g id="Oval">
								<g>
									<circle id="path-1" class="st1" cx="4" cy="4" r="4"/>
								</g>
								<circle class="st3" cx="4" cy="4" r="5"/>
							</g>
						</g>
						<g id="node" transform="translate(6.000000, 5.000000)">
							<g id="node-label">
								<text transform="matrix(1 0 0 1 0 9)" class="st0 st4 st5">worker node</text>
							</g>
						</g>
						<path id="node-border" class="st6" d="M2,0h93c1.1,0,2,0.9,2,2v98c0,1.1-0.9,2-2,2H2c-1.1,0-2-0.9-2-2V2C0,0.9,0.9,0,2,0z"/>
					</g>
					<g id="node-1-copy-3" transform="translate(367.000000, 0.000000)">
						
							<g transform="translate(48.500000, 119.000000) rotate(-90.000000) translate(-48.500000, -119.000000) translate(32.000000, 115.000000)">
							<path class="st2" d="M2,4h31"/>
							<g>
								<g>
									<circle id="path-2" class="st1" cx="4" cy="4" r="4"/>
								</g>
								<circle class="st3" cx="4" cy="4" r="5"/>
							</g>
						</g>
						<g transform="translate(6.000000, 5.000000)">
							<g>
								<text transform="matrix(1 0 0 1 0 9)" class="st0 st4 st5">worker node</text>
							</g>
						</g>
						<path class="st6" d="M2,0h93c1.1,0,2,0.9,2,2v98c0,1.1-0.9,2-2,2H2c-1.1,0-2-0.9-2-2V2C0,0.9,0.9,0,2,0z"/>
						<g id="error" transform="translate(32.000000, 55.000000)">
							<circle id="Oval-3" class="st7" cx="17" cy="17" r="17"/>
						</g>
					</g>
					<g id="node-1-copy-2" transform="translate(218.000000, 0.000000)">
						
							<g transform="translate(48.500000, 119.000000) rotate(-90.000000) translate(-48.500000, -119.000000) translate(32.000000, 115.000000)">
							<path class="st8" d="M2,4h31"/>
							<g>
								<g>
									<circle id="path-3" class="st1" cx="4" cy="4" r="4"/>
								</g>
								<circle class="st3" cx="4" cy="4" r="5"/>
							</g>
						</g>
						<g>
							<g>
								<path id="Rectangle-127" class="st9" d="M0,2c0-1.1,0.9-2,2-2h69v10.6c0,5.9-4.8,10.6-10.6,10.6H0V2z"/>
								<text transform="matrix(1 0 0 1 6 14)" class="st0 st4 st5">worker node</text>
							</g>
						</g>
						<g id="engine" transform="translate(1.000000, 43.000000)">
							<path class="st10" d="M2,0h91c1.1,0,2,0.9,2,2v54c0,1.1-0.9,2-2,2H2c-1.1,0-2-0.9-2-2V2C0,0.9,0.9,0,2,0z"/>
							<text transform="matrix(1 0 0 1 38.498 33)" class="st0 st4 st11">DTR</text>
						</g>
						<path class="st12" d="M2,0h93c1.1,0,2,0.9,2,2v98c0,1.1-0.9,2-2,2H2c-1.1,0-2-0.9-2-2V2C0,0.9,0.9,0,2,0z"/>
					</g>
					<g id="node-1-copy" transform="translate(109.000000, 0.000000)">
						
							<g transform="translate(48.500000, 119.000000) rotate(-90.000000) translate(-48.500000, -119.000000) translate(32.000000, 115.000000)">
							<path class="st8" d="M2,4h31"/>
							<g>
								<g>
									<circle id="path-4" class="st1" cx="4" cy="4" r="4"/>
								</g>
								<circle class="st3" cx="4" cy="4" r="5"/>
							</g>
						</g>
						<g>
							<g>
								<path class="st9" d="M0,2c0-1.1,0.9-2,2-2h69v10.6c0,5.9-4.8,10.6-10.6,10.6H0V2z"/>
								<text transform="matrix(1 0 0 1 6 14)" class="st0 st4 st5">worker node</text>
							</g>
						</g>
						<g transform="translate(1.000000, 43.000000)">
							<path class="st10" d="M2,0h91c1.1,0,2,0.9,2,2v54c0,1.1-0.9,2-2,2H2c-1.1,0-2-0.9-2-2V2C0,0.9,0.9,0,2,0z"/>
							<text transform="matrix(1 0 0 1 38.498 33)" class="st0 st4 st11">DTR</text>
						</g>
						<path class="st12" d="M2,0h93c1.1,0,2,0.9,2,2v98c0,1.1-0.9,2-2,2H2c-1.1,0-2-0.9-2-2V2C0,0.9,0.9,0,2,0z"/>
					</g>
					<g id="node-1">
						
							<g transform="translate(48.500000, 119.000000) rotate(-90.000000) translate(-48.500000, -119.000000) translate(32.000000, 115.000000)">
							<path class="st8" d="M2,4h31"/>
							<g>
								<g>
									<circle id="path-5" class="st1" cx="4" cy="4" r="4"/>
								</g>
								<circle class="st3" cx="4" cy="4" r="5"/>
							</g>
						</g>
						<g>
							<g>
								<path class="st9" d="M0,2c0-1.1,0.9-2,2-2h69v10.6c0,5.9-4.8,10.6-10.6,10.6H0V2z"/>
								<text transform="matrix(1 0 0 1 6 14)" class="st0 st4 st5">worker node</text>
							</g>
						</g>
						<g transform="translate(1.000000, 43.000000)">
							<path class="st10" d="M2,0h91c1.1,0,2,0.9,2,2v54c0,1.1-0.9,2-2,2H2c-1.1,0-2-0.9-2-2V2C0,0.9,0.9,0,2,0z"/>
							<text transform="matrix(1 0 0 1 38.498 33)" class="st0 st4 st11">DTR</text>
						</g>
						<path class="st12" d="M2,0h93c1.1,0,2,0.9,2,2v98c0,1.1-0.9,2-2,2H2c-1.1,0-2-0.9-2-2V2C0,0.9,0.9,0,2,0z"/>
					</g>
				</g>
			</g>
		</g>
	</g>
</g>
</svg>
