<svg preserveAspectRatio="none" version="1.1" id="Layer_1" xmlns="http://www.w3.org/2000/svg" xmlns:xlink="http://www.w3.org/1999/xlink" x="0px" y="0px"
	 width="74px" height="17px" viewBox="-0.062 -0.105 74 17" enable-background="new -0.062 -0.105 74 17" xml:space="preserve">
<g id="Layer_1_1_" display="none">
	<g display="inline">
	<defs>
		<rect id="SVGID_1_" x="-146.75" width="590.089" height="196.414"/>
	</defs>
	<clipPath id="SVGID_2_">
		<use xlink:href="#SVGID_1_"  overflow="visible"/>
	</clipPath>
	<path clip-path="url(#SVGID_2_)" fill="#FFFFFF" d="M-146.75,196.414c0.091-22.774,0.25-45.548,0.257-68.322
		c0.012-41.715-0.068-83.43-0.095-125.145c-0.001-0.825,0.167-1.649,0.257-2.473c6.242-0.443,11.336,2.246,15.94,6.037
		c13.324,10.971,27.879,11.782,40.713,0.521c9.287-8.149,23.101-9.133,34.43,0.508c11.854,10.088,27.585,9.739,39.654-0.389
		c11.18-9.382,21.81-9.343,33.269,0.122c12.474,10.303,28.424,10.132,40.497-0.434C68.398-2.11,80.504-2.06,91.207,6.975
		c12.147,10.254,27.249,10.583,39.72,0.866c13.294-10.359,21.289-10.417,34.326-0.248c11.846,9.239,28.274,9.671,38.287,1.007
		c12.781-11.059,22.981-11.267,36.056-0.732c8.711,7.019,18.32,8.758,29.031,5.375c5.116-1.616,8.906-5.081,13.054-8.109
		c9.28-6.775,21.215-6.274,29.93,1.225c13.171,11.333,27.964,11.473,41.637,0.395c10.645-8.626,22.022-9.348,32.111-0.084
		c11.292,10.369,30.617,10.825,41.743-0.072c4.259-4.172,9.616-6.562,15.856-6.142c0.073,21.634,0.193,43.269,0.208,64.903
		c0.022,31.288,0.28,62.581-0.207,93.861c-0.194,12.416,0.649,24.795,0.291,37.194H-146.75z"/>
	</g>
</g>
<g>
	<path fill="#FFFFFF" d="M73.938,16.895V-0.099c-5.605,0.013-11.15,2.281-16.23,6.82c-12.093,10.803-28.07,10.978-40.566,0.444
		C11.251,2.198,5.578-0.211-0.062-0.102v16.996H73.938z"/>
</g>
</svg>
