<?xml version="1.0" encoding="utf-8"?>
<!-- Generator: Adobe Illustrator 18.1.1, SVG Export Plug-In . SVG Version: 6.00 Build 0)  -->
<svg version="1.1" id="Layer_1" xmlns="http://www.w3.org/2000/svg" xmlns:xlink="http://www.w3.org/1999/xlink" x="0px" y="0px"
	 viewBox="-252 379 35 35" enable-background="new -252 379 35 35" xml:space="preserve">
<path fill="#23B8EB" d="M-221.4,388.3c0,0.8-0.5,1.4-1.2,1.4h-24.3c-0.7,0-1.2-0.6-1.2-1.4l0,0c0-0.8,0.5-1.4,1.2-1.4h24.3
	C-222,387-221.4,387.6-221.4,388.3L-221.4,388.3z"/>
<path fill="#23B8EB" d="M-221.4,396.1c0,0.8-0.5,1.4-1.2,1.4h-24.3c-0.7,0-1.2-0.6-1.2-1.4l0,0c0-0.8,0.5-1.4,1.2-1.4h24.3
	C-222,394.7-221.4,395.3-221.4,396.1L-221.4,396.1z"/>
<path fill="#23B8EB" d="M-221.4,403.4c0,0.8-0.5,1.4-1.2,1.4h-24.3c-0.7,0-1.2-0.6-1.2-1.4l0,0c0-0.8,0.5-1.4,1.2-1.4h24.3
	C-222,402-221.4,402.6-221.4,403.4L-221.4,403.4z"/>
</svg>
