<?xml version="1.0" encoding="utf-8"?>
<!-- Generator: Adobe Illustrator 17.0.0, SVG Export Plug-In . SVG Version: 6.00 Build 0)  -->
<!DOCTYPE svg PUBLIC "-//W3C//DTD SVG 1.1//EN" "http://www.w3.org/Graphics/SVG/1.1/DTD/svg11.dtd">
<svg version="1.1" id="Layer_1" xmlns="http://www.w3.org/2000/svg" xmlns:xlink="http://www.w3.org/1999/xlink" x="0px" y="0px"
	 width="52px" height="52px" viewBox="0 0 52 52" enable-background="new 0 0 52 52" xml:space="preserve">
<image overflow="visible" width="1312" height="733" xlink:href="../../../../../Desktop/Screen Shot 2015-05-05 at 11.21.48 AM.png"  transform="matrix(1 0 0 1 -629.8333 -340.3333)">
</image>
<circle fill="#FFFFFF" cx="26.416" cy="26.167" r="25"/>
<rect x="13.62" y="17.428" fill="none" stroke="#AAAAAA" stroke-linecap="round" stroke-miterlimit="10" width="6.318" height="6.318"/>
<rect x="19.938" y="17.428" fill="none" stroke="#AAAAAA" stroke-linecap="round" stroke-miterlimit="10" width="6.318" height="6.318"/>
<rect x="19.938" y="11.109" fill="none" stroke="#AAAAAA" stroke-linecap="round" stroke-miterlimit="10" width="6.318" height="6.319"/>
<rect x="26.256" y="17.428" fill="none" stroke="#AAAAAA" stroke-linecap="round" stroke-miterlimit="10" width="6.319" height="6.318"/>
<path fill="none" stroke="#AAAAAA" stroke-linecap="round" stroke-miterlimit="10" d="M17.361,30.837
	c-1.053,0-1.909-0.856-1.909-1.908c0-1.052,0.856-1.909,1.909-1.909c1.052,0,1.909,0.856,1.909,1.909
	C19.27,29.981,18.413,30.837,17.361,30.837 M45.253,20.974c-1.21-0.699-2.823-0.795-4.197-0.391
	c-0.169-1.46-1.129-2.741-2.269-3.657l-0.453-0.364l-0.381,0.439c-0.764,0.884-0.991,2.353-0.887,3.481
	c0.077,0.83,0.338,1.671,0.848,2.338c-0.388,0.234-0.829,0.419-1.222,0.552c-0.8,0.271-1.668,0.422-2.513,0.422h-20.64h-0.13h-2.963
	l-0.051,0.547c-0.17,1.826,0.081,3.653,0.835,5.321l0.325,0.662l0.036,0.061c2.232,3.79,6.15,5.386,10.422,5.386
	c8.267,0,15.086-3.693,18.217-11.493c2.093,0.11,4.234-0.509,5.258-2.508l0.262-0.509L45.253,20.974z"/>
</svg>
