<?xml version="1.0" encoding="utf-8"?>
<!-- Generator: Adobe Illustrator 18.1.1, SVG Export Plug-In . SVG Version: 6.00 Build 0)  -->
<svg version="1.1" id="Layer_1" xmlns="http://www.w3.org/2000/svg" xmlns:xlink="http://www.w3.org/1999/xlink" x="0px" y="0px"
	 viewBox="1174.1 27.2 760 650" enable-background="new 1174.1 27.2 760 650" xml:space="preserve">
<g>
	<g>
		<circle id="SVGID_1_" fill="#1B9FB5" cx="1557.7" cy="392.7" r="270"/>
	</g>
	<g>
		<defs>
			<circle id="SVGID_2_" cx="1557.7" cy="392.7" r="270"/>
		</defs>
		<clipPath id="SVGID_3_">
			<use xlink:href="#SVGID_2_"  overflow="visible"/>
		</clipPath>
		<circle clip-path="url(#SVGID_3_)" fill="#FFFFFF" cx="1557.7" cy="392.7" r="270"/>
	</g>
	<g>
		<defs>
			<circle id="SVGID_4_" cx="1557.7" cy="392.7" r="270"/>
		</defs>
		<clipPath id="SVGID_5_">
			<use xlink:href="#SVGID_4_"  overflow="visible"/>
		</clipPath>
		<g clip-path="url(#SVGID_5_)">
			<path fill="#B158A1" d="M1603.8,649.5c-14.8-19.8-41.2-26.3-65.9-26.3c-18.1,1.6-36.2,0-54.3-4.9c-34.6-8.2-57.6-26.3-62.6-60.9
				c-3.3-19.8,1.6-39.5,9.9-59.3c4.9-9.9,9.9-19.8,14.8-29.6c0-1.6,1.6-3.3,3.3-3.3c0-1.6,1.6-1.6,1.6-3.3
				c-9.9-8.2-16.5-18.1-26.3-28c-1.6,11.5-4.9,21.4-13.2,28c-4.9,14.8-14.8,26.3-19.8,39.5c-1.6,6.6-4.9,13.2-8.2,18.1
				c-4.9,23-8.2,47.7-8.2,70.8c0,26.3,11.5,44.5,29.6,57.6c28,19.8,59.3,29.6,93.8,28c37.9-1.6,72.4-8.2,107-23
				C1605.5,652.8,1603.8,651.2,1603.8,649.5z"/>
			<path fill="#B158A1" d="M1470.5,392.7c-1.6-3.3,0-6.6,0-9.9c-3.3-1.6-3.3-3.3-3.3-6.6c-3.3-4.9-8.2-4.9-14.8-1.6
				c-4.9,3.3-11.5,4.9-18.1,8.2c-11.5,4.9-19.8,3.3-29.6-3.3c-9.9-6.6-18.1-13.2-29.6-16.5c0,4.9,0,8.2-1.6,13.2
				c4.9,4.9,9.9,4.9,16.5,8.2c13.2,6.6,21.4,14.8,28,28c1.6,1.6,1.6,3.3,1.6,4.9c1.6,6.6,0,13.2-1.6,19.8
				c-1.6,8.2-4.9,16.5-8.2,24.7c8.2-6.6,11.5-16.5,13.2-28c9.9,9.9,16.5,21.4,26.3,28c1.6-1.6,3.3-4.9,4.9-6.6
				c1.6-6.6,6.6-11.5,9.9-18.1C1472.1,424,1475.4,409.2,1470.5,392.7z"/>
			<path fill="#3B96D2" d="M1421.1,308.8c-1.6,0-1.6,0-3.3,0l0,0c-1.6-8.2-9.9-8.2-16.5-11.5c-13.2-6.6-26.3-13.2-42.8-21.4
				c29.6-9.9,54.3-19.8,82.3-26.3c8.2-1.6,14.8,0,23,1.6c14.8,4.9,28,9.9,42.8,16.5c3.3,1.6,3.3,3.3,0,6.6
				C1477,284.1,1449.1,295.6,1421.1,308.8z"/>
			<path fill="#1B6799" d="M1417.8,308.8c1.6,8.2,1.6,18.1,0,28c-1.6,11.5,0,24.7,0,39.5c-18.1-8.2-34.6-19.8-51-29.6
				c-3.3-1.6-6.6-6.6-6.6-11.5c0-18.1-4.9-34.6-3.3-51c6.6-3.3,9.9,1.6,13.2,3.3c11.5,6.6,24.7,9.9,36.2,18.1
				C1407.9,308.8,1412.8,310.4,1417.8,308.8L1417.8,308.8z"/>
			<path fill="#B158A1" d="M1375,363.1c0,4.9,0,8.2-1.6,13.2c-6.6-1.6-11.5-3.3-18.1-4.9c-16.5-4.9-26.3-14.8-28-31.3
				c-1.6-19.8-3.3-39.5,14.8-52.7c6.6,1.6,3.3,6.6,4.9,9.9c1.6,9.9,1.6,18.1,1.6,28c0,16.5,6.6,29.6,21.4,36.2
				C1371.7,363.1,1373.3,363.1,1375,363.1L1375,363.1z"/>
			<path fill="#6D7E89" d="M1375,363.1c-1.6,0-3.3,0-3.3-1.6C1373.3,361.4,1375,361.4,1375,363.1z"/>
			<path fill="#3B96D2" d="M1514.9,277.5c-13.2,1.6-23,8.2-34.6,11.5c-16.5,6.6-32.9,14.8-49.4,19.8c-3.3,3.3-6.6,4.9-6.6,9.9
				c0,18.1,0,36.2,0,56c31.3-13.2,60.9-29.6,88.9-46.1c1.6,0,3.3-1.6,3.3-3.3C1514.9,310.4,1511.6,293.9,1514.9,277.5z"/>
		</g>
	</g>
	<g>
		<defs>
			<circle id="SVGID_6_" cx="1557.7" cy="392.7" r="270"/>
		</defs>
		<clipPath id="SVGID_7_">
			<use xlink:href="#SVGID_6_"  overflow="visible"/>
		</clipPath>
		<g clip-path="url(#SVGID_7_)">
			<path fill="#B158A1" d="M1686.1,445.4c39.5,49.4,54.3,105.4,37.9,166.3c-6.6,24.7-18.1,47.7-31.3,67.5
				c-28,39.5-59.3,74.1-95.5,107c-3.3-4.9-9.9-6.6-16.5-6.6c-19.8,0-39.5-3.3-57.6,4.9c-3.3,1.6-8.2,1.6-13.2,1.6c0-1.6,0-1.6,0-3.3
				c23-29.6,54.3-49.4,84-72.4c28-23,51-47.7,69.1-79c24.7-44.5,29.6-92.2,18.1-141.6c-1.6-6.6-3.3-11.5-6.6-18.1
				c3.3,0,4.9-1.6,6.6-3.3C1682.8,461.9,1687.8,453.6,1686.1,445.4z"/>
			<path fill="#B158A1" d="M1686.1,445.4c0,8.2-3.3,14.8-4.9,23c0,3.3-3.3,3.3-6.6,3.3c-14.8-34.6-39.5-62.6-69.1-85.6
				c-18.1-14.8-37.9-26.3-60.9-34.6c-9.9-4.9-14.8-11.5-16.5-21.4c-4.9-39.5,4.9-64.2,39.5-82.3c9.9-4.9,18.1-4.9,28,0
				c6.6,4.9,13.2,8.2,21.4,13.2c-16.5,14.8-31.3,29.6-28,54.3c0,9.9,4.9,16.5,9.9,23c6.6,9.9,13.2,21.4,23,29.6
				c14.8,21.4,34.6,39.5,51,60.9C1677.9,435.5,1682.8,440.5,1686.1,445.4z"/>
		</g>
	</g>
	<g>
		<defs>
			<circle id="SVGID_8_" cx="1557.7" cy="392.7" r="270"/>
		</defs>
		<clipPath id="SVGID_9_">
			<use xlink:href="#SVGID_8_"  overflow="visible"/>
		</clipPath>
		<g clip-path="url(#SVGID_9_)">
			<path fill="#B158A1" d="M1477,743.4c0,0-3.3-6.6-8.2-19.8c-4.9-13.2-11.5-31.3-14.8-56c-1.6-11.5-3.3-24.7-4.9-39.5
				c0-14.8,0-29.6,3.3-44.5c3.3-16.5,8.2-32.9,16.5-47.7c4.9-8.2,9.9-16.5,18.1-21.4c3.3-3.3,6.6-6.6,11.5-9.9l9.9-6.6
				c4.9-4.9,14.8-8.2,21.4-13.2c6.6-3.3,14.8-8.2,21.4-11.5c14.8-6.6,29.6-11.5,42.8-16.5c13.2-4.9,28-8.2,39.5-13.2
				c13.2-3.3,24.7-8.2,34.6-11.5s19.8-8.2,26.3-11.5c6.6-3.3,13.2-8.2,16.5-11.5c1.6-1.6,3.3-3.3,4.9-4.9c1.6-1.6,1.6-3.3,1.6-4.9
				c1.6-3.3,1.6-3.3,1.6-3.3l1.6-3.3c1.6-3.3,6.6-4.9,9.9-3.3s4.9,4.9,4.9,8.2c0,0,0,1.6-1.6,6.6c0,1.6,0,4.9-1.6,8.2
				s-3.3,6.6-4.9,9.9s-4.9,6.6-8.2,11.5c-3.3,3.3-6.6,6.6-11.5,9.9c-3.3,3.3-8.2,6.6-13.2,9.9c-4.9,3.3-9.9,6.6-14.8,8.2
				c-21.4,11.5-46.1,21.4-72.4,32.9c-13.2,4.9-26.3,11.5-39.5,18.1c-6.6,3.3-13.2,6.6-18.1,9.9c-4.9,3.3-11.5,6.6-16.5,11.5
				l-9.9,6.6l-4.9,4.9c-4.9,3.3-8.2,8.2-11.5,13.2c-6.6,9.9-11.5,21.4-13.2,34.6c-1.6,6.6-3.3,11.5-3.3,18.1
				c-1.6,6.6-1.6,13.2-1.6,18.1c-1.6,11.5-1.6,24.7,0,34.6c0,21.4,3.3,41.2,4.9,54.3c1.6,13.2,3.3,19.8,3.3,19.8
				c0,4.9-1.6,8.2-6.6,9.9C1482,748.3,1478.7,746.7,1477,743.4z"/>
		</g>
	</g>
	<g>
		<defs>
			<circle id="SVGID_10_" cx="1557.7" cy="392.7" r="270"/>
		</defs>
		<clipPath id="SVGID_11_">
			<use xlink:href="#SVGID_10_"  overflow="visible"/>
		</clipPath>
		<g clip-path="url(#SVGID_11_)">
			<path fill="#F8CA4D" d="M1673,325.2c-1.6-3.3-6.6-3.3-9.9-8.2c18.1-6.6,37.9-11.5,56-18.1c4.9-1.6,8.2,0,11.5,1.6
				c21.4,13.2,44.5,23,67.5,32.9c6.6,3.3,14.8,6.6,23,9.9c-18.1,9.9-36.2,16.5-52.7,28c-3.3,1.6-6.6,1.6-9.9,0
				C1730.6,353.2,1701,341.7,1673,325.2z"/>
			<path fill="#F8CA4D" d="M1661.4,364.7c0-13.2-1.6-26.3-1.6-39.5c3.3-3.3,6.6,1.6,8.2,1.6c14.8,13.2,32.9,21.4,51,31.3
				c11.5,6.6,23,13.2,34.6,18.1c6.6,3.3,8.2,8.2,8.2,14.8c0,13.2,0,26.3,0,41.2c-11.5-3.3-21.4-11.5-31.3-18.1
				c-19.8-13.2-39.5-24.7-59.3-39.5C1668,371.3,1663.1,368,1661.4,364.7z"/>
			<path fill="#AE9036" d="M1766.8,428.9c0-16.5,0-31.3,0-44.5c0-4.9,1.6-8.2,6.6-11.5c16.5-8.2,32.9-16.5,47.7-23
				c6.6-3.3,9.9-1.6,8.2,6.6c0,9.9-1.6,21.4-3.3,31.3c0,3.3-1.6,6.6-4.9,8.2C1804.7,404.2,1788.2,415.8,1766.8,428.9z"/>
		</g>
	</g>
</g>
<path fill="#ED5951" d="M1626.9,252.8c-14.8-3.3-24.7-13.2-36.2-18.1c-14.8-8.2-29.6-16.5-44.5-24.7c-11.5-6.6-19.8-14.8-18.1-31.3
	c1.6-18.1,3.3-37.9,8.2-57.6c13.2,6.6,24.7,13.2,36.2,21.4c16.5,9.9,31.3,19.8,47.7,29.6c11.5,6.6,16.5,13.2,13.2,28
	C1630.2,214.9,1626.9,233,1626.9,252.8z"/>
<path fill="#9F2622" d="M1745.4,173.8c-3.3,18.1-6.6,37.9-9.9,56c-1.6,6.6-6.6,6.6-11.5,8.2c-23,6.6-44.5,13.2-67.5,16.5
	c-1.6,0-4.9,0-6.6,1.6c-14.8,3.3-14.8,3.3-13.2-11.5c1.6-16.5,3.3-32.9,3.3-51c0-8.2,3.3-13.2,13.2-14.8c28-4.9,56-9.9,84-14.8
	C1743.8,163.9,1745.4,165.5,1745.4,173.8z"/>
<path fill="#ED5951" d="M1544.5,111.2c26.3-3.3,52.7-4.9,77.4-8.2c8.2,0,18.1,1.6,24.7,4.9c26.3,14.8,54.3,29.6,80.7,46.1
	c0,0,1.6,1.6,1.6,3.3c-3.3,4.9-8.2,3.3-13.2,3.3c-19.8,4.9-42.8,8.2-65.9,11.5c-4.9,1.6-9.9,0-14.8-1.6
	C1605.5,154,1574.2,135.9,1544.5,111.2z"/>
<path fill="#B158A1" d="M1750.3,195.2c1.6-8.2,1.6-18.1,1.6-26.3s-3.3-13.2-9.9-18.1c-23-11.5-46.1-24.7-69.1-37.9
	c-9.9-6.6-9.9-9.9,0-16.5c19.8-11.5,51-6.6,65.9,11.5c11.5,13.2,19.8,29.6,24.7,47.7C1765.2,168.8,1760.2,183.6,1750.3,195.2z"/>
</svg>
