<?xml version="1.0" encoding="UTF-8" standalone="no"?>
<svg width="690px" height="317px" viewBox="0 0 690 317" version="1.1" xmlns="http://www.w3.org/2000/svg" xmlns:xlink="http://www.w3.org/1999/xlink">
    <!-- Generator: Sketch 3.8.3 (29802) - http://www.bohemiancoding.com/sketch -->
    <title>secure-your-infrastructure-2</title>
    <desc>Created with Sketch.</desc>
    <defs>
        <rect id="path-1" x="0" y="7.10542736e-15" width="263" height="87" rx="2"></rect>
        <mask id="mask-2" maskContentUnits="userSpaceOnUse" maskUnits="objectBoundingBox" x="0" y="0" width="263" height="87" fill="white">
            <use xlink:href="#path-1"></use>
        </mask>
        <rect id="path-3" x="0" y="7.10542736e-15" width="263" height="87" rx="2"></rect>
        <mask id="mask-4" maskContentUnits="userSpaceOnUse" maskUnits="objectBoundingBox" x="0" y="0" width="263" height="87" fill="white">
            <use xlink:href="#path-3"></use>
        </mask>
        <rect id="path-5" x="0" y="0" width="690" height="317"></rect>
        <mask id="mask-6" maskContentUnits="userSpaceOnUse" maskUnits="objectBoundingBox" x="0" y="0" width="690" height="317" fill="white">
            <use xlink:href="#path-5"></use>
        </mask>
    </defs>
    <g id="Apps" stroke="none" stroke-width="1" fill="none" fill-rule="evenodd">
        <g id="secure-your-infrastructure-2">
            <g id="Group" transform="translate(68.000000, 26.000000)">
                <g id="teams" transform="translate(312.000000, 0.000000)">
                    <g id="ops-team" transform="translate(189.000000, 0.000000)">
                        <path d="M26.5,26.5 C33.820625,26.5 39.75,20.5540625 39.75,13.25 C39.75,5.929375 33.820625,0 26.5,0 C19.179375,0 13.25,5.929375 13.25,13.25 C13.25,20.5540625 19.179375,26.5 26.5,26.5 L26.5,26.5 Z M26.5,33.125 C17.6721875,33.125 0,37.5471875 0,46.375 L0,53 L53,53 L53,46.375 C53,37.5471875 35.3278125,33.125 26.5,33.125 L26.5,33.125 Z" id="Shape-Copy" fill="#9967FF"></path>
                        <text font-family="OpenSans-Semibold, Open Sans" font-size="12" font-weight="500" fill="#C0C9CE">
                            <tspan x="0" y="68">ops team</tspan>
                        </text>
                    </g>
                    <g id="billing-team" transform="translate(88.000000, 0.000000)">
                        <text font-family="OpenSans-Semibold, Open Sans" font-size="12" font-weight="500" fill="#C0C9CE">
                            <tspan x="0" y="68">billing team</tspan>
                        </text>
                        <path d="M34.5,26.5 C41.820625,26.5 47.75,20.5540625 47.75,13.25 C47.75,5.929375 41.820625,0 34.5,0 C27.179375,0 21.25,5.929375 21.25,13.25 C21.25,20.5540625 27.179375,26.5 34.5,26.5 L34.5,26.5 Z M34.5,33.125 C25.6721875,33.125 8,37.5471875 8,46.375 L8,53 L61,53 L61,46.375 C61,37.5471875 43.3278125,33.125 34.5,33.125 L34.5,33.125 Z" id="Shape-Copy-2" fill="#00CBCA"></path>
                    </g>
                    <g id="crm-team">
                        <text font-family="OpenSans-Semibold, Open Sans" font-size="12" font-weight="500" fill="#C0C9CE">
                            <tspan x="0" y="68">crm team</tspan>
                        </text>
                        <path d="M28.5,26.5 C35.820625,26.5 41.75,20.5540625 41.75,13.25 C41.75,5.929375 35.820625,0 28.5,0 C21.179375,0 15.25,5.929375 15.25,13.25 C15.25,20.5540625 21.179375,26.5 28.5,26.5 L28.5,26.5 Z M28.5,33.125 C19.6721875,33.125 2,37.5471875 2,46.375 L2,53 L55,53 L55,46.375 C55,37.5471875 37.3278125,33.125 28.5,33.125 L28.5,33.125 Z" id="Shape" fill="#1AAAF8"></path>
                    </g>
                </g>
                <g id="apps" transform="translate(0.000000, 72.000000)">
                    <g id="billing" transform="translate(0.000000, 105.000000)">
                        <g id="label">
                            <use id="Rectangle-153" stroke="#C0C9CE" mask="url(#mask-2)" stroke-width="4" stroke-dasharray="5,5,5,5" fill="#FFFFFF" xlink:href="#path-1"></use>
                            <text id="com.docker.ucp.acces" font-family="OpenSans-Semibold, Open Sans" font-size="12" font-weight="500" fill="#C0C9CE">
                                <tspan x="6" y="16">com.docker.ucp.access.label = billing</tspan>
                            </text>
                        </g>
                        <g id="containers" transform="translate(27.000000, 32.000000)">
                            <path d="M40.25,0 L5.75,0 C2.5875,0 0,2.5875 0,5.75 L0,40.25 C0,43.4125 2.5875,46 5.75,46 L40.25,46 C43.4125,46 46,43.4125 46,40.25 L46,5.75 C46,2.5875 43.4125,0 40.25,0 L40.25,0 Z M40.25,40.25 L5.75,40.25 L5.75,5.75 L40.25,5.75 L40.25,40.25 L40.25,40.25 Z M31.625,14.375 L14.375,14.375 L14.375,31.625 L31.625,31.625 L31.625,14.375 L31.625,14.375 Z" id="container" fill="#00CBCA"></path>
                            <path d="M94.25,0 L59.75,0 C56.5875,0 54,2.5875 54,5.75 L54,40.25 C54,43.4125 56.5875,46 59.75,46 L94.25,46 C97.4125,46 100,43.4125 100,40.25 L100,5.75 C100,2.5875 97.4125,0 94.25,0 L94.25,0 Z M94.25,40.25 L59.75,40.25 L59.75,5.75 L94.25,5.75 L94.25,40.25 L94.25,40.25 Z M85.625,14.375 L68.375,14.375 L68.375,31.625 L85.625,31.625 L85.625,14.375 L85.625,14.375 Z" id="container-copy" fill="#00CBCA"></path>
                            <path d="M148.25,0 L113.75,0 C110.5875,0 108,2.5875 108,5.75 L108,40.25 C108,43.4125 110.5875,46 113.75,46 L148.25,46 C151.4125,46 154,43.4125 154,40.25 L154,5.75 C154,2.5875 151.4125,0 148.25,0 L148.25,0 Z M148.25,40.25 L113.75,40.25 L113.75,5.75 L148.25,5.75 L148.25,40.25 L148.25,40.25 Z M139.625,14.375 L122.375,14.375 L122.375,31.625 L139.625,31.625 L139.625,14.375 L139.625,14.375 Z" id="container-copy-2" fill="#00CBCA"></path>
                            <path d="M202.25,0 L167.75,0 C164.5875,0 162,2.5875 162,5.75 L162,40.25 C162,43.4125 164.5875,46 167.75,46 L202.25,46 C205.4125,46 208,43.4125 208,40.25 L208,5.75 C208,2.5875 205.4125,0 202.25,0 L202.25,0 Z M202.25,40.25 L167.75,40.25 L167.75,5.75 L202.25,5.75 L202.25,40.25 L202.25,40.25 Z M193.625,14.375 L176.375,14.375 L176.375,31.625 L193.625,31.625 L193.625,14.375 L193.625,14.375 Z" id="container-copy-3" fill="#00CBCA"></path>
                            <g id="container-copy-8">
                                <rect id="Rectangle-206" fill="#00CBCA" x="0" y="0.425607717" width="45.5743923" height="45.5743923" rx="4"></rect>
                                <rect id="Rectangle-207" fill="#FFFFFF" x="10.1276427" y="10.5532504" width="5.06382136" height="25.3191068"></rect>
                                <rect id="Rectangle-207" fill="#FFFFFF" x="20.2552855" y="10.5532504" width="5.06382136" height="25.3191068"></rect>
                                <rect id="Rectangle-207" fill="#FFFFFF" x="30.3829282" y="10.5532504" width="5.06382136" height="25.3191068"></rect>
                            </g>
                            <g id="container-copy-9" transform="translate(54.000000, 0.000000)">
                                <rect id="Rectangle-206" fill="#00CBCA" x="0" y="0.425607717" width="45.5743923" height="45.5743923" rx="4"></rect>
                                <rect id="Rectangle-207" fill="#FFFFFF" x="10.1276427" y="10.5532504" width="5.06382136" height="25.3191068"></rect>
                                <rect id="Rectangle-207" fill="#FFFFFF" x="20.2552855" y="10.5532504" width="5.06382136" height="25.3191068"></rect>
                                <rect id="Rectangle-207" fill="#FFFFFF" x="30.3829282" y="10.5532504" width="5.06382136" height="25.3191068"></rect>
                            </g>
                            <g id="container-copy-10" transform="translate(108.000000, 0.000000)">
                                <rect id="Rectangle-206" fill="#00CBCA" x="0" y="0.425607717" width="45.5743923" height="45.5743923" rx="4"></rect>
                                <rect id="Rectangle-207" fill="#FFFFFF" x="10.1276427" y="10.5532504" width="5.06382136" height="25.3191068"></rect>
                                <rect id="Rectangle-207" fill="#FFFFFF" x="20.2552855" y="10.5532504" width="5.06382136" height="25.3191068"></rect>
                                <rect id="Rectangle-207" fill="#FFFFFF" x="30.3829282" y="10.5532504" width="5.06382136" height="25.3191068"></rect>
                            </g>
                            <g id="container-copy-11" transform="translate(162.000000, 0.000000)">
                                <rect id="Rectangle-206" fill="#00CBCA" x="0" y="0.425607717" width="45.5743923" height="45.5743923" rx="4"></rect>
                                <rect id="Rectangle-207" fill="#FFFFFF" x="10.1276427" y="10.5532504" width="5.06382136" height="25.3191068"></rect>
                                <rect id="Rectangle-207" fill="#FFFFFF" x="20.2552855" y="10.5532504" width="5.06382136" height="25.3191068"></rect>
                                <rect id="Rectangle-207" fill="#FFFFFF" x="30.3829282" y="10.5532504" width="5.06382136" height="25.3191068"></rect>
                            </g>
                        </g>
                    </g>
                    <g id="crm">
                        <g id="label">
                            <use id="Rectangle-153" stroke="#C0C9CE" mask="url(#mask-4)" stroke-width="4" stroke-dasharray="5,5,5,5" fill="#FFFFFF" xlink:href="#path-3"></use>
                            <text id="com.docker.ucp.acces" font-family="OpenSans-Semibold, Open Sans" font-size="12" font-weight="500" fill="#C0C9CE">
                                <tspan x="6" y="16">com.docker.ucp.access.label = crm</tspan>
                            </text>
                        </g>
                        <g id="containers" transform="translate(27.000000, 32.000000)">
                            <g id="container">
                                <rect id="Rectangle-206" fill="#1AAAF8" x="0" y="0.425607717" width="45.5743923" height="45.5743923" rx="4"></rect>
                                <rect id="Rectangle-207" fill="#FFFFFF" x="10.1276427" y="10.5532504" width="5.06382136" height="25.3191068"></rect>
                                <rect id="Rectangle-207" fill="#FFFFFF" x="20.2552855" y="10.5532504" width="5.06382136" height="25.3191068"></rect>
                                <rect id="Rectangle-207" fill="#FFFFFF" x="30.3829282" y="10.5532504" width="5.06382136" height="25.3191068"></rect>
                            </g>
                            <g id="container-copy-4" transform="translate(54.000000, 0.000000)">
                                <rect id="Rectangle-206" fill="#1AAAF8" x="0" y="0.425607717" width="45.5743923" height="45.5743923" rx="4"></rect>
                                <rect id="Rectangle-207" fill="#FFFFFF" x="10.1276427" y="10.5532504" width="5.06382136" height="25.3191068"></rect>
                                <rect id="Rectangle-207" fill="#FFFFFF" x="20.2552855" y="10.5532504" width="5.06382136" height="25.3191068"></rect>
                                <rect id="Rectangle-207" fill="#FFFFFF" x="30.3829282" y="10.5532504" width="5.06382136" height="25.3191068"></rect>
                            </g>
                            <g id="container-copy-5" transform="translate(108.000000, 0.000000)">
                                <rect id="Rectangle-206" fill="#1AAAF8" x="0" y="0.425607717" width="45.5743923" height="45.5743923" rx="4"></rect>
                                <rect id="Rectangle-207" fill="#FFFFFF" x="10.1276427" y="10.5532504" width="5.06382136" height="25.3191068"></rect>
                                <rect id="Rectangle-207" fill="#FFFFFF" x="20.2552855" y="10.5532504" width="5.06382136" height="25.3191068"></rect>
                                <rect id="Rectangle-207" fill="#FFFFFF" x="30.3829282" y="10.5532504" width="5.06382136" height="25.3191068"></rect>
                            </g>
                            <g id="container-copy-6" transform="translate(162.000000, 0.000000)">
                                <rect id="Rectangle-206" fill="#1AAAF8" x="0" y="0.425607717" width="45.5743923" height="45.5743923" rx="4"></rect>
                                <rect id="Rectangle-207" fill="#FFFFFF" x="10.1276427" y="10.5532504" width="5.06382136" height="25.3191068"></rect>
                                <rect id="Rectangle-207" fill="#FFFFFF" x="20.2552855" y="10.5532504" width="5.06382136" height="25.3191068"></rect>
                                <rect id="Rectangle-207" fill="#FFFFFF" x="30.3829282" y="10.5532504" width="5.06382136" height="25.3191068"></rect>
                            </g>
                        </g>
                    </g>
                </g>
            </g>
            <g id="permissions" transform="translate(388.000000, 143.000000)">
                <g id="permissions-copy-5" transform="translate(185.000000, 88.000000)" fill="#445D6E">
                    <path d="M12.09,0 C4.5,0 0,9 0,9 C0,9 4.5,18 12.09,18 C19.5,18 24,9 24,9 C24,9 19.5,0 12.09,0 L12.09,0 Z M12,15 C8.7,15 6,12.33 6,9 C6,5.7 8.7,3 12,3 C15.33,3 18,5.7 18,9 C18,12.33 15.33,15 12,15 L12,15 Z M15,9 C15,10.665 13.665,12 12,12 C10.335,12 9,10.665 9,9 C9,7.335 10.335,6 12,6 C13.665,6 15,7.335 15,9 L15,9 Z" id="Shape"></path>
                    <path d="M32,14.0272045 L32,18 L35.9727791,18 L46.5668567,7.40587876 L42.5940776,3.4330833 L32,14.0272045 L32,14.0272045 Z M35.9727791,16.6757348 L33.3242597,16.6757348 L33.3242597,14.0272045 L34.6485194,14.0272045 L34.6485194,15.3514697 L35.9727791,15.3514697 L35.9727791,16.6757348 L35.9727791,16.6757348 Z M49.612654,4.36006891 L47.8911164,6.08161361 L43.9183373,2.10881814 L45.6398749,0.387273441 C45.8873057,0.139333807 46.2231988,-8.8817842e-15 46.573478,-8.8817842e-15 C46.9237573,-8.8817842e-15 47.2596503,0.139333807 47.5070811,0.387273441 L49.612654,2.49285504 C50.1291153,3.00931845 50.1291153,3.8436055 49.612654,4.36006891 L49.612654,4.36006891 Z" id="Shape"></path>
                </g>
                <g id="permissions-copy-4" transform="translate(91.000000, 88.000000)" fill="#445D6E">
                    <path d="M12.09,0 C4.5,0 0,9 0,9 C0,9 4.5,18 12.09,18 C19.5,18 24,9 24,9 C24,9 19.5,0 12.09,0 L12.09,0 Z M12,15 C8.7,15 6,12.33 6,9 C6,5.7 8.7,3 12,3 C15.33,3 18,5.7 18,9 C18,12.33 15.33,15 12,15 L12,15 Z M15,9 C15,10.665 13.665,12 12,12 C10.335,12 9,10.665 9,9 C9,7.335 10.335,6 12,6 C13.665,6 15,7.335 15,9 L15,9 Z" id="Shape"></path>
                    <path d="M32,14.0272045 L32,18 L35.9727791,18 L46.5668567,7.40587876 L42.5940776,3.4330833 L32,14.0272045 L32,14.0272045 Z M35.9727791,16.6757348 L33.3242597,16.6757348 L33.3242597,14.0272045 L34.6485194,14.0272045 L34.6485194,15.3514697 L35.9727791,15.3514697 L35.9727791,16.6757348 L35.9727791,16.6757348 Z M49.612654,4.36006891 L47.8911164,6.08161361 L43.9183373,2.10881814 L45.6398749,0.387273441 C45.8873057,0.139333807 46.2231988,-8.8817842e-15 46.573478,-8.8817842e-15 C46.9237573,-8.8817842e-15 47.2596503,0.139333807 47.5070811,0.387273441 L49.612654,2.49285504 C50.1291153,3.00931845 50.1291153,3.8436055 49.612654,4.36006891 L49.612654,4.36006891 Z" id="Shape"></path>
                </g>
                <g id="permissions-copy-3" transform="translate(0.000000, 88.000000)" fill="#C0C9CE">
                    <path d="M12.09,0 C4.5,0 0,9 0,9 C0,9 4.5,18 12.09,18 C19.5,18 24,9 24,9 C24,9 19.5,0 12.09,0 L12.09,0 Z M12,15 C8.7,15 6,12.33 6,9 C6,5.7 8.7,3 12,3 C15.33,3 18,5.7 18,9 C18,12.33 15.33,15 12,15 L12,15 Z M15,9 C15,10.665 13.665,12 12,12 C10.335,12 9,10.665 9,9 C9,7.335 10.335,6 12,6 C13.665,6 15,7.335 15,9 L15,9 Z" id="Shape"></path>
                    <path d="M32,14.0272045 L32,18 L35.9727791,18 L46.5668567,7.40587876 L42.5940776,3.4330833 L32,14.0272045 L32,14.0272045 Z M35.9727791,16.6757348 L33.3242597,16.6757348 L33.3242597,14.0272045 L34.6485194,14.0272045 L34.6485194,15.3514697 L35.9727791,15.3514697 L35.9727791,16.6757348 L35.9727791,16.6757348 Z M49.612654,4.36006891 L47.8911164,6.08161361 L43.9183373,2.10881814 L45.6398749,0.387273441 C45.8873057,0.139333807 46.2231988,-8.8817842e-15 46.573478,-8.8817842e-15 C46.9237573,-8.8817842e-15 47.2596503,0.139333807 47.5070811,0.387273441 L49.612654,2.49285504 C50.1291153,3.00931845 50.1291153,3.8436055 49.612654,4.36006891 L49.612654,4.36006891 Z" id="Shape"></path>
                </g>
                <g id="permissions-copy-2" transform="translate(185.000000, 0.000000)" fill="#445D6E">
                    <path d="M12.09,0 C4.5,0 0,9 0,9 C0,9 4.5,18 12.09,18 C19.5,18 24,9 24,9 C24,9 19.5,0 12.09,0 L12.09,0 Z M12,15 C8.7,15 6,12.33 6,9 C6,5.7 8.7,3 12,3 C15.33,3 18,5.7 18,9 C18,12.33 15.33,15 12,15 L12,15 Z M15,9 C15,10.665 13.665,12 12,12 C10.335,12 9,10.665 9,9 C9,7.335 10.335,6 12,6 C13.665,6 15,7.335 15,9 L15,9 Z" id="Shape"></path>
                    <path d="M32,14.0272045 L32,18 L35.9727791,18 L46.5668567,7.40587876 L42.5940776,3.4330833 L32,14.0272045 L32,14.0272045 Z M35.9727791,16.6757348 L33.3242597,16.6757348 L33.3242597,14.0272045 L34.6485194,14.0272045 L34.6485194,15.3514697 L35.9727791,15.3514697 L35.9727791,16.6757348 L35.9727791,16.6757348 Z M49.612654,4.36006891 L47.8911164,6.08161361 L43.9183373,2.10881814 L45.6398749,0.387273441 C45.8873057,0.139333807 46.2231988,-8.8817842e-15 46.573478,-8.8817842e-15 C46.9237573,-8.8817842e-15 47.2596503,0.139333807 47.5070811,0.387273441 L49.612654,2.49285504 C50.1291153,3.00931845 50.1291153,3.8436055 49.612654,4.36006891 L49.612654,4.36006891 Z" id="Shape"></path>
                </g>
                <g id="permissions-copy" transform="translate(91.000000, 0.000000)" fill="#C0C9CE">
                    <path d="M12.09,0 C4.5,0 0,9 0,9 C0,9 4.5,18 12.09,18 C19.5,18 24,9 24,9 C24,9 19.5,0 12.09,0 L12.09,0 Z M12,15 C8.7,15 6,12.33 6,9 C6,5.7 8.7,3 12,3 C15.33,3 18,5.7 18,9 C18,12.33 15.33,15 12,15 L12,15 Z M15,9 C15,10.665 13.665,12 12,12 C10.335,12 9,10.665 9,9 C9,7.335 10.335,6 12,6 C13.665,6 15,7.335 15,9 L15,9 Z" id="Shape"></path>
                    <path d="M32,14.0272045 L32,18 L35.9727791,18 L46.5668567,7.40587876 L42.5940776,3.4330833 L32,14.0272045 L32,14.0272045 Z M35.9727791,16.6757348 L33.3242597,16.6757348 L33.3242597,14.0272045 L34.6485194,14.0272045 L34.6485194,15.3514697 L35.9727791,15.3514697 L35.9727791,16.6757348 L35.9727791,16.6757348 Z M49.612654,4.36006891 L47.8911164,6.08161361 L43.9183373,2.10881814 L45.6398749,0.387273441 C45.8873057,0.139333807 46.2231988,-8.8817842e-15 46.573478,-8.8817842e-15 C46.9237573,-8.8817842e-15 47.2596503,0.139333807 47.5070811,0.387273441 L49.612654,2.49285504 C50.1291153,3.00931845 50.1291153,3.8436055 49.612654,4.36006891 L49.612654,4.36006891 Z" id="Shape"></path>
                </g>
                <g id="Shape" fill="#445D6E">
                    <path d="M12.09,0 C4.5,0 0,9 0,9 C0,9 4.5,18 12.09,18 C19.5,18 24,9 24,9 C24,9 19.5,0 12.09,0 L12.09,0 Z M12,15 C8.7,15 6,12.33 6,9 C6,5.7 8.7,3 12,3 C15.33,3 18,5.7 18,9 C18,12.33 15.33,15 12,15 L12,15 Z M15,9 C15,10.665 13.665,12 12,12 C10.335,12 9,10.665 9,9 C9,7.335 10.335,6 12,6 C13.665,6 15,7.335 15,9 L15,9 Z"></path>
                    <path d="M32,14.0272045 L32,18 L35.9727791,18 L46.5668567,7.40587876 L42.5940776,3.4330833 L32,14.0272045 L32,14.0272045 Z M35.9727791,16.6757348 L33.3242597,16.6757348 L33.3242597,14.0272045 L34.6485194,14.0272045 L34.6485194,15.3514697 L35.9727791,15.3514697 L35.9727791,16.6757348 L35.9727791,16.6757348 Z M49.612654,4.36006891 L47.8911164,6.08161361 L43.9183373,2.10881814 L45.6398749,0.387273441 C45.8873057,0.139333807 46.2231988,-8.8817842e-15 46.573478,-8.8817842e-15 C46.9237573,-8.8817842e-15 47.2596503,0.139333807 47.5070811,0.387273441 L49.612654,2.49285504 C50.1291153,3.00931845 50.1291153,3.8436055 49.612654,4.36006891 L49.612654,4.36006891 Z"></path>
                </g>
            </g>
            <use id="border" stroke="#C0C9CE" mask="url(#mask-6)" stroke-width="2" xlink:href="#path-5"></use>
        </g>
    </g>
</svg>