<svg width="24" height="24" viewBox="0 0 24 24" fill="none" xmlns="http://www.w3.org/2000/svg">
<mask id="mask0_5432_1749" style="mask-type:alpha" maskUnits="userSpaceOnUse" x="4" y="1" width="17" height="22">
<path d="M9.93896 22H14.939M10.439 10H14.439M12.439 10L12.439 16M15.439 15.3264C17.8039 14.2029 19.439 11.7924 19.439 9C19.439 5.13401 16.305 2 12.439 2C8.57297 2 5.43896 5.13401 5.43896 9C5.43896 11.7924 7.07402 14.2029 9.43896 15.3264V16C9.43896 16.9319 9.43896 17.3978 9.59121 17.7654C9.79419 18.2554 10.1835 18.6448 10.6736 18.8478C11.0411 19 11.5071 19 12.439 19C13.3708 19 13.8368 19 14.2043 18.8478C14.6944 18.6448 15.0837 18.2554 15.2867 17.7654C15.439 17.3978 15.439 16.9319 15.439 16V15.3264Z" stroke="#6C7E9D" stroke-width="2" stroke-linecap="round" stroke-linejoin="round"/>
</mask>
<g mask="url(#mask0_5432_1749)">
<rect width="24" height="24" fill="currentColor" fill-opacity="0.8"/>
</g>
</svg>
