<svg width="24" height="24" viewBox="0 0 24 24" fill="none" xmlns="http://www.w3.org/2000/svg">
<mask id="mask0_5432_2018" style="mask-type:alpha" maskUnits="userSpaceOnUse" x="0" y="2" width="24" height="21">
<path d="M11.9998 9.99999V14M11.9998 18H12.0098M10.6151 4.89171L2.39019 19.0983C1.93398 19.8863 1.70588 20.2803 1.73959 20.6037C1.769 20.8857 1.91677 21.142 2.14613 21.3088C2.40908 21.5 2.86435 21.5 3.77487 21.5H20.2246C21.1352 21.5 21.5904 21.5 21.8534 21.3088C22.0827 21.142 22.2305 20.8857 22.2599 20.6037C22.2936 20.2803 22.0655 19.8863 21.6093 19.0983L13.3844 4.89171C12.9299 4.10654 12.7026 3.71396 12.4061 3.58211C12.1474 3.4671 11.8521 3.4671 11.5935 3.58211C11.2969 3.71396 11.0696 4.10655 10.6151 4.89171Z" stroke="#6C7E9D" stroke-width="2" stroke-linecap="round" stroke-linejoin="round"/>
</mask>
<g mask="url(#mask0_5432_2018)">
<rect width="24" height="24" fill="currentColor" fill-opacity="0.8"/>
</g>
</svg>
