<?xml version="1.0" encoding="UTF-8" standalone="no"?>
<svg width="100px" height="100px" viewBox="0 0 100 100" version="1.1" xmlns="http://www.w3.org/2000/svg" xmlns:xlink="http://www.w3.org/1999/xlink" xmlns:sketch="http://www.bohemiancoding.com/sketch/ns">
    <!-- Generator: Sketch 3.3.2 (12043) - http://www.bohemiancoding.com/sketch -->
    <title>hub</title>
    <desc>Created with Sketch.</desc>
    <defs></defs>
    <g id="Page-1-Copy" stroke="none" stroke-width="1" fill="none" fill-rule="evenodd" sketch:type="MSPage">
        <g id="Group" sketch:type="MSLayerGroup" transform="translate(-182.000000, -160.000000)"></g>
        <g id="hub" sketch:type="MSLayerGroup" transform="translate(13.555556, 15.000000)" stroke="#7A8490" stroke-width="2">
            <path d="M12.8051556,57.8513778 L17.7253333,66.3740444 C18.1016,67.0253333 19.0218667,67.5572444 19.7759111,67.5572444 L52.4778667,67.5572444 C53.2304,67.5572444 54.1521778,67.0268444 54.5299556,66.3740444 L59.1101333,58.4407111 L62.5010667,60.3991111 C63.1432889,60.7708444 63.9819556,60.5532444 64.3567111,59.9034667 L70.4963556,49.2697778 C70.8711111,48.62 70.6474667,47.7904 69.9976889,47.4156444 L66.6052444,45.4572444 L70.8801778,38.0528 C71.2564444,37.4015111 71.2579556,36.3376889 70.8801778,35.6833778 L54.5299556,7.36364444 C54.1536889,6.71084444 53.2334222,6.17893333 52.4778667,6.17893333 L44.3057778,6.17893333 L44.3057778,1.42648889 C44.3057778,0.686044444 43.6983111,0.068 42.9488,0.068 L30.6695111,0.068 C29.9184889,0.068 29.3125333,0.676977778 29.3125333,1.42648889 L29.3125333,6.17893333 L19.7759111,6.17893333 C19.0233778,6.17893333 18.1031111,6.70933333 17.7253333,7.36364444 L1.3736,35.6833778 C0.997333333,36.3361778 0.995822222,37.3984889 1.3736,38.0528 L5.30853333,44.8664 L0.894577778,47.4156444 C0.252355556,47.7858667 0.0211555556,48.6215111 0.395911111,49.2697778 L6.53555556,59.9034667 C6.91031111,60.5532444 7.73991111,60.7738667 8.38968889,60.3991111 L12.8051556,57.8513778 L12.8051556,57.8513778 Z" id="Stroke-1" sketch:type="MSShapeGroup"></path>
            <path d="M41.3999111,45.4481778 L53.8454222,66.8530667 M19.7713778,8.24613333 L31.2845333,28.0462222 M31.3600889,45.5373333 L18.9266667,66.3664889 M53.3271111,8.73422222 L41.5872889,28.4028444 M46.1704889,37.0615111 L70.2016889,37.0615111 M2.57191111,37.0615111 L26.0530667,37.0615111" id="Stroke-2" stroke-linecap="square" sketch:type="MSShapeGroup"></path>
            <path d="M36.1276444,27.3269333 C41.3968889,27.3269333 45.6688,31.5988444 45.6688,36.8680889 C45.6688,42.1373333 41.3968889,46.4092444 36.1276444,46.4092444 C30.8584,46.4092444 26.5864889,42.1373333 26.5864889,36.8680889 C26.5864889,31.5988444 30.8584,27.3269333 36.1276444,27.3269333 L36.1276444,27.3269333 Z" id="Stroke-3" sketch:type="MSShapeGroup"></path>
        </g>
    </g>
</svg>