<?xml version="1.0" encoding="UTF-8" standalone="no"?>
<svg width="100px" height="100px" viewBox="0 0 100 100" version="1.1" xmlns="http://www.w3.org/2000/svg" xmlns:xlink="http://www.w3.org/1999/xlink" xmlns:sketch="http://www.bohemiancoding.com/sketch/ns">
    <!-- Generator: Sketch 3.3.2 (12043) - http://www.bohemiancoding.com/sketch -->
    <title>registry</title>
    <desc>Created with Sketch.</desc>
    <defs></defs>
    <g id="Page-1-Copy" stroke="none" stroke-width="1" fill="none" fill-rule="evenodd" sketch:type="MSPage">
        <g id="Group" sketch:type="MSLayerGroup" transform="translate(-41.000000, -160.000000)"></g>
        <g id="registry-copy" sketch:type="MSLayerGroup" transform="translate(17.000000, 17.000000)" stroke="#7A8490" stroke-width="2">
            <path d="M10.505814,45.7615116 L55.534186,45.7615116 L55.534186,26.6061628 L10.505814,26.6061628 L10.505814,45.7615116 Z M10.505814,18.5522093 L10.505814,2.34604651 C10.505814,1.04604651 9.13325581,0 7.43872093,0 L3.06709302,0 C1.37255814,0 0,1.0505814 0,2.34604651 L0,62.4952326 C0,63.7967442 1.37255814,64.8412791 3.06709302,64.8412791 L7.43872093,64.8412791 C9.13325581,64.8412791 10.505814,63.7922093 10.505814,62.4952326 L10.505814,53.8169767 L55.5356977,53.8169767 L55.5356977,62.4952326 C55.5356977,63.7967442 56.9082558,64.8412791 58.6027907,64.8412791 L62.9744186,64.8412791 C64.6689535,64.8412791 66.0415116,63.7922093 66.0415116,62.4952326 L66.0415116,2.34604651 C66.0415116,1.04604651 64.6689535,0 62.9744186,0 L58.6027907,0 C56.9082558,0 55.5356977,1.0505814 55.5356977,2.34604651 L55.5356977,18.5522093 L10.505814,18.5522093 L10.505814,18.5522093 Z M11.5412791,3.25755814 L20.4311628,3.25755814 C21.0630233,3.25755814 21.5754651,3.72616279 21.5754651,4.30209302 L21.5754651,17.6119767 M33.1787209,17.6119767 L33.1787209,4.30209302 C33.1787209,3.72616279 33.6911628,3.25755814 34.3230233,3.25755814 L55.5356977,3.25755814 M21.5754651,26.6076744 L21.5754651,44.6383721 L21.5754651,26.6076744 Z M33.0215116,26.6076744 L33.0215116,44.6383721 L33.0215116,26.6076744 Z M44.3572093,26.6076744 L44.3572093,44.6383721 L44.3572093,26.6076744 Z M44.3572093,3.25755814 L44.3572093,18.5522093 L44.3572093,3.25755814 Z" id="Imported-Layers" sketch:type="MSShapeGroup"></path>
        </g>
    </g>
</svg>