<?xml version="1.0" encoding="UTF-8"?>
<svg xmlns="http://www.w3.org/2000/svg" width="71" height="70" viewBox="0 0 71 70" fill="none"><mask id="mask0_4917_14411" style="mask-type:alpha" maskUnits="userSpaceOnUse" x="0" y="0" width="71" height="70"><g clip-path="url(#clip0_4917_14411)"><path d="M67.5832 35L60.4665 26.8625L61.4582 16.1L50.929 13.7083L45.4165 4.375L35.4998 8.63333L25.5832 4.375L20.0707 13.6792L9.5415 16.0417L10.5332 26.8333L3.4165 35L10.5332 43.1375L9.5415 53.9292L20.0707 56.3208L25.5832 65.625L35.4998 61.3375L45.4165 65.5958L50.929 56.2917L61.4582 53.9L60.4665 43.1375L67.5832 35ZM27.8582 46.6958L20.9165 39.6958C19.779 38.5583 19.779 36.7208 20.9165 35.5833L21.1207 35.3792C22.2582 34.2417 24.1248 34.2417 25.2623 35.3792L29.9582 40.1042L44.979 25.0542C46.1165 23.9167 47.9832 23.9167 49.1207 25.0542L49.3248 25.2583C50.4623 26.3958 50.4623 28.2333 49.3248 29.3708L32.0582 46.6958C30.8623 47.8333 29.0248 47.8333 27.8582 46.6958Z" fill="black"/></g></mask><g mask="url(#mask0_4917_14411)"><rect x="0.5" width="70" height="70" fill="#086DD7"/></g><defs><clipPath id="clip0_4917_14411"><rect width="70" height="70" fill="white" transform="translate(0.5)"/></clipPath></defs></svg>