<svg version="1.1" viewBox="0.0 0.0 960.0 540.0" fill="none" stroke="none" stroke-linecap="square" stroke-miterlimit="10" xmlns:xlink="http://www.w3.org/1999/xlink" xmlns="http://www.w3.org/2000/svg"><clipPath id="g1a8aa7bb97f_0_29.0"><path d="m0 0l960.0 0l0 540.0l-960.0 0l0 -540.0z" clip-rule="nonzero"/></clipPath><g clip-path="url(#g1a8aa7bb97f_0_29.0)"><path fill="#000000" fill-opacity="0.0" d="m0 0l960.0 0l0 540.0l-960.0 0z" fill-rule="evenodd"/><path fill="#000000" fill-opacity="0.0" d="m296.33072 20.236221l367.3386 0l0 499.5276l-367.3386 0z" fill-rule="evenodd"/><path stroke="#78909c" stroke-width="1.0" stroke-linejoin="round" stroke-linecap="butt" stroke-dasharray="1.0,3.0" d="m296.33072 20.236221l367.3386 0l0 499.5276l-367.3386 0z" fill-rule="evenodd"/><path fill="#78909c" d="m313.54947 507.56375l-0.8125 0l0 -4.546875l-5.40625 0l0 4.546875l-0.796875 0l0 -9.46875l0.796875 0l0 4.25l5.40625 0l0 -4.25l0.8125 0l0 9.46875zm1.7892761 -3.625q0 -1.015625 0.390625 -1.828125q0.40625 -0.8125 1.125 -1.265625q0.71875 -0.453125 1.625 -0.453125q1.40625 0 2.28125 0.984375q0.875 0.984375 0.875 2.609375l0 0.171875q0 1.015625 -0.40625 1.84375q-0.390625 0.8125 -1.109375 1.25q-0.703125 0.4375 -1.625 0.4375q-1.390625 0 -2.28125 -0.984375q-0.875 -0.984375 -0.875 -2.609375l0 -0.15625zm0.78125 0.21875q0 1.265625 0.65625 2.078125q0.65625 0.796875 1.71875 0.796875q1.0625 0 1.703125 -0.796875q0.65625 -0.8125 0.65625 -2.140625l0 -0.15625q0 -0.8125 -0.296875 -1.46875q-0.296875 -0.671875 -0.84375 -1.046875q-0.53125 -0.375 -1.234375 -0.375q-1.03125 0 -1.703125 0.828125q-0.65625 0.8125 -0.65625 2.140625l0 0.140625zm11.339539 1.609375q0 -0.578125 -0.46875 -0.921875q-0.46875 -0.359375 -1.40625 -0.546875q-0.9375 -0.203125 -1.453125 -0.453125q-0.515625 -0.265625 -0.765625 -0.625q-0.25 -0.375 -0.25 -0.90625q0 -0.828125 0.6875 -1.375q0.703125 -0.546875 1.796875 -0.546875q1.171875 0 1.875 0.59375q0.71875 0.578125 0.71875 1.515625l-0.78125 0q0 -0.625 -0.515625 -1.03125q-0.515625 -0.421875 -1.296875 -0.421875q-0.765625 0 -1.234375 0.34375q-0.46875 0.34375 -0.46875 0.890625q0 0.53125 0.390625 0.828125q0.390625 0.28125 1.40625 0.53125q1.03125 0.234375 1.53125 0.515625q0.515625 0.265625 0.765625 0.65625q0.25 0.375 0.25 0.921875q0 0.890625 -0.71875 1.421875q-0.71875 0.53125 -1.875 0.53125q-1.234375 0 -2.0 -0.59375q-0.765625 -0.59375 -0.765625 -1.5l0.78125 0q0.046875 0.6875 0.578125 1.0625q0.53125 0.375 1.40625 0.375q0.8125 0 1.3125 -0.359375q0.5 -0.359375 0.5 -0.90625zm3.7330627 -7.046875l0 1.796875l1.46875 0l0 0.640625l-1.46875 0l0 4.6875q0 0.59375 0.21875 0.890625q0.21875 0.28125 0.703125 0.28125q0.203125 0 0.640625 -0.078125l0.03125 0.640625q-0.3125 0.109375 -0.84375 0.109375q-0.796875 0 -1.171875 -0.453125q-0.359375 -0.46875 -0.359375 -1.375l0 -4.703125l-1.28125 0l0 -0.640625l1.28125 0l0 -1.796875l0.78125 0zm6.210602 5.015625q0 -1.421875 0.359375 -2.75q0.375 -1.34375 1.078125 -2.453125q0.703125 -1.109375 1.515625 -1.59375l0.1875 0.53125q-0.4375 0.3125 -0.859375 0.90625q-0.421875 0.578125 -0.75 1.390625q-0.328125 0.796875 -0.546875 1.8125q-0.203125 1.0 -0.203125 2.265625q0 1.359375 0.3125 2.625q0.3125 1.25 0.84375 2.203125q0.546875 0.96875 1.203125 1.453125l-0.1875 0.5q-0.828125 -0.5 -1.53125 -1.609375q-0.703125 -1.09375 -1.0625 -2.421875q-0.359375 -1.328125 -0.359375 -2.859375zm8.890259 2.9375q-0.703125 1.015625 -2.25 1.015625q-1.125 0 -1.71875 -0.640625q-0.578125 -0.65625 -0.59375 -1.9375l0 -4.59375l0.78125 0l0 4.484375q0 2.015625 1.625 2.015625q1.6875 0 2.140625 -1.40625l0 -5.09375l0.78125 0l0 7.046875l-0.75 0l-0.015625 -0.890625zm7.0088806 -0.90625q0 -0.578125 -0.46875 -0.921875q-0.46875 -0.359375 -1.40625 -0.546875q-0.9375 -0.203125 -1.453125 -0.453125q-0.515625 -0.265625 -0.765625 -0.625q-0.25 -0.375 -0.25 -0.90625q0 -0.828125 0.6875 -1.375q0.703125 -0.546875 1.796875 -0.546875q1.171875 0 1.875 0.59375q0.71875 0.578125 0.71875 1.515625l-0.78125 0q0 -0.625 -0.515625 -1.03125q-0.515625 -0.421875 -1.296875 -0.421875q-0.765625 0 -1.234375 0.34375q-0.46875 0.34375 -0.46875 0.890625q0 0.53125 0.390625 0.828125q0.390625 0.28125 1.40625 0.53125q1.03125 0.234375 1.53125 0.515625q0.515625 0.265625 0.765625 0.65625q0.25 0.375 0.25 0.921875q0 0.890625 -0.71875 1.421875q-0.71875 0.53125 -1.875 0.53125q-1.234375 0 -2.0 -0.59375q-0.765625 -0.59375 -0.765625 -1.5l0.78125 0q0.046875 0.6875 0.578125 1.0625q0.53125 0.375 1.40625 0.375q0.8125 0 1.3125 -0.359375q0.5 -0.359375 0.5 -0.90625zm5.248657 1.921875q-0.890625 0 -1.625 -0.4375q-0.71875 -0.4375 -1.125 -1.234375q-0.40625 -0.796875 -0.40625 -1.765625l0 -0.28125q0 -1.015625 0.390625 -1.828125q0.40625 -0.8125 1.109375 -1.28125q0.703125 -0.46875 1.515625 -0.46875q1.28125 0 2.03125 0.875q0.765625 0.875 0.765625 2.390625l0 0.4375l-5.03125 0l0 0.15625q0 1.1875 0.6875 1.984375q0.6875 0.796875 1.734375 0.796875q0.625 0 1.09375 -0.21875q0.484375 -0.234375 0.875 -0.734375l0.484375 0.375q-0.859375 1.234375 -2.5 1.234375zm-0.140625 -6.640625q-0.875 0 -1.484375 0.65625q-0.59375 0.640625 -0.71875 1.734375l4.21875 0l0 -0.09375q-0.03125 -1.015625 -0.578125 -1.65625q-0.546875 -0.640625 -1.4375 -0.640625zm7.5572205 0.140625q-0.25 -0.046875 -0.53125 -0.046875q-0.71875 0 -1.234375 0.40625q-0.5 0.40625 -0.703125 1.1875l0 4.828125l-0.78125 0l0 -7.046875l0.765625 0l0.015625 1.125q0.609375 -1.25 1.984375 -1.25q0.3125 0 0.5 0.078125l-0.015625 0.71875zm1.7912292 -2.703125l-0.109375 1.984375l-0.578125 0q0.03125 -1.921875 0.03125 -2.90625l0.65625 0l0 0.921875zm5.5095215 7.28125q0 -0.578125 -0.46875 -0.921875q-0.46875 -0.359375 -1.40625 -0.546875q-0.9375 -0.203125 -1.453125 -0.453125q-0.515625 -0.265625 -0.765625 -0.625q-0.25 -0.375 -0.25 -0.90625q0 -0.828125 0.6875 -1.375q0.703125 -0.546875 1.796875 -0.546875q1.171875 0 1.875 0.59375q0.71875 0.578125 0.71875 1.515625l-0.78125 0q0 -0.625 -0.515625 -1.03125q-0.515625 -0.421875 -1.296875 -0.421875q-0.765625 0 -1.234375 0.34375q-0.46875 0.34375 -0.46875 0.890625q0 0.53125 0.390625 0.828125q0.390625 0.28125 1.40625 0.53125q1.03125 0.234375 1.53125 0.515625q0.515625 0.265625 0.765625 0.65625q0.25 0.375 0.25 0.921875q0 0.890625 -0.71875 1.421875q-0.71875 0.53125 -1.875 0.53125q-1.234375 0 -2.0 -0.59375q-0.765625 -0.59375 -0.765625 -1.5l0.78125 0q0.046875 0.6875 0.578125 1.0625q0.53125 0.375 1.40625 0.375q0.8125 0 1.3125 -0.359375q0.5 -0.359375 0.5 -0.90625zm6.4739685 -5.25l0.03125 1.15625q0.390625 -0.640625 0.96875 -0.953125q0.59375 -0.328125 1.3125 -0.328125q1.65625 0 2.109375 1.359375q0.375 -0.65625 1.0 -1.0q0.640625 -0.359375 1.40625 -0.359375q2.265625 0 2.3125 2.46875l0 4.703125l-0.78125 0l0 -4.640625q-0.015625 -0.9375 -0.421875 -1.390625q-0.390625 -0.46875 -1.296875 -0.46875q-0.84375 0.015625 -1.421875 0.546875q-0.578125 0.53125 -0.640625 1.296875l0 4.65625l-0.78125 0l0 -4.703125q0 -0.90625 -0.421875 -1.34375q-0.421875 -0.453125 -1.296875 -0.453125q-0.734375 0 -1.265625 0.421875q-0.515625 0.421875 -0.78125 1.25l0 4.828125l-0.78125 0l0 -7.046875l0.75 0zm15.546173 7.046875q-0.109375 -0.328125 -0.140625 -0.984375q-0.40625 0.53125 -1.046875 0.828125q-0.640625 0.28125 -1.34375 0.28125q-1.015625 0 -1.640625 -0.5625q-0.625 -0.5625 -0.625 -1.4375q0 -1.015625 0.84375 -1.609375q0.859375 -0.609375 2.390625 -0.609375l1.40625 0l0 -0.796875q0 -0.765625 -0.46875 -1.1875q-0.453125 -0.4375 -1.34375 -0.4375q-0.8125 0 -1.359375 0.421875q-0.53125 0.40625 -0.53125 1.0l-0.78125 -0.015625q0 -0.828125 0.78125 -1.4375q0.78125 -0.625 1.921875 -0.625q1.1875 0 1.859375 0.59375q0.6875 0.578125 0.703125 1.640625l0 3.328125q0 1.03125 0.21875 1.53125l0 0.078125l-0.84375 0zm-2.4375 -0.5625q0.78125 0 1.390625 -0.375q0.625 -0.375 0.890625 -1.015625l0 -1.546875l-1.390625 0q-1.15625 0.015625 -1.8125 0.4375q-0.65625 0.40625 -0.65625 1.125q0 0.59375 0.4375 0.984375q0.4375 0.390625 1.140625 0.390625zm7.748535 0.03125q0.8125 0 1.359375 -0.453125q0.546875 -0.453125 0.59375 -1.1875l0.75 0q-0.03125 0.640625 -0.40625 1.171875q-0.375 0.53125 -0.984375 0.828125q-0.609375 0.296875 -1.3125 0.296875q-1.390625 0 -2.203125 -0.953125q-0.8125 -0.96875 -0.8125 -2.59375l0 -0.234375q0 -1.046875 0.359375 -1.84375q0.375 -0.796875 1.046875 -1.234375q0.6875 -0.4375 1.59375 -0.4375q1.15625 0 1.90625 0.6875q0.765625 0.6875 0.8125 1.8125l-0.75 0q-0.046875 -0.828125 -0.59375 -1.328125q-0.546875 -0.515625 -1.375 -0.515625q-1.046875 0 -1.640625 0.765625q-0.578125 0.765625 -0.578125 2.140625l0 0.21875q0 1.359375 0.578125 2.109375q0.59375 0.75 1.65625 0.75zm5.037689 -5.3125q0.375 -0.640625 0.96875 -0.984375q0.609375 -0.34375 1.3125 -0.34375q1.140625 0 1.6875 0.640625q0.546875 0.640625 0.5625 1.90625l0 4.625l-0.78125 0l0 -4.625q0 -0.953125 -0.40625 -1.40625q-0.390625 -0.46875 -1.25 -0.46875q-0.71875 0 -1.28125 0.453125q-0.546875 0.453125 -0.8125 1.21875l0 4.828125l-0.78125 0l0 -10.0l0.78125 0l0 4.15625zm7.4086 5.84375l-0.78125 0l0 -7.046875l0.78125 0l0 7.046875zm-0.921875 -9.078125q0 -0.21875 0.140625 -0.375q0.140625 -0.15625 0.390625 -0.15625q0.25 0 0.390625 0.15625q0.15625 0.15625 0.15625 0.375q0 0.21875 -0.15625 0.375q-0.140625 0.140625 -0.390625 0.140625q-0.25 0 -0.390625 -0.140625q-0.140625 -0.15625 -0.140625 -0.375zm3.7683716 2.03125l0.03125 1.203125q0.40625 -0.640625 0.984375 -0.984375q0.59375 -0.34375 1.3125 -0.34375q1.140625 0 1.6875 0.640625q0.546875 0.640625 0.5625 1.90625l0 4.625l-0.78125 0l0 -4.625q0 -0.953125 -0.40625 -1.40625q-0.390625 -0.46875 -1.25 -0.46875q-0.71875 0 -1.28125 0.453125q-0.546875 0.453125 -0.8125 1.21875l0 4.828125l-0.78125 0l0 -7.046875l0.734375 0zm9.305725 7.171875q-0.890625 0 -1.625 -0.4375q-0.71875 -0.4375 -1.125 -1.234375q-0.40625 -0.796875 -0.40625 -1.765625l0 -0.28125q0 -1.015625 0.390625 -1.828125q0.40625 -0.8125 1.109375 -1.28125q0.703125 -0.46875 1.515625 -0.46875q1.28125 0 2.03125 0.875q0.765625 0.875 0.765625 2.390625l0 0.4375l-5.03125 0l0 0.15625q0 1.1875 0.6875 1.984375q0.6875 0.796875 1.734375 0.796875q0.625 0 1.09375 -0.21875q0.484375 -0.234375 0.875 -0.734375l0.484375 0.375q-0.859375 1.234375 -2.5 1.234375zm-0.140625 -6.640625q-0.875 0 -1.484375 0.65625q-0.59375 0.640625 -0.71875 1.734375l4.21875 0l0 -0.09375q-0.03125 -1.015625 -0.578125 -1.65625q-0.546875 -0.640625 -1.4375 -0.640625zm6.6353455 2.78125q0 1.4375 -0.359375 2.765625q-0.34375 1.3125 -1.046875 2.40625q-0.6875 1.109375 -1.53125 1.625l-0.1875 -0.5q0.640625 -0.453125 1.171875 -1.421875q0.546875 -0.953125 0.859375 -2.21875q0.3125 -1.28125 0.3125 -2.765625q0 -1.34375 -0.3125 -2.59375q-0.3125 -1.265625 -0.859375 -2.25q-0.546875 -0.984375 -1.171875 -1.4375l0.1875 -0.5q0.8125 0.5 1.5 1.609375q0.703125 1.09375 1.0625 2.4375q0.375 1.34375 0.375 2.84375z" fill-rule="nonzero"/><path fill="#000000" fill-opacity="0.0" d="m315.99738 244.3727l324.59845 0l0 235.93703l-324.59845 0z" fill-rule="evenodd"/><path stroke="#4285f4" stroke-width="1.0" stroke-linejoin="round" stroke-linecap="butt" stroke-dasharray="1.0,3.0" d="m315.99738 244.3727l324.59845 0l0 235.93703l-324.59845 0z" fill-rule="evenodd"/><path fill="#4285f4" d="m326.09113 468.1097l0 -9.46875l2.6875 0q1.234375 0 2.171875 0.546875q0.953125 0.546875 1.46875 1.5625q0.53125 1.0 0.53125 2.296875l0 0.609375q0 1.34375 -0.515625 2.359375q-0.515625 1.0 -1.484375 1.546875q-0.953125 0.53125 -2.234375 0.546875l-2.625 0zm1.25 -8.453125l0 7.4375l1.3125 0q1.453125 0 2.25 -0.890625q0.8125 -0.90625 0.8125 -2.578125l0 -0.546875q0 -1.609375 -0.765625 -2.5q-0.75 -0.90625 -2.140625 -0.921875l-1.46875 0zm6.990082 4.875q0 -1.046875 0.40625 -1.875q0.40625 -0.828125 1.125 -1.265625q0.734375 -0.453125 1.65625 -0.453125q1.4375 0 2.328125 1.0q0.890625 0.984375 0.890625 2.640625l0 0.09375q0 1.015625 -0.390625 1.84375q-0.390625 0.8125 -1.125 1.265625q-0.734375 0.453125 -1.6875 0.453125q-1.421875 0 -2.3125 -0.984375q-0.890625 -1.0 -0.890625 -2.640625l0 -0.078125zm1.203125 0.140625q0 1.171875 0.546875 1.875q0.546875 0.703125 1.453125 0.703125q0.921875 0 1.453125 -0.71875q0.546875 -0.71875 0.546875 -2.0q0 -1.171875 -0.546875 -1.890625q-0.546875 -0.71875 -1.46875 -0.71875q-0.890625 0 -1.4375 0.71875q-0.546875 0.703125 -0.546875 2.03125zm9.538696 2.578125q0.640625 0 1.125 -0.390625q0.484375 -0.390625 0.53125 -0.96875l1.140625 0q-0.03125 0.609375 -0.421875 1.15625q-0.375 0.546875 -1.015625 0.875q-0.640625 0.3125 -1.359375 0.3125q-1.4375 0 -2.296875 -0.953125q-0.84375 -0.96875 -0.84375 -2.625l0 -0.203125q0 -1.03125 0.375 -1.828125q0.390625 -0.796875 1.09375 -1.234375q0.703125 -0.453125 1.671875 -0.453125q1.171875 0 1.953125 0.71875q0.796875 0.703125 0.84375 1.828125l-1.140625 0q-0.046875 -0.671875 -0.515625 -1.109375q-0.46875 -0.453125 -1.140625 -0.453125q-0.921875 0 -1.4375 0.671875q-0.5 0.65625 -0.5 1.90625l0 0.21875q0 1.21875 0.5 1.875q0.515625 0.65625 1.4375 0.65625zm6.1170654 -2.40625l-0.75 0.796875l0 2.46875l-1.203125 0l0 -10.0l1.203125 0l0 6.046875l0.640625 -0.765625l2.1875 -2.328125l1.46875 0l-2.734375 2.953125l3.046875 4.09375l-1.40625 0l-2.453125 -3.265625zm7.5780945 3.390625q-1.421875 0 -2.328125 -0.9375q-0.890625 -0.9375 -0.890625 -2.515625l0 -0.21875q0 -1.046875 0.390625 -1.859375q0.40625 -0.828125 1.125 -1.296875q0.71875 -0.46875 1.5625 -0.46875q1.375 0 2.125 0.90625q0.765625 0.90625 0.765625 2.59375l0 0.5l-4.765625 0q0.015625 1.03125 0.59375 1.671875q0.59375 0.640625 1.484375 0.640625q0.640625 0 1.078125 -0.25q0.453125 -0.265625 0.78125 -0.6875l0.734375 0.5625q-0.875 1.359375 -2.65625 1.359375zm-0.140625 -6.3125q-0.734375 0 -1.234375 0.53125q-0.484375 0.53125 -0.609375 1.484375l3.53125 0l0 -0.078125q-0.046875 -0.921875 -0.5 -1.421875q-0.4375 -0.515625 -1.1875 -0.515625zm7.686035 0.21875q-0.265625 -0.03125 -0.59375 -0.03125q-1.1875 0 -1.609375 1.0l0 5.0l-1.203125 0l0 -7.046875l1.171875 0l0.03125 0.8125q0.578125 -0.9375 1.671875 -0.9375q0.34375 0 0.53125 0.09375l0 1.109375zm4.5907288 5.96875l0 -9.46875l2.6875 0q1.234375 0 2.171875 0.546875q0.953125 0.546875 1.46875 1.5625q0.53125 1.0 0.53125 2.296875l0 0.609375q0 1.34375 -0.515625 2.359375q-0.515625 1.0 -1.484375 1.546875q-0.953125 0.53125 -2.234375 0.546875l-2.625 0zm1.25 -8.453125l0 7.4375l1.3125 0q1.453125 0 2.25 -0.890625q0.8125 -0.90625 0.8125 -2.578125l0 -0.546875q0 -1.609375 -0.765625 -2.5q-0.75 -0.90625 -2.140625 -0.921875l-1.46875 0zm10.224457 8.578125q-1.421875 0 -2.328125 -0.9375q-0.890625 -0.9375 -0.890625 -2.515625l0 -0.21875q0 -1.046875 0.390625 -1.859375q0.40625 -0.828125 1.125 -1.296875q0.71875 -0.46875 1.5625 -0.46875q1.375 0 2.125 0.90625q0.765625 0.90625 0.765625 2.59375l0 0.5l-4.765625 0q0.015625 1.03125 0.59375 1.671875q0.59375 0.640625 1.484375 0.640625q0.640625 0 1.078125 -0.25q0.453125 -0.265625 0.78125 -0.6875l0.734375 0.5625q-0.875 1.359375 -2.65625 1.359375zm-0.140625 -6.3125q-0.734375 0 -1.234375 0.53125q-0.484375 0.53125 -0.609375 1.484375l3.53125 0l0 -0.078125q-0.046875 -0.921875 -0.5 -1.421875q-0.4375 -0.515625 -1.1875 -0.515625zm8.38916 4.3125q0 -0.484375 -0.375 -0.75q-0.359375 -0.265625 -1.28125 -0.453125q-0.90625 -0.203125 -1.453125 -0.46875q-0.53125 -0.28125 -0.796875 -0.65625q-0.25 -0.390625 -0.25 -0.90625q0 -0.859375 0.734375 -1.453125q0.734375 -0.609375 1.875 -0.609375q1.1875 0 1.9375 0.625q0.75 0.609375 0.75 1.578125l-1.21875 0q0 -0.5 -0.421875 -0.859375q-0.421875 -0.359375 -1.046875 -0.359375q-0.65625 0 -1.03125 0.296875q-0.375 0.28125 -0.375 0.75q0 0.421875 0.34375 0.65625q0.34375 0.21875 1.25 0.421875q0.90625 0.203125 1.453125 0.484375q0.5625 0.265625 0.828125 0.671875q0.28125 0.390625 0.28125 0.953125q0 0.9375 -0.765625 1.515625q-0.75 0.5625 -1.953125 0.5625q-0.84375 0 -1.5 -0.296875q-0.640625 -0.296875 -1.015625 -0.828125q-0.359375 -0.546875 -0.359375 -1.171875l1.203125 0q0.03125 0.609375 0.484375 0.96875q0.453125 0.34375 1.1875 0.34375q0.6875 0 1.09375 -0.265625q0.421875 -0.28125 0.421875 -0.75zm4.7316895 -1.390625l-0.75 0.796875l0 2.46875l-1.203125 0l0 -10.0l1.203125 0l0 6.046875l0.640625 -0.765625l2.1875 -2.328125l1.46875 0l-2.734375 2.953125l3.046875 4.09375l-1.40625 0l-2.453125 -3.265625zm6.427063 -5.484375l0 1.703125l1.3125 0l0 0.9375l-1.3125 0l0 4.359375q0 0.421875 0.171875 0.640625q0.171875 0.21875 0.59375 0.21875q0.21875 0 0.578125 -0.078125l0 0.96875q-0.46875 0.125 -0.921875 0.125q-0.8125 0 -1.21875 -0.484375q-0.40625 -0.484375 -0.40625 -1.390625l0 -4.359375l-1.28125 0l0 -0.9375l1.28125 0l0 -1.703125l1.203125 0zm2.2704468 5.171875q0 -1.046875 0.40625 -1.875q0.40625 -0.828125 1.125 -1.265625q0.734375 -0.453125 1.65625 -0.453125q1.4375 0 2.328125 1.0q0.890625 0.984375 0.890625 2.640625l0 0.09375q0 1.015625 -0.390625 1.84375q-0.390625 0.8125 -1.125 1.265625q-0.734375 0.453125 -1.6875 0.453125q-1.421875 0 -2.3125 -0.984375q-0.890625 -1.0 -0.890625 -2.640625l0 -0.078125zm1.203125 0.140625q0 1.171875 0.546875 1.875q0.546875 0.703125 1.453125 0.703125q0.921875 0 1.453125 -0.71875q0.546875 -0.71875 0.546875 -2.0q0 -1.171875 -0.546875 -1.890625q-0.546875 -0.71875 -1.46875 -0.71875q-0.890625 0 -1.4375 0.71875q-0.546875 0.703125 -0.546875 2.03125zm12.663696 0q0 1.609375 -0.734375 2.59375q-0.734375 0.96875 -2.0 0.96875q-1.28125 0 -2.015625 -0.8125l0 3.390625l-1.203125 0l0 -9.75l1.109375 0l0.046875 0.78125q0.75 -0.90625 2.046875 -0.90625q1.265625 0 2.0 0.953125q0.75 0.953125 0.75 2.671875l0 0.109375zm-1.203125 -0.140625q0 -1.1875 -0.515625 -1.875q-0.5 -0.703125 -1.390625 -0.703125q-1.09375 0 -1.640625 0.96875l0 3.375q0.546875 0.953125 1.65625 0.953125q0.875 0 1.375 -0.671875q0.515625 -0.6875 0.515625 -2.046875zm6.2145386 3.578125l0 -9.46875l2.6875 0q1.234375 0 2.171875 0.546875q0.953125 0.546875 1.46875 1.5625q0.53125 1.0 0.53125 2.296875l0 0.609375q0 1.34375 -0.515625 2.359375q-0.515625 1.0 -1.484375 1.546875q-0.953125 0.53125 -2.234375 0.546875l-2.625 0zm1.25 -8.453125l0 7.4375l1.3125 0q1.453125 0 2.25 -0.890625q0.8125 -0.90625 0.8125 -2.578125l0 -0.546875q0 -1.609375 -0.765625 -2.5q-0.75 -0.90625 -2.140625 -0.921875l-1.46875 0zm11.661957 8.453125q-0.109375 -0.203125 -0.171875 -0.734375q-0.84375 0.859375 -2.015625 0.859375q-1.03125 0 -1.703125 -0.578125q-0.671875 -0.59375 -0.671875 -1.5q0 -1.09375 0.828125 -1.703125q0.84375 -0.609375 2.359375 -0.609375l1.171875 0l0 -0.5625q0 -0.625 -0.375 -1.0q-0.375 -0.375 -1.109375 -0.375q-0.640625 0 -1.078125 0.328125q-0.4375 0.328125 -0.4375 0.78125l-1.203125 0q0 -0.515625 0.359375 -1.0q0.375 -0.5 1.015625 -0.78125q0.65625 -0.296875 1.421875 -0.296875q1.21875 0 1.90625 0.609375q0.6875 0.609375 0.71875 1.671875l0 3.25q0 0.96875 0.234375 1.53125l0 0.109375l-1.25 0zm-2.0 -0.921875q0.5625 0 1.0625 -0.28125q0.515625 -0.296875 0.734375 -0.765625l0 -1.453125l-0.9375 0q-2.21875 0 -2.21875 1.296875q0 0.5625 0.375 0.890625q0.390625 0.3125 0.984375 0.3125zm8.999786 -0.953125q0 -0.484375 -0.375 -0.75q-0.359375 -0.265625 -1.28125 -0.453125q-0.90625 -0.203125 -1.453125 -0.46875q-0.53125 -0.28125 -0.796875 -0.65625q-0.25 -0.390625 -0.25 -0.90625q0 -0.859375 0.734375 -1.453125q0.734375 -0.609375 1.875 -0.609375q1.1875 0 1.9375 0.625q0.75 0.609375 0.75 1.578125l-1.21875 0q0 -0.5 -0.421875 -0.859375q-0.421875 -0.359375 -1.046875 -0.359375q-0.65625 0 -1.03125 0.296875q-0.375 0.28125 -0.375 0.75q0 0.421875 0.34375 0.65625q0.34375 0.21875 1.25 0.421875q0.90625 0.203125 1.453125 0.484375q0.5625 0.265625 0.828125 0.671875q0.28125 0.390625 0.28125 0.953125q0 0.9375 -0.765625 1.515625q-0.75 0.5625 -1.953125 0.5625q-0.84375 0 -1.5 -0.296875q-0.640625 -0.296875 -1.015625 -0.828125q-0.359375 -0.546875 -0.359375 -1.171875l1.203125 0q0.03125 0.609375 0.484375 0.96875q0.453125 0.34375 1.1875 0.34375q0.6875 0 1.09375 -0.265625q0.421875 -0.28125 0.421875 -0.75zm3.9660645 -4.3125q0.8125 -0.984375 2.09375 -0.984375q2.234375 0 2.25 2.515625l0 4.65625l-1.203125 0l0 -4.65625q-0.015625 -0.765625 -0.359375 -1.125q-0.328125 -0.375 -1.0625 -0.375q-0.578125 0 -1.03125 0.3125q-0.4375 0.3125 -0.6875 0.828125l0 5.015625l-1.203125 0l0 -10.0l1.203125 0l0 3.8125zm12.106506 2.75q0 1.609375 -0.75 2.59375q-0.734375 0.96875 -1.984375 0.96875q-1.328125 0 -2.0625 -0.9375l-0.0625 0.8125l-1.109375 0l0 -10.0l1.203125 0l0 3.734375q0.734375 -0.90625 2.015625 -0.90625q1.28125 0 2.015625 0.96875q0.734375 0.96875 0.734375 2.65625l0 0.109375zm-1.203125 -0.140625q0 -1.234375 -0.484375 -1.90625q-0.46875 -0.671875 -1.359375 -0.671875q-1.1875 0 -1.71875 1.109375l0 3.046875q0.5625 1.109375 1.734375 1.109375q0.859375 0 1.34375 -0.671875q0.484375 -0.671875 0.484375 -2.015625zm2.399414 0q0 -1.046875 0.40625 -1.875q0.40625 -0.828125 1.125 -1.265625q0.734375 -0.453125 1.65625 -0.453125q1.4375 0 2.328125 1.0q0.890625 0.984375 0.890625 2.640625l0 0.09375q0 1.015625 -0.390625 1.84375q-0.390625 0.8125 -1.125 1.265625q-0.734375 0.453125 -1.6875 0.453125q-1.421875 0 -2.3125 -0.984375q-0.890625 -1.0 -0.890625 -2.640625l0 -0.078125zm1.203125 0.140625q0 1.171875 0.546875 1.875q0.546875 0.703125 1.453125 0.703125q0.921875 0 1.453125 -0.71875q0.546875 -0.71875 0.546875 -2.0q0 -1.171875 -0.546875 -1.890625q-0.546875 -0.71875 -1.46875 -0.71875q-0.890625 0 -1.4375 0.71875q-0.546875 0.703125 -0.546875 2.03125zm11.069946 3.4375q-0.109375 -0.203125 -0.171875 -0.734375q-0.84375 0.859375 -2.015625 0.859375q-1.03125 0 -1.703125 -0.578125q-0.671875 -0.59375 -0.671875 -1.5q0 -1.09375 0.828125 -1.703125q0.84375 -0.609375 2.359375 -0.609375l1.171875 0l0 -0.5625q0 -0.625 -0.375 -1.0q-0.375 -0.375 -1.109375 -0.375q-0.640625 0 -1.078125 0.328125q-0.4375 0.328125 -0.4375 0.78125l-1.203125 0q0 -0.515625 0.359375 -1.0q0.375 -0.5 1.015625 -0.78125q0.65625 -0.296875 1.421875 -0.296875q1.21875 0 1.90625 0.609375q0.6875 0.609375 0.71875 1.671875l0 3.25q0 0.96875 0.234375 1.53125l0 0.109375l-1.25 0zm-2.0 -0.921875q0.5625 0 1.0625 -0.28125q0.515625 -0.296875 0.734375 -0.765625l0 -1.453125l-0.9375 0q-2.21875 0 -2.21875 1.296875q0 0.5625 0.375 0.890625q0.390625 0.3125 0.984375 0.3125zm8.296661 -5.046875q-0.265625 -0.03125 -0.59375 -0.03125q-1.1875 0 -1.609375 1.0l0 5.0l-1.203125 0l0 -7.046875l1.171875 0l0.03125 0.8125q0.578125 -0.9375 1.671875 -0.9375q0.34375 0 0.53125 0.09375l0 1.109375zm0.698761 2.390625q0 -1.625 0.765625 -2.609375q0.765625 -0.984375 2.0 -0.984375q1.25 0 1.96875 0.84375l0 -3.671875l1.203125 0l0 10.0l-1.109375 0l-0.0625 -0.75q-0.71875 0.875 -2.0 0.875q-1.234375 0 -2.0 -1.0q-0.765625 -1.0 -0.765625 -2.609375l0 -0.09375zm1.203125 0.140625q0 1.1875 0.484375 1.875q0.5 0.671875 1.375 0.671875q1.140625 0 1.671875 -1.03125l0 -3.234375q-0.546875 -1.0 -1.65625 -1.0q-0.890625 0 -1.390625 0.6875q-0.484375 0.6875 -0.484375 2.03125z" fill-rule="nonzero"/><path fill="#d9d2e9" d="m341.20996 272.84726l0 0c0 -4.4933777 3.6426086 -8.135986 8.135986 -8.135986l257.90125 0c2.157837 0 4.227234 0.85720825 5.7530518 2.3829956c1.5257568 1.5257874 2.3829346 3.5952148 2.3829346 5.7529907l0 144.0115c0 4.4933777 -3.6425781 8.135986 -8.135986 8.135986l-257.90125 0l0 0c-4.4933777 0 -8.135986 -3.6426086 -8.135986 -8.135986z" fill-rule="evenodd"/><path stroke="#9900ff" stroke-width="2.0" stroke-linejoin="round" stroke-linecap="butt" d="m341.20996 272.84726l0 0c0 -4.4933777 3.6426086 -8.135986 8.135986 -8.135986l257.90125 0c2.157837 0 4.227234 0.85720825 5.7530518 2.3829956c1.5257568 1.5257874 2.3829346 3.5952148 2.3829346 5.7529907l0 144.0115c0 4.4933777 -3.6425781 8.135986 -8.135986 8.135986l-257.90125 0l0 0c-4.4933777 0 -8.135986 -3.6426086 -8.135986 -8.135986z" fill-rule="evenodd"/><path fill="#9900ff" d="m358.92105 406.2243l-3.984375 0l0 4.1875l-1.25 0l0 -9.46875l5.875 0l0 1.015625l-4.625 0l0 3.25l3.984375 0l0 1.015625zm5.182007 -1.78125q-0.265625 -0.03125 -0.59375 -0.03125q-1.1875 0 -1.609375 1.0l0 5.0l-1.203125 0l0 -7.046875l1.171875 0l0.03125 0.8125q0.578125 -0.9375 1.671875 -0.9375q0.34375 0 0.53125 0.09375l0 1.109375zm0.66101074 2.390625q0 -1.046875 0.40625 -1.875q0.40625 -0.828125 1.125 -1.265625q0.734375 -0.453125 1.65625 -0.453125q1.4375 0 2.328125 1.0q0.890625 0.984375 0.890625 2.640625l0 0.09375q0 1.015625 -0.390625 1.84375q-0.390625 0.8125 -1.125 1.265625q-0.734375 0.453125 -1.6875 0.453125q-1.421875 0 -2.3125 -0.984375q-0.890625 -1.0 -0.890625 -2.640625l0 -0.078125zm1.203125 0.140625q0 1.171875 0.546875 1.875q0.546875 0.703125 1.453125 0.703125q0.921875 0 1.453125 -0.71875q0.546875 -0.71875 0.546875 -2.0q0 -1.171875 -0.546875 -1.890625q-0.546875 -0.71875 -1.46875 -0.71875q-0.890625 0 -1.4375 0.71875q-0.546875 0.703125 -0.546875 2.03125zm7.8511963 -3.609375l0.046875 0.890625q0.796875 -1.015625 2.109375 -1.015625q2.234375 0 2.25 2.515625l0 4.65625l-1.203125 0l0 -4.65625q-0.015625 -0.765625 -0.359375 -1.125q-0.328125 -0.375 -1.0625 -0.375q-0.578125 0 -1.03125 0.3125q-0.4375 0.3125 -0.6875 0.828125l0 5.015625l-1.203125 0l0 -7.046875l1.140625 0zm7.8539124 -1.703125l0 1.703125l1.3125 0l0 0.9375l-1.3125 0l0 4.359375q0 0.421875 0.171875 0.640625q0.171875 0.21875 0.59375 0.21875q0.21875 0 0.578125 -0.078125l0 0.96875q-0.46875 0.125 -0.921875 0.125q-0.8125 0 -1.21875 -0.484375q-0.40625 -0.484375 -0.40625 -1.390625l0 -4.359375l-1.28125 0l0 -0.9375l1.28125 0l0 -1.703125l1.203125 0zm5.63501 8.875q-1.421875 0 -2.328125 -0.9375q-0.890625 -0.9375 -0.890625 -2.515625l0 -0.21875q0 -1.046875 0.390625 -1.859375q0.40625 -0.828125 1.125 -1.296875q0.71875 -0.46875 1.5625 -0.46875q1.375 0 2.125 0.90625q0.765625 0.90625 0.765625 2.59375l0 0.5l-4.765625 0q0.015625 1.03125 0.59375 1.671875q0.59375 0.640625 1.484375 0.640625q0.640625 0 1.078125 -0.25q0.453125 -0.265625 0.78125 -0.6875l0.734375 0.5625q-0.875 1.359375 -2.65625 1.359375zm-0.140625 -6.3125q-0.734375 0 -1.234375 0.53125q-0.484375 0.53125 -0.609375 1.484375l3.53125 0l0 -0.078125q-0.046875 -0.921875 -0.5 -1.421875q-0.4375 -0.515625 -1.1875 -0.515625zm5.4204407 -0.859375l0.046875 0.890625q0.796875 -1.015625 2.109375 -1.015625q2.234375 0 2.25 2.515625l0 4.65625l-1.203125 0l0 -4.65625q-0.015625 -0.765625 -0.359375 -1.125q-0.328125 -0.375 -1.0625 -0.375q-0.578125 0 -1.03125 0.3125q-0.4375 0.3125 -0.6875 0.828125l0 5.015625l-1.203125 0l0 -7.046875l1.140625 0zm5.932007 3.46875q0 -1.625 0.765625 -2.609375q0.765625 -0.984375 2.0 -0.984375q1.25 0 1.96875 0.84375l0 -3.671875l1.203125 0l0 10.0l-1.109375 0l-0.0625 -0.75q-0.71875 0.875 -2.0 0.875q-1.234375 0 -2.0 -1.0q-0.765625 -1.0 -0.765625 -2.609375l0 -0.09375zm1.203125 0.140625q0 1.1875 0.484375 1.875q0.5 0.671875 1.375 0.671875q1.140625 0 1.671875 -1.03125l0 -3.234375q-0.546875 -1.0 -1.65625 -1.0q-0.890625 0 -1.390625 0.6875q-0.484375 0.6875 -0.484375 2.03125z" fill-rule="nonzero"/><path fill="#000000" fill-opacity="0.0" d="m341.20996 47.67503l0 0c0 -4.82008 3.9074707 -8.727524 8.727539 -8.727524l256.7182 0c2.3146362 0 4.534546 0.9195061 6.1712646 2.5562325c1.6367188 1.6367302 2.5562134 3.8566093 2.5562134 6.1712914l0 154.48196c0 4.8200684 -3.9074097 8.727524 -8.727478 8.727524l-256.7182 0l0 0c-4.8200684 0 -8.727539 -3.9074554 -8.727539 -8.727524z" fill-rule="evenodd"/><path stroke="#9900ff" stroke-width="2.0" stroke-linejoin="round" stroke-linecap="butt" stroke-dasharray="2.0,6.0" d="m341.20996 47.67503l0 0c0 -4.82008 3.9074707 -8.727524 8.727539 -8.727524l256.7182 0c2.3146362 0 4.534546 0.9195061 6.1712646 2.5562325c1.6367188 1.6367302 2.5562134 3.8566093 2.5562134 6.1712914l0 154.48196c0 4.8200684 -3.9074097 8.727524 -8.727478 8.727524l-256.7182 0l0 0c-4.8200684 0 -8.727539 -3.9074554 -8.727539 -8.727524z" fill-rule="evenodd"/><path fill="#9900ff" d="m359.2193 191.75331l-4.109375 0l0 3.359375l4.78125 0l0 1.015625l-6.03125 0l0 -9.46875l5.953125 0l0 1.015625l-4.703125 0l0 3.046875l4.109375 0l0 1.03125zm4.40329 -0.09375l1.546875 -2.578125l1.40625 0l-2.296875 3.484375l2.375 3.5625l-1.390625 0l-1.625 -2.640625l-1.625 2.640625l-1.40625 0l2.375 -3.5625l-2.296875 -3.484375l1.390625 0l1.546875 2.578125zm7.0221863 4.59375q-1.421875 0 -2.328125 -0.9375q-0.890625 -0.9375 -0.890625 -2.515625l0 -0.21875q0 -1.046875 0.390625 -1.859375q0.40625 -0.828125 1.125 -1.296875q0.71875 -0.46875 1.5625 -0.46875q1.375 0 2.125 0.90625q0.765625 0.90625 0.765625 2.59375l0 0.5l-4.765625 0q0.015625 1.03125 0.59375 1.671875q0.59375 0.640625 1.484375 0.640625q0.640625 0 1.078125 -0.25q0.453125 -0.265625 0.78125 -0.6875l0.734375 0.5625q-0.875 1.359375 -2.65625 1.359375zm-0.140625 -6.3125q-0.734375 0 -1.234375 0.53125q-0.484375 0.53125 -0.609375 1.484375l3.53125 0l0 -0.078125q-0.046875 -0.921875 -0.5 -1.421875q-0.4375 -0.515625 -1.1875 -0.515625zm7.10791 5.328125q0.640625 0 1.125 -0.390625q0.484375 -0.390625 0.53125 -0.96875l1.140625 0q-0.03125 0.609375 -0.421875 1.15625q-0.375 0.546875 -1.015625 0.875q-0.640625 0.3125 -1.359375 0.3125q-1.4375 0 -2.296875 -0.953125q-0.84375 -0.96875 -0.84375 -2.625l0 -0.203125q0 -1.03125 0.375 -1.828125q0.390625 -0.796875 1.09375 -1.234375q0.703125 -0.453125 1.671875 -0.453125q1.171875 0 1.953125 0.71875q0.796875 0.703125 0.84375 1.828125l-1.140625 0q-0.046875 -0.671875 -0.515625 -1.109375q-0.46875 -0.453125 -1.140625 -0.453125q-0.921875 0 -1.4375 0.671875q-0.5 0.65625 -0.5 1.90625l0 0.21875q0 1.21875 0.5 1.875q0.515625 0.65625 1.4375 0.65625zm8.50769 0.15625q-0.703125 0.828125 -2.0625 0.828125q-1.140625 0 -1.734375 -0.640625q-0.578125 -0.65625 -0.578125 -1.9375l0 -4.59375l1.203125 0l0 4.546875q0 1.609375 1.296875 1.609375q1.375 0 1.828125 -1.03125l0 -5.125l1.21875 0l0 7.046875l-1.15625 0l-0.015625 -0.703125zm4.628662 -8.046875l0 1.703125l1.3125 0l0 0.9375l-1.3125 0l0 4.359375q0 0.421875 0.171875 0.640625q0.171875 0.21875 0.59375 0.21875q0.21875 0 0.578125 -0.078125l0 0.96875q-0.46875 0.125 -0.921875 0.125q-0.8125 0 -1.21875 -0.484375q-0.40625 -0.484375 -0.40625 -1.390625l0 -4.359375l-1.28125 0l0 -0.9375l1.28125 0l0 -1.703125l1.203125 0zm7.07251 8.75q-0.109375 -0.203125 -0.171875 -0.734375q-0.84375 0.859375 -2.015625 0.859375q-1.03125 0 -1.703125 -0.578125q-0.671875 -0.59375 -0.671875 -1.5q0 -1.09375 0.828125 -1.703125q0.84375 -0.609375 2.359375 -0.609375l1.171875 0l0 -0.5625q0 -0.625 -0.375 -1.0q-0.375 -0.375 -1.109375 -0.375q-0.640625 0 -1.078125 0.328125q-0.4375 0.328125 -0.4375 0.78125l-1.203125 0q0 -0.515625 0.359375 -1.0q0.375 -0.5 1.015625 -0.78125q0.65625 -0.296875 1.421875 -0.296875q1.21875 0 1.90625 0.609375q0.6875 0.609375 0.71875 1.671875l0 3.25q0 0.96875 0.234375 1.53125l0 0.109375l-1.25 0zm-2.0 -0.921875q0.5625 0 1.0625 -0.28125q0.515625 -0.296875 0.734375 -0.765625l0 -1.453125l-0.9375 0q-2.21875 0 -2.21875 1.296875q0 0.5625 0.375 0.890625q0.390625 0.3125 0.984375 0.3125zm10.859161 -2.515625q0 1.609375 -0.75 2.59375q-0.734375 0.96875 -1.984375 0.96875q-1.328125 0 -2.0625 -0.9375l-0.0625 0.8125l-1.109375 0l0 -10.0l1.203125 0l0 3.734375q0.734375 -0.90625 2.015625 -0.90625q1.28125 0 2.015625 0.96875q0.734375 0.96875 0.734375 2.65625l0 0.109375zm-1.203125 -0.140625q0 -1.234375 -0.484375 -1.90625q-0.46875 -0.671875 -1.359375 -0.671875q-1.1875 0 -1.71875 1.109375l0 3.046875q0.5625 1.109375 1.734375 1.109375q0.859375 0 1.34375 -0.671875q0.484375 -0.671875 0.484375 -2.015625zm4.024414 3.578125l-1.203125 0l0 -10.0l1.203125 0l0 10.0zm4.843811 0.125q-1.421875 0 -2.328125 -0.9375q-0.890625 -0.9375 -0.890625 -2.515625l0 -0.21875q0 -1.046875 0.390625 -1.859375q0.40625 -0.828125 1.125 -1.296875q0.71875 -0.46875 1.5625 -0.46875q1.375 0 2.125 0.90625q0.765625 0.90625 0.765625 2.59375l0 0.5l-4.765625 0q0.015625 1.03125 0.59375 1.671875q0.59375 0.640625 1.484375 0.640625q0.640625 0 1.078125 -0.25q0.453125 -0.265625 0.78125 -0.6875l0.734375 0.5625q-0.875 1.359375 -2.65625 1.359375zm-0.140625 -6.3125q-0.734375 0 -1.234375 0.53125q-0.484375 0.53125 -0.609375 1.484375l3.53125 0l0 -0.078125q-0.046875 -0.921875 -0.5 -1.421875q-0.4375 -0.515625 -1.1875 -0.515625zm8.38916 4.3125q0 -0.484375 -0.375 -0.75q-0.359375 -0.265625 -1.28125 -0.453125q-0.90625 -0.203125 -1.453125 -0.46875q-0.53125 -0.28125 -0.796875 -0.65625q-0.25 -0.390625 -0.25 -0.90625q0 -0.859375 0.734375 -1.453125q0.734375 -0.609375 1.875 -0.609375q1.1875 0 1.9375 0.625q0.75 0.609375 0.75 1.578125l-1.21875 0q0 -0.5 -0.421875 -0.859375q-0.421875 -0.359375 -1.046875 -0.359375q-0.65625 0 -1.03125 0.296875q-0.375 0.28125 -0.375 0.75q0 0.421875 0.34375 0.65625q0.34375 0.21875 1.25 0.421875q0.90625 0.203125 1.453125 0.484375q0.5625 0.265625 0.828125 0.671875q0.28125 0.390625 0.28125 0.953125q0 0.9375 -0.765625 1.515625q-0.75 0.5625 -1.953125 0.5625q-0.84375 0 -1.5 -0.296875q-0.640625 -0.296875 -1.015625 -0.828125q-0.359375 -0.546875 -0.359375 -1.171875l1.203125 0q0.03125 0.609375 0.484375 0.96875q0.453125 0.34375 1.1875 0.34375q0.6875 0 1.09375 -0.265625q0.421875 -0.28125 0.421875 -0.75z" fill-rule="nonzero"/><path fill="#d9d2e9" d="m428.94226 50.6063l66.70865 0l0 82.456474l-11.118317 11.118332l-55.590332 0z" fill-rule="evenodd"/><path fill="#ada7ba" d="m484.5326 144.1811l2.2236633 -8.894669l8.894653 -2.2236633z" fill-rule="evenodd"/><path fill="#000000" fill-opacity="0.0" d="m484.5326 144.1811l2.2236633 -8.894669l8.894653 -2.2236633l-11.118317 11.118332l-55.590332 0l0 -93.57481l66.70865 0l0 82.456474" fill-rule="evenodd"/><path stroke="#9900ff" stroke-width="2.0" stroke-linejoin="round" stroke-linecap="butt" d="m484.5326 144.1811l2.2236633 -8.894669l8.894653 -2.2236633l-11.118317 11.118332l-55.590332 0l0 -93.57481l66.70865 0l0 82.456474" fill-rule="evenodd"/><path fill="#d9d2e9" d="m444.94226 66.6063l66.70865 0l0 82.456474l-11.118317 11.118332l-55.590332 0z" fill-rule="evenodd"/><path fill="#ada7ba" d="m500.5326 160.1811l2.2236633 -8.894669l8.894653 -2.2236633z" fill-rule="evenodd"/><path fill="#000000" fill-opacity="0.0" d="m500.5326 160.1811l2.2236633 -8.894669l8.894653 -2.2236633l-11.118317 11.118332l-55.590332 0l0 -93.57481l66.70865 0l0 82.456474" fill-rule="evenodd"/><path stroke="#9900ff" stroke-width="2.0" stroke-linejoin="round" stroke-linecap="butt" d="m500.5326 160.1811l2.2236633 -8.894669l8.894653 -2.2236633l-11.118317 11.118332l-55.590332 0l0 -93.57481l66.70865 0l0 82.456474" fill-rule="evenodd"/><path fill="#d9d2e9" d="m460.94226 82.6063l66.70868 0l0 82.456474l-11.118347 11.118332l-55.590332 0z" fill-rule="evenodd"/><path fill="#ada7ba" d="m516.5326 176.1811l2.2236328 -8.894669l8.894714 -2.2236633z" fill-rule="evenodd"/><path fill="#000000" fill-opacity="0.0" d="m516.5326 176.1811l2.2236328 -8.894669l8.894714 -2.2236633l-11.118347 11.118332l-55.590332 0l0 -93.57481l66.70868 0l0 82.456474" fill-rule="evenodd"/><path stroke="#9900ff" stroke-width="2.0" stroke-linejoin="round" stroke-linecap="butt" d="m516.5326 176.1811l2.2236328 -8.894669l8.894714 -2.2236633l-11.118347 11.118332l-55.590332 0l0 -93.57481l66.70868 0l0 82.456474" fill-rule="evenodd"/><path fill="#000000" fill-opacity="0.0" d="m478.2966 264.71127l16.0 -88.535416" fill-rule="evenodd"/><path stroke="#9900ff" stroke-width="2.0" stroke-linejoin="round" stroke-linecap="butt" d="m480.43066 252.90256l11.731873 -64.917984" fill-rule="evenodd"/><path fill="#9900ff" stroke="#9900ff" stroke-width="2.0" stroke-linecap="butt" d="m477.17984 252.3151l1.6367188 9.518982l4.8648987 -8.344025z" fill-rule="evenodd"/><path fill="#9900ff" stroke="#9900ff" stroke-width="2.0" stroke-linecap="butt" d="m495.41333 188.57205l-1.6367188 -9.518997l-4.8648987 8.34404z" fill-rule="evenodd"/></g></svg>