<?xml version="1.0" encoding="utf-8"?>
<!-- Generator: Adobe Illustrator 18.0.0, SVG Export Plug-In . SVG Version: 6.00 Build 0)  -->
<!DOCTYPE svg PUBLIC "-//W3C//DTD SVG 1.1//EN" "http://www.w3.org/Graphics/SVG/1.1/DTD/svg11.dtd">
<svg version="1.1" id="Layer_1" xmlns="http://www.w3.org/2000/svg" xmlns:xlink="http://www.w3.org/1999/xlink" x="0px" y="0px"
	 viewBox="0 0 476.2 270.4" enable-background="new 0 0 476.2 270.4" xml:space="preserve">
<g>
	<path id="outline" fill-rule="evenodd" clip-rule="evenodd" fill="#3A4E55" d="M275.4,85.4h42.7V129h21.6c10,0,20.2-1.8,29.7-5
		c4.6-1.6,9.8-3.8,14.4-6.5c-6-7.9-9.1-17.8-10-27.6c-1.2-13.3,1.5-30.7,10.5-41.1l4.5-5.2l5.3,4.3c13.5,10.8,24.8,25.9,26.8,43.2
		c16.2-4.8,35.2-3.6,49.5,4.6l5.9,3.4l-3.1,6c-12.1,23.6-37.4,30.9-62.1,29.6c-37,92.1-117.4,135.7-215,135.7
		c-50.4,0-96.7-18.8-123-63.6l-0.4-0.7l-3.8-7.8c-8.9-19.7-11.9-41.3-9.9-62.8l0.6-6.5h36.5V85.4h42.7V42.7h85.4V0h51.2V85.4z"/>
	<g id="body_colors">
		<path fill="#08AADA" d="M413.7,101.5c2.9-22.2-13.8-39.7-24.1-48c-11.9,13.8-13.7,49.8,4.9,65c-10.4,9.3-32.4,17.6-54.8,17.6H66
			c-2.2,23.5,1.9,45.1,11.3,63.6l3.1,5.7c2,3.3,4.1,6.6,6.5,9.7c0,0,0,0,0,0c11.2,0.7,21.6,1,31.1,0.8c0,0,0,0,0,0
			c18.6-0.4,33.9-2.6,45.4-6.6c1.7-0.6,3.6,0.3,4.2,2c0.6,1.7-0.3,3.6-2,4.2c-1.5,0.5-3.1,1-4.8,1.5c0,0,0,0,0,0
			c-9.1,2.6-18.8,4.3-31.4,5.1c0.7,0-0.8,0.1-0.8,0.1c-0.4,0-1,0.1-1.4,0.1c-4.9,0.3-10.3,0.3-15.7,0.3c-6,0-11.8-0.1-18.4-0.4
			l-0.2,0.1c22.8,25.6,58.4,41,103.1,41c94.6,0,174.8-41.9,210.3-136c25.2,2.6,49.4-3.8,60.4-25.3C449.3,91.8,426.7,95,413.7,101.5z
			"/>
		<path fill="#2BB8EB" d="M413.7,101.5c2.9-22.2-13.8-39.7-24.1-48c-11.9,13.8-13.7,49.8,4.9,65c-10.4,9.3-32.4,17.6-54.8,17.6H82.2
			c-1.1,35.9,12.2,63.2,35.8,79.7c0,0,0,0,0,0c18.6-0.4,33.9-2.6,45.4-6.6c1.7-0.6,3.6,0.3,4.2,2c0.6,1.7-0.3,3.6-2,4.2
			c-1.5,0.5-3.1,1-4.8,1.5c0,0,0,0,0,0c-9.1,2.6-19.7,4.6-32.2,5.3c0,0-0.3-0.3-0.3-0.3c32.2,16.5,78.9,16.5,132.4-4.1
			c60-23,115.8-67,154.8-117.2C414.8,101,414.3,101.3,413.7,101.5z"/>
		<path fill="#088CB9" d="M66.6,164.7c1.7,12.6,5.4,24.3,10.8,35.1l3.1,5.7c2,3.3,4.1,6.6,6.5,9.7c11.3,0.7,21.6,1,31.1,0.8
			c18.6-0.4,33.9-2.6,45.4-6.6c1.7-0.6,3.6,0.3,4.2,2c0.6,1.7-0.3,3.6-2,4.2c-1.5,0.5-3.1,1-4.8,1.5c0,0,0,0,0,0
			c-9.1,2.6-19.6,4.4-32.2,5.2c-0.4,0-1.2,0-1.6,0.1c-4.9,0.3-10.2,0.4-15.7,0.4c-6,0-12.1-0.1-18.6-0.4c22.8,25.6,58.7,41,103.4,41
			c81,0,151.4-30.7,192.3-98.6H66.6z"/>
		<path fill="#069BC6" d="M84.7,164.7c4.8,22.1,16.5,39.4,33.4,51.2c18.6-0.4,33.9-2.6,45.4-6.6c1.7-0.6,3.6,0.3,4.2,2
			c0.6,1.7-0.3,3.6-2,4.2c-1.5,0.5-3.1,1-4.8,1.5c0,0,0,0,0,0c-9.1,2.6-19.8,4.4-32.4,5.2c32.2,16.5,78.7,16.3,132.2-4.3
			c32.4-12.4,63.5-30.9,91.5-53.2H84.7z"/>
	</g>
	<g display="none">
		<path display="inline" fill="#3A4E55" d="M111.4,222.5c5.5,0,10.7-0.1,15.6-0.4c0.4,0,0.8-0.1,1.3-0.1c0,0,0,0,0,0
			c12.6-0.8,23.4-2.5,32.5-5c0,0,0,0,0,0c1.7-0.5,3.2-1,4.8-1.5c1.7-0.6,2.6-2.5,2-4.2c-0.6-1.7-2.5-2.6-4.2-2
			c-11.5,4-26.7,6.2-45.4,6.6c0,0,0,0,0,0c-9.5,0.2-19.9,0-31.1-0.8c0,0,0,0,0,0c-0.6,0-1.1-0.1-1.7-0.1c-1.8-0.1-3.4,1.2-3.5,3.1
			c-0.1,1.8,1.2,3.4,3.1,3.5c2.3,0.2,4.6,0.3,6.8,0.4c0.4,0,0.7,0,1,0l0,0C99.2,222.3,105.5,222.5,111.4,222.5z"/>
	</g>
	<g id="Containers">
		<path fill-rule="evenodd" clip-rule="evenodd" fill="#00ACD2" d="M134.2,95.6h2.9v30.8h-2.9V95.6z M128.6,95.6h3v30.8h-3V95.6z
			 M123,95.6h3v30.8h-3V95.6z M117.4,95.6h3v30.8h-3V95.6z M111.8,95.6h3v30.8h-3V95.6z M106.3,95.6h2.9v30.8h-2.9V95.6z
			 M103.2,92.5h37v37h-37V92.5z"/>
		<path fill-rule="evenodd" clip-rule="evenodd" fill="#00ACD2" d="M176.9,52.9h2.9v30.8h-2.9V52.9z M171.3,52.9h3v30.8h-3V52.9z
			 M165.7,52.9h3v30.8h-3V52.9z M160.1,52.9h3v30.8h-3V52.9z M154.5,52.9h3v30.8h-3V52.9z M149,52.9h2.9v30.8H149V52.9z M145.9,49.8
			h37v37h-37V49.8z"/>
		<path fill-rule="evenodd" clip-rule="evenodd" fill="#26C2EE" d="M176.9,95.6h2.9v30.8h-2.9V95.6z M171.3,95.6h3v30.8h-3V95.6z
			 M165.7,95.6h3v30.8h-3V95.6z M160.1,95.6h3v30.8h-3V95.6z M154.5,95.6h3v30.8h-3V95.6z M149,95.6h2.9v30.8H149V95.6z M145.9,92.5
			h37v37h-37V92.5z"/>
		<path fill-rule="evenodd" clip-rule="evenodd" fill="#00ACD2" d="M219.6,95.6h2.9v30.8h-2.9V95.6z M214,95.6h3v30.8h-3V95.6z
			 M208.4,95.6h3v30.8h-3V95.6z M202.8,95.6h3v30.8h-3V95.6z M197.1,95.6h3v30.8h-3V95.6z M191.7,95.6h2.9v30.8h-2.9V95.6z
			 M188.6,92.5h37v37h-37V92.5z"/>
		<path fill-rule="evenodd" clip-rule="evenodd" fill="#26C2EE" d="M219.6,52.9h2.9v30.8h-2.9V52.9z M214,52.9h3v30.8h-3V52.9z
			 M208.4,52.9h3v30.8h-3V52.9z M202.8,52.9h3v30.8h-3V52.9z M197.1,52.9h3v30.8h-3V52.9z M191.7,52.9h2.9v30.8h-2.9V52.9z
			 M188.6,49.8h37v37h-37V49.8z"/>
		<path fill-rule="evenodd" clip-rule="evenodd" fill="#26C2EE" d="M262.3,95.6h2.9v30.8h-2.9V95.6z M256.7,95.6h3v30.8h-3V95.6z
			 M251.1,95.6h3v30.8h-3V95.6z M245.4,95.6h3v30.8h-3V95.6z M239.8,95.6h3v30.8h-3V95.6z M234.4,95.6h2.9v30.8h-2.9V95.6z
			 M231.3,92.5h37v37h-37V92.5z"/>
		<path fill-rule="evenodd" clip-rule="evenodd" fill="#00ACD2" d="M262.3,52.9h2.9v30.8h-2.9V52.9z M256.7,52.9h3v30.8h-3V52.9z
			 M251.1,52.9h3v30.8h-3V52.9z M245.4,52.9h3v30.8h-3V52.9z M239.8,52.9h3v30.8h-3V52.9z M234.4,52.9h2.9v30.8h-2.9V52.9z
			 M231.3,49.8h37v37h-37V49.8z"/>
		<path fill-rule="evenodd" clip-rule="evenodd" fill="#26C2EE" d="M262.3,10.2h2.9V41h-2.9V10.2z M256.7,10.2h3V41h-3V10.2z
			 M251.1,10.2h3V41h-3V10.2z M245.4,10.2h3V41h-3V10.2z M239.8,10.2h3V41h-3V10.2z M234.4,10.2h2.9V41h-2.9V10.2z M231.3,7.1h37v37
			h-37V7.1z"/>
		<path fill-rule="evenodd" clip-rule="evenodd" fill="#00ACD2" d="M305,95.6h2.9v30.8H305V95.6z M299.4,95.6h3v30.8h-3V95.6z
			 M293.7,95.6h3v30.8h-3V95.6z M288.1,95.6h3v30.8h-3V95.6z M282.5,95.6h3v30.8h-3V95.6z M277,95.6h2.9v30.8H277V95.6z M274,92.5
			h37v37h-37V92.5z"/>
	</g>
	<path fill-rule="evenodd" clip-rule="evenodd" fill="#D4EDF1" d="M180.6,189.5c5.6,0,10.2,4.6,10.2,10.2c0,5.6-4.6,10.2-10.2,10.2
		c-5.6,0-10.2-4.6-10.2-10.2C170.4,194.1,174.9,189.5,180.6,189.5"/>
	<path fill-rule="evenodd" clip-rule="evenodd" fill="#3A4E55" d="M180.6,192.4c0.9,0,1.8,0.2,2.6,0.5c-0.9,0.5-1.5,1.5-1.5,2.6
		c0,1.6,1.3,3,3,3c1.1,0,2.1-0.6,2.6-1.6c0.4,0.9,0.6,1.8,0.6,2.8c0,4-3.3,7.3-7.3,7.3c-4,0-7.3-3.3-7.3-7.3
		C173.3,195.7,176.5,192.4,180.6,192.4"/>
	<path fill-rule="evenodd" clip-rule="evenodd" fill="#3A4E55" d="M0,168.3h223.6h27.7h223.6c-10.3-2.6-32.7-6.2-29-19.7
		c-18.8,21.8-64.1,15.3-75.6,4.5c-12.7,18.5-86.9,11.5-92.1-2.9c-16,18.7-65.5,18.7-81.5,0c-5.2,14.4-79.4,21.4-92.1,2.9
		c-11.4,10.7-56.8,17.2-75.6-4.5C32.7,162.2,10.3,165.7,0,168.3"/>
	<path fill="#C0DBE0" d="M207.7,263.1c-25.3-12-39.2-28.3-46.9-46.1c-9.4,2.7-20.7,4.4-33.8,5.1c-4.9,0.3-10.1,0.4-15.6,0.4
		c-6.3,0-12.9-0.2-19.9-0.6c23.2,23.2,51.7,41,104.5,41.3C200,263.3,203.8,263.2,207.7,263.1z"/>
	<path fill="#D4EDF1" d="M170.2,233.4c-3.5-4.7-6.9-10.7-9.4-16.4c-9.4,2.7-20.7,4.4-33.8,5.1C136,227,148.9,231.5,170.2,233.4z"/>
</g>
</svg>
