<?xml version="1.0" encoding="utf-8"?>
<!-- Generator: Adobe Illustrator 18.0.0, SVG Export Plug-In . SVG Version: 6.00 Build 0)  -->
<!DOCTYPE svg PUBLIC "-//W3C//DTD SVG 1.1//EN" "http://www.w3.org/Graphics/SVG/1.1/DTD/svg11.dtd">
<svg version="1.1" id="Layer_1" xmlns="http://www.w3.org/2000/svg" xmlns:xlink="http://www.w3.org/1999/xlink" x="0px" y="0px"
	 viewBox="0 0 792 612" enable-background="new 0 0 792 612" xml:space="preserve">
<rect y="0" fill-rule="evenodd" clip-rule="evenodd" fill="#253237" width="792" height="612"/>
<g>
	<path id="docker_1_" fill-rule="evenodd" clip-rule="evenodd" fill="#E7E7E8" d="M511.1,480.4c10.7-9.2,21.5-18.4,32.2-27.7
		c3.7-3.2,7.7-6.4,11.3-9.8c-2.9-3.7-7.8-6.3-11.9-7.9c-8.3-3.2-16.6-2.1-24.2,2.3c-10,5.8-14.3,15-13.9,26.5
		c0.1,4.5,1.4,8.9,3.8,12.7C509.2,477.9,510.1,479.2,511.1,480.4 M523.6,489.1c5.3,1.8,11.3,1.6,16.7,0.6c2.8-1.2,9.8-4.3,12.4-3.8
		l0.4,0.1l0.4,0.2c1.6,0.8,3.1,1.9,3.9,3.5c1.9,3.8,1,7.6-2.7,9.7l-1.2,0.7c-13.7,7.9-28.3,6.8-42-0.6c-6.5-3.5-11.5-8.8-15.2-15.2
		l-0.9-1.5c-8.8-15.3-7.6-31.3,2.3-45.8c3.4-5,7.9-8.9,13.2-11.9l2-1.1c12.9-7.5,26.8-7,40.1-0.4c7.1,3.5,12.9,8.8,16.9,15.7
		l0.7,1.2c2.9,5-0.9,9.4-4.7,12.4c-4.5,3.5-9,7.6-13.3,11.4C542.7,472.5,533.2,480.8,523.6,489.1z M626.4,419.7h1.4
		c4.3,0,7.2,2.9,7.2,7.2c0,6-5.7,7.5-10.7,7.5c-6.5,0-12.7,3.9-17.2,8.3c-5.6,5.5-8,12.6-8,20.3v35c0,4-2.5,7.2-6.7,7.2h-1.1
		c-4.2,0-6.7-3.2-6.7-7.2v-37c0-14.2,6.9-25.8,18.5-34C610.1,422.3,618,419.7,626.4,419.7z M446.1,444.6c5.6-5.6,11.3-11.2,17-16.8
		c1.6-1.5,7.6-8.1,10-8.1h2.6l0.3,0.1c3.3,0.7,5.8,2.8,5.8,6.3v1.4c0,2.4-2.8,5.2-4.4,6.9c-3.3,3.5-6.8,6.9-10.2,10.4l-17.5,17.7
		c7.5,7.5,15,15.1,22.5,22.7c2.1,2.1,4.1,4.2,6.2,6.3c0.7,0.8,1.8,1.7,2.4,2.7c0.6,1,1,2.1,1,3.3v1.5l-0.1,0.3c-0.8,3.3-2.9,6-6.6,6
		h-1.2c-2.4,0-5.1-2.7-6.7-4.3c-3.4-3.2-6.6-6.5-10-9.8l-11.1-10.9v17.4c0,4-2.5,7.2-6.7,7.2h-1.1c-4.2,0-6.7-3.2-6.7-7.2v-98.2
		c0-4,2.5-7.2,6.7-7.2h1.1c4.2,0,6.7,3.2,6.7,7.2V444.6z M399.1,434.8c-2.2-1-6.3-1.4-8.6-1.5c-12.1-0.5-20.8,6.4-26,17
		c-1.8,3.7-2.6,7.6-2.6,11.6c0,12.4,6.5,21.1,17.6,26.4c4,1.9,9.3,2.3,13.7,2.3c3.9,0,9.4-2.4,12.8-4l0.6-0.3h2.7l0.3,0.1
		c3.3,0.7,5.8,2.8,5.8,6.3v1.4c0,8.8-16.1,10.8-22.2,11.3c-21.7,1.5-37.9-10.4-44.1-31.1c-1.1-3.6-1.6-7.2-1.6-10.9v-2.9
		c0-15.7,7.8-28.1,21.2-36.1c6.3-3.7,13.2-5.6,20.4-5.6h2.9c7.7,0,14.8,2.2,21.2,6.5l0.5,0.4l0.3,0.5c0.7,1.1,1.3,2.5,1.3,3.8v1.4
		c0,3.7-2.8,5.7-6.1,6.3l-0.3,0h-0.9C406,437.9,401.1,435.7,399.1,434.8z M267.2,462.3c0,11,5.4,19.1,14.7,24.8
		c4.4,2.7,9.2,3.9,14.3,3.9c10.9,0,18.9-5.5,24.5-14.7c2.7-4.4,3.9-9.2,3.9-14.3c0-10.2-4.9-18-13.3-23.7c-4.6-3.1-9.8-4.7-15.3-4.7
		c-12.1,0-20.8,6.1-26.1,17C268,454.3,267.2,458.2,267.2,462.3z M294.4,419.1h2c16.8,0,29.5,8.1,37.6,22.8c3.2,5.9,5,12.2,5,18.9
		v2.9c0,15.7-7.7,28.2-21.3,36.1c-6.3,3.7-13.2,5.6-20.4,5.6h-2.9c-15.7,0-28.2-7.8-36.1-21.2c-3.7-6.3-5.6-13.2-5.6-20.4v-2.9
		c0-15.7,7.8-28.1,21.2-36.1C280.2,421,287.2,419.1,294.4,419.1z M172.5,462.3c0,11.3,5.5,19.8,15.4,25.3c4,2.2,8.4,3.4,13,3.4
		c11.1,0,19.4-5.2,25.1-14.7c2.6-4.4,3.9-9.2,3.9-14.3c0-9.8-4.7-17.5-12.6-23.2c-4.8-3.5-10.2-5.2-16.1-5.2
		c-12.1,0-20.8,6.1-26.1,17C173.3,454.3,172.5,458.2,172.5,462.3z M229.8,429.9v-30.6c0-4,2.5-7.2,6.7-7.2h1.2
		c4.2,0,6.7,3.2,6.7,7.2v64.3c0,15.7-7.8,28.2-21.3,36.1c-6.3,3.7-13.2,5.6-20.4,5.6h-2.9c-15.7,0-28.2-7.8-36.1-21.2
		c-3.7-6.3-5.6-13.2-5.6-20.4v-2.9c0-15.7,7.8-28.2,21.2-36.1c6.3-3.7,13.2-5.6,20.4-5.6h2.9C213.2,419.1,222.2,423.2,229.8,429.9z"
		/>
	<path id="outline_1_" display="none" fill-rule="evenodd" clip-rule="evenodd" fill="#394D54" d="M433,190.5h42.7v43.6h21.6
		c10,0,20.2-1.8,29.7-5c4.6-1.6,9.8-3.8,14.4-6.5c-6-7.9-9.1-17.8-10-27.6c-1.2-13.3,1.5-30.7,10.5-41.1l4.5-5.2l5.3,4.3
		c13.5,10.8,24.8,25.9,26.8,43.2c16.2-4.8,35.2-3.6,49.5,4.6l5.9,3.4l-3.1,6c-12.1,23.6-37.4,30.9-62.1,29.6
		c-37,92.1-117.4,135.7-215,135.7c-50.4,0-96.7-18.8-123-63.6l-0.4-0.7l-3.8-7.8c-8.9-19.7-11.9-41.3-9.9-62.8l0.6-6.5h36.5v-43.6
		h42.7v-42.7h85.4v-42.7H433V190.5z"/>
	<g id="body_colors_1_">
		<path fill="#00AADA" d="M571.4,206.6c2.9-22.2-13.8-39.7-24.1-48c-11.9,13.8-13.7,49.8,4.9,65c-10.4,9.3-32.4,17.6-54.8,17.6
			H223.7c-2.2,23.5,1.9,45.1,11.3,63.6l3.1,5.7c2,3.3,4.1,6.6,6.5,9.7h0c11.2,0.7,21.6,1,31.1,0.8c0,0,0,0,0,0
			c18.6-0.4,33.9-2.6,45.4-6.6c1.7-0.6,3.6,0.3,4.2,2c0.6,1.7-0.3,3.6-2,4.2c-1.5,0.5-3.1,1-4.8,1.5c0,0,0,0,0,0
			c-9.1,2.6-18.8,4.3-31.4,5.1c0.7,0-0.8,0.1-0.8,0.1c-0.4,0-1,0.1-1.4,0.1c-4.9,0.3-10.3,0.3-15.7,0.3c-6,0-11.8-0.1-18.4-0.4
			l-0.2,0.1c22.8,25.6,58.4,41,103.1,41c94.6,0,174.8-41.9,210.3-136c25.2,2.6,49.4-3.8,60.4-25.3
			C606.9,196.8,584.4,200.1,571.4,206.6z"/>
		<path fill="#24B8EB" d="M571.4,206.6c2.9-22.2-13.8-39.7-24.1-48c-11.9,13.8-13.7,49.8,4.9,65c-10.4,9.3-32.4,17.6-54.8,17.6
			H239.9c-1.1,35.9,12.2,63.2,35.8,79.7c0,0,0,0,0,0c18.6-0.4,33.9-2.6,45.4-6.6c1.7-0.6,3.6,0.3,4.2,2c0.6,1.7-0.3,3.6-2,4.2
			c-1.5,0.5-3.1,1-4.8,1.5c0,0,0,0,0,0c-9.1,2.6-19.7,4.6-32.2,5.3c0,0-0.3-0.3-0.3-0.3c32.2,16.5,78.9,16.5,132.4-4.1
			c60-23,115.8-67,154.8-117.2C572.5,206.1,571.9,206.3,571.4,206.6z"/>
		<path fill="#008BB8" d="M224.2,269.7c1.7,12.6,5.4,24.3,10.8,35.1l3.1,5.7c2,3.3,4.1,6.6,6.5,9.7c11.3,0.7,21.6,1,31.1,0.8
			c18.6-0.4,33.9-2.6,45.4-6.6c1.7-0.6,3.6,0.3,4.2,2c0.6,1.7-0.3,3.6-2,4.2c-1.5,0.5-3.1,1-4.8,1.5c0,0,0,0,0,0
			c-9.1,2.6-19.6,4.4-32.2,5.2c-0.4,0-1.2,0-1.6,0.1c-4.9,0.3-10.2,0.4-15.7,0.4c-6,0-12.1-0.1-18.6-0.4c22.8,25.6,58.7,41,103.4,41
			c81,0,151.4-30.7,192.3-98.6H224.2z"/>
		<path fill="#039BC6" d="M242.4,269.7c4.8,22.1,16.5,39.4,33.4,51.2c18.6-0.4,33.9-2.6,45.4-6.6c1.7-0.6,3.6,0.3,4.2,2
			c0.6,1.7-0.3,3.6-2,4.2c-1.5,0.5-3.1,1-4.8,1.5c0,0,0,0,0,0c-9.1,2.6-19.8,4.4-32.4,5.2c32.2,16.5,78.7,16.3,132.2-4.3
			c32.4-12.4,63.5-30.9,91.5-53.2H242.4z"/>
	</g>
	<g display="none">
		<path display="inline" fill="#394D54" d="M269.1,327.6c5.5,0,10.7-0.1,15.6-0.4c0.4,0,0.8-0.1,1.3-0.1c0,0,0,0,0,0
			c12.6-0.8,23.4-2.5,32.5-5c0,0,0,0,0,0c1.7-0.5,3.2-1,4.8-1.5c1.7-0.6,2.6-2.5,2-4.2c-0.6-1.7-2.5-2.6-4.2-2
			c-11.5,4-26.7,6.2-45.4,6.6c0,0,0,0,0,0c-9.5,0.2-19.9,0-31.1-0.8h0c-0.6,0-1.1-0.1-1.7-0.1c-1.8-0.1-3.4,1.2-3.5,3.1
			c-0.1,1.8,1.2,3.4,3.1,3.5c2.3,0.2,4.6,0.3,6.8,0.4c0.4,0,0.7,0,1,0l0,0C256.8,327.4,263.1,327.6,269.1,327.6z"/>
	</g>
	<g id="Containers_1_">
		<path fill-rule="evenodd" clip-rule="evenodd" fill="#00ACD3" d="M291.8,200.7h2.9v30.8h-2.9V200.7z M286.2,200.7h3v30.8h-3V200.7
			z M280.6,200.7h3v30.8h-3V200.7z M275,200.7h3v30.8h-3V200.7z M269.4,200.7h3v30.8h-3V200.7z M263.9,200.7h2.9v30.8h-2.9V200.7z
			 M260.8,197.6h37v37h-37V197.6z"/>
		<path fill-rule="evenodd" clip-rule="evenodd" fill="#00ACD3" d="M334.5,158h2.9v30.8h-2.9V158z M328.9,158h3v30.8h-3V158z
			 M323.3,158h3v30.8h-3V158z M317.7,158h3v30.8h-3V158z M312.1,158h3v30.8h-3V158z M306.6,158h2.9v30.8h-2.9V158z M303.5,154.9h37
			v37h-37V154.9z"/>
		<path fill-rule="evenodd" clip-rule="evenodd" fill="#20C2EF" d="M334.5,200.7h2.9v30.8h-2.9V200.7z M328.9,200.7h3v30.8h-3V200.7
			z M323.3,200.7h3v30.8h-3V200.7z M317.7,200.7h3v30.8h-3V200.7z M312.1,200.7h3v30.8h-3V200.7z M306.6,200.7h2.9v30.8h-2.9V200.7z
			 M303.5,197.6h37v37h-37V197.6z"/>
		<path fill-rule="evenodd" clip-rule="evenodd" fill="#00ACD3" d="M377.2,200.7h2.9v30.8h-2.9V200.7z M371.6,200.7h3v30.8h-3V200.7
			z M366,200.7h3v30.8h-3V200.7z M360.4,200.7h3v30.8h-3V200.7z M354.8,200.7h3v30.8h-3V200.7z M349.3,200.7h2.9v30.8h-2.9V200.7z
			 M346.2,197.6h37v37h-37V197.6z"/>
		<path fill-rule="evenodd" clip-rule="evenodd" fill="#20C2EF" d="M377.2,158h2.9v30.8h-2.9V158z M371.6,158h3v30.8h-3V158z
			 M366,158h3v30.8h-3V158z M360.4,158h3v30.8h-3V158z M354.8,158h3v30.8h-3V158z M349.3,158h2.9v30.8h-2.9V158z M346.2,154.9h37v37
			h-37V154.9z"/>
		<path fill-rule="evenodd" clip-rule="evenodd" fill="#20C2EF" d="M419.9,200.7h2.9v30.8h-2.9V200.7z M414.3,200.7h3v30.8h-3V200.7
			z M408.7,200.7h3v30.8h-3V200.7z M403.1,200.7h3v30.8h-3V200.7z M397.5,200.7h3v30.8h-3V200.7z M392,200.7h2.9v30.8H392V200.7z
			 M388.9,197.6h37v37h-37V197.6z"/>
		<path fill-rule="evenodd" clip-rule="evenodd" fill="#00ACD3" d="M419.9,158h2.9v30.8h-2.9V158z M414.3,158h3v30.8h-3V158z
			 M408.7,158h3v30.8h-3V158z M403.1,158h3v30.8h-3V158z M397.5,158h3v30.8h-3V158z M392,158h2.9v30.8H392V158z M388.9,154.9h37v37
			h-37V154.9z"/>
		<path fill-rule="evenodd" clip-rule="evenodd" fill="#20C2EF" d="M419.9,115.3h2.9v30.8h-2.9V115.3z M414.3,115.3h3v30.8h-3V115.3
			z M408.7,115.3h3v30.8h-3V115.3z M403.1,115.3h3v30.8h-3V115.3z M397.5,115.3h3v30.8h-3V115.3z M392,115.3h2.9v30.8H392V115.3z
			 M388.9,112.2h37v37h-37V112.2z"/>
		<path fill-rule="evenodd" clip-rule="evenodd" fill="#00ACD3" d="M462.6,200.7h2.9v30.8h-2.9V200.7z M457,200.7h3v30.8h-3V200.7z
			 M451.4,200.7h3v30.8h-3V200.7z M445.8,200.7h3v30.8h-3V200.7z M440.2,200.7h3v30.8h-3V200.7z M434.7,200.7h2.9v30.8h-2.9V200.7z
			 M431.6,197.6h37v37h-37V197.6z"/>
	</g>
	<path fill-rule="evenodd" clip-rule="evenodd" fill="#D4EDF1" d="M338.2,294.6c5.6,0,10.2,4.6,10.2,10.2c0,5.6-4.6,10.2-10.2,10.2
		c-5.6,0-10.2-4.6-10.2-10.2C328,299.1,332.6,294.6,338.2,294.6"/>
	<path fill-rule="evenodd" clip-rule="evenodd" fill="#394D54" d="M338.2,297.5c0.9,0,1.8,0.2,2.6,0.5c-0.9,0.5-1.5,1.5-1.5,2.6
		c0,1.6,1.3,3,3,3c1.1,0,2.1-0.6,2.6-1.6c0.4,0.9,0.6,1.8,0.6,2.8c0,4-3.3,7.3-7.3,7.3c-4,0-7.3-3.3-7.3-7.3
		C330.9,300.7,334.2,297.5,338.2,297.5"/>
	<path fill-rule="evenodd" clip-rule="evenodd" fill="#394D54" d="M157.7,273.4h223.6h27.7h223.6c-10.3-2.6-32.7-6.2-29-19.7
		c-18.8,21.8-64.1,15.3-75.6,4.5c-12.7,18.5-86.9,11.5-92.1-2.9c-16,18.7-65.5,18.7-81.5,0c-5.2,14.4-79.4,21.4-92.1,2.9
		c-11.4,10.7-56.8,17.2-75.6-4.5C190.4,267.3,168,270.8,157.7,273.4"/>
	<path fill="#BFDBE0" d="M365.4,368.1c-25.3-12-39.2-28.3-46.9-46.1c-9.4,2.7-20.7,4.4-33.8,5.1c-4.9,0.3-10.1,0.4-15.6,0.4
		c-6.3,0-12.9-0.2-19.9-0.6c23.2,23.2,51.7,41,104.5,41.3C357.6,368.4,361.5,368.3,365.4,368.1z"/>
	<path fill="#D4EDF1" d="M327.9,338.5c-3.5-4.7-6.9-10.7-9.4-16.4c-9.4,2.7-20.7,4.4-33.8,5.1C293.7,332,306.6,336.6,327.9,338.5z"
		/>
</g>
<rect x="0" y="0" display="none" fill-rule="evenodd" clip-rule="evenodd" fill="#E7E7E8" width="792" height="612"/>
</svg>
