<?xml version="1.0" encoding="UTF-8"?>
<svg width="740px" height="250px" viewBox="0 0 740 250" version="1.1" xmlns="http://www.w3.org/2000/svg" xmlns:xlink="http://www.w3.org/1999/xlink">
    <!-- Generator: Sketch 40.1 (33804) - http://www.bohemiancoding.com/sketch -->
    <title>architecture-1</title>
    <desc>Created with Sketch.</desc>
    <defs></defs>
    <g id="architecture-diagrams" stroke="none" stroke-width="1" fill="none" fill-rule="evenodd">
        <g id="architecture-1">
            <g id="Group" transform="translate(28.000000, 51.000000)">
                <g id="stack">
                    <g id="servers" transform="translate(0.000000, 114.000000)">
                        <g id="cloud">
                            <rect id="Rectangle-138" fill="#82949E" x="0" y="0" width="172" height="34" rx="2"></rect>
                            <text id="cloud-servers" font-family="OpenSans, Open Sans" font-size="14" font-weight="normal" fill="#FFFFFF">
                                <tspan x="42.5097656" y="23">cloud servers</tspan>
                            </text>
                        </g>
                        <g id="virtual" transform="translate(176.000000, 0.000000)">
                            <rect id="Rectangle-138" fill="#82949E" x="0" y="0" width="172" height="34" rx="2"></rect>
                            <text id="virtual-servers" font-family="OpenSans, Open Sans" font-size="14" font-weight="normal" fill="#FFFFFF">
                                <tspan x="39.8608398" y="23">virtual servers</tspan>
                            </text>
                        </g>
                        <g id="physical" transform="translate(352.000000, 0.000000)">
                            <rect id="Rectangle-138" fill="#82949E" x="0" y="0" width="172" height="34" rx="2"></rect>
                            <text id="physical-servers" font-family="OpenSans, Open Sans" font-size="14" font-weight="normal" fill="#FFFFFF">
                                <tspan x="34.2075195" y="23">physical servers</tspan>
                            </text>
                        </g>
                    </g>
                    <g id="docker" transform="translate(0.000000, 76.000000)">
                        <rect id="Rectangle-138" fill="#1488C6" x="0" y="0" width="524" height="34" rx="2"></rect>
                        <text id="CS-Docker-Engine" font-family="OpenSans, Open Sans" font-size="14" font-weight="normal" fill="#FFFFFF">
                            <tspan x="205.464355" y="23">CS Docker Engine</tspan>
                        </text>
                    </g>
                    <g id="ucp" transform="translate(0.000000, 38.000000)">
                        <rect id="Rectangle-138" fill="#1488C6" x="0" y="0" width="524" height="34" rx="2"></rect>
                        <text id="Universal-Control-Pl" font-family="OpenSans, Open Sans" font-size="14" font-weight="normal" fill="#FFFFFF">
                            <tspan x="185.536621" y="23">Universal Control Plane</tspan>
                        </text>
                    </g>
                    <g id="dtr">
                        <rect id="Rectangle-138" fill="#1488C6" x="0" y="0" width="172" height="34" rx="2"></rect>
                        <text id="Docker-Trusted-Regis" font-family="OpenSans, Open Sans" font-size="14" font-weight="normal" fill="#FFFFFF">
                            <tspan x="8.13183594" y="23">Docker Trusted Registry</tspan>
                        </text>
                    </g>
                    <g id="your-apps" transform="translate(176.000000, 0.000000)">
                        <rect id="Rectangle-138" fill="#00B6B5" x="0" y="0" width="348" height="34" rx="2"></rect>
                        <text id="your-applications" font-family="OpenSans, Open Sans" font-size="14" font-weight="normal" fill="#FFFFFF">
                            <tspan x="118.428223" y="23">your applications</tspan>
                        </text>
                    </g>
                </g>
                <g id="user" transform="translate(528.000000, 44.000000)">
                    <g transform="translate(44.000000, 0.000000)" fill="#82949E">
                        <text id="deploy-and-manage" font-family="OpenSans, Open Sans" font-size="12" font-weight="normal">
                            <tspan x="0" y="39">deploy and manage</tspan>
                        </text>
                        <path d="M56,13 C59.59125,13 62.5,10.083125 62.5,6.5 C62.5,2.90875 59.59125,0 56,0 C52.40875,0 49.5,2.90875 49.5,6.5 C49.5,10.083125 52.40875,13 56,13 L56,13 Z M56,16.25 C51.669375,16.25 43,18.419375 43,22.75 L43,26 L69,26 L69,22.75 C69,18.419375 60.330625,16.25 56,16.25 L56,16.25 Z" id="Shape"></path>
                    </g>
                    <g id="arrow" transform="translate(0.000000, 8.000000)">
                        <path d="M1.5,5 L60,5" id="Line" stroke="#82949E" stroke-width="2" stroke-linecap="round" stroke-linejoin="round"></path>
                        <circle id="Oval" fill="#8F9EA8" cx="5" cy="5" r="5"></circle>
                    </g>
                </g>
            </g>
        </g>
    </g>
</svg>