<?xml version="1.0" encoding="UTF-8" standalone="no"?>
<svg width="690px" height="213px" viewBox="0 0 690 213" version="1.1" xmlns="http://www.w3.org/2000/svg" xmlns:xlink="http://www.w3.org/1999/xlink">
    <!-- Generator: Sketch 3.8.3 (29802) - http://www.bohemiancoding.com/sketch -->
    <title>secure-your-infrastructure-1</title>
    <desc>Created with Sketch.</desc>
    <defs>
        <rect id="path-1" x="0" y="7.10542736e-15" width="263" height="87" rx="2"></rect>
        <mask id="mask-2" maskContentUnits="userSpaceOnUse" maskUnits="objectBoundingBox" x="0" y="0" width="263" height="87" fill="white">
            <use xlink:href="#path-1"></use>
        </mask>
        <rect id="path-3" x="0" y="7.10542736e-15" width="263" height="87" rx="2"></rect>
        <mask id="mask-4" maskContentUnits="userSpaceOnUse" maskUnits="objectBoundingBox" x="0" y="0" width="263" height="87" fill="white">
            <use xlink:href="#path-3"></use>
        </mask>
    </defs>
    <g id="Apps" stroke="none" stroke-width="1" fill="none" fill-rule="evenodd">
        <g id="secure-your-infrastructure-1">
            <g id="apps" transform="translate(214.000000, 11.000000)">
                <g id="billing" transform="translate(0.000000, 105.000000)">
                    <g id="label">
                        <use id="Rectangle-153" stroke="#C0C9CE" mask="url(#mask-2)" stroke-width="4" stroke-dasharray="5,5,5,5" fill="#FFFFFF" xlink:href="#path-1"></use>
                        <text id="com.docker.ucp.acces" font-family="OpenSans-Semibold, Open Sans" font-size="12" font-weight="500" fill="#C0C9CE">
                            <tspan x="6" y="16">com.docker.ucp.access.label = billing</tspan>
                        </text>
                    </g>
                    <g id="containers" transform="translate(27.000000, 32.000000)">
                        <path d="M40.25,0 L5.75,0 C2.5875,0 0,2.5875 0,5.75 L0,40.25 C0,43.4125 2.5875,46 5.75,46 L40.25,46 C43.4125,46 46,43.4125 46,40.25 L46,5.75 C46,2.5875 43.4125,0 40.25,0 L40.25,0 Z M40.25,40.25 L5.75,40.25 L5.75,5.75 L40.25,5.75 L40.25,40.25 L40.25,40.25 Z M31.625,14.375 L14.375,14.375 L14.375,31.625 L31.625,31.625 L31.625,14.375 L31.625,14.375 Z" id="container" fill="#00CBCA"></path>
                        <path d="M94.25,0 L59.75,0 C56.5875,0 54,2.5875 54,5.75 L54,40.25 C54,43.4125 56.5875,46 59.75,46 L94.25,46 C97.4125,46 100,43.4125 100,40.25 L100,5.75 C100,2.5875 97.4125,0 94.25,0 L94.25,0 Z M94.25,40.25 L59.75,40.25 L59.75,5.75 L94.25,5.75 L94.25,40.25 L94.25,40.25 Z M85.625,14.375 L68.375,14.375 L68.375,31.625 L85.625,31.625 L85.625,14.375 L85.625,14.375 Z" id="container-copy" fill="#00CBCA"></path>
                        <path d="M148.25,0 L113.75,0 C110.5875,0 108,2.5875 108,5.75 L108,40.25 C108,43.4125 110.5875,46 113.75,46 L148.25,46 C151.4125,46 154,43.4125 154,40.25 L154,5.75 C154,2.5875 151.4125,0 148.25,0 L148.25,0 Z M148.25,40.25 L113.75,40.25 L113.75,5.75 L148.25,5.75 L148.25,40.25 L148.25,40.25 Z M139.625,14.375 L122.375,14.375 L122.375,31.625 L139.625,31.625 L139.625,14.375 L139.625,14.375 Z" id="container-copy-2" fill="#00CBCA"></path>
                        <path d="M202.25,0 L167.75,0 C164.5875,0 162,2.5875 162,5.75 L162,40.25 C162,43.4125 164.5875,46 167.75,46 L202.25,46 C205.4125,46 208,43.4125 208,40.25 L208,5.75 C208,2.5875 205.4125,0 202.25,0 L202.25,0 Z M202.25,40.25 L167.75,40.25 L167.75,5.75 L202.25,5.75 L202.25,40.25 L202.25,40.25 Z M193.625,14.375 L176.375,14.375 L176.375,31.625 L193.625,31.625 L193.625,14.375 L193.625,14.375 Z" id="container-copy-3" fill="#00CBCA"></path>
                        <g id="container-copy-8">
                            <rect id="Rectangle-206" fill="#00CBCA" x="0" y="0.425607717" width="45.5743923" height="45.5743923" rx="4"></rect>
                            <rect id="Rectangle-207" fill="#FFFFFF" x="10.1276427" y="10.5532504" width="5.06382136" height="25.3191068"></rect>
                            <rect id="Rectangle-207" fill="#FFFFFF" x="20.2552855" y="10.5532504" width="5.06382136" height="25.3191068"></rect>
                            <rect id="Rectangle-207" fill="#FFFFFF" x="30.3829282" y="10.5532504" width="5.06382136" height="25.3191068"></rect>
                        </g>
                        <g id="container-copy-9" transform="translate(54.000000, 0.000000)">
                            <rect id="Rectangle-206" fill="#00CBCA" x="0" y="0.425607717" width="45.5743923" height="45.5743923" rx="4"></rect>
                            <rect id="Rectangle-207" fill="#FFFFFF" x="10.1276427" y="10.5532504" width="5.06382136" height="25.3191068"></rect>
                            <rect id="Rectangle-207" fill="#FFFFFF" x="20.2552855" y="10.5532504" width="5.06382136" height="25.3191068"></rect>
                            <rect id="Rectangle-207" fill="#FFFFFF" x="30.3829282" y="10.5532504" width="5.06382136" height="25.3191068"></rect>
                        </g>
                        <g id="container-copy-10" transform="translate(108.000000, 0.000000)">
                            <rect id="Rectangle-206" fill="#00CBCA" x="0" y="0.425607717" width="45.5743923" height="45.5743923" rx="4"></rect>
                            <rect id="Rectangle-207" fill="#FFFFFF" x="10.1276427" y="10.5532504" width="5.06382136" height="25.3191068"></rect>
                            <rect id="Rectangle-207" fill="#FFFFFF" x="20.2552855" y="10.5532504" width="5.06382136" height="25.3191068"></rect>
                            <rect id="Rectangle-207" fill="#FFFFFF" x="30.3829282" y="10.5532504" width="5.06382136" height="25.3191068"></rect>
                        </g>
                        <g id="container-copy-11" transform="translate(162.000000, 0.000000)">
                            <rect id="Rectangle-206" fill="#00CBCA" x="0" y="0.425607717" width="45.5743923" height="45.5743923" rx="4"></rect>
                            <rect id="Rectangle-207" fill="#FFFFFF" x="10.1276427" y="10.5532504" width="5.06382136" height="25.3191068"></rect>
                            <rect id="Rectangle-207" fill="#FFFFFF" x="20.2552855" y="10.5532504" width="5.06382136" height="25.3191068"></rect>
                            <rect id="Rectangle-207" fill="#FFFFFF" x="30.3829282" y="10.5532504" width="5.06382136" height="25.3191068"></rect>
                        </g>
                    </g>
                </g>
                <g id="crm">
                    <g id="label">
                        <use id="Rectangle-153" stroke="#C0C9CE" mask="url(#mask-4)" stroke-width="4" stroke-dasharray="5,5,5,5" fill="#FFFFFF" xlink:href="#path-3"></use>
                        <text id="com.docker.ucp.acces" font-family="OpenSans-Semibold, Open Sans" font-size="12" font-weight="500" fill="#C0C9CE">
                            <tspan x="6" y="16">com.docker.ucp.access.label = crm</tspan>
                        </text>
                    </g>
                    <g id="containers" transform="translate(27.000000, 32.000000)">
                        <g id="container">
                            <rect id="Rectangle-206" fill="#1AAAF8" x="0" y="0.425607717" width="45.5743923" height="45.5743923" rx="4"></rect>
                            <rect id="Rectangle-207" fill="#FFFFFF" x="10.1276427" y="10.5532504" width="5.06382136" height="25.3191068"></rect>
                            <rect id="Rectangle-207" fill="#FFFFFF" x="20.2552855" y="10.5532504" width="5.06382136" height="25.3191068"></rect>
                            <rect id="Rectangle-207" fill="#FFFFFF" x="30.3829282" y="10.5532504" width="5.06382136" height="25.3191068"></rect>
                        </g>
                        <g id="container-copy-4" transform="translate(54.000000, 0.000000)">
                            <rect id="Rectangle-206" fill="#1AAAF8" x="0" y="0.425607717" width="45.5743923" height="45.5743923" rx="4"></rect>
                            <rect id="Rectangle-207" fill="#FFFFFF" x="10.1276427" y="10.5532504" width="5.06382136" height="25.3191068"></rect>
                            <rect id="Rectangle-207" fill="#FFFFFF" x="20.2552855" y="10.5532504" width="5.06382136" height="25.3191068"></rect>
                            <rect id="Rectangle-207" fill="#FFFFFF" x="30.3829282" y="10.5532504" width="5.06382136" height="25.3191068"></rect>
                        </g>
                        <g id="container-copy-5" transform="translate(108.000000, 0.000000)">
                            <rect id="Rectangle-206" fill="#1AAAF8" x="0" y="0.425607717" width="45.5743923" height="45.5743923" rx="4"></rect>
                            <rect id="Rectangle-207" fill="#FFFFFF" x="10.1276427" y="10.5532504" width="5.06382136" height="25.3191068"></rect>
                            <rect id="Rectangle-207" fill="#FFFFFF" x="20.2552855" y="10.5532504" width="5.06382136" height="25.3191068"></rect>
                            <rect id="Rectangle-207" fill="#FFFFFF" x="30.3829282" y="10.5532504" width="5.06382136" height="25.3191068"></rect>
                        </g>
                        <g id="container-copy-6" transform="translate(162.000000, 0.000000)">
                            <rect id="Rectangle-206" fill="#1AAAF8" x="0" y="0.425607717" width="45.5743923" height="45.5743923" rx="4"></rect>
                            <rect id="Rectangle-207" fill="#FFFFFF" x="10.1276427" y="10.5532504" width="5.06382136" height="25.3191068"></rect>
                            <rect id="Rectangle-207" fill="#FFFFFF" x="20.2552855" y="10.5532504" width="5.06382136" height="25.3191068"></rect>
                            <rect id="Rectangle-207" fill="#FFFFFF" x="30.3829282" y="10.5532504" width="5.06382136" height="25.3191068"></rect>
                        </g>
                    </g>
                </g>
            </g>
        </g>
    </g>
</svg>