<?xml version="1.0" encoding="utf-8"?>
<!-- Generator: Adobe Illustrator 23.0.1, SVG Export Plug-In . SVG Version: 6.00 Build 0)  -->
<svg version="1.1" xmlns="http://www.w3.org/2000/svg" xmlns:xlink="http://www.w3.org/1999/xlink" x="0px" y="0px"
	 viewBox="0 0 740 250" style="enable-background:new 0 0 740 250;" xml:space="preserve">
<style type="text/css">
	.st0{fill:#FFFFFF;}
	.st1{fill:#82949E;}
	.st2{font-family:'OpenSans';}
	.st3{font-size:10px;}
	.st4{fill-rule:evenodd;clip-rule:evenodd;fill:#445D6E;}
	.st5{font-size:8px;}
	.st6{fill-rule:evenodd;clip-rule:evenodd;fill:#1488C6;}
	.st7{fill-rule:evenodd;clip-rule:evenodd;fill:#FFB463;}
	.st8{fill:none;stroke:#445D6E;stroke-width:2;}
	.st9{fill-rule:evenodd;clip-rule:evenodd;fill:#00B6B5;}
	.st10{fill:none;stroke:#82949E;stroke-width:2;stroke-dasharray:5,5,5,5;}
</style>
<g id="Layer_1">
	<rect class="st0" width="740" height="250"/>
	<title>architecture-2</title>
	<desc>Created with Sketch.</desc>
	<g id="architecture-diagrams">
		<g id="architecture-2">
			<text transform="matrix(1 0 0 1 178.025 239.0095)" class="st1 st2 st3">Docker swarm</text>
			<g id="nodes" transform="translate(215.000000, 15.000000)">
				<g id="workers" transform="translate(53.000000, 118.000000)">
					<g id="node-1">
						<g id="node">
							<g id="node-label">
								<path id="Rectangle-127" class="st4" d="M2,0h67c1.1,0,2,0.9,2,2v17.3c0,1.1-0.9,2-2,2H2c-1.1,0-2-0.9-2-2V2
									C0,0.9,0.9,0,2,0z"/>
								<text transform="matrix(1 0 0 1 6 14)" class="st0 st2 st5">worker node</text>
							</g>
						</g>
						<g id="engine" transform="translate(1.000000, 79.000000)">
							<path id="Rectangle-138" class="st6" d="M2,0h91c1.1,0,2,0.9,2,2v18c0,1.1-0.9,2-2,2H2c-1.1,0-2-0.9-2-2V2C0,0.9,0.9,0,2,0z"
								/>
							<text transform="matrix(1 0 0 1 24 15)" class="st0 st2 st3">Docker EE</text>
						</g>
						<g id="ucp" transform="translate(1.000000, 56.000000)">
							<path class="st6" d="M2,0h91c1.1,0,2,0.9,2,2v18c0,1.1-0.9,2-2,2H2c-1.1,0-2-0.9-2-2V2C0,0.9,0.9,0,2,0z"/>
							<text transform="matrix(1 0 0 1 23.7373 15)" class="st0 st2 st3">UCP agent</text>
						</g>
						<g id="app" transform="translate(1.000000, 33.000000)">
							<path class="st7" d="M2,0h91c1.1,0,2,0.9,2,2v18c0,1.1-0.9,2-2,2H2c-1.1,0-2-0.9-2-2V2C0,0.9,0.9,0,2,0z"/>
							<text transform="matrix(1 0 0 1 20.4756 15)" class="st0 st2 st3">UCP worker</text>
						</g>
						<path id="node-border" class="st8" d="M2,0h93c1.1,0,2,0.9,2,2v98c0,1.1-0.9,2-2,2H2c-1.1,0-2-0.9-2-2V2C0,0.9,0.9,0,2,0z"/>
					</g>
					<g id="node-1-copy-3" transform="translate(107.000000, 0.000000)">
						<g>
							<g>
								<path class="st4" d="M2,0h67c1.1,0,2,0.9,2,2v17.3c0,1.1-0.9,2-2,2H2c-1.1,0-2-0.9-2-2V2C0,0.9,0.9,0,2,0z"/>
								<text transform="matrix(1 0 0 1 6 14)" class="st0 st2 st5">worker node</text>
							</g>
						</g>
						<g transform="translate(1.000000, 79.000000)">
							<path class="st6" d="M2,0h91c1.1,0,2,0.9,2,2v18c0,1.1-0.9,2-2,2H2c-1.1,0-2-0.9-2-2V2C0,0.9,0.9,0,2,0z"/>
							<text transform="matrix(1 0 0 1 24 15)" class="st0 st2 st3">Docker EE</text>
						</g>
						<g transform="translate(1.000000, 56.000000)">
							<path class="st6" d="M2,0h91c1.1,0,2,0.9,2,2v18c0,1.1-0.9,2-2,2H2c-1.1,0-2-0.9-2-2V2C0,0.9,0.9,0,2,0z"/>
							<text transform="matrix(1 0 0 1 23.7373 15)" class="st0 st2 st3">UCP agent</text>
						</g>
						<g transform="translate(1.000000, 33.000000)">
							<path class="st7" d="M2,0h91c1.1,0,2,0.9,2,2v18c0,1.1-0.9,2-2,2H2c-1.1,0-2-0.9-2-2V2C0,0.9,0.9,0,2,0z"/>
							<text transform="matrix(1 0 0 1 20.4756 15)" class="st0 st2 st3">UCP worker</text>
						</g>
						<path class="st8" d="M2,0h93c1.1,0,2,0.9,2,2v98c0,1.1-0.9,2-2,2H2c-1.1,0-2-0.9-2-2V2C0,0.9,0.9,0,2,0z"/>
					</g>
				</g>
				<g id="managers">
					<g>
						<g>
							<g>
								<path class="st4" d="M2,0h67c1.1,0,2,0.9,2,2v17.3c0,1.1-0.9,2-2,2H2c-1.1,0-2-0.9-2-2V2C0,0.9,0.9,0,2,0z"/>
								<text transform="matrix(1 0 0 1 6 14)" class="st0 st2 st5">manager node</text>
							</g>
						</g>
						<g transform="translate(1.000000, 79.000000)">
							<path class="st6" d="M2,0h91c1.1,0,2,0.9,2,2v18c0,1.1-0.9,2-2,2H2c-1.1,0-2-0.9-2-2V2C0,0.9,0.9,0,2,0z"/>
							<text transform="matrix(1 0 0 1 24 15)" class="st0 st2 st3">Docker EE</text>
						</g>
						<g transform="translate(1.000000, 56.000000)">
							<path class="st6" d="M2,0h91c1.1,0,2,0.9,2,2v18c0,1.1-0.9,2-2,2H2c-1.1,0-2-0.9-2-2V2C0,0.9,0.9,0,2,0z"/>
							<text transform="matrix(1 0 0 1 23.7373 15)" class="st0 st2 st3">UCP agent</text>
						</g>
						<g transform="translate(1.000000, 33.000000)">
							<path class="st9" d="M2,0h91c1.1,0,2,0.9,2,2v18c0,1.1-0.9,2-2,2H2c-1.1,0-2-0.9-2-2V2C0,0.9,0.9,0,2,0z"/>
							<text transform="matrix(1 0 0 1 16.0298 15)" class="st0 st2 st3">UCP manager</text>
						</g>
						<path class="st8" d="M2,0h93c1.1,0,2,0.9,2,2v98c0,1.1-0.9,2-2,2H2c-1.1,0-2-0.9-2-2V2C0,0.9,0.9,0,2,0z"/>
					</g>
					<g id="node-1-copy" transform="translate(107.000000, 0.000000)">
						<g>
							<g>
								<path class="st4" d="M2,0h67c1.1,0,2,0.9,2,2v17.3c0,1.1-0.9,2-2,2H2c-1.1,0-2-0.9-2-2V2C0,0.9,0.9,0,2,0z"/>
								<text transform="matrix(1 0 0 1 6 14)" class="st0 st2 st5">manager node</text>
							</g>
						</g>
						<g transform="translate(1.000000, 79.000000)">
							<path class="st6" d="M2,0h91c1.1,0,2,0.9,2,2v18c0,1.1-0.9,2-2,2H2c-1.1,0-2-0.9-2-2V2C0,0.9,0.9,0,2,0z"/>
							<text transform="matrix(1 0 0 1 24 15)" class="st0 st2 st3">Docker EE</text>
						</g>
						<g transform="translate(1.000000, 56.000000)">
							<path class="st6" d="M2,0h91c1.1,0,2,0.9,2,2v18c0,1.1-0.9,2-2,2H2c-1.1,0-2-0.9-2-2V2C0,0.9,0.9,0,2,0z"/>
							<text transform="matrix(1 0 0 1 23.7373 15)" class="st0 st2 st3">UCP agent</text>
						</g>
						<g transform="translate(1.000000, 33.000000)">
							<path class="st9" d="M2,0h91c1.1,0,2,0.9,2,2v18c0,1.1-0.9,2-2,2H2c-1.1,0-2-0.9-2-2V2C0,0.9,0.9,0,2,0z"/>
							<text transform="matrix(1 0 0 1 16.0298 15)" class="st0 st2 st3">UCP manager</text>
						</g>
						<path class="st8" d="M2,0h93c1.1,0,2,0.9,2,2v98c0,1.1-0.9,2-2,2H2c-1.1,0-2-0.9-2-2V2C0,0.9,0.9,0,2,0z"/>
					</g>
					<g id="node-1-copy-2" transform="translate(214.000000, 0.000000)">
						<g>
							<g>
								<path class="st4" d="M2,0h67c1.1,0,2,0.9,2,2v17.3c0,1.1-0.9,2-2,2H2c-1.1,0-2-0.9-2-2V2C0,0.9,0.9,0,2,0z"/>
								<text transform="matrix(1 0 0 1 6 14)" class="st0 st2 st5">manager node</text>
							</g>
						</g>
						<g transform="translate(1.000000, 79.000000)">
							<path class="st6" d="M2,0h91c1.1,0,2,0.9,2,2v18c0,1.1-0.9,2-2,2H2c-1.1,0-2-0.9-2-2V2C0,0.9,0.9,0,2,0z"/>
							<text transform="matrix(1 0 0 1 24 15)" class="st0 st2 st3">Docker EE</text>
						</g>
						<g transform="translate(1.000000, 56.000000)">
							<path class="st6" d="M2,0h91c1.1,0,2,0.9,2,2v18c0,1.1-0.9,2-2,2H2c-1.1,0-2-0.9-2-2V2C0,0.9,0.9,0,2,0z"/>
							<text transform="matrix(1 0 0 1 23.7373 15)" class="st0 st2 st3">UCP agent</text>
						</g>
						<g transform="translate(1.000000, 33.000000)">
							<path class="st9" d="M2,0h91c1.1,0,2,0.9,2,2v18c0,1.1-0.9,2-2,2H2c-1.1,0-2-0.9-2-2V2C0,0.9,0.9,0,2,0z"/>
							<text transform="matrix(1 0 0 1 16.0298 15)" class="st0 st2 st3">UCP manager</text>
						</g>
						<path class="st8" d="M2,0h93c1.1,0,2,0.9,2,2v98c0,1.1-0.9,2-2,2H2c-1.1,0-2-0.9-2-2V2C0,0.9,0.9,0,2,0z"/>
					</g>
				</g>
			</g>
			<path id="group" class="st10" d="M171,3h397c1.1,0,2,0.9,2,2v241c0,1.1-0.9,2-2,2H171c-1.1,0-2-0.9-2-2V5C169,3.9,169.9,3,171,3z
				"/>
		</g>
	</g>
</g>
<g id="Layer_2">
</g>
</svg>
