<?xml version="1.0" encoding="UTF-8"?>
<svg width="740px" height="300px" viewBox="0 0 740 300" version="1.1" xmlns="http://www.w3.org/2000/svg" xmlns:xlink="http://www.w3.org/1999/xlink" style="background: #FFFFFF;">
    <!-- Generator: Sketch 49 (51002) - http://www.bohemiancoding.com/sketch -->
    <title>interlock-overview-2</title>
    <desc>Created with Sketch.</desc>
    <defs>
        <circle id="path-1" cx="4" cy="4" r="4"></circle>
        <circle id="path-2" cx="4" cy="4" r="4"></circle>
        <circle id="path-3" cx="4" cy="4" r="4"></circle>
        <circle id="path-4" cx="4" cy="4" r="4"></circle>
        <circle id="path-5" cx="4" cy="4" r="4"></circle>
    </defs>
    <g id="interlock-overview-2" stroke="none" stroke-width="1" fill="none" fill-rule="evenodd">
        <text id="Docker-swarm-managed" font-family="OpenSans-Semibold, Open Sans" font-size="10" font-weight="500" fill="#E0E4E7">
            <tspan x="91" y="287">Docker swarm managed with UCP</tspan>
        </text>
        <g id="nodes" transform="translate(108.000000, 146.000000)">
            <g id="workers" transform="translate(321.000000, 0.000000)">
                <g id="node-1" transform="translate(107.000000, 0.000000)">
                    <text id="node-5" font-family="OpenSans-Semibold, Open Sans" font-size="10" font-weight="500" fill="#82949E">
                        <tspan x="32.3129883" y="116">node-5</tspan>
                    </text>
                    <g id="node">
                        <g id="node-label">
                            <path d="M0,2.00295631 C0,0.896754086 0.897702336,0 1.99174577,0 L71,0 L71,10.6452381 C71,16.5244408 66.2312425,21.2904762 60.3513837,21.2904762 L0,21.2904762 L0,2.00295631 Z" id="Rectangle-127" fill="#445D6E"></path>
                            <text id="worker-node" font-family="OpenSans, Open Sans" font-size="8" font-weight="normal" fill="#FFFFFF">
                                <tspan x="6" y="14">worker node</tspan>
                            </text>
                        </g>
                    </g>
                    <g id="app" transform="translate(1.000000, 79.000000)">
                        <rect id="Rectangle-138" fill="#439FD1" x="0" y="0" width="95" height="22" rx="2"></rect>
                        <text id="UCP" font-family="OpenSans, Open Sans" font-size="10" font-weight="normal" fill="#FFFFFF">
                            <tspan x="38.1953125" y="15">UCP </tspan>
                        </text>
                    </g>
                    <g id="app-copy" transform="translate(1.000000, 56.000000)">
                        <rect id="Rectangle-138" fill="#FFB463" x="0" y="0" width="95" height="22" rx="2"></rect>
                        <text id="wordpress:8000" font-family="OpenSans, Open Sans" font-size="10" font-weight="normal" fill="#FFFFFF">
                            <tspan x="10.5390625" y="15">wordpress:8000</tspan>
                        </text>
                    </g>
                    <rect id="node-border" stroke="#445D6E" stroke-width="2" x="0" y="0" width="97" height="102" rx="2"></rect>
                </g>
                <g id="node-1-copy">
                    <text id="node-4" font-family="OpenSans-Semibold, Open Sans" font-size="10" font-weight="500" fill="#82949E">
                        <tspan x="32.3129883" y="116">node-4</tspan>
                    </text>
                    <g id="node">
                        <g id="node-label">
                            <path d="M0,2.00295631 C0,0.896754086 0.897702336,0 1.99174577,0 L71,0 L71,10.6452381 C71,16.5244408 66.2312425,21.2904762 60.3513837,21.2904762 L0,21.2904762 L0,2.00295631 Z" id="Rectangle-127" fill="#E0E4E7"></path>
                            <text id="worker-node" font-family="OpenSans, Open Sans" font-size="8" font-weight="normal" fill="#FFFFFF">
                                <tspan x="6" y="14">worker node</tspan>
                            </text>
                        </g>
                    </g>
                    <g id="app" transform="translate(1.000000, 79.000000)">
                        <rect id="Rectangle-138" fill="#A1CFE8" x="0" y="0" width="95" height="22" rx="2"></rect>
                        <text id="UCP" font-family="OpenSans, Open Sans" font-size="10" font-weight="normal" fill="#FFFFFF">
                            <tspan x="38.1953125" y="15">UCP</tspan>
                        </text>
                    </g>
                    <rect id="node-border" stroke="#E0E4E7" stroke-width="2" x="0" y="0" width="97" height="102" rx="2"></rect>
                </g>
            </g>
            <g id="managers">
                <g id="node-1" transform="translate(214.000000, 0.000000)">
                    <text id="node-3" font-family="OpenSans-Semibold, Open Sans" font-size="10" font-weight="500" fill="#82949E">
                        <tspan x="32.3129883" y="116">node-3</tspan>
                    </text>
                    <g id="node">
                        <g id="node-label">
                            <path d="M0,2.00295631 C0,0.896754086 0.897702336,0 1.99174577,0 L71,0 L71,10.6452381 C71,16.5244408 66.2312425,21.2904762 60.3513837,21.2904762 L0,21.2904762 L0,2.00295631 Z" id="Rectangle-127" fill="#E0E4E7"></path>
                            <text id="manager-node" font-family="OpenSans, Open Sans" font-size="8" font-weight="normal" fill="#FFFFFF">
                                <tspan x="6" y="14">manager node</tspan>
                            </text>
                        </g>
                    </g>
                    <g id="app" transform="translate(1.000000, 79.000000)">
                        <rect id="Rectangle-138" fill="#A1CFE8" x="0" y="0" width="95" height="22" rx="2"></rect>
                        <text id="UCP" font-family="OpenSans, Open Sans" font-size="10" font-weight="normal" fill="#FFFFFF">
                            <tspan x="38.1953125" y="15">UCP</tspan>
                        </text>
                    </g>
                    <rect id="node-border" stroke="#E0E4E7" stroke-width="2" x="0" y="0" width="97" height="102" rx="2"></rect>
                </g>
                <g id="node-1-copy-3" transform="translate(107.000000, 0.000000)">
                    <text id="node-2" font-family="OpenSans-Semibold, Open Sans" font-size="10" font-weight="500" fill="#82949E">
                        <tspan x="32.3129883" y="116">node-2</tspan>
                    </text>
                    <g id="node">
                        <g id="node-label">
                            <path d="M0,2.00295631 C0,0.896754086 0.897702336,0 1.99174577,0 L71,0 L71,10.6452381 C71,16.5244408 66.2312425,21.2904762 60.3513837,21.2904762 L0,21.2904762 L0,2.00295631 Z" id="Rectangle-127" fill="#E0E4E7"></path>
                            <text id="manager-node" font-family="OpenSans, Open Sans" font-size="8" font-weight="normal" fill="#FFFFFF">
                                <tspan x="6" y="14">manager node</tspan>
                            </text>
                        </g>
                    </g>
                    <g id="app" transform="translate(1.000000, 79.000000)">
                        <rect id="Rectangle-138" fill="#A1CFE8" x="0" y="0" width="95" height="22" rx="2"></rect>
                        <text id="UCP" font-family="OpenSans, Open Sans" font-size="10" font-weight="normal" fill="#FFFFFF">
                            <tspan x="38.1953125" y="15">UCP</tspan>
                        </text>
                    </g>
                    <rect id="node-border" stroke="#E0E4E7" stroke-width="2" x="0" y="0" width="97" height="102" rx="2"></rect>
                </g>
                <g id="node-1-copy-2">
                    <text id="node-1" font-family="OpenSans-Semibold, Open Sans" font-size="10" font-weight="500" fill="#82949E">
                        <tspan x="32.3129883" y="116">node-1</tspan>
                    </text>
                    <g id="node">
                        <g id="node-label">
                            <path d="M0,2.00295631 C0,0.896754086 0.897702336,0 1.99174577,0 L71,0 L71,10.6452381 C71,16.5244408 66.2312425,21.2904762 60.3513837,21.2904762 L0,21.2904762 L0,2.00295631 Z" id="Rectangle-127" fill="#E0E4E7"></path>
                            <text id="manager-node" font-family="OpenSans, Open Sans" font-size="8" font-weight="normal" fill="#FFFFFF">
                                <tspan x="6" y="14">manager node</tspan>
                            </text>
                        </g>
                    </g>
                    <g id="app" transform="translate(1.000000, 79.000000)">
                        <rect id="Rectangle-138" fill="#A1CFE8" x="0" y="0" width="95" height="22" rx="2"></rect>
                        <text id="UCP" font-family="OpenSans, Open Sans" font-size="10" font-weight="normal" fill="#FFFFFF">
                            <tspan x="38.1953125" y="15">UCP</tspan>
                        </text>
                    </g>
                    <rect id="node-border" stroke="#E0E4E7" stroke-width="2" x="0" y="0" width="97" height="102" rx="2"></rect>
                </g>
            </g>
        </g>
        <g id="load-balancer" transform="translate(107.000000, 75.000000)">
            <g id="L4" transform="translate(0.000000, 26.000000)">
                <rect id="Rectangle-138" fill="#445D6E" x="0" y="0" width="527" height="22" rx="2"></rect>
                <text id="swarm-routing-mesh" font-family="OpenSans, Open Sans" font-size="10" font-weight="normal" fill="#FFFFFF">
                    <tspan x="214.819415" y="15">swarm routing mesh</tspan>
                </text>
            </g>
            <g id="L7">
                <rect id="Rectangle-138" fill="#445D6E" x="0" y="0" width="527" height="22" rx="2"></rect>
                <text id="layer-7-routing" font-family="OpenSans, Open Sans" font-size="10" font-weight="normal" fill="#FFFFFF">
                    <tspan x="229.206622" y="15">layer 7 routing</tspan>
                </text>
            </g>
            <g id="arrow-copy-2" transform="translate(477.500000, 58.500000) scale(1, -1) rotate(-90.000000) translate(-477.500000, -58.500000) translate(465.500000, 54.500000)">
                <path d="M2,4 L24,4" id="Line" stroke="#445D6E" stroke-width="2" stroke-linecap="round" stroke-linejoin="round"></path>
                <g id="Oval">
                    <use fill="#445D6E" fill-rule="evenodd" xlink:href="#path-1"></use>
                    <circle stroke="#F7F8F9" stroke-width="2" cx="4" cy="4" r="5"></circle>
                </g>
            </g>
            <g id="arrow-copy-3" transform="translate(370.500000, 58.500000) scale(1, -1) rotate(-90.000000) translate(-370.500000, -58.500000) translate(358.500000, 54.500000)">
                <path d="M2,4 L24,4" id="Line" stroke="#E0E4E7" stroke-width="2" stroke-linecap="round" stroke-linejoin="round"></path>
                <g id="Oval">
                    <use fill="#E0E4E7" fill-rule="evenodd" xlink:href="#path-2"></use>
                    <circle stroke="#F7F8F9" stroke-width="2" cx="4" cy="4" r="5"></circle>
                </g>
            </g>
            <g id="arrow-copy-4" transform="translate(263.500000, 58.500000) scale(1, -1) rotate(-90.000000) translate(-263.500000, -58.500000) translate(251.500000, 54.500000)">
                <path d="M2,4 L24,4" id="Line" stroke="#E0E4E7" stroke-width="2" stroke-linecap="round" stroke-linejoin="round"></path>
                <g id="Oval">
                    <use fill="#E0E4E7" fill-rule="evenodd" xlink:href="#path-3"></use>
                    <circle stroke="#F7F8F9" stroke-width="2" cx="4" cy="4" r="5"></circle>
                </g>
            </g>
            <g id="arrow-copy-5" transform="translate(156.500000, 58.500000) scale(1, -1) rotate(-90.000000) translate(-156.500000, -58.500000) translate(144.500000, 54.500000)">
                <path d="M2,4 L24,4" id="Line" stroke="#E0E4E7" stroke-width="2" stroke-linecap="round" stroke-linejoin="round"></path>
                <g id="Oval">
                    <use fill="#E0E4E7" fill-rule="evenodd" xlink:href="#path-4"></use>
                    <circle stroke="#F7F8F9" stroke-width="2" cx="4" cy="4" r="5"></circle>
                </g>
            </g>
            <g id="arrow-copy-6" transform="translate(49.500000, 58.500000) scale(1, -1) rotate(-90.000000) translate(-49.500000, -58.500000) translate(37.500000, 54.500000)">
                <path d="M2,4 L24,4" id="Line" stroke="#E0E4E7" stroke-width="2" stroke-linecap="round" stroke-linejoin="round"></path>
                <g id="Oval">
                    <use fill="#E0E4E7" fill-rule="evenodd" xlink:href="#path-5"></use>
                    <circle stroke="#F7F8F9" stroke-width="2" cx="4" cy="4" r="5"></circle>
                </g>
            </g>
        </g>
        <path d="M86,64.9970083 C86,63.8940911 86.9024627,63 88.0006502,63 L651.99935,63 C653.104278,63 654,63.8947956 654,64.9970083 L654,292.002992 C654,293.105909 653.097537,294 651.99935,294 L88.0006502,294 C86.8957216,294 86,293.105204 86,292.002992 L86,64.9970083 Z" id="group" stroke="#E0E4E7" stroke-width="2" stroke-dasharray="5,5,5,5"></path>
        <g id="user" transform="translate(297.000000, 6.000000)" fill="#82949E">
            <text id="http://wordpress.exa" font-family="OpenSans-Semibold, Open Sans" font-size="10" font-weight="500">
                <tspan x="0.129394531" y="42">http://wordpress.example.org</tspan>
            </text>
            <path d="M73,13 C76.59125,13 79.5,10.083125 79.5,6.5 C79.5,2.90875 76.59125,0 73,0 C69.40875,0 66.5,2.90875 66.5,6.5 C66.5,10.083125 69.40875,13 73,13 L73,13 Z M73,16.25 C68.669375,16.25 60,18.419375 60,22.75 L60,26 L86,26 L86,22.75 C86,18.419375 77.330625,16.25 73,16.25 L73,16.25 Z" id="Shape"></path>
        </g>
    </g>
</svg>