<?xml version="1.0" encoding="UTF-8"?>
<svg width="740px" height="250px" viewBox="0 0 740 250" version="1.1" xmlns="http://www.w3.org/2000/svg" xmlns:xlink="http://www.w3.org/1999/xlink">
    <!-- Generator: Sketch 42 (36781) - http://www.bohemiancoding.com/sketch -->
    <title>use-domain-names-2</title>
    <desc>Created with Sketch.</desc>
    <defs>
        <circle id="path-1" cx="4" cy="4" r="4"></circle>
        <mask id="mask-2" maskContentUnits="userSpaceOnUse" maskUnits="objectBoundingBox" x="-2" y="-2" width="12" height="12">
            <rect x="-2" y="-2" width="12" height="12" fill="white"></rect>
            <use xlink:href="#path-1" fill="black"></use>
        </mask>
        <circle id="path-3" cx="4" cy="4" r="4"></circle>
        <mask id="mask-4" maskContentUnits="userSpaceOnUse" maskUnits="objectBoundingBox" x="-2" y="-2" width="12" height="12">
            <rect x="-2" y="-2" width="12" height="12" fill="white"></rect>
            <use xlink:href="#path-3" fill="black"></use>
        </mask>
        <circle id="path-5" cx="4" cy="4" r="4"></circle>
        <mask id="mask-6" maskContentUnits="userSpaceOnUse" maskUnits="objectBoundingBox" x="-2" y="-2" width="12" height="12">
            <rect x="-2" y="-2" width="12" height="12" fill="white"></rect>
            <use xlink:href="#path-5" fill="black"></use>
        </mask>
        <circle id="path-7" cx="4" cy="4" r="4"></circle>
        <mask id="mask-8" maskContentUnits="userSpaceOnUse" maskUnits="objectBoundingBox" x="-2" y="-2" width="12" height="12">
            <rect x="-2" y="-2" width="12" height="12" fill="white"></rect>
            <use xlink:href="#path-7" fill="black"></use>
        </mask>
        <circle id="path-9" cx="4" cy="4" r="4"></circle>
        <mask id="mask-10" maskContentUnits="userSpaceOnUse" maskUnits="objectBoundingBox" x="-2" y="-2" width="12" height="12">
            <rect x="-2" y="-2" width="12" height="12" fill="white"></rect>
            <use xlink:href="#path-9" fill="black"></use>
        </mask>
    </defs>
    <g id="ucp-diagrams" stroke="none" stroke-width="1" fill="none" fill-rule="evenodd">
        <g id="use-domain-names-2">
            <g id="nodes" transform="translate(108.000000, 104.000000)">
                <g id="workers" transform="translate(321.000000, 0.000000)">
                    <g id="node-1" transform="translate(107.000000, 0.000000)">
                        <text id="192.168.99.104" font-family="OpenSans-Semibold, Open Sans" font-size="10" font-weight="500" fill="#82949E">
                            <tspan x="13.4824219" y="116">192.168.99.104</tspan>
                        </text>
                        <g id="node">
                            <g id="node-label">
                                <path d="M0,2.00295631 C0,0.896754086 0.897702336,0 1.99174577,0 L71,0 L71,10.6452381 C71,16.5244408 66.2312425,21.2904762 60.3513837,21.2904762 L0,21.2904762 L0,2.00295631 Z" id="Rectangle-127" fill="#445D6E"></path>
                                <text id="worker-node" font-family="OpenSans, Open Sans" font-size="8" font-weight="normal" fill="#FFFFFF">
                                    <tspan x="6" y="14">worker node</tspan>
                                </text>
                            </g>
                        </g>
                        <g id="app" transform="translate(1.000000, 79.000000)">
                            <rect id="Rectangle-138" fill="#439FD1" x="0" y="0" width="95" height="22" rx="2"></rect>
                            <text id="UCP" font-family="OpenSans, Open Sans" font-size="10" font-weight="normal" fill="#FFFFFF">
                                <tspan x="38.1953125" y="15">UCP </tspan>
                            </text>
                        </g>
                        <g id="app-copy" transform="translate(1.000000, 56.000000)">
                            <rect id="Rectangle-138" fill="#FFB463" x="0" y="0" width="95" height="22" rx="2"></rect>
                            <text id="wordpress:8000" font-family="OpenSans, Open Sans" font-size="10" font-weight="normal" fill="#FFFFFF">
                                <tspan x="10.5390625" y="15">wordpress:8000</tspan>
                            </text>
                        </g>
                        <rect id="node-border" stroke="#445D6E" stroke-width="2" x="0" y="0" width="97" height="102" rx="2"></rect>
                    </g>
                    <g id="node-1-copy">
                        <text id="192.168.99.103" font-family="OpenSans-Semibold, Open Sans" font-size="10" font-weight="500" fill="#82949E">
                            <tspan x="13.4824219" y="116">192.168.99.103</tspan>
                        </text>
                        <g id="node">
                            <g id="node-label">
                                <path d="M0,2.00295631 C0,0.896754086 0.897702336,0 1.99174577,0 L71,0 L71,10.6452381 C71,16.5244408 66.2312425,21.2904762 60.3513837,21.2904762 L0,21.2904762 L0,2.00295631 Z" id="Rectangle-127" fill="#E0E4E7"></path>
                                <text id="worker-node" font-family="OpenSans, Open Sans" font-size="8" font-weight="normal" fill="#FFFFFF">
                                    <tspan x="6" y="14">worker node</tspan>
                                </text>
                            </g>
                        </g>
                        <g id="app" transform="translate(1.000000, 79.000000)">
                            <rect id="Rectangle-138" fill="#A1CFE8" x="0" y="0" width="95" height="22" rx="2"></rect>
                            <text id="UCP" font-family="OpenSans, Open Sans" font-size="10" font-weight="normal" fill="#FFFFFF">
                                <tspan x="38.1953125" y="15">UCP</tspan>
                            </text>
                        </g>
                        <rect id="node-border" stroke="#E0E4E7" stroke-width="2" x="0" y="0" width="97" height="102" rx="2"></rect>
                    </g>
                </g>
                <g id="managers">
                    <g id="node-1" transform="translate(214.000000, 0.000000)">
                        <text id="192.168.99.102" font-family="OpenSans-Semibold, Open Sans" font-size="10" font-weight="500" fill="#82949E">
                            <tspan x="13.4824219" y="116">192.168.99.102</tspan>
                        </text>
                        <g id="node">
                            <g id="node-label">
                                <path d="M0,2.00295631 C0,0.896754086 0.897702336,0 1.99174577,0 L71,0 L71,10.6452381 C71,16.5244408 66.2312425,21.2904762 60.3513837,21.2904762 L0,21.2904762 L0,2.00295631 Z" id="Rectangle-127" fill="#E0E4E7"></path>
                                <text id="manager-node" font-family="OpenSans, Open Sans" font-size="8" font-weight="normal" fill="#FFFFFF">
                                    <tspan x="6" y="14">manager node</tspan>
                                </text>
                            </g>
                        </g>
                        <g id="app" transform="translate(1.000000, 79.000000)">
                            <rect id="Rectangle-138" fill="#A1CFE8" x="0" y="0" width="95" height="22" rx="2"></rect>
                            <text id="UCP" font-family="OpenSans, Open Sans" font-size="10" font-weight="normal" fill="#FFFFFF">
                                <tspan x="38.1953125" y="15">UCP</tspan>
                            </text>
                        </g>
                        <rect id="node-border" stroke="#E0E4E7" stroke-width="2" x="0" y="0" width="97" height="102" rx="2"></rect>
                    </g>
                    <g id="node-1-copy-3" transform="translate(107.000000, 0.000000)">
                        <text id="192.168.99.101" font-family="OpenSans-Semibold, Open Sans" font-size="10" font-weight="500" fill="#82949E">
                            <tspan x="13.4824219" y="116">192.168.99.101</tspan>
                        </text>
                        <g id="node">
                            <g id="node-label">
                                <path d="M0,2.00295631 C0,0.896754086 0.897702336,0 1.99174577,0 L71,0 L71,10.6452381 C71,16.5244408 66.2312425,21.2904762 60.3513837,21.2904762 L0,21.2904762 L0,2.00295631 Z" id="Rectangle-127" fill="#E0E4E7"></path>
                                <text id="manager-node" font-family="OpenSans, Open Sans" font-size="8" font-weight="normal" fill="#FFFFFF">
                                    <tspan x="6" y="14">manager node</tspan>
                                </text>
                            </g>
                        </g>
                        <g id="app" transform="translate(1.000000, 79.000000)">
                            <rect id="Rectangle-138" fill="#A1CFE8" x="0" y="0" width="95" height="22" rx="2"></rect>
                            <text id="UCP" font-family="OpenSans, Open Sans" font-size="10" font-weight="normal" fill="#FFFFFF">
                                <tspan x="38.1953125" y="15">UCP</tspan>
                            </text>
                        </g>
                        <rect id="node-border" stroke="#E0E4E7" stroke-width="2" x="0" y="0" width="97" height="102" rx="2"></rect>
                    </g>
                    <g id="node-1-copy-2">
                        <text id="192.168.99.100-copy-4" font-family="OpenSans-Semibold, Open Sans" font-size="10" font-weight="500" fill="#82949E">
                            <tspan x="13.4824219" y="116">192.168.99.100</tspan>
                        </text>
                        <g id="node">
                            <g id="node-label">
                                <path d="M0,2.00295631 C0,0.896754086 0.897702336,0 1.99174577,0 L71,0 L71,10.6452381 C71,16.5244408 66.2312425,21.2904762 60.3513837,21.2904762 L0,21.2904762 L0,2.00295631 Z" id="Rectangle-127" fill="#E0E4E7"></path>
                                <text id="manager-node" font-family="OpenSans, Open Sans" font-size="8" font-weight="normal" fill="#FFFFFF">
                                    <tspan x="6" y="14">manager node</tspan>
                                </text>
                            </g>
                        </g>
                        <g id="app" transform="translate(1.000000, 79.000000)">
                            <rect id="Rectangle-138" fill="#A1CFE8" x="0" y="0" width="95" height="22" rx="2"></rect>
                            <text id="UCP" font-family="OpenSans, Open Sans" font-size="10" font-weight="normal" fill="#FFFFFF">
                                <tspan x="38.1953125" y="15">UCP</tspan>
                            </text>
                        </g>
                        <rect id="node-border" stroke="#E0E4E7" stroke-width="2" x="0" y="0" width="97" height="102" rx="2"></rect>
                    </g>
                </g>
            </g>
            <g id="load-balancer" transform="translate(107.000000, 59.000000)">
                <g id="lb">
                    <rect id="Rectangle-138" fill="#445D6E" x="0" y="0" width="527" height="22" rx="2"></rect>
                    <text id="HTTP-routing-mesh" font-family="OpenSans, Open Sans" font-size="10" font-weight="normal" fill="#FFFFFF">
                        <tspan x="218.33504" y="15">HTTP routing mesh</tspan>
                    </text>
                </g>
                <g id="arrow-copy-2" transform="translate(477.500000, 32.500000) scale(1, -1) rotate(-90.000000) translate(-477.500000, -32.500000) translate(465.500000, 28.500000)">
                    <path d="M2,4 L24,4" id="Line" stroke="#445D6E" stroke-width="2" stroke-linecap="round" stroke-linejoin="round"></path>
                    <g id="Oval">
                        <use fill="#445D6E" fill-rule="evenodd" xlink:href="#path-1"></use>
                        <use stroke="#F7F8F9" mask="url(#mask-2)" stroke-width="4" xlink:href="#path-1"></use>
                    </g>
                </g>
                <g id="arrow-copy-3" transform="translate(370.500000, 32.500000) scale(1, -1) rotate(-90.000000) translate(-370.500000, -32.500000) translate(358.500000, 28.500000)">
                    <path d="M2,4 L24,4" id="Line" stroke="#E0E4E7" stroke-width="2" stroke-linecap="round" stroke-linejoin="round"></path>
                    <g id="Oval">
                        <use fill="#E0E4E7" fill-rule="evenodd" xlink:href="#path-3"></use>
                        <use stroke="#F7F8F9" mask="url(#mask-4)" stroke-width="4" xlink:href="#path-3"></use>
                    </g>
                </g>
                <g id="arrow-copy-4" transform="translate(263.500000, 32.500000) scale(1, -1) rotate(-90.000000) translate(-263.500000, -32.500000) translate(251.500000, 28.500000)">
                    <path d="M2,4 L24,4" id="Line" stroke="#E0E4E7" stroke-width="2" stroke-linecap="round" stroke-linejoin="round"></path>
                    <g id="Oval">
                        <use fill="#E0E4E7" fill-rule="evenodd" xlink:href="#path-5"></use>
                        <use stroke="#F7F8F9" mask="url(#mask-6)" stroke-width="4" xlink:href="#path-5"></use>
                    </g>
                </g>
                <g id="arrow-copy-5" transform="translate(156.500000, 32.500000) scale(1, -1) rotate(-90.000000) translate(-156.500000, -32.500000) translate(144.500000, 28.500000)">
                    <path d="M2,4 L24,4" id="Line" stroke="#E0E4E7" stroke-width="2" stroke-linecap="round" stroke-linejoin="round"></path>
                    <g id="Oval">
                        <use fill="#E0E4E7" fill-rule="evenodd" xlink:href="#path-7"></use>
                        <use stroke="#F7F8F9" mask="url(#mask-8)" stroke-width="4" xlink:href="#path-7"></use>
                    </g>
                </g>
                <g id="arrow-copy-6" transform="translate(49.500000, 32.500000) scale(1, -1) rotate(-90.000000) translate(-49.500000, -32.500000) translate(37.500000, 28.500000)">
                    <path d="M2,4 L24,4" id="Line" stroke="#E0E4E7" stroke-width="2" stroke-linecap="round" stroke-linejoin="round"></path>
                    <g id="Oval">
                        <use fill="#E0E4E7" fill-rule="evenodd" xlink:href="#path-9"></use>
                        <use stroke="#F7F8F9" mask="url(#mask-10)" stroke-width="4" xlink:href="#path-9"></use>
                    </g>
                </g>
            </g>
            <g id="user" transform="translate(306.000000, 4.000000)" fill="#82949E">
                <text id="wordpress.example.or" font-family="OpenSans-Semibold, Open Sans" font-size="10" font-weight="500">
                    <tspan x="0.0424804688" y="42">wordpress.example.org:80</tspan>
                </text>
                <path d="M64,13 C67.59125,13 70.5,10.083125 70.5,6.5 C70.5,2.90875 67.59125,0 64,0 C60.40875,0 57.5,2.90875 57.5,6.5 C57.5,10.083125 60.40875,13 64,13 L64,13 Z M64,16.25 C59.669375,16.25 51,18.419375 51,22.75 L51,26 L77,26 L77,22.75 C77,18.419375 68.330625,16.25 64,16.25 L64,16.25 Z" id="Shape"></path>
            </g>
        </g>
    </g>
</svg>