<?xml version="1.0" encoding="utf-8"?>
<!-- Generator: Adobe Illustrator 23.0.1, SVG Export Plug-In . SVG Version: 6.00 Build 0)  -->
<svg version="1.1" id="Layer_1" xmlns="http://www.w3.org/2000/svg" xmlns:xlink="http://www.w3.org/1999/xlink" x="0px" y="0px"
	 viewBox="0 0 740 310" style="enable-background:new 0 0 740 310;" xml:space="preserve">
<style type="text/css">
	.st0{fill:#FFFFFF;}
	.st1{fill:#E0E4E7;}
	.st2{font-family:'OpenSans';}
	.st3{font-size:10px;}
	.st4{fill:#82949E;}
	.st5{fill-rule:evenodd;clip-rule:evenodd;fill:#439FD1;}
	.st6{fill-rule:evenodd;clip-rule:evenodd;fill:#00B6B5;}
	.st7{fill-rule:evenodd;clip-rule:evenodd;fill:#445D6E;}
	.st8{font-size:8px;}
	.st9{fill:none;stroke:#445D6E;stroke-width:2;}
	.st10{fill-rule:evenodd;clip-rule:evenodd;fill:#FFB463;}
	.st11{fill:none;stroke:#445D6E;stroke-width:2;stroke-linecap:round;stroke-linejoin:round;}
	.st12{fill:none;stroke:#F7F8F9;stroke-width:2;}
	.st13{fill:none;stroke:#E0E4E7;stroke-width:2;stroke-dasharray:5,5,5,5;}
	.st14{fill-rule:evenodd;clip-rule:evenodd;fill:#82949E;}
</style>
<rect class="st0" width="740" height="310"/>
<title>interlock-deploy-production-1</title>
<desc>Created with Sketch.</desc>
<g id="interlock-deploy-production-1">
	<g id="all" transform="translate(9.000000, 10.000000)">
		<text transform="matrix(1 0 0 1 7 281)" class="st1 st2 st3">Docker swarm managed with UCP</text>
		<g id="nodes" transform="translate(8.000000, 100.000000)">
			<g id="workers" transform="translate(357.000000, 0.000000)">
				<g id="node" transform="translate(242.000000, 0.000000)">
					<text transform="matrix(1 0 0 1 37.313 149)" class="st4 st2 st3">node-6</text>
					<g id="ucp" transform="translate(1.000000, 112.000000)">
						<path id="Rectangle-138" class="st5" d="M2,0h102c1.1,0,2,0.9,2,2v18c0,1.1-0.9,2-2,2H2c-1.1,0-2-0.9-2-2V2C0,0.9,0.9,0,2,0z"
							/>
						<text transform="matrix(1 0 0 1 43.6953 15)" class="st0 st2 st3">UCP</text>
					</g>
					<g id="wordpress-copy" transform="translate(1.000000, 89.000000)">
						<path class="st6" d="M2,0h102c1.1,0,2,0.9,2,2v18c0,1.1-0.9,2-2,2H2c-1.1,0-2-0.9-2-2V2C0,0.9,0.9,0,2,0z"/>
						<text transform="matrix(1 0 0 1 11.3442 15)" class="st0 st2 st3">interlock-proxy:80</text>
					</g>
					<g id="label">
						<g id="node-label">
							<path id="Rectangle-127" class="st7" d="M0,2c0-1.1,0.9-2,2-2h69v10.6c0,5.9-4.8,10.6-10.6,10.6H0V2z"/>
							<text transform="matrix(1 0 0 1 6 14)" class="st0 st2 st8">worker node</text>
						</g>
					</g>
					<path id="node-border" class="st9" d="M2,0h104c1.1,0,2,0.9,2,2v131c0,1.1-0.9,2-2,2H2c-1.1,0-2-0.9-2-2V2C0,0.9,0.9,0,2,0z"/>
				</g>
				<g transform="translate(128.000000, 0.000000)">
					<text transform="matrix(1 0 0 1 37.313 149)" class="st4 st2 st3">node-5</text>
					<g transform="translate(1.000000, 112.000000)">
						<path class="st5" d="M2,0h102c1.1,0,2,0.9,2,2v18c0,1.1-0.9,2-2,2H2c-1.1,0-2-0.9-2-2V2C0,0.9,0.9,0,2,0z"/>
						<text transform="matrix(1 0 0 1 43.6953 15)" class="st0 st2 st3">UCP</text>
					</g>
					<g id="wordpress" transform="translate(1.000000, 89.000000)">
						<path class="st6" d="M2,0h102c1.1,0,2,0.9,2,2v18c0,1.1-0.9,2-2,2H2c-1.1,0-2-0.9-2-2V2C0,0.9,0.9,0,2,0z"/>
						<text transform="matrix(1 0 0 1 10.8442 15)" class="st0 st2 st3">interlock-proxy:80</text>
					</g>
					<g transform="translate(12.000000, 70.000000)">
						<text transform="matrix(1 0 0 1 0.3442 11)" class="st0 st2 st3">interlock-proxy:80</text>
					</g>
					<g>
						<g>
							<path class="st7" d="M0,2c0-1.1,0.9-2,2-2h69v10.6c0,5.9-4.8,10.6-10.6,10.6H0V2z"/>
							<text transform="matrix(1 0 0 1 6 14)" class="st0 st2 st8">worker node</text>
						</g>
					</g>
					<path class="st9" d="M2,0h104c1.1,0,2,0.9,2,2v131c0,1.1-0.9,2-2,2H2c-1.1,0-2-0.9-2-2V2C0,0.9,0.9,0,2,0z"/>
				</g>
				<g id="node-copy-3">
					<text transform="matrix(1 0 0 1 37.313 149)" class="st4 st2 st3">node-4</text>
					<g transform="translate(1.000000, 112.000000)">
						<path class="st5" d="M2,0h102c1.1,0,2,0.9,2,2v18c0,1.1-0.9,2-2,2H2c-1.1,0-2-0.9-2-2V2C0,0.9,0.9,0,2,0z"/>
						<text transform="matrix(1 0 0 1 43.6953 15)" class="st0 st2 st3">UCP</text>
					</g>
					<g transform="translate(1.000000, 89.000000)">
						<path class="st6" d="M2,0h102c1.1,0,2,0.9,2,2v18c0,1.1-0.9,2-2,2H2c-1.1,0-2-0.9-2-2V2C0,0.9,0.9,0,2,0z"/>
						<text transform="matrix(1 0 0 1 8.854 15)" class="st0 st2 st3">interlock-extension</text>
					</g>
					<g id="wordpress-copy-2" transform="translate(1.000000, 66.000000)">
						<path class="st10" d="M2,0h102c1.1,0,2,0.9,2,2v18c0,1.1-0.9,2-2,2H2c-1.1,0-2-0.9-2-2V2C0,0.9,0.9,0,2,0z"/>
						<text transform="matrix(1 0 0 1 16.0391 15)" class="st0 st2 st3">wordpress:8000</text>
					</g>
					<g>
						<g>
							<path class="st7" d="M0,2c0-1.1,0.9-2,2-2h69v10.6c0,5.9-4.8,10.6-10.6,10.6H0V2z"/>
							<text transform="matrix(1 0 0 1 6 14)" class="st0 st2 st8">worker node</text>
						</g>
					</g>
					<path class="st9" d="M2,0h104c1.1,0,2,0.9,2,2v131c0,1.1-0.9,2-2,2H2c-1.1,0-2-0.9-2-2V2C0,0.9,0.9,0,2,0z"/>
				</g>
			</g>
			<g id="managers">
				<g transform="translate(228.000000, 0.000000)">
					<text transform="matrix(1 0 0 1 37.313 149)" class="st4 st2 st3">node-3</text>
					<g transform="translate(1.000000, 112.000000)">
						<path class="st5" d="M2,0h102c1.1,0,2,0.9,2,2v18c0,1.1-0.9,2-2,2H2c-1.1,0-2-0.9-2-2V2C0,0.9,0.9,0,2,0z"/>
						<text transform="matrix(1 0 0 1 43.6953 15)" class="st0 st2 st3">UCP</text>
					</g>
					<g>
						<g>
							<path class="st7" d="M0,2c0-1.1,0.9-2,2-2h69v10.6c0,5.9-4.8,10.6-10.6,10.6H0V2z"/>
							<text transform="matrix(1 0 0 1 6 14)" class="st0 st2 st8">manager node</text>
						</g>
					</g>
					<path class="st9" d="M2,0h104c1.1,0,2,0.9,2,2v131c0,1.1-0.9,2-2,2H2c-1.1,0-2-0.9-2-2V2C0,0.9,0.9,0,2,0z"/>
				</g>
				<g id="node-copy" transform="translate(114.000000, 0.000000)">
					<text transform="matrix(1 0 0 1 37.313 149)" class="st4 st2 st3">node-2</text>
					<g transform="translate(1.000000, 112.000000)">
						<path class="st5" d="M2,0h102c1.1,0,2,0.9,2,2v18c0,1.1-0.9,2-2,2H2c-1.1,0-2-0.9-2-2V2C0,0.9,0.9,0,2,0z"/>
						<text transform="matrix(1 0 0 1 43.6953 15)" class="st0 st2 st3">UCP</text>
					</g>
					<g>
						<g>
							<path class="st7" d="M0,2c0-1.1,0.9-2,2-2h69v10.6c0,5.9-4.8,10.6-10.6,10.6H0V2z"/>
							<text transform="matrix(1 0 0 1 6 14)" class="st0 st2 st8">manager node</text>
						</g>
					</g>
					<path class="st9" d="M2,0h104c1.1,0,2,0.9,2,2v131c0,1.1-0.9,2-2,2H2c-1.1,0-2-0.9-2-2V2C0,0.9,0.9,0,2,0z"/>
				</g>
				<g id="node-copy-2">
					<text transform="matrix(1 0 0 1 37.313 149)" class="st4 st2 st3">node-1</text>
					<g transform="translate(1.000000, 112.000000)">
						<path class="st5" d="M2,0h102c1.1,0,2,0.9,2,2v18c0,1.1-0.9,2-2,2H2c-1.1,0-2-0.9-2-2V2C0,0.9,0.9,0,2,0z"/>
						<text transform="matrix(1 0 0 1 43.6953 15)" class="st0 st2 st3">UCP</text>
					</g>
					<g transform="translate(1.000000, 89.000000)">
						<path class="st6" d="M2,0h102c1.1,0,2,0.9,2,2v18c0,1.1-0.9,2-2,2H2c-1.1,0-2-0.9-2-2V2C0,0.9,0.9,0,2,0z"/>
						<text transform="matrix(1 0 0 1 22.6436 15)" class="st0 st2 st3">ucp-interlock</text>
					</g>
					<g>
						<g>
							<path class="st7" d="M0,2c0-1.1,0.9-2,2-2h69v10.6c0,5.9-4.8,10.6-10.6,10.6H0V2z"/>
							<text transform="matrix(1 0 0 1 6 14)" class="st0 st2 st8">manager node</text>
						</g>
					</g>
					<path class="st9" d="M2,0h104c1.1,0,2,0.9,2,2v131c0,1.1-0.9,2-2,2H2c-1.1,0-2-0.9-2-2V2C0,0.9,0.9,0,2,0z"/>
				</g>
			</g>
		</g>
		<g id="load-balancer" transform="translate(492.000000, 55.000000)">
			<g id="L7">
				<path class="st7" d="M2,0h220c1.1,0,2,0.9,2,2v18c0,1.1-0.9,2-2,2H2c-1.1,0-2-0.9-2-2V2C0,0.9,0.9,0,2,0z"/>
				<text transform="matrix(1 0 0 1 68.438 15)" class="st0 st2 st3">your load balancer</text>
			</g>
			
				<g id="arrow" transform="translate(170.000000, 33.000000) scale(1, -1) rotate(-90.000000) translate(-170.000000, -33.000000) translate(158.000000, 29.000000)">
				<path id="Line" class="st11" d="M2,4h22"/>
				<g id="Oval">
					<g>
						<circle id="path-1" class="st7" cx="4" cy="4" r="4"/>
					</g>
					<circle class="st12" cx="4" cy="4" r="5"/>
				</g>
			</g>
			
				<g transform="translate(56.000000, 33.000000) scale(1, -1) rotate(-90.000000) translate(-56.000000, -33.000000) translate(44.000000, 29.000000)">
				<path class="st11" d="M2,4h22"/>
				<g>
					<g>
						<circle id="path-2" class="st7" cx="4" cy="4" r="4"/>
					</g>
					<circle class="st12" cx="4" cy="4" r="5"/>
				</g>
			</g>
		</g>
		<path id="group" class="st13" d="M0,89c0-1.1,0.9-2,2-2h719c1.1,0,2,0.9,2,2v200c0,1.1-0.9,2-2,2H2c-1.1,0-2-0.9-2-2V89z"/>
		<g id="user" transform="translate(532.000000, 0.000000)">
			<text transform="matrix(1 0 0 1 0.1294 42)" class="st4 st2 st3">http://wordpress.example.org</text>
			<path id="Shape" class="st14" d="M73,13c3.6,0,6.5-2.9,6.5-6.5C79.5,2.9,76.6,0,73,0s-6.5,2.9-6.5,6.5C66.5,10.1,69.4,13,73,13
				L73,13z M73,16.2c-4.3,0-13,2.2-13,6.5V26h26v-3.2C86,18.4,77.3,16.2,73,16.2L73,16.2z"/>
		</g>
	</g>
</g>
</svg>
