<?xml version="1.0" encoding="UTF-8"?>
<svg width="740px" height="178px" viewBox="0 0 740 178" version="1.1" xmlns="http://www.w3.org/2000/svg" xmlns:xlink="http://www.w3.org/1999/xlink">
    <!-- Generator: Sketch 42 (36781) - http://www.bohemiancoding.com/sketch -->
    <title>content-trust-3</title>
    <desc>Created with Sketch.</desc>
    <defs>
        <circle id="path-1" cx="4" cy="4" r="4"></circle>
        <mask id="mask-2" maskContentUnits="userSpaceOnUse" maskUnits="objectBoundingBox" x="-2" y="-2" width="12" height="12">
            <rect x="-2" y="-2" width="12" height="12" fill="white"></rect>
            <use xlink:href="#path-1" fill="black"></use>
        </mask>
        <circle id="path-3" cx="4" cy="4" r="4"></circle>
        <mask id="mask-4" maskContentUnits="userSpaceOnUse" maskUnits="objectBoundingBox" x="-2" y="-2" width="12" height="12">
            <rect x="-2" y="-2" width="12" height="12" fill="white"></rect>
            <use xlink:href="#path-3" fill="black"></use>
        </mask>
        <rect id="path-5" x="0" y="0" width="228" height="144"></rect>
        <mask id="mask-6" maskContentUnits="userSpaceOnUse" maskUnits="objectBoundingBox" x="0" y="0" width="228" height="144" fill="white">
            <use xlink:href="#path-5"></use>
        </mask>
    </defs>
    <g id="dtr-diagrams" stroke="none" stroke-width="1" fill="none" fill-rule="evenodd">
        <g id="content-trust-3">
            <g id="Group" transform="translate(14.000000, 17.000000)">
                <g id="user" transform="translate(0.000000, 47.000000)">
                    <text id="&gt;-docker-service-cre" font-family="CourierNewPS-BoldMT, Courier New" font-size="12" font-weight="bold" line-spacing="16" fill="#637986">
                        <tspan x="0" y="46">&gt; docker service create \</tspan>
                        <tspan x="0" y="62">  dtr.example.org/dev/nginx:1</tspan>
                    </text>
                    <path d="M90,13 C93.59125,13 96.5,10.083125 96.5,6.5 C96.5,2.90875 93.59125,-1.77635684e-15 90,-1.77635684e-15 C86.40875,-1.77635684e-15 83.5,2.90875 83.5,6.5 C83.5,10.083125 86.40875,13 90,13 L90,13 Z M90,16.25 C85.669375,16.25 77,18.419375 77,22.75 L77,26 L103,26 L103,22.75 C103,18.419375 94.330625,16.25 90,16.25 L90,16.25 Z" id="Shape" fill="#82949E"></path>
                </g>
                <g id="arrow" transform="translate(238.500000, 72.000000) scale(1, -1) translate(-238.500000, -72.000000) translate(216.000000, 68.000000)">
                    <path d="M2,4 L45,4" id="Line" stroke="#1488C6" stroke-width="2" stroke-linecap="round" stroke-linejoin="round"></path>
                    <g id="Oval">
                        <use fill="#1488C6" fill-rule="evenodd" xlink:href="#path-1"></use>
                        <use stroke="#FFFFFF" mask="url(#mask-2)" stroke-width="4" xlink:href="#path-1"></use>
                    </g>
                </g>
                <g id="ucp" transform="translate(262.000000, 0.000000)">
                    <g transform="translate(1.000000, 116.000000)">
                        <rect id="ucp-box" fill="#1488C6" x="0" y="0" width="180" height="27"></rect>
                        <text id="UCP" font-family="OpenSans, Open Sans" font-size="14" font-weight="normal" fill="#FFFFFF">
                            <tspan x="75.3596444" y="19">UCP</tspan>
                        </text>
                    </g>
                    <rect id="Rectangle-138" stroke="#82949E" stroke-width="2" x="0" y="0" width="181.124057" height="144" rx="2"></rect>
                    <g id="service" transform="translate(3.000000, 85.000000)">
                        <rect fill="#1488C6" x="0" y="2" width="30" height="27" rx="2"></rect>
                        <g id="signed" transform="translate(21.000000, 0.000000)">
                            <circle id="sign" fill="#00B6B5" cx="5.5" cy="5.5" r="5.5"></circle>
                            <polyline id="Path-2" stroke="#FFFFFF" stroke-linecap="round" points="2.33138415 5.0401346 4.66576739 7.30973903 8.53446401 3.34959331"></polyline>
                        </g>
                    </g>
                </g>
                <g id="arrow" transform="translate(466.500000, 72.000000) scale(1, -1) translate(-466.500000, -72.000000) translate(440.000000, 68.000000)">
                    <path d="M2,4 L52.5,4" id="Line" stroke="#1488C6" stroke-width="2" stroke-linecap="round" stroke-linejoin="round"></path>
                    <g id="Oval">
                        <use fill="#1488C6" fill-rule="evenodd" xlink:href="#path-3"></use>
                        <use stroke="#FFFFFF" mask="url(#mask-4)" stroke-width="4" xlink:href="#path-3"></use>
                    </g>
                </g>
                <g id="dtr" transform="translate(485.000000, 0.000000)">
                    <use id="chrome" stroke="#82949E" mask="url(#mask-6)" stroke-width="2" fill="#FFFFFF" xlink:href="#path-5"></use>
                    <g id="table" transform="translate(9.000000, 60.000000)">
                        <g id="data" transform="translate(0.000000, 25.000000)" font-size="12" font-family="OpenSans, Open Sans" fill="#82949E" font-weight="normal">
                            <text id="dave">
                                <tspan x="145" y="13">dave.lauper</tspan>
                            </text>
                            <text id="9baa">
                                <tspan x="61" y="13">9baa16</tspan>
                            </text>
                            <text id="1">
                                <tspan x="0" y="13">1</tspan>
                            </text>
                        </g>
                        <g id="signed" transform="translate(9.000000, 28.000000)">
                            <circle id="sign" fill="#00B6B5" cx="5.5" cy="5.5" r="5.5"></circle>
                            <polyline id="Path-2" stroke="#FFFFFF" stroke-linecap="round" points="2.33138415 5.0401346 4.66576739 7.30973903 8.53446401 3.34959331"></polyline>
                        </g>
                        <g id="header" font-size="12" font-family="OpenSans, Open Sans" fill="#82949E" font-weight="normal">
                            <text id="last">
                                <tspan x="145" y="13">last pushed</tspan>
                            </text>
                            <text id="id">
                                <tspan x="61" y="13">id</tspan>
                            </text>
                            <text id="tag">
                                <tspan x="0" y="13">tag</tspan>
                            </text>
                        </g>
                    </g>
                    <g id="repo" transform="translate(0.000000, 26.000000)">
                        <rect id="header" fill="#82949E" x="0" y="0" width="228" height="27"></rect>
                        <text id="dev/nginx" font-family="OpenSans, Open Sans" font-size="12" font-weight="normal" fill="#FFFFFF">
                            <tspan x="9" y="18">dev/nginx</tspan>
                        </text>
                    </g>
                    <g id="header">
                        <path d="M9.5,79.5 L217.5,79.5" id="Line" stroke="#E0E4E7" stroke-linecap="square"></path>
                        <rect fill="#1488C6" x="0" y="0" width="228" height="27"></rect>
                        <text id="docker-trusted-regis" font-family="OpenSans, Open Sans" font-size="12" font-weight="normal" fill="#FFFFFF">
                            <tspan x="9" y="18">docker trusted registry</tspan>
                        </text>
                    </g>
                </g>
            </g>
        </g>
    </g>
</svg>