<svg width="800" height="156" viewBox="0 0 800 156" xmlns="http://www.w3.org/2000/svg"><title>Grant On-boarding Collapsed</title><g fill="none" fill-rule="evenodd"><path fill="#FBFBFC" d="M0 0h800v156H0z"/><path d="M338 95c2.2 0 4-1.8 4-4s-1.8-4-4-4-4 1.8-4 4 1.8 4 4 4zm0 2c-3.4 0-6 2.6-6 6v12h12v-12c0-3.4-2.6-6-6-6zm16-2c2.2 0 4-1.8 4-4s-1.8-4-4-4-4 1.8-4 4 1.8 4 4 4zm0 2c-3.4 0-6 2.6-6 6v12h12v-12c0-3.4-2.6-6-6-6zM450 105v-8c0-4.4-3.6-8-8-8s-8 3.6-8 8v8h-6v2h28v-2h-6zm-2 0h-12v-8c0-3.4 2.6-6 6-6s6 2.6 6 6v8zm-20 6h28v-2h-28v2zM548 101v-6h-20v6h-4v14h28v-14h-4zm-18-4h16v4h-16v-4zm20 16h-24v-10h24v10zm-2-22h-20v2h20v-2zm0-4h-20v2h20v-2zM249.93 99H264v6h-2v-4h-2v4h-2v-4h-8.07a7.002 7.002 0 0 1-13.93-1 7 7 0 0 1 13.93-1zm-6.93 6a5 5 0 1 0 0-10 5 5 0 0 0 0 10z" fill="#066DA5" fill-rule="nonzero"/><path d="M237.655 129.764h3.398v4.86c-.53.17-1.067.296-1.614.383-.547.086-1.18.13-1.9.13-1.514 0-2.692-.45-3.535-1.35-.843-.9-1.265-2.162-1.265-3.784 0-1.04.21-1.95.626-2.73a4.23 4.23 0 0 1 1.8-1.792c.785-.41 1.703-.618 2.756-.618a7.53 7.53 0 0 1 2.98.588l-.45 1.026c-.903-.383-1.77-.575-2.605-.575-1.217 0-2.167.364-2.85 1.088-.685.725-1.026 1.73-1.026 3.015 0 1.35.33 2.372.988 3.07.66.697 1.626 1.045 2.902 1.045.693 0 1.37-.08 2.03-.24v-3.075h-2.235v-1.04zm9.044-2.393c.332 0 .63.028.895.083l-.157 1.053a3.865 3.865 0 0 0-.82-.103c-.607 0-1.125.246-1.556.74-.43.49-.646 1.104-.646 1.837V135h-1.135v-7.492h.938l.13 1.388h.054c.278-.488.613-.864 1.005-1.128a2.262 2.262 0 0 1 1.292-.397zm6.904 7.63l-.226-1.066h-.055c-.373.47-.746.787-1.117.953-.372.167-.836.25-1.392.25-.742 0-1.325-.192-1.746-.575-.422-.382-.632-.927-.632-1.633 0-1.514 1.21-2.307 3.63-2.38l1.27-.04v-.466c0-.588-.126-1.022-.378-1.302-.253-.28-.658-.42-1.214-.42-.624 0-1.33.19-2.12.574l-.348-.87c.37-.2.774-.356 1.214-.47.44-.114.88-.17 1.322-.17.894 0 1.556.197 1.986.593.43.396.646 1.032.646 1.907V135h-.84zm-2.564-.8c.706 0 1.26-.193 1.665-.58.403-.388.605-.93.605-1.628v-.677l-1.135.048c-.903.032-1.553.172-1.952.42-.4.25-.598.635-.598 1.16 0 .41.124.722.373.936.248.213.595.32 1.042.32zm10.87.8v-4.847c0-.61-.14-1.066-.418-1.367-.278-.3-.713-.45-1.305-.45-.784 0-1.36.21-1.723.635-.365.425-.547 1.124-.547 2.1V135h-1.135v-7.492h.923l.185 1.025h.054c.233-.37.56-.655.978-.858.42-.203.886-.304 1.4-.304.904 0 1.583.22 2.038.654.456.435.684 1.13.684 2.088V135h-1.135zm5.885-.8c.2 0 .394-.015.58-.044.188-.03.336-.06.445-.093v.87c-.123.058-.304.107-.543.146a4.08 4.08 0 0 1-.646.057c-1.448 0-2.173-.764-2.173-2.29v-4.457h-1.073v-.547l1.073-.472.48-1.6h.655v1.738h2.174v.882h-2.174v4.41c0 .45.107.796.32 1.038.215.24.51.362.883.362zM430.783 130.844V135h-1.162v-9.994h2.742c1.226 0 2.132.235 2.718.704.585.47.878 1.176.878 2.12 0 1.32-.67 2.214-2.01 2.68l2.714 4.49h-1.374l-2.42-4.156h-2.085zm0-.998h1.593c.82 0 1.422-.163 1.805-.49.383-.325.575-.814.575-1.465 0-.66-.195-1.136-.585-1.428-.39-.292-1.015-.438-1.876-.438h-1.51v3.822zm13.788 1.4c0 1.222-.306 2.176-.922 2.862-.615.686-1.465 1.03-2.55 1.03-.67 0-1.264-.16-1.784-.473a3.113 3.113 0 0 1-1.203-1.353c-.28-.588-.423-1.277-.423-2.065 0-1.22.306-2.173.917-2.854.61-.68 1.458-1.022 2.542-1.022 1.05 0 1.882.35 2.5 1.047.617.697.925 1.64.925 2.83zm-5.707 0c0 .958.192 1.687.575 2.19.382.5.945.75 1.688.75s1.307-.25 1.692-.748c.385-.5.578-1.23.578-2.19 0-.953-.193-1.677-.578-2.17-.385-.496-.954-.743-1.706-.743-.743 0-1.303.244-1.68.73-.38.49-.57 1.216-.57 2.182zm8.832 3.754h-1.134v-10.637h1.135V135zm5.572.137c-1.108 0-1.982-.338-2.622-1.012-.64-.674-.96-1.61-.96-2.81 0-1.207.297-2.167.892-2.877.594-.71 1.393-1.067 2.396-1.067.938 0 1.68.31 2.228.927.548.618.82 1.432.82 2.444v.72h-5.16c.023.88.245 1.546.667 2.002.42.456 1.015.684 1.78.684.807 0 1.605-.17 2.393-.506v1.01c-.4.175-.78.3-1.138.374-.358.075-.79.113-1.295.113zm-.308-6.816c-.603 0-1.082.197-1.44.59-.358.39-.57.933-.632 1.626h3.917c0-.715-.16-1.263-.48-1.644-.318-.38-.774-.57-1.366-.57zM511.442 125.9c-1.098 0-1.965.367-2.6 1.1-.636.73-.954 1.73-.954 3.003 0 1.308.306 2.318.92 3.032.612.713 1.486 1.07 2.62 1.07.698 0 1.493-.126 2.386-.376v1.017c-.692.26-1.547.39-2.563.39-1.47 0-2.607-.447-3.407-1.34-.8-.893-1.2-2.163-1.2-3.808 0-1.03.193-1.933.578-2.708a4.147 4.147 0 0 1 1.67-1.79c.726-.42 1.582-.63 2.566-.63 1.048 0 1.964.192 2.748.575l-.492.998c-.757-.356-1.513-.534-2.27-.534zm10.85 5.347c0 1.22-.31 2.175-.924 2.86-.615.687-1.465 1.03-2.55 1.03-.67 0-1.264-.158-1.784-.472a3.113 3.113 0 0 1-1.203-1.353c-.28-.588-.423-1.277-.423-2.065 0-1.22.306-2.173.916-2.854.61-.68 1.46-1.022 2.543-1.022 1.048 0 1.88.35 2.5 1.047.616.697.925 1.64.925 2.83zm-5.71 0c0 .957.192 1.686.575 2.188.383.5.946.752 1.69.752.742 0 1.306-.25 1.69-.75.386-.498.578-1.228.578-2.19 0-.952-.192-1.676-.577-2.17-.385-.495-.954-.742-1.706-.742-.743 0-1.303.244-1.682.73-.378.49-.567 1.216-.567 2.182zm8.833 3.753h-1.135v-10.637h1.135V135zm3.54 0h-1.134v-10.637h1.136V135zm5.572.137c-1.107 0-1.98-.338-2.62-1.012-.642-.674-.962-1.61-.962-2.81 0-1.207.298-2.167.892-2.877.595-.71 1.394-1.067 2.396-1.067.94 0 1.682.31 2.23.927.546.618.82 1.432.82 2.444v.72h-5.162c.024.88.246 1.546.668 2.002.42.456 1.015.684 1.78.684.807 0 1.605-.17 2.393-.506v1.01c-.4.175-.78.3-1.137.374-.358.075-.79.113-1.296.113zm-.307-6.816c-.602 0-1.08.197-1.44.59-.357.39-.568.933-.632 1.626h3.917c0-.715-.16-1.263-.478-1.644-.32-.38-.775-.57-1.367-.57zm7.99 6.817c-1.084 0-1.923-.334-2.518-1.002-.595-.667-.892-1.612-.892-2.833 0-1.254.302-2.222.906-2.906.603-.683 1.464-1.025 2.58-1.025.36 0 .72.04 1.08.117.36.078.643.17.848.274l-.35.965c-.25-.1-.523-.184-.82-.25a3.663 3.663 0 0 0-.785-.1c-1.523 0-2.284.972-2.284 2.913 0 .92.185 1.627.557 2.12.37.49.92.738 1.65.738.625 0 1.265-.135 1.92-.404v1.005c-.5.26-1.13.39-1.892.39zm6.092-.937c.2 0 .394-.015.58-.044.188-.03.336-.06.445-.093v.87c-.123.058-.304.107-.543.146a4.08 4.08 0 0 1-.646.057c-1.45 0-2.174-.764-2.174-2.29v-4.457h-1.073v-.547l1.074-.472.478-1.6h.657v1.738h2.172v.882H547.1v4.41c0 .45.106.796.32 1.038.214.24.508.362.882.362zm3.657.8h-1.136v-7.492h1.135V135zm-1.23-9.522c0-.26.062-.45.19-.57a.67.67 0 0 1 .478-.182.67.67 0 0 1 .472.184c.132.123.198.312.198.568 0 .255-.066.445-.198.57a.662.662 0 0 1-.472.188.655.655 0 0 1-.478-.188c-.128-.125-.19-.315-.19-.57zm10.102 5.77c0 1.22-.308 2.174-.923 2.86-.616.686-1.466 1.03-2.55 1.03-.67 0-1.265-.16-1.785-.473a3.113 3.113 0 0 1-1.203-1.353c-.282-.588-.424-1.277-.424-2.065 0-1.22.306-2.173.916-2.854.61-.68 1.46-1.022 2.543-1.022 1.048 0 1.88.35 2.5 1.047.616.697.925 1.64.925 2.83zm-5.708 0c0 .956.19 1.685.574 2.187.383.5.946.752 1.69.752.742 0 1.306-.25 1.69-.75.386-.498.578-1.228.578-2.19 0-.952-.192-1.676-.577-2.17-.386-.495-.955-.742-1.707-.742-.743 0-1.303.244-1.682.73-.377.49-.566 1.216-.566 2.182zM567.948 135v-4.847c0-.61-.14-1.066-.417-1.367-.277-.3-.712-.45-1.304-.45-.784 0-1.358.21-1.723.635-.365.425-.547 1.124-.547 2.1V135h-1.135v-7.492h.924l.185 1.025h.053c.233-.37.56-.655.978-.858.42-.203.887-.304 1.402-.304.903 0 1.582.22 2.037.654.455.435.683 1.13.683 2.088V135h-1.135zM328.584 132.34c0 .88-.32 1.566-.957 2.058-.638.493-1.503.74-2.597.74-1.185 0-2.097-.154-2.735-.46v-1.12a7.2 7.2 0 0 0 1.34.41c.483.1.962.15 1.436.15.776 0 1.36-.147 1.75-.44.393-.295.59-.704.59-1.228 0-.346-.07-.63-.21-.85-.14-.222-.37-.426-.697-.613-.326-.187-.822-.398-1.487-.635-.93-.333-1.594-.727-1.993-1.183-.398-.457-.598-1.052-.598-1.785 0-.77.29-1.383.868-1.84.58-.455 1.345-.683 2.297-.683.994 0 1.908.183 2.742.547l-.363 1.01c-.826-.345-1.628-.52-2.407-.52-.615 0-1.096.134-1.442.398-.346.264-.52.63-.52 1.1 0 .347.065.63.192.852.128.22.343.423.646.608.304.184.767.388 1.392.612 1.048.373 1.77.774 2.163 1.203.394.428.59.984.59 1.668zm2.94-4.832v4.86c0 .61.14 1.067.417 1.367.28.3.714.452 1.307.452.783 0 1.357-.215 1.72-.643.36-.428.542-1.128.542-2.1v-3.936h1.134V135h-.936l-.165-1.005h-.06c-.233.37-.556.652-.968.848-.413.196-.883.294-1.412.294-.91 0-1.594-.217-2.047-.65-.454-.433-.68-1.125-.68-2.078v-4.902h1.148zm11.013-.123c.984 0 1.748.336 2.293 1.008.545.672.817 1.624.817 2.854s-.275 2.186-.824 2.868c-.55.68-1.31 1.022-2.286 1.022-.488 0-.933-.09-1.337-.27a2.513 2.513 0 0 1-1.015-.83h-.082l-.24.963h-.813v-10.637h1.135v2.584c0 .58-.018 1.1-.055 1.56h.055c.53-.75 1.313-1.122 2.352-1.122zm-.164.95c-.775 0-1.333.222-1.675.666-.342.446-.513 1.194-.513 2.247s.176 1.806.526 2.26c.352.453.915.68 1.69.68.697 0 1.217-.255 1.558-.763.342-.508.513-1.238.513-2.19 0-.976-.17-1.703-.512-2.18-.34-.48-.87-.72-1.585-.72zm4.347 10.028c-.433 0-.784-.057-1.053-.17v-.923c.315.09.625.136.93.136.356 0 .617-.097.783-.29.166-.194.25-.49.25-.886v-8.722h1.134v8.64c0 1.477-.68 2.215-2.044 2.215zm.814-12.885c0-.26.063-.45.19-.57a.67.67 0 0 1 .48-.182.67.67 0 0 1 .47.184c.133.123.2.312.2.568 0 .255-.067.445-.2.57a.662.662 0 0 1-.47.188.655.655 0 0 1-.48-.188c-.127-.125-.19-.315-.19-.57zm6.8 9.66c-1.106 0-1.98-.34-2.62-1.013-.64-.674-.96-1.61-.96-2.81 0-1.207.297-2.167.892-2.877.594-.71 1.393-1.067 2.396-1.067.938 0 1.68.31 2.228.927.547.618.82 1.432.82 2.444v.72h-5.16c.022.88.244 1.546.666 2.002.42.456 1.015.684 1.78.684.807 0 1.605-.17 2.393-.506v1.01c-.402.175-.78.3-1.14.374-.357.075-.79.113-1.295.113zm-.306-6.817c-.602 0-1.08.197-1.44.59-.357.39-.568.933-.63 1.626h3.916c0-.715-.16-1.263-.48-1.644-.318-.38-.774-.57-1.366-.57zm7.99 6.817c-1.084 0-1.923-.334-2.518-1.002-.595-.667-.892-1.612-.892-2.833 0-1.254.302-2.222.906-2.906.604-.683 1.464-1.025 2.58-1.025.36 0 .72.04 1.08.117.36.078.643.17.848.274l-.35.965c-.25-.1-.523-.184-.82-.25a3.663 3.663 0 0 0-.785-.1c-1.522 0-2.283.972-2.283 2.913 0 .92.185 1.627.557 2.12.372.49.923.738 1.652.738.624 0 1.264-.135 1.92-.404v1.005c-.5.26-1.132.39-1.893.39zm6.092-.937c.2 0 .394-.015.58-.044.188-.03.336-.06.445-.093v.87c-.123.058-.304.107-.543.146a4.08 4.08 0 0 1-.646.057c-1.45 0-2.174-.764-2.174-2.29v-4.457H364.7v-.547l1.072-.472.478-1.6h.657v1.738h2.174v.882h-2.173v4.41c0 .45.107.796.32 1.038.215.24.51.362.883.362z" fill="#066DA5"/><path fill="#066DA5" opacity=".457" d="M395.03 102.006h8.85v2.965h-8.85v9.153h-2.987v-9.152h-8.81v-2.964h8.81V92.81h2.986zM287.557 100.566v-2.943h19.98v2.943h-19.98zm0 8.788v-2.944h19.98v2.944h-19.98zM491.03 102.006h8.85v2.965h-8.85v9.153h-2.987v-9.152h-8.81v-2.964h8.81V92.81h2.986z"/><path d="M373.71 37.982h5.665v7.403c-.918.3-1.782.51-2.593.63-.81.12-1.64.18-2.485.18-2.155 0-3.8-.633-4.937-1.9-1.136-1.265-1.704-3.083-1.704-5.453 0-2.305.66-4.102 1.978-5.39 1.318-1.29 3.146-1.934 5.483-1.934 1.465 0 2.878.293 4.238.878l-1.005 2.422a7.184 7.184 0 0 0-3.252-.78c-1.31 0-2.357.44-3.145 1.317-.788.88-1.182 2.06-1.182 3.545 0 1.55.32 2.733.954 3.55.634.817 1.557 1.226 2.768 1.226.632 0 1.273-.065 1.924-.196v-2.978h-2.705v-2.52zm14.923-3.105c.403 0 .74.03 1.006.088l-.226 2.793a3.412 3.412 0 0 0-.88-.098c-.95 0-1.69.244-2.22.733-.53.488-.796 1.17-.796 2.05V46h-2.98V35.082h2.257l.44 1.836h.146a4.104 4.104 0 0 1 1.373-1.48 3.383 3.383 0 0 1 1.88-.56zM398.153 46l-.575-1.484h-.078c-.5.63-1.017 1.07-1.548 1.313-.53.243-1.222.365-2.075.365-1.048 0-1.873-.3-2.476-.898-.6-.6-.902-1.452-.902-2.56 0-1.158.405-2.012 1.216-2.562.81-.55 2.033-.855 3.667-.913l1.895-.06v-.477c0-1.107-.566-1.66-1.7-1.66-.87 0-1.897.263-3.075.79l-.986-2.01c1.256-.66 2.65-.988 4.18-.988 1.464 0 2.587.32 3.368.957.782.638 1.172 1.61 1.172 2.91V46h-2.08zm-.878-5.06l-1.152.04c-.866.027-1.51.183-1.934.47-.424.286-.635.722-.635 1.308 0 .84.48 1.26 1.445 1.26.69 0 1.242-.2 1.655-.596.414-.397.62-.925.62-1.582v-.9zM413.38 46h-2.98v-6.377c0-.788-.14-1.38-.42-1.772-.28-.393-.725-.59-1.337-.59-.834 0-1.436.278-1.807.835-.37.556-.557 1.48-.557 2.768V46h-2.98V35.082h2.276l.4 1.397h.167c.332-.53.79-.928 1.372-1.198.582-.27 1.245-.405 1.987-.405 1.27 0 2.233.343 2.89 1.03.658.687.987 1.678.987 2.974V46zm7.665-2.178c.52 0 1.146-.114 1.875-.342v2.217c-.742.332-1.654.498-2.734.498-1.192 0-2.06-.3-2.603-.903-.544-.602-.815-1.506-.815-2.71v-5.264h-1.426v-1.26l1.64-.995.86-2.305h1.904v2.324h3.057v2.236h-3.057v5.264c0 .423.12.736.357.938.237.2.55.302.942.302zm11.7-1.064c0 1.12-.39 1.972-1.168 2.558-.778.586-1.942.88-3.49.88-.795 0-1.472-.054-2.032-.162a7.683 7.683 0 0 1-1.573-.473V43.1c.554.26 1.177.478 1.87.654.694.176 1.304.264 1.832.264 1.08 0 1.62-.313 1.62-.938a.782.782 0 0 0-.214-.57c-.143-.148-.39-.314-.742-.5-.352-.185-.82-.4-1.407-.65-.838-.35-1.455-.676-1.85-.975-.393-.3-.68-.643-.86-1.03-.178-.388-.267-.865-.267-1.43 0-.97.376-1.722 1.128-2.252.753-.53 1.82-.796 3.2-.796 1.314 0 2.593.286 3.837.86l-.898 2.148a16.527 16.527 0 0 0-1.535-.576 4.815 4.815 0 0 0-1.455-.226c-.88 0-1.318.238-1.318.713 0 .267.14.498.425.693.283.196.903.485 1.86.87.853.344 1.478.667 1.875.966.397.3.69.645.88 1.035.188.392.282.857.282 1.398z" fill="#066DA5"/></g></svg>