<?xml version="1.0" encoding="utf-8"?>
<!-- Generator: Adobe Illustrator 17.0.0, SVG Export Plug-In . SVG Version: 6.00 Build 0)  -->
<!DOCTYPE svg PUBLIC "-//W3C//DTD SVG 1.1//EN" "http://www.w3.org/Graphics/SVG/1.1/DTD/svg11.dtd">
<svg version="1.1" xmlns="http://www.w3.org/2000/svg" xmlns:xlink="http://www.w3.org/1999/xlink" x="0px" y="0px" width="200px"
	 height="160px" viewBox="0 0 200 160" enable-background="new 0 0 200 160" xml:space="preserve">
<g id="Engine">
	<g>
		<g id="Oval-5-Copy_1_">
			<path fill="#7A8491" d="M100,153.146c-40.333,0-73.146-32.812-73.146-73.146S59.667,6.854,100,6.854S173.146,39.667,173.146,80
				S140.333,153.146,100,153.146z M100,8.854C60.77,8.854,28.854,40.77,28.854,80c0,39.229,31.916,71.146,71.146,71.146
				c39.229,0,71.146-31.916,71.146-71.146C171.146,40.77,139.229,8.854,100,8.854z"/>
		</g>
		<g id="Oval-5_1_">
			<path fill="#7A8491" d="M103.358,136.497c-31.152,0-56.496-25.345-56.496-56.497s25.344-56.497,56.496-56.497
				c31.152,0,56.497,25.344,56.497,56.497S134.511,136.497,103.358,136.497z M103.358,25.503c-30.049,0-54.496,24.447-54.496,54.497
				c0,30.05,24.447,54.497,54.496,54.497c30.05,0,54.497-24.447,54.497-54.497C157.855,49.951,133.408,25.503,103.358,25.503z"/>
		</g>
		<g>
			<g id="Line_9_">
				<path fill="#7A8491" d="M89.994,134.311l-0.83-1.816l0.907-0.417c0.093-0.043,9.317-4.4,10.725-15.03
					c0.93-7.033,1.024-16.019,0.994-23.88l-0.004-1l2-0.008l0.004,1c0.03,7.929-0.065,16.998-1.012,24.149
					c-1.556,11.755-11.455,16.396-11.875,16.588L89.994,134.311z"/>
			</g>
			<g id="Line_8_">
				<path fill="#7A8491" d="M103.749,65.728l-1.999-0.056l0.027-1c0.274-9.779,1.069-16.823,2.502-22.168
					c1.797-6.707,12.591-14.792,13.05-15.133l0.803-0.596l1.193,1.604l-0.803,0.597c-0.106,0.08-10.694,8.01-12.312,14.045
					c-1.391,5.19-2.164,12.087-2.434,21.706L103.749,65.728z"/>
			</g>
			<g id="Line-Copy_12_">
				<path fill="#7A8491" d="M88.131,80.187c-7.103,0-15.166-0.133-21.845-1.018C54.532,77.614,49.891,67.715,49.7,67.294
					l-0.415-0.909l1.816-0.83l0.417,0.907c0.043,0.093,4.399,9.317,15.03,10.724c6.753,0.894,15.025,1.012,22.186,1l1-0.001l0.002,2
					l-1,0.001C88.536,80.187,88.333,80.187,88.131,80.187z"/>
			</g>
			<g id="Line-Copy_11_">
				<path fill="#7A8491" d="M155.848,96.532l-0.598-0.802c-0.086-0.115-8.64-11.51-14.677-13.128
					c-5.481-1.469-12.961-2.256-23.538-2.479l-0.999-0.021l0.042-2l1,0.021c10.741,0.226,18.372,1.035,24.013,2.547
					c6.706,1.797,15.396,13.372,15.763,13.864l0.598,0.802L155.848,96.532z"/>
			</g>
			<g id="Line-Copy-2_8_">
				<path fill="#7A8491" d="M63.01,110.466c-3.432,0-5.784-0.778-5.981-0.846l-0.944-0.324l0.646-1.889l0.945,0.32
					c0.091,0.03,9.218,3.013,17.741-3.518c5.521-4.229,11.696-10.258,17.008-15.597l0.706-0.709l1.417,1.41l-0.705,0.709
					c-5.359,5.386-11.595,11.472-17.209,15.774C71.74,109.547,66.738,110.466,63.01,110.466z"/>
			</g>
			<g id="Line-Copy-2_7_">
				<path fill="#7A8491" d="M113.254,70.525l-1.379-1.449l0.725-0.689c7.371-7.01,13.088-11.593,17.99-14.423
					c6.015-3.472,18.762-1.625,19.302-1.544l0.988,0.147l-0.294,1.978l-0.989-0.146c-0.126-0.02-12.597-1.826-18.007,1.298
					c-4.762,2.749-10.358,7.242-17.611,14.14L113.254,70.525z"/>
			</g>
			<g id="Line-Copy-3_3_">
				<path fill="#7A8491" d="M93.137,69.802l-0.707-0.707c-4.63-4.634-10.477-10.647-14.632-16.07
					c-7.211-9.412-3.493-19.693-3.331-20.126l0.349-0.935l1.871,0.697l-0.346,0.937c-0.036,0.096-3.477,9.699,3.045,18.21
					c4.084,5.331,9.873,11.283,14.459,15.873l0.707,0.708L93.137,69.802z"/>
			</g>
			<g id="Line-Copy-3_2_">
				<path fill="#7A8491" d="M130.83,128.92l-1.979-0.288l0.145-0.99c0.021-0.142,2.029-14.248-1.096-19.66
					c-2.862-4.958-7.661-10.873-15.101-18.615l-0.693-0.722l1.442-1.386l0.692,0.721c7.556,7.862,12.446,13.9,15.392,19.002
					c3.471,6.012,1.431,20.342,1.342,20.949L130.83,128.92z"/>
			</g>
		</g>
		<g id="Oval-6_2_">
			<path fill="#7A8491" d="M103.358,94.319c-7.896,0-14.319-6.424-14.319-14.319s6.423-14.319,14.319-14.319
				c3.35,0,6.607,1.181,9.175,3.325c3.27,2.73,5.145,6.738,5.145,10.994C117.678,87.896,111.254,94.319,103.358,94.319z
				 M103.358,67.681c-6.792,0-12.319,5.526-12.319,12.319s5.526,12.319,12.319,12.319c6.793,0,12.319-5.526,12.319-12.319
				c0-3.662-1.613-7.11-4.426-9.459C109.043,68.696,106.24,67.681,103.358,67.681z"/>
		</g>
	</g>
</g>
<g id="Layer_2" display="none">
</g>
</svg>
