<svg version="1.1" xmlns="http://www.w3.org/2000/svg" viewBox="0 0 798.079838426371 296.19005488687253" width="798.079838426371" height="296.19005488687253">
  <!-- svg-source:excalidraw -->
  
  <defs>
    <style>
      @font-face {
        font-family: "Virgil";
        src: url("https://excalidraw.com/Virgil.woff2");
      }
      @font-face {
        font-family: "Cascadia";
        src: url("https://excalidraw.com/Cascadia.woff2");
      }
    </style>
  </defs>
  <g stroke-linecap="round" transform="translate(10 10) rotate(0 389.0399192131855 138.09502744343627)"><path d="M0 0 C221.46 0, 442.92 0, 778.08 0 M0 0 C219.89 0, 439.78 0, 778.08 0 M778.08 0 C778.08 97.33, 778.08 194.67, 778.08 276.19 M778.08 0 C778.08 80.53, 778.08 161.06, 778.08 276.19 M778.08 276.19 C615.35 276.19, 452.62 276.19, 0 276.19 M778.08 276.19 C559.61 276.19, 341.14 276.19, 0 276.19 M0 276.19 C0 178.1, 0 80.01, 0 0 M0 276.19 C0 213, 0 149.81, 0 0" stroke="transparent" stroke-width="1" fill="none"></path></g><g stroke-linecap="round" transform="translate(219.00715959710556 210.72276555831417) rotate(89.99999999999994 20.397309911403795 20.397309911403795)"><path d="M10.2 0 M10.2 0 C16.92 0.48, 25.14 0.32, 30.6 0 M10.2 0 C19.16 -0.12, 25.79 0.22, 30.6 0 M30.6 0 C38.71 -1.2, 39.32 2.47, 40.79 10.2 M30.6 0 C35.65 0.01, 40.62 4.12, 40.79 10.2 M40.79 10.2 C40.4 16.85, 42.19 20.15, 40.79 30.6 M40.79 10.2 C41.02 15.69, 39.69 22.15, 40.79 30.6 M40.79 30.6 C41.36 37.99, 36.94 41.93, 30.6 40.79 M40.79 30.6 C39.31 38.3, 38.74 42.67, 30.6 40.79 M30.6 40.79 C24.61 42.26, 16.73 42.15, 10.2 40.79 M30.6 40.79 C26.47 40.98, 22.46 41.31, 10.2 40.79 M10.2 40.79 C4.37 39.9, 0.16 38.16, 0 30.6 M10.2 40.79 C4.68 38.9, -1.83 39.66, 0 30.6 M0 30.6 C0.04 25.73, -1.78 23.22, 0 10.2 M0 30.6 C0.67 24.24, 0.71 19.42, 0 10.2 M0 10.2 C0.88 5.14, 4.83 -1.84, 10.2 0 M0 10.2 C-1.74 4.18, 4.64 0.46, 10.2 0" stroke="#000" stroke-width="2" fill="none"></path></g><g stroke-linecap="round" transform="translate(397.92074994888253 208.61269901575326) rotate(89.99999999999994 20.397309911403795 20.397309911403795)"><path d="M10.2 0 M10.2 0 C15.66 1.76, 23.49 0.77, 30.6 0 M10.2 0 C16.98 1.05, 21.48 0.34, 30.6 0 M30.6 0 C37.67 -0.89, 40.96 5.23, 40.79 10.2 M30.6 0 C37.37 2.24, 42.01 2.02, 40.79 10.2 M40.79 10.2 C41.23 14.65, 40.28 21.42, 40.79 30.6 M40.79 10.2 C40.41 17.21, 40.04 25.78, 40.79 30.6 M40.79 30.6 C41.44 37.44, 38.34 39.15, 30.6 40.79 M40.79 30.6 C38.68 39.65, 37.5 39.92, 30.6 40.79 M30.6 40.79 C25.35 40.85, 18.8 40.74, 10.2 40.79 M30.6 40.79 C25.93 41.01, 21.7 39.66, 10.2 40.79 M10.2 40.79 C4.52 40.18, 1.47 37.35, 0 30.6 M10.2 40.79 C5.54 38.58, -0.49 37.57, 0 30.6 M0 30.6 C0.08 23.59, 0.38 16.97, 0 10.2 M0 30.6 C0.04 24.17, -0.66 20.17, 0 10.2 M0 10.2 C-0.86 1.88, 3.26 -1.23, 10.2 0 M0 10.2 C-1.23 3.63, 1.2 0.25, 10.2 0" stroke="#000" stroke-width="2" fill="none"></path></g><g stroke-linecap="round" transform="translate(607.962758942153 210.01941004412282) rotate(89.99999999999994 20.397309911403795 20.397309911403795)"><path d="M10.2 0 M10.2 0 C14.96 0.11, 20.05 0.8, 30.6 0 M10.2 0 C14.84 -0.25, 22.28 0.49, 30.6 0 M30.6 0 C38.41 0.97, 42.32 1.62, 40.79 10.2 M30.6 0 C35.26 -0.36, 38.73 1.91, 40.79 10.2 M40.79 10.2 C39.98 18.25, 39.63 25.11, 40.79 30.6 M40.79 10.2 C41.24 14.79, 40.03 19.89, 40.79 30.6 M40.79 30.6 C41.29 35.89, 38.88 41.07, 30.6 40.79 M40.79 30.6 C42.6 37.59, 35.74 41.43, 30.6 40.79 M30.6 40.79 C25.6 41.73, 22.87 41.43, 10.2 40.79 M30.6 40.79 C24.43 40.6, 16.51 40.64, 10.2 40.79 M10.2 40.79 C2.19 39.54, 1.88 39.12, 0 30.6 M10.2 40.79 C4.79 42.03, 0.05 38.76, 0 30.6 M0 30.6 C-0.16 26.81, 0.61 20.33, 0 10.2 M0 30.6 C0.51 23.99, 0.03 16.53, 0 10.2 M0 10.2 C-0.69 4.46, 2.23 0.7, 10.2 0 M0 10.2 C-1.27 1.44, 2.52 1.48, 10.2 0" stroke="#000" stroke-width="2" fill="none"></path></g><g stroke-linecap="round"><g transform="translate(326.122067497977 295.68243235190994) rotate(89.99999999999994 -0.04083078949327046 -65.27945728857068)"><path d="M-0.9 0.89 C-1 -20.8, 0.14 -107.74, 0.34 -129.82 M0.83 0.31 C0.5 -21.72, -0.31 -109.6, -0.52 -131.45" stroke="#000" stroke-width="2" fill="none"></path></g><g transform="translate(326.122067497977 295.68243235190994) rotate(89.99999999999994 -0.04083078949327046 -65.27945728857068)"><path d="M-1.96 -131.26 L4.19 -116.43 L-5.03 -116.41 L-0.19 -129.9" stroke="none" stroke-width="0" fill="#000" fill-rule="evenodd"></path><path d="M0.59 -131.24 C3.13 -126.16, 3.31 -120.76, 4.93 -116.5 M0.13 -131.19 C1.47 -127.65, 2.74 -123.62, 5.84 -118.26 M7.14 -116.82 C3.02 -117.28, -1.41 -117.18, -7.33 -118.08 M6.12 -117.9 C2.77 -117.9, -0.85 -117.46, -6.61 -117.8 M-7.61 -117.27 C-5.95 -122.55, -4.14 -123.74, 0.97 -130.56 M-6.6 -117.31 C-5.13 -120.95, -3.76 -123.71, -1.05 -131.25 M-0.52 -131.45 C-0.52 -131.45, -0.52 -131.45, -0.52 -131.45 M-0.52 -131.45 C-0.52 -131.45, -0.52 -131.45, -0.52 -131.45" stroke="#000" stroke-width="2" fill="none"></path></g></g><g stroke-linecap="round"><g transform="translate(521.2877815123838 308.58904766126614) rotate(89.99999999999994 1.2870894775662691 -78.93601261895554)"><path d="M0.57 0.23 C1.13 -26.12, 2.8 -131.91, 3.16 -158.1 M-0.59 -0.7 C-0.17 -26.89, 1.82 -130.5, 2.21 -156.87" stroke="#000" stroke-width="2" fill="none"></path></g><g transform="translate(521.2877815123838 308.58904766126614) rotate(89.99999999999994 1.2870894775662691 -78.93601261895554)"><path d="M1.41 -157.15 L10.3 -141.84 L-4.71 -144.81 L0.82 -158.11" stroke="none" stroke-width="0" fill="#000" fill-rule="evenodd"></path><path d="M2.5 -156.88 C3.21 -153.53, 6.46 -149.99, 8.84 -143.99 M2.96 -156.42 C2.99 -154.47, 5.29 -150.89, 8.8 -143.12 M7.42 -142.82 C5.19 -142.91, 0.59 -144.23, -4.41 -142.5 M7.88 -143.53 C3.81 -143.19, -0.82 -143.4, -3.8 -143.54 M-4.86 -142.46 C-4.06 -146.08, -2.89 -147.99, 3.49 -155.83 M-4.33 -143.68 C-2.96 -147.72, -0.09 -151.15, 2.11 -156.57 M2.21 -156.87 C2.21 -156.87, 2.21 -156.87, 2.21 -156.87 M2.21 -156.87 C2.21 -156.87, 2.21 -156.87, 2.21 -156.87" stroke="#000" stroke-width="2" fill="none"></path></g></g><g stroke-linecap="round" transform="translate(334.1497866830207 114.84207965387098) rotate(89.99999999999994 20.397309911403795 20.397309911403802)"><path d="M8.37 0.44 L28.73 -1.41 L36.7 4.37 L39.03 9.91 L40.74 31.56 L38.74 36.58 L28.77 42.52 L9.89 39.87 L1.71 39.7 L1.1 30.61 L0.07 4.74 L3.04 3.31 L8.2 -1.28" stroke="none" stroke-width="0" fill="#086dd7"></path><path d="M10.2 0 M10.2 0 C14.92 0.76, 22.3 -1.37, 30.6 0 M10.2 0 C17.59 0.43, 26.1 -0.85, 30.6 0 M30.6 0 C36.74 -1.13, 39.03 4.09, 40.79 10.2 M30.6 0 C35.44 -0.89, 41.66 3.32, 40.79 10.2 M40.79 10.2 C38.91 14.07, 38.86 19.54, 40.79 30.6 M40.79 10.2 C41.09 15.19, 41.61 19.76, 40.79 30.6 M40.79 30.6 C41.84 35.98, 36.66 42.06, 30.6 40.79 M40.79 30.6 C38.82 37.32, 39.42 42.04, 30.6 40.79 M30.6 40.79 C22.95 40.8, 16.54 40.01, 10.2 40.79 M30.6 40.79 C25.43 41.5, 21.46 40.66, 10.2 40.79 M10.2 40.79 C2.74 41.09, 1.39 37.03, 0 30.6 M10.2 40.79 C1.1 39.17, -1.94 39.32, 0 30.6 M0 30.6 C1 23.56, -0.39 16.22, 0 10.2 M0 30.6 C0.36 23.45, -0.47 16.4, 0 10.2 M0 10.2 C1.26 5.12, 3.76 0.3, 10.2 0 M0 10.2 C-1.22 5.08, 1.8 0.87, 10.2 0" stroke="#086dd7" stroke-width="2" fill="none"></path></g><g stroke-linecap="round" transform="translate(481.2381857307812 116.24879068224193) rotate(89.99999999999994 20.397309911403795 20.397309911403788)"><path d="M8.33 -1.41 L29.05 1.82 L36.48 2.26 L40.74 11.16 L41.29 28.93 L36.42 39.97 L30.29 39.87 L9.36 42.24 L3.65 38.26 L-0.57 29.6 L1.12 6.5 L0.56 1.27 L10.33 -1.58" stroke="none" stroke-width="0" fill="#086dd7"></path><path d="M10.2 0 M10.2 0 C16.33 -1.41, 24.87 1.7, 30.6 0 M10.2 0 C17.12 -0.91, 22.87 -0.66, 30.6 0 M30.6 0 C35.63 0.69, 39.1 2.62, 40.79 10.2 M30.6 0 C38.26 -0.08, 38.73 2.67, 40.79 10.2 M40.79 10.2 C38.74 18.79, 39.67 27.31, 40.79 30.6 M40.79 10.2 C41.5 15.45, 41.35 21.51, 40.79 30.6 M40.79 30.6 C40.06 38.66, 35.68 40.73, 30.6 40.79 M40.79 30.6 C42.82 38.64, 39.45 42.3, 30.6 40.79 M30.6 40.79 C24.42 39.81, 13.36 39.95, 10.2 40.79 M30.6 40.79 C27.01 41.04, 21.99 41.12, 10.2 40.79 M10.2 40.79 C4.79 40.43, -2 35.98, 0 30.6 M10.2 40.79 C1.46 42.72, 1 35.7, 0 30.6 M0 30.6 C-0.62 23.47, 1.18 18.88, 0 10.2 M0 30.6 C-0.39 26.88, 0.52 22.78, 0 10.2 M0 10.2 C0.36 3.7, 2.34 1.46, 10.2 0 M0 10.2 C-1.6 4.27, 2.69 2.12, 10.2 0" stroke="#086dd7" stroke-width="2" fill="none"></path></g><g stroke-linecap="round"><g transform="translate(428.06598535229045 179.5472708266276) rotate(89.99999999999994 0.676246503931452 -42.48384679449788)"><path d="M-0.34 0.75 C-0.31 -13.32, 0.73 -69.85, 0.83 -84.14 M1.69 0.1 C1.57 -14.32, 0.62 -71.77, 0.28 -85.72" stroke="#086dd7" stroke-width="2" fill="none"></path></g><g transform="translate(428.06598535229045 179.5472708266276) rotate(89.99999999999994 0.676246503931452 -42.48384679449788)"><path d="M-0.2 -86.43 L5.56 -71.05 L-4.98 -72.1 L-0.12 -85.81" stroke="none" stroke-width="0" fill="#086dd7" fill-rule="evenodd"></path><path d="M1.22 -84.77 C3.95 -80.66, 5.23 -76.95, 7.98 -73.3 M-0.21 -85.17 C1.86 -81.8, 4.58 -77.13, 6.21 -72.08 M5.87 -71.76 C3.83 -71.05, 0.78 -72.49, -5.5 -72.8 M6.43 -72.13 C2.54 -72.11, -0.71 -72.58, -5.8 -71.93 M-4.53 -72.22 C-4.06 -77.72, -1.38 -81.06, 0.3 -85.92 M-5.16 -72.22 C-4.16 -74.71, -3.56 -78.51, -0.19 -85.81 M0.28 -85.72 C0.28 -85.72, 0.28 -85.72, 0.28 -85.72 M0.28 -85.72 C0.28 -85.72, 0.28 -85.72, 0.28 -85.72" stroke="#086dd7" stroke-width="2" fill="none"></path></g></g><g stroke-linecap="round"><g transform="translate(315.8357723005147 209.10325064955904) rotate(89.99999999999994 -30.519854054327766 -38.17231891133507)"><path d="M0.4 0.3 C-7.17 -4.31, -34.13 -14.21, -44.4 -27.04 C-54.66 -39.86, -58.22 -68.53, -61.18 -76.65 M-0.84 -0.59 C-8.66 -5.06, -35.22 -13.02, -45.32 -25.57 C-55.42 -38.12, -58.68 -67.7, -61.44 -75.88" stroke="#086dd7" stroke-width="2" fill="none"></path></g><g transform="translate(315.8357723005147 209.10325064955904) rotate(89.99999999999994 -30.519854054327766 -38.17231891133507)"><path d="M-61.18 -75.49 L-52.51 -63.89 L-65.54 -62.46 L-63.43 -76.45" stroke="none" stroke-width="0" fill="#086dd7" fill-rule="evenodd"></path><path d="M-61.07 -75.82 C-58 -70.16, -55.59 -66.82, -52.38 -64.04 M-61.05 -76.6 C-59.08 -72.83, -56.45 -68.6, -52.33 -64.52 M-52.39 -63.29 C-54.43 -64.12, -59.2 -61.64, -63.64 -61.45 M-52.24 -64.68 C-56.58 -62.59, -61.71 -61.9, -64.41 -61.05 M-65.33 -60.01 C-62.99 -65.92, -62.02 -70.29, -62.19 -75.12 M-64.44 -61.54 C-63.99 -65.74, -62.49 -70.69, -61.6 -76.28 M-61.44 -75.88 C-61.44 -75.88, -61.44 -75.88, -61.44 -75.88 M-61.44 -75.88 C-61.44 -75.88, -61.44 -75.88, -61.44 -75.88" stroke="#086dd7" stroke-width="2" fill="none"></path></g></g><g stroke-linecap="round"><g transform="translate(542.2860570485566 209.1747513265642) rotate(89.99999999999994 28.939842327796327 -40.60446250346713)"><path d="M-0.49 -0.57 C1.44 -8.73, 2.75 -35.47, 12.56 -48.81 C22.37 -62.16, 50.99 -75.35, 58.37 -80.64" stroke="#086dd7" stroke-width="2.5" fill="none" stroke-dasharray="1.5 8"></path></g><g transform="translate(542.2860570485566 209.1747513265642) rotate(89.99999999999994 28.939842327796327 -40.60446250346713)"><path d="M58.93 -82.11 L51.57 -66.69 L42.66 -81.15 L60.36 -81.85" stroke="none" stroke-width="0" fill="#086dd7" fill-rule="evenodd"></path><path d="M57.66 -80.59 C55.23 -75.14, 51.35 -72.36, 49.45 -69.05 M50.86 -68.98 C48.14 -70.45, 46.39 -73.76, 44.41 -79.01 M42.71 -80.1 C46.73 -80.08, 54.14 -78.68, 58.79 -79.64 M58.37 -80.64 C58.37 -80.64, 58.37 -80.64, 58.37 -80.64" stroke="#086dd7" stroke-width="2.5" fill="none"></path></g></g><g stroke-linecap="round"><g transform="translate(176.8752506176072 262.1237724138118) rotate(89.99999999999994 -0.3229546857951391 -32.890234385002714)"><path d="M0.12 -0.85 C0.23 -11.96, 0.61 -56.38, 0.63 -67.09 M-1.28 1.31 C-1.27 -9.63, -0.13 -54.65, 0.02 -66.02" stroke="#000" stroke-width="2" fill="none"></path></g><g transform="translate(176.8752506176072 262.1237724138118) rotate(89.99999999999994 -0.3229546857951391 -32.890234385002714)"><path d="M1.43 -66.05 L7.1 -51.89 L-6.29 -53.7 L-0.71 -64.13" stroke="none" stroke-width="0" fill="#000" fill-rule="evenodd"></path><path d="M-1.05 -65.23 C0.67 -61.62, 4.94 -59.15, 5 -51.09 M-0.49 -65.77 C1.92 -60.5, 4.47 -56.7, 5.72 -51.97 M4.93 -52.53 C1.66 -52.39, -0.41 -53.37, -5.87 -53.58 M5.82 -52.65 C3.51 -52.61, -0.5 -51.81, -6.81 -53.17 M-5.69 -51.85 C-3.9 -55.81, -3.84 -60.13, -1.43 -66.91 M-6.94 -53 C-5.01 -56.79, -3.51 -60.6, 0.42 -65.4 M0.02 -66.02 C0.02 -66.02, 0.02 -66.02, 0.02 -66.02 M0.02 -66.02 C0.02 -66.02, 0.02 -66.02, 0.02 -66.02" stroke="#000" stroke-width="2" fill="none"></path></g></g><g transform="translate(488.1735536532508 49.89189674384818) rotate(0 54 10.5)"><text x="108" y="16" font-family="Helvetica, Segoe UI Emoji" font-size="20px" fill="#086dd7" text-anchor="end" style="white-space: pre;" direction="ltr">You're here!</text></g><g stroke-linecap="round"><g transform="translate(510.74560102509554 108.97084734169488) rotate(0 16.44375985328793 -16.28299008161973)"><path d="M-0.32 0.33 C5.08 -4.82, 27.62 -25.72, 33.21 -31.26 M1.72 -0.54 C6.98 -5.99, 27.58 -27.66, 32.79 -32.9" stroke="#086dd7" stroke-width="2" fill="none"></path></g></g><g stroke-linecap="round"><g transform="translate(136.04810098232247 228.61654290808158) rotate(0 -24.237411536774403 -0.1721713820955415)"><path d="M-0.09 0.19 C-8.2 -0.04, -40.39 -0.19, -48.39 -0.53" stroke="#000" stroke-width="2.5" fill="none" stroke-dasharray="1.5 8"></path></g></g></svg>