<?xml version="1.0" encoding="UTF-8" standalone="no"?>
<svg
   version="1.1"
   viewBox="0 0 871.1405 281.35538"
   fill="none"
   stroke="none"
   stroke-linecap="square"
   stroke-miterlimit="10"
   id="svg219"
   sodipodi:docname="docker-hierarchy.svg"
   width="871.1405"
   height="281.35538"
   inkscape:version="1.2.2 (732a01da63, 2022-12-09)"
   xmlns:inkscape="http://www.inkscape.org/namespaces/inkscape"
   xmlns:sodipodi="http://sodipodi.sourceforge.net/DTD/sodipodi-0.dtd"
   xmlns="http://www.w3.org/2000/svg"
   xmlns:svg="http://www.w3.org/2000/svg">
  <defs
     id="defs223" />
  <sodipodi:namedview
     id="namedview221"
     pagecolor="#ffffff"
     bordercolor="#000000"
     borderopacity="0.25"
     inkscape:showpageshadow="2"
     inkscape:pageopacity="0.0"
     inkscape:pagecheckerboard="0"
     inkscape:deskcolor="#d1d1d1"
     showgrid="false"
     inkscape:zoom="1.2604167"
     inkscape:cx="411.3719"
     inkscape:cy="209.45455"
     inkscape:window-width="1920"
     inkscape:window-height="1057"
     inkscape:window-x="-8"
     inkscape:window-y="-8"
     inkscape:window-maximized="1"
     inkscape:current-layer="svg219" />
  <clipPath
     id="g2215e0524c3_0_0.0">
    <path
       d="M 0,0 H 960 V 540 H 0 Z"
       clip-rule="nonzero"
       id="path2" />
  </clipPath>
  <g
     clip-path="url(#g2215e0524c3_0_0.0)"
     id="g217"
     transform="translate(-69.024793)">
    <path
       fill="#000000"
       fill-opacity="0"
       d="M 0,0 H 960 V 540 H 0 Z"
       fill-rule="evenodd"
       id="path5" />
    <path
       fill="#ffffff"
       d="m 421.53543,17.968575 v 0 c 0,-1.96855 1.59583,-3.564375 3.56439,-3.564375 h 125.09171 c 0.94531,0 1.85193,0.375531 2.52038,1.043982 0.66846,0.668449 1.04401,1.575063 1.04401,2.520393 v 14.257076 c 0,1.968552 -1.59583,3.564377 -3.56439,3.564377 H 425.09982 c -1.96856,0 -3.56439,-1.595825 -3.56439,-3.564377 z"
       fill-rule="evenodd"
       id="path7" />
    <path
       stroke="#086dd7"
       stroke-width="1"
       stroke-linejoin="round"
       stroke-linecap="butt"
       d="m 421.53543,17.968575 v 0 c 0,-1.96855 1.59583,-3.564375 3.56439,-3.564375 h 125.09171 c 0.94531,0 1.85193,0.375531 2.52038,1.043982 0.66846,0.668449 1.04401,1.575063 1.04401,2.520393 v 14.257076 c 0,1.968552 -1.59583,3.564377 -3.56439,3.564377 H 425.09982 c -1.96856,0 -3.56439,-1.595825 -3.56439,-3.564377 z"
       fill-rule="evenodd"
       id="path9" />
    <path
       fill="#000000"
       d="m 451.52457,28.074612 q -0.25,2.734375 -2.01563,4.265625 -1.75,1.53125 -4.67187,1.53125 -2.03125,0 -3.59375,-0.96875 -1.54688,-0.96875 -2.39063,-2.75 -0.84375,-1.78125 -0.875,-4.140625 v -1.59375 q 0,-2.40625 0.84375,-4.25 0.85938,-1.84375 2.45313,-2.828125 1.60937,-1 3.70312,-1 2.82813,0 4.54688,1.53125 1.71875,1.53125 2,4.34375 h -2.95313 q -0.20312,-1.84375 -1.0625,-2.65625 -0.85937,-0.8125 -2.53125,-0.8125 -1.9375,0 -2.96875,1.40625 -1.03125,1.40625 -1.0625,4.140625 v 1.515625 q 0,2.765625 0.98438,4.21875 1,1.453125 2.90625,1.453125 1.75,0 2.625,-0.78125 0.875,-0.796875 1.10937,-2.625 z m 1.83984,-0.890625 q 0,-1.875 0.73438,-3.359375 0.75,-1.5 2.07812,-2.296875 1.34375,-0.8125 3.07813,-0.8125 2.5625,0 4.15625,1.65625 1.60937,1.65625 1.73437,4.390625 l 0.0156,0.65625 q 0,1.875 -0.71875,3.359375 -0.71875,1.46875 -2.0625,2.28125 -1.34375,0.8125 -3.10938,0.8125 -2.67187,0 -4.29687,-1.78125 -1.60938,-1.796875 -1.60938,-4.765625 z m 2.85938,0.234375 q 0,1.96875 0.79687,3.078125 0.8125,1.09375 2.25,1.09375 1.45313,0 2.25,-1.125 0.79688,-1.125 0.79688,-3.28125 0,-1.921875 -0.82813,-3.046875 -0.8125,-1.125 -2.23437,-1.125 -1.39063,0 -2.21875,1.109375 -0.8125,1.09375 -0.8125,3.296875 z m 14.02344,-6.46875 0.0781,1.328125 q 1.34375,-1.5625 3.65625,-1.5625 2.54688,0 3.48438,1.953125 1.375,-1.953125 3.89062,-1.953125 2.09375,0 3.10938,1.171875 1.03125,1.15625 1.0625,3.421875 v 8.328125 h -2.84375 v -8.25 q 0,-1.203125 -0.53125,-1.765625 -0.53125,-0.5625 -1.75,-0.5625 -0.96875,0 -1.59375,0.515625 -0.60938,0.515625 -0.85938,1.359375 l 0.0156,8.703125 h -2.84375 v -8.34375 q -0.0625,-2.234375 -2.28125,-2.234375 -1.71875,0 -2.4375,1.390625 v 9.1875 h -2.84375 v -12.6875 z m 29.30468,6.46875 q 0,2.953125 -1.34375,4.703125 -1.32812,1.75 -3.57812,1.75 -2.07813,0 -3.34375,-1.375 v 6.015625 h -2.84375 v -17.5625 h 2.625 l 0.125,1.296875 q 1.25,-1.53125 3.40625,-1.53125 2.3125,0 3.625,1.734375 1.32812,1.734375 1.32812,4.796875 z m -2.82812,-0.234375 q 0,-1.90625 -0.76563,-3.015625 -0.75,-1.109375 -2.15625,-1.109375 -1.75,0 -2.51562,1.4375 v 5.625 q 0.78125,1.46875 2.53125,1.46875 1.35937,0 2.125,-1.09375 0.78125,-1.09375 0.78125,-3.3125 z m 12.80859,6.453125 q -0.1875,-0.359375 -0.32812,-1.1875 -1.35938,1.421875 -3.32813,1.421875 -1.90625,0 -3.10937,-1.09375 -1.20313,-1.09375 -1.20313,-2.6875 0,-2.03125 1.5,-3.109375 1.5,-1.09375 4.3125,-1.09375 h 1.73438 v -0.828125 q 0,-0.984375 -0.54688,-1.578125 -0.54687,-0.59375 -1.67187,-0.59375 -0.96875,0 -1.59375,0.484375 -0.625,0.484375 -0.625,1.234375 h -2.84375 q 0,-1.03125 0.6875,-1.9375 0.6875,-0.921875 1.875,-1.4375 1.20312,-0.515625 2.65625,-0.515625 2.23437,0 3.54687,1.125 1.32813,1.125 1.375,3.140625 v 5.71875 q 0,1.71875 0.46878,2.734375 v 0.203125 z m -3.125,-2.046875 q 0.84375,0 1.57813,-0.40625 0.75,-0.421875 1.125,-1.109375 v -2.390625 h -1.53125 q -1.57813,0 -2.375,0.546875 -0.79688,0.546875 -0.79688,1.5625 0,0.8125 0.54688,1.3125 0.54687,0.484375 1.45312,0.484375 z m 11.18753,-10.640625 0.0781,1.46875 q 1.40625,-1.703125 3.6875,-1.703125 3.96875,0 4.03125,4.546875 v 8.375 h -2.84375 v -8.21875 q 0,-1.203125 -0.53125,-1.78125 -0.51563,-0.578125 -1.70313,-0.578125 -1.71875,0 -2.5625,1.546875 v 9.03125 h -2.84375 v -12.6875 z m 15.12891,8.609375 2.57812,-8.609375 h 3.04688 l -5.04688,14.609375 q -1.15625,3.203125 -3.9375,3.203125 -0.625,0 -1.375,-0.21875 v -2.203125 l 0.54688,0.04687 q 1.07812,0 1.625,-0.40625 0.54687,-0.390625 0.85937,-1.3125 l 0.40625,-1.09375 -4.45312,-12.625 h 3.07812 z"
       fill-rule="nonzero"
       id="path11" />
    <path
       fill="#ffffff"
       d="M 253.6063,14.4042 H 376.97639 V 35.790028 H 253.6063 Z"
       fill-rule="evenodd"
       id="path13" />
    <path
       stroke="#086dd7"
       stroke-width="1"
       stroke-linejoin="round"
       stroke-linecap="butt"
       d="M 253.6063,14.4042 H 376.97639 V 35.790028 H 253.6063 Z"
       fill-rule="evenodd"
       id="path15" />
    <path
       fill="#000000"
       d="m 279.2562,26.913986 q -0.15625,1.34375 -1,2.09375 -0.84375,0.734375 -2.23438,0.734375 -1.51562,0 -2.42187,-1.078125 -0.90625,-1.09375 -0.90625,-2.921875 v -0.8125 q 0,-1.1875 0.42187,-2.09375 0.42188,-0.90625 1.20313,-1.390625 0.78125,-0.484375 1.79687,-0.484375 1.35938,0 2.17188,0.765625 0.82812,0.765625 0.96875,2.09375 h -1.125 q -0.15625,-1.015625 -0.64063,-1.46875 -0.48437,-0.453125 -1.375,-0.453125 -1.07812,0 -1.6875,0.796875 -0.60937,0.796875 -0.60937,2.265625 v 0.828125 q 0,1.390625 0.57812,2.21875 0.57813,0.8125 1.625,0.8125 0.9375,0 1.4375,-0.421875 0.5,-0.4375 0.67188,-1.484375 z m 1.07617,-0.53125 q 0,-0.921875 0.35938,-1.671875 0.375,-0.75 1.03125,-1.140625 0.65625,-0.40625 1.48437,-0.40625 1.29688,0 2.09375,0.890625 0.8125,0.890625 0.8125,2.390625 v 0.07813 q 0,0.921875 -0.35937,1.65625 -0.35938,0.734375 -1.01563,1.15625 -0.65625,0.40625 -1.51562,0.40625 -1.28125,0 -2.09375,-0.890625 -0.79688,-0.90625 -0.79688,-2.390625 z m 1.09375,0.140625 q 0,1.046875 0.48438,1.6875 0.5,0.640625 1.3125,0.640625 0.82812,0 1.3125,-0.640625 0.48437,-0.65625 0.48437,-1.828125 0,-1.03125 -0.5,-1.671875 -0.48437,-0.65625 -1.3125,-0.65625 -0.79687,0 -1.29687,0.640625 -0.48438,0.625 -0.48438,1.828125 z m 7.0625,-3.25 0.0312,0.703125 q 0.6875,-0.8125 1.875,-0.8125 1.32813,0 1.8125,1.015625 0.3125,-0.453125 0.8125,-0.734375 0.51563,-0.28125 1.20313,-0.28125 2.09375,0 2.125,2.203125 v 4.25 h -1.07813 v -4.1875 q 0,-0.671875 -0.3125,-1 -0.3125,-0.34375 -1.04687,-0.34375 -0.60938,0 -1.01563,0.359375 -0.39062,0.359375 -0.45312,0.96875 v 4.203125 h -1.07813 v -4.15625 q 0,-1.375 -1.35937,-1.375 -1.0625,0 -1.45313,0.90625 v 4.625 h -1.09375 v -6.34375 z m 14.8457,3.25 q 0,1.4375 -0.65625,2.328125 -0.65625,0.890625 -1.79687,0.890625 -1.15625,0 -1.8125,-0.734375 v 3.046875 h -1.07813 v -8.78125 h 0.98438 l 0.0469,0.703125 q 0.67188,-0.8125 1.84375,-0.8125 1.14063,0 1.79688,0.859375 0.67187,0.859375 0.67187,2.390625 z m -1.07812,-0.125 q 0,-1.078125 -0.46875,-1.6875 -0.45313,-0.625 -1.25,-0.625 -0.98438,0 -1.46875,0.859375 v 3.03125 q 0.48437,0.875 1.48437,0.875 0.78125,0 1.23438,-0.609375 0.46875,-0.625 0.46875,-1.84375 z m 6.37305,3.21875 q -0.0937,-0.1875 -0.15625,-0.671875 -0.75,0.796875 -1.79688,0.796875 -0.9375,0 -1.54687,-0.53125 -0.59375,-0.53125 -0.59375,-1.359375 0,-0.984375 0.75,-1.53125 0.75,-0.546875 2.125,-0.546875 h 1.04687 v -0.5 q 0,-0.5625 -0.34375,-0.890625 -0.32812,-0.34375 -1,-0.34375 -0.57812,0 -0.96875,0.296875 -0.39062,0.28125 -0.39062,0.703125 h -1.09375 q 0,-0.484375 0.32812,-0.921875 0.34375,-0.4375 0.92188,-0.6875 0.57812,-0.265625 1.26562,-0.265625 1.10938,0 1.71875,0.546875 0.625,0.546875 0.65625,1.5 v 2.921875 q 0,0.875 0.21875,1.390625 v 0.09375 z m -1.79688,-0.828125 q 0.51563,0 0.96875,-0.265625 0.45313,-0.265625 0.65625,-0.6875 v -1.296875 h -0.84375 q -2,0 -2,1.171875 0,0.5 0.34375,0.796875 0.34375,0.28125 0.875,0.28125 z m 5.4336,-5.515625 0.0312,0.796875 q 0.73437,-0.90625 1.90625,-0.90625 2.01562,0 2.03125,2.265625 v 4.1875 h -1.09375 v -4.203125 q 0,-0.671875 -0.3125,-1 -0.29688,-0.328125 -0.95313,-0.328125 -0.53125,0 -0.9375,0.28125 -0.39062,0.28125 -0.60937,0.734375 v 4.515625 h -1.07813 v -6.34375 z m 7.66796,4.75 1.48438,-4.75 h 1.15625 l -2.54688,7.328127 q -0.59375,1.578123 -1.875,1.578123 l -0.21875,-0.01563 -0.39062,-0.07813 v -0.874998 l 0.28125,0.01563 q 0.5625,0 0.85937,-0.21875 0.3125,-0.21875 0.51563,-0.812502 l 0.23437,-0.65625 -2.26562,-6.265625 h 1.1875 z m 6.28907,-1.640625 q 0,-0.921875 0.35937,-1.671875 0.375,-0.75 1.03125,-1.140625 0.65625,-0.40625 1.48438,-0.40625 1.29687,0 2.09375,0.890625 0.8125,0.890625 0.8125,2.390625 v 0.07813 q 0,0.921875 -0.35938,1.65625 -0.35937,0.734375 -1.01562,1.15625 -0.65625,0.40625 -1.51563,0.40625 -1.28125,0 -2.09375,-0.890625 -0.79687,-0.90625 -0.79687,-2.390625 z m 1.09375,0.140625 q 0,1.046875 0.48437,1.6875 0.5,0.640625 1.3125,0.640625 0.82813,0 1.3125,-0.640625 0.48438,-0.65625 0.48438,-1.828125 0,-1.03125 -0.5,-1.671875 -0.48438,-0.65625 -1.3125,-0.65625 -0.79688,0 -1.29688,0.640625 -0.48437,0.625 -0.48437,1.828125 z m 11.65625,1.59375 1.21875,-4.84375 h 1.07812 l -1.84375,6.34375 h -0.875 l -1.54687,-4.8125 -1.5,4.8125 h -0.875 l -1.84375,-6.34375 h 1.07812 l 1.25,4.75 1.48438,-4.75 h 0.85937 z m 4.42382,-4.84375 0.0312,0.796875 q 0.73438,-0.90625 1.90625,-0.90625 2.01563,0 2.03125,2.265625 v 4.1875 h -1.09375 v -4.203125 q 0,-0.671875 -0.3125,-1 -0.29687,-0.328125 -0.95312,-0.328125 -0.53125,0 -0.9375,0.28125 -0.39063,0.28125 -0.60938,0.734375 v 4.515625 h -1.07812 v -6.34375 z m 8.23047,6.46875 q -1.29687,0 -2.10937,-0.84375 -0.79688,-0.859375 -0.79688,-2.28125 v -0.1875 q 0,-0.953125 0.35938,-1.6875 0.35937,-0.75 1,-1.15625 0.65625,-0.421875 1.40625,-0.421875 1.23437,0 1.92187,0.8125 0.6875,0.8125 0.6875,2.328125 v 0.453125 h -4.29687 q 0.0312,0.9375 0.54687,1.515625 0.53125,0.578125 1.34375,0.578125 0.5625,0 0.95313,-0.234375 0.40625,-0.234375 0.71875,-0.625 l 0.65625,0.515625 q -0.79688,1.234375 -2.39063,1.234375 z m -0.14062,-5.6875 q -0.65625,0 -1.10938,0.484375 -0.4375,0.46875 -0.53125,1.328125 h 3.17188 v -0.07813 q -0.0469,-0.828125 -0.45313,-1.28125 -0.39062,-0.453125 -1.07812,-0.453125 z m 6.93555,0.1875 q -0.25,-0.03125 -0.53125,-0.03125 -1.07813,0 -1.45313,0.90625 v 4.5 h -1.07812 v -6.34375 h 1.04687 l 0.0156,0.734375 q 0.53125,-0.84375 1.51562,-0.84375 0.3125,0 0.48438,0.07813 z"
       fill-rule="nonzero"
       id="path17" />
    <path
       fill="#000000"
       fill-opacity="0"
       d="m 376.97638,25.097113 h 44.56693"
       fill-rule="evenodd"
       id="path19" />
    <path
       stroke="#8993a5"
       stroke-width="2"
       stroke-linejoin="round"
       stroke-linecap="butt"
       stroke-dasharray="2, 6"
       d="m 376.97638,25.097113 h 32.56693"
       fill-rule="evenodd"
       id="path21" />
    <path
       fill="#8993a5"
       stroke="#8993a5"
       stroke-width="2"
       stroke-linecap="butt"
       d="m 409.5433,28.400578 9.0762,-3.303465 -9.0762,-3.303465 z"
       fill-rule="evenodd"
       id="path23" />
    <path
       fill="#ffffff"
       d="m 257.84515,110.48301 v 0 c 0,-1.96855 1.59583,-3.56438 3.56436,-3.56438 h 159.86337 c 0.94534,0 1.85196,0.37554 2.52039,1.04399 0.66845,0.66845 1.044,1.57506 1.044,2.52039 v 14.25708 c 0,1.96854 -1.59582,3.56437 -3.56439,3.56437 H 261.40951 c -1.96853,0 -3.56436,-1.59583 -3.56436,-3.56437 z"
       fill-rule="evenodd"
       id="path25" />
    <path
       stroke="#086dd7"
       stroke-width="1"
       stroke-linejoin="round"
       stroke-linecap="butt"
       d="m 257.84515,110.48301 v 0 c 0,-1.96855 1.59583,-3.56438 3.56436,-3.56438 h 159.86337 c 0.94534,0 1.85196,0.37554 2.52039,1.04399 0.66845,0.66845 1.044,1.57506 1.044,2.52039 v 14.25708 c 0,1.96854 -1.59582,3.56437 -3.56439,3.56437 H 261.40951 c -1.96853,0 -3.56436,-1.59583 -3.56436,-3.56437 z"
       fill-rule="evenodd"
       id="path27" />
    <path
       fill="#000000"
       d="m 288.18692,118.0578 q 0,2.51563 -0.875,4.40625 -0.85938,1.89063 -2.48438,2.90625 -1.60937,1.01563 -3.70312,1.01563 -2.07813,0 -3.70313,-1.01563 -1.60937,-1.01562 -2.5,-2.89062 -0.89062,-1.875 -0.89062,-4.32813 v -0.95312 q 0,-2.5 0.875,-4.40625 0.89062,-1.90625 2.5,-2.92188 1.60937,-1.01562 3.6875,-1.01562 2.09375,0 3.70312,1 1.60938,1 2.48438,2.89062 0.89062,1.875 0.90625,4.375 z m -2.96875,-0.89062 q 0,-2.82813 -1.07813,-4.34375 -1.0625,-1.51563 -3.03125,-1.51563 -1.92187,0 -3.01562,1.51563 -1.07813,1.5 -1.10938,4.25 v 0.98437 q 0,2.8125 1.09375,4.35938 1.10938,1.53125 3.04688,1.53125 1.96875,0 3.03125,-1.5 1.0625,-1.5 1.0625,-4.39063 z m 12.27344,-1.09375 q -0.5625,-0.0937 -1.15625,-0.0937 -1.95313,0 -2.64063,1.5 v 8.67187 h -2.84375 v -12.6875 h 2.71875 l 0.0781,1.42188 q 1.03125,-1.65625 2.85937,-1.65625 0.60938,0 1,0.17187 z m 1.08984,3.64062 q 0,-2.95312 1.375,-4.71875 1.39063,-1.76562 3.6875,-1.76562 2.17188,0 3.42188,1.51562 l 0.125,-1.28125 h 2.5625 v 12.29688 q 0,2.49999 -1.5625,3.93749 -1.54688,1.45313 -4.17188,1.45313 -1.40625,0 -2.73437,-0.59375 -1.32813,-0.57813 -2.01563,-1.51563 l 1.34375,-1.70312 q 1.3125,1.5625 3.23438,1.5625 1.42187,0 2.23437,-0.78125 0.82813,-0.76563 0.82813,-2.25 v -0.85938 q -1.23438,1.375 -3.28125,1.375 -2.23438,0 -3.64063,-1.76562 -1.40625,-1.78125 -1.40625,-4.90625 z m 2.82813,0.25 q 0,1.90625 0.78125,3 0.78125,1.09375 2.15625,1.09375 1.73437,0 2.5625,-1.46875 v -5.57812 q -0.8125,-1.4375 -2.53125,-1.4375 -1.40625,0 -2.1875,1.10937 -0.78125,1.10938 -0.78125,3.28125 z m 18.83984,6.1875 q -0.1875,-0.35937 -0.32812,-1.1875 -1.35938,1.42188 -3.32813,1.42188 -1.90625,0 -3.10937,-1.09375 -1.20313,-1.09375 -1.20313,-2.6875 0,-2.03125 1.5,-3.10938 1.5,-1.09375 4.3125,-1.09375 h 1.73438 v -0.82812 q 0,-0.98438 -0.54688,-1.57813 -0.54687,-0.59375 -1.67187,-0.59375 -0.96875,0 -1.59375,0.48438 -0.625,0.48437 -0.625,1.23437 h -2.84375 q 0,-1.03125 0.6875,-1.9375 0.6875,-0.92187 1.875,-1.4375 1.20312,-0.51562 2.65625,-0.51562 2.23437,0 3.54687,1.125 1.32813,1.125 1.375,3.14062 v 5.71875 q 0,1.71875 0.46875,2.73438 v 0.20312 z m -3.125,-2.04687 q 0.84375,0 1.57813,-0.40625 0.75,-0.42188 1.125,-1.10938 v -2.39062 h -1.53125 q -1.57813,0 -2.375,0.54687 -0.79688,0.54688 -0.79688,1.5625 0,0.8125 0.54688,1.3125 0.54687,0.48438 1.45312,0.48438 z m 11.1875,-10.64063 0.0781,1.46875 q 1.40625,-1.70312 3.6875,-1.70312 3.96875,0 4.03125,4.54687 v 8.375 h -2.84375 v -8.21875 q 0,-1.20312 -0.53125,-1.78125 -0.51563,-0.57812 -1.70313,-0.57812 -1.71875,0 -2.5625,1.54687 v 9.03125 h -2.84375 v -12.6875 z m 13.72266,12.6875 h -2.84375 v -12.6875 h 2.84375 z m -3.01563,-15.96875 q 0,-0.65625 0.40625,-1.09375 0.42188,-0.4375 1.1875,-0.4375 0.78125,0 1.20313,0.4375 0.42187,0.4375 0.42187,1.09375 0,0.64063 -0.42187,1.07813 -0.42188,0.42187 -1.20313,0.42187 -0.76562,0 -1.1875,-0.42187 -0.40625,-0.4375 -0.40625,-1.07813 z m 9.16016,13.6875 h 6.75 v 2.28125 h -10.28125 v -1.85937 l 6.42187,-8.53125 h -6.3125 v -2.29688 h 9.92188 v 1.8125 z m 16.60156,2.28125 q -0.1875,-0.35937 -0.32813,-1.1875 -1.35937,1.42188 -3.32812,1.42188 -1.90625,0 -3.10938,-1.09375 -1.20312,-1.09375 -1.20312,-2.6875 0,-2.03125 1.5,-3.10938 1.5,-1.09375 4.3125,-1.09375 h 1.73437 v -0.82812 q 0,-0.98438 -0.54687,-1.57813 -0.54688,-0.59375 -1.67188,-0.59375 -0.96875,0 -1.59375,0.48438 -0.625,0.48437 -0.625,1.23437 h -2.84375 q 0,-1.03125 0.6875,-1.9375 0.6875,-0.92187 1.875,-1.4375 1.20313,-0.51562 2.65625,-0.51562 2.23438,0 3.54688,1.125 1.32812,1.125 1.375,3.14062 v 5.71875 q 0,1.71875 0.46875,2.73438 v 0.20312 z m -3.125,-2.04687 q 0.84375,0 1.57812,-0.40625 0.75,-0.42188 1.125,-1.10938 v -2.39062 h -1.53125 q -1.57812,0 -2.375,0.54687 -0.79687,0.54688 -0.79687,1.5625 0,0.8125 0.54687,1.3125 0.54688,0.48438 1.45313,0.48438 z m 12.10937,-13.71875 v 3.07812 h 2.23438 v 2.10938 h -2.23438 v 7.07812 q 0,0.73438 0.28125,1.0625 0.29688,0.3125 1.03125,0.3125 0.48438,0 1,-0.10937 v 2.20312 q -0.98437,0.26563 -1.875,0.26563 -3.28125,0 -3.28125,-3.625 v -7.1875 h -2.09375 v -2.10938 h 2.09375 v -3.07812 z m 7.4336,15.76562 h -2.84375 v -12.6875 h 2.84375 z m -3.01563,-15.96875 q 0,-0.65625 0.40625,-1.09375 0.42188,-0.4375 1.1875,-0.4375 0.78125,0 1.20313,0.4375 0.42187,0.4375 0.42187,1.09375 0,0.64063 -0.42187,1.07813 -0.42188,0.42187 -1.20313,0.42187 -0.76562,0 -1.1875,-0.42187 -0.40625,-0.4375 -0.40625,-1.07813 z m 5.58203,9.51563 q 0,-1.875 0.73438,-3.35938 0.75,-1.5 2.07812,-2.29687 1.34372,-0.8125 3.0781,-0.8125 2.5625,0 4.15625,1.65625 1.60937,1.65625 1.73437,4.39062 l 0.0156,0.65625 q 0,1.875 -0.71875,3.35938 -0.71875,1.46875 -2.0625,2.28125 -1.34375,0.8125 -3.10938,0.8125 -2.67187,0 -4.29684,-1.78125 -1.60938,-1.79688 -1.60938,-4.76563 z m 2.85938,0.23437 q 0,1.96875 0.79684,3.07813 0.8125,1.09375 2.25,1.09375 1.45313,0 2.25,-1.125 0.79688,-1.125 0.79688,-3.28125 0,-1.92188 -0.82813,-3.04688 -0.8125,-1.125 -2.23437,-1.125 -1.39063,0 -2.21875,1.10938 -0.81247,1.09375 -0.81247,3.29687 z m 13.99216,-6.46875 0.0781,1.46875 q 1.40625,-1.70312 3.6875,-1.70312 3.96875,0 4.03125,4.54687 v 8.375 h -2.84375 v -8.21875 q 0,-1.20312 -0.53125,-1.78125 -0.51562,-0.57812 -1.70312,-0.57812 -1.71875,0 -2.5625,1.54687 v 9.03125 h -2.84375 v -12.6875 z"
       fill-rule="nonzero"
       id="path29" />
    <path
       fill="#ffffff"
       d="m 583.0105,110.48301 v 0 c 0,-1.96855 1.59583,-3.56438 3.56439,-3.56438 h 159.86334 c 0.94538,0 1.85199,0.37554 2.52039,1.04399 0.66845,0.66845 1.044,1.57506 1.044,2.52039 v 14.25708 c 0,1.96854 -1.59582,3.56437 -3.56439,3.56437 H 586.57489 c -1.96856,0 -3.56439,-1.59583 -3.56439,-3.56437 z"
       fill-rule="evenodd"
       id="path31" />
    <path
       stroke="#086dd7"
       stroke-width="1"
       stroke-linejoin="round"
       stroke-linecap="butt"
       d="m 583.0105,110.48301 v 0 c 0,-1.96855 1.59583,-3.56438 3.56439,-3.56438 h 159.86334 c 0.94538,0 1.85199,0.37554 2.52039,1.04399 0.66845,0.66845 1.044,1.57506 1.044,2.52039 v 14.25708 c 0,1.96854 -1.59582,3.56437 -3.56439,3.56437 H 586.57489 c -1.96856,0 -3.56439,-1.59583 -3.56439,-3.56437 z"
       fill-rule="evenodd"
       id="path33" />
    <path
       fill="#000000"
       d="m 613.3523,118.0578 q 0,2.51563 -0.875,4.40625 -0.85937,1.89063 -2.48437,2.90625 -1.60938,1.01563 -3.70313,1.01563 -2.07812,0 -3.70312,-1.01563 -1.60938,-1.01562 -2.5,-2.89062 -0.89063,-1.875 -0.89063,-4.32813 v -0.95312 q 0,-2.5 0.875,-4.40625 0.89063,-1.90625 2.5,-2.92188 1.60938,-1.01562 3.6875,-1.01562 2.09375,0 3.70313,1 1.60937,1 2.48437,2.89062 0.89063,1.875 0.90625,4.375 z m -2.96875,-0.89062 q 0,-2.82813 -1.07812,-4.34375 -1.0625,-1.51563 -3.03125,-1.51563 -1.92188,0 -3.01563,1.51563 -1.07812,1.5 -1.10937,4.25 v 0.98437 q 0,2.8125 1.09375,4.35938 1.10937,1.53125 3.04687,1.53125 1.96875,0 3.03125,-1.5 1.0625,-1.5 1.0625,-4.39063 z m 12.27344,-1.09375 q -0.5625,-0.0937 -1.15625,-0.0937 -1.95313,0 -2.64063,1.5 v 8.67187 h -2.84375 v -12.6875 h 2.71875 l 0.0781,1.42188 q 1.03125,-1.65625 2.85937,-1.65625 0.60938,0 1,0.17187 z m 1.08984,3.64062 q 0,-2.95312 1.375,-4.71875 1.39063,-1.76562 3.6875,-1.76562 2.17188,0 3.42188,1.51562 l 0.125,-1.28125 h 2.5625 v 12.29688 q 0,2.49999 -1.5625,3.93749 -1.54688,1.45313 -4.17188,1.45313 -1.40625,0 -2.73437,-0.59375 -1.32813,-0.57813 -2.01563,-1.51563 l 1.34375,-1.70312 q 1.3125,1.5625 3.23438,1.5625 1.42187,0 2.23437,-0.78125 0.82813,-0.76563 0.82813,-2.25 v -0.85938 q -1.23438,1.375 -3.28125,1.375 -2.23438,0 -3.64063,-1.76562 -1.40625,-1.78125 -1.40625,-4.90625 z m 2.82813,0.25 q 0,1.90625 0.78125,3 0.78125,1.09375 2.15625,1.09375 1.73437,0 2.5625,-1.46875 v -5.57812 q -0.8125,-1.4375 -2.53125,-1.4375 -1.40625,0 -2.1875,1.10937 -0.78125,1.10938 -0.78125,3.28125 z m 18.83984,6.1875 q -0.1875,-0.35937 -0.32812,-1.1875 -1.35938,1.42188 -3.32813,1.42188 -1.90625,0 -3.10937,-1.09375 -1.20313,-1.09375 -1.20313,-2.6875 0,-2.03125 1.5,-3.10938 1.5,-1.09375 4.3125,-1.09375 h 1.73438 v -0.82812 q 0,-0.98438 -0.54688,-1.57813 -0.54687,-0.59375 -1.67187,-0.59375 -0.96875,0 -1.59375,0.48438 -0.625,0.48437 -0.625,1.23437 h -2.84375 q 0,-1.03125 0.6875,-1.9375 0.6875,-0.92187 1.875,-1.4375 1.20312,-0.51562 2.65625,-0.51562 2.23437,0 3.54687,1.125 1.32813,1.125 1.375,3.14062 v 5.71875 q 0,1.71875 0.46875,2.73438 v 0.20312 z m -3.125,-2.04687 q 0.84375,0 1.57813,-0.40625 0.75,-0.42188 1.125,-1.10938 v -2.39062 h -1.53125 q -1.57813,0 -2.375,0.54687 -0.79688,0.54688 -0.79688,1.5625 0,0.8125 0.54688,1.3125 0.54687,0.48438 1.45312,0.48438 z m 11.1875,-10.64063 0.0781,1.46875 q 1.40625,-1.70312 3.6875,-1.70312 3.96875,0 4.03125,4.54687 v 8.375 h -2.84375 v -8.21875 q 0,-1.20312 -0.53125,-1.78125 -0.51563,-0.57812 -1.70313,-0.57812 -1.71875,0 -2.5625,1.54687 v 9.03125 h -2.84375 v -12.6875 z m 13.72266,12.6875 h -2.84375 v -12.6875 h 2.84375 z m -3.01563,-15.96875 q 0,-0.65625 0.40625,-1.09375 0.42188,-0.4375 1.1875,-0.4375 0.78125,0 1.20313,0.4375 0.42187,0.4375 0.42187,1.09375 0,0.64063 -0.42187,1.07813 -0.42188,0.42187 -1.20313,0.42187 -0.76562,0 -1.1875,-0.42187 -0.40625,-0.4375 -0.40625,-1.07813 z m 9.16016,13.6875 h 6.75 v 2.28125 h -10.28125 v -1.85937 l 6.42187,-8.53125 h -6.3125 v -2.29688 h 9.92188 v 1.8125 z m 16.60156,2.28125 q -0.1875,-0.35937 -0.32813,-1.1875 -1.35937,1.42188 -3.32812,1.42188 -1.90625,0 -3.10938,-1.09375 -1.20312,-1.09375 -1.20312,-2.6875 0,-2.03125 1.5,-3.10938 1.5,-1.09375 4.3125,-1.09375 h 1.73437 v -0.82812 q 0,-0.98438 -0.54687,-1.57813 -0.54688,-0.59375 -1.67188,-0.59375 -0.96875,0 -1.59375,0.48438 -0.625,0.48437 -0.625,1.23437 h -2.84375 q 0,-1.03125 0.6875,-1.9375 0.6875,-0.92187 1.875,-1.4375 1.20313,-0.51562 2.65625,-0.51562 2.23438,0 3.54688,1.125 1.32812,1.125 1.375,3.14062 v 5.71875 q 0,1.71875 0.46875,2.73438 v 0.20312 z m -3.125,-2.04687 q 0.84375,0 1.57812,-0.40625 0.75,-0.42188 1.125,-1.10938 v -2.39062 h -1.53125 q -1.57812,0 -2.375,0.54687 -0.79687,0.54688 -0.79687,1.5625 0,0.8125 0.54687,1.3125 0.54688,0.48438 1.45313,0.48438 z m 12.10937,-13.71875 v 3.07812 h 2.23438 v 2.10938 h -2.23438 v 7.07812 q 0,0.73438 0.28125,1.0625 0.29688,0.3125 1.03125,0.3125 0.48438,0 1,-0.10937 v 2.20312 q -0.98437,0.26563 -1.875,0.26563 -3.28125,0 -3.28125,-3.625 v -7.1875 h -2.09375 v -2.10938 h 2.09375 v -3.07812 z m 7.4336,15.76562 h -2.84375 v -12.6875 h 2.84375 z m -3.01563,-15.96875 q 0,-0.65625 0.40625,-1.09375 0.42188,-0.4375 1.1875,-0.4375 0.78125,0 1.20313,0.4375 0.42187,0.4375 0.42187,1.09375 0,0.64063 -0.42187,1.07813 -0.42188,0.42187 -1.20313,0.42187 -0.76562,0 -1.1875,-0.42187 -0.40625,-0.4375 -0.40625,-1.07813 z m 5.58203,9.51563 q 0,-1.875 0.73438,-3.35938 0.75,-1.5 2.07812,-2.29687 1.34369,-0.8125 3.07807,-0.8125 2.5625,0 4.15625,1.65625 1.60937,1.65625 1.73437,4.39062 l 0.0156,0.65625 q 0,1.875 -0.71875,3.35938 -0.71875,1.46875 -2.0625,2.28125 -1.34375,0.8125 -3.10938,0.8125 -2.67187,0 -4.29681,-1.78125 -1.60938,-1.79688 -1.60938,-4.76563 z m 2.85938,0.23437 q 0,1.96875 0.79681,3.07813 0.8125,1.09375 2.25,1.09375 1.45313,0 2.25,-1.125 0.79688,-1.125 0.79688,-3.28125 0,-1.92188 -0.82813,-3.04688 -0.8125,-1.125 -2.23437,-1.125 -1.39063,0 -2.21875,1.10938 -0.81244,1.09375 -0.81244,3.29687 z m 13.99213,-6.46875 0.0781,1.46875 q 1.40625,-1.70312 3.6875,-1.70312 3.96875,0 4.03125,4.54687 v 8.375 h -2.84375 v -8.21875 q 0,-1.20312 -0.53125,-1.78125 -0.51562,-0.57812 -1.70312,-0.57812 -1.71875,0 -2.5625,1.54687 v 9.03125 h -2.84375 v -12.6875 z"
       fill-rule="nonzero"
       id="path35" />
    <path
       fill="#ffffff"
       d="M 89.908134,106.91863 H 213.27821 v 21.38583 H 89.908134 Z"
       fill-rule="evenodd"
       id="path37" />
    <path
       stroke="#086dd7"
       stroke-width="1"
       stroke-linejoin="round"
       stroke-linecap="butt"
       d="M 89.908134,106.91863 H 213.27821 v 21.38583 H 89.908134 Z"
       fill-rule="evenodd"
       id="path39" />
    <path
       fill="#000000"
       d="m 107.32267,118.14717 q 0,1.25 -0.42187,2.1875 -0.42188,0.92188 -1.20313,1.42188 -0.76562,0.5 -1.79687,0.5 -1,0 -1.78125,-0.5 -0.78125,-0.5 -1.21875,-1.40625 -0.42188,-0.92188 -0.4375,-2.14063 v -0.60937 q 0,-1.23438 0.42187,-2.17188 0.4375,-0.9375 1.21875,-1.4375 0.78125,-0.51562 1.79688,-0.51562 1.01562,0 1.79687,0.5 0.78125,0.5 1.20313,1.4375 0.42187,0.9375 0.42187,2.1875 z m -1.10937,-0.5625 q 0,-1.51562 -0.60938,-2.32812 -0.60937,-0.8125 -1.70312,-0.8125 -1.07813,0 -1.6875,0.8125 -0.60938,0.8125 -0.625,2.25 v 0.64062 q 0,1.46875 0.60937,2.3125 0.625,0.82813 1.70313,0.82813 1.09375,0 1.6875,-0.78125 0.60937,-0.79688 0.625,-2.28125 z m 5.70312,-0.82812 q -0.25,-0.0312 -0.53125,-0.0312 -1.07812,0 -1.45312,0.90625 v 4.5 h -1.07813 v -6.34375 h 1.04688 l 0.0156,0.73437 q 0.53125,-0.84375 1.51563,-0.84375 0.3125,0 0.48437,0.0781 z m 0.62109,2.15625 q 0,-1.48438 0.6875,-2.35938 0.6875,-0.875 1.8125,-0.875 1.15625,0 1.8125,0.8125 l 0.0469,-0.70312 h 1 v 6.1875 q 0,1.23437 -0.73438,1.9375 -0.73437,0.71875 -1.95312,0.71875 -0.6875,0 -1.34375,-0.29688 -0.65625,-0.29687 -1,-0.79687 l 0.5625,-0.65625 q 0.6875,0.85937 1.70312,0.85937 0.78125,0 1.21875,-0.45312 0.45313,-0.4375 0.45313,-1.25 v -0.54688 q -0.65625,0.76563 -1.78125,0.76563 -1.10938,0 -1.79688,-0.89063 -0.6875,-0.90625 -0.6875,-2.45312 z m 1.09375,0.125 q 0,1.0625 0.4375,1.6875 0.4375,0.60937 1.23438,0.60937 1.01562,0 1.5,-0.9375 v -2.89062 q -0.5,-0.90625 -1.5,-0.90625 -0.78125,0 -1.23438,0.60937 -0.4375,0.60938 -0.4375,1.82813 z m 9.81055,3.09375 q -0.0937,-0.1875 -0.15625,-0.67188 -0.75,0.79688 -1.79687,0.79688 -0.9375,0 -1.54688,-0.53125 -0.59375,-0.53125 -0.59375,-1.35938 0,-0.98437 0.75,-1.53125 0.75,-0.54687 2.125,-0.54687 h 1.04688 v -0.5 q 0,-0.5625 -0.34375,-0.89063 -0.32813,-0.34375 -1,-0.34375 -0.57813,0 -0.96875,0.29688 -0.39063,0.28125 -0.39063,0.70312 h -1.09375 q 0,-0.48437 0.32813,-0.92187 0.34375,-0.4375 0.92187,-0.6875 0.57813,-0.26563 1.26563,-0.26563 1.10937,0 1.71875,0.54688 0.625,0.54687 0.65625,1.5 v 2.92187 q 0,0.875 0.21875,1.39063 v 0.0937 z m -1.79687,-0.82813 q 0.51562,0 0.96875,-0.26562 0.45312,-0.26563 0.65625,-0.6875 v -1.29688 h -0.84375 q -2,0 -2,1.17188 0,0.5 0.34375,0.79687 0.34375,0.28125 0.875,0.28125 z m 5.43359,-5.51562 0.0312,0.79687 q 0.73437,-0.90625 1.90624,-0.90625 2.01563,0 2.03125,2.26563 v 4.1875 h -1.09375 v -4.20313 q 0,-0.67187 -0.3125,-1 -0.29687,-0.32812 -0.95312,-0.32812 -0.53125,0 -0.9375,0.28125 -0.39062,0.28125 -0.60937,0.73437 v 4.51563 h -1.07813 v -6.34375 z m 6.77734,6.34375 h -1.07813 v -6.34375 h 1.07813 z m -1.17188,-8.01563 q 0,-0.26562 0.15625,-0.45312 0.17188,-0.1875 0.48438,-0.1875 0.3125,0 0.46875,0.1875 0.17187,0.1875 0.17187,0.45312 0,0.25 -0.17187,0.4375 -0.15625,0.17188 -0.46875,0.17188 -0.3125,0 -0.48438,-0.17188 -0.15625,-0.1875 -0.15625,-0.4375 z m 3.92773,7.125 h 3.70313 v 0.89063 h -5.03125 v -0.79688 l 3.5,-4.64062 h -3.45313 v -0.90625 h 4.8125 v 0.76562 z m 8.8379,0.89063 q -0.0937,-0.1875 -0.15625,-0.67188 -0.75,0.79688 -1.79688,0.79688 -0.9375,0 -1.54687,-0.53125 -0.59375,-0.53125 -0.59375,-1.35938 0,-0.98437 0.75,-1.53125 0.75,-0.54687 2.125,-0.54687 h 1.04687 v -0.5 q 0,-0.5625 -0.34375,-0.89063 -0.32812,-0.34375 -1,-0.34375 -0.57812,0 -0.96875,0.29688 -0.39062,0.28125 -0.39062,0.70312 h -1.09375 q 0,-0.48437 0.32812,-0.92187 0.34375,-0.4375 0.92188,-0.6875 0.57812,-0.26563 1.26562,-0.26563 1.10938,0 1.71875,0.54688 0.625,0.54687 0.65625,1.5 v 2.92187 q 0,0.875 0.21875,1.39063 v 0.0937 z m -1.79688,-0.82813 q 0.51563,0 0.96875,-0.26562 0.45313,-0.26563 0.65625,-0.6875 v -1.29688 h -0.84375 q -2,0 -2,1.17188 0,0.5 0.34375,0.79687 0.34375,0.28125 0.875,0.28125 z m 5.88672,-7.04687 v 1.53125 h 1.17187 v 0.84375 h -1.17187 v 3.92187 q 0,0.39063 0.15625,0.57813 0.15625,0.1875 0.53125,0.1875 0.1875,0 0.51562,-0.0625 v 0.875 q -0.42187,0.125 -0.82812,0.125 -0.71875,0 -1.09375,-0.4375 -0.375,-0.45313 -0.375,-1.26563 v -3.92187 h -1.15625 v -0.84375 h 1.15625 v -1.53125 z m 3.62305,7.875 h -1.07813 v -6.34375 h 1.07813 z m -1.17188,-8.01563 q 0,-0.26562 0.15625,-0.45312 0.17188,-0.1875 0.48438,-0.1875 0.3125,0 0.46875,0.1875 0.17187,0.1875 0.17187,0.45312 0,0.25 -0.17187,0.4375 -0.15625,0.17188 -0.46875,0.17188 -0.3125,0 -0.48438,-0.17188 -0.15625,-0.1875 -0.15625,-0.4375 z m 2.61525,4.78125 q 0,-0.92187 0.35938,-1.67187 0.375,-0.75 1.03125,-1.14063 0.65625,-0.40625 1.48437,-0.40625 1.29688,0 2.09375,0.89063 0.8125,0.89062 0.8125,2.39062 v 0.0781 q 0,0.92187 -0.35937,1.65625 -0.35938,0.73437 -1.01563,1.15625 -0.65625,0.40625 -1.51562,0.40625 -1.28125,0 -2.09375,-0.89063 -0.79688,-0.90625 -0.79688,-2.39062 z m 1.09375,0.14063 q 0,1.04687 0.48438,1.6875 0.5,0.64062 1.3125,0.64062 0.82812,0 1.3125,-0.64062 0.48437,-0.65625 0.48437,-1.82813 0,-1.03125 -0.5,-1.67187 -0.48437,-0.65625 -1.3125,-0.65625 -0.79687,0 -1.29687,0.64062 -0.48438,0.625 -0.48438,1.82813 z m 7.0625,-3.25 0.0312,0.79687 q 0.73438,-0.90625 1.90625,-0.90625 2.01563,0 2.03125,2.26563 v 4.1875 h -1.09375 v -4.20313 q 0,-0.67187 -0.3125,-1 -0.29687,-0.32812 -0.95312,-0.32812 -0.53125,0 -0.9375,0.28125 -0.39063,0.28125 -0.60938,0.73437 v 4.51563 h -1.07812 v -6.34375 z m 8.2793,3.10937 q 0,-0.92187 0.35937,-1.67187 0.375,-0.75 1.03125,-1.14063 0.65625,-0.40625 1.48438,-0.40625 1.29687,0 2.09375,0.89063 0.8125,0.89062 0.8125,2.39062 v 0.0781 q 0,0.92187 -0.35938,1.65625 -0.35937,0.73437 -1.01562,1.15625 -0.65625,0.40625 -1.51563,0.40625 -1.28125,0 -2.09375,-0.89063 -0.79687,-0.90625 -0.79687,-2.39062 z m 1.09375,0.14063 q 0,1.04687 0.48437,1.6875 0.5,0.64062 1.3125,0.64062 0.82813,0 1.3125,-0.64062 0.48438,-0.65625 0.48438,-1.82813 0,-1.03125 -0.5,-1.67187 -0.48438,-0.65625 -1.3125,-0.65625 -0.79688,0 -1.29688,0.64062 -0.48437,0.625 -0.48437,1.82813 z m 11.65625,1.59375 1.21875,-4.84375 h 1.07812 l -1.84375,6.34375 h -0.875 l -1.54687,-4.8125 -1.5,4.8125 h -0.875 l -1.84375,-6.34375 h 1.07812 l 1.25,4.75 1.48438,-4.75 h 0.85937 z m 4.42383,-4.84375 0.0312,0.79687 q 0.73437,-0.90625 1.90625,-0.90625 2.01562,0 2.03125,2.26563 v 4.1875 h -1.09375 v -4.20313 q 0,-0.67187 -0.3125,-1 -0.29688,-0.32812 -0.95313,-0.32812 -0.53125,0 -0.9375,0.28125 -0.39062,0.28125 -0.60937,0.73437 v 4.51563 h -1.07813 v -6.34375 z m 8.23047,6.46875 q -1.29688,0 -2.10938,-0.84375 -0.79687,-0.85938 -0.79687,-2.28125 v -0.1875 q 0,-0.95313 0.35937,-1.6875 0.35938,-0.75 1,-1.15625 0.65625,-0.42188 1.40625,-0.42188 1.23438,0 1.92188,0.8125 0.6875,0.8125 0.6875,2.32813 v 0.45312 h -4.29688 q 0.0312,0.9375 0.54688,1.51563 0.53125,0.57812 1.34375,0.57812 0.5625,0 0.95312,-0.23437 0.40625,-0.23438 0.71875,-0.625 l 0.65625,0.51562 q -0.79687,1.23438 -2.39062,1.23438 z m -0.14063,-5.6875 q -0.65625,0 -1.10937,0.48437 -0.4375,0.46875 -0.53125,1.32813 h 3.17187 v -0.0781 q -0.0469,-0.82812 -0.45312,-1.28125 -0.39063,-0.45312 -1.07813,-0.45312 z m 6.93555,0.1875 q -0.25,-0.0312 -0.53125,-0.0312 -1.07813,0 -1.45313,0.90625 v 4.5 h -1.07812 v -6.34375 h 1.04687 l 0.0156,0.73437 q 0.53125,-0.84375 1.51562,-0.84375 0.3125,0 0.48438,0.0781 z"
       fill-rule="nonzero"
       id="path41" />
    <path
       fill="#000000"
       fill-opacity="0"
       d="m 213.27821,117.61155 h 44.56694"
       fill-rule="evenodd"
       id="path43" />
    <path
       stroke="#8993a5"
       stroke-width="2"
       stroke-linejoin="round"
       stroke-linecap="butt"
       stroke-dasharray="2, 6"
       d="m 213.27821,117.61155 h 32.56692"
       fill-rule="evenodd"
       id="path45" />
    <path
       fill="#8993a5"
       stroke="#8993a5"
       stroke-width="2"
       stroke-linecap="butt"
       d="m 245.84514,120.91502 9.0762,-3.30347 -9.0762,-3.30347 z"
       fill-rule="evenodd"
       id="path47" />
    <path
       fill="#ffffff"
       d="m 796.17584,106.91863 h 123.37012 v 21.38583 H 796.17584 Z"
       fill-rule="evenodd"
       id="path49" />
    <path
       stroke="#086dd7"
       stroke-width="1"
       stroke-linejoin="round"
       stroke-linecap="butt"
       d="m 796.17584,106.91863 h 123.37012 v 21.38583 H 796.17584 Z"
       fill-rule="evenodd"
       id="path51" />
    <path
       fill="#000000"
       d="m 813.5904,118.14717 q 0,1.25 -0.42187,2.1875 -0.42188,0.92188 -1.20313,1.42188 -0.76562,0.5 -1.79687,0.5 -1,0 -1.78125,-0.5 -0.78125,-0.5 -1.21875,-1.40625 -0.42188,-0.92188 -0.4375,-2.14063 v -0.60937 q 0,-1.23438 0.42187,-2.17188 0.4375,-0.9375 1.21875,-1.4375 0.78125,-0.51562 1.79688,-0.51562 1.01562,0 1.79687,0.5 0.78125,0.5 1.20313,1.4375 0.42187,0.9375 0.42187,2.1875 z m -1.10937,-0.5625 q 0,-1.51562 -0.60938,-2.32812 -0.60937,-0.8125 -1.70312,-0.8125 -1.07813,0 -1.6875,0.8125 -0.60938,0.8125 -0.625,2.25 v 0.64062 q 0,1.46875 0.60937,2.3125 0.625,0.82813 1.70313,0.82813 1.09375,0 1.6875,-0.78125 0.60937,-0.79688 0.625,-2.28125 z m 5.70312,-0.82812 q -0.25,-0.0312 -0.53125,-0.0312 -1.07812,0 -1.45312,0.90625 v 4.5 h -1.07813 v -6.34375 h 1.04688 l 0.0156,0.73437 q 0.53125,-0.84375 1.51563,-0.84375 0.3125,0 0.48437,0.0781 z m 0.62109,2.15625 q 0,-1.48438 0.6875,-2.35938 0.6875,-0.875 1.8125,-0.875 1.15625,0 1.8125,0.8125 l 0.0469,-0.70312 h 1 v 6.1875 q 0,1.23437 -0.73438,1.9375 -0.73437,0.71875 -1.95312,0.71875 -0.6875,0 -1.34375,-0.29688 -0.65625,-0.29687 -1,-0.79687 l 0.5625,-0.65625 q 0.6875,0.85937 1.70312,0.85937 0.78125,0 1.21875,-0.45312 0.45313,-0.4375 0.45313,-1.25 v -0.54688 q -0.65625,0.76563 -1.78125,0.76563 -1.10938,0 -1.79688,-0.89063 -0.6875,-0.90625 -0.6875,-2.45312 z m 1.09375,0.125 q 0,1.0625 0.4375,1.6875 0.4375,0.60937 1.23438,0.60937 1.01562,0 1.5,-0.9375 v -2.89062 q -0.5,-0.90625 -1.5,-0.90625 -0.78125,0 -1.23438,0.60937 -0.4375,0.60938 -0.4375,1.82813 z m 9.81055,3.09375 q -0.0937,-0.1875 -0.15625,-0.67188 -0.75,0.79688 -1.79687,0.79688 -0.9375,0 -1.54688,-0.53125 -0.59375,-0.53125 -0.59375,-1.35938 0,-0.98437 0.75,-1.53125 0.75,-0.54687 2.125,-0.54687 h 1.04688 v -0.5 q 0,-0.5625 -0.34375,-0.89063 -0.32813,-0.34375 -1,-0.34375 -0.57813,0 -0.96875,0.29688 -0.39063,0.28125 -0.39063,0.70312 h -1.09375 q 0,-0.48437 0.32813,-0.92187 0.34375,-0.4375 0.92187,-0.6875 0.57813,-0.26563 1.26563,-0.26563 1.10937,0 1.71875,0.54688 0.625,0.54687 0.65625,1.5 v 2.92187 q 0,0.875 0.21875,1.39063 v 0.0937 z m -1.79687,-0.82813 q 0.51562,0 0.96875,-0.26562 0.45312,-0.26563 0.65625,-0.6875 v -1.29688 h -0.84375 q -2,0 -2,1.17188 0,0.5 0.34375,0.79687 0.34375,0.28125 0.875,0.28125 z m 5.43359,-5.51562 0.0312,0.79687 q 0.73437,-0.90625 1.90625,-0.90625 2.01562,0 2.03125,2.26563 v 4.1875 h -1.09375 v -4.20313 q 0,-0.67187 -0.3125,-1 -0.29688,-0.32812 -0.95313,-0.32812 -0.53125,0 -0.9375,0.28125 -0.39062,0.28125 -0.60937,0.73437 v 4.51563 h -1.07813 v -6.34375 z m 6.77734,6.34375 h -1.07812 v -6.34375 h 1.07812 z m -1.17187,-8.01563 q 0,-0.26562 0.15625,-0.45312 0.17187,-0.1875 0.48437,-0.1875 0.3125,0 0.46875,0.1875 0.17188,0.1875 0.17188,0.45312 0,0.25 -0.17188,0.4375 -0.15625,0.17188 -0.46875,0.17188 -0.3125,0 -0.48437,-0.17188 -0.15625,-0.1875 -0.15625,-0.4375 z m 3.92773,7.125 h 3.70313 v 0.89063 h -5.03125 v -0.79688 l 3.5,-4.64062 h -3.45313 v -0.90625 h 4.8125 v 0.76562 z m 8.83789,0.89063 q -0.0937,-0.1875 -0.15625,-0.67188 -0.75,0.79688 -1.79687,0.79688 -0.9375,0 -1.54688,-0.53125 -0.59375,-0.53125 -0.59375,-1.35938 0,-0.98437 0.75,-1.53125 0.75,-0.54687 2.125,-0.54687 h 1.04688 v -0.5 q 0,-0.5625 -0.34375,-0.89063 -0.32813,-0.34375 -1,-0.34375 -0.57813,0 -0.96875,0.29688 -0.39063,0.28125 -0.39063,0.70312 h -1.09375 q 0,-0.48437 0.32813,-0.92187 0.34375,-0.4375 0.92187,-0.6875 0.57813,-0.26563 1.26563,-0.26563 1.10937,0 1.71875,0.54688 0.625,0.54687 0.65625,1.5 v 2.92187 q 0,0.875 0.21875,1.39063 v 0.0937 z m -1.79687,-0.82813 q 0.51562,0 0.96875,-0.26562 0.45312,-0.26563 0.65625,-0.6875 v -1.29688 h -0.84375 q -2,0 -2,1.17188 0,0.5 0.34375,0.79687 0.34375,0.28125 0.875,0.28125 z m 5.88672,-7.04687 v 1.53125 h 1.17187 v 0.84375 h -1.17187 v 3.92187 q 0,0.39063 0.15625,0.57813 0.15625,0.1875 0.53125,0.1875 0.1875,0 0.51562,-0.0625 v 0.875 q -0.42187,0.125 -0.82812,0.125 -0.71875,0 -1.09375,-0.4375 -0.375,-0.45313 -0.375,-1.26563 v -3.92187 h -1.15625 v -0.84375 h 1.15625 v -1.53125 z m 3.62304,7.875 h -1.07812 v -6.34375 h 1.07812 z m -1.17187,-8.01563 q 0,-0.26562 0.15625,-0.45312 0.17187,-0.1875 0.48437,-0.1875 0.3125,0 0.46875,0.1875 0.17188,0.1875 0.17188,0.45312 0,0.25 -0.17188,0.4375 -0.15625,0.17188 -0.46875,0.17188 -0.3125,0 -0.48437,-0.17188 -0.15625,-0.1875 -0.15625,-0.4375 z m 2.61523,4.78125 q 0,-0.92187 0.35938,-1.67187 0.375,-0.75 1.03125,-1.14063 0.65625,-0.40625 1.48437,-0.40625 1.29688,0 2.09375,0.89063 0.8125,0.89062 0.8125,2.39062 v 0.0781 q 0,0.92187 -0.35937,1.65625 -0.35938,0.73437 -1.01563,1.15625 -0.65625,0.40625 -1.51562,0.40625 -1.28125,0 -2.09375,-0.89063 -0.79688,-0.90625 -0.79688,-2.39062 z m 1.09375,0.14063 q 0,1.04687 0.48438,1.6875 0.5,0.64062 1.3125,0.64062 0.82812,0 1.3125,-0.64062 0.48437,-0.65625 0.48437,-1.82813 0,-1.03125 -0.5,-1.67187 -0.48437,-0.65625 -1.3125,-0.65625 -0.79687,0 -1.29687,0.64062 -0.48438,0.625 -0.48438,1.82813 z m 7.0625,-3.25 0.0312,0.79687 q 0.73438,-0.90625 1.90625,-0.90625 2.01563,0 2.03125,2.26563 v 4.1875 h -1.09375 v -4.20313 q 0,-0.67187 -0.3125,-1 -0.29687,-0.32812 -0.95312,-0.32812 -0.53125,0 -0.9375,0.28125 -0.39063,0.28125 -0.60938,0.73437 v 4.51563 h -1.07812 v -6.34375 z m 8.2793,3.10937 q 0,-0.92187 0.35938,-1.67187 0.375,-0.75 1.03125,-1.14063 0.65625,-0.40625 1.48437,-0.40625 1.29688,0 2.09375,0.89063 0.8125,0.89062 0.8125,2.39062 v 0.0781 q 0,0.92187 -0.35937,1.65625 -0.35938,0.73437 -1.01563,1.15625 -0.65625,0.40625 -1.51562,0.40625 -1.28125,0 -2.09375,-0.89063 -0.79688,-0.90625 -0.79688,-2.39062 z m 1.09375,0.14063 q 0,1.04687 0.48438,1.6875 0.5,0.64062 1.3125,0.64062 0.82812,0 1.3125,-0.64062 0.48437,-0.65625 0.48437,-1.82813 0,-1.03125 -0.5,-1.67187 -0.48437,-0.65625 -1.3125,-0.65625 -0.79687,0 -1.29687,0.64062 -0.48438,0.625 -0.48438,1.82813 z m 11.65625,1.59375 1.21875,-4.84375 h 1.07813 l -1.84375,6.34375 h -0.875 l -1.54688,-4.8125 -1.5,4.8125 h -0.875 l -1.84375,-6.34375 h 1.07813 l 1.25,4.75 1.48437,-4.75 h 0.85938 z m 4.42383,-4.84375 0.0312,0.79687 q 0.73437,-0.90625 1.90625,-0.90625 2.01562,0 2.03125,2.26563 v 4.1875 h -1.09375 v -4.20313 q 0,-0.67187 -0.3125,-1 -0.29688,-0.32812 -0.95313,-0.32812 -0.53125,0 -0.9375,0.28125 -0.39062,0.28125 -0.60937,0.73437 v 4.51563 h -1.07813 v -6.34375 z m 8.23047,6.46875 q -1.29688,0 -2.10938,-0.84375 -0.79687,-0.85938 -0.79687,-2.28125 v -0.1875 q 0,-0.95313 0.35937,-1.6875 0.35938,-0.75 1,-1.15625 0.65625,-0.42188 1.40625,-0.42188 1.23438,0 1.92188,0.8125 0.6875,0.8125 0.6875,2.32813 v 0.45312 h -4.29688 q 0.0312,0.9375 0.54688,1.51563 0.53125,0.57812 1.34375,0.57812 0.5625,0 0.95312,-0.23437 0.40625,-0.23438 0.71875,-0.625 l 0.65625,0.51562 q -0.79687,1.23438 -2.39062,1.23438 z m -0.14063,-5.6875 q -0.65625,0 -1.10937,0.48437 -0.4375,0.46875 -0.53125,1.32813 h 3.17187 v -0.0781 q -0.0469,-0.82812 -0.45312,-1.28125 -0.39063,-0.45312 -1.07813,-0.45312 z m 6.93555,0.1875 q -0.25,-0.0312 -0.53125,-0.0312 -1.07813,0 -1.45313,0.90625 v 4.5 h -1.07812 v -6.34375 h 1.04687 l 0.0156,0.73437 q 0.53125,-0.84375 1.51562,-0.84375 0.3125,0 0.48438,0.0781 z"
       fill-rule="nonzero"
       id="path53" />
    <path
       fill="#000000"
       fill-opacity="0"
       d="M 796.17584,117.61155 H 750.00262"
       fill-rule="evenodd"
       id="path55" />
    <path
       stroke="#8993a5"
       stroke-width="2"
       stroke-linejoin="round"
       stroke-linecap="butt"
       stroke-dasharray="2, 6"
       d="M 796.17584,117.61155 H 762.00262"
       fill-rule="evenodd"
       id="path57" />
    <path
       fill="#8993a5"
       stroke="#8993a5"
       stroke-width="2"
       stroke-linecap="butt"
       d="m 762.0026,114.30808 -9.07617,3.30347 9.07617,3.30346 z"
       fill-rule="evenodd"
       id="path59" />
    <path
       fill="#000000"
       fill-opacity="0"
       d="M 487.64566,35.790028 341.34646,106.90813"
       fill-rule="evenodd"
       id="path61" />
    <path
       stroke="#8993a5"
       stroke-width="2"
       stroke-linejoin="round"
       stroke-linecap="butt"
       d="M 487.64566,35.790028 352.13886,101.66179"
       fill-rule="evenodd"
       id="path63" />
    <path
       fill="#8993a5"
       stroke="#8993a5"
       stroke-width="2"
       stroke-linecap="butt"
       d="m 350.6946,98.69077 -6.71857,6.93909 9.60709,-0.99704 z"
       fill-rule="evenodd"
       id="path65" />
    <path
       fill="#000000"
       fill-opacity="0"
       d="M 487.64566,35.790028 666.51184,106.90813"
       fill-rule="evenodd"
       id="path67" />
    <path
       stroke="#8993a5"
       stroke-width="2"
       stroke-linejoin="round"
       stroke-linecap="butt"
       d="M 487.64566,35.790028 655.3609,102.47448"
       fill-rule="evenodd"
       id="path69" />
    <path
       fill="#8993a5"
       stroke="#8993a5"
       stroke-width="2"
       stroke-linecap="butt"
       d="m 654.1404,105.5442 9.65448,0.28368 -7.21344,-6.423115 z"
       fill-rule="evenodd"
       id="path71" />
    <path
       fill="#ffffff"
       d="m 231.79527,181.65886 v 0 c 0,-1.96855 1.59583,-3.56438 3.56438,-3.56438 h 79.42242 c 0.94534,0 1.85196,0.37554 2.52042,1.04399 0.66842,0.66845 1.04397,1.57506 1.04397,2.52039 v 14.25708 c 0,1.96855 -1.59582,3.56438 -3.56439,3.56438 h -79.42242 c -1.96855,0 -3.56438,-1.59583 -3.56438,-3.56438 z"
       fill-rule="evenodd"
       id="path73" />
    <path
       stroke="#086dd7"
       stroke-width="1"
       stroke-linejoin="round"
       stroke-linecap="butt"
       d="m 231.79527,181.65886 v 0 c 0,-1.96855 1.59583,-3.56438 3.56438,-3.56438 h 79.42242 c 0.94534,0 1.85196,0.37554 2.52042,1.04399 0.66842,0.66845 1.04397,1.57506 1.04397,2.52039 v 14.25708 c 0,1.96855 -1.59582,3.56438 -3.56439,3.56438 h -79.42242 c -1.96855,0 -3.56438,-1.59583 -3.56438,-3.56438 z"
       fill-rule="evenodd"
       id="path75" />
    <path
       fill="#000000"
       d="m 258.9986,182.65552 h -5.3125 v 14.67187 h -2.95313 v -14.67187 h -5.26562 v -2.39063 h 13.53125 z m 6.50781,14.90625 q -2.70312,0 -4.39062,-1.70313 -1.6875,-1.70312 -1.6875,-4.54687 v -0.34375 q 0,-1.90625 0.73437,-3.39063 0.73438,-1.5 2.0625,-2.32812 1.32813,-0.84375 2.95313,-0.84375 2.59375,0 4,1.65625 1.40625,1.65625 1.40625,4.67187 v 1.15625 h -8.28125 q 0.125,1.5625 1.04687,2.48438 0.92188,0.90625 2.3125,0.90625 1.96875,0 3.1875,-1.57813 l 1.54688,1.46875 q -0.76563,1.14063 -2.04688,1.76563 -1.26562,0.625 -2.84375,0.625 z m -0.34375,-10.85938 q -1.17187,0 -1.89062,0.82813 -0.71875,0.8125 -0.92188,2.26562 h 5.42188 v -0.20312 q -0.0937,-1.4375 -0.76563,-2.15625 -0.65625,-0.73438 -1.84375,-0.73438 z m 15.20703,10.625 q -0.1875,-0.35937 -0.32812,-1.1875 -1.35938,1.42188 -3.32813,1.42188 -1.90625,0 -3.10937,-1.09375 -1.20313,-1.09375 -1.20313,-2.6875 0,-2.03125 1.5,-3.10938 1.5,-1.09375 4.3125,-1.09375 h 1.73438 v -0.82812 q 0,-0.98438 -0.54688,-1.57813 -0.54687,-0.59375 -1.67187,-0.59375 -0.96875,0 -1.59375,0.48438 -0.625,0.48437 -0.625,1.23437 h -2.84375 q 0,-1.03125 0.6875,-1.9375 0.6875,-0.92187 1.875,-1.4375 1.20312,-0.51562 2.65625,-0.51562 2.23437,0 3.54687,1.125 1.32813,1.125 1.375,3.14062 v 5.71875 q 0,1.71875 0.46875,2.73438 v 0.20312 z m -3.125,-2.04687 q 0.84375,0 1.57813,-0.40625 0.75,-0.42188 1.125,-1.10938 v -2.39062 h -1.53125 q -1.57813,0 -2.375,0.54687 -0.79688,0.54688 -0.79688,1.5625 0,0.8125 0.54688,1.3125 0.54687,0.48438 1.45312,0.48438 z m 11.21875,-10.64063 0.0781,1.32813 q 1.34375,-1.5625 3.65625,-1.5625 2.54687,0 3.48437,1.95312 1.375,-1.95312 3.89063,-1.95312 2.09375,0 3.10937,1.17187 1.03125,1.15625 1.0625,3.42188 v 8.32812 h -2.84375 v -8.25 q 0,-1.20312 -0.53125,-1.76562 -0.53125,-0.5625 -1.75,-0.5625 -0.96875,0 -1.59375,0.51562 -0.60937,0.51563 -0.85937,1.35938 l 0.0156,8.70312 h -2.84375 v -8.34375 q -0.0625,-2.23437 -2.28125,-2.23437 -1.71875,0 -2.4375,1.39062 v 9.1875 h -2.84375 v -12.6875 z"
       fill-rule="nonzero"
       id="path77" />
    <path
       fill="#ffffff"
       d="m 374.79266,181.65886 v 0 c 0,-1.96855 1.59583,-3.56438 3.56436,-3.56438 h 79.42243 c 0.94534,0 1.85195,0.37554 2.52041,1.04399 0.66843,0.66845 1.04398,1.57506 1.04398,2.52039 v 14.25708 c 0,1.96855 -1.59583,3.56438 -3.56439,3.56438 h -79.42243 c -1.96853,0 -3.56436,-1.59583 -3.56436,-3.56438 z"
       fill-rule="evenodd"
       id="path79" />
    <path
       stroke="#086dd7"
       stroke-width="1"
       stroke-linejoin="round"
       stroke-linecap="butt"
       d="m 374.79266,181.65886 v 0 c 0,-1.96855 1.59583,-3.56438 3.56436,-3.56438 h 79.42243 c 0.94534,0 1.85195,0.37554 2.52041,1.04399 0.66843,0.66845 1.04398,1.57506 1.04398,2.52039 v 14.25708 c 0,1.96855 -1.59583,3.56438 -3.56439,3.56438 h -79.42243 c -1.96853,0 -3.56436,-1.59583 -3.56436,-3.56438 z"
       fill-rule="evenodd"
       id="path81" />
    <path
       fill="#000000"
       d="m 401.99597,182.65552 h -5.3125 v 14.67187 h -2.95313 v -14.67187 h -5.26562 v -2.39063 h 13.53125 z m 6.50781,14.90625 q -2.70312,0 -4.39062,-1.70313 -1.6875,-1.70312 -1.6875,-4.54687 v -0.34375 q 0,-1.90625 0.73437,-3.39063 0.73438,-1.5 2.0625,-2.32812 1.32813,-0.84375 2.95313,-0.84375 2.59375,0 4,1.65625 1.40625,1.65625 1.40625,4.67187 v 1.15625 h -8.28125 q 0.125,1.5625 1.04687,2.48438 0.92188,0.90625 2.3125,0.90625 1.96875,0 3.1875,-1.57813 l 1.54688,1.46875 q -0.76563,1.14063 -2.04688,1.76563 -1.26562,0.625 -2.84375,0.625 z m -0.34375,-10.85938 q -1.17187,0 -1.89062,0.82813 -0.71875,0.8125 -0.92188,2.26562 h 5.42188 v -0.20312 q -0.0937,-1.4375 -0.76563,-2.15625 -0.65625,-0.73438 -1.84375,-0.73438 z m 15.20703,10.625 q -0.1875,-0.35937 -0.32812,-1.1875 -1.35938,1.42188 -3.32813,1.42188 -1.90625,0 -3.10937,-1.09375 -1.20313,-1.09375 -1.20313,-2.6875 0,-2.03125 1.5,-3.10938 1.5,-1.09375 4.3125,-1.09375 h 1.73438 v -0.82812 q 0,-0.98438 -0.54688,-1.57813 -0.54687,-0.59375 -1.67187,-0.59375 -0.96875,0 -1.59375,0.48438 -0.625,0.48437 -0.625,1.23437 h -2.84375 q 0,-1.03125 0.6875,-1.9375 0.6875,-0.92187 1.875,-1.4375 1.20312,-0.51562 2.65625,-0.51562 2.23437,0 3.54687,1.125 1.32813,1.125 1.375,3.14062 v 5.71875 q 0,1.71875 0.46875,2.73438 v 0.20312 z m -3.125,-2.04687 q 0.84375,0 1.57813,-0.40625 0.75,-0.42188 1.125,-1.10938 v -2.39062 h -1.53125 q -1.57813,0 -2.375,0.54687 -0.79688,0.54688 -0.79688,1.5625 0,0.8125 0.54688,1.3125 0.54687,0.48438 1.45312,0.48438 z m 11.21875,-10.64063 0.0781,1.32813 q 1.34375,-1.5625 3.65625,-1.5625 2.54687,0 3.48437,1.95312 1.375,-1.95312 3.89063,-1.95312 2.09375,0 3.10937,1.17187 1.03125,1.15625 1.0625,3.42188 v 8.32812 h -2.84375 v -8.25 q 0,-1.20312 -0.53125,-1.76562 -0.53125,-0.5625 -1.75,-0.5625 -0.96875,0 -1.59375,0.51562 -0.60937,0.51563 -0.85937,1.35938 l 0.0156,8.70312 h -2.84375 v -8.34375 q -0.0625,-2.23437 -2.28125,-2.23437 -1.71875,0 -2.4375,1.39062 v 9.1875 h -2.84375 v -12.6875 z"
       fill-rule="nonzero"
       id="path83" />
    <path
       fill="#000000"
       fill-opacity="0"
       d="m 341.34122,128.30446 -66.26773,49.79527"
       fill-rule="evenodd"
       id="path85" />
    <path
       stroke="#8993a5"
       stroke-width="2"
       stroke-linejoin="round"
       stroke-linecap="butt"
       d="M 341.34122,128.30446 284.6669,170.89099"
       fill-rule="evenodd"
       id="path87" />
    <path
       fill="#8993a5"
       stroke="#8993a5"
       stroke-width="2"
       stroke-linecap="butt"
       d="m 282.68243,168.25003 -5.27152,8.09329 9.24048,-2.81137 z"
       fill-rule="evenodd"
       id="path89" />
    <path
       fill="#000000"
       fill-opacity="0"
       d="m 341.34122,128.30446 92.7244,49.79527"
       fill-rule="evenodd"
       id="path91" />
    <path
       stroke="#8993a5"
       stroke-width="2"
       stroke-linejoin="round"
       stroke-linecap="butt"
       d="m 341.34122,128.30446 82.15243,44.11787"
       fill-rule="evenodd"
       id="path93" />
    <path
       fill="#8993a5"
       stroke="#8993a5"
       stroke-width="2"
       stroke-linecap="butt"
       d="m 421.9307,175.33267 9.55905,1.38376 -6.4332,-7.20445 z"
       fill-rule="evenodd"
       id="path95" />
    <path
       fill="#ffffff"
       d="m 208.17586,242.73491 h 66.58269 v 21.38582 h -66.58269 z"
       fill-rule="evenodd"
       id="path97" />
    <path
       stroke="#086dd7"
       stroke-width="1"
       stroke-linejoin="round"
       stroke-linecap="butt"
       d="m 208.17586,242.73491 h 66.58269 v 21.38582 h -66.58269 z"
       fill-rule="evenodd"
       id="path99" />
    <path
       fill="#000000"
       d="m 221.65372,249.41656 2.79687,6.95312 2.78125,-6.95312 h 1.46875 v 8.53125 h -1.125 v -3.32813 l 0.10938,-3.57812 -2.8125,6.90625 h -0.85938 l -2.79687,-6.89063 0.10937,3.5625 v 3.32813 h -1.125 v -8.53125 z m 11.49219,8.65625 q -1.29688,0 -2.10938,-0.84375 -0.79687,-0.85938 -0.79687,-2.28125 v -0.1875 q 0,-0.95313 0.35937,-1.6875 0.35938,-0.75 1,-1.15625 0.65625,-0.42188 1.40625,-0.42188 1.23438,0 1.92188,0.8125 0.6875,0.8125 0.6875,2.32813 v 0.45312 h -4.29688 q 0.0312,0.9375 0.54688,1.51563 0.53125,0.57812 1.34375,0.57812 0.5625,0 0.95312,-0.23437 0.40625,-0.23438 0.71875,-0.625 l 0.65625,0.51562 q -0.79687,1.23438 -2.39062,1.23438 z m -0.14063,-5.6875 q -0.65625,0 -1.10937,0.48437 -0.4375,0.46875 -0.53125,1.32813 h 3.17187 v -0.0781 q -0.0469,-0.82812 -0.45312,-1.28125 -0.39063,-0.45312 -1.07813,-0.45312 z m 4.88867,-0.78125 0.0312,0.70312 q 0.6875,-0.8125 1.875,-0.8125 1.32813,0 1.8125,1.01563 0.3125,-0.45313 0.8125,-0.73438 0.51563,-0.28125 1.20313,-0.28125 2.09375,0 2.125,2.20313 v 4.25 h -1.07813 v -4.1875 q 0,-0.67188 -0.3125,-1 -0.3125,-0.34375 -1.04687,-0.34375 -0.60938,0 -1.01563,0.35937 -0.39062,0.35938 -0.45312,0.96875 v 4.20313 h -1.07813 v -4.15625 q 0,-1.375 -1.35937,-1.375 -1.0625,0 -1.45313,0.90625 v 4.625 h -1.09375 v -6.34375 z m 14.86133,3.25 q 0,1.45312 -0.67187,2.34375 -0.65625,0.875 -1.78125,0.875 -1.20313,0 -1.85938,-0.85938 l -0.0625,0.73438 h -0.98437 v -9 h 1.07812 v 3.35937 q 0.65625,-0.8125 1.8125,-0.8125 1.15625,0 1.8125,0.875 0.65625,0.85938 0.65625,2.39063 z m -1.07812,-0.125 q 0,-1.10938 -0.4375,-1.70313 -0.42188,-0.60937 -1.21875,-0.60937 -1.07813,0 -1.54688,0.98437 v 2.75 q 0.5,1 1.54688,1 0.78125,0 1.21875,-0.60937 0.4375,-0.60938 0.4375,-1.8125 z m 5.07617,3.34375 q -1.29688,0 -2.10938,-0.84375 -0.79687,-0.85938 -0.79687,-2.28125 v -0.1875 q 0,-0.95313 0.35937,-1.6875 0.35938,-0.75 1,-1.15625 0.65625,-0.42188 1.40625,-0.42188 1.23438,0 1.92188,0.8125 0.6875,0.8125 0.6875,2.32813 v 0.45312 h -4.29688 q 0.0312,0.9375 0.54688,1.51563 0.53125,0.57812 1.34375,0.57812 0.5625,0 0.95312,-0.23437 0.40625,-0.23438 0.71875,-0.625 l 0.65625,0.51562 q -0.79687,1.23438 -2.39062,1.23438 z m -0.14063,-5.6875 q -0.65625,0 -1.10937,0.48437 -0.4375,0.46875 -0.53125,1.32813 h 3.17187 v -0.0781 q -0.0469,-0.82812 -0.45312,-1.28125 -0.39063,-0.45312 -1.07813,-0.45312 z m 6.93555,0.1875 q -0.25,-0.0312 -0.53125,-0.0312 -1.07812,0 -1.45312,0.90625 v 4.5 h -1.07813 v -6.34375 h 1.04688 l 0.0156,0.73437 q 0.53125,-0.84375 1.51563,-0.84375 0.3125,0 0.48437,0.0781 z"
       fill-rule="nonzero"
       id="path101" />
    <path
       fill="#ffffff"
       d="m 274.75854,242.73491 h 66.58267 v 21.38582 h -66.58267 z"
       fill-rule="evenodd"
       id="path103" />
    <path
       stroke="#086dd7"
       stroke-width="1"
       stroke-linejoin="round"
       stroke-linecap="butt"
       d="m 274.75854,242.73491 h 66.58267 v 21.38582 h -66.58267 z"
       fill-rule="evenodd"
       id="path105" />
    <path
       fill="#000000"
       d="m 288.2364,249.41656 2.79687,6.95312 2.78125,-6.95312 h 1.46875 v 8.53125 h -1.125 v -3.32813 l 0.10938,-3.57812 -2.8125,6.90625 h -0.85938 l -2.79687,-6.89063 0.10937,3.5625 v 3.32813 h -1.125 v -8.53125 z m 11.49219,8.65625 q -1.29688,0 -2.10938,-0.84375 -0.79687,-0.85938 -0.79687,-2.28125 v -0.1875 q 0,-0.95313 0.35937,-1.6875 0.35938,-0.75 1,-1.15625 0.65625,-0.42188 1.40625,-0.42188 1.23438,0 1.92188,0.8125 0.6875,0.8125 0.6875,2.32813 v 0.45312 h -4.29688 q 0.0312,0.9375 0.54688,1.51563 0.53125,0.57812 1.34375,0.57812 0.5625,0 0.95312,-0.23437 0.40625,-0.23438 0.71875,-0.625 l 0.65625,0.51562 q -0.79687,1.23438 -2.39062,1.23438 z m -0.14063,-5.6875 q -0.65625,0 -1.10937,0.48437 -0.4375,0.46875 -0.53125,1.32813 h 3.17187 v -0.0781 q -0.0469,-0.82812 -0.45312,-1.28125 -0.39063,-0.45312 -1.07813,-0.45312 z m 4.88867,-0.78125 0.0312,0.70312 q 0.6875,-0.8125 1.875,-0.8125 1.32813,0 1.8125,1.01563 0.3125,-0.45313 0.8125,-0.73438 0.51563,-0.28125 1.20313,-0.28125 2.09375,0 2.125,2.20313 v 4.25 h -1.07813 v -4.1875 q 0,-0.67188 -0.3125,-1 -0.3125,-0.34375 -1.04687,-0.34375 -0.60938,0 -1.01563,0.35937 -0.39062,0.35938 -0.45312,0.96875 v 4.20313 h -1.07813 v -4.15625 q 0,-1.375 -1.35937,-1.375 -1.0625,0 -1.45313,0.90625 v 4.625 h -1.09375 v -6.34375 z m 14.86133,3.25 q 0,1.45312 -0.67187,2.34375 -0.65625,0.875 -1.78125,0.875 -1.20313,0 -1.85938,-0.85938 l -0.0625,0.73438 h -0.98437 v -9 h 1.07812 v 3.35937 q 0.65625,-0.8125 1.8125,-0.8125 1.15625,0 1.8125,0.875 0.65625,0.85938 0.65625,2.39063 z m -1.07812,-0.125 q 0,-1.10938 -0.4375,-1.70313 -0.42188,-0.60937 -1.21875,-0.60937 -1.07813,0 -1.54688,0.98437 v 2.75 q 0.5,1 1.54688,1 0.78125,0 1.21875,-0.60937 0.4375,-0.60938 0.4375,-1.8125 z m 5.07617,3.34375 q -1.29688,0 -2.10938,-0.84375 -0.79687,-0.85938 -0.79687,-2.28125 v -0.1875 q 0,-0.95313 0.35937,-1.6875 0.35938,-0.75 1,-1.15625 0.65625,-0.42188 1.40625,-0.42188 1.23438,0 1.92188,0.8125 0.6875,0.8125 0.6875,2.32813 v 0.45312 h -4.29688 q 0.0312,0.9375 0.54688,1.51563 0.53125,0.57812 1.34375,0.57812 0.5625,0 0.95312,-0.23437 0.40625,-0.23438 0.71875,-0.625 l 0.65625,0.51562 q -0.79687,1.23438 -2.39062,1.23438 z m -0.14063,-5.6875 q -0.65625,0 -1.10937,0.48437 -0.4375,0.46875 -0.53125,1.32813 h 3.17187 v -0.0781 q -0.0469,-0.82812 -0.45312,-1.28125 -0.39063,-0.45312 -1.07813,-0.45312 z m 6.93555,0.1875 q -0.25,-0.0312 -0.53125,-0.0312 -1.07812,0 -1.45312,0.90625 v 4.5 h -1.07813 v -6.34375 h 1.04688 l 0.0156,0.73437 q 0.53125,-0.84375 1.51563,-0.84375 0.3125,0 0.48437,0.0781 z"
       fill-rule="nonzero"
       id="path107" />
    <path
       fill="#ffffff"
       d="m 351.48557,242.73491 h 66.58267 v 21.38582 h -66.58267 z"
       fill-rule="evenodd"
       id="path109" />
    <path
       stroke="#086dd7"
       stroke-width="1"
       stroke-linejoin="round"
       stroke-linecap="butt"
       d="m 351.48557,242.73491 h 66.58267 v 21.38582 h -66.58267 z"
       fill-rule="evenodd"
       id="path111" />
    <path
       fill="#000000"
       d="m 364.96344,249.41656 2.79687,6.95312 2.78125,-6.95312 h 1.46875 v 8.53125 h -1.125 v -3.32813 l 0.10938,-3.57812 -2.8125,6.90625 h -0.85938 l -2.79687,-6.89063 0.10937,3.5625 v 3.32813 h -1.125 v -8.53125 z m 11.49219,8.65625 q -1.29688,0 -2.10938,-0.84375 -0.79687,-0.85938 -0.79687,-2.28125 v -0.1875 q 0,-0.95313 0.35937,-1.6875 0.35938,-0.75 1,-1.15625 0.65625,-0.42188 1.40625,-0.42188 1.23438,0 1.92188,0.8125 0.6875,0.8125 0.6875,2.32813 v 0.45312 h -4.29688 q 0.0312,0.9375 0.54688,1.51563 0.53125,0.57812 1.34375,0.57812 0.5625,0 0.95312,-0.23437 0.40625,-0.23438 0.71875,-0.625 l 0.65625,0.51562 q -0.79687,1.23438 -2.39062,1.23438 z m -0.14063,-5.6875 q -0.65625,0 -1.10937,0.48437 -0.4375,0.46875 -0.53125,1.32813 h 3.17187 v -0.0781 q -0.0469,-0.82812 -0.45312,-1.28125 -0.39063,-0.45312 -1.07813,-0.45312 z m 4.88867,-0.78125 0.0312,0.70312 q 0.6875,-0.8125 1.875,-0.8125 1.3281,0 1.81247,1.01563 0.3125,-0.45313 0.8125,-0.73438 0.51563,-0.28125 1.20313,-0.28125 2.09375,0 2.125,2.20313 v 4.25 h -1.07813 v -4.1875 q 0,-0.67188 -0.3125,-1 -0.3125,-0.34375 -1.04687,-0.34375 -0.60938,0 -1.01563,0.35937 -0.39062,0.35938 -0.45312,0.96875 v 4.20313 h -1.07813 v -4.15625 q 0,-1.375 -1.35934,-1.375 -1.0625,0 -1.45313,0.90625 v 4.625 h -1.09375 v -6.34375 z m 14.8613,3.25 q 0,1.45312 -0.67187,2.34375 -0.65625,0.875 -1.78125,0.875 -1.20313,0 -1.85938,-0.85938 l -0.0625,0.73438 h -0.98437 v -9 h 1.07812 v 3.35937 q 0.65625,-0.8125 1.8125,-0.8125 1.15625,0 1.8125,0.875 0.65625,0.85938 0.65625,2.39063 z m -1.07812,-0.125 q 0,-1.10938 -0.4375,-1.70313 -0.42188,-0.60937 -1.21875,-0.60937 -1.07813,0 -1.54688,0.98437 v 2.75 q 0.5,1 1.54688,1 0.78125,0 1.21875,-0.60937 0.4375,-0.60938 0.4375,-1.8125 z m 5.07617,3.34375 q -1.29688,0 -2.10938,-0.84375 -0.79687,-0.85938 -0.79687,-2.28125 v -0.1875 q 0,-0.95313 0.35937,-1.6875 0.35938,-0.75 1,-1.15625 0.65625,-0.42188 1.40625,-0.42188 1.23438,0 1.92188,0.8125 0.6875,0.8125 0.6875,2.32813 v 0.45312 h -4.29688 q 0.0312,0.9375 0.54688,1.51563 0.53125,0.57812 1.34375,0.57812 0.5625,0 0.95312,-0.23437 0.40625,-0.23438 0.71875,-0.625 l 0.65625,0.51562 q -0.79687,1.23438 -2.39062,1.23438 z m -0.14063,-5.6875 q -0.65625,0 -1.10937,0.48437 -0.4375,0.46875 -0.53125,1.32813 h 3.17187 v -0.0781 q -0.0469,-0.82812 -0.45312,-1.28125 -0.39063,-0.45312 -1.07813,-0.45312 z m 6.93555,0.1875 q -0.25,-0.0312 -0.53125,-0.0312 -1.07812,0 -1.45312,0.90625 v 4.5 h -1.07813 v -6.34375 h 1.04688 l 0.0156,0.73437 q 0.53125,-0.84375 1.51563,-0.84375 0.3125,0 0.48437,0.0781 z"
       fill-rule="nonzero"
       id="path113" />
    <path
       fill="#ffffff"
       d="m 418.06824,242.73491 h 66.58267 v 21.38582 h -66.58267 z"
       fill-rule="evenodd"
       id="path115" />
    <path
       stroke="#086dd7"
       stroke-width="1"
       stroke-linejoin="round"
       stroke-linecap="butt"
       d="m 418.06824,242.73491 h 66.58267 v 21.38582 h -66.58267 z"
       fill-rule="evenodd"
       id="path117" />
    <path
       fill="#000000"
       d="m 431.5461,249.41656 2.79688,6.95312 2.78125,-6.95312 h 1.46875 v 8.53125 h -1.125 v -3.32813 l 0.10937,-3.57812 -2.8125,6.90625 h -0.85937 l -2.79688,-6.89063 0.10938,3.5625 v 3.32813 h -1.125 v -8.53125 z m 11.49219,8.65625 q -1.29688,0 -2.10938,-0.84375 -0.79687,-0.85938 -0.79687,-2.28125 v -0.1875 q 0,-0.95313 0.35937,-1.6875 0.35938,-0.75 1,-1.15625 0.65625,-0.42188 1.40625,-0.42188 1.23438,0 1.92188,0.8125 0.6875,0.8125 0.6875,2.32813 v 0.45312 h -4.29688 q 0.0312,0.9375 0.54688,1.51563 0.53125,0.57812 1.34375,0.57812 0.5625,0 0.95312,-0.23437 0.40625,-0.23438 0.71875,-0.625 l 0.65625,0.51562 q -0.79687,1.23438 -2.39062,1.23438 z m -0.14063,-5.6875 q -0.65625,0 -1.10937,0.48437 -0.4375,0.46875 -0.53125,1.32813 h 3.17187 v -0.0781 q -0.0469,-0.82812 -0.45312,-1.28125 -0.39063,-0.45312 -1.07813,-0.45312 z m 4.88867,-0.78125 0.0312,0.70312 q 0.6875,-0.8125 1.875,-0.8125 1.32813,0 1.8125,1.01563 0.3125,-0.45313 0.8125,-0.73438 0.51563,-0.28125 1.20313,-0.28125 2.09375,0 2.125,2.20313 v 4.25 h -1.07813 v -4.1875 q 0,-0.67188 -0.3125,-1 -0.3125,-0.34375 -1.04687,-0.34375 -0.60938,0 -1.01563,0.35937 -0.39062,0.35938 -0.45312,0.96875 v 4.20313 h -1.07813 v -4.15625 q 0,-1.375 -1.35937,-1.375 -1.0625,0 -1.45313,0.90625 v 4.625 h -1.09375 v -6.34375 z m 14.86133,3.25 q 0,1.45312 -0.67187,2.34375 -0.65625,0.875 -1.78125,0.875 -1.20313,0 -1.85938,-0.85938 l -0.0625,0.73438 h -0.98437 v -9 h 1.07812 v 3.35937 q 0.65625,-0.8125 1.8125,-0.8125 1.15625,0 1.8125,0.875 0.65625,0.85938 0.65625,2.39063 z m -1.07812,-0.125 q 0,-1.10938 -0.4375,-1.70313 -0.42188,-0.60937 -1.21875,-0.60937 -1.07813,0 -1.54688,0.98437 v 2.75 q 0.5,1 1.54688,1 0.78125,0 1.21875,-0.60937 0.4375,-0.60938 0.4375,-1.8125 z m 5.07617,3.34375 q -1.29688,0 -2.10938,-0.84375 -0.79687,-0.85938 -0.79687,-2.28125 v -0.1875 q 0,-0.95313 0.35937,-1.6875 0.35938,-0.75 1,-1.15625 0.65625,-0.42188 1.40625,-0.42188 1.23438,0 1.92188,0.8125 0.6875,0.8125 0.6875,2.32813 v 0.45312 h -4.29688 q 0.0312,0.9375 0.54688,1.51563 0.53125,0.57812 1.34375,0.57812 0.5625,0 0.95312,-0.23437 0.40625,-0.23438 0.71875,-0.625 l 0.65625,0.51562 q -0.79687,1.23438 -2.39062,1.23438 z m -0.14063,-5.6875 q -0.65625,0 -1.10937,0.48437 -0.4375,0.46875 -0.53125,1.32813 h 3.17187 v -0.0781 q -0.0469,-0.82812 -0.45312,-1.28125 -0.39063,-0.45312 -1.07813,-0.45312 z m 6.93555,0.1875 q -0.25,-0.0312 -0.53125,-0.0312 -1.07812,0 -1.45312,0.90625 v 4.5 h -1.07813 v -6.34375 h 1.04688 l 0.0156,0.73437 q 0.53125,-0.84375 1.51563,-0.84375 0.3125,0 0.48437,0.0781 z"
       fill-rule="nonzero"
       id="path119" />
    <path
       fill="#000000"
       fill-opacity="0"
       d="m 275.07086,199.48032 -33.60629,43.2441"
       fill-rule="evenodd"
       id="path121" />
    <path
       stroke="#8993a5"
       stroke-width="2"
       stroke-linejoin="round"
       stroke-linecap="butt"
       d="m 275.07086,199.48032 -26.24284,33.76891"
       fill-rule="evenodd"
       id="path123" />
    <path
       fill="#8993a5"
       stroke="#8993a5"
       stroke-width="2"
       stroke-linecap="butt"
       d="m 246.21962,231.22214 -2.96094,9.19363 8.17777,-5.13948 z"
       fill-rule="evenodd"
       id="path125" />
    <path
       fill="#000000"
       fill-opacity="0"
       d="m 275.07086,199.48032 32.97638,43.2441"
       fill-rule="evenodd"
       id="path127" />
    <path
       stroke="#8993a5"
       stroke-width="2"
       stroke-linejoin="round"
       stroke-linecap="butt"
       d="m 275.07086,199.48032 25.69989,33.70195"
       fill-rule="evenodd"
       id="path129" />
    <path
       fill="#8993a5"
       stroke="#8993a5"
       stroke-width="2"
       stroke-linecap="butt"
       d="m 298.1439,235.1854 8.13043,5.21407 -2.87674,-9.22034 z"
       fill-rule="evenodd"
       id="path131" />
    <path
       fill="#000000"
       fill-opacity="0"
       d="m 418.06824,199.48032 -33.29132,43.2441"
       fill-rule="evenodd"
       id="path133" />
    <path
       stroke="#8993a5"
       stroke-width="2"
       stroke-linejoin="round"
       stroke-linecap="butt"
       d="m 418.06824,199.48032 -25.97113,33.73544"
       fill-rule="evenodd"
       id="path135" />
    <path
       fill="#8993a5"
       stroke="#8993a5"
       stroke-width="2"
       stroke-linecap="butt"
       d="m 389.4795,231.20058 -2.91901,9.20705 8.15427,-5.1767 z"
       fill-rule="evenodd"
       id="path137" />
    <path
       fill="#000000"
       fill-opacity="0"
       d="m 418.06824,199.48032 33.29135,43.2441"
       fill-rule="evenodd"
       id="path139" />
    <path
       stroke="#8993a5"
       stroke-width="2"
       stroke-linejoin="round"
       stroke-linecap="butt"
       d="m 418.06824,199.48032 25.97113,33.73544"
       fill-rule="evenodd"
       id="path141" />
    <path
       fill="#8993a5"
       stroke="#8993a5"
       stroke-width="2"
       stroke-linecap="butt"
       d="m 441.42175,235.23093 8.15427,5.1767 -2.91904,-9.20705 z"
       fill-rule="evenodd"
       id="path143" />
    <path
       fill="#ffffff"
       d="m 559.7953,181.65886 v 0 c 0,-1.96855 1.59583,-3.56438 3.56439,-3.56438 h 79.42243 c 0.94531,0 1.85192,0.37554 2.52038,1.04399 0.66846,0.66845 1.04395,1.57506 1.04395,2.52039 v 14.25708 c 0,1.96855 -1.59583,3.56438 -3.56433,3.56438 h -79.42243 c -1.96856,0 -3.56439,-1.59583 -3.56439,-3.56438 z"
       fill-rule="evenodd"
       id="path145" />
    <path
       stroke="#086dd7"
       stroke-width="1"
       stroke-linejoin="round"
       stroke-linecap="butt"
       d="m 559.7953,181.65886 v 0 c 0,-1.96855 1.59583,-3.56438 3.56439,-3.56438 h 79.42243 c 0.94531,0 1.85192,0.37554 2.52038,1.04399 0.66846,0.66845 1.04395,1.57506 1.04395,2.52039 v 14.25708 c 0,1.96855 -1.59583,3.56438 -3.56433,3.56438 h -79.42243 c -1.96856,0 -3.56439,-1.59583 -3.56439,-3.56438 z"
       fill-rule="evenodd"
       id="path147" />
    <path
       fill="#000000"
       d="m 586.9986,182.65552 h -5.3125 v 14.67187 h -2.95313 v -14.67187 h -5.26562 v -2.39063 h 13.53125 z m 6.50781,14.90625 q -2.70312,0 -4.39062,-1.70313 -1.6875,-1.70312 -1.6875,-4.54687 v -0.34375 q 0,-1.90625 0.73437,-3.39063 0.73438,-1.5 2.0625,-2.32812 1.32813,-0.84375 2.95313,-0.84375 2.59375,0 4,1.65625 1.40625,1.65625 1.40625,4.67187 v 1.15625 h -8.28125 q 0.125,1.5625 1.04687,2.48438 0.92188,0.90625 2.3125,0.90625 1.96875,0 3.1875,-1.57813 l 1.54688,1.46875 q -0.76563,1.14063 -2.04688,1.76563 -1.26562,0.625 -2.84375,0.625 z m -0.34375,-10.85938 q -1.17187,0 -1.89062,0.82813 -0.71875,0.8125 -0.92188,2.26562 h 5.42188 v -0.20312 q -0.0937,-1.4375 -0.76563,-2.15625 -0.65625,-0.73438 -1.84375,-0.73438 z m 15.20703,10.625 q -0.1875,-0.35937 -0.32812,-1.1875 -1.35938,1.42188 -3.32813,1.42188 -1.90625,0 -3.10937,-1.09375 -1.20313,-1.09375 -1.20313,-2.6875 0,-2.03125 1.5,-3.10938 1.5,-1.09375 4.3125,-1.09375 h 1.73438 v -0.82812 q 0,-0.98438 -0.54688,-1.57813 -0.54687,-0.59375 -1.67187,-0.59375 -0.96875,0 -1.59375,0.48438 -0.625,0.48437 -0.625,1.23437 h -2.84375 q 0,-1.03125 0.6875,-1.9375 0.6875,-0.92187 1.875,-1.4375 1.20312,-0.51562 2.65625,-0.51562 2.23437,0 3.54687,1.125 1.32813,1.125 1.375,3.14062 v 5.71875 q 0,1.71875 0.46875,2.73438 v 0.20312 z m -3.125,-2.04687 q 0.84375,0 1.57813,-0.40625 0.75,-0.42188 1.125,-1.10938 v -2.39062 h -1.53125 q -1.57813,0 -2.375,0.54687 -0.79688,0.54688 -0.79688,1.5625 0,0.8125 0.54688,1.3125 0.54687,0.48438 1.45312,0.48438 z m 11.21875,-10.64063 0.0781,1.32813 q 1.34375,-1.5625 3.65625,-1.5625 2.54687,0 3.48437,1.95312 1.375,-1.95312 3.89063,-1.95312 2.09375,0 3.10937,1.17187 1.03125,1.15625 1.0625,3.42188 v 8.32812 h -2.84375 v -8.25 q 0,-1.20312 -0.53125,-1.76562 -0.53125,-0.5625 -1.75,-0.5625 -0.96875,0 -1.59375,0.51562 -0.60937,0.51563 -0.85937,1.35938 l 0.0156,8.70312 h -2.84375 v -8.34375 q -0.0625,-2.23437 -2.28125,-2.23437 -1.71875,0 -2.4375,1.39062 v 9.1875 h -2.84375 v -12.6875 z"
       fill-rule="nonzero"
       id="path149" />
    <path
       fill="#ffffff"
       d="m 702.79266,181.65886 v 0 c 0,-1.96855 1.59583,-3.56438 3.56439,-3.56438 h 79.42243 c 0.94531,0 1.85192,0.37554 2.52038,1.04399 0.66846,0.66845 1.04395,1.57506 1.04395,2.52039 v 14.25708 c 0,1.96855 -1.59583,3.56438 -3.56433,3.56438 h -79.42243 c -1.96856,0 -3.56439,-1.59583 -3.56439,-3.56438 z"
       fill-rule="evenodd"
       id="path151" />
    <path
       stroke="#086dd7"
       stroke-width="1"
       stroke-linejoin="round"
       stroke-linecap="butt"
       d="m 702.79266,181.65886 v 0 c 0,-1.96855 1.59583,-3.56438 3.56439,-3.56438 h 79.42243 c 0.94531,0 1.85192,0.37554 2.52038,1.04399 0.66846,0.66845 1.04395,1.57506 1.04395,2.52039 v 14.25708 c 0,1.96855 -1.59583,3.56438 -3.56433,3.56438 h -79.42243 c -1.96856,0 -3.56439,-1.59583 -3.56439,-3.56438 z"
       fill-rule="evenodd"
       id="path153" />
    <path
       fill="#000000"
       d="m 729.996,182.65552 h -5.3125 v 14.67187 h -2.95313 v -14.67187 h -5.26562 v -2.39063 H 729.996 Z m 6.50781,14.90625 q -2.70312,0 -4.39062,-1.70313 -1.6875,-1.70312 -1.6875,-4.54687 v -0.34375 q 0,-1.90625 0.73437,-3.39063 0.73438,-1.5 2.0625,-2.32812 1.32813,-0.84375 2.95313,-0.84375 2.59375,0 4,1.65625 1.40625,1.65625 1.40625,4.67187 v 1.15625 h -8.28125 q 0.125,1.5625 1.04687,2.48438 0.92188,0.90625 2.3125,0.90625 1.96875,0 3.1875,-1.57813 l 1.54688,1.46875 q -0.76563,1.14063 -2.04688,1.76563 -1.26562,0.625 -2.84375,0.625 z m -0.34375,-10.85938 q -1.17187,0 -1.89062,0.82813 -0.71875,0.8125 -0.92188,2.26562 h 5.42188 v -0.20312 q -0.0937,-1.4375 -0.76563,-2.15625 -0.65625,-0.73438 -1.84375,-0.73438 z m 15.20703,10.625 q -0.1875,-0.35937 -0.32812,-1.1875 -1.35938,1.42188 -3.32813,1.42188 -1.90625,0 -3.10937,-1.09375 -1.20313,-1.09375 -1.20313,-2.6875 0,-2.03125 1.5,-3.10938 1.5,-1.09375 4.3125,-1.09375 h 1.73438 v -0.82812 q 0,-0.98438 -0.54688,-1.57813 -0.54687,-0.59375 -1.67187,-0.59375 -0.96875,0 -1.59375,0.48438 -0.625,0.48437 -0.625,1.23437 h -2.84375 q 0,-1.03125 0.6875,-1.9375 0.6875,-0.92187 1.875,-1.4375 1.20312,-0.51562 2.65625,-0.51562 2.23437,0 3.54687,1.125 1.32813,1.125 1.375,3.14062 v 5.71875 q 0,1.71875 0.46875,2.73438 v 0.20312 z m -3.125,-2.04687 q 0.84375,0 1.57813,-0.40625 0.75,-0.42188 1.125,-1.10938 v -2.39062 h -1.53125 q -1.57813,0 -2.375,0.54687 -0.79688,0.54688 -0.79688,1.5625 0,0.8125 0.54688,1.3125 0.54687,0.48438 1.45312,0.48438 z m 11.21875,-10.64063 0.0781,1.32813 q 1.34375,-1.5625 3.65625,-1.5625 2.54687,0 3.48437,1.95312 1.375,-1.95312 3.89063,-1.95312 2.09375,0 3.10937,1.17187 1.03125,1.15625 1.0625,3.42188 v 8.32812 h -2.84375 v -8.25 q 0,-1.20312 -0.53125,-1.76562 -0.53125,-0.5625 -1.75,-0.5625 -0.96875,0 -1.59375,0.51562 -0.60937,0.51563 -0.85937,1.35938 l 0.0156,8.70312 h -2.84375 v -8.34375 q -0.0625,-2.23437 -2.28125,-2.23437 -1.71875,0 -2.4375,1.39062 v 9.1875 h -2.84375 v -12.6875 z"
       fill-rule="nonzero"
       id="path155" />
    <path
       fill="#000000"
       fill-opacity="0"
       d="m 666.5066,128.30446 -63.4331,49.79527"
       fill-rule="evenodd"
       id="path157" />
    <path
       stroke="#8993a5"
       stroke-width="2"
       stroke-linejoin="round"
       stroke-linecap="butt"
       d="m 666.5066,128.30446 -53.99402,42.38556"
       fill-rule="evenodd"
       id="path159" />
    <path
       fill="#8993a5"
       stroke="#8993a5"
       stroke-width="2"
       stroke-linecap="butt"
       d="m 610.4728,168.09155 -5.09943,8.20281 9.17902,-3.00588 z"
       fill-rule="evenodd"
       id="path161" />
    <path
       fill="#000000"
       fill-opacity="0"
       d="m 666.5066,128.30446 95.55902,49.79527"
       fill-rule="evenodd"
       id="path163" />
    <path
       stroke="#8993a5"
       stroke-width="2"
       stroke-linejoin="round"
       stroke-linecap="butt"
       d="m 666.5066,128.30446 84.91724,44.24988"
       fill-rule="evenodd"
       id="path165" />
    <path
       fill="#8993a5"
       stroke="#8993a5"
       stroke-width="2"
       stroke-linecap="butt"
       d="m 749.8972,175.48392 9.5755,1.26468 -6.52234,-7.12383 z"
       fill-rule="evenodd"
       id="path167" />
    <path
       fill="#ffffff"
       d="m 536.17584,242.73491 h 66.5827 v 21.38582 h -66.5827 z"
       fill-rule="evenodd"
       id="path169" />
    <path
       stroke="#086dd7"
       stroke-width="1"
       stroke-linejoin="round"
       stroke-linecap="butt"
       d="m 536.17584,242.73491 h 66.5827 v 21.38582 h -66.5827 z"
       fill-rule="evenodd"
       id="path171" />
    <path
       fill="#000000"
       d="m 549.6537,249.41656 2.79687,6.95312 2.78125,-6.95312 h 1.46875 v 8.53125 h -1.125 v -3.32813 l 0.10938,-3.57812 -2.8125,6.90625 h -0.85938 l -2.79687,-6.89063 0.10937,3.5625 v 3.32813 h -1.125 v -8.53125 z m 11.49219,8.65625 q -1.29688,0 -2.10938,-0.84375 -0.79687,-0.85938 -0.79687,-2.28125 v -0.1875 q 0,-0.95313 0.35937,-1.6875 0.35938,-0.75 1,-1.15625 0.65625,-0.42188 1.40625,-0.42188 1.23438,0 1.92188,0.8125 0.6875,0.8125 0.6875,2.32813 v 0.45312 h -4.29688 q 0.0312,0.9375 0.54688,1.51563 0.53125,0.57812 1.34375,0.57812 0.5625,0 0.95312,-0.23437 0.40625,-0.23438 0.71875,-0.625 l 0.65625,0.51562 q -0.79687,1.23438 -2.39062,1.23438 z m -0.14063,-5.6875 q -0.65625,0 -1.10937,0.48437 -0.4375,0.46875 -0.53125,1.32813 h 3.17187 v -0.0781 q -0.0469,-0.82812 -0.45312,-1.28125 -0.39063,-0.45312 -1.07813,-0.45312 z m 4.88867,-0.78125 0.0312,0.70312 q 0.6875,-0.8125 1.875,-0.8125 1.32813,0 1.8125,1.01563 0.3125,-0.45313 0.8125,-0.73438 0.51563,-0.28125 1.20313,-0.28125 2.09375,0 2.125,2.20313 v 4.25 h -1.07813 v -4.1875 q 0,-0.67188 -0.3125,-1 -0.3125,-0.34375 -1.04687,-0.34375 -0.60938,0 -1.01563,0.35937 -0.39062,0.35938 -0.45312,0.96875 v 4.20313 h -1.07813 v -4.15625 q 0,-1.375 -1.35937,-1.375 -1.0625,0 -1.45313,0.90625 v 4.625 h -1.09375 v -6.34375 z m 14.86133,3.25 q 0,1.45312 -0.67187,2.34375 -0.65625,0.875 -1.78125,0.875 -1.20313,0 -1.85938,-0.85938 l -0.0625,0.73438 h -0.98437 v -9 h 1.07812 v 3.35937 q 0.65625,-0.8125 1.8125,-0.8125 1.15625,0 1.8125,0.875 0.65625,0.85938 0.65625,2.39063 z m -1.07812,-0.125 q 0,-1.10938 -0.4375,-1.70313 -0.42188,-0.60937 -1.21875,-0.60937 -1.07813,0 -1.54688,0.98437 v 2.75 q 0.5,1 1.54688,1 0.78125,0 1.21875,-0.60937 0.4375,-0.60938 0.4375,-1.8125 z m 5.07617,3.34375 q -1.29688,0 -2.10938,-0.84375 -0.79687,-0.85938 -0.79687,-2.28125 v -0.1875 q 0,-0.95313 0.35937,-1.6875 0.35938,-0.75 1,-1.15625 0.65625,-0.42188 1.40625,-0.42188 1.23438,0 1.92188,0.8125 0.6875,0.8125 0.6875,2.32813 v 0.45312 h -4.29688 q 0.0312,0.9375 0.54688,1.51563 0.53125,0.57812 1.34375,0.57812 0.5625,0 0.95312,-0.23437 0.40625,-0.23438 0.71875,-0.625 l 0.65625,0.51562 q -0.79687,1.23438 -2.39062,1.23438 z m -0.14063,-5.6875 q -0.65625,0 -1.10937,0.48437 -0.4375,0.46875 -0.53125,1.32813 h 3.17187 v -0.0781 q -0.0469,-0.82812 -0.45312,-1.28125 -0.39063,-0.45312 -1.07813,-0.45312 z m 6.93555,0.1875 q -0.25,-0.0312 -0.53125,-0.0312 -1.07812,0 -1.45312,0.90625 v 4.5 h -1.07813 v -6.34375 h 1.04688 l 0.0156,0.73437 q 0.53125,-0.84375 1.51563,-0.84375 0.3125,0 0.48437,0.0781 z"
       fill-rule="nonzero"
       id="path173" />
    <path
       fill="#ffffff"
       d="m 602.75854,242.73491 h 66.58264 v 21.38582 h -66.58264 z"
       fill-rule="evenodd"
       id="path175" />
    <path
       stroke="#086dd7"
       stroke-width="1"
       stroke-linejoin="round"
       stroke-linecap="butt"
       d="m 602.75854,242.73491 h 66.58264 v 21.38582 h -66.58264 z"
       fill-rule="evenodd"
       id="path177" />
    <path
       fill="#000000"
       d="m 616.2364,249.41656 2.79687,6.95312 2.78125,-6.95312 h 1.46875 v 8.53125 h -1.125 v -3.32813 l 0.10938,-3.57812 -2.8125,6.90625 h -0.85938 l -2.79687,-6.89063 0.10937,3.5625 v 3.32813 h -1.125 v -8.53125 z m 11.49219,8.65625 q -1.29688,0 -2.10938,-0.84375 -0.79687,-0.85938 -0.79687,-2.28125 v -0.1875 q 0,-0.95313 0.35937,-1.6875 0.35938,-0.75 1,-1.15625 0.65625,-0.42188 1.40625,-0.42188 1.23438,0 1.92188,0.8125 0.6875,0.8125 0.6875,2.32813 v 0.45312 h -4.29688 q 0.0312,0.9375 0.54688,1.51563 0.53125,0.57812 1.34375,0.57812 0.5625,0 0.95312,-0.23437 0.40625,-0.23438 0.71875,-0.625 l 0.65625,0.51562 q -0.79687,1.23438 -2.39062,1.23438 z m -0.14063,-5.6875 q -0.65625,0 -1.10937,0.48437 -0.4375,0.46875 -0.53125,1.32813 h 3.17187 v -0.0781 q -0.0469,-0.82812 -0.45312,-1.28125 -0.39063,-0.45312 -1.07813,-0.45312 z m 4.88867,-0.78125 0.0312,0.70312 q 0.6875,-0.8125 1.875,-0.8125 1.32813,0 1.8125,1.01563 0.3125,-0.45313 0.8125,-0.73438 0.51563,-0.28125 1.20313,-0.28125 2.09375,0 2.125,2.20313 v 4.25 h -1.07813 v -4.1875 q 0,-0.67188 -0.3125,-1 -0.3125,-0.34375 -1.04687,-0.34375 -0.60938,0 -1.01563,0.35937 -0.39062,0.35938 -0.45312,0.96875 v 4.20313 h -1.07813 v -4.15625 q 0,-1.375 -1.35937,-1.375 -1.0625,0 -1.45313,0.90625 v 4.625 h -1.09375 v -6.34375 z m 14.86133,3.25 q 0,1.45312 -0.67187,2.34375 -0.65625,0.875 -1.78125,0.875 -1.20313,0 -1.85938,-0.85938 l -0.0625,0.73438 h -0.98437 v -9 h 1.07812 v 3.35937 q 0.65625,-0.8125 1.8125,-0.8125 1.15625,0 1.8125,0.875 0.65625,0.85938 0.65625,2.39063 z m -1.07812,-0.125 q 0,-1.10938 -0.4375,-1.70313 -0.42188,-0.60937 -1.21875,-0.60937 -1.07813,0 -1.54688,0.98437 v 2.75 q 0.5,1 1.54688,1 0.78125,0 1.21875,-0.60937 0.4375,-0.60938 0.4375,-1.8125 z m 5.07617,3.34375 q -1.29688,0 -2.10938,-0.84375 -0.79687,-0.85938 -0.79687,-2.28125 v -0.1875 q 0,-0.95313 0.35937,-1.6875 0.35938,-0.75 1,-1.15625 0.65625,-0.42188 1.40625,-0.42188 1.23438,0 1.92188,0.8125 0.6875,0.8125 0.6875,2.32813 v 0.45312 h -4.29688 q 0.0312,0.9375 0.54688,1.51563 0.53125,0.57812 1.34375,0.57812 0.5625,0 0.95312,-0.23437 0.40625,-0.23438 0.71875,-0.625 l 0.65625,0.51562 q -0.79687,1.23438 -2.39062,1.23438 z m -0.14063,-5.6875 q -0.65625,0 -1.10937,0.48437 -0.4375,0.46875 -0.53125,1.32813 h 3.17187 v -0.0781 q -0.0469,-0.82812 -0.45312,-1.28125 -0.39063,-0.45312 -1.07813,-0.45312 z m 6.93555,0.1875 q -0.25,-0.0312 -0.53125,-0.0312 -1.07812,0 -1.45312,0.90625 v 4.5 h -1.07813 v -6.34375 h 1.04688 l 0.0156,0.73437 q 0.53125,-0.84375 1.51563,-0.84375 0.3125,0 0.48437,0.0781 z"
       fill-rule="nonzero"
       id="path179" />
    <path
       fill="#ffffff"
       d="m 679.48553,242.73491 h 66.5827 v 21.38582 h -66.5827 z"
       fill-rule="evenodd"
       id="path181" />
    <path
       stroke="#086dd7"
       stroke-width="1"
       stroke-linejoin="round"
       stroke-linecap="butt"
       d="m 679.48553,242.73491 h 66.5827 v 21.38582 h -66.5827 z"
       fill-rule="evenodd"
       id="path183" />
    <path
       fill="#000000"
       d="m 692.96344,249.41656 2.79687,6.95312 2.78125,-6.95312 h 1.46875 v 8.53125 h -1.125 v -3.32813 l 0.10938,-3.57812 -2.8125,6.90625 h -0.85938 l -2.79687,-6.89063 0.10937,3.5625 v 3.32813 h -1.125 v -8.53125 z m 11.49219,8.65625 q -1.29688,0 -2.10938,-0.84375 -0.79687,-0.85938 -0.79687,-2.28125 v -0.1875 q 0,-0.95313 0.35937,-1.6875 0.35938,-0.75 1,-1.15625 0.65625,-0.42188 1.40625,-0.42188 1.23438,0 1.92188,0.8125 0.6875,0.8125 0.6875,2.32813 v 0.45312 h -4.29688 q 0.0312,0.9375 0.54688,1.51563 0.53125,0.57812 1.34375,0.57812 0.5625,0 0.95312,-0.23437 0.40625,-0.23438 0.71875,-0.625 l 0.65625,0.51562 q -0.79687,1.23438 -2.39062,1.23438 z m -0.14063,-5.6875 q -0.65625,0 -1.10937,0.48437 -0.4375,0.46875 -0.53125,1.32813 h 3.17187 v -0.0781 q -0.0469,-0.82812 -0.45312,-1.28125 -0.39063,-0.45312 -1.07813,-0.45312 z m 4.88867,-0.78125 0.0312,0.70312 q 0.6875,-0.8125 1.875,-0.8125 1.32813,0 1.8125,1.01563 0.3125,-0.45313 0.8125,-0.73438 0.51563,-0.28125 1.20313,-0.28125 2.09375,0 2.125,2.20313 v 4.25 h -1.07813 v -4.1875 q 0,-0.67188 -0.3125,-1 -0.3125,-0.34375 -1.04687,-0.34375 -0.60938,0 -1.01563,0.35937 -0.39062,0.35938 -0.45312,0.96875 v 4.20313 h -1.07813 v -4.15625 q 0,-1.375 -1.35937,-1.375 -1.0625,0 -1.45313,0.90625 v 4.625 h -1.09375 v -6.34375 z m 14.86133,3.25 q 0,1.45312 -0.67187,2.34375 -0.65625,0.875 -1.78125,0.875 -1.20313,0 -1.85938,-0.85938 l -0.0625,0.73438 h -0.98437 v -9 h 1.07812 v 3.35937 q 0.65625,-0.8125 1.8125,-0.8125 1.15625,0 1.8125,0.875 0.65625,0.85938 0.65625,2.39063 z m -1.07812,-0.125 q 0,-1.10938 -0.4375,-1.70313 -0.42188,-0.60937 -1.21875,-0.60937 -1.07813,0 -1.54688,0.98437 v 2.75 q 0.5,1 1.54688,1 0.78125,0 1.21875,-0.60937 0.4375,-0.60938 0.4375,-1.8125 z m 5.07617,3.34375 q -1.29688,0 -2.10938,-0.84375 -0.79687,-0.85938 -0.79687,-2.28125 v -0.1875 q 0,-0.95313 0.35937,-1.6875 0.35938,-0.75 1,-1.15625 0.65625,-0.42188 1.40625,-0.42188 1.23438,0 1.92188,0.8125 0.6875,0.8125 0.6875,2.32813 v 0.45312 h -4.29688 q 0.0312,0.9375 0.54688,1.51563 0.53125,0.57812 1.34375,0.57812 0.5625,0 0.95312,-0.23437 0.40625,-0.23438 0.71875,-0.625 l 0.65625,0.51562 q -0.79687,1.23438 -2.39062,1.23438 z m -0.14063,-5.6875 q -0.65625,0 -1.10937,0.48437 -0.4375,0.46875 -0.53125,1.32813 h 3.17187 v -0.0781 q -0.0469,-0.82812 -0.45312,-1.28125 -0.39063,-0.45312 -1.07813,-0.45312 z m 6.93555,0.1875 q -0.25,-0.0312 -0.53125,-0.0312 -1.07812,0 -1.45312,0.90625 v 4.5 h -1.07813 v -6.34375 h 1.04688 l 0.0156,0.73437 q 0.53125,-0.84375 1.51563,-0.84375 0.3125,0 0.48437,0.0781 z"
       fill-rule="nonzero"
       id="path185" />
    <path
       fill="#ffffff"
       d="m 746.06824,242.73491 h 66.5827 v 21.38582 h -66.5827 z"
       fill-rule="evenodd"
       id="path187" />
    <path
       stroke="#086dd7"
       stroke-width="1"
       stroke-linejoin="round"
       stroke-linecap="butt"
       d="m 746.06824,242.73491 h 66.5827 v 21.38582 h -66.5827 z"
       fill-rule="evenodd"
       id="path189" />
    <path
       fill="#000000"
       d="m 759.5461,249.41656 2.79688,6.95312 2.78125,-6.95312 h 1.46875 v 8.53125 h -1.125 v -3.32813 l 0.10937,-3.57812 -2.8125,6.90625 h -0.85937 l -2.79688,-6.89063 0.10938,3.5625 v 3.32813 h -1.125 v -8.53125 z m 11.49219,8.65625 q -1.29688,0 -2.10938,-0.84375 -0.79687,-0.85938 -0.79687,-2.28125 v -0.1875 q 0,-0.95313 0.35937,-1.6875 0.35938,-0.75 1,-1.15625 0.65625,-0.42188 1.40625,-0.42188 1.23438,0 1.92188,0.8125 0.6875,0.8125 0.6875,2.32813 v 0.45312 h -4.29688 q 0.0312,0.9375 0.54688,1.51563 0.53125,0.57812 1.34375,0.57812 0.5625,0 0.95312,-0.23437 0.40625,-0.23438 0.71875,-0.625 l 0.65625,0.51562 q -0.79687,1.23438 -2.39062,1.23438 z m -0.14063,-5.6875 q -0.65625,0 -1.10937,0.48437 -0.4375,0.46875 -0.53125,1.32813 h 3.17187 v -0.0781 q -0.0469,-0.82812 -0.45312,-1.28125 -0.39063,-0.45312 -1.07813,-0.45312 z m 4.88867,-0.78125 0.0312,0.70312 q 0.6875,-0.8125 1.875,-0.8125 1.32813,0 1.8125,1.01563 0.3125,-0.45313 0.8125,-0.73438 0.51563,-0.28125 1.20313,-0.28125 2.09375,0 2.125,2.20313 v 4.25 h -1.07813 v -4.1875 q 0,-0.67188 -0.3125,-1 -0.3125,-0.34375 -1.04687,-0.34375 -0.60938,0 -1.01563,0.35937 -0.39062,0.35938 -0.45312,0.96875 v 4.20313 h -1.07813 v -4.15625 q 0,-1.375 -1.35937,-1.375 -1.0625,0 -1.45313,0.90625 v 4.625 h -1.09375 v -6.34375 z m 14.86133,3.25 q 0,1.45312 -0.67187,2.34375 -0.65625,0.875 -1.78125,0.875 -1.20313,0 -1.85938,-0.85938 l -0.0625,0.73438 h -0.98437 v -9 h 1.07812 v 3.35937 q 0.65625,-0.8125 1.8125,-0.8125 1.15625,0 1.8125,0.875 0.65625,0.85938 0.65625,2.39063 z m -1.07812,-0.125 q 0,-1.10938 -0.4375,-1.70313 -0.42188,-0.60937 -1.21875,-0.60937 -1.07813,0 -1.54688,0.98437 v 2.75 q 0.5,1 1.54688,1 0.78125,0 1.21875,-0.60937 0.4375,-0.60938 0.4375,-1.8125 z m 5.07617,3.34375 q -1.29688,0 -2.10938,-0.84375 -0.79687,-0.85938 -0.79687,-2.28125 v -0.1875 q 0,-0.95313 0.35937,-1.6875 0.35938,-0.75 1,-1.15625 0.65625,-0.42188 1.40625,-0.42188 1.23438,0 1.92188,0.8125 0.6875,0.8125 0.6875,2.32813 v 0.45312 h -4.29688 q 0.0312,0.9375 0.54688,1.51563 0.53125,0.57812 1.34375,0.57812 0.5625,0 0.95312,-0.23437 0.40625,-0.23438 0.71875,-0.625 l 0.65625,0.51562 q -0.79687,1.23438 -2.39062,1.23438 z m -0.14063,-5.6875 q -0.65625,0 -1.10937,0.48437 -0.4375,0.46875 -0.53125,1.32813 h 3.17187 v -0.0781 q -0.0469,-0.82812 -0.45312,-1.28125 -0.39063,-0.45312 -1.07813,-0.45312 z m 6.93555,0.1875 q -0.25,-0.0312 -0.53125,-0.0312 -1.07812,0 -1.45312,0.90625 v 4.5 h -1.07813 v -6.34375 h 1.04688 l 0.0156,0.73437 q 0.53125,-0.84375 1.51563,-0.84375 0.3125,0 0.48437,0.0781 z"
       fill-rule="nonzero"
       id="path191" />
    <path
       fill="#000000"
       fill-opacity="0"
       d="m 603.07086,199.48032 -33.60632,43.2441"
       fill-rule="evenodd"
       id="path193" />
    <path
       stroke="#8993a5"
       stroke-width="2"
       stroke-linejoin="round"
       stroke-linecap="butt"
       d="m 603.07086,199.48032 -26.2428,33.76891"
       fill-rule="evenodd"
       id="path195" />
    <path
       fill="#8993a5"
       stroke="#8993a5"
       stroke-width="2"
       stroke-linecap="butt"
       d="m 574.2196,231.22214 -2.96094,9.19363 8.1778,-5.13948 z"
       fill-rule="evenodd"
       id="path197" />
    <path
       fill="#000000"
       fill-opacity="0"
       d="m 603.07086,199.48032 32.97638,43.2441"
       fill-rule="evenodd"
       id="path199" />
    <path
       stroke="#8993a5"
       stroke-width="2"
       stroke-linejoin="round"
       stroke-linecap="butt"
       d="m 603.07086,199.48032 25.69989,33.70195"
       fill-rule="evenodd"
       id="path201" />
    <path
       fill="#8993a5"
       stroke="#8993a5"
       stroke-width="2"
       stroke-linecap="butt"
       d="m 626.1439,235.1854 8.13043,5.21407 -2.87677,-9.22034 z"
       fill-rule="evenodd"
       id="path203" />
    <path
       fill="#000000"
       fill-opacity="0"
       d="m 746.06824,199.48032 -33.29132,43.2441"
       fill-rule="evenodd"
       id="path205" />
    <path
       stroke="#8993a5"
       stroke-width="2"
       stroke-linejoin="round"
       stroke-linecap="butt"
       d="m 746.06824,199.48032 -25.97113,33.73544"
       fill-rule="evenodd"
       id="path207" />
    <path
       fill="#8993a5"
       stroke="#8993a5"
       stroke-width="2"
       stroke-linecap="butt"
       d="m 717.4795,231.20058 -2.91901,9.20705 8.15424,-5.1767 z"
       fill-rule="evenodd"
       id="path209" />
    <path
       fill="#000000"
       fill-opacity="0"
       d="m 746.06824,199.48032 33.29132,43.2441"
       fill-rule="evenodd"
       id="path211" />
    <path
       stroke="#8993a5"
       stroke-width="2"
       stroke-linejoin="round"
       stroke-linecap="butt"
       d="m 746.06824,199.48032 25.97113,33.73544"
       fill-rule="evenodd"
       id="path213" />
    <path
       fill="#8993a5"
       stroke="#8993a5"
       stroke-width="2"
       stroke-linecap="butt"
       d="m 769.42175,235.23093 8.15424,5.1767 -2.91901,-9.20705 z"
       fill-rule="evenodd"
       id="path215" />
  </g>
</svg>
