<?xml version="1.0" encoding="utf-8"?>
<!-- Generator: Adobe Illustrator 17.0.0, SVG Export Plug-In . SVG Version: 6.00 Build 0)  -->
<!DOCTYPE svg PUBLIC "-//W3C//DTD SVG 1.1//EN" "http://www.w3.org/Graphics/SVG/1.1/DTD/svg11.dtd">
<svg version="1.1" xmlns="http://www.w3.org/2000/svg" xmlns:xlink="http://www.w3.org/1999/xlink" x="0px" y="0px" width="200px"
	 height="160px" viewBox="0 0 200 160" enable-background="new 0 0 200 160" xml:space="preserve">
<g id="Engine" display="none">
	<g display="inline">
		<g id="Oval-5-Copy_1_">
			<path fill="#7A8491" d="M100,153.146c-40.333,0-73.146-32.812-73.146-73.146S59.667,6.854,100,6.854S173.146,39.667,173.146,80
				S140.333,153.146,100,153.146z M100,8.854C60.77,8.854,28.854,40.77,28.854,80c0,39.229,31.916,71.146,71.146,71.146
				c39.229,0,71.146-31.916,71.146-71.146C171.146,40.77,139.229,8.854,100,8.854z"/>
		</g>
		<g id="Oval-5_1_">
			<path fill="#7A8491" d="M103.358,136.497c-31.152,0-56.496-25.345-56.496-56.497s25.344-56.497,56.496-56.497
				c31.152,0,56.497,25.344,56.497,56.497S134.511,136.497,103.358,136.497z M103.358,25.503c-30.049,0-54.496,24.447-54.496,54.497
				c0,30.05,24.447,54.497,54.496,54.497c30.05,0,54.497-24.447,54.497-54.497C157.855,49.951,133.408,25.503,103.358,25.503z"/>
		</g>
		<g>
			<g id="Line_9_">
				<path fill="#7A8491" d="M89.994,134.311l-0.83-1.816l0.907-0.417c0.093-0.043,9.317-4.4,10.725-15.03
					c0.93-7.033,1.024-16.019,0.994-23.88l-0.004-1l2-0.008l0.004,1c0.03,7.929-0.065,16.998-1.012,24.149
					c-1.556,11.755-11.455,16.396-11.875,16.588L89.994,134.311z"/>
			</g>
			<g id="Line_8_">
				<path fill="#7A8491" d="M103.749,65.728l-1.999-0.056l0.027-1c0.274-9.779,1.069-16.823,2.502-22.168
					c1.797-6.707,12.591-14.792,13.05-15.133l0.803-0.596l1.193,1.604l-0.803,0.597c-0.106,0.08-10.694,8.01-12.312,14.045
					c-1.391,5.19-2.164,12.087-2.434,21.706L103.749,65.728z"/>
			</g>
			<g id="Line-Copy_12_">
				<path fill="#7A8491" d="M88.131,80.187c-7.103,0-15.166-0.133-21.845-1.018C54.532,77.614,49.891,67.715,49.7,67.294
					l-0.415-0.909l1.816-0.83l0.417,0.907c0.043,0.093,4.399,9.317,15.03,10.724c6.753,0.894,15.025,1.012,22.186,1l1-0.001l0.002,2
					l-1,0.001C88.536,80.187,88.333,80.187,88.131,80.187z"/>
			</g>
			<g id="Line-Copy_11_">
				<path fill="#7A8491" d="M155.848,96.532l-0.598-0.802c-0.086-0.115-8.64-11.51-14.677-13.128
					c-5.481-1.469-12.961-2.256-23.538-2.479l-0.999-0.021l0.042-2l1,0.021c10.741,0.226,18.372,1.035,24.013,2.547
					c6.706,1.797,15.396,13.372,15.763,13.864l0.598,0.802L155.848,96.532z"/>
			</g>
			<g id="Line-Copy-2_8_">
				<path fill="#7A8491" d="M63.01,110.466c-3.432,0-5.784-0.778-5.981-0.846l-0.944-0.324l0.646-1.889l0.945,0.32
					c0.091,0.03,9.218,3.013,17.741-3.518c5.521-4.229,11.696-10.258,17.008-15.597l0.706-0.709l1.417,1.41l-0.705,0.709
					c-5.359,5.386-11.595,11.472-17.209,15.774C71.74,109.547,66.738,110.466,63.01,110.466z"/>
			</g>
			<g id="Line-Copy-2_7_">
				<path fill="#7A8491" d="M113.254,70.525l-1.379-1.449l0.725-0.689c7.371-7.01,13.088-11.593,17.99-14.423
					c6.015-3.472,18.762-1.625,19.302-1.544l0.988,0.147l-0.294,1.978l-0.989-0.146c-0.126-0.02-12.597-1.826-18.007,1.298
					c-4.762,2.749-10.358,7.242-17.611,14.14L113.254,70.525z"/>
			</g>
			<g id="Line-Copy-3_3_">
				<path fill="#7A8491" d="M93.137,69.802l-0.707-0.707c-4.63-4.634-10.477-10.647-14.632-16.07
					c-7.211-9.412-3.493-19.693-3.331-20.126l0.349-0.935l1.871,0.697l-0.346,0.937c-0.036,0.096-3.477,9.699,3.045,18.21
					c4.084,5.331,9.873,11.283,14.459,15.873l0.707,0.708L93.137,69.802z"/>
			</g>
			<g id="Line-Copy-3_2_">
				<path fill="#7A8491" d="M130.83,128.92l-1.979-0.288l0.145-0.99c0.021-0.142,2.029-14.248-1.096-19.66
					c-2.862-4.958-7.661-10.873-15.101-18.615l-0.693-0.722l1.442-1.386l0.692,0.721c7.556,7.862,12.446,13.9,15.392,19.002
					c3.471,6.012,1.431,20.342,1.342,20.949L130.83,128.92z"/>
			</g>
		</g>
		<g id="Oval-6_2_">
			<path fill="#7A8491" d="M103.358,94.319c-7.896,0-14.319-6.424-14.319-14.319s6.423-14.319,14.319-14.319
				c3.35,0,6.607,1.181,9.175,3.325c3.27,2.73,5.145,6.738,5.145,10.994C117.678,87.896,111.254,94.319,103.358,94.319z
				 M103.358,67.681c-6.792,0-12.319,5.526-12.319,12.319s5.526,12.319,12.319,12.319c6.793,0,12.319-5.526,12.319-12.319
				c0-3.662-1.613-7.11-4.426-9.459C109.043,68.696,106.24,67.681,103.358,67.681z"/>
		</g>
	</g>
</g>
<g id="Layer_2" display="none">
	<path display="inline" fill="#7A8491" d="M133.718,148.77H68.042c-1.864,0-4.054-1.265-4.985-2.878l-9.382-16.25l-7.999,4.618
		c-0.568,0.328-1.212,0.501-1.865,0.501l0,0c-1.328,0-2.564-0.714-3.228-1.862l-12.33-21.356c-1.027-1.778-0.414-4.062,1.367-5.091
		l8-4.618l-7.401-12.818c-0.932-1.614-0.932-4.143,0-5.757l32.837-56.877c0.932-1.614,3.122-2.878,4.985-2.878h18.152v-8.543
		c0-2.056,1.671-3.729,3.725-3.729h24.66c2.054,0,3.725,1.673,3.725,3.729v8.543h15.415c1.863,0,4.053,1.264,4.985,2.878
		l32.838,56.877c0.933,1.614,0.933,4.143,0,5.757l-8.085,14.004l5.946,3.433c0.862,0.498,1.479,1.302,1.738,2.262
		c0.259,0.962,0.127,1.967-0.371,2.829l-12.33,21.356c-0.662,1.146-1.902,1.857-3.236,1.857c-0.651,0-1.293-0.172-1.855-0.496
		l-5.946-3.433l-8.698,15.064C137.771,147.505,135.582,148.77,133.718,148.77z M54.406,126.909l10.382,17.982
		c0.577,1,2.098,1.878,3.253,1.878h65.676c1.156,0,2.676-0.877,3.253-1.878l9.698-16.797l7.679,4.433
		c0.794,0.459,1.906,0.155,2.359-0.629l12.33-21.356c0.23-0.399,0.292-0.864,0.172-1.309c-0.12-0.446-0.406-0.818-0.807-1.05
		l-7.679-4.433l9.085-15.736c0.578-1.001,0.578-2.756,0-3.757l-32.838-56.877c-0.578-1-2.098-1.878-3.253-1.878h-17.415V14.959
		c0-0.954-0.773-1.729-1.725-1.729h-24.66c-0.951,0-1.725,0.775-1.725,1.729v10.543H68.042c-1.155,0-2.676,0.878-3.253,1.878
		L31.951,84.258c-0.578,1.001-0.578,2.756,0,3.757l8.401,14.551l-9.731,5.618c-0.826,0.477-1.11,1.535-0.635,2.358l12.33,21.356
		c0.307,0.532,0.88,0.862,1.495,0.862l0,0c0.302,0,0.601-0.08,0.865-0.233L54.406,126.909z"/>
	
		<rect x="98.103" y="123.861" transform="matrix(0.5026 0.8645 -0.8645 0.5026 169.6024 -45.0668)" display="inline" fill="#7A8491" width="51.727" height="2"/>
	
		<rect x="55.593" y="47.537" transform="matrix(0.5026 0.8645 -0.8645 0.5026 81.5476 -44.6673)" display="inline" fill="#7A8491" width="47.999" height="2"/>
	
		<rect x="77.82" y="99.105" transform="matrix(0.8586 0.5127 -0.5127 0.8586 74.9529 -22.8083)" display="inline" fill="#7A8491" width="2" height="50.713"/>
	
		<rect x="122.634" y="25.382" transform="matrix(0.8586 0.5126 -0.5126 0.8586 42.7915 -56.392)" display="inline" fill="#7A8491" width="1.999" height="48.005"/>
	<rect x="120.049" y="85.525" display="inline" fill="#7A8491" width="50.262" height="2"/>
	<rect x="32.49" y="85.525" display="inline" fill="#7A8491" width="49.156" height="2"/>
	<path display="inline" fill="#7A8491" d="M100.879,106.297c-11.117,0-20.161-9.044-20.161-20.161
		c0-11.117,9.044-20.161,20.161-20.161s20.161,9.044,20.161,20.161C121.04,97.253,111.996,106.297,100.879,106.297z M100.879,67.975
		c-10.014,0-18.161,8.147-18.161,18.161s8.147,18.161,18.161,18.161c10.014,0,18.161-8.147,18.161-18.161
		S110.894,67.975,100.879,67.975z"/>
</g>
<g id="Layer_3" display="none">
	<path display="inline" fill="#7A8491" d="M160.471,146.086h-8.934c-4.007,0-7.267-2.599-7.267-5.793v-16.732h-90v16.732
		c0,3.194-3.26,5.793-7.267,5.793H38.07c-4.007,0-7.267-2.599-7.267-5.793V17.4c0-3.194,3.26-5.793,7.267-5.793h8.933
		c4.007,0,7.267,2.599,7.267,5.793v32.109h90V17.4c0-3.194,3.26-5.793,7.267-5.793h8.934c4.007,0,7.267,2.599,7.267,5.793v122.893
		C167.737,143.487,164.478,146.086,160.471,146.086z M52.27,121.561h94v18.732c0,2.092,2.362,3.793,5.267,3.793h8.934
		c2.904,0,5.267-1.701,5.267-3.793V17.4c0-2.091-2.362-3.793-5.267-3.793h-8.934c-2.904,0-5.267,1.702-5.267,3.793v34.109h-94V17.4
		c0-2.091-2.363-3.793-5.267-3.793H38.07c-2.904,0-5.267,1.702-5.267,3.793v122.893c0,2.092,2.363,3.793,5.267,3.793h8.933
		c2.904,0,5.267-1.701,5.267-3.793V121.561z M146.271,107.104h-94V65.967h94V107.104z M54.27,105.104h90V67.967h-90V105.104z"/>
	<path display="inline" fill="#7A8491" d="M76.886,48.59h-2V21.395c0-0.625-0.6-1.133-1.337-1.133H55.386v-2h18.163
		c1.84,0,3.337,1.405,3.337,3.133V48.59z"/>
	<path display="inline" fill="#7A8491" d="M100.593,48.59h-2V21.395c0-1.728,1.497-3.133,3.337-3.133h43.341v2H101.93
		c-0.737,0-1.337,0.508-1.337,1.133V48.59z"/>
	<rect x="74.886" y="66.967" display="inline" fill="#7A8491" width="2" height="36.842"/>
	<rect x="98.271" y="66.967" display="inline" fill="#7A8491" width="2" height="36.842"/>
	<rect x="121.432" y="66.967" display="inline" fill="#7A8491" width="2" height="36.842"/>
	<rect x="121.432" y="19.262" display="inline" fill="#7A8491" width="2" height="31.247"/>
</g>
<g id="Layer_4" display="none">
	<g id="Stroke-2_2_" display="inline">
		<path fill="#7A8491" d="M60.62,126.418c-4.925,0-9.539-0.78-13.714-2.32c-18.824-6.515-31.484-24.238-31.484-44.096
			c0-19.982,12.663-37.708,31.509-44.108c4.156-1.531,8.772-2.311,13.697-2.311c2.396,0,4.86,0.188,7.325,0.559l81.505,10.613
			c21.325,2.132,35.123,15.969,35.123,35.248c0,19.662-13.138,32.837-35.144,35.247l-81.504,10.613
			C65.483,126.229,63.016,126.418,60.62,126.418z M60.626,35.582c-4.688,0-9.072,0.739-13.029,2.196
			c-18.059,6.133-30.176,23.098-30.176,42.223c0,19.006,12.12,35.97,30.158,42.212c3.972,1.465,8.353,2.204,13.041,2.204
			c2.297,0,4.665-0.181,7.035-0.537l81.544-10.618c20.909-2.289,33.381-14.723,33.381-33.261c0-18.179-13.091-31.235-33.352-33.261
			l-81.554-10.62C65.288,35.763,62.923,35.582,60.626,35.582z M61.978,110.458c-16.794,0-30.457-13.663-30.457-30.457
			c0-16.796,13.663-30.46,30.457-30.46s30.457,13.665,30.457,30.46C92.435,96.795,78.772,110.458,61.978,110.458z M61.978,51.541
			c-15.691,0-28.457,12.767-28.457,28.46c0,15.691,12.766,28.457,28.457,28.457c15.691,0,28.457-12.766,28.457-28.457
			C90.435,64.308,77.669,51.541,61.978,51.541z M150.693,98.812c-10.561,0-19.152-8.593-19.152-19.155s8.592-19.156,19.152-19.156
			c10.562,0,19.155,8.593,19.155,19.156S161.256,98.812,150.693,98.812z M150.693,62.501c-9.458,0-17.152,7.696-17.152,17.156
			c0,9.459,7.694,17.155,17.152,17.155c9.459,0,17.155-7.696,17.155-17.155C167.849,70.198,160.152,62.501,150.693,62.501z"/>
	</g>
</g>
<g id="Layer_5">
	<g>
		<path fill="#7A8491" d="M113.841,58.223H86.38L72.65,34.441l11.983-20.756c0.979-1.696,3.281-3.025,5.24-3.025h20.475
			c1.96,0,4.261,1.329,5.239,3.025l11.983,20.756L113.841,58.223z M87.535,56.223h25.152l12.575-21.782l-11.407-19.756
			c-0.622-1.079-2.261-2.025-3.507-2.025H89.873c-1.246,0-2.885,0.946-3.507,2.025L74.959,34.441L87.535,56.223z"/>
	</g>
	<g id="Top-Left_4_">
		<path fill="#7A8491" d="M74.341,81.005h-27.46L34.897,60.248c-0.979-1.696-0.979-4.353,0-6.05l10.237-17.731
			c0.979-1.696,3.281-3.025,5.24-3.025h23.967l13.731,23.782L74.341,81.005z M48.036,79.005h25.151l12.576-21.782L73.187,35.441
			H50.374c-1.246,0-2.885,0.946-3.507,2.025L36.629,55.198c-0.623,1.079-0.623,2.971,0,4.05L48.036,79.005z"/>
	</g>
	<g id="Top-Right_4_">
		<path fill="#7A8491" d="M153.119,81.005h-27.461l-13.729-23.782l13.729-23.782h23.968c1.958,0,4.26,1.329,5.239,3.025
			l10.237,17.731c0.979,1.696,0.979,4.354,0,6.05L153.119,81.005z M126.812,79.005h25.152l11.405-19.757
			c0.623-1.079,0.623-2.971,0-4.049l-10.237-17.732c-0.623-1.079-2.262-2.025-3.507-2.025h-22.813l-12.575,21.782L126.812,79.005z"
			/>
	</g>
	<g id="Top_1_">
		<path fill="#7A8491" d="M110.348,149.34H89.873c-1.958,0-4.26-1.328-5.239-3.024L72.65,125.559l13.73-23.781h27.46l13.729,23.781
			l-11.983,20.757C114.608,148.012,112.307,149.34,110.348,149.34z M74.959,125.559l11.406,19.757
			c0.623,1.078,2.262,2.024,3.507,2.024h20.475c1.246,0,2.885-0.946,3.507-2.024l11.407-19.757l-12.575-21.781H87.535
			L74.959,125.559z"/>
	</g>
	<g id="Top-Left_1_">
		<path fill="#7A8491" d="M149.626,126.559h-23.968l-13.729-23.781l13.729-23.782h27.461l11.983,20.757
			c0.979,1.695,0.979,4.353,0,6.05l-10.237,17.731C153.886,125.229,151.585,126.559,149.626,126.559z M126.812,124.559h22.813
			c1.246,0,2.885-0.946,3.507-2.025l10.237-17.731c0.623-1.079,0.623-2.972,0-4.05l-11.405-19.757h-25.152l-12.575,21.782
			L126.812,124.559z"/>
	</g>
	<g id="Top-Right_1_">
		<path fill="#7A8491" d="M74.341,126.559H50.374c-1.958,0-4.26-1.329-5.24-3.025l-10.237-17.731c-0.979-1.695-0.979-4.353,0-6.05
			l11.984-20.757h27.46l13.731,23.782L74.341,126.559z M48.036,80.995l-11.406,19.757c-0.623,1.079-0.623,2.972,0,4.05
			l10.237,17.731c0.623,1.079,2.262,2.025,3.507,2.025h22.813l12.576-21.781L73.187,80.995H48.036z"/>
	</g>
</g>
</svg>
