<svg version="1.1" xmlns="http://www.w3.org/2000/svg" viewBox="0 0 2519.503906249999 532.9010416666679" width="2519.503906249999" height="532.9010416666679">
  <!-- svg-source:excalidraw -->
  
  <defs>
    <style class="style-fonts">
      @font-face {
        font-family: "Virgil";
        src: url("https://excalidraw.com/Virgil.woff2");
      }
      @font-face {
        font-family: "Cascadia";
        src: url("https://excalidraw.com/Cascadia.woff2");
      }
      @font-face {
        font-family: "Assistant";
        src: url("https://excalidraw.com/Assistant-Regular.woff2");
      }
    </style>
    
  </defs>
  <rect x="0" y="0" width="2519.503906249999" height="532.9010416666679" fill="#ffffff"></rect><g stroke-linecap="round" transform="translate(358.51562499999966 158.58854166666788) rotate(0 179 137.5)"><path d="M225 34.5 C239.46 49.09, 262.22 63.13, 313 103.5 C357.74 137.86, 359.58 135.2, 313 172.5 C288.88 191.24, 269.62 211.82, 225 240.5 C185.59 270.36, 185.12 276.09, 135 240.5 C102.22 214.17, 68.81 192.14, 45 172.5 C4.55 140.39, -2.87 133.29, 45 103.5 C69.37 83.05, 105.87 52.56, 135 34.5 C183.25 0.68, 176.85 1.9, 225 34.5" stroke="none" stroke-width="0" fill="#4dabf7"></path><path d="M225 34.5 C247.63 46.38, 265.95 62.2, 313 103.5 M225 34.5 C258.45 57.23, 290.11 85.59, 313 103.5 M313 103.5 C354.18 134.54, 356.37 135.97, 313 172.5 M313 103.5 C356.85 138.25, 359.8 134.3, 313 172.5 M313 172.5 C290.24 187.98, 263.74 209.48, 225 240.5 M313 172.5 C286.29 194.89, 258.84 215.19, 225 240.5 M225 240.5 C179.42 277.87, 183.09 273.56, 135 240.5 M225 240.5 C182.55 278.12, 178.41 271.86, 135 240.5 M135 240.5 C115.54 222.93, 94.78 210.6, 45 172.5 M135 240.5 C109.12 224.44, 85.02 204.17, 45 172.5 M45 172.5 C-0.83 134.14, -1.6 140.57, 45 103.5 M45 172.5 C1 134.08, -2.08 134.68, 45 103.5 M45 103.5 C74.06 81.1, 96.17 67.65, 135 34.5 M45 103.5 C71.89 86.12, 95.61 65.18, 135 34.5 M135 34.5 C179.83 -0.17, 179.6 3.31, 225 34.5 M135 34.5 C179.63 -1.72, 176.49 2.02, 225 34.5" stroke="#4dabf7" stroke-width="4" fill="none"></path></g><g stroke-opacity="0.9" fill-opacity="0.9" transform="translate(455.81249999999966 248.0385416666677) rotate(0 81.703125 48.30000000000018)"><text x="81.703125" y="25.760546874999996" font-family="Helvetica, Segoe UI Emoji" font-size="28px" fill="#ffffff" text-anchor="middle" style="white-space: pre;" direction="ltr" dominant-baseline="alphabetic">Account </text><text x="81.703125" y="57.96054687499999" font-family="Helvetica, Segoe UI Emoji" font-size="28px" fill="#ffffff" text-anchor="middle" style="white-space: pre;" direction="ltr" dominant-baseline="alphabetic">exists in </text><text x="81.703125" y="90.160546875" font-family="Helvetica, Segoe UI Emoji" font-size="28px" fill="#ffffff" text-anchor="middle" style="white-space: pre;" direction="ltr" dominant-baseline="alphabetic">Docker Hub?</text></g><g stroke-opacity="0.9" fill-opacity="0.9" stroke-linecap="round" transform="translate(827.6607142857139 84.42113095238165) rotate(0 106.5 76)"><path d="M7.86 8.16 C7.86 8.16, 7.86 8.16, 7.86 8.16 M7.86 8.16 C7.86 8.16, 7.86 8.16, 7.86 8.16 M2.35 20.59 C8.16 13.73, 5.01 11.93, 18.1 2.48 M2.35 20.59 C9.1 15.42, 11.49 7.09, 18.1 2.48 M1.43 27.75 C5.13 21.64, 17.67 7.35, 24.4 1.33 M1.43 27.75 C10.27 17.92, 17.55 9.88, 24.4 1.33 M1.17 34.14 C10.88 20.79, 20.46 7, 30.7 0.18 M1.17 34.14 C11.76 25.29, 17.18 15.71, 30.7 0.18 M0.91 40.54 C14.27 23.12, 29.68 8.89, 36.34 -0.21 M0.91 40.54 C12.87 29.21, 23.84 12.41, 36.34 -0.21 M1.31 46.19 C12.6 30.38, 18.48 21.54, 41.33 0.15 M1.31 46.19 C11.51 33.59, 19.31 24.34, 41.33 0.15 M1.04 52.58 C10.65 39.71, 17.55 28.58, 46.97 -0.25 M1.04 52.58 C12.02 40.72, 20.3 31.47, 46.97 -0.25 M0.78 58.98 C16.19 42.04, 30.59 30.82, 51.96 0.11 M0.78 58.98 C20.16 33.26, 42.29 12.44, 51.96 0.11 M1.18 64.62 C15.25 45.57, 31.39 31.1, 57.6 -0.28 M1.18 64.62 C14.75 49.52, 28.66 32.53, 57.6 -0.28 M0.92 71.02 C20.67 50.97, 37.41 31.09, 62.59 0.08 M0.92 71.02 C22.01 45.78, 48.05 19.63, 62.59 0.08 M0.65 77.42 C12.68 63.15, 23.4 47.52, 67.57 0.44 M0.65 77.42 C20.16 58.46, 35.67 36.75, 67.57 0.44 M1.05 83.06 C22.48 59.94, 46.69 35.57, 73.22 0.04 M1.05 83.06 C21.35 55.96, 42.25 33.56, 73.22 0.04 M0.79 89.46 C19.82 69.12, 39.51 45.16, 78.2 0.41 M0.79 89.46 C22.55 64.01, 40.1 41.37, 78.2 0.41 M0.53 95.86 C26.98 65.58, 47.38 39.66, 83.85 0.01 M0.53 95.86 C26.67 66.97, 49.68 40.87, 83.85 0.01 M0.92 101.5 C21.38 73.45, 39.59 51.03, 88.83 0.37 M0.92 101.5 C35.05 62.42, 68.58 24.43, 88.83 0.37 M0.66 107.9 C33.43 70.84, 73.74 23.94, 94.48 -0.02 M0.66 107.9 C23.43 81.92, 45.39 53.62, 94.48 -0.02 M0.4 114.3 C26.33 90.35, 48.86 59.54, 99.46 0.34 M0.4 114.3 C31.6 78.29, 62.89 43.6, 99.46 0.34 M0.14 120.69 C22.69 99.87, 43.38 70.79, 105.11 -0.06 M0.14 120.69 C33.82 75.42, 73.55 34.18, 105.11 -0.06 M1.19 125.58 C38.84 73.53, 86.44 30.08, 110.09 0.3 M1.19 125.58 C30.64 89.91, 64.35 52.2, 110.09 0.3 M2.24 130.47 C40.76 86.17, 87.62 41.44, 115.74 -0.09 M2.24 130.47 C23.78 105.84, 48.17 80.45, 115.74 -0.09 M3.29 135.36 C36.58 99.71, 70.11 63.54, 120.72 0.27 M3.29 135.36 C43.72 86.89, 85.33 39.57, 120.72 0.27 M5.65 138.74 C55.96 86.08, 97.67 26.43, 126.37 -0.13 M5.65 138.74 C44.53 92.92, 83.59 45.16, 126.37 -0.13 M7.36 142.87 C36.44 109.88, 69.45 72.38, 131.35 0.23 M7.36 142.87 C34.53 110.66, 63.6 78.3, 131.35 0.23 M10.38 145.5 C62.79 82.31, 109.75 27.54, 137 -0.16 M10.38 145.5 C40.08 111.73, 73.16 75.88, 137 -0.16 M14.05 147.37 C42.56 119.34, 76.41 83.62, 141.98 0.2 M14.05 147.37 C46.67 112.33, 79.23 70.24, 141.98 0.2 M17.07 149.99 C66.01 91.29, 117.26 38.16, 147.63 -0.2 M17.07 149.99 C63.9 96.83, 113.36 36.9, 147.63 -0.2 M22.06 150.35 C57.12 116.53, 90.04 69.75, 152.61 0.16 M22.06 150.35 C66.31 102.1, 110.46 52.63, 152.61 0.16 M26.39 151.47 C72.33 99.95, 116.69 46.35, 158.26 -0.23 M26.39 151.47 C71.94 100.42, 113.74 47.92, 158.26 -0.23 M31.38 151.83 C79.13 102.69, 122.99 48.82, 163.24 0.13 M31.38 151.83 C65.53 110.44, 101.24 72.09, 163.24 0.13 M36.36 152.19 C81.01 94.83, 132.9 39.31, 168.89 -0.27 M36.36 152.19 C72.73 108.54, 111.12 66.83, 168.89 -0.27 M41.35 152.55 C74.88 117.86, 104.07 84.48, 173.87 0.09 M41.35 152.55 C76.54 115.65, 107.24 77.85, 173.87 0.09 M46.99 152.15 C85.62 99.73, 127.93 51.32, 178.86 0.45 M46.99 152.15 C88.55 101.24, 132.51 49.91, 178.86 0.45 M51.98 152.51 C97.58 90.95, 148.02 33.66, 183.85 0.81 M51.98 152.51 C80.4 121.44, 107.64 84.56, 183.85 0.81 M57.62 152.12 C84 120.47, 109.4 83.6, 188.83 1.17 M57.62 152.12 C104.1 97.59, 149.86 43.09, 188.83 1.17 M62.61 152.48 C91.11 118.51, 121.26 87.52, 193.17 2.29 M62.61 152.48 C104.36 106.44, 145.14 61.64, 193.17 2.29 M68.25 152.08 C92.02 121.42, 121.43 89.33, 197.5 3.4 M68.25 152.08 C117.67 92.19, 168.51 30.42, 197.5 3.4 M73.24 152.44 C111.58 101.81, 151.69 54.18, 200.52 6.03 M73.24 152.44 C118.01 103.15, 160.78 55.56, 200.52 6.03 M78.88 152.05 C120.99 100.34, 173.01 43.47, 204.19 7.9 M78.88 152.05 C106.98 120.41, 135.42 87.55, 204.19 7.9 M83.87 152.41 C111.24 120.56, 134.91 93.5, 206.55 11.28 M83.87 152.41 C124.34 104.14, 169.49 55.03, 206.55 11.28 M89.51 152.01 C130.18 104.32, 170.22 58.44, 208.92 14.66 M89.51 152.01 C135.53 97.62, 182.19 44.34, 208.92 14.66 M94.5 152.37 C136.51 106.24, 172.03 63.71, 211.28 18.04 M94.5 152.37 C129.49 114.47, 164.39 75.58, 211.28 18.04 M100.14 151.98 C129.96 113.88, 164.7 76.03, 211.67 23.68 M100.14 151.98 C144.9 99.51, 187.59 49.77, 211.67 23.68 M105.13 152.34 C131.39 119.08, 164.03 89.44, 212.72 28.57 M105.13 152.34 C139.61 114.39, 172.22 75.71, 212.72 28.57 M110.77 151.94 C148.46 111.58, 183.58 67.81, 213.12 34.21 M110.77 151.94 C139.51 118.1, 169.73 81.68, 213.12 34.21 M115.76 152.3 C150.34 113.22, 194.13 64.2, 213.51 39.85 M115.76 152.3 C145.51 123.61, 169.4 92.39, 213.51 39.85 M121.4 151.91 C142.71 128.18, 159.72 107.82, 213.25 46.25 M121.4 151.91 C148.59 121.67, 172.74 91.04, 213.25 46.25 M126.39 152.27 C161.56 112.88, 195.49 82.2, 212.99 52.65 M126.39 152.27 C148.7 129.43, 168.27 106.36, 212.99 52.65 M131.38 152.63 C155.5 131.4, 170.71 104.84, 213.38 58.29 M131.38 152.63 C160.03 119.69, 187.47 90.1, 213.38 58.29 M137.02 152.24 C157.62 130.49, 174.01 107.4, 213.12 64.69 M137.02 152.24 C165.06 121.57, 194.51 88.18, 213.12 64.69 M142.01 152.6 C154.51 137.06, 170.42 114.05, 213.52 70.33 M142.01 152.6 C154.96 136.12, 168.84 121.42, 213.52 70.33 M147.65 152.2 C173.71 124.57, 198.47 90.61, 213.26 76.73 M147.65 152.2 C166.45 132.39, 182.61 113.91, 213.26 76.73 M152.64 152.56 C166.73 134.88, 179.56 120.28, 213 83.13 M152.64 152.56 C174.45 128.39, 193.76 106.15, 213 83.13 M158.28 152.17 C171.77 131.68, 193.68 108.75, 213.39 88.77 M158.28 152.17 C178.37 126.46, 200.38 101.33, 213.39 88.77 M163.27 152.53 C174.18 132.4, 191.22 117.82, 213.13 95.17 M163.27 152.53 C182.46 134.06, 199.76 113.35, 213.13 95.17 M168.91 152.13 C178.36 139.69, 194.31 120.85, 212.87 101.57 M168.91 152.13 C177.04 142.41, 186.36 128.57, 212.87 101.57 M173.9 152.49 C183.82 137.88, 195.24 131.7, 213.26 107.21 M173.9 152.49 C183.89 139.98, 198.25 123.92, 213.26 107.21 M179.54 152.1 C191.08 138.17, 202.83 125.75, 213 113.61 M179.54 152.1 C191.03 139.13, 205.68 122.37, 213 113.61 M184.53 152.46 C191.09 140.32, 202.55 131.37, 212.74 120.01 M184.53 152.46 C191.63 144.3, 201.43 132.62, 212.74 120.01 M190.83 151.31 C199.12 141.69, 210.96 134.02, 213.13 125.65 M190.83 151.31 C196.23 144.44, 203.17 138.36, 213.13 125.65 M198.44 148.65 C203.87 142.43, 202.37 139.63, 208.28 137.33 M198.44 148.65 C200.52 145.04, 203.42 143.38, 208.28 137.33" stroke="#a5d8ff" stroke-width="0.5" fill="none"></path><path d="M32 0 C66.88 3.37, 98.18 2.85, 181 0 M32 0 C59.94 -2.71, 90.88 -1.99, 181 0 M181 0 C201.33 0.22, 214.57 7.45, 213 32 M181 0 C200.58 0.59, 211.28 10.8, 213 32 M213 32 C211.57 55.27, 213.12 76.68, 213 120 M213 32 C211.52 65.18, 213.36 94.78, 213 120 M213 120 C215.22 144.04, 200.95 149.27, 181 152 M213 120 C210.08 142.54, 205.61 154.52, 181 152 M181 152 C145.62 156.63, 114.52 153.28, 32 152 M181 152 C123.68 150.27, 66.39 153.48, 32 152 M32 152 C11.54 148.6, -1.8 138.44, 0 120 M32 152 C10.5 148.97, -3.77 143.04, 0 120 M0 120 C0.39 98.89, 0.85 84.85, 0 32 M0 120 C-0.24 87.21, -0.36 56.24, 0 32 M0 32 C-0.32 9.17, 7.62 1.75, 32 0 M0 32 C-3.79 7.52, 10.8 -2.76, 32 0" stroke="#1e1e1e" stroke-width="1" fill="none"></path></g><g stroke-opacity="0.9" fill-opacity="0.9" transform="translate(843.1060267857139 128.22113095238183) rotate(0 91.0546875 32.19999999999982)"><text x="91.0546875" y="25.760546874999996" font-family="Helvetica, Segoe UI Emoji" font-size="28px" fill="#1e1e1e" text-anchor="middle" style="white-space: pre;" direction="ltr" dominant-baseline="alphabetic">Update profile </text><text x="91.0546875" y="57.96054687499999" font-family="Helvetica, Segoe UI Emoji" font-size="28px" fill="#1e1e1e" text-anchor="middle" style="white-space: pre;" direction="ltr" dominant-baseline="alphabetic">(if needed)</text></g><g stroke-opacity="0.9" fill-opacity="0.9" stroke-linecap="round" transform="translate(10 210.60221354166788) rotate(0 125.33984374999994 80.2109375)"><path d="M32 0 C86.31 6.11, 142.61 1.78, 218.68 0 C240.03 4.4, 252.36 16.26, 250.68 32 C256.96 48.92, 247.75 72.85, 250.68 128.42 C251.8 148.44, 244.13 164.98, 218.68 160.42 C156.24 154.83, 94.96 150.52, 32 160.42 C14.71 161.95, -3.85 153.01, 0 128.42 C-0.23 97.59, 3.75 70.77, 0 32 C-1.49 15.15, 9.73 -1.62, 32 0" stroke="none" stroke-width="0" fill="#1971c2"></path><path d="M32 0 C89.12 -2.21, 155.53 -4.35, 218.68 0 M32 0 C71.38 2.01, 112.54 0.29, 218.68 0 M218.68 0 C238.49 0.51, 249.18 10.78, 250.68 32 M218.68 0 C238.09 -3.86, 253.01 10.72, 250.68 32 M250.68 32 C253.88 59.52, 253.52 91.85, 250.68 128.42 M250.68 32 C253.28 69.2, 251.48 102.33, 250.68 128.42 M250.68 128.42 C248.14 150.8, 242.86 162.61, 218.68 160.42 M250.68 128.42 C247.51 152.89, 241.16 159.31, 218.68 160.42 M218.68 160.42 C147.82 162.92, 70.67 160.1, 32 160.42 M218.68 160.42 C181.13 161.12, 141.8 161.38, 32 160.42 M32 160.42 C10.52 157.79, -3.28 151.24, 0 128.42 M32 160.42 C6.73 156.89, 4.1 148.64, 0 128.42 M0 128.42 C3.11 105.27, -0.71 81.22, 0 32 M0 128.42 C0.03 99.17, -1.33 72.29, 0 32 M0 32 C-3.3 7.93, 10.78 -2.4, 32 0 M0 32 C-0.29 10.88, 9.58 -0.21, 32 0" stroke="#1971c2" stroke-width="4" fill="none"></path></g><g stroke-opacity="0.9" fill-opacity="0.9" transform="translate(38.15820312499977 268.7350260416679) rotate(0 95.044921875 20.699999999999818)"><text x="0" y="33.120703125" font-family="Helvetica, Segoe UI Emoji" font-size="36px" fill="#ffffff" text-anchor="start" style="white-space: pre;" direction="ltr" dominant-baseline="alphabetic">SSO sign in</text></g><g stroke-linecap="round" transform="translate(1122.5351562499995 168.58854166666788) rotate(0 179.1171875 137.125)"><path d="M225 34.5 C256.85 64.27, 290.5 90.48, 313.23 103.5 C353.6 143.12, 359.32 141.81, 313.23 172.5 C292.41 186.07, 275.27 207.29, 225 239.75 C182.39 271.38, 175.29 275.79, 135 239.75 C112.54 220.06, 79.56 203.04, 45 172.5 C0.68 134.85, 1.9 136.25, 45 103.5 C68.55 87.06, 94.91 61.16, 135 34.5 C178.2 -4.51, 179.9 -2.21, 225 34.5" stroke="none" stroke-width="0" fill="#4dabf7"></path><path d="M225 34.5 C244.78 52.37, 268.98 70.8, 313.23 103.5 M225 34.5 C251.74 57.26, 278.71 78.14, 313.23 103.5 M313.23 103.5 C356.57 134.65, 360.26 138.04, 313.23 172.5 M313.23 103.5 C358.85 139.83, 357.33 140.8, 313.23 172.5 M313.23 172.5 C296.29 190.96, 271.46 205.73, 225 239.75 M313.23 172.5 C279.05 196.55, 249.3 221.85, 225 239.75 M225 239.75 C177.24 276.98, 181 273.29, 135 239.75 M225 239.75 C184.47 276.96, 180.62 278.02, 135 239.75 M135 239.75 C99.57 214.25, 74.52 193.2, 45 172.5 M135 239.75 C116.19 222.68, 95.29 210.29, 45 172.5 M45 172.5 C-3.43 134.93, 3.57 137.03, 45 103.5 M45 172.5 C-2.58 137.42, 2.96 141.3, 45 103.5 M45 103.5 C72.96 81.86, 104.26 60.61, 135 34.5 M45 103.5 C68.05 83.22, 93.39 65.26, 135 34.5 M135 34.5 C179.75 0.19, 179.06 -0.19, 225 34.5 M135 34.5 C179.88 1.3, 177.7 -1, 225 34.5" stroke="#4dabf7" stroke-width="4" fill="none"></path></g><g stroke-opacity="0.9" fill-opacity="0.9" transform="translate(1180.8124999999995 273.70416666666733) rotate(0 114.40625 32.19999999999982)"><text x="114.40625" y="25.760546874999996" font-family="Helvetica, Segoe UI Emoji" font-size="28px" fill="#ffffff" text-anchor="middle" style="white-space: pre;" direction="ltr" dominant-baseline="alphabetic">Pending invites to </text><text x="114.40625" y="57.96054687499999" font-family="Helvetica, Segoe UI Emoji" font-size="28px" fill="#ffffff" text-anchor="middle" style="white-space: pre;" direction="ltr" dominant-baseline="alphabetic">the SSO org?</text></g><g stroke-linecap="round" transform="translate(1508.298177083333 10) rotate(0 163.5 139)"><path d="M205 35 C231.61 64.35, 267.99 89.53, 286 105 C322.98 134.6, 325.97 141.12, 286 175 C267.4 192.77, 237.91 215.98, 205 243 C162.81 282.23, 158.49 282.05, 123 243 C98.15 218.93, 72.53 198.07, 41 175 C-0.74 142.23, 2.54 138.51, 41 105 C70.7 74.55, 103.56 50.24, 123 35 C164.26 4.26, 167.64 -5.23, 205 35" stroke="none" stroke-width="0" fill="#4dabf7"></path><path d="M205 35 C225.51 55.12, 243.08 70.18, 286 105 M205 35 C228.98 55.18, 256.17 78.78, 286 105 M286 105 C327.54 141.59, 326.21 142.43, 286 175 M286 105 C323.89 142.38, 326.33 143.3, 286 175 M286 175 C257.67 200.16, 221.68 224.66, 205 243 M286 175 C259.17 199.43, 234.63 219.76, 205 243 M205 243 C167.89 280.35, 164.54 281.28, 123 243 M205 243 C166.29 278.31, 163.05 273.56, 123 243 M123 243 C97.4 223.88, 76.6 207.86, 41 175 M123 243 C103.2 226.15, 87.5 211.28, 41 175 M41 175 C-2.24 139.5, 2.58 142.87, 41 105 M41 175 C0.41 138.91, -0.19 139.8, 41 105 M41 105 C62.13 81.78, 89.17 61.22, 123 35 M41 105 C59.82 89.87, 78.46 73.48, 123 35 M123 35 C163.9 1.13, 162 -0.87, 205 35 M123 35 C166.88 -0.37, 163.32 0.01, 205 35" stroke="#4dabf7" stroke-width="4" fill="none"></path></g><g stroke-opacity="0.9" fill-opacity="0.9" transform="translate(1595.772786458333 84.60000000000036) rotate(0 76.275390625 64.40000000000009)"><text x="76.275390625" y="25.760546874999996" font-family="Helvetica, Segoe UI Emoji" font-size="28px" fill="#ffffff" text-anchor="middle" style="white-space: pre;" direction="ltr" dominant-baseline="alphabetic">Is the user </text><text x="76.275390625" y="57.96054687499999" font-family="Helvetica, Segoe UI Emoji" font-size="28px" fill="#ffffff" text-anchor="middle" style="white-space: pre;" direction="ltr" dominant-baseline="alphabetic">in an SSO </text><text x="76.275390625" y="90.160546875" font-family="Helvetica, Segoe UI Emoji" font-size="28px" fill="#ffffff" text-anchor="middle" style="white-space: pre;" direction="ltr" dominant-baseline="alphabetic">organization</text><text x="76.275390625" y="122.36054687499998" font-family="Helvetica, Segoe UI Emoji" font-size="28px" fill="#ffffff" text-anchor="middle" style="white-space: pre;" direction="ltr" dominant-baseline="alphabetic">?</text></g><g stroke-opacity="0.9" fill-opacity="0.9" stroke-linecap="round" transform="translate(824.7812500000001 370.9010416666679) rotate(0 106.5 76)"><path d="M7.86 8.16 C7.86 8.16, 7.86 8.16, 7.86 8.16 M7.86 8.16 C7.86 8.16, 7.86 8.16, 7.86 8.16 M2.35 20.59 C9.71 10.81, 16.86 7.25, 18.1 2.48 M2.35 20.59 C5.8 17.07, 10.81 11.33, 18.1 2.48 M2.75 26.24 C9.77 13.67, 19.21 5.85, 24.4 1.33 M2.75 26.24 C7.1 20.21, 16.85 9.19, 24.4 1.33 M2.48 32.64 C14.57 20.12, 23.42 7.16, 30.7 0.18 M2.48 32.64 C7.58 23.41, 14.34 17.32, 30.7 0.18 M2.88 38.28 C11.32 24.45, 23.82 11.92, 34.37 2.05 M2.88 38.28 C12.01 27.12, 22.94 15.2, 34.37 2.05 M2.62 44.68 C7.12 34.98, 15.23 23.34, 39.36 2.41 M2.62 44.68 C12.61 33.3, 22.78 21.45, 39.36 2.41 M2.36 51.07 C18.62 38.86, 34.04 20.38, 45 2.02 M2.36 51.07 C19.89 34.39, 34.58 15.83, 45 2.02 M2.75 56.72 C20.19 39.99, 35.07 18.04, 49.99 2.38 M2.75 56.72 C15.24 41.52, 25.85 28.84, 49.99 2.38 M2.49 63.11 C16.41 47.43, 29.74 33.07, 55.63 1.98 M2.49 63.11 C19.08 47.08, 29.19 33.41, 55.63 1.98 M2.23 69.51 C15.15 52.08, 33.35 28.27, 60.62 2.34 M2.23 69.51 C16.97 49.39, 35.73 30.13, 60.62 2.34 M2.62 75.16 C19.65 59.49, 30.33 43.84, 66.26 1.95 M2.62 75.16 C26.6 48.52, 50.68 22.26, 66.26 1.95 M2.36 81.55 C15.92 65.94, 29 50.35, 71.25 2.31 M2.36 81.55 C22.44 56.07, 46.33 28.65, 71.25 2.31 M2.1 87.95 C24.28 59.59, 53.3 28.58, 76.89 1.91 M2.1 87.95 C23.64 63.62, 45.42 34.84, 76.89 1.91 M2.49 93.59 C26.33 61.89, 59.56 34.46, 81.88 2.27 M2.49 93.59 C23.38 69.99, 44.65 47.85, 81.88 2.27 M2.23 99.99 C25.63 73, 38.98 53.87, 87.52 1.88 M2.23 99.99 C31.42 63.48, 60.67 30.21, 87.52 1.88 M1.97 106.39 C18.66 83.84, 39.97 61.2, 92.51 2.24 M1.97 106.39 C32.46 72.5, 57.94 40.73, 92.51 2.24 M2.37 112.03 C24.06 84.2, 44.16 65.77, 98.15 1.85 M2.37 112.03 C41.66 71.4, 77.72 32.37, 98.15 1.85 M0.14 120.69 C35.53 88.36, 62.89 53.04, 103.14 2.21 M0.14 120.69 C35.38 81.41, 68.1 44.27, 103.14 2.21 M1.19 125.58 C29.67 101.29, 45.98 72.39, 108.78 1.81 M1.19 125.58 C26.02 99.81, 47.72 70.07, 108.78 1.81 M2.24 130.47 C30.83 99.14, 55.22 72.2, 113.77 2.17 M2.24 130.47 C47.99 78.33, 92.41 29.68, 113.77 2.17 M3.29 135.36 C30.22 94.88, 66.46 63.39, 119.41 1.78 M3.29 135.36 C31.08 100.55, 61.14 66.55, 119.41 1.78 M5.65 138.74 C52.34 86.01, 90.75 38.47, 124.4 2.14 M5.65 138.74 C38.91 101.64, 71.95 64.58, 124.4 2.14 M8.01 142.12 C51.05 90.89, 96.39 41.33, 130.04 1.74 M8.01 142.12 C37.58 110.22, 61.93 76.25, 130.04 1.74 M10.38 145.5 C42.58 111.9, 64.63 84.77, 135.03 2.1 M10.38 145.5 C34.85 111.77, 62.91 84.54, 135.03 2.1 M13.4 148.12 C46.41 115.34, 78.64 78.59, 140.67 1.71 M13.4 148.12 C43.73 110.56, 73.83 78.65, 140.67 1.71 M17.07 149.99 C46.77 108.78, 77.86 77.16, 145.66 2.07 M17.07 149.99 C47.94 115.54, 77.73 80.41, 145.66 2.07 M20.75 151.86 C70.05 93.27, 115.43 40.94, 150.65 2.43 M20.75 151.86 C58.89 102.47, 102.94 57.93, 150.65 2.43 M25.08 152.98 C52.04 120.23, 79.12 83.9, 156.29 2.03 M25.08 152.98 C69.94 105.19, 114.52 55.2, 156.29 2.03 M30.06 153.34 C80.94 97.87, 123.94 48.52, 161.28 2.39 M30.06 153.34 C69.88 110.23, 105.83 65.61, 161.28 2.39 M34.39 154.45 C74.24 109.75, 112.31 58.83, 166.92 2 M34.39 154.45 C61.31 120.33, 91.43 89.05, 166.92 2 M40.04 154.06 C89.35 96.38, 140.01 45.26, 171.91 2.36 M40.04 154.06 C83.54 103.49, 127.78 57.21, 171.91 2.36 M45.02 154.42 C95.87 95.49, 146.25 40.99, 177.55 1.96 M45.02 154.42 C70.5 118.6, 98.98 89.13, 177.55 1.96 M50.67 154.02 C90.77 100.97, 138.11 57.16, 183.19 1.57 M50.67 154.02 C92.47 102.98, 134.77 53.23, 183.19 1.57 M55.65 154.38 C93.65 113.91, 129.46 67.95, 187.52 2.68 M55.65 154.38 C102.41 101.87, 145.18 46.94, 187.52 2.68 M61.3 153.99 C98 112.13, 135.16 77.95, 192.51 3.04 M61.3 153.99 C112.24 92.17, 164.36 36.15, 192.51 3.04 M66.28 154.35 C111.64 100.01, 164.5 43.26, 196.84 4.16 M66.28 154.35 C96.08 121.92, 127.91 85.74, 196.84 4.16 M71.93 153.95 C125.98 94.48, 169.05 43.5, 200.52 6.03 M71.93 153.95 C113.76 104.17, 152.91 51.97, 200.52 6.03 M76.91 154.31 C119.54 105.06, 169.36 51.6, 204.19 7.9 M76.91 154.31 C109 121.38, 137.18 91.64, 204.19 7.9 M82.56 153.92 C109.67 122.46, 136.65 95.78, 207.21 10.52 M82.56 153.92 C126.01 104.73, 171.62 52.13, 207.21 10.52 M87.54 154.28 C123.54 111.36, 160.16 69.57, 209.57 13.9 M87.54 154.28 C117.71 120.41, 146.11 86.34, 209.57 13.9 M93.19 153.88 C122.86 120.63, 155.07 89.71, 211.28 18.04 M93.19 153.88 C136.55 103.05, 182.3 50.23, 211.28 18.04 M98.18 154.24 C127.1 127.63, 151.15 92.96, 211.67 23.68 M98.18 154.24 C139.05 106.01, 183.02 57.21, 211.67 23.68 M103.16 154.6 C133.13 118.15, 166.76 81.02, 212.72 28.57 M103.16 154.6 C140.76 109.57, 179.24 68.45, 212.72 28.57 M108.81 154.21 C141.09 119.04, 164.66 86.84, 214.43 32.7 M108.81 154.21 C128.02 127.9, 150.42 101.58, 214.43 32.7 M113.79 154.57 C146.03 117.46, 179.61 76.37, 214.17 39.1 M113.79 154.57 C139.14 122.43, 169.38 90.22, 214.17 39.1 M119.44 154.17 C150.1 126.64, 172.58 89.15, 213.91 45.5 M119.44 154.17 C154.71 112.99, 188.69 67.68, 213.91 45.5 M124.42 154.53 C146.27 122.47, 176.23 96.95, 214.3 51.14 M124.42 154.53 C141.43 136.72, 158.41 115.43, 214.3 51.14 M130.07 154.14 C160.6 116.9, 194.96 82.24, 214.04 57.54 M130.07 154.14 C148.26 133.82, 163.02 114.68, 214.04 57.54 M135.05 154.5 C165.41 115.7, 193.57 82.37, 213.78 63.93 M135.05 154.5 C157.38 129.91, 184.11 100.39, 213.78 63.93 M140.7 154.1 C159.29 127.8, 178.68 104.55, 214.17 69.58 M140.7 154.1 C168.75 122.22, 195.49 88.06, 214.17 69.58 M145.68 154.47 C163.48 132.81, 181.55 113.22, 213.91 75.98 M145.68 154.47 C164.16 132.97, 182.18 114.09, 213.91 75.98 M151.33 154.07 C171.99 129.94, 193.27 109.09, 213.65 82.37 M151.33 154.07 C175.82 125.36, 199.93 100.68, 213.65 82.37 M156.31 154.43 C169.31 139.21, 186.1 123.68, 214.05 88.02 M156.31 154.43 C168.94 140, 181.95 124.25, 214.05 88.02 M161.96 154.04 C179.55 132.82, 194.42 114.18, 213.78 94.41 M161.96 154.04 C182.15 128.17, 202.61 106.29, 213.78 94.41 M166.94 154.4 C187.71 135.82, 202.53 114.12, 213.52 100.81 M166.94 154.4 C187.29 131.46, 204.96 112.58, 213.52 100.81 M172.59 154 C189.28 136.1, 207.39 115.52, 213.92 106.45 M172.59 154 C182.32 142.52, 191.57 133.87, 213.92 106.45 M177.57 154.36 C189.03 142.02, 204.02 125.92, 213.66 112.85 M177.57 154.36 C192.57 137.23, 205.61 124.06, 213.66 112.85 M183.22 153.97 C192.47 148.91, 193.2 143.75, 213.39 119.25 M183.22 153.97 C194.71 142.61, 203.79 132.63, 213.39 119.25 M189.51 152.82 C193.75 142.17, 202.42 132.65, 213.79 124.89 M189.51 152.82 C197.76 144.27, 204.36 137.76, 213.79 124.89 M196.47 150.91 C203.02 141.02, 208.91 136.84, 214.84 129.78 M196.47 150.91 C200.09 145.64, 203.81 140.05, 214.84 129.78" stroke="#a5d8ff" stroke-width="0.5" fill="none"></path><path d="M32 0 C83.05 -0.36, 133.18 -0.53, 181 0 M32 0 C64.48 0.76, 96.03 1.18, 181 0 M181 0 C199.63 2.07, 212.42 13.54, 213 32 M181 0 C205.88 -1.66, 215.55 13.78, 213 32 M213 32 C212.85 58.2, 213.99 75.95, 213 120 M213 32 C215.38 65.58, 213.71 98.44, 213 120 M213 120 C214.99 141.6, 201.51 148.14, 181 152 M213 120 C211.16 144.29, 203.34 148.08, 181 152 M181 152 C140.39 148.61, 106.53 148.46, 32 152 M181 152 C146.63 151.03, 115.79 152.71, 32 152 M32 152 C11.03 151.05, -0.17 141.16, 0 120 M32 152 C10.21 155.81, -0.37 139.62, 0 120 M0 120 C-3.51 100.43, -3.18 80.37, 0 32 M0 120 C0.36 93.75, -0.58 65.95, 0 32 M0 32 C2.5 10.35, 10.08 0.01, 32 0 M0 32 C3.61 12.05, 15.26 -3.81, 32 0" stroke="#1e1e1e" stroke-width="1" fill="none"></path></g><g stroke-opacity="0.9" fill-opacity="0.9" transform="translate(855.7988281250001 414.70104166666806) rotate(0 75.482421875 32.19999999999982)"><text x="75.482421875" y="25.760546874999996" font-family="Helvetica, Segoe UI Emoji" font-size="28px" fill="#1e1e1e" text-anchor="middle" style="white-space: pre;" direction="ltr" dominant-baseline="alphabetic">Create new </text><text x="75.482421875" y="57.96054687499999" font-family="Helvetica, Segoe UI Emoji" font-size="28px" fill="#1e1e1e" text-anchor="middle" style="white-space: pre;" direction="ltr" dominant-baseline="alphabetic">account</text></g><g stroke-opacity="0.9" fill-opacity="0.9" stroke-linecap="round" transform="translate(1589.585937499999 366.9947916666679) rotate(0 106.5 76)"><path d="M7.86 8.16 C7.86 8.16, 7.86 8.16, 7.86 8.16 M7.86 8.16 C7.86 8.16, 7.86 8.16, 7.86 8.16 M2.35 20.59 C3.53 17.72, 8.17 11.65, 18.1 2.48 M2.35 20.59 C9.14 14.19, 12.31 7.73, 18.1 2.48 M1.43 27.75 C6.67 25.17, 14.12 12.6, 24.4 1.33 M1.43 27.75 C11.02 17.65, 17.98 8.55, 24.4 1.33 M1.17 34.14 C5.6 24.69, 19.78 14.14, 30.7 0.18 M1.17 34.14 C9.65 27.06, 13.1 17.25, 30.7 0.18 M0.91 40.54 C12.9 30.16, 18.92 14.96, 36.34 -0.21 M0.91 40.54 C12.31 25.75, 25.45 9.73, 36.34 -0.21 M1.31 46.19 C13.18 35.28, 22.77 19.88, 41.33 0.15 M1.31 46.19 C14.91 32.32, 26.61 18.02, 41.33 0.15 M1.04 52.58 C21.34 30.06, 33.61 12.48, 46.97 -0.25 M1.04 52.58 C19.55 32.16, 34.96 12.96, 46.97 -0.25 M0.78 58.98 C18.86 37.34, 39.84 15.98, 51.96 0.11 M0.78 58.98 C11.14 47.4, 23.1 34.21, 51.96 0.11 M1.18 64.62 C13.62 44.15, 30.45 34.08, 57.6 -0.28 M1.18 64.62 C18.38 44.47, 35.92 24.02, 57.6 -0.28 M0.92 71.02 C21.92 48.72, 46.01 20.09, 62.59 0.08 M0.92 71.02 C18.22 49.3, 38.82 29.03, 62.59 0.08 M0.65 77.42 C25.12 52.08, 39.68 27.41, 67.57 0.44 M0.65 77.42 C20.18 52.3, 43.79 27.94, 67.57 0.44 M1.05 83.06 C26.48 58.98, 46.47 25.59, 73.22 0.04 M1.05 83.06 C23.29 59.96, 42.92 33.5, 73.22 0.04 M0.79 89.46 C26.04 63.73, 49.66 31.96, 78.2 0.41 M0.79 89.46 C32.29 55.55, 59.3 20.32, 78.2 0.41 M0.53 95.86 C17.3 74.76, 36.27 51.96, 83.85 0.01 M0.53 95.86 C19.79 68.63, 44.66 45.5, 83.85 0.01 M0.92 101.5 C21.89 81.12, 39.23 59.69, 88.83 0.37 M0.92 101.5 C18.59 81.1, 40.28 58.7, 88.83 0.37 M0.66 107.9 C30.8 76.06, 57.44 44.66, 94.48 -0.02 M0.66 107.9 C25.51 80.18, 52.38 51.95, 94.48 -0.02 M0.4 114.3 C24.21 84.97, 39.83 66.12, 99.46 0.34 M0.4 114.3 C24.18 81.89, 48.11 55.02, 99.46 0.34 M0.14 120.69 C36.04 77.72, 71.95 42.14, 105.11 -0.06 M0.14 120.69 C24.88 87.53, 54.8 58.49, 105.11 -0.06 M1.19 125.58 C41.94 75.87, 86.82 30.72, 110.09 0.3 M1.19 125.58 C39.08 83.59, 77.79 40.93, 110.09 0.3 M2.24 130.47 C30.95 101.25, 52.74 74.56, 115.74 -0.09 M2.24 130.47 C25.47 101.04, 53.19 67.7, 115.74 -0.09 M3.29 135.36 C28.26 101.72, 57.99 66.19, 120.72 0.27 M3.29 135.36 C37.14 100.09, 67.87 66.43, 120.72 0.27 M5.65 138.74 C39.3 100.48, 71.88 64.87, 126.37 -0.13 M5.65 138.74 C36.29 103.66, 64.74 65.53, 126.37 -0.13 M7.36 142.87 C40.46 101.88, 78.6 65.82, 131.35 0.23 M7.36 142.87 C48.25 97.46, 91.33 53.95, 131.35 0.23 M10.38 145.5 C42.84 105.42, 84.64 62.59, 137 -0.16 M10.38 145.5 C35.04 111.91, 62.92 80.2, 137 -0.16 M14.05 147.37 C52.98 92.85, 103.23 42.59, 141.98 0.2 M14.05 147.37 C43.1 114.02, 75.41 79.88, 141.98 0.2 M17.07 149.99 C40.12 120.65, 69.31 91.53, 147.63 -0.2 M17.07 149.99 C59.92 102.3, 101.16 53.89, 147.63 -0.2 M22.06 150.35 C49.71 120.51, 77.43 82.98, 152.61 0.16 M22.06 150.35 C47.29 117.69, 78.64 83.56, 152.61 0.16 M26.39 151.47 C75.31 95.41, 119.64 43.46, 158.26 -0.23 M26.39 151.47 C71.4 97.56, 115.06 47.53, 158.26 -0.23 M31.38 151.83 C60.13 118.66, 86.61 88.53, 163.24 0.13 M31.38 151.83 C72.29 108.63, 111.49 63.09, 163.24 0.13 M36.36 152.19 C85.37 98.66, 135.88 37.12, 168.89 -0.27 M36.36 152.19 C65.44 117.36, 91.07 85.13, 168.89 -0.27 M41.35 152.55 C69.99 117.65, 97.19 85.65, 173.87 0.09 M41.35 152.55 C69.63 116.01, 96.16 82.82, 173.87 0.09 M46.99 152.15 C80.89 111.98, 121.13 66.81, 178.86 0.45 M46.99 152.15 C77.97 117.62, 106.6 83.61, 178.86 0.45 M51.98 152.51 C81.41 119.44, 110.91 82.43, 183.85 0.81 M51.98 152.51 C93.51 105.9, 133.29 60.51, 183.85 0.81 M57.62 152.12 C104.81 102.03, 150.24 51.6, 188.83 1.17 M57.62 152.12 C110.94 92.17, 162.22 34.61, 188.83 1.17 M62.61 152.48 C90.13 119.9, 115.87 88.45, 193.17 2.29 M62.61 152.48 C91.16 117.43, 117.7 84.08, 193.17 2.29 M68.25 152.08 C103.59 108.64, 142.93 62.62, 197.5 3.4 M68.25 152.08 C112.19 99.69, 156.18 52.04, 197.5 3.4 M73.24 152.44 C108.65 117.33, 143.11 80.53, 200.52 6.03 M73.24 152.44 C126.1 97.31, 173.91 39.55, 200.52 6.03 M78.88 152.05 C119.19 97.3, 164.26 51.37, 204.19 7.9 M78.88 152.05 C103.97 119.32, 131.75 87.26, 204.19 7.9 M83.87 152.41 C108.68 120.61, 134.29 90.24, 206.55 11.28 M83.87 152.41 C132.07 98.76, 179.53 41.45, 206.55 11.28 M89.51 152.01 C119.78 116.35, 154.84 80.39, 208.92 14.66 M89.51 152.01 C129.38 102.72, 170.74 56.52, 208.92 14.66 M94.5 152.37 C126 117.91, 154.36 79.1, 211.28 18.04 M94.5 152.37 C139.12 98.41, 185.09 48.17, 211.28 18.04 M100.14 151.98 C142.19 106.78, 182.81 59.72, 211.67 23.68 M100.14 151.98 C139.62 104.44, 182.36 55.75, 211.67 23.68 M105.13 152.34 C144.44 108.24, 182.82 65.96, 212.72 28.57 M105.13 152.34 C129.28 119.06, 159.14 90.73, 212.72 28.57 M110.77 151.94 C135.09 125.04, 167.08 87.54, 213.12 34.21 M110.77 151.94 C147.22 113.93, 179.83 73.97, 213.12 34.21 M115.76 152.3 C148.1 115.95, 180.98 73.87, 213.51 39.85 M115.76 152.3 C137.91 127.33, 160.46 100.9, 213.51 39.85 M121.4 151.91 C162.41 113.73, 199.09 70.67, 213.25 46.25 M121.4 151.91 C158.81 112.77, 196.44 68.33, 213.25 46.25 M126.39 152.27 C143.2 128.63, 165.25 101.58, 212.99 52.65 M126.39 152.27 C160.85 116.14, 191.7 78.28, 212.99 52.65 M131.38 152.63 C149.76 124.98, 178.65 99.62, 213.38 58.29 M131.38 152.63 C160.54 121.22, 186.12 91.94, 213.38 58.29 M137.02 152.24 C157.35 127.6, 176.55 104.79, 213.12 64.69 M137.02 152.24 C164.6 118.66, 195.74 83.96, 213.12 64.69 M142.01 152.6 C162.33 136.86, 176.05 117.23, 213.52 70.33 M142.01 152.6 C168.84 122.74, 194.52 92.27, 213.52 70.33 M147.65 152.2 C161.78 137.68, 174.92 118.85, 213.26 76.73 M147.65 152.2 C162.65 132.05, 177.92 116.52, 213.26 76.73 M152.64 152.56 C169.02 133.92, 178.47 119.76, 213 83.13 M152.64 152.56 C163.92 135.66, 176.22 122.13, 213 83.13 M158.28 152.17 C169.41 137.04, 190.17 118.61, 213.39 88.77 M158.28 152.17 C179.41 126.52, 200.72 104.32, 213.39 88.77 M163.27 152.53 C182.75 133.55, 197.23 116.7, 213.13 95.17 M163.27 152.53 C177.95 138.53, 186.85 125.49, 213.13 95.17 M168.91 152.13 C187.4 132.13, 201.52 120.73, 212.87 101.57 M168.91 152.13 C180.62 140.05, 189.17 128.29, 212.87 101.57 M173.9 152.49 C181.57 135.89, 199.34 125.97, 213.26 107.21 M173.9 152.49 C183.87 140.12, 191.71 130.15, 213.26 107.21 M179.54 152.1 C194.85 136.67, 207.11 126.3, 213 113.61 M179.54 152.1 C184.27 143.46, 193.49 136.66, 213 113.61 M184.53 152.46 C195.68 141.42, 203.58 133.05, 212.74 120.01 M184.53 152.46 C193.37 144.07, 199.22 131.29, 212.74 120.01 M190.83 151.31 C197.1 144.41, 199.95 139.75, 213.13 125.65 M190.83 151.31 C196.2 144.32, 204.2 138.16, 213.13 125.65 M198.44 148.65 C198.54 144.54, 203.12 142.5, 208.28 137.33 M198.44 148.65 C200.65 145.18, 204.75 140.57, 208.28 137.33" stroke="#a5d8ff" stroke-width="0.5" fill="none"></path><path d="M32 0 C67.77 3.27, 110.3 1.78, 181 0 M32 0 C81.28 -0.78, 132.96 -0.38, 181 0 M181 0 C205.42 -1.44, 215.22 13.38, 213 32 M181 0 C200.74 -3.14, 210.08 11.87, 213 32 M213 32 C216.69 65.67, 213 101.22, 213 120 M213 32 C214.23 63.71, 212.82 93.22, 213 120 M213 120 C211.4 143.9, 203.21 148.6, 181 152 M213 120 C210.92 138.01, 202.16 148.97, 181 152 M181 152 C145.44 153.02, 115.06 147.2, 32 152 M181 152 C138.35 153.66, 95.26 154.05, 32 152 M32 152 C10.27 155.31, -0.32 139.84, 0 120 M32 152 C7.16 154.02, -3.79 138.18, 0 120 M0 120 C1.24 92.41, 0.87 66.6, 0 32 M0 120 C2.13 90.96, 0.58 62.25, 0 32 M0 32 C3.14 11.87, 14.66 -3.31, 32 0 M0 32 C4.21 11.56, 13.79 -3.3, 32 0" stroke="#1e1e1e" stroke-width="1" fill="none"></path></g><g stroke-opacity="0.9" fill-opacity="0.9" transform="translate(1594.914062499999 394.6947916666677) rotate(0 101.171875 48.30000000000018)"><text x="101.171875" y="25.760546874999996" font-family="Helvetica, Segoe UI Emoji" font-size="28px" fill="#1e1e1e" text-anchor="middle" style="white-space: pre;" direction="ltr" dominant-baseline="alphabetic">Add user to </text><text x="101.171875" y="57.96054687499999" font-family="Helvetica, Segoe UI Emoji" font-size="28px" fill="#1e1e1e" text-anchor="middle" style="white-space: pre;" direction="ltr" dominant-baseline="alphabetic">org/groups </text><text x="101.171875" y="90.160546875" font-family="Helvetica, Segoe UI Emoji" font-size="28px" fill="#1e1e1e" text-anchor="middle" style="white-space: pre;" direction="ltr" dominant-baseline="alphabetic">according to IdP</text></g><g stroke-opacity="0.9" fill-opacity="0.9" stroke-linecap="round" transform="translate(2258.824218749999 178.81510416666788) rotate(0 125.33984375 80.2109375)"><path d="M32 0 C98.86 -6.94, 173 -3.42, 218.68 0 C244.24 -5.51, 254.73 12.2, 250.68 32 C249.1 56.19, 250.5 75.84, 250.68 128.42 C252.91 152.29, 238.52 164.91, 218.68 160.42 C161.3 158.64, 110.73 159, 32 160.42 C14.92 164.06, -5.23 154.9, 0 128.42 C1.86 90.14, 5.35 55.86, 0 32 C1.9 6.03, 6.43 -1.55, 32 0" stroke="none" stroke-width="0" fill="#1e1e1e"></path><path d="M32 0 C99.04 -1.29, 165.33 -3.2, 218.68 0 M32 0 C99.21 -3.4, 164.44 -1.32, 218.68 0 M218.68 0 C238.63 -2.73, 248.14 11.71, 250.68 32 M218.68 0 C243.29 2.52, 247.51 13.8, 250.68 32 M250.68 32 C252.57 63.88, 253.49 96.67, 250.68 128.42 M250.68 32 C249.48 62.86, 250.72 89.44, 250.68 128.42 M250.68 128.42 C248.87 146.86, 239.86 157.79, 218.68 160.42 M250.68 128.42 C246.91 151.46, 236.07 156.89, 218.68 160.42 M218.68 160.42 C145.52 160.9, 76.23 158.69, 32 160.42 M218.68 160.42 C166.9 161.92, 115.35 159.51, 32 160.42 M32 160.42 C7.62 162.18, -3.3 147.02, 0 128.42 M32 160.42 C10.8 157.66, -0.29 149.97, 0 128.42 M0 128.42 C1.22 99.77, -0.78 77.61, 0 32 M0 128.42 C1.85 100.86, 2.28 70.45, 0 32 M0 32 C3.66 11.44, 13.39 -2.87, 32 0 M0 32 C-4.43 9.82, 11.59 -1.08, 32 0" stroke="#1e1e1e" stroke-width="4" fill="none"></path></g><g stroke-opacity="0.9" fill-opacity="0.9" transform="translate(2300.131835937499 217.62604166666824) rotate(0 84.0322265625 41.40000000000009)"><text x="84.0322265625" y="33.120703125" font-family="Helvetica, Segoe UI Emoji" font-size="36px" fill="#ffffff" text-anchor="middle" style="white-space: pre;" direction="ltr" dominant-baseline="alphabetic">SSO </text><text x="84.0322265625" y="74.520703125" font-family="Helvetica, Segoe UI Emoji" font-size="36px" fill="#ffffff" text-anchor="middle" style="white-space: pre;" direction="ltr" dominant-baseline="alphabetic">successful</text></g><g stroke-opacity="0.9" fill-opacity="0.9" stroke-linecap="round" transform="translate(1937.960937499999 186.29947916666788) rotate(0 106.5 76)"><path d="M7.86 8.16 C7.86 8.16, 7.86 8.16, 7.86 8.16 M7.86 8.16 C7.86 8.16, 7.86 8.16, 7.86 8.16 M2.35 20.59 C7.21 12.93, 12.04 4.61, 18.1 2.48 M2.35 20.59 C8.71 16.48, 10.02 11.62, 18.1 2.48 M1.43 27.75 C10.02 15.67, 20.89 6.67, 24.4 1.33 M1.43 27.75 C8.99 21.01, 15.8 9, 24.4 1.33 M1.17 34.14 C9.8 21.52, 13.04 15.72, 30.7 0.18 M1.17 34.14 C8.82 24.59, 14.05 18.28, 30.7 0.18 M0.91 40.54 C8.3 30.27, 12.79 21.9, 36.34 -0.21 M0.91 40.54 C9.58 31.12, 15.72 24.33, 36.34 -0.21 M1.31 46.19 C13.8 32.76, 25.19 25, 41.33 0.15 M1.31 46.19 C16.32 25.78, 33.99 10.09, 41.33 0.15 M1.04 52.58 C12.39 37, 25.64 25.87, 46.97 -0.25 M1.04 52.58 C12.17 40.27, 23.57 26.17, 46.97 -0.25 M0.78 58.98 C17.56 42.15, 31.39 25.6, 51.96 0.11 M0.78 58.98 C17.98 38.06, 40.19 16.31, 51.96 0.11 M1.18 64.62 C11.27 52.8, 19.83 39.67, 57.6 -0.28 M1.18 64.62 C17.68 48.86, 30.4 30.35, 57.6 -0.28 M0.92 71.02 C19.27 51.31, 40.36 30.52, 62.59 0.08 M0.92 71.02 C18.21 47.63, 36.05 28.75, 62.59 0.08 M0.65 77.42 C17.15 60.06, 34.08 39.28, 67.57 0.44 M0.65 77.42 C19.72 55.26, 34.47 35.83, 67.57 0.44 M1.05 83.06 C24.06 56.65, 41.18 34.51, 73.22 0.04 M1.05 83.06 C23.88 57.97, 43.6 35.65, 73.22 0.04 M0.79 89.46 C18.7 64.31, 34.45 44.72, 78.2 0.41 M0.79 89.46 C30.97 54.91, 60.49 21.51, 78.2 0.41 M0.53 95.86 C29.47 63.2, 65.81 20.86, 83.85 0.01 M0.53 95.86 C20.74 72.87, 40.19 47.45, 83.85 0.01 M0.92 101.5 C23.94 80.56, 43.68 52.96, 88.83 0.37 M0.92 101.5 C28.7 69.46, 56.6 38.67, 88.83 0.37 M0.66 107.9 C21.13 89.47, 39.58 62.96, 94.48 -0.02 M0.66 107.9 C30.6 67.26, 66.45 30.49, 94.48 -0.02 M0.4 114.3 C34.43 66.61, 78.22 27.54, 99.46 0.34 M0.4 114.3 C27.1 81.93, 57.97 47.48, 99.46 0.34 M0.14 120.69 C35.57 79.79, 79.35 38.6, 105.11 -0.06 M0.14 120.69 C20.03 97.91, 42.68 74.51, 105.11 -0.06 M1.19 125.58 C32.07 92.38, 63.37 58.77, 110.09 0.3 M1.19 125.58 C38.7 80.62, 77.4 36.65, 110.09 0.3 M2.24 130.47 C49.75 81.08, 88.59 24.72, 115.74 -0.09 M2.24 130.47 C38.79 87.4, 75.41 42.44, 115.74 -0.09 M3.29 135.36 C30.76 104.25, 62.21 68.54, 120.72 0.27 M3.29 135.36 C29.03 104.82, 56.62 74.17, 120.72 0.27 M5.65 138.74 C55.69 78.33, 100.31 26.24, 126.37 -0.13 M5.65 138.74 C33.97 106.56, 65.6 72.39, 126.37 -0.13 M7.36 142.87 C34.93 115.78, 67.91 81.06, 131.35 0.23 M7.36 142.87 C39.01 108.97, 70.53 68.08, 131.35 0.23 M10.38 145.5 C57.87 88.49, 107.61 37.09, 137 -0.16 M10.38 145.5 C55.75 93.99, 103.72 35.77, 137 -0.16 M14.05 147.37 C48.45 114.3, 80.68 68.31, 141.98 0.2 M14.05 147.37 C57.42 100.08, 100.7 51.62, 141.98 0.2 M17.07 149.99 C62.84 98.85, 106.85 45.36, 147.63 -0.2 M17.07 149.99 C62.34 99.43, 103.42 47.24, 147.63 -0.2 M22.06 150.35 C69.51 102.21, 112.61 48.83, 152.61 0.16 M22.06 150.35 C55.8 109.21, 91.27 71.43, 152.61 0.16 M26.39 151.47 C70.8 94.38, 122.47 39.13, 158.26 -0.23 M26.39 151.47 C62.57 108.03, 100.79 66.53, 158.26 -0.23 M31.38 151.83 C64.76 117.32, 93.79 84.12, 163.24 0.13 M31.38 151.83 C66.4 115.11, 96.94 77.49, 163.24 0.13 M36.36 152.19 C75.2 99.53, 117.71 50.88, 168.89 -0.27 M36.36 152.19 C78.13 101.02, 122.31 49.44, 168.89 -0.27 M41.35 152.55 C87.19 90.69, 137.89 33.11, 173.87 0.09 M41.35 152.55 C69.91 121.31, 97.3 84.27, 173.87 0.09 M46.99 152.15 C73.5 120.34, 99.05 83.31, 178.86 0.45 M46.99 152.15 C93.7 97.35, 139.7 42.58, 178.86 0.45 M51.98 152.51 C80.84 118.24, 111.19 86.64, 183.85 0.81 M51.98 152.51 C93.93 106.04, 135.01 60.69, 183.85 0.81 M57.62 152.12 C82.02 121.08, 111.5 88.75, 188.83 1.17 M57.62 152.12 C107.97 91.41, 159.61 29.03, 188.83 1.17 M62.61 152.48 C101.98 100.56, 143.18 51.68, 193.17 2.29 M62.61 152.48 C108.53 101.95, 152.41 53.07, 193.17 2.29 M68.25 152.08 C111.81 98.67, 165.26 40.15, 197.5 3.4 M68.25 152.08 C97.18 119.39, 126.51 85.5, 197.5 3.4 M73.24 152.44 C101.66 119.43, 126.3 91.25, 200.52 6.03 M73.24 152.44 C115.29 102.41, 162.02 51.47, 200.52 6.03 M78.88 152.05 C121.41 102.18, 163.43 54.03, 204.19 7.9 M78.88 152.05 C127.23 94.91, 176.23 38.96, 204.19 7.9 M83.87 152.41 C127.85 104.05, 165.29 59.32, 206.55 11.28 M83.87 152.41 C120.59 112.58, 157.23 71.69, 206.55 11.28 M89.51 152.01 C121.55 111.33, 158.61 70.81, 208.92 14.66 M89.51 152.01 C137.38 95.81, 183.21 42.46, 208.92 14.66 M94.5 152.37 C123.13 116.4, 158.24 83.91, 211.28 18.04 M94.5 152.37 C131.97 111.03, 167.42 69.09, 211.28 18.04 M100.14 151.98 C141.17 107.76, 179.65 60.11, 211.67 23.68 M100.14 151.98 C131.46 114.99, 164.35 75.49, 211.67 23.68 M105.13 152.34 C143.46 108.93, 191.08 55.5, 212.72 28.57 M105.13 152.34 C137.71 120.68, 164.31 86.34, 212.72 28.57 M110.77 151.94 C134.26 125.57, 153.51 102.64, 213.12 34.21 M110.77 151.94 C140.99 118.32, 168.13 84.25, 213.12 34.21 M115.76 152.3 C155.3 108.16, 193.36 72.71, 213.51 39.85 M115.76 152.3 C140.75 126.29, 162.92 100.23, 213.51 39.85 M121.4 151.91 C148.15 127.94, 165.76 98.62, 213.25 46.25 M121.4 151.91 C153.37 115.23, 184.22 81.71, 213.25 46.25 M126.39 152.27 C149.47 127.38, 168.45 101.32, 212.99 52.65 M126.39 152.27 C158.3 117.27, 191.7 79.34, 212.99 52.65 M131.38 152.63 C146 134.32, 164.15 108.73, 213.38 58.29 M131.38 152.63 C146.44 133.74, 162.43 116.6, 213.38 58.29 M137.02 152.24 C167.33 119.95, 196.19 81.27, 213.12 64.69 M137.02 152.24 C158.71 129.16, 177.54 107.6, 213.12 64.69 M142.01 152.6 C158.54 132.21, 173.8 114.81, 213.52 70.33 M142.01 152.6 C167.58 124.29, 190.55 97.85, 213.52 70.33 M147.65 152.2 C164.38 127.83, 189.67 101, 213.26 76.73 M147.65 152.2 C171.83 121.73, 197.83 92.03, 213.26 76.73 M152.64 152.56 C166.57 128.99, 186.74 110.8, 213 83.13 M152.64 152.56 C175.72 129.9, 196.8 104.83, 213 83.13 M158.28 152.17 C171.02 135.76, 190.35 113.03, 213.39 88.77 M158.28 152.17 C168.72 139.48, 180.43 122.91, 213.39 88.77 M163.27 152.53 C175.6 134.86, 189.51 125.81, 213.13 95.17 M163.27 152.53 C176.32 136.27, 193.75 116.67, 213.13 95.17 M168.91 152.13 C183.91 133.93, 199.23 117.41, 212.87 101.57 M168.91 152.13 C184.47 134.81, 203.08 113.49, 212.87 101.57 M173.9 152.49 C184.56 135.52, 200.1 121.88, 213.26 107.21 M173.9 152.49 C183.92 140.66, 196.79 125.45, 213.26 107.21 M179.54 152.1 C192.05 137.81, 208.14 125.24, 213 113.61 M179.54 152.1 C187.46 142, 197.15 132.75, 213 113.61 M184.53 152.46 C196.88 137.92, 200.19 128.06, 212.74 120.01 M184.53 152.46 C190.57 144.01, 197.6 138.15, 212.74 120.01 M190.83 151.31 C197.91 146.38, 206.42 131.1, 213.13 125.65 M190.83 151.31 C197.78 142.93, 205.92 133.2, 213.13 125.65 M198.44 148.65 C200.21 146.99, 199.75 142.11, 208.28 137.33 M198.44 148.65 C203.41 143.27, 207 140.17, 208.28 137.33" stroke="#a5d8ff" stroke-width="0.5" fill="none"></path><path d="M32 0 C75.84 1.43, 118.42 5.1, 181 0 M32 0 C70.63 -3.38, 109.38 -1.5, 181 0 M181 0 C205.18 2.19, 210.24 13.39, 213 32 M181 0 C203.48 -1.11, 217.47 13.37, 213 32 M213 32 C214.71 58.76, 210.58 85.56, 213 120 M213 32 C212.48 62.61, 213.31 94.79, 213 120 M213 120 C209.72 142.81, 198.91 148.93, 181 152 M213 120 C217.1 140.22, 199.75 151.42, 181 152 M181 152 C125.76 152.1, 72.24 151.87, 32 152 M181 152 C122.43 151.77, 65.26 149.52, 32 152 M32 152 C10.78 149.6, -0.25 141.52, 0 120 M32 152 C9.58 151.79, -0.12 142.63, 0 120 M0 120 C0.07 97.4, 0.4 79.13, 0 32 M0 120 C0.07 91.35, -0.4 60.49, 0 32 M0 32 C-3.85 9.93, 11.47 -0.94, 32 0 M0 32 C3.38 14.41, 12.63 -2.36, 32 0" stroke="#1e1e1e" stroke-width="1" fill="none"></path></g><g stroke-opacity="0.9" fill-opacity="0.9" transform="translate(1959.626953124999 213.9994791666677) rotate(0 84.833984375 48.30000000000018)"><text x="84.833984375" y="25.760546874999996" font-family="Helvetica, Segoe UI Emoji" font-size="28px" fill="#1e1e1e" text-anchor="middle" style="white-space: pre;" direction="ltr" dominant-baseline="alphabetic">User is not </text><text x="84.833984375" y="57.96054687499999" font-family="Helvetica, Segoe UI Emoji" font-size="28px" fill="#1e1e1e" text-anchor="middle" style="white-space: pre;" direction="ltr" dominant-baseline="alphabetic">authorized to </text><text x="84.833984375" y="90.160546875" font-family="Helvetica, Segoe UI Emoji" font-size="28px" fill="#1e1e1e" text-anchor="middle" style="white-space: pre;" direction="ltr" dominant-baseline="alphabetic">access org</text></g><g mask="url(#mask-s3iQ_hr8zsJ80yOIwnL7U)" stroke-linecap="round"><g stroke-opacity="0.9" fill-opacity="0.9" transform="translate(637.4723887844626 217.3198847830099) rotate(0 80.68717813094509 -26.014041608280422)"><path d="M0.93 -0.43 C13.05 -9.11, 45.88 -42.59, 72.55 -51.22 C99.23 -59.84, 146.28 -52.19, 160.96 -52.16 M-0.05 -1.71 C11.99 -10.8, 45.28 -44.65, 71.95 -52.91 C98.63 -61.17, 145.22 -51.8, 159.98 -51.27" stroke="#1e1e1e" stroke-width="2" fill="none"></path></g><g stroke-opacity="0.9" fill-opacity="0.9" transform="translate(637.4723887844626 217.3198847830099) rotate(0 80.68717813094509 -26.014041608280422)"><path d="M159.85 -51.18 L145.32 -46.48 L147.07 -58.43 L158.98 -51.71" stroke="none" stroke-width="0" fill="#1e1e1e" fill-rule="evenodd"></path><path d="M159.98 -51.27 C155.42 -48.93, 152.93 -48.89, 145.79 -46.38 M159.98 -51.27 C157.19 -49.69, 152.85 -48.46, 145.79 -46.38 M145.79 -46.38 C147 -50.32, 147.72 -53.96, 147.12 -58.99 M145.79 -46.38 C145.97 -49.83, 146.77 -54.64, 147.12 -58.99 M147.12 -58.99 C149.35 -58.25, 154.17 -56.34, 159.98 -51.27 M147.12 -58.99 C149.63 -57.33, 153.41 -54.98, 159.98 -51.27 M159.98 -51.27 C159.98 -51.27, 159.98 -51.27, 159.98 -51.27 M159.98 -51.27 C159.98 -51.27, 159.98 -51.27, 159.98 -51.27" stroke="#1e1e1e" stroke-width="2" fill="none"></path></g></g><mask id="mask-s3iQ_hr8zsJ80yOIwnL7U"><rect x="0" y="0" fill="#fff" width="898.8467450463528" height="369.3479679995712"></rect><rect x="679.9953118621738" y="144.59180156644925" fill="#000" width="58.728515625" height="41.4" opacity="1"></rect></mask><g stroke-opacity="0.9" fill-opacity="0.9" transform="translate(679.9953118621736 144.59180156644925) rotate(0 37.93319826640709 44.36189131403671)"><text x="29.3642578125" y="33.120703125" font-family="Helvetica, Segoe UI Emoji" font-size="36px" fill="#1e1e1e" text-anchor="middle" style="white-space: pre;" direction="ltr" dominant-baseline="alphabetic">Yes</text></g><g mask="url(#mask--DSYlGTSw-UpfY6Thjjbb)" stroke-linecap="round"><g stroke-opacity="0.9" fill-opacity="0.9" transform="translate(632.5447844059341 379.8876710231625) rotate(359.6506622880162 91.79908999904217 32.61433504679326)"><path d="M-0.97 -1.91 C9.98 7.82, 36.13 48.84, 67.23 60.28 C98.32 71.73, 166.52 65.62, 185.59 66.76 M3.7 3.23 C15.41 11.89, 42.47 45.87, 72.66 55.67 C102.86 65.48, 166.78 60.99, 184.87 62.07" stroke="#1e1e1e" stroke-width="2" fill="none"></path></g><g stroke-opacity="0.9" fill-opacity="0.9" transform="translate(632.5447844059341 379.8876710231625) rotate(359.6506622880162 91.79908999904217 32.61433504679326)"><path d="M186.03 62.31 L170.15 69.08 L170.65 55.46 L185.66 62.97" stroke="none" stroke-width="0" fill="#1e1e1e" fill-rule="evenodd"></path><path d="M183.84 61.11 C180.47 65.34, 176.07 65.49, 172.29 68.78 M184.97 62.68 C181.55 63.94, 177.27 64.92, 170.97 68.88 M170.36 68.36 C170.55 63.28, 171.85 59.16, 170.3 56.86 M171.68 68.86 C171.4 64.76, 171.32 61.38, 171.21 56.25 M171.93 54.49 C174.19 57.72, 178.28 59.43, 184.94 61.71 M170.9 55.56 C175.75 57.5, 179.19 59.43, 185.46 62.29 M184.87 62.07 C184.87 62.07, 184.87 62.07, 184.87 62.07 M184.87 62.07 C184.87 62.07, 184.87 62.07, 184.87 62.07" stroke="#1e1e1e" stroke-width="2" fill="none"></path></g></g><mask id="mask--DSYlGTSw-UpfY6Thjjbb"><rect x="0" y="0" fill="#fff" width="916.1429644040185" height="545.1163411167495"></rect><rect x="678.7000917832647" y="418.87874630542774" fill="#000" width="46.01953125" height="41.4" opacity="1"></rect></mask><g stroke-opacity="0.9" fill-opacity="0.9" transform="translate(678.6993370278108 418.8818721795142) rotate(0 46.15684108565915 -6.254514166605986)"><text x="23.009765625" y="33.120703125" font-family="Helvetica, Segoe UI Emoji" font-size="36px" fill="#1e1e1e" text-anchor="middle" style="white-space: pre;" direction="ltr" dominant-baseline="alphabetic">No</text></g><g stroke-linecap="round"><g stroke-opacity="0.9" fill-opacity="0.9" transform="translate(1050.3281249999995 167.60367838541788) rotate(0 76.45070671922622 26.91193466798495)"><path d="M1.99 1.53 C16.42 4.15, 59.5 7.8, 84.77 16.4 C110.04 25, 141.79 46.64, 153.6 53.15 M-0.37 -0.1 C15.11 1.66, 64.7 3.1, 90.12 12.43 C115.55 21.76, 142.36 49.57, 152.17 55.89" stroke="#1e1e1e" stroke-width="2" fill="none"></path></g><g stroke-opacity="0.9" fill-opacity="0.9" transform="translate(1050.3281249999995 167.60367838541788) rotate(0 76.45070671922622 26.91193466798495)"><path d="M151.55 55.63 L138.41 53.21 L145.03 44.03 L151.84 55.31" stroke="none" stroke-width="0" fill="#1e1e1e" fill-rule="evenodd"></path><path d="M153 54.86 C149.74 55.52, 144.91 55.75, 138.49 52.5 M152.02 55.17 C146.29 55.01, 141.2 52.52, 137.27 51.76 M138.08 51.22 C139.06 50.57, 142.08 45.81, 145.4 43.24 M137.58 52.28 C140.49 49.18, 143.46 44.75, 145.08 42.71 M144.66 42.33 C146.98 45, 148.28 48.25, 152.6 55.14 M145.45 42.43 C148.07 46.4, 150.07 49.3, 152.86 56.04 M152.17 55.89 C152.17 55.89, 152.17 55.89, 152.17 55.89 M152.17 55.89 C152.17 55.89, 152.17 55.89, 152.17 55.89" stroke="#1e1e1e" stroke-width="2" fill="none"></path></g></g><mask></mask><g stroke-linecap="round"><g stroke-opacity="0.9" fill-opacity="0.9" transform="translate(1048.7968749999995 444.7755533854179) rotate(0 76.04281823572205 -31.42277635055234)"><path d="M-1.93 1.91 C12.9 -1.21, 64.87 -6.69, 90.99 -17.21 C117.11 -27.72, 144.56 -53.97, 154.81 -61.2 M2.21 0.48 C16.56 -2.36, 63.76 -2.89, 89.13 -13.94 C114.51 -25, 143.79 -57.27, 154.47 -65.84" stroke="#1e1e1e" stroke-width="2" fill="none"></path></g><g stroke-opacity="0.9" fill-opacity="0.9" transform="translate(1048.7968749999995 444.7755533854179) rotate(0 76.04281823572205 -31.42277635055234)"><path d="M155.27 -64.93 L148.22 -50.37 L139.84 -61.88 L153.83 -67.45" stroke="none" stroke-width="0" fill="#1e1e1e" fill-rule="evenodd"></path><path d="M155.5 -65.46 C152.07 -59.27, 151.19 -55.38, 149.98 -51.22 M154.17 -65.35 C152.86 -62.28, 150.6 -57.93, 148.73 -52.46 M147.78 -50.84 C146.54 -54.79, 144.82 -55.3, 141.08 -61.19 M148.69 -51.44 C146.34 -54.79, 143.53 -56.85, 139.65 -61.74 M140.25 -61.65 C144.46 -62.7, 149.28 -64.79, 154.15 -64.9 M140.76 -61.08 C145.11 -63.25, 149.22 -63.8, 154.98 -66.37 M154.47 -65.84 C154.47 -65.84, 154.47 -65.84, 154.47 -65.84 M154.47 -65.84 C154.47 -65.84, 154.47 -65.84, 154.47 -65.84" stroke="#1e1e1e" stroke-width="2" fill="none"></path></g></g><mask></mask><g mask="url(#mask-Y-wTYTzpdw3su_nqJra2O)" stroke-linecap="round"><g stroke-opacity="0.9" fill-opacity="0.9" transform="translate(1403.701674098486 226.6855268877316) rotate(0 55.23412388825682 -26.477935969906866)"><path d="M0.7 -0.68 C8.09 -7.53, 24.04 -30.88, 42.39 -39.21 C60.75 -47.54, 99.27 -48.4, 110.84 -50.66 M-2.36 -3.51 C5.07 -11.35, 23.03 -34.76, 41.63 -43.33 C60.23 -51.9, 97.31 -53.82, 109.24 -54.95" stroke="#1e1e1e" stroke-width="2" fill="none"></path></g><g stroke-opacity="0.9" fill-opacity="0.9" transform="translate(1403.701674098486 226.6855268877316) rotate(0 55.23412388825682 -26.477935969906866)"><path d="M108.71 -53.34 L95.89 -48.06 L94.52 -61.73 L109.2 -55.74" stroke="none" stroke-width="0" fill="#1e1e1e" fill-rule="evenodd"></path><path d="M108.88 -53.49 C107.17 -52.99, 104.51 -50.72, 96.33 -47.79 M109.4 -55.58 C106.23 -53.89, 103.89 -52.32, 95.62 -47.21 M95.92 -48.19 C95.94 -49.37, 96.78 -52.78, 94.86 -60.17 M96.18 -47.72 C95.44 -50.93, 95.09 -55.38, 95.18 -60.5 M95.09 -60.15 C99.72 -59.31, 103.1 -56.11, 109.12 -55.17 M95.91 -60.74 C100.12 -58.46, 104.17 -57.59, 108.52 -55.08 M109.24 -54.95 C109.24 -54.95, 109.24 -54.95, 109.24 -54.95 M109.24 -54.95 C109.24 -54.95, 109.24 -54.95, 109.24 -54.95" stroke="#1e1e1e" stroke-width="2" fill="none"></path></g></g><mask id="mask-Y-wTYTzpdw3su_nqJra2O"><rect x="0" y="0" fill="#fff" width="1614.1699218749995" height="379.64139882754534"></rect><rect x="1425.4804687499995" y="169.72731119791752" fill="#000" width="35.79296875" height="32.199999999999996" opacity="1"></rect></mask><g stroke-opacity="0.9" fill-opacity="0.9" transform="translate(1425.4804687499995 169.72731119791752) rotate(0 32.46150420336153 29.14726583436459)"><text x="17.896484375" y="25.760546874999996" font-family="Helvetica, Segoe UI Emoji" font-size="28px" fill="#1e1e1e" text-anchor="middle" style="white-space: pre;" direction="ltr" dominant-baseline="alphabetic">No</text></g><g mask="url(#mask-_SF7gYPgJMtGEEZ7jTYZU)" stroke-linecap="round"><g stroke-opacity="0.9" fill-opacity="0.9" transform="translate(1398.3563971531034 380.0100725497068) rotate(0 90.04055142344805 38.933291580792684)"><path d="M0.38 2.29 C10.72 12.83, 34.94 52.7, 64.8 64.84 C94.65 76.99, 160.47 72.69, 179.5 75.16 M-2.86 1.07 C6.99 11.95, 33.27 55.95, 63.31 68.57 C93.36 81.2, 158.11 75.8, 177.38 76.81" stroke="#1e1e1e" stroke-width="2" fill="none"></path></g><g stroke-opacity="0.9" fill-opacity="0.9" transform="translate(1398.3563971531034 380.0100725497068) rotate(0 90.04055142344805 38.933291580792684)"><path d="M176.74 75.2 L163.79 82.44 L163.84 72.07 L178.68 74.94" stroke="none" stroke-width="0" fill="#1e1e1e" fill-rule="evenodd"></path><path d="M178.61 77.55 C172.13 79.07, 165.2 81.32, 164.79 83.56 M177.35 76.31 C173.82 78.37, 170.88 78.89, 164.49 83.05 M164.73 83.34 C163.52 80.08, 163.75 76.92, 164.8 70.45 M163.3 82.79 C163.92 79.52, 163.84 76.6, 163.6 70.52 M163.42 71.49 C167.7 72.26, 171.88 75.52, 177.83 78.3 M164.26 70.01 C166.04 71.74, 169.88 73.06, 177.93 77.42 M177.38 76.81 C177.38 76.81, 177.38 76.81, 177.38 76.81 M177.38 76.81 C177.38 76.81, 177.38 76.81, 177.38 76.81" stroke="#1e1e1e" stroke-width="2" fill="none"></path></g></g><mask id="mask-_SF7gYPgJMtGEEZ7jTYZU"><rect x="0" y="0" fill="#fff" width="1678.4374999999995" height="557.8766557112922"></rect><rect x="1438.9189453125" y="428.5671549479175" fill="#000" width="45.677734375" height="32.199999999999996" opacity="1"></rect></mask><g stroke-opacity="0.9" fill-opacity="0.9" transform="translate(1438.9189453125 428.5671549479175) rotate(0 47.75655859222684 -9.461882640566273)"><text x="22.8388671875" y="25.760546874999996" font-family="Helvetica, Segoe UI Emoji" font-size="28px" fill="#1e1e1e" text-anchor="middle" style="white-space: pre;" direction="ltr" dominant-baseline="alphabetic">Yes</text></g><g mask="url(#mask-NjZqDv0zXQhyeKxwPU27X)" stroke-linecap="round"><g stroke-opacity="0.9" fill-opacity="0.9" transform="translate(1783.5703125 224.36246744791788) rotate(0 76.82421875 19.79296875)"><path d="M-0.58 -2.7 C11.19 4.16, 46.22 35.59, 72.03 41.39 C97.83 47.18, 140.87 33.56, 154.26 32.07 M4.3 2 C15.47 8.06, 44.43 32.04, 69.18 37.35 C93.93 42.66, 138.93 34.45, 152.78 33.89" stroke="#1e1e1e" stroke-width="2" fill="none"></path></g><g stroke-opacity="0.9" fill-opacity="0.9" transform="translate(1783.5703125 224.36246744791788) rotate(0 76.82421875 19.79296875)"><path d="M152.88 35.41 L141.21 39.72 L140.45 30.26 L151.19 34.81" stroke="none" stroke-width="0" fill="#1e1e1e" fill-rule="evenodd"></path><path d="M151.34 33.29 C149.25 36.88, 142.51 38.57, 138.82 41.53 M152.14 33.31 C150.38 35.55, 146.27 37.44, 140.39 42.12 M139.85 41.46 C140.59 37.58, 138.66 32.82, 139.17 27.92 M139.87 41.61 C139.46 38.62, 139.29 35.91, 138.3 28.83 M138.62 30.15 C144.2 32.27, 147.64 33.93, 153.08 34.91 M138.76 28.79 C142.35 30.73, 145.35 30.86, 152.15 34.09 M152.78 33.89 C152.78 33.89, 152.78 33.89, 152.78 33.89 M152.78 33.89 C152.78 33.89, 152.78 33.89, 152.78 33.89" stroke="#1e1e1e" stroke-width="2" fill="none"></path></g></g><mask id="mask-NjZqDv0zXQhyeKxwPU27X"><rect x="0" y="0" fill="#fff" width="2037.21875" height="363.9484049479179"></rect><rect x="1838.8222656249995" y="247.84840494791752" fill="#000" width="35.79296875" height="32.199999999999996" opacity="1"></rect></mask><g stroke-opacity="0.9" fill-opacity="0.9" transform="translate(1838.8222656249995 247.84840494791752) rotate(0 21.58851258605705 -3.430593136902189)"><text x="17.896484375" y="25.760546874999996" font-family="Helvetica, Segoe UI Emoji" font-size="28px" fill="#1e1e1e" text-anchor="middle" style="white-space: pre;" direction="ltr" dominant-baseline="alphabetic">No</text></g><g mask="url(#mask-EUKYRoE10Y8_r_wcCNW53)" stroke-linecap="round"><g stroke-opacity="0.9" fill-opacity="0.9" transform="translate(1770.859375 85.75309244791788) rotate(0 311.9752383393377 37.2265625)"><path d="M0.61 -2.38 C55.46 -4.41, 224.1 -24.23, 327.97 -10.34 C431.84 3.54, 574.9 65.24, 623.85 80.93 M-2.5 2.49 C51.96 0.61, 220.97 -21.24, 325.05 -7.81 C429.13 5.61, 572.66 67.24, 621.98 83.04" stroke="#1e1e1e" stroke-width="2" fill="none"></path></g><g stroke-opacity="0.9" fill-opacity="0.9" transform="translate(1770.859375 85.75309244791788) rotate(0 311.9752383393377 37.2265625)"><path d="M623.82 84.33 L605.45 85.28 L611.26 71.33 L623.12 82.24" stroke="none" stroke-width="0" fill="#1e1e1e" fill-rule="evenodd"></path><path d="M620.71 82.36 C617.02 83.36, 613.24 82.53, 607.6 83.07 M621.56 82.95 C619.14 83.83, 615.39 83.41, 607.01 84.32 M606.57 83.39 C608.75 79.86, 608.59 77.48, 610.61 72.36 M607.02 84.53 C608.07 80.59, 610.1 77.05, 611.28 72.44 M610.13 73.81 C615.71 77.37, 618.36 78.91, 621.71 83.34 M611.69 72.05 C613.75 75.49, 617.16 78.78, 621.25 83.58 M621.98 83.04 C621.98 83.04, 621.98 83.04, 621.98 83.04 M621.98 83.04 C621.98 83.04, 621.98 83.04, 621.98 83.04" stroke="#1e1e1e" stroke-width="2" fill="none"></path></g></g><mask id="mask-EUKYRoE10Y8_r_wcCNW53"><rect x="0" y="0" fill="#fff" width="2494.8098516786754" height="276.8468424479179"></rect><rect x="2077.2548828124995" y="61.332779947917516" fill="#000" width="45.677734375" height="32.199999999999996" opacity="1"></rect></mask><g stroke-opacity="0.9" fill-opacity="0.9" transform="translate(2077.2548828124995 61.332779947917516) rotate(0 4.277159737306874 58.317466475011315)"><text x="22.8388671875" y="25.760546874999996" font-family="Helvetica, Segoe UI Emoji" font-size="28px" fill="#1e1e1e" text-anchor="middle" style="white-space: pre;" direction="ltr" dominant-baseline="alphabetic">Yes</text></g><g stroke-linecap="round"><g stroke-opacity="0.9" fill-opacity="0.9" transform="translate(1814.7434915193908 467.33162247587643) rotate(0 290.900987870393 -58.10296992466738)"><path d="M-0.1 -1.84 C52.09 -2.38, 215.32 14.2, 311.9 -5.22 C408.49 -24.64, 534 -99.75, 579.4 -118.36 M-3.6 3.33 C49.56 2.11, 218.97 10.29, 317.06 -9.67 C415.15 -29.63, 541.51 -98.92, 584.93 -116.42" stroke="#1e1e1e" stroke-width="2" fill="none"></path></g><g stroke-opacity="0.9" fill-opacity="0.9" transform="translate(1814.7434915193908 467.33162247587643) rotate(0 290.900987870393 -58.10296992466738)"><path d="M584.83 -117.53 L576.39 -105.76 L570.61 -118.13 L583.42 -116.97" stroke="none" stroke-width="0" fill="#1e1e1e" fill-rule="evenodd"></path><path d="M583.95 -117.64 C582.94 -114.78, 578.76 -109.24, 574.89 -105.8 M585 -116.59 C582.19 -113.09, 579.37 -109.14, 575.19 -105.24 M574.38 -104.93 C573.25 -107.66, 572.88 -110.45, 569.88 -116.5 M575.65 -105.01 C573.47 -108.75, 572.32 -112.34, 570.57 -117 M568.86 -117.92 C575.53 -116.25, 581.33 -115.43, 586.15 -115.78 M569.78 -115.91 C572.93 -115.96, 577.6 -117, 585.37 -116.32 M584.93 -116.42 C584.93 -116.42, 584.93 -116.42, 584.93 -116.42 M584.93 -116.42 C584.93 -116.42, 584.93 -116.42, 584.93 -116.42" stroke="#1e1e1e" stroke-width="2" fill="none"></path></g></g><mask></mask><g stroke-linecap="round"><g stroke-opacity="0.9" fill-opacity="0.9" transform="translate(266.3183593750002 295.1573893229179) rotate(0 42.19238281249994 1.0595703125)"><path d="M-2.29 1.04 C11.39 1.34, 67.12 -0.1, 81.99 -0.03 M1.66 -0.87 C16.2 -0.11, 72.96 1.59, 87.09 2.43" stroke="#1e1e1e" stroke-width="2" fill="none"></path></g><g stroke-opacity="0.9" fill-opacity="0.9" transform="translate(266.3183593750002 295.1573893229179) rotate(0 42.19238281249994 1.0595703125)"><path d="M88.23 1.63 L73.91 6.52 L72.26 -5.04 L88.82 1.02" stroke="none" stroke-width="0" fill="#1e1e1e" fill-rule="evenodd"></path><path d="M87.64 1.14 C81.79 5.36, 78.48 4.88, 73.04 9.15 M87.06 2.4 C81.87 5.15, 76.73 6.39, 72.66 8.51 M72.47 8.1 C73.5 5.13, 73.5 2.64, 74.13 -5.12 M73.14 8.18 C73.8 4.85, 74.09 0.61, 74.36 -4.36 M73.5 -4.19 C78.27 -0.71, 84.74 1.37, 86.32 1.17 M73.04 -3.94 C78.32 -2.84, 82.91 0.03, 86.67 2.68 M87.09 2.43 C87.09 2.43, 87.09 2.43, 87.09 2.43 M87.09 2.43 C87.09 2.43, 87.09 2.43, 87.09 2.43" stroke="#1e1e1e" stroke-width="2" fill="none"></path></g></g><mask></mask></svg>