<svg width="24" height="24" viewBox="0 0 24 24" fill="none" xmlns="http://www.w3.org/2000/svg">
<mask id="mask0_5432_2123" style="mask-type:alpha" maskUnits="userSpaceOnUse" x="1" y="1" width="22" height="22">
<path d="M18 10.0001L14 6.00006M2.5 21.5001L5.88437 21.124C6.29786 21.0781 6.5046 21.0551 6.69785 20.9925C6.86929 20.937 7.03245 20.8586 7.18289 20.7594C7.35245 20.6476 7.49955 20.5005 7.79373 20.2063L21 7.00006C22.1046 5.89549 22.1046 4.10463 21 3.00006C19.8955 1.89549 18.1046 1.89549 17 3.00006L3.79373 16.2063C3.49955 16.5005 3.35246 16.6476 3.24064 16.8172C3.14143 16.9676 3.06301 17.1308 3.00751 17.3022C2.94496 17.4955 2.92198 17.7022 2.87604 18.1157L2.5 21.5001Z" stroke="#6C7E9D" stroke-width="2" stroke-linecap="round" stroke-linejoin="round"/>
</mask>
<g mask="url(#mask0_5432_2123)">
<rect width="24" height="24" fill="currentColor" fill-opacity="0.9"/>
</g>
</svg>
