<svg width="600" height="400" viewBox="0 0 600 400" xmlns="http://www.w3.org/2000/svg"><title>Collections</title><g fill="none" fill-rule="evenodd"><path fill="#576167" d="M0 0h600v400H0z"/><path d="M133 88V64H53v24H37v56h112V88h-16zM61 72h64v16H61V72zm80 64H45V96h96v40zm-8-88H53v8h80v-8zm0-16H53v8h80v-8zM340 88V64h-80v24h-16v56h112V88h-16zm-72-16h64v16h-64V72zm80 64h-96V96h96v40zm-8-88h-80v8h80v-8zm0-16h-80v8h80v-8z" fill="#FFF" fill-rule="nonzero" opacity=".1"/><path d="M320 215v-12h-40v12h-8v28h56v-28h-8zm-36-8h32v8h-32v-8zm40 32h-48v-20h48v20zm-4-44h-40v4h40v-4zm0-8h-40v4h40v-4z" fill="#FFF" fill-rule="nonzero" opacity=".3"/><path d="M250 326v-6h-20v6h-4v14h28v-14h-4zm-18-4h16v4h-16v-4zm20 16h-24v-10h24v10zm-2-22h-20v2h20v-2zm0-4h-20v2h20v-2zM310 326v-6h-20v6h-4v14h28v-14h-4zm-18-4h16v4h-16v-4zm20 16h-24v-10h24v10zm-2-22h-20v2h20v-2zm0-4h-20v2h20v-2zM370 326v-6h-20v6h-4v14h28v-14h-4zm-18-4h16v4h-16v-4zm20 16h-24v-10h24v10zm-2-22h-20v2h20v-2zm0-4h-20v2h20v-2z" fill="#FFF" fill-rule="nonzero"/><path d="M528 215v-12h-40v12h-8v28h56v-28h-8zm-36-8h32v8h-32v-8zm40 32h-48v-20h48v20zm-4-44h-40v4h40v-4zm0-8h-40v4h40v-4z" fill="#FFF" fill-rule="nonzero" opacity=".3"/><path d="M548 88V64h-80v24h-16v56h112V88h-16zm-72-16h64v16h-64V72zm80 64h-96V96h96v40zm-8-88h-80v8h80v-8zm0-16h-80v8h80v-8z" fill="#FFF" fill-rule="nonzero" opacity=".1"/><path d="M59.853 109.295L53.998 125h-1.783l5.854-15.705h1.783zm9.71 12.493c0 1.096-.408 1.94-1.224 2.535-.818.595-1.963.892-3.44.892-1.56 0-2.777-.247-3.65-.74v-1.656a8.832 8.832 0 0 0 1.82.676 7.603 7.603 0 0 0 1.874.247c.93 0 1.647-.148 2.15-.446.5-.297.75-.75.75-1.36 0-.457-.198-.85-.595-1.175-.4-.326-1.174-.71-2.327-1.155-1.096-.408-1.875-.764-2.337-1.068-.46-.306-.805-.65-1.03-1.038-.226-.387-.34-.85-.34-1.386 0-.96.39-1.717 1.172-2.272.78-.555 1.85-.832 3.212-.832 1.267 0 2.506.258 3.716.773l-.633 1.45c-1.182-.487-2.253-.73-3.212-.73-.844 0-1.482.132-1.91.397-.43.265-.646.63-.646 1.096 0 .315.08.584.242.806.16.222.42.433.78.633.357.2 1.044.49 2.06.87 1.398.51 2.34 1.02 2.832 1.537.49.515.735 1.163.735 1.944zm1.032-8.56h1.912l2.578 6.712c.566 1.533.917 2.64 1.053 3.32h.086c.093-.365.288-.99.585-1.875.296-.884 1.268-3.604 2.916-8.158h1.912l-5.06 13.406c-.5 1.325-1.087 2.265-1.756 2.82-.67.555-1.492.832-2.466.832-.544 0-1.08-.06-1.61-.182v-1.43c.393.087.833.13 1.32.13 1.225 0 2.1-.688 2.62-2.063l.657-1.676-4.748-11.837zm20.55 8.56c0 1.096-.41 1.94-1.225 2.535-.816.595-1.962.892-3.438.892-1.56 0-2.778-.247-3.652-.74v-1.656a8.832 8.832 0 0 0 1.82.676 7.603 7.603 0 0 0 1.875.247c.93 0 1.648-.148 2.15-.446.5-.297.75-.75.75-1.36 0-.457-.198-.85-.595-1.175-.398-.326-1.173-.71-2.326-1.155-1.096-.408-1.875-.764-2.337-1.068-.46-.306-.805-.65-1.03-1.038-.226-.387-.34-.85-.34-1.386 0-.96.39-1.717 1.172-2.272.78-.555 1.85-.832 3.21-.832 1.268 0 2.507.258 3.717.773l-.633 1.45c-1.182-.487-2.253-.73-3.212-.73-.845 0-1.483.132-1.912.397-.43.265-.645.63-.645 1.096 0 .315.08.584.242.806.16.222.42.433.78.633.357.2 1.044.49 2.06.87 1.398.51 2.34 1.02 2.832 1.537.49.515.735 1.163.735 1.944zm6.703 1.955c.315 0 .62-.023.913-.07a5.91 5.91 0 0 0 .7-.145v1.365c-.194.093-.48.17-.855.23-.376.06-.714.092-1.015.092-2.278 0-3.416-1.2-3.416-3.6v-7.003h-1.687v-.86l1.687-.74.752-2.514h1.03v2.73h3.417v1.384h-3.416v6.93c0 .708.168 1.252.505 1.632.337.38.798.57 1.386.57zm8.937 1.472c-1.74 0-3.113-.53-4.12-1.59-1.006-1.06-1.51-2.532-1.51-4.415 0-1.898.47-3.405 1.403-4.522.935-1.118 2.19-1.676 3.765-1.676 1.476 0 2.643.485 3.502 1.455.86.97 1.29 2.25 1.29 3.84v1.13h-8.11c.035 1.38.384 2.43 1.046 3.146.664.716 1.596 1.074 2.8 1.074 1.267 0 2.52-.265 3.76-.795v1.59a9.437 9.437 0 0 1-1.79.586c-.56.118-1.24.177-2.035.177zm-.483-10.71c-.946 0-1.7.308-2.26.924-.564.615-.895 1.467-.995 2.555h6.155c0-1.124-.25-1.985-.752-2.583-.5-.598-1.217-.897-2.148-.897zM129.162 125v-7.66c0-.937-.2-1.64-.602-2.11-.4-.47-1.025-.704-1.87-.704-1.11 0-1.93.32-2.46.956-.53.638-.794 1.62-.794 2.944V125h-1.784v-7.66c0-.937-.2-1.64-.6-2.11-.402-.47-1.03-.704-1.88-.704-1.118 0-1.936.335-2.456 1.005-.52.67-.778 1.768-.778 3.293V125h-1.784v-11.773h1.45l.29 1.61h.086c.337-.572.812-1.02 1.424-1.342.612-.322 1.298-.483 2.057-.483 1.84 0 3.045.666 3.61 1.998h.086c.35-.616.86-1.103 1.526-1.46.666-.36 1.425-.538 2.277-.538 1.33 0 2.328.342 2.99 1.026.663.684.994 1.777.994 3.28V125h-1.783zM268.853 109.295L262.998 125h-1.783l5.854-15.705h1.783zm9.71 12.493c0 1.096-.408 1.94-1.224 2.535-.818.595-1.963.892-3.44.892-1.56 0-2.777-.247-3.65-.74v-1.656a8.833 8.833 0 0 0 1.82.676 7.603 7.603 0 0 0 1.874.247c.93 0 1.647-.148 2.15-.446.5-.297.75-.75.75-1.36 0-.457-.198-.85-.595-1.175-.4-.326-1.174-.71-2.327-1.155-1.096-.408-1.875-.764-2.337-1.068-.46-.306-.805-.65-1.03-1.038-.226-.387-.34-.85-.34-1.386 0-.96.39-1.717 1.172-2.272.78-.555 1.85-.832 3.212-.832 1.267 0 2.506.258 3.716.773l-.633 1.45c-1.182-.487-2.253-.73-3.212-.73-.844 0-1.482.132-1.91.397-.43.265-.646.63-.646 1.096 0 .315.08.584.242.806.16.222.42.433.78.633.357.2 1.044.49 2.06.87 1.398.51 2.34 1.02 2.832 1.537.49.515.735 1.163.735 1.944zM289.52 125v-7.616c0-.96-.218-1.676-.655-2.15-.437-.47-1.12-.708-2.052-.708-1.238 0-2.143.337-2.712 1.01-.568.673-.853 1.776-.853 3.31V125h-1.783v-16.715h1.783v5.06c0 .608-.03 1.113-.086 1.514h.11c.35-.566.85-1.012 1.497-1.338.648-.326 1.388-.49 2.218-.49 1.44 0 2.52.343 3.24 1.027.72.683 1.08 1.77 1.08 3.26V125h-1.784zm12.687 0l-.354-1.676h-.086c-.588.738-1.173 1.237-1.757 1.5-.583.26-1.312.39-2.186.39-1.167 0-2.082-.3-2.744-.9-.663-.603-.994-1.46-.994-2.57 0-2.376 1.9-3.623 5.704-3.737l1.998-.065v-.73c0-.924-.2-1.606-.596-2.046-.398-.44-1.033-.66-1.907-.66-.98 0-2.09.3-3.33.9l-.548-1.363a8.38 8.38 0 0 1 1.907-.74c.69-.18 1.384-.27 2.08-.27 1.402 0 2.442.312 3.12.935.676.623 1.014 1.622 1.014 2.997V125h-1.32zm-4.028-1.257c1.11 0 1.98-.304 2.614-.913.634-.61.95-1.46.95-2.557v-1.063l-1.782.075c-1.418.05-2.44.27-3.067.66-.627.39-.94.998-.94 1.822 0 .644.195 1.135.586 1.47.39.338.937.506 1.64.506zm14.393-10.73c.523 0 .992.042 1.407.128l-.247 1.655a6.074 6.074 0 0 0-1.29-.16c-.95 0-1.766.386-2.443 1.16-.676.772-1.015 1.736-1.015 2.89V125h-1.783v-11.773h1.472l.204 2.18h.086c.437-.766.963-1.357 1.58-1.772a3.555 3.555 0 0 1 2.03-.623zm8.143 12.202c-1.74 0-3.114-.53-4.12-1.59-1.006-1.06-1.51-2.532-1.51-4.415 0-1.898.468-3.405 1.403-4.522.933-1.118 2.188-1.676 3.764-1.676 1.475 0 2.642.485 3.502 1.455.86.97 1.29 2.25 1.29 3.84v1.13h-8.11c.034 1.38.383 2.43 1.046 3.146.662.716 1.595 1.074 2.798 1.074 1.268 0 2.52-.265 3.76-.795v1.59a9.437 9.437 0 0 1-1.79.586c-.56.118-1.24.177-2.034.177zm-.484-10.71c-.945 0-1.7.308-2.26.924-.563.615-.894 1.467-.994 2.555h6.155c0-1.124-.25-1.985-.752-2.583-.5-.598-1.217-.897-2.148-.897zm15.867 8.916H336c-.824 1.197-2.055 1.795-3.695 1.795-1.54 0-2.738-.527-3.594-1.58-.855-1.052-1.283-2.55-1.283-4.49 0-1.94.43-3.448 1.29-4.522.858-1.074 2.054-1.61 3.587-1.61 1.597 0 2.82.58 3.673 1.74h.14l-.075-.85-.043-.827v-4.79h1.783V125h-1.45l-.236-1.58zm-3.568.302c1.218 0 2.1-.332 2.648-.994.548-.662.822-1.73.822-3.207v-.374c0-1.67-.278-2.86-.833-3.572-.556-.713-1.442-1.07-2.66-1.07-1.045 0-1.845.407-2.4 1.22-.555.813-.833 1.96-.833 3.443 0 1.504.276 2.64.827 3.405.552.767 1.36 1.15 2.428 1.15zM282.283 253.434L279.09 262h-.973l3.194-8.566h.973zm4.143 8.683c-.418 0-.8-.077-1.146-.23a2.154 2.154 0 0 1-.87-.713h-.07c.047.375.07.73.07 1.066v2.643h-.973v-9.305h.792l.133.88h.047c.25-.353.54-.606.873-.763a2.654 2.654 0 0 1 1.143-.234c.85 0 1.51.292 1.97.874.464.582.696 1.398.696 2.45 0 1.054-.236 1.873-.706 2.457-.47.585-1.124.877-1.96.877zm-.14-5.83c-.657 0-1.132.182-1.425.545-.292.363-.442.94-.45 1.734v.217c0 .903.15 1.548.45 1.937.302.388.785.583 1.45.583.553 0 .988-.225 1.302-.674.315-.45.472-1.07.472-1.86 0-.8-.157-1.414-.472-1.84-.314-.43-.757-.643-1.327-.643zm7.435-.826c.286 0 .542.024.768.07l-.134.904c-.266-.06-.5-.088-.704-.088-.52 0-.963.21-1.333.633-.37.42-.553.946-.553 1.575V262h-.973v-6.422h.804l.11 1.19h.048c.238-.418.525-.74.86-.967a1.94 1.94 0 0 1 1.11-.34zm2.942 6.54h-.973v-6.422h.972V262zm-1.055-8.162c0-.223.055-.386.164-.49a.573.573 0 0 1 .412-.155c.156 0 .29.053.404.16.113.104.17.266.17.485 0 .22-.057.382-.17.49a.567.567 0 0 1-.404.16.562.562 0 0 1-.41-.16c-.11-.108-.165-.27-.165-.49zM300.13 262l-2.437-6.422h1.043l1.383 3.81c.312.89.495 1.467.55 1.733h.047c.043-.206.18-.635.407-1.285.23-.65.74-2.07 1.538-4.257h1.043L301.268 262h-1.137zm8.556 0l-.194-.914h-.047c-.32.402-.64.675-.958.817-.318.143-.716.214-1.192.214-.637 0-1.136-.164-1.497-.492-.36-.328-.542-.795-.542-1.4 0-1.297 1.037-1.977 3.11-2.04l1.09-.035v-.398c0-.504-.107-.876-.324-1.116-.217-.24-.564-.36-1.04-.36-.535 0-1.14.163-1.817.492l-.298-.745a4.57 4.57 0 0 1 1.04-.404 4.504 4.504 0 0 1 1.133-.147c.766 0 1.333.17 1.703.51.37.34.553.884.553 1.634V262h-.72zm-2.198-.686c.606 0 1.08-.166 1.427-.498.346-.332.52-.796.52-1.394v-.58l-.974.04c-.773.028-1.33.148-1.672.36-.342.214-.513.545-.513.994 0 .352.107.62.32.803.213.183.51.274.893.274zm6.996 0c.172 0 .338-.012.498-.038.16-.025.288-.05.38-.08v.745c-.104.052-.26.094-.465.127-.205.034-.39.05-.553.05-1.242 0-1.864-.654-1.864-1.963v-3.82h-.92v-.47l.92-.403.41-1.37h.563v1.488h1.863v.756h-1.863v3.78c0 .386.092.683.276.89.182.207.434.31.754.31zm4.875.803c-.95 0-1.7-.29-2.248-.867-.55-.578-.823-1.38-.823-2.408 0-1.035.254-1.858.764-2.467.51-.61 1.194-.914 2.053-.914.805 0 1.442.266 1.91.795.47.53.704 1.227.704 2.095v.615h-4.423c.02.754.21 1.326.57 1.717.362.39.87.586 1.528.586.69 0 1.375-.145 2.05-.434v.867c-.343.15-.67.256-.975.32a5.483 5.483 0 0 1-1.11.097zm-.264-5.842c-.516 0-.927.168-1.234.504-.306.335-.487.8-.542 1.394h3.358c0-.613-.137-1.083-.41-1.41-.274-.326-.664-.49-1.172-.49zM224.283 350.434L221.09 359h-.973l3.194-8.566h.973zm5.104 8.566l-.194-.914h-.047c-.32.402-.64.675-.958.817-.318.143-.715.214-1.192.214-.637 0-1.136-.164-1.497-.492-.362-.328-.543-.795-.543-1.4 0-1.297 1.037-1.977 3.11-2.04l1.09-.035v-.398c0-.504-.107-.876-.324-1.116-.217-.24-.563-.36-1.04-.36-.535 0-1.14.163-1.816.492l-.3-.745a4.57 4.57 0 0 1 1.04-.404 4.504 4.504 0 0 1 1.135-.147c.765 0 1.333.17 1.702.51.37.34.553.884.553 1.634V359h-.72zm-2.198-.686c.605 0 1.08-.166 1.426-.498.346-.332.52-.796.52-1.394v-.58l-.974.04c-.773.028-1.33.148-1.673.36-.343.214-.513.545-.513.994 0 .352.106.62.32.803.212.183.51.274.892.274zm9.292-.175h-.052c-.45.65-1.12.977-2.016.977-.84 0-1.493-.287-1.96-.86-.467-.575-.7-1.392-.7-2.45 0-1.06.234-1.88.703-2.467.47-.586 1.12-.88 1.957-.88.87 0 1.54.317 2.004.95h.076l-.04-.463-.024-.45v-2.614h.972V359h-.79l-.13-.86zm-1.945.163c.664 0 1.146-.18 1.444-.542.3-.36.45-.944.45-1.748v-.205c0-.91-.152-1.56-.454-1.95-.303-.387-.787-.582-1.45-.582-.57 0-1.007.222-1.31.665-.303.444-.454 1.07-.454 1.878 0 .82.15 1.44.45 1.858.302.418.743.627 1.325.627zm13.113.697v-4.178c0-.51-.11-.895-.328-1.15-.218-.257-.558-.385-1.02-.385-.605 0-1.052.174-1.34.522-.29.346-.435.88-.435 1.604V359h-.972v-4.178c0-.51-.11-.895-.328-1.15-.22-.257-.56-.385-1.026-.385-.608 0-1.054.183-1.338.548-.283.365-.424.964-.424 1.796V359h-.973v-6.422h.79l.16.88h.046c.185-.313.443-.558.777-.733a2.372 2.372 0 0 1 1.122-.264c1.003 0 1.66.364 1.968 1.09h.047c.19-.335.47-.6.832-.796a2.582 2.582 0 0 1 1.242-.293c.726 0 1.27.187 1.63.56.362.374.543.97.543 1.79V359h-.973zm3.95 0h-.973v-6.422h.973V359zm-1.055-8.162c0-.223.055-.386.164-.49a.573.573 0 0 1 .41-.155c.155 0 .29.053.403.16.114.104.17.266.17.485 0 .22-.056.382-.17.49a.567.567 0 0 1-.404.16.562.562 0 0 1-.41-.16c-.11-.108-.165-.27-.165-.49zm7.512 8.162v-4.154c0-.524-.12-.914-.358-1.172-.24-.258-.612-.387-1.12-.387-.672 0-1.164.182-1.476.545-.313.363-.47.963-.47 1.8V359h-.972v-6.422h.79l.16.88h.046c.2-.317.48-.562.838-.736.36-.174.76-.26 1.2-.26.775 0 1.357.185 1.747.56.39.372.586.968.586 1.79V359h-.973zM286.283 350.434L283.09 359h-.973l3.194-8.566h.973zm2.07 2.144v4.166c0 .524.118.914.356 1.172.237.258.61.387 1.118.387.672 0 1.163-.184 1.474-.55.31-.368.466-.968.466-1.8v-3.375h.972V359h-.803l-.14-.86h-.053c-.2.315-.475.557-.83.725a2.787 2.787 0 0 1-1.21.252c-.78 0-1.365-.185-1.754-.556-.388-.37-.583-.964-.583-1.78v-4.202h.985zm10.592 4.67c0 .598-.222 1.06-.668 1.383-.445.325-1.07.487-1.875.487-.85 0-1.515-.135-1.992-.404v-.902c.31.157.64.28.993.37.354.09.695.134 1.023.134.508 0 .898-.08 1.172-.243.273-.16.41-.408.41-.74 0-.25-.11-.464-.325-.642-.217-.177-.64-.387-1.27-.63-.597-.222-1.02-.416-1.273-.582a1.74 1.74 0 0 1-.563-.566 1.475 1.475 0 0 1-.184-.756c0-.523.212-.936.638-1.24.427-.302 1.01-.453 1.753-.453.692 0 1.367.142 2.028.423l-.345.79c-.645-.265-1.23-.398-1.752-.398-.46 0-.81.073-1.043.217-.234.145-.352.344-.352.598 0 .172.044.318.132.44.088.12.23.236.425.345.195.11.57.268 1.125.475.762.277 1.276.556 1.544.837.268.282.4.635.4 1.06zm4.295 1.87c-.95 0-1.698-.29-2.247-.868-.55-.578-.823-1.38-.823-2.408 0-1.035.255-1.858.765-2.467.51-.61 1.194-.914 2.053-.914.805 0 1.442.266 1.91.795.47.53.704 1.227.704 2.095v.615h-4.424c.02.754.21 1.326.57 1.717.362.39.87.586 1.527.586.692 0 1.375-.145 2.05-.434v.867c-.343.15-.668.256-.974.32a5.483 5.483 0 0 1-1.11.097zm-.263-5.843c-.516 0-.927.168-1.234.504-.306.335-.487.8-.542 1.394h3.36c0-.613-.138-1.083-.412-1.41-.273-.326-.664-.49-1.17-.49zm7.212-.814c.285 0 .54.024.767.07l-.135.904c-.265-.06-.5-.088-.703-.088-.52 0-.965.21-1.334.633-.37.42-.554.946-.554 1.575V359h-.972v-6.422h.803l.11 1.19h.048c.24-.418.526-.74.862-.967a1.94 1.94 0 0 1 1.107-.34zm7.154 6.54h-5.63v-.838l2.255-2.267c.686-.696 1.14-1.192 1.358-1.49.22-.296.383-.585.492-.866.11-.282.164-.585.164-.91 0-.456-.138-.818-.416-1.086-.277-.268-.662-.4-1.154-.4-.355 0-.692.057-1.01.174-.32.118-.674.33-1.064.64l-.516-.663c.79-.656 1.65-.984 2.578-.984.805 0 1.436.207 1.893.62.457.41.685.965.685 1.66 0 .543-.152 1.08-.457 1.61-.304.532-.875 1.204-1.71 2.017l-1.875 1.834v.048h4.406V359zM346.283 350.434L343.09 359h-.973l3.194-8.566h.973zm2.07 2.144v4.166c0 .524.118.914.356 1.172.237.258.61.387 1.118.387.672 0 1.163-.184 1.474-.55.31-.368.466-.968.466-1.8v-3.375h.972V359h-.803l-.14-.86h-.053c-.2.315-.475.557-.83.725a2.787 2.787 0 0 1-1.21.252c-.78 0-1.365-.185-1.754-.556-.388-.37-.583-.964-.583-1.78v-4.202h.985zm10.592 4.67c0 .598-.222 1.06-.668 1.383-.445.325-1.07.487-1.875.487-.85 0-1.515-.135-1.992-.404v-.902c.31.157.64.28.993.37.354.09.695.134 1.023.134.508 0 .898-.08 1.172-.243.273-.16.41-.408.41-.74 0-.25-.11-.464-.325-.642-.217-.177-.64-.387-1.27-.63-.597-.222-1.02-.416-1.273-.582a1.74 1.74 0 0 1-.563-.566 1.475 1.475 0 0 1-.184-.756c0-.523.212-.936.638-1.24.427-.302 1.01-.453 1.753-.453.692 0 1.367.142 2.028.423l-.345.79c-.645-.265-1.23-.398-1.752-.398-.46 0-.81.073-1.043.217-.234.145-.352.344-.352.598 0 .172.044.318.132.44.088.12.23.236.425.345.195.11.57.268 1.125.475.762.277 1.276.556 1.544.837.268.282.4.635.4 1.06zm4.295 1.87c-.95 0-1.698-.29-2.247-.868-.55-.578-.823-1.38-.823-2.408 0-1.035.255-1.858.765-2.467.51-.61 1.194-.914 2.053-.914.805 0 1.442.266 1.91.795.47.53.704 1.227.704 2.095v.615h-4.424c.02.754.21 1.326.57 1.717.362.39.87.586 1.527.586.692 0 1.375-.145 2.05-.434v.867c-.343.15-.668.256-.974.32a5.483 5.483 0 0 1-1.11.097zm-.263-5.843c-.516 0-.927.168-1.234.504-.306.335-.487.8-.542 1.394h3.36c0-.613-.138-1.083-.412-1.41-.273-.326-.664-.49-1.17-.49zm7.212-.814c.285 0 .54.024.767.07l-.135.904c-.265-.06-.5-.088-.703-.088-.52 0-.965.21-1.334.633-.37.42-.554.946-.554 1.575V359h-.972v-6.422h.803l.11 1.19h.048c.24-.418.526-.74.862-.967a1.94 1.94 0 0 1 1.107-.34zm6.83-.01c0 .546-.152.993-.458 1.34-.307.35-.742.58-1.304.698v.047c.687.086 1.197.305 1.53.656.33.353.497.814.497 1.384 0 .817-.283 1.445-.85 1.884-.566.44-1.37.66-2.414.66-.452 0-.867-.035-1.244-.103a4.26 4.26 0 0 1-1.098-.36v-.926c.37.182.766.322 1.186.417.42.096.818.144 1.193.144 1.48 0 2.22-.58 2.22-1.74 0-1.038-.816-1.558-2.45-1.558h-.843v-.838h.856c.668 0 1.197-.147 1.588-.442.39-.295.586-.704.586-1.228 0-.418-.144-.746-.43-.984-.288-.238-.678-.357-1.17-.357-.375 0-.728.05-1.06.152-.333.1-.71.29-1.137.562l-.492-.656a4.103 4.103 0 0 1 1.215-.652 4.42 4.42 0 0 1 1.45-.237c.833 0 1.48.19 1.94.572.46.38.69.903.69 1.567zM466.283 253.434L463.09 262h-.973l3.194-8.566h.973zm4.143 8.683c-.418 0-.8-.077-1.146-.23a2.154 2.154 0 0 1-.87-.713h-.07c.047.375.07.73.07 1.066v2.643h-.973v-9.305h.792l.133.88h.047c.25-.353.54-.606.873-.763a2.654 2.654 0 0 1 1.143-.234c.85 0 1.51.292 1.97.874.464.582.696 1.398.696 2.45 0 1.054-.236 1.873-.706 2.457-.47.585-1.124.877-1.96.877zm-.14-5.83c-.657 0-1.132.182-1.425.545-.292.363-.442.94-.45 1.734v.217c0 .903.15 1.548.45 1.937.302.388.785.583 1.45.583.553 0 .988-.225 1.302-.674.315-.45.472-1.07.472-1.86 0-.8-.157-1.414-.472-1.84-.314-.43-.757-.643-1.327-.643zm7.435-.826c.286 0 .542.024.768.07l-.134.904c-.266-.06-.5-.088-.704-.088-.52 0-.963.21-1.333.633-.37.42-.553.946-.553 1.575V262h-.973v-6.422h.804l.11 1.19h.048c.238-.418.525-.74.86-.967a1.94 1.94 0 0 1 1.11-.34zm7.272 3.323c0 1.047-.263 1.864-.79 2.452-.528.588-1.257.882-2.186.882-.575 0-1.084-.135-1.53-.404a2.668 2.668 0 0 1-1.03-1.16c-.243-.504-.364-1.094-.364-1.77 0-1.047.262-1.862.785-2.446.523-.584 1.25-.876 2.18-.876.898 0 1.612.3 2.14.897.53.598.795 1.407.795 2.426zm-4.892 0c0 .82.164 1.446.492 1.875.328.43.81.645 1.447.645.636 0 1.12-.214 1.45-.642.33-.427.494-1.053.494-1.877 0-.816-.165-1.436-.495-1.86-.33-.424-.818-.636-1.463-.636-.636 0-1.117.21-1.44.627-.325.418-.487 1.04-.487 1.87zm10.968 2.356h-.052c-.45.65-1.12.977-2.016.977-.84 0-1.493-.287-1.96-.86-.467-.575-.7-1.392-.7-2.45 0-1.06.234-1.88.703-2.467.47-.586 1.12-.88 1.957-.88.87 0 1.54.317 2.004.95h.076l-.04-.463-.024-.45v-2.614h.972V262h-.79l-.13-.86zm-1.945.163c.664 0 1.146-.18 1.444-.542.3-.36.45-.944.45-1.748v-.205c0-.91-.153-1.56-.455-1.95-.303-.387-.787-.582-1.45-.582-.57 0-1.008.222-1.31.665-.303.444-.454 1.07-.454 1.878 0 .82.15 1.44.45 1.858.302.418.743.627 1.325.627zm8.18-7.87L494.11 262h-.973l3.193-8.566h.973zM503.7 262l-1.177-3.768c-.074-.23-.212-.753-.416-1.57h-.046a21.48 21.48 0 0 1-.41 1.582L500.438 262h-1.125l-1.752-6.422h1.02l.946 3.686c.217.843.34 1.412.372 1.705h.047c.043-.224.113-.512.208-.866.096-.353.18-.633.25-.84l1.177-3.686h1.055l1.148 3.686c.22.672.367 1.236.446 1.693h.045a6.21 6.21 0 0 1 .126-.65c.07-.293.477-1.87 1.223-4.73h1.008L504.856 262H503.7zm6.804.117c-.95 0-1.698-.29-2.247-.867-.55-.578-.823-1.38-.823-2.408 0-1.035.254-1.858.764-2.467.51-.61 1.195-.914 2.054-.914.805 0 1.44.266 1.91.795.47.53.703 1.227.703 2.095v.615h-4.424c.02.754.21 1.326.573 1.717.36.39.87.586 1.526.586.69 0 1.374-.145 2.05-.434v.867c-.344.15-.67.256-.976.32a5.483 5.483 0 0 1-1.11.097zm-.264-5.842c-.515 0-.927.168-1.233.504-.307.335-.487.8-.542 1.394h3.357c0-.613-.136-1.083-.41-1.41-.273-.326-.664-.49-1.172-.49zm7.272-.802c.843 0 1.5.288 1.966.864.466.576.7 1.392.7 2.446 0 1.055-.236 1.874-.706 2.458-.47.585-1.124.877-1.96.877-.418 0-.8-.077-1.146-.23a2.154 2.154 0 0 1-.87-.713h-.07l-.205.826h-.697v-9.117h.973v2.215c0 .496-.016.94-.047 1.336h.046c.453-.64 1.125-.96 2.016-.96zm-.14.814c-.665 0-1.143.19-1.436.57-.293.382-.44 1.024-.44 1.926 0 .903.15 1.548.45 1.937.302.388.784.583 1.45.583.596 0 1.04-.218 1.334-.654.293-.436.44-1.062.44-1.88 0-.834-.147-1.457-.44-1.868-.293-.41-.746-.615-1.36-.615zm8.648 3.96c0 .6-.223 1.06-.668 1.384-.446.325-1.07.487-1.875.487-.852 0-1.516-.135-1.993-.404v-.902c.31.157.64.28.994.37.353.09.694.134 1.022.134.508 0 .898-.08 1.172-.243.273-.16.41-.408.41-.74 0-.25-.108-.464-.325-.642-.217-.177-.64-.387-1.27-.63-.596-.222-1.02-.416-1.273-.582a1.74 1.74 0 0 1-.563-.566 1.475 1.475 0 0 1-.183-.756c0-.523.213-.936.638-1.24.426-.302 1.01-.453 1.752-.453.692 0 1.368.142 2.028.423l-.346.79c-.645-.265-1.23-.398-1.753-.398-.46 0-.808.073-1.043.217-.234.145-.35.344-.35.598 0 .172.043.318.13.44.088.12.23.236.425.345.195.11.57.268 1.124.475.762.277 1.277.556 1.544.837.268.282.402.635.402 1.06zm4.294 1.87c-.95 0-1.698-.29-2.247-.867-.548-.578-.823-1.38-.823-2.408 0-1.035.255-1.858.765-2.467.51-.61 1.193-.914 2.053-.914.804 0 1.44.266 1.91.795.468.53.703 1.227.703 2.095v.615h-4.424c.02.754.21 1.326.57 1.717.363.39.87.586 1.528.586.69 0 1.375-.145 2.05-.434v.867c-.343.15-.67.256-.975.32a5.483 5.483 0 0 1-1.11.097zm-.263-5.842c-.515 0-.926.168-1.233.504-.306.335-.487.8-.542 1.394h3.358c0-.613-.137-1.083-.41-1.41-.274-.326-.664-.49-1.172-.49zm7.214-.814c.285 0 .54.024.767.07l-.134.904c-.265-.06-.5-.088-.703-.088-.52 0-.964.21-1.333.633-.37.42-.553.946-.553 1.575V262h-.973v-6.422h.803l.11 1.19h.048c.238-.418.525-.74.86-.967a1.94 1.94 0 0 1 1.11-.34zm3.375 6.54l-2.44-6.422h1.044l1.383 3.81c.312.89.496 1.467.55 1.733h.048c.043-.206.178-.635.407-1.285.228-.65.74-2.07 1.538-4.257h1.043L541.775 262h-1.136zm7.317.117c-.95 0-1.698-.29-2.247-.867-.55-.578-.823-1.38-.823-2.408 0-1.035.255-1.858.764-2.467.51-.61 1.196-.914 2.055-.914.805 0 1.44.266 1.91.795.47.53.703 1.227.703 2.095v.615h-4.423c.02.754.21 1.326.57 1.717.362.39.87.586 1.527.586.692 0 1.375-.145 2.05-.434v.867c-.343.15-.668.256-.975.32a5.483 5.483 0 0 1-1.11.097zm-.264-5.842c-.515 0-.926.168-1.233.504-.307.335-.487.8-.542 1.394h3.357c0-.613-.136-1.083-.41-1.41-.273-.326-.664-.49-1.172-.49zm7.213-.814c.285 0 .54.024.768.07l-.135.904c-.267-.06-.5-.088-.704-.088-.52 0-.964.21-1.333.633-.37.42-.554.946-.554 1.575V262h-.973v-6.422h.802l.11 1.19h.048c.238-.418.525-.74.86-.967a1.94 1.94 0 0 1 1.108-.34zM487.853 109.295L481.998 125h-1.783l5.854-15.705h1.783zm7.594 15.92c-.766 0-1.466-.142-2.1-.424a3.95 3.95 0 0 1-1.595-1.305h-.13c.087.688.13 1.34.13 1.955v4.845h-1.783v-17.058h1.45l.246 1.61h.086c.458-.644.992-1.11 1.6-1.396.61-.285 1.308-.428 2.095-.428 1.56 0 2.766.533 3.615 1.6.85 1.067 1.273 2.564 1.273 4.49 0 1.934-.432 3.436-1.294 4.507-.862 1.07-2.06 1.605-3.593 1.605zm-.258-10.69c-1.204 0-2.074.334-2.61 1-.538.666-.814 1.726-.828 3.18v.398c0 1.654.276 2.837.827 3.55.55.712 1.435 1.07 2.652 1.07 1.017 0 1.814-.413 2.39-1.237.577-.823.865-1.958.865-3.405 0-1.467-.288-2.593-.864-3.377-.577-.785-1.388-1.177-2.434-1.177zm13.63-1.513c.524 0 .993.043 1.41.13l-.25 1.653a6.074 6.074 0 0 0-1.288-.16c-.952 0-1.767.386-2.443 1.16-.678.772-1.017 1.736-1.017 2.89V125h-1.783v-11.773h1.472l.204 2.18h.086c.437-.766.963-1.357 1.58-1.772a3.555 3.555 0 0 1 2.03-.623zm13.332 6.09c0 1.92-.483 3.418-1.45 4.496-.967 1.078-2.302 1.617-4.007 1.617-1.052 0-1.987-.247-2.803-.74-.817-.496-1.447-1.204-1.89-2.128-.445-.924-.667-2.006-.667-3.244 0-1.92.48-3.415 1.44-4.485.96-1.07 2.29-1.606 3.996-1.606 1.648 0 2.956.548 3.927 1.643.97 1.096 1.455 2.578 1.455 4.448zm-8.97 0c0 1.504.3 2.65.903 3.438.602.788 1.486 1.182 2.653 1.182 1.168 0 2.054-.392 2.66-1.177.604-.784.907-1.93.907-3.442 0-1.497-.303-2.634-.908-3.41-.605-.778-1.5-1.167-2.68-1.167-1.168 0-2.048.384-2.643 1.15-.594.766-.89 1.908-.89 3.427zm20.11 4.32h-.097c-.823 1.195-2.055 1.793-3.695 1.793-1.54 0-2.737-.527-3.593-1.58-.856-1.052-1.284-2.55-1.284-4.49 0-1.94.43-3.448 1.29-4.522.858-1.074 2.054-1.61 3.587-1.61 1.597 0 2.822.58 3.674 1.74h.14l-.076-.85-.043-.827v-4.79h1.784V125h-1.452l-.236-1.58zm-3.566.3c1.217 0 2.1-.332 2.648-.994.547-.662.82-1.73.82-3.207v-.374c0-1.67-.276-2.86-.83-3.572-.556-.713-1.442-1.07-2.66-1.07-1.045 0-1.846.407-2.4 1.22-.556.813-.833 1.96-.833 3.443 0 1.504.276 2.64.828 3.405.55.767 1.36 1.15 2.428 1.15z" fill="#FFF"/><path fill="#FFF" opacity=".2" d="M300 152h1v28h-1zM508 152h1v28h-1zM300 278h1v28h-1zM338.69 278l-.69.966L357.31 306l.69-.966zM262.31 278l.69.966L243.69 306l-.69-.966z"/></g></svg>