<svg width="600" height="400" viewBox="0 0 600 400" xmlns="http://www.w3.org/2000/svg"><title>Collections</title><g fill="none" fill-rule="evenodd"><path fill="#576167" d="M0 0h600v400H0z"/><path d="M132 88V64H52v24H36v56h112V88h-16zM60 72h64v16H60V72zm80 64H44V96h96v40zm-8-88H52v8h80v-8zm0-16H52v8h80v-8zM340 88V64h-80v24h-16v56h112V88h-16zm-72-16h64v16h-64V72zm80 64h-96V96h96v40zm-8-88h-80v8h80v-8zm0-16h-80v8h80v-8z" fill="#FFF" fill-rule="nonzero" opacity=".1"/><path d="M320 215v-12h-40v12h-8v28h56v-28h-8zm-36-8h32v8h-32v-8zm40 32h-48v-20h48v20zm-4-44h-40v4h40v-4zm0-8h-40v4h40v-4z" fill="#FFF" fill-rule="nonzero" opacity=".3"/><path d="M250 326v-6h-20v6h-4v14h28v-14h-4zm-18-4h16v4h-16v-4zm20 16h-24v-10h24v10zm-2-22h-20v2h20v-2zm0-4h-20v2h20v-2zM310 326v-6h-20v6h-4v14h28v-14h-4zm-18-4h16v4h-16v-4zm20 16h-24v-10h24v10zm-2-22h-20v2h20v-2zm0-4h-20v2h20v-2zM370 326v-6h-20v6h-4v14h28v-14h-4zm-18-4h16v4h-16v-4zm20 16h-24v-10h24v10zm-2-22h-20v2h20v-2zm0-4h-20v2h20v-2z" fill="#FFF" fill-rule="nonzero"/><path d="M528 215v-12h-40v12h-8v28h56v-28h-8zm-36-8h32v8h-32v-8zm40 32h-48v-20h48v20zm-4-44h-40v4h40v-4zm0-8h-40v4h40v-4z" fill="#FFF" fill-rule="nonzero" opacity=".3"/><path d="M548 88V64h-80v24h-16v56h112V88h-16zm-72-16h64v16h-64V72zm80 64h-96V96h96v40zm-8-88h-80v8h80v-8zm0-16h-80v8h80v-8z" fill="#FFF" fill-rule="nonzero" opacity=".1"/><text font-family="OpenSans, Open Sans" font-size="22" fill="#FFF"><tspan x="52" y="120">/system</tspan></text><text font-family="OpenSans, Open Sans" font-size="22" fill="#FFF"><tspan x="261" y="120">/shared</tspan></text><text font-family="OpenSans, Open Sans" font-size="12" fill="#FFF"><tspan x="278" y="260">/private</tspan></text><text font-family="OpenSans, Open Sans" font-size="12" fill="#FFF"><tspan x="220" y="357">/admin</tspan></text><text font-family="OpenSans, Open Sans" font-size="12" fill="#FFF"><tspan x="282" y="357">/user2</tspan></text><text font-family="OpenSans, Open Sans" font-size="12" fill="#FFF"><tspan x="342" y="357">/user3</tspan></text><text font-family="OpenSans, Open Sans" font-size="12" fill="#FFF"><tspan x="462" y="260">/prod/webserver</tspan></text><text font-family="OpenSans, Open Sans" font-size="22" fill="#FFF"><tspan x="480" y="120">/prod</tspan></text><path fill="#FFF" opacity=".2" d="M300 152h1v28h-1zM508 152h1v28h-1zM300 278h1v28h-1zM338.69 278l-.69.966L357.31 306l.69-.966zM262.31 278l.69.966L243.69 306l-.69-.966z"/></g></svg>