<svg width="600" height="440" viewBox="0 0 600 440" xmlns="http://www.w3.org/2000/svg"><title>Nodes and containers</title><g fill="none" fill-rule="evenodd"><path fill="#576167" d="M0 0h600v676H0z"/><path d="M124 72V48H44v24H28v56h112V72h-16zM52 56h64v16H52V56zm80 64H36V80h96v40zm-8-88H44v8h80v-8zm0-16H44v8h80v-8zM330 72V48h-80v24h-16v56h112V72h-16zm-72-16h64v16h-64V56zm80 64h-96V80h96v40zm-8-88h-80v8h80v-8zm0-16h-80v8h80v-8zM535 72V48h-80v24h-16v56h112V72h-16zm-72-16h64v16h-64V56zm80 64h-96V80h96v40zm-8-88h-80v8h80v-8zm0-16h-80v8h80v-8z" fill="#FFF" fill-rule="nonzero" opacity=".1"/><path d="M51.853 93.295L45.998 109h-1.783l5.854-15.705h1.783zm9.71 12.493c0 1.096-.408 1.94-1.224 2.535-.818.595-1.963.892-3.44.892-1.56 0-2.777-.247-3.65-.74v-1.656a8.832 8.832 0 0 0 1.82.676 7.603 7.603 0 0 0 1.874.247c.93 0 1.647-.148 2.15-.446.5-.297.75-.75.75-1.36 0-.457-.198-.85-.595-1.175-.4-.326-1.174-.71-2.327-1.155-1.096-.408-1.875-.764-2.337-1.068-.46-.306-.805-.65-1.03-1.038-.226-.387-.34-.85-.34-1.386 0-.96.39-1.717 1.172-2.272.78-.555 1.85-.832 3.212-.832 1.267 0 2.506.258 3.716.773l-.633 1.45c-1.182-.487-2.253-.73-3.212-.73-.844 0-1.482.132-1.91.397-.43.265-.646.63-.646 1.096 0 .315.08.584.242.806.16.222.42.433.78.633.357.2 1.044.49 2.06.87 1.398.51 2.34 1.02 2.832 1.537.49.515.735 1.163.735 1.944zm1.032-8.56h1.912l2.578 6.712c.566 1.533.917 2.64 1.053 3.32h.086c.093-.365.288-.99.585-1.875.296-.884 1.268-3.604 2.916-8.158h1.912l-5.06 13.406c-.5 1.325-1.087 2.265-1.756 2.82-.67.555-1.492.832-2.466.832-.544 0-1.08-.06-1.61-.182v-1.43c.393.087.833.13 1.32.13 1.225 0 2.1-.688 2.62-2.063l.657-1.676-4.748-11.837zm20.55 8.56c0 1.096-.41 1.94-1.225 2.535-.816.595-1.962.892-3.438.892-1.56 0-2.778-.247-3.652-.74v-1.656a8.832 8.832 0 0 0 1.82.676 7.603 7.603 0 0 0 1.875.247c.93 0 1.648-.148 2.15-.446.5-.297.75-.75.75-1.36 0-.457-.198-.85-.595-1.175-.398-.326-1.173-.71-2.326-1.155-1.096-.408-1.875-.764-2.337-1.068-.46-.306-.805-.65-1.03-1.038-.226-.387-.34-.85-.34-1.386 0-.96.39-1.717 1.172-2.272.78-.555 1.85-.832 3.21-.832 1.268 0 2.507.258 3.717.773l-.633 1.45c-1.182-.487-2.253-.73-3.212-.73-.845 0-1.483.132-1.912.397-.43.265-.645.63-.645 1.096 0 .315.08.584.242.806.16.222.42.433.78.633.357.2 1.044.49 2.06.87 1.398.51 2.34 1.02 2.832 1.537.49.515.735 1.163.735 1.944zm6.703 1.955c.315 0 .62-.023.913-.07a5.91 5.91 0 0 0 .7-.145v1.365c-.194.093-.48.17-.855.23-.376.06-.714.092-1.015.092-2.278 0-3.416-1.2-3.416-3.6v-7.003h-1.687v-.86l1.687-.74.752-2.514h1.03v2.73h3.417v1.384h-3.416v6.93c0 .708.168 1.252.505 1.632.337.38.798.57 1.386.57zm8.937 1.472c-1.74 0-3.113-.53-4.12-1.59-1.006-1.06-1.51-2.532-1.51-4.415 0-1.898.47-3.405 1.403-4.522.935-1.118 2.19-1.676 3.765-1.676 1.476 0 2.643.485 3.502 1.455.86.97 1.29 2.25 1.29 3.84v1.13h-8.11c.035 1.38.384 2.43 1.046 3.146.664.716 1.596 1.074 2.8 1.074 1.267 0 2.52-.265 3.76-.795v1.59a9.437 9.437 0 0 1-1.79.586c-.56.118-1.24.177-2.035.177zm-.483-10.71c-.946 0-1.7.308-2.26.924-.564.615-.895 1.467-.995 2.555h6.155c0-1.124-.25-1.985-.752-2.583-.5-.598-1.217-.897-2.148-.897zM121.162 109v-7.66c0-.937-.2-1.64-.602-2.11-.4-.47-1.025-.704-1.87-.704-1.11 0-1.93.32-2.46.956-.53.638-.794 1.62-.794 2.944V109h-1.784v-7.66c0-.937-.2-1.64-.6-2.11-.402-.47-1.03-.704-1.88-.704-1.118 0-1.936.335-2.456 1.005-.52.67-.778 1.768-.778 3.293V109h-1.784V97.227h1.45l.29 1.61h.086c.337-.572.812-1.02 1.424-1.342.612-.322 1.298-.483 2.057-.483 1.84 0 3.045.666 3.61 1.998h.086c.35-.616.86-1.103 1.526-1.46.666-.36 1.425-.538 2.277-.538 1.33 0 2.328.342 2.99 1.026.663.684.994 1.777.994 3.28V109h-1.783zM258.853 93.295L252.998 109h-1.783l5.854-15.705h1.783zm9.71 12.493c0 1.096-.408 1.94-1.224 2.535-.818.595-1.963.892-3.44.892-1.56 0-2.777-.247-3.65-.74v-1.656a8.833 8.833 0 0 0 1.82.676 7.603 7.603 0 0 0 1.874.247c.93 0 1.647-.148 2.15-.446.5-.297.75-.75.75-1.36 0-.457-.198-.85-.595-1.175-.4-.326-1.174-.71-2.327-1.155-1.096-.408-1.875-.764-2.337-1.068-.46-.306-.805-.65-1.03-1.038-.226-.387-.34-.85-.34-1.386 0-.96.39-1.717 1.172-2.272.78-.555 1.85-.832 3.212-.832 1.267 0 2.506.258 3.716.773l-.633 1.45c-1.182-.487-2.253-.73-3.212-.73-.844 0-1.482.132-1.91.397-.43.265-.646.63-.646 1.096 0 .315.08.584.242.806.16.222.42.433.78.633.357.2 1.044.49 2.06.87 1.398.51 2.34 1.02 2.832 1.537.49.515.735 1.163.735 1.944zM279.52 109v-7.616c0-.96-.218-1.676-.655-2.15-.437-.47-1.12-.708-2.052-.708-1.238 0-2.143.337-2.712 1.01-.568.673-.853 1.776-.853 3.31V109h-1.783V92.285h1.783v5.06c0 .608-.03 1.113-.086 1.514h.11c.35-.566.85-1.012 1.497-1.338.648-.326 1.388-.49 2.218-.49 1.44 0 2.52.343 3.24 1.027.72.683 1.08 1.77 1.08 3.26V109h-1.784zm12.687 0l-.354-1.676h-.086c-.588.738-1.173 1.237-1.757 1.5-.583.26-1.312.39-2.186.39-1.167 0-2.082-.3-2.744-.9-.663-.603-.994-1.46-.994-2.57 0-2.376 1.9-3.623 5.704-3.737l1.998-.065v-.73c0-.924-.2-1.606-.596-2.046-.398-.44-1.033-.66-1.907-.66-.98 0-2.09.3-3.33.9l-.548-1.363a8.38 8.38 0 0 1 1.907-.74c.69-.18 1.384-.27 2.08-.27 1.402 0 2.442.312 3.12.935.676.623 1.014 1.622 1.014 2.997V109h-1.32zm-4.028-1.257c1.11 0 1.98-.304 2.614-.913.634-.61.95-1.46.95-2.557v-1.063l-1.782.075c-1.418.05-2.44.27-3.067.66-.627.39-.94.998-.94 1.822 0 .644.195 1.135.586 1.47.39.338.937.506 1.64.506zm14.393-10.73c.523 0 .992.042 1.407.128l-.247 1.655a6.074 6.074 0 0 0-1.29-.16c-.95 0-1.766.386-2.443 1.16-.676.772-1.015 1.736-1.015 2.89V109h-1.783V97.227h1.472l.204 2.18h.086c.437-.766.963-1.357 1.58-1.772a3.555 3.555 0 0 1 2.03-.623zm8.143 12.202c-1.74 0-3.114-.53-4.12-1.59-1.006-1.06-1.51-2.532-1.51-4.415 0-1.898.468-3.405 1.403-4.522.933-1.118 2.188-1.676 3.764-1.676 1.475 0 2.642.485 3.502 1.455.86.97 1.29 2.25 1.29 3.84v1.13h-8.11c.034 1.38.383 2.43 1.046 3.146.662.716 1.595 1.074 2.798 1.074 1.268 0 2.52-.265 3.76-.795v1.59a9.437 9.437 0 0 1-1.79.586c-.56.118-1.24.177-2.034.177zm-.484-10.71c-.945 0-1.7.308-2.26.924-.563.615-.894 1.467-.994 2.555h6.155c0-1.124-.25-1.985-.752-2.583-.5-.598-1.217-.897-2.148-.897zm15.867 8.916H326c-.824 1.197-2.055 1.795-3.695 1.795-1.54 0-2.738-.527-3.594-1.58-.855-1.052-1.283-2.55-1.283-4.49 0-1.94.43-3.448 1.29-4.522.858-1.074 2.054-1.61 3.587-1.61 1.597 0 2.82.58 3.673 1.74h.14l-.075-.85-.043-.827v-4.79h1.783V109h-1.45l-.236-1.58zm-3.568.302c1.218 0 2.1-.332 2.648-.994.548-.662.822-1.73.822-3.207v-.374c0-1.67-.278-2.86-.833-3.572-.556-.713-1.442-1.07-2.66-1.07-1.045 0-1.845.407-2.4 1.22-.555.813-.833 1.96-.833 3.443 0 1.504.276 2.64.827 3.405.552.767 1.36 1.15 2.428 1.15zM474.853 93.295L468.998 109h-1.783l5.854-15.705h1.783zm7.594 15.92c-.766 0-1.466-.142-2.1-.424a3.95 3.95 0 0 1-1.595-1.305h-.13c.087.688.13 1.34.13 1.955v4.845h-1.783V97.227h1.45l.246 1.61h.086c.458-.644.992-1.11 1.6-1.396.61-.285 1.308-.428 2.095-.428 1.56 0 2.766.533 3.615 1.6.85 1.067 1.273 2.564 1.273 4.49 0 1.934-.432 3.436-1.294 4.507-.862 1.07-2.06 1.605-3.593 1.605zm-.258-10.69c-1.204 0-2.074.334-2.61 1-.538.666-.814 1.726-.828 3.18v.398c0 1.654.276 2.837.827 3.55.55.712 1.435 1.07 2.652 1.07 1.017 0 1.814-.413 2.39-1.237.577-.823.865-1.958.865-3.405 0-1.467-.288-2.593-.864-3.377-.577-.785-1.388-1.177-2.434-1.177zm13.63-1.513c.524 0 .993.043 1.41.13l-.25 1.653a6.074 6.074 0 0 0-1.288-.16c-.952 0-1.767.386-2.443 1.16-.678.772-1.017 1.736-1.017 2.89V109h-1.783V97.227h1.472l.204 2.18h.086c.437-.766.963-1.357 1.58-1.772a3.555 3.555 0 0 1 2.03-.623zm13.332 6.09c0 1.92-.483 3.418-1.45 4.496-.967 1.078-2.302 1.617-4.007 1.617-1.052 0-1.987-.247-2.803-.74-.817-.496-1.447-1.204-1.89-2.128-.445-.924-.667-2.006-.667-3.244 0-1.92.48-3.415 1.44-4.485.96-1.07 2.29-1.606 3.996-1.606 1.648 0 2.956.548 3.927 1.643.97 1.096 1.455 2.578 1.455 4.448zm-8.97 0c0 1.504.3 2.65.903 3.438.602.788 1.486 1.182 2.653 1.182 1.168 0 2.054-.392 2.66-1.177.604-.784.907-1.93.907-3.442 0-1.497-.303-2.634-.908-3.41-.605-.778-1.5-1.167-2.68-1.167-1.168 0-2.048.384-2.643 1.15-.594.766-.89 1.908-.89 3.427zm20.11 4.32h-.097c-.823 1.195-2.055 1.793-3.695 1.793-1.54 0-2.737-.527-3.593-1.58-.856-1.052-1.284-2.55-1.284-4.49 0-1.94.43-3.448 1.29-4.522.858-1.074 2.054-1.61 3.587-1.61 1.597 0 2.822.58 3.674 1.74h.14l-.076-.85-.043-.827v-4.79h1.784V109h-1.452l-.236-1.58zm-3.566.3c1.217 0 2.1-.332 2.648-.994.547-.662.82-1.73.82-3.207v-.374c0-1.67-.276-2.86-.83-3.572-.556-.713-1.442-1.07-2.66-1.07-1.045 0-1.846.407-2.4 1.22-.556.813-.833 1.96-.833 3.443 0 1.504.276 2.64.828 3.405.55.767 1.36 1.15 2.428 1.15z" fill="#FFF"/><path d="M290 197h1v28h-1v-28zm-59 0h1v28h-1v-28zm120 0h1v28h-1v-28zm1-1v1H231v-1h121zM494 197h1v28h-1v-28zm-59 0h1v28h-1v-28zm120 0h1v28h-1v-28zm1-1v1H435v-1h121zM84 132h1v35h-1v-35zm43 35v1H43v-1h84zm-1 1h1v35h-1v-35zm-83 0h1v35h-1v-35z" fill="#FFF" opacity=".2"/><path d="M327 233v44h56v-44h-56zm52 40h-48v-16h48v16zm0-20h-48v-16h48v16zm-40-4c2.4 0 4-1.6 4-4s-1.6-4-4-4-4 1.6-4 4 1.6 4 4 4zm16 0c2.4 0 4-1.6 4-4s-1.6-4-4-4-4 1.6-4 4 1.6 4 4 4zm-16 20c2.4 0 4-1.6 4-4s-1.6-4-4-4-4 1.6-4 4 1.6 4 4 4zm16 0c2.4 0 4-1.6 4-4s-1.6-4-4-4-4 1.6-4 4 1.6 4 4 4zM263 233v44h56v-44h-56zm52 40h-48v-16h48v16zm0-20h-48v-16h48v16zm-40-4c2.4 0 4-1.6 4-4s-1.6-4-4-4-4 1.6-4 4 1.6 4 4 4zm16 0c2.4 0 4-1.6 4-4s-1.6-4-4-4-4 1.6-4 4 1.6 4 4 4zm-16 20c2.4 0 4-1.6 4-4s-1.6-4-4-4-4 1.6-4 4 1.6 4 4 4zm16 0c2.4 0 4-1.6 4-4s-1.6-4-4-4-4 1.6-4 4 1.6 4 4 4zM199 233v44h56v-44h-56zm52 40h-48v-16h48v16zm0-20h-48v-16h48v16zm-40-4c2.4 0 4-1.6 4-4s-1.6-4-4-4-4 1.6-4 4 1.6 4 4 4zm16 0c2.4 0 4-1.6 4-4s-1.6-4-4-4-4 1.6-4 4 1.6 4 4 4zm-16 20c2.4 0 4-1.6 4-4s-1.6-4-4-4-4 1.6-4 4 1.6 4 4 4zm16 0c2.4 0 4-1.6 4-4s-1.6-4-4-4-4 1.6-4 4 1.6 4 4 4zM532 233v44h56v-44h-56zm52 40h-48v-16h48v16zm0-20h-48v-16h48v16zm-40-4c2.4 0 4-1.6 4-4s-1.6-4-4-4-4 1.6-4 4 1.6 4 4 4zm16 0c2.4 0 4-1.6 4-4s-1.6-4-4-4-4 1.6-4 4 1.6 4 4 4zm-16 20c2.4 0 4-1.6 4-4s-1.6-4-4-4-4 1.6-4 4 1.6 4 4 4zm16 0c2.4 0 4-1.6 4-4s-1.6-4-4-4-4 1.6-4 4 1.6 4 4 4zM468 233v44h56v-44h-56zm52 40h-48v-16h48v16zm0-20h-48v-16h48v16zm-40-4c2.4 0 4-1.6 4-4s-1.6-4-4-4-4 1.6-4 4 1.6 4 4 4zm16 0c2.4 0 4-1.6 4-4s-1.6-4-4-4-4 1.6-4 4 1.6 4 4 4zm-16 20c2.4 0 4-1.6 4-4s-1.6-4-4-4-4 1.6-4 4 1.6 4 4 4zm16 0c2.4 0 4-1.6 4-4s-1.6-4-4-4-4 1.6-4 4 1.6 4 4 4zM404 233v44h56v-44h-56zm52 40h-48v-16h48v16zm0-20h-48v-16h48v16zm-40-4c2.4 0 4-1.6 4-4s-1.6-4-4-4-4 1.6-4 4 1.6 4 4 4zm16 0c2.4 0 4-1.6 4-4s-1.6-4-4-4-4 1.6-4 4 1.6 4 4 4zm-16 20c2.4 0 4-1.6 4-4s-1.6-4-4-4-4 1.6-4 4 1.6 4 4 4zm16 0c2.4 0 4-1.6 4-4s-1.6-4-4-4-4 1.6-4 4 1.6 4 4 4z" fill="#FFF" fill-rule="nonzero" opacity=".3"/><path d="M270.992 181h-2.413l-1.354-5.25c-.05-.187-.136-.573-.257-1.16-.122-.584-.19-.977-.21-1.178-.027.246-.095.642-.204 1.186-.11.545-.194.933-.253 1.166L264.956 181h-2.406l-2.55-9.994h2.085l1.278 5.455c.224 1.008.385 1.88.486 2.62.026-.26.09-.663.187-1.207.098-.545.19-.968.276-1.27l1.457-5.597h2.002l1.457 5.598c.062.25.142.634.238 1.15.095.514.168.956.22 1.325.044-.356.117-.8.217-1.33.1-.53.192-.96.274-1.29l1.27-5.454h2.085L270.992 181zm5.018-3.835c0 .757.124 1.328.372 1.716.25.388.653.582 1.214.582.556 0 .956-.193 1.2-.578.243-.385.365-.958.365-1.72 0-.755-.122-1.323-.368-1.7-.246-.38-.65-.568-1.21-.568-.556 0-.957.187-1.203.563-.247.375-.37.944-.37 1.705zm5.284 0c0 1.244-.328 2.217-.984 2.92-.657.7-1.57 1.052-2.742 1.052-.733 0-1.38-.16-1.94-.482-.562-.322-.992-.783-1.293-1.384-.3-.6-.45-1.303-.45-2.105 0-1.25.325-2.22.976-2.912.653-.693 1.57-1.04 2.75-1.04.733 0 1.38.16 1.94.48.56.318.992.776 1.293 1.373.3.597.45 1.297.45 2.1zm5.988-3.95c.283 0 .517.02.704.06l-.157 1.955a2.388 2.388 0 0 0-.616-.068c-.666 0-1.184.17-1.555.513-.373.342-.558.82-.558 1.435V181h-2.085v-7.643h1.58l.306 1.286h.103c.237-.43.557-.774.96-1.036a2.368 2.368 0 0 1 1.316-.393zm4.095 3.63l.91-1.163 2.14-2.325h2.35l-3.035 3.316 3.22 4.327h-2.406l-2.202-3.097-.895.718V181h-2.086v-10.637h2.085v4.744l-.11 1.737h.027zm9.563-2.148c-.442 0-.788.14-1.04.42-.25.28-.393.68-.43 1.194h2.926c-.01-.514-.143-.912-.403-1.192-.26-.28-.61-.42-1.053-.42zm.294 6.44c-1.23 0-2.192-.34-2.884-1.02-.693-.678-1.04-1.64-1.04-2.884 0-1.28.32-2.27.96-2.97.64-.7 1.527-1.05 2.657-1.05 1.08 0 1.92.308 2.522.924.6.615.902 1.465.902 2.55v1.01h-4.93c.024.594.2 1.056.527 1.39.327.332.788.498 1.38.498.46 0 .896-.048 1.306-.144.41-.094.838-.247 1.285-.457v1.614a4.896 4.896 0 0 1-1.168.406c-.415.09-.92.134-1.518.134zm9.08-7.923c.28 0 .516.02.703.06l-.158 1.956a2.388 2.388 0 0 0-.616-.068c-.665 0-1.184.17-1.555.513-.372.342-.558.82-.558 1.435V181h-2.085v-7.643h1.58l.307 1.286h.102c.237-.43.557-.774.96-1.036a2.368 2.368 0 0 1 1.317-.393zm7.422 5.516c0 .784-.272 1.38-.817 1.79-.545.412-1.36.617-2.444.617-.556 0-1.03-.038-1.422-.113a5.378 5.378 0 0 1-1.1-.332v-1.722c.386.182.823.335 1.308.458a5.3 5.3 0 0 0 1.282.184c.756 0 1.135-.218 1.135-.656a.548.548 0 0 0-.152-.4c-.1-.102-.273-.22-.52-.348a13.12 13.12 0 0 0-.984-.455c-.587-.246-1.02-.474-1.295-.684a1.924 1.924 0 0 1-.603-.722c-.125-.27-.188-.605-.188-1 0-.68.263-1.206.79-1.577.525-.37 1.272-.556 2.238-.556.92 0 1.816.2 2.686.6l-.63 1.505c-.38-.165-.74-.3-1.072-.404a3.37 3.37 0 0 0-1.018-.157c-.616 0-.923.165-.923.498 0 .187.1.348.298.485.198.137.632.34 1.302.61.597.24 1.035.466 1.313.675.278.21.483.45.615.725.132.273.198.6.198.977zM477.992 173h-2.413l-1.354-5.25c-.05-.187-.136-.573-.257-1.16-.122-.584-.19-.977-.21-1.178-.027.246-.095.642-.204 1.186-.11.545-.194.933-.253 1.166L471.956 173h-2.406l-2.55-9.994h2.085l1.278 5.455c.224 1.008.385 1.88.486 2.62.026-.26.09-.663.187-1.207.098-.545.19-.968.276-1.27l1.457-5.597h2.002l1.457 5.598c.062.25.142.634.238 1.15.095.514.168.956.22 1.325.044-.356.117-.8.217-1.33.1-.53.192-.96.274-1.29l1.27-5.454h2.085L477.992 173zm5.018-3.835c0 .757.124 1.328.372 1.716.25.388.653.582 1.214.582.556 0 .956-.193 1.2-.578.243-.385.365-.958.365-1.72 0-.755-.122-1.323-.368-1.7-.246-.38-.65-.568-1.21-.568-.556 0-.957.187-1.203.563-.247.375-.37.944-.37 1.705zm5.284 0c0 1.244-.328 2.217-.984 2.92-.657.7-1.57 1.052-2.742 1.052-.733 0-1.38-.16-1.94-.482-.562-.322-.992-.783-1.293-1.384-.3-.6-.45-1.303-.45-2.105 0-1.25.325-2.22.976-2.912.653-.693 1.57-1.04 2.75-1.04.733 0 1.38.16 1.94.48.56.318.992.776 1.293 1.373.3.597.45 1.297.45 2.1zm5.988-3.95c.283 0 .517.02.704.06l-.157 1.955a2.388 2.388 0 0 0-.616-.068c-.666 0-1.184.17-1.555.513-.373.342-.558.82-.558 1.435V173h-2.085v-7.643h1.58l.306 1.286h.103c.237-.43.557-.774.96-1.036a2.368 2.368 0 0 1 1.316-.393zm4.095 3.63l.91-1.163 2.14-2.325h2.35l-3.035 3.316 3.22 4.327h-2.406l-2.202-3.097-.895.718V173h-2.086v-10.637h2.085v4.744l-.11 1.737h.027zm9.563-2.148c-.442 0-.788.14-1.04.42-.25.28-.393.68-.43 1.194h2.926c-.01-.514-.143-.912-.403-1.192-.26-.28-.61-.42-1.053-.42zm.294 6.44c-1.23 0-2.192-.34-2.884-1.02-.693-.678-1.04-1.64-1.04-2.884 0-1.28.32-2.27.96-2.97.64-.7 1.527-1.05 2.657-1.05 1.08 0 1.92.308 2.522.924.6.615.902 1.465.902 2.55v1.01h-4.93c.024.594.2 1.056.527 1.39.327.332.788.498 1.38.498.46 0 .896-.048 1.306-.144.41-.094.838-.247 1.285-.457v1.614a4.896 4.896 0 0 1-1.168.406c-.415.09-.92.134-1.518.134zm9.08-7.923c.28 0 .516.02.703.06l-.158 1.956a2.388 2.388 0 0 0-.616-.068c-.665 0-1.184.17-1.555.513-.372.342-.558.82-.558 1.435V173h-2.085v-7.643h1.58l.307 1.286h.102c.237-.43.557-.774.96-1.036a2.368 2.368 0 0 1 1.317-.393zm7.422 5.516c0 .784-.272 1.38-.817 1.79-.545.412-1.36.617-2.444.617-.556 0-1.03-.038-1.422-.113a5.378 5.378 0 0 1-1.1-.332v-1.722c.386.182.823.335 1.308.458a5.3 5.3 0 0 0 1.282.184c.756 0 1.135-.218 1.135-.656a.548.548 0 0 0-.152-.4c-.1-.102-.273-.22-.52-.348a13.12 13.12 0 0 0-.984-.455c-.587-.246-1.02-.474-1.295-.684a1.924 1.924 0 0 1-.603-.722c-.125-.27-.188-.605-.188-1 0-.68.263-1.206.79-1.577.525-.37 1.272-.556 2.238-.556.92 0 1.816.2 2.686.6l-.63 1.505c-.38-.165-.74-.3-1.072-.404a3.37 3.37 0 0 0-1.018-.157c-.616 0-.923.165-.923.498 0 .187.1.348.298.485.198.137.632.34 1.302.61.597.24 1.035.466 1.313.675.278.21.483.45.615.725.132.273.198.6.198.977z" fill="#FFF"/><path d="M436.48 186.406c0-1.324.235-2.55.704-3.674.468-1.125 1.218-2.224 2.25-3.298h.92c-.96 1.054-1.687 2.168-2.177 3.34a9.297 9.297 0 0 0-.736 3.62c0 1.325.224 2.493.67 3.504h-.768c-.574-1.04-.862-2.203-.862-3.492zm7.752 1.594h-4.306l1.81-8.566h4.307l-.188.896h-3.316l-.575 2.748h3.088l-.17.89h-3.1l-.668 3.14h3.31l-.193.892zm6.135 0h-4.306l1.81-8.566h4.308l-.188.896h-3.316l-.574 2.748h3.087l-.17.89h-3.1l-.667 3.14h3.31l-.193.892zm9.205-2.725h-2.906L455.23 188h-1.107l4.682-8.566h1.02L460.9 188h-.996l-.334-2.725zm-.105-.914l-.205-1.75c-.094-.7-.15-1.383-.17-2.05-.145.342-.302.684-.472 1.024-.17.34-.657 1.266-1.462 2.777h2.31zm5.748-2.887c.758 0 1.306.37 1.646 1.113h.06c.066-.606.154-1.14.264-1.606l.457-2.097h.973L466.68 188h-.815l.13-1.225h-.048c-.394.49-.763.834-1.107 1.037a2.07 2.07 0 0 1-1.067.305c-.543 0-.966-.19-1.27-.574-.306-.383-.458-.914-.458-1.594 0-.837.14-1.602.422-2.298.28-.695.66-1.232 1.14-1.61a2.526 2.526 0 0 1 1.608-.57zm-1.113 5.83c.367 0 .746-.183 1.136-.548.39-.365.7-.832.93-1.4a4.62 4.62 0 0 0 .342-1.738c0-.433-.106-.763-.317-.99-.21-.227-.517-.34-.92-.34-.394 0-.76.16-1.098.484-.338.323-.61.776-.815 1.36a5.52 5.52 0 0 0-.307 1.843c0 .886.35 1.33 1.05 1.33zm5.6.697l-.73-6.422h.983l.375 3.592c.094 1.008.14 1.715.14 2.12h.036c.496-1.073.846-1.798 1.05-2.173l1.903-3.54h1.042L471.04 188h-1.337zm7.982-6.54c.36 0 .68.098.96.29.282.194.5.473.657.836h.065l.393-1.008h.744L479.137 188h-.78l.153-1.225h-.047c-.7.895-1.436 1.342-2.21 1.342-.542 0-.968-.193-1.276-.58-.31-.387-.463-.916-.463-1.588 0-.813.138-1.567.416-2.262.277-.696.66-1.24 1.148-1.635.488-.395 1.024-.592 1.606-.592zm-1.114 5.843c.38 0 .756-.18 1.13-.542.376-.36.68-.83.915-1.41s.352-1.162.352-1.745c0-.402-.11-.722-.328-.96-.22-.24-.507-.358-.863-.358-.406 0-.784.168-1.133.504-.35.337-.624.792-.824 1.366-.2.574-.3 1.18-.3 1.817 0 .445.093.778.277 1 .183.22.44.33.773.33zm8.42.697l.867-4.055c.08-.406.118-.687.118-.843 0-.247-.07-.444-.208-.592-.14-.15-.36-.223-.665-.223-.348 0-.687.117-1.017.352-.33.233-.62.567-.873 1-.252.434-.442.96-.57 1.577l-.593 2.783h-.986l1.372-6.422h.814l-.13 1.19h.06c.375-.477.737-.814 1.087-1.01.35-.198.712-.297 1.087-.297.496 0 .887.137 1.174.408.287.272.43.652.43 1.14 0 .308-.044.66-.134 1.054l-.838 3.938h-.996zm5.62.117c-.758 0-1.346-.21-1.764-.627-.418-.418-.627-1.008-.627-1.77 0-.78.143-1.5.432-2.16.29-.662.69-1.176 1.2-1.545a2.86 2.86 0 0 1 1.718-.554c.535 0 1.06.1 1.57.3l-.275.826c-.47-.2-.896-.3-1.283-.3-.437 0-.837.15-1.198.45-.362.298-.645.714-.85 1.247a4.8 4.8 0 0 0-.307 1.738c0 .5.13.89.39 1.167s.617.416 1.074.416c.283 0 .548-.04.798-.117.25-.08.496-.17.74-.276v.838a3.518 3.518 0 0 1-1.62.37zm5.32 0c-.72 0-1.284-.213-1.694-.638-.41-.427-.615-1.017-.615-1.77 0-.735.147-1.44.438-2.113.29-.674.676-1.2 1.157-1.574a2.522 2.522 0 0 1 1.588-.562c.597 0 1.047.13 1.347.39.3.26.452.623.452 1.088 0 .703-.325 1.254-.973 1.655-.65.4-1.577.6-2.784.6h-.194l-.023.47c0 .51.12.91.36 1.197.24.287.612.43 1.115.43.247 0 .5-.034.76-.104.26-.07.582-.2.97-.387v.854a5.31 5.31 0 0 1-.974.36c-.28.07-.59.103-.93.103zm.814-5.818c-.402 0-.78.182-1.134.55-.353.367-.624.877-.81 1.53h.07c.89 0 1.572-.117 2.047-.35.475-.232.712-.57.712-1.01 0-.208-.072-.38-.215-.516-.143-.137-.366-.205-.67-.205zm5.965-.827c.757 0 1.306.37 1.645 1.113h.06c.065-.606.153-1.14.263-1.606l.457-2.097h.972L504.174 188h-.815l.128-1.225h-.047c-.393.49-.762.834-1.106 1.037a2.07 2.07 0 0 1-1.066.305c-.543 0-.967-.19-1.272-.574-.305-.383-.457-.914-.457-1.594 0-.837.14-1.602.42-2.298.282-.695.662-1.232 1.14-1.61a2.526 2.526 0 0 1 1.61-.57zm-1.114 5.83c.367 0 .746-.183 1.136-.548.39-.365.7-.832.93-1.4a4.62 4.62 0 0 0 .342-1.738c0-.433-.106-.763-.317-.99-.21-.227-.517-.34-.92-.34-.394 0-.76.16-1.098.484-.34.323-.61.776-.816 1.36a5.52 5.52 0 0 0-.307 1.843c0 .886.35 1.33 1.05 1.33zm10.054-5.725l-.88 4.072c-.07.348-.104.62-.104.815 0 .558.287.838.86.838.345 0 .683-.117 1.015-.352.333-.233.626-.57.88-1.007.254-.437.447-.964.58-1.582l.586-2.782h.973L514.204 188h-.814l.13-1.19h-.07c-.384.49-.75.83-1.096 1.02-.348.19-.708.287-1.08.287-.5 0-.89-.136-1.176-.407-.286-.272-.428-.66-.428-1.163 0-.242.043-.578.13-1.008l.854-3.962h.996zm8.59 4.6c0 .61-.216 1.085-.647 1.426-.432.342-1.04.513-1.825.513-.66 0-1.256-.135-1.788-.404v-.926c.274.164.57.29.885.38.317.09.61.136.88.136.49 0 .862-.098 1.112-.293a.91.91 0 0 0 .375-.75.812.812 0 0 0-.205-.563c-.136-.152-.43-.36-.884-.627-.508-.285-.868-.564-1.08-.838a1.546 1.546 0 0 1-.315-.972c0-.54.197-.974.592-1.304.394-.33.914-.495 1.558-.495.668 0 1.313.145 1.934.435l-.316.802-.328-.146a3.257 3.257 0 0 0-1.29-.25c-.363 0-.648.084-.855.254a.813.813 0 0 0-.31.66c0 .218.07.405.207.56.14.158.425.36.86.605.417.233.717.434.898.602.182.168.318.35.407.542.09.194.135.412.135.654zm3.715 1.94c-.72 0-1.283-.214-1.693-.64-.41-.425-.616-1.015-.616-1.77 0-.733.146-1.437.437-2.11.29-.675.677-1.2 1.157-1.575a2.522 2.522 0 0 1 1.588-.562c.598 0 1.047.13 1.348.39.3.26.45.623.45 1.088 0 .703-.323 1.254-.972 1.655-.648.4-1.576.6-2.783.6h-.192l-.024.47c0 .51.12.91.36 1.197.24.287.613.43 1.117.43.247 0 .5-.034.76-.104.26-.07.583-.2.97-.387v.854a5.31 5.31 0 0 1-.973.36c-.282.07-.592.103-.932.103zm.815-5.82c-.403 0-.78.184-1.134.552-.354.367-.624.877-.812 1.53h.07c.89 0 1.574-.117 2.048-.35.475-.232.712-.57.712-1.01 0-.208-.07-.38-.214-.516-.142-.137-.366-.205-.67-.205zm9.105-.802c.742 0 1.328.22 1.758.66.43.44.644 1.043.644 1.813 0 .733-.14 1.426-.422 2.08-.28.65-.662 1.155-1.142 1.51a2.67 2.67 0 0 1-1.63.534c-.75 0-1.337-.22-1.763-.662-.425-.442-.638-1.045-.638-1.81 0-.743.142-1.44.427-2.096.285-.654.67-1.156 1.154-1.505a2.69 2.69 0 0 1 1.61-.524zm1.383 2.338c0-.45-.122-.813-.366-1.093-.245-.278-.576-.418-.994-.418-.425 0-.807.145-1.145.434-.338.29-.6.69-.785 1.204a5.016 5.016 0 0 0-.28 1.714c0 .512.125.907.374 1.186.248.28.604.42 1.07.42.405 0 .77-.143 1.095-.428.324-.286.577-.69.758-1.216.182-.526.273-1.126.273-1.802zM541.11 188l.87-4.055c.077-.406.116-.687.116-.843 0-.247-.07-.444-.208-.592-.14-.15-.36-.223-.665-.223-.348 0-.687.117-1.017.352-.33.233-.62.567-.873 1-.252.434-.442.96-.57 1.577L538.17 188h-.984l1.37-6.422h.815l-.128 1.19h.06c.374-.477.736-.814 1.086-1.01.35-.198.712-.297 1.087-.297.496 0 .887.137 1.174.408.287.272.43.652.43 1.14 0 .308-.045.66-.135 1.054l-.838 3.938h-.996zm3.974 0h-.984l1.945-9.117h.984L545.083 188zm2.303-6.422h.984l.435 3.193c.04.27.077.668.114 1.194.036.525.055.948.055 1.268h.035c.136-.34.306-.73.51-1.17.203-.443.353-.748.45-.916l1.905-3.568h1.043l-4.078 7.512c-.363.672-.723 1.14-1.078 1.4-.356.262-.783.393-1.283.393-.283 0-.556-.04-.822-.123v-.79c.246.07.502.104.768.104.32 0 .595-.098.823-.296.228-.197.45-.49.664-.876l.445-.797-.973-6.527zm7.898 1.36c0 1.332-.237 2.56-.712 3.688-.474 1.127-1.22 2.218-2.24 3.272h-.915c1.937-2.152 2.906-4.472 2.906-6.96 0-1.333-.22-2.5-.662-3.504h.768c.57 1.05.855 2.218.855 3.504z" fill="#FFF" opacity=".6"/><path d="M20.49 221l-2.407-7.84h-.062c.088 1.594.13 2.658.13 3.192V221H16.26v-9.994h2.885l2.365 7.642h.04l2.51-7.642h2.884V221h-1.975v-4.73c0-.224.003-.48.01-.773.007-.292.038-1.066.092-2.324h-.062L22.43 221h-1.94zm13.657 0l-.403-1.04h-.055c-.35.443-.713.75-1.084.92-.37.17-.856.257-1.453.257-.733 0-1.31-.21-1.733-.63-.42-.418-.632-1.015-.632-1.79 0-.81.284-1.41.85-1.795.57-.385 1.424-.598 2.568-.64l1.326-.04v-.335c0-.775-.396-1.162-1.19-1.162-.61 0-1.328.185-2.153.554l-.69-1.41c.88-.46 1.854-.69 2.925-.69 1.025 0 1.81.224 2.358.67.547.447.82 1.126.82 2.037V221h-1.456zm-.615-3.54l-.806.026c-.607.02-1.058.128-1.354.328-.296.2-.444.506-.444.916 0 .588.337.882 1.01.882.485 0 .87-.14 1.16-.417.29-.278.434-.647.434-1.107v-.63zM44.805 221H42.72v-4.464c0-.55-.098-.965-.294-1.24-.196-.276-.508-.414-.937-.414-.584 0-1.006.195-1.265.584-.26.39-.39 1.036-.39 1.938V221H37.75v-7.643h1.593l.28.978h.116c.232-.37.552-.648.96-.837a3.27 3.27 0 0 1 1.39-.284c.89 0 1.564.24 2.024.72.46.482.69 1.176.69 2.083V221zm7 0l-.404-1.04h-.053c-.35.443-.712.75-1.084.92-.37.17-.855.257-1.452.257-.733 0-1.31-.21-1.732-.63-.422-.418-.633-1.015-.633-1.79 0-.81.284-1.41.85-1.795.57-.385 1.424-.598 2.568-.64l1.326-.04v-.335c0-.775-.397-1.162-1.19-1.162-.61 0-1.328.185-2.153.554l-.69-1.41c.88-.46 1.854-.69 2.925-.69 1.025 0 1.812.224 2.358.67.547.447.82 1.126.82 2.037V221h-1.455zm-.616-3.54l-.807.026c-.606.02-1.057.128-1.354.328-.297.2-.445.506-.445.916 0 .588.337.882 1.012.882.483 0 .87-.14 1.158-.417.29-.278.434-.647.434-1.107v-.63zm10.87-4.103v1.06l-1.198.308c.22.34.328.724.328 1.148 0 .82-.286 1.46-.857 1.918-.572.46-1.367.688-2.383.688l-.376-.02-.307-.035c-.215.164-.322.346-.322.547 0 .3.383.45 1.15.45h1.298c.838 0 1.477.18 1.917.54.44.36.66.89.66 1.587 0 .893-.373 1.586-1.118 2.078-.745.492-1.815.738-3.21.738-1.066 0-1.88-.185-2.443-.557-.564-.37-.846-.892-.846-1.562 0-.46.144-.845.43-1.155.288-.31.71-.532 1.266-.664-.214-.09-.4-.24-.56-.448a1.064 1.064 0 0 1-.24-.66c0-.29.084-.534.253-.728.17-.193.412-.384.73-.57a2.05 2.05 0 0 1-.952-.834c-.234-.383-.35-.834-.35-1.354 0-.834.27-1.48.812-1.935.543-.455 1.317-.683 2.324-.683.215 0 .47.02.763.058.293.04.48.067.563.085h2.666zm-5.9 8.723c0 .287.137.513.413.677.275.164.662.246 1.158.246.75 0 1.334-.103 1.758-.308.424-.205.636-.485.636-.84 0-.288-.125-.486-.376-.595-.25-.11-.638-.164-1.162-.164h-1.08c-.383 0-.703.09-.96.27-.258.18-.387.418-.387.714zm.758-6.22c0 .414.095.742.284.984.19.24.477.362.864.362.392 0 .68-.12.862-.362.182-.242.273-.57.273-.985 0-.92-.377-1.38-1.134-1.38-.765 0-1.148.46-1.148 1.38zm9.563-1.163c-.44 0-.787.14-1.038.42-.25.28-.394.68-.43 1.194h2.925c-.01-.514-.143-.912-.403-1.192-.26-.28-.61-.42-1.053-.42zm.295 6.44c-1.23 0-2.192-.34-2.884-1.02-.692-.678-1.038-1.64-1.038-2.884 0-1.28.32-2.27.96-2.97.64-.7 1.526-1.05 2.656-1.05 1.08 0 1.92.308 2.522.924.602.615.903 1.465.903 2.55v1.01h-4.93c.024.594.2 1.056.527 1.39.328.332.79.498 1.38.498.46 0 .897-.048 1.307-.144.41-.094.838-.247 1.285-.457v1.614a4.896 4.896 0 0 1-1.17.406c-.414.09-.92.134-1.517.134zm9.08-7.923c.28 0 .516.02.703.06l-.158 1.956a2.388 2.388 0 0 0-.615-.068c-.665 0-1.184.17-1.555.513-.37.342-.557.82-.557 1.435V221h-2.085v-7.643h1.58l.307 1.286h.102c.237-.43.557-.774.96-1.036a2.368 2.368 0 0 1 1.317-.393zM111.992 221h-2.413l-1.354-5.25c-.05-.187-.136-.573-.257-1.16-.122-.584-.19-.977-.21-1.178-.027.246-.095.642-.204 1.186-.11.545-.194.933-.253 1.166L105.956 221h-2.406l-2.55-9.994h2.085l1.278 5.455c.224 1.008.385 1.88.486 2.62.026-.26.09-.663.187-1.207.098-.545.19-.968.276-1.27l1.457-5.597h2.002l1.457 5.598c.062.25.142.634.238 1.15.095.514.168.956.22 1.325.044-.356.117-.8.217-1.33.1-.53.192-.96.274-1.29l1.27-5.454h2.085L111.992 221zm5.018-3.835c0 .757.124 1.328.372 1.716.25.388.653.582 1.214.582.556 0 .956-.193 1.2-.578.243-.385.365-.958.365-1.72 0-.755-.122-1.323-.368-1.7-.246-.38-.65-.568-1.21-.568-.556 0-.957.187-1.203.563-.247.375-.37.944-.37 1.705zm5.284 0c0 1.244-.328 2.217-.984 2.92-.657.7-1.57 1.052-2.742 1.052-.733 0-1.38-.16-1.94-.482-.562-.322-.992-.783-1.293-1.384-.3-.6-.45-1.303-.45-2.105 0-1.25.325-2.22.976-2.912.653-.693 1.57-1.04 2.75-1.04.733 0 1.38.16 1.94.48.56.318.992.776 1.293 1.373.3.597.45 1.297.45 2.1zm5.988-3.95c.283 0 .517.02.704.06l-.157 1.955a2.388 2.388 0 0 0-.616-.068c-.666 0-1.184.17-1.555.513-.373.342-.558.82-.558 1.435V221h-2.085v-7.643h1.58l.306 1.286h.103c.237-.43.557-.774.96-1.036a2.368 2.368 0 0 1 1.316-.393zm4.095 3.63l.91-1.163 2.14-2.325h2.35l-3.035 3.316 3.22 4.327h-2.406l-2.202-3.097-.895.718V221h-2.086v-10.637h2.085v4.744l-.11 1.737h.027zm9.563-2.148c-.442 0-.788.14-1.04.42-.25.28-.393.68-.43 1.194h2.926c-.01-.514-.143-.912-.403-1.192-.26-.28-.61-.42-1.053-.42zm.294 6.44c-1.23 0-2.192-.34-2.884-1.02-.693-.678-1.04-1.64-1.04-2.884 0-1.28.32-2.27.96-2.97.64-.7 1.527-1.05 2.657-1.05 1.08 0 1.92.308 2.522.924.6.615.902 1.465.902 2.55v1.01h-4.93c.024.594.2 1.056.527 1.39.327.332.788.498 1.38.498.46 0 .896-.048 1.306-.144.41-.094.838-.247 1.285-.457v1.614a4.896 4.896 0 0 1-1.168.406c-.415.09-.92.134-1.518.134zm9.078-7.923c.283 0 .518.02.705.06l-.158 1.956a2.388 2.388 0 0 0-.616-.068c-.665 0-1.184.17-1.555.513-.372.342-.558.82-.558 1.435V221h-2.085v-7.643h1.58l.307 1.286h.102c.237-.43.557-.774.96-1.036a2.368 2.368 0 0 1 1.316-.393z" fill="#FFF"/><path d="M17 233v44h56v-44H17zm52 40H21v-16h48v16zm0-20H21v-16h48v16zm-40-4c2.4 0 4-1.6 4-4s-1.6-4-4-4-4 1.6-4 4 1.6 4 4 4zm16 0c2.4 0 4-1.6 4-4s-1.6-4-4-4-4 1.6-4 4 1.6 4 4 4zm-16 20c2.4 0 4-1.6 4-4s-1.6-4-4-4-4 1.6-4 4 1.6 4 4 4zm16 0c2.4 0 4-1.6 4-4s-1.6-4-4-4-4 1.6-4 4 1.6 4 4 4zM98 233v44h56v-44H98zm52 40h-48v-16h48v16zm0-20h-48v-16h48v16zm-40-4c2.4 0 4-1.6 4-4s-1.6-4-4-4-4 1.6-4 4 1.6 4 4 4zm16 0c2.4 0 4-1.6 4-4s-1.6-4-4-4-4 1.6-4 4 1.6 4 4 4zm-16 20c2.4 0 4-1.6 4-4s-1.6-4-4-4-4 1.6-4 4 1.6 4 4 4zm16 0c2.4 0 4-1.6 4-4s-1.6-4-4-4-4 1.6-4 4 1.6 4 4 4z" fill="#FFF" fill-rule="nonzero" opacity=".3"/><path d="M32 290v24h24v-24H32zm22 22H34v-20h20v20zm-10-4c3.4 0 6-2.6 6-6s-2.6-6-6-6-6 2.6-6 6 2.6 6 6 6zM32 322v24h24v-24H32zm22 22H34v-20h20v20zm-10-4c3.4 0 6-2.6 6-6s-2.6-6-6-6-6 2.6-6 6 2.6 6 6 6zM32 354v24h24v-24H32zm22 22H34v-20h20v20zm-10-4c3.4 0 6-2.6 6-6s-2.6-6-6-6-6 2.6-6 6 2.6 6 6 6zM32 386v24h24v-24H32zm22 22H34v-20h20v20zm-10-4c3.4 0 6-2.6 6-6s-2.6-6-6-6-6 2.6-6 6 2.6 6 6 6z" fill="#FFF" fill-rule="nonzero"/><path d="M18 281h1v118h-1V281zm8 21v1h-7v-1h7zm0 32v1h-7v-1h7zm0 32v1h-7v-1h7zm0 32v1h-7v-1h7z" fill="#FFF" opacity=".2"/><path d="M40.05 416.434v5.543c0 .632-.14 1.187-.424 1.664a2.765 2.765 0 0 1-1.228 1.096c-.535.254-1.168.38-1.898.38-1.102 0-1.957-.28-2.566-.845-.61-.564-.914-1.336-.914-2.317v-5.52h1.81v5.245c0 .66.133 1.144.4 1.453.264.31.704.464 1.317.464.594 0 1.024-.156 1.292-.466.266-.31.4-.798.4-1.462v-5.232h1.81zm5.737 1.388c-.683 0-1.213.257-1.588.77-.376.514-.563 1.23-.563 2.148 0 1.91.717 2.865 2.15 2.865.602 0 1.33-.15 2.186-.45v1.523c-.703.293-1.49.44-2.356.44-1.246 0-2.2-.38-2.86-1.135-.66-.755-.99-1.84-.99-3.254 0-.892.163-1.672.487-2.342.324-.67.79-1.184 1.397-1.54.61-.36 1.32-.537 2.137-.537.832 0 1.668.202 2.508.604l-.586 1.477a9.7 9.7 0 0 0-.968-.398 2.884 2.884 0 0 0-.955-.17zm5.824 2.643h.6c.558 0 .976-.11 1.253-.33.277-.222.416-.543.416-.965 0-.426-.117-.74-.35-.943-.232-.204-.596-.305-1.093-.305h-.826v2.543zm4.103-1.36c0 .922-.288 1.627-.864 2.116-.578.49-1.397.733-2.46.733h-.78V425h-1.815v-8.566h2.736c1.04 0 1.83.223 2.37.67.542.448.813 1.115.813 2z" fill="#FFF"/><path d="M111 290v24h24v-24h-24zm22 22h-20v-20h20v20zm-10-4c3.4 0 6-2.6 6-6s-2.6-6-6-6-6 2.6-6 6 2.6 6 6 6z" fill="#FFF" fill-rule="nonzero"/><path d="M98 281h1v21h-1v-21zm7 21v1h-7v-1h7z" fill="#FFF" opacity=".2"/><path d="M120.186 325.635c0 1.41-.402 2.49-1.205 3.24-.8.75-1.96 1.125-3.476 1.125h-2.426v-8.566h2.69c1.398 0 2.484.37 3.257 1.107.774.74 1.16 1.77 1.16 3.095zm-1.887.047c0-1.84-.814-2.76-2.44-2.76h-.965v5.578h.78c1.75 0 2.624-.94 2.624-2.818zm6.608 4.318h-1.816v-7.055h-2.326v-1.51h6.468v1.51h-2.326V330zm5.46-4.764h.587c.574 0 .998-.095 1.272-.287.273-.192.41-.493.41-.903 0-.406-.14-.695-.42-.867-.28-.172-.71-.258-1.297-.258h-.55v2.314zm0 1.477V330h-1.815v-8.566h2.496c1.163 0 2.024.212 2.583.635.558.423.838 1.067.838 1.93 0 .504-.138.952-.415 1.345-.278.392-.67.7-1.178.923 1.29 1.925 2.13 3.17 2.52 3.732h-2.016l-2.044-3.287h-.967z" fill="#FFF"/><path fill="#FFF" opacity=".2" d="M495 132h1v26h-1zM290 132h1v26h-1z"/></g></svg>