<svg width="600" height="440" viewBox="0 0 600 440" xmlns="http://www.w3.org/2000/svg"><title>Nodes and containers</title><g fill="none" fill-rule="evenodd"><path fill="#576167" d="M0 0h600v676H0z"/><path d="M124 72V48H44v24H28v56h112V72h-16zM52 56h64v16H52V56zm80 64H36V80h96v40zm-8-88H44v8h80v-8zm0-16H44v8h80v-8zM330 72V48h-80v24h-16v56h112V72h-16zm-72-16h64v16h-64V56zm80 64h-96V80h96v40zm-8-88h-80v8h80v-8zm0-16h-80v8h80v-8zM535 72V48h-80v24h-16v56h112V72h-16zm-72-16h64v16h-64V56zm80 64h-96V80h96v40zm-8-88h-80v8h80v-8zm0-16h-80v8h80v-8z" fill="#FFF" fill-rule="nonzero" opacity=".1"/><text font-family="OpenSans, Open Sans" font-size="22" fill="#FFF"><tspan x="44" y="104">/system</tspan></text><text font-family="OpenSans, Open Sans" font-size="22" fill="#FFF"><tspan x="251" y="104">/shared</tspan></text><text font-family="OpenSans, Open Sans" font-size="22" fill="#FFF"><tspan x="467" y="104">/prod</tspan></text><path d="M290 197h1v28h-1v-28zm-59 0h1v28h-1v-28zm120 0h1v28h-1v-28zm1-1v1H231v-1h121zM494 197h1v28h-1v-28zm-59 0h1v28h-1v-28zm120 0h1v28h-1v-28zm1-1v1H435v-1h121zM84 132h1v35h-1v-35zm43 35v1H43v-1h84zm-1 1h1v35h-1v-35zm-83 0h1v35h-1v-35z" fill="#FFF" opacity=".2"/><path d="M327 233v44h56v-44h-56zm52 40h-48v-16h48v16zm0-20h-48v-16h48v16zm-40-4c2.4 0 4-1.6 4-4s-1.6-4-4-4-4 1.6-4 4 1.6 4 4 4zm16 0c2.4 0 4-1.6 4-4s-1.6-4-4-4-4 1.6-4 4 1.6 4 4 4zm-16 20c2.4 0 4-1.6 4-4s-1.6-4-4-4-4 1.6-4 4 1.6 4 4 4zm16 0c2.4 0 4-1.6 4-4s-1.6-4-4-4-4 1.6-4 4 1.6 4 4 4zM263 233v44h56v-44h-56zm52 40h-48v-16h48v16zm0-20h-48v-16h48v16zm-40-4c2.4 0 4-1.6 4-4s-1.6-4-4-4-4 1.6-4 4 1.6 4 4 4zm16 0c2.4 0 4-1.6 4-4s-1.6-4-4-4-4 1.6-4 4 1.6 4 4 4zm-16 20c2.4 0 4-1.6 4-4s-1.6-4-4-4-4 1.6-4 4 1.6 4 4 4zm16 0c2.4 0 4-1.6 4-4s-1.6-4-4-4-4 1.6-4 4 1.6 4 4 4zM199 233v44h56v-44h-56zm52 40h-48v-16h48v16zm0-20h-48v-16h48v16zm-40-4c2.4 0 4-1.6 4-4s-1.6-4-4-4-4 1.6-4 4 1.6 4 4 4zm16 0c2.4 0 4-1.6 4-4s-1.6-4-4-4-4 1.6-4 4 1.6 4 4 4zm-16 20c2.4 0 4-1.6 4-4s-1.6-4-4-4-4 1.6-4 4 1.6 4 4 4zm16 0c2.4 0 4-1.6 4-4s-1.6-4-4-4-4 1.6-4 4 1.6 4 4 4zM532 233v44h56v-44h-56zm52 40h-48v-16h48v16zm0-20h-48v-16h48v16zm-40-4c2.4 0 4-1.6 4-4s-1.6-4-4-4-4 1.6-4 4 1.6 4 4 4zm16 0c2.4 0 4-1.6 4-4s-1.6-4-4-4-4 1.6-4 4 1.6 4 4 4zm-16 20c2.4 0 4-1.6 4-4s-1.6-4-4-4-4 1.6-4 4 1.6 4 4 4zm16 0c2.4 0 4-1.6 4-4s-1.6-4-4-4-4 1.6-4 4 1.6 4 4 4zM468 233v44h56v-44h-56zm52 40h-48v-16h48v16zm0-20h-48v-16h48v16zm-40-4c2.4 0 4-1.6 4-4s-1.6-4-4-4-4 1.6-4 4 1.6 4 4 4zm16 0c2.4 0 4-1.6 4-4s-1.6-4-4-4-4 1.6-4 4 1.6 4 4 4zm-16 20c2.4 0 4-1.6 4-4s-1.6-4-4-4-4 1.6-4 4 1.6 4 4 4zm16 0c2.4 0 4-1.6 4-4s-1.6-4-4-4-4 1.6-4 4 1.6 4 4 4zM404 233v44h56v-44h-56zm52 40h-48v-16h48v16zm0-20h-48v-16h48v16zm-40-4c2.4 0 4-1.6 4-4s-1.6-4-4-4-4 1.6-4 4 1.6 4 4 4zm16 0c2.4 0 4-1.6 4-4s-1.6-4-4-4-4 1.6-4 4 1.6 4 4 4zm-16 20c2.4 0 4-1.6 4-4s-1.6-4-4-4-4 1.6-4 4 1.6 4 4 4zm16 0c2.4 0 4-1.6 4-4s-1.6-4-4-4-4 1.6-4 4 1.6 4 4 4z" fill="#FFF" fill-rule="nonzero" opacity=".3"/><text font-family="OpenSans-Bold, Open Sans" font-size="14" font-weight="bold" fill="#FFF"><tspan x="260" y="181">Workers</tspan></text><text font-family="OpenSans-Bold, Open Sans" font-size="14" font-weight="bold" fill="#FFF"><tspan x="467" y="173">Workers</tspan></text><text opacity=".6" font-family="OpenSans-Italic, Open Sans" font-size="12" font-style="italic" fill="#FFF"><tspan x="436" y="186">(EE Advanced use only)</tspan></text><text font-family="OpenSans-Bold, Open Sans" font-size="14" font-weight="bold" fill="#FFF"><tspan x="15" y="221">Manager</tspan></text><text font-family="OpenSans-Bold, Open Sans" font-size="14" font-weight="bold" fill="#FFF"><tspan x="101" y="221">Worker</tspan></text><path d="M17 233v44h56v-44H17zm52 40H21v-16h48v16zm0-20H21v-16h48v16zm-40-4c2.4 0 4-1.6 4-4s-1.6-4-4-4-4 1.6-4 4 1.6 4 4 4zm16 0c2.4 0 4-1.6 4-4s-1.6-4-4-4-4 1.6-4 4 1.6 4 4 4zm-16 20c2.4 0 4-1.6 4-4s-1.6-4-4-4-4 1.6-4 4 1.6 4 4 4zm16 0c2.4 0 4-1.6 4-4s-1.6-4-4-4-4 1.6-4 4 1.6 4 4 4zM98 233v44h56v-44H98zm52 40h-48v-16h48v16zm0-20h-48v-16h48v16zm-40-4c2.4 0 4-1.6 4-4s-1.6-4-4-4-4 1.6-4 4 1.6 4 4 4zm16 0c2.4 0 4-1.6 4-4s-1.6-4-4-4-4 1.6-4 4 1.6 4 4 4zm-16 20c2.4 0 4-1.6 4-4s-1.6-4-4-4-4 1.6-4 4 1.6 4 4 4zm16 0c2.4 0 4-1.6 4-4s-1.6-4-4-4-4 1.6-4 4 1.6 4 4 4z" fill="#FFF" fill-rule="nonzero" opacity=".3"/><path d="M32 290v24h24v-24H32zm22 22H34v-20h20v20zm-10-4c3.4 0 6-2.6 6-6s-2.6-6-6-6-6 2.6-6 6 2.6 6 6 6zM32 322v24h24v-24H32zm22 22H34v-20h20v20zm-10-4c3.4 0 6-2.6 6-6s-2.6-6-6-6-6 2.6-6 6 2.6 6 6 6zM32 354v24h24v-24H32zm22 22H34v-20h20v20zm-10-4c3.4 0 6-2.6 6-6s-2.6-6-6-6-6 2.6-6 6 2.6 6 6 6zM32 386v24h24v-24H32zm22 22H34v-20h20v20zm-10-4c3.4 0 6-2.6 6-6s-2.6-6-6-6-6 2.6-6 6 2.6 6 6 6z" fill="#FFF" fill-rule="nonzero"/><path d="M18 281h1v118h-1V281zm8 21v1h-7v-1h7zm0 32v1h-7v-1h7zm0 32v1h-7v-1h7zm0 32v1h-7v-1h7z" fill="#FFF" opacity=".2"/><text font-family="OpenSans-Bold, Open Sans" font-size="12" font-weight="bold" fill="#FFF"><tspan x="32" y="425">UCP</tspan></text><path d="M111 290v24h24v-24h-24zm22 22h-20v-20h20v20zm-10-4c3.4 0 6-2.6 6-6s-2.6-6-6-6-6 2.6-6 6 2.6 6 6 6z" fill="#FFF" fill-rule="nonzero"/><path d="M98 281h1v21h-1v-21zm7 21v1h-7v-1h7z" fill="#FFF" opacity=".2"/><text font-family="OpenSans-Bold, Open Sans" font-size="12" font-weight="bold" fill="#FFF"><tspan x="112" y="330">DTR</tspan></text><path fill="#FFF" opacity=".2" d="M495 132h1v26h-1zM290 132h1v26h-1z"/></g></svg>