<svg width="600" height="440" viewBox="0 0 600 440" xmlns="http://www.w3.org/2000/svg"><title>Isolate swarm nodes</title><g fill="none" fill-rule="evenodd"><path fill="#576167" d="M0 0h600v676H0z"/><path d="M182.35 195.832A26.91 26.91 0 0 0 190 177c0-7.767-3.28-14.767-8.53-19.693l70.736-62.765-.664-.748-70.817 62.838A26.896 26.896 0 0 0 163 150c-1.35 0-2.677.1-3.975.29C169.075 136.446 175 119.415 175 101c0-46.392-37.608-84-84-84S7 54.608 7 101s37.608 84 84 84c16.785 0 32.42-4.923 45.54-13.405A27.124 27.124 0 0 0 136 177c0 14.912 12.088 27 27 27a26.908 26.908 0 0 0 18.628-7.456l70.754 99.653.815-.58-70.848-99.785z" fill="#FFF" opacity=".1"/><path d="M74 85c4.4 0 8-3.6 8-8s-3.6-8-8-8-8 3.6-8 8 3.6 8 8 8zm0 4c-6.8 0-12 5.2-12 12v24h24v-24c0-6.8-5.2-12-12-12zm32-4c4.4 0 8-3.6 8-8s-3.6-8-8-8-8 3.6-8 8 3.6 8 8 8zm0 4c-6.8 0-12 5.2-12 12v24h24v-24c0-6.8-5.2-12-12-12zM164.93 178H179v6h-2v-4h-2v4h-2v-4h-8.07a7.002 7.002 0 0 1-13.93-1 7 7 0 0 1 13.93-1zm-6.93 6a5 5 0 1 0 0-10 5 5 0 0 0 0 10z" fill="#FFF" fill-rule="nonzero"/><path d="M276 86v-8c0-4.4-3.6-8-8-8s-8 3.6-8 8v8h-6v2h28v-2h-6zm-2 0h-12v-8c0-3.4 2.6-6 6-6s6 2.6 6 6v8zm-20 6h28v-2h-28v2zM276 297v-8c0-4.4-3.6-8-8-8s-8 3.6-8 8v8h-6v2h28v-2h-6zm-2 0h-12v-8c0-3.4 2.6-6 6-6s6 2.6 6 6v8zm-20 6h28v-2h-28v2z" fill="#FFF" fill-rule="nonzero" opacity=".3"/><text opacity=".6" font-family="OpenSans-Italic, Open Sans" font-size="12" font-style="italic" fill="#FFF"><tspan x="141" y="233">(Admin)</tspan></text><text font-family="OpenSans-Bold, Open Sans" font-size="16" font-weight="bold" fill="#FFF"><tspan x="72" y="203">OPS</tspan></text><text font-family="OpenSans-Bold, Open Sans" font-size="14" font-weight="bold" fill="#FFF"><tspan x="142" y="219">Grant</tspan></text><text font-family="OpenSans, Open Sans" font-size="14" fill="#FFF"><tspan x="254" y="109">Restricted control to</tspan></text><text font-family="OpenSans, Open Sans" font-size="14" fill="#FFF"><tspan x="254" y="319">Scheduler to</tspan></text><path d="M413 102l12 3-12 4v-7zm-19 3h19v1h-19v-1zM369 312l12 3-12 4v-7zm-19 3h19v1h-19v-1z" fill="#FFF" opacity=".2"/><path fill="#FFF" opacity=".05" d="M434 20h121v170H434z"/><path d="M505 46v-6h-20v6h-4v14h28V46h-4zm-18-4h16v4h-16v-4zm20 16h-24V48h24v10zm-2-22h-20v2h20v-2zm0-4h-20v2h20v-2z" fill="#FFF" fill-rule="nonzero" opacity=".3"/><text font-family="OpenSans, Open Sans" font-size="12" fill="#FFF"><tspan x="448" y="77">/prod-webserver</tspan></text><text font-family="OpenSans, Open Sans" font-size="12" fill="#FFF"><tspan x="478" y="174">NGINX</tspan></text><path d="M487 128v30h16v-30h-16zm14 28h-12v-12h12v12zm0-14h-12v-12h12v12zm-6 10c1.2 0 2-.8 2-2s-.8-2-2-2-2 .8-2 2 .8 2 2 2zm0-14c1.2 0 2-.8 2-2s-.8-2-2-2-2 .8-2 2 .8 2 2 2z" fill="#FFF" fill-rule="nonzero" opacity=".3"/><path fill="#FFF" opacity=".1" d="M494 88h1v30h-1z"/><g fill="#FFF"><path opacity=".05" d="M387 211h168v209H387z"/><path d="M491 250v-12h-40v12h-8v28h56v-28h-8zm-36-8h32v8h-32v-8zm40 32h-48v-20h48v20zm-4-44h-40v4h40v-4zm0-8h-40v4h40v-4z" fill-rule="nonzero" opacity=".3"/><text font-family="OpenSans, Open Sans" font-size="11" transform="translate(387 211)"><tspan x="70" y="55">/prod</tspan></text><path d="M470 355h1v28h-1v-28zm-59 0h1v28h-1v-28zm120 0h1v28h-1v-28zm1-1v1H411v-1h121z" opacity=".1"/><text font-family="OpenSans-Bold, Open Sans" font-size="14" font-weight="bold" transform="translate(387 211)"><tspan x="34" y="120">Worker Nodes</tspan></text><text opacity=".6" font-family="OpenSans-Italic, Open Sans" font-size="12" font-style="italic" transform="translate(387 211)"><tspan x="15" y="133">(EE Advanced license only)</tspan></text><path opacity=".1" d="M471 287h1v26h-1z"/><path d="M517 388v22h28v-22h-28zm26 20h-24v-8h24v8zm0-10h-24v-8h24v8zm-20-2c1.2 0 2-.8 2-2s-.8-2-2-2-2 .8-2 2 .8 2 2 2zm8 0c1.2 0 2-.8 2-2s-.8-2-2-2-2 .8-2 2 .8 2 2 2zm-8 10c1.2 0 2-.8 2-2s-.8-2-2-2-2 .8-2 2 .8 2 2 2zm8 0c1.2 0 2-.8 2-2s-.8-2-2-2-2 .8-2 2 .8 2 2 2zM457 388v22h28v-22h-28zm26 20h-24v-8h24v8zm0-10h-24v-8h24v8zm-20-2c1.2 0 2-.8 2-2s-.8-2-2-2-2 .8-2 2 .8 2 2 2zm8 0c1.2 0 2-.8 2-2s-.8-2-2-2-2 .8-2 2 .8 2 2 2zm-8 10c1.2 0 2-.8 2-2s-.8-2-2-2-2 .8-2 2 .8 2 2 2zm8 0c1.2 0 2-.8 2-2s-.8-2-2-2-2 .8-2 2 .8 2 2 2zM397 388v22h28v-22h-28zm26 20h-24v-8h24v8zm0-10h-24v-8h24v8zm-20-2c1.2 0 2-.8 2-2s-.8-2-2-2-2 .8-2 2 .8 2 2 2zm8 0c1.2 0 2-.8 2-2s-.8-2-2-2-2 .8-2 2 .8 2 2 2zm-8 10c1.2 0 2-.8 2-2s-.8-2-2-2-2 .8-2 2 .8 2 2 2zm8 0c1.2 0 2-.8 2-2s-.8-2-2-2-2 .8-2 2 .8 2 2 2z" fill-rule="nonzero" opacity=".3"/></g></g></svg>