<svg width="600" height="440" viewBox="0 0 600 440" xmlns="http://www.w3.org/2000/svg" xmlns:xlink="http://www.w3.org/1999/xlink"><title>Isolate volumes</title><defs><path id="a" d="M299.546 328.046h2v25h-2z"/></defs><g fill="none" fill-rule="evenodd"><path fill="#576167" d="M0 0h600v676H0z"/><path fill="#FFF" opacity=".1" d="M147 34h78v78h-78zM376 34h78v78h-78z"/><path d="M178 56c2.2 0 4-1.8 4-4s-1.8-4-4-4-4 1.8-4 4 1.8 4 4 4zm0 2c-3.4 0-6 2.6-6 6v12h12V64c0-3.4-2.6-6-6-6zm16-2c2.2 0 4-1.8 4-4s-1.8-4-4-4-4 1.8-4 4 1.8 4 4 4zm0 2c-3.4 0-6 2.6-6 6v12h12V64c0-3.4-2.6-6-6-6zM407 56c2.2 0 4-1.8 4-4s-1.8-4-4-4-4 1.8-4 4 1.8 4 4 4zm0 2c-3.4 0-6 2.6-6 6v12h12V64c0-3.4-2.6-6-6-6zm16-2c2.2 0 4-1.8 4-4s-1.8-4-4-4-4 1.8-4 4 1.8 4 4 4zm0 2c-3.4 0-6 2.6-6 6v12h12V64c0-3.4-2.6-6-6-6z" fill="#FFF" fill-rule="nonzero"/><path d="M184.48 149.406c0-1.324.235-2.55.704-3.674.468-1.125 1.218-2.224 2.25-3.298h.92c-.96 1.054-1.687 2.168-2.177 3.34a9.297 9.297 0 0 0-.736 3.62c0 1.325.224 2.493.67 3.504h-.768c-.574-1.04-.862-2.203-.862-3.492zm7.706-1.13h-2.907L187.843 151h-1.108l4.682-8.566h1.02l1.078 8.566h-.996l-.334-2.725zm-.106-.915l-.205-1.75c-.094-.7-.15-1.383-.17-2.05-.144.342-.302.684-.472 1.024-.17.34-.657 1.266-1.462 2.777h2.31zm5.748-2.887c.758 0 1.307.37 1.647 1.113h.058c.067-.606.154-1.14.264-1.606l.457-2.097h.973L199.293 151h-.814l.127-1.225h-.046c-.394.49-.763.834-1.107 1.037a2.07 2.07 0 0 1-1.066.305c-.543 0-.967-.19-1.272-.574-.304-.383-.457-.914-.457-1.594 0-.837.14-1.602.422-2.298.28-.695.66-1.232 1.14-1.61a2.526 2.526 0 0 1 1.608-.57zm-1.113 5.83c.367 0 .746-.183 1.137-.548.39-.365.7-.832.928-1.4a4.62 4.62 0 0 0 .343-1.738c0-.433-.105-.763-.316-.99-.21-.227-.518-.34-.92-.34-.395 0-.76.16-1.1.484-.337.323-.608.776-.813 1.36a5.52 5.52 0 0 0-.308 1.843c0 .886.35 1.33 1.05 1.33zm8.373.697l.867-4.055c.07-.367.106-.63.106-.79 0-.274-.06-.487-.18-.64-.122-.152-.33-.228-.622-.228-.328 0-.648.117-.958.352-.31.233-.584.568-.82 1.004-.237.435-.42.96-.548 1.573L202.34 151h-.985l1.372-6.422h.814l-.128 1.19h.06c.34-.465.677-.8 1.015-1.002a2.004 2.004 0 0 1 1.046-.305c.442 0 .78.128 1.02.382.238.254.38.607.422 1.06h.046c.337-.488.695-.85 1.074-1.087.38-.236.76-.354 1.148-.354.496 0 .88.134 1.152.4.27.265.407.652.407 1.16 0 .265-.042.613-.128 1.042l-.844 3.938h-.996l.867-4.055c.077-.406.116-.69.116-.855 0-.242-.067-.437-.202-.583-.135-.147-.346-.22-.635-.22-.318 0-.63.113-.94.34-.308.227-.578.548-.81.964-.233.417-.41.91-.53 1.48l-.628 2.93h-.984zm7.717 0h-.985l1.37-6.422h.986l-1.37 6.422zm.662-8.063a.77.77 0 0 1 .187-.536.624.624 0 0 1 .487-.207c.344 0 .516.176.516.528a.795.795 0 0 1-.196.546.59.59 0 0 1-.454.222.54.54 0 0 1-.387-.143c-.102-.096-.153-.232-.153-.407zm5.326 8.063l.867-4.055c.078-.406.117-.687.117-.843 0-.247-.07-.444-.208-.592-.14-.15-.36-.223-.666-.223-.347 0-.686.117-1.016.352-.33.233-.62.567-.873 1-.252.434-.443.96-.572 1.577l-.59 2.783h-.986l1.37-6.422h.816l-.13 1.19h.06c.374-.477.737-.814 1.086-1.01.35-.198.71-.297 1.086-.297.496 0 .888.137 1.175.408.288.272.432.652.432 1.14 0 .308-.045.66-.135 1.054L219.79 151h-.997zm5.584-5.063c0 1.333-.237 2.562-.712 3.69-.475 1.126-1.222 2.217-2.24 3.27h-.915c1.937-2.15 2.906-4.47 2.906-6.96 0-1.332-.22-2.5-.662-3.503h.767c.572 1.05.857 2.218.857 3.504zM161.48 399.406c0-1.324.235-2.55.704-3.674.468-1.125 1.218-2.224 2.25-3.298h.92c-.96 1.054-1.687 2.168-2.177 3.34a9.297 9.297 0 0 0-.736 3.62c0 1.325.224 2.493.67 3.504h-.768c-.574-1.04-.862-2.203-.862-3.492zm6.686-4.933c.758 0 1.307.37 1.647 1.113h.058c.067-.606.155-1.14.265-1.606l.457-2.097h.972L169.63 401h-.814l.13-1.225h-.048c-.394.49-.763.834-1.107 1.038a2.07 2.07 0 0 1-1.065.304c-.543 0-.967-.19-1.272-.574-.305-.383-.457-.914-.457-1.594 0-.837.14-1.602.422-2.298.28-.695.66-1.232 1.14-1.61a2.526 2.526 0 0 1 1.608-.57zm-1.113 5.83c.367 0 .746-.183 1.136-.548.39-.365.7-.832.928-1.4a4.62 4.62 0 0 0 .343-1.738c0-.433-.105-.763-.315-.99-.21-.227-.518-.34-.92-.34-.395 0-.76.16-1.1.484-.337.323-.608.776-.813 1.36a5.52 5.52 0 0 0-.308 1.843c0 .886.35 1.33 1.05 1.33zm7.177.814c-.718 0-1.283-.213-1.693-.638-.41-.427-.615-1.017-.615-1.77 0-.735.145-1.44.436-2.113.29-.674.677-1.2 1.158-1.574a2.522 2.522 0 0 1 1.588-.562c.597 0 1.046.13 1.347.39.302.26.452.623.452 1.087 0 .704-.324 1.255-.972 1.656-.65.4-1.576.6-2.784.6h-.193l-.023.47c0 .51.12.91.36 1.197.24.287.612.43 1.116.43.246 0 .5-.034.76-.104.26-.07.582-.2.97-.387v.854a5.31 5.31 0 0 1-.974.36c-.28.07-.592.103-.932.103zm.815-5.818c-.402 0-.78.182-1.134.55-.352.367-.623.877-.81 1.53h.07c.89 0 1.573-.117 2.048-.35.474-.232.712-.57.712-1.01 0-.208-.072-.38-.214-.516-.143-.137-.366-.205-.67-.205zm3.287 5.7l-.732-6.422h.984l.375 3.592c.093 1.008.14 1.715.14 2.12h.035c.496-1.073.845-1.798 1.05-2.173l1.903-3.54h1.043L179.67 401h-1.336zm9.996-6.422l-.88 4.072c-.07.348-.104.62-.104.815 0 .558.287.838.86.838.345 0 .683-.117 1.015-.352.33-.233.624-.57.878-1.007.254-.437.447-.964.58-1.582l.586-2.782h.972L190.883 401h-.815l.13-1.19h-.07c-.384.49-.75.83-1.097 1.02-.346.19-.706.287-1.077.287-.5 0-.892-.136-1.178-.407-.285-.272-.427-.66-.427-1.163 0-.242.043-.578.13-1.008l.854-3.962h.996zm8.59 4.6c0 .61-.216 1.085-.647 1.426-.43.342-1.04.513-1.825.513-.66 0-1.256-.135-1.787-.404v-.926c.274.164.57.29.885.38.316.09.61.136.88.136.49 0 .862-.098 1.112-.293a.91.91 0 0 0 .375-.75.812.812 0 0 0-.205-.563c-.137-.152-.432-.36-.885-.627-.508-.285-.867-.564-1.078-.838a1.546 1.546 0 0 1-.316-.972c0-.54.197-.974.592-1.304.394-.33.914-.495 1.558-.495.668 0 1.313.145 1.934.435l-.317.802-.328-.146a3.257 3.257 0 0 0-1.29-.25c-.362 0-.647.084-.854.254a.813.813 0 0 0-.31.66c0 .218.07.405.208.56.14.158.425.36.86.605.417.233.716.434.898.602.182.168.317.35.407.542.09.194.135.412.135.654zm3.715 1.94c-.72 0-1.283-.214-1.694-.64-.41-.425-.616-1.015-.616-1.77 0-.733.146-1.437.437-2.11.292-.675.677-1.2 1.158-1.575a2.522 2.522 0 0 1 1.588-.562c.598 0 1.047.13 1.348.39.3.26.45.623.45 1.087 0 .704-.324 1.255-.972 1.656-.648.4-1.576.6-2.783.6h-.195l-.023.47c0 .51.12.91.36 1.197.24.287.613.43 1.117.43.245 0 .498-.034.757-.104.26-.07.583-.2.97-.387v.854a5.31 5.31 0 0 1-.973.36c-.28.07-.59.103-.93.103zm.814-5.82c-.402 0-.78.184-1.134.552-.353.367-.624.877-.81 1.53h.07c.89 0 1.573-.117 2.047-.35.475-.232.712-.57.712-1.01 0-.208-.07-.38-.214-.516-.142-.137-.366-.205-.67-.205zm6.627-.837c.27 0 .504.028.703.083l-.21.88a2.575 2.575 0 0 0-.616-.077c-.354 0-.687.117-.998.35-.31.236-.582.56-.814.977a4.967 4.967 0 0 0-.513 1.386l-.627 2.94h-.984l1.37-6.422h.815l-.13 1.19h.06c.28-.372.513-.638.696-.8a2.21 2.21 0 0 1 .577-.375c.2-.088.425-.132.67-.132zm3.276 1.478c0 1.332-.238 2.56-.712 3.688-.475 1.127-1.222 2.218-2.242 3.272h-.914c1.938-2.152 2.907-4.472 2.907-6.96 0-1.333-.222-2.5-.663-3.504h.767c.57 1.05.856 2.218.856 3.503zM387.48 399.406c0-1.324.235-2.55.704-3.674.468-1.125 1.218-2.224 2.25-3.298h.92c-.96 1.054-1.687 2.168-2.177 3.34a9.297 9.297 0 0 0-.736 3.62c0 1.325.224 2.493.67 3.504h-.768c-.574-1.04-.862-2.203-.862-3.492zm6.135 1.71c-.38 0-.71-.096-.996-.292a1.902 1.902 0 0 1-.663-.82h-.06l-.022.223a9.69 9.69 0 0 1-.062.41 219.1 219.1 0 0 1-.67 3.246h-.973l1.97-9.305h.813l-.152 1.225h.048c.7-.887 1.425-1.33 2.18-1.33.535 0 .956.19 1.265.57.31.382.463.916.463 1.603 0 .83-.135 1.588-.404 2.28-.27.69-.643 1.23-1.12 1.614a2.506 2.506 0 0 1-1.617.577zm1.09-5.83c-.375 0-.757.187-1.145.558a3.97 3.97 0 0 0-.926 1.4 4.554 4.554 0 0 0-.343 1.73c0 .428.11.757.326.986.217.228.53.343.94.343.387 0 .748-.158 1.082-.475.334-.316.602-.766.805-1.35a5.623 5.623 0 0 0 .305-1.86c0-.888-.348-1.33-1.043-1.33zm7.05-.825c.268 0 .503.028.702.083l-.21.88a2.575 2.575 0 0 0-.616-.077c-.355 0-.688.117-.998.35-.31.236-.582.56-.815.977a4.967 4.967 0 0 0-.512 1.386l-.627 2.94h-.985l1.37-6.422h.816l-.13 1.19h.06c.28-.372.512-.638.696-.8a2.21 2.21 0 0 1 .577-.375c.2-.088.425-.132.67-.132zm3.872.036c.742 0 1.328.22 1.758.66.43.44.644 1.043.644 1.813 0 .733-.14 1.426-.423 2.08-.28.65-.662 1.155-1.142 1.51a2.67 2.67 0 0 1-1.63.534c-.75 0-1.337-.22-1.763-.662-.426-.442-.638-1.045-.638-1.81 0-.743.142-1.44.427-2.096.286-.654.67-1.156 1.156-1.505a2.69 2.69 0 0 1 1.61-.524zm1.383 2.338c0-.45-.122-.813-.366-1.093-.245-.278-.576-.418-.994-.418-.425 0-.807.145-1.145.434-.338.29-.6.69-.785 1.204a5.016 5.016 0 0 0-.28 1.714c0 .512.125.907.373 1.186.25.28.605.42 1.07.42.406 0 .77-.143 1.096-.428.323-.286.576-.69.757-1.216.182-.526.273-1.126.273-1.802zm5.326-2.36c.758 0 1.307.37 1.646 1.112h.06c.065-.606.153-1.14.263-1.606l.457-2.097h.972L413.8 401h-.814l.13-1.225h-.048c-.394.49-.763.834-1.107 1.038a2.07 2.07 0 0 1-1.065.304c-.543 0-.967-.19-1.272-.574-.305-.383-.457-.914-.457-1.594 0-.837.14-1.602.422-2.298.28-.695.66-1.232 1.14-1.61a2.526 2.526 0 0 1 1.608-.57zm-1.113 5.83c.367 0 .746-.184 1.136-.55.39-.364.7-.83.928-1.4a4.62 4.62 0 0 0 .343-1.737c0-.433-.105-.763-.316-.99-.21-.227-.517-.34-.92-.34-.394 0-.76.16-1.098.484-.338.323-.61.776-.815 1.36a5.52 5.52 0 0 0-.306 1.843c0 .886.35 1.33 1.05 1.33zm10.054-5.726l-.88 4.072c-.07.348-.104.62-.104.815 0 .558.287.838.86.838.345 0 .683-.117 1.015-.352.332-.233.625-.57.88-1.007.253-.437.446-.964.58-1.582l.585-2.782h.973L423.832 401h-.814l.128-1.19h-.07c-.383.49-.748.83-1.096 1.02-.347.19-.707.287-1.078.287-.5 0-.892-.136-1.177-.407-.286-.272-.428-.66-.428-1.163 0-.242.043-.578.13-1.008l.854-3.962h.997zm8.59 4.6c0 .61-.216 1.085-.647 1.426-.432.342-1.04.513-1.825.513-.66 0-1.256-.135-1.788-.404v-.926c.274.164.57.29.885.38.317.09.61.136.88.136.49 0 .862-.098 1.112-.293a.91.91 0 0 0 .375-.75.812.812 0 0 0-.206-.563c-.136-.152-.43-.36-.884-.627-.508-.285-.868-.564-1.08-.838a1.546 1.546 0 0 1-.315-.972c0-.54.197-.974.592-1.304.394-.33.914-.495 1.558-.495.668 0 1.313.145 1.934.435l-.317.802-.33-.146a3.257 3.257 0 0 0-1.288-.25c-.363 0-.648.084-.855.254a.813.813 0 0 0-.31.66c0 .218.07.405.207.56.14.158.425.36.86.605.417.233.717.434.898.602.182.168.318.35.407.542.09.194.135.412.135.654zm3.715 1.94c-.72 0-1.283-.214-1.693-.64-.41-.425-.617-1.015-.617-1.77 0-.733.146-1.437.437-2.11.29-.675.677-1.2 1.157-1.575a2.522 2.522 0 0 1 1.588-.562c.598 0 1.047.13 1.348.39.3.26.45.623.45 1.087 0 .704-.323 1.255-.972 1.656-.647.4-1.575.6-2.782.6h-.193l-.024.47c0 .51.12.91.362 1.197.24.287.612.43 1.116.43.246 0 .5-.034.76-.104.258-.07.582-.2.968-.387v.854a5.31 5.31 0 0 1-.972.36c-.282.07-.592.103-.932.103zm.814-5.82c-.402 0-.78.184-1.133.552-.354.367-.624.877-.812 1.53h.07c.892 0 1.575-.117 2.05-.35.474-.232.71-.57.71-1.01 0-.208-.07-.38-.213-.516-.142-.137-.366-.205-.67-.205zm6.627-.837c.27 0 .504.028.704.083l-.21.88a2.575 2.575 0 0 0-.617-.077c-.355 0-.688.117-1 .35-.31.236-.58.56-.813.977a4.967 4.967 0 0 0-.513 1.386l-.627 2.94h-.984l1.37-6.422h.815l-.128 1.19h.058c.28-.372.514-.638.697-.8a2.21 2.21 0 0 1 .578-.375c.2-.088.424-.132.67-.132zm3.276 1.478c0 1.332-.238 2.56-.713 3.688-.475 1.127-1.222 2.218-2.24 3.272h-.915c1.937-2.152 2.906-4.472 2.906-6.96 0-1.333-.22-2.5-.662-3.504h.767c.57 1.05.856 2.218.856 3.503zM166.48 258.406c0-1.324.235-2.55.704-3.674.468-1.125 1.218-2.224 2.25-3.298h.92c-.96 1.054-1.687 2.168-2.177 3.34a9.297 9.297 0 0 0-.736 3.62c0 1.325.224 2.493.67 3.504h-.768c-.574-1.04-.862-2.203-.862-3.492zm7.706-1.13h-2.907L169.843 260h-1.108l4.682-8.566h1.02l1.078 8.566h-.996l-.334-2.725zm-.106-.915l-.205-1.75c-.094-.7-.15-1.383-.17-2.05-.144.342-.302.684-.472 1.024-.17.34-.657 1.266-1.462 2.777h2.31zm5.748-2.887c.758 0 1.307.37 1.647 1.113h.058c.067-.606.154-1.14.264-1.606l.457-2.097h.973L181.293 260h-.814l.127-1.225h-.046c-.394.49-.763.834-1.107 1.038a2.07 2.07 0 0 1-1.066.304c-.543 0-.967-.19-1.272-.574-.304-.383-.457-.914-.457-1.594 0-.837.14-1.602.422-2.298.28-.695.66-1.232 1.14-1.61a2.526 2.526 0 0 1 1.608-.57zm-1.113 5.83c.367 0 .746-.183 1.137-.548.39-.365.7-.832.928-1.4a4.62 4.62 0 0 0 .343-1.738c0-.433-.105-.763-.316-.99-.21-.227-.518-.34-.92-.34-.395 0-.76.16-1.1.484-.337.323-.608.776-.813 1.36a5.52 5.52 0 0 0-.308 1.843c0 .886.35 1.33 1.05 1.33zm8.373.697l.867-4.055c.07-.367.106-.63.106-.79 0-.274-.06-.487-.18-.64-.122-.152-.33-.228-.622-.228-.328 0-.648.117-.958.352-.31.233-.584.568-.82 1.004-.237.435-.42.96-.548 1.573L184.34 260h-.985l1.372-6.422h.814l-.128 1.19h.06c.34-.465.677-.8 1.015-1.002a2.004 2.004 0 0 1 1.046-.305c.442 0 .78.128 1.02.382.238.254.38.607.422 1.06h.046c.337-.488.695-.85 1.074-1.087.38-.236.76-.354 1.148-.354.496 0 .88.134 1.152.4.27.265.407.652.407 1.16 0 .265-.042.613-.128 1.042l-.844 3.938h-.996l.867-4.055c.077-.406.116-.69.116-.855 0-.242-.067-.437-.202-.583-.135-.147-.346-.22-.635-.22-.318 0-.63.113-.94.34-.308.227-.578.548-.81.964-.233.417-.41.91-.53 1.48l-.628 2.93h-.984zm7.717 0h-.985l1.37-6.422h.986l-1.37 6.422zm.662-8.063a.77.77 0 0 1 .187-.536.624.624 0 0 1 .487-.207c.344 0 .516.176.516.528a.795.795 0 0 1-.196.546.59.59 0 0 1-.454.222.54.54 0 0 1-.387-.143c-.102-.096-.153-.232-.153-.407zm5.326 8.063l.867-4.055c.078-.406.117-.687.117-.843 0-.247-.07-.444-.208-.592-.14-.15-.36-.223-.666-.223-.347 0-.686.117-1.016.352-.33.233-.62.567-.873 1-.252.434-.443.96-.572 1.577l-.59 2.783h-.986l1.37-6.422h.816l-.13 1.19h.06c.374-.477.737-.814 1.086-1.01.35-.198.71-.297 1.086-.297.496 0 .888.137 1.175.408.288.272.432.652.432 1.14 0 .308-.045.66-.135 1.054L201.79 260h-.997zm5.584-5.063c0 1.333-.237 2.562-.712 3.69-.475 1.126-1.222 2.217-2.24 3.27h-.915c1.937-2.15 2.906-4.47 2.906-6.96 0-1.332-.22-2.5-.662-3.503h.767c.572 1.05.857 2.218.857 3.504z" fill="#FFF" opacity=".6"/><path d="M189.77 129.764h3.397v4.86c-.53.17-1.066.296-1.613.383-.547.086-1.18.13-1.9.13-1.514 0-2.692-.45-3.535-1.35-.844-.9-1.266-2.162-1.266-3.784 0-1.04.21-1.95.626-2.73a4.23 4.23 0 0 1 1.8-1.792c.785-.41 1.703-.618 2.756-.618a7.53 7.53 0 0 1 2.98.588l-.45 1.026c-.903-.383-1.77-.575-2.605-.575-1.216 0-2.166.364-2.85 1.088-.683.725-1.025 1.73-1.025 3.015 0 1.35.33 2.372.988 3.07.658.697 1.626 1.045 2.902 1.045.692 0 1.37-.08 2.03-.24v-3.075h-2.235v-1.04zm9.043-2.393c.333 0 .632.028.896.083l-.158 1.053a3.865 3.865 0 0 0-.82-.103c-.607 0-1.125.246-1.556.74-.43.49-.646 1.104-.646 1.837V135h-1.134v-7.492h.936l.13 1.388h.055c.278-.488.613-.864 1.004-1.128a2.262 2.262 0 0 1 1.293-.397zm6.625 7.63l-.226-1.066h-.055c-.373.47-.746.787-1.117.953-.372.167-.836.25-1.392.25-.742 0-1.325-.192-1.746-.575-.422-.382-.632-.927-.632-1.633 0-1.514 1.21-2.307 3.63-2.38l1.27-.04v-.466c0-.588-.126-1.022-.378-1.302-.253-.28-.658-.42-1.214-.42-.624 0-1.33.19-2.12.574l-.348-.87c.37-.2.774-.356 1.214-.47.44-.114.88-.17 1.322-.17.894 0 1.556.197 1.986.593.43.396.646 1.032.646 1.907V135h-.84zm-2.564-.8c.706 0 1.26-.193 1.665-.58.402-.388.604-.93.604-1.628v-.677l-1.135.048c-.904.032-1.554.172-1.953.42-.4.25-.598.635-.598 1.16 0 .41.123.722.372.936.248.213.595.32 1.042.32zm10.87.8v-4.847c0-.61-.14-1.066-.418-1.367-.278-.3-.713-.45-1.305-.45-.783 0-1.358.21-1.722.635-.365.425-.547 1.124-.547 2.1V135h-1.134v-7.492h.923l.184 1.025h.054c.233-.37.56-.655.978-.858.42-.203.886-.304 1.4-.304.904 0 1.583.22 2.038.654.456.435.684 1.13.684 2.088V135h-1.135zm5.885-.8c.2 0 .393-.015.58-.044.187-.03.335-.06.444-.093v.87c-.123.058-.304.107-.543.146a4.08 4.08 0 0 1-.645.057c-1.45 0-2.174-.764-2.174-2.29v-4.457h-1.072v-.547l1.073-.472.48-1.6h.656v1.738h2.174v.882h-2.174v4.41c0 .45.107.796.32 1.038.215.24.51.362.883.362zM180.914 93.18c0 1.88-.535 3.32-1.605 4.32-1.072 1-2.617 1.5-4.638 1.5h-3.234V87.578h3.585c1.865 0 3.313.492 4.344 1.477 1.03.984 1.547 2.36 1.547 4.125zm-2.516.062c0-2.453-1.083-3.68-3.25-3.68h-1.29V97h1.04c2.334 0 3.5-1.253 3.5-3.758zM189.858 99h-6.577V87.578h6.58v1.984h-4.157v2.508h3.867v1.985h-3.867V97h4.156v2zm8.9-11.422h2.445L197.32 99h-2.64l-3.875-11.422h2.445l2.148 6.797c.12.4.244.868.372 1.402.127.534.207.905.238 1.114.057-.48.252-1.317.586-2.515l2.164-6.797zM395.86 92.953h.796c.745 0 1.302-.147 1.672-.44.37-.296.555-.724.555-1.286 0-.568-.155-.987-.465-1.258-.31-.272-.796-.407-1.457-.407h-1.1v3.39zm5.468-1.812c0 1.23-.384 2.17-1.152 2.82-.768.652-1.86.978-3.278.978h-1.04V99h-2.42V87.578h3.648c1.385 0 2.44.298 3.16.895.72.596 1.082 1.485 1.082 2.668zm4.578 1.508h.78c.767 0 1.332-.127 1.697-.382.364-.256.547-.657.547-1.204 0-.54-.187-.927-.56-1.156-.37-.23-.948-.344-1.73-.344h-.734v3.086zm0 1.97V99h-2.422V87.578h3.33c1.55 0 2.7.283 3.444.848.745.565 1.117 1.423 1.117 2.574a3.03 3.03 0 0 1-.555 1.793c-.37.523-.893.934-1.57 1.23 1.72 2.568 2.84 4.227 3.36 4.977h-2.688l-2.727-4.383h-1.29zm18.508-1.345c0 1.89-.47 3.344-1.406 4.36-.938 1.015-2.28 1.523-4.03 1.523-1.75 0-3.095-.508-4.033-1.523-.937-1.016-1.406-2.474-1.406-4.375 0-1.9.47-3.353 1.41-4.356.94-1.002 2.287-1.504 4.042-1.504s3.098.506 4.028 1.516c.93 1.01 1.394 2.464 1.394 4.36zm-8.336 0c0 1.276.242 2.237.727 2.883.484.646 1.208.97 2.172.97 1.932 0 2.898-1.285 2.898-3.853 0-2.572-.96-3.86-2.883-3.86-.963 0-1.69.325-2.18.974-.49.648-.734 1.61-.734 2.886zm20.18-.093c0 1.88-.535 3.32-1.606 4.32-1.07 1-2.616 1.5-4.636 1.5h-3.235V87.578h3.587c1.865 0 3.313.492 4.344 1.477 1.032.984 1.548 2.36 1.548 4.125zm-2.516.062c0-2.453-1.083-3.68-3.25-3.68h-1.29V97h1.04c2.334 0 3.5-1.253 3.5-3.758z" fill="#FFF"/><path d="M196 216v-6h-20v6h-4v14h28v-14h-4zm-18-4h16v4h-16v-4zm20 16h-24v-10h24v10zm-2-22h-20v2h20v-2zm0-4h-20v2h20v-2z" fill="#FFF" fill-rule="nonzero" opacity=".3"/><path d="M155.283 236.434L152.09 245h-.973l3.194-8.566h.973zm5.526 7.705h-.054c-.45.65-1.12.977-2.016.977-.84 0-1.493-.287-1.96-.86-.467-.575-.7-1.392-.7-2.45 0-1.06.234-1.88.703-2.467.47-.586 1.12-.88 1.957-.88.87 0 1.54.317 2.004.95h.076l-.04-.463-.024-.45v-2.614h.973V245h-.792l-.13-.86zm-1.947.163c.664 0 1.146-.18 1.445-.542.298-.36.448-.944.448-1.748v-.205c0-.91-.152-1.56-.454-1.95-.303-.387-.786-.582-1.45-.582-.57 0-1.007.222-1.31.665-.303.444-.454 1.07-.454 1.878 0 .82.15 1.44.45 1.858.302.418.743.627 1.325.627zm7.64.814c-.948 0-1.697-.29-2.246-.867-.55-.578-.823-1.38-.823-2.408 0-1.035.254-1.858.764-2.467.51-.61 1.195-.914 2.054-.914.805 0 1.44.266 1.91.795.47.53.703 1.227.703 2.095v.615h-4.424c.02.754.21 1.326.573 1.717.36.39.87.586 1.526.586.69 0 1.374-.145 2.05-.434v.867c-.344.15-.67.256-.976.32a5.483 5.483 0 0 1-1.11.097zm-.263-5.842c-.515 0-.927.168-1.233.504-.307.335-.487.8-.542 1.394h3.357c0-.613-.136-1.083-.41-1.41-.273-.326-.664-.49-1.172-.49zm5.45 5.725l-2.438-6.422h1.043l1.383 3.81c.312.89.496 1.467.55 1.733h.047c.043-.206.18-.635.408-1.285.228-.65.74-2.07 1.538-4.257h1.044L172.826 245h-1.137zm4.066-2.77v-.892h2.877v.89h-2.877zm5.806 2.77l-2.437-6.422h1.043l1.383 3.81c.313.89.497 1.467.552 1.733h.046c.043-.206.18-.635.408-1.285.228-.65.74-2.07 1.538-4.257h1.043L182.7 245h-1.137zm10.15-3.217c0 1.047-.265 1.864-.792 2.452-.527.588-1.256.882-2.186.882-.574 0-1.084-.135-1.53-.404a2.668 2.668 0 0 1-1.03-1.16c-.242-.504-.363-1.094-.363-1.77 0-1.047.262-1.862.786-2.446.523-.584 1.25-.876 2.18-.876.898 0 1.612.3 2.14.897.53.598.795 1.407.795 2.426zm-4.894 0c0 .82.164 1.446.493 1.875.33.43.81.645 1.448.645.637 0 1.12-.214 1.45-.642.33-.427.495-1.053.495-1.877 0-.816-.165-1.436-.495-1.86-.33-.424-.817-.636-1.462-.636-.637 0-1.117.21-1.44.627-.326.418-.488 1.04-.488 1.87zm7.57 3.217h-.972v-9.117h.973V245zm2.977-6.422v4.166c0 .524.12.914.358 1.172.238.258.61.387 1.12.387.67 0 1.162-.184 1.472-.55.31-.368.466-.968.466-1.8v-3.375h.974V245h-.803l-.14-.86h-.052c-.2.315-.476.557-.83.725a2.787 2.787 0 0 1-1.21.252c-.78 0-1.365-.185-1.754-.556-.39-.37-.583-.964-.583-1.78v-4.202h.985zM212.002 245v-4.178c0-.51-.11-.895-.328-1.15-.22-.257-.56-.385-1.02-.385-.605 0-1.052.174-1.34.522-.29.346-.435.88-.435 1.604V245h-.974v-4.178c0-.51-.11-.895-.328-1.15-.22-.257-.56-.385-1.025-.385-.61 0-1.056.183-1.34.548-.282.365-.424.964-.424 1.796V245h-.974v-6.422h.79l.16.88h.047c.183-.313.442-.558.776-.733a2.372 2.372 0 0 1 1.12-.264c1.005 0 1.66.364 1.97 1.09h.047c.19-.335.468-.6.832-.796a2.582 2.582 0 0 1 1.24-.293c.727 0 1.27.187 1.633.56.36.374.542.97.542 1.79V245h-.973zm5.69.117c-.95 0-1.7-.29-2.248-.867-.548-.578-.823-1.38-.823-2.408 0-1.035.256-1.858.766-2.467.51-.61 1.194-.914 2.053-.914.804 0 1.44.266 1.91.795.468.53.703 1.227.703 2.095v.615h-4.424c.018.754.21 1.326.57 1.717.362.39.87.586 1.527.586.69 0 1.375-.145 2.05-.434v.867c-.343.15-.67.256-.975.32a5.483 5.483 0 0 1-1.11.097zm-.264-5.842c-.516 0-.927.168-1.234.504-.306.335-.487.8-.542 1.394h3.358c0-.613-.137-1.083-.41-1.41-.274-.326-.664-.49-1.172-.49zm8.426 3.973c0 .598-.223 1.06-.668 1.383-.446.325-1.07.487-1.875.487-.85 0-1.515-.135-1.992-.404v-.902c.31.157.64.28.994.37.353.09.694.134 1.022.134.508 0 .898-.08 1.172-.243.273-.16.41-.408.41-.74 0-.25-.108-.464-.325-.642-.216-.177-.64-.387-1.268-.63-.597-.222-1.022-.416-1.274-.582a1.74 1.74 0 0 1-.563-.566 1.475 1.475 0 0 1-.184-.756c0-.523.214-.936.64-1.24.425-.302 1.01-.453 1.75-.453.693 0 1.37.142 2.03.423l-.347.79c-.644-.265-1.228-.398-1.752-.398-.46 0-.807.073-1.042.217-.234.145-.35.344-.35.598 0 .172.043.318.13.44.088.12.23.236.425.345.196.11.57.268 1.125.475.762.277 1.277.556 1.544.838.268.28.402.634.402 1.06zM167.402 385.14h-.052c-.45.65-1.12.977-2.016.977-.84 0-1.493-.287-1.96-.86-.467-.575-.7-1.392-.7-2.45 0-1.06.234-1.88.703-2.467.47-.586 1.12-.88 1.957-.88.87 0 1.54.317 2.004.95h.076l-.04-.463-.024-.45v-2.614h.972V386h-.79l-.13-.86zm-1.945.163c.664 0 1.146-.18 1.444-.542.3-.36.45-.944.45-1.748v-.205c0-.91-.152-1.56-.454-1.95-.303-.387-.787-.582-1.45-.582-.57 0-1.008.222-1.31.665-.303.444-.454 1.07-.454 1.878 0 .82.15 1.44.45 1.858.302.418.743.627 1.325.627zm7.64.814c-.95 0-1.698-.29-2.246-.867-.548-.578-.823-1.38-.823-2.408 0-1.035.255-1.858.765-2.467.51-.61 1.194-.914 2.054-.914.804 0 1.44.266 1.91.795.47.53.703 1.227.703 2.095v.615h-4.425c.02.754.21 1.326.57 1.717.363.39.872.586 1.528.586.69 0 1.375-.145 2.05-.434v.867c-.343.15-.668.256-.975.32a5.483 5.483 0 0 1-1.11.097zm-.263-5.842c-.516 0-.927.168-1.233.504-.306.335-.487.8-.54 1.394h3.356c0-.613-.137-1.083-.41-1.41-.274-.326-.664-.49-1.172-.49zm5.45 5.725l-2.438-6.422h1.043l1.38 3.81c.314.89.498 1.467.552 1.733h.047c.042-.206.178-.635.406-1.285.23-.65.742-2.07 1.538-4.257h1.043L179.42 386h-1.137zm4.066-2.77v-.892h2.877v.89h-2.877zm8.77 1.91h-.052c-.45.65-1.12.977-2.015.977-.84 0-1.493-.287-1.96-.86-.467-.575-.7-1.392-.7-2.45 0-1.06.234-1.88.703-2.467.468-.586 1.12-.88 1.957-.88.87 0 1.54.317 2.004.95h.076l-.04-.463-.025-.45v-2.614h.973V386h-.79l-.13-.86zm-1.944.163c.664 0 1.145-.18 1.444-.542.3-.36.448-.944.448-1.748v-.205c0-.91-.15-1.56-.454-1.95-.302-.387-.786-.582-1.45-.582-.57 0-1.007.222-1.31.665-.302.444-.454 1.07-.454 1.878 0 .82.15 1.44.452 1.858.3.418.742.627 1.324.627zm8.877.697l-.194-.914h-.048c-.32.402-.64.675-.958.817-.318.143-.715.214-1.192.214-.637 0-1.136-.164-1.497-.492-.36-.328-.542-.795-.542-1.4 0-1.297 1.037-1.977 3.11-2.04l1.09-.035v-.398c0-.504-.107-.876-.324-1.116-.218-.24-.564-.36-1.04-.36-.536 0-1.142.163-1.817.492l-.3-.745a4.57 4.57 0 0 1 1.04-.404 4.504 4.504 0 0 1 1.135-.147c.765 0 1.333.17 1.702.51.37.34.553.884.553 1.634V386h-.72zm-2.198-.686c.606 0 1.082-.166 1.427-.498.346-.332.52-.796.52-1.394v-.58l-.974.04c-.773.028-1.33.148-1.673.36-.342.214-.512.545-.512.994 0 .352.106.62.32.803.212.183.51.274.892.274zm6.997 0c.17 0 .337-.012.498-.038.16-.025.287-.05.38-.08v.745c-.105.052-.26.094-.465.127-.205.034-.39.05-.554.05-1.24 0-1.862-.654-1.862-1.963v-3.82h-.92v-.47l.92-.403.41-1.37h.562v1.488h1.864v.756h-1.864v3.78c0 .386.092.683.276.89.183.207.435.31.756.31zm6.11.686l-.192-.914h-.047c-.32.402-.64.675-.958.817-.32.143-.716.214-1.193.214-.636 0-1.135-.164-1.497-.492-.36-.328-.542-.795-.542-1.4 0-1.297 1.037-1.977 3.112-2.04l1.09-.035v-.398c0-.504-.11-.876-.326-1.116-.218-.24-.564-.36-1.04-.36-.536 0-1.14.163-1.817.492l-.3-.745a4.57 4.57 0 0 1 1.04-.404 4.504 4.504 0 0 1 1.135-.147c.765 0 1.333.17 1.702.51.37.34.554.884.554 1.634V386h-.72zm-2.196-.686c.605 0 1.08-.166 1.426-.498.346-.332.52-.796.52-1.394v-.58l-.974.04c-.773.028-1.33.148-1.673.36-.34.214-.512.545-.512.994 0 .352.106.62.32.803.212.183.51.274.893.274zM392.02 386.117c-.418 0-.8-.077-1.146-.23a2.154 2.154 0 0 1-.87-.713h-.07c.046.375.07.73.07 1.066v2.643h-.973v-9.305h.792l.135.88h.047c.25-.353.54-.606.873-.763a2.654 2.654 0 0 1 1.143-.234c.85 0 1.508.292 1.97.874.464.582.696 1.398.696 2.45 0 1.054-.236 1.873-.707 2.457-.47.585-1.125.877-1.96.877zm-.14-5.83c-.657 0-1.132.182-1.425.545-.293.363-.443.94-.45 1.734v.217c0 .903.15 1.548.45 1.937.3.388.783.583 1.447.583.555 0 .99-.225 1.304-.674.315-.45.472-1.07.472-1.86 0-.8-.157-1.414-.472-1.84-.314-.43-.757-.643-1.327-.643zm7.434-.826c.286 0 .54.024.768.07l-.135.904c-.265-.06-.5-.088-.703-.088-.52 0-.964.21-1.333.633-.368.42-.553.946-.553 1.575V386h-.972v-6.422h.803l.11 1.19h.048c.238-.418.525-.74.86-.967a1.94 1.94 0 0 1 1.108-.34zm7.272 3.323c0 1.047-.264 1.864-.79 2.452-.528.588-1.257.882-2.187.882-.575 0-1.085-.135-1.53-.404a2.668 2.668 0 0 1-1.03-1.16c-.243-.504-.364-1.094-.364-1.77 0-1.047.26-1.862.785-2.446.524-.584 1.25-.876 2.18-.876.9 0 1.613.3 2.142.897.53.598.794 1.407.794 2.426zm-4.893 0c0 .82.164 1.446.493 1.875.328.43.81.645 1.447.645s1.12-.214 1.45-.642c.33-.427.495-1.053.495-1.877 0-.816-.165-1.436-.495-1.86-.33-.424-.817-.636-1.462-.636-.636 0-1.116.21-1.44.627-.325.418-.487 1.04-.487 1.87zm10.97 2.356h-.054c-.45.65-1.122.977-2.016.977-.84 0-1.493-.287-1.96-.86-.467-.575-.7-1.392-.7-2.45 0-1.06.234-1.88.703-2.467.468-.586 1.12-.88 1.957-.88.87 0 1.54.317 2.004.95h.076l-.04-.463-.025-.45v-2.614h.972V386h-.79l-.13-.86zm-1.946.163c.664 0 1.145-.18 1.444-.542.3-.36.45-.944.45-1.748v-.205c0-.91-.152-1.56-.455-1.95-.302-.387-.786-.582-1.45-.582-.57 0-1.007.222-1.31.665-.302.444-.454 1.07-.454 1.878 0 .82.152 1.44.453 1.858.3.418.742.627 1.324.627zm4.388-2.074v-.892h2.877v.89h-2.877zm8.772 1.91h-.053c-.45.65-1.12.977-2.015.977-.84 0-1.495-.287-1.96-.86-.468-.575-.702-1.392-.702-2.45 0-1.06.235-1.88.704-2.467.468-.586 1.12-.88 1.957-.88.87 0 1.538.317 2.002.95h.077l-.042-.463-.024-.45v-2.614h.973V386h-.79l-.13-.86zm-1.945.163c.664 0 1.145-.18 1.444-.542.3-.36.448-.944.448-1.748v-.205c0-.91-.15-1.56-.454-1.95-.303-.387-.786-.582-1.45-.582-.57 0-1.007.222-1.31.665-.302.444-.454 1.07-.454 1.878 0 .82.15 1.44.45 1.858.302.418.744.627 1.326.627zm8.877.697l-.195-.914h-.047c-.32.402-.64.675-.958.817-.318.143-.715.214-1.192.214-.637 0-1.136-.164-1.497-.492-.36-.328-.54-.795-.54-1.4 0-1.297 1.036-1.977 3.11-2.04l1.09-.035v-.398c0-.504-.108-.876-.325-1.116-.217-.24-.564-.36-1.04-.36-.535 0-1.14.163-1.817.492l-.298-.745a4.57 4.57 0 0 1 1.04-.404 4.504 4.504 0 0 1 1.133-.147c.766 0 1.333.17 1.703.51.37.34.553.884.553 1.634V386h-.72zm-2.2-.686c.607 0 1.082-.166 1.428-.498.346-.332.52-.796.52-1.394v-.58l-.974.04c-.773.028-1.33.148-1.673.36-.34.214-.512.545-.512.994 0 .352.107.62.32.803.213.183.51.274.893.274zm6.997 0c.172 0 .338-.012.498-.038.16-.025.288-.05.38-.08v.745c-.104.052-.26.094-.464.127-.205.034-.39.05-.553.05-1.242 0-1.863-.654-1.863-1.963v-3.82h-.92v-.47l.92-.403.41-1.37h.562v1.488h1.863v.756h-1.864v3.78c0 .386.092.683.276.89.183.207.435.31.755.31zm6.112.686l-.195-.914h-.046c-.322.402-.64.675-.96.817-.318.143-.715.214-1.192.214-.637 0-1.136-.164-1.497-.492-.36-.328-.54-.795-.54-1.4 0-1.297 1.036-1.977 3.11-2.04l1.09-.035v-.398c0-.504-.108-.876-.325-1.116-.217-.24-.563-.36-1.04-.36-.535 0-1.14.163-1.816.492l-.3-.745a4.57 4.57 0 0 1 1.04-.404 4.504 4.504 0 0 1 1.134-.147c.765 0 1.333.17 1.702.51.37.34.553.884.553 1.634V386h-.72zm-2.2-.686c.607 0 1.083-.166 1.428-.498.346-.332.52-.796.52-1.394v-.58l-.974.04c-.773.028-1.33.148-1.673.36-.34.214-.51.545-.51.994 0 .352.105.62.318.803.213.183.51.274.893.274z" fill="#FFF"/><path d="M166 311v56h40v-56h-40zm36 52h-32v-48h32v48zm-16-16c2.4 0 4.8-.8 6.8-2.4l-8.4-8 2.8-2.8 8.4 8.4c1.6-2.4 2.4-4.8 2.4-7.2 0-6.8-5.2-12-12-12s-12 5.2-12 12 5.2 12 12 12zM396 311v56h40v-56h-40zm36 52h-32v-48h32v48zm-16-16c2.4 0 4.8-.8 6.8-2.4l-8.4-8 2.8-2.8 8.4 8.4c1.6-2.4 2.4-4.8 2.4-7.2 0-6.8-5.2-12-12-12s-12 5.2-12 12 5.2 12 12 12z" fill="#FFF" fill-rule="nonzero"/><circle fill="#FFF" opacity=".1" cx="163" cy="138" r="17"/><path d="M162.965 138H170v3h-1v-2h-1v2h-1v-2h-4.035a3.5 3.5 0 1 1 0-1zm-3.465 3a2.5 2.5 0 1 0 0-5 2.5 2.5 0 0 0 0 5z" fill="#FFF" fill-rule="nonzero"/><path d="M395.48 258.406c0-1.324.235-2.55.704-3.674.468-1.125 1.218-2.224 2.25-3.298h.92c-.96 1.054-1.687 2.168-2.177 3.34a9.297 9.297 0 0 0-.736 3.62c0 1.325.224 2.493.67 3.504h-.768c-.574-1.04-.862-2.203-.862-3.492zm7.706-1.13h-2.907L398.843 260h-1.108l4.682-8.566h1.02l1.078 8.566h-.996l-.334-2.725zm-.106-.915l-.205-1.75c-.094-.7-.15-1.383-.17-2.05-.144.342-.302.684-.472 1.024-.17.34-.657 1.266-1.462 2.777h2.31zm5.748-2.887c.758 0 1.307.37 1.647 1.113h.058c.067-.606.154-1.14.264-1.606l.457-2.097h.973L410.293 260h-.814l.127-1.225h-.046c-.394.49-.763.834-1.107 1.038a2.07 2.07 0 0 1-1.066.304c-.543 0-.967-.19-1.272-.574-.304-.383-.457-.914-.457-1.594 0-.837.14-1.602.422-2.298.28-.695.66-1.232 1.14-1.61a2.526 2.526 0 0 1 1.608-.57zm-1.113 5.83c.367 0 .746-.183 1.137-.548.39-.365.7-.832.928-1.4a4.62 4.62 0 0 0 .343-1.738c0-.433-.105-.763-.316-.99-.21-.227-.518-.34-.92-.34-.395 0-.76.16-1.1.484-.337.323-.608.776-.813 1.36a5.52 5.52 0 0 0-.308 1.843c0 .886.35 1.33 1.05 1.33zm8.373.697l.867-4.055c.07-.367.106-.63.106-.79 0-.274-.06-.487-.18-.64-.122-.152-.33-.228-.622-.228-.328 0-.648.117-.958.352-.31.233-.584.568-.82 1.004-.237.435-.42.96-.548 1.573L413.34 260h-.985l1.372-6.422h.814l-.128 1.19h.06c.34-.465.677-.8 1.015-1.002a2.004 2.004 0 0 1 1.046-.305c.442 0 .78.128 1.02.382.238.254.38.607.422 1.06h.046c.337-.488.695-.85 1.074-1.087.38-.236.76-.354 1.148-.354.496 0 .88.134 1.152.4.27.265.407.652.407 1.16 0 .265-.042.613-.128 1.042l-.844 3.938h-.996l.867-4.055c.077-.406.116-.69.116-.855 0-.242-.067-.437-.202-.583-.135-.147-.346-.22-.635-.22-.318 0-.63.113-.94.34-.308.227-.578.548-.81.964-.233.417-.41.91-.53 1.48l-.628 2.93h-.984zm7.717 0h-.985l1.37-6.422h.986l-1.37 6.422zm.662-8.063a.77.77 0 0 1 .187-.536.624.624 0 0 1 .487-.207c.344 0 .516.176.516.528a.795.795 0 0 1-.196.546.59.59 0 0 1-.454.222.54.54 0 0 1-.387-.143c-.102-.096-.153-.232-.153-.407zm5.326 8.063l.867-4.055c.078-.406.117-.687.117-.843 0-.247-.07-.444-.208-.592-.14-.15-.36-.223-.666-.223-.347 0-.686.117-1.016.352-.33.233-.62.567-.873 1-.252.434-.443.96-.572 1.577l-.59 2.783h-.986l1.37-6.422h.816l-.13 1.19h.06c.374-.477.737-.814 1.086-1.01.35-.198.71-.297 1.086-.297.496 0 .888.137 1.175.408.288.272.432.652.432 1.14 0 .308-.045.66-.135 1.054L430.79 260h-.997zm5.584-5.063c0 1.333-.237 2.562-.712 3.69-.475 1.126-1.222 2.217-2.24 3.27h-.915c1.937-2.15 2.906-4.47 2.906-6.96 0-1.332-.22-2.5-.662-3.503h.767c.572 1.05.857 2.218.857 3.504z" fill="#FFF" opacity=".6"/><path d="M425 216v-6h-20v6h-4v14h28v-14h-4zm-18-4h16v4h-16v-4zm20 16h-24v-10h24v10zm-2-22h-20v2h20v-2zm0-4h-20v2h20v-2z" fill="#FFF" fill-rule="nonzero" opacity=".3"/><path d="M381.283 236.434L378.09 245h-.973l3.194-8.566h.973zm4.143 8.683c-.418 0-.8-.077-1.146-.23a2.154 2.154 0 0 1-.87-.713h-.07c.047.375.07.73.07 1.066v2.643h-.973v-9.305h.792l.133.88h.047c.25-.353.54-.606.873-.763a2.654 2.654 0 0 1 1.143-.234c.85 0 1.51.292 1.97.874.464.582.696 1.398.696 2.45 0 1.054-.236 1.873-.706 2.457-.47.585-1.124.877-1.96.877zm-.14-5.83c-.657 0-1.132.182-1.425.545-.292.363-.442.94-.45 1.734v.217c0 .903.15 1.548.45 1.937.302.388.785.583 1.45.583.553 0 .988-.225 1.302-.674.315-.45.472-1.07.472-1.86 0-.8-.157-1.414-.472-1.84-.314-.43-.757-.643-1.327-.643zm7.435-.826c.286 0 .542.024.768.07l-.134.904c-.266-.06-.5-.088-.704-.088-.52 0-.963.21-1.333.633-.37.42-.553.946-.553 1.575V245h-.973v-6.422h.804l.11 1.19h.048c.238-.418.525-.74.86-.967a1.94 1.94 0 0 1 1.11-.34zm7.272 3.323c0 1.047-.263 1.864-.79 2.452-.528.588-1.257.882-2.186.882-.575 0-1.084-.135-1.53-.404a2.668 2.668 0 0 1-1.03-1.16c-.243-.504-.364-1.094-.364-1.77 0-1.047.262-1.862.785-2.446.523-.584 1.25-.876 2.18-.876.898 0 1.612.3 2.14.897.53.598.795 1.407.795 2.426zm-4.892 0c0 .82.164 1.446.492 1.875.328.43.81.645 1.447.645.636 0 1.12-.214 1.45-.642.33-.427.494-1.053.494-1.877 0-.816-.165-1.436-.495-1.86-.33-.424-.818-.636-1.463-.636-.636 0-1.117.21-1.44.627-.325.418-.487 1.04-.487 1.87zm10.968 2.356h-.052c-.45.65-1.12.977-2.016.977-.84 0-1.493-.287-1.96-.86-.467-.575-.7-1.392-.7-2.45 0-1.06.234-1.88.703-2.467.47-.586 1.12-.88 1.957-.88.87 0 1.54.317 2.004.95h.076l-.04-.463-.024-.45v-2.614h.972V245h-.79l-.13-.86zm-1.945.163c.664 0 1.146-.18 1.444-.542.3-.36.45-.944.45-1.748v-.205c0-.91-.153-1.56-.455-1.95-.303-.387-.787-.582-1.45-.582-.57 0-1.008.222-1.31.665-.303.444-.454 1.07-.454 1.878 0 .82.15 1.44.45 1.858.302.418.743.627 1.325.627zm4.39-2.074v-.892h2.876v.89h-2.878zm5.805 2.77l-2.437-6.422h1.044l1.383 3.81c.312.89.496 1.467.55 1.733h.047c.043-.206.18-.635.408-1.285.228-.65.74-2.07 1.538-4.257h1.043L415.455 245h-1.137zm10.15-3.217c0 1.047-.265 1.864-.792 2.452-.528.588-1.256.882-2.186.882-.574 0-1.084-.135-1.53-.404a2.668 2.668 0 0 1-1.03-1.16c-.243-.504-.364-1.094-.364-1.77 0-1.047.262-1.862.786-2.446.523-.584 1.25-.876 2.18-.876.898 0 1.612.3 2.14.897.53.598.795 1.407.795 2.426zm-4.894 0c0 .82.164 1.446.492 1.875.33.43.81.645 1.448.645.636 0 1.12-.214 1.45-.642.33-.427.495-1.053.495-1.877 0-.816-.166-1.436-.496-1.86-.33-.424-.818-.636-1.462-.636-.637 0-1.117.21-1.44.627-.326.418-.488 1.04-.488 1.87zm7.57 3.217h-.972v-9.117h.973V245zm2.977-6.422v4.166c0 .524.12.914.36 1.172.237.258.61.387 1.118.387.672 0 1.163-.184 1.473-.55.312-.368.467-.968.467-1.8v-3.375h.973V245h-.803l-.14-.86h-.053c-.2.315-.476.557-.83.725a2.787 2.787 0 0 1-1.21.252c-.78 0-1.366-.185-1.754-.556-.39-.37-.583-.964-.583-1.78v-4.202h.984zM444.76 245v-4.178c0-.51-.11-.895-.328-1.15-.22-.257-.56-.385-1.02-.385-.605 0-1.053.174-1.342.522-.29.346-.433.88-.433 1.604V245h-.973v-4.178c0-.51-.11-.895-.328-1.15-.22-.257-.56-.385-1.025-.385-.61 0-1.057.183-1.34.548-.283.365-.425.964-.425 1.796V245h-.973v-6.422h.79l.16.88h.046c.184-.313.443-.558.777-.733a2.372 2.372 0 0 1 1.122-.264c1.004 0 1.66.364 1.97 1.09h.045c.192-.335.47-.6.832-.796a2.582 2.582 0 0 1 1.243-.293c.726 0 1.27.187 1.63.56.363.374.543.97.543 1.79V245h-.972zm5.69.117c-.95 0-1.7-.29-2.248-.867-.55-.578-.823-1.38-.823-2.408 0-1.035.255-1.858.765-2.467.51-.61 1.194-.914 2.053-.914.805 0 1.442.266 1.91.795.47.53.704 1.227.704 2.095v.615h-4.425c.02.754.21 1.326.57 1.717.362.39.87.586 1.527.586.692 0 1.375-.145 2.05-.434v.867c-.343.15-.668.256-.974.32a5.483 5.483 0 0 1-1.11.097zm-.264-5.842c-.516 0-.927.168-1.234.504-.306.335-.487.8-.542 1.394h3.358c0-.613-.137-1.083-.41-1.41-.274-.326-.665-.49-1.172-.49zm8.425 3.973c0 .598-.223 1.06-.67 1.383-.444.325-1.07.487-1.874.487-.85 0-1.515-.135-1.992-.404v-.902c.31.157.64.28.993.37.354.09.695.134 1.023.134.508 0 .898-.08 1.172-.243.273-.16.41-.408.41-.74 0-.25-.11-.464-.325-.642-.217-.177-.64-.387-1.27-.63-.597-.222-1.02-.416-1.273-.582a1.74 1.74 0 0 1-.563-.566 1.475 1.475 0 0 1-.183-.756c0-.523.213-.936.638-1.24.426-.302 1.01-.453 1.752-.453.692 0 1.367.142 2.028.423l-.346.79c-.646-.265-1.23-.398-1.753-.398-.46 0-.81.073-1.043.217-.234.145-.352.344-.352.598 0 .172.044.318.132.44.088.12.23.236.425.345.194.11.57.268 1.124.475.762.277 1.276.556 1.544.838.268.28.4.634.4 1.06z" fill="#FFF"/><path d="M413.48 149.406c0-1.324.235-2.55.704-3.674.468-1.125 1.218-2.224 2.25-3.298h.92c-.96 1.054-1.687 2.168-2.177 3.34a9.297 9.297 0 0 0-.736 3.62c0 1.325.224 2.493.67 3.504h-.768c-.574-1.04-.862-2.203-.862-3.492zm7.706-1.13h-2.907L416.843 151h-1.108l4.682-8.566h1.02l1.078 8.566h-.996l-.334-2.725zm-.106-.915l-.205-1.75c-.094-.7-.15-1.383-.17-2.05-.144.342-.302.684-.472 1.024-.17.34-.657 1.266-1.462 2.777h2.31zm5.748-2.887c.758 0 1.307.37 1.647 1.113h.058c.067-.606.154-1.14.264-1.606l.457-2.097h.973L428.293 151h-.814l.127-1.225h-.046c-.394.49-.763.834-1.107 1.037a2.07 2.07 0 0 1-1.066.305c-.543 0-.967-.19-1.272-.574-.304-.383-.457-.914-.457-1.594 0-.837.14-1.602.422-2.298.28-.695.66-1.232 1.14-1.61a2.526 2.526 0 0 1 1.608-.57zm-1.113 5.83c.367 0 .746-.183 1.137-.548.39-.365.7-.832.928-1.4a4.62 4.62 0 0 0 .343-1.738c0-.433-.105-.763-.316-.99-.21-.227-.518-.34-.92-.34-.395 0-.76.16-1.1.484-.337.323-.608.776-.813 1.36a5.52 5.52 0 0 0-.308 1.843c0 .886.35 1.33 1.05 1.33zm8.373.697l.867-4.055c.07-.367.106-.63.106-.79 0-.274-.06-.487-.18-.64-.122-.152-.33-.228-.622-.228-.328 0-.648.117-.958.352-.31.233-.584.568-.82 1.004-.237.435-.42.96-.548 1.573L431.34 151h-.985l1.372-6.422h.814l-.128 1.19h.06c.34-.465.677-.8 1.015-1.002a2.004 2.004 0 0 1 1.046-.305c.442 0 .78.128 1.02.382.238.254.38.607.422 1.06h.046c.337-.488.695-.85 1.074-1.087.38-.236.76-.354 1.148-.354.496 0 .88.134 1.152.4.27.265.407.652.407 1.16 0 .265-.042.613-.128 1.042l-.844 3.938h-.996l.867-4.055c.077-.406.116-.69.116-.855 0-.242-.067-.437-.202-.583-.135-.147-.346-.22-.635-.22-.318 0-.63.113-.94.34-.308.227-.578.548-.81.964-.233.417-.41.91-.53 1.48l-.628 2.93h-.984zm7.717 0h-.985l1.37-6.422h.986l-1.37 6.422zm.662-8.063a.77.77 0 0 1 .187-.536.624.624 0 0 1 .487-.207c.344 0 .516.176.516.528a.795.795 0 0 1-.196.546.59.59 0 0 1-.454.222.54.54 0 0 1-.387-.143c-.102-.096-.153-.232-.153-.407zm5.326 8.063l.867-4.055c.078-.406.117-.687.117-.843 0-.247-.07-.444-.208-.592-.14-.15-.36-.223-.666-.223-.347 0-.686.117-1.016.352-.33.233-.62.567-.873 1-.252.434-.443.96-.572 1.577l-.59 2.783h-.986l1.37-6.422h.816l-.13 1.19h.06c.374-.477.737-.814 1.086-1.01.35-.198.71-.297 1.086-.297.496 0 .888.137 1.175.408.288.272.432.652.432 1.14 0 .308-.045.66-.135 1.054L448.79 151h-.997zm5.584-5.063c0 1.333-.237 2.562-.712 3.69-.475 1.126-1.222 2.217-2.24 3.27h-.915c1.937-2.15 2.906-4.47 2.906-6.96 0-1.332-.22-2.5-.662-3.503h.767c.572 1.05.857 2.218.857 3.504z" fill="#FFF" opacity=".6"/><path d="M418.77 129.764h3.397v4.86c-.53.17-1.066.296-1.613.383-.547.086-1.18.13-1.9.13-1.514 0-2.692-.45-3.535-1.35-.844-.9-1.266-2.162-1.266-3.784 0-1.04.21-1.95.626-2.73a4.23 4.23 0 0 1 1.8-1.792c.785-.41 1.703-.618 2.756-.618a7.53 7.53 0 0 1 2.98.588l-.45 1.026c-.903-.383-1.77-.575-2.605-.575-1.216 0-2.166.364-2.85 1.088-.683.725-1.025 1.73-1.025 3.015 0 1.35.33 2.372.988 3.07.658.697 1.626 1.045 2.902 1.045.692 0 1.37-.08 2.03-.24v-3.075h-2.235v-1.04zm9.043-2.393c.333 0 .632.028.896.083l-.158 1.053a3.865 3.865 0 0 0-.82-.103c-.607 0-1.125.246-1.556.74-.43.49-.646 1.104-.646 1.837V135h-1.134v-7.492h.936l.13 1.388h.055c.278-.488.613-.864 1.004-1.128a2.262 2.262 0 0 1 1.293-.397zm6.625 7.63l-.226-1.066h-.055c-.373.47-.746.787-1.117.953-.372.167-.836.25-1.392.25-.742 0-1.325-.192-1.746-.575-.422-.382-.632-.927-.632-1.633 0-1.514 1.21-2.307 3.63-2.38l1.27-.04v-.466c0-.588-.126-1.022-.378-1.302-.253-.28-.658-.42-1.214-.42-.624 0-1.33.19-2.12.574l-.348-.87c.37-.2.774-.356 1.214-.47.44-.114.88-.17 1.322-.17.894 0 1.556.197 1.986.593.43.396.646 1.032.646 1.907V135h-.84zm-2.564-.8c.706 0 1.26-.193 1.665-.58.402-.388.604-.93.604-1.628v-.677l-1.135.048c-.904.032-1.554.172-1.953.42-.4.25-.598.635-.598 1.16 0 .41.123.722.372.936.248.213.595.32 1.042.32zm10.87.8v-4.847c0-.61-.14-1.066-.418-1.367-.278-.3-.713-.45-1.305-.45-.783 0-1.358.21-1.722.635-.365.425-.547 1.124-.547 2.1V135h-1.134v-7.492h.923l.184 1.025h.054c.233-.37.56-.655.978-.858.42-.203.886-.304 1.4-.304.904 0 1.583.22 2.038.654.456.435.684 1.13.684 2.088V135h-1.135zm5.885-.8c.2 0 .393-.015.58-.044.187-.03.335-.06.444-.093v.87c-.123.058-.304.107-.543.146a4.08 4.08 0 0 1-.645.057c-1.45 0-2.174-.764-2.174-2.29v-4.457h-1.072v-.547l1.073-.472.48-1.6h.656v1.738h2.174v.882h-2.174v4.41c0 .45.107.796.32 1.038.215.24.51.362.883.362z" fill="#FFF"/><circle fill="#FFF" opacity=".1" cx="392" cy="138" r="17"/><path d="M391.965 138H399v3h-1v-2h-1v2h-1v-2h-4.035a3.5 3.5 0 1 1 0-1zm-3.465 3a2.5 2.5 0 1 0 0-5 2.5 2.5 0 0 0 0 5z" fill="#FFF" fill-rule="nonzero"/><path d="M246.5 340H229v-1h123v1H246.5zm124.5-4l12 3-12 4v-7zm-19 3h19v1h-19v-1zm-123-3v7l-11-4 11-3z" fill="#FFF" opacity=".37"/><circle fill="#556167" cx="300.5" cy="340.5" r="19.5"/><path d="M300.5 359c10.217 0 18.5-8.283 18.5-18.5s-8.283-18.5-18.5-18.5-18.5 8.283-18.5 18.5 8.283 18.5 18.5 18.5zm0 1c-10.77 0-19.5-8.73-19.5-19.5s8.73-19.5 19.5-19.5 19.5 8.73 19.5 19.5-8.73 19.5-19.5 19.5z" fill="#FFF" fill-rule="nonzero"/><path d="M300 333.5c-5 0-9.27 3.11-11 7.5 1.73 4.39 6 7.5 11 7.5s9.27-3.11 11-7.5c-1.73-4.39-6-7.5-11-7.5zm0 12.5c-2.76 0-5-2.24-5-5s2.24-5 5-5 5 2.24 5 5-2.24 5-5 5zm0-8c-1.66 0-3 1.34-3 3s1.34 3 3 3 3-1.34 3-3-1.34-3-3-3z" fill="#FFF" fill-rule="nonzero"/><g transform="rotate(45 300.546 340.546)"><use fill="#FFF" xlink:href="#a"/><path stroke="#556167" d="M299.046 327.546h3v26h-3z"/></g><path fill="#FFF" opacity=".1" d="M186 159h1v37h-1zM415 159h1v37h-1zM186 267h1v37h-1zM415 267h1v37h-1z"/></g></svg>