<svg width="600" height="440" viewBox="0 0 600 440" xmlns="http://www.w3.org/2000/svg" xmlns:xlink="http://www.w3.org/1999/xlink"><title>Isolate volumes</title><defs><path id="a" d="M299.546 328.046h2v25h-2z"/></defs><g fill="none" fill-rule="evenodd"><path fill="#576167" d="M0 0h600v676H0z"/><path fill="#FFF" opacity=".1" d="M147 34h78v78h-78zM376 34h78v78h-78z"/><path d="M178 56c2.2 0 4-1.8 4-4s-1.8-4-4-4-4 1.8-4 4 1.8 4 4 4zm0 2c-3.4 0-6 2.6-6 6v12h12V64c0-3.4-2.6-6-6-6zm16-2c2.2 0 4-1.8 4-4s-1.8-4-4-4-4 1.8-4 4 1.8 4 4 4zm0 2c-3.4 0-6 2.6-6 6v12h12V64c0-3.4-2.6-6-6-6zM407 56c2.2 0 4-1.8 4-4s-1.8-4-4-4-4 1.8-4 4 1.8 4 4 4zm0 2c-3.4 0-6 2.6-6 6v12h12V64c0-3.4-2.6-6-6-6zm16-2c2.2 0 4-1.8 4-4s-1.8-4-4-4-4 1.8-4 4 1.8 4 4 4zm0 2c-3.4 0-6 2.6-6 6v12h12V64c0-3.4-2.6-6-6-6z" fill="#FFF" fill-rule="nonzero"/><text opacity=".6" font-family="OpenSans-Italic, Open Sans" font-size="12" font-style="italic" fill="#FFF"><tspan x="184" y="149">(Admin)</tspan></text><text opacity=".6" font-family="OpenSans-Italic, Open Sans" font-size="12" font-style="italic" fill="#FFF"><tspan x="161" y="399">(dev user)</tspan></text><text opacity=".6" font-family="OpenSans-Italic, Open Sans" font-size="12" font-style="italic" fill="#FFF"><tspan x="387" y="399">(prod user)</tspan></text><text opacity=".6" font-family="OpenSans-Italic, Open Sans" font-size="12" font-style="italic" fill="#FFF"><tspan x="166" y="258">(Admin)</tspan></text><text font-family="OpenSans, Open Sans" font-size="14" fill="#FFF"><tspan x="184" y="135">Grant</tspan></text><text font-family="OpenSans-Bold, Open Sans" font-size="16" font-weight="bold" fill="#FFF"><tspan x="170" y="99">DEV</tspan></text><text font-family="OpenSans-Bold, Open Sans" font-size="16" font-weight="bold" fill="#FFF"><tspan x="392" y="99">PROD</tspan></text><path d="M196 216v-6h-20v6h-4v14h28v-14h-4zm-18-4h16v4h-16v-4zm20 16h-24v-10h24v10zm-2-22h-20v2h20v-2zm0-4h-20v2h20v-2z" fill="#FFF" fill-rule="nonzero" opacity=".3"/><text font-family="OpenSans, Open Sans" font-size="12" fill="#FFF"><tspan x="151" y="243">/dev-volumes</tspan></text><text font-family="OpenSans, Open Sans" font-size="12" fill="#FFF"><tspan x="162" y="384">dev-data</tspan></text><text font-family="OpenSans, Open Sans" font-size="12" fill="#FFF"><tspan x="388" y="384">prod-data</tspan></text><path d="M166 311v56h40v-56h-40zm36 52h-32v-48h32v48zm-16-16c2.4 0 4.8-.8 6.8-2.4l-8.4-8 2.8-2.8 8.4 8.4c1.6-2.4 2.4-4.8 2.4-7.2 0-6.8-5.2-12-12-12s-12 5.2-12 12 5.2 12 12 12zM396 311v56h40v-56h-40zm36 52h-32v-48h32v48zm-16-16c2.4 0 4.8-.8 6.8-2.4l-8.4-8 2.8-2.8 8.4 8.4c1.6-2.4 2.4-4.8 2.4-7.2 0-6.8-5.2-12-12-12s-12 5.2-12 12 5.2 12 12 12z" fill="#FFF" fill-rule="nonzero"/><circle fill="#FFF" opacity=".1" cx="163" cy="138" r="17"/><path d="M162.965 138H170v3h-1v-2h-1v2h-1v-2h-4.035a3.5 3.5 0 1 1 0-1zm-3.465 3a2.5 2.5 0 1 0 0-5 2.5 2.5 0 0 0 0 5z" fill="#FFF" fill-rule="nonzero"/><text opacity=".6" font-family="OpenSans-Italic, Open Sans" font-size="12" font-style="italic" fill="#FFF"><tspan x="395" y="258">(Admin)</tspan></text><path d="M425 216v-6h-20v6h-4v14h28v-14h-4zm-18-4h16v4h-16v-4zm20 16h-24v-10h24v10zm-2-22h-20v2h20v-2zm0-4h-20v2h20v-2z" fill="#FFF" fill-rule="nonzero" opacity=".3"/><text font-family="OpenSans, Open Sans" font-size="12" fill="#FFF"><tspan x="377" y="243">/prod-volumes</tspan></text><text opacity=".6" font-family="OpenSans-Italic, Open Sans" font-size="12" font-style="italic" fill="#FFF"><tspan x="413" y="149">(Admin)</tspan></text><text font-family="OpenSans, Open Sans" font-size="14" fill="#FFF"><tspan x="413" y="135">Grant</tspan></text><circle fill="#FFF" opacity=".1" cx="392" cy="138" r="17"/><path d="M391.965 138H399v3h-1v-2h-1v2h-1v-2h-4.035a3.5 3.5 0 1 1 0-1zm-3.465 3a2.5 2.5 0 1 0 0-5 2.5 2.5 0 0 0 0 5z" fill="#FFF" fill-rule="nonzero"/><path d="M246.5 340H229v-1h123v1H246.5zm124.5-4l12 3-12 4v-7zm-19 3h19v1h-19v-1zm-123-3v7l-11-4 11-3z" fill="#FFF" opacity=".37"/><circle fill="#556167" cx="300.5" cy="340.5" r="19.5"/><path d="M300.5 359c10.217 0 18.5-8.283 18.5-18.5s-8.283-18.5-18.5-18.5-18.5 8.283-18.5 18.5 8.283 18.5 18.5 18.5zm0 1c-10.77 0-19.5-8.73-19.5-19.5s8.73-19.5 19.5-19.5 19.5 8.73 19.5 19.5-8.73 19.5-19.5 19.5z" fill="#FFF" fill-rule="nonzero"/><path d="M300 333.5c-5 0-9.27 3.11-11 7.5 1.73 4.39 6 7.5 11 7.5s9.27-3.11 11-7.5c-1.73-4.39-6-7.5-11-7.5zm0 12.5c-2.76 0-5-2.24-5-5s2.24-5 5-5 5 2.24 5 5-2.24 5-5 5zm0-8c-1.66 0-3 1.34-3 3s1.34 3 3 3 3-1.34 3-3-1.34-3-3-3z" fill="#FFF" fill-rule="nonzero"/><g transform="rotate(45 300.546 340.546)"><use fill="#FFF" xlink:href="#a"/><path stroke="#556167" d="M299.046 327.546h3v26h-3z"/></g><path fill="#FFF" opacity=".1" d="M186 159h1v37h-1zM415 159h1v37h-1zM186 267h1v37h-1zM415 267h1v37h-1z"/></g></svg>