<svg width="800" height="546" viewBox="0 0 800 546" xmlns="http://www.w3.org/2000/svg" xmlns:xlink="http://www.w3.org/1999/xlink"><title>Roles</title><defs><path id="a" d="M38 314h210v191H38z"/></defs><g fill="none" fill-rule="evenodd"><path fill="#FBFBFC" d="M1 0h800v546H1z"/><path d="M378.1 60.06h.977c.957 0 1.664-.16 2.12-.478.455-.32.683-.82.683-1.504 0-.677-.233-1.16-.698-1.445-.466-.287-1.187-.43-2.163-.43h-.92v3.858zm0 2.46V68h-3.027V53.723h4.16c1.94 0 3.376.353 4.307 1.06.93.706 1.397 1.778 1.397 3.217 0 .84-.232 1.587-.694 2.24-.462.656-1.116 1.168-1.963 1.54 2.15 3.21 3.548 5.282 4.2 6.22h-3.36l-3.408-5.48h-1.61zm12.315 0c0 1.082.177 1.9.532 2.453.355.553.933.83 1.734.83.795 0 1.366-.275 1.715-.825.348-.55.522-1.37.522-2.457 0-1.08-.176-1.89-.527-2.43-.352-.54-.928-.81-1.73-.81-.793 0-1.366.268-1.718.805-.35.537-.527 1.35-.527 2.436zm7.55 0c0 1.78-.47 3.17-1.407 4.17-.938 1.004-2.243 1.505-3.916 1.505-1.05 0-1.973-.23-2.774-.688a4.58 4.58 0 0 1-1.846-1.978c-.43-.86-.644-1.863-.644-3.01 0-1.782.465-3.17 1.396-4.16.93-.988 2.24-1.483 3.926-1.483 1.048 0 1.973.228 2.774.684.8.456 1.416 1.11 1.845 1.963.43.853.644 1.853.644 2.998zm5.438 5.48h-2.978V52.805h2.978V68zm7.647-9.004c-.632 0-1.126.2-1.485.6-.358.4-.563.97-.615 1.705h4.18c-.013-.735-.205-1.303-.576-1.703-.37-.4-.873-.6-1.504-.6zm.42 9.2c-1.758 0-3.132-.486-4.12-1.456-.99-.97-1.486-2.344-1.486-4.12 0-1.83.458-3.245 1.372-4.244.915-1 2.18-1.5 3.794-1.5 1.543 0 2.744.44 3.604 1.32.86.878 1.29 2.092 1.29 3.642v1.445h-7.042c.032.847.283 1.507.752 1.983.47.475 1.126.713 1.972.713a8.19 8.19 0 0 0 1.866-.207 9.333 9.333 0 0 0 1.836-.654v2.304c-.52.26-1.078.454-1.67.58-.593.128-1.315.19-2.168.19zm14.492-3.438c0 1.12-.39 1.972-1.167 2.558-.778.586-1.942.88-3.49.88-.796 0-1.473-.054-2.033-.162a7.683 7.683 0 0 1-1.572-.473V65.1c.554.26 1.177.478 1.87.654.694.176 1.304.264 1.83.264 1.082 0 1.622-.313 1.622-.938a.782.782 0 0 0-.214-.57c-.144-.148-.39-.314-.743-.5-.35-.185-.82-.4-1.406-.65-.84-.35-1.458-.676-1.85-.975-.395-.3-.682-.643-.86-1.03-.18-.388-.27-.865-.27-1.43 0-.97.377-1.722 1.13-2.252.75-.53 1.817-.796 3.197-.796 1.315 0 2.594.286 3.838.86l-.9 2.148a16.527 16.527 0 0 0-1.532-.576 4.815 4.815 0 0 0-1.455-.226c-.88 0-1.318.238-1.318.713 0 .267.14.498.424.693.284.196.904.485 1.86.87.854.344 1.48.667 1.876.966.397.3.69.645.88 1.035.188.392.282.857.282 1.398z" fill="#066DA5"/><path fill-opacity=".05" fill="#066DA5" d="M22 101h760v425H22z"/><path d="M24 103v421h756V103H24zm-2-2h760v425H22V101z" fill-opacity=".1" fill="#066DA5" fill-rule="nonzero"/><path fill-opacity=".05" fill="#066DA5" d="M266 173h496v333H266z"/><path d="M268 175v329h492V175H268zm-2-2h496v333H266V173z" fill-opacity=".1" fill="#066DA5" fill-rule="nonzero"/><path fill="#066DA5" opacity=".05" d="M421 240h320v246H421z"/><path d="M423 242v242h316V242H423zm-2-2h320v246H421V240z" fill="#066DA5" fill-rule="nonzero" opacity=".1"/><path fill-opacity=".2" fill="#066DA5" d="M493 363h180v93H493z"/><path d="M495 454h176v-89H495v89zm-2-91h180v93H493v-93z" fill="#066DA5" fill-rule="nonzero"/><path d="M40.298 144h-2.68v-12.85h7.364v2.233h-4.684v3.313h4.36v2.224h-4.36V144zm17.657-12.85v8.315c0 .95-.212 1.78-.637 2.496-.425.716-1.04 1.264-1.84 1.644-.804.38-1.753.572-2.85.572-1.65 0-2.935-.424-3.85-1.27-.913-.847-1.37-2.006-1.37-3.476v-8.28h2.716v7.867c0 .99.2 1.716.598 2.18.398.462 1.057.694 1.977.694.89 0 1.536-.232 1.937-.698.402-.466.602-1.197.602-2.193v-7.85h2.715zM61.102 144v-12.85h2.724v10.6h5.212V144h-7.936zm10.17 0v-12.85h2.723v10.6h5.212V144H71.27zm20.3-10.767c-1.024 0-1.818.386-2.38 1.156-.563.77-.844 1.843-.844 3.22 0 2.866 1.075 4.298 3.225 4.298.903 0 1.995-.225 3.28-.677v2.287c-1.056.44-2.234.66-3.535.66-1.87 0-3.298-.568-4.29-1.702-.99-1.134-1.484-2.76-1.484-4.882 0-1.336.243-2.507.73-3.51.486-1.006 1.184-1.777 2.096-2.313.91-.536 1.98-.804 3.203-.804 1.248 0 2.502.302 3.762.905l-.88 2.216a14.55 14.55 0 0 0-1.45-.598 4.326 4.326 0 0 0-1.432-.255zm17.316 4.325c0 2.127-.528 3.76-1.582 4.904-1.055 1.142-2.567 1.714-4.535 1.714s-3.48-.572-4.535-1.714c-1.054-1.143-1.582-2.783-1.582-4.922 0-2.14.53-3.772 1.587-4.9 1.057-1.128 2.573-1.692 4.548-1.692s3.485.57 4.53 1.705c1.047 1.137 1.57 2.772 1.57 4.905zm-9.378 0c0 1.435.272 2.516.817 3.243.545.727 1.36 1.09 2.444 1.09 2.174 0 3.26-1.444 3.26-4.332 0-2.895-1.08-4.342-3.242-4.342-1.084 0-1.9.365-2.452 1.094-.55.73-.826 1.812-.826 3.248zM122.95 144h-3.463l-5.59-9.72h-.08c.113 1.716.168 2.94.168 3.673V144h-2.434v-12.85h3.437l5.58 9.624h.063c-.088-1.67-.132-2.85-.132-3.542v-6.082h2.452V144zm8.192 0h-2.725v-10.582h-3.49v-2.268h9.704v2.268h-3.488V144zm8.19-7.146h.88c.86 0 1.497-.143 1.907-.43.41-.287.614-.738.614-1.354 0-.61-.21-1.043-.628-1.3-.42-.258-1.068-.387-1.947-.387h-.827v3.47zm0 2.215V144h-2.724v-12.85h3.745c1.746 0 3.038.318 3.876.954.836.636 1.255 1.6 1.255 2.896a3.41 3.41 0 0 1-.624 2.017c-.415.59-1.004 1.05-1.765 1.384a518.944 518.944 0 0 0 3.78 5.6h-3.024l-3.067-4.93h-1.45zm20.822-1.512c0 2.127-.527 3.76-1.582 4.904-1.054 1.142-2.566 1.714-4.535 1.714-1.97 0-3.48-.572-4.535-1.714-1.055-1.143-1.582-2.783-1.582-4.922 0-2.14.53-3.772 1.586-4.9 1.058-1.128 2.574-1.692 4.55-1.692 1.973 0 3.484.57 4.53 1.705 1.045 1.137 1.568 2.772 1.568 4.905zm-9.378 0c0 1.435.273 2.516.818 3.243.545.727 1.36 1.09 2.443 1.09 2.174 0 3.26-1.444 3.26-4.332 0-2.895-1.08-4.342-3.242-4.342-1.084 0-1.902.365-2.452 1.094-.55.73-.827 1.812-.827 3.248zm12.04 6.442v-12.85h2.726v10.6h5.212V144h-7.937zm9.58-1.257c0-.492.133-.864.397-1.116.264-.252.647-.378 1.15-.378.488 0 .864.128 1.13.386.267.258.4.627.4 1.107 0 .463-.134.828-.404 1.094-.27.267-.645.4-1.126.4-.492 0-.873-.13-1.142-.39-.27-.262-.405-.63-.405-1.104zm0-7.26c0-.492.133-.864.397-1.116.264-.252.647-.378 1.15-.378.488 0 .864.128 1.13.386.267.258.4.627.4 1.107 0 .475-.136.843-.408 1.103-.273.26-.646.392-1.12.392-.493 0-.874-.13-1.143-.387-.27-.257-.405-.626-.405-1.107zM289.377 210.442h.684c.67 0 1.165-.11 1.484-.335.32-.223.478-.574.478-1.052 0-.474-.162-.812-.488-1.012-.326-.2-.83-.3-1.514-.3h-.643v2.7zm0 1.723V216h-2.12v-9.994h2.913c1.358 0 2.363.247 3.015.742.65.494.977 1.245.977 2.252 0 .588-.162 1.11-.485 1.57-.324.457-.782.816-1.374 1.076a403.613 403.613 0 0 0 2.94 4.354h-2.352l-2.385-3.835h-1.128zm12.88 3.835H296.5v-9.994h5.756v1.736h-3.637v2.195h3.383v1.736h-3.384v2.577h3.636V216zm7.983-2.775c0 .902-.324 1.613-.974 2.132-.65.52-1.553.78-2.71.78-1.067 0-2.01-.2-2.83-.602v-1.97c.674.302 1.245.514 1.712.637.467.123.894.185 1.282.185.465 0 .82-.09 1.07-.267.248-.178.372-.442.372-.793a.875.875 0 0 0-.164-.523c-.11-.152-.27-.3-.482-.44-.212-.142-.644-.368-1.295-.677-.61-.288-1.068-.563-1.373-.828a3.105 3.105 0 0 1-.732-.923c-.182-.35-.273-.762-.273-1.23 0-.885.3-1.58.9-2.086.598-.505 1.426-.758 2.484-.758.52 0 1.015.062 1.486.185.472.123.965.296 1.48.52l-.683 1.647c-.534-.22-.975-.372-1.324-.458a4.258 4.258 0 0 0-1.03-.13c-.4 0-.707.093-.922.28a.925.925 0 0 0-.32.732c0 .187.042.35.13.488.086.14.223.274.413.404.19.13.636.363 1.343.7.934.447 1.574.895 1.92 1.344.347.45.52 1 .52 1.65zm5.667 2.775h-2.12v-8.23h-2.713v-1.764h7.547v1.764h-2.713V216zm6.37-5.558h.685c.67 0 1.164-.11 1.483-.335.32-.223.48-.574.48-1.052 0-.474-.164-.812-.49-1.012-.326-.2-.83-.3-1.514-.3h-.642v2.7zm0 1.723V216h-2.118v-9.994h2.91c1.36 0 2.364.247 3.016.742.652.494.977 1.245.977 2.252 0 .588-.16 1.11-.485 1.57-.323.457-.78.816-1.374 1.076a403.602 403.602 0 0 0 2.94 4.354h-2.352l-2.386-3.835h-1.128zm7.124 3.835v-9.994h2.12V216h-2.12zm8.88-8.374c-.796 0-1.414.3-1.85.9-.44.598-.658 1.433-.658 2.504 0 2.23.837 3.343 2.51 3.343.7 0 1.55-.175 2.55-.526v1.777c-.82.342-1.737.513-2.75.513-1.453 0-2.565-.44-3.335-1.323-.77-.882-1.155-2.148-1.155-3.797 0-1.04.19-1.95.567-2.73.377-.783.92-1.382 1.63-1.8.708-.416 1.54-.625 2.49-.625.972 0 1.947.235 2.927.704l-.684 1.723c-.373-.18-.75-.334-1.127-.466a3.365 3.365 0 0 0-1.115-.198zm8.533 8.374h-2.12v-8.23h-2.714v-1.764h7.546v1.764h-2.714V216zm10.007 0h-5.756v-9.994h5.756v1.736h-3.636v2.195h3.383v1.736h-3.383v2.577h3.636V216zm10.377-5.093c0 1.645-.468 2.905-1.405 3.78-.936.876-2.288 1.313-4.057 1.313h-2.83v-9.994h3.138c1.63 0 2.898.43 3.8 1.292.903.86 1.354 2.064 1.354 3.61zm-2.2.055c0-2.147-.95-3.22-2.845-3.22h-1.128v6.508h.91c2.04 0 3.062-1.096 3.062-3.288zm12.153-3.336c-.797 0-1.415.3-1.852.9-.438.598-.656 1.433-.656 2.504 0 2.23.836 3.343 2.508 3.343.702 0 1.552-.175 2.55-.526v1.777c-.82.342-1.736.513-2.748.513-1.454 0-2.566-.44-3.336-1.323-.77-.882-1.155-2.148-1.155-3.797 0-1.04.19-1.95.568-2.73.38-.783.922-1.382 1.63-1.8.71-.416 1.54-.625 2.492-.625.97 0 1.946.235 2.926.704l-.683 1.723c-.374-.18-.75-.334-1.128-.466a3.365 3.365 0 0 0-1.115-.198zm13.467 3.363c0 1.654-.41 2.925-1.23 3.814-.82.888-1.996 1.333-3.528 1.333s-2.708-.445-3.528-1.333c-.82-.89-1.23-2.165-1.23-3.828 0-1.664.41-2.934 1.233-3.81.823-.88 2.002-1.317 3.538-1.317s2.71.44 3.524 1.325c.813.884 1.22 2.155 1.22 3.814zm-7.294 0c0 1.116.212 1.957.636 2.522.423.565 1.056.847 1.9.847 1.69 0 2.536-1.124 2.536-3.37 0-2.252-.84-3.378-2.523-3.378-.843 0-1.48.284-1.907.85-.43.57-.643 1.41-.643 2.527zm18.232 5.01h-2.694l-4.346-7.56h-.062c.087 1.335.13 2.287.13 2.857V216h-1.894v-9.994h2.673l4.342 7.485h.048c-.068-1.298-.103-2.216-.103-2.754v-4.73h1.908V216zm6.37 0h-2.118v-8.23h-2.714v-1.764h7.547v1.764h-2.714V216zm6.372-5.558h.683c.67 0 1.165-.11 1.484-.335.32-.223.478-.574.478-1.052 0-.474-.163-.812-.488-1.012-.326-.2-.83-.3-1.515-.3h-.643v2.7zm0 1.723V216h-2.12v-9.994h2.913c1.358 0 2.363.247 3.014.742.652.494.978 1.245.978 2.252 0 .588-.162 1.11-.485 1.57-.324.457-.782.816-1.374 1.076a403.634 403.634 0 0 0 2.94 4.354h-2.352l-2.385-3.835h-1.128zm16.194-1.176c0 1.654-.41 2.925-1.23 3.814-.82.888-1.995 1.333-3.527 1.333-1.53 0-2.707-.445-3.527-1.333-.82-.89-1.23-2.165-1.23-3.828 0-1.664.41-2.934 1.233-3.81.822-.88 2-1.317 3.537-1.317 1.536 0 2.71.44 3.524 1.325.814.884 1.22 2.155 1.22 3.814zm-7.293 0c0 1.116.212 1.957.636 2.522.424.565 1.057.847 1.9.847 1.69 0 2.537-1.124 2.537-3.37 0-2.252-.84-3.378-2.523-3.378-.843 0-1.48.284-1.907.85-.43.57-.643 1.41-.643 2.527zm9.365 5.01v-9.994h2.12v8.244h4.053V216h-6.173zm7.452-.978c0-.382.102-.672.307-.868.206-.196.505-.294.897-.294.378 0 .67.1.878.3.208.202.31.49.31.862 0 .36-.104.644-.313.852-.21.207-.502.31-.875.31-.383 0-.68-.1-.89-.304-.21-.202-.313-.488-.313-.858zm0-5.646c0-.383.102-.672.307-.868.206-.196.505-.294.897-.294.378 0 .67.1.878.3.208.2.31.488.31.862 0 .37-.105.655-.317.858-.212.203-.502.304-.87.304-.384 0-.68-.1-.89-.3-.21-.2-.314-.488-.314-.862zM447.96 269.006h2.14L446.7 279h-2.31l-3.39-9.994h2.14l1.88 5.947c.104.35.213.76.324 1.227.112.467.18.792.21.974.05-.42.22-1.153.51-2.2l1.895-5.948zm3.396 9.994v-9.994h2.12V279h-2.12zm10.39 0h-5.755v-9.994h5.757v1.736h-3.637v2.195h3.384v1.736h-3.384v2.577h3.637V279zm11.82 0h-2.413l-1.353-5.25c-.05-.187-.136-.573-.257-1.16-.12-.584-.19-.977-.208-1.178-.027.246-.096.642-.205 1.186-.11.545-.194.933-.253 1.166L467.53 279h-2.406l-2.55-9.994h2.085l1.277 5.455c.224 1.008.386 1.88.486 2.62.027-.26.09-.663.188-1.207.1-.545.19-.968.278-1.27l1.456-5.597h2.003l1.456 5.598c.064.25.143.634.24 1.15.095.514.168.956.218 1.325.046-.356.12-.8.22-1.33s.19-.96.273-1.29l1.27-5.454h2.086L473.565 279zm16.51-5.01c0 1.654-.41 2.925-1.23 3.814-.822.888-1.997 1.333-3.53 1.333-1.53 0-2.706-.445-3.526-1.333-.82-.89-1.23-2.165-1.23-3.828 0-1.664.41-2.934 1.233-3.81.823-.88 2.002-1.317 3.538-1.317 1.537 0 2.712.44 3.525 1.325.813.884 1.22 2.155 1.22 3.814zm-7.295 0c0 1.116.213 1.957.637 2.522.424.565 1.057.847 1.9.847 1.69 0 2.537-1.124 2.537-3.37 0-2.252-.84-3.378-2.523-3.378-.842 0-1.478.284-1.906.85-.43.57-.643 1.41-.643 2.527zm18.233 5.01h-2.694l-4.348-7.56h-.062c.087 1.335.13 2.287.13 2.857V279h-1.894v-9.994h2.673l4.34 7.485h.048c-.068-1.298-.103-2.216-.103-2.754v-4.73h1.908V279zm2.515 0v-9.994h2.12v8.244h4.053V279h-6.172zm10.603-5.88l2.086-4.114h2.283l-3.316 6.104V279h-2.106v-3.82l-3.315-6.174h2.297l2.07 4.115zm5.17 4.902c0-.382.1-.672.306-.868.206-.196.504-.294.896-.294.378 0 .67.1.878.3.208.202.31.49.31.862 0 .36-.103.644-.313.852-.21.207-.5.31-.875.31-.383 0-.68-.1-.89-.304-.208-.202-.313-.488-.313-.858zm0-5.646c0-.383.1-.672.306-.868.206-.196.504-.294.896-.294.378 0 .67.1.878.3.208.2.31.488.31.862 0 .37-.105.655-.316.858-.212.203-.503.304-.872.304-.383 0-.68-.1-.89-.3-.208-.2-.313-.488-.313-.862z" fill="#066DA5"/><path d="M629.124 145h-2.693l-4.347-7.56h-.062c.088 1.335.13 2.287.13 2.857V145h-1.892v-9.994h2.673l4.34 7.485h.05c-.07-1.298-.103-2.216-.103-2.754v-4.73h1.907V145zm4.013-3.835c0 .757.124 1.328.372 1.716.248.388.652.582 1.213.582.556 0 .956-.193 1.2-.578.243-.385.365-.958.365-1.72 0-.755-.123-1.323-.37-1.7-.245-.38-.648-.568-1.21-.568-.555 0-.956.187-1.202.563-.246.375-.37.944-.37 1.705zm5.284 0c0 1.244-.327 2.217-.983 2.92-.657.7-1.57 1.052-2.742 1.052-.733 0-1.38-.16-1.94-.482-.562-.322-.992-.783-1.293-1.384-.3-.6-.45-1.303-.45-2.105 0-1.25.325-2.22.976-2.912.652-.693 1.568-1.04 2.748-1.04.734 0 1.38.16 1.942.48.56.318.99.776 1.292 1.373.3.597.45 1.297.45 2.1zM651.868 145h-1.326l-5.46-8.388h-.056c.073.985.11 1.887.11 2.707V145h-1.073v-9.994h1.313l5.448 8.353h.056a75.95 75.95 0 0 1-.062-1.187 20.58 20.58 0 0 1-.034-1.432v-5.734h1.087V145zm9.044-3.753c0 1.22-.306 2.175-.922 2.86-.615.687-1.465 1.03-2.55 1.03-.67 0-1.264-.158-1.784-.472a3.113 3.113 0 0 1-1.203-1.353c-.28-.588-.423-1.277-.423-2.065 0-1.22.306-2.173.916-2.854.61-.68 1.46-1.022 2.543-1.022 1.05 0 1.88.35 2.5 1.047.616.697.925 1.64.925 2.83zm-5.707 0c0 .957.192 1.686.574 2.188.383.5.946.752 1.69.752.742 0 1.306-.25 1.69-.75.386-.498.578-1.228.578-2.19 0-.952-.192-1.676-.577-2.17-.385-.495-.954-.742-1.706-.742-.743 0-1.303.244-1.68.73-.38.49-.57 1.216-.57 2.182zM668 143.995h-.062c-.524.76-1.307 1.142-2.35 1.142-.98 0-1.743-.335-2.288-1.005-.544-.67-.817-1.623-.817-2.858s.274-2.194.82-2.878c.548-.683 1.31-1.025 2.284-1.025 1.016 0 1.795.37 2.338 1.11h.09l-.05-.542-.027-.526v-3.05h1.135V145h-.923l-.15-1.005zm-2.27.192c.775 0 1.337-.21 1.686-.633.348-.42.522-1.102.522-2.04v-.24c0-1.06-.176-1.82-.53-2.273-.352-.452-.916-.68-1.69-.68-.667 0-1.176.26-1.53.777-.352.517-.53 1.248-.53 2.19 0 .958.177 1.68.528 2.168.35.488.865.732 1.544.732zm8.915.95c-1.108 0-1.982-.338-2.622-1.012-.64-.674-.96-1.61-.96-2.81 0-1.207.297-2.167.892-2.877.594-.71 1.393-1.067 2.396-1.067.94 0 1.682.31 2.23.927.546.618.82 1.432.82 2.444v.72h-5.162c.023.88.245 1.546.667 2.002.42.456 1.015.684 1.78.684.807 0 1.605-.17 2.393-.506v1.01c-.4.175-.78.3-1.138.374-.358.075-.79.113-1.295.113zm-.308-6.816c-.602 0-1.08.197-1.44.59-.357.39-.568.933-.63 1.626h3.916c0-.715-.16-1.263-.48-1.644-.318-.38-.774-.57-1.366-.57zm15.142-.402c0 1.012-.347 1.79-1.037 2.334-.69.545-1.678.817-2.964.817h-1.176V145h-1.162v-9.994h2.59c2.498 0 3.747.97 3.747 2.912zm-5.176 2.153h1.046c1.03 0 1.775-.165 2.235-.498.46-.332.69-.866.69-1.6 0-.66-.216-1.152-.65-1.476-.432-.323-1.106-.485-2.022-.485h-1.3v4.06zm10.26 5.067c-1.107 0-1.98-.338-2.62-1.012-.64-.674-.962-1.61-.962-2.81 0-1.207.298-2.167.893-2.877.594-.71 1.393-1.067 2.396-1.067.94 0 1.682.31 2.23.927.546.618.82 1.432.82 2.444v.72h-5.162c.023.88.245 1.546.667 2.002.42.456 1.015.684 1.78.684.807 0 1.605-.17 2.393-.506v1.01c-.4.175-.78.3-1.138.374-.358.075-.79.113-1.296.113zm-.307-6.816c-.602 0-1.08.197-1.44.59-.357.39-.568.933-.63 1.626h3.916c0-.715-.16-1.263-.48-1.644-.318-.38-.774-.57-1.366-.57zm8.415-.95c.333 0 .63.028.895.083l-.157 1.053a3.865 3.865 0 0 0-.82-.103c-.606 0-1.125.246-1.555.74-.43.49-.646 1.104-.646 1.837V145h-1.136v-7.492h.936l.13 1.388h.055c.278-.488.613-.864 1.005-1.128a2.262 2.262 0 0 1 1.292-.397zM714.52 145v-4.874c0-.597-.13-1.045-.384-1.343-.255-.3-.652-.448-1.19-.448-.706 0-1.228.203-1.565.608-.336.406-.505 1.03-.505 1.873V145h-1.135v-4.874c0-.597-.127-1.045-.383-1.343-.255-.3-.654-.448-1.196-.448-.71 0-1.23.213-1.56.64-.33.425-.496 1.124-.496 2.094V145h-1.135v-7.492h.922l.184 1.025h.055a2.23 2.23 0 0 1 .907-.854c.39-.206.826-.31 1.31-.31 1.17 0 1.936.425 2.296 1.273h.054a2.39 2.39 0 0 1 .97-.93 3.012 3.012 0 0 1 1.45-.342c.848 0 1.482.22 1.904.654.423.435.633 1.13.633 2.088V145h-1.134zm4.606 0h-1.135v-7.492h1.136V145zm-1.23-9.522c0-.26.063-.45.19-.57a.67.67 0 0 1 .48-.182.67.67 0 0 1 .47.184c.133.123.2.312.2.568 0 .255-.067.445-.2.57a.662.662 0 0 1-.47.188.655.655 0 0 1-.48-.188c-.127-.125-.19-.315-.19-.57zm8.47 7.478c0 .697-.26 1.235-.78 1.613-.52.378-1.25.567-2.188.567-.993 0-1.768-.158-2.324-.472v-1.053c.36.183.746.326 1.16.43.41.106.81.158 1.192.158.592 0 1.048-.094 1.367-.283.32-.19.478-.478.478-.865 0-.292-.125-.54-.378-.75-.253-.206-.746-.45-1.48-.734-.697-.26-1.193-.486-1.487-.68a2.03 2.03 0 0 1-.656-.66 1.72 1.72 0 0 1-.216-.88c0-.612.248-1.094.745-1.447.496-.352 1.177-.53 2.043-.53a5.98 5.98 0 0 1 2.365.493l-.403.923c-.752-.31-1.434-.465-2.044-.465-.537 0-.943.086-1.216.254-.273.17-.41.4-.41.697 0 .202.05.373.154.514.102.14.267.276.495.404.228.127.666.312 1.313.553.888.325 1.49.65 1.8.98.313.327.47.74.47 1.236zm6.678 0c0 .697-.26 1.235-.78 1.613-.52.378-1.248.567-2.187.567-.993 0-1.768-.158-2.324-.472v-1.053c.36.183.746.326 1.16.43.41.106.81.158 1.19.158.594 0 1.05-.094 1.37-.283.318-.19.477-.478.477-.865 0-.292-.126-.54-.38-.75-.252-.206-.745-.45-1.48-.734-.696-.26-1.192-.486-1.486-.68a2.03 2.03 0 0 1-.656-.66 1.72 1.72 0 0 1-.216-.88c0-.612.25-1.094.746-1.447.496-.352 1.178-.53 2.043-.53a5.98 5.98 0 0 1 2.367.493l-.404.923c-.752-.31-1.433-.465-2.044-.465-.538 0-.944.086-1.217.254-.274.17-.41.4-.41.697 0 .202.05.373.153.514.103.14.268.276.496.404.228.127.665.312 1.312.553.89.325 1.49.65 1.802.98.312.327.468.74.468 1.236zm2.98 2.044h-1.134v-7.492h1.134V145zm-1.23-9.522c0-.26.064-.45.19-.57a.67.67 0 0 1 .48-.182.67.67 0 0 1 .472.184c.132.123.198.312.198.568 0 .255-.066.445-.198.57a.662.662 0 0 1-.472.188.655.655 0 0 1-.48-.188c-.126-.125-.19-.315-.19-.57zm10.103 5.77c0 1.22-.307 2.174-.922 2.86-.616.686-1.466 1.03-2.55 1.03-.67 0-1.265-.16-1.784-.473a3.113 3.113 0 0 1-1.202-1.353c-.283-.588-.424-1.277-.424-2.065 0-1.22.305-2.173.916-2.854.61-.68 1.458-1.022 2.543-1.022 1.048 0 1.88.35 2.498 1.047.62.697.927 1.64.927 2.83zm-5.708 0c0 .956.19 1.685.574 2.187.382.5.945.752 1.688.752s1.307-.25 1.692-.75c.385-.498.578-1.228.578-2.19 0-.952-.193-1.676-.578-2.17-.385-.495-.954-.742-1.706-.742-.742 0-1.303.244-1.68.73-.38.49-.57 1.216-.57 2.182zM752.013 145v-4.847c0-.61-.14-1.066-.417-1.367-.278-.3-.714-.45-1.306-.45-.783 0-1.357.21-1.722.635-.364.425-.547 1.124-.547 2.1V145h-1.133v-7.492h.923l.184 1.025h.055c.23-.37.557-.655.976-.858.42-.203.887-.304 1.402-.304.902 0 1.58.22 2.037.654.456.435.683 1.13.683 2.088V145h-1.134zm8.298-2.044c0 .697-.26 1.235-.78 1.613-.518.378-1.247.567-2.186.567-.994 0-1.77-.158-2.325-.472v-1.053c.362.183.748.326 1.16.43.413.106.81.158 1.193.158.592 0 1.048-.094 1.367-.283.32-.19.48-.478.48-.865 0-.292-.128-.54-.38-.75-.254-.206-.747-.45-1.48-.734-.698-.26-1.193-.486-1.487-.68a2.03 2.03 0 0 1-.657-.66 1.72 1.72 0 0 1-.215-.88c0-.612.25-1.094.746-1.447.497-.352 1.178-.53 2.044-.53a5.98 5.98 0 0 1 2.365.493l-.403.923c-.752-.31-1.433-.465-2.044-.465-.538 0-.943.086-1.217.254-.272.17-.41.4-.41.697 0 .202.052.373.155.514.102.14.268.276.495.404.228.127.666.312 1.313.553.89.325 1.49.65 1.8.98.313.327.47.74.47 1.236z" fill="#E61018"/><path d="M297.896 242.887c0-.63.15-1.108.45-1.436.3-.327.73-.49 1.286-.49.55 0 .98.164 1.282.495.303.33.454.807.454 1.432 0 .615-.153 1.09-.458 1.428-.305.338-.73.506-1.278.506-.547 0-.973-.164-1.278-.494-.306-.33-.458-.81-.458-1.44zm29.675-3.623c-.938 0-1.676.332-2.214.998-.537.665-.806 1.583-.806 2.755 0 1.226.258 2.153.776 2.782.517.628 1.265.942 2.245.942a5.9 5.9 0 0 0 1.232-.126c.396-.085.81-.193 1.237-.325v1.402c-.785.297-1.673.445-2.667.445-1.463 0-2.586-.443-3.37-1.33-.784-.886-1.176-2.154-1.176-3.804 0-1.04.19-1.948.57-2.728.38-.78.932-1.376 1.652-1.79.72-.415 1.564-.623 2.535-.623 1.02 0 1.964.214 2.83.643l-.588 1.36c-.337-.16-.694-.3-1.07-.42-.376-.12-.77-.18-1.186-.18zm8.286 1.04c.324 0 .59.022.8.067l-.157 1.498a3.036 3.036 0 0 0-.712-.082c-.642 0-1.163.21-1.562.63-.4.418-.598.963-.598 1.633V248h-1.607v-7.56h1.26l.21 1.332h.083c.25-.45.578-.808.98-1.073a2.332 2.332 0 0 1 1.303-.397zm5.223 7.833c-1.177 0-2.096-.343-2.76-1.03-.662-.685-.994-1.63-.994-2.833 0-1.235.308-2.205.923-2.912.614-.706 1.46-1.06 2.535-1.06.998 0 1.787.304 2.365.91.58.606.87 1.44.87 2.502v.868h-5.04c.023.734.22 1.298.595 1.692.374.394.9.59 1.58.59a5.83 5.83 0 0 0 1.247-.125 6.54 6.54 0 0 0 1.24-.422v1.306c-.39.187-.788.32-1.19.397-.4.078-.858.117-1.373.117zm-.295-6.617c-.51 0-.92.16-1.227.485-.308.323-.49.795-.55 1.415h3.43c-.008-.624-.158-1.097-.45-1.42-.29-.32-.692-.48-1.203-.48zm9.79 6.48l-.322-1.053h-.055c-.364.46-.73.774-1.1.94-.37.167-.843.25-1.422.25-.743 0-1.323-.2-1.74-.602-.417-.4-.625-.968-.625-1.702 0-.78.29-1.367.87-1.764.577-.397 1.46-.614 2.644-.65l1.306-.04v-.404c0-.483-.113-.845-.338-1.084-.226-.24-.576-.36-1.05-.36-.387 0-.76.058-1.114.172a8.408 8.408 0 0 0-1.025.403l-.52-1.148a5.59 5.59 0 0 1 1.347-.49 6.197 6.197 0 0 1 1.38-.167c.962 0 1.688.21 2.178.63.49.418.735 1.076.735 1.974V248h-1.15zm-2.393-1.094c.583 0 1.05-.163 1.404-.49.354-.324.53-.78.53-1.37v-.655l-.97.042c-.757.027-1.307.153-1.65.38-.345.225-.517.57-.517 1.035 0 .337.1.598.3.782.2.184.5.276.902.276zm8.6-.068c.39 0 .783-.062 1.175-.185v1.21a3.243 3.243 0 0 1-.687.195c-.28.053-.57.08-.872.08-1.522 0-2.283-.803-2.283-2.408v-4.074h-1.032v-.71l1.107-.59.547-1.598h.992v1.68h2.152v1.218h-2.153v4.047c0 .387.095.673.29.858.193.186.447.278.76.278zm5.988 1.3c-1.176 0-2.096-.344-2.76-1.03-.662-.686-.993-1.63-.993-2.834 0-1.235.307-2.205.922-2.912.615-.706 1.46-1.06 2.536-1.06.998 0 1.786.304 2.365.91.58.606.87 1.44.87 2.502v.868h-5.04c.024.734.222 1.298.596 1.692.373.394.9.59 1.58.59a5.83 5.83 0 0 0 1.246-.125 6.54 6.54 0 0 0 1.24-.422v1.306c-.39.187-.787.32-1.188.397-.4.078-.86.117-1.374.117zm-.294-6.618c-.51 0-.92.16-1.227.485-.31.323-.493.795-.552 1.415h3.432c-.01-.624-.16-1.097-.45-1.42-.293-.32-.694-.48-1.204-.48zm-64.58 21.367c0-.63.15-1.108.45-1.436.3-.327.73-.49 1.286-.49.55 0 .98.164 1.282.495.303.33.454.807.454 1.432 0 .615-.153 1.09-.458 1.428-.305.338-.73.506-1.278.506-.547 0-.973-.164-1.278-.494-.306-.33-.458-.81-.458-1.44zm27.057-.233h1.135c.76 0 1.312-.14 1.654-.424.342-.282.513-.7.513-1.257 0-.565-.185-.97-.554-1.217-.368-.246-.924-.37-1.667-.37h-1.08v3.268zm0 1.354V268h-1.634v-9.994h2.823c1.29 0 2.244.24 2.864.724.62.484.93 1.213.93 2.188 0 1.244-.648 2.13-1.942 2.66l2.823 4.422h-1.86l-2.392-3.992h-1.613zM337.43 268l-.227-.99h-.082a2.28 2.28 0 0 1-.953.826c-.412.2-.882.3-1.41.3-.917 0-1.6-.227-2.052-.683-.45-.456-.677-1.146-.677-2.07v-4.944h1.62v4.662c0 .578.12 1.012.356 1.302.237.29.608.434 1.114.434.675 0 1.17-.202 1.487-.605.317-.403.475-1.08.475-2.027v-3.767h1.613V268h-1.264zm10.205 0h-1.614v-4.648c0-.584-.116-1.02-.35-1.306-.235-.287-.608-.43-1.118-.43-.68 0-1.176.2-1.49.6-.315.402-.472 1.074-.472 2.017V268h-1.607v-7.56h1.258l.227.99h.082c.227-.36.55-.637.97-.833.42-.196.884-.294 1.394-.294 1.814 0 2.72.923 2.72 2.768V268zm-49.74 14.887c0-.63.15-1.108.452-1.436.3-.327.73-.49 1.285-.49.55 0 .98.164 1.282.495.303.33.454.807.454 1.432 0 .615-.153 1.09-.458 1.428-.305.338-.73.506-1.278.506-.547 0-.973-.164-1.278-.494-.306-.33-.458-.81-.458-1.44zm27.058-.233h1.135c.76 0 1.312-.14 1.654-.424.342-.282.513-.7.513-1.257 0-.565-.185-.97-.554-1.217-.368-.246-.924-.37-1.667-.37h-1.08v3.268zm0 1.354V288h-1.634v-9.994h2.823c1.29 0 2.244.24 2.864.724.62.484.93 1.213.93 2.188 0 1.244-.648 2.13-1.942 2.66l2.823 4.422h-1.86l-2.392-3.992h-1.613zm10.445 4.13c-1.175 0-2.095-.344-2.758-1.03-.663-.686-.994-1.63-.994-2.834 0-1.235.307-2.205.922-2.912.616-.706 1.46-1.06 2.536-1.06 1 0 1.787.304 2.366.91.58.606.868 1.44.868 2.502v.868H333.3c.023.734.22 1.298.595 1.692.373.394.9.59 1.58.59a5.83 5.83 0 0 0 1.246-.125 6.54 6.54 0 0 0 1.242-.422v1.306c-.392.187-.788.32-1.19.397-.4.078-.86.117-1.374.117zm-.294-6.618c-.51 0-.92.16-1.227.485-.307.323-.49.795-.55 1.415h3.432c-.01-.624-.16-1.097-.452-1.42-.292-.32-.693-.48-1.204-.48zm10.138 4.327c0 .738-.27 1.304-.806 1.698-.538.395-1.308.592-2.31.592-1.008 0-1.817-.153-2.428-.458v-1.39c.89.41 1.716.616 2.482.616.99 0 1.483-.298 1.483-.895a.71.71 0 0 0-.164-.478c-.11-.127-.29-.26-.54-.396-.252-.137-.6-.292-1.047-.465-.87-.336-1.46-.674-1.767-1.01-.308-.338-.46-.776-.46-1.313 0-.647.26-1.15.78-1.508.523-.358 1.233-.537 2.13-.537.89 0 1.73.18 2.523.54l-.52 1.21c-.816-.338-1.502-.506-2.058-.506-.848 0-1.27.24-1.27.724 0 .238.11.44.33.603.22.164.703.39 1.446.677.624.24 1.078.462 1.36.663.283.2.492.432.63.694.136.262.204.575.204.94zm4.553.99c.392 0 .784-.06 1.176-.184v1.21a3.243 3.243 0 0 1-.686.195c-.28.053-.57.08-.872.08-1.522 0-2.283-.803-2.283-2.408v-4.074h-1.033v-.71l1.107-.59.547-1.598h.992v1.68h2.154v1.218h-2.154v4.047c0 .387.097.673.29.858.194.186.448.278.763.278zm7.417 1.163l-.32-1.053h-.056c-.365.46-.732.774-1.1.94-.37.167-.844.25-1.423.25-.742 0-1.322-.2-1.74-.602-.416-.4-.625-.968-.625-1.702 0-.78.29-1.367.868-1.764.58-.397 1.46-.614 2.646-.65l1.306-.04v-.404c0-.483-.113-.845-.34-1.084-.224-.24-.574-.36-1.048-.36-.387 0-.76.058-1.114.172a8.408 8.408 0 0 0-1.026.403l-.52-1.148a5.59 5.59 0 0 1 1.347-.49 6.197 6.197 0 0 1 1.38-.167c.963 0 1.69.21 2.178.63.49.418.735 1.076.735 1.974V288h-1.148zm-2.393-1.094c.583 0 1.05-.163 1.404-.49.353-.324.53-.78.53-1.37v-.655l-.97.042c-.757.027-1.308.153-1.652.38-.344.225-.516.57-.516 1.035 0 .337.1.598.3.782.202.184.502.276.903.276zm9.618-6.603c.323 0 .59.023.8.068l-.158 1.498a3.036 3.036 0 0 0-.71-.082c-.643 0-1.164.21-1.563.63-.4.418-.598.963-.598 1.633V288h-1.607v-7.56h1.257l.212 1.332h.082c.25-.45.578-.808.98-1.073a2.332 2.332 0 0 1 1.303-.397zm5.017 6.535c.392 0 .784-.062 1.176-.185v1.21a3.243 3.243 0 0 1-.686.195c-.28.053-.57.08-.872.08-1.522 0-2.283-.803-2.283-2.408v-4.074h-1.033v-.71l1.107-.59.547-1.598h.992v1.68h2.154v1.218h-2.154v4.047c0 .387.097.673.29.858.195.186.45.278.763.278zm-71.56 16.05c0-.63.15-1.11.452-1.437.3-.327.73-.49 1.285-.49.55 0 .98.164 1.282.495.303.33.454.807.454 1.432 0 .615-.153 1.09-.458 1.428-.305.338-.73.506-1.278.506-.547 0-.973-.164-1.278-.494-.306-.33-.458-.81-.458-1.44zm31.187 2.398c0 .89-.32 1.586-.964 2.092-.642.506-1.53.76-2.66.76-1.13 0-2.054-.177-2.774-.528v-1.545c.455.215.94.383 1.452.506.513.124.99.186 1.432.186.647 0 1.125-.123 1.432-.37.308-.245.462-.576.462-.99 0-.374-.14-.69-.424-.95-.282-.26-.866-.568-1.75-.924-.91-.37-1.554-.79-1.928-1.264-.373-.474-.56-1.044-.56-1.71 0-.833.296-1.49.888-1.968.593-.478 1.388-.718 2.386-.718.957 0 1.91.21 2.858.63l-.52 1.332c-.89-.373-1.682-.56-2.38-.56-.527 0-.928.115-1.202.345-.273.23-.41.533-.41.91 0 .26.055.483.164.668.11.185.29.36.54.523.25.165.702.38 1.354.65.733.306 1.27.59 1.613.855.343.264.593.563.753.895.16.333.24.725.24 1.176zm4.58 1.552c.392 0 .784-.062 1.176-.185v1.21a3.243 3.243 0 0 1-.687.195c-.28.053-.57.08-.87.08-1.523 0-2.284-.803-2.284-2.408v-4.074h-1.032v-.71l1.107-.59.548-1.598h.99v1.68h2.155v1.218h-2.154v4.047c0 .387.096.673.29.858.194.186.448.278.762.278zm9.393-2.632c0 1.235-.317 2.2-.95 2.892-.634.692-1.516 1.04-2.646 1.04-.707 0-1.332-.16-1.874-.48a3.16 3.16 0 0 1-1.25-1.374c-.293-.597-.44-1.29-.44-2.078 0-1.226.316-2.183.945-2.87.63-.69 1.516-1.033 2.66-1.033 1.094 0 1.96.352 2.598 1.056.638.703.957 1.652.957 2.846zm-5.503 0c0 1.746.645 2.618 1.934 2.618 1.276 0 1.914-.872 1.914-2.618 0-1.727-.642-2.59-1.927-2.59-.675 0-1.164.223-1.467.67-.303.446-.454 1.086-.454 1.92zm11.183 3.93c-.957 0-1.7-.343-2.228-1.032h-.096c.065.64.097 1.026.097 1.163v3.096H344.9V300.44h1.3c.036.14.11.478.225 1.01h.082c.5-.764 1.253-1.147 2.256-1.147.943 0 1.678.342 2.204 1.025.527.684.79 1.643.79 2.878s-.268 2.2-.803 2.892c-.536.692-1.275 1.04-2.22 1.04zm-.39-6.52c-.637 0-1.103.186-1.397.56-.294.373-.44.97-.44 1.79v.24c0 .92.145 1.587.436 2 .292.412.768.618 1.43.618.555 0 .983-.228 1.284-.683.3-.455.45-1.105.45-1.948 0-.847-.148-1.49-.446-1.924-.3-.435-.738-.653-1.316-.653zm-50.45 21.27c0-.628.15-1.107.452-1.435.3-.327.73-.49 1.285-.49.55 0 .98.164 1.282.495.303.33.454.807.454 1.432 0 .615-.153 1.09-.458 1.428-.305.338-.73.506-1.278.506-.547 0-.973-.164-1.278-.494-.306-.33-.458-.81-.458-1.44zm33.552.02c0 1.65-.458 2.912-1.374 3.785-.916.874-2.235 1.31-3.958 1.31h-2.796v-9.994h3.09c1.59 0 2.827.428 3.71 1.285.885.858 1.327 2.063 1.327 3.617zm-1.722.056c0-2.393-1.12-3.59-3.357-3.59h-1.415v7.254h1.162c2.406 0 3.61-1.22 3.61-3.664zm7 5.175c-1.176 0-2.096-.343-2.76-1.03-.662-.685-.993-1.63-.993-2.833 0-1.235.307-2.205.923-2.912.615-.706 1.46-1.06 2.536-1.06 1 0 1.787.304 2.366.91.58.606.868 1.44.868 2.502v.868h-5.038c.023.734.22 1.298.595 1.692.374.394.9.59 1.58.59a5.83 5.83 0 0 0 1.247-.125 6.54 6.54 0 0 0 1.24-.422v1.306c-.39.187-.787.32-1.188.397-.402.078-.86.117-1.375.117zm-.294-6.617c-.51 0-.92.16-1.226.485-.308.323-.49.795-.55 1.415h3.43c-.008-.624-.16-1.097-.45-1.42-.292-.32-.693-.48-1.203-.48zm6.666 6.48h-1.607v-10.637h1.606V328zm5.598.137c-1.175 0-2.095-.343-2.758-1.03-.663-.685-.995-1.63-.995-2.833 0-1.235.31-2.205.924-2.912.615-.706 1.46-1.06 2.536-1.06.998 0 1.787.304 2.366.91.578.606.868 1.44.868 2.502v.868h-5.038c.022.734.22 1.298.594 1.692.374.394.9.59 1.58.59a5.83 5.83 0 0 0 1.247-.125 6.54 6.54 0 0 0 1.24-.422v1.306c-.39.187-.788.32-1.19.397-.4.078-.858.117-1.373.117zm-.294-6.617c-.51 0-.92.16-1.227.485-.307.323-.49.795-.55 1.415h3.432c-.01-.624-.16-1.097-.45-1.42-.293-.32-.694-.48-1.205-.48zm7.875 5.318c.392 0 .784-.062 1.176-.185v1.21a3.243 3.243 0 0 1-.686.195c-.28.053-.57.08-.87.08-1.524 0-2.285-.803-2.285-2.408v-4.074h-1.033v-.71l1.108-.59.546-1.598h.993v1.68h2.153v1.218h-2.153v4.047c0 .387.096.673.29.858.194.186.448.278.762.278zm5.99 1.3c-1.177 0-2.097-.344-2.76-1.03-.663-.686-.994-1.63-.994-2.834 0-1.235.308-2.205.924-2.912.615-.706 1.46-1.06 2.536-1.06.998 0 1.786.304 2.365.91.58.606.868 1.44.868 2.502v.868h-5.038c.023.734.22 1.298.595 1.692.373.394.9.59 1.58.59a5.83 5.83 0 0 0 1.246-.125 6.54 6.54 0 0 0 1.24-.422v1.306c-.39.187-.787.32-1.188.397-.4.078-.86.117-1.374.117zm-.295-6.618c-.51 0-.92.16-1.227.485-.308.323-.49.795-.55 1.415h3.43c-.008-.624-.158-1.097-.45-1.42-.292-.32-.693-.48-1.203-.48zM452.896 303.887c0-.63.15-1.108.45-1.436.3-.327.73-.49 1.286-.49.55 0 .98.164 1.282.495.303.33.454.807.454 1.432 0 .615-.153 1.09-.458 1.428-.305.338-.73.506-1.278.506-.547 0-.973-.164-1.278-.494-.306-.33-.458-.81-.458-1.44zM478.32 309v-9.994h1.633V309h-1.634zm10.752 0h-1.613v-4.648c0-.584-.118-1.02-.353-1.306-.235-.287-.607-.43-1.118-.43-.68 0-1.177.2-1.49.6-.315.402-.473 1.074-.473 2.017V309h-1.606v-7.56h1.26l.224.99h.082c.228-.36.552-.637.97-.833.42-.196.885-.294 1.396-.294 1.813 0 2.72.923 2.72 2.768V309zm7.315-2.153c0 .738-.27 1.304-.807 1.698-.538.395-1.308.592-2.31.592-1.008 0-1.817-.153-2.427-.458v-1.39c.888.41 1.716.616 2.48.616.99 0 1.485-.298 1.485-.895a.71.71 0 0 0-.164-.478c-.11-.127-.29-.26-.54-.396-.25-.137-.6-.292-1.046-.465-.87-.336-1.46-.674-1.767-1.01-.307-.338-.46-.776-.46-1.313 0-.647.26-1.15.782-1.508.522-.358 1.23-.537 2.13-.537.888 0 1.73.18 2.522.54l-.52 1.21c-.816-.338-1.5-.506-2.057-.506-.848 0-1.272.24-1.272.724 0 .238.11.44.332.603.22.164.703.39 1.445.677.625.24 1.078.462 1.36.663.283.2.493.432.63.694.136.262.205.575.205.94zm5.57 2.29c-.956 0-1.7-.344-2.228-1.033h-.096c.064.64.095 1.026.095 1.163v3.096h-1.607V301.44h1.3c.035.14.11.478.224 1.01h.082c.5-.764 1.253-1.147 2.255-1.147.944 0 1.68.342 2.205 1.025.526.684.79 1.643.79 2.878s-.268 2.2-.804 2.892c-.535.692-1.275 1.04-2.218 1.04zm-.39-6.522c-.637 0-1.103.187-1.397.56-.294.374-.44.97-.44 1.792v.24c0 .92.145 1.586.437 2 .292.41.768.617 1.43.617.555 0 .983-.228 1.284-.683.302-.455.452-1.105.452-1.948 0-.847-.15-1.49-.448-1.924-.298-.435-.737-.653-1.316-.653zm8.58 6.522c-1.175 0-2.095-.343-2.758-1.03-.664-.685-.995-1.63-.995-2.833 0-1.235.307-2.205.922-2.912.616-.706 1.46-1.06 2.537-1.06.998 0 1.786.304 2.365.91.578.606.867 1.44.867 2.502v.868h-5.038c.022.734.22 1.298.594 1.692.373.394.9.59 1.58.59a5.83 5.83 0 0 0 1.246-.125 6.54 6.54 0 0 0 1.24-.422v1.306c-.39.187-.787.32-1.19.397-.4.078-.858.117-1.373.117zm-.293-6.617c-.51 0-.92.16-1.228.485-.307.323-.49.795-.55 1.415h3.432c-.01-.624-.16-1.097-.45-1.42-.293-.32-.694-.48-1.204-.48zm8.107 6.617c-1.143 0-2.012-.334-2.607-1.002-.595-.667-.892-1.626-.892-2.874 0-1.27.312-2.248.934-2.932.622-.683 1.52-1.025 2.697-1.025.798 0 1.516.148 2.154.444l-.485 1.292c-.68-.265-1.24-.397-1.683-.397-1.308 0-1.962.868-1.962 2.604 0 .848.163 1.485.49 1.91.325.427.802.64 1.43.64a4.11 4.11 0 0 0 2.03-.533v1.4c-.286.17-.592.29-.918.363-.326.073-.72.11-1.186.11zm6.7-1.3c.392 0 .784-.06 1.176-.184v1.21a3.243 3.243 0 0 1-.687.195c-.28.053-.572.08-.873.08-1.522 0-2.283-.803-2.283-2.408v-4.074h-1.032v-.71l1.107-.59.546-1.598h.99v1.68h2.155v1.218h-2.153v4.047c0 .387.097.673.29.858.195.186.45.278.763.278zm-71.764 16.05c0-.63.15-1.108.45-1.436.3-.327.73-.49 1.286-.49.55 0 .98.164 1.282.495.303.33.454.807.454 1.432 0 .615-.153 1.09-.458 1.428-.305.338-.73.506-1.278.506-.547 0-.973-.164-1.278-.494-.306-.33-.458-.81-.458-1.44zm31.118-4.88h1.695l-3.5 9.993h-1.724L477 319.006h1.682l2.085 6.214c.11.296.225.678.348 1.145.123.467.203.814.24 1.042.06-.346.15-.747.273-1.203.123-.456.223-.793.3-1.012l2.086-6.186zm4.45 9.993h-1.607v-7.56h1.607V329zm-1.702-9.563c0-.288.078-.51.236-.664.157-.155.38-.232.673-.232.283 0 .503.078.66.233.158.155.236.376.236.664 0 .273-.078.488-.235.646-.157.157-.377.235-.66.235-.29 0-.515-.078-.672-.235-.158-.158-.236-.373-.236-.646zm7.3 9.7c-1.175 0-2.095-.343-2.758-1.03-.663-.685-.994-1.63-.994-2.833 0-1.235.307-2.205.922-2.912.616-.706 1.46-1.06 2.537-1.06.997 0 1.785.304 2.364.91.58.606.868 1.44.868 2.502v.868h-5.038c.023.734.22 1.298.595 1.692.372.394.9.59 1.578.59a5.83 5.83 0 0 0 1.247-.125 6.54 6.54 0 0 0 1.24-.422v1.306c-.39.187-.787.32-1.188.397-.402.078-.86.117-1.375.117zm-.293-6.617c-.512 0-.92.16-1.228.485-.308.323-.492.795-.55 1.415h3.43c-.008-.624-.16-1.097-.45-1.42-.292-.32-.693-.48-1.203-.48zm10.977 6.48l-.977-3.527c-.12-.374-.333-1.242-.643-2.605h-.062c-.264 1.23-.474 2.103-.628 2.618L501.432 329h-1.778l-2.12-7.56h1.642l.964 3.725c.218.92.373 1.71.464 2.365h.042c.045-.332.115-.714.208-1.145.093-.43.174-.753.243-.967l1.148-3.98h1.764l1.113 3.98c.068.223.154.565.256 1.025.102.46.162.818.18 1.074h.055c.07-.56.228-1.345.48-2.352l.976-3.726h1.615l-2.133 7.56h-1.805zM570.75 417h-2.693l-4.348-7.56h-.062c.087 1.335.13 2.287.13 2.857V417h-1.894v-9.994h2.673l4.34 7.485h.05c-.07-1.298-.104-2.216-.104-2.754v-4.73h1.907V417zm11.587-5.01c0 1.654-.41 2.925-1.23 3.814-.82.888-1.996 1.333-3.527 1.333-1.532 0-2.707-.445-3.528-1.333-.82-.89-1.23-2.165-1.23-3.828 0-1.664.41-2.934 1.234-3.81.822-.88 2-1.317 3.537-1.317 1.536 0 2.71.44 3.524 1.325.814.884 1.22 2.155 1.22 3.814zm-7.294 0c0 1.116.212 1.957.636 2.522.423.565 1.056.847 1.9.847 1.69 0 2.536-1.124 2.536-3.37 0-2.252-.84-3.378-2.523-3.378-.843 0-1.48.284-1.907.85-.428.57-.643 1.41-.643 2.527zm18.232 5.01h-2.693l-4.348-7.56h-.062c.087 1.335.13 2.287.13 2.857V417h-1.893v-9.994h2.672l4.34 7.485h.048c-.068-1.298-.102-2.216-.102-2.754v-4.73h1.907V417zm8.27 0h-5.754v-9.994h5.756v1.736h-3.636v2.195h3.383v1.736h-3.383v2.577h3.636V417z" fill="#066DA5"/><path d="M596 147h17l-8.5-15-8.5 15zm9.5-2h-2v-2h2v2zm0-3h-2v-4h2v4z" fill="#E61018" fill-rule="nonzero"/><path d="M606.124 214h-2.693l-4.347-7.56h-.062c.088 1.335.13 2.287.13 2.857V214h-1.892v-9.994h2.673l4.34 7.485h.05c-.07-1.298-.103-2.216-.103-2.754v-4.73h1.907V214zm4.013-3.835c0 .757.124 1.328.372 1.716.248.388.652.582 1.213.582.556 0 .956-.193 1.2-.578.243-.385.365-.958.365-1.72 0-.755-.123-1.323-.37-1.7-.245-.38-.648-.568-1.21-.568-.555 0-.956.187-1.202.563-.246.375-.37.944-.37 1.705zm5.284 0c0 1.244-.327 2.217-.983 2.92-.657.7-1.57 1.052-2.742 1.052-.733 0-1.38-.16-1.94-.482-.562-.322-.992-.783-1.293-1.384-.3-.6-.45-1.303-.45-2.105 0-1.25.325-2.22.976-2.912.652-.693 1.568-1.04 2.748-1.04.734 0 1.38.16 1.942.48.56.318.99.776 1.292 1.373.3.597.45 1.297.45 2.1zM628.868 214h-1.326l-5.46-8.388h-.056c.073.985.11 1.887.11 2.707V214h-1.073v-9.994h1.313l5.448 8.353h.056a75.95 75.95 0 0 1-.062-1.187 20.58 20.58 0 0 1-.034-1.432v-5.734h1.087V214zm9.044-3.753c0 1.22-.306 2.175-.922 2.86-.615.687-1.465 1.03-2.55 1.03-.67 0-1.264-.158-1.784-.472a3.113 3.113 0 0 1-1.203-1.353c-.28-.588-.423-1.277-.423-2.065 0-1.22.306-2.173.916-2.854.61-.68 1.46-1.022 2.543-1.022 1.05 0 1.88.35 2.5 1.047.616.697.925 1.64.925 2.83zm-5.707 0c0 .957.192 1.686.574 2.188.383.5.946.752 1.69.752.742 0 1.306-.25 1.69-.75.386-.498.578-1.228.578-2.19 0-.952-.192-1.676-.577-2.17-.385-.495-.954-.742-1.706-.742-.743 0-1.303.244-1.68.73-.38.49-.57 1.216-.57 2.182zM645 212.995h-.062c-.524.76-1.307 1.142-2.35 1.142-.98 0-1.743-.335-2.288-1.005-.544-.67-.817-1.623-.817-2.858s.274-2.194.82-2.878c.548-.683 1.31-1.025 2.284-1.025 1.016 0 1.795.37 2.338 1.11h.09l-.05-.542-.027-.526v-3.05h1.135V214h-.923l-.15-1.005zm-2.27.192c.775 0 1.337-.21 1.686-.633.348-.42.522-1.102.522-2.04v-.24c0-1.06-.176-1.82-.53-2.273-.352-.452-.916-.68-1.69-.68-.667 0-1.176.26-1.53.777-.352.517-.53 1.248-.53 2.19 0 .958.177 1.68.528 2.168.35.488.865.732 1.544.732zm8.915.95c-1.108 0-1.982-.338-2.622-1.012-.64-.674-.96-1.61-.96-2.81 0-1.207.297-2.167.892-2.877.594-.71 1.393-1.067 2.396-1.067.94 0 1.682.31 2.23.927.546.618.82 1.432.82 2.444v.72h-5.162c.023.88.245 1.546.667 2.002.42.456 1.015.684 1.78.684.807 0 1.605-.17 2.393-.506v1.01c-.4.175-.78.3-1.138.374-.358.075-.79.113-1.295.113zm-.308-6.816c-.602 0-1.08.197-1.44.59-.357.39-.568.933-.63 1.626h3.916c0-.715-.16-1.263-.48-1.644-.318-.38-.774-.57-1.366-.57zm15.142-.402c0 1.012-.347 1.79-1.037 2.334-.69.545-1.678.817-2.964.817h-1.176V214h-1.162v-9.994h2.59c2.498 0 3.747.97 3.747 2.912zm-5.176 2.153h1.046c1.03 0 1.775-.165 2.235-.498.46-.332.69-.866.69-1.6 0-.66-.216-1.152-.65-1.476-.432-.323-1.106-.485-2.022-.485h-1.3v4.06zm10.26 5.067c-1.107 0-1.98-.338-2.62-1.012-.64-.674-.962-1.61-.962-2.81 0-1.207.298-2.167.893-2.877.594-.71 1.393-1.067 2.396-1.067.94 0 1.682.31 2.23.927.546.618.82 1.432.82 2.444v.72h-5.162c.023.88.245 1.546.667 2.002.42.456 1.015.684 1.78.684.807 0 1.605-.17 2.393-.506v1.01c-.4.175-.78.3-1.138.374-.358.075-.79.113-1.296.113zm-.307-6.816c-.602 0-1.08.197-1.44.59-.357.39-.568.933-.63 1.626h3.916c0-.715-.16-1.263-.48-1.644-.318-.38-.774-.57-1.366-.57zm8.415-.95c.333 0 .63.028.895.083l-.157 1.053a3.865 3.865 0 0 0-.82-.103c-.606 0-1.125.246-1.555.74-.43.49-.646 1.104-.646 1.837V214h-1.136v-7.492h.936l.13 1.388h.055c.278-.488.613-.864 1.005-1.128a2.262 2.262 0 0 1 1.292-.397zM691.52 214v-4.874c0-.597-.13-1.045-.384-1.343-.255-.3-.652-.448-1.19-.448-.706 0-1.228.203-1.565.608-.336.406-.505 1.03-.505 1.873V214h-1.135v-4.874c0-.597-.127-1.045-.383-1.343-.255-.3-.654-.448-1.196-.448-.71 0-1.23.213-1.56.64-.33.425-.496 1.124-.496 2.094V214h-1.135v-7.492h.922l.184 1.025h.055a2.23 2.23 0 0 1 .907-.854c.39-.206.826-.31 1.31-.31 1.17 0 1.936.425 2.296 1.273h.054a2.39 2.39 0 0 1 .97-.93 3.012 3.012 0 0 1 1.45-.342c.848 0 1.482.22 1.904.654.423.435.633 1.13.633 2.088V214h-1.134zm4.606 0h-1.135v-7.492h1.136V214zm-1.23-9.522c0-.26.063-.45.19-.57a.67.67 0 0 1 .48-.182.67.67 0 0 1 .47.184c.133.123.2.312.2.568 0 .255-.067.445-.2.57a.662.662 0 0 1-.47.188.655.655 0 0 1-.48-.188c-.127-.125-.19-.315-.19-.57zm8.47 7.478c0 .697-.26 1.235-.78 1.613-.52.378-1.25.567-2.188.567-.993 0-1.768-.158-2.324-.472v-1.053c.36.183.746.326 1.16.43.41.106.81.158 1.192.158.592 0 1.048-.094 1.367-.283.32-.19.478-.478.478-.865 0-.292-.125-.54-.378-.75-.253-.206-.746-.45-1.48-.734-.697-.26-1.193-.486-1.487-.68a2.03 2.03 0 0 1-.656-.66 1.72 1.72 0 0 1-.216-.88c0-.612.248-1.094.745-1.447.496-.352 1.177-.53 2.043-.53a5.98 5.98 0 0 1 2.365.493l-.403.923c-.752-.31-1.434-.465-2.044-.465-.537 0-.943.086-1.216.254-.273.17-.41.4-.41.697 0 .202.05.373.154.514.102.14.267.276.495.404.228.127.666.312 1.313.553.888.325 1.49.65 1.8.98.313.327.47.74.47 1.236zm6.678 0c0 .697-.26 1.235-.78 1.613-.52.378-1.248.567-2.187.567-.993 0-1.768-.158-2.324-.472v-1.053c.36.183.746.326 1.16.43.41.106.81.158 1.19.158.594 0 1.05-.094 1.37-.283.318-.19.477-.478.477-.865 0-.292-.126-.54-.38-.75-.252-.206-.745-.45-1.48-.734-.696-.26-1.192-.486-1.486-.68a2.03 2.03 0 0 1-.656-.66 1.72 1.72 0 0 1-.216-.88c0-.612.25-1.094.746-1.447.496-.352 1.178-.53 2.043-.53a5.98 5.98 0 0 1 2.367.493l-.404.923c-.752-.31-1.433-.465-2.044-.465-.538 0-.944.086-1.217.254-.274.17-.41.4-.41.697 0 .202.05.373.153.514.103.14.268.276.496.404.228.127.665.312 1.312.553.89.325 1.49.65 1.802.98.312.327.468.74.468 1.236zm2.98 2.044h-1.134v-7.492h1.134V214zm-1.23-9.522c0-.26.064-.45.19-.57a.67.67 0 0 1 .48-.182.67.67 0 0 1 .472.184c.132.123.198.312.198.568 0 .255-.066.445-.198.57a.662.662 0 0 1-.472.188.655.655 0 0 1-.48-.188c-.126-.125-.19-.315-.19-.57zm10.103 5.77c0 1.22-.307 2.174-.922 2.86-.616.686-1.466 1.03-2.55 1.03-.67 0-1.265-.16-1.784-.473a3.113 3.113 0 0 1-1.202-1.353c-.283-.588-.424-1.277-.424-2.065 0-1.22.305-2.173.916-2.854.61-.68 1.458-1.022 2.543-1.022 1.048 0 1.88.35 2.498 1.047.62.697.927 1.64.927 2.83zm-5.708 0c0 .956.19 1.685.574 2.187.382.5.945.752 1.688.752s1.307-.25 1.692-.75c.385-.498.578-1.228.578-2.19 0-.952-.193-1.676-.578-2.17-.385-.495-.954-.742-1.706-.742-.742 0-1.303.244-1.68.73-.38.49-.57 1.216-.57 2.182zM729.013 214v-4.847c0-.61-.14-1.066-.417-1.367-.278-.3-.714-.45-1.306-.45-.783 0-1.357.21-1.722.635-.364.425-.547 1.124-.547 2.1V214h-1.133v-7.492h.923l.184 1.025h.055c.23-.37.557-.655.976-.858.42-.203.887-.304 1.402-.304.902 0 1.58.22 2.037.654.456.435.683 1.13.683 2.088V214h-1.134zm8.298-2.044c0 .697-.26 1.235-.78 1.613-.518.378-1.247.567-2.186.567-.994 0-1.77-.158-2.325-.472v-1.053c.362.183.748.326 1.16.43.413.106.81.158 1.193.158.592 0 1.048-.094 1.367-.283.32-.19.48-.478.48-.865 0-.292-.128-.54-.38-.75-.254-.206-.747-.45-1.48-.734-.698-.26-1.193-.486-1.487-.68a2.03 2.03 0 0 1-.657-.66 1.72 1.72 0 0 1-.215-.88c0-.612.25-1.094.746-1.447.497-.352 1.178-.53 2.044-.53a5.98 5.98 0 0 1 2.365.493l-.403.923c-.752-.31-1.433-.465-2.044-.465-.538 0-.943.086-1.217.254-.272.17-.41.4-.41.697 0 .202.052.373.155.514.102.14.268.276.495.404.228.127.666.312 1.313.553.89.325 1.49.65 1.8.98.313.327.47.74.47 1.236z" fill="#E61018"/><path d="M573 216h17l-8.5-15-8.5 15zm9.5-2h-2v-2h2v2zm0-3h-2v-4h2v4z" fill="#E61018" fill-rule="nonzero"/><path d="M585.124 276h-2.693l-4.347-7.56h-.062c.088 1.335.13 2.287.13 2.857V276h-1.892v-9.994h2.673l4.34 7.485h.05c-.07-1.298-.103-2.216-.103-2.754v-4.73h1.907V276zm4.013-3.835c0 .757.124 1.328.372 1.716.248.388.652.582 1.213.582.556 0 .956-.193 1.2-.578.243-.385.365-.958.365-1.72 0-.755-.123-1.323-.37-1.7-.245-.38-.648-.568-1.21-.568-.555 0-.956.187-1.202.563-.246.375-.37.944-.37 1.705zm5.284 0c0 1.244-.327 2.217-.983 2.92-.657.7-1.57 1.052-2.742 1.052-.733 0-1.38-.16-1.94-.482-.562-.322-.992-.783-1.293-1.384-.3-.6-.45-1.303-.45-2.105 0-1.25.325-2.22.976-2.912.652-.693 1.568-1.04 2.748-1.04.734 0 1.38.16 1.942.48.56.318.99.776 1.292 1.373.3.597.45 1.297.45 2.1zM607.868 276h-1.326l-5.46-8.388h-.056c.073.985.11 1.887.11 2.707V276h-1.073v-9.994h1.313l5.448 8.353h.056a75.95 75.95 0 0 1-.062-1.187 20.58 20.58 0 0 1-.034-1.432v-5.734h1.087V276zm9.044-3.753c0 1.22-.306 2.175-.922 2.86-.615.687-1.465 1.03-2.55 1.03-.67 0-1.264-.158-1.784-.472a3.113 3.113 0 0 1-1.203-1.353c-.28-.588-.423-1.277-.423-2.065 0-1.22.306-2.173.916-2.854.61-.68 1.46-1.022 2.543-1.022 1.05 0 1.88.35 2.5 1.047.616.697.925 1.64.925 2.83zm-5.707 0c0 .957.192 1.686.574 2.188.383.5.946.752 1.69.752.742 0 1.306-.25 1.69-.75.386-.498.578-1.228.578-2.19 0-.952-.192-1.676-.577-2.17-.385-.495-.954-.742-1.706-.742-.743 0-1.303.244-1.68.73-.38.49-.57 1.216-.57 2.182zM624 274.995h-.062c-.524.76-1.307 1.142-2.35 1.142-.98 0-1.743-.335-2.288-1.005-.544-.67-.817-1.623-.817-2.858s.274-2.194.82-2.878c.548-.683 1.31-1.025 2.284-1.025 1.016 0 1.795.37 2.338 1.11h.09l-.05-.542-.027-.526v-3.05h1.135V276h-.923l-.15-1.005zm-2.27.192c.775 0 1.337-.21 1.686-.633.348-.42.522-1.102.522-2.04v-.24c0-1.06-.176-1.82-.53-2.273-.352-.452-.916-.68-1.69-.68-.667 0-1.176.26-1.53.777-.352.517-.53 1.248-.53 2.19 0 .958.177 1.68.528 2.168.35.488.865.732 1.544.732zm8.915.95c-1.108 0-1.982-.338-2.622-1.012-.64-.674-.96-1.61-.96-2.81 0-1.207.297-2.167.892-2.877.594-.71 1.393-1.067 2.396-1.067.94 0 1.682.31 2.23.927.546.618.82 1.432.82 2.444v.72h-5.162c.023.88.245 1.546.667 2.002.42.456 1.015.684 1.78.684.807 0 1.605-.17 2.393-.506v1.01c-.4.175-.78.3-1.138.374-.358.075-.79.113-1.295.113zm-.308-6.816c-.602 0-1.08.197-1.44.59-.357.39-.568.933-.63 1.626h3.916c0-.715-.16-1.263-.48-1.644-.318-.38-.774-.57-1.366-.57zm15.142-.402c0 1.012-.347 1.79-1.037 2.334-.69.545-1.678.817-2.964.817h-1.176V276h-1.162v-9.994h2.59c2.498 0 3.747.97 3.747 2.912zm-5.176 2.153h1.046c1.03 0 1.775-.165 2.235-.498.46-.332.69-.866.69-1.6 0-.66-.216-1.152-.65-1.476-.432-.323-1.106-.485-2.022-.485h-1.3v4.06zm10.26 5.067c-1.107 0-1.98-.338-2.62-1.012-.64-.674-.962-1.61-.962-2.81 0-1.207.298-2.167.893-2.877.594-.71 1.393-1.067 2.396-1.067.94 0 1.682.31 2.23.927.546.618.82 1.432.82 2.444v.72h-5.162c.023.88.245 1.546.667 2.002.42.456 1.015.684 1.78.684.807 0 1.605-.17 2.393-.506v1.01c-.4.175-.78.3-1.138.374-.358.075-.79.113-1.296.113zm-.307-6.816c-.602 0-1.08.197-1.44.59-.357.39-.568.933-.63 1.626h3.916c0-.715-.16-1.263-.48-1.644-.318-.38-.774-.57-1.366-.57zm8.415-.95c.333 0 .63.028.895.083l-.157 1.053a3.865 3.865 0 0 0-.82-.103c-.606 0-1.125.246-1.555.74-.43.49-.646 1.104-.646 1.837V276h-1.136v-7.492h.936l.13 1.388h.055c.278-.488.613-.864 1.005-1.128a2.262 2.262 0 0 1 1.292-.397zM670.52 276v-4.874c0-.597-.13-1.045-.384-1.343-.255-.3-.652-.448-1.19-.448-.706 0-1.228.203-1.565.608-.336.406-.505 1.03-.505 1.873V276h-1.135v-4.874c0-.597-.127-1.045-.383-1.343-.255-.3-.654-.448-1.196-.448-.71 0-1.23.213-1.56.64-.33.425-.496 1.124-.496 2.094V276h-1.135v-7.492h.922l.184 1.025h.055a2.23 2.23 0 0 1 .907-.854c.39-.206.826-.31 1.31-.31 1.17 0 1.936.425 2.296 1.273h.054a2.39 2.39 0 0 1 .97-.93 3.012 3.012 0 0 1 1.45-.342c.848 0 1.482.22 1.904.654.423.435.633 1.13.633 2.088V276h-1.134zm4.606 0h-1.135v-7.492h1.136V276zm-1.23-9.522c0-.26.063-.45.19-.57a.67.67 0 0 1 .48-.182.67.67 0 0 1 .47.184c.133.123.2.312.2.568 0 .255-.067.445-.2.57a.662.662 0 0 1-.47.188.655.655 0 0 1-.48-.188c-.127-.125-.19-.315-.19-.57zm8.47 7.478c0 .697-.26 1.235-.78 1.613-.52.378-1.25.567-2.188.567-.993 0-1.768-.158-2.324-.472v-1.053c.36.183.746.326 1.16.43.41.106.81.158 1.192.158.592 0 1.048-.094 1.367-.283.32-.19.478-.478.478-.865 0-.292-.125-.54-.378-.75-.253-.206-.746-.45-1.48-.734-.697-.26-1.193-.486-1.487-.68a2.03 2.03 0 0 1-.656-.66 1.72 1.72 0 0 1-.216-.88c0-.612.248-1.094.745-1.447.496-.352 1.177-.53 2.043-.53a5.98 5.98 0 0 1 2.365.493l-.403.923c-.752-.31-1.434-.465-2.044-.465-.537 0-.943.086-1.216.254-.273.17-.41.4-.41.697 0 .202.05.373.154.514.102.14.267.276.495.404.228.127.666.312 1.313.553.888.325 1.49.65 1.8.98.313.327.47.74.47 1.236zm6.678 0c0 .697-.26 1.235-.78 1.613-.52.378-1.248.567-2.187.567-.993 0-1.768-.158-2.324-.472v-1.053c.36.183.746.326 1.16.43.41.106.81.158 1.19.158.594 0 1.05-.094 1.37-.283.318-.19.477-.478.477-.865 0-.292-.126-.54-.38-.75-.252-.206-.745-.45-1.48-.734-.696-.26-1.192-.486-1.486-.68a2.03 2.03 0 0 1-.656-.66 1.72 1.72 0 0 1-.216-.88c0-.612.25-1.094.746-1.447.496-.352 1.178-.53 2.043-.53a5.98 5.98 0 0 1 2.367.493l-.404.923c-.752-.31-1.433-.465-2.044-.465-.538 0-.944.086-1.217.254-.274.17-.41.4-.41.697 0 .202.05.373.153.514.103.14.268.276.496.404.228.127.665.312 1.312.553.89.325 1.49.65 1.802.98.312.327.468.74.468 1.236zm2.98 2.044h-1.134v-7.492h1.134V276zm-1.23-9.522c0-.26.064-.45.19-.57a.67.67 0 0 1 .48-.182.67.67 0 0 1 .472.184c.132.123.198.312.198.568 0 .255-.066.445-.198.57a.662.662 0 0 1-.472.188.655.655 0 0 1-.48-.188c-.126-.125-.19-.315-.19-.57zm10.103 5.77c0 1.22-.307 2.174-.922 2.86-.616.686-1.466 1.03-2.55 1.03-.67 0-1.265-.16-1.784-.473a3.113 3.113 0 0 1-1.202-1.353c-.283-.588-.424-1.277-.424-2.065 0-1.22.305-2.173.916-2.854.61-.68 1.458-1.022 2.543-1.022 1.048 0 1.88.35 2.498 1.047.62.697.927 1.64.927 2.83zm-5.708 0c0 .956.19 1.685.574 2.187.382.5.945.752 1.688.752s1.307-.25 1.692-.75c.385-.498.578-1.228.578-2.19 0-.952-.193-1.676-.578-2.17-.385-.495-.954-.742-1.706-.742-.742 0-1.303.244-1.68.73-.38.49-.57 1.216-.57 2.182zM708.013 276v-4.847c0-.61-.14-1.066-.417-1.367-.278-.3-.714-.45-1.306-.45-.783 0-1.357.21-1.722.635-.364.425-.547 1.124-.547 2.1V276h-1.133v-7.492h.923l.184 1.025h.055c.23-.37.557-.655.976-.858.42-.203.887-.304 1.402-.304.902 0 1.58.22 2.037.654.456.435.683 1.13.683 2.088V276h-1.134zm8.298-2.044c0 .697-.26 1.235-.78 1.613-.518.378-1.247.567-2.186.567-.994 0-1.77-.158-2.325-.472v-1.053c.362.183.748.326 1.16.43.413.106.81.158 1.193.158.592 0 1.048-.094 1.367-.283.32-.19.48-.478.48-.865 0-.292-.128-.54-.38-.75-.254-.206-.747-.45-1.48-.734-.698-.26-1.193-.486-1.487-.68a2.03 2.03 0 0 1-.657-.66 1.72 1.72 0 0 1-.215-.88c0-.612.25-1.094.746-1.447.497-.352 1.178-.53 2.044-.53a5.98 5.98 0 0 1 2.365.493l-.403.923c-.752-.31-1.433-.465-2.044-.465-.538 0-.943.086-1.217.254-.272.17-.41.4-.41.697 0 .202.052.373.155.514.102.14.268.276.495.404.228.127.666.312 1.313.553.89.325 1.49.65 1.8.98.313.327.47.74.47 1.236z" fill="#E61018"/><path d="M552 278h17l-8.5-15-8.5 15zm9.5-2h-2v-2h2v2zm0-3h-2v-4h2v4z" fill="#E61018" fill-rule="nonzero"/><path d="M47.896 166.887c0-.63.15-1.108.45-1.436.3-.327.73-.49 1.286-.49.55 0 .98.164 1.282.495.303.33.454.807.454 1.432 0 .615-.153 1.09-.458 1.428-.305.338-.73.506-1.278.506-.547 0-.973-.164-1.278-.494-.306-.33-.458-.81-.458-1.44zM78.973 172H73.32v-9.994h5.653v1.38h-4.02v2.72h3.767v1.37h-3.767v3.136h4.02V172zm3.67-3.862l-2.536-3.7h1.832l1.722 2.647 1.736-2.646h1.82l-2.544 3.698L87.347 172h-1.82l-1.865-2.83-1.86 2.83h-1.818l2.66-3.862zm9.05 4c-1.174 0-2.094-.344-2.757-1.03-.663-.686-.995-1.63-.995-2.834 0-1.235.31-2.205.924-2.912.615-.706 1.46-1.06 2.536-1.06.998 0 1.787.304 2.366.91.578.606.868 1.44.868 2.502v.868h-5.038c.022.734.22 1.298.594 1.692.374.394.9.59 1.58.59a5.83 5.83 0 0 0 1.247-.125 6.54 6.54 0 0 0 1.24-.422v1.306c-.39.187-.788.32-1.19.397-.4.078-.858.117-1.373.117zm-.293-6.618c-.51 0-.92.16-1.227.485-.307.323-.49.795-.55 1.415h3.432c-.01-.624-.16-1.097-.45-1.42-.293-.32-.694-.48-1.205-.48zm8.108 6.617c-1.144 0-2.013-.334-2.608-1.002-.595-.667-.892-1.626-.892-2.874 0-1.27.31-2.248.933-2.932.623-.683 1.522-1.025 2.698-1.025.797 0 1.515.148 2.153.444l-.484 1.292c-.68-.265-1.24-.397-1.682-.397-1.308 0-1.962.868-1.962 2.604 0 .848.163 1.485.49 1.91.325.427.802.64 1.43.64a4.11 4.11 0 0 0 2.03-.533v1.4c-.286.17-.592.29-.918.363-.326.073-.72.11-1.186.11zm-51.612 14.75c0-.63.15-1.108.45-1.436.3-.327.73-.49 1.286-.49.55 0 .98.164 1.282.495.303.33.454.807.454 1.432 0 .615-.153 1.09-.458 1.428-.305.338-.73.506-1.278.506-.547 0-.973-.164-1.278-.494-.306-.33-.458-.81-.458-1.44zM81.646 192h-2.003l-4.915-7.964h-.055l.034.444c.064.848.096 1.623.096 2.325V192H73.32v-9.994H75.3l4.9 7.923h.042a46.36 46.36 0 0 1-.055-1.146c-.028-.66-.042-1.173-.042-1.542v-5.236h1.498V192zm7.198 0l-.322-1.053h-.054c-.365.46-.732.774-1.1.94-.37.167-.844.25-1.423.25-.743 0-1.322-.2-1.74-.602-.416-.4-.625-.968-.625-1.702 0-.78.29-1.367.868-1.764.58-.397 1.46-.614 2.646-.65l1.305-.04v-.404c0-.483-.113-.845-.34-1.084-.225-.24-.574-.36-1.048-.36-.388 0-.76.058-1.115.172a8.408 8.408 0 0 0-1.025.403l-.52-1.148a5.59 5.59 0 0 1 1.347-.49 6.197 6.197 0 0 1 1.38-.167c.962 0 1.687.21 2.177.63.49.418.735 1.076.735 1.974V192h-1.148zm-2.393-1.094c.585 0 1.053-.163 1.406-.49.353-.324.53-.78.53-1.37v-.655l-.97.042c-.757.027-1.308.153-1.652.38-.344.225-.516.57-.516 1.035 0 .337.1.598.3.782.2.184.502.276.903.276zM98.606 192h-1.613v-4.662c0-.58-.11-1.01-.328-1.296-.22-.284-.56-.427-1.025-.427-.62 0-1.076.202-1.365.605-.29.404-.434 1.075-.434 2.013V192h-1.606v-7.56h1.258l.226.99h.082c.21-.36.514-.637.912-.833.4-.196.838-.294 1.316-.294 1.162 0 1.933.396 2.31 1.19h.11c.224-.375.538-.666.944-.876.405-.21.87-.314 1.394-.314.902 0 1.56.228 1.972.683.413.456.62 1.15.62 2.085V192h-1.607v-4.662c0-.58-.11-1.01-.33-1.296-.222-.284-.565-.427-1.03-.427-.624 0-1.08.195-1.37.585-.29.39-.435.987-.435 1.794V192zm10.316.137c-1.175 0-2.094-.343-2.757-1.03-.663-.685-.995-1.63-.995-2.833 0-1.235.308-2.205.923-2.912.616-.706 1.46-1.06 2.537-1.06.998 0 1.786.304 2.365.91.58.606.868 1.44.868 2.502v.868h-5.038c.023.734.22 1.298.595 1.692.374.394.9.59 1.58.59a5.83 5.83 0 0 0 1.247-.125 6.54 6.54 0 0 0 1.24-.422v1.306c-.392.187-.788.32-1.19.397-.4.078-.858.117-1.373.117zm-.293-6.617c-.51 0-.92.16-1.227.485-.308.323-.49.795-.55 1.415h3.43c-.008-.624-.158-1.097-.45-1.42-.292-.32-.693-.48-1.203-.48zm10.138 4.327c0 .738-.27 1.304-.807 1.698-.538.395-1.308.592-2.31.592-1.008 0-1.817-.153-2.427-.458v-1.39c.89.41 1.717.616 2.482.616.99 0 1.484-.298 1.484-.895a.71.71 0 0 0-.165-.478c-.108-.127-.288-.26-.54-.396-.25-.137-.598-.292-1.044-.465-.87-.336-1.46-.674-1.768-1.01-.307-.338-.46-.776-.46-1.313 0-.647.26-1.15.782-1.508.522-.358 1.23-.537 2.13-.537.888 0 1.73.18 2.522.54l-.52 1.21c-.816-.338-1.502-.506-2.058-.506-.847 0-1.27.24-1.27.724 0 .238.11.44.33.603.222.164.703.39 1.446.677.625.24 1.078.462 1.36.663.283.2.493.432.63.694.136.262.205.575.205.94zm5.57 2.29c-.956 0-1.7-.344-2.228-1.033h-.095c.064.64.095 1.026.095 1.163v3.096H120.5V184.44h1.3c.036.14.11.478.225 1.01h.082c.502-.764 1.254-1.147 2.256-1.147.944 0 1.68.342 2.205 1.025.526.684.79 1.643.79 2.878s-.268 2.2-.804 2.892c-.535.692-1.275 1.04-2.218 1.04zm-.39-6.522c-.637 0-1.103.187-1.397.56-.294.374-.44.97-.44 1.792v.24c0 .92.145 1.586.437 2 .292.41.768.617 1.43.617.555 0 .983-.228 1.284-.683.3-.455.45-1.105.45-1.948 0-.847-.15-1.49-.448-1.924-.298-.435-.737-.653-1.316-.653zm10.01 6.385l-.322-1.053h-.055c-.364.46-.73.774-1.1.94-.37.167-.844.25-1.422.25-.743 0-1.323-.2-1.74-.602-.417-.4-.626-.968-.626-1.702 0-.78.29-1.367.87-1.764.577-.397 1.46-.614 2.644-.65l1.306-.04v-.404c0-.483-.113-.845-.34-1.084-.224-.24-.574-.36-1.048-.36-.387 0-.76.058-1.114.172a8.408 8.408 0 0 0-1.026.403l-.52-1.148a5.59 5.59 0 0 1 1.348-.49 6.197 6.197 0 0 1 1.38-.167c.962 0 1.688.21 2.178.63.49.418.735 1.076.735 1.974V192h-1.15zm-2.393-1.094c.583 0 1.05-.163 1.404-.49.353-.324.53-.78.53-1.37v-.655l-.97.042c-.757.027-1.307.153-1.65.38-.346.225-.518.57-.518 1.035 0 .337.1.598.3.782.202.184.502.276.904.276zm8.832 1.23c-1.144 0-2.014-.333-2.608-1-.595-.668-.892-1.627-.892-2.875 0-1.27.31-2.248.933-2.932.622-.683 1.52-1.025 2.696-1.025.798 0 1.516.148 2.154.444l-.486 1.292c-.678-.265-1.238-.397-1.68-.397-1.308 0-1.962.868-1.962 2.604 0 .848.163 1.485.49 1.91.324.427.802.64 1.43.64a4.11 4.11 0 0 0 2.03-.533v1.4c-.286.17-.593.29-.918.363-.326.073-.722.11-1.186.11zm7.184 0c-1.176 0-2.095-.342-2.758-1.028-.663-.686-.995-1.63-.995-2.834 0-1.235.308-2.205.923-2.912.615-.706 1.46-1.06 2.536-1.06.998 0 1.787.304 2.365.91.578.606.868 1.44.868 2.502v.868h-5.04c.024.734.223 1.298.596 1.692.374.394.9.59 1.58.59a5.83 5.83 0 0 0 1.247-.125 6.54 6.54 0 0 0 1.242-.422v1.306c-.392.187-.79.32-1.19.397-.4.078-.86.117-1.374.117zm-.294-6.616c-.51 0-.92.16-1.227.485-.307.323-.49.795-.55 1.415h3.43c-.008-.624-.158-1.097-.45-1.42-.29-.32-.692-.48-1.203-.48zm10.138 4.327c0 .738-.27 1.304-.807 1.698-.538.395-1.308.592-2.31.592-1.007 0-1.816-.153-2.427-.458v-1.39c.89.41 1.716.616 2.48.616.99 0 1.485-.298 1.485-.895a.71.71 0 0 0-.164-.478c-.11-.127-.29-.26-.54-.396-.252-.137-.6-.292-1.047-.465-.87-.336-1.46-.674-1.767-1.01-.308-.338-.462-.776-.462-1.313 0-.647.26-1.15.783-1.508.522-.358 1.232-.537 2.13-.537.888 0 1.73.18 2.522.54l-.52 1.21c-.816-.338-1.502-.506-2.058-.506-.848 0-1.272.24-1.272.724 0 .238.11.44.332.603.22.164.703.39 1.446.677.624.24 1.077.462 1.36.663.282.2.492.432.63.694.136.262.204.575.204.94zm-109.526 17.04c0-.63.15-1.108.45-1.436.3-.327.73-.49 1.286-.49.55 0 .98.164 1.282.495.303.33.454.807.454 1.432 0 .615-.153 1.09-.458 1.428-.305.338-.73.506-1.278.506-.547 0-.973-.164-1.278-.494-.306-.33-.458-.81-.458-1.44zm29.675-3.623c-.938 0-1.676.332-2.214.998-.537.665-.806 1.583-.806 2.755 0 1.226.258 2.153.776 2.782.517.628 1.265.942 2.245.942a5.9 5.9 0 0 0 1.232-.126c.396-.085.81-.193 1.237-.325v1.402c-.785.297-1.673.445-2.667.445-1.463 0-2.586-.443-3.37-1.33-.784-.886-1.176-2.154-1.176-3.804 0-1.04.19-1.948.57-2.728.38-.78.932-1.376 1.652-1.79.72-.415 1.564-.623 2.535-.623 1.02 0 1.964.214 2.83.643l-.588 1.36c-.337-.16-.694-.3-1.07-.42-.376-.12-.77-.18-1.186-.18zM87.355 212l-.226-.99h-.082a2.28 2.28 0 0 1-.954.826c-.412.2-.883.3-1.41.3-.917 0-1.6-.227-2.052-.683-.45-.456-.677-1.146-.677-2.07v-4.944h1.62v4.662c0 .578.12 1.012.356 1.302.236.29.607.434 1.113.434.674 0 1.17-.202 1.487-.605.317-.403.475-1.08.475-2.027v-3.767h1.613V212h-1.264zm8.633-2.153c0 .738-.27 1.304-.806 1.698-.537.395-1.307.592-2.31.592-1.007 0-1.816-.153-2.427-.458v-1.39c.89.41 1.716.616 2.482.616.99 0 1.483-.298 1.483-.895a.71.71 0 0 0-.164-.478c-.11-.127-.29-.26-.54-.396-.25-.137-.6-.292-1.046-.465-.87-.336-1.46-.674-1.767-1.01-.307-.338-.46-.776-.46-1.313 0-.647.26-1.15.782-1.508.522-.358 1.232-.537 2.13-.537.888 0 1.73.18 2.522.54l-.52 1.21c-.815-.338-1.5-.506-2.057-.506-.848 0-1.27.24-1.27.724 0 .238.11.44.33.603.22.164.703.39 1.446.677.624.24 1.078.462 1.36.663.283.2.493.432.63.694.136.262.204.575.204.94zm4.553.99c.392 0 .784-.06 1.176-.184v1.21a3.243 3.243 0 0 1-.687.195c-.28.053-.572.08-.873.08-1.522 0-2.283-.803-2.283-2.408v-4.074h-1.032v-.71l1.107-.59.546-1.598h.99v1.68h2.155v1.218h-2.153v4.047c0 .387.097.673.29.858.195.186.45.278.763.278zm9.393-2.63c0 1.234-.317 2.198-.95 2.89-.634.693-1.516 1.04-2.646 1.04-.706 0-1.33-.16-1.873-.48a3.16 3.16 0 0 1-1.25-1.373c-.293-.597-.44-1.29-.44-2.078 0-1.226.316-2.183.945-2.87.628-.69 1.514-1.033 2.658-1.033 1.094 0 1.96.352 2.598 1.056.638.703.957 1.652.957 2.846zm-5.503 0c0 1.745.645 2.617 1.934 2.617 1.276 0 1.914-.872 1.914-2.618 0-1.727-.642-2.59-1.927-2.59-.674 0-1.163.223-1.466.67-.303.446-.454 1.086-.454 1.92zM118.15 212h-1.614v-4.662c0-.58-.11-1.01-.328-1.296-.22-.284-.56-.427-1.025-.427-.62 0-1.075.202-1.364.605-.29.404-.435 1.075-.435 2.013V212h-1.607v-7.56h1.258l.226.99h.082c.21-.36.514-.637.912-.833.4-.196.838-.294 1.316-.294 1.162 0 1.933.396 2.31 1.19h.11c.223-.375.538-.666.944-.876.405-.21.87-.314 1.394-.314.902 0 1.56.228 1.972.683.413.456.62 1.15.62 2.085V212h-1.608v-4.662c0-.58-.11-1.01-.33-1.296-.222-.284-.565-.427-1.03-.427-.624 0-1.08.195-1.37.585-.29.39-.435.987-.435 1.794V212zm18.45 0h-1.894l-3.138-4.525-.964.786V212h-1.633v-9.994h1.634v4.77c.447-.546.89-1.072 1.333-1.578l2.7-3.192h1.86a637.465 637.465 0 0 1-3.753 4.382L136.6 212zm4.45.137c-1.176 0-2.095-.343-2.758-1.03-.664-.685-.995-1.63-.995-2.833 0-1.235.307-2.205.923-2.912.615-.706 1.46-1.06 2.536-1.06.998 0 1.786.304 2.365.91.58.606.87 1.44.87 2.502v.868h-5.04c.024.734.222 1.298.596 1.692.374.394.9.59 1.58.59a5.83 5.83 0 0 0 1.247-.125 6.54 6.54 0 0 0 1.24-.422v1.306c-.392.187-.788.32-1.19.397-.4.078-.858.117-1.373.117zm-.294-6.617c-.51 0-.92.16-1.227.485-.31.323-.492.795-.55 1.415h3.43c-.01-.624-.16-1.097-.45-1.42-.293-.32-.694-.48-1.204-.48zm8.893-1.217c.323 0 .59.023.8.068l-.158 1.498a3.036 3.036 0 0 0-.71-.082c-.644 0-1.164.21-1.563.63-.4.418-.6.963-.6 1.633V212h-1.606v-7.56h1.258l.212 1.332h.082c.25-.45.578-.808.98-1.073a2.332 2.332 0 0 1 1.303-.397zM158.5 212h-1.613v-4.648c0-.584-.12-1.02-.353-1.306-.235-.287-.608-.43-1.118-.43-.68 0-1.177.2-1.49.6-.316.402-.473 1.074-.473 2.017V212h-1.606v-7.56h1.258l.226.99h.082c.228-.36.55-.637.97-.833.42-.196.885-.294 1.395-.294 1.815 0 2.722.923 2.722 2.768V212zm5.537.137c-1.177 0-2.096-.343-2.76-1.03-.662-.685-.994-1.63-.994-2.833 0-1.235.308-2.205.923-2.912.614-.706 1.46-1.06 2.535-1.06.998 0 1.787.304 2.365.91.58.606.87 1.44.87 2.502v.868h-5.04c.023.734.22 1.298.595 1.692.374.394.9.59 1.58.59a5.83 5.83 0 0 0 1.247-.125 6.54 6.54 0 0 0 1.24-.422v1.306c-.39.187-.788.32-1.19.397-.4.078-.858.117-1.373.117zm-.295-6.617c-.51 0-.92.16-1.227.485-.308.323-.49.795-.55 1.415h3.43c-.008-.624-.158-1.097-.45-1.42-.29-.32-.692-.48-1.203-.48zm6.665 6.48h-1.606v-10.637h1.606V212zm10.357-8.736c-.94 0-1.677.332-2.215.998-.538.665-.807 1.583-.807 2.755 0 1.226.26 2.153.776 2.782.518.628 1.267.942 2.247.942a5.9 5.9 0 0 0 1.23-.126c.397-.085.81-.193 1.237-.325v1.402c-.783.297-1.672.445-2.666.445-1.463 0-2.586-.443-3.37-1.33-.784-.886-1.176-2.154-1.176-3.804 0-1.04.19-1.948.57-2.728.382-.78.932-1.376 1.652-1.79.72-.415 1.566-.623 2.536-.623 1.02 0 1.964.214 2.83.643l-.588 1.36c-.337-.16-.693-.3-1.07-.42-.375-.12-.77-.18-1.185-.18zm9.18 8.736l-.32-1.053h-.056c-.363.46-.73.774-1.1.94-.368.167-.842.25-1.42.25-.744 0-1.324-.2-1.74-.602-.418-.4-.626-.968-.626-1.702 0-.78.29-1.367.868-1.764.58-.397 1.46-.614 2.645-.65l1.306-.04v-.404c0-.483-.113-.845-.338-1.084-.226-.24-.576-.36-1.05-.36-.387 0-.76.058-1.114.172a8.408 8.408 0 0 0-1.024.403l-.52-1.148a5.59 5.59 0 0 1 1.347-.49 6.197 6.197 0 0 1 1.38-.167c.962 0 1.688.21 2.178.63.49.418.736 1.076.736 1.974V212h-1.15zm-2.392-1.094c.583 0 1.05-.163 1.404-.49.353-.324.53-.78.53-1.37v-.655l-.97.042c-.758.027-1.308.153-1.652.38-.344.225-.516.57-.516 1.035 0 .337.1.598.3.782.2.184.502.276.903.276zm9.618 1.23c-.957 0-1.7-.343-2.23-1.032h-.094c.062.64.094 1.026.094 1.163v3.096h-1.606V204.44h1.3c.035.14.11.478.224 1.01h.082c.502-.764 1.254-1.147 2.256-1.147.944 0 1.678.342 2.205 1.025.526.684.79 1.643.79 2.878s-.268 2.2-.804 2.892c-.534.692-1.274 1.04-2.217 1.04zm-.39-6.52c-.638 0-1.104.186-1.398.56-.294.373-.44.97-.44 1.79v.24c0 .92.145 1.587.437 2 .292.412.768.618 1.43.618.555 0 .983-.228 1.284-.683.3-.455.45-1.105.45-1.948 0-.847-.148-1.49-.447-1.924-.3-.435-.738-.653-1.317-.653zM206.79 212l-.32-1.053h-.055c-.365.46-.73.774-1.1.94-.37.167-.844.25-1.422.25-.743 0-1.323-.2-1.74-.602-.417-.4-.626-.968-.626-1.702 0-.78.29-1.367.87-1.764.577-.397 1.46-.614 2.644-.65l1.307-.04v-.404c0-.483-.113-.845-.34-1.084-.224-.24-.574-.36-1.048-.36-.388 0-.76.058-1.115.172a8.408 8.408 0 0 0-1.026.403l-.52-1.148a5.59 5.59 0 0 1 1.346-.49 6.197 6.197 0 0 1 1.38-.167c.963 0 1.69.21 2.18.63.49.418.733 1.076.733 1.974V212h-1.15zm-2.392-1.094c.584 0 1.052-.163 1.405-.49.353-.324.53-.78.53-1.37v-.655l-.97.042c-.757.027-1.307.153-1.652.38-.343.225-.515.57-.515 1.035 0 .337.1.598.3.782.202.184.502.276.903.276zm9.646-6.603c.943 0 1.678.342 2.205 1.025.525.684.788 1.643.788 2.878 0 1.24-.267 2.205-.8 2.895-.533.692-1.273 1.037-2.22 1.037-.958 0-1.7-.344-2.23-1.033h-.11l-.293.896h-1.203v-10.637h1.606v2.53c0 .186-.01.464-.027.834-.017.37-.03.603-.04.704h.068c.51-.75 1.262-1.127 2.256-1.127zm-.417 1.312c-.647 0-1.113.19-1.398.57-.286.382-.433 1.018-.442 1.912v.11c0 .92.146 1.586.438 2 .29.41.767.617 1.428.617.57 0 1.002-.225 1.296-.677.294-.45.44-1.102.44-1.955 0-1.718-.587-2.577-1.763-2.577zM220.51 212h-1.606v-7.56h1.607V212zm-1.7-9.563c0-.288.077-.51.234-.664.158-.155.382-.232.674-.232.282 0 .502.078.66.233.157.155.235.376.235.664 0 .273-.078.488-.236.646-.157.157-.377.235-.66.235-.29 0-.515-.078-.673-.235-.157-.158-.235-.373-.235-.646zm5.604 9.563h-1.606v-10.637h1.606V212zm3.903 0h-1.606v-7.56h1.607V212zm-1.702-9.563c0-.288.08-.51.236-.664.158-.155.383-.232.674-.232.283 0 .503.078.66.233.157.155.236.376.236.664 0 .273-.08.488-.236.646-.157.157-.377.235-.66.235-.29 0-.516-.078-.673-.235-.156-.158-.235-.373-.235-.646zm6.816 8.4c.393 0 .785-.06 1.176-.184v1.21a3.243 3.243 0 0 1-.687.195c-.28.053-.57.08-.872.08-1.522 0-2.283-.803-2.283-2.408v-4.074h-1.033v-.71l1.108-.59.547-1.598h.99v1.68h2.154v1.218h-2.152v4.047c0 .387.097.673.29.858.194.186.448.278.763.278zm4.294 1.163h-1.607v-7.56h1.607V212zm-1.703-9.563c0-.288.08-.51.237-.664.158-.155.382-.232.674-.232.283 0 .503.078.66.233.158.155.236.376.236.664 0 .273-.078.488-.236.646-.157.157-.377.235-.66.235-.29 0-.515-.078-.673-.235-.157-.158-.236-.373-.236-.646zm7.302 9.7c-1.176 0-2.095-.343-2.758-1.03-.663-.685-.995-1.63-.995-2.833 0-1.235.307-2.205.922-2.912.615-.706 1.46-1.06 2.536-1.06.998 0 1.787.304 2.366.91.578.606.868 1.44.868 2.502v.868h-5.038c.022.734.22 1.298.594 1.692.374.394.9.59 1.58.59a5.83 5.83 0 0 0 1.247-.125 6.54 6.54 0 0 0 1.24-.422v1.306c-.39.187-.788.32-1.19.397-.4.078-.858.117-1.373.117zm-.294-6.617c-.51 0-.92.16-1.227.485-.306.323-.49.795-.55 1.415h3.433c-.01-.624-.16-1.097-.452-1.42-.29-.32-.69-.48-1.202-.48zm10.138 4.327c0 .738-.27 1.304-.807 1.698-.538.395-1.31.592-2.31.592-1.008 0-1.817-.153-2.428-.458v-1.39c.89.41 1.716.616 2.482.616.988 0 1.483-.298 1.483-.895a.71.71 0 0 0-.164-.478c-.11-.127-.29-.26-.54-.396-.25-.137-.6-.292-1.046-.465-.87-.336-1.46-.674-1.767-1.01-.308-.338-.462-.776-.462-1.313 0-.647.26-1.15.783-1.508.523-.358 1.233-.537 2.13-.537.89 0 1.73.18 2.523.54l-.52 1.21c-.815-.338-1.5-.506-2.057-.506-.848 0-1.272.24-1.272.724 0 .238.11.44.332.603.22.164.703.39 1.446.677.624.24 1.077.462 1.36.663.283.2.492.432.63.694.136.262.204.575.204.94zm-205.27 17.04c0-.63.15-1.108.45-1.436.3-.327.73-.49 1.286-.49.55 0 .98.164 1.282.495.303.33.454.807.454 1.432 0 .615-.153 1.09-.458 1.428-.305.338-.73.506-1.278.506-.547 0-.973-.164-1.278-.494-.306-.33-.458-.81-.458-1.44zM81.2 232h-1.64v-4.505h-4.607V232H73.32v-9.994h1.633v4.088h4.608v-4.088h1.64V232zm9.168-3.794c0 1.235-.317 2.2-.95 2.892-.633.692-1.515 1.04-2.646 1.04-.706 0-1.33-.16-1.873-.48a3.16 3.16 0 0 1-1.252-1.374c-.29-.597-.437-1.29-.437-2.078 0-1.226.315-2.183.944-2.87.63-.69 1.516-1.033 2.66-1.033 1.093 0 1.96.352 2.597 1.056.64.703.958 1.652.958 2.846zm-5.503 0c0 1.746.645 2.618 1.935 2.618 1.276 0 1.914-.872 1.914-2.618 0-1.727-.643-2.59-1.928-2.59-.674 0-1.163.223-1.466.67-.303.446-.455 1.086-.455 1.92zm12.428 1.64c0 .74-.27 1.305-.807 1.7-.537.394-1.308.59-2.31.59-1.007 0-1.816-.152-2.427-.457v-1.39c.888.41 1.715.616 2.48.616.99 0 1.484-.298 1.484-.895a.71.71 0 0 0-.164-.478c-.11-.127-.29-.26-.54-.396-.25-.137-.6-.292-1.046-.465-.87-.336-1.46-.674-1.767-1.01-.308-.338-.462-.776-.462-1.313 0-.647.26-1.15.783-1.508.522-.358 1.232-.537 2.13-.537.888 0 1.73.18 2.522.54l-.52 1.21c-.815-.338-1.5-.506-2.057-.506-.848 0-1.272.24-1.272.724 0 .238.112.44.333.603.22.164.703.39 1.446.677.623.24 1.076.462 1.36.663.282.2.49.432.628.694.137.262.205.575.205.94zm4.553.992c.392 0 .784-.062 1.175-.185v1.21a3.243 3.243 0 0 1-.686.195c-.28.053-.57.08-.87.08-1.523 0-2.284-.803-2.284-2.408v-4.074h-1.033v-.71l1.108-.59.547-1.598h.99v1.68h2.154v1.218h-2.153v4.047c0 .387.097.673.29.858.194.186.448.278.763.278zm6.494-8.832h2.967c1.376 0 2.37.2 2.984.6.613.402.92 1.036.92 1.902 0 .583-.15 1.068-.45 1.456-.302.387-.735.63-1.3.73v.07c.702.132 1.218.393 1.548.782.33.39.496.918.496 1.583 0 .897-.313 1.6-.94 2.108s-1.498.762-2.615.762h-3.61v-9.994zm1.634 4.13h1.572c.683 0 1.183-.11 1.497-.326.314-.216.472-.584.472-1.104 0-.47-.17-.81-.51-1.018-.34-.21-.878-.315-1.616-.315h-1.416v2.762zm0 1.325v3.166h1.736c.684 0 1.2-.13 1.548-.393.35-.262.523-.676.523-1.24 0-.52-.176-.905-.532-1.156-.355-.25-.895-.376-1.62-.376h-1.654zm9.044 4.54h-1.607v-7.56h1.608V232zm-1.703-9.563c0-.288.08-.51.236-.664.158-.155.383-.232.675-.232.282 0 .502.078.66.233.157.155.235.376.235.664 0 .273-.078.488-.236.646-.157.157-.377.235-.66.235-.29 0-.516-.078-.673-.235-.156-.158-.235-.373-.235-.646zm10.65 9.563h-1.612v-4.648c0-.584-.118-1.02-.353-1.306-.234-.287-.607-.43-1.117-.43-.68 0-1.176.2-1.49.6-.315.402-.472 1.074-.472 2.017V232h-1.606v-7.56h1.258l.226.99h.082c.228-.36.55-.637.97-.833.42-.196.885-.294 1.395-.294 1.814 0 2.72.923 2.72 2.768V232zm4.786.137c-.942 0-1.678-.342-2.207-1.026-.53-.682-.793-1.642-.793-2.877 0-1.24.268-2.204.803-2.895.536-.69 1.277-1.035 2.225-1.035.994 0 1.75.367 2.27 1.1h.082a9.63 9.63 0 0 1-.116-1.285v-2.755h1.613V232h-1.258l-.28-.99h-.076c-.515.75-1.27 1.127-2.263 1.127zm.432-1.3c.66 0 1.14-.185 1.442-.556.3-.37.456-.973.465-1.807v-.226c0-.952-.156-1.63-.466-2.03-.31-.4-.795-.602-1.456-.602-.565 0-1 .23-1.306.687-.305.458-.458 1.11-.458 1.96 0 .837.148 1.476.445 1.916.295.44.74.66 1.332.66zm13.87 1.163l-2.9-8.347h-.053c.076 1.24.115 2.402.115 3.487V232h-1.484v-9.994h2.305l2.776 7.95h.042l2.857-7.95h2.31V232h-1.573v-4.942c0-.497.013-1.144.038-1.942.025-.797.047-1.28.065-1.45h-.055l-3 8.334h-1.443zm15.135-3.794c0 1.235-.317 2.2-.95 2.892-.634.692-1.516 1.04-2.646 1.04-.706 0-1.33-.16-1.872-.48a3.16 3.16 0 0 1-1.25-1.374c-.293-.597-.44-1.29-.44-2.078 0-1.226.316-2.183.945-2.87.63-.69 1.515-1.033 2.66-1.033 1.093 0 1.958.352 2.596 1.056.638.703.957 1.652.957 2.846zm-5.503 0c0 1.746.644 2.618 1.934 2.618 1.276 0 1.914-.872 1.914-2.618 0-1.727-.642-2.59-1.928-2.59-.674 0-1.163.223-1.466.67-.303.446-.454 1.086-.454 1.92zm12.68 3.794l-.225-.99h-.083a2.28 2.28 0 0 1-.954.826c-.412.2-.883.3-1.412.3-.915 0-1.598-.227-2.05-.683-.45-.456-.676-1.146-.676-2.07v-4.944h1.62v4.662c0 .578.118 1.012.355 1.302.236.29.608.434 1.114.434.674 0 1.17-.202 1.487-.605.317-.403.476-1.08.476-2.027v-3.767h1.613V232h-1.266zm10.206 0h-1.613v-4.648c0-.584-.117-1.02-.352-1.306-.235-.287-.607-.43-1.118-.43-.68 0-1.175.2-1.49.6-.314.402-.472 1.074-.472 2.017V232h-1.606v-7.56h1.257l.225.99h.082c.228-.36.552-.637.97-.833.42-.196.885-.294 1.396-.294 1.813 0 2.72.923 2.72 2.768V232zm5.052-1.162c.392 0 .784-.062 1.176-.185v1.21a3.243 3.243 0 0 1-.687.195c-.28.053-.57.08-.87.08-1.523 0-2.284-.803-2.284-2.408v-4.074h-1.032v-.71l1.107-.59.548-1.598h.99v1.68h2.155v1.218h-2.154v4.047c0 .387.096.673.29.858.194.186.448.278.762.278zm7.766-.99c0 .737-.27 1.303-.807 1.697-.537.395-1.307.592-2.31.592-1.007 0-1.816-.153-2.426-.458v-1.39c.888.41 1.716.616 2.48.616.99 0 1.485-.298 1.485-.895a.71.71 0 0 0-.165-.478c-.11-.127-.29-.26-.54-.396-.25-.137-.6-.292-1.046-.465-.872-.336-1.46-.674-1.768-1.01-.308-.338-.462-.776-.462-1.313 0-.647.26-1.15.783-1.508.522-.358 1.23-.537 2.13-.537.888 0 1.73.18 2.522.54l-.52 1.21c-.816-.338-1.502-.506-2.058-.506-.847 0-1.27.24-1.27.724 0 .238.11.44.33.603.222.164.704.39 1.446.677.625.24 1.078.462 1.36.663.283.2.493.432.63.694.136.262.205.575.205.94zm-144.492 17.04c0-.63.15-1.11.45-1.437.3-.327.73-.49 1.286-.49.55 0 .98.164 1.282.495.303.33.454.807.454 1.432 0 .615-.153 1.09-.458 1.428-.305.338-.73.506-1.278.506-.547 0-.973-.164-1.278-.494-.306-.33-.458-.81-.458-1.44zm32.04-1.86c0 1.043-.34 1.843-1.025 2.4-.682.555-1.655.833-2.918.833h-1.04V252H73.32v-9.994h2.877c1.25 0 2.184.255 2.806.765.622.512.934 1.264.934 2.257zm-4.983 1.86h.868c.84 0 1.455-.147 1.847-.44.392-.29.588-.746.588-1.366 0-.574-.176-1.003-.526-1.285-.352-.283-.9-.424-1.642-.424h-1.135v3.514zm10.644-2.585c.323 0 .59.023.8.068l-.158 1.498a3.036 3.036 0 0 0-.712-.082c-.642 0-1.163.21-1.562.63-.398.418-.598.963-.598 1.633V252h-1.606v-7.56h1.258l.21 1.332h.083c.25-.45.578-.808.98-1.073a2.332 2.332 0 0 1 1.304-.397zM89.404 252h-1.606v-7.56h1.606V252zm-1.702-9.563c0-.288.08-.51.236-.664.157-.155.382-.232.673-.232.284 0 .504.078.66.233.158.155.237.376.237.664 0 .273-.08.488-.236.646-.156.157-.376.235-.66.235-.29 0-.515-.078-.672-.235-.157-.158-.236-.373-.236-.646zM93.424 252l-2.87-7.56h1.694l1.538 4.395c.264.738.424 1.335.48 1.79h.053c.04-.327.2-.924.478-1.79l1.538-4.396h1.71L95.16 252h-1.736zm7.376 0h-1.607v-7.56h1.607V252zm-1.702-9.563c0-.288.078-.51.235-.664.158-.155.382-.232.674-.232.282 0 .502.078.66.233.157.155.235.376.235.664 0 .273-.078.488-.235.646-.158.157-.378.235-.66.235-.292 0-.516-.078-.674-.235-.157-.158-.235-.373-.235-.646zm5.605 9.563h-1.606v-10.637h1.606V252zm5.6.137c-1.177 0-2.096-.343-2.76-1.03-.663-.685-.994-1.63-.994-2.833 0-1.235.306-2.205.922-2.912.615-.706 1.46-1.06 2.536-1.06.998 0 1.786.304 2.365.91.58.606.868 1.44.868 2.502v.868h-5.037c.023.734.22 1.298.595 1.692.374.394.9.59 1.58.59a5.83 5.83 0 0 0 1.247-.125 6.54 6.54 0 0 0 1.24-.422v1.306c-.392.187-.788.32-1.19.397-.4.078-.858.117-1.373.117zm-.295-6.617c-.51 0-.92.16-1.227.485-.307.323-.49.795-.55 1.415h3.432c-.01-.624-.16-1.097-.45-1.42-.293-.32-.694-.48-1.204-.48zm11.443-1.08v.88l-1.29.24a2.32 2.32 0 0 1 .41 1.326c0 .78-.27 1.393-.807 1.84-.538.446-1.28.67-2.222.67-.24 0-.46-.02-.655-.055-.347.215-.52.466-.52.753 0 .173.08.303.243.39.162.086.46.13.892.13h1.32c.833 0 1.467.177 1.9.533.433.355.65.868.65 1.538 0 .856-.354 1.517-1.06 1.982-.707.465-1.728.697-3.063.697-1.03 0-1.816-.182-2.358-.547-.544-.364-.815-.884-.815-1.558 0-.465.147-.856.44-1.173.295-.316.706-.536 1.235-.66a1.207 1.207 0 0 1-.53-.44 1.113 1.113 0 0 1-.208-.64c0-.282.08-.52.24-.717.158-.196.395-.39.71-.58a2.106 2.106 0 0 1-.954-.825c-.244-.38-.365-.826-.365-1.336 0-.82.258-1.456.775-1.908.518-.452 1.255-.677 2.212-.677.214 0 .44.015.673.044.235.03.412.06.53.092h2.618zm-5.94 8.736c0 .346.157.613.47.8.31.186.75.28 1.315.28.875 0 1.527-.125 1.955-.376.428-.25.643-.583.643-.998 0-.328-.118-.562-.352-.7-.234-.14-.67-.21-1.31-.21h-1.215c-.46 0-.826.11-1.098.325-.27.217-.406.51-.406.88zm.69-6.29c0 .475.123.84.367 1.094.244.256.593.383 1.05.383.93 0 1.394-.496 1.394-1.49 0-.492-.114-.872-.344-1.138-.23-.267-.58-.4-1.05-.4-.465 0-.817.132-1.056.396-.24.266-.36.65-.36 1.157zm9.954 5.25c-1.175 0-2.095-.342-2.758-1.028-.663-.686-.995-1.63-.995-2.834 0-1.235.31-2.205.924-2.912.615-.706 1.46-1.06 2.536-1.06.998 0 1.787.304 2.366.91.578.606.868 1.44.868 2.502v.868h-5.038c.022.734.22 1.298.594 1.692.374.394.9.59 1.58.59a5.83 5.83 0 0 0 1.247-.125 6.54 6.54 0 0 0 1.24-.422v1.306c-.39.187-.788.32-1.19.397-.4.078-.858.117-1.373.117zm-.294-6.616c-.51 0-.92.16-1.227.485-.307.323-.49.795-.55 1.415h3.432c-.01-.624-.16-1.097-.452-1.42-.29-.32-.692-.48-1.203-.48zm7.61 6.617c-.945 0-1.68-.342-2.21-1.026-.528-.682-.792-1.642-.792-2.877 0-1.24.268-2.204.803-2.895.536-.69 1.278-1.035 2.226-1.035.994 0 1.75.367 2.27 1.1h.082a9.63 9.63 0 0 1-.117-1.285v-2.755h1.615V252h-1.258l-.28-.99h-.076c-.514.75-1.268 1.127-2.26 1.127zm.43-1.3c.66 0 1.14-.185 1.442-.556.3-.37.456-.973.465-1.807v-.226c0-.952-.155-1.63-.465-2.03-.31-.4-.795-.602-1.456-.602-.565 0-1 .23-1.306.687-.305.458-.458 1.11-.458 1.96 0 .837.148 1.476.444 1.916.297.44.74.66 1.333.66zM147.77 252l-2.9-8.347h-.054c.078 1.24.117 2.402.117 3.487V252h-1.484v-9.994h2.303l2.775 7.95h.04l2.86-7.95h2.31V252h-1.573v-4.942c0-.497.013-1.144.038-1.942.025-.797.046-1.28.065-1.45h-.055l-3 8.334h-1.443zm15.134-3.794c0 1.235-.316 2.2-.95 2.892-.633.692-1.515 1.04-2.645 1.04-.708 0-1.332-.16-1.874-.48a3.16 3.16 0 0 1-1.25-1.374c-.293-.597-.44-1.29-.44-2.078 0-1.226.316-2.183.944-2.87.63-.69 1.516-1.033 2.66-1.033 1.093 0 1.96.352 2.597 1.056.638.703.957 1.652.957 2.846zm-5.503 0c0 1.746.646 2.618 1.936 2.618 1.276 0 1.914-.872 1.914-2.618 0-1.727-.643-2.59-1.928-2.59-.674 0-1.163.223-1.466.67-.303.446-.455 1.086-.455 1.92zm9.9 3.93c-.944 0-1.68-.34-2.208-1.025-.53-.682-.793-1.642-.793-2.877 0-1.24.267-2.204.802-2.895.536-.69 1.277-1.035 2.225-1.035.994 0 1.75.367 2.27 1.1h.082a9.63 9.63 0 0 1-.118-1.285v-2.755h1.614V252h-1.258l-.28-.99h-.076c-.514.75-1.27 1.127-2.262 1.127zm.43-1.298c.66 0 1.142-.186 1.443-.557.3-.37.456-.973.465-1.807v-.226c0-.952-.155-1.63-.465-2.03-.31-.4-.795-.602-1.456-.602-.565 0-1 .23-1.306.687-.304.458-.457 1.11-.457 1.96 0 .837.148 1.476.444 1.916.297.44.74.66 1.333.66zm9.044 1.3c-1.175 0-2.095-.344-2.758-1.03-.663-.686-.995-1.63-.995-2.834 0-1.235.31-2.205.924-2.912.616-.706 1.46-1.06 2.536-1.06 1 0 1.787.304 2.366.91.578.606.868 1.44.868 2.502v.868h-5.038c.023.734.22 1.298.595 1.692.374.394.9.59 1.58.59a5.83 5.83 0 0 0 1.247-.125 6.54 6.54 0 0 0 1.24-.422v1.306c-.39.187-.788.32-1.19.397-.4.078-.858.117-1.373.117zm-.294-6.618c-.51 0-.92.16-1.227.485-.307.323-.49.795-.55 1.415h3.432c-.01-.624-.16-1.097-.45-1.42-.293-.32-.694-.48-1.205-.48z" fill="#066DA5"/><use fill="#066DA5" xlink:href="#a"/><path stroke="#066DA5" stroke-width="2" d="M39 315h208v189H39z"/><path d="M67.552 342.432c0 1.16-.417 2.074-1.252 2.742-.835.668-1.997 1.002-3.485 1.002-1.37 0-2.584-.258-3.64-.774v-2.53c.868.386 1.602.658 2.203.816.6.16 1.15.238 1.648.238.598 0 1.056-.114 1.375-.343.32-.23.48-.568.48-1.02 0-.25-.07-.476-.21-.672a2.36 2.36 0 0 0-.62-.566c-.273-.18-.828-.47-1.666-.87-.785-.37-1.374-.724-1.766-1.063a3.992 3.992 0 0 1-.94-1.186c-.235-.45-.352-.978-.352-1.582 0-1.137.385-2.03 1.155-2.68.772-.65 1.837-.976 3.196-.976.668 0 1.305.08 1.912.237.606.158 1.24.38 1.903.668l-.878 2.12c-.686-.282-1.253-.478-1.7-.59a5.474 5.474 0 0 0-1.324-.167c-.515 0-.91.12-1.186.36-.276.24-.413.554-.413.94 0 .24.054.45.166.63.11.178.288.35.532.518.243.168.818.468 1.727.902 1.2.574 2.024 1.15 2.47 1.727.445.576.667 1.284.667 2.122zm7.787-7.2c-1.026 0-1.82.387-2.382 1.157-.563.77-.844 1.843-.844 3.22 0 2.866 1.075 4.298 3.225 4.298.902 0 1.994-.225 3.278-.677v2.287c-1.055.44-2.233.66-3.534.66-1.87 0-3.298-.568-4.29-1.702-.99-1.134-1.484-2.76-1.484-4.882 0-1.336.243-2.507.73-3.51.486-1.006 1.185-1.777 2.096-2.313.91-.536 1.98-.804 3.203-.804 1.247 0 2.5.302 3.76.905l-.878 2.216a14.55 14.55 0 0 0-1.45-.598 4.326 4.326 0 0 0-1.433-.255zM91.88 346h-2.715v-5.546h-5.09V346h-2.724v-12.85h2.726v5.037h5.09v-5.037h2.714V346zm10.644 0h-7.4v-12.85h7.4v2.233h-4.676v2.82h4.35v2.234h-4.35v3.313h4.676V346zm13.342-6.548c0 2.115-.602 3.735-1.806 4.86-1.205 1.126-2.943 1.688-5.217 1.688h-3.638v-12.85h4.034c2.096 0 3.725.554 4.885 1.662 1.16 1.107 1.74 2.654 1.74 4.64zm-2.83.07c0-2.76-1.22-4.14-3.657-4.14h-1.45v8.368h1.168c2.625 0 3.938-1.41 3.938-4.228zm15.952-6.372v8.315c0 .95-.213 1.78-.637 2.496-.424.716-1.038 1.264-1.84 1.644-.803.38-1.753.572-2.848.572-1.653 0-2.936-.424-3.85-1.27-.914-.847-1.37-2.006-1.37-3.476v-8.28h2.715v7.867c0 .99.2 1.716.597 2.18.4.462 1.058.694 1.978.694.89 0 1.537-.232 1.938-.698.4-.466.602-1.197.602-2.193v-7.85h2.716zm3.146 12.85v-12.85h2.725v10.6h5.21V346h-7.936zm17.57 0h-7.4v-12.85h7.4v2.233h-4.676v2.82h4.35v2.234h-4.35v3.313h4.676V346zm5.405-7.146h.878c.86 0 1.497-.143 1.907-.43.41-.287.615-.738.615-1.354 0-.61-.21-1.043-.628-1.3-.42-.258-1.068-.387-1.947-.387h-.826v3.47zm0 2.215V346h-2.726v-12.85h3.744c1.747 0 3.04.318 3.876.954.838.636 1.257 1.6 1.257 2.896a3.41 3.41 0 0 1-.623 2.017c-.416.59-1.005 1.05-1.766 1.384a518.954 518.954 0 0 0 3.78 5.6h-3.024l-3.067-4.93h-1.45zM69.896 374.887c0-.63.15-1.108.45-1.436.3-.327.73-.49 1.286-.49.55 0 .98.164 1.282.495.303.33.454.807.454 1.432 0 .615-.153 1.09-.458 1.428-.305.338-.73.506-1.278.506-.547 0-.973-.164-1.278-.494-.306-.33-.458-.81-.458-1.44zm33.75 5.113h-2.003l-4.915-7.964h-.055l.034.444c.064.848.096 1.623.096 2.325V380H95.32v-9.994H97.3l4.9 7.923h.042c-.01-.106-.027-.488-.055-1.146-.028-.66-.042-1.173-.042-1.542v-5.236h1.498V380zm9.173-3.794c0 1.235-.317 2.2-.95 2.892-.634.692-1.516 1.04-2.646 1.04-.707 0-1.33-.16-1.873-.48a3.16 3.16 0 0 1-1.25-1.374c-.292-.597-.438-1.29-.438-2.078 0-1.226.315-2.183.943-2.87.63-.69 1.516-1.033 2.66-1.033 1.093 0 1.96.352 2.597 1.056.638.703.957 1.652.957 2.846zm-5.504 0c0 1.746.645 2.618 1.935 2.618 1.277 0 1.915-.872 1.915-2.618 0-1.727-.643-2.59-1.928-2.59-.674 0-1.163.223-1.466.67-.302.446-.454 1.086-.454 1.92zm9.9 3.93c-.945 0-1.68-.34-2.21-1.025-.528-.682-.792-1.642-.792-2.877 0-1.24.268-2.204.803-2.895.536-.69 1.277-1.035 2.225-1.035.994 0 1.75.367 2.27 1.1h.082a9.63 9.63 0 0 1-.116-1.285v-2.755h1.613V380h-1.257l-.28-.99h-.075c-.515.75-1.27 1.127-2.263 1.127zm.43-1.298c.66 0 1.14-.186 1.442-.557.3-.37.456-.973.465-1.807v-.226c0-.952-.155-1.63-.465-2.03-.31-.4-.795-.602-1.456-.602-.565 0-1 .23-1.306.687-.305.458-.458 1.11-.458 1.96 0 .837.148 1.476.445 1.916.296.44.74.66 1.333.66zm9.043 1.3c-1.176 0-2.096-.344-2.76-1.03-.662-.686-.993-1.63-.993-2.834 0-1.235.307-2.205.922-2.912.615-.706 1.46-1.06 2.536-1.06.998 0 1.786.304 2.365.91.58.606.87 1.44.87 2.502v.868h-5.04c.024.734.222 1.298.596 1.692.373.394.9.59 1.58.59a5.83 5.83 0 0 0 1.246-.125 6.54 6.54 0 0 0 1.24-.422v1.306c-.39.187-.787.32-1.19.397-.4.078-.858.117-1.373.117zm-.294-6.618c-.51 0-.92.16-1.228.485-.307.323-.49.795-.55 1.415h3.432c-.01-.624-.16-1.097-.45-1.42-.293-.32-.694-.48-1.204-.48zm14.628 3.766c0 .89-.32 1.586-.963 2.092-.642.506-1.528.76-2.66.76-1.13 0-2.054-.177-2.774-.528v-1.545c.456.215.94.383 1.453.506.51.124.99.186 1.43.186.648 0 1.125-.123 1.433-.37.307-.245.46-.576.46-.99 0-.374-.14-.69-.423-.95-.282-.26-.865-.568-1.75-.924-.91-.37-1.554-.79-1.927-1.264-.374-.474-.56-1.044-.56-1.71 0-.833.295-1.49.888-1.968s1.39-.718 2.387-.718c.957 0 1.91.21 2.857.63l-.52 1.332c-.888-.373-1.68-.56-2.378-.56-.53 0-.93.115-1.204.345-.273.23-.41.533-.41.91 0 .26.055.483.164.668.11.185.29.36.54.523.25.165.702.38 1.354.65.734.306 1.27.59 1.613.855.342.264.593.563.752.895.16.333.24.725.24 1.176zm4.813 2.85c-1.144 0-2.013-.333-2.608-1-.596-.668-.893-1.627-.893-2.875 0-1.27.31-2.248.933-2.932.622-.683 1.52-1.025 2.697-1.025.797 0 1.515.148 2.153.444l-.485 1.292c-.68-.265-1.24-.397-1.682-.397-1.308 0-1.962.868-1.962 2.604 0 .848.164 1.485.49 1.91.326.427.803.64 1.432.64a4.11 4.11 0 0 0 2.03-.533v1.4c-.287.17-.593.29-.92.363-.325.073-.72.11-1.185.11zM156.37 380h-1.612v-4.648c0-.584-.118-1.02-.352-1.306-.235-.287-.607-.43-1.118-.43-.674 0-1.17.2-1.487.604-.315.404-.474 1.08-.474 2.027V380h-1.606v-10.637h1.606v2.7c0 .433-.027.896-.082 1.388h.103a2.23 2.23 0 0 1 .912-.846c.39-.2.844-.3 1.363-.3 1.832 0 2.748.922 2.748 2.767V380zm5.538.137c-1.176 0-2.095-.343-2.758-1.03-.663-.685-.995-1.63-.995-2.833 0-1.235.308-2.205.923-2.912.615-.706 1.46-1.06 2.536-1.06.998 0 1.787.304 2.365.91.578.606.868 1.44.868 2.502v.868h-5.038c.022.734.22 1.298.594 1.692.374.394.9.59 1.58.59a5.83 5.83 0 0 0 1.247-.125 6.54 6.54 0 0 0 1.242-.422v1.306c-.392.187-.79.32-1.19.397-.4.078-.86.117-1.374.117zm-.294-6.617c-.51 0-.92.16-1.227.485-.307.323-.49.795-.55 1.415h3.432c-.01-.624-.16-1.097-.453-1.42-.29-.32-.692-.48-1.203-.48zm7.61 6.617c-.945 0-1.68-.342-2.21-1.026-.528-.682-.792-1.642-.792-2.877 0-1.24.267-2.204.803-2.895.535-.69 1.277-1.035 2.225-1.035.993 0 1.75.367 2.27 1.1h.082a9.63 9.63 0 0 1-.117-1.285v-2.755h1.614V380h-1.26l-.28-.99h-.075c-.515.75-1.27 1.127-2.262 1.127zm.43-1.3c.66 0 1.14-.185 1.442-.556.3-.37.455-.973.465-1.807v-.226c0-.952-.154-1.63-.464-2.03-.31-.4-.796-.602-1.456-.602-.565 0-1 .23-1.306.687-.305.458-.458 1.11-.458 1.96 0 .837.148 1.476.444 1.916.297.44.74.66 1.333.66zM180.727 380l-.226-.99h-.082a2.28 2.28 0 0 1-.954.826c-.412.2-.883.3-1.41.3-.917 0-1.6-.227-2.052-.683-.45-.456-.677-1.146-.677-2.07v-4.944h1.62v4.662c0 .578.12 1.012.356 1.302.237.29.608.434 1.114.434.674 0 1.17-.202 1.487-.605.317-.403.475-1.08.475-2.027v-3.767h1.612V380h-1.264zm5.16 0h-1.606v-10.637h1.607V380zm5.6.137c-1.176 0-2.096-.343-2.76-1.03-.662-.685-.994-1.63-.994-2.833 0-1.235.308-2.205.923-2.912.615-.706 1.46-1.06 2.536-1.06.998 0 1.787.304 2.366.91.577.606.867 1.44.867 2.502v.868h-5.038c.02.734.22 1.298.593 1.692.374.394.9.59 1.58.59a5.83 5.83 0 0 0 1.247-.125 6.54 6.54 0 0 0 1.24-.422v1.306c-.39.187-.788.32-1.19.397-.4.078-.858.117-1.373.117zm-.295-6.617c-.51 0-.92.16-1.227.485-.307.323-.49.795-.55 1.415h3.432c-.01-.624-.16-1.097-.452-1.42-.29-.32-.692-.48-1.203-.48zM69.896 394.887c0-.63.15-1.108.45-1.436.3-.327.73-.49 1.286-.49.55 0 .98.164 1.282.495.303.33.454.807.454 1.432 0 .615-.153 1.09-.458 1.428-.305.338-.73.506-1.278.506-.547 0-.973-.164-1.278-.494-.306-.33-.458-.81-.458-1.44zm33.75 5.113h-2.003l-4.915-7.964h-.055l.034.444c.064.848.096 1.623.096 2.325V400H95.32v-9.994H97.3l4.9 7.923h.042c-.01-.106-.027-.488-.055-1.146-.028-.66-.042-1.173-.042-1.542v-5.236h1.498V400zm9.173-3.794c0 1.235-.317 2.2-.95 2.892-.634.692-1.516 1.04-2.646 1.04-.707 0-1.33-.16-1.873-.48a3.16 3.16 0 0 1-1.25-1.374c-.292-.597-.438-1.29-.438-2.078 0-1.226.315-2.183.943-2.87.63-.69 1.516-1.033 2.66-1.033 1.093 0 1.96.352 2.597 1.056.638.703.957 1.652.957 2.846zm-5.504 0c0 1.746.645 2.618 1.935 2.618 1.277 0 1.915-.872 1.915-2.618 0-1.727-.643-2.59-1.928-2.59-.674 0-1.163.223-1.466.67-.302.446-.454 1.086-.454 1.92zm9.9 3.93c-.945 0-1.68-.34-2.21-1.025-.528-.682-.792-1.642-.792-2.877 0-1.24.268-2.204.803-2.895.536-.69 1.277-1.035 2.225-1.035.994 0 1.75.367 2.27 1.1h.082a9.63 9.63 0 0 1-.116-1.285v-2.755h1.613V400h-1.257l-.28-.99h-.075c-.515.75-1.27 1.127-2.263 1.127zm.43-1.298c.66 0 1.14-.186 1.442-.557.3-.37.456-.973.465-1.807v-.226c0-.952-.155-1.63-.465-2.03-.31-.4-.795-.602-1.456-.602-.565 0-1 .23-1.306.687-.305.458-.458 1.11-.458 1.96 0 .837.148 1.476.445 1.916.296.44.74.66 1.333.66zm9.043 1.3c-1.176 0-2.096-.344-2.76-1.03-.662-.686-.993-1.63-.993-2.834 0-1.235.307-2.205.922-2.912.615-.706 1.46-1.06 2.536-1.06.998 0 1.786.304 2.365.91.58.606.87 1.44.87 2.502v.868h-5.04c.024.734.222 1.298.596 1.692.373.394.9.59 1.58.59a5.83 5.83 0 0 0 1.246-.125 6.54 6.54 0 0 0 1.24-.422v1.306c-.39.187-.787.32-1.19.397-.4.078-.858.117-1.373.117zm-.294-6.618c-.51 0-.92.16-1.228.485-.307.323-.49.795-.55 1.415h3.432c-.01-.624-.16-1.097-.45-1.42-.293-.32-.694-.48-1.204-.48zm14.56-3.514h1.695l-3.5 9.994h-1.72l-3.488-9.994h1.682l2.085 6.214c.108.296.225.678.348 1.145.123.467.202.814.24 1.042.058-.346.15-.747.272-1.203.123-.456.224-.793.3-1.012l2.086-6.186zm4.45 9.994H143.8v-7.56h1.606V400zm-1.702-9.563c0-.288.08-.51.236-.664.157-.155.382-.232.673-.232.283 0 .503.078.66.233.157.155.236.376.236.664 0 .273-.08.488-.237.646-.157.157-.377.235-.66.235-.29 0-.516-.078-.673-.235-.157-.158-.236-.373-.236-.646zm7.3 9.7c-1.175 0-2.094-.343-2.757-1.03-.664-.685-.995-1.63-.995-2.833 0-1.235.308-2.205.923-2.912.615-.706 1.46-1.06 2.536-1.06 1 0 1.787.304 2.366.91.58.606.868 1.44.868 2.502v.868h-5.038c.023.734.22 1.298.595 1.692.375.394.9.59 1.58.59a5.83 5.83 0 0 0 1.248-.125 6.54 6.54 0 0 0 1.24-.422v1.306c-.392.187-.788.32-1.19.397-.4.078-.858.117-1.373.117zm-.293-6.617c-.51 0-.918.16-1.226.485-.308.323-.49.795-.55 1.415h3.43c-.008-.624-.158-1.097-.45-1.42-.292-.32-.693-.48-1.203-.48zm10.98 6.48l-.978-3.527c-.12-.374-.333-1.242-.643-2.605h-.062c-.265 1.23-.474 2.103-.63 2.618L158.375 400h-1.777l-2.12-7.56h1.64l.965 3.725c.22.92.374 1.71.465 2.365h.04c.046-.332.116-.714.21-1.145.093-.43.174-.753.242-.967l1.148-3.98h1.763l1.115 3.98c.07.223.154.565.257 1.025.102.46.163.818.18 1.074h.056c.068-.56.227-1.345.478-2.352l.978-3.726h1.613l-2.133 7.56h-1.805z" fill="#FFF"/><path d="M94.124 487H91.43l-4.347-7.56h-.062c.088 1.335.13 2.287.13 2.857V487H85.26v-9.994h2.673l4.34 7.485h.05c-.07-1.298-.103-2.216-.103-2.754v-4.73h1.907V487zm4.013-3.835c0 .757.124 1.328.372 1.716.248.388.652.582 1.213.582.556 0 .956-.193 1.2-.578.243-.385.365-.958.365-1.72 0-.755-.123-1.323-.37-1.7-.245-.38-.648-.568-1.21-.568-.555 0-.956.187-1.202.563-.246.375-.37.944-.37 1.705zm5.284 0c0 1.244-.327 2.217-.983 2.92-.657.7-1.57 1.052-2.742 1.052-.733 0-1.38-.16-1.94-.482-.562-.322-.992-.783-1.293-1.384-.3-.6-.45-1.303-.45-2.105 0-1.25.325-2.22.976-2.912.652-.693 1.568-1.04 2.748-1.04.734 0 1.38.16 1.942.48.56.318.99.776 1.292 1.373.3.597.45 1.297.45 2.1zm4.143 3.972c-.897 0-1.603-.35-2.115-1.046-.513-.696-.77-1.663-.77-2.898 0-1.253.262-2.23.783-2.93.523-.698 1.242-1.048 2.158-1.048.962 0 1.695.374 2.2 1.12h.07a8.524 8.524 0 0 1-.158-1.523v-2.447h2.092V487h-1.6l-.403-.99h-.09c-.473.75-1.196 1.127-2.167 1.127zm.732-1.66c.533 0 .924-.156 1.172-.466.25-.31.384-.836.407-1.578v-.226c0-.82-.126-1.408-.38-1.764-.252-.355-.664-.533-1.233-.533-.464 0-.825.196-1.083.59-.257.395-.386.968-.386 1.72s.13 1.316.39 1.692c.26.376.632.564 1.115.564zm8.873-4.78c-.442 0-.788.14-1.04.42-.25.28-.393.68-.43 1.194h2.926c-.01-.514-.144-.912-.403-1.192-.26-.28-.61-.42-1.052-.42zm.294 6.44c-1.23 0-2.192-.34-2.885-1.02-.693-.678-1.04-1.64-1.04-2.884 0-1.28.32-2.27.962-2.97.64-.7 1.524-1.05 2.654-1.05 1.08 0 1.92.308 2.523.924.6.615.902 1.465.902 2.55v1.01h-4.93c.023.594.2 1.056.527 1.39.328.332.788.498 1.38.498.46 0 .896-.048 1.306-.144.41-.094.84-.247 1.285-.457v1.614a4.896 4.896 0 0 1-1.17.406c-.413.09-.92.134-1.516.134zm12.646 0c-.897 0-1.6-.326-2.112-.978h-.11c.074.637.11 1.006.11 1.107v3.096h-2.085v-11.006h1.696l.294.992h.096c.488-.758 1.21-1.136 2.167-1.136.902 0 1.61.348 2.12 1.046.51.697.765 1.665.765 2.905 0 .816-.12 1.524-.36 2.126-.238.603-.58 1.06-1.02 1.375-.443.314-.963.472-1.56.472zm-.615-6.255c-.515 0-.89.158-1.128.475-.237.317-.36.84-.37 1.57v.224c0 .822.123 1.41.367 1.765.244.356.63.533 1.16.533.933 0 1.4-.77 1.4-2.31 0-.752-.115-1.316-.345-1.692-.23-.376-.592-.564-1.084-.564zm8.443-.185c-.443 0-.79.14-1.04.42-.25.28-.394.68-.43 1.194h2.926c-.01-.514-.144-.912-.404-1.192-.26-.28-.61-.42-1.052-.42zm.293 6.44c-1.23 0-2.193-.34-2.885-1.02-.693-.678-1.04-1.64-1.04-2.884 0-1.28.32-2.27.96-2.97.64-.7 1.527-1.05 2.657-1.05 1.08 0 1.92.308 2.522.924.602.615.903 1.465.903 2.55v1.01h-4.93c.024.594.2 1.056.527 1.39.328.332.79.498 1.38.498.46 0 .897-.048 1.307-.144.41-.094.84-.247 1.286-.457v1.614a4.896 4.896 0 0 1-1.17.406c-.414.09-.92.134-1.517.134zm9.078-7.923c.282 0 .517.02.704.06l-.158 1.956a2.388 2.388 0 0 0-.615-.068c-.666 0-1.184.17-1.556.513-.37.342-.557.82-.557 1.435V487h-2.085v-7.643h1.58l.307 1.286h.1c.238-.43.558-.774.962-1.036a2.368 2.368 0 0 1 1.316-.393zm8.934 7.786h-2.085v-4.464c0-.55-.092-.965-.277-1.24-.184-.276-.475-.414-.87-.414-.534 0-.922.196-1.163.588-.242.392-.363 1.037-.363 1.934V487H149.4v-7.643h1.592l.28.978h.117c.204-.35.5-.626.887-.824.388-.197.832-.296 1.333-.296 1.144 0 1.92.374 2.325 1.12h.184c.204-.355.506-.63.905-.826.4-.196.85-.294 1.35-.294.866 0 1.52.222 1.965.666.445.445.667 1.157.667 2.137V487h-2.092v-4.464c0-.55-.092-.965-.277-1.24-.184-.276-.475-.414-.87-.414-.512 0-.893.182-1.146.547-.253.363-.38.942-.38 1.735V487zm6.816-9.618c0-.68.378-1.02 1.134-1.02.757 0 1.135.34 1.135 1.02 0 .323-.094.575-.284.755-.19.18-.472.27-.85.27-.757 0-1.135-.342-1.135-1.025zM165.23 487h-2.084v-7.643h2.085V487zm7.52-2.27c0 .784-.27 1.38-.816 1.79-.545.412-1.36.617-2.444.617-.556 0-1.03-.038-1.422-.113a5.378 5.378 0 0 1-1.1-.332v-1.722c.387.182.824.335 1.31.458a5.3 5.3 0 0 0 1.28.184c.757 0 1.135-.218 1.135-.656a.548.548 0 0 0-.15-.4c-.1-.102-.273-.22-.52-.348a13.12 13.12 0 0 0-.984-.455c-.59-.246-1.02-.474-1.296-.684a1.924 1.924 0 0 1-.602-.722c-.125-.27-.188-.605-.188-1 0-.68.263-1.206.79-1.577.526-.37 1.272-.556 2.238-.556.92 0 1.816.2 2.687.6l-.63 1.505c-.383-.165-.74-.3-1.073-.404a3.37 3.37 0 0 0-1.02-.157c-.614 0-.922.165-.922.498 0 .187.1.348.298.485.198.137.632.34 1.302.61.597.24 1.035.466 1.313.675.277.21.483.45.615.725.132.273.198.6.198.977zm6.96 0c0 .784-.272 1.38-.817 1.79-.545.412-1.36.617-2.444.617-.557 0-1.03-.038-1.423-.113a5.378 5.378 0 0 1-1.1-.332v-1.722c.387.182.823.335 1.31.458a5.3 5.3 0 0 0 1.28.184c.757 0 1.135-.218 1.135-.656a.548.548 0 0 0-.15-.4c-.1-.102-.273-.22-.52-.348a13.12 13.12 0 0 0-.984-.455c-.588-.246-1.02-.474-1.295-.684a1.924 1.924 0 0 1-.602-.722c-.124-.27-.187-.605-.187-1 0-.68.263-1.206.79-1.577.526-.37 1.272-.556 2.238-.556.922 0 1.817.2 2.688.6l-.63 1.505c-.382-.165-.74-.3-1.072-.404a3.37 3.37 0 0 0-1.02-.157c-.614 0-.922.165-.922.498 0 .187.1.348.298.485.198.137.632.34 1.302.61.597.24 1.034.466 1.312.675.278.21.484.45.616.725.132.273.198.6.198.977zm1.538-7.348c0-.68.378-1.02 1.135-1.02.756 0 1.135.34 1.135 1.02 0 .323-.095.575-.284.755-.19.18-.473.27-.85.27-.758 0-1.136-.342-1.136-1.025zm2.174 9.618h-2.085v-7.643h2.085V487zm3.85-3.835c0 .757.123 1.328.37 1.716.25.388.654.582 1.214.582.556 0 .956-.193 1.2-.578.244-.385.366-.958.366-1.72 0-.755-.123-1.323-.37-1.7-.245-.38-.65-.568-1.21-.568-.555 0-.956.187-1.202.563-.246.375-.37.944-.37 1.705zm5.283 0c0 1.244-.328 2.217-.985 2.92-.656.7-1.57 1.052-2.74 1.052-.735 0-1.382-.16-1.942-.482-.56-.322-.992-.783-1.292-1.384-.3-.6-.45-1.303-.45-2.105 0-1.25.324-2.22.976-2.912.652-.693 1.568-1.04 2.748-1.04.734 0 1.38.16 1.942.48.56.318.99.776 1.292 1.373.3.597.45 1.297.45 2.1zm8.777 3.835h-2.085v-4.464c0-.55-.098-.965-.294-1.24-.196-.276-.508-.414-.936-.414-.584 0-1.005.195-1.265.584-.26.39-.39 1.036-.39 1.938V487h-2.085v-7.643h1.593l.28.978h.117c.232-.37.552-.648.96-.837a3.27 3.27 0 0 1 1.39-.284c.89 0 1.564.24 2.025.72.46.482.69 1.176.69 2.083V487zm7.48-2.27c0 .784-.274 1.38-.818 1.79-.545.412-1.36.617-2.444.617-.556 0-1.03-.038-1.422-.113a5.378 5.378 0 0 1-1.1-.332v-1.722c.387.182.823.335 1.308.458a5.3 5.3 0 0 0 1.282.184c.757 0 1.135-.218 1.135-.656a.548.548 0 0 0-.15-.4c-.1-.102-.274-.22-.52-.348a13.12 13.12 0 0 0-.984-.455c-.59-.246-1.02-.474-1.297-.684a1.924 1.924 0 0 1-.6-.722c-.127-.27-.19-.605-.19-1 0-.68.264-1.206.79-1.577.527-.37 1.273-.556 2.24-.556.92 0 1.815.2 2.686.6l-.63 1.505c-.383-.165-.74-.3-1.074-.404a3.37 3.37 0 0 0-1.018-.157c-.615 0-.923.165-.923.498 0 .187.1.348.297.485.2.137.633.34 1.303.61.597.24 1.034.466 1.312.675.278.21.483.45.615.725.132.273.2.6.2.977zM69 491a9 9 0 1 1 0-18 9 9 0 0 1 0 18zm-2.39-6.11l-3.11-3.11-1.06 1.06 4.17 4.16 8.95-8.95L74.5 477l-7.89 7.89z" fill="#08CE76"/></g></svg>