<svg width="600" height="440" viewBox="0 0 600 440" xmlns="http://www.w3.org/2000/svg"><title>create teams</title><g fill="none" fill-rule="evenodd"><path fill="#576167" d="M0 0h600v676H0z"/><path d="M129.79 159.397C127.468 133.94 106.063 114 80 114c-27.614 0-50 22.386-50 50s22.386 50 50 50c24.478 0 44.848-17.59 49.16-40.818C131.63 179.514 137.79 184 145 184c9.39 0 17-7.61 17-17s-7.61-17-17-17c-6.656 0-12.418 3.825-15.21 9.397z" fill="#FFF" opacity=".1"/><path d="M72 158c2.2 0 4-1.8 4-4s-1.8-4-4-4-4 1.8-4 4 1.8 4 4 4zm0 2c-3.4 0-6 2.6-6 6v12h12v-12c0-3.4-2.6-6-6-6zm16-2c2.2 0 4-1.8 4-4s-1.8-4-4-4-4 1.8-4 4 1.8 4 4 4zm0 2c-3.4 0-6 2.6-6 6v12h12v-12c0-3.4-2.6-6-6-6z" fill="#FFF" fill-rule="nonzero"/><path d="M166.48 178.406c0-1.324.235-2.55.704-3.674.468-1.125 1.218-2.224 2.25-3.298h.92c-.96 1.054-1.687 2.168-2.177 3.34a9.297 9.297 0 0 0-.736 3.62c0 1.325.224 2.493.67 3.504h-.768c-.574-1.04-.862-2.203-.862-3.492zm7.706-1.13h-2.907L169.843 180h-1.108l4.682-8.566h1.02l1.078 8.566h-.996l-.334-2.725zm-.106-.915l-.205-1.75c-.094-.7-.15-1.383-.17-2.05-.144.342-.302.684-.472 1.024-.17.34-.657 1.266-1.462 2.777h2.31zm5.748-2.887c.758 0 1.307.37 1.647 1.113h.058c.067-.606.154-1.14.264-1.606l.457-2.097h.973L181.293 180h-.814l.127-1.225h-.046c-.394.49-.763.834-1.107 1.037a2.07 2.07 0 0 1-1.066.305c-.543 0-.967-.19-1.272-.574-.304-.383-.457-.914-.457-1.594 0-.837.14-1.602.422-2.298.28-.695.66-1.232 1.14-1.61a2.526 2.526 0 0 1 1.608-.57zm-1.113 5.83c.367 0 .746-.183 1.137-.548.39-.365.7-.832.928-1.4a4.62 4.62 0 0 0 .343-1.738c0-.433-.105-.763-.316-.99-.21-.227-.518-.34-.92-.34-.395 0-.76.16-1.1.484-.337.323-.608.776-.813 1.36a5.52 5.52 0 0 0-.308 1.843c0 .886.35 1.33 1.05 1.33zm8.373.697l.867-4.055c.07-.367.106-.63.106-.79 0-.274-.06-.487-.18-.64-.122-.152-.33-.228-.622-.228-.328 0-.648.117-.958.352-.31.233-.584.568-.82 1.004-.237.435-.42.96-.548 1.573L184.34 180h-.985l1.372-6.422h.814l-.128 1.19h.06c.34-.465.677-.8 1.015-1.002a2.004 2.004 0 0 1 1.046-.305c.442 0 .78.128 1.02.382.238.254.38.607.422 1.06h.046c.337-.488.695-.85 1.074-1.087.38-.236.76-.354 1.148-.354.496 0 .88.134 1.152.4.27.265.407.652.407 1.16 0 .265-.042.613-.128 1.042l-.844 3.938h-.996l.867-4.055c.077-.406.116-.69.116-.855 0-.242-.067-.437-.202-.583-.135-.147-.346-.22-.635-.22-.318 0-.63.113-.94.34-.308.227-.578.548-.81.964-.233.417-.41.91-.53 1.48l-.628 2.93h-.984zm7.717 0h-.985l1.37-6.422h.986l-1.37 6.422zm.662-8.063a.77.77 0 0 1 .187-.536.624.624 0 0 1 .487-.207c.344 0 .516.176.516.528a.795.795 0 0 1-.196.546.59.59 0 0 1-.454.222.54.54 0 0 1-.387-.143c-.102-.096-.153-.232-.153-.407zm5.326 8.063l.867-4.055c.078-.406.117-.687.117-.843 0-.247-.07-.444-.208-.592-.14-.15-.36-.223-.666-.223-.347 0-.686.117-1.016.352-.33.233-.62.567-.873 1-.252.434-.443.96-.572 1.577l-.59 2.783h-.986l1.37-6.422h.816l-.13 1.19h.06c.374-.477.737-.814 1.086-1.01.35-.198.71-.297 1.086-.297.496 0 .888.137 1.175.408.288.272.432.652.432 1.14 0 .308-.045.66-.135 1.054L201.79 180h-.997zm5.584-5.063c0 1.333-.237 2.562-.712 3.69-.475 1.126-1.222 2.217-2.24 3.27h-.915c1.937-2.15 2.906-4.47 2.906-6.96 0-1.332-.22-2.5-.662-3.503h.767c.572 1.05.857 2.218.857 3.504z" fill="#FFF" opacity=".6"/><path d="M171.77 158.764h3.397v4.86c-.53.17-1.066.296-1.613.383-.547.086-1.18.13-1.9.13-1.514 0-2.692-.45-3.535-1.35-.844-.9-1.266-2.162-1.266-3.784 0-1.04.21-1.95.626-2.73a4.23 4.23 0 0 1 1.8-1.792c.785-.41 1.703-.618 2.756-.618a7.53 7.53 0 0 1 2.98.588l-.45 1.026c-.903-.383-1.77-.575-2.605-.575-1.216 0-2.166.364-2.85 1.088-.683.725-1.025 1.73-1.025 3.015 0 1.35.33 2.372.988 3.07.658.697 1.626 1.045 2.902 1.045.692 0 1.37-.08 2.03-.24v-3.075h-2.235v-1.04zm9.043-2.393c.333 0 .632.028.896.083l-.158 1.053a3.865 3.865 0 0 0-.82-.103c-.607 0-1.125.246-1.556.74-.43.49-.646 1.104-.646 1.837V164h-1.134v-7.492h.936l.13 1.388h.055c.278-.488.613-.864 1.004-1.128a2.262 2.262 0 0 1 1.293-.397zm6.625 7.63l-.226-1.066h-.055c-.373.47-.746.787-1.117.953-.372.167-.836.25-1.392.25-.742 0-1.325-.192-1.746-.575-.422-.382-.632-.927-.632-1.633 0-1.514 1.21-2.307 3.63-2.38l1.27-.04v-.466c0-.588-.126-1.022-.378-1.302-.253-.28-.658-.42-1.214-.42-.624 0-1.33.19-2.12.574l-.348-.87c.37-.2.774-.356 1.214-.47.44-.114.88-.17 1.322-.17.894 0 1.556.197 1.986.593.43.396.646 1.032.646 1.907V164h-.84zm-2.564-.8c.706 0 1.26-.193 1.665-.58.402-.388.604-.93.604-1.628v-.677l-1.135.048c-.904.032-1.554.172-1.953.42-.4.25-.598.635-.598 1.16 0 .41.123.722.372.936.248.213.595.32 1.042.32zm10.87.8v-4.847c0-.61-.14-1.066-.418-1.367-.278-.3-.713-.45-1.305-.45-.783 0-1.358.21-1.722.635-.365.425-.547 1.124-.547 2.1V164h-1.134v-7.492h.923l.184 1.025h.054c.233-.37.56-.655.978-.858.42-.203.886-.304 1.4-.304.904 0 1.583.22 2.038.654.456.435.684 1.13.684 2.088V164h-1.135zm5.885-.8c.2 0 .393-.015.58-.044.187-.03.335-.06.444-.093v.87c-.123.058-.304.107-.543.146a4.08 4.08 0 0 1-.645.057c-1.45 0-2.174-.764-2.174-2.29v-4.457h-1.072v-.547l1.073-.472.48-1.6h.656v1.738h2.174v.882h-2.174v4.41c0 .45.107.796.32 1.038.215.24.51.362.883.362z" fill="#FFF"/><path d="M144.965 167H152v3h-1v-2h-1v2h-1v-2h-4.035a3.5 3.5 0 1 1 0-1zm-3.465 3a2.5 2.5 0 1 0 0-5 2.5 2.5 0 0 0 0 5z" fill="#FFF" fill-rule="nonzero"/><path d="M48.532 228.635c0 1.41-.4 2.49-1.204 3.24-.803.75-1.962 1.125-3.477 1.125h-2.425v-8.566h2.69c1.398 0 2.484.37 3.257 1.107.774.74 1.16 1.77 1.16 3.095zm-1.886.047c0-1.84-.813-2.76-2.438-2.76h-.967v5.578h.78c1.75 0 2.626-.94 2.626-2.818zM55.312 233l-.622-2.04h-3.123l-.62 2.04h-1.958l3.023-8.602h2.22L57.27 233H55.31zm-1.055-3.563a603.1 603.1 0 0 1-.97-3.134 8.85 8.85 0 0 1-.155-.574c-.13.5-.498 1.735-1.108 3.708h2.233zM60.813 233h-1.816v-7.055H56.67v-1.51h6.47v1.51h-2.327V233zm8.05 0l-.62-2.04H65.12L64.5 233H62.54l3.023-8.602h2.22L70.822 233h-1.956zm-1.053-3.563a603.088 603.088 0 0 1-.97-3.134 8.85 8.85 0 0 1-.155-.574c-.13.5-.498 1.735-1.108 3.708h2.233zm10.845-3.615c-.683 0-1.213.257-1.588.77-.375.514-.562 1.23-.562 2.148 0 1.91.717 2.865 2.15 2.865.602 0 1.33-.15 2.186-.45v1.523c-.702.293-1.487.44-2.355.44-1.246 0-2.2-.38-2.86-1.135-.66-.755-.99-1.84-.99-3.254 0-.892.163-1.672.487-2.342.324-.67.79-1.184 1.398-1.54.607-.36 1.32-.537 2.135-.537.832 0 1.668.202 2.508.604l-.586 1.477a9.7 9.7 0 0 0-.967-.398 2.884 2.884 0 0 0-.955-.17zM87.597 233h-4.934v-8.566h4.934v1.488H84.48v1.88h2.9v1.49h-2.9v2.208h3.117v1.5zm9.386 0h-2.308l-3.727-6.48h-.052c.074 1.144.11 1.96.11 2.45V233h-1.622v-8.566h2.29l3.722 6.416h.04c-.058-1.114-.087-1.9-.087-2.362v-4.054h1.633V233zm5.46 0h-1.815v-7.055h-2.326v-1.51h6.47v1.51h-2.328V233zm8.58 0h-4.934v-8.566h4.932v1.488h-3.117v1.88h2.9v1.49h-2.9v2.208h3.117v1.5zm3.603-4.764h.586c.574 0 .998-.095 1.27-.287.275-.192.412-.493.412-.903 0-.406-.14-.695-.42-.867-.28-.172-.71-.258-1.297-.258h-.55v2.314zm0 1.477V233h-1.816v-8.566h2.496c1.164 0 2.025.212 2.584.635.558.423.838 1.067.838 1.93 0 .504-.14.952-.416 1.345-.278.392-.67.7-1.178.923 1.29 1.925 2.13 3.17 2.52 3.732h-2.016l-2.045-3.287h-.967zM67.75 250h-1.815v-7.055h-2.327v-1.51h6.47v1.51H67.75V250zm8.58 0h-4.934v-8.566h4.933v1.488H73.21v1.88h2.9v1.49h-2.9v2.208h3.117v1.5zm7.03 0l-.62-2.04h-3.124l-.62 2.04h-1.958l3.024-8.602h2.22L85.317 250H83.36zm-1.054-3.563a603.094 603.094 0 0 1-.97-3.134 8.85 8.85 0 0 1-.155-.574c-.128.5-.497 1.735-1.107 3.708h2.233zM90.022 250l-2.062-6.72h-.053c.074 1.366.112 2.28.112 2.736V250h-1.624v-8.566h2.472l2.028 6.55h.035l2.15-6.55h2.474V250H93.86v-4.055c0-.19.003-.412.01-.662.005-.25.03-.914.078-1.992h-.052l-2.21 6.71h-1.664z" fill="#FFF"/><path d="M317 142v-8c0-4.4-3.6-8-8-8s-8 3.6-8 8v8h-6v2h28v-2h-6zm-2 0h-12v-8c0-3.4 2.6-6 6-6s6 2.6 6 6v8zm-20 6h28v-2h-28v2z" fill="#FFF" fill-rule="nonzero" opacity=".3"/><path d="M264.174 160.438V164h-.996v-8.566h2.35c1.05 0 1.826.2 2.328.603.502.402.753 1.008.753 1.817 0 1.132-.575 1.898-1.723 2.296l2.326 3.85h-1.178l-2.074-3.563h-1.786zm0-.856h1.365c.702 0 1.218-.14 1.546-.42.328-.278.492-.697.492-1.256 0-.566-.167-.974-.5-1.224-.335-.25-.87-.375-1.61-.375h-1.294v3.275zm8.988 4.535c-.95 0-1.698-.29-2.247-.867-.55-.578-.823-1.38-.823-2.408 0-1.035.255-1.858.764-2.467.51-.61 1.195-.914 2.054-.914.805 0 1.442.266 1.91.795.47.53.703 1.227.703 2.095v.615H271.1c.02.754.21 1.326.57 1.717.362.39.87.586 1.527.586.692 0 1.375-.145 2.05-.434v.867c-.343.15-.668.256-.975.32a5.483 5.483 0 0 1-1.11.097zm-.264-5.842c-.515 0-.926.168-1.233.504-.307.335-.487.8-.542 1.394h3.357c0-.613-.136-1.083-.41-1.41-.273-.326-.664-.49-1.172-.49zm8.426 3.973c0 .598-.222 1.06-.668 1.383-.445.325-1.07.487-1.875.487-.85 0-1.514-.135-1.99-.404v-.902c.308.157.64.28.992.37.354.09.695.134 1.023.134.508 0 .898-.08 1.172-.243.273-.16.41-.408.41-.74 0-.25-.11-.464-.325-.642-.217-.177-.64-.387-1.27-.63-.597-.222-1.02-.416-1.273-.582a1.74 1.74 0 0 1-.564-.566 1.475 1.475 0 0 1-.185-.756c0-.523.214-.936.64-1.24.426-.302 1.01-.453 1.752-.453.692 0 1.367.142 2.027.423l-.346.79c-.645-.265-1.23-.398-1.752-.398-.46 0-.81.073-1.043.217-.236.145-.353.344-.353.598 0 .172.044.318.132.44.087.12.23.236.424.345.195.11.57.268 1.125.475.76.277 1.275.556 1.543.838.267.28.4.634.4 1.06zm3.656 1.066c.172 0 .338-.012.5-.038.16-.025.286-.05.38-.08v.745c-.106.052-.26.094-.466.127-.206.034-.39.05-.554.05-1.242 0-1.863-.654-1.863-1.963v-3.82h-.92v-.47l.92-.403.41-1.37h.562v1.488h1.863v.756h-1.864v3.78c0 .386.09.683.275.89.183.207.435.31.755.31zm5.092-5.853c.285 0 .54.024.768.07l-.135.904c-.266-.06-.5-.088-.703-.088-.52 0-.964.21-1.333.633-.37.42-.555.946-.555 1.575V164h-.972v-6.422h.802l.112 1.19h.047c.238-.418.525-.74.86-.967a1.94 1.94 0 0 1 1.108-.34zm2.942 6.54h-.973v-6.422h.974V164zm-1.055-8.162c0-.223.054-.386.163-.49a.573.573 0 0 1 .41-.155c.156 0 .29.053.404.16.114.104.17.266.17.485 0 .22-.056.382-.17.49a.567.567 0 0 1-.404.16.562.562 0 0 1-.41-.16c-.11-.108-.164-.27-.164-.49zm5.683 8.28c-.93 0-1.65-.287-2.16-.86-.51-.57-.764-1.38-.764-2.428 0-1.074.258-1.904.775-2.49.518-.586 1.255-.88 2.212-.88.31 0 .617.034.926.1.308.067.55.145.726.235l-.3.826a4.573 4.573 0 0 0-.703-.213 3.14 3.14 0 0 0-.673-.085c-1.305 0-1.957.832-1.957 2.496 0 .79.16 1.395.477 1.817.318.422.79.633 1.415.633.534 0 1.083-.116 1.646-.346v.86c-.43.224-.97.335-1.623.335zm5.22-.804c.172 0 .338-.012.498-.038.16-.025.288-.05.382-.08v.745c-.105.052-.26.094-.466.127-.205.034-.39.05-.553.05-1.243 0-1.864-.654-1.864-1.963v-3.82h-.92v-.47l.92-.403.41-1.37h.562v1.488h1.863v.756h-1.863v3.78c0 .386.092.683.275.89.184.207.436.31.756.31zm4.875.803c-.95 0-1.698-.29-2.247-.867-.548-.578-.822-1.38-.822-2.408 0-1.035.255-1.858.765-2.467.51-.61 1.194-.914 2.053-.914.805 0 1.442.266 1.91.795.47.53.704 1.227.704 2.095v.615h-4.424c.02.754.21 1.326.57 1.717.362.39.87.586 1.527.586.692 0 1.375-.145 2.05-.434v.867c-.343.15-.668.256-.974.32a5.483 5.483 0 0 1-1.112.097zm-.263-5.842c-.516 0-.927.168-1.234.504-.305.335-.486.8-.54 1.394h3.357c0-.613-.137-1.083-.41-1.41-.274-.326-.665-.49-1.172-.49zm8.654 4.864h-.054c-.45.65-1.12.977-2.015.977-.84 0-1.493-.287-1.96-.86-.466-.575-.7-1.392-.7-2.45 0-1.06.235-1.88.704-2.467.468-.586 1.12-.88 1.957-.88.872 0 1.54.317 2.004.95h.077l-.04-.463-.024-.45v-2.614h.973V164h-.792l-.13-.86zm-1.946.163c.664 0 1.145-.18 1.444-.542.3-.36.448-.944.448-1.748v-.205c0-.91-.15-1.56-.454-1.95-.303-.387-.786-.582-1.45-.582-.57 0-1.007.222-1.31.665-.302.444-.454 1.07-.454 1.878 0 .82.15 1.44.45 1.858.302.418.744.627 1.326.627zm11.86-7.102c-.942 0-1.686.315-2.23.942-.545.627-.818 1.485-.818 2.575 0 1.12.263 1.987.788 2.598.526.612 1.275.917 2.247.917.6 0 1.28-.107 2.046-.322v.873c-.594.223-1.326.334-2.197.334-1.263 0-2.236-.383-2.922-1.148-.686-.767-1.028-1.855-1.028-3.265 0-.883.165-1.656.495-2.32a3.555 3.555 0 0 1 1.43-1.535c.623-.36 1.356-.54 2.2-.54.898 0 1.683.165 2.355.493l-.422.855a4.54 4.54 0 0 0-1.945-.457zm9.298 4.583c0 1.047-.264 1.864-.79 2.452-.53.588-1.257.882-2.187.882-.574 0-1.084-.135-1.53-.404a2.668 2.668 0 0 1-1.03-1.16c-.243-.504-.364-1.094-.364-1.77 0-1.047.263-1.862.787-2.446.523-.584 1.25-.876 2.18-.876.898 0 1.612.3 2.14.897.53.598.795 1.407.795 2.426zm-4.893 0c0 .82.163 1.446.49 1.875.33.43.812.645 1.45.645.635 0 1.12-.214 1.45-.642.33-.427.494-1.053.494-1.877 0-.816-.165-1.436-.495-1.86-.33-.424-.82-.636-1.463-.636-.637 0-1.117.21-1.44.627-.326.418-.488 1.04-.488 1.87zM341.44 164v-4.154c0-.524-.118-.914-.356-1.172-.238-.258-.61-.387-1.12-.387-.67 0-1.163.182-1.476.545-.312.363-.468.963-.468 1.8V164h-.973v-6.422h.79l.16.88h.046c.2-.317.478-.562.838-.736.36-.174.76-.26 1.202-.26.773 0 1.355.185 1.746.56.39.372.586.968.586 1.79V164h-.973zm5.046-.686c.172 0 .338-.012.498-.038.16-.025.287-.05.38-.08v.745c-.104.052-.26.094-.465.127-.206.034-.39.05-.554.05-1.242 0-1.864-.654-1.864-1.963v-3.82h-.92v-.47l.92-.403.41-1.37h.563v1.488h1.863v.756h-1.863v3.78c0 .386.092.683.275.89.184.207.436.31.756.31zm5.092-5.853c.285 0 .54.024.768.07l-.135.904c-.265-.06-.5-.088-.702-.088-.52 0-.964.21-1.333.633-.37.42-.554.946-.554 1.575V164h-.972v-6.422h.803l.113 1.19h.046c.238-.418.525-.74.86-.967a1.94 1.94 0 0 1 1.108-.34zm7.272 3.323c0 1.047-.264 1.864-.79 2.452-.53.588-1.257.882-2.187.882-.574 0-1.084-.135-1.53-.404a2.668 2.668 0 0 1-1.03-1.16c-.243-.504-.364-1.094-.364-1.77 0-1.047.26-1.862.784-2.446.524-.584 1.25-.876 2.18-.876.9 0 1.612.3 2.142.897.53.598.794 1.407.794 2.426zm-4.893 0c0 .82.164 1.446.492 1.875.327.43.81.645 1.446.645.637 0 1.12-.214 1.45-.642.33-.427.496-1.053.496-1.877 0-.816-.165-1.436-.495-1.86-.33-.424-.818-.636-1.462-.636-.637 0-1.117.21-1.442.627-.324.418-.486 1.04-.486 1.87zm7.57 3.217h-.972v-9.117h.972V164z" fill="#FFF"/><path d="M243 161v3l12-4-12-3v3h-35v1h35zM403 161v3l12-4-12-3v3h-35v1h35z" fill="#FFF" opacity=".37"/><path d="M466.48 177.406c0-1.324.235-2.55.704-3.674.468-1.125 1.218-2.224 2.25-3.298h.92c-.96 1.054-1.687 2.168-2.177 3.34a9.297 9.297 0 0 0-.736 3.62c0 1.325.224 2.493.67 3.504h-.768c-.574-1.04-.862-2.203-.862-3.492zm7.706-1.13h-2.907L469.843 179h-1.108l4.682-8.566h1.02l1.078 8.566h-.996l-.334-2.725zm-.106-.915l-.205-1.75c-.094-.7-.15-1.383-.17-2.05-.144.342-.302.684-.472 1.024-.17.34-.657 1.266-1.462 2.777h2.31zm5.748-2.887c.758 0 1.307.37 1.647 1.113h.058c.067-.606.154-1.14.264-1.606l.457-2.097h.973L481.293 179h-.814l.127-1.225h-.046c-.394.49-.763.834-1.107 1.037a2.07 2.07 0 0 1-1.066.305c-.543 0-.967-.19-1.272-.574-.304-.383-.457-.914-.457-1.594 0-.837.14-1.602.422-2.298.28-.695.66-1.232 1.14-1.61a2.526 2.526 0 0 1 1.608-.57zm-1.113 5.83c.367 0 .746-.183 1.137-.548.39-.365.7-.832.928-1.4a4.62 4.62 0 0 0 .343-1.738c0-.433-.105-.763-.316-.99-.21-.227-.518-.34-.92-.34-.395 0-.76.16-1.1.484-.337.323-.608.776-.813 1.36a5.52 5.52 0 0 0-.308 1.843c0 .886.35 1.33 1.05 1.33zm8.373.697l.867-4.055c.07-.367.106-.63.106-.79 0-.274-.06-.487-.18-.64-.122-.152-.33-.228-.622-.228-.328 0-.648.117-.958.352-.31.233-.584.568-.82 1.004-.237.435-.42.96-.548 1.573L484.34 179h-.985l1.372-6.422h.814l-.128 1.19h.06c.34-.465.677-.8 1.015-1.002a2.004 2.004 0 0 1 1.046-.305c.442 0 .78.128 1.02.382.238.254.38.607.422 1.06h.046c.337-.488.695-.85 1.074-1.087.38-.236.76-.354 1.148-.354.496 0 .88.134 1.152.4.27.265.407.652.407 1.16 0 .265-.042.613-.128 1.042l-.844 3.938h-.996l.867-4.055c.077-.406.116-.69.116-.855 0-.242-.067-.437-.202-.583-.135-.147-.346-.22-.635-.22-.318 0-.63.113-.94.34-.308.227-.578.548-.81.964-.233.417-.41.91-.53 1.48l-.628 2.93h-.984zm7.717 0h-.985l1.37-6.422h.986l-1.37 6.422zm.662-8.063a.77.77 0 0 1 .187-.536.624.624 0 0 1 .487-.207c.344 0 .516.176.516.528a.795.795 0 0 1-.196.546.59.59 0 0 1-.454.222.54.54 0 0 1-.387-.143c-.102-.096-.153-.232-.153-.407zm5.326 8.063l.867-4.055c.078-.406.117-.687.117-.843 0-.247-.07-.444-.208-.592-.14-.15-.36-.223-.666-.223-.347 0-.686.117-1.016.352-.33.233-.62.567-.873 1-.252.434-.443.96-.572 1.577l-.59 2.783h-.986l1.37-6.422h.816l-.13 1.19h.06c.374-.477.737-.814 1.086-1.01.35-.198.71-.297 1.086-.297.496 0 .888.137 1.175.408.288.272.432.652.432 1.14 0 .308-.045.66-.135 1.054L501.79 179h-.997zm5.584-5.063c0 1.333-.237 2.562-.712 3.69-.475 1.126-1.222 2.217-2.24 3.27h-.915c1.937-2.15 2.906-4.47 2.906-6.96 0-1.332-.22-2.5-.662-3.503h.767c.572 1.05.857 2.218.857 3.504z" fill="#FFF" opacity=".6"/><circle fill="#FFF" opacity=".1" cx="486" cy="290" r="65"/><path d="M456.48 321.406c0-1.324.235-2.55.704-3.674.468-1.125 1.218-2.224 2.25-3.298h.92c-.96 1.054-1.687 2.168-2.177 3.34a9.297 9.297 0 0 0-.736 3.62c0 1.325.224 2.493.67 3.504h-.768c-.574-1.04-.862-2.203-.862-3.492zm5.198-1.97l-.756 3.564h-.996l1.81-8.566h1.875c1.744 0 2.615.714 2.615 2.144 0 1.36-.72 2.236-2.157 2.63l1.4 3.792h-1.09l-1.224-3.563h-1.476zm.86-4.13c-.397 1.93-.624 3.022-.68 3.276h.986c.754 0 1.334-.166 1.74-.498.406-.332.61-.81.61-1.43 0-.472-.132-.815-.396-1.028-.264-.213-.693-.32-1.286-.32h-.973zm6.593 7.81c-.718 0-1.282-.212-1.692-.637-.41-.427-.616-1.017-.616-1.77 0-.735.146-1.44.437-2.113.29-.674.676-1.2 1.156-1.574a2.522 2.522 0 0 1 1.588-.562c.598 0 1.047.13 1.348.39.3.26.45.623.45 1.087 0 .704-.323 1.255-.972 1.656-.648.4-1.576.6-2.783.6h-.193l-.024.47c0 .51.12.91.36 1.197.24.287.613.43 1.117.43.246 0 .5-.034.758-.104.26-.07.583-.2.97-.387v.854a5.31 5.31 0 0 1-.973.36c-.28.07-.59.103-.93.103zm.815-5.817c-.402 0-.78.182-1.133.55-.354.367-.624.877-.812 1.53h.07c.89 0 1.574-.117 2.048-.35.475-.232.712-.57.712-1.01 0-.208-.07-.38-.214-.516-.142-.137-.366-.205-.67-.205zm6.528 3.878c0 .61-.216 1.085-.648 1.426-.43.342-1.04.513-1.825.513-.66 0-1.256-.135-1.787-.404v-.926c.273.164.568.29.885.38.316.09.61.136.88.136.49 0 .862-.098 1.112-.293a.91.91 0 0 0 .375-.75.812.812 0 0 0-.205-.563c-.137-.152-.432-.36-.885-.627-.508-.285-.867-.564-1.078-.838a1.546 1.546 0 0 1-.317-.972c0-.54.198-.974.592-1.304.395-.33.914-.495 1.56-.495.667 0 1.31.145 1.932.435l-.316.802-.328-.146a3.257 3.257 0 0 0-1.29-.25c-.362 0-.648.084-.855.254a.813.813 0 0 0-.31.66c0 .218.07.405.208.56.14.158.425.36.858.605.42.233.72.434.9.602.182.168.318.35.408.542.09.194.135.412.135.654zm4.6-4.682c.74 0 1.327.22 1.757.66.43.44.645 1.043.645 1.813 0 .733-.14 1.426-.422 2.08-.282.65-.662 1.155-1.143 1.51a2.67 2.67 0 0 1-1.63.534c-.75 0-1.337-.22-1.762-.662-.426-.442-.64-1.045-.64-1.81 0-.743.143-1.44.43-2.096.284-.654.67-1.156 1.153-1.505a2.69 2.69 0 0 1 1.612-.524zm1.382 2.338c0-.45-.122-.813-.366-1.093-.245-.278-.576-.418-.994-.418-.426 0-.808.145-1.146.434-.338.29-.6.69-.785 1.204a5.016 5.016 0 0 0-.278 1.714c0 .512.124.907.372 1.186.247.28.603.42 1.068.42.406 0 .772-.143 1.096-.428.324-.286.577-.69.76-1.216.18-.526.27-1.126.27-1.802zm4.225-2.256l-.88 4.072c-.07.348-.105.62-.105.815 0 .558.287.838.862.838.343 0 .68-.117 1.013-.352.332-.233.625-.57.88-1.007.253-.437.446-.964.58-1.582l.585-2.782h.973L489.234 323h-.814l.13-1.19h-.07c-.384.49-.75.83-1.097 1.02-.348.19-.707.287-1.078.287-.5 0-.893-.136-1.178-.407-.285-.272-.428-.66-.428-1.163 0-.242.042-.578.128-1.008l.856-3.962h.996zm8.69-.117c.27 0 .503.028.702.083l-.21.88a2.575 2.575 0 0 0-.616-.077c-.355 0-.688.117-1 .35-.31.236-.58.56-.813.977a4.967 4.967 0 0 0-.513 1.386l-.627 2.94h-.984l1.37-6.422h.814l-.13 1.19h.06c.28-.372.513-.638.697-.8a2.21 2.21 0 0 1 .578-.375c.2-.088.425-.132.67-.132zm3.07 6.657c-.758 0-1.346-.21-1.764-.627-.418-.418-.627-1.008-.627-1.77 0-.78.143-1.5.432-2.16.29-.662.69-1.176 1.2-1.545a2.86 2.86 0 0 1 1.718-.554c.536 0 1.06.1 1.57.3l-.275.826c-.468-.2-.896-.3-1.283-.3-.437 0-.837.15-1.198.45-.36.298-.645.714-.85 1.247a4.8 4.8 0 0 0-.307 1.738c0 .5.13.89.39 1.167s.617.416 1.074.416c.283 0 .548-.04.798-.117.25-.08.496-.17.74-.276v.838a3.518 3.518 0 0 1-1.62.37zm5.32 0c-.72 0-1.283-.213-1.694-.638-.41-.427-.615-1.017-.615-1.77 0-.735.147-1.44.438-2.113.29-.674.676-1.2 1.157-1.574a2.522 2.522 0 0 1 1.588-.562c.597 0 1.047.13 1.347.39.3.26.452.623.452 1.087 0 .704-.325 1.255-.973 1.656-.65.4-1.577.6-2.784.6h-.194l-.023.47c0 .51.12.91.36 1.197.24.287.612.43 1.116.43.246 0 .5-.034.758-.104.26-.07.583-.2.97-.387v.854a5.31 5.31 0 0 1-.973.36c-.28.07-.59.103-.93.103zm.814-5.818c-.402 0-.78.182-1.134.55-.353.367-.624.877-.81 1.53h.07c.89 0 1.572-.117 2.047-.35.475-.232.712-.57.712-1.01 0-.208-.072-.38-.215-.516-.142-.137-.366-.205-.67-.205zm6.528 3.878c0 .61-.216 1.085-.648 1.426-.432.342-1.04.513-1.825.513-.66 0-1.257-.135-1.788-.404v-.926c.273.164.568.29.885.38.316.09.61.136.878.136.493 0 .864-.098 1.114-.293a.91.91 0 0 0 .374-.75.812.812 0 0 0-.205-.563c-.138-.152-.433-.36-.886-.627-.508-.285-.867-.564-1.078-.838a1.546 1.546 0 0 1-.317-.972c0-.54.197-.974.59-1.304.396-.33.915-.495 1.56-.495.668 0 1.312.145 1.933.435l-.316.802-.328-.146a3.257 3.257 0 0 0-1.29-.25c-.364 0-.65.084-.856.254a.813.813 0 0 0-.31.66c0 .218.07.405.208.56.138.158.425.36.858.605.418.233.718.434.9.602.18.168.317.35.407.542.09.194.135.412.135.654zm3.76-3.24c0 1.332-.236 2.56-.71 3.688-.475 1.127-1.222 2.218-2.242 3.272h-.914c1.938-2.152 2.906-4.472 2.906-6.96 0-1.333-.22-2.5-.662-3.504h.768c.57 1.05.855 2.218.855 3.503z" fill="#FFF" opacity=".6"/><path d="M496 135v-6h-20v6h-4v14h28v-14h-4zm-18-4h16v4h-16v-4zm20 16h-24v-10h24v10zm-2-22h-20v2h20v-2zm0-4h-20v2h20v-2z" fill="#FFF" fill-rule="nonzero" opacity=".3"/><path d="M427.283 155.434L424.09 164h-.973l3.194-8.566h.973zm5.526 7.705h-.054c-.45.65-1.12.977-2.016.977-.84 0-1.493-.287-1.96-.86-.467-.575-.7-1.392-.7-2.45 0-1.06.234-1.88.703-2.467.47-.586 1.12-.88 1.957-.88.87 0 1.54.317 2.004.95h.076l-.04-.463-.024-.45v-2.614h.973V164h-.793l-.128-.86zm-1.947.163c.664 0 1.146-.18 1.445-.542.298-.36.448-.944.448-1.748v-.205c0-.91-.152-1.56-.454-1.95-.303-.387-.786-.582-1.45-.582-.57 0-1.007.222-1.31.665-.303.444-.454 1.07-.454 1.878 0 .82.15 1.44.45 1.858.302.418.743.627 1.325.627zm8.877.697l-.193-.914h-.047c-.32.402-.64.675-.958.817-.318.143-.716.214-1.192.214-.637 0-1.136-.164-1.497-.492-.362-.328-.542-.795-.542-1.4 0-1.297 1.038-1.977 3.112-2.04l1.09-.035v-.398c0-.504-.11-.876-.325-1.116-.217-.24-.564-.36-1.04-.36-.536 0-1.14.163-1.817.492l-.3-.745a4.57 4.57 0 0 1 1.04-.404 4.504 4.504 0 0 1 1.135-.147c.766 0 1.333.17 1.702.51.37.34.554.884.554 1.634V164h-.72zm-2.197-.686c.605 0 1.08-.166 1.427-.498.345-.332.518-.796.518-1.394v-.58l-.972.04c-.774.028-1.33.148-1.673.36-.342.214-.513.545-.513.994 0 .352.107.62.32.803.212.183.51.274.893.274zm6.996 0c.17 0 .337-.012.497-.038.16-.025.287-.05.38-.08v.745c-.105.052-.26.094-.465.127-.205.034-.39.05-.554.05-1.242 0-1.863-.654-1.863-1.963v-3.82h-.92v-.47l.92-.403.41-1.37h.563v1.488h1.863v.756h-1.862v3.78c0 .386.092.683.275.89.184.207.436.31.756.31zm6.11.686l-.193-.914h-.047c-.32.402-.64.675-.958.817-.318.143-.716.214-1.192.214-.637 0-1.136-.164-1.497-.492-.362-.328-.542-.795-.542-1.4 0-1.297 1.038-1.977 3.112-2.04l1.09-.035v-.398c0-.504-.11-.876-.325-1.116-.217-.24-.564-.36-1.04-.36-.536 0-1.14.163-1.817.492l-.3-.745a4.57 4.57 0 0 1 1.04-.404 4.504 4.504 0 0 1 1.135-.147c.766 0 1.333.17 1.702.51.37.34.554.884.554 1.634V164h-.72zm-2.197-.686c.606 0 1.08-.166 1.427-.498.346-.332.518-.796.518-1.394v-.58l-.972.04c-.774.028-1.33.148-1.673.36-.342.214-.513.545-.513.994 0 .352.107.62.32.803.212.183.51.274.893.274zm10.606.803c-.93 0-1.65-.286-2.16-.858-.51-.573-.765-1.383-.765-2.43 0-1.074.26-1.904.776-2.49.52-.586 1.256-.88 2.213-.88.31 0 .617.034.926.1.307.067.55.145.725.235l-.298.826a4.573 4.573 0 0 0-.704-.213 3.14 3.14 0 0 0-.673-.085c-1.305 0-1.957.832-1.957 2.496 0 .79.16 1.395.477 1.817.318.422.79.633 1.415.633.535 0 1.084-.116 1.647-.346v.86c-.43.224-.97.335-1.623.335zm5.858 0c-.95 0-1.698-.29-2.247-.867-.548-.578-.822-1.38-.822-2.408 0-1.035.255-1.858.764-2.467.51-.61 1.195-.914 2.054-.914.805 0 1.44.266 1.91.795.47.53.703 1.227.703 2.095v.615h-4.425c.02.754.21 1.326.572 1.717.36.39.87.586 1.526.586.692 0 1.375-.145 2.05-.434v.867c-.343.15-.668.256-.975.32a5.483 5.483 0 0 1-1.11.097zm-.264-5.842c-.515 0-.926.168-1.233.504-.306.335-.486.8-.54 1.394h3.356c0-.613-.136-1.083-.41-1.41-.273-.326-.664-.49-1.172-.49zm8.678 5.725v-4.154c0-.524-.12-.914-.357-1.172-.24-.258-.612-.387-1.12-.387-.67 0-1.164.182-1.476.545-.314.363-.47.963-.47 1.8V164h-.973v-6.422h.792l.157.88h.047c.2-.317.478-.562.837-.736.36-.174.76-.26 1.203-.26.773 0 1.355.185 1.746.56.39.372.585.968.585 1.79V164h-.973zm5.045-.686c.172 0 .338-.012.498-.038.16-.025.287-.05.38-.08v.745c-.105.052-.26.094-.465.127-.205.034-.39.05-.554.05-1.242 0-1.863-.654-1.863-1.963v-3.82h-.92v-.47l.92-.403.41-1.37h.563v1.488h1.863v.756h-1.864v3.78c0 .386.09.683.275.89.185.207.437.31.757.31zm4.875.803c-.95 0-1.698-.29-2.247-.867-.55-.578-.823-1.38-.823-2.408 0-1.035.255-1.858.764-2.467.51-.61 1.195-.914 2.054-.914.805 0 1.44.266 1.91.795.47.53.703 1.227.703 2.095v.615h-4.424c.02.754.21 1.326.57 1.717.362.39.87.586 1.527.586.692 0 1.375-.145 2.05-.434v.867c-.343.15-.668.256-.975.32a5.483 5.483 0 0 1-1.11.097zm-.264-5.842c-.515 0-.926.168-1.233.504-.307.335-.487.8-.542 1.394h3.357c0-.613-.136-1.083-.41-1.41-.273-.326-.664-.49-1.172-.49zm7.213-.814c.286 0 .542.024.77.07l-.136.904c-.266-.06-.5-.088-.703-.088-.52 0-.963.21-1.332.633-.37.42-.554.946-.554 1.575V164h-.973v-6.422h.804l.112 1.19h.046c.24-.418.526-.74.862-.967a1.94 1.94 0 0 1 1.107-.34zm8.017 0c.285 0 .54.024.767.07l-.134.904c-.266-.06-.5-.088-.704-.088-.52 0-.963.21-1.333.633-.37.42-.553.946-.553 1.575V164h-.973v-6.422h.803l.11 1.19h.048c.238-.418.525-.74.86-.967a1.94 1.94 0 0 1 1.11-.34zm4.44 6.657c-.948 0-1.697-.29-2.246-.867-.548-.578-.822-1.38-.822-2.408 0-1.035.255-1.858.765-2.467.51-.61 1.194-.914 2.053-.914.805 0 1.442.266 1.91.795.47.53.704 1.227.704 2.095v.615h-4.424c.02.754.21 1.326.57 1.717.362.39.87.586 1.527.586.692 0 1.375-.145 2.05-.434v.867c-.343.15-.668.256-.974.32a5.483 5.483 0 0 1-1.112.097zm-.262-5.842c-.516 0-.927.168-1.234.504-.306.335-.486.8-.54 1.394h3.357c0-.613-.137-1.083-.41-1.41-.274-.326-.665-.49-1.172-.49zm8.425 3.973c0 .598-.222 1.06-.668 1.383-.445.325-1.07.487-1.875.487-.85 0-1.515-.135-1.992-.404v-.902c.31.157.64.28.993.37.354.09.695.134 1.023.134.51 0 .9-.08 1.173-.243.273-.16.41-.408.41-.74 0-.25-.11-.464-.325-.642-.217-.177-.64-.387-1.27-.63-.597-.222-1.02-.416-1.273-.582a1.74 1.74 0 0 1-.563-.566 1.475 1.475 0 0 1-.184-.756c0-.523.212-.936.638-1.24.426-.302 1.01-.453 1.752-.453.692 0 1.367.142 2.028.423l-.346.79c-.645-.265-1.23-.398-1.752-.398-.46 0-.81.073-1.043.217-.234.145-.352.344-.352.598 0 .172.044.318.132.44.088.12.23.236.425.345.195.11.57.268 1.125.475.762.277 1.276.556 1.544.838.267.28.4.634.4 1.06zm7.125-1.465c0 1.047-.263 1.864-.79 2.452-.528.588-1.257.882-2.186.882-.575 0-1.085-.135-1.53-.404a2.668 2.668 0 0 1-1.032-1.16c-.242-.504-.363-1.094-.363-1.77 0-1.047.262-1.862.785-2.446.524-.584 1.25-.876 2.18-.876.898 0 1.612.3 2.14.897.53.598.795 1.407.795 2.426zm-4.892 0c0 .82.164 1.446.492 1.875.328.43.81.645 1.447.645s1.12-.214 1.45-.642c.33-.427.495-1.053.495-1.877 0-.816-.165-1.436-.495-1.86-.33-.424-.817-.636-1.462-.636-.636 0-1.117.21-1.44.627-.325.418-.487 1.04-.487 1.87zm7.51-3.205v4.166c0 .524.12.914.36 1.172.237.258.61.387 1.118.387.673 0 1.164-.184 1.475-.55.31-.368.465-.968.465-1.8v-3.375h.973V164h-.803l-.14-.86h-.053c-.2.315-.476.557-.83.725a2.787 2.787 0 0 1-1.21.252c-.78 0-1.365-.185-1.754-.556-.39-.37-.583-.964-.583-1.78v-4.202h.984zm9.382-.117c.285 0 .54.024.768.07l-.135.904c-.266-.06-.5-.088-.703-.088-.52 0-.964.21-1.333.633-.37.42-.554.946-.554 1.575V164h-.972v-6.422h.802l.112 1.19h.047c.238-.418.525-.74.86-.967a1.94 1.94 0 0 1 1.108-.34zm4.295 6.657c-.93 0-1.65-.286-2.16-.858-.51-.573-.764-1.383-.764-2.43 0-1.074.26-1.904.777-2.49.517-.586 1.255-.88 2.212-.88.308 0 .617.034.925.1.31.067.55.145.727.235l-.3.826a4.573 4.573 0 0 0-.702-.213 3.14 3.14 0 0 0-.674-.085c-1.303 0-1.956.832-1.956 2.496 0 .79.16 1.395.478 1.817.318.422.79.633 1.415.633.535 0 1.084-.116 1.646-.346v.86c-.43.224-.97.335-1.623.335zm5.86 0c-.95 0-1.7-.29-2.247-.867-.55-.578-.824-1.38-.824-2.408 0-1.035.254-1.858.764-2.467.51-.61 1.194-.914 2.054-.914.804 0 1.44.266 1.91.795.47.53.703 1.227.703 2.095v.615h-4.423c.02.754.21 1.326.57 1.717.363.39.872.586 1.528.586.69 0 1.375-.145 2.05-.434v.867c-.343.15-.668.256-.975.32a5.483 5.483 0 0 1-1.11.097zm-.264-5.842c-.516 0-.927.168-1.233.504-.307.335-.488.8-.542 1.394h3.358c0-.613-.137-1.083-.41-1.41-.274-.326-.664-.49-1.172-.49zm8.426 3.973c0 .598-.223 1.06-.668 1.383-.446.325-1.07.487-1.875.487-.853 0-1.517-.135-1.993-.404v-.902c.308.157.64.28.993.37.353.09.694.134 1.022.134.508 0 .9-.08 1.172-.243.274-.16.41-.408.41-.74 0-.25-.108-.464-.325-.642-.218-.177-.64-.387-1.27-.63-.597-.222-1.022-.416-1.274-.582a1.74 1.74 0 0 1-.562-.566 1.475 1.475 0 0 1-.185-.756c0-.523.212-.936.638-1.24.425-.302 1.01-.453 1.752-.453.69 0 1.367.142 2.027.423l-.346.79c-.643-.265-1.227-.398-1.75-.398-.462 0-.81.073-1.044.217-.234.145-.35.344-.35.598 0 .172.043.318.13.44.088.12.23.236.425.345.197.11.572.268 1.126.475.762.277 1.277.556 1.544.838.268.28.402.634.402 1.06z" fill="#FFF"/><path fill="#FFF" opacity=".1" d="M486 186h1v37h-1z"/><path d="M450.814 303h-.996v-7.682h-2.713v-.884h6.422v.884h-2.713V303zm5.73.117c-.948 0-1.697-.29-2.246-.867-.55-.578-.823-1.38-.823-2.408 0-1.035.254-1.858.764-2.467.51-.61 1.194-.914 2.053-.914.805 0 1.44.266 1.91.795.47.53.703 1.227.703 2.095v.615h-4.424c.02.754.21 1.326.572 1.717.36.39.87.586 1.526.586.69 0 1.375-.145 2.05-.434v.867c-.343.15-.668.256-.975.32a5.483 5.483 0 0 1-1.11.097zm-.263-5.842c-.514 0-.926.168-1.232.504-.307.335-.487.8-.542 1.394h3.357c0-.613-.136-1.083-.41-1.41-.273-.326-.664-.49-1.172-.49zm8.234 5.725l-.194-.914h-.047c-.32.402-.64.675-.958.817-.318.143-.715.214-1.192.214-.637 0-1.136-.164-1.497-.492-.36-.328-.542-.795-.542-1.4 0-1.297 1.037-1.977 3.11-2.04l1.09-.035v-.398c0-.504-.107-.876-.324-1.116-.217-.24-.564-.36-1.04-.36-.535 0-1.14.163-1.816.492l-.3-.745a4.57 4.57 0 0 1 1.04-.404 4.504 4.504 0 0 1 1.135-.147c.764 0 1.332.17 1.7.51.37.34.554.884.554 1.634V303h-.72zm-2.198-.686c.606 0 1.08-.166 1.427-.498.346-.332.52-.796.52-1.394v-.58l-.974.04c-.774.028-1.332.148-1.674.36-.342.214-.512.545-.512.994 0 .352.106.62.32.803.212.183.51.274.892.274zm13.108.686v-4.178c0-.51-.11-.895-.328-1.15-.22-.257-.56-.385-1.02-.385-.605 0-1.053.174-1.342.522-.29.346-.433.88-.433 1.604V303h-.972v-4.178c0-.51-.11-.895-.328-1.15-.22-.257-.56-.385-1.025-.385-.61 0-1.056.183-1.34.548-.282.365-.424.964-.424 1.796V303h-.972v-6.422h.79l.16.88h.046c.184-.313.443-.558.777-.733a2.372 2.372 0 0 1 1.123-.264c1.004 0 1.66.364 1.97 1.09h.045c.192-.335.47-.6.832-.796a2.582 2.582 0 0 1 1.243-.293c.726 0 1.27.187 1.63.56.363.374.543.97.543 1.79V303h-.972zm9.908-7.8c-.94 0-1.685.315-2.23.942-.544.627-.817 1.485-.817 2.575 0 1.12.263 1.987.788 2.598.526.612 1.275.917 2.247.917.598 0 1.28-.107 2.045-.322v.873c-.594.223-1.326.334-2.197.334-1.262 0-2.235-.383-2.92-1.148-.686-.767-1.03-1.855-1.03-3.265 0-.883.166-1.656.496-2.32a3.555 3.555 0 0 1 1.43-1.535c.623-.36 1.356-.54 2.2-.54.898 0 1.683.165 2.355.493l-.423.855a4.54 4.54 0 0 0-1.945-.457zm6.686 1.26c.285 0 .54.024.767.07l-.135.904c-.265-.06-.5-.088-.703-.088-.52 0-.964.21-1.333.633-.37.42-.553.946-.553 1.575V303h-.972v-6.422h.803l.112 1.19h.047c.237-.418.524-.74.86-.967a1.94 1.94 0 0 1 1.108-.34zm4.44 6.657c-.948 0-1.697-.29-2.246-.867-.55-.578-.823-1.38-.823-2.408 0-1.035.254-1.858.763-2.467.51-.61 1.195-.914 2.054-.914.805 0 1.44.266 1.91.795.47.53.703 1.227.703 2.095v.615h-4.424c.02.754.21 1.326.572 1.717.36.39.87.586 1.526.586.692 0 1.375-.145 2.05-.434v.867c-.343.15-.668.256-.975.32a5.483 5.483 0 0 1-1.11.097zm-.263-5.842c-.515 0-.926.168-1.233.504-.307.335-.487.8-.542 1.394h3.357c0-.613-.136-1.083-.41-1.41-.273-.326-.664-.49-1.172-.49zm8.233 5.725l-.194-.914h-.046c-.32.402-.64.675-.96.817-.317.143-.714.214-1.19.214-.638 0-1.137-.164-1.498-.492-.36-.328-.542-.795-.542-1.4 0-1.297 1.037-1.977 3.11-2.04l1.09-.035v-.398c0-.504-.107-.876-.324-1.116-.217-.24-.563-.36-1.04-.36-.535 0-1.14.163-1.816.492l-.3-.745a4.57 4.57 0 0 1 1.04-.404 4.504 4.504 0 0 1 1.135-.147c.765 0 1.333.17 1.702.51.37.34.553.884.553 1.634V303h-.72zm-2.198-.686c.606 0 1.082-.166 1.427-.498.346-.332.52-.796.52-1.394v-.58l-.974.04c-.773.028-1.33.148-1.673.36-.342.214-.512.545-.512.994 0 .352.106.62.32.803.212.183.51.274.892.274zm6.997 0c.17 0 .337-.012.498-.038.16-.025.287-.05.38-.08v.745c-.105.052-.26.094-.465.127-.205.034-.39.05-.554.05-1.242 0-1.863-.654-1.863-1.963v-3.82h-.92v-.47l.92-.403.41-1.37h.562v1.488h1.864v.756h-1.865v3.78c0 .386.092.683.276.89.184.207.436.31.757.31zm4.875.803c-.95 0-1.7-.29-2.248-.867-.548-.578-.823-1.38-.823-2.408 0-1.035.256-1.858.766-2.467.51-.61 1.194-.914 2.054-.914.804 0 1.44.266 1.91.795.47.53.703 1.227.703 2.095v.615h-4.424c.02.754.21 1.326.57 1.717.362.39.87.586 1.527.586.69 0 1.375-.145 2.05-.434v.867c-.343.15-.668.256-.975.32a5.483 5.483 0 0 1-1.11.097zm-.264-5.842c-.516 0-.927.168-1.234.504-.306.335-.487.8-.542 1.394h3.358c0-.613-.137-1.083-.41-1.41-.274-.326-.664-.49-1.172-.49zm8.654 4.864h-.053c-.45.65-1.122.977-2.016.977-.84 0-1.493-.287-1.96-.86-.467-.575-.7-1.392-.7-2.45 0-1.06.234-1.88.703-2.467.47-.586 1.12-.88 1.957-.88.87 0 1.54.317 2.004.95h.076l-.04-.463-.025-.45v-2.614h.972V303h-.79l-.13-.86zm-1.945.163c.664 0 1.145-.18 1.444-.542.3-.36.45-.944.45-1.748v-.205c0-.91-.152-1.56-.455-1.95-.302-.387-.786-.582-1.45-.582-.57 0-1.007.222-1.31.665-.302.444-.454 1.07-.454 1.878 0 .82.152 1.44.453 1.858.3.418.742.627 1.324.627z" fill="#FFF"/><path d="M478 264c2.2 0 4-1.8 4-4s-1.8-4-4-4-4 1.8-4 4 1.8 4 4 4zm0 2c-3.4 0-6 2.6-6 6v12h12v-12c0-3.4-2.6-6-6-6zm16-2c2.2 0 4-1.8 4-4s-1.8-4-4-4-4 1.8-4 4 1.8 4 4 4zm0 2c-3.4 0-6 2.6-6 6v12h12v-12c0-3.4-2.6-6-6-6z" fill="#FFF" fill-rule="nonzero"/></g></svg>