<svg width="600" height="440" viewBox="0 0 600 440" xmlns="http://www.w3.org/2000/svg"><title>deploy_only view</title><g fill="none" fill-rule="evenodd"><path fill="#576167" d="M0 0h600v676H0z"/><path d="M129.79 173.397C127.468 147.94 106.063 128 80 128c-27.614 0-50 22.386-50 50s22.386 50 50 50c24.478 0 44.848-17.59 49.16-40.818C131.63 193.514 137.79 198 145 198c9.39 0 17-7.61 17-17s-7.61-17-17-17c-6.656 0-12.418 3.825-15.21 9.397z" fill="#FFF" opacity=".1"/><path d="M71 164c2.2 0 4-1.8 4-4s-1.8-4-4-4-4 1.8-4 4 1.8 4 4 4zm0 2c-3.4 0-6 2.6-6 6v12h12v-12c0-3.4-2.6-6-6-6zm16-2c2.2 0 4-1.8 4-4s-1.8-4-4-4-4 1.8-4 4 1.8 4 4 4zm0 2c-3.4 0-6 2.6-6 6v12h12v-12c0-3.4-2.6-6-6-6z" fill="#FFF" fill-rule="nonzero"/><path d="M71.016 207h-6.58v-11.422h6.58v1.984H66.86v2.508h3.867v1.985H66.86V205h4.156v2zm12.515 0h-3.077l-4.97-8.64h-.07c.1 1.525.15 2.614.15 3.265V207h-2.165v-11.422h3.055l4.96 8.555h.056c-.08-1.485-.118-2.534-.118-3.15v-5.405h2.18V207zm7.212-6.414h4.53v5.922c-.733.24-1.424.407-2.073.504a13.51 13.51 0 0 1-1.99.144c-1.723 0-3.04-.506-3.948-1.52-.91-1.012-1.364-2.467-1.364-4.363 0-1.843.528-3.28 1.582-4.312 1.055-1.03 2.517-1.546 4.387-1.546 1.172 0 2.302.234 3.39.703l-.804 1.938a5.747 5.747 0 0 0-2.6-.625c-1.048 0-1.887.35-2.517 1.054-.63.704-.945 1.65-.945 2.836 0 1.24.255 2.187.762 2.84.508.654 1.246.98 2.215.98.505 0 1.018-.05 1.54-.156v-2.382H90.74v-2.016z" fill="#FFF"/><path d="M166.48 192.406c0-1.324.235-2.55.704-3.674.468-1.125 1.218-2.224 2.25-3.298h.92c-.96 1.054-1.687 2.168-2.177 3.34a9.297 9.297 0 0 0-.736 3.62c0 1.325.224 2.493.67 3.504h-.768c-.574-1.04-.862-2.203-.862-3.492zm7.706-1.13h-2.907L169.843 194h-1.108l4.682-8.566h1.02l1.078 8.566h-.996l-.334-2.725zm-.106-.915l-.205-1.75c-.094-.7-.15-1.383-.17-2.05-.144.342-.302.684-.472 1.024-.17.34-.657 1.266-1.462 2.777h2.31zm5.748-2.887c.758 0 1.307.37 1.647 1.113h.058c.067-.606.154-1.14.264-1.606l.457-2.097h.973L181.293 194h-.814l.127-1.225h-.046c-.394.49-.763.834-1.107 1.037a2.07 2.07 0 0 1-1.066.305c-.543 0-.967-.19-1.272-.574-.304-.383-.457-.914-.457-1.594 0-.837.14-1.602.422-2.298.28-.695.66-1.232 1.14-1.61a2.526 2.526 0 0 1 1.608-.57zm-1.113 5.83c.367 0 .746-.183 1.137-.548.39-.365.7-.832.928-1.4a4.62 4.62 0 0 0 .343-1.738c0-.433-.105-.763-.316-.99-.21-.227-.518-.34-.92-.34-.395 0-.76.16-1.1.484-.337.323-.608.776-.813 1.36a5.52 5.52 0 0 0-.308 1.843c0 .886.35 1.33 1.05 1.33zm8.373.697l.867-4.055c.07-.367.106-.63.106-.79 0-.274-.06-.487-.18-.64-.122-.152-.33-.228-.622-.228-.328 0-.648.117-.958.352-.31.233-.584.568-.82 1.004-.237.435-.42.96-.548 1.573L184.34 194h-.985l1.372-6.422h.814l-.128 1.19h.06c.34-.465.677-.8 1.015-1.002a2.004 2.004 0 0 1 1.046-.305c.442 0 .78.128 1.02.382.238.254.38.607.422 1.06h.046c.337-.488.695-.85 1.074-1.087.38-.236.76-.354 1.148-.354.496 0 .88.134 1.152.4.27.265.407.652.407 1.16 0 .265-.042.613-.128 1.042l-.844 3.938h-.996l.867-4.055c.077-.406.116-.69.116-.855 0-.242-.067-.437-.202-.583-.135-.147-.346-.22-.635-.22-.318 0-.63.113-.94.34-.308.227-.578.548-.81.964-.233.417-.41.91-.53 1.48l-.628 2.93h-.984zm7.717 0h-.985l1.37-6.422h.986l-1.37 6.422zm.662-8.063a.77.77 0 0 1 .187-.536.624.624 0 0 1 .487-.207c.344 0 .516.176.516.528a.795.795 0 0 1-.196.546.59.59 0 0 1-.454.222.54.54 0 0 1-.387-.143c-.102-.096-.153-.232-.153-.407zm5.326 8.063l.867-4.055c.078-.406.117-.687.117-.843 0-.247-.07-.444-.208-.592-.14-.15-.36-.223-.666-.223-.347 0-.686.117-1.016.352-.33.233-.62.567-.873 1-.252.434-.443.96-.572 1.577l-.59 2.783h-.986l1.37-6.422h.816l-.13 1.19h.06c.374-.477.737-.814 1.086-1.01.35-.198.71-.297 1.086-.297.496 0 .888.137 1.175.408.288.272.432.652.432 1.14 0 .308-.045.66-.135 1.054L201.79 194h-.997zm5.584-5.063c0 1.333-.237 2.562-.712 3.69-.475 1.126-1.222 2.217-2.24 3.27h-.915c1.937-2.15 2.906-4.47 2.906-6.96 0-1.332-.22-2.5-.662-3.503h.767c.572 1.05.857 2.218.857 3.504z" fill="#FFF" opacity=".6"/><path d="M171.77 172.764h3.397v4.86c-.53.17-1.066.296-1.613.383-.547.086-1.18.13-1.9.13-1.514 0-2.692-.45-3.535-1.35-.844-.9-1.266-2.162-1.266-3.784 0-1.04.21-1.95.626-2.73a4.23 4.23 0 0 1 1.8-1.792c.785-.41 1.703-.618 2.756-.618a7.53 7.53 0 0 1 2.98.588l-.45 1.026c-.903-.383-1.77-.575-2.605-.575-1.216 0-2.166.364-2.85 1.088-.683.725-1.025 1.73-1.025 3.015 0 1.35.33 2.372.988 3.07.658.697 1.626 1.045 2.902 1.045.692 0 1.37-.08 2.03-.24v-3.075h-2.235v-1.04zm9.043-2.393c.333 0 .632.028.896.083l-.158 1.053a3.865 3.865 0 0 0-.82-.103c-.607 0-1.125.246-1.556.74-.43.49-.646 1.104-.646 1.837V178h-1.134v-7.492h.936l.13 1.388h.055c.278-.488.613-.864 1.004-1.128a2.262 2.262 0 0 1 1.293-.397zm6.625 7.63l-.226-1.066h-.055c-.373.47-.746.787-1.117.953-.372.167-.836.25-1.392.25-.742 0-1.325-.192-1.746-.575-.422-.382-.632-.927-.632-1.633 0-1.514 1.21-2.307 3.63-2.38l1.27-.04v-.466c0-.588-.126-1.022-.378-1.302-.253-.28-.658-.42-1.214-.42-.624 0-1.33.19-2.12.574l-.348-.87c.37-.2.774-.356 1.214-.47.44-.114.88-.17 1.322-.17.894 0 1.556.197 1.986.593.43.396.646 1.032.646 1.907V178h-.84zm-2.564-.8c.706 0 1.26-.193 1.665-.58.402-.388.604-.93.604-1.628v-.677l-1.135.048c-.904.032-1.554.172-1.953.42-.4.25-.598.635-.598 1.16 0 .41.123.722.372.936.248.213.595.32 1.042.32zm10.87.8v-4.847c0-.61-.14-1.066-.418-1.367-.278-.3-.713-.45-1.305-.45-.783 0-1.358.21-1.722.635-.365.425-.547 1.124-.547 2.1V178h-1.134v-7.492h.923l.184 1.025h.054c.233-.37.56-.655.978-.858.42-.203.886-.304 1.4-.304.904 0 1.583.22 2.038.654.456.435.684 1.13.684 2.088V178h-1.135zm5.885-.8c.2 0 .393-.015.58-.044.187-.03.335-.06.444-.093v.87c-.123.058-.304.107-.543.146a4.08 4.08 0 0 1-.645.057c-1.45 0-2.174-.764-2.174-2.29v-4.457h-1.072v-.547l1.073-.472.48-1.6h.656v1.738h2.174v.882h-2.174v4.41c0 .45.107.796.32 1.038.215.24.51.362.883.362z" fill="#FFF"/><path d="M144.965 181H152v3h-1v-2h-1v2h-1v-2h-4.035a3.5 3.5 0 1 1 0-1zm-3.465 3a2.5 2.5 0 1 0 0-5 2.5 2.5 0 0 0 0 5z" fill="#FFF" fill-rule="nonzero"/><path d="M321 156v-8c0-4.4-3.6-8-8-8s-8 3.6-8 8v8h-6v2h28v-2h-6zm-2 0h-12v-8c0-3.4 2.6-6 6-6s6 2.6 6 6v8zm-20 6h28v-2h-28v2z" fill="#FFF" fill-rule="nonzero" opacity=".3"/><path d="M272.07 169.434h1.073L270.055 178h-.985l-3.07-8.566h1.055l1.968 5.543c.227.636.407 1.255.54 1.857.14-.633.324-1.264.55-1.893l1.957-5.506zm3.076 8.566h-.972v-6.422h.972V178zm-1.054-8.162c0-.223.054-.386.164-.49a.573.573 0 0 1 .41-.155c.156 0 .29.053.404.16.114.104.17.266.17.485 0 .22-.056.382-.17.49a.567.567 0 0 1-.404.16.562.562 0 0 1-.41-.16c-.11-.108-.164-.27-.164-.49zm5.83 8.28c-.95 0-1.698-.29-2.247-.868-.55-.578-.823-1.38-.823-2.408 0-1.035.254-1.858.764-2.467.51-.61 1.195-.914 2.054-.914.805 0 1.44.266 1.91.795.47.53.703 1.227.703 2.095v.615h-4.424c.02.754.21 1.326.57 1.717.362.39.87.586 1.527.586.69 0 1.375-.145 2.05-.434v.867c-.343.15-.668.256-.975.32a5.483 5.483 0 0 1-1.11.097zm-.264-5.843c-.515 0-.927.168-1.233.504-.307.335-.488.8-.542 1.394h3.357c0-.613-.136-1.083-.41-1.41-.273-.326-.664-.49-1.172-.49zm9.287 5.725l-1.177-3.768a31.93 31.93 0 0 1-.416-1.57h-.047a21.48 21.48 0 0 1-.41 1.582L285.682 178h-1.125l-1.752-6.422h1.02l.946 3.686c.217.843.34 1.412.373 1.705h.046c.042-.224.112-.512.207-.866.096-.353.18-.633.25-.84l1.177-3.686h1.055l1.147 3.686c.22.672.368 1.236.446 1.693h.047a6.21 6.21 0 0 1 .126-.65c.068-.293.475-1.87 1.22-4.73h1.01L290.1 178h-1.155zm12.75-3.217c0 1.047-.263 1.864-.79 2.452-.528.588-1.257.882-2.186.882-.575 0-1.085-.135-1.53-.404a2.668 2.668 0 0 1-1.032-1.16c-.242-.504-.363-1.094-.363-1.77 0-1.047.262-1.862.785-2.446.524-.584 1.25-.876 2.18-.876.898 0 1.612.3 2.14.897.53.598.795 1.407.795 2.426zm-4.892 0c0 .82.164 1.446.492 1.875.328.43.81.645 1.447.645s1.12-.214 1.45-.642c.33-.427.495-1.053.495-1.877 0-.816-.165-1.436-.495-1.86-.33-.424-.817-.636-1.462-.636-.636 0-1.117.21-1.44.627-.325.418-.487 1.04-.487 1.87zM307.795 178v-4.154c0-.524-.12-.914-.358-1.172-.238-.258-.61-.387-1.12-.387-.67 0-1.163.182-1.475.545-.313.363-.47.963-.47 1.8V178h-.972v-6.422h.79l.16.88h.046c.2-.317.48-.562.838-.736.36-.174.76-.26 1.202-.26.773 0 1.355.185 1.746.56.39.372.586.968.586 1.79V178h-.973zm3.943 0h-.972v-9.117h.972V178zm1.043-6.422h1.044l1.406 3.662c.31.836.5 1.44.575 1.81h.047c.05-.198.157-.54.32-1.022.16-.482.69-1.965 1.59-4.45h1.043l-2.76 7.313c-.274.723-.593 1.236-.958 1.54-.365.3-.814.453-1.345.453-.297 0-.59-.033-.88-.1v-.78c.216.048.456.07.722.07.668 0 1.145-.374 1.43-1.124l.357-.915-2.59-6.457zM326.915 178l-.193-.914h-.046c-.32.402-.64.675-.958.817-.32.143-.716.214-1.193.214-.636 0-1.135-.164-1.497-.492-.36-.328-.542-.795-.542-1.4 0-1.297 1.037-1.977 3.112-2.04l1.09-.035v-.398c0-.504-.11-.876-.326-1.116-.216-.24-.563-.36-1.04-.36-.535 0-1.14.163-1.816.492l-.3-.745a4.57 4.57 0 0 1 1.04-.404 4.504 4.504 0 0 1 1.135-.147c.765 0 1.332.17 1.7.51.37.34.555.884.555 1.634V178h-.72zm-2.197-.686c.605 0 1.08-.166 1.427-.498.345-.332.518-.796.518-1.394v-.58l-.973.04c-.774.028-1.332.148-1.673.36-.342.214-.513.545-.513.994 0 .352.106.62.32.803.212.183.51.274.893.274zm7.488.803c-.93 0-1.65-.286-2.16-.858-.51-.573-.764-1.383-.764-2.43 0-1.074.26-1.904.778-2.49.517-.586 1.254-.88 2.212-.88.308 0 .617.034.925.1.31.067.55.145.727.235l-.3.826a4.573 4.573 0 0 0-.702-.213 3.14 3.14 0 0 0-.674-.085c-1.305 0-1.957.832-1.957 2.496 0 .79.158 1.395.477 1.817.318.422.79.633 1.415.633.535 0 1.084-.116 1.646-.346v.86c-.43.224-.97.335-1.623.335zm5.713 0c-.93 0-1.65-.286-2.16-.858-.51-.573-.764-1.383-.764-2.43 0-1.074.26-1.904.777-2.49.518-.586 1.255-.88 2.212-.88.31 0 .618.034.926.1.31.067.55.145.727.235l-.3.826a4.573 4.573 0 0 0-.702-.213 3.14 3.14 0 0 0-.674-.085c-1.306 0-1.958.832-1.958 2.496 0 .79.16 1.395.477 1.817.318.422.79.633 1.415.633.535 0 1.084-.116 1.646-.346v.86c-.43.224-.97.335-1.622.335zm5.86 0c-.95 0-1.7-.29-2.248-.867-.55-.578-.823-1.38-.823-2.408 0-1.035.255-1.858.765-2.467.51-.61 1.194-.914 2.053-.914.805 0 1.442.266 1.91.795.47.53.704 1.227.704 2.095v.615h-4.425c.02.754.21 1.326.57 1.717.362.39.87.586 1.527.586.692 0 1.375-.145 2.05-.434v.867c-.342.15-.668.256-.974.32a5.483 5.483 0 0 1-1.11.097zm-.264-5.842c-.516 0-.927.168-1.234.504-.306.335-.487.8-.542 1.394h3.358c0-.613-.137-1.083-.41-1.41-.274-.326-.665-.49-1.172-.49zm8.425 3.973c0 .598-.223 1.06-.67 1.383-.444.325-1.07.487-1.874.487-.85 0-1.515-.135-1.992-.404v-.902c.31.157.64.28.993.37.354.09.695.134 1.023.134.508 0 .898-.08 1.172-.243.273-.16.41-.408.41-.74 0-.25-.108-.464-.325-.642-.217-.177-.64-.387-1.27-.63-.596-.222-1.02-.416-1.273-.582a1.74 1.74 0 0 1-.563-.566 1.475 1.475 0 0 1-.183-.756c0-.523.213-.936.638-1.24.426-.302 1.01-.453 1.752-.453.692 0 1.368.142 2.028.423l-.346.79c-.646-.265-1.23-.398-1.753-.398-.46 0-.81.073-1.043.217-.234.145-.35.344-.35.598-.002.172.042.318.13.44.088.12.23.236.425.345.194.11.57.268 1.124.475.762.277 1.277.556 1.544.838.268.28.4.634.4 1.06zm5.724 0c0 .598-.223 1.06-.668 1.383-.445.325-1.07.487-1.875.487-.85 0-1.515-.135-1.99-.404v-.902c.308.157.64.28.992.37.354.09.694.134 1.023.134.507 0 .898-.08 1.17-.243.275-.16.412-.408.412-.74 0-.25-.11-.464-.326-.642-.215-.177-.638-.387-1.267-.63-.598-.222-1.023-.416-1.275-.582a1.74 1.74 0 0 1-.562-.566 1.475 1.475 0 0 1-.185-.756c0-.523.214-.936.64-1.24.426-.302 1.01-.453 1.752-.453.69 0 1.367.142 2.027.423l-.346.79c-.645-.265-1.23-.398-1.752-.398-.46 0-.81.073-1.043.217-.236.145-.353.344-.353.598 0 .172.044.318.132.44.087.12.228.236.424.345.195.11.57.268 1.125.475.76.277 1.275.556 1.543.838.267.28.4.634.4 1.06z" fill="#FFF"/><path d="M247 175v3l12-4-12-3v3h-35v1h35zM402 175v3l12-4-12-3v3h-35v1h35z" fill="#FFF" opacity=".37"/><path d="M460.48 191.406c0-1.324.235-2.55.704-3.674.468-1.125 1.218-2.224 2.25-3.298h.92c-.96 1.054-1.687 2.168-2.177 3.34a9.297 9.297 0 0 0-.736 3.62c0 1.325.224 2.493.67 3.504h-.768c-.574-1.04-.862-2.203-.862-3.492zm7.706-1.13h-2.907L463.843 193h-1.108l4.682-8.566h1.02l1.078 8.566h-.996l-.334-2.725zm-.106-.915l-.205-1.75c-.094-.7-.15-1.383-.17-2.05-.144.342-.302.684-.472 1.024-.17.34-.657 1.266-1.462 2.777h2.31zm5.748-2.887c.758 0 1.307.37 1.647 1.113h.058c.067-.606.154-1.14.264-1.606l.457-2.097h.973L475.293 193h-.814l.127-1.225h-.046c-.394.49-.763.834-1.107 1.037a2.07 2.07 0 0 1-1.066.305c-.543 0-.967-.19-1.272-.574-.304-.383-.457-.914-.457-1.594 0-.837.14-1.602.422-2.298.28-.695.66-1.232 1.14-1.61a2.526 2.526 0 0 1 1.608-.57zm-1.113 5.83c.367 0 .746-.183 1.137-.548.39-.365.7-.832.928-1.4a4.62 4.62 0 0 0 .343-1.738c0-.433-.105-.763-.316-.99-.21-.227-.518-.34-.92-.34-.395 0-.76.16-1.1.484-.337.323-.608.776-.813 1.36a5.52 5.52 0 0 0-.308 1.843c0 .886.35 1.33 1.05 1.33zm8.373.697l.867-4.055c.07-.367.106-.63.106-.79 0-.274-.06-.487-.18-.64-.122-.152-.33-.228-.622-.228-.328 0-.648.117-.958.352-.31.233-.584.568-.82 1.004-.237.435-.42.96-.548 1.573L478.34 193h-.985l1.372-6.422h.814l-.128 1.19h.06c.34-.465.677-.8 1.015-1.002a2.004 2.004 0 0 1 1.046-.305c.442 0 .78.128 1.02.382.238.254.38.607.422 1.06h.046c.337-.488.695-.85 1.074-1.087.38-.236.76-.354 1.148-.354.496 0 .88.134 1.152.4.27.265.407.652.407 1.16 0 .265-.042.613-.128 1.042l-.844 3.938h-.996l.867-4.055c.077-.406.116-.69.116-.855 0-.242-.067-.437-.202-.583-.135-.147-.346-.22-.635-.22-.318 0-.63.113-.94.34-.308.227-.578.548-.81.964-.233.417-.41.91-.53 1.48l-.628 2.93h-.984zm7.717 0h-.985l1.37-6.422h.986l-1.37 6.422zm.662-8.063a.77.77 0 0 1 .187-.536.624.624 0 0 1 .487-.207c.344 0 .516.176.516.528a.795.795 0 0 1-.196.546.59.59 0 0 1-.454.222.54.54 0 0 1-.387-.143c-.102-.096-.153-.232-.153-.407zm5.326 8.063l.867-4.055c.078-.406.117-.687.117-.843 0-.247-.07-.444-.208-.592-.14-.15-.36-.223-.666-.223-.347 0-.686.117-1.016.352-.33.233-.62.567-.873 1-.252.434-.443.96-.572 1.577l-.59 2.783h-.986l1.37-6.422h.816l-.13 1.19h.06c.374-.477.737-.814 1.086-1.01.35-.198.71-.297 1.086-.297.496 0 .888.137 1.175.408.288.272.432.652.432 1.14 0 .308-.045.66-.135 1.054L495.79 193h-.997zm5.584-5.063c0 1.333-.237 2.562-.712 3.69-.475 1.126-1.222 2.217-2.24 3.27h-.915c1.937-2.15 2.906-4.47 2.906-6.96 0-1.332-.22-2.5-.662-3.503h.767c.572 1.05.857 2.218.857 3.504zM460.48 306.406c0-1.324.235-2.55.704-3.674.468-1.125 1.218-2.224 2.25-3.298h.92c-.96 1.054-1.687 2.168-2.177 3.34a9.297 9.297 0 0 0-.736 3.62c0 1.325.224 2.493.67 3.504h-.768c-.574-1.04-.862-2.203-.862-3.492zm7.706-1.13h-2.907L463.843 308h-1.108l4.682-8.566h1.02l1.078 8.566h-.996l-.334-2.725zm-.106-.915l-.205-1.75c-.094-.7-.15-1.383-.17-2.05-.144.342-.302.684-.472 1.024-.17.34-.657 1.266-1.462 2.777h2.31zm5.748-2.887c.758 0 1.307.37 1.647 1.113h.058c.067-.606.154-1.14.264-1.606l.457-2.097h.973L475.293 308h-.814l.127-1.225h-.046c-.394.49-.763.834-1.107 1.038a2.07 2.07 0 0 1-1.066.304c-.543 0-.967-.19-1.272-.574-.304-.383-.457-.914-.457-1.594 0-.837.14-1.602.422-2.298.28-.695.66-1.232 1.14-1.61a2.526 2.526 0 0 1 1.608-.57zm-1.113 5.83c.367 0 .746-.183 1.137-.548.39-.365.7-.832.928-1.4a4.62 4.62 0 0 0 .343-1.738c0-.433-.105-.763-.316-.99-.21-.227-.518-.34-.92-.34-.395 0-.76.16-1.1.484-.337.323-.608.776-.813 1.36a5.52 5.52 0 0 0-.308 1.843c0 .886.35 1.33 1.05 1.33zm8.373.697l.867-4.055c.07-.367.106-.63.106-.79 0-.274-.06-.487-.18-.64-.122-.152-.33-.228-.622-.228-.328 0-.648.117-.958.352-.31.233-.584.568-.82 1.004-.237.435-.42.96-.548 1.573L478.34 308h-.985l1.372-6.422h.814l-.128 1.19h.06c.34-.465.677-.8 1.015-1.002a2.004 2.004 0 0 1 1.046-.305c.442 0 .78.128 1.02.382.238.254.38.607.422 1.06h.046c.337-.488.695-.85 1.074-1.087.38-.236.76-.354 1.148-.354.496 0 .88.134 1.152.4.27.265.407.652.407 1.16 0 .265-.042.613-.128 1.043l-.844 3.937h-.996l.867-4.055c.077-.406.116-.69.116-.855 0-.242-.067-.437-.202-.583-.135-.147-.346-.22-.635-.22-.318 0-.63.113-.94.34-.308.227-.578.548-.81.964-.233.417-.41.91-.53 1.48l-.628 2.93h-.984zm7.717 0h-.985l1.37-6.422h.986l-1.37 6.422zm.662-8.063a.77.77 0 0 1 .187-.536.624.624 0 0 1 .487-.207c.344 0 .516.176.516.528a.795.795 0 0 1-.196.546.59.59 0 0 1-.454.222.54.54 0 0 1-.387-.143c-.102-.096-.153-.232-.153-.408zm5.326 8.063l.867-4.055c.078-.406.117-.687.117-.843 0-.247-.07-.444-.208-.592-.14-.15-.36-.223-.666-.223-.347 0-.686.117-1.016.352-.33.233-.62.567-.873 1-.252.434-.443.96-.572 1.577l-.59 2.783h-.986l1.37-6.422h.816l-.13 1.19h.06c.374-.477.737-.814 1.086-1.01.35-.198.71-.297 1.086-.297.496 0 .888.137 1.175.408.288.272.432.652.432 1.14 0 .308-.045.66-.135 1.055L495.79 308h-.997zm5.584-5.063c0 1.333-.237 2.562-.712 3.69-.475 1.126-1.222 2.217-2.24 3.27h-.915c1.937-2.15 2.906-4.47 2.906-6.96 0-1.332-.22-2.5-.662-3.503h.767c.572 1.05.857 2.218.857 3.503z" fill="#FFF" opacity=".6"/><path d="M491 149v-6h-20v6h-4v14h28v-14h-4zm-18-4h16v4h-16v-4zm20 16h-24v-10h24v10zm-2-22h-20v2h20v-2zm0-4h-20v2h20v-2z" fill="#FFF" fill-rule="nonzero" opacity=".3"/><path d="M433.283 169.434L430.09 178h-.973l3.194-8.566h.973zm2.56 8.566l-2.437-6.422h1.043l1.382 3.81c.313.89.496 1.467.55 1.733h.048c.043-.206.178-.635.407-1.285.228-.65.74-2.07 1.538-4.257h1.043L436.98 178h-1.136zm5.58 0h-.974v-6.422h.972V178zm-1.056-8.162c0-.223.055-.386.164-.49a.573.573 0 0 1 .41-.155c.158 0 .292.053.406.16.113.104.17.266.17.485 0 .22-.057.382-.17.49a.567.567 0 0 1-.405.16.562.562 0 0 1-.41-.16c-.108-.108-.163-.27-.163-.49zm5.83 8.28c-.95 0-1.698-.29-2.247-.868-.55-.578-.823-1.38-.823-2.408 0-1.035.255-1.858.765-2.467.51-.61 1.194-.914 2.053-.914.805 0 1.442.266 1.91.795.47.53.704 1.227.704 2.095v.615h-4.425c.02.754.21 1.326.57 1.717.362.39.87.586 1.527.586.692 0 1.375-.145 2.05-.434v.867c-.343.15-.668.256-.974.32a5.483 5.483 0 0 1-1.11.097zm-.263-5.843c-.516 0-.927.168-1.234.504-.306.335-.487.8-.542 1.394h3.358c0-.613-.137-1.083-.41-1.41-.274-.326-.665-.49-1.172-.49zM455.22 178l-1.177-3.768c-.074-.23-.213-.753-.416-1.57h-.047a21.48 21.48 0 0 1-.41 1.582L451.957 178h-1.125l-1.752-6.422h1.02l.946 3.686c.217.843.34 1.412.372 1.705h.047c.043-.224.112-.512.208-.866.096-.353.18-.633.25-.84l1.177-3.686h1.054l1.15 3.686c.217.672.366 1.236.444 1.693h.047a6.21 6.21 0 0 1 .126-.65c.07-.293.476-1.87 1.223-4.73h1.007L456.375 178h-1.154zm12.75-3.217c0 1.047-.263 1.864-.79 2.452-.528.588-1.256.882-2.186.882-.574 0-1.084-.135-1.53-.404a2.668 2.668 0 0 1-1.03-1.16c-.243-.504-.364-1.094-.364-1.77 0-1.047.262-1.862.785-2.446.524-.584 1.25-.876 2.18-.876.9 0 1.612.3 2.142.897.53.598.794 1.407.794 2.426zm-4.892 0c0 .82.164 1.446.492 1.875.328.43.81.645 1.448.645.636 0 1.12-.214 1.45-.642.33-.427.495-1.053.495-1.877 0-.816-.165-1.436-.495-1.86-.33-.424-.818-.636-1.462-.636-.637 0-1.117.21-1.442.627-.324.418-.486 1.04-.486 1.87zM474.07 178v-4.154c0-.524-.12-.914-.357-1.172-.238-.258-.61-.387-1.12-.387-.67 0-1.163.182-1.476.545-.312.363-.47.963-.47 1.8V178h-.97v-6.422h.79l.158.88h.047c.2-.317.478-.562.838-.736.36-.174.76-.26 1.2-.26.774 0 1.356.185 1.747.56.39.372.586.968.586 1.79V178h-.973zm3.944 0h-.973v-9.117h.974V178zm1.043-6.422h1.043l1.406 3.662c.308.836.5 1.44.574 1.81h.047c.05-.198.157-.54.32-1.022.16-.482.692-1.965 1.59-4.45h1.043l-2.76 7.313c-.273.723-.592 1.236-.958 1.54-.365.3-.813.453-1.344.453-.297 0-.59-.033-.88-.1v-.78c.216.048.456.07.72.07.67 0 1.146-.374 1.43-1.124l.358-.915-2.59-6.457zm14.326 4.67c0 .598-.223 1.06-.668 1.383-.445.325-1.07.487-1.875.487-.852 0-1.516-.135-1.992-.404v-.902c.308.157.64.28.993.37.354.09.695.134 1.023.134.508 0 .9-.08 1.172-.243.274-.16.41-.408.41-.74 0-.25-.108-.464-.325-.642-.217-.177-.64-.387-1.268-.63-.598-.222-1.023-.416-1.275-.582a1.74 1.74 0 0 1-.562-.566 1.475 1.475 0 0 1-.185-.756c0-.523.213-.936.64-1.24.425-.302 1.01-.453 1.75-.453.692 0 1.368.142 2.028.423l-.346.79c-.644-.265-1.228-.398-1.752-.398-.46 0-.808.073-1.043.217-.234.145-.35.344-.35.598 0 .172.043.318.13.44.09.12.23.236.425.345.196.11.57.268 1.125.475.762.277 1.277.556 1.544.838.27.28.403.634.403 1.06zm4.295 1.87c-.95 0-1.7-.29-2.247-.868-.548-.578-.823-1.38-.823-2.408 0-1.035.255-1.858.765-2.467.51-.61 1.194-.914 2.054-.914.804 0 1.44.266 1.91.795.47.53.703 1.227.703 2.095v.615h-4.425c.02.754.21 1.326.572 1.717.36.39.87.586 1.526.586.69 0 1.375-.145 2.05-.434v.867c-.343.15-.668.256-.975.32a5.483 5.483 0 0 1-1.11.097zm-.264-5.843c-.516 0-.927.168-1.233.504-.306.335-.487.8-.54 1.394h3.356c0-.613-.137-1.083-.41-1.41-.274-.326-.664-.49-1.172-.49zm7.213-.814c.285 0 .54.024.768.07l-.135.904c-.266-.06-.5-.088-.703-.088-.52 0-.964.21-1.333.633-.37.42-.554.946-.554 1.575V178h-.973v-6.422h.803l.11 1.19h.048c.238-.418.526-.74.862-.967a1.94 1.94 0 0 1 1.107-.34zm3.375 6.54l-2.438-6.422h1.043l1.383 3.81c.313.89.496 1.467.55 1.733h.048c.043-.206.18-.635.407-1.285.23-.65.74-2.07 1.538-4.257h1.043L509.14 178H508zm5.578 0h-.973v-6.422h.973V178zm-1.055-8.162c0-.223.055-.386.164-.49a.573.573 0 0 1 .41-.155c.156 0 .29.053.404.16.113.104.17.266.17.485 0 .22-.057.382-.17.49a.567.567 0 0 1-.404.16.562.562 0 0 1-.41-.16c-.11-.108-.165-.27-.165-.49zm5.684 8.28c-.93 0-1.65-.287-2.16-.86-.51-.57-.765-1.38-.765-2.428 0-1.074.26-1.904.777-2.49.517-.586 1.254-.88 2.21-.88.31 0 .62.034.927.1.308.067.55.145.726.235l-.3.826a4.573 4.573 0 0 0-.702-.213 3.14 3.14 0 0 0-.674-.085c-1.305 0-1.957.832-1.957 2.496 0 .79.16 1.395.478 1.817.32.422.79.633 1.416.633.535 0 1.084-.116 1.646-.346v.86c-.43.224-.97.335-1.623.335zm5.858 0c-.95 0-1.698-.29-2.247-.868-.548-.578-.822-1.38-.822-2.408 0-1.035.255-1.858.765-2.467.51-.61 1.194-.914 2.053-.914.805 0 1.442.266 1.91.795.47.53.704 1.227.704 2.095v.615h-4.424c.02.754.21 1.326.57 1.717.362.39.87.586 1.528.586.69 0 1.375-.145 2.05-.434v.867c-.343.15-.67.256-.975.32a5.483 5.483 0 0 1-1.112.097zm-.263-5.843c-.516 0-.927.168-1.234.504-.305.335-.486.8-.54 1.394h3.357c0-.613-.137-1.083-.41-1.41-.274-.326-.664-.49-1.172-.49zm8.425 3.973c0 .598-.222 1.06-.668 1.383-.445.325-1.07.487-1.875.487-.85 0-1.515-.135-1.992-.404v-.902c.31.157.64.28.993.37.354.09.695.134 1.023.134.51 0 .9-.08 1.173-.243.273-.16.41-.408.41-.74 0-.25-.108-.464-.325-.642-.217-.177-.64-.387-1.27-.63-.596-.222-1.02-.416-1.273-.582a1.74 1.74 0 0 1-.563-.566 1.475 1.475 0 0 1-.184-.756c0-.523.213-.936.638-1.24.426-.302 1.01-.453 1.752-.453.692 0 1.368.142 2.028.423l-.346.79c-.645-.265-1.23-.398-1.752-.398-.46 0-.81.073-1.043.217-.234.145-.35.344-.35.598 0 .172.042.318.13.44.088.12.23.236.425.345.195.11.57.268 1.125.475.762.277 1.277.556 1.544.838.267.28.4.634.4 1.06z" fill="#FFF"/><path fill="#FFF" opacity=".1" d="M480 200h1v37h-1z"/><path d="M458.654 293h-.984l-1.73-5.736a18.516 18.516 0 0 1-.274-.96c-.102-.388-.154-.62-.158-.7-.086.517-.223 1.082-.41 1.695l-1.676 5.7h-.985l-2.28-8.566h1.056l1.353 5.29c.188.743.325 1.415.41 2.016.106-.715.262-1.414.47-2.097l1.534-5.21h1.055l1.61 5.256c.19.605.347 1.29.476 2.05.075-.554.216-1.23.423-2.027l1.348-5.28h1.055l-2.29 8.567zm8.79-3.217c0 1.047-.264 1.864-.792 2.452-.527.588-1.256.882-2.185.882-.574 0-1.084-.135-1.53-.404a2.668 2.668 0 0 1-1.03-1.16c-.243-.504-.364-1.094-.364-1.77 0-1.047.262-1.862.785-2.446.524-.584 1.25-.876 2.18-.876.898 0 1.612.3 2.14.897.53.598.795 1.407.795 2.426zm-4.893 0c0 .82.165 1.446.493 1.875.328.43.81.645 1.447.645s1.12-.214 1.45-.642c.33-.427.496-1.053.496-1.877 0-.816-.165-1.436-.496-1.86-.33-.424-.817-.636-1.46-.636-.638 0-1.12.21-1.443.627-.324.418-.486 1.04-.486 1.87zm9.528-3.322c.285 0 .54.024.768.07l-.135.904c-.265-.06-.5-.088-.702-.088-.52 0-.964.21-1.333.633-.37.42-.554.946-.554 1.575V293h-.972v-6.422h.803l.113 1.19h.046c.238-.418.525-.74.86-.967a1.94 1.94 0 0 1 1.108-.34zm6.1 5.68h-.053c-.45.65-1.12.977-2.016.977-.84 0-1.494-.287-1.96-.86-.467-.575-.7-1.392-.7-2.45 0-1.06.234-1.88.702-2.467.47-.586 1.12-.88 1.957-.88.87 0 1.538.317 2.003.95h.076l-.042-.463-.023-.45v-2.614h.973V293h-.79l-.13-.86zm-1.946.163c.664 0 1.146-.18 1.445-.542.3-.36.448-.944.448-1.748v-.205c0-.91-.15-1.56-.454-1.95-.302-.387-.785-.582-1.45-.582-.57 0-1.006.222-1.31.665-.302.444-.453 1.07-.453 1.878 0 .82.15 1.44.45 1.858.302.418.743.627 1.325.627zm7.916.814c-.418 0-.8-.077-1.145-.23a2.154 2.154 0 0 1-.87-.713h-.07c.046.375.07.73.07 1.066v2.643h-.973v-9.305h.79l.136.88h.047c.25-.353.54-.606.873-.763a2.654 2.654 0 0 1 1.142-.234c.852 0 1.51.292 1.972.874.463.582.694 1.398.694 2.45 0 1.054-.235 1.873-.706 2.457-.47.585-1.124.877-1.96.877zm-.14-5.83c-.656 0-1.13.182-1.424.545-.293.363-.443.94-.45 1.734v.217c0 .903.15 1.548.45 1.937.3.388.783.583 1.447.583.556 0 .99-.225 1.305-.674.314-.45.472-1.07.472-1.86 0-.8-.158-1.414-.472-1.84-.314-.43-.757-.643-1.327-.643zm7.435-.826c.286 0 .54.024.768.07l-.134.904c-.265-.06-.5-.088-.703-.088-.52 0-.964.21-1.333.633-.37.42-.554.946-.554 1.575V293h-.972v-6.422h.802l.112 1.19h.047c.238-.418.525-.74.86-.967a1.94 1.94 0 0 1 1.108-.34zm4.442 6.657c-.95 0-1.698-.29-2.247-.867-.55-.578-.824-1.38-.824-2.408 0-1.035.255-1.858.765-2.467.51-.61 1.193-.914 2.053-.914.805 0 1.44.266 1.91.795.47.53.703 1.227.703 2.095v.615h-4.424c.02.754.21 1.326.572 1.717.36.39.87.586 1.526.586.69 0 1.375-.145 2.05-.434v.867c-.343.15-.668.256-.975.32a5.483 5.483 0 0 1-1.11.097zm-.264-5.842c-.515 0-.926.168-1.232.504-.307.335-.488.8-.542 1.394h3.357c0-.613-.137-1.083-.41-1.41-.273-.326-.664-.49-1.172-.49zm8.427 3.973c0 .598-.223 1.06-.668 1.383-.446.325-1.07.487-1.876.487-.852 0-1.516-.135-1.992-.404v-.902c.308.157.64.28.993.37.353.09.694.134 1.022.134.508 0 .9-.08 1.172-.243.273-.16.41-.408.41-.74 0-.25-.11-.464-.326-.642-.217-.177-.64-.387-1.268-.63-.598-.222-1.023-.416-1.275-.582a1.74 1.74 0 0 1-.56-.566 1.475 1.475 0 0 1-.186-.756c0-.523.213-.936.64-1.24.425-.302 1.01-.453 1.75-.453.692 0 1.368.142 2.028.423l-.346.79c-.644-.265-1.228-.398-1.752-.398-.46 0-.808.073-1.043.217-.233.145-.35.344-.35.598 0 .172.044.318.132.44.088.12.23.236.425.345.195.11.57.268 1.125.475.76.277 1.276.556 1.544.837.267.282.4.635.4 1.06zm5.724 0c0 .598-.22 1.06-.666 1.383-.446.325-1.07.487-1.875.487-.853 0-1.517-.135-1.994-.404v-.902c.31.157.64.28.993.37.353.09.694.134 1.022.134.508 0 .898-.08 1.172-.243.273-.16.41-.408.41-.74 0-.25-.108-.464-.325-.642-.218-.177-.64-.387-1.27-.63-.597-.222-1.022-.416-1.274-.582a1.74 1.74 0 0 1-.563-.566 1.475 1.475 0 0 1-.184-.756c0-.523.212-.936.637-1.24.426-.302 1.01-.453 1.752-.453.69 0 1.367.142 2.027.423l-.346.79c-.644-.265-1.227-.398-1.75-.398-.462 0-.81.073-1.044.217-.234.145-.35.344-.35.598 0 .172.042.318.13.44.088.12.23.236.425.345.196.11.57.268 1.126.475.762.277 1.277.556 1.544.837.268.282.4.635.4 1.06z" fill="#FFF"/><path d="M473 245v30h16v-30h-16zm14 28h-12v-12h12v12zm0-14h-12v-12h12v12zm-6 10c1.2 0 2-.8 2-2s-.8-2-2-2-2 .8-2 2 .8 2 2 2zm0-14c1.2 0 2-.8 2-2s-.8-2-2-2-2 .8-2 2 .8 2 2 2z" fill="#FFF" fill-rule="nonzero" opacity=".3"/></g></svg>