<svg width="800" height="500" viewBox="0 0 800 500" xmlns="http://www.w3.org/2000/svg" style="background:#FFF"><title>isolate_vol</title><g fill="none" fill-rule="evenodd"><path fill="#FBFBFC" d="M0 0h800v500H0z"/><path d="M107.524 84.725c0 2.35-.67 4.15-2.006 5.4-1.338 1.25-3.27 1.875-5.796 1.875H95.68V77.723h4.48c2.332 0 4.142.615 5.43 1.845 1.29 1.23 1.934 2.95 1.934 5.157zm-3.144.078c0-3.067-1.354-4.6-4.063-4.6h-1.61V89.5h1.298c2.917 0 4.375-1.566 4.375-4.697zm10.39-1.807c-.63 0-1.126.2-1.484.6-.358.4-.563.97-.615 1.705h4.18c-.012-.735-.204-1.303-.576-1.703-.37-.4-.872-.6-1.503-.6zm.42 9.2c-1.757 0-3.13-.486-4.12-1.456-.99-.97-1.485-2.344-1.485-4.12 0-1.83.457-3.245 1.372-4.244.915-1 2.18-1.5 3.794-1.5 1.544 0 2.745.44 3.604 1.32.86.878 1.29 2.092 1.29 3.642v1.445h-7.04c.03.847.282 1.507.75 1.983.47.475 1.127.713 1.973.713a8.19 8.19 0 0 0 1.865-.207 9.333 9.333 0 0 0 1.836-.654v2.304c-.52.26-1.077.454-1.67.58-.592.128-1.315.19-2.168.19zm12.872 0c-1.283 0-2.29-.466-3.018-1.397h-.156c.104.91.156 1.438.156 1.58v4.425h-2.98V81.082h2.423l.42 1.416h.137c.697-1.08 1.728-1.62 3.096-1.62 1.29 0 2.298.497 3.027 1.493.73.997 1.094 2.38 1.094 4.15 0 1.167-.17 2.18-.512 3.04-.342.858-.828 1.512-1.46 1.96-.63.45-1.374.675-2.226.675zm-.88-8.936c-.735 0-1.272.226-1.61.678-.34.453-.515 1.2-.528 2.242v.322c0 1.172.174 2.012.522 2.52.35.507.9.76 1.656.76 1.334 0 2.002-1.1 2.002-3.3 0-1.074-.165-1.88-.494-2.417-.328-.537-.844-.805-1.547-.805zM137.7 92h-2.978V76.805h2.978V92zm5.498-5.48c0 1.082.178 1.9.532 2.453.355.553.933.83 1.734.83.794 0 1.365-.275 1.714-.825.348-.55.522-1.37.522-2.457 0-1.08-.176-1.89-.527-2.43-.352-.54-.928-.81-1.73-.81-.793 0-1.366.268-1.717.805-.352.537-.528 1.35-.528 2.436zm7.55 0c0 1.78-.47 3.17-1.407 4.17-.937 1.004-2.242 1.505-3.915 1.505-1.048 0-1.973-.23-2.774-.688a4.58 4.58 0 0 1-1.844-1.978c-.43-.86-.645-1.863-.645-3.01 0-1.782.467-3.17 1.398-4.16.93-.988 2.24-1.483 3.925-1.483 1.05 0 1.973.228 2.774.684.8.456 1.416 1.11 1.846 1.963.43.853.644 1.853.644 2.998zm.497-5.438h3.262l2.06 6.143c.176.533.297 1.165.362 1.894h.057c.072-.67.212-1.303.42-1.895l2.022-6.143h3.192l-4.62 12.314c-.422 1.14-1.026 1.993-1.81 2.56-.785.565-1.7.85-2.75.85-.514 0-1.018-.057-1.513-.167v-2.365c.357.085.747.127 1.17.127.528 0 .99-.16 1.382-.483.394-.323.702-.81.923-1.46l.176-.538-4.335-10.84zM176.313 92l-.576-1.484h-.078c-.502.63-1.018 1.07-1.55 1.313-.53.243-1.22.365-2.074.365-1.048 0-1.873-.3-2.475-.898-.602-.6-.903-1.452-.903-2.56 0-1.158.405-2.012 1.216-2.562.81-.55 2.033-.855 3.667-.913l1.895-.06v-.477c0-1.107-.567-1.66-1.7-1.66-.872 0-1.897.263-3.076.79l-.987-2.01c1.256-.66 2.65-.988 4.18-.988 1.464 0 2.587.32 3.37.957.78.638 1.17 1.61 1.17 2.91V92h-2.08zm-.878-5.06l-1.153.04c-.866.027-1.51.183-1.933.47-.425.286-.636.722-.636 1.308 0 .84.482 1.26 1.445 1.26.69 0 1.24-.2 1.654-.596.414-.397.62-.925.62-1.582v-.9zm18.837 1.818c0 1.12-.39 1.972-1.167 2.558-.778.586-1.94.88-3.49.88-.795 0-1.472-.054-2.032-.162a7.683 7.683 0 0 1-1.572-.473V89.1c.554.26 1.177.478 1.87.654.694.176 1.305.264 1.832.264 1.08 0 1.62-.313 1.62-.938a.782.782 0 0 0-.214-.57c-.143-.148-.39-.314-.742-.5-.352-.185-.82-.4-1.406-.65-.84-.35-1.457-.676-1.85-.975-.395-.3-.68-.643-.86-1.03-.18-.388-.27-.865-.27-1.43 0-.97.377-1.722 1.13-2.252.75-.53 1.817-.796 3.197-.796 1.315 0 2.595.286 3.838.86l-.898 2.148a16.527 16.527 0 0 0-1.533-.576 4.815 4.815 0 0 0-1.455-.226c-.88 0-1.32.238-1.32.713 0 .267.142.498.425.693.283.196.903.485 1.86.87.853.344 1.478.667 1.875.966.397.3.69.645.88 1.035.188.392.282.857.282 1.398zm6.846-5.762c-.63 0-1.126.2-1.484.6-.358.4-.563.97-.615 1.705h4.178c-.013-.735-.205-1.303-.576-1.703-.37-.4-.872-.6-1.504-.6zm.42 9.2c-1.758 0-3.13-.486-4.12-1.456-.99-.97-1.485-2.344-1.485-4.12 0-1.83.457-3.245 1.372-4.244.914-1 2.18-1.5 3.794-1.5 1.542 0 2.743.44 3.602 1.32.86.878 1.29 2.092 1.29 3.642v1.445h-7.042c.033.847.283 1.507.752 1.983.47.475 1.126.713 1.973.713a8.19 8.19 0 0 0 1.865-.207 9.333 9.333 0 0 0 1.836-.654v2.304c-.52.26-1.077.454-1.67.58-.592.128-1.315.19-2.168.19zm12.97-11.32c.402 0 .738.03 1.005.09l-.225 2.792a3.412 3.412 0 0 0-.88-.098c-.95 0-1.69.244-2.22.733-.53.488-.796 1.17-.796 2.05V92h-2.98V81.082h2.257l.438 1.836h.147a4.104 4.104 0 0 1 1.372-1.48 3.383 3.383 0 0 1 1.88-.56zM220.092 92l-4.16-10.918h3.115l2.11 6.22a11.1 11.1 0 0 1 .44 2.237h.057c.033-.626.18-1.37.44-2.237l2.1-6.22h3.115L223.15 92h-3.057zm8.652-13.74c0-.97.54-1.455 1.62-1.455 1.082 0 1.622.485 1.622 1.455 0 .462-.135.822-.405 1.08-.27.256-.675.385-1.216.385-1.08 0-1.62-.49-1.62-1.465zM231.85 92h-2.978V81.082h2.98V92zm7.56.195c-3.4 0-5.098-1.865-5.098-5.595 0-1.856.462-3.273 1.386-4.253.925-.98 2.25-1.47 3.975-1.47 1.263 0 2.396.247 3.398.742l-.878 2.304c-.468-.19-.905-.344-1.308-.464a4.216 4.216 0 0 0-1.21-.18c-1.55 0-2.325 1.1-2.325 3.3 0 2.136.773 3.203 2.323 3.203a5.3 5.3 0 0 0 1.592-.23 5.747 5.747 0 0 0 1.464-.717v2.55a4.8 4.8 0 0 1-1.46.634c-.492.117-1.112.175-1.86.175zm10.37-9.2c-.63 0-1.126.2-1.484.602-.358.4-.563.968-.615 1.704h4.18c-.013-.735-.205-1.303-.576-1.703-.37-.4-.872-.6-1.504-.6zm.42 9.2c-1.758 0-3.13-.485-4.12-1.455-.99-.97-1.485-2.344-1.485-4.12 0-1.83.457-3.245 1.372-4.244.915-1 2.18-1.5 3.794-1.5 1.544 0 2.745.44 3.604 1.32.86.878 1.29 2.092 1.29 3.642v1.445h-7.042c.033.847.284 1.507.752 1.983.47.475 1.127.713 1.973.713a8.19 8.19 0 0 0 1.865-.207 9.333 9.333 0 0 0 1.836-.654v2.304c-.52.26-1.077.454-1.67.58-.592.128-1.315.19-2.168.19zM271.245 92l-.84-3.818-1.133-4.825h-.068L267.212 92h-3.203l-3.107-10.918h2.97l1.26 4.834c.2.866.406 2.06.614 3.584h.06c.025-.495.14-1.28.34-2.354l.157-.83 1.347-5.234h3.283l1.28 5.234c.025.144.066.355.12.635.056.28.11.58.162.895.052.315.1.625.142.927.042.303.066.546.073.728h.06c.057-.47.16-1.112.31-1.93.15-.816.258-1.368.323-1.654l1.31-4.834h2.92L274.486 92h-3.242zm8.018-13.74c0-.97.54-1.455 1.62-1.455 1.082 0 1.622.485 1.622 1.455 0 .462-.135.822-.405 1.08-.27.256-.676.385-1.216.385-1.08 0-1.62-.49-1.62-1.465zM282.368 92h-2.978V81.082h2.978V92zm7.725-2.178c.52 0 1.146-.114 1.875-.342v2.217c-.742.332-1.654.498-2.735.498-1.19 0-2.06-.3-2.602-.903-.543-.602-.815-1.506-.815-2.71v-5.264h-1.425v-1.26l1.64-.996.86-2.304h1.904v2.324h3.057v2.236h-3.056v5.264c0 .423.12.736.356.938.238.2.552.302.943.302zM304.253 92h-2.98v-6.377c0-1.575-.585-2.363-1.756-2.363-.834 0-1.436.283-1.807.85-.37.566-.557 1.484-.557 2.753V92h-2.978V76.805h2.978V79.9c0 .24-.022.808-.068 1.7l-.068.88h.156c.664-1.07 1.72-1.603 3.164-1.603 1.282 0 2.256.345 2.92 1.035.664.69.996 1.68.996 2.97V92zm10.86 0l-4.16-10.918h3.114l2.11 6.22a11.1 11.1 0 0 1 .44 2.237h.058c.032-.626.18-1.37.44-2.237l2.1-6.22h3.114L318.17 92h-3.058zm8.652-13.74c0-.97.54-1.455 1.62-1.455s1.622.485 1.622 1.455c0 .462-.135.822-.405 1.08-.27.256-.676.385-1.216.385-1.08 0-1.62-.49-1.62-1.465zM326.87 92h-2.978V81.082h2.978V92zm7.647-9.004c-.632 0-1.127.2-1.485.6-.358.4-.563.97-.615 1.705h4.18c-.013-.735-.205-1.303-.576-1.703-.37-.4-.872-.6-1.503-.6zm.42 9.2c-1.758 0-3.132-.486-4.122-1.456-.99-.97-1.484-2.344-1.484-4.12 0-1.83.458-3.245 1.373-4.244.915-1 2.18-1.5 3.794-1.5 1.543 0 2.744.44 3.604 1.32.86.878 1.29 2.092 1.29 3.642v1.445h-7.04c.03.847.282 1.507.75 1.983.47.475 1.127.713 1.973.713a8.19 8.19 0 0 0 1.865-.207 9.333 9.333 0 0 0 1.836-.654v2.304c-.52.26-1.077.454-1.67.58-.592.128-1.315.19-2.167.19zm15.45-.196l-.84-3.818-1.134-4.825h-.068L346.353 92h-3.204l-3.106-10.918h2.97l1.258 4.834c.202.866.407 2.06.616 3.584h.058c.026-.495.14-1.28.342-2.354l.156-.83 1.348-5.234h3.28l1.28 5.234c.027.144.067.355.123.635a38.176 38.176 0 0 1 .303 1.82c.042.305.066.548.073.73h.06c.058-.47.162-1.112.312-1.93.15-.816.257-1.368.322-1.654l1.31-4.834h2.918L353.628 92h-3.242zm7.176-4.14v-2.442h5.245v2.44h-5.245zm9.776-1.34c0 1.082.176 1.9.53 2.453.356.553.934.83 1.734.83.795 0 1.366-.275 1.714-.825.35-.55.523-1.37.523-2.457 0-1.08-.175-1.89-.527-2.43-.35-.54-.927-.81-1.728-.81-.794 0-1.367.268-1.72.805-.35.537-.526 1.35-.526 2.436zm7.548 0c0 1.78-.47 3.17-1.407 4.17-.936 1.004-2.24 1.505-3.915 1.505-1.048 0-1.972-.23-2.773-.688a4.58 4.58 0 0 1-1.846-1.978c-.43-.86-.644-1.863-.644-3.01 0-1.782.465-3.17 1.396-4.16.93-.988 2.24-1.483 3.926-1.483 1.048 0 1.973.228 2.773.684.8.456 1.416 1.11 1.846 1.963.43.853.645 1.853.645 2.998zm12.54 5.48h-2.98v-6.377c0-.788-.14-1.38-.42-1.772-.28-.393-.726-.59-1.338-.59-.833 0-1.435.278-1.806.835-.37.556-.557 1.48-.557 2.768V92h-2.978V81.082h2.274l.4 1.397h.166c.332-.53.79-.928 1.373-1.198.582-.27 1.245-.405 1.987-.405 1.27 0 2.233.343 2.89 1.03.658.687.987 1.678.987 2.974V92zm6.044 0h-2.98V76.805h2.98V92zm1.562-10.918h3.262l2.06 6.143c.176.533.297 1.165.362 1.894h.058c.072-.67.212-1.303.42-1.895l2.022-6.143h3.193l-4.618 12.314c-.423 1.14-1.027 1.993-1.812 2.56-.784.565-1.7.85-2.75.85-.513 0-1.017-.057-1.512-.167v-2.365c.358.085.748.127 1.172.127.527 0 .988-.16 1.38-.483.395-.323.703-.81.924-1.46l.176-.538-4.336-10.84zM420.104 92l-.578-1.484h-.078c-.5.63-1.017 1.07-1.548 1.313-.53.243-1.222.365-2.075.365-1.048 0-1.873-.3-2.475-.898-.603-.6-.904-1.452-.904-2.56 0-1.158.406-2.012 1.216-2.562.81-.55 2.033-.855 3.667-.913l1.894-.06v-.477c0-1.107-.567-1.66-1.7-1.66-.872 0-1.897.263-3.076.79l-.986-2.01c1.256-.66 2.65-.988 4.18-.988 1.464 0 2.587.32 3.37.957.78.638 1.17 1.61 1.17 2.91V92h-2.08zm-.88-5.06l-1.153.04c-.865.027-1.51.183-1.932.47-.423.286-.635.722-.635 1.308 0 .84.482 1.26 1.445 1.26.69 0 1.242-.2 1.656-.596.413-.397.62-.925.62-1.582v-.9zm10.46 5.255c-3.4 0-5.1-1.865-5.1-5.595 0-1.856.463-3.273 1.388-4.253.924-.98 2.25-1.47 3.974-1.47 1.263 0 2.396.247 3.4.742l-.88 2.304c-.47-.19-.905-.344-1.31-.464a4.216 4.216 0 0 0-1.21-.18c-1.55 0-2.324 1.1-2.324 3.3 0 2.136.775 3.203 2.324 3.203a5.3 5.3 0 0 0 1.592-.23 5.747 5.747 0 0 0 1.465-.717v2.55a4.8 4.8 0 0 1-1.46.634c-.492.117-1.112.175-1.86.175zm10.282 0c-3.4 0-5.098-1.865-5.098-5.595 0-1.856.462-3.273 1.387-4.253.924-.98 2.25-1.47 3.974-1.47 1.263 0 2.395.247 3.398.742l-.88 2.304c-.468-.19-.904-.344-1.308-.464a4.216 4.216 0 0 0-1.21-.18c-1.55 0-2.325 1.1-2.325 3.3 0 2.136.775 3.203 2.324 3.203a5.3 5.3 0 0 0 1.59-.23 5.747 5.747 0 0 0 1.466-.717v2.55a4.8 4.8 0 0 1-1.46.634c-.49.117-1.11.175-1.86.175zm10.37-9.2c-.63 0-1.125.2-1.483.602-.36.4-.564.968-.616 1.704h4.18c-.013-.735-.205-1.303-.576-1.703-.37-.4-.872-.6-1.503-.6zm.42 9.2c-1.757 0-3.13-.485-4.12-1.455-.99-.97-1.485-2.344-1.485-4.12 0-1.83.46-3.245 1.373-4.244.915-1 2.18-1.5 3.794-1.5 1.543 0 2.745.44 3.604 1.32.86.878 1.29 2.092 1.29 3.642v1.445h-7.04c.03.847.282 1.507.75 1.983.47.475 1.127.713 1.974.713a8.19 8.19 0 0 0 1.865-.207 9.333 9.333 0 0 0 1.835-.654v2.304c-.52.26-1.078.454-1.67.58-.593.128-1.315.19-2.168.19zm14.493-3.437c0 1.12-.39 1.972-1.168 2.558-.778.586-1.942.88-3.49.88-.795 0-1.473-.054-2.032-.162a7.683 7.683 0 0 1-1.573-.473V89.1c.554.26 1.177.478 1.87.654.694.176 1.304.264 1.83.264 1.082 0 1.623-.313 1.623-.938a.782.782 0 0 0-.215-.57c-.144-.148-.39-.314-.742-.5-.352-.185-.82-.4-1.407-.65-.84-.35-1.456-.676-1.85-.975-.394-.3-.68-.643-.86-1.03-.18-.388-.268-.865-.268-1.43 0-.97.376-1.722 1.128-2.252.752-.53 1.818-.796 3.198-.796 1.315 0 2.594.286 3.838.86l-.9 2.148a16.527 16.527 0 0 0-1.532-.576 4.815 4.815 0 0 0-1.455-.226c-.88 0-1.318.238-1.318.713 0 .267.14.498.425.693.283.196.903.485 1.86.87.853.344 1.478.667 1.875.966.397.3.69.645.88 1.035.188.392.282.857.282 1.398zm9.94 0c0 1.12-.39 1.972-1.167 2.558-.778.586-1.94.88-3.49.88-.795 0-1.472-.054-2.032-.162a7.683 7.683 0 0 1-1.57-.473V89.1c.552.26 1.175.478 1.87.654.692.176 1.303.264 1.83.264 1.08 0 1.62-.313 1.62-.938a.782.782 0 0 0-.214-.57c-.143-.148-.39-.314-.742-.5-.352-.185-.82-.4-1.406-.65-.84-.35-1.457-.676-1.85-.975-.395-.3-.68-.643-.86-1.03-.18-.388-.27-.865-.27-1.43 0-.97.377-1.722 1.13-2.252.75-.53 1.817-.796 3.197-.796 1.315 0 2.595.286 3.838.86l-.898 2.148a16.527 16.527 0 0 0-1.533-.576 4.815 4.815 0 0 0-1.455-.226c-.88 0-1.32.238-1.32.713 0 .267.143.498.426.693.283.196.903.485 1.86.87.853.344 1.478.667 1.875.966.397.3.69.645.88 1.035.188.392.282.857.282 1.398zM489.644 92l-.577-1.484h-.078c-.502.63-1.018 1.07-1.55 1.313-.53.243-1.22.365-2.074.365-1.048 0-1.873-.3-2.475-.898-.602-.6-.903-1.452-.903-2.56 0-1.158.406-2.012 1.216-2.562.81-.55 2.033-.855 3.667-.913l1.895-.06v-.477c0-1.107-.567-1.66-1.7-1.66-.872 0-1.897.263-3.076.79l-.987-2.01c1.256-.66 2.65-.988 4.18-.988 1.464 0 2.588.32 3.37.957.78.638 1.17 1.61 1.17 2.91V92h-2.08zm-.88-5.06l-1.152.04c-.866.027-1.51.183-1.933.47-.424.286-.636.722-.636 1.308 0 .84.482 1.26 1.445 1.26.69 0 1.24-.2 1.655-.596.413-.397.62-.925.62-1.582v-.9zm10.46 5.255c-3.4 0-5.098-1.865-5.098-5.595 0-1.856.462-3.273 1.387-4.253.924-.98 2.25-1.47 3.974-1.47 1.263 0 2.396.247 3.4.742l-.88 2.304c-.47-.19-.905-.344-1.31-.464a4.216 4.216 0 0 0-1.21-.18c-1.55 0-2.324 1.1-2.324 3.3 0 2.136.775 3.203 2.324 3.203a5.3 5.3 0 0 0 1.592-.23 5.747 5.747 0 0 0 1.464-.717v2.55a4.8 4.8 0 0 1-1.46.634c-.492.117-1.112.175-1.86.175zm11.943-11.318c.404 0 .74.03 1.006.088l-.225 2.793a3.412 3.412 0 0 0-.88-.098c-.95 0-1.69.244-2.22.733-.53.488-.796 1.17-.796 2.05V92h-2.98V81.082h2.257l.44 1.836h.145a4.104 4.104 0 0 1 1.372-1.48 3.383 3.383 0 0 1 1.88-.56zm4.96 5.644c0 1.082.178 1.9.533 2.453.355.553.933.83 1.734.83.794 0 1.365-.275 1.713-.825.35-.55.523-1.37.523-2.457 0-1.08-.176-1.89-.527-2.43-.352-.54-.928-.81-1.73-.81-.793 0-1.366.268-1.718.805-.35.537-.527 1.35-.527 2.436zm7.55 0c0 1.78-.47 3.17-1.406 4.17-.937 1.004-2.242 1.505-3.916 1.505-1.048 0-1.972-.23-2.773-.688a4.58 4.58 0 0 1-1.845-1.978c-.43-.86-.644-1.863-.644-3.01 0-1.782.466-3.17 1.397-4.16.93-.988 2.24-1.483 3.926-1.483 1.048 0 1.973.228 2.774.684.8.456 1.416 1.11 1.845 1.963.43.853.645 1.853.645 2.998zm10.078 2.238c0 1.12-.39 1.972-1.167 2.558-.778.586-1.942.88-3.49.88-.796 0-1.473-.054-2.033-.162a7.683 7.683 0 0 1-1.572-.473V89.1c.554.26 1.177.478 1.87.654.694.176 1.304.264 1.83.264 1.082 0 1.622-.313 1.622-.938a.782.782 0 0 0-.214-.57c-.143-.148-.39-.314-.742-.5-.35-.185-.82-.4-1.406-.65-.84-.35-1.457-.676-1.85-.975-.394-.3-.68-.643-.86-1.03-.18-.388-.268-.865-.268-1.43 0-.97.376-1.722 1.128-2.252.752-.53 1.818-.796 3.198-.796 1.315 0 2.594.286 3.838.86l-.9 2.148a16.527 16.527 0 0 0-1.532-.576 4.815 4.815 0 0 0-1.455-.226c-.878 0-1.317.238-1.317.713 0 .267.14.498.424.693.284.196.904.485 1.86.87.854.344 1.48.667 1.876.966.397.3.69.645.88 1.035.187.392.282.857.282 1.398zm9.94 0c0 1.12-.388 1.972-1.166 2.558-.78.586-1.942.88-3.492.88-.794 0-1.47-.054-2.03-.162a7.683 7.683 0 0 1-1.573-.473V89.1c.553.26 1.176.478 1.87.654.693.176 1.303.264 1.83.264 1.08 0 1.622-.313 1.622-.938a.782.782 0 0 0-.215-.57c-.143-.148-.39-.314-.742-.5-.352-.185-.82-.4-1.406-.65-.84-.35-1.457-.676-1.85-.975-.395-.3-.68-.643-.86-1.03-.18-.388-.27-.865-.27-1.43 0-.97.377-1.722 1.13-2.252.75-.53 1.817-.796 3.197-.796 1.316 0 2.596.286 3.84.86l-.9 2.148a16.527 16.527 0 0 0-1.533-.576 4.815 4.815 0 0 0-1.455-.226c-.88 0-1.318.238-1.318.713 0 .267.142.498.425.693.282.196.902.485 1.86.87.852.344 1.477.667 1.874.966.397.3.69.645.88 1.035.188.392.282.857.282 1.398zM558.15 92l-.577-1.484h-.078c-.5.63-1.017 1.07-1.548 1.313-.53.243-1.222.365-2.075.365-1.048 0-1.873-.3-2.476-.898-.602-.6-.903-1.452-.903-2.56 0-1.158.405-2.012 1.216-2.562.81-.55 2.032-.855 3.666-.913l1.895-.06v-.477c0-1.107-.566-1.66-1.7-1.66-.87 0-1.896.263-3.075.79l-.986-2.01c1.255-.66 2.65-.988 4.178-.988 1.465 0 2.588.32 3.37.957.78.638 1.17 1.61 1.17 2.91V92h-2.08zm-.88-5.06l-1.152.04c-.866.027-1.51.183-1.933.47-.424.286-.635.722-.635 1.308 0 .84.482 1.26 1.445 1.26.69 0 1.242-.2 1.655-.596.414-.397.62-.925.62-1.582v-.9zM573.375 92h-2.978v-6.377c0-.788-.14-1.38-.42-1.772-.28-.393-.726-.59-1.338-.59-.834 0-1.436.278-1.807.835-.37.556-.556 1.48-.556 2.768V92h-2.978V81.082h2.275l.402 1.397h.166c.332-.53.79-.928 1.372-1.198.582-.27 1.245-.405 1.987-.405 1.27 0 2.233.343 2.89 1.03.658.687.987 1.678.987 2.974V92zm10.635-5.48c0 1.082.176 1.9.53 2.453.356.553.934.83 1.734.83.795 0 1.366-.275 1.714-.825.35-.55.523-1.37.523-2.457 0-1.08-.175-1.89-.527-2.43-.35-.54-.927-.81-1.728-.81-.794 0-1.367.268-1.72.805-.35.537-.526 1.35-.526 2.436zm7.548 0c0 1.78-.47 3.17-1.407 4.17-.936 1.004-2.24 1.505-3.915 1.505-1.048 0-1.972-.23-2.773-.688a4.58 4.58 0 0 1-1.846-1.978c-.43-.86-.644-1.863-.644-3.01 0-1.782.465-3.17 1.396-4.16.93-.988 2.24-1.483 3.926-1.483 1.048 0 1.973.228 2.773.684.8.456 1.416 1.11 1.846 1.963.43.853.645 1.853.645 2.998zm8.554-5.643c.404 0 .74.03 1.006.088l-.224 2.793a3.412 3.412 0 0 0-.88-.098c-.95 0-1.69.244-2.22.733-.532.488-.797 1.17-.797 2.05V92h-2.978V81.082h2.254l.44 1.836h.146a4.104 4.104 0 0 1 1.372-1.48 3.383 3.383 0 0 1 1.88-.56zm12.295.205v1.514l-1.71.44a2.98 2.98 0 0 1 .47 1.64c0 1.172-.41 2.085-1.226 2.74-.816.653-1.95.98-3.402.98l-.537-.03-.438-.048c-.306.235-.46.495-.46.782 0 .43.547.644 1.64.644h1.857c1.197 0 2.11.257 2.738.772.628.514.942 1.27.942 2.265 0 1.277-.532 2.267-1.596 2.97-1.065.703-2.593 1.055-4.585 1.055-1.525 0-2.69-.266-3.493-.796-.804-.532-1.206-1.276-1.206-2.233 0-.657.206-1.207.617-1.65.41-.443 1.012-.76 1.806-.947a1.993 1.993 0 0 1-.8-.64c-.228-.296-.342-.61-.342-.942 0-.417.12-.764.362-1.04.24-.277.59-.55 1.045-.816a2.93 2.93 0 0 1-1.362-1.19c-.336-.548-.503-1.193-.503-1.935 0-1.19.387-2.112 1.162-2.763.775-.652 1.88-.977 3.32-.977.306 0 .67.028 1.09.083.42.055.687.096.805.122h3.807zm-8.428 12.46c0 .41.196.733.59.968.394.234.946.35 1.656.35 1.067 0 1.904-.145 2.51-.438.605-.293.908-.693.908-1.2 0-.41-.18-.695-.538-.85-.358-.157-.91-.235-1.66-.235h-1.543c-.547 0-1.004.128-1.372.385-.367.258-.55.598-.55 1.02zm1.083-8.886c0 .593.136 1.06.406 1.406.27.346.68.518 1.234.518.56 0 .97-.172 1.23-.517.26-.346.39-.814.39-1.407 0-1.315-.54-1.972-1.62-1.972-1.094 0-1.64.657-1.64 1.972zM621.138 92l-.576-1.484h-.08c-.5.63-1.016 1.07-1.546 1.313-.53.243-1.223.365-2.076.365-1.048 0-1.873-.3-2.475-.898-.602-.6-.904-1.452-.904-2.56 0-1.158.407-2.012 1.217-2.562.81-.55 2.033-.855 3.667-.913l1.895-.06v-.477c0-1.107-.568-1.66-1.7-1.66-.873 0-1.898.263-3.077.79l-.986-2.01c1.257-.66 2.65-.988 4.18-.988 1.465 0 2.588.32 3.37.957.78.638 1.17 1.61 1.17 2.91V92h-2.08zm-.88-5.06l-1.152.04c-.865.027-1.51.183-1.933.47-.423.286-.635.722-.635 1.308 0 .84.482 1.26 1.445 1.26.69 0 1.242-.2 1.656-.596.412-.397.62-.925.62-1.582v-.9zM636.363 92h-2.978v-6.377c0-.788-.14-1.38-.42-1.772-.28-.393-.726-.59-1.338-.59-.833 0-1.436.278-1.807.835-.372.556-.557 1.48-.557 2.768V92h-2.98V81.082h2.277l.4 1.397h.166c.332-.53.79-.928 1.372-1.198.583-.27 1.245-.405 1.987-.405 1.27 0 2.233.343 2.89 1.03.66.687.987 1.678.987 2.974V92zm2.94-13.74c0-.97.54-1.455 1.62-1.455 1.082 0 1.622.485 1.622 1.455 0 .462-.135.822-.405 1.08-.272.256-.677.385-1.217.385-1.08 0-1.62-.49-1.62-1.465zM642.407 92h-2.978V81.082h2.977V92zm10.723 0h-8.623v-1.758l5.058-6.885h-4.755v-2.275h8.144v1.934l-4.922 6.71h5.098V92zm9.092 0l-.576-1.484h-.08c-.5.63-1.016 1.07-1.546 1.313-.53.243-1.223.365-2.076.365-1.048 0-1.873-.3-2.475-.898-.603-.6-.905-1.452-.905-2.56 0-1.158.406-2.012 1.216-2.562.812-.55 2.034-.855 3.668-.913l1.895-.06v-.477c0-1.107-.567-1.66-1.7-1.66-.872 0-1.897.263-3.076.79l-.986-2.01c1.258-.66 2.65-.988 4.18-.988 1.466 0 2.59.32 3.37.957.78.638 1.172 1.61 1.172 2.91V92h-2.08zm-.88-5.06l-1.152.04c-.865.027-1.51.183-1.933.47-.423.286-.635.722-.635 1.308 0 .84.482 1.26 1.445 1.26.69 0 1.242-.2 1.656-.596.413-.397.62-.925.62-1.582v-.9zm10.626 2.882c.52 0 1.146-.114 1.875-.342v2.217c-.742.332-1.654.498-2.735.498-1.19 0-2.06-.3-2.602-.903-.544-.602-.816-1.506-.816-2.71v-5.264h-1.425v-1.26l1.64-.996.86-2.304h1.904v2.324h3.056v2.236h-3.057v5.264c0 .423.118.736.355.938.238.2.552.302.943.302zm3.955-11.562c0-.97.54-1.455 1.62-1.455 1.082 0 1.622.485 1.622 1.455 0 .462-.135.822-.405 1.08-.27.256-.676.385-1.216.385-1.08 0-1.62-.49-1.62-1.465zM679.028 92h-2.978V81.082h2.978V92zm5.498-5.48c0 1.082.178 1.9.533 2.453.353.553.93.83 1.732.83.794 0 1.366-.275 1.714-.825.348-.55.522-1.37.522-2.457 0-1.08-.175-1.89-.527-2.43-.35-.54-.927-.81-1.728-.81-.794 0-1.367.268-1.718.805-.352.537-.528 1.35-.528 2.436zm7.55 0c0 1.78-.47 3.17-1.407 4.17-.94 1.004-2.244 1.505-3.917 1.505-1.048 0-1.973-.23-2.774-.688a4.58 4.58 0 0 1-1.846-1.978c-.43-.86-.645-1.863-.645-3.01 0-1.782.465-3.17 1.396-4.16.93-.988 2.24-1.483 3.926-1.483 1.048 0 1.972.228 2.773.684.8.456 1.416 1.11 1.846 1.963.43.853.645 1.853.645 2.998zM704.613 92h-2.978v-6.377c0-.788-.14-1.38-.42-1.772-.28-.393-.726-.59-1.338-.59-.833 0-1.436.278-1.807.835-.37.556-.555 1.48-.555 2.768V92h-2.98V81.082h2.277l.4 1.397h.166c.332-.53.79-.928 1.372-1.198.583-.27 1.245-.405 1.987-.405 1.27 0 2.233.343 2.89 1.03.658.687.987 1.678.987 2.974V92z" fill="#066DA5"/><path d="M187.79 240.397C185.468 214.94 164.063 195 138 195c-27.614 0-50 22.386-50 50s22.386 50 50 50c24.478 0 44.848-17.59 49.16-40.818C189.63 260.514 195.79 265 203 265c9.39 0 17-7.61 17-17s-7.61-17-17-17c-6.656 0-12.418 3.825-15.21 9.397z" fill="#066DA5" opacity=".1"/><path d="M129 231c2.2 0 4-1.8 4-4s-1.8-4-4-4-4 1.8-4 4 1.8 4 4 4zm0 2c-3.4 0-6 2.6-6 6v12h12v-12c0-3.4-2.6-6-6-6zm16-2c2.2 0 4-1.8 4-4s-1.8-4-4-4-4 1.8-4 4 1.8 4 4 4zm0 2c-3.4 0-6 2.6-6 6v12h12v-12c0-3.4-2.6-6-6-6z" fill="#066DA5" fill-rule="nonzero"/><path d="M129.016 274h-6.578v-11.422h6.578v1.985h-4.157v2.507h3.867v1.985h-3.868V272h4.156v2zm12.515 0h-3.077l-4.97-8.64h-.07c.1 1.525.15 2.614.15 3.265V274h-2.165v-11.422h3.055l4.96 8.555h.056c-.08-1.485-.118-2.534-.118-3.15v-5.405h2.18V274zm7.212-6.414h4.53v5.922c-.733.24-1.424.407-2.073.504a13.51 13.51 0 0 1-1.99.144c-1.723 0-3.04-.506-3.948-1.52-.91-1.012-1.364-2.467-1.364-4.363 0-1.843.528-3.28 1.582-4.312 1.055-1.03 2.517-1.546 4.387-1.546 1.172 0 2.302.234 3.39.703l-.804 1.938a5.747 5.747 0 0 0-2.6-.625c-1.048 0-1.887.35-2.517 1.054-.63.704-.945 1.65-.945 2.836 0 1.24.255 2.187.762 2.84.508.654 1.246.98 2.215.98.505 0 1.018-.05 1.54-.156v-2.382h-2.165v-2.016z" fill="#066DA5"/><path d="M235.56 262.14c0-1.544.274-2.973.82-4.286.548-1.312 1.423-2.595 2.626-3.848h1.073c-1.122 1.23-1.97 2.53-2.54 3.896a10.847 10.847 0 0 0-.858 4.225c0 1.545.26 2.907.78 4.088h-.897c-.67-1.212-1.004-2.57-1.004-4.074zm8.99-1.32h-3.39l-1.676 3.18h-1.292l5.462-9.994h1.19l1.258 9.994h-1.163l-.39-3.18zm-.123-1.065l-.24-2.044a23.08 23.08 0 0 1-.198-2.392c-.17.4-.353.8-.55 1.197a217.03 217.03 0 0 1-1.707 3.24h2.694zm6.706-3.37c.884 0 1.524.433 1.92 1.3h.07c.077-.708.18-1.332.307-1.874l.533-2.447h1.135L252.842 264h-.95l.15-1.43h-.055c-.46.57-.89.974-1.292 1.21-.4.238-.815.357-1.244.357-.632 0-1.127-.224-1.482-.67-.356-.447-.533-1.067-.533-1.86 0-.975.164-1.868.492-2.68.328-.81.77-1.437 1.33-1.88a2.947 2.947 0 0 1 1.876-.662zm-1.3 6.802c.43 0 .87-.214 1.327-.64.456-.426.817-.97 1.084-1.633.266-.664.4-1.34.4-2.027 0-.506-.123-.89-.37-1.156-.246-.263-.603-.395-1.073-.395-.46 0-.886.188-1.28.564-.395.375-.712.904-.95 1.585a6.44 6.44 0 0 0-.36 2.15c0 1.034.408 1.552 1.224 1.552zm9.77.813l1.01-4.73c.083-.43.124-.736.124-.923 0-.32-.07-.568-.212-.745-.14-.178-.382-.267-.724-.267-.382 0-.755.137-1.117.41-.362.274-.68.664-.957 1.172-.276.51-.49 1.12-.64 1.836l-.69 3.247h-1.148l1.6-7.492h.95l-.15 1.388h.068c.396-.543.792-.932 1.186-1.17.394-.236.8-.355 1.22-.355.515 0 .912.15 1.19.445.278.297.442.71.492 1.238h.054c.392-.57.81-.993 1.25-1.268.443-.276.89-.414 1.34-.414.58 0 1.028.156 1.344.466.317.31.476.76.476 1.353 0 .31-.05.715-.15 1.216l-.985 4.594h-1.162l1.012-4.73c.092-.474.137-.807.137-1 0-.28-.08-.508-.237-.68-.157-.17-.404-.255-.74-.255-.37 0-.735.132-1.095.396-.36.266-.676.64-.947 1.126-.27.485-.476 1.06-.618 1.726l-.73 3.418h-1.15zm9.002 0h-1.148l1.6-7.492h1.148l-1.6 7.492zm.773-9.406c0-.255.073-.464.22-.626a.728.728 0 0 1 .566-.242c.4 0 .602.205.602.615 0 .25-.077.463-.23.637-.152.173-.33.26-.53.26a.632.632 0 0 1-.45-.168c-.12-.113-.178-.27-.178-.476zm6.214 9.406l1.012-4.73c.09-.474.136-.803.136-.985 0-.287-.08-.517-.242-.69-.162-.173-.42-.26-.776-.26-.406 0-.8.137-1.186.41-.385.274-.725.663-1.02 1.17-.293.505-.515 1.118-.665 1.838l-.69 3.247h-1.148l1.6-7.492h.95l-.15 1.388h.067c.437-.556.86-.95 1.268-1.18.407-.23.83-.345 1.268-.345.578 0 1.035.16 1.37.476.335.317.503.76.503 1.33 0 .36-.054.77-.16 1.23l-.976 4.594h-1.162zm6.514-5.906c0 1.554-.276 2.988-.83 4.303-.554 1.315-1.425 2.587-2.615 3.818h-1.065c2.26-2.51 3.39-5.218 3.39-8.12 0-1.555-.257-2.918-.772-4.09h.895c.666 1.227.998 2.59.998 4.09z" fill="#066DA5" opacity=".7"/><path d="M241.594 239.016h3.883v5.554c-.605.193-1.22.34-1.844.438-.625.1-1.35.148-2.172.148-1.728 0-3.075-.514-4.038-1.543-.964-1.028-1.445-2.47-1.445-4.324 0-1.188.238-2.23.714-3.122a4.835 4.835 0 0 1 2.06-2.047c.896-.47 1.945-.706 3.148-.706 1.22 0 2.355.224 3.407.672l-.516 1.172c-1.032-.438-2.024-.656-2.977-.656-1.39 0-2.477.414-3.258 1.242-.782.828-1.172 1.976-1.172 3.445 0 1.54.376 2.71 1.13 3.507.75.797 1.857 1.195 3.315 1.195.792 0 1.565-.09 2.32-.273v-3.517h-2.554v-1.187zm10.336-2.735c.38 0 .72.032 1.023.095l-.18 1.203a4.418 4.418 0 0 0-.937-.117c-.693 0-1.285.282-1.777.845-.494.562-.74 1.263-.74 2.1V245h-1.297v-8.563h1.07l.15 1.586h.062c.317-.557.7-.987 1.148-1.29.448-.3.94-.452 1.477-.452zm7.57 8.72l-.258-1.22h-.062c-.427.538-.853.9-1.278 1.09-.424.19-.954.286-1.59.286-.848 0-1.514-.218-1.996-.656-.48-.438-.722-1.06-.722-1.867 0-1.73 1.383-2.636 4.148-2.72l1.453-.046v-.53c0-.673-.144-1.17-.433-1.49-.29-.32-.752-.48-1.387-.48-.714 0-1.52.22-2.422.656l-.398-.992c.422-.228.884-.408 1.386-.538a6.006 6.006 0 0 1 1.513-.195c1.02 0 1.777.226 2.27.68.492.453.738 1.18.738 2.18V245h-.96zm-2.93-.914c.808 0 1.442-.22 1.903-.664.46-.443.69-1.063.69-1.86v-.773l-1.296.054c-1.03.036-1.775.196-2.23.48-.456.284-.684.725-.684 1.324 0 .47.142.826.426 1.07.283.246.68.368 1.19.368zm12.422.914v-5.54c0-.697-.16-1.218-.476-1.562-.318-.343-.815-.515-1.493-.515-.895 0-1.552.242-1.968.726-.417.484-.625 1.283-.625 2.398V245h-1.297v-8.563h1.055l.21 1.172h.063c.267-.423.64-.75 1.118-.98a3.63 3.63 0 0 1 1.602-.35c1.03 0 1.807.25 2.328.747.52.498.78 1.293.78 2.387V245h-1.296zm6.727-.914c.228 0 .45-.017.663-.05a4.3 4.3 0 0 0 .508-.106v.992a2.37 2.37 0 0 1-.62.168c-.274.044-.52.066-.74.066-1.655 0-2.483-.872-2.483-2.617v-5.095h-1.227v-.625l1.227-.54.547-1.827h.75v1.984h2.484v1.008h-2.484v5.04c0 .515.122.91.367 1.187.246.276.582.414 1.01.414z" fill="#066DA5"/><path d="M202.965 248H210v3h-1v-2h-1v2h-1v-2h-4.035a3.5 3.5 0 1 1 0-1zm-3.465 3a2.5 2.5 0 1 0 0-5 2.5 2.5 0 0 0 0 5z" fill="#066DA5" fill-rule="nonzero"/><path d="M595.56 261.14c0-1.544.274-2.973.82-4.286.548-1.312 1.423-2.595 2.626-3.848h1.073c-1.122 1.23-1.97 2.53-2.54 3.896a10.847 10.847 0 0 0-.858 4.225c0 1.545.26 2.907.78 4.088h-.897c-.67-1.212-1.004-2.57-1.004-4.074zm8.99-1.32h-3.39l-1.676 3.18h-1.292l5.462-9.994h1.19l1.258 9.994h-1.163l-.39-3.18zm-.123-1.065l-.24-2.044a23.08 23.08 0 0 1-.198-2.392c-.17.4-.353.8-.55 1.197a217.03 217.03 0 0 1-1.707 3.24h2.694zm6.706-3.37c.884 0 1.524.433 1.92 1.3h.07c.077-.708.18-1.332.307-1.874l.533-2.447h1.135L612.842 263h-.95l.15-1.43h-.055c-.46.57-.89.974-1.292 1.21-.4.238-.815.357-1.244.357-.632 0-1.127-.224-1.482-.67-.356-.447-.533-1.067-.533-1.86 0-.975.164-1.868.492-2.68.328-.81.77-1.437 1.33-1.88a2.947 2.947 0 0 1 1.876-.662zm-1.3 6.802c.43 0 .87-.214 1.327-.64.456-.426.817-.97 1.084-1.633.266-.664.4-1.34.4-2.027 0-.506-.123-.89-.37-1.156-.246-.263-.603-.395-1.073-.395-.46 0-.886.188-1.28.564-.395.375-.712.904-.95 1.585a6.44 6.44 0 0 0-.36 2.15c0 1.034.408 1.552 1.224 1.552zm9.77.813l1.01-4.73c.083-.43.124-.736.124-.923 0-.32-.07-.568-.212-.745-.14-.178-.382-.267-.724-.267-.382 0-.755.137-1.117.41-.362.274-.68.664-.957 1.172-.276.51-.49 1.12-.64 1.836l-.69 3.247h-1.148l1.6-7.492h.95l-.15 1.388h.068c.396-.543.792-.932 1.186-1.17.394-.236.8-.355 1.22-.355.515 0 .912.15 1.19.445.278.297.442.71.492 1.238h.054c.392-.57.81-.993 1.25-1.268.443-.276.89-.414 1.34-.414.58 0 1.028.156 1.344.466.317.31.476.76.476 1.353 0 .31-.05.715-.15 1.216l-.985 4.594h-1.162l1.012-4.73c.092-.474.137-.807.137-1 0-.28-.08-.508-.237-.68-.157-.17-.404-.255-.74-.255-.37 0-.735.132-1.095.396-.36.266-.676.64-.947 1.126-.27.485-.476 1.06-.618 1.726l-.73 3.418h-1.15zm9.002 0h-1.148l1.6-7.492h1.148l-1.6 7.492zm.773-9.406c0-.255.073-.464.22-.626a.728.728 0 0 1 .566-.242c.4 0 .602.205.602.615 0 .25-.077.463-.23.637-.152.173-.33.26-.53.26a.632.632 0 0 1-.45-.168c-.12-.113-.178-.27-.178-.476zm6.214 9.406l1.012-4.73c.09-.474.136-.803.136-.985 0-.287-.08-.517-.242-.69-.162-.173-.42-.26-.776-.26-.406 0-.8.137-1.186.41-.385.274-.725.663-1.02 1.17-.293.505-.515 1.118-.665 1.838l-.69 3.247h-1.148l1.6-7.492h.95l-.15 1.388h.067c.437-.556.86-.95 1.268-1.18.407-.23.83-.345 1.268-.345.578 0 1.035.16 1.37.476.335.317.503.76.503 1.33 0 .36-.054.77-.16 1.23l-.976 4.594h-1.162zm6.514-5.906c0 1.554-.276 2.988-.83 4.303-.554 1.315-1.425 2.587-2.615 3.818h-1.065c2.26-2.51 3.39-5.218 3.39-8.12 0-1.555-.257-2.918-.772-4.09h.895c.666 1.227.998 2.59.998 4.09zM595.48 373.406c0-1.324.235-2.55.704-3.674.468-1.125 1.218-2.224 2.25-3.298h.92c-.96 1.054-1.687 2.168-2.177 3.34a9.297 9.297 0 0 0-.736 3.62c0 1.325.224 2.493.67 3.504h-.768c-.574-1.04-.862-2.203-.862-3.492zm7.706-1.13h-2.907L598.843 375h-1.108l4.682-8.566h1.02l1.078 8.566h-.996l-.334-2.725zm-.106-.915l-.205-1.75c-.094-.7-.15-1.383-.17-2.05-.144.342-.302.684-.472 1.024-.17.34-.657 1.266-1.462 2.777h2.31zm5.748-2.887c.758 0 1.307.37 1.647 1.113h.058c.067-.606.154-1.14.264-1.606l.457-2.097h.973L610.293 375h-.814l.127-1.225h-.046c-.394.49-.763.834-1.107 1.038a2.07 2.07 0 0 1-1.066.304c-.543 0-.967-.19-1.272-.574-.304-.383-.457-.914-.457-1.594 0-.837.14-1.602.422-2.298.28-.695.66-1.232 1.14-1.61a2.526 2.526 0 0 1 1.608-.57zm-1.113 5.83c.367 0 .746-.183 1.137-.548.39-.365.7-.832.928-1.4a4.62 4.62 0 0 0 .343-1.738c0-.433-.105-.763-.316-.99-.21-.227-.518-.34-.92-.34-.395 0-.76.16-1.1.484-.337.323-.608.776-.813 1.36a5.52 5.52 0 0 0-.308 1.843c0 .886.35 1.33 1.05 1.33zm8.373.697l.867-4.055c.07-.367.106-.63.106-.79 0-.274-.06-.487-.18-.64-.122-.152-.33-.228-.622-.228-.328 0-.648.117-.958.352-.31.233-.584.568-.82 1.004-.237.435-.42.96-.548 1.573L613.34 375h-.985l1.372-6.422h.814l-.128 1.19h.06c.34-.465.677-.8 1.015-1.002a2.004 2.004 0 0 1 1.046-.305c.442 0 .78.128 1.02.382.238.254.38.607.422 1.06h.046c.337-.488.695-.85 1.074-1.087.38-.236.76-.354 1.148-.354.496 0 .88.134 1.152.4.27.265.407.652.407 1.16 0 .265-.042.613-.128 1.043l-.844 3.937h-.996l.867-4.055c.077-.406.116-.69.116-.855 0-.242-.067-.437-.202-.583-.135-.147-.346-.22-.635-.22-.318 0-.63.113-.94.34-.308.227-.578.548-.81.964-.233.417-.41.91-.53 1.48l-.628 2.93h-.984zm7.717 0h-.985l1.37-6.422h.986l-1.37 6.422zm.662-8.063a.77.77 0 0 1 .187-.536.624.624 0 0 1 .487-.207c.344 0 .516.176.516.528a.795.795 0 0 1-.196.546.59.59 0 0 1-.454.222.54.54 0 0 1-.387-.143c-.102-.096-.153-.232-.153-.408zm5.326 8.063l.867-4.055c.078-.406.117-.687.117-.843 0-.247-.07-.444-.208-.592-.14-.15-.36-.223-.666-.223-.347 0-.686.117-1.016.352-.33.233-.62.567-.873 1-.252.434-.443.96-.572 1.577l-.59 2.783h-.986l1.37-6.422h.816l-.13 1.19h.06c.374-.477.737-.814 1.086-1.01.35-.198.71-.297 1.086-.297.496 0 .888.137 1.175.408.288.272.432.652.432 1.14 0 .308-.045.66-.135 1.055L630.79 375h-.997zm5.584-5.063c0 1.333-.237 2.562-.712 3.69-.475 1.126-1.222 2.217-2.24 3.27h-.915c1.937-2.15 2.906-4.47 2.906-6.96 0-1.332-.22-2.5-.662-3.503h.767c.572 1.05.857 2.218.857 3.503z" fill="#066DA5" opacity=".7"/><path d="M626 216v-6h-20v6h-4v14h28v-14h-4zm-18-4h16v4h-16v-4zm20 16h-24v-10h24v10zm-2-22h-20v2h20v-2zm0-4h-20v2h20v-2z" fill="#066DA5" fill-rule="nonzero" opacity=".4"/><path d="M568.997 235.006L565.27 245h-1.133l3.725-9.994h1.135zm2.987 9.994l-2.843-7.492h1.217l1.614 4.443c.365 1.04.58 1.715.643 2.025h.055c.05-.242.208-.742.475-1.5.267-.76.865-2.415 1.794-4.967h1.217L573.31 245h-1.326zm6.508 0h-1.135v-7.492h1.135V245zm-1.23-9.522c0-.26.064-.45.19-.57a.67.67 0 0 1 .48-.182.67.67 0 0 1 .47.184c.133.123.2.312.2.568 0 .255-.067.445-.2.57a.662.662 0 0 1-.47.188.655.655 0 0 1-.48-.188c-.126-.125-.19-.315-.19-.57zm6.8 9.66c-1.106 0-1.98-.34-2.62-1.013-.64-.674-.96-1.61-.96-2.81 0-1.207.297-2.167.892-2.877.594-.71 1.393-1.067 2.396-1.067.938 0 1.68.31 2.228.927.547.618.82 1.432.82 2.444v.72h-5.16c.022.88.244 1.546.666 2.002.42.456 1.015.684 1.78.684.807 0 1.605-.17 2.393-.506v1.01c-.4.175-.78.3-1.138.374-.36.075-.79.113-1.297.113zm-.306-6.817c-.602 0-1.08.197-1.44.59-.357.39-.568.933-.63 1.626h3.916c0-.715-.16-1.263-.48-1.644-.318-.38-.774-.57-1.366-.57zM594.59 245l-1.373-4.396c-.087-.268-.25-.88-.486-1.832h-.053a25.06 25.06 0 0 1-.48 1.846L590.784 245h-1.312l-2.043-7.492h1.19l1.103 4.3c.253.984.398 1.647.434 1.99h.055c.05-.26.13-.597.242-1.01.11-.412.208-.74.29-.98l1.374-4.3h1.23l1.34 4.3c.256.783.43 1.442.52 1.975h.055c.02-.164.068-.417.148-.76.08-.34.555-2.18 1.425-5.515h1.176L595.937 245h-1.347zm14.876-3.753c0 1.22-.308 2.175-.923 2.86-.615.687-1.465 1.03-2.55 1.03-.67 0-1.264-.158-1.784-.472a3.113 3.113 0 0 1-1.204-1.353c-.283-.588-.424-1.277-.424-2.065 0-1.22.305-2.173.916-2.854.61-.68 1.458-1.022 2.543-1.022 1.05 0 1.882.35 2.5 1.047.617.697.926 1.64.926 2.83zm-5.708 0c0 .957.19 1.686.574 2.188.383.5.946.752 1.69.752.74 0 1.305-.25 1.69-.75.385-.498.578-1.228.578-2.19 0-.952-.193-1.676-.578-2.17-.385-.495-.953-.742-1.705-.742-.743 0-1.304.244-1.682.73-.378.49-.567 1.216-.567 2.182zM616.582 245v-4.847c0-.61-.14-1.066-.417-1.367-.278-.3-.713-.45-1.306-.45-.784 0-1.36.21-1.723.635-.365.425-.547 1.124-.547 2.1V245h-1.135v-7.492h.923l.184 1.025h.055c.233-.37.558-.655.978-.858.42-.203.886-.304 1.4-.304.903 0 1.582.22 2.038.654.456.435.684 1.13.684 2.088V245h-1.135zm4.6 0h-1.134v-10.637h1.135V245zm1.217-7.492h1.216l1.64 4.272c.36.976.584 1.68.67 2.113h.055c.06-.233.185-.63.374-1.193.19-.563.808-2.294 1.856-5.192h1.217l-3.22 8.53c-.32.844-.692 1.442-1.118 1.795-.427.354-.95.53-1.57.53-.346 0-.688-.038-1.025-.116v-.91c.25.056.53.083.84.083.78 0 1.336-.438 1.67-1.313l.416-1.066-3.02-7.532zm16.713 5.448c0 .697-.26 1.235-.78 1.613-.52.378-1.248.567-2.187.567-.993 0-1.768-.158-2.324-.472v-1.053c.36.183.747.326 1.16.43.41.106.81.158 1.192.158.592 0 1.048-.094 1.367-.283.32-.19.48-.478.48-.865 0-.292-.127-.54-.38-.75-.253-.206-.746-.45-1.48-.734-.697-.26-1.193-.486-1.487-.68a2.03 2.03 0 0 1-.656-.66 1.72 1.72 0 0 1-.215-.88c0-.612.248-1.094.745-1.447.497-.352 1.178-.53 2.044-.53a5.98 5.98 0 0 1 2.366.493l-.403.923c-.752-.31-1.434-.465-2.044-.465-.54 0-.945.086-1.218.254-.273.17-.41.4-.41.697 0 .202.05.373.154.514.102.14.267.276.495.404.23.127.667.312 1.314.553.888.325 1.49.65 1.8.98.313.327.47.74.47 1.236zm5.01 2.18c-1.106 0-1.98-.337-2.62-1.01-.64-.675-.96-1.612-.96-2.81 0-1.208.296-2.168.89-2.88.596-.71 1.394-1.065 2.397-1.065.94 0 1.682.31 2.23.927.545.618.82 1.432.82 2.444v.72h-5.162c.023.88.245 1.546.666 2.002.422.456 1.015.684 1.78.684.808 0 1.605-.17 2.394-.506v1.01c-.4.175-.78.3-1.14.374-.356.075-.788.113-1.294.113zm-.307-6.815c-.6 0-1.08.197-1.44.59-.356.39-.567.933-.63 1.626h3.916c0-.715-.16-1.263-.478-1.644-.32-.38-.775-.57-1.368-.57zm8.415-.95c.334 0 .633.028.897.083l-.157 1.053a3.865 3.865 0 0 0-.82-.103c-.607 0-1.125.246-1.556.74-.43.49-.646 1.104-.646 1.837V245h-1.135v-7.492h.937l.13 1.388h.055c.278-.488.613-.864 1.004-1.128a2.262 2.262 0 0 1 1.29-.397zm3.94 7.63l-2.845-7.492h1.217l1.613 4.443c.365 1.04.58 1.715.643 2.025h.055c.05-.242.208-.742.475-1.5.266-.76.864-2.415 1.794-4.967h1.217L657.494 245h-1.326zm6.507 0h-1.135v-7.492h1.135V245zm-1.23-9.522c0-.26.063-.45.19-.57a.67.67 0 0 1 .48-.182.67.67 0 0 1 .47.184c.133.123.2.312.2.568 0 .255-.067.445-.2.57a.662.662 0 0 1-.47.188.655.655 0 0 1-.48-.188c-.127-.125-.19-.315-.19-.57zm6.63 9.66c-1.084 0-1.924-.335-2.52-1.003-.594-.667-.89-1.612-.89-2.833 0-1.254.3-2.222.905-2.906.604-.683 1.464-1.025 2.58-1.025.36 0 .72.04 1.08.117.36.078.643.17.848.274l-.35.965c-.25-.1-.523-.184-.82-.25a3.663 3.663 0 0 0-.785-.1c-1.522 0-2.283.972-2.283 2.913 0 .92.186 1.627.557 2.12.37.49.92.738 1.65.738.624 0 1.264-.135 1.92-.404v1.005c-.5.26-1.132.39-1.893.39zm6.836 0c-1.107 0-1.98-.34-2.62-1.013-.642-.674-.962-1.61-.962-2.81 0-1.207.298-2.167.893-2.877s1.394-1.067 2.396-1.067c.938 0 1.68.31 2.228.927.547.618.82 1.432.82 2.444v.72h-5.16c.022.88.244 1.546.665 2.002.422.456 1.015.684 1.78.684.808 0 1.605-.17 2.394-.506v1.01c-.4.175-.78.3-1.14.374-.356.075-.788.113-1.294.113zm-.308-6.817c-.6 0-1.08.197-1.438.59-.358.39-.57.933-.633 1.626h3.917c0-.715-.158-1.263-.477-1.644-.32-.38-.775-.57-1.368-.57zm9.83 4.636c0 .697-.26 1.235-.78 1.613-.518.378-1.247.567-2.186.567-.995 0-1.77-.158-2.325-.472v-1.053c.36.183.746.326 1.158.43.413.106.81.158 1.193.158.593 0 1.048-.094 1.367-.283.32-.19.48-.478.48-.865 0-.292-.128-.54-.38-.75-.254-.206-.747-.45-1.48-.734-.698-.26-1.193-.486-1.487-.68a2.03 2.03 0 0 1-.657-.66 1.72 1.72 0 0 1-.216-.88c0-.612.248-1.094.745-1.447.496-.352 1.177-.53 2.043-.53a5.98 5.98 0 0 1 2.365.493l-.403.923c-.752-.31-1.433-.465-2.044-.465-.537 0-.942.086-1.216.254-.273.17-.41.4-.41.697 0 .202.05.373.154.514.102.14.268.276.496.404.227.127.665.312 1.312.553.89.325 1.49.65 1.8.98.313.327.47.74.47 1.236z" fill="#066DA5"/><path fill="#066DA5" opacity=".4" d="M615 268h1v37h-1z"/><path d="M423 223v-8c0-4.4-3.6-8-8-8s-8 3.6-8 8v8h-6v2h28v-2h-6zm-2 0h-12v-8c0-3.4 2.6-6 6-6s6 2.6 6 6v8zm-20 6h28v-2h-28v2z" fill="#066DA5" fill-rule="nonzero" opacity=".4"/><path d="M593.654 360h-.984l-1.73-5.736a18.516 18.516 0 0 1-.274-.96c-.102-.388-.154-.62-.158-.7-.086.517-.223 1.082-.41 1.695l-1.676 5.7h-.985l-2.28-8.566h1.056l1.353 5.29c.188.743.325 1.415.41 2.016.106-.715.262-1.414.47-2.097l1.534-5.21h1.055l1.61 5.256c.19.605.347 1.29.476 2.05.075-.554.216-1.23.423-2.027l1.348-5.28h1.055l-2.29 8.567zm8.79-3.217c0 1.047-.264 1.864-.792 2.452-.527.588-1.256.882-2.185.882-.574 0-1.084-.135-1.53-.404a2.668 2.668 0 0 1-1.03-1.16c-.243-.504-.364-1.094-.364-1.77 0-1.047.262-1.862.785-2.446.524-.584 1.25-.876 2.18-.876.898 0 1.612.3 2.14.897.53.598.795 1.407.795 2.426zm-4.893 0c0 .82.165 1.446.493 1.875.328.43.81.645 1.447.645s1.12-.214 1.45-.642c.33-.427.496-1.053.496-1.877 0-.816-.165-1.436-.496-1.86-.33-.424-.817-.636-1.46-.636-.638 0-1.12.21-1.443.627-.324.418-.486 1.04-.486 1.87zm9.528-3.322c.285 0 .54.024.768.07l-.135.904c-.265-.06-.5-.088-.702-.088-.52 0-.964.21-1.333.633-.37.42-.554.946-.554 1.575V360h-.972v-6.422h.803l.112 1.19h.047c.238-.418.525-.74.86-.967a1.94 1.94 0 0 1 1.108-.34zm6.1 5.68h-.053c-.45.65-1.12.977-2.016.977-.84 0-1.494-.287-1.96-.86-.467-.575-.7-1.392-.7-2.45 0-1.06.234-1.88.702-2.467.47-.586 1.12-.88 1.957-.88.87 0 1.538.317 2.003.95h.076l-.042-.463-.023-.45v-2.614h.973V360h-.79l-.13-.86zm-1.946.163c.664 0 1.146-.18 1.445-.542.3-.36.448-.944.448-1.748v-.205c0-.91-.15-1.56-.454-1.95-.302-.387-.785-.582-1.45-.582-.57 0-1.006.222-1.31.665-.302.444-.453 1.07-.453 1.878 0 .82.15 1.44.45 1.858.302.418.743.627 1.325.627zm7.916.814c-.418 0-.8-.077-1.145-.23a2.154 2.154 0 0 1-.87-.713h-.07c.046.375.07.73.07 1.066v2.643h-.973v-9.305h.79l.136.88h.047c.25-.353.54-.606.873-.763a2.654 2.654 0 0 1 1.142-.234c.852 0 1.51.292 1.972.874.463.582.694 1.398.694 2.45 0 1.054-.235 1.873-.706 2.457-.47.585-1.124.877-1.96.877zm-.14-5.83c-.656 0-1.13.182-1.424.545-.293.363-.443.94-.45 1.734v.217c0 .903.15 1.548.45 1.937.3.388.783.583 1.447.583.556 0 .99-.225 1.305-.674.314-.45.472-1.07.472-1.86 0-.8-.158-1.414-.472-1.84-.314-.43-.757-.643-1.327-.643zm7.435-.826c.286 0 .54.024.768.07l-.134.904c-.265-.06-.5-.088-.703-.088-.52 0-.964.21-1.333.633-.37.42-.554.946-.554 1.575V360h-.972v-6.422h.802l.112 1.19h.047c.238-.418.525-.74.86-.967a1.94 1.94 0 0 1 1.108-.34zm4.442 6.657c-.95 0-1.698-.29-2.247-.867-.55-.578-.824-1.38-.824-2.408 0-1.035.255-1.858.765-2.467.51-.61 1.193-.914 2.053-.914.805 0 1.44.266 1.91.795.47.53.703 1.227.703 2.095v.615h-4.424c.02.754.21 1.326.572 1.717.36.39.87.586 1.526.586.69 0 1.375-.145 2.05-.434v.867c-.343.15-.668.256-.975.32a5.483 5.483 0 0 1-1.11.097zm-.264-5.842c-.515 0-.926.168-1.232.504-.307.335-.488.8-.542 1.394h3.357c0-.613-.137-1.083-.41-1.41-.273-.326-.664-.49-1.172-.49zm8.427 3.973c0 .598-.223 1.06-.668 1.383-.446.325-1.07.487-1.876.487-.852 0-1.516-.135-1.992-.404v-.902c.308.157.64.28.993.37.353.09.694.134 1.022.134.508 0 .9-.08 1.172-.243.273-.16.41-.408.41-.74 0-.25-.11-.464-.326-.642-.217-.177-.64-.387-1.268-.63-.598-.222-1.023-.416-1.275-.582a1.74 1.74 0 0 1-.56-.566 1.475 1.475 0 0 1-.186-.756c0-.523.213-.936.64-1.24.425-.302 1.01-.453 1.75-.453.692 0 1.368.142 2.028.423l-.346.79c-.644-.265-1.228-.398-1.752-.398-.46 0-.808.073-1.043.217-.233.145-.35.344-.35.598 0 .172.044.318.132.44.088.12.23.236.425.345.195.11.57.268 1.125.475.76.277 1.276.556 1.544.837.267.282.4.635.4 1.06zm5.724 0c0 .598-.22 1.06-.666 1.383-.446.325-1.07.487-1.875.487-.853 0-1.517-.135-1.994-.404v-.902c.31.157.64.28.993.37.353.09.694.134 1.022.134.508 0 .898-.08 1.172-.243.273-.16.41-.408.41-.74 0-.25-.108-.464-.325-.642-.218-.177-.64-.387-1.27-.63-.597-.222-1.022-.416-1.274-.582a1.74 1.74 0 0 1-.563-.566 1.475 1.475 0 0 1-.184-.756c0-.523.212-.936.637-1.24.426-.302 1.01-.453 1.752-.453.69 0 1.367.142 2.027.423l-.346.79c-.644-.265-1.227-.398-1.75-.398-.462 0-.81.073-1.044.217-.234.145-.35.344-.35.598 0 .172.042.318.13.44.088.12.23.236.425.345.196.11.57.268 1.126.475.762.277 1.277.556 1.544.837.268.282.4.635.4 1.06z" fill="#066DA5"/><path d="M608 312v30h16v-30h-16zm14 28h-12v-12h12v12zm0-14h-12v-12h12v12zm-6 10c1.2 0 2-.8 2-2s-.8-2-2-2-2 .8-2 2 .8 2 2 2zm0-14c1.2 0 2-.8 2-2s-.8-2-2-2-2 .8-2 2 .8 2 2 2z" fill="#066DA5" fill-rule="nonzero" opacity=".4"/><path d="M368.082 235.006h1.25L365.73 245h-1.148L361 235.006h1.23l2.297 6.467c.265.742.474 1.465.63 2.167a18.09 18.09 0 0 1 .642-2.208l2.282-6.426zm3.59 9.994h-1.136v-7.492h1.135V245zm-1.232-9.522c0-.26.064-.45.192-.57a.67.67 0 0 1 .478-.182.67.67 0 0 1 .472.184c.132.123.198.312.198.568 0 .255-.066.445-.198.57a.662.662 0 0 1-.472.188.655.655 0 0 1-.478-.188c-.128-.125-.192-.315-.192-.57zm6.802 9.66c-1.107 0-1.98-.34-2.62-1.013-.642-.674-.962-1.61-.962-2.81 0-1.207.298-2.167.892-2.877.595-.71 1.394-1.067 2.396-1.067.94 0 1.682.31 2.23.927.546.618.82 1.432.82 2.444v.72h-5.162c.023.88.245 1.546.666 2.002.422.456 1.016.684 1.78.684.808 0 1.605-.17 2.394-.506v1.01c-.4.175-.78.3-1.138.374-.358.075-.79.113-1.296.113zm-.307-6.817c-.602 0-1.082.197-1.44.59-.357.39-.568.933-.632 1.626h3.917c0-.715-.16-1.263-.478-1.644-.32-.38-.775-.57-1.367-.57zM387.77 245l-1.374-4.396c-.087-.268-.25-.88-.486-1.832h-.055a25.06 25.06 0 0 1-.478 1.846L383.962 245h-1.313l-2.045-7.492h1.19c.483 1.882.85 3.315 1.104 4.3.252.984.397 1.647.433 1.99h.055c.05-.26.13-.597.242-1.01.112-.412.21-.74.29-.98l1.375-4.3h1.23l1.34 4.3c.255.783.43 1.442.52 1.975h.054c.018-.164.067-.417.146-.76.08-.34.555-2.18 1.426-5.515h1.175l-2.07 7.492h-1.347zm14.875-3.753c0 1.22-.308 2.175-.923 2.86-.616.687-1.465 1.03-2.55 1.03-.67 0-1.265-.158-1.784-.472a3.113 3.113 0 0 1-1.203-1.353c-.283-.588-.424-1.277-.424-2.065 0-1.22.306-2.173.917-2.854.61-.68 1.458-1.022 2.543-1.022 1.048 0 1.88.35 2.498 1.047.618.697.927 1.64.927 2.83zm-5.708 0c0 .957.19 1.686.574 2.188.384.5.946.752 1.69.752.742 0 1.306-.25 1.69-.75.386-.498.58-1.228.58-2.19 0-.952-.194-1.676-.58-2.17-.384-.495-.952-.742-1.704-.742-.743 0-1.304.244-1.682.73-.378.49-.567 1.216-.567 2.182zM409.76 245v-4.847c0-.61-.138-1.066-.416-1.367-.278-.3-.713-.45-1.306-.45-.784 0-1.358.21-1.723.635-.364.425-.546 1.124-.546 2.1V245h-1.136v-7.492h.923l.184 1.025h.056c.232-.37.558-.655.977-.858.42-.203.887-.304 1.402-.304.902 0 1.58.22 2.037.654.456.435.684 1.13.684 2.088V245h-1.135zm4.6 0h-1.133v-10.637h1.134V245zm1.218-7.492h1.217l1.64 4.272c.36.976.584 1.68.67 2.113h.055c.06-.233.184-.63.373-1.193.19-.563.807-2.294 1.856-5.192h1.215l-3.22 8.53c-.318.844-.69 1.442-1.117 1.795-.426.354-.95.53-1.57.53-.345 0-.687-.038-1.024-.116v-.91c.25.056.53.083.84.083.78 0 1.336-.438 1.67-1.313l.416-1.066-3.022-7.532zM432.066 245l-.225-1.066h-.054c-.374.47-.746.787-1.118.953-.37.167-.835.25-1.39.25-.743 0-1.326-.192-1.747-.575-.42-.382-.632-.927-.632-1.633 0-1.514 1.21-2.307 3.63-2.38l1.272-.04v-.466c0-.588-.127-1.022-.38-1.302s-.657-.42-1.213-.42c-.624 0-1.33.19-2.12.574l-.348-.87c.368-.2.773-.356 1.213-.47.44-.114.88-.17 1.322-.17.894 0 1.556.197 1.986.593.432.396.647 1.032.647 1.907V245h-.84zm-2.563-.8c.706 0 1.26-.193 1.664-.58.404-.388.605-.93.605-1.628v-.677l-1.134.048c-.903.032-1.553.172-1.952.42-.4.25-.598.635-.598 1.16 0 .41.124.722.372.936.25.213.596.32 1.043.32zm8.736.937c-1.085 0-1.925-.334-2.52-1.002-.595-.667-.892-1.612-.892-2.833 0-1.254.302-2.222.906-2.906.604-.683 1.464-1.025 2.58-1.025.36 0 .72.04 1.08.117.36.078.643.17.848.274l-.348.965c-.25-.1-.525-.184-.82-.25a3.663 3.663 0 0 0-.787-.1c-1.522 0-2.283.972-2.283 2.913 0 .92.186 1.627.557 2.12.372.49.923.738 1.652.738.624 0 1.265-.135 1.92-.404v1.005c-.5.26-1.132.39-1.893.39zm6.664 0c-1.084 0-1.924-.334-2.52-1.002-.593-.667-.89-1.612-.89-2.833 0-1.254.3-2.222.905-2.906.603-.683 1.463-1.025 2.58-1.025.36 0 .72.04 1.08.117.36.078.642.17.847.274l-.348.965c-.252-.1-.525-.184-.822-.25a3.663 3.663 0 0 0-.786-.1c-1.522 0-2.283.972-2.283 2.913 0 .92.185 1.627.556 2.12.37.49.922.738 1.65.738.625 0 1.266-.135 1.922-.404v1.005c-.5.26-1.133.39-1.894.39zm6.836 0c-1.107 0-1.98-.338-2.62-1.012-.642-.674-.962-1.61-.962-2.81 0-1.207.298-2.167.892-2.877.595-.71 1.394-1.067 2.396-1.067.94 0 1.682.31 2.23.927.546.618.82 1.432.82 2.444v.72h-5.162c.023.88.245 1.546.666 2.002.422.456 1.016.684 1.78.684.808 0 1.605-.17 2.394-.506v1.01c-.4.175-.78.3-1.138.374-.358.075-.79.113-1.296.113zm-.307-6.816c-.602 0-1.082.197-1.44.59-.357.39-.568.933-.632 1.626h3.918c0-.715-.16-1.263-.478-1.644-.32-.38-.775-.57-1.367-.57zm9.83 4.636c0 .697-.26 1.235-.78 1.613-.52.378-1.248.567-2.187.567-.994 0-1.768-.158-2.324-.472v-1.053c.36.183.746.326 1.158.43.413.106.81.158 1.193.158.593 0 1.048-.094 1.367-.283.32-.19.48-.478.48-.865 0-.292-.128-.54-.38-.75-.253-.206-.747-.45-1.48-.734-.698-.26-1.193-.486-1.487-.68a2.03 2.03 0 0 1-.656-.66 1.72 1.72 0 0 1-.216-.88c0-.612.25-1.094.746-1.447.497-.352 1.178-.53 2.044-.53a5.98 5.98 0 0 1 2.365.493l-.403.923c-.752-.31-1.433-.465-2.044-.465-.538 0-.943.086-1.217.254-.272.17-.41.4-.41.697 0 .202.053.373.155.514.103.14.268.276.496.404.23.127.666.312 1.313.553.89.325 1.49.65 1.8.98.314.327.47.74.47 1.236zm6.678 0c0 .697-.258 1.235-.778 1.613-.52.378-1.25.567-2.187.567-.994 0-1.77-.158-2.325-.472v-1.053c.36.183.747.326 1.16.43.412.106.81.158 1.192.158.592 0 1.048-.094 1.367-.283.318-.19.478-.478.478-.865 0-.292-.127-.54-.38-.75-.253-.206-.746-.45-1.48-.734-.697-.26-1.193-.486-1.487-.68a2.03 2.03 0 0 1-.655-.66 1.72 1.72 0 0 1-.215-.88c0-.612.248-1.094.745-1.447.497-.352 1.178-.53 2.044-.53a5.98 5.98 0 0 1 2.364.493l-.403.923c-.75-.31-1.432-.465-2.043-.465-.538 0-.943.086-1.217.254-.273.17-.41.4-.41.697 0 .202.05.373.154.514.102.14.268.276.495.404.227.127.665.312 1.312.553.89.325 1.49.65 1.8.98.313.327.47.74.47 1.236z" fill="#066DA5"/><path d="M331 242v3l12-4-12-3v3h-35v1h35zM532 242v3l12-4-12-3v3h-35v1h35z" fill="#066DA5" opacity=".37"/></g></svg>