<?xml version="1.0" encoding="UTF-8" standalone="no"?>
<svg width="58px" height="45px" viewBox="0 0 58 45" version="1.1" xmlns="http://www.w3.org/2000/svg" xmlns:xlink="http://www.w3.org/1999/xlink">
    <g stroke-width="2" fill="none" fill-rule="evenodd">
      <path d="M47.5748,15.9442 L54.1608,15.9442 C55.1978,15.9442 55.5908,16.6542 55.0348,17.5352 L39.9618,41.4082 C39.4068,42.2872 38.1178,43.0002 37.0778,43.0002 L9.4868,43.0002 C8.4488,43.0002 8.0558,42.2902 8.6128,41.4082 L12.6288,35.0482"></path>
      <path d="M43.6181,7.5029 L51.0261,7.5029 C52.0631,7.5029 52.4561,8.2129 51.8991,9.0939 L36.8261,32.9669 C36.2721,33.8459 34.9831,34.5589 33.9431,34.5589 L6.3521,34.5589 C5.3141,34.5589 4.9211,33.8489 5.4781,32.9669 L8.8421,27.6389"></path>
      <path d="M15.326,1.7083 C15.881,0.8293 17.169,0.1173 18.21,0.1173 L45.801,0.1173 C46.838,0.1173 47.231,0.8263 46.675,1.7083 L31.602,25.5813 C31.047,26.4603 29.758,27.1723 28.718,27.1723 L1.127,27.1723 C0.089,27.1723 -0.304,26.4633 0.253,25.5813 L15.326,1.7083 L15.326,1.7083 Z"></path>
      <path d="M13.2008,19.2907 L20.2368,7.8877" id="Stroke-7" stroke-linecap="round" stroke-linejoin="round"></path>
      <path d="M19.784,19.2907 L26.82,7.8877" id="Stroke-9" stroke-linecap="round" stroke-linejoin="round"></path>
      <path d="M26.3673,19.2907 L33.4033,7.8877" id="Stroke-11" stroke-linecap="round" stroke-linejoin="round"></path>
    </g>
</svg>
