<?xml version="1.0" encoding="UTF-8" standalone="no"?>
<svg width="72px" height="36px" viewBox="0 0 72 36" version="1.1" xmlns="http://www.w3.org/2000/svg" xmlns:xlink="http://www.w3.org/1999/xlink">
    <g id="Repo" stroke="none" stroke-width="1" fill="none" fill-rule="evenodd">
        <g id="FTUX" transform="translate(-758.000000, -378.000000)" stroke="#22B8EB" fill="#DEE6EE">
            <g id="Workflows" transform="translate(35.000000, 236.000000)">
                <g id="Placeholder" transform="translate(332.000000, 97.000000)">
                    <g id="Webhooks-Icon" transform="translate(427.292292, 62.422303) rotate(-15.000000) translate(-427.292292, -62.422303) translate(390.792292, 51.422303)">
                        <path d="M3.8,12 C3.8,8.58 6.58,5.8 10,5.8 L18,5.8 L18,2 L10,2 C4.48,2 -1.13686838e-13,6.48 -1.13686838e-13,12 C-1.13686838e-13,17.52 4.48,22 10,22 L18,22 L18,18.2 L10,18.2 C6.58,18.2 3.8,15.42 3.8,12 L3.8,12 Z M12,14 L28,14 L28,10 L12,10 L12,14 L12,14 Z M30,2 L22,2 L22,5.8 L30,5.8 C33.42,5.8 36.2,8.58 36.2,12 C36.2,15.42 33.42,18.2 30,18.2 L22,18.2 L22,22 L30,22 C35.52,22 40,17.52 40,12 C40,6.48 35.52,2 30,2 L30,2 Z" id="Link"></path>
                        <path d="M44.1362967,12.9647238 L60.1362967,12.9647238 L60.1362967,8.96472382 L44.1362967,8.96472382 L44.1362967,12.9647238 L44.1362967,12.9647238 Z M62.1362967,0.96472382 L54.1362967,0.96472382 L54.1362967,4.76472382 L62.1362967,4.76472382 C65.5562967,4.76472382 68.3362967,7.54472382 68.3362967,10.9647238 C68.3362967,14.3847238 65.5562967,17.1647238 62.1362967,17.1647238 L54.1362967,17.1647238 L54.1362967,20.9647238 L62.1362967,20.9647238 C67.6562967,20.9647238 72.1362967,16.4847238 72.1362967,10.9647238 C72.1362967,5.44472382 67.6562967,0.96472382 62.1362967,0.96472382 L62.1362967,0.96472382 Z" id="Link"></path>
                        <path d="M33.9808001,16.7506189 C32.819405,15.1171137 32.1362967,13.1202081 32.1362967,10.9647238 C32.1362967,5.44472382 36.6162967,0.96472382 42.1362967,0.96472382 L50.1362967,0.96472382 L50.1362967,4.76472382 L42.1362967,4.76472382 C38.7162967,4.76472382 35.9362967,7.54472382 35.9362967,10.9647238 C35.9362967,11.5462568 36.0166754,12.1092853 36.1669119,12.6432883 C35.9968474,14.28736 35.1823033,15.7423104 33.9808001,16.7506189 Z M36.7410816,19.3843835 C38.297899,20.3844976 40.1497502,20.9647238 42.1362967,20.9647238 L50.1362967,20.9647238 L50.1362967,17.1647238 L46.2462305,17.1647238 L42.1362967,17.1647238 C41.0003712,17.1647238 39.9350495,16.858039 39.0187438,16.3230819 C38.4600276,17.4857208 37.6830683,18.5238932 36.7410816,19.3843835 Z" id="Link-Copy"></path>
                    </g>
                </g>
            </g>
        </g>
    </g>
</svg>
