<svg width="16" height="16" viewBox="0 0 24 25" fill="none" xmlns="http://www.w3.org/2000/svg">
<mask id="mask0_225_286" style="mask-type:alpha" maskUnits="userSpaceOnUse" x="1" y="1" width="22" height="23">
<path d="M18.5 8.646V3.646M5.5 21.646V16.646M16 6.146H21M3 19.146H8M6.5 2.646L5.71554 4.21491C5.45005 4.74589 5.31731 5.01138 5.13997 5.24144C4.98261 5.44559 4.79959 5.6286 4.59545 5.78597C4.36538 5.9633 4.0999 6.09605 3.56892 6.36154L2 7.146L3.56892 7.93045C4.0999 8.19594 4.36538 8.32869 4.59545 8.50603C4.79959 8.66339 4.98261 8.8464 5.13997 9.05055C5.31731 9.28061 5.45005 9.5461 5.71554 10.0771L6.5 11.646L7.28446 10.0771C7.54995 9.5461 7.68269 9.28061 7.86003 9.05055C8.01739 8.8464 8.20041 8.66339 8.40455 8.50603C8.63462 8.32869 8.9001 8.19594 9.43108 7.93045L11 7.146L9.43108 6.36154C8.9001 6.09605 8.63462 5.9633 8.40455 5.78597C8.20041 5.6286 8.01739 5.44559 7.86003 5.24144C7.68269 5.01138 7.54995 4.74589 7.28446 4.21491L6.5 2.646ZM17 12.646L16.0489 14.5482C15.7834 15.0792 15.6506 15.3447 15.4733 15.5748C15.3159 15.7789 15.1329 15.9619 14.9288 16.1193C14.6987 16.2966 14.4332 16.4294 13.9023 16.6949L12 17.646L13.9023 18.5971C14.4332 18.8626 14.6987 18.9954 14.9288 19.1727C15.1329 19.3301 15.3159 19.5131 15.4733 19.7172C15.6506 19.9473 15.7834 20.2128 16.0489 20.7437L17 22.646L17.9511 20.7437C18.2166 20.2128 18.3494 19.9473 18.5267 19.7172C18.6841 19.5131 18.8671 19.3301 19.0712 19.1727C19.3013 18.9954 19.5668 18.8626 20.0977 18.5971L22 17.646L20.0977 16.6949C19.5668 16.4294 19.3013 16.2966 19.0712 16.1193C18.8671 15.9619 18.6841 15.7789 18.5267 15.5748C18.3494 15.3447 18.2166 15.0792 17.9511 14.5482L17 12.646Z" stroke="#677285" stroke-width="2" stroke-linecap="round" stroke-linejoin="round"/>
</mask>
<g mask="url(#mask0_225_286)">
<rect y="0.799316" width="24" height="24" fill="url(#paint0_linear_225_286)"/>
</g>
<defs>
<linearGradient id="paint0_linear_225_286" x1="0" y1="24.7993" x2="24" y2="0.799316" gradientUnits="userSpaceOnUse">
<stop stop-color="#FBB552"/>
<stop offset="1" stop-color="#E950E2"/>
</linearGradient>
</defs>
</svg>
