<?xml version="1.0" encoding="UTF-8" standalone="no"?>
<svg width="48px" height="48px" viewBox="0 0 48 48" version="1.1" xmlns="http://www.w3.org/2000/svg" xmlns:xlink="http://www.w3.org/1999/xlink">
    <!-- Generator: Sketch 42 (36781) - http://www.bohemiancoding.com/sketch -->
    <title>apple_48</title>
    <desc>Created with Sketch.</desc>
    <defs></defs>
    <g id="Page-1" stroke="none" stroke-width="1" fill="none" fill-rule="evenodd">
        <g id="apple_48">
            <rect id="Rectangle-33" x="0" y="0" width="48" height="48"></rect>
            <g transform="translate(9.000000, 6.000000)" id="Shape" fill="#2089C4">
                <g>
                    <path d="M25.055,19.09 C25.107,24.527 29.946,26.336 30,26.36 C29.96,26.487 29.227,28.938 27.45,31.47 C25.915,33.659 24.32,35.84 21.81,35.885 C19.343,35.929 18.55,34.458 15.73,34.458 C12.91,34.458 12.028,35.84 9.693,35.929 C7.27,36.019 5.424,33.562 3.876,31.381 C0.712,26.921 -1.706,18.776 1.541,13.278 C3.154,10.548 6.036,8.818 9.164,8.774 C11.544,8.73 13.79,10.336 15.245,10.336 C16.699,10.336 19.429,8.405 22.298,8.688 C23.499,8.738 26.872,9.162 29.037,12.253 C28.862,12.358 25.013,14.543 25.055,19.089 M20.42,5.737 C21.705,4.218 22.57,2.104 22.335,0 C20.48,0.073 18.238,1.205 16.908,2.723 C15.715,4.068 14.671,6.219 14.953,8.281 C17.02,8.437 19.132,7.257 20.419,5.737"></path>
                </g>
            </g>
        </g>
    </g>
</svg>