<svg width="181" height="25" viewBox="0 0 181 25" fill="none" xmlns="http://www.w3.org/2000/svg">
<path d="M24.3064 10.7906C23.7179 10.3937 22.1721 10.224 21.0479 10.5276C20.9873 9.40534 20.4097 8.45979 19.3538 7.63486L18.9624 7.37181L18.7016 7.76638C18.1891 8.54539 17.9741 9.58356 18.0502 10.5276C18.1107 11.1089 18.3126 11.7626 18.7016 12.2373C17.2388 13.088 15.8902 12.895 9.91811 12.895H0.699848C0.672673 14.2467 0.890067 16.8468 2.53915 18.9629C2.72161 19.1963 2.92114 19.4228 3.13776 19.6407C4.47861 20.987 6.50503 21.9738 9.53534 21.977C14.1581 21.9809 18.1185 19.4765 20.5277 13.421C21.3204 13.4343 23.4128 13.5635 24.4369 11.5797C24.4617 11.5463 24.6978 11.0536 24.6978 11.0536L24.3064 10.7906ZM6.71621 9.39601H4.12379V11.9945H6.71621V9.39601ZM10.0656 9.39601H7.47321V11.9945H10.0656V9.39601ZM13.415 9.39601H10.8226V11.9945H13.415V9.39601ZM16.7644 9.39601H14.172V11.9945H16.7644V9.39601ZM3.36602 9.39601H0.774382V11.9945H3.3668L3.36602 9.39601ZM6.71543 6.11341H4.12302V8.71194H6.71543V6.11341ZM10.0648 6.11341H7.47243V8.71194H10.0648V6.11341ZM13.4143 6.11341H10.8218V8.71194H13.4143V6.11341ZM13.4143 2.83081H10.8218V5.42934H13.4143V2.83081Z" fill="white"/>
<path d="M36.4718 21.4958C35.2758 21.4958 34.1948 21.2198 33.2288 20.6678C32.2781 20.1005 31.5191 19.3338 30.9518 18.3678C30.3998 17.4018 30.1238 16.3131 30.1238 15.1018C30.1238 13.8905 30.3768 12.8095 30.8828 11.8588C31.4041 10.8928 32.1094 10.1338 32.9988 9.58181C33.8881 9.01448 34.8924 8.73081 36.0118 8.73081C36.9164 8.73081 37.7521 8.92248 38.5188 9.30581C39.2854 9.67381 39.9294 10.1798 40.4508 10.8238V4.61381C40.4508 4.26114 40.5581 3.97747 40.7728 3.76281C41.0028 3.54814 41.2864 3.44081 41.6238 3.44081C41.9764 3.44081 42.2601 3.54814 42.4748 3.76281C42.6894 3.97747 42.7968 4.26114 42.7968 4.61381V15.1018C42.7968 16.3131 42.5131 17.4018 41.9458 18.3678C41.3938 19.3338 40.6424 20.1005 39.6918 20.6678C38.7411 21.2198 37.6678 21.4958 36.4718 21.4958ZM36.4718 19.4258C37.2538 19.4258 37.9514 19.2418 38.5648 18.8738C39.1781 18.4905 39.6611 17.9691 40.0138 17.3098C40.3664 16.6505 40.5428 15.9145 40.5428 15.1018C40.5428 14.2738 40.3664 13.5378 40.0138 12.8938C39.6611 12.2498 39.1781 11.7438 38.5648 11.3758C37.9514 10.9925 37.2538 10.8008 36.4718 10.8008C35.7051 10.8008 35.0074 10.9925 34.3788 11.3758C33.7654 11.7438 33.2748 12.2498 32.9068 12.8938C32.5541 13.5378 32.3778 14.2738 32.3778 15.1018C32.3778 15.9145 32.5541 16.6505 32.9068 17.3098C33.2748 17.9691 33.7654 18.4905 34.3788 18.8738C35.0074 19.2418 35.7051 19.4258 36.4718 19.4258ZM51.6436 21.4958C50.4016 21.4958 49.3053 21.2275 48.3546 20.6908C47.404 20.1388 46.6526 19.3875 46.1006 18.4368C45.564 17.4708 45.2956 16.3668 45.2956 15.1248C45.2956 13.8675 45.564 12.7635 46.1006 11.8128C46.6526 10.8468 47.404 10.0955 48.3546 9.55881C49.3053 9.00681 50.4016 8.73081 51.6436 8.73081C52.8703 8.73081 53.959 9.00681 54.9096 9.55881C55.8603 10.0955 56.604 10.8468 57.1406 11.8128C57.6926 12.7635 57.9686 13.8675 57.9686 15.1248C57.9686 16.3668 57.7003 17.4708 57.1636 18.4368C56.627 19.3875 55.8833 20.1388 54.9326 20.6908C53.982 21.2275 52.8856 21.4958 51.6436 21.4958ZM51.6436 19.4258C52.441 19.4258 53.1463 19.2418 53.7596 18.8738C54.373 18.5058 54.8483 17.9998 55.1856 17.3558C55.5383 16.7118 55.7146 15.9681 55.7146 15.1248C55.7146 14.2815 55.5383 13.5378 55.1856 12.8938C54.8483 12.2345 54.373 11.7208 53.7596 11.3528C53.1463 10.9848 52.441 10.8008 51.6436 10.8008C50.8463 10.8008 50.141 10.9848 49.5276 11.3528C48.9143 11.7208 48.4313 12.2345 48.0786 12.8938C47.726 13.5378 47.5496 14.2815 47.5496 15.1248C47.5496 15.9681 47.726 16.7118 48.0786 17.3558C48.4313 17.9998 48.9143 18.5058 49.5276 18.8738C50.141 19.2418 50.8463 19.4258 51.6436 19.4258ZM66.1641 21.4958C64.9375 21.4958 63.8411 21.2198 62.8751 20.6678C61.9245 20.1005 61.1731 19.3415 60.6211 18.3908C60.0845 17.4248 59.8161 16.3361 59.8161 15.1248C59.8161 13.8828 60.0845 12.7788 60.6211 11.8128C61.1578 10.8468 61.8938 10.0955 62.8291 9.55881C63.7645 9.00681 64.8378 8.73081 66.0491 8.73081C66.9538 8.73081 67.7818 8.90714 68.5331 9.25981C69.2845 9.59714 69.9591 10.1108 70.5571 10.8008C70.7718 11.0461 70.8485 11.2991 70.7871 11.5598C70.7258 11.8205 70.5571 12.0505 70.2811 12.2498C70.0665 12.4031 69.8288 12.4568 69.5681 12.4108C69.3075 12.3495 69.0698 12.2115 68.8551 11.9968C68.1038 11.1995 67.1685 10.8008 66.0491 10.8008C65.2671 10.8008 64.5771 10.9848 63.9791 11.3528C63.3811 11.7055 62.9135 12.2038 62.5761 12.8478C62.2388 13.4918 62.0701 14.2508 62.0701 15.1248C62.0701 15.9528 62.2388 16.6888 62.5761 17.3328C62.9288 17.9768 63.4118 18.4905 64.0251 18.8738C64.6385 19.2418 65.3515 19.4258 66.1641 19.4258C66.7008 19.4258 67.1685 19.3645 67.5671 19.2418C67.9811 19.1038 68.3568 18.8968 68.6941 18.6208C68.9395 18.4215 69.1925 18.3141 69.4531 18.2988C69.7138 18.2681 69.9438 18.3371 70.1431 18.5058C70.4038 18.7205 70.5495 18.9658 70.5801 19.2418C70.6108 19.5025 70.5188 19.7401 70.3041 19.9548C69.2001 20.9821 67.8201 21.4958 66.1641 21.4958ZM75.4816 16.8038L74.0556 15.2398L81.1166 8.93781C81.3466 8.72314 81.5996 8.62347 81.8756 8.63881C82.1669 8.65414 82.4123 8.77681 82.6116 9.00681C82.8263 9.23681 82.9259 9.48981 82.9106 9.76581C82.8953 10.0418 82.7726 10.2871 82.5426 10.5018L75.4816 16.8038ZM74.4006 21.4038C74.0633 21.4038 73.7873 21.3041 73.5726 21.1048C73.3733 20.8901 73.2736 20.6141 73.2736 20.2768V4.56781C73.2736 4.23047 73.3733 3.96214 73.5726 3.76281C73.7873 3.54814 74.0633 3.44081 74.4006 3.44081C74.7379 3.44081 75.0063 3.54814 75.2056 3.76281C75.4203 3.96214 75.5276 4.23047 75.5276 4.56781V20.2768C75.5276 20.6141 75.4203 20.8901 75.2056 21.1048C75.0063 21.3041 74.7379 21.4038 74.4006 21.4038ZM82.6116 21.2888C82.3663 21.4881 82.0903 21.5725 81.7836 21.5418C81.4923 21.5265 81.2469 21.3961 81.0476 21.1508L76.3786 15.3778L77.9886 13.8598L82.7726 19.7478C82.9719 19.9931 83.0563 20.2615 83.0256 20.5528C83.0103 20.8288 82.8723 21.0741 82.6116 21.2888ZM90.1338 21.4958C88.8612 21.4958 87.7265 21.2275 86.7298 20.6908C85.7485 20.1388 84.9742 19.3875 84.4068 18.4368C83.8548 17.4708 83.5788 16.3668 83.5788 15.1248C83.5788 13.8675 83.8395 12.7635 84.3608 11.8128C84.8975 10.8468 85.6335 10.0955 86.5688 9.55881C87.5042 9.00681 88.5775 8.73081 89.7888 8.73081C90.9848 8.73081 92.0122 8.99914 92.8708 9.53581C93.7295 10.0571 94.3812 10.7855 94.8258 11.7208C95.2858 12.6408 95.5158 13.7065 95.5158 14.9178C95.5158 15.2091 95.4162 15.4545 95.2168 15.6538C95.0175 15.8378 94.7645 15.9298 94.4578 15.9298H85.1888V14.0898H94.3888L93.4458 14.7338C93.4305 13.9671 93.2772 13.2848 92.9858 12.6868C92.6945 12.0735 92.2805 11.5905 91.7438 11.2378C91.2072 10.8851 90.5555 10.7088 89.7888 10.7088C88.9148 10.7088 88.1635 10.9005 87.5348 11.2838C86.9215 11.6671 86.4538 12.1961 86.1318 12.8708C85.8098 13.5301 85.6488 14.2815 85.6488 15.1248C85.6488 15.9681 85.8405 16.7195 86.2238 17.3788C86.6072 18.0381 87.1362 18.5595 87.8108 18.9428C88.4855 19.3261 89.2598 19.5178 90.1338 19.5178C90.6092 19.5178 91.0922 19.4335 91.5828 19.2648C92.0888 19.0808 92.4952 18.8738 92.8018 18.6438C93.0318 18.4751 93.2772 18.3908 93.5378 18.3908C93.8138 18.3755 94.0515 18.4521 94.2508 18.6208C94.5115 18.8508 94.6495 19.1038 94.6648 19.3798C94.6802 19.6558 94.5575 19.8935 94.2968 20.0928C93.7755 20.5068 93.1238 20.8441 92.3418 21.1048C91.5752 21.3655 90.8392 21.4958 90.1338 21.4958ZM98.635 13.5378C98.635 12.6178 98.8573 11.7975 99.302 11.0768C99.762 10.3408 100.375 9.75814 101.142 9.32881C101.909 8.89947 102.752 8.68481 103.672 8.68481C104.592 8.68481 105.274 8.83814 105.719 9.14481C106.179 9.43614 106.355 9.78881 106.248 10.2028C106.202 10.4175 106.11 10.5861 105.972 10.7088C105.849 10.8161 105.704 10.8851 105.535 10.9158C105.366 10.9465 105.182 10.9388 104.983 10.8928C104.002 10.6935 103.12 10.6781 102.338 10.8468C101.556 11.0155 100.935 11.3298 100.475 11.7898C100.03 12.2498 99.808 12.8325 99.808 13.5378H98.635ZM98.658 21.4038C98.29 21.4038 98.0063 21.3118 97.807 21.1278C97.6077 20.9285 97.508 20.6371 97.508 20.2538V9.97281C97.508 9.60481 97.6077 9.32114 97.807 9.12181C98.0063 8.92247 98.29 8.82281 98.658 8.82281C99.0413 8.82281 99.325 8.92247 99.509 9.12181C99.7083 9.30581 99.808 9.58947 99.808 9.97281V20.2538C99.808 20.6218 99.7083 20.9055 99.509 21.1048C99.325 21.3041 99.0413 21.4038 98.658 21.4038Z" fill="white"/>
<path d="M113.495 21.5188C112.283 21.5188 111.195 21.2428 110.229 20.6908C109.263 20.1235 108.496 19.3568 107.929 18.3908C107.377 17.4248 107.101 16.3285 107.101 15.1018C107.101 13.8905 107.369 12.8018 107.906 11.8358C108.458 10.8698 109.201 10.1108 110.137 9.55881C111.072 8.99147 112.13 8.70781 113.311 8.70781C114.338 8.70781 115.266 8.93014 116.094 9.37481C116.922 9.80414 117.589 10.3791 118.095 11.0998V4.33781C118.095 4.06181 118.179 3.84714 118.348 3.69381C118.516 3.52514 118.731 3.44081 118.992 3.44081C119.252 3.44081 119.467 3.52514 119.636 3.69381C119.804 3.84714 119.889 4.06181 119.889 4.33781V15.1938C119.858 16.3898 119.559 17.4708 118.992 18.4368C118.44 19.3875 117.681 20.1388 116.715 20.6908C115.764 21.2428 114.691 21.5188 113.495 21.5188ZM113.495 19.9088C114.384 19.9088 115.174 19.7018 115.864 19.2878C116.569 18.8585 117.121 18.2835 117.52 17.5628C117.934 16.8421 118.141 16.0218 118.141 15.1018C118.141 14.1971 117.934 13.3845 117.52 12.6638C117.121 11.9278 116.569 11.3528 115.864 10.9388C115.174 10.5248 114.384 10.3178 113.495 10.3178C112.621 10.3178 111.831 10.5248 111.126 10.9388C110.42 11.3528 109.861 11.9278 109.447 12.6638C109.033 13.3845 108.826 14.1971 108.826 15.1018C108.826 16.0218 109.033 16.8421 109.447 17.5628C109.861 18.2835 110.42 18.8585 111.126 19.2878C111.831 19.7018 112.621 19.9088 113.495 19.9088ZM128.756 21.5188C127.53 21.5188 126.433 21.2428 125.467 20.6908C124.501 20.1388 123.742 19.3798 123.19 18.4138C122.638 17.4478 122.362 16.3515 122.362 15.1248C122.362 13.8828 122.638 12.7788 123.19 11.8128C123.742 10.8468 124.501 10.0878 125.467 9.53581C126.433 8.98381 127.53 8.70781 128.756 8.70781C129.983 8.70781 131.072 8.98381 132.022 9.53581C132.988 10.0878 133.747 10.8468 134.299 11.8128C134.851 12.7788 135.135 13.8828 135.15 15.1248C135.15 16.3515 134.867 17.4478 134.299 18.4138C133.747 19.3798 132.988 20.1388 132.022 20.6908C131.072 21.2428 129.983 21.5188 128.756 21.5188ZM128.756 19.9088C129.646 19.9088 130.443 19.7018 131.148 19.2878C131.854 18.8738 132.406 18.3065 132.804 17.5858C133.203 16.8651 133.402 16.0448 133.402 15.1248C133.402 14.2048 133.203 13.3845 132.804 12.6638C132.406 11.9278 131.854 11.3528 131.148 10.9388C130.443 10.5248 129.646 10.3178 128.756 10.3178C127.867 10.3178 127.07 10.5248 126.364 10.9388C125.659 11.3528 125.099 11.9278 124.685 12.6638C124.287 13.3845 124.087 14.2048 124.087 15.1248C124.087 16.0448 124.287 16.8651 124.685 17.5858C125.099 18.3065 125.659 18.8738 126.364 19.2878C127.07 19.7018 127.867 19.9088 128.756 19.9088ZM143.207 21.5188C141.996 21.5188 140.915 21.2428 139.964 20.6908C139.029 20.1235 138.285 19.3568 137.733 18.3908C137.196 17.4248 136.928 16.3361 136.928 15.1248C136.928 13.8981 137.189 12.8018 137.71 11.8358C138.231 10.8698 138.944 10.1108 139.849 9.55881C140.754 8.99147 141.796 8.70781 142.977 8.70781C143.912 8.70781 144.771 8.89181 145.553 9.25981C146.35 9.62781 147.048 10.1798 147.646 10.9158C147.815 11.0998 147.876 11.2991 147.83 11.5138C147.784 11.7131 147.654 11.8895 147.439 12.0428C147.27 12.1655 147.079 12.2115 146.864 12.1808C146.665 12.1348 146.488 12.0198 146.335 11.8358C145.446 10.8238 144.326 10.3178 142.977 10.3178C142.118 10.3178 141.359 10.5248 140.7 10.9388C140.056 11.3528 139.55 11.9201 139.182 12.6408C138.829 13.3615 138.653 14.1895 138.653 15.1248C138.653 16.0448 138.845 16.8651 139.228 17.5858C139.611 18.3065 140.148 18.8738 140.838 19.2878C141.528 19.7018 142.318 19.9088 143.207 19.9088C143.805 19.9088 144.349 19.8321 144.84 19.6788C145.346 19.5101 145.791 19.2571 146.174 18.9198C146.358 18.7665 146.55 18.6821 146.749 18.6668C146.948 18.6515 147.132 18.7128 147.301 18.8508C147.485 19.0195 147.585 19.2111 147.6 19.4258C147.631 19.6405 147.562 19.8245 147.393 19.9778C146.274 21.0051 144.878 21.5188 143.207 21.5188ZM154.667 21.5188C153.762 21.5188 152.865 21.3655 151.976 21.0588C151.086 20.7521 150.366 20.2921 149.814 19.6788C149.645 19.4948 149.576 19.2878 149.607 19.0578C149.637 18.8278 149.752 18.6285 149.952 18.4598C150.166 18.3065 150.389 18.2451 150.619 18.2758C150.849 18.3065 151.04 18.4061 151.194 18.5748C151.562 19.0041 152.045 19.3338 152.643 19.5638C153.256 19.7938 153.931 19.9088 154.667 19.9088C155.801 19.9088 156.622 19.7171 157.128 19.3338C157.634 18.9351 157.894 18.4598 157.91 17.9078C157.91 17.3558 157.649 16.9035 157.128 16.5508C156.606 16.1828 155.748 15.8991 154.552 15.6998C153.003 15.4545 151.868 15.0251 151.148 14.4118C150.427 13.7985 150.067 13.0701 150.067 12.2268C150.067 11.4448 150.274 10.7931 150.688 10.2718C151.102 9.75047 151.654 9.35947 152.344 9.09881C153.034 8.83814 153.793 8.70781 154.621 8.70781C155.648 8.70781 156.53 8.88414 157.266 9.23681C158.017 9.58947 158.623 10.0648 159.083 10.6628C159.236 10.8621 159.297 11.0691 159.267 11.2838C159.236 11.4985 159.113 11.6748 158.899 11.8128C158.715 11.9201 158.5 11.9585 158.255 11.9278C158.025 11.8818 157.825 11.7668 157.657 11.5828C157.273 11.1381 156.829 10.8161 156.323 10.6168C155.817 10.4021 155.234 10.2948 154.575 10.2948C153.731 10.2948 153.057 10.4711 152.551 10.8238C152.045 11.1611 151.792 11.5905 151.792 12.1118C151.792 12.4645 151.884 12.7711 152.068 13.0318C152.267 13.2925 152.597 13.5225 153.057 13.7218C153.532 13.9211 154.191 14.0898 155.035 14.2278C156.185 14.4118 157.089 14.6878 157.749 15.0558C158.423 15.4085 158.899 15.8301 159.175 16.3208C159.466 16.7961 159.612 17.3175 159.612 17.8848C159.612 18.6055 159.397 19.2418 158.968 19.7938C158.554 20.3305 157.971 20.7521 157.22 21.0588C156.484 21.3655 155.633 21.5188 154.667 21.5188Z" fill="white"/>
<path d="M170.072 8.46533L165.611 21.4058H162.914L168.533 6.47607H170.256L170.072 8.46533ZM173.804 21.4058L169.333 8.46533L169.138 6.47607H170.871L176.511 21.4058H173.804ZM173.589 15.8687V17.9092H165.468V15.8687H173.589ZM180.93 6.47607V21.4058H178.357V6.47607H180.93Z" fill="url(#paint0_linear_193_9979)"/>
<defs>
<linearGradient id="paint0_linear_193_9979" x1="186.02" y1="0.405762" x2="158.788" y2="24.9838" gradientUnits="userSpaceOnUse">
<stop stop-color="#FCE1A9"/>
<stop offset="1" stop-color="#FFA6F0"/>
</linearGradient>
</defs>
</svg>
