<?xml version="1.0" encoding="UTF-8" standalone="no"?>
<svg
   fill="#677285"
   height="70px"
   width="70px"
   version="1.1"
   id="svg74"
   sodipodi:docname="build-configure-buildkit.svg"
   inkscape:version="1.2.1 (9c6d41e, 2022-07-14)"
   xmlns:inkscape="http://www.inkscape.org/namespaces/inkscape"
   xmlns:sodipodi="http://sodipodi.sourceforge.net/DTD/sodipodi-0.dtd"
   xmlns="http://www.w3.org/2000/svg"
   xmlns:svg="http://www.w3.org/2000/svg">
  <defs
     id="defs78" />
  <sodipodi:namedview
     id="namedview76"
     pagecolor="#505050"
     bordercolor="#eeeeee"
     borderopacity="1"
     inkscape:showpageshadow="0"
     inkscape:pageopacity="0"
     inkscape:pagecheckerboard="0"
     inkscape:deskcolor="#505050"
     showgrid="false"
     inkscape:zoom="6.459715"
     inkscape:cx="49.228178"
     inkscape:cy="34.444244"
     inkscape:window-width="1718"
     inkscape:window-height="1041"
     inkscape:window-x="5"
     inkscape:window-y="43"
     inkscape:window-maximized="0"
     inkscape:current-layer="svg74" />
  <path
     d="m 57.453786,67.497992 q -0.466181,0 -0.85467,-0.155401 Q 56.210629,67.18719 55.822143,66.79871 L 37.019384,47.99596 q -0.38849,-0.388486 -0.543881,-0.776973 -0.155401,-0.38849 -0.155401,-0.854673 0,-0.466181 0.155401,-0.854671 0.155401,-0.388486 0.543881,-0.776973 l 6.604273,-6.604276 q 0.388487,-0.388487 0.776973,-0.543878 0.38849,-0.155401 0.854671,-0.155401 0.466187,0 0.854673,0.155401 0.388487,0.155401 0.776973,0.543878 l 18.802762,18.802762 q 0.388487,0.388486 0.543878,0.776973 0.155401,0.388486 0.155401,0.85467 0,0.466184 -0.155401,0.85467 -0.155401,0.38849 -0.543878,0.776976 l -6.604277,6.604274 q -0.388486,0.38849 -0.776973,0.543881 -0.388489,0.155401 -0.854673,0.155401 z m -44.209794,0 q -0.466184,0 -0.893519,-0.155401 -0.427336,-0.15537 -0.815823,-0.543872 L 5.0080722,60.272136 Q 4.6195854,59.88365 4.4641905,59.456313 4.3087959,59.028977 4.3087959,58.562793 q 0,-0.466184 0.1553914,-0.854671 0.1553915,-0.388486 0.5438814,-0.776973 L 22.489977,39.449245 h 6.604276 L 32.04675,36.496744 18.449715,22.899706 h -4.428749 l -9.7121701,-9.71217 7.6920381,-7.6920388 9.71217,9.7121698 v 4.42875 L 35.31004,33.233454 45.410698,23.132798 40.204973,17.927075 44.556025,13.576023 H 35.776227 L 34.377672,12.17747 44.322933,2.2322084 45.721488,3.6307607 V 12.410562 L 50.072539,8.0595102 63.203392,21.190363 q 1.16546,1.165461 1.825885,2.680559 0.660432,1.515099 0.660432,3.224441 0,1.553947 -0.505034,2.991349 -0.505034,1.437402 -1.437405,2.602864 l -6.604273,-6.604279 -4.351052,4.351055 -4.040263,-4.040265 -16.394143,16.394145 v 6.526576 L 14.875637,66.798713 q -0.388487,0.388489 -0.776974,0.543881 -0.388487,0.155401 -0.854671,0.155401 z"
     id="path72"
     style="stroke-width:1.55395" />
</svg>
