<?xml version="1.0" encoding="UTF-8" standalone="no"?>
<svg
   fill="#677285"
   height="70px"
   width="70px"
   version="1.1"
   id="svg606"
   sodipodi:docname="build-ci.svg"
   inkscape:version="1.2.1 (9c6d41e, 2022-07-14)"
   xmlns:inkscape="http://www.inkscape.org/namespaces/inkscape"
   xmlns:sodipodi="http://sodipodi.sourceforge.net/DTD/sodipodi-0.dtd"
   xmlns="http://www.w3.org/2000/svg"
   xmlns:svg="http://www.w3.org/2000/svg">
  <defs
     id="defs610" />
  <sodipodi:namedview
     id="namedview608"
     pagecolor="#505050"
     bordercolor="#eeeeee"
     borderopacity="1"
     inkscape:showpageshadow="0"
     inkscape:pageopacity="0"
     inkscape:pagecheckerboard="0"
     inkscape:deskcolor="#505050"
     showgrid="false"
     inkscape:zoom="4.5677083"
     inkscape:cx="66.773091"
     inkscape:cy="14.558723"
     inkscape:window-width="1718"
     inkscape:window-height="1041"
     inkscape:window-x="5"
     inkscape:window-y="43"
     inkscape:window-maximized="0"
     inkscape:current-layer="svg606" />
  <path
     d="m 17.237422,47.871151 q -5.923656,0 -9.9385777,-4.311105 -4.0149218,-4.311106 -4.0149218,-10.300578 0,-5.923653 4.047831,-10.136031 4.0478315,-4.212376 9.9056685,-4.212376 2.369462,0 4.574378,0.78982 2.204916,0.78982 3.916194,2.435281 l 6.12111,5.923652 -2.764372,2.764373 -5.857837,-5.726197 q -1.184731,-1.184732 -2.731463,-1.711279 -1.546732,-0.526547 -3.25801,-0.526547 -4.212377,0 -7.108387,3.060555 -2.896009,3.060555 -2.896009,7.338749 0,4.344013 2.8631,7.503297 2.863101,3.159283 7.141296,3.159283 1.64546,0 3.192192,-0.526548 1.546732,-0.526549 2.797281,-1.64546 L 44.025506,22.136162 q 1.711278,-1.645461 3.916194,-2.435281 2.204916,-0.78982 4.508559,-0.78982 5.923657,0 9.971486,4.212376 4.047832,4.212378 4.047832,10.136031 0,5.989472 -4.047832,10.300578 -4.047829,4.311105 -9.971486,4.311105 -2.303643,0 -4.541467,-0.756911 -2.237827,-0.756914 -3.883286,-2.402373 l -5.989472,-5.923656 2.764372,-2.76437 5.7262,5.726199 q 1.118913,1.118911 2.698554,1.64546 1.579643,0.526548 3.225099,0.526548 4.278197,0 7.174205,-3.159283 2.896011,-3.159284 2.896011,-7.503297 0,-4.278194 -2.928922,-7.338749 -2.928916,-3.060555 -7.141294,-3.060555 -1.645456,0 -3.192188,0.592365 -1.546733,0.592365 -2.731465,1.71128 L 25.727994,44.777686 q -1.711278,1.57964 -3.949103,2.336554 -2.237826,0.756911 -4.541469,0.756911 z"
     id="path604"
     style="stroke-width:1.31637" />
</svg>
