<?xml version="1.0" encoding="UTF-8" standalone="no"?>
<svg
   height="70px"
   width="70px"
   fill="#677285"
   version="1.1"
   id="svg306"
   sodipodi:docname="build-bake.svg"
   inkscape:version="1.2.1 (9c6d41e, 2022-07-14)"
   xmlns:inkscape="http://www.inkscape.org/namespaces/inkscape"
   xmlns:sodipodi="http://sodipodi.sourceforge.net/DTD/sodipodi-0.dtd"
   xmlns="http://www.w3.org/2000/svg"
   xmlns:svg="http://www.w3.org/2000/svg">
  <defs
     id="defs310" />
  <sodipodi:namedview
     id="namedview308"
     pagecolor="#505050"
     bordercolor="#eeeeee"
     borderopacity="1"
     inkscape:showpageshadow="0"
     inkscape:pageopacity="0"
     inkscape:pagecheckerboard="0"
     inkscape:deskcolor="#505050"
     showgrid="false"
     inkscape:zoom="12.528571"
     inkscape:cx="34.960091"
     inkscape:cy="28.694413"
     inkscape:window-width="1390"
     inkscape:window-height="1027"
     inkscape:window-x="1957"
     inkscape:window-y="25"
     inkscape:window-maximized="0"
     inkscape:current-layer="svg306" />
  <g
     id="g463"
     transform="matrix(1.6185861,0,0,1.3865062,-3.7115165,-1.681302)">
    <path
       d="M 8,44 Q 7.15,44 6.575,43.425 6,42.85 6,42 V 31.05 Q 6,29.8 6.875,28.925 7.75,28.05 9,28.05 h 30 q 1.25,0 2.125,0.875 Q 42,29.8 42,31.05 V 42 q 0,0.85 -0.575,1.425 Q 40.85,44 40,44 Z m 2.35,-18.95 v -6.1 q 0,-1.25 0.875,-2.125 Q 12.1,15.95 13.35,15.95 h 9.15 v -3.2 q -1,-0.7 -1.525,-1.525 Q 20.45,10.4 20.45,9.25 20.45,8.5 20.725,7.825 21,7.15 21.5,6.65 L 23.45,4.6 Q 23.5,4.55 24,4.35 q 0.1,0 0.55,0.25 l 1.95,2.05 q 0.5,0.5 0.8,1.175 0.3,0.675 0.3,1.425 0,1.15 -0.55,1.975 -0.55,0.825 -1.55,1.525 v 3.2 h 9.15 q 1.25,0 2.125,0.875 0.875,0.875 0.875,2.125 v 6.1 z"
       id="path304" />
  </g>
</svg>
