<?xml version="1.0" encoding="UTF-8" standalone="no"?>
<svg
   fill="#677285"
   height="70px"
   width="70px"
   version="1.1"
   id="svg517"
   sodipodi:docname="build-multi-platform.svg"
   inkscape:version="1.2.1 (9c6d41e, 2022-07-14)"
   xmlns:inkscape="http://www.inkscape.org/namespaces/inkscape"
   xmlns:sodipodi="http://sodipodi.sourceforge.net/DTD/sodipodi-0.dtd"
   xmlns="http://www.w3.org/2000/svg"
   xmlns:svg="http://www.w3.org/2000/svg">
  <defs
     id="defs521" />
  <sodipodi:namedview
     id="namedview519"
     pagecolor="#505050"
     bordercolor="#eeeeee"
     borderopacity="1"
     inkscape:showpageshadow="0"
     inkscape:pageopacity="0"
     inkscape:pagecheckerboard="0"
     inkscape:deskcolor="#505050"
     showgrid="false"
     inkscape:zoom="4.3697917"
     inkscape:cx="109.84505"
     inkscape:cy="14.073898"
     inkscape:window-width="1910"
     inkscape:window-height="1017"
     inkscape:window-x="1733"
     inkscape:window-y="30"
     inkscape:window-maximized="0"
     inkscape:current-layer="svg517" />
  <path
     d="m 17.669865,53.268178 q -1.888439,0 -3.344111,-1.41633 -1.455671,-1.41633 -1.455671,-3.304769 V 21.715512 q 0,-1.022903 0.668822,-1.691726 0.668822,-0.66882 1.691726,-0.66882 1.022905,0 1.691726,0.66882 0.668823,0.668823 0.668823,1.691726 v 26.831567 h 33.283729 q 1.022905,0 1.691725,0.668823 0.668823,0.668823 0.668823,1.691725 0,1.022905 -0.668823,1.691728 -0.66882,0.668823 -1.691725,0.668823 z m 9.363506,-9.442195 q -1.888439,0 -3.304766,-1.416327 -1.416329,-1.416333 -1.416329,-3.304769 V 10.778308 q 0,-1.8884391 1.416329,-3.3047682 1.416327,-1.4163288 3.304766,-1.4163288 h 34.621375 q 1.888439,0 3.304769,1.4163288 1.416327,1.4163291 1.416327,3.3047682 v 28.326579 q 0,1.888436 -1.416327,3.304769 -1.41633,1.416327 -3.304769,1.416327 z m 0,-4.721096 H 61.654746 V 15.656774 H 27.033371 Z M 8.1489869,62.71037 q -1.8884387,0 -3.3047678,-1.416327 Q 3.4278903,59.87771 3.4278903,57.989271 V 31.157706 q 0,-1.022902 0.6688219,-1.691725 0.6688223,-0.66882 1.6917264,-0.66882 1.0229041,0 1.6917264,0.66882 0.6688219,0.668823 0.6688219,1.691725 V 57.989271 H 41.354029 q 1.022909,0 1.691729,0.668823 0.668822,0.668822 0.668822,1.691728 0,1.022902 -0.668822,1.691725 -0.66882,0.668823 -1.691729,0.668823 z"
     id="path515"
     style="stroke-width:1.5737" />
</svg>
