<?xml version="1.0" encoding="UTF-8" standalone="no"?>
<svg width="48px" height="48px" viewBox="0 0 48 48" version="1.1" xmlns="http://www.w3.org/2000/svg" xmlns:xlink="http://www.w3.org/1999/xlink">
    <!-- Generator: Sketch 42 (36781) - http://www.bohemiancoding.com/sketch -->
    <title>cloudn_48</title>
    <desc>Created with Sketch.</desc>
    <defs></defs>
    <g id="Page-1" stroke="none" stroke-width="1" fill="none" fill-rule="evenodd">
        <g id="cloudn_48">
            <g id="docker_cloud_alt_48">
                <g id="Capa_1">
                    <path d="M39.5,25 C39.2,25 38.9,25 38.7,25.1 C37.9,22.7 35.6,21 33,21 L32.9,21 C32.4,15.4 27.7,11 21.9,11 C17.3,11 13.2,13.8 11.6,18.1 C8.1,18.7 5.4,21.9 5.4,25.5 C5.4,29.6 8.8,32.9 12.9,32.9 L39.4,32.9 C41.9,32.9 43.9,31.1 43.9,28.9 C43.9,26.7 42,25 39.5,25 Z M39.5,32 L13.1,32 L13,32 C9.4,32 6.5,29.1 6.5,25.6 C6.5,22.2 9,19.4 12.4,19.1 C13.7,15 17.5,12.1 21.9,12.1 C27.4,12.1 31.9,16.6 31.9,22.1 L31.9,22.2 C32.2,22.1 32.6,22.1 32.9,22.1 C35.2,22.1 37.3,23.7 37.8,26.1 C37.8,26.2 37.8,26.3 37.9,26.4 C38.4,26.2 38.9,26.1 39.4,26.1 C41.3,26.1 42.9,27.4 42.9,29.1 C42.9,30.8 41.4,32 39.5,32 Z" id="Shape" fill="#E0E4E7" fill-rule="nonzero"></path>
                    <rect id="Rectangle-path" x="0" y="0.2" width="48" height="48"></rect>
                </g>
            </g>
        </g>
    </g>
</svg>