<?xml version="1.0" encoding="UTF-8" standalone="no"?>
<svg
   fill="#677285"
   height="70px"
   width="70px"
   version="1.1"
   id="svg12"
   sodipodi:docname="cloud.svg"
   inkscape:version="1.2.2 (732a01da63, 2022-12-09)"
   xmlns:inkscape="http://www.inkscape.org/namespaces/inkscape"
   xmlns:sodipodi="http://sodipodi.sourceforge.net/DTD/sodipodi-0.dtd"
   xmlns="http://www.w3.org/2000/svg"
   xmlns:svg="http://www.w3.org/2000/svg">
  <defs
     id="defs16" />
  <sodipodi:namedview
     id="namedview14"
     pagecolor="#505050"
     bordercolor="#eeeeee"
     borderopacity="1"
     inkscape:showpageshadow="0"
     inkscape:pageopacity="0"
     inkscape:pagecheckerboard="0"
     inkscape:deskcolor="#505050"
     showgrid="false"
     inkscape:zoom="6.459715"
     inkscape:cx="12.694058"
     inkscape:cy="13.777698"
     inkscape:window-width="1920"
     inkscape:window-height="1057"
     inkscape:window-x="-8"
     inkscape:window-y="-8"
     inkscape:window-maximized="1"
     inkscape:current-layer="svg12" />
  <!--! Font Awesome Free 6.2.1 by @fontawesome - https://fontawesome.com License - https://fontawesome.com/license/free (Icons: CC BY 4.0, Fonts: SIL OFL 1.1, Code: MIT License) Copyright 2022 Fonticons, Inc. -->
  <path
     d="m 3.7217792,39.482551 c 0,6.622873 6.2739903,11.996147 14.0070508,11.996147 h 35.795798 c 6.877073,0 12.450709,-4.773465 12.450709,-10.663242 0,-5.156677 -4.27993,-9.463626 -9.960567,-10.446643 0.398809,-0.89138 0.622536,-1.866067 0.622536,-2.882407 0,-4.415249 -4.182661,-7.997431 -9.338034,-7.997431 -1.916243,0 -3.706035,0.499839 -5.184554,1.349567 -2.694413,-3.998716 -7.723333,-6.681187 -13.491515,-6.681187 -8.598772,0 -15.56339,5.96475 -15.56339,13.329051 0,0.224928 0.0097,0.449855 0.01945,0.674783 -5.4471854,1.641139 -9.3574872,6.08971 -9.3574872,11.321362 z"
     id="path10"
     style="fill:#4d4d4d;stroke-width:0.0900187" />
  <path
     style="fill:#4d4d4d;stroke-width:0.109464"
     d="M 14.895986,51.22592 C 9.9787031,50.339359 5.8773488,47.1698 4.3834982,43.101784 3.8874236,41.750886 3.7933682,41.157015 3.7983413,39.40707 c 0.00425,-1.495148 0.038038,-1.807218 0.2844488,-2.627138 0.5930349,-1.973294 1.364177,-3.311464 2.7738766,-4.813532 1.4358538,-1.529937 3.3284903,-2.763919 5.3793063,-3.507257 0.378133,-0.137058 0.711674,-0.288289 0.741204,-0.336069 0.02953,-0.04778 0.076,-0.520902 0.103262,-1.051381 0.08849,-1.721741 0.416,-3.032987 1.143149,-4.576824 1.134768,-2.409265 2.970245,-4.399112 5.425215,-5.88149 3.022235,-1.82491 6.709044,-2.680511 10.289624,-2.387924 1.374474,0.112315 1.526425,0.13472 2.68187,0.395451 3.670385,0.828234 7.196723,3.038213 9.118998,5.714933 0.185458,0.258244 0.389254,0.44543 0.452884,0.41597 3.064093,-1.418702 5.769042,-1.627734 8.600661,-0.664638 2.514912,0.855377 4.478262,2.643004 5.349423,4.87064 0.561725,1.43638 0.625449,2.984071 0.185418,4.5033 -0.145636,0.502813 -0.256365,0.922044 -0.246066,0.931624 0.0103,0.0096 0.191133,0.04507 0.401852,0.07886 1.484202,0.238027 3.753285,1.231641 5.097694,2.232245 1.39708,1.039804 2.824168,2.699232 3.41125,3.966626 0.676033,1.459421 0.942664,2.603688 0.943751,4.050171 0.0013,1.719339 -0.27216,2.901901 -0.999834,4.323831 -1.627988,3.181216 -4.545361,5.229513 -8.908003,6.254337 -0.201211,0.04727 -9.281688,0.09647 -20.178838,0.109339 -18.96516,0.0224 -19.861803,0.0146 -20.953501,-0.182226 z"
     id="path730" />
  <path
     style="fill:#677285;fill-opacity:1;stroke-width:0.124289"
     d="M 14.02573,57.435942 C 13.9979,57.409314 13.647196,57.351353 13.246397,57.307109 11.777618,57.144973 9.4751801,56.389835 7.9024014,55.554424 7.280291,55.223978 5.600659,54.124101 5.4125857,53.924014 5.3791857,53.88848 4.9831746,53.525678 4.532561,53.117785 2.8546993,51.598998 1.2388561,48.879418 0.66568614,46.609556 0.33738962,45.309441 0.25271053,42.555366 0.50339195,41.331157 1.0836703,38.497358 2.2757054,36.312747 4.3938197,34.201274 c 1.5161641,-1.511409 3.8421091,-2.971421 5.6627063,-3.554523 0.249569,-0.07993 0.476254,-0.184081 0.503742,-0.231446 0.02749,-0.04736 0.0842,-0.681693 0.125996,-1.409627 0.194642,-3.388827 1.500222,-6.519741 3.757038,-9.00976 2.934803,-3.238063 6.692934,-5.137004 11.373629,-5.746964 1.056127,-0.137628 3.979336,-0.0789 5.04036,0.101251 4.722519,0.801873 8.81795,3.194012 11.490949,6.711862 l 0.601047,0.791017 0.937633,-0.448998 c 0.515696,-0.246949 1.538831,-0.592289 2.273631,-0.767425 1.172961,-0.279568 1.528677,-0.310637 2.914906,-0.254592 3.041077,0.122951 5.491419,1.188491 7.447564,3.238598 1.334028,1.398106 2.162555,3.076308 2.432883,4.927856 0.152279,1.042995 0.09001,1.915577 -0.233436,3.271781 -0.128861,0.540296 -0.234292,1.034611 -0.234292,1.098476 0,0.06386 0.259609,0.156305 0.576908,0.205423 0.673418,0.104243 2.567544,0.82264 3.61327,1.370418 1.837453,0.962507 3.868712,2.870733 5.017474,4.713564 0.712579,1.143114 1.305735,2.691221 1.529839,3.992809 0.220048,1.278027 0.147781,3.375363 -0.159684,4.634312 -0.573181,2.346957 -2.127438,4.738781 -4.205901,6.472398 -1.691728,1.41105 -4.854392,2.795669 -6.963925,3.048818 -0.980405,0.117654 -43.749472,0.195074 -43.870427,0.07942 z"
     id="path732" />
</svg>
