<?xml version="1.0" encoding="UTF-8" standalone="no"?>
<svg width="48px" height="48px" viewBox="0 0 48 48" version="1.1" xmlns="http://www.w3.org/2000/svg" xmlns:xlink="http://www.w3.org/1999/xlink">
    <!-- Generator: Sketch 42 (36781) - http://www.bohemiancoding.com/sketch -->
    <title>composen_48</title>
    <desc>Created with Sketch.</desc>
    <defs></defs>
    <g id="Page-1" stroke="none" stroke-width="1" fill="none" fill-rule="evenodd">
        <g id="composen_48">
            <g id="compose_48">
                <g id="Capa_1">
                    <path d="M6,42 L14,42 L14,34 L6,34 L6,42 Z M7,35 L13,35 L13,41 L7,41 L7,35 Z M28,6 L20,6 L20,14 L28,14 L28,6 Z M27,13 L21,13 L21,7 L27,7 L27,13 Z M20,42 L28,42 L28,34 L20,34 L20,42 Z M21,35 L27,35 L27,41 L21,41 L21,35 Z M34,6 L34,14 L42,14 L42,6 L34,6 Z M41,13 L35,13 L35,7 L41,7 L41,13 Z" id="Shape" fill="#E0E4E7" fill-rule="nonzero"></path>
                    <path d="M34,23 L28,23 L28,20 L20,20 L20,23 L14,23 L14,20 L11,20 L11,14 L14,14 L14,6 L6,6 L6,14 L9,14 L9,20 L6,20 L6,28 L14,28 L14,25 L20,25 L20,28 L28,28 L28,25 L34,25 L34,28 L37,28 L37,34 L34,34 L34,42 L42,42 L42,34 L39,34 L39,28 L42,28 L42,20 L34,20 L34,23 Z M7,13 L7,7 L13,7 L13,13 L7,13 Z M13,27 L7,27 L7,21 L13,21 L13,27 Z M27,27 L21,27 L21,21 L27,21 L27,27 Z M41,35 L41,41 L35,41 L35,35 L41,35 Z M35,21 L41,21 L41,27 L35,27 L35,21 Z" id="Shape" fill="#E0E4E7" fill-rule="nonzero"></path>
                    <polygon id="Rectangle-30" points="0 0 48 0 48 48 0 48"></polygon>
                </g>
            </g>
        </g>
    </g>
</svg>