<!-- License: CC Attribution. Made by remartwork: https://dribbble.com/remartwork -->
<svg width="24px" height="24px" viewBox="0 0 24 24" fill="none" xmlns="http://www.w3.org/2000/svg">
<path fill-rule="evenodd" clip-rule="evenodd" d="M8.12903 15.0769C8.12903 14.6521 8.47565 14.3077 8.90323 14.3077H13.0323C13.4598 14.3077 13.8065 14.6521 13.8065 15.0769C13.8065 15.5018 13.4598 15.8462 13.0323 15.8462H8.90323C8.47565 15.8462 8.12903 15.5018 8.12903 15.0769Z" fill="#030D45"/>
<path fill-rule="evenodd" clip-rule="evenodd" d="M10.9677 17.8974C10.5402 17.8974 10.1935 17.553 10.1935 17.1282V13.0256C10.1935 12.6008 10.5402 12.2564 10.9677 12.2564C11.3953 12.2564 11.7419 12.6008 11.7419 13.0256V17.1282C11.7419 17.553 11.3953 17.8974 10.9677 17.8974Z" fill="#030D45"/>
<path fill-rule="evenodd" clip-rule="evenodd" d="M12 3.53846C10.4751 3.53846 8.42753 3.70582 6.99542 3.8447C6.40117 3.90233 5.93741 4.3731 5.89141 4.96993C5.749 6.81754 5.54839 9.81282 5.54839 12C5.54839 14.1872 5.749 17.1825 5.89141 19.0301C5.93741 19.6269 6.40117 20.0977 6.99542 20.1553C8.42753 20.2942 10.4751 20.4615 12 20.4615C13.5249 20.4615 15.5725 20.2942 17.0046 20.1553C17.5988 20.0977 18.0626 19.6269 18.1086 19.0301C18.251 17.1825 18.4516 14.1872 18.4516 12C18.4516 11.2947 18.4307 10.5036 18.3975 9.69231H15.0976L15.0968 8.92308L15.0968 8.15385H18.321C18.1302 5.71619 16.228 3.7745 13.8065 3.59594V6.8718C13.8065 7.57985 14.3842 8.15385 15.0968 8.15385L15.0968 8.92308L15.0976 9.69231C13.5298 9.69231 12.2581 8.42952 12.2581 6.8718V3.53997C12.1705 3.53898 12.0844 3.53846 12 3.53846ZM13.0569 2.02069C12.6911 2.00756 12.3351 2 12 2C10.3935 2 8.28091 2.17427 6.84502 2.31351C5.49709 2.44423 4.45055 3.51605 4.34754 4.85245C4.20508 6.70071 4 9.74813 4 12C4 14.2519 4.20508 17.2993 4.34754 19.1475C4.45055 20.484 5.49709 21.5558 6.84502 21.6865C8.28091 21.8257 10.3935 22 12 22C13.6065 22 15.7191 21.8257 17.155 21.6865C18.5029 21.5558 19.5495 20.484 19.6525 19.1475C19.7949 17.2993 20 14.2519 20 12C20 11.0519 19.9637 9.9656 19.9114 8.8902C19.9112 8.88689 19.911 8.88359 19.9109 8.8803C19.8996 8.64894 19.8876 8.41812 19.875 8.1893C19.6948 4.90999 17.1178 2.22743 13.7827 2.05298C13.5417 2.04037 13.3017 2.02954 13.0659 2.02102" fill="#030D45"/>
</svg>
