<svg width="160" height="24" viewBox="0 0 160 24" fill="none" xmlns="http://www.w3.org/2000/svg">
<path d="M23.6087 10.3866C23.0202 9.98965 21.4744 9.81999 20.3501 10.1235C20.2896 9.00129 19.7119 8.05574 18.656 7.23081L18.2647 6.96776L18.0038 7.36233C17.4914 8.14134 17.2763 9.17951 17.3524 10.1235C17.413 10.7048 17.6148 11.3586 18.0038 11.8333C16.5411 12.6839 15.1925 12.4909 9.22035 12.4909H0.00209363C-0.0250805 13.8427 0.192313 16.4428 1.8414 18.5588C2.02385 18.7923 2.22339 19.0187 2.44001 19.2366C3.78086 20.583 5.80727 21.5698 8.83758 21.5729C13.4603 21.5768 17.4207 19.0724 19.8299 13.017C20.6226 13.0302 22.715 13.1594 23.7391 11.1757C23.764 11.1422 24 10.6496 24 10.6496L23.6087 10.3866ZM6.01846 8.99195H3.42604V11.5905H6.01846V8.99195ZM9.36787 8.99195H6.77545V11.5905H9.36787V8.99195ZM12.7173 8.99195H10.1249V11.5905H12.7173V8.99195ZM16.0667 8.99195H13.4743V11.5905H16.0667V8.99195ZM2.66827 8.99195H0.0766285V11.5905H2.66905L2.66827 8.99195ZM6.01768 5.70936H3.42526V8.30788H6.01768V5.70936ZM9.36709 5.70936H6.77468V8.30788H9.36709V5.70936ZM12.7165 5.70936H10.1241V8.30788H12.7165V5.70936ZM12.7165 2.42676H10.1241V5.02529H12.7165V2.42676Z" fill="white"/>
<path d="M35.774 21.092C34.578 21.092 33.497 20.816 32.531 20.264C31.5803 19.6967 30.8213 18.93 30.254 17.964C29.702 16.998 29.426 15.9093 29.426 14.698C29.426 13.4867 29.679 12.4057 30.185 11.455C30.7063 10.489 31.4117 9.73 32.301 9.178C33.1903 8.61067 34.1947 8.327 35.314 8.327C36.2187 8.327 37.0543 8.51867 37.821 8.902C38.5877 9.27 39.2317 9.776 39.753 10.42V4.21C39.753 3.85733 39.8603 3.57367 40.075 3.359C40.305 3.14433 40.5887 3.037 40.926 3.037C41.2787 3.037 41.5623 3.14433 41.777 3.359C41.9917 3.57367 42.099 3.85733 42.099 4.21V14.698C42.099 15.9093 41.8153 16.998 41.248 17.964C40.696 18.93 39.9447 19.6967 38.994 20.264C38.0433 20.816 36.97 21.092 35.774 21.092ZM35.774 19.022C36.556 19.022 37.2537 18.838 37.867 18.47C38.4803 18.0867 38.9633 17.5653 39.316 16.906C39.6687 16.2467 39.845 15.5107 39.845 14.698C39.845 13.87 39.6687 13.134 39.316 12.49C38.9633 11.846 38.4803 11.34 37.867 10.972C37.2537 10.5887 36.556 10.397 35.774 10.397C35.0073 10.397 34.3097 10.5887 33.681 10.972C33.0677 11.34 32.577 11.846 32.209 12.49C31.8563 13.134 31.68 13.87 31.68 14.698C31.68 15.5107 31.8563 16.2467 32.209 16.906C32.577 17.5653 33.0677 18.0867 33.681 18.47C34.3097 18.838 35.0073 19.022 35.774 19.022ZM50.9459 21.092C49.7039 21.092 48.6075 20.8237 47.6569 20.287C46.7062 19.735 45.9549 18.9837 45.4029 18.033C44.8662 17.067 44.5979 15.963 44.5979 14.721C44.5979 13.4637 44.8662 12.3597 45.4029 11.409C45.9549 10.443 46.7062 9.69167 47.6569 9.155C48.6075 8.603 49.7039 8.327 50.9459 8.327C52.1725 8.327 53.2612 8.603 54.2119 9.155C55.1625 9.69167 55.9062 10.443 56.4429 11.409C56.9949 12.3597 57.2709 13.4637 57.2709 14.721C57.2709 15.963 57.0025 17.067 56.4659 18.033C55.9292 18.9837 55.1855 19.735 54.2349 20.287C53.2842 20.8237 52.1879 21.092 50.9459 21.092ZM50.9459 19.022C51.7432 19.022 52.4485 18.838 53.0619 18.47C53.6752 18.102 54.1505 17.596 54.4879 16.952C54.8405 16.308 55.0169 15.5643 55.0169 14.721C55.0169 13.8777 54.8405 13.134 54.4879 12.49C54.1505 11.8307 53.6752 11.317 53.0619 10.949C52.4485 10.581 51.7432 10.397 50.9459 10.397C50.1485 10.397 49.4432 10.581 48.8299 10.949C48.2165 11.317 47.7335 11.8307 47.3809 12.49C47.0282 13.134 46.8519 13.8777 46.8519 14.721C46.8519 15.5643 47.0282 16.308 47.3809 16.952C47.7335 17.596 48.2165 18.102 48.8299 18.47C49.4432 18.838 50.1485 19.022 50.9459 19.022ZM65.4664 21.092C64.2397 21.092 63.1434 20.816 62.1774 20.264C61.2267 19.6967 60.4754 18.9377 59.9234 17.987C59.3867 17.021 59.1184 15.9323 59.1184 14.721C59.1184 13.479 59.3867 12.375 59.9234 11.409C60.46 10.443 61.196 9.69167 62.1314 9.155C63.0667 8.603 64.14 8.327 65.3514 8.327C66.256 8.327 67.084 8.50333 67.8354 8.856C68.5867 9.19333 69.2614 9.707 69.8594 10.397C70.0741 10.6423 70.1507 10.8953 70.0894 11.156C70.0281 11.4167 69.8594 11.6467 69.5834 11.846C69.3687 11.9993 69.1311 12.053 68.8704 12.007C68.6097 11.9457 68.372 11.8077 68.1574 11.593C67.406 10.7957 66.4707 10.397 65.3514 10.397C64.5694 10.397 63.8794 10.581 63.2814 10.949C62.6834 11.3017 62.2157 11.8 61.8784 12.444C61.541 13.088 61.3724 13.847 61.3724 14.721C61.3724 15.549 61.541 16.285 61.8784 16.929C62.231 17.573 62.714 18.0867 63.3274 18.47C63.9407 18.838 64.6537 19.022 65.4664 19.022C66.0031 19.022 66.4707 18.9607 66.8694 18.838C67.2834 18.7 67.6591 18.493 67.9964 18.217C68.2417 18.0177 68.4947 17.9103 68.7554 17.895C69.0161 17.8643 69.2461 17.9333 69.4454 18.102C69.706 18.3167 69.8517 18.562 69.8824 18.838C69.913 19.0987 69.821 19.3363 69.6064 19.551C68.5024 20.5783 67.1224 21.092 65.4664 21.092ZM74.7839 16.4L73.3579 14.836L80.4189 8.534C80.6489 8.31933 80.9019 8.21967 81.1779 8.235C81.4692 8.25033 81.7145 8.373 81.9139 8.603C82.1285 8.833 82.2282 9.086 82.2129 9.362C82.1975 9.638 82.0749 9.88333 81.8449 10.098L74.7839 16.4ZM73.7029 21C73.3655 21 73.0895 20.9003 72.8749 20.701C72.6755 20.4863 72.5759 20.2103 72.5759 19.873V4.164C72.5759 3.82667 72.6755 3.55833 72.8749 3.359C73.0895 3.14433 73.3655 3.037 73.7029 3.037C74.0402 3.037 74.3085 3.14433 74.5079 3.359C74.7225 3.55833 74.8299 3.82667 74.8299 4.164V19.873C74.8299 20.2103 74.7225 20.4863 74.5079 20.701C74.3085 20.9003 74.0402 21 73.7029 21ZM81.9139 20.885C81.6685 21.0843 81.3925 21.1687 81.0859 21.138C80.7945 21.1227 80.5492 20.9923 80.3499 20.747L75.6809 14.974L77.2909 13.456L82.0749 19.344C82.2742 19.5893 82.3585 19.8577 82.3279 20.149C82.3125 20.425 82.1745 20.6703 81.9139 20.885ZM89.4361 21.092C88.1634 21.092 87.0287 20.8237 86.0321 20.287C85.0507 19.735 84.2764 18.9837 83.7091 18.033C83.1571 17.067 82.8811 15.963 82.8811 14.721C82.8811 13.4637 83.1417 12.3597 83.6631 11.409C84.1997 10.443 84.9357 9.69167 85.8711 9.155C86.8064 8.603 87.8797 8.327 89.0911 8.327C90.2871 8.327 91.3144 8.59533 92.1731 9.132C93.0317 9.65333 93.6834 10.3817 94.1281 11.317C94.5881 12.237 94.8181 13.3027 94.8181 14.514C94.8181 14.8053 94.7184 15.0507 94.5191 15.25C94.3197 15.434 94.0667 15.526 93.7601 15.526H84.4911V13.686H93.6911L92.7481 14.33C92.7327 13.5633 92.5794 12.881 92.2881 12.283C91.9967 11.6697 91.5827 11.1867 91.0461 10.834C90.5094 10.4813 89.8577 10.305 89.0911 10.305C88.2171 10.305 87.4657 10.4967 86.8371 10.88C86.2237 11.2633 85.7561 11.7923 85.4341 12.467C85.1121 13.1263 84.9511 13.8777 84.9511 14.721C84.9511 15.5643 85.1427 16.3157 85.5261 16.975C85.9094 17.6343 86.4384 18.1557 87.1131 18.539C87.7877 18.9223 88.5621 19.114 89.4361 19.114C89.9114 19.114 90.3944 19.0297 90.8851 18.861C91.3911 18.677 91.7974 18.47 92.1041 18.24C92.3341 18.0713 92.5794 17.987 92.8401 17.987C93.1161 17.9717 93.3537 18.0483 93.5531 18.217C93.8137 18.447 93.9517 18.7 93.9671 18.976C93.9824 19.252 93.8597 19.4897 93.5991 19.689C93.0777 20.103 92.4261 20.4403 91.6441 20.701C90.8774 20.9617 90.1414 21.092 89.4361 21.092ZM97.9372 13.134C97.9372 12.214 98.1596 11.3937 98.6042 10.673C99.0642 9.937 99.6776 9.35433 100.444 8.925C101.211 8.49567 102.054 8.281 102.974 8.281C103.894 8.281 104.577 8.43433 105.021 8.741C105.481 9.03233 105.658 9.385 105.55 9.799C105.504 10.0137 105.412 10.1823 105.274 10.305C105.152 10.4123 105.006 10.4813 104.837 10.512C104.669 10.5427 104.485 10.535 104.285 10.489C103.304 10.2897 102.422 10.2743 101.64 10.443C100.858 10.6117 100.237 10.926 99.7772 11.386C99.3326 11.846 99.1102 12.4287 99.1102 13.134H97.9372ZM97.9602 21C97.5922 21 97.3086 20.908 97.1092 20.724C96.9099 20.5247 96.8102 20.2333 96.8102 19.85V9.569C96.8102 9.201 96.9099 8.91733 97.1092 8.718C97.3086 8.51867 97.5922 8.419 97.9602 8.419C98.3436 8.419 98.6272 8.51867 98.8112 8.718C99.0106 8.902 99.1102 9.18567 99.1102 9.569V19.85C99.1102 20.218 99.0106 20.5017 98.8112 20.701C98.6272 20.9003 98.3436 21 97.9602 21Z" fill="white"/>
<path d="M112.797 21.115C111.586 21.115 110.497 20.839 109.531 20.287C108.565 19.7197 107.798 18.953 107.231 17.987C106.679 17.021 106.403 15.9247 106.403 14.698C106.403 13.4867 106.671 12.398 107.208 11.432C107.76 10.466 108.504 9.707 109.439 9.155C110.374 8.58767 111.432 8.304 112.613 8.304C113.64 8.304 114.568 8.52633 115.396 8.971C116.224 9.40033 116.891 9.97533 117.397 10.696V3.934C117.397 3.658 117.481 3.44333 117.65 3.29C117.819 3.12133 118.033 3.037 118.294 3.037C118.555 3.037 118.769 3.12133 118.938 3.29C119.107 3.44333 119.191 3.658 119.191 3.934V14.79C119.16 15.986 118.861 17.067 118.294 18.033C117.742 18.9837 116.983 19.735 116.017 20.287C115.066 20.839 113.993 21.115 112.797 21.115ZM112.797 19.505C113.686 19.505 114.476 19.298 115.166 18.884C115.871 18.4547 116.423 17.8797 116.822 17.159C117.236 16.4383 117.443 15.618 117.443 14.698C117.443 13.7933 117.236 12.9807 116.822 12.26C116.423 11.524 115.871 10.949 115.166 10.535C114.476 10.121 113.686 9.914 112.797 9.914C111.923 9.914 111.133 10.121 110.428 10.535C109.723 10.949 109.163 11.524 108.749 12.26C108.335 12.9807 108.128 13.7933 108.128 14.698C108.128 15.618 108.335 16.4383 108.749 17.159C109.163 17.8797 109.723 18.4547 110.428 18.884C111.133 19.298 111.923 19.505 112.797 19.505ZM128.059 21.115C126.832 21.115 125.736 20.839 124.77 20.287C123.804 19.735 123.045 18.976 122.493 18.01C121.941 17.044 121.665 15.9477 121.665 14.721C121.665 13.479 121.941 12.375 122.493 11.409C123.045 10.443 123.804 9.684 124.77 9.132C125.736 8.58 126.832 8.304 128.059 8.304C129.285 8.304 130.374 8.58 131.325 9.132C132.291 9.684 133.05 10.443 133.602 11.409C134.154 12.375 134.437 13.479 134.453 14.721C134.453 15.9477 134.169 17.044 133.602 18.01C133.05 18.976 132.291 19.735 131.325 20.287C130.374 20.839 129.285 21.115 128.059 21.115ZM128.059 19.505C128.948 19.505 129.745 19.298 130.451 18.884C131.156 18.47 131.708 17.9027 132.107 17.182C132.505 16.4613 132.705 15.641 132.705 14.721C132.705 13.801 132.505 12.9807 132.107 12.26C131.708 11.524 131.156 10.949 130.451 10.535C129.745 10.121 128.948 9.914 128.059 9.914C127.169 9.914 126.372 10.121 125.667 10.535C124.961 10.949 124.402 11.524 123.988 12.26C123.589 12.9807 123.39 13.801 123.39 14.721C123.39 15.641 123.589 16.4613 123.988 17.182C124.402 17.9027 124.961 18.47 125.667 18.884C126.372 19.298 127.169 19.505 128.059 19.505ZM142.509 21.115C141.298 21.115 140.217 20.839 139.266 20.287C138.331 19.7197 137.587 18.953 137.035 17.987C136.498 17.021 136.23 15.9323 136.23 14.721C136.23 13.4943 136.491 12.398 137.012 11.432C137.533 10.466 138.246 9.707 139.151 9.155C140.056 8.58767 141.098 8.304 142.279 8.304C143.214 8.304 144.073 8.488 144.855 8.856C145.652 9.224 146.35 9.776 146.948 10.512C147.117 10.696 147.178 10.8953 147.132 11.11C147.086 11.3093 146.956 11.4857 146.741 11.639C146.572 11.7617 146.381 11.8077 146.166 11.777C145.967 11.731 145.79 11.616 145.637 11.432C144.748 10.42 143.628 9.914 142.279 9.914C141.42 9.914 140.661 10.121 140.002 10.535C139.358 10.949 138.852 11.5163 138.484 12.237C138.131 12.9577 137.955 13.7857 137.955 14.721C137.955 15.641 138.147 16.4613 138.53 17.182C138.913 17.9027 139.45 18.47 140.14 18.884C140.83 19.298 141.62 19.505 142.509 19.505C143.107 19.505 143.651 19.4283 144.142 19.275C144.648 19.1063 145.093 18.8533 145.476 18.516C145.66 18.3627 145.852 18.2783 146.051 18.263C146.25 18.2477 146.434 18.309 146.603 18.447C146.787 18.6157 146.887 18.8073 146.902 19.022C146.933 19.2367 146.864 19.4207 146.695 19.574C145.576 20.6013 144.18 21.115 142.509 21.115ZM153.969 21.115C153.064 21.115 152.167 20.9617 151.278 20.655C150.389 20.3483 149.668 19.8883 149.116 19.275C148.947 19.091 148.878 18.884 148.909 18.654C148.94 18.424 149.055 18.2247 149.254 18.056C149.469 17.9027 149.691 17.8413 149.921 17.872C150.151 17.9027 150.343 18.0023 150.496 18.171C150.864 18.6003 151.347 18.93 151.945 19.16C152.558 19.39 153.233 19.505 153.969 19.505C155.104 19.505 155.924 19.3133 156.43 18.93C156.936 18.5313 157.197 18.056 157.212 17.504C157.212 16.952 156.951 16.4997 156.43 16.147C155.909 15.779 155.05 15.4953 153.854 15.296C152.305 15.0507 151.171 14.6213 150.45 14.008C149.729 13.3947 149.369 12.6663 149.369 11.823C149.369 11.041 149.576 10.3893 149.99 9.868C150.404 9.34667 150.956 8.95567 151.646 8.695C152.336 8.43433 153.095 8.304 153.923 8.304C154.95 8.304 155.832 8.48033 156.568 8.833C157.319 9.18567 157.925 9.661 158.385 10.259C158.538 10.4583 158.6 10.6653 158.569 10.88C158.538 11.0947 158.416 11.271 158.201 11.409C158.017 11.5163 157.802 11.5547 157.557 11.524C157.327 11.478 157.128 11.363 156.959 11.179C156.576 10.7343 156.131 10.4123 155.625 10.213C155.119 9.99833 154.536 9.891 153.877 9.891C153.034 9.891 152.359 10.0673 151.853 10.42C151.347 10.7573 151.094 11.1867 151.094 11.708C151.094 12.0607 151.186 12.3673 151.37 12.628C151.569 12.8887 151.899 13.1187 152.359 13.318C152.834 13.5173 153.494 13.686 154.337 13.824C155.487 14.008 156.392 14.284 157.051 14.652C157.726 15.0047 158.201 15.4263 158.477 15.917C158.768 16.3923 158.914 16.9137 158.914 17.481C158.914 18.2017 158.699 18.838 158.27 19.39C157.856 19.9267 157.273 20.3483 156.522 20.655C155.786 20.9617 154.935 21.115 153.969 21.115Z" fill="white"/>
</svg>
