<?xml version="1.0" encoding="UTF-8" standalone="no"?>
<svg width="159px" height="28px" viewBox="0 0 159 28" version="1.1" xmlns="http://www.w3.org/2000/svg" xmlns:xlink="http://www.w3.org/1999/xlink">
    <!-- Generator: Sketch 41.1 (35376) - http://www.bohemiancoding.com/sketch -->
    <title>docs</title>
    <desc>Created with Sketch.</desc>
    <defs></defs>
    <g id="Blind-whale" stroke="none" stroke-width="1" fill="none" fill-rule="evenodd">
        <g id="docs" fill="#FFFFFF">
            <path d="M50.1938477,17.4046875 C50.1938477,16.9593728 50.1088062,16.5403503 49.9387207,16.1476074 C49.7686352,15.7548646 49.5367039,15.4100601 49.2429199,15.1131836 C48.9491359,14.8163071 48.6043314,14.5812834 48.2084961,14.4081055 C47.8126608,14.2349275 47.3889997,14.1483398 46.9375,14.1483398 C46.4798154,14.1483398 46.0530619,14.2349275 45.6572266,14.4081055 C45.2613913,14.5812834 44.918133,14.8147609 44.6274414,15.1085449 C44.3367498,15.4023289 44.1063648,15.7471334 43.9362793,16.1429688 C43.7661938,16.5388041 43.6811523,16.9593728 43.6811523,17.4046875 C43.6811523,17.8500022 43.7661938,18.2705709 43.9362793,18.6664063 C44.1063648,19.0622416 44.3367498,19.4070461 44.6274414,19.7008301 C44.918133,19.9946141 45.2613913,20.2280916 45.6572266,20.4012695 C46.0530619,20.5744475 46.4798154,20.6610352 46.9375,20.6610352 C47.3889997,20.6610352 47.8126608,20.5744475 48.2084961,20.4012695 C48.6043314,20.2280916 48.9491359,19.9930679 49.2429199,19.6961914 C49.5367039,19.3993149 49.7686352,19.0545104 49.9387207,18.6617676 C50.1088062,18.2690247 50.1938477,17.8500022 50.1938477,17.4046875 Z M46.9375,12.209375 C48.1683004,12.209375 49.2537388,12.5897423 50.1938477,13.3504883 L50.1938477,8.72109375 C50.1938477,8.44277205 50.285074,8.21238698 50.4675293,8.02993164 C50.6499846,7.8474763 50.8803697,7.75625 51.1586914,7.75625 C51.4308282,7.75625 51.6612132,7.8474763 51.8498535,8.02993164 C52.0384938,8.21238698 52.1328125,8.44277205 52.1328125,8.72109375 L52.1328125,17.4046875 C52.1328125,18.8519604 51.6256561,20.0765575 50.6113281,21.0785156 C49.5846303,22.0928436 48.3600332,22.6 46.9375,22.6 C45.502597,22.6 44.2779999,22.0928436 43.2636719,21.0785156 C42.2493439,20.0641876 41.7421875,18.8395905 41.7421875,17.4046875 C41.7421875,15.9697845 42.2493439,14.7451874 43.2636719,13.7308594 C44.2779999,12.7165314 45.502597,12.209375 46.9375,12.209375 Z M63.6278125,17.4046875 C63.6278125,18.8519604 63.1206561,20.0765575 62.1063281,21.0785156 C61.0796303,22.0928436 59.8550332,22.6 58.4325,22.6 C56.997597,22.6 55.7729999,22.0928436 54.7586719,21.0785156 C53.7443439,20.0641876 53.2371875,18.8395905 53.2371875,17.4046875 C53.2371875,15.9697845 53.7443439,14.7451874 54.7586719,13.7308594 C55.7729999,12.7165314 56.997597,12.209375 58.4325,12.209375 C59.8550332,12.209375 61.0796303,12.7165314 62.1063281,13.7308594 C62.6134921,14.2380234 62.9923132,14.7977508 63.2428027,15.4100586 C63.4932923,16.0223663 63.6216276,16.687236 63.6278125,17.4046875 Z M58.4325,14.1483398 C57.9748154,14.1483398 57.5480619,14.2349275 57.1522266,14.4081055 C56.7563913,14.5812834 56.413133,14.8147609 56.1224414,15.1085449 C55.8317499,15.4023289 55.6013648,15.7471334 55.4312793,16.1429688 C55.2611938,16.5388041 55.1761523,16.9593728 55.1761523,17.4046875 C55.1761523,17.8500022 55.2611938,18.2705709 55.4312793,18.6664063 C55.6013648,19.0622416 55.8317499,19.4070461 56.1224414,19.7008301 C56.413133,19.9946141 56.7563913,20.2280916 57.1522266,20.4012695 C57.5480619,20.5744475 57.9748154,20.6610352 58.4325,20.6610352 C58.8839997,20.6610352 59.3076608,20.5744475 59.7034961,20.4012695 C60.0993314,20.2280916 60.4441359,19.9930679 60.7379199,19.6961914 C61.0317039,19.3993149 61.2636352,19.0545104 61.4337207,18.6617676 C61.6038062,18.2690247 61.6888477,17.8500022 61.6888477,17.4046875 C61.6888477,16.9593728 61.6038062,16.5403503 61.4337207,16.1476074 C61.2636352,15.7548646 61.0317039,15.4100601 60.7379199,15.1131836 C60.4441359,14.8163071 60.0993314,14.5812834 59.7034961,14.4081055 C59.3076608,14.2349275 58.8839997,14.1483398 58.4325,14.1483398 Z M72.6364844,19.659082 C72.9148061,19.659082 73.1451912,19.7503083 73.3276465,19.9327637 C73.5101018,20.115219 73.6013281,20.3456041 73.6013281,20.6239258 C73.6013281,20.8960626 73.4992784,21.1341787 73.2951758,21.3382813 C72.3365121,22.1794313 71.2077799,22.6 69.9089453,22.6 C68.4740423,22.6 67.2494452,22.0928436 66.2351172,21.0785156 C65.2207892,20.0641876 64.7136328,18.8395905 64.7136328,17.4046875 C64.7136328,15.9697845 65.2207892,14.7451874 66.2351172,13.7308594 C67.2494452,12.7165314 68.4740423,12.209375 69.9089453,12.209375 C71.2139649,12.209375 72.3426971,12.6299437 73.2951758,13.4710938 C73.5178332,13.6690114 73.6291602,13.9133123 73.6291602,14.2040039 C73.6291602,14.4823256 73.5379339,14.7142569 73.3554785,14.8998047 C73.1730232,15.0853525 72.9426381,15.178125 72.6643164,15.178125 C72.4292892,15.178125 72.2190048,15.103907 72.033457,14.9554688 C71.7180258,14.6895169 71.3871372,14.4885098 71.0407813,14.3524414 C70.6944254,14.216373 70.3171505,14.1483398 69.9089453,14.1483398 C69.4574457,14.1483398 69.0337845,14.2333813 68.6379492,14.4034668 C68.2421139,14.5735523 67.8957632,14.8054836 67.5988867,15.0992676 C67.3020102,15.3930516 67.0685328,15.7378561 66.8984473,16.1336914 C66.7283618,16.5295267 66.6433203,16.9531878 66.6433203,17.4046875 C66.6433203,17.8561872 66.7283618,18.2798483 66.8984473,18.6756836 C67.0685328,19.0715189 67.3020102,19.4163234 67.5988867,19.7101074 C67.8957632,20.0038914 68.2421139,20.2358227 68.6379492,20.4059082 C69.0337845,20.5759937 69.4574457,20.6610352 69.9089453,20.6610352 C70.3171505,20.6610352 70.6944254,20.5945482 71.0407813,20.4615723 C71.3871372,20.3285963 71.7149334,20.1291354 72.0241797,19.8631836 C72.1973576,19.7333001 72.4014572,19.665267 72.6364844,19.659082 Z M74.7242578,21.6258789 L74.7242578,8.73037109 C74.7242578,8.45823432 74.8185765,8.22784925 75.0072168,8.03920898 C75.1958571,7.85056872 75.4262421,7.75625 75.6983789,7.75625 C75.9643308,7.75625 76.1916234,7.85056872 76.3802637,8.03920898 C76.568904,8.22784925 76.6632227,8.45823432 76.6632227,8.73037109 L76.6632227,15.9666992 L82.2110742,12.3578125 C82.3656974,12.2588537 82.5388728,12.209375 82.7306055,12.209375 C82.8666739,12.209375 82.993463,12.2341143 83.1109766,12.2835938 C83.2284902,12.3330732 83.3305399,12.4026525 83.4171289,12.492334 C83.5037179,12.5820154 83.5732973,12.6856114 83.6258692,12.803125 C83.678441,12.9206386 83.7047266,13.0443353 83.7047266,13.1742188 C83.7047266,13.5205746 83.5810299,13.7772453 83.3336328,13.9442383 L79.4464258,16.4676758 L83.4356836,20.9579102 C83.6150465,21.1558278 83.7047266,21.3815743 83.7047266,21.6351563 C83.7047266,21.7650397 83.678441,21.8887364 83.6258692,22.00625 C83.5732973,22.1237636 83.5037179,22.2273596 83.4171289,22.317041 C83.3305399,22.4067225 83.2284902,22.4763018 83.1109766,22.5257813 C82.993463,22.5752607 82.8666739,22.6 82.7306055,22.6 C82.4708386,22.6 82.2543694,22.5165047 82.0811914,22.3495117 L77.7950586,17.5345703 L76.6632227,18.2767578 L76.6632227,21.6258789 C76.6632227,21.8918308 76.568904,22.1206696 76.3802637,22.3124023 C76.1916234,22.5041351 75.9643308,22.6 75.6983789,22.6 C75.4262421,22.6 75.1958571,22.5041351 75.0072168,22.3124023 C74.8185765,22.1206696 74.7242578,21.8918308 74.7242578,21.6258789 Z M93.0752149,16.4398438 C92.9700711,16.0996728 92.813904,15.7888849 92.606709,15.5074707 C92.399514,15.2260565 92.1583054,14.984848 91.8830762,14.7838379 C91.607847,14.5828278 91.3047901,14.4266607 90.9738965,14.315332 C90.6430029,14.2040033 90.3012908,14.1483398 89.94875,14.1483398 C89.5962092,14.1483398 89.2529509,14.2040033 88.9189649,14.315332 C88.5849788,14.4266607 88.2788295,14.5828278 88.0005078,14.7838379 C87.7221861,14.984848 87.4809776,15.2260565 87.276875,15.5074707 C87.0727724,15.7888849 86.921244,16.0996728 86.8222852,16.4398438 L93.0752149,16.4398438 Z M92.6577344,19.6776367 C92.9360561,19.6776367 93.1664412,19.768863 93.3488965,19.9513184 C93.5313518,20.1337737 93.6225781,20.3641588 93.6225781,20.6424805 C93.6225781,20.9146172 93.5298056,21.1465485 93.3442578,21.3382813 C92.3855942,22.1794313 91.2537696,22.6 89.94875,22.6 C88.513847,22.6 87.2892499,22.0928436 86.2749219,21.0785156 C85.2605939,20.0641876 84.7534375,18.8395905 84.7534375,17.4046875 C84.7534375,15.9697845 85.2605939,14.7451874 86.2749219,13.7308594 C87.2892499,12.7165314 88.513847,12.209375 89.94875,12.209375 C91.3712832,12.209375 92.5958803,12.7165314 93.6225781,13.7308594 C94.1297421,14.2318384 94.5101094,14.7900197 94.7636914,15.4054199 C95.0172734,16.0208201 95.1440625,16.687236 95.1440625,17.4046875 C95.1440625,17.6830092 95.0497438,17.9133943 94.8611035,18.0958496 C94.6724633,18.2783049 94.4420782,18.3695313 94.1699414,18.3695313 L86.8222852,18.3695313 C86.9274289,18.7097022 87.0820498,19.0204901 87.2861524,19.3019043 C87.4902549,19.5833185 87.7299173,19.824527 88.0051465,20.0255371 C88.2803757,20.2265472 88.5834326,20.3827143 88.9143262,20.494043 C89.2452198,20.6053717 89.5900243,20.6610352 89.94875,20.6610352 C90.3569552,20.6610352 90.7311376,20.5991868 91.0713086,20.4754883 C91.4114796,20.3517897 91.7269061,20.1662447 92.0175977,19.9188477 C92.2031455,19.7642245 92.4165223,19.6838216 92.6577344,19.6776367 Z M98.150293,13.1742188 L98.150293,13.3597656 C98.6141625,12.98867 99.1182265,12.7041677 99.6625,12.50625 C100.206774,12.3083323 100.788148,12.209375 101.406641,12.209375 C101.678777,12.209375 101.971011,12.2279295 102.28335,12.2650391 C102.595688,12.3021486 102.883283,12.3686356 103.146143,12.464502 C103.409002,12.5603683 103.627017,12.691796 103.800195,12.8587891 C103.973373,13.0257821 104.059961,13.2422513 104.059961,13.5082031 C104.059961,13.6442715 104.033675,13.7710606 103.981104,13.8885742 C103.928532,14.0060878 103.858952,14.1096838 103.772363,14.1993652 C103.685774,14.2890467 103.583725,14.3586261 103.466211,14.4081055 C103.348697,14.4575849 103.221908,14.4823242 103.08584,14.4823242 C102.968326,14.4823242 102.83226,14.4483076 102.677637,14.3802734 C102.287986,14.2256503 101.864325,14.1483398 101.406641,14.1483398 C100.955141,14.1483398 100.53148,14.2333813 100.135645,14.4034668 C99.7398092,14.5735523 99.3950047,14.8054836 99.1012207,15.0992676 C98.8074367,15.3930516 98.5755054,15.7378561 98.4054199,16.1336914 C98.2353345,16.5295267 98.150293,16.9531878 98.150293,17.4046875 L98.150293,21.6351563 C98.150293,21.9011081 98.0559743,22.1284007 97.867334,22.317041 C97.6786937,22.5056813 97.4514011,22.6 97.1854492,22.6 C96.9133125,22.6 96.6829274,22.5056813 96.4942871,22.317041 C96.3056469,22.1284007 96.2113281,21.9011081 96.2113281,21.6351563 L96.2113281,13.1742188 C96.2113281,12.9082669 96.3056469,12.6809743 96.4942871,12.492334 C96.6829274,12.3036937 96.9133125,12.209375 97.1854492,12.209375 C97.4514011,12.209375 97.6786937,12.3036937 97.867334,12.492334 C98.0559743,12.6809743 98.150293,12.9082669 98.150293,13.1742188 Z" id="docker"></path>
            <path d="M118.193848,17.8046875 C118.193848,17.3593728 118.108806,16.9403503 117.938721,16.5476074 C117.768635,16.1548646 117.536704,15.8100601 117.24292,15.5131836 C116.949136,15.2163071 116.604331,14.9812834 116.208496,14.8081055 C115.812661,14.6349275 115.389,14.5483398 114.9375,14.5483398 C114.479815,14.5483398 114.053062,14.6349275 113.657227,14.8081055 C113.261391,14.9812834 112.918133,15.2147609 112.627441,15.5085449 C112.33675,15.8023289 112.106365,16.1471334 111.936279,16.5429688 C111.766194,16.9388041 111.681152,17.3593728 111.681152,17.8046875 C111.681152,18.2500022 111.766194,18.6705709 111.936279,19.0664062 C112.106365,19.4622416 112.33675,19.8070461 112.627441,20.1008301 C112.918133,20.3946141 113.261391,20.6280916 113.657227,20.8012695 C114.053062,20.9744475 114.479815,21.0610352 114.9375,21.0610352 C115.389,21.0610352 115.812661,20.9744475 116.208496,20.8012695 C116.604331,20.6280916 116.949136,20.3930679 117.24292,20.0961914 C117.536704,19.7993149 117.768635,19.4545104 117.938721,19.0617676 C118.108806,18.6690247 118.193848,18.2500022 118.193848,17.8046875 Z M114.9375,12.609375 C116.1683,12.609375 117.253739,12.9897423 118.193848,13.7504883 L118.193848,9.12109375 C118.193848,8.84277205 118.285074,8.61238698 118.467529,8.42993164 C118.649985,8.2474763 118.88037,8.15625 119.158691,8.15625 C119.430828,8.15625 119.661213,8.2474763 119.849854,8.42993164 C120.038494,8.61238698 120.132812,8.84277205 120.132812,9.12109375 L120.132812,17.8046875 C120.132812,19.2519604 119.625656,20.4765575 118.611328,21.4785156 C117.58463,22.4928436 116.360033,23 114.9375,23 C113.502597,23 112.278,22.4928436 111.263672,21.4785156 C110.249344,20.4641876 109.742188,19.2395905 109.742188,17.8046875 C109.742188,16.3697845 110.249344,15.1451874 111.263672,14.1308594 C112.278,13.1165314 113.502597,12.609375 114.9375,12.609375 Z M131.627813,17.8046875 C131.627813,19.2519604 131.120656,20.4765575 130.106328,21.4785156 C129.07963,22.4928436 127.855033,23 126.4325,23 C124.997597,23 123.773,22.4928436 122.758672,21.4785156 C121.744344,20.4641876 121.237188,19.2395905 121.237188,17.8046875 C121.237188,16.3697845 121.744344,15.1451874 122.758672,14.1308594 C123.773,13.1165314 124.997597,12.609375 126.4325,12.609375 C127.855033,12.609375 129.07963,13.1165314 130.106328,14.1308594 C130.613492,14.6380234 130.992313,15.1977508 131.242803,15.8100586 C131.493292,16.4223663 131.621628,17.087236 131.627813,17.8046875 Z M126.4325,14.5483398 C125.974815,14.5483398 125.548062,14.6349275 125.152227,14.8081055 C124.756391,14.9812834 124.413133,15.2147609 124.122441,15.5085449 C123.83175,15.8023289 123.601365,16.1471334 123.431279,16.5429688 C123.261194,16.9388041 123.176152,17.3593728 123.176152,17.8046875 C123.176152,18.2500022 123.261194,18.6705709 123.431279,19.0664062 C123.601365,19.4622416 123.83175,19.8070461 124.122441,20.1008301 C124.413133,20.3946141 124.756391,20.6280916 125.152227,20.8012695 C125.548062,20.9744475 125.974815,21.0610352 126.4325,21.0610352 C126.884,21.0610352 127.307661,20.9744475 127.703496,20.8012695 C128.099331,20.6280916 128.444136,20.3930679 128.73792,20.0961914 C129.031704,19.7993149 129.263635,19.4545104 129.433721,19.0617676 C129.603806,18.6690247 129.688848,18.2500022 129.688848,17.8046875 C129.688848,17.3593728 129.603806,16.9403503 129.433721,16.5476074 C129.263635,16.1548646 129.031704,15.8100601 128.73792,15.5131836 C128.444136,15.2163071 128.099331,14.9812834 127.703496,14.8081055 C127.307661,14.6349275 126.884,14.5483398 126.4325,14.5483398 Z M140.636484,20.059082 C140.914806,20.059082 141.145191,20.1503083 141.327646,20.3327637 C141.510102,20.515219 141.601328,20.7456041 141.601328,21.0239258 C141.601328,21.2960626 141.499278,21.5341787 141.295176,21.7382812 C140.336512,22.5794313 139.20778,23 137.908945,23 C136.474042,23 135.249445,22.4928436 134.235117,21.4785156 C133.220789,20.4641876 132.713633,19.2395905 132.713633,17.8046875 C132.713633,16.3697845 133.220789,15.1451874 134.235117,14.1308594 C135.249445,13.1165314 136.474042,12.609375 137.908945,12.609375 C139.213965,12.609375 140.342697,13.0299437 141.295176,13.8710938 C141.517833,14.0690114 141.62916,14.3133123 141.62916,14.6040039 C141.62916,14.8823256 141.537934,15.1142569 141.355479,15.2998047 C141.173023,15.4853525 140.942638,15.578125 140.664316,15.578125 C140.429289,15.578125 140.219005,15.503907 140.033457,15.3554688 C139.718026,15.0895169 139.387137,14.8885098 139.040781,14.7524414 C138.694425,14.616373 138.31715,14.5483398 137.908945,14.5483398 C137.457446,14.5483398 137.033785,14.6333813 136.637949,14.8034668 C136.242114,14.9735523 135.895763,15.2054836 135.598887,15.4992676 C135.30201,15.7930516 135.068533,16.1378561 134.898447,16.5336914 C134.728362,16.9295267 134.64332,17.3531878 134.64332,17.8046875 C134.64332,18.2561872 134.728362,18.6798483 134.898447,19.0756836 C135.068533,19.4715189 135.30201,19.8163234 135.598887,20.1101074 C135.895763,20.4038914 136.242114,20.6358227 136.637949,20.8059082 C137.033785,20.9759937 137.457446,21.0610352 137.908945,21.0610352 C138.31715,21.0610352 138.694425,20.9945482 139.040781,20.8615723 C139.387137,20.7285963 139.714933,20.5291354 140.02418,20.2631836 C140.197358,20.1333001 140.401457,20.065267 140.636484,20.059082 Z M144.635391,18.0551758 C144.054008,17.8325184 143.645808,17.6036796 143.410781,17.3686523 L143.420059,17.3686523 C142.950004,16.892413 142.71498,16.3326855 142.71498,15.6894531 C142.71498,15.2193987 142.840223,14.7941914 143.090713,14.4138184 C143.341202,14.0334454 143.667452,13.7102878 144.069473,13.4443359 C144.471493,13.1783841 144.924532,12.9727384 145.428604,12.8273926 C145.932675,12.6820468 146.438285,12.609375 146.945449,12.609375 C148.491681,12.609375 149.818328,13.2309508 150.92543,14.4741211 C151.055313,14.6349292 151.120254,14.8297515 151.120254,15.0585938 C151.120254,15.3369155 151.029028,15.5673005 150.846572,15.7497559 C150.664117,15.9322112 150.433732,16.0234375 150.15541,16.0234375 C149.957493,16.0234375 149.788956,15.967774 149.649795,15.8564453 C149.510634,15.7451166 149.376114,15.6245124 149.24623,15.4946289 C148.615368,14.8637664 147.848449,14.5483398 146.945449,14.5483398 C146.05482,14.5483398 145.343564,14.8204725 144.81166,15.3647461 C144.712701,15.4637049 144.663223,15.5997713 144.663223,15.7729492 C144.663223,15.9461272 144.743626,16.063639 144.904434,16.1254883 L149.24623,17.5541992 C149.852353,17.7892264 150.260552,18.0180653 150.47084,18.2407227 L150.461563,18.2407227 C150.931617,18.716962 151.166641,19.2766895 151.166641,19.9199219 C151.166641,20.3961612 151.041398,20.8229148 150.790908,21.2001953 C150.540419,21.5774758 150.214169,21.9006334 149.812148,22.1696777 C149.410128,22.438722 148.958635,22.6443678 148.457656,22.7866211 C147.956677,22.9288744 147.452613,23 146.945449,23 C145.386848,23 144.060201,22.384609 142.965469,21.1538086 C142.8294,20.9744457 142.761367,20.7734386 142.761367,20.5507812 C142.761367,20.2724595 142.852594,20.0420745 143.035049,19.8596191 C143.217504,19.6771638 143.447889,19.5859375 143.726211,19.5859375 C143.930314,19.5859375 144.103489,19.6462396 144.245742,19.7668457 C144.387996,19.8874518 144.517877,20.0034174 144.635391,20.1147461 C145.266253,20.7456086 146.036265,21.0610352 146.945449,21.0610352 C147.829894,21.0610352 148.54115,20.7827176 149.079238,20.2260742 C149.172012,20.1209305 149.218398,19.9941414 149.218398,19.8457031 C149.218398,19.6725252 149.134903,19.5519209 148.96791,19.4838867 L144.635391,18.0551758 Z" opacity="0.699999988"></path>
            <path d="M37.2114674,10.9008887 C36.4018592,10.3391362 34.5465072,10.128479 33.0959592,10.4093552 C32.9272908,9.00497385 32.1514163,7.77614015 30.8020694,6.68774458 L30.0261949,6.12599203 L29.4864561,6.93351132 C28.8117826,7.98679735 28.4744459,9.4613978 28.5756469,10.8657792 C28.6093806,11.3573127 28.778049,12.235051 29.2840541,13.0074608 C28.8117826,13.2883371 27.8335061,13.6394324 26.5516265,13.6394324 L2.16218026,13.6394324 L2.09471291,13.9203087 C1.85857719,15.32469 1.85857719,19.7133819 4.62473845,23.0838972 C6.71622623,25.6468932 9.81972423,26.9459459 13.9014988,26.9459459 C22.7397213,26.9459459 29.2840541,22.6976923 32.3538184,15.0087042 C33.5682306,15.0438138 36.1657235,15.0087042 37.4813368,12.3754892 C37.5150705,12.3052701 37.5825378,12.1648319 37.8186736,11.6381889 L37.9536082,11.3573127 L37.2114674,10.9008887 L37.2114674,10.9008887 Z M21.6602438,1 L17.9495396,1 L17.9495396,4.51095344 L21.6602438,4.51095344 L21.6602438,1 L21.6602438,1 Z M21.6602438,5.21314413 L17.9495396,5.21314413 L17.9495396,8.72409758 L21.6602438,8.72409758 L21.6602438,5.21314413 L21.6602438,5.21314413 Z M17.2748662,5.21314413 L13.564162,5.21314413 L13.564162,8.72409758 L17.2748662,8.72409758 L17.2748662,5.21314413 L17.2748662,5.21314413 Z M12.8894886,5.21314413 L9.17878443,5.21314413 L9.17878443,8.72409758 L12.8894886,8.72409758 L12.8894886,5.21314413 L12.8894886,5.21314413 Z M8.50411095,9.42628826 L4.79340682,9.42628826 L4.79340682,12.9372417 L8.50411095,12.9372417 L8.50411095,9.42628826 L8.50411095,9.42628826 Z M12.8894886,9.42628826 L9.17878443,9.42628826 L9.17878443,12.9372417 L12.8894886,12.9372417 L12.8894886,9.42628826 L12.8894886,9.42628826 Z M17.2748662,9.42628826 L13.564162,9.42628826 L13.564162,12.9372417 L17.2748662,12.9372417 L17.2748662,9.42628826 L17.2748662,9.42628826 Z M21.6602438,9.42628826 L17.9495396,9.42628826 L17.9495396,12.9372417 L21.6602438,12.9372417 L21.6602438,9.42628826 L21.6602438,9.42628826 Z M26.0456214,9.42628826 L22.3349172,9.42628826 L22.3349172,12.9372417 L26.0456214,12.9372417 L26.0456214,9.42628826 L26.0456214,9.42628826 Z" id="Shape"></path>
        </g>
    </g>
</svg>