<svg width="92" height="33" viewBox="0 0 92 33" fill="none" xmlns="http://www.w3.org/2000/svg">
  <path
    d="M31.4783 13.9171C30.6936 13.3542 28.6325 13.1137 27.1335 13.5441C27.0527 11.9527 26.2826 10.6119 24.8747 9.44209L24.3529 9.06908L24.0051 9.62859C23.3219 10.7333 23.0351 12.2054 23.1366 13.5441C23.2173 14.3684 23.4865 15.2954 24.0051 15.9686C22.0548 17.1748 20.2566 16.9011 12.2938 16.9011H0.00279151C-0.0334407 18.818 0.256417 22.505 2.4552 25.5056C2.69847 25.8367 2.96452 26.1578 3.25334 26.4668C5.04114 28.376 7.74303 29.7753 11.7834 29.7798C17.9471 29.7853 23.2277 26.234 26.4399 17.6471C27.4969 17.6659 30.2867 17.8491 31.6522 15.0361C31.6853 14.9886 32 14.2901 32 14.2901L31.4783 13.9171ZM8.02461 11.9395H4.56805V15.6243H8.02461V11.9395ZM12.4905 11.9395H9.03394V15.6243H12.4905V11.9395ZM16.9564 11.9395H13.4998V15.6243H16.9564V11.9395ZM21.4223 11.9395H17.9657V15.6243H21.4223V11.9395ZM3.55769 11.9395H0.102171V15.6243H3.55873L3.55769 11.9395ZM8.02357 7.28461H4.56702V10.9694H8.02357V7.28461ZM12.4895 7.28461H9.0329V10.9694H12.4895V7.28461ZM16.9553 7.28461H13.4988V10.9694H16.9553V7.28461ZM16.9553 2.62976H13.4988V6.31458H16.9553V2.62976Z"
    fill="white" />
  <path
    d="M78.9658 8.41589C78.4538 8.41589 78.0459 8.81327 78.0459 9.30828C78.0459 9.81422 78.4538 10.2116 78.9658 10.2116C79.4827 10.2116 79.8801 9.81422 79.8801 9.30828C79.8797 8.81327 79.4823 8.41589 78.9658 8.41589ZM78.9711 10.0216C78.5685 10.0216 78.2744 9.70606 78.2744 9.30868C78.2744 8.91697 78.5684 8.59575 78.9658 8.59575C79.3628 8.59575 79.6512 8.91697 79.6512 9.31435C79.6512 9.70606 79.3628 10.0216 78.9711 10.0216Z"
    fill="white" />
  <path
    d="M79.1725 9.33586V9.32492C79.281 9.29211 79.3572 9.21636 79.3572 9.11793C79.3572 9.03083 79.3191 8.95995 79.2701 8.92227C79.2049 8.8842 79.1287 8.85706 78.9598 8.85706C78.8132 8.85706 78.6985 8.86799 78.6171 8.8846V9.77699H78.8241V9.41768H78.9217C79.0364 9.41768 79.0907 9.46143 79.1069 9.55906C79.134 9.66275 79.1502 9.74418 79.1777 9.77699H79.4009C79.3791 9.74418 79.3625 9.68989 79.3357 9.55379C79.3082 9.43348 79.2592 9.36826 79.1725 9.33586ZM78.9274 9.27064H78.8298V9.01504C78.8517 9.00937 78.8893 9.0037 78.944 9.0037C79.0749 9.0037 79.1344 9.05838 79.1344 9.14021C79.134 9.23256 79.0416 9.27064 78.9274 9.27064Z"
    fill="white" />
  <path
    d="M41.5015 10.32C42.47 10.32 43.285 9.9708 43.9785 9.27042C44.6631 8.57936 45.003 7.73518 45.003 6.73747V0.752051C45.003 0.560855 44.9402 0.400849 44.8122 0.27568C44.6842 0.150511 44.5307 0.0869141 44.3463 0.0869141C44.158 0.0869141 44.0041 0.150511 43.8809 0.27568C43.7574 0.400849 43.697 0.560855 43.697 0.752051V3.94284C43.0639 3.41949 42.3327 3.15537 41.5015 3.15537C40.5354 3.15537 39.7086 3.50415 39.0244 4.20493C38.3399 4.90288 38 5.74746 38 6.73788C38 7.72829 38.3423 8.57045 39.0244 9.27082C39.7086 9.96877 40.533 10.32 41.5015 10.32ZM39.4806 5.86736C39.5948 5.59394 39.7507 5.35778 39.946 5.15524C40.1416 4.9523 40.3746 4.79189 40.6399 4.67198C40.9076 4.55168 41.194 4.49294 41.5035 4.49294C41.813 4.49294 42.0925 4.55168 42.3603 4.67198C42.628 4.79229 42.8585 4.9527 43.0566 5.15767C43.2547 5.36264 43.4106 5.60082 43.5244 5.86979C43.6387 6.1412 43.6966 6.4288 43.6966 6.73545C43.6966 7.04209 43.6383 7.33213 43.5244 7.6011V7.60596C43.4102 7.87736 43.2543 8.11554 43.0566 8.31808C42.8589 8.52346 42.626 8.68346 42.3603 8.80377C42.0925 8.92408 41.8085 8.98281 41.5035 8.98281C41.1985 8.98281 40.9076 8.92408 40.6399 8.80377C40.3721 8.68346 40.1416 8.52305 39.946 8.32011C39.7503 8.11716 39.5944 7.87898 39.4806 7.60798C39.3663 7.33456 39.3084 7.04452 39.3084 6.73788C39.308 6.43123 39.3663 6.1412 39.4806 5.86736Z"
    fill="white" />
  <path
    d="M72.9696 8.97333C72.9696 8.78699 72.9092 8.62212 72.7853 8.49695C72.6621 8.37179 72.5062 8.30819 72.3198 8.30819C72.157 8.31305 72.0124 8.36692 71.8892 8.47548C71.6936 8.64521 71.4817 8.77484 71.2512 8.8599C71.0207 8.94497 70.7692 8.9871 70.4946 8.9871C70.2523 8.9871 70.0194 8.94943 69.7982 8.87165C69.5767 8.79388 69.3701 8.68774 69.1858 8.5484C68.9994 8.40905 68.839 8.24419 68.7017 8.04853C68.5644 7.85531 68.4595 7.64062 68.3898 7.40487H73.3418C73.5253 7.40487 73.6793 7.34127 73.8073 7.2161C73.9353 7.09093 73.9981 6.93093 73.9981 6.73973C73.9981 6.24432 73.9118 5.78456 73.7421 5.36247C73.5719 4.93795 73.3131 4.55353 72.9736 4.20921L72.9692 4.20678C72.2777 3.50883 71.4509 3.15723 70.4921 3.15723C69.5325 3.15723 68.6993 3.5064 68.0147 4.20678C67.3301 4.90473 66.9902 5.74932 66.9902 6.73973C66.9902 7.73014 67.3325 8.5723 68.0147 9.27268C68.6993 9.97062 69.5236 10.3222 70.4921 10.3222C71.372 10.3222 72.1331 10.0322 72.7804 9.45212C72.906 9.31966 72.9696 9.15966 72.9696 8.97333ZM68.6924 5.43093C68.8301 5.2377 68.9925 5.07 69.1793 4.93106C69.368 4.79212 69.5726 4.68558 69.7986 4.60781C70.0243 4.53003 70.2547 4.49236 70.4925 4.49236C70.7299 4.49236 70.9604 4.53003 71.1836 4.60781C71.4072 4.68558 71.6126 4.79171 71.7961 4.93106C71.9824 5.07 72.1452 5.23527 72.2826 5.43093C72.4223 5.62415 72.5272 5.83884 72.5997 6.07459H68.3853C68.4526 5.84127 68.555 5.62658 68.6924 5.43093Z"
    fill="white" />
  <path
    d="M75.3696 10.3222C75.5531 10.3222 75.7026 10.2562 75.8278 10.1265C75.9562 9.99692 76.0186 9.83894 76.0186 9.65747V6.74011C76.0186 6.42901 76.0769 6.13654 76.1907 5.86271C76.305 5.58928 76.4609 5.35312 76.6586 5.15058C76.8571 4.94764 77.0896 4.78723 77.3549 4.67178C77.6227 4.5539 77.9071 4.49476 78.2121 4.49476C78.5167 4.49476 78.8055 4.54904 79.0688 4.65517C79.1733 4.70216 79.2645 4.72606 79.3435 4.72606C79.4346 4.72606 79.5205 4.70945 79.5995 4.67421C79.6785 4.63897 79.7485 4.59157 79.8069 4.53041C79.8652 4.46924 79.9114 4.39835 79.9466 4.31572C79.9814 4.23551 80.0001 4.14842 80.0001 4.05404C80.0001 3.87013 79.9417 3.72147 79.8255 3.60602H79.8279C79.7117 3.49058 79.5646 3.40065 79.3876 3.33462C79.2106 3.26859 79.0174 3.22363 78.8055 3.19771C78.5957 3.17178 78.398 3.16003 78.2145 3.16003C77.7977 3.16003 77.4064 3.22849 77.0386 3.365C76.6708 3.50192 76.3305 3.69757 76.0186 3.95236V3.82517C76.0186 3.64127 75.9558 3.48571 75.8278 3.35568C75.7002 3.22606 75.5487 3.16003 75.3696 3.16003C75.1898 3.16003 75.0318 3.22606 74.9042 3.35568C74.7758 3.48531 74.713 3.64329 74.713 3.82517V9.65747C74.713 9.84137 74.7758 9.99692 74.9042 10.1265C75.0318 10.2562 75.1857 10.3222 75.3696 10.3222Z"
    fill="white" />
  <path
    d="M52.4904 5.3649C52.3203 4.94281 52.0667 4.55596 51.7244 4.20678C51.0329 3.50883 50.2066 3.15723 49.2473 3.15723C48.2881 3.15723 47.4545 3.5064 46.7703 4.20678C46.0857 4.90473 45.7458 5.74932 45.7458 6.73973C45.7458 7.73014 46.0881 8.5723 46.7703 9.27268C47.4549 9.97062 48.2788 10.3222 49.2473 10.3222C50.2159 10.3222 51.0309 9.97305 51.7244 9.27268C52.409 8.58161 52.7488 7.73743 52.7488 6.73973C52.744 6.24472 52.6581 5.78699 52.4904 5.3649ZM51.2703 7.60052V7.60538C51.1561 7.87678 51.0001 8.11497 50.8024 8.31751C50.6043 8.52288 50.3718 8.68288 50.1061 8.80319C49.8408 8.9235 49.5544 8.98224 49.2494 8.98224C48.9443 8.98224 48.6535 8.9235 48.3857 8.80319C48.118 8.68288 47.8875 8.52247 47.6918 8.31953C47.4962 8.11659 47.3402 7.8784 47.2264 7.6074C47.1122 7.33398 47.0543 7.04394 47.0543 6.7373C47.0543 6.43066 47.1126 6.14062 47.2264 5.86719C47.3406 5.59376 47.4966 5.35761 47.6918 5.15507C47.8875 4.95212 48.1204 4.79171 48.3857 4.67181C48.6535 4.5515 48.9399 4.49276 49.2494 4.49276C49.5588 4.49276 49.8383 4.5515 50.1061 4.67181C50.3739 4.79212 50.6043 4.95253 50.8024 5.1575C51.0005 5.36247 51.1565 5.60065 51.2703 5.86962C51.3845 6.14102 51.4425 6.42863 51.4425 6.73527C51.4429 7.04192 51.3845 7.33195 51.2703 7.60052Z"
    fill="white" />
  <path
    d="M63.628 6.08918L66.2472 4.34856C66.4141 4.23352 66.4955 4.05731 66.4963 3.82034C66.4959 3.73163 66.4777 3.64737 66.4428 3.56798C66.408 3.48777 66.3614 3.41486 66.3031 3.35328C66.2448 3.29212 66.1751 3.24229 66.0957 3.20948C66.0167 3.17667 65.9304 3.15763 65.8397 3.15763C65.7092 3.15763 65.593 3.19085 65.4905 3.2589L61.7516 5.74689V0.75674C61.7516 0.567974 61.6889 0.409993 61.5609 0.280369C61.4329 0.150744 61.2814 0.0847168 61.1023 0.0847168C60.9233 0.0847168 60.7649 0.150744 60.6365 0.280369C60.5085 0.409993 60.4457 0.567974 60.4457 0.75674V9.64778C60.4457 9.83168 60.5085 9.98966 60.6365 10.1217C60.7645 10.2538 60.9184 10.3198 61.1023 10.3198C61.2862 10.3198 61.4353 10.2538 61.5609 10.1217C61.6889 9.98966 61.7516 9.83168 61.7516 9.64778V7.33884L62.5152 6.82723L65.4046 10.1452C65.5209 10.2607 65.6675 10.3174 65.8421 10.3174C65.9329 10.3174 66.0191 10.3008 66.0981 10.2655C66.1771 10.2323 66.2472 10.1829 66.3055 10.1217C66.3639 10.0606 66.4104 9.98966 66.4453 9.90703C66.4801 9.82682 66.4987 9.73973 66.4987 9.65223C66.4987 9.47764 66.4384 9.3221 66.3173 9.18518L63.628 6.08918Z"
    fill="white" />
  <path
    d="M56.9841 10.3247C57.8595 10.3247 58.621 10.0346 59.2659 9.45457C59.4032 9.31319 59.4733 9.15035 59.4733 8.96159C59.4733 8.77282 59.4126 8.60998 59.2894 8.48522C59.1659 8.36005 59.0099 8.29645 58.824 8.29645C58.6656 8.30131 58.5283 8.3483 58.412 8.43782C58.2026 8.62173 57.9838 8.75864 57.7485 8.8506C57.5156 8.94255 57.262 8.98751 56.9849 8.98751C56.6799 8.98751 56.3959 8.92837 56.1282 8.81049C55.8604 8.69262 55.6275 8.53221 55.4274 8.33169C55.2273 8.13118 55.0689 7.89056 54.9547 7.61957C54.8404 7.34614 54.7825 7.05368 54.7825 6.74217C54.7825 6.43067 54.8409 6.1386 54.9547 5.86477C55.0689 5.59135 55.2269 5.35519 55.4274 5.15265V5.15022C55.6275 4.94727 55.8604 4.78686 56.1282 4.67142C56.3959 4.55354 56.6799 4.4944 56.9849 4.4944C57.2596 4.4944 57.5136 4.54139 57.7485 4.63577C57.9814 4.73015 58.205 4.86909 58.4165 5.05097C58.542 5.15224 58.6842 5.20409 58.8426 5.20409C59.0314 5.20409 59.1849 5.1405 59.3084 5.0133C59.432 4.88611 59.4924 4.7257 59.4924 4.5345C59.4924 4.34371 59.4178 4.16669 59.2663 4.02977C58.6239 3.4497 57.8623 3.15967 56.9845 3.15967C56.0184 3.15967 55.1916 3.50884 54.5075 4.20922C53.8229 4.90717 53.483 5.75135 53.483 6.74217C53.483 7.73258 53.8253 8.57474 54.5075 9.27512C55.1912 9.97306 56.0156 10.3247 56.9841 10.3247Z"
    fill="white" />
  <path
    d="M44.774 32.4167C43.578 32.4167 42.497 32.1407 41.531 31.5887C40.5803 31.0214 39.8213 30.2547 39.254 29.2887C38.702 28.3227 38.426 27.234 38.426 26.0227C38.426 24.8114 38.679 23.7304 39.185 22.7797C39.7063 21.8137 40.4117 21.0547 41.301 20.5027C42.1903 19.9354 43.1947 19.6517 44.314 19.6517C45.2187 19.6517 46.0543 19.8434 46.821 20.2267C47.5877 20.5947 48.2317 21.1007 48.753 21.7447V15.5347C48.753 15.182 48.8603 14.8984 49.075 14.6837C49.305 14.469 49.5887 14.3617 49.926 14.3617C50.2787 14.3617 50.5623 14.469 50.777 14.6837C50.9917 14.8984 51.099 15.182 51.099 15.5347V26.0227C51.099 27.234 50.8153 28.3227 50.248 29.2887C49.696 30.2547 48.9447 31.0214 47.994 31.5887C47.0433 32.1407 45.97 32.4167 44.774 32.4167ZM44.774 30.3467C45.556 30.3467 46.2537 30.1627 46.867 29.7947C47.4803 29.4114 47.9633 28.89 48.316 28.2307C48.6687 27.5714 48.845 26.8354 48.845 26.0227C48.845 25.1947 48.6687 24.4587 48.316 23.8147C47.9633 23.1707 47.4803 22.6647 46.867 22.2967C46.2537 21.9134 45.556 21.7217 44.774 21.7217C44.0073 21.7217 43.3097 21.9134 42.681 22.2967C42.0677 22.6647 41.577 23.1707 41.209 23.8147C40.8563 24.4587 40.68 25.1947 40.68 26.0227C40.68 26.8354 40.8563 27.5714 41.209 28.2307C41.577 28.89 42.0677 29.4114 42.681 29.7947C43.3097 30.1627 44.0073 30.3467 44.774 30.3467ZM59.9459 32.4167C58.7039 32.4167 57.6075 32.1484 56.6569 31.6117C55.7062 31.0597 54.9549 30.3084 54.4029 29.3577C53.8662 28.3917 53.5979 27.2877 53.5979 26.0457C53.5979 24.7884 53.8662 23.6844 54.4029 22.7337C54.9549 21.7677 55.7062 21.0164 56.6569 20.4797C57.6075 19.9277 58.7039 19.6517 59.9459 19.6517C61.1725 19.6517 62.2612 19.9277 63.2119 20.4797C64.1625 21.0164 64.9062 21.7677 65.4429 22.7337C65.9949 23.6844 66.2709 24.7884 66.2709 26.0457C66.2709 27.2877 66.0025 28.3917 65.4659 29.3577C64.9292 30.3084 64.1855 31.0597 63.2349 31.6117C62.2842 32.1484 61.1879 32.4167 59.9459 32.4167ZM59.9459 30.3467C60.7432 30.3467 61.4485 30.1627 62.0619 29.7947C62.6752 29.4267 63.1505 28.9207 63.4879 28.2767C63.8405 27.6327 64.0169 26.889 64.0169 26.0457C64.0169 25.2024 63.8405 24.4587 63.4879 23.8147C63.1505 23.1554 62.6752 22.6417 62.0619 22.2737C61.4485 21.9057 60.7432 21.7217 59.9459 21.7217C59.1485 21.7217 58.4432 21.9057 57.8299 22.2737C57.2165 22.6417 56.7335 23.1554 56.3809 23.8147C56.0282 24.4587 55.8519 25.2024 55.8519 26.0457C55.8519 26.889 56.0282 27.6327 56.3809 28.2767C56.7335 28.9207 57.2165 29.4267 57.8299 29.7947C58.4432 30.1627 59.1485 30.3467 59.9459 30.3467ZM74.4664 32.4167C73.2397 32.4167 72.1434 32.1407 71.1774 31.5887C70.2267 31.0214 69.4754 30.2624 68.9234 29.3117C68.3867 28.3457 68.1184 27.257 68.1184 26.0457C68.1184 24.8037 68.3867 23.6997 68.9234 22.7337C69.46 21.7677 70.196 21.0164 71.1314 20.4797C72.0667 19.9277 73.14 19.6517 74.3514 19.6517C75.256 19.6517 76.084 19.828 76.8354 20.1807C77.5867 20.518 78.2614 21.0317 78.8594 21.7217C79.0741 21.967 79.1507 22.22 79.0894 22.4807C79.0281 22.7414 78.8594 22.9714 78.5834 23.1707C78.3687 23.324 78.1311 23.3777 77.8704 23.3317C77.6097 23.2704 77.372 23.1324 77.1574 22.9177C76.406 22.1204 75.4707 21.7217 74.3514 21.7217C73.5694 21.7217 72.8794 21.9057 72.2814 22.2737C71.6834 22.6264 71.2157 23.1247 70.8784 23.7687C70.541 24.4127 70.3724 25.1717 70.3724 26.0457C70.3724 26.8737 70.541 27.6097 70.8784 28.2537C71.231 28.8977 71.714 29.4114 72.3274 29.7947C72.9407 30.1627 73.6537 30.3467 74.4664 30.3467C75.0031 30.3467 75.4707 30.2854 75.8694 30.1627C76.2834 30.0247 76.6591 29.8177 76.9964 29.5417C77.2417 29.3424 77.4947 29.235 77.7554 29.2197C78.0161 29.189 78.2461 29.258 78.4454 29.4267C78.706 29.6414 78.8517 29.8867 78.8824 30.1627C78.913 30.4234 78.821 30.661 78.6064 30.8757C77.5024 31.903 76.1224 32.4167 74.4664 32.4167ZM86.1529 32.4167C85.0795 32.4167 84.0829 32.2557 83.1629 31.9337C82.2582 31.5964 81.5529 31.1747 81.0469 30.6687C80.8169 30.4234 80.7172 30.1474 80.7479 29.8407C80.7939 29.5187 80.9472 29.258 81.2079 29.0587C81.5145 28.8134 81.8135 28.7137 82.1049 28.7597C82.4115 28.7904 82.6722 28.9207 82.8869 29.1507C83.1475 29.442 83.5615 29.718 84.1289 29.9787C84.7115 30.224 85.3555 30.3467 86.0609 30.3467C86.9502 30.3467 87.6249 30.201 88.0849 29.9097C88.5602 29.6184 88.8055 29.2427 88.8209 28.7827C88.8362 28.3227 88.6139 27.924 88.1539 27.5867C87.7092 27.2494 86.8889 26.9734 85.6929 26.7587C84.1442 26.452 83.0172 25.992 82.3119 25.3787C81.6219 24.7654 81.2769 24.014 81.2769 23.1247C81.2769 22.3427 81.5069 21.6987 81.9669 21.1927C82.4269 20.6714 83.0172 20.288 83.7379 20.0427C84.4585 19.782 85.2099 19.6517 85.9919 19.6517C87.0039 19.6517 87.9009 19.8127 88.6829 20.1347C89.4649 20.4567 90.0859 20.9014 90.5459 21.4687C90.7605 21.714 90.8602 21.9747 90.8449 22.2507C90.8295 22.5114 90.6992 22.7337 90.4539 22.9177C90.2085 23.0864 89.9172 23.14 89.5799 23.0787C89.2425 23.0174 88.9589 22.8794 88.7289 22.6647C88.3455 22.2967 87.9315 22.0437 87.4869 21.9057C87.0422 21.7677 86.5285 21.6987 85.9459 21.6987C85.2712 21.6987 84.6962 21.8137 84.2209 22.0437C83.7609 22.2737 83.5309 22.611 83.5309 23.0557C83.5309 23.3317 83.5999 23.5847 83.7379 23.8147C83.8912 24.0294 84.1825 24.2287 84.6119 24.4127C85.0412 24.5814 85.6699 24.75 86.4979 24.9187C87.6479 25.1487 88.5525 25.44 89.2119 25.7927C89.8865 26.1454 90.3695 26.5594 90.6609 27.0347C90.9522 27.4947 91.0979 28.0314 91.0979 28.6447C91.0979 29.35 90.9062 29.9864 90.5229 30.5537C90.1549 31.121 89.6029 31.5734 88.8669 31.9107C88.1462 32.248 87.2415 32.4167 86.1529 32.4167Z"
    fill="white" />
</svg>
