<svg width="48" height="48" viewBox="0 0 48 48" fill="none" xmlns="http://www.w3.org/2000/svg">
<g clip-path="url(#clip0_805_32015)">
<path d="M23.5 40C32.6127 40 40 32.6127 40 23.5C40 14.3873 32.6127 7 23.5 7C14.3873 7 7 14.3873 7 23.5C7 32.6127 14.3873 40 23.5 40Z" fill="#086DD7"/>
<path fill-rule="evenodd" clip-rule="evenodd" d="M37.4837 21.3661C37.4114 21.3077 36.7353 20.7977 35.3108 20.7977C34.9544 20.7977 34.5785 20.8301 34.1879 20.8943C33.9127 19.0035 32.3525 18.0825 32.2799 18.0408L31.8971 17.8198L31.6447 18.1832C31.6259 18.2102 31.1826 18.8557 30.9651 19.7744C30.7097 20.8533 30.8646 21.8663 31.4128 22.7335C30.7509 23.1018 29.6942 23.1979 29.4749 23.2008H11.9C11.4415 23.2008 11.0669 23.5734 11.0651 24.0316C11.0581 25.6486 11.3246 27.2112 11.8354 28.5503C12.4412 30.1384 13.3423 31.3075 14.5132 32.0253C15.8266 32.8299 17.9648 33.2915 20.3793 33.2915C21.509 33.2915 22.6351 33.1895 23.6356 32.9963C25.2123 32.6924 26.6438 32.1724 27.8899 31.4514C28.9767 30.8228 29.9527 30.0231 30.791 29.0752C32.1836 27.4995 33.0132 25.7395 33.63 24.1821C33.7132 24.1854 33.7951 24.1869 33.8759 24.1869C35.4003 24.1869 36.3378 23.5776 36.8555 23.0661C37.417 22.5113 37.6169 21.9583 37.6377 21.897L37.7469 21.5773L37.4837 21.3661Z" fill="white"/>
<path fill-rule="evenodd" clip-rule="evenodd" d="M13.5289 22.6867H15.8842C15.9977 22.6867 16.0902 22.5946 16.0902 22.4805V20.3816C16.0902 20.2675 15.9977 20.1753 15.8842 20.1753H13.5289C13.4152 20.1753 13.3228 20.2675 13.3228 20.3816V22.4805C13.3228 22.5946 13.4152 22.6867 13.5289 22.6867Z" fill="white"/>
<path fill-rule="evenodd" clip-rule="evenodd" d="M16.7746 22.6867H19.1293C19.2433 22.6867 19.3356 22.5946 19.3356 22.4805V20.3816C19.3356 20.2675 19.2433 20.1753 19.1293 20.1753H16.7746C16.6605 20.1753 16.5684 20.2675 16.5684 20.3816V22.4805C16.5684 22.5946 16.6605 22.6867 16.7746 22.6867Z" fill="white"/>
<path fill-rule="evenodd" clip-rule="evenodd" d="M20.0697 22.6867H22.4248C22.5385 22.6867 22.631 22.5946 22.631 22.4805V20.3816C22.631 20.2675 22.5385 20.1753 22.4248 20.1753H20.0697C19.956 20.1753 19.8638 20.2675 19.8638 20.3816V22.4805C19.8638 22.5946 19.956 22.6867 20.0697 22.6867Z" fill="white"/>
<path fill-rule="evenodd" clip-rule="evenodd" d="M23.3264 22.6867H25.6813C25.7954 22.6867 25.8876 22.5946 25.8876 22.4805V20.3816C25.8876 20.2675 25.7954 20.1753 25.6813 20.1753H23.3264C23.2128 20.1753 23.1201 20.2675 23.1201 20.3816V22.4805C23.1201 22.5946 23.2128 22.6867 23.3264 22.6867Z" fill="white"/>
<path fill-rule="evenodd" clip-rule="evenodd" d="M16.7746 19.6667H19.1293C19.2433 19.6667 19.3356 19.5745 19.3356 19.4607V17.3615C19.3356 17.2477 19.2433 17.1553 19.1293 17.1553H16.7746C16.6605 17.1553 16.5684 17.2477 16.5684 17.3615V19.4607C16.5684 19.5745 16.6605 19.6667 16.7746 19.6667Z" fill="white"/>
<path fill-rule="evenodd" clip-rule="evenodd" d="M20.0697 19.6667H22.4248C22.5385 19.6667 22.631 19.5745 22.631 19.4607V17.3615C22.631 17.2477 22.5385 17.1553 22.4248 17.1553H20.0697C19.956 17.1553 19.8638 17.2477 19.8638 17.3615V19.4607C19.8638 19.5745 19.956 19.6667 20.0697 19.6667Z" fill="white"/>
<path fill-rule="evenodd" clip-rule="evenodd" d="M23.3264 19.6667H25.6813C25.7954 19.6667 25.8876 19.5745 25.8876 19.4607V17.3615C25.8876 17.2477 25.7954 17.1553 25.6813 17.1553H23.3264C23.2128 17.1553 23.1201 17.2477 23.1201 17.3615V19.4607C23.1201 19.5745 23.2128 19.6667 23.3264 19.6667Z" fill="white"/>
<path fill-rule="evenodd" clip-rule="evenodd" d="M23.3264 16.6468H25.6813C25.7954 16.6468 25.8876 16.5542 25.8876 16.4404V14.3416C25.8876 14.2275 25.7954 14.1353 25.6813 14.1353H23.3264C23.2128 14.1353 23.1201 14.2275 23.1201 14.3416V16.4404C23.1201 16.5542 23.2128 16.6468 23.3264 16.6468Z" fill="white"/>
<path fill-rule="evenodd" clip-rule="evenodd" d="M26.6115 22.6867H28.9663C29.0803 22.6867 29.1725 22.5946 29.1725 22.4805V20.3816C29.1725 20.2675 29.0803 20.1753 28.9663 20.1753H26.6115C26.4974 20.1753 26.4053 20.2675 26.4053 20.3816V22.4805C26.4053 22.5946 26.4974 22.6867 26.6115 22.6867Z" fill="white"/>
<path d="M35.0501 40.0001C37.7839 40.0001 40.0001 37.7839 40.0001 35.0501C40.0001 32.3163 37.7839 30.1001 35.0501 30.1001C32.3163 30.1001 30.1001 32.3163 30.1001 35.0501C30.1001 37.7839 32.3163 40.0001 35.0501 40.0001Z" fill="#88D5C0"/>
<path d="M35.05 38.3498L38.35 35.0498H31.75L35.05 38.3498Z" fill="white"/>
<path d="M36.4862 32.2998H33.6133V35.2423H36.4862V32.2998Z" fill="white"/>
</g>
<defs>
<clipPath id="clip0_805_32015">
<rect width="33" height="33" fill="white" transform="translate(7 7)"/>
</clipPath>
</defs>
</svg>
