<svg width="60" height="60" viewBox="0 0 60 60" fill="none" xmlns="http://www.w3.org/2000/svg">
<circle cx="30" cy="30" r="30" fill="#2854A1"/>
<path fill-rule="evenodd" clip-rule="evenodd" d="M49.9263 27.1071C49.8252 27.0254 48.8802 26.3126 46.8891 26.3126C46.391 26.3126 45.8656 26.3579 45.3197 26.4476C44.935 23.8048 42.7543 22.5175 42.6528 22.4591L42.1177 22.1503L41.765 22.6582C41.7387 22.696 41.119 23.5982 40.815 24.8823C40.458 26.3903 40.6746 27.8062 41.4408 29.0183C40.5156 29.5331 39.0387 29.6674 38.7321 29.6714H14.1672C13.5263 29.6714 13.0027 30.1923 13.0002 30.8327C12.9905 33.0928 13.3629 35.2769 14.0769 37.1486C14.9236 39.3683 16.1832 41.0024 17.8198 42.0057C19.6555 43.1303 22.6441 43.7755 26.0189 43.7755C27.598 43.7755 29.172 43.6329 30.5704 43.3629C32.7742 42.9381 34.775 42.2113 36.5168 41.2036C38.0358 40.3249 39.4 39.2071 40.5717 37.8823C42.5182 35.6798 43.6777 33.2199 44.5399 31.043C44.6561 31.0477 44.7706 31.0498 44.8836 31.0498C47.0143 31.0498 48.3246 30.1981 49.0482 29.4831C49.8331 28.7077 50.1124 27.9347 50.1415 27.8491L50.2941 27.4023L49.9263 27.1071Z" fill="#71CFFF"/>
<path fill-rule="evenodd" clip-rule="evenodd" d="M16.444 28.9527H19.736C19.8947 28.9527 20.0239 28.8239 20.0239 28.6644V25.7307C20.0239 25.5713 19.8947 25.4424 19.736 25.4424H16.444C16.285 25.4424 16.1558 25.5713 16.1558 25.7307V28.6644C16.1558 28.8239 16.285 28.9527 16.444 28.9527Z" fill="#71CFFF"/>
<path fill-rule="evenodd" clip-rule="evenodd" d="M20.9806 28.9527H24.2719C24.4313 28.9527 24.5602 28.8239 24.5602 28.6644V25.7307C24.5602 25.5713 24.4313 25.4424 24.2719 25.4424H20.9806C20.8212 25.4424 20.6924 25.5713 20.6924 25.7307V28.6644C20.6924 28.8239 20.8212 28.9527 20.9806 28.9527Z" fill="#71CFFF"/>
<path fill-rule="evenodd" clip-rule="evenodd" d="M25.5862 28.9527H28.8779C29.0369 28.9527 29.1661 28.8239 29.1661 28.6644V25.7307C29.1661 25.5713 29.0369 25.4424 28.8779 25.4424H25.5862C25.4272 25.4424 25.2983 25.5713 25.2983 25.7307V28.6644C25.2983 28.8239 25.4272 28.9527 25.5862 28.9527Z" fill="#71CFFF"/>
<path fill-rule="evenodd" clip-rule="evenodd" d="M30.1379 28.9527H33.4295C33.5889 28.9527 33.7178 28.8239 33.7178 28.6644V25.7307C33.7178 25.5713 33.5889 25.4424 33.4295 25.4424H30.1379C29.9792 25.4424 29.8496 25.5713 29.8496 25.7307V28.6644C29.8496 28.8239 29.9792 28.9527 30.1379 28.9527Z" fill="#71CFFF"/>
<path fill-rule="evenodd" clip-rule="evenodd" d="M20.9806 24.7314H24.2719C24.4313 24.7314 24.5602 24.6025 24.5602 24.4434V21.5094C24.5602 21.3503 24.4313 21.2211 24.2719 21.2211H20.9806C20.8212 21.2211 20.6924 21.3503 20.6924 21.5094V24.4434C20.6924 24.6025 20.8212 24.7314 20.9806 24.7314Z" fill="#71CFFF"/>
<path fill-rule="evenodd" clip-rule="evenodd" d="M25.5862 24.7314H28.8779C29.0369 24.7314 29.1661 24.6025 29.1661 24.4434V21.5094C29.1661 21.3503 29.0369 21.2211 28.8779 21.2211H25.5862C25.4272 21.2211 25.2983 21.3503 25.2983 21.5094V24.4434C25.2983 24.6025 25.4272 24.7314 25.5862 24.7314Z" fill="#71CFFF"/>
<path fill-rule="evenodd" clip-rule="evenodd" d="M30.1379 24.7314H33.4295C33.5889 24.7314 33.7178 24.6025 33.7178 24.4434V21.5094C33.7178 21.3503 33.5889 21.2211 33.4295 21.2211H30.1379C29.9792 21.2211 29.8496 21.3503 29.8496 21.5094V24.4434C29.8496 24.6025 29.9792 24.7314 30.1379 24.7314Z" fill="#71CFFF"/>
<path fill-rule="evenodd" clip-rule="evenodd" d="M30.1379 20.5104H33.4295C33.5889 20.5104 33.7178 20.3811 33.7178 20.222V17.2884C33.7178 17.1289 33.5889 17 33.4295 17H30.1379C29.9792 17 29.8496 17.1289 29.8496 17.2884V20.222C29.8496 20.3811 29.9792 20.5104 30.1379 20.5104Z" fill="#71CFFF"/>
<path fill-rule="evenodd" clip-rule="evenodd" d="M34.7292 28.9527H38.0205C38.1799 28.9527 38.3087 28.8239 38.3087 28.6644V25.7307C38.3087 25.5713 38.1799 25.4424 38.0205 25.4424H34.7292C34.5697 25.4424 34.4409 25.5713 34.4409 25.7307V28.6644C34.4409 28.8239 34.5697 28.9527 34.7292 28.9527Z" fill="#71CFFF"/>
<circle cx="51" cy="51" r="9" fill="#71CFFF"/>
<path d="M51 57L57 51H45L51 57Z" fill="white"/>
<rect x="48.3882" y="46" width="5.22358" height="5.35" fill="white"/>
</svg>
