<?xml version="1.0" encoding="UTF-8" standalone="no"?>
<svg
   height="48"
   width="48"
   version="1.1"
   id="svg6744"
   sodipodi:docname="engine-storage.svg"
   inkscape:version="1.2.1 (9c6d41e, 2022-07-14)"
   xmlns:inkscape="http://www.inkscape.org/namespaces/inkscape"
   xmlns:sodipodi="http://sodipodi.sourceforge.net/DTD/sodipodi-0.dtd"
   xmlns="http://www.w3.org/2000/svg"
   xmlns:svg="http://www.w3.org/2000/svg">
  <defs
     id="defs6748" />
  <sodipodi:namedview
     id="namedview6746"
     pagecolor="#505050"
     bordercolor="#eeeeee"
     borderopacity="1"
     inkscape:showpageshadow="0"
     inkscape:pageopacity="0"
     inkscape:pagecheckerboard="0"
     inkscape:deskcolor="#505050"
     showgrid="false"
     inkscape:zoom="6.6041667"
     inkscape:cx="24.07571"
     inkscape:cy="24.15142"
     inkscape:window-width="1189"
     inkscape:window-height="1025"
     inkscape:window-x="526"
     inkscape:window-y="51"
     inkscape:window-maximized="0"
     inkscape:current-layer="svg6744" />
  <path
     d="M24 22q-8.05 0-13.025-2.45T6 14q0-3.15 4.975-5.575Q15.95 6 24 6t13.025 2.425Q42 10.85 42 14q0 3.1-4.975 5.55Q32.05 22 24 22Zm0 10q-7.3 0-12.65-2.2Q6 27.6 6 24.5v-5q0 1.95 1.875 3.375t4.65 2.35q2.775.925 5.9 1.35Q21.55 27 24 27q2.5 0 5.6-.425 3.1-.425 5.875-1.325 2.775-.9 4.65-2.325Q42 21.5 42 19.5v5q0 3.1-5.35 5.3Q31.3 32 24 32Zm0 10q-7.3 0-12.65-2.2Q6 37.6 6 34.5v-5q0 1.95 1.875 3.375t4.65 2.35q2.775.925 5.9 1.35Q21.55 37 24 37q2.5 0 5.6-.425 3.1-.425 5.875-1.325 2.775-.9 4.65-2.325Q42 31.5 42 29.5v5q0 3.1-5.35 5.3Q31.3 42 24 42Z"
     id="path6742"
     style="fill:#677285;fill-opacity:1" />
</svg>
