<?xml version="1.0" encoding="UTF-8" standalone="no"?>
<svg width="48px" height="48px" viewBox="0 0 48 48" version="1.1" xmlns="http://www.w3.org/2000/svg" xmlns:xlink="http://www.w3.org/1999/xlink">
    <!-- Generator: Sketch 42 (36781) - http://www.bohemiancoding.com/sketch -->
    <title>engine_48</title>
    <desc>Created with Sketch.</desc>
    <defs></defs>
    <g id="Page-1" stroke="none" stroke-width="1" fill="none" fill-rule="evenodd">
        <g id="engine_48">
            <g id="Capa_1">
                <g>
                    <path d="M0,0 L0,48 L48,48 L48,0 L0,0 Z M24,45 C12.4,45 3,35.6 3,24 C3,12.4 12.4,3 24,3 C35.6,3 45,12.4 45,24 C45,35.6 35.6,45 24,45 Z" id="Shape"></path>
                    <path d="M39,23.5 C39,15.7 32.3,9 24.5,9 L24,9 C20.1,9 16.5,10.5 13.9,13 C10.9,15.7 9,19.4 9,23.5 L9,24 C9,32.3 15.7,39 24,39 L24.5,39 C28.6,39 32.4,37.2 35,34.1 C37.5,31.4 39,27.9 39,24 L39,23.5 Z M28.1,10.6 C28.5,10.7 28.8,10.9 29.2,11 C31.5,11.9 33.5,13.5 35.1,15.4 C35.3,15.6 35.4,15.8 35.5,16 L35,15.9 C33,15.5 30.7,16.5 28.5,18.7 L26.7,20.5 L26.4,20.3 C26,20.1 25.4,19.8 24.8,19.7 L24.4,19.6 L24.4,17 C24.4,14.2 25.2,12.3 26.7,11.2 C27.1,10.9 27.6,10.7 28.1,10.6 L28.1,10.6 Z M27.5,24 C27.5,26 26,27.5 24,27.5 C22,27.5 20.5,26 20.5,24 C20.5,22 22,20.5 24,20.5 C26,20.5 27.5,22 27.5,24 Z M16.9,13 C17,12.4 17.3,12 17.5,11.6 C19.4,10.6 21.7,10 24,10 L24.2,10 C24.7,10 25.3,10 25.8,10.1 C26,10.1 26.3,10.2 26.5,10.2 L26.1,10.5 C24.4,11.6 23.5,13.8 23.5,17 L23.5,19.5 L23.1,19.6 C22.6,19.7 22,20 21.4,20.3 L21.1,20.5 L19.3,18.7 C17.3,16.7 16.5,14.8 16.9,13 L16.9,13 Z M11,18.8 C11.7,16.9 12.9,15.3 14.3,13.9 C14.8,13.4 15.4,12.9 16,12.5 L15.9,13 C15.6,15 16.5,17.2 18.7,19.4 L20.5,21.2 L20.3,21.5 C20.1,21.9 19.8,22.5 19.7,23.1 L19.6,23.5 L17,23.5 C14.2,23.5 12.3,22.7 11.2,21.2 C10.9,20.7 10.8,20.2 10.6,19.8 C10.7,19.5 10.9,19.2 11,18.8 Z M10,24 L10,23.8 C10,23.3 10,22.7 10.1,22.2 C10.1,22 10.2,21.7 10.2,21.5 L10.5,21.9 C11.6,23.6 13.8,24.5 17,24.5 L19.5,24.5 L19.6,24.9 C19.7,25.4 20,26 20.3,26.6 L20.5,26.9 L18.7,28.7 C16.7,30.7 14.9,31.5 13,31.1 C12.4,31 12,30.7 11.6,30.5 C10.6,28.6 10,26.3 10,24 L10,24 Z M19.8,37.4 C19.5,37.3 19.1,37.2 18.8,37 L18.7,37 C16.2,36 14.1,34.3 12.5,32.1 L13,32.2 C15,32.5 17.2,31.5 19.3,29.4 L21.1,27.6 L21.4,27.8 C21.8,28 22.4,28.3 23,28.4 L23.4,28.5 L23.4,31 C23.4,33.8 22.6,35.7 21.1,36.8 C20.7,37.1 20.3,37.3 19.8,37.4 Z M31.1,35 C31,35.6 30.7,36 30.5,36.4 C30.2,36.6 29.9,36.7 29.5,36.9 C27.9,37.6 26.1,38 24.2,38 L23.9,38 C23,38 22.2,37.9 21.4,37.8 L21.9,37.4 C23.5,36.3 24.4,34 24.4,31 L24.4,28.5 L24.8,28.4 C25.3,28.3 25.9,28 26.5,27.7 L26.8,27.5 L28.6,29.3 C30.7,31.3 31.5,33.2 31.1,35 L31.1,35 Z M34.3,33.5 C33.8,34 33.2,34.6 32.7,35 C32.5,35.2 32.3,35.3 32.1,35.4 L32.2,35 C32.6,33 31.6,30.7 29.4,28.5 L27.6,26.7 L27.8,26.4 C28,26 28.3,25.4 28.4,24.8 L28.5,24.4 L31,24.4 C33.8,24.4 35.7,25.2 36.8,26.7 C37.1,27.1 37.3,27.6 37.4,28 C36.8,30.1 35.7,32 34.3,33.5 L34.3,33.5 Z M38,24.4 C38,25.1 37.9,25.8 37.8,26.5 L37.4,26 C36.3,24.4 34,23.5 31,23.5 L28.5,23.5 L28.4,23.1 C28.3,22.6 28,22 27.7,21.4 L27.5,21.1 L29.3,19.3 C31.3,17.3 33.1,16.5 35,16.9 C35.6,17 36,17.3 36.4,17.5 C36.6,17.8 36.7,18.1 36.9,18.5 C37.6,20.1 38,22 38,24 L38,24.4 L38,24.4 Z M24,3 C12.4,3 3,12.4 3,24 C3,35.6 12.4,45 24,45 C35.6,45 45,35.6 45,24 C45,12.4 35.6,3 24,3 Z M24,43 C13.5,43 5,34.5 5,24 C5,13.5 13.5,5 24,5 C34.5,5 43,13.5 43,24 C43,34.5 34.5,43 24,43 Z" id="Shape" fill="#2089C4" fill-rule="nonzero"></path>
                </g>
            </g>
        </g>
    </g>
</svg>