<?xml version="1.0" encoding="UTF-8" standalone="no"?>
<svg
   height="48"
   width="48"
   version="1.1"
   id="svg5194"
   sodipodi:docname="engine-pruning.svg"
   inkscape:version="1.2.1 (9c6d41e, 2022-07-14)"
   xmlns:inkscape="http://www.inkscape.org/namespaces/inkscape"
   xmlns:sodipodi="http://sodipodi.sourceforge.net/DTD/sodipodi-0.dtd"
   xmlns="http://www.w3.org/2000/svg"
   xmlns:svg="http://www.w3.org/2000/svg">
  <defs
     id="defs5198" />
  <sodipodi:namedview
     id="namedview5196"
     pagecolor="#505050"
     bordercolor="#eeeeee"
     borderopacity="1"
     inkscape:showpageshadow="0"
     inkscape:pageopacity="0"
     inkscape:pagecheckerboard="0"
     inkscape:deskcolor="#505050"
     showgrid="false"
     inkscape:zoom="6.6041667"
     inkscape:cx="24.07571"
     inkscape:cy="24.15142"
     inkscape:window-width="1189"
     inkscape:window-height="1025"
     inkscape:window-x="526"
     inkscape:window-y="51"
     inkscape:window-maximized="0"
     inkscape:current-layer="svg5194" />
  <path
     d="M39.1 42.3 24.05 27.25 18.2 33.1q.55.85.675 1.65.125.8.125 1.75 0 3.2-2.15 5.35Q14.7 44 11.5 44q-3.2 0-5.35-2.15Q4 39.7 4 36.5q0-3.2 2.15-5.35Q8.3 29 11.5 29q.9 0 1.775.25.875.25 1.825.75l5.8-5.8-5.9-5.9q-.85.4-1.725.55Q12.4 19 11.5 19q-3.2 0-5.35-2.15Q4 14.7 4 11.5q0-3.2 2.15-5.35Q8.3 4 11.5 4q3.2 0 5.35 2.15Q19 8.3 19 11.5q0 .95-.125 1.8-.125.85-.525 1.6l25.7 25.7v1.7Zm-9.15-20.65-3.3-3.3L39.1 5.9h4.95v1.65ZM11.5 16q1.9 0 3.2-1.3 1.3-1.3 1.3-3.2 0-1.9-1.3-3.2Q13.4 7 11.5 7 9.6 7 8.3 8.3 7 9.6 7 11.5q0 1.9 1.3 3.2Q9.6 16 11.5 16Zm12.65 9.15q.4 0 .675-.275t.275-.675q0-.4-.275-.675t-.675-.275q-.4 0-.675.275t-.275.675q0 .4.275.675t.675.275ZM11.5 41q1.9 0 3.2-1.3 1.3-1.3 1.3-3.2 0-1.9-1.3-3.2-1.3-1.3-3.2-1.3-1.9 0-3.2 1.3Q7 34.6 7 36.5q0 1.9 1.3 3.2Q9.6 41 11.5 41Z"
     id="path5192"
     style="fill:#677285;fill-opacity:1" />
</svg>
