<?xml version="1.0" encoding="UTF-8" standalone="no"?>
<svg
   height="48"
   width="48"
   version="1.1"
   id="svg2826"
   sodipodi:docname="engine-deprecated.svg"
   inkscape:version="1.2.1 (9c6d41e, 2022-07-14)"
   xmlns:inkscape="http://www.inkscape.org/namespaces/inkscape"
   xmlns:sodipodi="http://sodipodi.sourceforge.net/DTD/sodipodi-0.dtd"
   xmlns="http://www.w3.org/2000/svg"
   xmlns:svg="http://www.w3.org/2000/svg">
  <defs
     id="defs2830" />
  <sodipodi:namedview
     id="namedview2828"
     pagecolor="#505050"
     bordercolor="#eeeeee"
     borderopacity="1"
     inkscape:showpageshadow="0"
     inkscape:pageopacity="0"
     inkscape:pagecheckerboard="0"
     inkscape:deskcolor="#505050"
     showgrid="false"
     inkscape:zoom="6.6041667"
     inkscape:cx="24.07571"
     inkscape:cy="24.15142"
     inkscape:window-width="1189"
     inkscape:window-height="1025"
     inkscape:window-x="526"
     inkscape:window-y="51"
     inkscape:window-maximized="0"
     inkscape:current-layer="svg2826" />
  <path
     d="M24 26.6q.65 0 1.075-.425.425-.425.425-1.075v-7.6q0-.65-.425-1.075Q24.65 16 24 16q-.65 0-1.075.425-.425.425-.425 1.075v7.6q0 .65.425 1.075.425.425 1.075.425Zm0 5.4q.7 0 1.175-.475.475-.475.475-1.175 0-.7-.475-1.175Q24.7 28.7 24 28.7q-.7 0-1.175.475-.475.475-.475 1.175 0 .7.475 1.175Q23.3 32 24 32ZM9.5 38q-.65 0-1.075-.425Q8 37.15 8 36.5q0-.65.425-1.075Q8.85 35 9.5 35h2.7V19.7q0-4.1 2.475-7.425T21.2 8.1V6.65q0-1.15.825-1.9T24 4q1.15 0 1.975.75.825.75.825 1.9V8.1q4.05.85 6.55 4.175 2.5 3.325 2.5 7.425V35h2.65q.65 0 1.075.425Q40 35.85 40 36.5q0 .65-.425 1.075Q39.15 38 38.5 38ZM24 44q-1.6 0-2.8-1.175Q20 41.65 20 40h8q0 1.65-1.175 2.825Q25.65 44 24 44Z"
     id="path2824"
     style="fill:#677285;fill-opacity:1" />
</svg>
