<?xml version="1.0" encoding="UTF-8" standalone="no"?>
<svg
   height="48"
   width="48"
   version="1.1"
   id="svg3648"
   sodipodi:docname="engine-logging.svg"
   inkscape:version="1.2.1 (9c6d41e, 2022-07-14)"
   xmlns:inkscape="http://www.inkscape.org/namespaces/inkscape"
   xmlns:sodipodi="http://sodipodi.sourceforge.net/DTD/sodipodi-0.dtd"
   xmlns="http://www.w3.org/2000/svg"
   xmlns:svg="http://www.w3.org/2000/svg">
  <defs
     id="defs3652" />
  <sodipodi:namedview
     id="namedview3650"
     pagecolor="#505050"
     bordercolor="#eeeeee"
     borderopacity="1"
     inkscape:showpageshadow="0"
     inkscape:pageopacity="0"
     inkscape:pagecheckerboard="0"
     inkscape:deskcolor="#505050"
     showgrid="false"
     inkscape:zoom="6.6041667"
     inkscape:cx="24.07571"
     inkscape:cy="24.15142"
     inkscape:window-width="1189"
     inkscape:window-height="1025"
     inkscape:window-x="526"
     inkscape:window-y="51"
     inkscape:window-maximized="0"
     inkscape:current-layer="svg3648" />
  <path
     d="M9 42q-1.2 0-2.1-.9Q6 40.2 6 39V9q0-1.2.9-2.1Q7.8 6 9 6h23.1l9.9 9.9V39q0 1.2-.9 2.1-.9.9-2.1.9Zm6.45-8.55h17.1q.65 0 1.075-.425.425-.425.425-1.075 0-.65-.425-1.075-.425-.425-1.075-.425h-17.1q-.65 0-1.075.425-.425.425-.425 1.075 0 .65.425 1.075.425.425 1.075.425Zm0-15.9h7.05q.65 0 1.075-.425Q24 16.7 24 16.05q0-.65-.425-1.075-.425-.425-1.075-.425h-7.05q-.65 0-1.075.425-.425.425-.425 1.075 0 .65.425 1.075.425.425 1.075.425Zm0 7.95h17.1q.65 0 1.075-.425.425-.425.425-1.075 0-.65-.425-1.075-.425-.425-1.075-.425h-17.1q-.65 0-1.075.425-.425.425-.425 1.075 0 .65.425 1.075.425.425 1.075.425Zm16.5-7.95H39L30.45 9v7.05q0 .65.425 1.075.425.425 1.075.425Z"
     id="path3646"
     style="fill:#677285;fill-opacity:1" />
</svg>
