<?xml version="1.0" encoding="UTF-8" standalone="no"?>
<svg
   height="48"
   width="48"
   version="1.1"
   id="svg58"
   sodipodi:docname="engine-configure-daemon.svg"
   inkscape:version="1.2.1 (9c6d41e, 2022-07-14)"
   xmlns:inkscape="http://www.inkscape.org/namespaces/inkscape"
   xmlns:sodipodi="http://sodipodi.sourceforge.net/DTD/sodipodi-0.dtd"
   xmlns="http://www.w3.org/2000/svg"
   xmlns:svg="http://www.w3.org/2000/svg">
  <defs
     id="defs62" />
  <sodipodi:namedview
     id="namedview60"
     pagecolor="#505050"
     bordercolor="#eeeeee"
     borderopacity="1"
     inkscape:showpageshadow="0"
     inkscape:pageopacity="0"
     inkscape:pagecheckerboard="0"
     inkscape:deskcolor="#505050"
     showgrid="false"
     inkscape:zoom="12.91943"
     inkscape:cx="23.298241"
     inkscape:cy="25.19461"
     inkscape:window-width="1189"
     inkscape:window-height="1025"
     inkscape:window-x="526"
     inkscape:window-y="51"
     inkscape:window-maximized="0"
     inkscape:current-layer="svg58" />
  <path
     d="M37.65 16.8q-.2 0-.4-.1t-.3-.35l-1.5-3.25-3.25-1.5q-.25-.1-.35-.3-.1-.2-.1-.4t.1-.4q.1-.2.35-.3l3.25-1.5 1.5-3.25q.1-.25.3-.35.2-.1.4-.1t.4.1q.2.1.3.35l1.5 3.25 3.25 1.5q.25.1.35.3.1.2.1.4t-.1.4q-.1.2-.35.3l-3.25 1.5-1.5 3.25q-.1.25-.3.35-.2.1-.4.1Zm4.2 14.45q-.2 0-.4-.1t-.3-.3l-.8-1.75-1.75-.8q-.1-.05-.4-.7 0-.2.1-.4t.3-.3l1.75-.8.8-1.75q.05-.1.7-.4.2 0 .4.1t.3.3l.8 1.75 1.75.8q.1.05.4.7 0 .2-.1.4t-.3.3l-1.75.8-.8 1.75q-.05.1-.7.4ZM17.05 44q-.55 0-.975-.4-.425-.4-.525-.95l-.35-3.25q-.7-.1-1.45-.45t-1.3-.85l-2.7 1.15q-.55.25-1.05.05t-.8-.65l-3-4.85q-.3-.55-.175-1.125t.625-.925l2.6-1.7q-.25-.85-.25-1.5t.25-1.5l-2.6-1.7q-.5-.35-.625-.925Q4.6 23.85 4.9 23.3l3-4.85q.3-.45.8-.65t1.05.05l2.7 1.15q.55-.5 1.3-.85t1.45-.45l.35-3.25q.1-.55.525-.95.425-.4.975-.4h5.7q.55 0 .975.4.425.4.525.95l.35 3.25q.7.1 1.45.45t1.3.85l2.7-1.15q.55-.25 1.05-.05t.8.65l3 4.85q.3.55.175 1.125t-.625.925l-2.6 1.7q.25.85.25 1.5t-.25 1.5l2.6 1.7q.5.35.625.925.125.575-.175 1.125l-3 4.85q-.3.45-.8.65t-1.05-.05l-2.7-1.15q-.55.5-1.3.85t-1.45.45l-.35 3.25q-.1.55-.525.95-.425.4-.975.4Zm2.85-9.7q2.5 0 4.125-1.625t1.625-4.125q0-2.5-1.625-4.125T19.9 22.8q-2.5 0-4.125 1.625T14.15 28.55q0 2.5 1.625 4.125T19.9 34.3Zm0-5.75Z"
     id="path56"
     style="fill:#677285;fill-opacity:1" />
</svg>
