<svg width="160" height="36" viewBox="0 0 160 36" version="1.1" xmlns="http://www.w3.org/2000/svg" fill="none"><path d="M41.884,13.807C40.84,13.104 38.097,12.804 36.103,13.341C35.996,11.355 34.971,9.681 33.098,8.221L32.405,7.756L31.943,8.454C31.034,9.833 30.651,11.671 30.787,13.341C30.894,14.371 31.251,15.528 31.943,16.367C29.347,17.873 26.955,17.531 16.361,17.531L0.004,17.531C-0.044,19.923 0.34,24.525 3.267,28.271C3.59,28.685 3.944,29.085 4.329,29.471C6.708,31.853 10.303,33.6 15.678,33.605C23.879,33.612 30.904,29.179 35.178,18.462C36.585,18.485 40.297,18.714 42.114,15.203C42.158,15.145 42.576,14.273 42.576,14.273L41.884,13.807L41.884,13.807ZM10.678,11.619L6.079,11.619L6.079,16.219L10.678,16.219L10.678,11.619ZM16.62,11.619L12.021,11.619L12.021,16.219L16.62,16.219L16.62,11.619ZM22.562,11.619L17.963,11.619L17.963,16.219L22.562,16.219L22.562,11.619ZM28.505,11.619L23.905,11.619L23.905,16.219L28.505,16.219L28.505,11.619ZM4.736,11.619L0.137,11.619L0.137,16.219L4.736,16.219L4.736,11.619ZM10.678,5.81L6.079,5.81L6.079,10.41L10.678,10.41L10.678,5.81ZM16.62,5.81L12.021,5.81L12.021,10.41L16.62,10.41L16.62,5.81ZM22.562,5.81L17.963,5.81L17.963,10.41L22.562,10.41L22.562,5.81ZM22.562,0L17.963,0L17.963,4.6L22.562,4.6L22.562,0Z" fill="white"/><path d="M62.236,25.766C61.948,26.309 60.32,28.512 56.839,28.512C52.624,28.512 49.271,25.287 49.271,20.018C49.271,14.717 52.624,11.524 56.871,11.524C60.32,11.524 61.885,13.663 62.172,14.142L62.172,11.843L67.345,11.843L67.345,27.714C67.345,32.152 64.599,35.218 58.276,35.218C51.986,35.218 49.686,31.514 49.399,30.14L55.53,30.14C55.722,30.364 56.456,31.194 58.276,31.194C60.799,31.194 62.236,29.917 62.236,27.586L62.236,25.766ZM62.236,20.018C62.236,17.687 60.735,15.931 58.372,15.931C56.009,15.931 54.508,17.687 54.508,20.018C54.508,22.349 56.009,24.105 58.372,24.105C60.735,24.105 62.236,22.349 62.236,20.018ZM78.127,11.428C83.3,11.428 87.196,14.973 87.196,20.114C87.196,25.223 83.3,28.799 78.127,28.799C72.922,28.799 69.059,25.223 69.059,20.114C69.059,14.973 72.922,11.428 78.127,11.428ZM78.127,24.297C80.458,24.297 81.991,22.477 81.991,20.114C81.991,17.751 80.458,15.931 78.127,15.931C75.796,15.931 74.232,17.751 74.232,20.114C74.232,22.477 75.796,24.297 78.127,24.297ZM94.073,20.305L94.073,28.384L88.9,28.384L88.9,11.843L94.073,11.843L94.073,14.43C94.425,13.663 95.638,11.811 99.087,11.811L102.631,11.811L102.631,16.921L98.097,16.921C95.191,16.921 94.073,18.006 94.073,20.305ZM116.083,25.957C115.763,26.5 114.103,28.735 110.59,28.735C106.407,28.735 103.022,25.478 103.022,20.114C103.022,14.781 106.439,11.524 110.622,11.524C114.103,11.524 115.731,13.631 116.019,14.142L116.019,4.882L121.192,4.882L121.192,28.384L116.083,28.384L116.083,25.957ZM116.083,20.114C116.083,17.719 114.55,15.931 112.187,15.931C109.792,15.931 108.259,17.719 108.259,20.114C108.259,22.509 109.792,24.297 112.187,24.297C114.55,24.297 116.083,22.541 116.083,20.114ZM131.972,11.428C137.145,11.428 141.041,14.973 141.041,20.114C141.041,25.223 137.145,28.799 131.972,28.799C126.767,28.799 122.903,25.223 122.903,20.114C122.903,14.973 126.767,11.428 131.972,11.428ZM131.972,24.297C134.303,24.297 135.836,22.477 135.836,20.114C135.836,17.751 134.303,15.931 131.972,15.931C129.641,15.931 128.076,17.751 128.076,20.114C128.076,22.477 129.641,24.297 131.972,24.297ZM147.918,19.699L147.918,28.384L142.745,28.384L142.745,11.843L147.918,11.843L147.918,14.398C148.556,13.312 150.376,11.492 153.25,11.492C157.37,11.492 159.988,14.462 159.988,18.645L159.988,28.384L154.783,28.384L154.783,19.699C154.783,17.495 153.442,16.09 151.366,16.09C149.291,16.09 147.918,17.527 147.918,19.699Z" fill="white"/></svg>