<svg width="92" height="20" viewBox="0 0 92 20" version="1.1" xmlns="http://www.w3.org/2000/svg"><path d="M20.474,6.892L20.813,7.12C20.813,7.12 20.608,7.547 20.587,7.576C19.699,9.293 17.884,9.181 17.196,9.17C15.107,14.413 11.672,16.582 7.664,16.578C5.036,16.576 3.279,15.721 2.116,14.556C1.928,14.367 1.755,14.171 1.597,13.969C0.166,12.136 -0.022,9.885 0.002,8.715L7.997,8.715C13.176,8.715 14.345,8.882 15.614,8.145C15.276,7.735 15.101,7.169 15.049,6.665C14.983,5.848 15.17,4.948 15.614,4.274L15.84,3.932L16.179,4.16C17.095,4.874 17.596,5.693 17.648,6.665C18.623,6.402 19.964,6.549 20.474,6.892ZM5.22,5.684L5.22,7.934L2.972,7.934L2.972,5.684L5.22,5.684ZM8.125,5.684L8.125,7.934L5.876,7.934L5.876,5.684L8.125,5.684ZM11.03,5.684L11.03,7.934L8.781,7.934L8.781,5.684L11.03,5.684ZM13.934,5.684L13.934,7.934L11.686,7.934L11.686,5.684L13.934,5.684ZM2.315,5.684L2.315,7.934L0.067,7.934L0.067,5.684L2.315,5.684ZM5.22,2.842L5.22,5.092L2.972,5.092L2.972,2.842L5.22,2.842ZM8.125,2.842L8.125,5.092L5.876,5.092L5.876,2.842L8.125,2.842ZM11.03,2.842L11.03,5.092L8.781,5.092L8.781,2.842L11.03,2.842ZM11.03,0L11.03,2.25L8.781,2.25L8.781,0L11.03,0ZM34.107,13.496C33.741,14.148 33.264,14.674 32.676,15.074C32.002,15.52 31.226,15.742 30.348,15.742C29.394,15.742 28.548,15.52 27.811,15.074C27.086,14.616 26.513,13.992 26.094,13.203C25.674,12.401 25.464,11.485 25.464,10.454C25.464,9.41 25.687,8.493 26.132,7.704C26.59,6.902 27.213,6.279 28.002,5.833C28.79,5.375 29.699,5.146 30.73,5.146C31.747,5.146 32.65,5.375 33.439,5.833C34.227,6.279 34.844,6.902 35.289,7.704C35.747,8.493 35.976,9.41 35.976,10.454L35.976,14.578C35.976,15.583 35.754,16.493 35.308,17.308C34.863,18.135 34.24,18.791 33.439,19.274C32.65,19.758 31.734,20 30.692,20C29.789,20 28.943,19.822 28.154,19.465C27.366,19.109 26.698,18.587 26.151,17.9C25.986,17.683 25.922,17.461 25.96,17.232C26.011,17.002 26.138,16.818 26.342,16.678C26.571,16.525 26.806,16.474 27.048,16.525C27.302,16.576 27.505,16.703 27.658,16.907C28.002,17.34 28.434,17.677 28.955,17.919C29.477,18.161 30.068,18.282 30.73,18.282C31.34,18.282 31.9,18.135 32.409,17.842C32.93,17.55 33.343,17.117 33.649,16.544C33.954,15.971 34.107,15.271 34.107,14.444L34.107,13.496ZM30.73,14.024C31.391,14.024 31.976,13.871 32.485,13.566C32.994,13.26 33.388,12.84 33.668,12.306C33.96,11.771 34.107,11.154 34.107,10.454C34.107,9.753 33.96,9.136 33.668,8.602C33.388,8.054 32.994,7.628 32.485,7.322C31.976,7.017 31.391,6.864 30.73,6.864C30.068,6.864 29.483,7.017 28.974,7.322C28.466,7.628 28.065,8.054 27.773,8.602C27.48,9.136 27.334,9.753 27.334,10.454C27.334,11.154 27.48,11.771 27.773,12.306C28.065,12.84 28.466,13.26 28.974,13.566C29.483,13.871 30.068,14.024 30.73,14.024ZM51.92,9.136L51.92,14.711C51.92,15.017 51.837,15.252 51.672,15.418C51.519,15.583 51.284,15.666 50.966,15.666C50.661,15.666 50.425,15.59 50.26,15.437C50.095,15.271 50.012,15.029 50.012,14.711L50.012,6.177C50.012,5.871 50.095,5.636 50.26,5.47C50.425,5.305 50.661,5.222 50.966,5.222C51.284,5.222 51.519,5.305 51.672,5.47C51.837,5.623 51.92,5.858 51.92,6.177L51.92,6.529C52.232,6.177 52.6,5.881 53.026,5.642C53.662,5.286 54.362,5.108 55.125,5.108C55.888,5.108 56.454,5.235 56.823,5.489C57.204,5.731 57.351,6.024 57.262,6.368C57.223,6.546 57.147,6.686 57.033,6.788C56.931,6.877 56.81,6.934 56.67,6.96C56.53,6.985 56.378,6.979 56.212,6.94C55.398,6.775 54.667,6.762 54.018,6.902C53.37,7.042 52.855,7.303 52.473,7.685C52.104,8.067 51.92,8.551 51.92,9.136ZM84.159,9.327L84.159,14.711C84.159,14.991 84.07,15.227 83.892,15.418C83.714,15.596 83.479,15.685 83.186,15.685C82.906,15.685 82.671,15.596 82.48,15.418C82.302,15.227 82.213,14.991 82.213,14.711L82.213,6.196C82.213,5.903 82.302,5.668 82.48,5.489C82.671,5.311 82.906,5.222 83.186,5.222C83.479,5.222 83.714,5.311 83.892,5.489C84.07,5.668 84.159,5.903 84.159,6.196L84.159,6.399C84.442,6.12 84.767,5.88 85.132,5.68C85.806,5.311 86.563,5.127 87.402,5.127C88.28,5.127 89.062,5.318 89.749,5.699C90.449,6.069 90.996,6.616 91.389,7.341C91.797,8.067 92,8.958 92,10.014L92,14.711C92,14.991 91.905,15.227 91.714,15.418C91.536,15.596 91.307,15.685 91.027,15.685C90.748,15.685 90.512,15.596 90.321,15.418C90.143,15.227 90.054,14.991 90.054,14.711L90.054,10.014C90.054,9.289 89.92,8.697 89.653,8.239C89.386,7.781 89.024,7.443 88.566,7.227C88.121,6.998 87.606,6.883 87.021,6.883C86.487,6.883 86.003,6.991 85.571,7.208C85.138,7.424 84.795,7.717 84.541,8.086C84.286,8.442 84.159,8.856 84.159,9.327ZM42.737,15.742C41.706,15.742 40.797,15.52 40.008,15.074C39.22,14.616 38.597,13.992 38.139,13.203C37.694,12.401 37.471,11.485 37.471,10.454C37.471,9.41 37.694,8.493 38.139,7.704C38.597,6.902 39.22,6.279 40.008,5.833C40.797,5.375 41.706,5.146 42.737,5.146C43.754,5.146 44.657,5.375 45.446,5.833C46.234,6.279 46.851,6.902 47.296,7.704C47.754,8.493 47.983,9.41 47.983,10.454C47.983,11.485 47.76,12.401 47.315,13.203C46.87,13.992 46.253,14.616 45.465,15.074C44.676,15.52 43.767,15.742 42.737,15.742ZM42.737,14.024C43.398,14.024 43.983,13.871 44.492,13.566C45,13.26 45.395,12.84 45.675,12.306C45.967,11.771 46.113,11.154 46.113,10.454C46.113,9.753 45.967,9.136 45.675,8.602C45.395,8.054 45,7.628 44.492,7.322C43.983,7.017 43.398,6.864 42.737,6.864C42.075,6.864 41.49,7.017 40.981,7.322C40.473,7.628 40.072,8.054 39.779,8.602C39.487,9.136 39.341,9.753 39.341,10.454C39.341,11.154 39.487,11.771 39.779,12.306C40.072,12.84 40.473,13.26 40.981,13.566C41.49,13.871 42.075,14.024 42.737,14.024ZM62.391,15.742C61.398,15.742 60.502,15.513 59.701,15.055C58.912,14.584 58.282,13.948 57.812,13.146C57.354,12.344 57.125,11.44 57.125,10.434C57.125,9.429 57.335,8.532 57.755,7.742C58.187,6.94 58.772,6.31 59.51,5.852C60.247,5.381 61.08,5.146 62.009,5.146C62.759,5.146 63.453,5.305 64.089,5.623C64.724,5.929 65.259,6.349 65.691,6.883L65.691,1.728C65.691,1.435 65.78,1.2 65.958,1.022C66.149,0.843 66.384,0.754 66.664,0.754C66.957,0.754 67.192,0.843 67.37,1.022C67.548,1.2 67.637,1.435 67.637,1.728L67.637,10.434C67.637,11.44 67.402,12.344 66.931,13.146C66.473,13.948 65.85,14.584 65.061,15.055C64.273,15.513 63.383,15.742 62.391,15.742ZM62.391,14.024C63.039,14.024 63.618,13.871 64.127,13.566C64.635,13.248 65.036,12.815 65.329,12.267C65.621,11.72 65.767,11.109 65.767,10.434C65.767,9.747 65.621,9.136 65.329,8.602C65.036,8.067 64.635,7.647 64.127,7.341C63.618,7.023 63.039,6.864 62.391,6.864C61.755,6.864 61.176,7.023 60.654,7.341C60.146,7.647 59.739,8.067 59.433,8.602C59.141,9.136 58.995,9.747 58.995,10.434C58.995,11.109 59.141,11.72 59.433,12.267C59.739,12.815 60.146,13.248 60.654,13.566C61.176,13.871 61.755,14.024 62.391,14.024ZM74.938,15.742C73.907,15.742 72.998,15.52 72.209,15.074C71.421,14.616 70.798,13.992 70.34,13.203C69.895,12.401 69.672,11.485 69.672,10.454C69.672,9.41 69.895,8.493 70.34,7.704C70.798,6.902 71.421,6.279 72.209,5.833C72.998,5.375 73.907,5.146 74.938,5.146C75.955,5.146 76.858,5.375 77.647,5.833C78.435,6.279 79.052,6.902 79.497,7.704C79.955,8.493 80.184,9.41 80.184,10.454C80.184,11.485 79.962,12.401 79.516,13.203C79.071,13.992 78.454,14.616 77.666,15.074C76.877,15.52 75.968,15.742 74.938,15.742ZM74.938,14.024C75.599,14.024 76.184,13.871 76.693,13.566C77.202,13.26 77.596,12.84 77.876,12.306C78.168,11.771 78.314,11.154 78.314,10.454C78.314,9.753 78.168,9.136 77.876,8.602C77.596,8.054 77.202,7.628 76.693,7.322C76.184,7.017 75.599,6.864 74.938,6.864C74.276,6.864 73.691,7.017 73.182,7.322C72.674,7.628 72.273,8.054 71.981,8.602C71.688,9.136 71.542,9.753 71.542,10.454C71.542,11.154 71.688,11.771 71.981,12.306C72.273,12.84 72.674,13.26 73.182,13.566C73.691,13.871 74.276,14.024 74.938,14.024Z" fill="white"/></svg>