<?xml version="1.0" encoding="UTF-8" standalone="no"?><!DOCTYPE svg PUBLIC "-//W3C//DTD SVG 1.1//EN" "http://www.w3.org/Graphics/SVG/1.1/DTD/svg11.dtd"><svg width="100%" height="100%" viewBox="0 0 1980 1834" version="1.1" xmlns="http://www.w3.org/2000/svg" xmlns:xlink="http://www.w3.org/1999/xlink" xml:space="preserve" xmlns:serif="http://www.serif.com/" style="fill-rule:evenodd;clip-rule:evenodd;"><circle cx="870.362" cy="1073.44" r="679.563" style="fill:none;stroke:url(#_Linear1);stroke-width:16.67px;stroke-dasharray:33.33,33.33;"/><circle cx="907.129" cy="1073.44" r="863.329" style="fill:none;stroke:url(#_Linear2);stroke-width:16.67px;stroke-dasharray:33.33,33.33;"/><circle cx="907.129" cy="1073.44" r="1061.3" style="fill:none;stroke:url(#_Linear3);stroke-width:16.67px;stroke-dasharray:33.33,33.33;"/><path d="M321.913,809.612C318.358,813.746 309.521,811.021 291.846,805.583C254.446,794.067 225.63,783.517 209.043,758.088C191.187,757.925 173.093,757.029 154.266,755.35C80.028,748.733 27.871,682.146 27.871,607.613C27.871,526.117 90.165,456.933 171.633,454.746C201.17,453.95 229.028,453.992 257.254,454.767C338.688,457.017 401.079,526.225 401.079,607.692C401.079,673.5 360.313,733.196 299.629,750.742C301.375,760.392 305.542,769.85 311.317,779.933C320.796,796.488 325.538,804.763 322.288,809.142C322.167,809.308 322.05,809.454 321.913,809.612Z" style="fill:url(#_Linear4);fill-rule:nonzero;"/><path d="M401.079,607.692C401.079,673.5 360.313,733.196 299.629,750.742C301.375,760.392 305.542,769.85 311.317,779.933C320.796,796.488 325.538,804.763 322.288,809.142C322.167,809.308 322.05,809.454 321.913,809.612C318.358,813.746 309.521,811.021 291.846,805.583C254.446,794.067 225.63,783.517 209.043,758.088C191.187,757.925 173.093,757.029 154.266,755.35C80.028,748.733 27.871,682.146 27.871,607.613C27.871,526.117 90.165,456.933 171.633,454.746C201.17,453.95 229.028,453.992 257.254,454.767C338.688,457.017 401.079,526.225 401.079,607.692ZM396.871,603.979C395.008,526.217 334.904,461.079 257.137,458.933C228.989,458.158 201.203,458.121 171.743,458.913C92.716,461.033 32.038,528.188 32.038,607.613C32.038,680.346 82.887,744.804 154.637,751.2C173.357,752.871 191.339,753.758 209.08,753.921L211.314,753.942L212.535,755.813C228.179,779.796 255.454,790.017 293.071,801.6C302.029,804.354 308.35,806.292 312.883,807.079C317.733,807.921 318.604,807.071 318.754,806.892C318.825,806.813 318.879,806.742 318.942,806.658C319.067,806.487 319.7,805.417 317.729,800.717C315.892,796.325 312.5,790.388 307.7,782.008C301.817,771.729 297.396,761.796 295.525,751.483L294.858,747.783L298.471,746.738C357.158,729.771 396.913,671.879 396.913,607.692L396.871,603.979Z" style="fill:#bdd6ed;fill-rule:nonzero;"/><path d="M256.838,579.196C256.838,573.825 256.738,572.796 256.45,572.042C256.108,571.146 255.554,570.346 254.838,569.713C254.233,569.179 253.302,568.729 248.274,566.842L215.694,554.621C215.047,554.379 214.714,554.258 214.473,554.179C214.233,554.258 213.9,554.383 213.256,554.621L180.676,566.842C175.651,568.725 174.723,569.179 174.117,569.713C173.398,570.35 172.842,571.146 172.501,572.042C172.214,572.796 172.115,573.825 172.115,579.196L172.115,608.254C172.115,620.842 179.004,632.242 188.118,641.738C197.162,651.158 207.702,657.967 213.383,661.279C213.73,661.483 213.98,661.629 214.196,661.75C214.313,661.817 214.405,661.863 214.473,661.9C214.542,661.863 214.635,661.817 214.754,661.75C214.97,661.629 215.22,661.483 215.568,661.279C221.248,657.967 231.788,651.158 240.832,641.738C249.946,632.242 256.833,620.842 256.838,608.254L256.838,579.196ZM231.323,585.608C233.763,583.167 237.72,583.167 240.161,585.608C242.602,588.05 242.602,592.004 240.161,594.446L212.817,621.792C210.376,624.229 206.42,624.229 203.979,621.792L191.829,609.638C189.388,607.196 189.388,603.238 191.829,600.796C194.27,598.358 198.226,598.358 200.667,600.796L208.398,608.529L231.323,585.608ZM269.338,608.254C269.333,625.496 259.958,639.858 249.849,650.392C239.668,660.996 228.023,668.488 221.867,672.079C220.718,672.75 219.165,673.717 217.061,674.171C215.46,674.513 213.49,674.513 211.889,674.171C209.785,673.717 208.232,672.75 207.084,672.079C200.927,668.488 189.282,660.996 179.101,650.392C168.99,639.858 159.615,625.496 159.615,608.254L159.615,579.196C159.615,574.85 159.518,571.021 160.819,567.6C161.882,564.804 163.607,562.313 165.848,560.338C168.594,557.917 172.216,556.663 176.285,555.133L208.866,542.921C209.878,542.542 211.239,541.992 212.711,541.779L213.594,541.688C214.182,541.646 214.772,541.646 215.36,541.688L216.239,541.779L217.318,541.996C218.369,542.258 219.325,542.633 220.084,542.921L252.665,555.133C256.733,556.663 260.354,557.917 263.1,560.338C265.346,562.313 267.071,564.804 268.133,567.6C269.438,571.021 269.338,574.85 269.338,579.196L269.338,608.254Z" style="fill:#bdd6ed;fill-rule:nonzero;"/><path d="M1200.02,91.656C1240.21,88.063 1278.54,87.963 1320.52,91.705C1394.75,98.324 1446.91,164.91 1446.91,239.443C1446.91,319.07 1387.44,386.928 1308.73,392.038C1294.42,428.708 1262.3,440.921 1218.3,454.467C1200.63,459.904 1191.8,462.625 1188.24,458.492C1188.1,458.338 1187.99,458.192 1187.86,458.025C1184.61,453.646 1189.35,445.367 1198.83,428.817C1206.12,416.088 1210.86,404.357 1211.38,391.973C1132.98,386.512 1073.7,318.762 1073.7,239.361C1073.7,164.916 1125.87,98.287 1200.02,91.656Z" style="fill:url(#_Linear5);fill-rule:nonzero;"/><path d="M1073.7,239.361C1073.7,164.916 1125.87,98.287 1200.02,91.656C1240.21,88.063 1278.54,87.963 1320.52,91.705C1394.75,98.324 1446.91,164.91 1446.91,239.443C1446.91,319.07 1387.44,386.928 1308.73,392.038C1294.42,428.708 1262.3,440.921 1218.3,454.467C1200.63,459.904 1191.8,462.625 1188.24,458.492C1188.1,458.338 1187.99,458.192 1187.86,458.025C1184.61,453.646 1189.35,445.367 1198.83,428.817C1206.12,416.088 1210.86,404.357 1211.38,391.973C1132.98,386.511 1073.7,318.762 1073.7,239.361ZM1077.87,239.361C1077.87,316.736 1135.61,382.52 1211.67,387.819L1215.72,388.099L1215.55,392.148C1214.98,405.501 1209.88,417.921 1202.45,430.888C1197.65,439.271 1194.25,445.208 1192.42,449.6C1190.44,454.325 1191.09,455.383 1191.21,455.542C1191.27,455.629 1191.33,455.696 1191.4,455.775C1191.55,455.954 1192.42,456.808 1197.27,455.967C1201.8,455.179 1208.12,453.238 1217.08,450.479C1261.29,436.871 1291.36,425.096 1304.84,390.525L1305.81,388.055L1308.46,387.88C1384.82,382.921 1442.75,317.043 1442.75,239.443C1442.75,166.71 1391.9,102.253 1320.15,95.856C1278.42,92.135 1240.34,92.235 1200.39,95.807C1128.73,102.215 1077.87,166.715 1077.87,239.361Z" style="fill:#bdd6ed;fill-rule:nonzero;"/><path d="M1258.44,183.917C1259.68,183.727 1260.94,183.727 1262.17,183.917L1262.79,184.027L1263.55,184.218C1265.31,184.723 1266.87,185.644 1268.06,186.309L1313.03,211.289C1314.48,212.091 1316.48,213.119 1317.98,214.752C1319.17,216.042 1320.07,217.575 1320.62,219.24C1321.15,220.821 1321.23,222.483 1321.25,223.911L1321.25,275.913C1321.23,277.342 1321.15,279.005 1320.62,280.588C1320.07,282.254 1319.17,283.782 1317.98,285.073C1316.48,286.706 1314.48,287.733 1313.03,288.535L1268.06,313.519C1266.7,314.28 1264.86,315.375 1262.79,315.802C1261.15,316.138 1259.46,316.138 1257.83,315.802C1255.75,315.375 1253.92,314.28 1252.55,313.519L1207.59,288.535C1206.14,287.733 1204.14,286.706 1202.63,285.073C1201.45,283.783 1200.54,282.253 1199.99,280.588C1199.47,279.005 1199.38,277.341 1199.37,275.913L1199.37,223.911C1199.38,222.483 1199.47,220.821 1199.99,219.24C1200.54,217.574 1201.45,216.042 1202.63,214.752C1204.14,213.118 1206.14,212.091 1207.59,211.289L1252.55,186.309C1253.92,185.549 1255.75,184.453 1257.83,184.027L1258.44,183.917ZM1211.87,274.574C1211.87,275.635 1211.88,276.199 1211.9,276.601C1212.23,276.815 1212.73,277.092 1213.66,277.61L1254.06,300.05L1254.06,253.59L1211.87,230.149L1211.87,274.574ZM1266.56,253.59L1266.56,300.05L1306.96,277.61C1307.89,277.093 1308.38,276.815 1308.72,276.601C1308.74,276.199 1308.75,275.636 1308.75,274.574L1308.75,230.149L1266.56,253.59ZM1279.63,254.372C1283.08,254.373 1285.88,257.171 1285.88,260.622L1285.88,278.598C1285.88,282.05 1283.08,284.848 1279.63,284.848C1276.18,284.848 1273.38,282.05 1273.38,278.598L1273.38,260.622C1273.38,257.17 1276.18,254.372 1279.63,254.372ZM1296.53,245.383C1299.98,245.384 1302.78,248.182 1302.78,251.633L1302.78,269.61C1302.78,273.061 1299.98,275.859 1296.53,275.86C1293.08,275.86 1290.28,273.062 1290.28,269.61L1290.28,251.633C1290.28,248.182 1293.08,245.383 1296.53,245.383ZM1258.62,197.235L1218.49,219.529L1260.31,242.763L1302.12,219.529L1261.99,197.235C1261.11,196.746 1260.65,196.49 1260.31,196.323C1259.97,196.49 1259.5,196.745 1258.62,197.235Z" style="fill:#bdd6ed;fill-rule:nonzero;"/><path d="M1526.08,1405.89C1529.64,1401.76 1538.47,1404.48 1556.15,1409.92C1593.55,1421.43 1622.36,1431.98 1638.95,1457.41C1656.81,1457.57 1674.9,1458.48 1693.73,1460.15C1767.97,1466.77 1820.12,1533.36 1820.12,1607.89C1820.12,1689.39 1757.83,1758.57 1676.36,1760.76C1646.83,1761.55 1618.97,1761.51 1590.74,1760.73C1509.31,1758.49 1446.91,1689.27 1446.91,1607.81C1446.91,1542 1487.68,1482.3 1548.37,1464.76C1546.62,1455.11 1542.45,1445.65 1536.67,1435.56C1527.2,1419.01 1522.46,1410.73 1525.71,1406.35C1525.83,1406.19 1525.95,1406.05 1526.08,1405.89Z" style="fill:url(#_Linear6);fill-rule:nonzero;"/><path d="M1446.91,1607.81C1446.91,1542 1487.68,1482.3 1548.37,1464.76C1546.83,1456.32 1543.45,1448.02 1538.76,1439.32L1536.67,1435.56C1527.49,1419.53 1522.76,1411.26 1525.43,1406.78L1525.71,1406.35L1526.08,1405.89C1529.64,1401.76 1538.47,1404.48 1556.15,1409.92C1593.55,1421.43 1622.36,1431.98 1638.95,1457.41C1656.81,1457.57 1674.9,1458.48 1693.73,1460.15C1767.97,1466.77 1820.12,1533.35 1820.12,1607.89L1820.08,1611.7C1818.17,1691.53 1756.56,1758.6 1676.36,1760.76L1665.36,1761.02C1643.5,1761.46 1622.44,1761.43 1601.31,1760.99L1590.74,1760.73C1510.58,1758.52 1448.87,1691.42 1446.96,1611.62L1446.91,1607.81ZM1451.08,1607.81C1451.08,1687.2 1511.85,1754.39 1590.85,1756.57C1619,1757.34 1646.79,1757.38 1676.25,1756.59C1755.28,1754.47 1815.95,1687.32 1815.95,1607.89C1815.95,1535.16 1765.11,1470.7 1693.36,1464.3C1674.63,1462.63 1656.65,1461.74 1638.91,1461.58L1636.68,1461.55L1635.46,1459.68C1619.81,1435.7 1592.54,1425.48 1554.92,1413.9C1545.96,1411.15 1539.65,1409.21 1535.11,1408.42C1530.26,1407.58 1529.39,1408.43 1529.24,1408.61L1529.05,1408.84C1528.93,1409 1528.29,1410.07 1530.26,1414.78C1532.1,1419.17 1535.49,1425.11 1540.29,1433.49C1546.18,1443.77 1550.6,1453.7 1552.47,1464.02L1553.13,1467.72L1549.52,1468.77C1490.84,1485.73 1451.08,1543.62 1451.08,1607.81Z" style="fill:#bdd6ed;fill-rule:nonzero;"/><path d="M1691.49,1643.16C1694.58,1641.61 1698.33,1642.87 1699.88,1645.95C1701.42,1649.04 1700.17,1652.8 1697.08,1654.34L1638.49,1683.63C1638.02,1683.87 1636.71,1684.58 1635.23,1684.86C1634.1,1685.08 1632.93,1685.08 1631.8,1684.86C1630.33,1684.58 1629.02,1683.87 1628.55,1683.63L1569.96,1654.34C1566.87,1652.8 1565.62,1649.04 1567.16,1645.95C1568.71,1642.87 1572.46,1641.61 1575.55,1643.16L1633.52,1672.14L1691.49,1643.16ZM1691.49,1612.78C1694.58,1611.23 1698.33,1612.48 1699.88,1615.57C1701.42,1618.66 1700.17,1622.41 1697.08,1623.95L1638.49,1653.25C1638.02,1653.49 1636.71,1654.2 1635.23,1654.48C1634.1,1654.69 1632.93,1654.7 1631.8,1654.48C1630.33,1654.2 1629.02,1653.49 1628.55,1653.25L1569.96,1623.95C1566.87,1622.41 1565.62,1618.66 1567.16,1615.57C1568.71,1612.48 1572.46,1611.23 1575.55,1612.78L1633.52,1641.76L1691.49,1612.78ZM1634.38,1551.75L1635.23,1551.87L1635.78,1551.99C1637.02,1552.32 1638.08,1552.89 1638.49,1553.1L1697.08,1582.4C1699.2,1583.45 1700.53,1585.62 1700.53,1587.99C1700.53,1590.35 1699.2,1592.51 1697.08,1593.57L1638.49,1622.87C1638.02,1623.1 1636.71,1623.82 1635.23,1624.1C1634.1,1624.31 1632.93,1624.31 1631.8,1624.1C1630.33,1623.82 1629.02,1623.1 1628.55,1622.87L1569.96,1593.57C1567.84,1592.51 1566.5,1590.35 1566.5,1587.99C1566.5,1585.62 1567.84,1583.45 1569.96,1582.4L1628.55,1553.1C1629.02,1552.86 1630.33,1552.15 1631.8,1551.87L1632.66,1551.75C1633.23,1551.7 1633.8,1551.7 1634.38,1551.75ZM1586.73,1587.98L1633.52,1611.38L1680.3,1587.98L1633.52,1564.59L1586.73,1587.98Z" style="fill:#bdd6ed;fill-rule:nonzero;"/><g><path d="M532.942,1323.77L639.083,1243.65C655.642,1231.16 670.842,1216.3 681,1197.84C761.229,1052 565.646,1044.42 385.079,1173.08C350.508,1200.75 334.892,1233.13 331.296,1265.74C320.038,1367.83 453.913,1383.41 532.942,1323.77Z" style="fill:#fffdfe;fill-rule:nonzero;"/></g><path d="M532.942,1323.77L639.083,1243.65C655.642,1231.16 670.842,1216.3 681,1197.84C761.229,1052 565.646,1044.42 385.079,1173.08C350.508,1200.75 334.892,1233.13 331.296,1265.74C320.038,1367.83 453.913,1383.41 532.942,1323.77Z" style="fill:none;fill-rule:nonzero;stroke:#305b8e;stroke-width:16.67px;"/><path d="M690.625,1142.86C687.721,1173.17 674.408,1212.09 615.342,1249.95C615.342,1249.95 551.204,1301.32 511.879,1326.94C472.554,1352.56 452.238,1359.19 371.233,1346.88C508.554,1300.25 577.475,1260.57 690.625,1142.86Z" style="fill:url(#_Linear7);fill-rule:nonzero;"/><g><path d="M110.219,873.917C106.891,876.013 105.289,880.258 106.38,884.104L125.805,952.446C126.388,954.496 127.684,956.208 129.43,957.233L149.835,969.208C153.454,971.333 158.56,972.404 160.502,976.304L257.946,1172.08C260.029,1176.27 264.992,1177.67 268.942,1175.18L285.163,1164.96C289.113,1162.48 290.513,1157.08 288.271,1153L183.376,961.917C181.283,958.104 182.985,952.8 183.18,948.296C183.183,948.229 183.185,948.163 183.187,948.096L183.723,923.2C183.772,920.95 182.994,918.804 181.56,917.221L134.916,865.754C132.407,862.988 128.393,862.471 125.169,864.5L110.219,873.917Z" style="fill:#c8d5e8;"/></g><g><path d="M222.248,1204.58C228.299,1216.13 242.138,1219.88 253.134,1212.96L322.028,1169.57C333.024,1162.65 337.039,1147.65 330.988,1136.11C324.937,1124.56 311.098,1120.81 300.102,1127.73L231.208,1171.12C220.212,1178.04 216.197,1193.04 222.248,1204.58Z" style="fill:#4079bd;"/></g><path d="M224.01,1203.47C229.527,1214 242.146,1217.42 252.172,1211.11L321.055,1167.73C331.081,1161.42 334.742,1147.75 329.225,1137.22C323.708,1126.69 311.089,1123.27 301.063,1129.58L232.18,1172.96C222.154,1179.27 218.494,1192.94 224.01,1203.47Z" style="fill:none;stroke:#305b8e;stroke-width:4.33px;"/><path d="M307.446,1147.42L243.029,1187.99C242.048,1188.61 241.689,1189.94 242.227,1190.97C242.765,1192 243.998,1192.33 244.978,1191.71L309.392,1151.15C310.375,1150.53 310.733,1149.2 310.196,1148.17C309.658,1147.14 308.425,1146.81 307.446,1147.42Z" style="fill:none;fill-rule:nonzero;stroke:#305b8e;stroke-width:4.17px;"/><g><path d="M424.988,1409C449.117,1393.4 456.883,1359.8 441.988,1335.45L350.546,1185.92C341.442,1171.04 322.838,1166.73 307.996,1176.08L269.25,1200.48C254.421,1209.81 248.408,1229.58 255.496,1245.72L326.921,1408.33C338.725,1435.2 369.833,1444.64 394.375,1428.78L424.988,1409Z" style="fill:#4079bd;fill-rule:nonzero;"/></g><path d="M424,1407.16C447.121,1392.23 454.567,1360.02 440.292,1336.68L348.85,1187.15C340.313,1173.2 322.879,1169.17 308.963,1177.92L270.217,1202.32C256.313,1211.08 250.677,1229.61 257.321,1244.74L328.742,1407.35C340.054,1433.1 369.867,1442.14 393.388,1426.95L424,1407.16Z" style="fill:none;fill-rule:nonzero;stroke:#305b8e;stroke-width:4.17px;"/><path d="M326.738,1196.15C324.933,1197.44 324.371,1200.01 325.492,1201.9L421.446,1364.38C422.563,1366.27 424.933,1366.77 426.742,1365.48C428.546,1364.2 429.108,1361.63 427.988,1359.74L332.033,1197.26C330.917,1195.37 328.546,1194.88 326.738,1196.15Z" style="fill:#305b8e;fill-rule:nonzero;"/><path d="M308.408,1207.57C306.571,1208.8 305.946,1211.35 307.013,1213.28L398.754,1378.65C399.821,1380.58 402.175,1381.15 404.017,1379.92C405.854,1378.7 406.479,1376.14 405.413,1374.22L313.675,1208.83C312.604,1206.91 310.25,1206.34 308.408,1207.57Z" style="fill:#305b8e;fill-rule:nonzero;"/><path d="M292.671,1217.52C290.767,1218.62 290.004,1221.12 290.967,1223.12L373.517,1394.22C374.479,1396.21 376.8,1396.93 378.7,1395.83C380.604,1394.73 381.367,1392.22 380.408,1390.23L297.854,1219.12C296.896,1217.13 294.575,1216.41 292.671,1217.52Z" style="fill:#305b8e;fill-rule:nonzero;"/><path d="M277.088,1227.78C275.129,1228.75 274.229,1231.21 275.079,1233.26L348.146,1409.47C348.996,1411.52 351.275,1412.39 353.233,1411.41C355.196,1410.44 356.092,1407.98 355.242,1405.93L282.175,1229.73C281.325,1227.67 279.046,1226.8 277.088,1227.78Z" style="fill:#305b8e;fill-rule:nonzero;"/><g><path d="M371.308,1168.74C362.454,1159.89 348.854,1159.67 337.792,1166.15C321.617,1175.61 315.154,1196.95 323.358,1213.8L347.392,1263.15C355.038,1278.85 373.446,1284.42 388.513,1275.61C400.442,1268.63 407.204,1254.33 404.388,1240.53C397.325,1205.94 388.283,1185.7 371.308,1168.74Z" style="fill:#fffdfe;fill-rule:nonzero;"/></g><path d="M322.008,1214.58C322.908,1214.06 323.808,1213.53 324.708,1213C327.304,1217.55 329.875,1222.12 332.417,1226.7C338.725,1238.08 344.846,1249.58 350.783,1261.17C353.967,1267.4 359.367,1272.09 365.692,1274.2C372.487,1276.53 380.25,1275.69 386.7,1271.89C396.846,1266.19 403.1,1253.16 400.638,1241.56C395.504,1215.23 387.404,1189.17 369.158,1171.17C361.742,1163.27 348.854,1162.78 338.929,1168.49C328.758,1174.04 321.75,1185.99 321.638,1198.22C321.546,1203.34 322.604,1208.43 324.708,1213C323.808,1213.53 322.908,1214.06 322.008,1214.58C319.496,1209.7 318.083,1204.12 317.963,1198.4C317.542,1184.77 324.983,1170.71 336.65,1163.81C347.867,1156.81 363.571,1156.48 373.458,1166.31C393.417,1184.85 402.671,1212.88 408.138,1239.5C411.563,1254.76 403.446,1271.88 390.321,1279.33C381.979,1284.3 371.792,1285.44 362.963,1282.41C354.738,1279.67 347.746,1273.3 344.004,1265.14C338.517,1253.28 333.217,1241.3 328.1,1229.23C326.042,1224.36 324.008,1219.48 322.008,1214.58ZM324.708,1213L322.008,1214.58L324.708,1213Z" style="fill:#305b8e;fill-rule:nonzero;"/><g><path d="M261.563,1307.93C255.938,1321.39 255.65,1336.86 260.117,1350.53C265.138,1365.88 282.138,1371.78 294.921,1362.61L340.05,1330.21C342.075,1328.76 343.954,1327.08 345.658,1325.2L347.263,1323.43C355.45,1314.39 358.238,1301.17 354.417,1289.48C348.704,1272.01 330.433,1263.81 314.592,1271.59C272.383,1292.32 266.6,1295.88 261.563,1307.93Z" style="fill:#fffdfe;fill-rule:nonzero;"/><path d="M262.925,1308.57C262.017,1308.15 261.108,1307.72 260.204,1307.3C261.829,1302.15 265.138,1297 269.246,1293.51C283.088,1282.25 298.213,1275.43 313.05,1267.69C316.325,1266.04 319.846,1264.97 323.417,1264.53C338.329,1262.51 353.421,1272.66 358.104,1287.96C362.413,1300.86 359.033,1316.44 349.871,1326.22C349.333,1326.8 348.796,1327.39 348.258,1327.98C346.354,1330.05 344.25,1331.9 342,1333.49C326.871,1344.15 311.721,1354.76 296.542,1365.33C282.854,1375.57 262.417,1367.92 257.921,1351.43C255.117,1342.33 254.325,1332.49 255.721,1322.96C256.513,1317.55 258.013,1312.25 260.204,1307.3C261.108,1307.72 262.017,1308.15 262.925,1308.57C261.058,1313.31 259.863,1318.33 259.325,1323.4C258.371,1332.32 259.454,1341.39 262.317,1349.62C266.517,1362.96 283.004,1368.12 293.3,1359.88C308.208,1348.85 323.146,1337.87 338.104,1326.94C339.896,1325.62 341.558,1324.11 343.058,1322.42C343.592,1321.83 344.121,1321.24 344.65,1320.64C351.671,1312.91 354.108,1300.87 350.725,1290.99C347.046,1279.28 335.454,1271.61 324.088,1273.15C321.367,1273.48 318.683,1274.27 316.138,1275.49C301.288,1282.86 285.488,1288.94 272.029,1297.66C268.1,1300.38 265.138,1303.9 262.925,1308.57ZM260.204,1307.3L262.925,1308.57L260.204,1307.3Z" style="fill:#305b8e;fill-rule:nonzero;"/></g><g><path d="M328.104,1422.74C314.513,1423.53 301.25,1418.05 291.317,1408.42C280.158,1397.6 281.575,1378.06 294.225,1368.35L338.15,1334.6C340.146,1333.07 342.288,1331.77 344.529,1330.73L346.363,1329.87C357.2,1324.82 369.55,1326.86 378.067,1335.12C390.737,1347.4 390.817,1369.05 378.246,1382.4C345.317,1417.39 340.05,1422.05 328.104,1422.74Z" style="fill:#fffdfe;fill-rule:nonzero;"/><path d="M328.079,1421.12C328.096,1422.2 328.113,1423.28 328.133,1424.36C333.104,1424.6 338.708,1423.07 343.175,1420.15C357.7,1410.26 369.013,1397.53 380.975,1385.4C383.738,1382.51 386.071,1379.12 387.813,1375.42C394.829,1361 391.813,1342.22 380.75,1331.92C371.388,1322.73 356.817,1320.42 344.988,1326.19C344.379,1326.48 343.767,1326.77 343.158,1327.06C340.675,1328.24 338.304,1329.7 336.1,1331.42C321.546,1342.8 307.017,1354.23 292.513,1365.69C278.629,1375.94 277.4,1399.63 289.717,1410.33C296.417,1416.58 304.521,1421.06 313.204,1423.17C318.071,1424.35 323.121,1424.77 328.133,1424.36C328.113,1423.28 328.096,1422.2 328.079,1421.12C323.367,1421.28 318.679,1420.65 314.196,1419.34C306.2,1417.01 298.867,1412.52 292.921,1406.51C283.167,1397.28 285.017,1378.52 295.933,1371C310.717,1359.97 325.471,1348.9 340.2,1337.78C341.988,1336.44 343.9,1335.3 345.896,1334.39C346.513,1334.11 347.125,1333.83 347.738,1333.55C357.025,1329.21 368.242,1331.17 375.383,1338.31C383.833,1346.3 386.05,1360.7 380.696,1371.73C379.363,1374.55 377.613,1377.15 375.517,1379.42C363.871,1391.71 352.946,1405.39 340.688,1415.81C336.925,1418.83 332.85,1420.59 328.079,1421.12ZM328.133,1424.36L328.079,1421.12L328.133,1424.36Z" style="fill:#305b8e;fill-rule:nonzero;"/></g><path d="M711.713,1458.08C747.688,1455.87 809.992,1457.75 856.742,1478.58C909.054,1501.89 925.242,1553.07 923.642,1598.85C922.838,1621.83 917.596,1644.07 909.825,1661.91C902.333,1679.11 891.771,1693.83 879.096,1699.86C854.104,1714.53 811.375,1725.48 766.158,1725.55C720.675,1725.62 671.125,1714.7 633.692,1683.8L633.125,1683.34L632.646,1682.78C620.563,1668.67 613.888,1650.15 610.879,1630.65C607.863,1611.08 608.446,1589.94 611.367,1569.93C614.288,1549.91 619.596,1530.72 626.258,1514.99C632.767,1499.62 641.092,1486.32 650.754,1479.54C655.996,1475.87 662.242,1470.65 671.433,1466.54C680.825,1462.33 693.125,1459.23 711.713,1458.08Z" style="fill:url(#_Radial8);fill-rule:nonzero;stroke:#305b8e;stroke-width:16.67px;"/><path d="M550.533,1464.24C551.946,1455.97 559.367,1450 567.758,1450.07C635.583,1450.63 900.433,1446.95 994.996,1446.65C1003.64,1446.62 1010.85,1453.31 1011.57,1461.98C1018.13,1541.24 1007.27,1582.92 956.592,1621.83C874.358,1667.99 709.946,1715.16 591.271,1606.42C543.983,1549.31 536.979,1543.53 550.533,1464.24Z" style="fill:url(#_Linear9);fill-rule:nonzero;"/><path d="M1014.68,1461.79C1012.6,1461.92 1010.53,1462.04 1008.46,1462.17C1009.4,1482.19 1009.65,1502.23 1007.37,1521.69C1004,1560.69 983.213,1593.91 951.979,1615.83L952.842,1615.27C918.225,1633.89 880.642,1647.6 842.083,1656.11C757.542,1675.72 661.567,1661.99 596.492,1600.65L597.263,1601.46C580.925,1581.12 561.433,1561.8 554.704,1539.63C548.379,1517.2 553.783,1490.91 557.592,1465.61C558.208,1461 562.942,1457.03 567.854,1457.12C698.6,1456.35 829.108,1453.02 959.742,1450.65C971.6,1450.44 983.279,1450.23 995.083,1450.06C1001.67,1449.79 1007.95,1455.39 1008.46,1462.17C1010.53,1462.04 1012.6,1461.92 1014.68,1461.79C1014.21,1451.86 1004.96,1443.05 994.913,1443.24C983.087,1443.14 971.392,1443.09 959.521,1443.05C828.817,1442.58 697.983,1443.74 567.663,1443.01C556.204,1442.76 545.433,1451.2 543.475,1462.88C539.546,1488.57 532.813,1514.81 540.217,1543.57C549.146,1572.13 569.283,1590.81 585.283,1611.39C585.425,1611.56 585.883,1612.05 586.054,1612.2C654.992,1678.23 758.267,1692.99 845.963,1672.44C886.15,1663.56 924.833,1648.82 960.338,1628.4C960.521,1628.29 961.038,1627.95 961.204,1627.83C993.846,1604.01 1016.48,1563.66 1017.31,1522.81C1018.55,1502.28 1017,1481.92 1014.68,1461.79ZM1008.46,1462.17L1014.68,1461.79L1008.46,1462.17Z" style="fill:#305b8e;fill-rule:nonzero;"/><path d="M745.538,1527C740.633,1557.98 737.717,1625.03 741.246,1661.91" style="fill:none;fill-rule:nonzero;stroke:#305b8e;stroke-width:12.5px;stroke-linecap:round;stroke-linejoin:round;"/><g><path d="M548.904,1070.6C575.879,1050.68 597.433,1027.44 679.425,1021.02C760.938,1014.64 899.75,1017.39 1001.85,1063.7C1220,1162.66 1137.72,1510.59 1045.03,1555.85C940.4,1621.43 680.963,1662.25 519.333,1539.18C509.462,1531.67 500.604,1522.83 493.942,1512.37C413.825,1386.58 480.413,1121.2 548.904,1070.6Z" style="fill:#fffdfe;fill-rule:nonzero;"/></g><path d="M1003.16,1060.86C1002.29,1062.76 1001.41,1064.65 1000.54,1066.55C1031.83,1081.42 1059.32,1103.21 1080.05,1130.31C1160.86,1242.29 1145.26,1406.23 1073.42,1519.02C1064.4,1531.17 1053.67,1542.33 1041.42,1548.38C1041.26,1548.45 1040.8,1548.71 1040.64,1548.81C883.521,1632.04 670.767,1638.91 523.963,1533.14C514.633,1526.08 506.367,1517.84 500.271,1508.32C432.171,1375.84 459.5,1189.83 552.313,1075.23C588.004,1042.72 632.654,1029.28 679.779,1026.07C753.496,1020.3 828.404,1022.66 901.042,1036.42C935.179,1043.05 968.879,1052.48 1000.54,1066.55C1001.41,1064.65 1002.29,1062.76 1003.16,1060.86C971.125,1046.11 937.067,1036.12 902.596,1028.98C829.217,1014.15 753.779,1010.92 679.071,1015.97C631.821,1018.24 580.971,1033.68 545.5,1065.98C443.871,1190.52 416.587,1371.57 487.617,1516.42C494.829,1527.81 504.363,1537.31 514.704,1545.22C669,1656.25 883.754,1649.96 1049.42,1562.89L1048.64,1563.32C1064.96,1555.15 1076.77,1542.22 1086.8,1528.85C1163.6,1407.7 1176.04,1239.71 1087.9,1124.05C1065.33,1096.4 1035.83,1074.81 1003.16,1060.86ZM1000.54,1066.55L1003.16,1060.86L1000.54,1066.55Z" style="fill:#305b8e;fill-rule:nonzero;"/><g><path d="M553.263,1068.57C580.233,1048.64 601.792,1025.41 683.779,1018.99C765.292,1012.6 904.104,1015.36 1006.2,1061.67C1224.35,1160.63 1142.08,1508.55 1049.38,1553.81C944.758,1619.4 685.317,1660.22 523.688,1537.15C513.817,1529.63 504.963,1520.8 498.3,1510.34C418.179,1384.54 484.771,1119.17 553.263,1068.57Z" style="fill:#fffdfe;fill-rule:nonzero;"/></g><path d="M1007.52,1058.83C1006.64,1060.72 1005.77,1062.62 1004.89,1064.52C1036.18,1079.39 1063.68,1101.18 1084.4,1128.28C1165.22,1240.25 1149.61,1404.19 1077.78,1516.98C1068.75,1529.13 1058.03,1540.3 1045.78,1546.34C1045.62,1546.42 1045.15,1546.68 1045,1546.78C887.875,1630 675.121,1636.88 528.317,1531.11C518.987,1524.05 510.721,1515.8 504.625,1506.29C436.525,1373.8 463.854,1187.8 556.667,1073.2C592.358,1040.69 637.008,1027.25 684.133,1024.04C757.85,1018.27 832.758,1020.62 905.4,1034.39C939.533,1041.01 973.233,1050.45 1004.89,1064.52C1005.77,1062.62 1006.64,1060.72 1007.52,1058.83C975.479,1044.08 941.421,1034.08 906.95,1026.95C833.571,1012.11 758.138,1008.88 683.425,1013.94C636.179,1016.2 585.325,1031.65 549.854,1063.95C448.229,1188.49 420.942,1369.53 491.971,1514.39C499.183,1525.78 508.717,1535.27 519.058,1543.18C673.354,1654.22 888.108,1647.92 1053.77,1560.85L1053,1561.29C1069.32,1553.11 1081.12,1540.18 1091.15,1526.82C1167.96,1405.67 1180.39,1237.67 1092.26,1122.02C1069.68,1094.37 1040.19,1072.78 1007.52,1058.83ZM1004.89,1064.52L1007.52,1058.83L1004.89,1064.52Z" style="fill:#305b8e;fill-rule:nonzero;"/><path d="M692.979,1019.3C765.613,1013.84 838.913,1016.48 910.108,1030.47C943.775,1037.25 977.008,1046.86 1008.2,1061.17C1040.03,1074.69 1068.63,1095.75 1090.4,1122.74C1175.15,1235.67 1161.9,1398.98 1087.38,1518.62C1077.32,1532.32 1065.48,1545.7 1048.87,1554.19L1049.65,1553.75C888.133,1640.3 678.533,1647.98 529.338,1540.35C519.05,1532.47 509.596,1522.98 502.529,1511.57C435.292,1370.48 462.133,1194.95 560.529,1071.77C561.829,1070.14 563.258,1068.61 564.821,1067.23C599.333,1036.8 647.892,1021.77 692.979,1019.3ZM835.213,1064.23C778.088,1052.75 719.204,1050.69 660.888,1055.44C624.088,1057.53 584.196,1071.07 556.663,1096.42C555.138,1097.82 553.763,1099.38 552.513,1101.03C471.867,1207.6 450.933,1352.36 502.158,1473.85C508.75,1485.72 518.075,1495.58 528.354,1503.65C557.925,1525.67 590.608,1541.82 625.013,1552.55C661.75,1564 689.333,1512.34 673.233,1477.53C649.667,1426.6 633.429,1366.16 634.213,1315.26C644.533,1196.34 703.846,1172.16 763.813,1171.25C823.225,1170.35 855.529,1146.28 974.604,1439.06C976.592,1443.93 982.288,1447.3 987.571,1447.74C993.817,1448.25 999.142,1444.92 1001.58,1439.11C1041.94,1342.9 1043.8,1228.63 983.671,1143.46C966.138,1120.5 942.783,1102.26 916.433,1090.65C890.729,1078.25 863.163,1069.98 835.213,1064.23Z" style="fill:url(#_Radial10);"/><g><path d="M909.479,1280.3L1026.22,1291.01C1047.53,1290.79 1031.97,1290.95 1045.44,1290.81C1065.7,1290.59 1079.57,1279.31 1108.49,1269.14" style="fill:none;fill-rule:nonzero;stroke:url(#_Linear11);stroke-width:5px;stroke-linecap:round;"/></g><g><path d="M612.588,1234.83L499.438,1201.98C479.567,1193.84 494.079,1199.78 481.513,1194.64" style="fill:none;fill-rule:nonzero;stroke:url(#_Linear12);stroke-width:5px;stroke-linecap:round;"/></g><g><path d="M870.908,1497.86C901.233,1519.2 930.704,1541.44 964.071,1556.8C982.642,1565.35 1020.74,1566.05 1052.24,1558.58" style="fill:none;fill-rule:nonzero;stroke:url(#_Linear13);stroke-width:5px;stroke-linecap:round;"/></g><g><path d="M594.667,1457.69C561.217,1472.99 524.829,1489.38 488.171,1482.04" style="fill:none;fill-rule:nonzero;stroke:url(#_Linear14);stroke-width:5px;stroke-linecap:round;"/></g><path d="M1007.52,1058.83C1006.64,1060.72 1005.77,1062.62 1004.89,1064.52C1036.18,1079.39 1063.68,1101.18 1084.4,1128.28C1165.22,1240.25 1149.61,1404.19 1077.78,1516.98C1068.75,1529.13 1058.03,1540.3 1045.78,1546.34C1045.62,1546.42 1045.15,1546.68 1045,1546.78C887.875,1630 675.121,1636.88 528.317,1531.11C518.987,1524.05 510.721,1515.8 504.625,1506.29C436.525,1373.8 463.854,1187.8 556.667,1073.2C592.358,1040.69 637.008,1027.25 684.133,1024.04C757.85,1018.27 832.758,1020.62 905.4,1034.39C939.533,1041.01 973.233,1050.45 1004.89,1064.52C1005.77,1062.62 1006.64,1060.72 1007.52,1058.83C975.479,1044.08 941.421,1034.08 906.95,1026.95C833.571,1012.11 758.138,1008.88 683.425,1013.94C636.179,1016.2 585.325,1031.65 549.854,1063.95C448.229,1188.49 420.942,1369.53 491.971,1514.39C499.183,1525.78 508.717,1535.27 519.058,1543.18C673.354,1654.22 888.108,1647.92 1053.77,1560.85L1053,1561.29C1069.32,1553.11 1081.12,1540.18 1091.15,1526.82C1167.96,1405.67 1180.39,1237.67 1092.26,1122.02C1069.68,1094.37 1040.19,1072.78 1007.52,1058.83ZM1004.89,1064.52L1007.52,1058.83L1004.89,1064.52Z" style="fill:#305b8e;fill-rule:nonzero;"/><g><path d="M742.366,1155.75C821.264,1154.47 884.212,1219.58 882.848,1301.06C881.483,1382.54 816.32,1449.73 737.422,1451.01C658.524,1452.29 595.576,1387.17 596.941,1305.69C598.305,1224.21 663.468,1157.02 742.366,1155.75Z" style="fill:#c8d5e8;"/><path d="M742.021,1176.56C808.8,1175.48 863.183,1230.7 862,1301.4C860.817,1372.1 804.554,1429.1 737.775,1430.18C670.992,1431.27 616.604,1376.05 617.792,1305.35C618.975,1234.65 675.237,1177.65 742.021,1176.56Z" style="fill:none;fill-rule:nonzero;stroke:#c8d5e8;stroke-width:41.67px;"/></g><g><path d="M753.592,1187.42C812.992,1186.45 863.112,1238.35 861.963,1307.04C860.813,1375.73 808.929,1429.27 749.529,1430.23C690.133,1431.2 640.017,1379.3 641.167,1310.62C642.317,1241.93 694.196,1188.38 753.592,1187.42Z" style="fill:none;fill-rule:nonzero;stroke:url(#_Radial15);stroke-width:41.67px;"/></g><path d="M753.171,1212.84C801.838,1212.05 840.858,1254.22 839.971,1307.39C839.079,1360.57 798.625,1404.02 749.958,1404.81C701.288,1405.6 662.267,1363.43 663.154,1310.26C664.046,1257.09 704.5,1213.63 753.171,1212.84Z" style="fill:url(#_Radial16);fill-rule:nonzero;stroke:#305b8e;stroke-width:4.17px;"/><g><path d="M796.404,1311.29C794.575,1309.2 789.038,1307.29 784.65,1307.66C785.367,1303 784.038,1298.66 780.85,1294.44L779.633,1293.05L778.342,1294.47C775.808,1297.27 774.146,1301.37 773.633,1305.31C773.367,1307.74 773.563,1310.59 774.592,1312.84C768.504,1315.19 763.708,1313.34 741.763,1308.66L707.888,1301.44C706.654,1306.97 705.271,1317.82 709.554,1327.81C710.029,1328.91 710.575,1330 711.188,1331.06C714.988,1337.65 721.604,1343.29 732.738,1345.67C749.725,1349.32 766.379,1342.13 780.313,1319.14C783.213,1319.81 790.796,1321.98 796.221,1314.64C796.342,1314.52 797.621,1312.68 797.621,1312.68L796.408,1311.29L796.404,1311.29ZM732.929,1291.78L723.404,1289.74L721.225,1300.42L730.75,1302.45L732.929,1291.78ZM745.238,1294.4L735.713,1292.37L733.533,1303.05L743.058,1305.08L745.238,1294.4ZM757.55,1297.03L748.021,1294.99L745.842,1305.67L755.371,1307.7L757.55,1297.03ZM769.858,1299.65L760.329,1297.62L758.15,1308.3L767.679,1310.33L769.858,1299.65ZM720.617,1289.15L711.096,1287.12L708.917,1297.8L718.442,1299.83L720.621,1289.15L720.617,1289.15ZM735.679,1278.29L726.154,1276.25L723.975,1286.93L733.5,1288.96L735.679,1278.29ZM747.992,1280.91L738.463,1278.88L736.283,1289.56L745.808,1291.59L747.992,1280.91ZM760.3,1283.54L750.771,1281.5L748.592,1292.18L758.121,1294.21L760.3,1283.54ZM763.05,1270.05L753.525,1268.02L751.346,1278.7L760.871,1280.73L763.05,1270.05Z" style="fill:url(#_Linear17);fill-rule:nonzero;"/></g><path d="M944.288,572.213L801.783,563.375C803.629,533.608 829.254,510.975 859.021,512.821L893.733,514.975C923.5,516.821 946.133,542.446 944.288,572.213Z" style="fill:url(#_Radial18);fill-rule:nonzero;"/><path d="M944.096,575.329C944.225,573.25 944.354,571.171 944.483,569.092C938.75,568.042 933.013,567.058 927.271,566.146C904.304,562.496 881.271,559.954 858.167,558.521C839.546,557.367 820.917,556.292 802.283,555.296L809.858,563.875C810.525,539.479 833.5,518.125 858.596,519.617C870.183,520.087 881.775,520.521 893.367,520.929C913.504,521.258 932.908,535.783 938.929,555.979C940.517,561.121 941.279,566.546 941.171,572.017C943.25,572.146 945.329,572.275 947.408,572.404C948.021,566.308 947.65,560.079 946.267,554.029C941.175,530.333 919.246,510.833 894.104,509.021C882.55,507.992 870.996,506.992 859.442,506.025C827.208,502.563 795.204,529.767 793.704,562.875C793.463,567.446 796.708,571.208 801.283,571.45C819.896,572.767 838.513,574 857.138,575.154C880.238,576.588 903.413,576.913 926.65,576.125C932.463,575.929 938.275,575.667 944.096,575.329ZM944.483,569.092L944.096,575.329C945.858,575.229 947.367,574.171 947.408,572.404L941.171,572.017L944.483,569.092Z" style="fill:#305b8e;fill-rule:nonzero;"/><g><path d="M951.967,273.405C975.85,293.435 978.978,329.086 958.948,352.969C938.917,376.852 903.266,379.98 879.383,359.95C855.5,339.92 852.372,304.268 872.402,280.385C892.433,256.502 928.084,253.375 951.967,273.405Z" style="fill:#fffdfe;"/></g><path d="M961.342,354.977C959.742,353.638 958.146,352.3 956.55,350.961C952.421,354.809 947.829,357.955 942.967,360.339C923.442,370.011 900.092,366.707 884.737,353.565C864.729,337.585 861.521,305.112 878.342,285.368C894.175,264.876 927.363,260.882 948.096,278.016C965,290.954 972.267,315.545 964.537,336.403C962.675,341.598 959.975,346.52 956.55,350.961C958.146,352.3 959.742,353.638 961.342,354.977C965.529,350.344 969.013,345.024 971.575,339.247C982.208,316.146 975.925,285.963 955.833,268.793C931.408,246.144 888.167,248.854 866.458,275.402C843.496,300.817 846.992,344.773 874.025,366.335C894.758,384.381 927.704,384.88 948.271,368.818C953.442,364.931 957.863,360.209 961.342,354.977ZM956.55,350.961L961.342,354.977L956.55,350.961Z" style="fill:#305b8e;fill-rule:nonzero;"/><g><path d="M889.442,365.77C891.179,360.415 896.604,357.185 902.154,358.131C909.267,359.344 913.479,366.758 911.067,373.555C896.233,415.289 891.35,445.296 890.971,492.804C890.913,499.95 884.504,505.433 877.454,504.229C871.808,503.267 867.729,498.275 867.954,492.554C869.925,441.75 874.8,410.89 889.442,365.77Z" style="fill:#fffdfe;fill-rule:nonzero;"/></g><path d="M914.008,374.602C912.046,373.904 910.083,373.206 908.121,372.509C905.65,377.391 903.313,382.344 901.133,387.389C892.363,407.508 886.567,429.338 884.546,451.379C883.229,465.213 882.8,479.004 882.783,492.738C882.896,494.8 880.804,496.7 878.804,496.338C877.146,496.154 875.721,494.579 875.754,492.858C876.379,450.054 881.442,408.293 893.787,367.182C894.521,364.039 897.933,361.585 901.492,362.034C902.396,362.134 903.267,362.388 904.079,362.797C907.342,364.367 909.317,368.67 908.121,372.509C910.083,373.206 912.046,373.904 914.008,374.602C916.654,368.239 914.138,360.025 907.9,356.235C906.35,355.268 904.613,354.587 902.821,354.229C895.671,352.642 887.533,357.049 885.092,364.36C869.563,404.836 861.9,449.017 860.15,492.25C859.538,501.617 866.8,510.65 876.108,512.121C887.617,514.483 899.346,504.517 899.154,492.871C899.363,479.442 899.883,466.125 901.138,452.967C903.075,432.008 906.3,411.412 910.671,390.403C911.746,385.153 912.867,379.89 914.008,374.602ZM908.121,372.509L914.008,374.602L908.121,372.509Z" style="fill:#305b8e;fill-rule:nonzero;"/><path d="M901.579,510.371C881.654,502.208 868.083,502.867 845.367,510.3C845.675,498.908 855.154,489.921 866.546,490.225L881.192,490.617C892.083,490.908 900.942,499.492 901.579,510.371Z" style="fill:#305b8e;fill-rule:nonzero;"/><path d="M844.396,507.329C845.046,509.308 845.692,511.288 846.342,513.271C848.692,513.229 850.996,513.171 853.25,513.096C862.35,512.783 870.488,512.4 878.133,512.917C884.85,513.329 891.604,515.183 898.525,517.821C904.604,520.467 909.858,516.525 909.617,509.9C908.817,495.292 895.35,483.254 881.375,483.796C876.483,483.933 871.596,484.108 866.704,484.317C855.592,484.471 845.725,492.475 843.092,502.329C842.358,504.925 842.083,507.604 842.246,510.217C844.329,510.271 846.408,510.329 848.492,510.383C848.775,508.458 849.363,506.633 850.208,504.975C853.383,498.658 860.304,495.271 866.388,496.133C871.258,496.604 876.133,497.038 881.008,497.438C888.112,498.1 893.554,504.383 893.542,510.838L904.629,502.921C896.933,499.554 888.304,496.842 879.196,496.288C868.696,495.588 858.767,498.783 850.483,503.488C848.392,504.667 846.371,505.954 844.396,507.329ZM846.342,513.271L844.396,507.329L848.492,510.383L842.246,510.217C841.938,512.583 843.954,513.342 846.342,513.271Z" style="fill:#305b8e;fill-rule:nonzero;"/><g><path d="M514.066,700.583C491.1,703.301 472.307,750.598 472.126,806.137C471.945,861.675 490.445,904.559 513.412,901.841C536.378,899.123 555.171,851.826 555.352,796.287C555.532,740.749 537.033,697.865 514.066,700.583Z" style="fill:url(#_Radial19);"/></g><path d="M472.125,806.138C472.658,813.833 473.521,821.442 474.746,828.913C477.208,843.808 481.008,858.4 487.046,871.421C492.742,883.908 502.917,897.529 513.429,895.633C526.517,892.867 535.629,870.842 540.171,853.467C544.971,835.046 546.908,816.025 546.996,797.275C547.029,778.533 545.213,759.954 540.533,742.658C536.1,726.342 527.121,706.458 514.046,706.792C503.533,707.383 493.263,723.425 487.483,737.271C481.354,751.733 477.458,767.233 474.896,782.725C473.621,790.492 472.708,798.308 472.125,806.138C471.592,798.442 471.45,790.646 471.738,782.792C472.342,767.117 474.488,751.088 479.533,735.2C485.063,720.342 491.267,699.95 514.083,694.375C542.721,694.517 548.921,719.458 555.604,736.608C561.475,755.446 563.729,775.263 563.704,795.3C563.596,815.342 561.213,835.708 555.217,855.954C548.417,874.696 542.05,901.125 513.388,908.05C490.592,907.875 484.513,888.933 479.075,875.375C474.129,860.671 472.087,845.138 471.583,829.592C471.35,821.8 471.542,813.967 472.125,806.138Z" style="fill:#305b8e;fill-rule:nonzero;"/><g><path d="M512.896,731.033C520.258,626.625 602.558,541.767 707.179,538.754C837.254,535.017 936.95,542.983 1042.1,561.225C1144.65,579.017 1213.29,674.746 1205.97,778.571L1199.6,868.879C1191.8,979.446 1100.27,1066.36 989.463,1063.5C885.042,1060.81 792.45,1054.3 687.442,1042.16C577.308,1029.43 498.825,930.542 506.625,819.95L512.896,731.033Z" style="fill:#fffdfe;fill-rule:nonzero;"/></g><path d="M995.046,552.892C1008.43,554.767 1021.79,556.829 1035.11,559.067C1095.65,568.633 1147.2,610.338 1176.37,663.963C1196.93,701.038 1202.64,737.696 1199.58,779.917C1197.44,810.017 1200.89,857.358 1198.74,887.458C1193.37,998.038 1063.93,1071.78 987.808,1069.74C886.683,1067.04 790.217,1060.86 689.808,1048.75C630.288,1037.85 596.658,1014.87 569.292,991.575C608.258,969.867 634.854,980.492 682.646,984.963C792.55,995.242 866.175,990.438 959.208,993.275C1070.99,999.321 1139.94,963.283 1145.3,852.496C1146.65,833.467 1145.58,772.838 1146.94,753.808C1150.1,710.246 1140.08,665.775 1118.16,627.908C1098.41,593.163 1030.77,570.833 995.046,552.892Z" style="fill:#e6f1fd;fill-rule:nonzero;"/><path d="M707.088,535.633C707.146,537.717 707.204,539.796 707.267,541.879C741.396,541.592 775.513,541.983 809.521,543.325C887.217,546.258 964.421,554.892 1040.78,568.829C1096.54,578.492 1145.85,615.329 1172.85,664.829C1191.83,699.058 1200.48,738.892 1197.69,777.988C1195.58,808.092 1193.48,838.196 1191.38,868.3C1186.58,970.683 1092.93,1060.52 989.658,1055.79C888.913,1053.56 788.388,1046.73 688.221,1035.4C584.763,1026.22 502.954,923.896 512.038,820.329C513.979,790.679 515.913,761.029 517.842,731.379C521.621,667.213 557.175,605.242 612.142,571.071C640.504,553.208 673.629,543.013 707.267,541.879C707.204,539.796 707.146,537.717 707.088,535.633C672.363,536.329 637.85,546.425 608.15,564.613C550.592,599.388 512.65,663.517 507.95,730.683C505.696,760.313 503.45,789.938 501.212,819.567C490.471,928.35 575.917,1038.2 686.658,1048.92C787.067,1061.04 888.133,1068.51 989.263,1071.22C1100.83,1076.84 1202.44,980.038 1207.81,869.458C1209.96,839.358 1212.11,809.254 1214.25,779.154C1217.31,736.933 1207.99,693.838 1187.43,656.763C1158.26,603.137 1103.97,563.188 1043.42,553.621C966.225,540.637 887.942,533.733 809.75,533.329C775.517,533.092 741.267,533.954 707.088,535.633ZM707.267,541.879L707.088,535.633L707.267,541.879Z" style="fill:#305b8e;fill-rule:nonzero;"/><g><path d="M595.762,763.104C599.178,706.048 642.865,660.162 697.797,657.986C811.919,653.462 898.079,657.959 1001.38,676.244C1054.98,685.733 1091.63,736.827 1088.26,793.261C1084.2,861.024 1024.75,909.734 959.997,901.137C878.793,890.351 804.471,885.266 708.686,885.496C644.18,885.655 591.756,830.064 595.762,763.104Z" style="fill:url(#_Linear20);fill-rule:nonzero;"/><path d="M699.338,657.538C811.863,653.25 897.046,657.517 999.142,674.892C1056.22,684.604 1094.92,736.829 1091.36,794.096C1087.07,863.117 1024.17,912.388 956.054,903.692C876.692,893.558 804.075,888.775 710.367,888.992C642.425,889.15 586.908,832.817 591.154,764.592C594.763,706.608 640.975,659.763 699.338,657.538Z" style="fill:none;fill-rule:nonzero;stroke:#305b8e;stroke-width:16.67px;"/></g><path d="M733.274,720.113C763.408,718.355 789.3,741.393 791.058,771.528C792.816,801.662 769.777,827.555 739.643,829.312C709.509,831.07 683.616,808.032 681.859,777.897C680.101,747.763 703.139,721.87 733.274,720.113Z" style="fill:url(#_Radial21);stroke:#305b8e;stroke-width:4.17px;"/><path d="M950.353,730.079C980.487,728.322 1006.38,751.36 1008.14,781.495C1009.89,811.629 986.857,837.521 956.722,839.279C926.588,841.037 900.695,817.998 898.938,787.864C897.18,757.729 920.218,731.837 950.353,730.079Z" style="fill:url(#_Radial22);stroke:#305b8e;stroke-width:4.17px;"/><g><path d="M1228.78,731.863C1261.66,734.426 1284.81,781.931 1280.45,837.881C1276.09,893.831 1245.85,937.174 1212.98,934.612C1180.1,932.049 1156.95,884.544 1161.31,828.594C1165.67,772.644 1195.9,729.301 1228.78,731.863Z" style="fill:url(#_Radial23);"/></g><path d="M1280.45,837.879C1279.23,846.417 1277.41,854.817 1274.99,862.983C1265.89,894.125 1243.84,930.708 1213.46,928.379C1176.28,920.542 1166.65,867.675 1169.62,829.242C1172.65,790.808 1190.35,740.075 1228.3,738.092C1258.67,740.496 1274.78,780.058 1278.95,812.229C1280.07,820.675 1280.56,829.254 1280.45,837.879C1281.67,829.342 1282.25,820.683 1282.1,811.996C1280.88,779.367 1272.16,734.138 1229.27,725.629C1173.88,727.596 1157.24,786.338 1153,827.946C1150.74,869.708 1158.08,930.317 1212.49,940.842C1256.19,939.083 1271.8,895.75 1278.08,863.704C1279.56,855.146 1280.33,846.504 1280.45,837.879Z" style="fill:#305b8e;fill-rule:nonzero;"/><g><path d="M1291.34,840.858C1288.33,876.471 1270.16,904.004 1250.77,902.363C1231.38,900.721 1218.11,870.525 1221.12,834.913C1224.14,799.304 1242.3,771.767 1261.69,773.408C1281.08,775.05 1294.35,805.25 1291.34,840.858Z" style="fill:url(#_Linear24);fill-rule:nonzero;"/></g><path d="M1044.54,1287.5L1082.17,1293.75C1082.17,1293.75 1125.01,1285.7 1132.04,1333.33C1139.06,1380.97 1149.57,1412.51 1111.2,1487.5C1102.07,1390.17 1063.29,1331.25 1044.54,1287.5Z" style="fill:url(#_Linear25);fill-rule:nonzero;"/><path d="M1239.62,1209.18L1141.05,1127.84C1112.57,1104.33 1072.41,1090.6 1054.59,1122.95C1023.05,1180.21 1020.66,1304.48 1141.26,1398.41C1184.76,1432.28 1225.27,1433.2 1259.51,1417.91C1342.44,1380.86 1309.68,1267 1239.62,1209.18Z" style="fill:#fffdfe;fill-rule:nonzero;stroke:#305b8e;stroke-width:16.67px;"/><path d="M1285.96,1372.73C1243.55,1391.98 1102.5,1386.6 1044.72,1198.64C1042.96,1333.9 1160.99,1400.5 1165.72,1403.6C1207.99,1431.26 1269.44,1420.82 1285.96,1372.73Z" style="fill:url(#_Linear26);fill-rule:nonzero;"/><g><path d="M1512.5,927.425C1515.58,929.867 1516.72,934.254 1515.25,937.971L1489.38,1003.57C1488.58,1005.59 1487.1,1007.18 1485.23,1008.01L1463.81,1017.53C1459.97,1019.24 1454.81,1019.76 1452.46,1023.47L1336.77,1206.64C1334.27,1210.6 1329.21,1211.46 1325.55,1208.55L1310.3,1196.42C1306.64,1193.52 1305.82,1187.98 1308.46,1184.15L1431.1,1006.51C1433.59,1002.9 1432.42,997.371 1432.7,992.825C1432.7,992.775 1432.7,992.729 1432.71,992.683L1434.58,967.917C1434.75,965.629 1435.75,963.533 1437.37,962.092L1488.65,916.4C1491.42,913.929 1495.44,913.854 1498.41,916.217L1512.5,927.425Z" style="fill:#c8d5e8;"/></g><g><path d="M1369.09,1243.16C1361.96,1253.94 1347.99,1256.19 1337.91,1248.17L1272.91,1196.5C1262.84,1188.49 1260.44,1173.23 1267.58,1162.45C1274.71,1151.67 1288.68,1149.43 1298.76,1157.44L1363.75,1209.12C1373.83,1217.13 1376.22,1232.39 1369.09,1243.16Z" style="fill:#4079bd;"/></g><path d="M1367.45,1241.87C1360.96,1251.69 1348.23,1253.73 1339.05,1246.43L1274.07,1194.77C1264.88,1187.46 1262.71,1173.57 1269.2,1163.75C1275.7,1153.93 1288.43,1151.88 1297.61,1159.18L1362.59,1210.85C1371.77,1218.15 1373.95,1232.05 1367.45,1241.87Z" style="fill:none;stroke:#305b8e;stroke-width:4.34px;"/><path d="M1289.83,1176.41L1350.08,1224.32C1350.97,1225.03 1351.18,1226.37 1350.55,1227.32C1349.92,1228.27 1348.69,1228.47 1347.8,1227.76L1287.55,1179.85C1286.65,1179.14 1286.44,1177.8 1287.07,1176.85C1287.7,1175.9 1288.93,1175.7 1289.83,1176.41Z" style="fill:none;fill-rule:nonzero;stroke:#305b8e;stroke-width:4.15px;"/><g><path d="M1147.4,1422.62C1125.1,1404.47 1120.92,1370.08 1138.24,1347.39L1243.17,1209.9C1253.74,1196.05 1272.61,1193.77 1286.33,1204.67L1323.01,1233.84C1336.71,1244.73 1340.62,1265.07 1331.95,1280.4L1245.58,1433.15C1231.11,1458.74 1199.28,1464.85 1176.6,1446.38L1147.4,1422.62Z" style="fill:#4079bd;fill-rule:nonzero;"/></g><path d="M1148.56,1420.89C1127.2,1403.5 1123.19,1370.55 1139.79,1348.8L1244.72,1211.32C1254.63,1198.33 1272.32,1196.19 1285.18,1206.41L1321.86,1235.57C1334.71,1245.79 1338.37,1264.85 1330.24,1279.23L1243.87,1431.98C1230,1456.5 1199.5,1462.36 1177.76,1444.66L1148.56,1420.89Z" style="fill:none;fill-rule:nonzero;stroke:#305b8e;stroke-width:4.17px;"/><path d="M1266,1222.65C1267.67,1224.14 1267.96,1226.79 1266.64,1228.57L1155.61,1378.88C1154.29,1380.67 1151.87,1380.9 1150.2,1379.42C1148.53,1377.94 1148.23,1375.29 1149.55,1373.5L1260.58,1223.2C1261.9,1221.41 1264.33,1221.17 1266,1222.65Z" style="fill:#305b8e;fill-rule:nonzero;"/><path d="M1283.12,1236.13C1284.83,1237.57 1285.19,1240.2 1283.92,1242.03L1176.8,1395.71C1175.53,1397.53 1173.11,1397.85 1171.4,1396.42C1169.69,1394.98 1169.33,1392.35 1170.6,1390.53L1277.73,1236.84C1278.99,1235.02 1281.41,1234.7 1283.12,1236.13Z" style="fill:#305b8e;fill-rule:nonzero;"/><path d="M1297.81,1247.85C1299.6,1249.17 1300.1,1251.78 1298.92,1253.68L1200.38,1414.11C1199.21,1416.02 1196.82,1416.49 1195.03,1415.17C1193.25,1413.85 1192.75,1411.25 1193.92,1409.34L1292.46,1248.91C1293.63,1247.01 1296.03,1246.53 1297.81,1247.85Z" style="fill:#305b8e;fill-rule:nonzero;"/><path d="M1312.31,1259.87C1314.17,1261.07 1314.81,1263.64 1313.75,1265.62L1224.13,1432.22C1223.07,1434.2 1220.7,1434.83 1218.85,1433.63C1217,1432.43 1216.36,1429.85 1217.42,1427.88L1307.03,1261.28C1308.1,1259.3 1310.46,1258.67 1312.31,1259.87Z" style="fill:#305b8e;fill-rule:nonzero;"/><g><path d="M1224.18,1190.35C1233.94,1182.46 1247.49,1183.78 1257.83,1191.48C1273.04,1202.8 1277.28,1225.05 1267.3,1241.17L1239.31,1286.36C1230.02,1301.37 1211,1304.99 1196.84,1294.45C1185.67,1286.14 1180.39,1271.05 1184.59,1257.48C1194.9,1224.17 1205.8,1205.18 1224.18,1190.35Z" style="fill:#fffdfe;fill-rule:nonzero;"/></g><path d="M1268.55,1242.1C1267.71,1241.48 1266.88,1240.86 1266.04,1240.24C1263.01,1244.48 1260,1248.75 1257.03,1253.03C1249.92,1263.25 1242.98,1273.58 1236.19,1284.03C1232.14,1290.28 1225.82,1294.53 1218.88,1295.76C1212.08,1297.02 1204.82,1295.27 1199.02,1290.93C1189.49,1284.08 1184.57,1270.31 1188.2,1258.9C1195.81,1233.5 1206.36,1208.71 1226.06,1193.03C1234.29,1185.93 1247.16,1186.89 1256.45,1193.7C1266.13,1200.47 1271.91,1213.42 1270.65,1225.88C1270.17,1230.97 1268.59,1235.92 1266.04,1240.24C1266.88,1240.86 1267.71,1241.48 1268.55,1242.1C1271.53,1237.53 1273.52,1232.14 1274.26,1226.48C1276.22,1212.69 1270.25,1197.54 1259.21,1189.25C1248.78,1181.02 1233.2,1178.9 1222.3,1187.67C1200.84,1203.73 1188.95,1230.4 1180.98,1256.06C1176.03,1271.04 1182.38,1289.07 1194.66,1297.97C1202.13,1303.61 1211.64,1305.94 1220.44,1304.3C1229.44,1302.72 1237.63,1296.89 1242.44,1288.68C1248.79,1277.91 1254.99,1267.02 1261.03,1256.01C1263.57,1251.4 1266.07,1246.76 1268.55,1242.1ZM1266.04,1240.24L1268.55,1242.1L1266.04,1240.24Z" style="fill:#305b8e;fill-rule:nonzero;"/><g><path d="M1320.1,1341.67C1324.27,1355.53 1323.1,1370.82 1317.34,1383.87C1310.88,1398.53 1293.54,1402.62 1281.94,1392.21L1239.77,1354.38C1237.92,1352.72 1236.24,1350.86 1234.75,1348.82L1233.01,1346.45C1225.91,1336.74 1224.51,1323.47 1229.41,1312.36C1236.78,1295.64 1255.68,1289.43 1270.45,1298.86C1311.05,1324.77 1316.24,1328.83 1320.1,1341.67Z" style="fill:#fffdfe;fill-rule:nonzero;"/></g><path d="M1318.68,1342.17C1319.63,1341.84 1320.57,1341.51 1321.52,1341.18C1320.42,1335.88 1317.75,1330.36 1314.05,1326.39C1301.26,1313.32 1286.63,1304.7 1272.41,1295.14C1269.64,1293.34 1266.63,1291.98 1263.5,1291.14C1248.77,1286.95 1232.18,1295.42 1225.9,1310.48C1220.4,1322.75 1222.15,1338.41 1230.14,1348.96C1230.72,1349.75 1231.3,1350.53 1231.89,1351.32C1233.55,1353.57 1235.44,1355.62 1237.49,1357.43C1251.65,1369.91 1265.83,1382.35 1280.05,1394.74C1292.44,1406.3 1313.36,1400.83 1319.42,1384.99C1323.06,1376.35 1324.79,1366.78 1324.38,1357.31C1324.15,1351.82 1323.19,1346.35 1321.52,1341.18C1320.57,1341.51 1319.63,1341.84 1318.68,1342.17C1320.05,1347.11 1320.74,1352.25 1320.76,1357.38C1320.8,1366.21 1318.86,1374.98 1315.26,1382.75C1309.81,1395.49 1293.07,1398.89 1283.83,1389.68C1269.93,1376.85 1256,1364.07 1242.04,1351.32C1240.41,1349.83 1238.92,1348.15 1237.61,1346.33C1237.04,1345.53 1236.47,1344.73 1235.89,1343.94C1229.81,1335.64 1228.63,1323.6 1232.91,1314.25C1237.8,1302.78 1250.49,1296.41 1261.67,1299.59C1264.05,1300.23 1266.35,1301.24 1268.49,1302.58C1282.75,1311.8 1298.15,1319.76 1310.82,1330.2C1314.42,1333.37 1316.95,1337.26 1318.68,1342.17ZM1321.52,1341.18L1318.68,1342.17L1321.52,1341.18Z" style="fill:#305b8e;fill-rule:nonzero;"/><g><path d="M1243.02,1447.86C1256.29,1450.11 1269.9,1446.26 1280.7,1437.85C1292.82,1428.41 1293.48,1408.92 1282.06,1398L1241.23,1358.96C1239.42,1357.23 1237.45,1355.71 1235.35,1354.43L1233.18,1353.1C1223.12,1346.97 1210.84,1347.62 1201.63,1354.8C1187.83,1365.55 1185.5,1387.04 1196.54,1401.56C1226.35,1440.76 1230.98,1445.81 1243.02,1447.86Z" style="fill:#fffdfe;fill-rule:nonzero;"/></g><path d="M1243.23,1446.25C1243.09,1447.32 1242.95,1448.4 1242.82,1449.47C1237.87,1449.15 1232.45,1447.11 1228.28,1443.74C1214.53,1432.14 1204.4,1417.92 1193.53,1404.27C1191.3,1401.39 1189.48,1398.13 1188.16,1394.65C1182.17,1379.44 1187.02,1360.49 1199.33,1351.32C1209.48,1343.3 1223.98,1342.63 1234.94,1349.59C1235.66,1350.03 1236.38,1350.48 1237.1,1350.93C1239.42,1352.37 1241.6,1354.08 1243.6,1356.01C1257.1,1369.15 1270.58,1382.33 1284.02,1395.55C1296.62,1407.14 1295.32,1430.72 1282.07,1439.92C1274.86,1445.33 1266.48,1448.8 1257.8,1449.92C1252.83,1450.57 1247.76,1450.43 1242.82,1449.47C1242.95,1448.4 1243.09,1447.32 1243.23,1446.25C1247.89,1446.92 1252.62,1446.82 1257.23,1446C1265.26,1444.59 1272.89,1441.01 1279.32,1435.78C1289.89,1427.75 1290.04,1409.01 1280.1,1400.45C1266.33,1387.65 1252.59,1374.8 1238.88,1361.92C1237.25,1360.39 1235.48,1359.05 1233.6,1357.93C1232.88,1357.49 1232.15,1357.06 1231.42,1356.62C1222.82,1351.36 1211.67,1352.06 1203.94,1358.28C1194.56,1365.39 1190.96,1379.89 1195.51,1391.47C1196.51,1394.12 1197.88,1396.6 1199.55,1398.85C1210.12,1412.61 1219.78,1427.76 1231.17,1439.65C1234.61,1443.05 1238.52,1445.18 1243.23,1446.25ZM1242.82,1449.47L1243.23,1446.25L1242.82,1449.47Z" style="fill:#305b8e;fill-rule:nonzero;"/><defs><linearGradient id="_Linear1" x1="0" y1="0" x2="1" y2="0" gradientUnits="userSpaceOnUse" gradientTransform="matrix(-1593.52,787.45,-787.45,-1593.52,2393.93,513.938)"><stop offset="0" style="stop-color:#90bcfb;stop-opacity:1"/><stop offset="1" style="stop-color:#90bcfb;stop-opacity:0"/></linearGradient><linearGradient id="_Linear2" x1="0" y1="0" x2="1" y2="0" gradientUnits="userSpaceOnUse" gradientTransform="matrix(-1609.52,738.04,-738.04,-1609.52,2837.71,364.468)"><stop offset="0" style="stop-color:#90bcfb;stop-opacity:1"/><stop offset="1" style="stop-color:#90bcfb;stop-opacity:0"/></linearGradient><linearGradient id="_Linear3" x1="0" y1="0" x2="1" y2="0" gradientUnits="userSpaceOnUse" gradientTransform="matrix(-1975.05,905.66,-905.66,-1975.05,3276.17,203.453)"><stop offset="0" style="stop-color:#90bcfb;stop-opacity:1"/><stop offset="1" style="stop-color:#90bcfb;stop-opacity:0"/></linearGradient><linearGradient id="_Linear4" x1="0" y1="0" x2="1" y2="0" gradientUnits="userSpaceOnUse" gradientTransform="matrix(2.65989e-14,-434.393,434.393,2.65989e-14,141.559,729.146)"><stop offset="0" style="stop-color:#f8f9ff;stop-opacity:1"/><stop offset="1" style="stop-color:#edf5ff;stop-opacity:1"/></linearGradient><linearGradient id="_Linear5" x1="0" y1="0" x2="1" y2="0" gradientUnits="userSpaceOnUse" gradientTransform="matrix(2.72189e-14,444.519,-444.519,2.72189e-14,1333.23,111.494)"><stop offset="0" style="stop-color:#f8f9ff;stop-opacity:1"/><stop offset="1" style="stop-color:#edf5ff;stop-opacity:1"/></linearGradient><linearGradient id="_Linear6" x1="0" y1="0" x2="1" y2="0" gradientUnits="userSpaceOnUse" gradientTransform="matrix(2.65991e-14,434.396,-434.396,2.65991e-14,1706.43,1486.35)"><stop offset="0" style="stop-color:#f8f9ff;stop-opacity:1"/><stop offset="1" style="stop-color:#edf5ff;stop-opacity:1"/></linearGradient><linearGradient id="_Linear7" x1="0" y1="0" x2="1" y2="0" gradientUnits="userSpaceOnUse" gradientTransform="matrix(-28.05,-23.0875,23.0875,-28.05,522.204,1269.06)"><stop offset="0" style="stop-color:#fffdfe;stop-opacity:1"/><stop offset="1" style="stop-color:#b9d9f4;stop-opacity:1"/></linearGradient><radialGradient id="_Radial8" cx="0" cy="0" r="1" gradientUnits="userSpaceOnUse" gradientTransform="matrix(-90.1721,-153.758,178.9,-70.5713,842.879,1691.75)"><stop offset="0" style="stop-color:#e3f2fd;stop-opacity:1"/><stop offset="0.05" style="stop-color:#e3f2fd;stop-opacity:1"/><stop offset="0.41" style="stop-color:#bbdefb;stop-opacity:1"/><stop offset="0.79" style="stop-color:#90caf9;stop-opacity:1"/><stop offset="1" style="stop-color:#2196f3;stop-opacity:1"/></radialGradient><linearGradient id="_Linear9" x1="0" y1="0" x2="1" y2="0" gradientUnits="userSpaceOnUse" gradientTransform="matrix(21.3375,261.221,-261.221,21.3375,748.104,1412.63)"><stop offset="0" style="stop-color:#203b64;stop-opacity:1"/><stop offset="1" style="stop-color:#4372b2;stop-opacity:1"/></linearGradient><radialGradient id="_Radial10" cx="0" cy="0" r="1" gradientUnits="userSpaceOnUse" gradientTransform="matrix(218.725,383.149,-433.533,193.941,782.179,1250.54)"><stop offset="0" style="stop-color:#f6fbff;stop-opacity:1"/><stop offset="0.06" style="stop-color:#f6fbff;stop-opacity:1"/><stop offset="0.13" style="stop-color:#fff;stop-opacity:1"/><stop offset="0.2" style="stop-color:#edf6fd;stop-opacity:1"/><stop offset="1" style="stop-color:#95c4ed;stop-opacity:1"/></radialGradient><linearGradient id="_Linear11" x1="0" y1="0" x2="1" y2="0" gradientUnits="userSpaceOnUse" gradientTransform="matrix(1.075,21.8792,-21.8792,1.075,992.071,1270.09)"><stop offset="0" style="stop-color:#203b64;stop-opacity:1"/><stop offset="1" style="stop-color:#4372b2;stop-opacity:1"/></linearGradient><linearGradient id="_Linear12" x1="0" y1="0" x2="1" y2="0" gradientUnits="userSpaceOnUse" gradientTransform="matrix(-5.34167,11.8917,-11.8917,-5.34167,560.021,1213.11)"><stop offset="0" style="stop-color:#203b64;stop-opacity:1"/><stop offset="1" style="stop-color:#4372b2;stop-opacity:1"/></linearGradient><linearGradient id="_Linear13" x1="0" y1="0" x2="1" y2="0" gradientUnits="userSpaceOnUse" gradientTransform="matrix(-13.125,34.4667,-34.4667,-13.125,950.738,1511.33)"><stop offset="0" style="stop-color:#203b64;stop-opacity:1"/><stop offset="1" style="stop-color:#4372b2;stop-opacity:1"/></linearGradient><linearGradient id="_Linear14" x1="0" y1="0" x2="1" y2="0" gradientUnits="userSpaceOnUse" gradientTransform="matrix(0.604167,19.0958,-19.0958,0.604167,550.133,1461.63)"><stop offset="0" style="stop-color:#203b64;stop-opacity:1"/><stop offset="1" style="stop-color:#4372b2;stop-opacity:1"/></linearGradient><radialGradient id="_Radial15" cx="0" cy="0" r="1" gradientUnits="userSpaceOnUse" gradientTransform="matrix(486.021,311.524,-303.734,537.271,682.596,1252.9)"><stop offset="0" style="stop-color:#fff;stop-opacity:1"/><stop offset="1" style="stop-color:#d0dff0;stop-opacity:1"/></radialGradient><radialGradient id="_Radial16" cx="0" cy="0" r="1" gradientUnits="userSpaceOnUse" gradientTransform="matrix(-392.095,-386.632,369.973,-437.921,868.325,1434.1)"><stop offset="0" style="stop-color:#2196f3;stop-opacity:1"/><stop offset="0.16" style="stop-color:#2196f3;stop-opacity:1"/><stop offset="0.55" style="stop-color:#90caf9;stop-opacity:1"/><stop offset="0.59" style="stop-color:#bbdefb;stop-opacity:1"/><stop offset="0.95" style="stop-color:#e3f2fd;stop-opacity:1"/><stop offset="1" style="stop-color:#e3f2fd;stop-opacity:1"/></radialGradient><linearGradient id="_Linear17" x1="0" y1="0" x2="1" y2="0" gradientUnits="userSpaceOnUse" gradientTransform="matrix(234.804,243.417,-243.417,234.804,698.117,1246.45)"><stop offset="0" style="stop-color:#fff;stop-opacity:1"/><stop offset="0.07" style="stop-color:#fff;stop-opacity:1"/><stop offset="1" style="stop-color:#69e7fc;stop-opacity:1"/></linearGradient><radialGradient id="_Radial18" cx="0" cy="0" r="1" gradientUnits="userSpaceOnUse" gradientTransform="matrix(-49.9088,-36.2205,88.4721,-14.2387,880.746,547.296)"><stop offset="0" style="stop-color:#f6fbff;stop-opacity:1"/><stop offset="0.06" style="stop-color:#f6fbff;stop-opacity:1"/><stop offset="0.13" style="stop-color:#fff;stop-opacity:1"/><stop offset="0.2" style="stop-color:#edf6fd;stop-opacity:1"/><stop offset="1" style="stop-color:#95c4ed;stop-opacity:1"/></radialGradient><radialGradient id="_Radial19" cx="0" cy="0" r="1" gradientUnits="userSpaceOnUse" gradientTransform="matrix(-30.7434,126.817,50.7188,67.344,517.558,778.171)"><stop offset="0" style="stop-color:#f6fbff;stop-opacity:1"/><stop offset="0.06" style="stop-color:#f6fbff;stop-opacity:1"/><stop offset="0.13" style="stop-color:#fff;stop-opacity:1"/><stop offset="0.2" style="stop-color:#edf6fd;stop-opacity:1"/><stop offset="1" style="stop-color:#95c4ed;stop-opacity:1"/></radialGradient><linearGradient id="_Linear20" x1="0" y1="0" x2="1" y2="-0.00902707" gradientUnits="userSpaceOnUse" gradientTransform="matrix(27.1204,251.722,-242.034,28.206,807.361,652.27)"><stop offset="0" style="stop-color:#203b64;stop-opacity:1"/><stop offset="1" style="stop-color:#4372b2;stop-opacity:1"/></linearGradient><radialGradient id="_Radial21" cx="0" cy="0" r="1" gradientUnits="userSpaceOnUse" gradientTransform="matrix(-41.8121,-64.0879,64.0879,-41.8121,770.275,815.095)"><stop offset="0" style="stop-color:#e3f2fd;stop-opacity:1"/><stop offset="0.05" style="stop-color:#e3f2fd;stop-opacity:1"/><stop offset="0.41" style="stop-color:#bbdefb;stop-opacity:1"/><stop offset="0.79" style="stop-color:#90caf9;stop-opacity:1"/><stop offset="1" style="stop-color:#2196f3;stop-opacity:1"/></radialGradient><radialGradient id="_Radial22" cx="0" cy="0" r="1" gradientUnits="userSpaceOnUse" gradientTransform="matrix(-41.8121,-64.0879,64.0879,-41.8121,987.355,825.062)"><stop offset="0" style="stop-color:#e3f2fd;stop-opacity:1"/><stop offset="0.05" style="stop-color:#e3f2fd;stop-opacity:1"/><stop offset="0.41" style="stop-color:#bbdefb;stop-opacity:1"/><stop offset="0.79" style="stop-color:#90caf9;stop-opacity:1"/><stop offset="1" style="stop-color:#2196f3;stop-opacity:1"/></radialGradient><radialGradient id="_Radial23" cx="0" cy="0" r="1" gradientUnits="userSpaceOnUse" gradientTransform="matrix(33.7576,127.524,-78.7056,68.2324,1217.29,810.051)"><stop offset="0" style="stop-color:#f6fbff;stop-opacity:1"/><stop offset="0.06" style="stop-color:#f6fbff;stop-opacity:1"/><stop offset="0.13" style="stop-color:#fff;stop-opacity:1"/><stop offset="0.2" style="stop-color:#edf6fd;stop-opacity:1"/><stop offset="1" style="stop-color:#95c4ed;stop-opacity:1"/></radialGradient><linearGradient id="_Linear24" x1="0" y1="0" x2="1" y2="0" gradientUnits="userSpaceOnUse" gradientTransform="matrix(54.4792,98.0958,-98.0958,54.4792,1255.85,771.192)"><stop offset="0" style="stop-color:#203b64;stop-opacity:1"/><stop offset="1" style="stop-color:#4372b2;stop-opacity:1"/></linearGradient><linearGradient id="_Linear25" x1="0" y1="0" x2="1" y2="0" gradientUnits="userSpaceOnUse" gradientTransform="matrix(77.4042,233.946,-233.946,77.4042,1069.15,1247.22)"><stop offset="0" style="stop-color:#305b8e;stop-opacity:1"/><stop offset="1" style="stop-color:#305b8e;stop-opacity:0.2"/></linearGradient><linearGradient id="_Linear26" x1="0" y1="0" x2="1" y2="0" gradientUnits="userSpaceOnUse" gradientTransform="matrix(-56.25,54.1667,-54.1667,-56.25,1150.79,1320.83)"><stop offset="0" style="stop-color:#fffdfe;stop-opacity:1"/><stop offset="1" style="stop-color:#b9d9f4;stop-opacity:1"/></linearGradient></defs></svg>