<svg width="48" height="48" viewBox="0 0 48 48" fill="none" xmlns="http://www.w3.org/2000/svg">
<mask id="mask0_805_32016" style="mask-type:alpha" maskUnits="userSpaceOnUse" x="0" y="15" width="25" height="25">
<g clip-path="url(#clip0_805_32016)">
<path d="M12.5002 17.0835C8.46891 17.0835 5.2085 20.3439 5.2085 24.3752C5.2085 28.7189 9.81266 34.7085 11.7085 36.9897C12.1252 37.4897 12.8856 37.4897 13.3022 36.9897C15.1877 34.7085 19.7918 28.7189 19.7918 24.3752C19.7918 20.3439 16.5314 17.0835 12.5002 17.0835ZM12.5002 26.9793C11.0627 26.9793 9.896 25.8127 9.896 24.3752C9.896 22.9377 11.0627 21.771 12.5002 21.771C13.9377 21.771 15.1043 22.9377 15.1043 24.3752C15.1043 25.8127 13.9377 26.9793 12.5002 26.9793Z" fill="black"/>
</g>
</mask>
<g mask="url(#mask0_805_32016)">
<rect y="15" width="25" height="25" fill="#086DD7"/>
</g>
<path d="M16 37H33.6234C33.6234 37 39 36.6251 39 32.1271C39 27.629 33.6234 27.629 33.6234 27.629H26.7532C26.7532 27.629 22.5714 27.629 22.5714 23.1309C22.5714 18.6328 26.7532 19.0077 26.7532 19.0077H33.6234" stroke="#8BC7F5" stroke-width="2" stroke-linecap="round" stroke-linejoin="round" stroke-dasharray="3 3"/>
<mask id="mask1_805_32016" style="mask-type:alpha" maskUnits="userSpaceOnUse" x="30" y="7" width="14" height="14">
<g clip-path="url(#clip1_805_32016)">
<path d="M36.9998 8.1665C34.7423 8.1665 32.9165 9.99234 32.9165 12.2498C32.9165 14.6823 35.4948 18.0365 36.5565 19.314C36.7898 19.594 37.2157 19.594 37.449 19.314C38.5048 18.0365 41.0832 14.6823 41.0832 12.2498C41.0832 9.99234 39.2573 8.1665 36.9998 8.1665ZM36.9998 13.7082C36.1948 13.7082 35.5415 13.0548 35.5415 12.2498C35.5415 11.4448 36.1948 10.7915 36.9998 10.7915C37.8048 10.7915 38.4582 11.4448 38.4582 12.2498C38.4582 13.0548 37.8048 13.7082 36.9998 13.7082Z" fill="black"/>
</g>
</mask>
<g mask="url(#mask1_805_32016)">
<rect x="30" y="7" width="14" height="14" fill="#086DD7"/>
</g>
<defs>
<clipPath id="clip0_805_32016">
<rect width="25" height="25" fill="white" transform="translate(0 15)"/>
</clipPath>
<clipPath id="clip1_805_32016">
<rect width="14" height="14" fill="white" transform="translate(30 7)"/>
</clipPath>
</defs>
</svg>
