<svg width="125" height="169" viewBox="0 0 125 169" fill="none" xmlns="http://www.w3.org/2000/svg">
<mask id="mask0" mask-type="alpha" maskUnits="userSpaceOnUse" x="7" y="0" width="114" height="70">
<path fill-rule="evenodd" clip-rule="evenodd" d="M7.7168 0H120.62V69.4091H7.7168V0Z" fill="white"/>
</mask>
<g mask="url(#mask0)">
<path fill-rule="evenodd" clip-rule="evenodd" d="M119.606 63.3411L10.162 0.153688C9.8542 -0.0242065 9.58202 -0.0411065 9.39612 0.0682989L9.39257 0.0638515L7.7168 1.02271C7.90003 0.948879 8.14997 0.9809 8.4266 1.14101L117.87 64.3284C118.43 64.6513 118.883 65.3664 118.883 65.9268V69.4091L120.62 68.2697V64.9395C120.62 64.38 120.165 63.664 119.606 63.3411Z" fill="#8F9DAA"/>
</g>
<path fill-rule="evenodd" clip-rule="evenodd" d="M7.60913 1.08562L7.62336 1.10341C7.65005 1.08206 7.66784 1.04826 7.70075 1.03314L7.60913 1.08562Z" fill="#BCC4CC"/>
<path fill-rule="evenodd" clip-rule="evenodd" d="M9.15356 6.0531L118.889 69.4086L9.15356 6.0531Z" fill="#6B7C85"/>
<path fill-rule="evenodd" clip-rule="evenodd" d="M118.882 140.851V69.4086L9.1465 6.05312L7.41113 5.05157V76.4933C7.41113 77.0528 7.86476 77.7688 8.42424 78.0917L117.868 141.279C118.181 141.46 118.45 141.465 118.635 141.35C118.782 141.26 118.882 141.099 118.882 140.851Z" fill="#E9EBEE"/>
<path fill-rule="evenodd" clip-rule="evenodd" d="M38.434 44.2296L19.0906 32.9309V30.6108L38.434 41.9095V44.2296Z" fill="#A5B1BA"/>
<path fill-rule="evenodd" clip-rule="evenodd" d="M38.434 74.1029L19.0906 62.8043V60.4842L38.434 71.7829V74.1029Z" fill="#A5B1BA"/>
<path fill-rule="evenodd" clip-rule="evenodd" d="M35.8157 52.1495L16.0105 40.5844V38.2634L35.8157 49.8295V52.1495Z" fill="#A5B1BA"/>
<path fill-rule="evenodd" clip-rule="evenodd" d="M35.8157 47.6861L16.0105 36.1209V33.8L35.8157 45.366V47.6861Z" fill="#A5B1BA"/>
<path fill-rule="evenodd" clip-rule="evenodd" d="M35.0375 77.2198L16.0105 66.1084V63.7883L35.0375 74.8997V77.2198Z" fill="#A5B1BA"/>
<path fill-rule="evenodd" clip-rule="evenodd" d="M35.8157 61.0282L16.0105 49.4622V47.1421L35.8157 58.7073V61.0282Z" fill="#A5B1BA"/>
<path fill-rule="evenodd" clip-rule="evenodd" d="M35.8157 65.6692L16.0105 54.1031V51.7822L35.8157 63.3482V65.6692Z" fill="#A5B1BA"/>
<path fill-rule="evenodd" clip-rule="evenodd" d="M35.8157 82.3764L16.0105 70.8104V68.4894L35.8157 80.0555V82.3764Z" fill="#A5B1BA"/>
<path fill-rule="evenodd" clip-rule="evenodd" d="M18.1642 31.2398C18.1642 31.8413 17.6825 32.0471 17.0878 31.6997C16.4931 31.3532 16.0105 30.5837 16.0105 29.9821C16.0105 29.3805 16.4931 29.1739 17.0878 29.5213C17.6825 29.8687 18.1642 30.6382 18.1642 31.2398Z" fill="#A5B1BA"/>
<path fill-rule="evenodd" clip-rule="evenodd" d="M18.1642 61.366C18.1642 61.9675 17.6825 62.1733 17.0878 61.8259C16.4931 61.4786 16.0105 60.7099 16.0105 60.1083C16.0105 59.5068 16.4931 59.3001 17.0878 59.6475C17.6825 59.9949 18.1642 60.7644 18.1642 61.366Z" fill="#A5B1BA"/>
<path fill-rule="evenodd" clip-rule="evenodd" d="M118.887 69.4089V140.851C118.887 141.099 118.787 141.26 118.64 141.35L118.651 141.364L120.353 140.396L120.351 140.393C120.518 140.309 120.622 140.129 120.622 139.864V68.2695L118.887 69.4089Z" fill="#8F9DAA"/>
<path fill-rule="evenodd" clip-rule="evenodd" d="M117.869 64.3278L8.42513 1.14042C8.14851 0.980312 7.89856 0.94918 7.71622 1.02301C7.70911 1.02568 7.70377 1.03012 7.69843 1.03279C7.66641 1.04791 7.64773 1.08171 7.62105 1.10306C7.4983 1.20001 7.41113 1.345 7.41113 1.56825V5.05055L118.883 69.4085V65.9262C118.883 65.3658 118.428 64.6507 117.869 64.3278Z" fill="#E9EBEE"/>
<path d="M8.42598 5.87703L117.87 69.0644L118.884 69.6549V80.3714L7.41198 16.0135V6.30487C7.41198 6.08161 7.41113 5.47672 7.41113 5.47672V5.33685L8.42598 5.87703Z" fill="#37AAF7"/>
<path fill-rule="evenodd" clip-rule="evenodd" d="M111.184 70.9354C111.184 71.9989 110.388 72.3632 109.405 71.7488C108.422 71.1358 107.626 69.7754 107.626 68.7119C107.626 67.6484 108.422 67.2841 109.405 67.8985C110.388 68.5129 111.184 69.8719 111.184 70.9354Z" fill="#2496ED"/>
<path fill-rule="evenodd" clip-rule="evenodd" d="M11.8929 5.38647C11.8929 5.91304 11.4659 6.0936 10.9394 5.7894C10.4128 5.4852 9.98584 4.81187 9.98584 4.28619C9.98584 3.75873 10.4128 3.57906 10.9394 3.88326C11.4659 4.18657 11.8929 4.8599 11.8929 5.38647Z" fill="#8F9DAA"/>
<path fill-rule="evenodd" clip-rule="evenodd" d="M15.1275 7.25542C15.1275 7.78199 14.7005 7.96166 14.174 7.65835C13.6474 7.35415 13.2205 6.68082 13.2205 6.15425C13.2205 5.62768 13.6474 5.44801 14.174 5.75132C14.7005 6.05552 15.1275 6.72885 15.1275 7.25542Z" fill="#8F9DAA"/>
<path fill-rule="evenodd" clip-rule="evenodd" d="M18.3606 9.1231C18.3606 9.64967 17.9337 9.83023 17.4071 9.52603C16.8806 9.22183 16.4536 8.5485 16.4536 8.02282C16.4536 7.49536 16.8806 7.31569 17.4071 7.61989C17.9337 7.9232 18.3606 8.59653 18.3606 9.1231Z" fill="#8F9DAA"/>
<path fill-rule="evenodd" clip-rule="evenodd" d="M107.999 102.965L109.701 101.997V82.3682L47.0655 46.2526L45.363 47.2204V66.848L107.999 102.965Z" fill="#B9C2C9"/>
<path fill-rule="evenodd" clip-rule="evenodd" d="M107.998 83.3372V102.965L45.363 66.849V47.2205L107.998 83.3372Z" fill="#F7F7F8"/>
<path fill-rule="evenodd" clip-rule="evenodd" d="M57.371 63.0085C57.371 65.3481 55.5795 66.1495 53.3684 64.7978C51.1572 63.4494 49.3657 60.4564 49.3657 58.1167C49.3657 55.777 51.1572 54.9757 53.3684 56.3273C55.5795 57.679 57.371 60.6688 57.371 63.0085Z" fill="#70D8BD"/>
<path fill-rule="evenodd" clip-rule="evenodd" d="M96.1201 83.2113L60.929 62.8939V61.0073L96.1201 81.3247V83.2113Z" fill="#90A0AC"/>
<path fill-rule="evenodd" clip-rule="evenodd" d="M91.51 84.1079L60.929 66.4518V64.5652L91.51 82.2213V84.1079Z" fill="#90A0AC"/>
<path fill-rule="evenodd" clip-rule="evenodd" d="M76.9395 79.3492L60.929 70.0098V68.1232L76.9395 77.4626V79.3492Z" fill="#90A0AC"/>
<path fill-rule="evenodd" clip-rule="evenodd" d="M107.999 126.091L109.701 125.123V105.494L47.0655 69.3789L45.363 70.3467V89.9743L107.999 126.091Z" fill="#B9C2C9"/>
<path fill-rule="evenodd" clip-rule="evenodd" d="M107.998 106.463V126.091L45.363 89.9753V70.3468L107.998 106.463Z" fill="#F7F7F8"/>
<path fill-rule="evenodd" clip-rule="evenodd" d="M57.371 86.1348C57.371 88.4745 55.5795 89.2758 53.3684 87.9241C51.1572 86.5757 49.3657 83.5827 49.3657 81.243C49.3657 78.9033 51.1572 78.102 53.3684 79.4536C55.5795 80.8053 57.371 83.7951 57.371 86.1348Z" fill="#70D8BD"/>
<path fill-rule="evenodd" clip-rule="evenodd" d="M96.1201 106.338L60.929 86.0202V84.1336L96.1201 104.451V106.338Z" fill="#90A0AC"/>
<path fill-rule="evenodd" clip-rule="evenodd" d="M91.51 107.234L60.929 89.5781V87.6915L91.51 105.348V107.234Z" fill="#90A0AC"/>
<path fill-rule="evenodd" clip-rule="evenodd" d="M76.9395 102.475L60.929 93.136V91.2495L76.9395 100.589V102.475Z" fill="#90A0AC"/>
<path fill-rule="evenodd" clip-rule="evenodd" d="M107.999 149.217L109.701 148.249V128.621L47.0655 92.5052L45.363 93.473V113.101L107.999 149.217Z" fill="#B9C2C9"/>
<path fill-rule="evenodd" clip-rule="evenodd" d="M107.998 129.59V149.217L45.363 113.102V93.4731L107.998 129.59Z" fill="#F7F7F8"/>
<path fill-rule="evenodd" clip-rule="evenodd" d="M57.371 109.261C57.371 111.601 55.5795 112.402 53.3684 111.05C51.1572 109.702 49.3657 106.709 49.3657 104.369C49.3657 102.03 51.1572 101.228 53.3684 102.58C55.5795 103.932 57.371 106.921 57.371 109.261Z" fill="#70D8BD"/>
<path fill-rule="evenodd" clip-rule="evenodd" d="M96.1201 129.464L60.929 109.146V107.26L96.1201 127.577V129.464Z" fill="#90A0AC"/>
<path fill-rule="evenodd" clip-rule="evenodd" d="M91.51 130.36L60.929 112.704V110.818L91.51 128.474V130.36Z" fill="#90A0AC"/>
<path fill-rule="evenodd" clip-rule="evenodd" d="M76.9395 125.602L60.929 116.262V114.376L76.9395 123.715V125.602Z" fill="#90A0AC"/>
<path fill-rule="evenodd" clip-rule="evenodd" d="M42.5939 34.6894L16.0105 19.1444V13.3421L42.5939 28.8871V34.6894Z" fill="#2496ED"/>
<path opacity="0.5" fill-rule="evenodd" clip-rule="evenodd" d="M116.07 168.332L1.15702 101.914C-0.556999 100.924 -0.341746 99.1956 1.63733 98.0526C3.61642 96.9105 6.6095 96.786 8.32351 97.776L123.237 164.194C124.951 165.183 124.736 166.912 122.757 168.054C120.778 169.197 117.784 169.322 116.07 168.332Z" fill="#E9EBEE"/>
<path fill-rule="evenodd" clip-rule="evenodd" d="M104.958 66.198V68.5181L95.1736 62.8043V60.4842L104.958 66.198Z" fill="#2496ED"/>
<path fill-rule="evenodd" clip-rule="evenodd" d="M93.3947 59.0821V61.4022L83.6106 55.6885V53.3684L93.3947 59.0821Z" fill="#2496ED"/>
<path fill-rule="evenodd" clip-rule="evenodd" d="M81.8315 51.9664V54.2865L72.0474 48.5727V46.2526L81.8315 51.9664Z" fill="#2496ED"/>
</svg>
