<svg fill="#677285" xmlns="http://www.w3.org/2000/svg" height="48" viewBox="0 96 960 960" width="48"><path d="M123 1016V846q-34-13-58.5-42.5T40 739V341h83V166q0-14 8-22t22-8q14 0 22 8t8 22v175h83v398q0 35-24 64.5T183 846v170h-60Zm327 0V846q-34-13-58.5-42.5T367 739V341h83V166q0-14 8-22t22-8q14 0 22 8t8 22v175h83v398q0 35-24 64.5T510 846v170h-60Zm327 0V846q-34-13-58.5-42.5T694 739V341h83V166q0-14 8-22t22-8q14 0 22 8t8 22v175h83v398q0 35-24.5 64.5T837 846v170h-60ZM100 401v184h106V401H100Zm327 0v184h106V401H427Zm327 0v184h106V401H754ZM153 789q22 0 37.5-15.5T206 736v-91H100v91q0 22 15.5 37.5T153 789Zm327 0q22 0 37.5-15.5T533 736v-91H427v91q0 22 15.5 37.5T480 789Zm327 0q22 0 37.5-15.5T860 736v-91H754v91q0 22 15.5 37.5T807 789ZM153 615Zm327 0Zm327 0Zm-707-30h106-106Zm327 0h106-106Zm327 0h106-106Zm-601 60h-53 106-53Zm327 0h-53 106-53Zm327 0h-53 106-53Z"/></svg>
