<svg width="48" height="48" viewBox="0 0 48 48" fill="none" xmlns="http://www.w3.org/2000/svg">
<g clip-path="url(#clip0_805_32054)">
<path d="M31.6667 9H14.4444C12.5421 9 11 10.5936 11 12.5593V35.6949C11 37.6607 12.5421 39.2542 14.4444 39.2542H31.6667C33.569 39.2542 35.1111 37.6607 35.1111 35.6949V12.5593C35.1111 10.5936 33.569 9 31.6667 9Z" fill="#55A4F1"/>
<path d="M14.4443 13.7456H31.6666V14.932H14.4443V13.7456Z" fill="white"/>
<path d="M14.4443 16.7119H31.6666V17.8984H14.4443V16.7119Z" fill="white"/>
<path d="M14.4443 19.6777H31.6666V20.8642H14.4443V19.6777Z" fill="white"/>
<path d="M14.4443 22.644H31.6666V23.8305H14.4443V22.644Z" fill="white"/>
<path d="M14.4443 25.6099H28.2221V26.7963H14.4443V25.6099Z" fill="white"/>
<path d="M14.4443 28.5762H27.074V29.7626H14.4443V28.5762Z" fill="white"/>
<path d="M35.3982 23.8306C31.7524 23.8306 28.7964 26.8409 28.7964 30.5537C28.7964 35.5961 35.3982 44.0001 35.3982 44.0001C35.3982 44.0001 42.0001 35.5961 42.0001 30.5537C42.0001 26.8409 39.0441 23.8306 35.3982 23.8306ZM35.3982 33.9153C33.5761 33.9153 32.0973 32.4093 32.0973 30.5537C32.0973 28.6981 33.5761 27.1922 35.3982 27.1922C37.2203 27.1922 38.6992 28.6981 38.6992 30.5537C38.6992 32.4093 37.2203 33.9153 35.3982 33.9153Z" fill="#1760CA"/>
<path d="M35.685 35.1015C37.9044 35.1015 39.7035 33.2423 39.7035 30.9489C39.7035 28.6555 37.9044 26.7964 35.685 26.7964C33.4657 26.7964 31.6665 28.6555 31.6665 30.9489C31.6665 33.2423 33.4657 35.1015 35.685 35.1015Z" fill="#1760CA"/>
<path d="M33.6347 29.1718L34.0549 30.0474L32.2156 30.9514L34.0549 31.8057L33.6347 32.7311L31.1685 31.4853V30.4175L33.6347 29.1718ZM35.7453 27.4775L36.8613 27.748L35.4698 34.1477L34.3538 33.8772L35.7453 27.4775ZM37.5694 29.1718L40.0356 30.4175V31.4853L37.5694 32.7311L37.1492 31.8057L38.9885 30.9514L37.1492 30.0474L37.5694 29.1718Z" fill="white"/>
</g>
<defs>
<clipPath id="clip0_805_32054">
<rect width="31" height="35" fill="white" transform="translate(11 9)"/>
</clipPath>
</defs>
</svg>
