<svg width="136" height="169" viewBox="0 0 136 169" fill="none" xmlns="http://www.w3.org/2000/svg">
<path opacity="0.5" fill-rule="evenodd" clip-rule="evenodd" d="M69.7262 168.263L1.2759 128.743C-0.614231 127.652 -0.376741 125.745 1.80514 124.485L56.3432 92.9977C58.5251 91.7382 61.8268 91.6012 63.717 92.6926L132.168 132.213C134.058 133.303 133.822 135.21 131.638 136.47L77.1009 167.957C74.9181 169.218 71.6164 169.355 69.7262 168.263Z" fill="#E9EBEE"/>
<path fill-rule="evenodd" clip-rule="evenodd" d="M133.445 114.369L132.597 114.324C132.468 114.222 132.327 114.125 132.168 114.033L63.7171 74.5129C61.8269 73.4215 58.5252 73.5585 56.3433 74.8188L1.80523 106.306C1.34093 106.574 0.966457 106.871 0.680046 107.183L0.000488281 107.147V108.674H0.00226723C-0.0155222 109.382 0.40342 110.06 1.27599 110.564L69.7263 150.084C71.6165 151.175 74.9182 151.039 77.101 149.778L131.639 118.291C132.827 117.606 133.436 116.729 133.443 115.897H133.445V114.369Z" fill="#8F9DAA"/>
<path fill-rule="evenodd" clip-rule="evenodd" d="M69.7262 148.503L1.2759 108.983C-0.614231 107.892 -0.376741 105.986 1.80514 104.725L56.3432 73.2378C58.5251 71.9783 61.8268 71.8414 63.717 72.9327L132.168 112.453C134.058 113.543 133.822 115.45 131.638 116.71L77.1009 148.197C74.9181 149.458 71.6164 149.595 69.7262 148.503Z" fill="#E9EBEE"/>
<path fill-rule="evenodd" clip-rule="evenodd" d="M51.0948 135.388L23.5549 119.488L46.2481 106.386L73.788 122.286L51.0948 135.388Z" fill="#90A0AC"/>
<path fill-rule="evenodd" clip-rule="evenodd" d="M53.64 99.8273L58.2635 97.158C58.4254 97.0646 58.5259 96.9454 58.5259 96.8467C58.5259 96.7524 58.428 96.6821 58.3693 96.6483L53.5155 93.8456C53.3749 93.7646 53.1801 93.7246 52.9764 93.7246C52.7203 93.7246 52.4463 93.7869 52.2391 93.907L47.6147 96.5763C47.4528 96.6697 47.3523 96.7888 47.3523 96.8876C47.3523 96.9819 47.4501 97.0521 47.508 97.0859L52.3618 99.8878C52.6802 100.072 53.2646 100.043 53.64 99.8273Z" fill="#022144"/>
<path fill-rule="evenodd" clip-rule="evenodd" d="M66.0858 107.012L70.7093 104.343C70.8712 104.25 70.9717 104.131 70.9717 104.032C70.9717 103.938 70.8738 103.867 70.8151 103.833L65.9613 101.031C65.6446 100.848 65.0593 100.876 64.684 101.092L60.0605 103.762C59.8986 103.856 59.7981 103.974 59.7981 104.073C59.7981 104.167 59.8959 104.237 59.9538 104.271L61.9275 105.411L64.8085 107.074C65.1269 107.257 65.7113 107.229 66.0858 107.012Z" fill="#022144"/>
<path fill-rule="evenodd" clip-rule="evenodd" d="M59.8629 103.42L64.4864 100.751C64.6483 100.657 64.7488 100.538 64.7488 100.439C64.7488 100.345 64.6509 100.275 64.5922 100.241L59.7384 97.4381C59.4217 97.2549 58.8364 97.2833 58.462 97.4995L53.8376 100.17C53.6757 100.263 53.5752 100.381 53.5752 100.48C53.5752 100.574 53.673 100.645 53.7309 100.678L58.5847 103.48C58.9031 103.664 59.4875 103.636 59.8629 103.42Z" fill="#022144"/>
<path fill-rule="evenodd" clip-rule="evenodd" d="M53.5396 86.1299C53.5396 86.2242 53.6374 86.2953 53.6961 86.3291L58.55 89.131C58.8666 89.3142 59.4519 89.2857 59.8264 89.0696L64.4507 86.4003C64.6126 86.3069 64.7131 86.1877 64.7131 86.0899C64.7131 85.9956 64.6153 85.9253 64.5566 85.8906L59.7027 83.0888C59.5622 83.0069 59.3683 82.9669 59.1628 82.9669C58.9066 82.9669 58.6345 83.0292 58.4254 83.1493L53.8019 85.8195C53.6401 85.9129 53.5396 86.032 53.5396 86.1299Z" fill="#022144"/>
<path fill-rule="evenodd" clip-rule="evenodd" d="M47.4171 96.2341L52.0406 93.5648C52.2025 93.4714 52.303 93.3522 52.303 93.2535C52.303 93.1592 52.2051 93.0889 52.1464 93.0551L47.2926 90.2533C46.9759 90.0692 46.3906 90.0985 46.0162 90.3147L41.3918 92.984C41.2299 93.0774 41.1294 93.1957 41.1294 93.2944C41.1294 93.3887 41.2272 93.459 41.2859 93.4928L46.1389 96.2955C46.4573 96.4787 47.0426 96.4511 47.4171 96.2341Z" fill="#022144"/>
<path fill-rule="evenodd" clip-rule="evenodd" d="M65.3857 86.5603C65.1295 86.5603 64.8565 86.6217 64.6483 86.7426L60.0248 89.412C59.8621 89.5054 59.7625 89.6245 59.7625 89.7224C59.7625 89.8167 59.8603 89.8878 59.919 89.9216L64.7729 92.7235C65.0895 92.9067 65.6748 92.8791 66.0493 92.6621L70.6727 89.9928C70.8355 89.8994 70.9351 89.7802 70.9351 89.6824C70.9351 89.5881 70.8382 89.5178 70.7786 89.484L65.9256 86.6813C65.7842 86.5994 65.5903 86.5603 65.3857 86.5603Z" fill="#022144"/>
<path fill-rule="evenodd" clip-rule="evenodd" d="M47.335 89.712C47.335 89.8063 47.4319 89.8775 47.4915 89.9113L52.3454 92.7131C52.662 92.8964 53.2473 92.8679 53.6218 92.6518L58.2461 89.9824C58.408 89.889 58.5085 89.7699 58.5085 89.672C58.5085 89.5777 58.4098 89.5075 58.352 89.4728L53.4981 86.6709C53.3576 86.5891 53.1628 86.5491 52.9582 86.5491C52.702 86.5491 52.4299 86.6113 52.2208 86.7314L47.5965 89.4016C47.4346 89.495 47.335 89.6142 47.335 89.712Z" fill="#022144"/>
<path fill-rule="evenodd" clip-rule="evenodd" d="M102.086 121.996C102.086 121.902 101.988 121.83 101.93 121.797L97.0759 118.995C96.9345 118.914 96.7406 118.874 96.536 118.874C96.2807 118.874 96.0068 118.936 95.7986 119.056L91.1743 121.725C91.0133 121.819 90.9119 121.938 90.9119 122.036C90.9119 122.13 91.0106 122.2 91.0684 122.235L95.9223 125.037C96.2407 125.22 96.8251 125.193 97.1996 124.976L101.824 122.306C101.986 122.213 102.086 122.094 102.086 121.996Z" fill="#022144"/>
<path fill-rule="evenodd" clip-rule="evenodd" d="M72.3084 110.605L76.9319 107.936C77.0938 107.843 77.1943 107.723 77.1943 107.625C77.1943 107.53 77.0965 107.46 77.0378 107.426L72.1839 104.624C71.8673 104.44 71.282 104.469 70.9066 104.685L66.2831 107.355C66.1213 107.448 66.0208 107.567 66.0208 107.666C66.0208 107.759 66.1159 107.828 66.1746 107.863L71.0312 110.667C71.3487 110.85 71.934 110.821 72.3084 110.605Z" fill="#022144"/>
<path fill-rule="evenodd" clip-rule="evenodd" d="M90.9771 121.384L95.6006 118.714C95.7625 118.621 95.863 118.502 95.863 118.403C95.863 118.309 95.7652 118.238 95.7065 118.205L90.8526 115.402C90.7112 115.321 90.5173 115.281 90.3127 115.281C90.0574 115.281 89.7835 115.343 89.5753 115.463L84.9518 118.133C84.79 118.227 84.6895 118.345 84.6895 118.444C84.6895 118.538 84.7873 118.608 84.8451 118.642L89.699 121.444C90.0165 121.627 90.6018 121.6 90.9771 121.384Z" fill="#022144"/>
<path fill-rule="evenodd" clip-rule="evenodd" d="M108.291 118.414C108.291 118.319 108.193 118.248 108.134 118.214L103.281 115.413C103.139 115.332 102.945 115.292 102.741 115.292C102.485 115.292 102.211 115.354 102.003 115.474L97.3788 118.143C97.2179 118.237 97.1165 118.356 97.1165 118.454C97.1165 118.548 97.2152 118.618 97.273 118.653L102.127 121.455C102.444 121.638 103.03 121.61 103.404 121.394L108.029 118.724C108.19 118.631 108.291 118.512 108.291 118.414Z" fill="#022144"/>
<path fill-rule="evenodd" clip-rule="evenodd" d="M78.5305 114.198L83.1548 111.528C83.3167 111.435 83.4172 111.316 83.4172 111.217C83.4172 111.124 83.3194 111.053 83.2607 111.019L78.4068 108.217C78.2654 108.135 78.0715 108.096 77.8678 108.096C77.6116 108.096 77.3377 108.157 77.1295 108.278L72.506 110.948C72.3442 111.041 72.2437 111.16 72.2437 111.258C72.2437 111.351 72.3397 111.422 72.3984 111.455L77.2541 114.259C77.5725 114.442 78.1569 114.415 78.5305 114.198Z" fill="#022144"/>
<path fill-rule="evenodd" clip-rule="evenodd" d="M84.7542 117.79L89.3777 115.121C89.5396 115.028 89.6401 114.908 89.6401 114.81C89.6401 114.716 89.5423 114.645 89.4836 114.611L84.6297 111.81C84.4883 111.729 84.2944 111.689 84.0898 111.689C83.8345 111.689 83.5606 111.75 83.3524 111.871L78.7289 114.54C78.5671 114.634 78.4666 114.753 78.4666 114.851C78.4666 114.944 78.5626 115.014 78.6204 115.048L83.4761 117.852C83.7945 118.035 84.3789 118.007 84.7542 117.79Z" fill="#022144"/>
<path fill-rule="evenodd" clip-rule="evenodd" d="M102.068 114.821C102.068 114.727 101.97 114.656 101.911 114.622L97.0576 111.819C96.9162 111.739 96.7223 111.698 96.5177 111.698C96.2624 111.698 95.9885 111.761 95.7803 111.881L91.1559 114.55C90.995 114.644 90.8936 114.764 90.8936 114.861C90.8936 114.956 90.9923 115.026 91.0501 115.06L95.904 117.862C96.2224 118.046 96.8068 118.018 97.1821 117.801L101.806 115.132C101.968 115.038 102.068 114.919 102.068 114.821Z" fill="#022144"/>
<path fill-rule="evenodd" clip-rule="evenodd" d="M78.5133 107.023L83.1368 104.354C83.2986 104.26 83.3992 104.141 83.3992 104.042C83.3992 103.948 83.3013 103.878 83.2426 103.844L78.3888 101.041C78.0721 100.859 77.4868 100.886 77.1124 101.103L72.488 103.773C72.3261 103.866 72.2256 103.985 72.2256 104.083C72.2256 104.178 72.3234 104.248 72.3812 104.282L77.2351 107.084C77.5535 107.268 78.1388 107.24 78.5133 107.023Z" fill="#022144"/>
<path fill-rule="evenodd" clip-rule="evenodd" d="M90.9588 114.208L95.5823 111.539C95.7442 111.446 95.8447 111.326 95.8447 111.228C95.8447 111.134 95.7469 111.063 95.6882 111.029L90.8343 108.227C90.5177 108.043 89.9324 108.072 89.557 108.288L84.9335 110.958C84.7717 111.051 84.6711 111.171 84.6711 111.269C84.6711 111.363 84.769 111.433 84.8268 111.467L89.6807 114.27C89.9991 114.453 90.5835 114.425 90.9588 114.208Z" fill="#022144"/>
<path fill-rule="evenodd" clip-rule="evenodd" d="M84.7359 110.616L89.3594 107.946C89.5213 107.853 89.6218 107.734 89.6218 107.635C89.6218 107.541 89.524 107.47 89.4653 107.437L84.6114 104.635C84.2948 104.451 83.7095 104.479 83.335 104.695L78.7106 107.365C78.5488 107.459 78.4482 107.577 78.4482 107.676C78.4482 107.77 78.5461 107.84 78.6039 107.874L83.4578 110.677C83.7762 110.86 84.3606 110.833 84.7359 110.616Z" fill="#022144"/>
<path fill-rule="evenodd" clip-rule="evenodd" d="M72.2904 103.43L76.9139 100.761C77.0757 100.668 77.1763 100.548 77.1763 100.45C77.1763 100.355 77.0784 100.285 77.0197 100.251L72.1658 97.4486C72.0253 97.3677 71.8314 97.3276 71.6268 97.3276C71.3707 97.3276 71.0967 97.3899 70.8895 97.51L66.2651 100.179C66.1032 100.274 66.0027 100.392 66.0027 100.491C66.0027 100.585 66.1005 100.655 66.1592 100.689L71.0122 103.492C71.3306 103.675 71.9159 103.646 72.2904 103.43Z" fill="#022144"/>
<path fill-rule="evenodd" clip-rule="evenodd" d="M66.0676 99.8373L70.691 97.168C70.8529 97.0746 70.9534 96.9554 70.9534 96.8575C70.9534 96.7632 70.8556 96.6921 70.7969 96.6583L65.943 93.8564C65.8025 93.7746 65.6086 93.7355 65.404 93.7355C65.1478 93.7355 64.8739 93.7968 64.6666 93.9178L60.0423 96.5871C59.8804 96.6805 59.7808 96.7997 59.7808 96.8976C59.7808 96.9918 59.8777 97.0621 59.9364 97.0959L64.7894 99.8986C65.1078 100.082 65.6922 100.054 66.0676 99.8373Z" fill="#022144"/>
<path fill-rule="evenodd" clip-rule="evenodd" d="M59.8447 96.2445L64.4681 93.5752C64.6309 93.4818 64.7305 93.3626 64.7305 93.2639C64.7305 93.1696 64.6336 93.0993 64.574 93.0655L59.7201 90.2637C59.4035 90.0795 58.8182 90.1089 58.4437 90.325L53.8194 92.9944C53.6575 93.0877 53.5579 93.206 53.5579 93.3048C53.5579 93.3991 53.6548 93.4693 53.7126 93.5031L58.5674 96.3059C58.8849 96.4891 59.4702 96.4615 59.8447 96.2445Z" fill="#022144"/>
<path fill-rule="evenodd" clip-rule="evenodd" d="M71.6086 90.1528C71.3524 90.1528 71.0794 90.2151 70.8712 90.3352L66.2477 93.0045C66.085 93.0979 65.9854 93.2171 65.9854 93.3158C65.9854 93.4092 66.0823 93.4804 66.1419 93.5142L70.9949 96.316C71.3124 96.4992 71.8977 96.4717 72.2722 96.2546L76.8956 93.5853C77.0584 93.4919 77.158 93.3736 77.158 93.2749C77.158 93.1806 77.0602 93.1103 77.0015 93.0765L72.1476 90.2738C72.0071 90.192 71.8132 90.1528 71.6086 90.1528Z" fill="#022144"/>
<path fill-rule="evenodd" clip-rule="evenodd" d="M90.2771 100.931C90.0209 100.931 89.7469 100.993 89.5397 101.113L84.9153 103.783C84.7534 103.877 84.6538 103.995 84.6538 104.094C84.6538 104.188 84.7508 104.258 84.8095 104.292L89.6633 107.095C89.9809 107.278 90.5661 107.25 90.9406 107.033L95.5641 104.363C95.726 104.27 95.8265 104.152 95.8265 104.053C95.8265 103.959 95.7286 103.888 95.6699 103.854L90.8161 101.052C90.6755 100.971 90.4808 100.931 90.2771 100.931Z" fill="#022144"/>
<path fill-rule="evenodd" clip-rule="evenodd" d="M84.0542 97.3381C83.798 97.3381 83.524 97.4004 83.3168 97.5205L78.6924 100.19C78.5305 100.284 78.4309 100.402 78.4309 100.5C78.4309 100.595 78.5279 100.666 78.5875 100.699L83.4413 103.502C83.758 103.685 84.3432 103.657 84.7177 103.441L89.3412 100.771C89.504 100.677 89.6036 100.559 89.6036 100.46C89.6036 100.366 89.5066 100.296 89.447 100.262L84.5932 97.4591C84.4526 97.3782 84.2587 97.3381 84.0542 97.3381Z" fill="#022144"/>
<path fill-rule="evenodd" clip-rule="evenodd" d="M77.8313 93.7456C77.5751 93.7456 77.302 93.8079 77.0939 93.9279L72.4704 96.5973C72.3076 96.6907 72.208 96.8098 72.208 96.9077C72.208 97.0029 72.305 97.0731 72.3646 97.1069L77.2184 99.9088C77.5351 100.092 78.1203 100.064 78.4948 99.8474L83.1183 97.1781C83.2811 97.0847 83.3807 96.9664 83.3807 96.8677C83.3807 96.7734 83.2828 96.7031 83.2241 96.6693L78.3703 93.8666C78.2297 93.7847 78.0358 93.7456 77.8313 93.7456Z" fill="#022144"/>
<path fill-rule="evenodd" clip-rule="evenodd" d="M96.4999 104.523C96.2437 104.523 95.9697 104.586 95.7625 104.706L91.1381 107.376C90.9762 107.469 90.8757 107.588 90.8757 107.686C90.8757 107.781 90.9736 107.851 91.0332 107.885L95.8861 110.687C96.2037 110.871 96.789 110.842 97.1634 110.626L101.787 107.956C101.949 107.863 102.049 107.744 102.049 107.645C102.049 107.551 101.951 107.481 101.893 107.447L97.0389 104.644C96.8984 104.563 96.7045 104.523 96.4999 104.523Z" fill="#022144"/>
<path fill-rule="evenodd" clip-rule="evenodd" d="M102.722 108.116C102.466 108.116 102.193 108.178 101.985 108.298L97.361 110.969C97.1991 111.062 97.0986 111.18 97.0986 111.279C97.0986 111.373 97.1965 111.444 97.2552 111.477L102.109 114.28C102.427 114.463 103.012 114.436 103.386 114.219L108.01 111.549C108.172 111.456 108.272 111.337 108.272 111.238C108.272 111.145 108.174 111.074 108.116 111.04L103.262 108.238C103.12 108.156 102.926 108.116 102.722 108.116Z" fill="#022144"/>
<path fill-rule="evenodd" clip-rule="evenodd" d="M114.496 114.831C114.496 114.738 114.398 114.666 114.339 114.633L109.485 111.83C109.345 111.749 109.15 111.709 108.946 111.709C108.69 111.709 108.416 111.771 108.209 111.891L103.583 114.561C103.422 114.654 103.321 114.774 103.321 114.872C103.321 114.966 103.42 115.037 103.478 115.07L108.331 117.872C108.65 118.056 109.234 118.028 109.61 117.812L114.233 115.142C114.395 115.049 114.496 114.93 114.496 114.831Z" fill="#022144"/>
<path fill-rule="evenodd" clip-rule="evenodd" d="M83.4948 125.027C83.8114 125.21 84.3976 125.182 84.7721 124.966L89.3964 122.296C89.5574 122.203 89.6588 122.084 89.6588 121.986C89.6588 121.892 89.5601 121.82 89.5014 121.787L84.6484 118.985C84.33 118.802 83.7456 118.83 83.3703 119.045L78.7468 121.716C78.584 121.809 78.4844 121.928 78.4844 122.026C78.4844 122.12 78.5831 122.19 78.6409 122.224L83.4948 125.027Z" fill="#022144"/>
<path fill-rule="evenodd" clip-rule="evenodd" d="M46.1576 103.471C46.4743 103.654 47.0604 103.625 47.4358 103.409L52.0593 100.74C52.2203 100.647 52.3217 100.527 52.3217 100.43C52.3217 100.335 52.2229 100.264 52.1651 100.23L47.3113 97.4285C46.9937 97.2443 46.4085 97.2728 46.0331 97.489L41.4096 100.159C41.2477 100.253 41.1472 100.372 41.1472 100.47C41.1472 100.564 41.2459 100.634 41.3038 100.668L46.1576 103.471Z" fill="#022144"/>
<path fill-rule="evenodd" clip-rule="evenodd" d="M77.272 121.434C77.5887 121.617 78.1749 121.59 78.5493 121.373L83.1737 118.703C83.3347 118.61 83.4361 118.491 83.4361 118.393C83.4361 118.299 83.3374 118.228 83.2796 118.194L53.5347 101.021C53.2171 100.837 52.6318 100.866 52.2565 101.082L47.633 103.752C47.4711 103.845 47.3706 103.964 47.3706 104.063C47.3706 104.157 47.4684 104.227 47.5272 104.261L77.272 121.434Z" fill="#022144"/>
<path fill-rule="evenodd" clip-rule="evenodd" d="M102.758 122.466C102.502 122.466 102.229 122.528 102.021 122.649L97.3974 125.319C97.2346 125.412 97.135 125.53 97.135 125.629C97.135 125.723 97.2329 125.794 97.2916 125.828L102.145 128.63C102.462 128.813 103.047 128.785 103.422 128.569L108.046 125.899C108.208 125.805 108.309 125.687 108.309 125.588C108.309 125.494 108.211 125.424 108.151 125.39L103.298 122.587C103.157 122.506 102.963 122.466 102.758 122.466Z" fill="#022144"/>
<path fill-rule="evenodd" clip-rule="evenodd" d="M114.43 115.484L109.807 118.154C109.645 118.247 109.544 118.366 109.544 118.465C109.544 118.559 109.642 118.629 109.701 118.663L114.555 121.465C114.872 121.649 115.457 121.621 115.832 121.404L120.455 118.734C120.617 118.641 120.718 118.523 120.718 118.424C120.718 118.33 120.62 118.259 120.562 118.226L115.708 115.423C115.39 115.241 114.805 115.268 114.43 115.484Z" fill="#022144"/>
<path fill-rule="evenodd" clip-rule="evenodd" d="M126.923 114.842C126.923 114.748 126.825 114.677 126.766 114.643L121.913 111.84C121.596 111.657 121.011 111.686 120.636 111.902L116.011 114.571C115.85 114.665 115.749 114.785 115.749 114.882C115.749 114.977 115.847 115.047 115.905 115.081L120.759 117.883C121.077 118.067 121.663 118.038 122.037 117.822L126.661 115.153C126.822 115.059 126.923 114.94 126.923 114.842Z" fill="#022144"/>
<path fill-rule="evenodd" clip-rule="evenodd" d="M89.7177 128.62C90.0343 128.803 90.6205 128.775 90.995 128.558L95.6185 125.889C95.7803 125.795 95.8808 125.676 95.8808 125.578C95.8808 125.484 95.783 125.413 95.7243 125.379L90.8713 122.577C90.5529 122.394 89.9685 122.423 89.5932 122.638L84.9697 125.308C84.8069 125.401 84.7073 125.521 84.7073 125.618C84.7073 125.713 84.806 125.784 84.8638 125.818L89.7177 128.62Z" fill="#022144"/>
<path fill-rule="evenodd" clip-rule="evenodd" d="M108.963 118.884C108.708 118.884 108.434 118.946 108.225 119.066L103.602 121.737C103.44 121.83 103.34 121.948 103.34 122.047C103.34 122.141 103.437 122.212 103.496 122.245L108.35 125.048C108.667 125.231 109.252 125.203 109.627 124.987L114.251 122.317C114.413 122.223 114.513 122.105 114.513 122.006C114.513 121.912 114.415 121.842 114.357 121.808L109.503 119.005C109.361 118.924 109.167 118.884 108.963 118.884Z" fill="#022144"/>
<path fill-rule="evenodd" clip-rule="evenodd" d="M39.9347 99.8776C40.2523 100.062 40.8375 100.033 41.2129 99.8171L45.8364 97.1469C45.9974 97.0535 46.0988 96.9343 46.0988 96.8365C46.0988 96.7422 46 96.6719 45.9422 96.6372L41.0884 93.8354C40.7699 93.6513 40.1856 93.6797 39.8102 93.8967L35.1867 96.5661C35.0248 96.6595 34.9243 96.7786 34.9243 96.8765C34.9243 96.9708 35.023 97.0419 35.0809 97.0757L39.9347 99.8776Z" fill="#022144"/>
<path fill-rule="evenodd" clip-rule="evenodd" d="M96.5537 126.049C96.2975 126.049 96.0244 126.111 95.8163 126.231L91.1928 128.901C91.03 128.994 90.9304 129.113 90.9304 129.212C90.9304 129.306 91.0274 129.376 91.087 129.41L95.9408 132.212C96.2575 132.395 96.8428 132.368 97.2172 132.151L101.841 129.481C102.003 129.388 102.103 129.27 102.103 129.171C102.103 129.077 102.006 129.006 101.947 128.973L97.0927 126.17C96.9522 126.088 96.7583 126.049 96.5537 126.049Z" fill="#022144"/>
<path fill-rule="evenodd" clip-rule="evenodd" d="M41.1943 92.6415L45.8178 89.9722C45.9796 89.8788 46.0802 89.7596 46.0802 89.6618C46.0802 89.5666 45.9823 89.4963 45.9236 89.4625L41.0697 86.6607C40.9292 86.5788 40.7344 86.5388 40.5298 86.5388C40.2746 86.5388 40.0006 86.6011 39.7934 86.7212L35.169 89.3914C35.0071 89.4848 34.9075 89.6031 34.9075 89.7018C34.9075 89.7961 35.0044 89.8663 35.0631 89.9001L39.9161 92.7029C40.2345 92.8861 40.8198 92.8576 41.1943 92.6415Z" fill="#022144"/>
<path fill-rule="evenodd" clip-rule="evenodd" d="M91.1208 100.201C90.958 100.294 90.8584 100.413 90.8584 100.511C90.8584 100.605 90.9554 100.676 91.0149 100.709L95.8679 103.512C96.1855 103.695 96.7707 103.667 97.1452 103.451L101.77 100.782C101.931 100.688 102.032 100.569 102.032 100.471C102.032 100.377 101.933 100.306 101.875 100.272L97.0225 97.47C96.881 97.3882 96.6871 97.3481 96.4817 97.3481C96.2255 97.3481 95.9533 97.4104 95.7443 97.5314L91.1208 100.201Z" fill="#022144"/>
<path fill-rule="evenodd" clip-rule="evenodd" d="M84.8979 96.6078C84.7351 96.7012 84.6355 96.8203 84.6355 96.9182C84.6355 97.0134 84.7333 97.0836 84.792 97.1174L89.6459 99.9193C89.9634 100.103 90.5478 100.075 90.9223 99.8588L95.5467 97.1886C95.7086 97.0952 95.8091 96.9769 95.8091 96.8782C95.8091 96.7839 95.7112 96.7136 95.6525 96.6798L90.7987 93.8771C90.6581 93.7952 90.4642 93.7561 90.2588 93.7561C90.0026 93.7561 89.7304 93.8184 89.5214 93.9384L84.8979 96.6078Z" fill="#022144"/>
<path fill-rule="evenodd" clip-rule="evenodd" d="M78.675 93.015C78.5122 93.1084 78.4126 93.2276 78.4126 93.3254C78.4126 93.4197 78.5104 93.4909 78.5691 93.5247L83.423 96.3265C83.7397 96.5098 84.3258 96.4822 84.6994 96.2652L89.3247 93.5958C89.4857 93.5024 89.5862 93.3841 89.5862 93.2854C89.5862 93.1911 89.4883 93.1209 89.4296 93.0871L84.5758 90.2843C84.4352 90.2025 84.2413 90.1625 84.0359 90.1625C83.7797 90.1625 83.5075 90.2247 83.2985 90.3457L78.675 93.015Z" fill="#022144"/>
<path fill-rule="evenodd" clip-rule="evenodd" d="M103.565 107.386C103.404 107.479 103.304 107.599 103.304 107.697C103.304 107.791 103.401 107.862 103.46 107.896L108.314 110.698C108.631 110.881 109.217 110.853 109.591 110.636L114.215 107.967C114.377 107.873 114.478 107.754 114.478 107.656C114.478 107.562 114.379 107.492 114.321 107.458L109.467 104.655C109.327 104.573 109.133 104.533 108.927 104.533C108.671 104.533 108.399 104.596 108.19 104.717L103.565 107.386Z" fill="#022144"/>
<path fill-rule="evenodd" clip-rule="evenodd" d="M72.4523 89.4223C72.2896 89.5157 72.1899 89.6349 72.1899 89.7328C72.1899 89.827 72.2869 89.8982 72.3465 89.932L77.2003 92.7338C77.517 92.9171 78.1032 92.8886 78.4767 92.6725L83.102 90.0032C83.263 89.9098 83.3635 89.7906 83.3635 89.6927C83.3635 89.5984 83.2657 89.5282 83.2079 89.4944L78.354 86.6916C78.2126 86.6098 78.0187 86.5707 77.8132 86.5707C77.557 86.5707 77.2848 86.6321 77.0758 86.753L72.4523 89.4223Z" fill="#022144"/>
<path fill-rule="evenodd" clip-rule="evenodd" d="M97.3427 103.793C97.1808 103.887 97.0803 104.006 97.0803 104.104C97.0803 104.198 97.1782 104.268 97.2378 104.302L102.092 107.105C102.408 107.288 102.994 107.26 103.368 107.044L107.992 104.374C108.154 104.281 108.255 104.162 108.255 104.064C108.255 103.97 108.156 103.898 108.098 103.865L103.244 101.063C103.104 100.981 102.91 100.941 102.704 100.941C102.448 100.941 102.176 101.003 101.967 101.124L97.3427 103.793Z" fill="#022144"/>
<path fill-rule="evenodd" clip-rule="evenodd" d="M60.0065 82.2371C59.8447 82.3305 59.7441 82.4496 59.7441 82.5475C59.7441 82.6418 59.842 82.712 59.9007 82.7458L64.7545 85.5486C65.0712 85.7318 65.6574 85.7033 66.0309 85.4872L70.6562 82.8179C70.8172 82.7245 70.9186 82.6053 70.9186 82.5075C70.9186 82.4132 70.8199 82.342 70.7612 82.3082L65.9082 79.5064C65.7668 79.4245 65.5729 79.3845 65.3674 79.3845C65.1112 79.3845 64.839 79.4468 64.63 79.5678L60.0065 82.2371Z" fill="#022144"/>
<path fill-rule="evenodd" clip-rule="evenodd" d="M47.3989 89.0592L52.0223 86.3899C52.1851 86.2965 52.2847 86.1773 52.2847 86.0786C52.2847 85.9843 52.1869 85.914 52.1282 85.8802L47.2743 83.0775C47.1338 82.9966 46.9399 82.9565 46.7353 82.9565C46.4791 82.9565 46.2061 83.0188 45.9979 83.1389L41.3745 85.8091C41.2117 85.9025 41.1121 86.0208 41.1121 86.1195C41.1121 86.2138 41.2099 86.2841 41.2677 86.3179L46.1216 89.1206C46.4391 89.3038 47.0244 89.2754 47.3989 89.0592Z" fill="#022144"/>
<path fill-rule="evenodd" clip-rule="evenodd" d="M53.6035 85.4771L58.2278 82.8078C58.3897 82.7144 58.4893 82.5952 58.4893 82.4964C58.4893 82.4022 58.3924 82.3319 58.3328 82.2981L53.4789 79.4954C53.3384 79.4144 53.1445 79.3744 52.9399 79.3744C52.6837 79.3744 52.4107 79.4367 52.2025 79.5567L47.579 82.226C47.4163 82.3194 47.3167 82.4386 47.3167 82.5374C47.3167 82.6316 47.4136 82.7019 47.4723 82.7357L52.3262 85.5384C52.6437 85.7208 53.229 85.6932 53.6035 85.4771Z" fill="#022144"/>
<path fill-rule="evenodd" clip-rule="evenodd" d="M109.788 110.979C109.626 111.072 109.527 111.191 109.527 111.29C109.527 111.383 109.624 111.455 109.683 111.488L114.536 114.29C114.854 114.474 115.44 114.446 115.814 114.229L120.438 111.559C120.599 111.466 120.7 111.347 120.7 111.249C120.7 111.155 120.602 111.084 120.544 111.051L115.69 108.248C115.549 108.166 115.355 108.126 115.149 108.126C114.894 108.126 114.621 108.189 114.413 108.309L109.788 110.979Z" fill="#022144"/>
<path fill-rule="evenodd" clip-rule="evenodd" d="M33.7121 96.285C34.0296 96.4683 34.6149 96.4407 34.9902 96.2237L39.6137 93.5543C39.7747 93.4609 39.8761 93.3418 39.8761 93.2439C39.8761 93.1496 39.7774 93.0794 39.7196 93.0447L34.8657 90.2428C34.7243 90.161 34.5304 90.121 34.3249 90.121C34.0687 90.121 33.7966 90.1832 33.5884 90.3033L28.9641 92.9735C28.8022 93.0669 28.7017 93.1861 28.7017 93.2839C28.7017 93.3782 28.8004 93.4494 28.8582 93.4832L33.7121 96.285Z" fill="#022144"/>
<path fill-rule="evenodd" clip-rule="evenodd" d="M59.808 81.8948L64.4324 79.2255C64.5943 79.1321 64.6948 79.012 64.6948 78.9142C64.6948 78.8199 64.597 78.7496 64.5383 78.7158L59.6844 75.9131C59.543 75.8321 59.3491 75.7921 59.1445 75.7921C58.8883 75.7921 58.6153 75.8544 58.4071 75.9745L53.7836 78.6438C53.6218 78.7372 53.5212 78.8564 53.5212 78.9551C53.5212 79.0485 53.6191 79.1196 53.6769 79.1534L58.5308 81.9553C58.8483 82.1385 59.4336 82.1109 59.808 81.8948Z" fill="#022144"/>
<path fill-rule="evenodd" clip-rule="evenodd" d="M66.2294 85.8298C66.0676 85.9232 65.967 86.0424 65.967 86.1403C65.967 86.2345 66.0649 86.3057 66.1236 86.3386L70.9774 89.1413C71.2941 89.3246 71.8803 89.2961 72.2538 89.08L76.8791 86.4107C77.0401 86.3173 77.1415 86.1981 77.1415 86.1002C77.1415 86.006 77.0428 85.9357 76.9841 85.9019L72.1311 83.0992C71.9897 83.0173 71.7958 82.9773 71.5903 82.9773C71.3341 82.9773 71.0619 83.0396 70.8529 83.1605L66.2294 85.8298Z" fill="#022144"/>
<path fill-rule="evenodd" clip-rule="evenodd" d="M130.488 118.46L125.594 121.285C125.411 121.391 125.261 121.329 125.261 121.145C125.261 120.961 125.411 120.726 125.594 120.62L130.488 117.794C130.671 117.688 130.82 117.751 130.82 117.935C130.82 118.119 130.671 118.353 130.488 118.46Z" fill="#022144"/>
<path fill-rule="evenodd" clip-rule="evenodd" d="M124.717 121.492C124.717 121.681 124.563 121.923 124.373 122.032C124.184 122.142 124.031 122.077 124.031 121.887C124.031 121.698 124.184 121.456 124.373 121.347C124.563 121.237 124.717 121.302 124.717 121.492Z" fill="#022144"/>
<mask id="mask0" mask-type="alpha" maskUnits="userSpaceOnUse" x="60" y="0" width="76" height="113">
<path fill-rule="evenodd" clip-rule="evenodd" d="M60.1243 0H135.42V112.443H60.1243V0Z" fill="white"/>
</mask>
<g mask="url(#mask0)">
<path fill-rule="evenodd" clip-rule="evenodd" d="M131.998 112.032L63.547 72.5121C61.6568 71.4207 60.1243 68.4925 60.1243 65.9726V2.9979C60.1243 0.478024 61.6568 -0.680961 63.547 0.410424L131.998 39.9306C133.888 41.022 135.421 43.9502 135.421 46.47V109.445C135.421 111.965 133.888 113.124 131.998 112.032Z" fill="#EBECEE"/>
</g>
<path fill-rule="evenodd" clip-rule="evenodd" d="M133.356 111.652C133.072 111.652 132.738 111.547 132.393 111.348L63.9419 71.8279C62.3008 70.8806 60.915 68.1988 60.915 65.9733V2.99771C60.915 1.98016 61.2486 0.790039 62.1879 0.790039C62.4734 0.790039 62.8069 0.895886 63.1512 1.09513L131.602 40.6153C133.243 41.5626 134.63 44.2435 134.63 46.4699V109.445C134.63 110.463 134.297 111.652 133.356 111.652Z" fill="#022144"/>
<path fill-rule="evenodd" clip-rule="evenodd" d="M131.998 104.354L63.5469 64.8338V5.51038L131.998 45.0297V104.354Z" fill="#2854A1"/>
<path fill-rule="evenodd" clip-rule="evenodd" d="M89.6153 29.7525L69.8271 18.3254V15.979L89.6153 27.4061V29.7525Z" fill="#F8A09A"/>
<path fill-rule="evenodd" clip-rule="evenodd" d="M103.815 42.6437L66.969 21.3711V19.0247L103.815 40.2973V42.6437Z" fill="#287CF9"/>
<path fill-rule="evenodd" clip-rule="evenodd" d="M87.2299 37.7622L66.9695 26.0656V23.7183L87.2299 35.4157V37.7622Z" fill="#AAE8D8"/>
<path fill-rule="evenodd" clip-rule="evenodd" d="M106.833 70.2014L69.7502 48.7945V46.4471L106.833 67.8541V70.2014Z" fill="#AAE8D8"/>
<path fill-rule="evenodd" clip-rule="evenodd" d="M86.4333 63.1174L66.969 51.8798V49.5333L86.4333 60.7709V63.1174Z" fill="#F8A09A"/>
<path fill-rule="evenodd" clip-rule="evenodd" d="M111.339 82.1902L66.969 56.5734V54.2269L111.339 79.8429V82.1902Z" fill="#E96FE4"/>
<path fill-rule="evenodd" clip-rule="evenodd" d="M92.5102 50.1982L72.2498 38.5007V36.1543L92.5102 47.8509V50.1982Z" fill="#E96FE4"/>
<path fill-rule="evenodd" clip-rule="evenodd" d="M92.5102 54.892L72.2498 43.1945V40.8472L92.5102 52.5446V54.892Z" fill="#287CF9"/>
<path fill-rule="evenodd" clip-rule="evenodd" d="M96.5827 22.4174C96.5827 22.863 96.2216 23.0151 95.776 22.758C95.3304 22.501 94.9692 21.9317 94.9692 21.4861C94.9692 21.0405 95.3304 20.8875 95.776 21.1445C96.2216 21.4016 96.5827 21.9717 96.5827 22.4174Z" fill="#8F9DAA"/>
<path fill-rule="evenodd" clip-rule="evenodd" d="M97.3217 88.1056C97.3217 88.9595 96.6297 89.2522 95.7758 88.7594C94.9219 88.2658 94.229 87.1744 94.229 86.3196C94.229 85.4657 94.9219 85.1731 95.7758 85.6658C96.6297 86.1595 97.3217 87.2518 97.3217 88.1056Z" fill="#8F9DAA"/>
<path fill-rule="evenodd" clip-rule="evenodd" d="M68.8778 16.6146C68.8778 17.223 68.385 17.4312 67.7766 17.0798C67.1682 16.7294 66.6746 15.9511 66.6746 15.3427C66.6746 14.7343 67.1682 14.5253 67.7766 14.8766C68.385 15.2279 68.8778 16.0062 68.8778 16.6146Z" fill="#4DCFAD"/>
<path fill-rule="evenodd" clip-rule="evenodd" d="M68.8778 47.0834C68.8778 47.6918 68.385 47.8999 67.7766 47.5486C67.1682 47.1972 66.6746 46.4198 66.6746 45.8114C66.6746 45.203 67.1682 44.994 67.7766 45.3453C68.385 45.6967 68.8778 46.475 68.8778 47.0834Z" fill="#FF826D"/>
</svg>
