<svg width="48" height="48" viewBox="0 0 48 48" fill="none" xmlns="http://www.w3.org/2000/svg">
<g clip-path="url(#clip0_805_32018)">
<path d="M11 32.3037H36V37.4823C36 37.7683 35.7716 38.0001 35.4898 38.0001H14.5714C12.599 38.0001 11 36.3772 11 34.3751V32.3037Z" fill="#086DD7"/>
<path d="M11 12.1071C11 10.3911 12.3706 9 14.0612 9H34.4694C35.3147 9 36 9.69556 36 10.5536V32.3036H11V12.1071Z" fill="#086DD7"/>
<path d="M12 34.5C12 33.1193 13.1729 32 14.6198 32H36V37H14.6198C13.1729 37 12 35.8807 12 34.5Z" fill="#8BC7F5"/>
<path fill-rule="evenodd" clip-rule="evenodd" d="M31.1086 9H26.2173V12.1071L28.6629 11.175L31.1086 12.1071V9Z" fill="#C9A6FF"/>
<path d="M30.5983 16.25H16.4013C16.1195 16.25 15.8911 16.4819 15.8911 16.7679C15.8911 17.0539 16.1195 17.2857 16.4013 17.2857H30.5983C30.8801 17.2857 31.1085 17.0539 31.1085 16.7679C31.1085 16.4819 30.8801 16.25 30.5983 16.25Z" fill="white"/>
<path d="M28.9683 18.3213H18.0322C17.7504 18.3213 17.522 18.5531 17.522 18.8391C17.522 19.1252 17.7504 19.357 18.0322 19.357H28.9683C29.2501 19.357 29.4785 19.1252 29.4785 18.8391C29.4785 18.5531 29.2501 18.3213 28.9683 18.3213Z" fill="white"/>
</g>
<defs>
<clipPath id="clip0_805_32018">
<rect width="25" height="29" fill="white" transform="translate(11 9)"/>
</clipPath>
</defs>
</svg>
