<svg width="49" height="56" viewBox="0 0 49 56" fill="none" xmlns="http://www.w3.org/2000/svg">
<path d="M0 45H49V55C49 55.5523 48.5523 56 48 56H7C3.13401 56 0 52.866 0 49V45Z" fill="#2854A1"/>
<path d="M0 6C0 2.68629 2.68629 0 6 0H46C47.6569 0 49 1.34315 49 3V45H0V6Z" fill="#2854A1"/>
<path d="M2.13043 49C2.13043 46.2386 4.36901 44 7.13043 44H47.9348V54H7.13043C4.36901 54 2.13043 51.7614 2.13043 49Z" fill="#71CFFF"/>
<path fill-rule="evenodd" clip-rule="evenodd" d="M39.413 0H29.8261V6L34.6196 4.2L39.413 6V0Z" fill="#71CFFF"/>
<rect x="9.58696" y="14" width="29.8261" height="2" rx="1" fill="white"/>
<rect x="12.7826" y="18" width="23.4348" height="2" rx="1" fill="white"/>
</svg>
