<svg width="48" height="48" viewBox="0 0 48 48" fill="none" xmlns="http://www.w3.org/2000/svg">
<g clip-path="url(#clip0_805_32019)">
<path d="M31.8947 12.0527H12.0526C10.3667 12.0527 9 13.4194 9 15.1054V34.9475C9 36.6334 10.3667 38.0001 12.0526 38.0001H31.8947C33.5807 38.0001 34.9474 36.6334 34.9474 34.9475V15.1054C34.9474 13.4194 33.5807 12.0527 31.8947 12.0527Z" fill="#8BC7F5"/>
<path d="M34.9475 9H15.1054C13.4194 9 12.0527 10.3667 12.0527 12.0526V31.8947C12.0527 33.5807 13.4194 34.9474 15.1054 34.9474H34.9475C36.6334 34.9474 38.0001 33.5807 38.0001 31.8947V12.0526C38.0001 10.3667 36.6334 9 34.9475 9Z" fill="#086DD7"/>
<path d="M15.4229 17.0397L18.3066 18.3096V17.2315C16.5935 16.5966 16.5935 16.5966 16.5935 16.5966L18.3066 15.9616V14.8901L15.4229 16.16V17.0397Z" fill="white"/>
<path d="M22.7367 17.6489H20.1929C19.9119 17.6489 19.6841 17.8767 19.6841 18.1577C19.6841 18.4387 19.9119 18.6665 20.1929 18.6665H22.7367C23.0177 18.6665 23.2455 18.4387 23.2455 18.1577C23.2455 17.8767 23.0177 17.6489 22.7367 17.6489Z" fill="white"/>
<path d="M14.851 12.0527C15.2725 12.0527 15.6142 11.711 15.6142 11.2895C15.6142 10.868 15.2725 10.5264 14.851 10.5264C14.4296 10.5264 14.0879 10.868 14.0879 11.2895C14.0879 11.711 14.4296 12.0527 14.851 12.0527Z" fill="white"/>
<path d="M16.8862 12.0527C17.3077 12.0527 17.6494 11.711 17.6494 11.2895C17.6494 10.868 17.3077 10.5264 16.8862 10.5264C16.4647 10.5264 16.123 10.868 16.123 11.2895C16.123 11.711 16.4647 12.0527 16.8862 12.0527Z" fill="white"/>
<path d="M18.9209 12.0527C19.3424 12.0527 19.684 11.711 19.684 11.2895C19.684 10.868 19.3424 10.5264 18.9209 10.5264C18.4994 10.5264 18.1577 10.868 18.1577 11.2895C18.1577 11.711 18.4994 12.0527 18.9209 12.0527Z" fill="white"/>
</g>
<defs>
<clipPath id="clip0_805_32019">
<rect width="29" height="29" fill="white" transform="translate(9 9)"/>
</clipPath>
</defs>
</svg>
