<?xml version="1.0" encoding="utf-8"?>
<!-- Generator: Adobe Illustrator 15.0.0, SVG Export Plug-In  -->
<!DOCTYPE svg PUBLIC "-//W3C//DTD SVG 1.1//EN" "http://www.w3.org/Graphics/SVG/1.1/DTD/svg11.dtd" [
	<!ENTITY ns_flows "http://ns.adobe.com/Flows/1.0/">
]>
<svg version="1.1"
	 xmlns="http://www.w3.org/2000/svg" xmlns:xlink="http://www.w3.org/1999/xlink" xmlns:a="http://ns.adobe.com/AdobeSVGViewerExtensions/3.0/"
	 x="0px" y="0px" width="94px" height="84px" viewBox="-1.877 -1.327 94 84" enable-background="new -1.877 -1.327 94 84"
	 xml:space="preserve">
<defs>
</defs>
<path fill="#2AB6E9" d="M62.679,73.929H27.321c-1.775,0-3.214,1.439-3.214,3.214c0,1.775,1.439,3.216,3.214,3.216h35.357
	c1.774,0,3.214-1.439,3.214-3.216C65.893,75.368,64.453,73.929,62.679,73.929"/>
<path fill="#2AB6E9" d="M83.975,0H6.027C2.698,0,0,2.699,0,6.026v55.447C0,64.802,2.698,67.5,6.027,67.5h77.948
	c3.328,0,6.025-2.698,6.025-6.026V6.026C90,2.699,87.303,0,83.975,0 M83.571,54.643H6.428V6.429h77.143V54.643z"/>
</svg>
