<svg width="60" height="60" viewBox="0 0 60 60" fill="none" xmlns="http://www.w3.org/2000/svg"><g clip-path="url(#clip0_805_32020)"><path d="M17.001 42.684C18.163 35.93 20.008 33.552 23.057 33.698L25.987 36.627C26.133 39.676 23.755 41.522 17.001 42.684Z" fill="#FBB552"/><path d="M20.986 32.047C28.271 17.605 36.604 12.851 46.93 12.749C47.032 23.075 42.584 31.407 27.504 38.564L20.986 32.047Z" fill="#086DD7"/><path d="M34.362 25.322C35.7 26.66 37.869 26.66 39.207 25.322C40.545 23.984 40.545 21.815 39.207 20.477C37.869 19.139 35.7 19.139 34.362 20.477C33.024 21.815 33.024 23.984 34.362 25.322Z" fill="white"/><path d="M34.929 39.617L35.358 33.751L27.854 38.499L26.313 42.02C26.086 42.539 26.592 43.076 27.123 42.881L34.509 40.173C34.746 40.086 34.91 39.868 34.929 39.617Z" fill="#086DD7"/><path d="M19.963 24.651L25.829 24.222L21.081 31.726L17.56 33.267C17.041 33.493 16.504 32.988 16.699 32.456L19.407 25.071C19.494 24.834 19.711 24.669 19.963 24.651Z" fill="#086DD7"/><path d="M13.533 40.991L9.08 45.445" stroke="#8BC7F5" stroke-width="2.5" stroke-linecap="round" stroke-linejoin="round"/><path d="M14.874 45.013L8.409 51.478" stroke="#8BC7F5" stroke-width="2.5" stroke-linecap="round" stroke-linejoin="round"/><path d="M18.896 46.354L14.443 50.808" stroke="#8BC7F5" stroke-width="2.5" stroke-linecap="round" stroke-linejoin="round"/></g><defs><clipPath id="clip0_805_32020"><path width="60" height="36" fill="white" transform="translate(6 6)" d="M0 0H75V45H0V0z"/></clipPath></defs></svg>
