<svg width="99" height="34" viewBox="0 0 99 34" fill="none" xmlns="http://www.w3.org/2000/svg">
<path d="M26.5297 14.5706C29.5026 8.51017 30 2.82831 30 2.82831C30 2.82831 24.3158 3.32569 18.2537 6.30011C22.3847 7.18157 25.6453 10.4411 26.5297 14.5709V14.5706Z" fill="#2E7F74"/>
<path opacity="0.5" d="M26.5282 19.0927C25.6278 23.2801 22.2838 26.5701 18.0682 27.3922L18.3777 27.7017C19.5352 28.8592 21.0517 29.4373 22.5682 29.4373C24.0848 29.4373 25.6011 28.8594 26.758 27.7017C29.0714 25.3882 29.0714 21.6358 26.758 19.3223L26.5284 19.0925L26.5282 19.0927Z" fill="#2E7F74"/>
<path d="M22.5091 16.8272C22.5091 16.0918 22.3867 15.3844 22.1599 14.7243C21.5097 12.826 20.0053 11.3217 18.107 10.6715C17.4469 10.4449 16.7395 10.3225 16.0042 10.3225C12.4167 10.3225 9.49866 13.2406 9.49866 16.8272C9.49866 17.7095 9.67503 18.5512 9.9952 19.3194C10.6553 20.9051 11.9255 22.1752 13.5112 22.8353C14.2793 23.1555 15.1212 23.3318 16.0042 23.3318C19.5908 23.3318 22.5088 20.4138 22.5088 16.8272H22.5091Z" fill="#2E7F74"/>
<path opacity="0.5" d="M5.43896 14.7632C6.26029 10.5476 9.5511 7.20364 13.7385 6.30326L13.5203 6.08505C11.206 3.77072 7.45435 3.77072 5.14002 6.08505C2.82654 8.39854 2.82654 12.151 5.14002 14.4645L5.43896 14.7634V14.7632Z" fill="#2E7F74"/>
<path d="M5.47559 19.0738C2.49822 25.1397 2 30.8283 2 30.8283C2 30.8283 7.68796 30.3301 13.7522 27.3536C9.61884 26.4706 6.35684 23.208 5.47559 19.0738Z" fill="#2E7F74"/>
<path d="M77.9658 9.03955C77.4538 9.03955 77.0459 9.43693 77.0459 9.93193C77.0459 10.4379 77.4538 10.8353 77.9658 10.8353C78.4827 10.8353 78.8801 10.4379 78.8801 9.93193C78.8797 9.43693 78.4823 9.03955 77.9658 9.03955ZM77.9711 10.6453C77.5685 10.6453 77.2744 10.3297 77.2744 9.93234C77.2744 9.54063 77.5684 9.21941 77.9658 9.21941C78.3628 9.21941 78.6512 9.54063 78.6512 9.93801C78.6512 10.3297 78.3628 10.6453 77.9711 10.6453Z" fill="#2E7F74"/>
<path d="M78.1725 9.95945V9.94852C78.281 9.91571 78.3572 9.83996 78.3572 9.74152C78.3572 9.65443 78.3191 9.58354 78.2701 9.54587C78.2049 9.50779 78.1287 9.48065 77.9598 9.48065C77.8132 9.48065 77.6985 9.49159 77.6171 9.5082V10.4006H77.8241V10.0413H77.9217C78.0364 10.0413 78.0907 10.085 78.1069 10.1827C78.134 10.2864 78.1502 10.3678 78.1777 10.4006H78.4009C78.3791 10.3678 78.3625 10.3135 78.3357 10.1774C78.3082 10.0571 78.2592 9.99186 78.1725 9.95945ZM77.9274 9.89424H77.8298V9.63863C77.8517 9.63296 77.8893 9.62729 77.944 9.62729C78.0749 9.62729 78.1344 9.68198 78.1344 9.7638C78.134 9.85616 78.0416 9.89424 77.9274 9.89424Z" fill="#2E7F74"/>
<path d="M40.5015 10.9435C41.47 10.9435 42.285 10.5944 42.9785 9.89398C43.6631 9.20292 44.003 8.35874 44.003 7.36104V1.37562C44.003 1.18442 43.9402 1.02441 43.8122 0.899246C43.6842 0.774077 43.5307 0.71048 43.3463 0.71048C43.158 0.71048 43.0041 0.774077 42.8809 0.899246C42.7574 1.02441 42.697 1.18442 42.697 1.37562V4.56641C42.0639 4.04305 41.3327 3.77894 40.5015 3.77894C39.5354 3.77894 38.7086 4.12771 38.0244 4.82849C37.3399 5.52644 37 6.37103 37 7.36144C37 8.35186 37.3423 9.19401 38.0244 9.89439C38.7086 10.5923 39.533 10.9435 40.5015 10.9435ZM38.4806 6.49093C38.5948 6.2175 38.7507 5.98134 38.946 5.77881C39.1416 5.57586 39.3746 5.41545 39.6399 5.29555C39.9076 5.17524 40.194 5.1165 40.5035 5.1165C40.813 5.1165 41.0925 5.17524 41.3603 5.29555C41.628 5.41586 41.8585 5.57627 42.0566 5.78124C42.2547 5.98621 42.4106 6.22439 42.5244 6.49336C42.6387 6.76476 42.6966 7.05237 42.6966 7.35901C42.6966 7.66566 42.6383 7.95569 42.5244 8.22466V8.22952C42.4102 8.50092 42.2543 8.73911 42.0566 8.94165C41.8589 9.14702 41.626 9.30703 41.3603 9.42734C41.0925 9.54764 40.8085 9.60638 40.5035 9.60638C40.1985 9.60638 39.9076 9.54764 39.6399 9.42734C39.3721 9.30703 39.1416 9.14662 38.946 8.94367C38.7503 8.74073 38.5944 8.50254 38.4806 8.23155C38.3663 7.95812 38.3084 7.66809 38.3084 7.36144C38.308 7.0548 38.3663 6.76476 38.4806 6.49093Z" fill="#2E7F74"/>
<path d="M71.9696 9.59689C71.9696 9.41056 71.9092 9.24569 71.7853 9.12052C71.6621 8.99535 71.5062 8.93175 71.3198 8.93175C71.157 8.93661 71.0124 8.99049 70.8892 9.09905C70.6936 9.26878 70.4817 9.3984 70.2512 9.48347C70.0207 9.56853 69.7692 9.61066 69.4946 9.61066C69.2523 9.61066 69.0194 9.57299 68.7982 9.49522C68.5767 9.41744 68.3701 9.31131 68.1858 9.17196C67.9994 9.03262 67.839 8.86775 67.7017 8.6721C67.5644 8.47888 67.4595 8.26419 67.3898 8.02843H72.3418C72.5253 8.02843 72.6793 7.96484 72.8073 7.83967C72.9353 7.7145 72.9981 7.55449 72.9981 7.3633C72.9981 6.86789 72.9118 6.40812 72.7421 5.98603C72.5719 5.56151 72.3131 5.17709 71.9736 4.83278L71.9692 4.83035C71.2777 4.1324 70.4509 3.78079 69.4921 3.78079C68.5325 3.78079 67.6993 4.12997 67.0147 4.83035C66.3301 5.52829 65.9902 6.37288 65.9902 7.3633C65.9902 8.35371 66.3325 9.19586 67.0147 9.89624C67.6993 10.5942 68.5236 10.9458 69.4921 10.9458C70.372 10.9458 71.1331 10.6558 71.7804 10.0757C71.906 9.94323 71.9696 9.78323 71.9696 9.59689ZM67.6924 6.05449C67.8301 5.86127 67.9925 5.69357 68.1793 5.55462C68.368 5.41568 68.5726 5.30915 68.7986 5.23137C69.0243 5.1536 69.2547 5.11593 69.4925 5.11593C69.7299 5.11593 69.9604 5.1536 70.1836 5.23137C70.4072 5.30915 70.6126 5.41528 70.7961 5.55462C70.9824 5.69357 71.1452 5.85884 71.2826 6.05449C71.4223 6.24771 71.5272 6.4624 71.5997 6.69816H67.3853C67.4526 6.46483 67.555 6.25014 67.6924 6.05449Z" fill="#2E7F74"/>
<path d="M74.3696 10.9458C74.5531 10.9458 74.7026 10.8797 74.8278 10.7501C74.9562 10.6205 75.0186 10.4625 75.0186 10.281V7.36367C75.0186 7.05257 75.0769 6.76011 75.1907 6.48627C75.305 6.21285 75.4609 5.97669 75.6586 5.77415C75.8571 5.5712 76.0896 5.41079 76.3549 5.29535C76.6227 5.17747 76.9071 5.11833 77.2121 5.11833C77.5167 5.11833 77.8055 5.17261 78.0688 5.27874C78.1733 5.32573 78.2645 5.34963 78.3435 5.34963C78.4346 5.34963 78.5205 5.33302 78.5995 5.29778C78.6785 5.26254 78.7485 5.21514 78.8069 5.15397C78.8652 5.09281 78.9114 5.02192 78.9466 4.93928C78.9814 4.85908 79.0001 4.77199 79.0001 4.67761C79.0001 4.4937 78.9417 4.34504 78.8255 4.22959H78.8279C78.7117 4.11414 78.5646 4.02422 78.3876 3.95819C78.2106 3.89216 78.0174 3.8472 77.8055 3.82127C77.5957 3.79535 77.398 3.7836 77.2145 3.7836C76.7977 3.7836 76.4064 3.85206 76.0386 3.98857C75.6708 4.12548 75.3305 4.32114 75.0186 4.57593V4.44874C75.0186 4.26483 74.9558 4.10928 74.8278 3.97925C74.7002 3.84963 74.5487 3.7836 74.3696 3.7836C74.1898 3.7836 74.0318 3.84963 73.9042 3.97925C73.7758 4.10887 73.713 4.26686 73.713 4.44874V10.281C73.713 10.4649 73.7758 10.6205 73.9042 10.7501C74.0318 10.8797 74.1857 10.9458 74.3696 10.9458Z" fill="#2E7F74"/>
<path d="M51.4904 5.98846C51.3203 5.56637 51.0667 5.17952 50.7244 4.83035C50.0329 4.1324 49.2066 3.78079 48.2473 3.78079C47.2881 3.78079 46.4545 4.12997 45.7703 4.83035C45.0857 5.52829 44.7458 6.37288 44.7458 7.3633C44.7458 8.35371 45.0881 9.19586 45.7703 9.89624C46.4549 10.5942 47.2788 10.9458 48.2473 10.9458C49.2159 10.9458 50.0309 10.5966 50.7244 9.89624C51.409 9.20518 51.7488 8.361 51.7488 7.3633C51.744 6.86829 51.6581 6.41055 51.4904 5.98846ZM50.2703 8.22408V8.22894C50.1561 8.50035 50.0001 8.73853 49.8024 8.94107C49.6043 9.14645 49.3718 9.30645 49.1061 9.42676C48.8408 9.54707 48.5544 9.6058 48.2494 9.6058C47.9443 9.6058 47.6535 9.54707 47.3857 9.42676C47.118 9.30645 46.8875 9.14604 46.6918 8.9431C46.4962 8.74015 46.3402 8.50197 46.2264 8.23097C46.1122 7.95754 46.0543 7.66751 46.0543 7.36086C46.0543 7.05422 46.1126 6.76418 46.2264 6.49076C46.3406 6.21733 46.4966 5.98117 46.6918 5.77863C46.8875 5.57569 47.1204 5.41528 47.3857 5.29538C47.6535 5.17507 47.9399 5.11633 48.2494 5.11633C48.5588 5.11633 48.8383 5.17507 49.1061 5.29538C49.3739 5.41568 49.6043 5.57609 49.8024 5.78106C50.0005 5.98603 50.1565 6.22422 50.2703 6.49319C50.3845 6.76459 50.4425 7.0522 50.4425 7.35884C50.4429 7.66548 50.3845 7.95552 50.2703 8.22408Z" fill="#2E7F74"/>
<path d="M62.628 6.7128L65.2472 4.97218C65.4141 4.85714 65.4955 4.68094 65.4963 4.44396C65.4959 4.35525 65.4777 4.271 65.4428 4.1916C65.408 4.1114 65.3614 4.03848 65.3031 3.97691C65.2448 3.91574 65.1751 3.86592 65.0957 3.83311C65.0167 3.8003 64.9304 3.78126 64.8397 3.78126C64.7092 3.78126 64.593 3.81448 64.4905 3.88253L60.7516 6.37051V1.38037C60.7516 1.1916 60.6889 1.03362 60.5609 0.903995C60.4329 0.774371 60.2814 0.708344 60.1023 0.708344C59.9233 0.708344 59.7649 0.774371 59.6365 0.903995C59.5085 1.03362 59.4457 1.1916 59.4457 1.38037V10.2714C59.4457 10.4553 59.5085 10.6133 59.6365 10.7453C59.7645 10.8774 59.9184 10.9434 60.1023 10.9434C60.2862 10.9434 60.4353 10.8774 60.5609 10.7453C60.6889 10.6133 60.7516 10.4553 60.7516 10.2714V7.96246L61.5152 7.45085L64.4046 10.7688C64.5209 10.8843 64.6675 10.941 64.8421 10.941C64.9329 10.941 65.0191 10.9244 65.0981 10.8891C65.1771 10.8559 65.2472 10.8065 65.3055 10.7453C65.3639 10.6842 65.4104 10.6133 65.4453 10.5307C65.4801 10.4504 65.4987 10.3634 65.4987 10.2759C65.4987 10.1013 65.4384 9.94572 65.3173 9.80881L62.628 6.7128Z" fill="#2E7F74"/>
<path d="M55.9841 10.9483C56.8595 10.9483 57.621 10.6583 58.2659 10.0782C58.4032 9.93682 58.4733 9.77398 58.4733 9.58521C58.4733 9.39645 58.4126 9.23361 58.2894 9.10884C58.1659 8.98367 58.0099 8.92008 57.824 8.92008C57.6656 8.92494 57.5283 8.97193 57.412 9.06145C57.2026 9.24535 56.9838 9.38227 56.7485 9.47422C56.5156 9.56618 56.262 9.61114 55.9849 9.61114C55.6799 9.61114 55.3959 9.552 55.1282 9.43412C54.8604 9.31624 54.6275 9.15583 54.4274 8.95532C54.2273 8.75481 54.0689 8.51419 53.9547 8.24319C53.8404 7.96977 53.7825 7.6773 53.7825 7.3658C53.7825 7.05429 53.8409 6.76223 53.9547 6.4884C54.0689 6.21497 54.2269 5.97881 54.4274 5.77627V5.77384C54.6275 5.5709 54.8604 5.41049 55.1282 5.29504C55.3959 5.17717 55.6799 5.11802 55.9849 5.11802C56.2596 5.11802 56.5136 5.16501 56.7485 5.2594C56.9814 5.35378 57.205 5.49272 57.4165 5.6746C57.542 5.77587 57.6842 5.82772 57.8426 5.82772C58.0314 5.82772 58.1849 5.76412 58.3084 5.63693C58.432 5.50973 58.4924 5.34932 58.4924 5.15813C58.4924 4.96734 58.4178 4.79032 58.2663 4.6534C57.6239 4.07333 56.8623 3.78329 55.9845 3.78329C55.0184 3.78329 54.1916 4.13247 53.5075 4.83285C52.8229 5.5308 52.483 6.37498 52.483 7.3658C52.483 8.35621 52.8253 9.19837 53.5075 9.89874C54.1912 10.5967 55.0156 10.9483 55.9841 10.9483Z" fill="#2E7F74"/>
<path d="M42.647 33.0403C41.5737 33.0403 40.577 32.8793 39.657 32.5573C38.7523 32.22 38.047 31.7983 37.541 31.2923C37.311 31.047 37.2113 30.771 37.242 30.4643C37.288 30.1423 37.4413 29.8816 37.702 29.6823C38.0087 29.437 38.3077 29.3373 38.599 29.3833C38.9057 29.414 39.1663 29.5443 39.381 29.7743C39.6417 30.0656 40.0557 30.3416 40.623 30.6023C41.2057 30.8476 41.8497 30.9703 42.555 30.9703C43.4443 30.9703 44.119 30.8246 44.579 30.5333C45.0543 30.242 45.2997 29.8663 45.315 29.4063C45.3303 28.9463 45.108 28.5476 44.648 28.2103C44.2033 27.873 43.383 27.597 42.187 27.3823C40.6383 27.0756 39.5113 26.6156 38.806 26.0023C38.116 25.389 37.771 24.6376 37.771 23.7483C37.771 22.9663 38.001 22.3223 38.461 21.8163C38.921 21.295 39.5113 20.9116 40.232 20.6663C40.9527 20.4056 41.704 20.2753 42.486 20.2753C43.498 20.2753 44.395 20.4363 45.177 20.7583C45.959 21.0803 46.58 21.525 47.04 22.0923C47.2547 22.3376 47.3543 22.5983 47.339 22.8743C47.3237 23.135 47.1933 23.3573 46.948 23.5413C46.7027 23.71 46.4113 23.7636 46.074 23.7023C45.7367 23.641 45.453 23.503 45.223 23.2883C44.8397 22.9203 44.4257 22.6673 43.981 22.5293C43.5363 22.3913 43.0227 22.3223 42.44 22.3223C41.7653 22.3223 41.1903 22.4373 40.715 22.6673C40.255 22.8973 40.025 23.2346 40.025 23.6793C40.025 23.9553 40.094 24.2083 40.232 24.4383C40.3853 24.653 40.6767 24.8523 41.106 25.0363C41.5353 25.205 42.164 25.3736 42.992 25.5423C44.142 25.7723 45.0467 26.0636 45.706 26.4163C46.3807 26.769 46.8637 27.183 47.155 27.6583C47.4463 28.1183 47.592 28.655 47.592 29.2683C47.592 29.9736 47.4003 30.61 47.017 31.1773C46.649 31.7446 46.097 32.197 45.361 32.5343C44.6403 32.8716 43.7357 33.0403 42.647 33.0403ZM55.2623 33.0403C54.0356 33.0403 52.9393 32.7643 51.9733 32.2123C51.0226 31.645 50.2713 30.886 49.7193 29.9353C49.1826 28.9693 48.9143 27.8806 48.9143 26.6693C48.9143 25.4273 49.1826 24.3233 49.7193 23.3573C50.2559 22.3913 50.9919 21.64 51.9273 21.1033C52.8626 20.5513 53.9359 20.2753 55.1473 20.2753C56.0519 20.2753 56.8799 20.4516 57.6313 20.8043C58.3826 21.1416 59.0573 21.6553 59.6553 22.3453C59.8699 22.5906 59.9466 22.8436 59.8853 23.1043C59.8239 23.365 59.6553 23.595 59.3793 23.7943C59.1646 23.9476 58.9269 24.0013 58.6663 23.9553C58.4056 23.894 58.1679 23.756 57.9533 23.5413C57.2019 22.744 56.2666 22.3453 55.1473 22.3453C54.3653 22.3453 53.6753 22.5293 53.0773 22.8973C52.4793 23.25 52.0116 23.7483 51.6743 24.3923C51.3369 25.0363 51.1683 25.7953 51.1683 26.6693C51.1683 27.4973 51.3369 28.2333 51.6743 28.8773C52.0269 29.5213 52.5099 30.035 53.1233 30.4183C53.7366 30.7863 54.4496 30.9703 55.2623 30.9703C55.7989 30.9703 56.2666 30.909 56.6653 30.7863C57.0793 30.6483 57.4549 30.4413 57.7923 30.1653C58.0376 29.966 58.2906 29.8586 58.5513 29.8433C58.8119 29.8126 59.0419 29.8816 59.2413 30.0503C59.5019 30.265 59.6476 30.5103 59.6783 30.7863C59.7089 31.047 59.6169 31.2846 59.4023 31.4993C58.2983 32.5266 56.9183 33.0403 55.2623 33.0403ZM68.0758 33.0403C66.8338 33.0403 65.7374 32.772 64.7868 32.2353C63.8361 31.6833 63.0848 30.932 62.5328 29.9813C61.9961 29.0153 61.7278 27.9113 61.7278 26.6693C61.7278 25.412 61.9961 24.308 62.5328 23.3573C63.0848 22.3913 63.8361 21.64 64.7868 21.1033C65.7374 20.5513 66.8338 20.2753 68.0758 20.2753C69.3024 20.2753 70.3911 20.5513 71.3418 21.1033C72.2924 21.64 73.0361 22.3913 73.5728 23.3573C74.1248 24.308 74.4008 25.412 74.4008 26.6693C74.4008 27.9113 74.1324 29.0153 73.5958 29.9813C73.0591 30.932 72.3154 31.6833 71.3648 32.2353C70.4141 32.772 69.3178 33.0403 68.0758 33.0403ZM68.0758 30.9703C68.8731 30.9703 69.5784 30.7863 70.1918 30.4183C70.8051 30.0503 71.2804 29.5443 71.6178 28.9003C71.9704 28.2563 72.1468 27.5126 72.1468 26.6693C72.1468 25.826 71.9704 25.0823 71.6178 24.4383C71.2804 23.779 70.8051 23.2653 70.1918 22.8973C69.5784 22.5293 68.8731 22.3453 68.0758 22.3453C67.2784 22.3453 66.5731 22.5293 65.9598 22.8973C65.3464 23.2653 64.8634 23.779 64.5108 24.4383C64.1581 25.0823 63.9818 25.826 63.9818 26.6693C63.9818 27.5126 64.1581 28.2563 64.5108 28.9003C64.8634 29.5443 65.3464 30.0503 65.9598 30.4183C66.5731 30.7863 67.2784 30.9703 68.0758 30.9703ZM82.1823 33.0633C81.1243 33.0633 80.1736 32.841 79.3303 32.3963C78.5023 31.9363 77.8429 31.2693 77.3523 30.3953C76.8769 29.5213 76.6393 28.448 76.6393 27.1753V21.5173C76.6393 21.18 76.7466 20.904 76.9613 20.6893C77.1913 20.4593 77.4749 20.3443 77.8123 20.3443C78.1496 20.3443 78.4256 20.4593 78.6403 20.6893C78.8703 20.904 78.9853 21.18 78.9853 21.5173V27.1753C78.9853 28.034 79.1463 28.747 79.4683 29.3143C79.7903 29.8663 80.2273 30.2803 80.7793 30.5563C81.3313 30.817 81.9523 30.9473 82.6423 30.9473C83.3016 30.9473 83.8843 30.817 84.3903 30.5563C84.9116 30.2956 85.3256 29.943 85.6323 29.4983C85.9389 29.0536 86.0923 28.5553 86.0923 28.0033H87.5413C87.5413 28.954 87.3036 29.8126 86.8283 30.5793C86.3683 31.346 85.7319 31.9516 84.9193 32.3963C84.1219 32.841 83.2096 33.0633 82.1823 33.0633ZM87.2653 32.9483C86.9279 32.9483 86.6443 32.841 86.4143 32.6263C86.1996 32.3963 86.0923 32.1126 86.0923 31.7753V21.5173C86.0923 21.1646 86.1996 20.881 86.4143 20.6663C86.6443 20.4516 86.9279 20.3443 87.2653 20.3443C87.6179 20.3443 87.9016 20.4516 88.1163 20.6663C88.3309 20.881 88.4383 21.1646 88.4383 21.5173V31.7753C88.4383 32.1126 88.3309 32.3963 88.1163 32.6263C87.9016 32.841 87.6179 32.9483 87.2653 32.9483ZM96.147 32.9483C95.3803 32.9483 94.6903 32.7566 94.077 32.3733C93.4637 31.9746 92.9807 31.438 92.628 30.7633C92.2753 30.0886 92.099 29.3296 92.099 28.4863V17.5153C92.099 17.178 92.2063 16.902 92.421 16.6873C92.6357 16.4726 92.9117 16.3653 93.249 16.3653C93.5863 16.3653 93.8623 16.4726 94.077 16.6873C94.2917 16.902 94.399 17.178 94.399 17.5153V28.4863C94.399 29.0996 94.5677 29.6133 94.905 30.0273C95.2423 30.4413 95.6563 30.6483 96.147 30.6483H96.929C97.205 30.6483 97.435 30.7556 97.619 30.9703C97.8183 31.185 97.918 31.461 97.918 31.7983C97.918 32.1356 97.7877 32.4116 97.527 32.6263C97.2817 32.841 96.9597 32.9483 96.561 32.9483H96.147ZM91.041 22.8053C90.719 22.8053 90.4583 22.7133 90.259 22.5293C90.0597 22.3453 89.96 22.1153 89.96 21.8393C89.96 21.5326 90.0597 21.2873 90.259 21.1033C90.4583 20.9193 90.719 20.8273 91.041 20.8273H96.354C96.676 20.8273 96.9367 20.9193 97.136 21.1033C97.3353 21.2873 97.435 21.5326 97.435 21.8393C97.435 22.1153 97.3353 22.3453 97.136 22.5293C96.9367 22.7133 96.676 22.8053 96.354 22.8053H91.041Z" fill="#2E7F74"/>
</svg>
