<svg width="25" height="25" viewBox="0 0 25 25" fill="none" xmlns="http://www.w3.org/2000/svg">
<mask id="mask0_200_9677" style="mask-type:alpha" maskUnits="userSpaceOnUse" x="2" y="0" width="21" height="23">
<path d="M21.2461 21.4956L16.8961 17.1456M19.2461 11.4956C19.2461 15.9139 15.6644 19.4956 11.2461 19.4956C6.82782 19.4956 3.24609 15.9139 3.24609 11.4956C3.24609 7.07733 6.82782 3.49561 11.2461 3.49561" stroke="#677285" stroke-width="2" stroke-linecap="round" stroke-linejoin="round"/>
<path d="M16.7461 1.84082L17.5306 3.40974C17.796 3.94072 17.9288 4.2062 18.1061 4.43627C18.2635 4.64041 18.4465 4.82343 18.6506 4.98079C18.8807 5.15813 19.1462 5.29087 19.6772 5.55636L21.2461 6.34082L19.6772 7.12528C19.1462 7.39077 18.8807 7.52351 18.6506 7.70085C18.4465 7.85821 18.2635 8.04123 18.1061 8.24537C17.9288 8.47544 17.796 8.74093 17.5306 9.2719L16.7461 10.8408L15.9616 9.2719C15.6961 8.74092 15.5634 8.47544 15.3861 8.24537C15.2287 8.04123 15.0457 7.85821 14.8415 7.70085C14.6115 7.52351 14.346 7.39077 13.815 7.12528L12.2461 6.34082L13.815 5.55636C14.346 5.29087 14.6115 5.15813 14.8415 4.98079C15.0457 4.82343 15.2287 4.64041 15.3861 4.43627C15.5634 4.2062 15.6961 3.94072 15.9616 3.40974L16.7461 1.84082Z" stroke="#677285" stroke-width="2" stroke-linecap="round" stroke-linejoin="round"/>
</mask>
<g mask="url(#mask0_200_9677)">
<rect x="0.426636" y="0.495605" width="24" height="24" fill="white"/>
</g>
</svg>
