<svg width="58" height="58" viewBox="0 0 58 58" fill="none" xmlns="http://www.w3.org/2000/svg">
<mask id="mask0_7183_173512" style="mask-type:alpha" maskUnits="userSpaceOnUse" x="4" y="4" width="50" height="50">
<g clip-path="url(#clip0_7183_173512)">
<path d="M46.7077 26.9166H43.5827V18.5833C43.5827 16.2916 41.7077 14.4166 39.416 14.4166H31.0827V11.2916C31.0827 8.41659 28.7493 6.08325 25.8743 6.08325C22.9993 6.08325 20.666 8.41659 20.666 11.2916V14.4166H12.3327C10.041 14.4166 8.18685 16.2916 8.18685 18.5833V26.4999H11.291C14.3952 26.4999 16.916 29.0208 16.916 32.1249C16.916 35.2291 14.3952 37.7499 11.291 37.7499H8.16602V45.6666C8.16602 47.9583 10.041 49.8333 12.3327 49.8333H20.2493V46.7083C20.2493 43.6041 22.7702 41.0832 25.8743 41.0832C28.9785 41.0832 31.4993 43.6041 31.4993 46.7083V49.8333H39.416C41.7077 49.8333 43.5827 47.9583 43.5827 45.6666V37.3333H46.7077C49.5827 37.3333 51.916 34.9999 51.916 32.1249C51.916 29.2499 49.5827 26.9166 46.7077 26.9166Z" fill="black"/>
</g>
</mask>
<g mask="url(#mask0_7183_173512)">
<rect x="4" y="4" width="50" height="50" fill="#677285"/>
</g>
<defs>
<clipPath id="clip0_7183_173512">
<rect width="50" height="50" fill="white" transform="translate(4 4)"/>
</clipPath>
</defs>
</svg>
