<svg viewBox="0 0 24 24" xmlns="http://www.w3.org/2000/svg"><path fill-rule="evenodd" clip-rule="evenodd" d="M12 24c6.627 0 12-5.373 12-12S18.627 0 12 0 0 5.373 0 12s5.373 12 12 12Zm7.543-15.79a1.971 1.971 0 0 0-1.392-1.39C16.923 6.49 12 6.49 12 6.49s-4.924 0-6.152.33a1.972 1.972 0 0 0-1.391 1.39c-.33 1.229-.33 3.79-.33 3.79s0 2.562.33 3.79c.18.677.714 1.21 1.391 1.391 1.228.329 6.151.329 6.151.329s4.923 0 6.15-.329a1.972 1.972 0 0 0 1.393-1.392c.329-1.227.329-3.789.329-3.789s0-2.561-.33-3.79Zm-9.117 6.151L14.516 12l-4.09-2.361v4.722Z"/></svg>