<svg version="1.1" xmlns="http://www.w3.org/2000/svg" viewBox="0 0 1061.9696259527584 1442.1673620954803" width="2123.939251905517" height="2884.3347241909605">
  <!-- svg-source:excalidraw -->
  <g stroke-linecap="round" transform="translate(10 10.695992798288444) rotate(0 499.1377001126125 710.7356846485959)"><path d="M32 0 C255.74 -2.14, 478.15 -1.24, 966.28 0 M32 0 C378.71 -3.28, 724.69 -3.27, 966.28 0 M966.28 0 C986.17 0.74, 996.63 8.91, 998.28 32 M966.28 0 C985.53 0.47, 999.22 12.32, 998.28 32 M998.28 32 C998.87 540.44, 998.57 1047.3, 998.28 1389.47 M998.28 32 C1000.13 332.72, 999.89 632.34, 998.28 1389.47 M998.28 1389.47 C999.74 1412.68, 987.23 1421.33, 966.28 1421.47 M998.28 1389.47 C999.06 1409.62, 986.33 1421.09, 966.28 1421.47 M966.28 1421.47 C617.92 1417.07, 269.59 1418.23, 32 1421.47 M966.28 1421.47 C760.82 1420.97, 555.95 1421.09, 32 1421.47 M32 1421.47 C10.29 1419.93, 1.76 1410.9, 0 1389.47 M32 1421.47 C10.06 1422.32, 0.01 1412.67, 0 1389.47 M0 1389.47 C0.04 978.98, 1.4 567.71, 0 32 M0 1389.47 C-0.01 888.46, 0.38 386.83, 0 32 M0 32 C-1.3 10.77, 11.68 1.71, 32 0 M0 32 C2.2 11.96, 9.68 -1.32, 32 0" stroke="#1e1e1e" stroke-width="2" fill="none"></path></g><g stroke-linecap="round"><g transform="translate(68.95218432054128 10.893058988452026) rotate(0 0 709.0292944687217)"><path d="M1 -0.89 C0.94 235.16, 0.22 1180.9, -0.05 1417.28 M0.07 1.25 C-0.18 237.36, -0.73 1182.22, -1.02 1418.4" stroke="#1e1e1e" stroke-width="2" fill="none"></path></g></g><mask></mask><g transform="translate(-30.50876650189207 720.2254322648956) rotate(270 70.3125 12)"><text x="0" y="0" font-family="monospace" font-size="20px" fill="#1e1e1e" text-anchor="start" style="white-space: pre;" direction="ltr" dominant-baseline="text-before-edge">Global scope</text></g><g transform="translate(98.75403817344818 28.194164132218475) rotate(0 322.265625 12)"><text x="0" y="0" font-family="monospace" font-size="20px" fill="#868e96" text-anchor="start" style="white-space: pre;" direction="ltr" dominant-baseline="text-before-edge"># Build arguments declared here are in the global scope</text></g><g transform="translate(98.75403817344818 61.069164132218475) rotate(0 216.796875 12)"><text x="0" y="0" font-family="monospace" font-size="20px" fill="#1e1e1e" text-anchor="start" style="white-space: pre;" direction="ltr" dominant-baseline="text-before-edge">ARG GLOBAL_ARG="global default value"</text></g><g transform="translate(99.15768400678144 94.23322663221848) rotate(0 105.46875 12)"><text x="0" y="0" font-family="monospace" font-size="20px" fill="#1e1e1e" text-anchor="start" style="white-space: pre;" direction="ltr" dominant-baseline="text-before-edge">ARG VERSION="3.19"</text></g><g transform="translate(98.75403817344818 138.37052499260426) rotate(0 357.421875 12)"><text x="0" y="0" font-family="monospace" font-size="20px" fill="#868e96" text-anchor="start" style="white-space: pre;" direction="ltr" dominant-baseline="text-before-edge"># You can't declare environment variables in the global scope</text></g><g transform="translate(98.75403817344818 171.24552499260426) rotate(0 117.1875 12)"><text x="0" y="0" font-family="monospace" font-size="20px" fill="#1e1e1e" text-anchor="start" style="white-space: pre;" direction="ltr" dominant-baseline="text-before-edge">ENV GLOBAL_ENV=false</text></g><g stroke-linecap="round"><g transform="translate(96.71975251551498 199.24591157364756) rotate(0 10.875622044046054 1.871948995827239)"><path d="M-0.11 -0.2 C0.54 0.52, 2.86 4.62, 4.45 4.6 C6.05 4.59, 8.05 -0.28, 9.46 -0.26 C10.87 -0.25, 11.68 4.72, 12.91 4.71 C14.14 4.71, 15.32 -0.3, 16.84 -0.32 C18.36 -0.33, 21.28 3.92, 22.04 4.63 M0.83 -0.78 C1.37 -0.25, 2.61 3.81, 4.03 3.76 C5.45 3.7, 7.83 -1.08, 9.33 -1.09 C10.84 -1.1, 11.94 3.55, 13.07 3.72 C14.21 3.88, 14.82 -0.18, 16.17 -0.09 C17.51 -0.01, 20.28 3.43, 21.16 4.23" stroke="#e03131" stroke-width="2" fill="none"></path></g></g><mask></mask><g stroke-linecap="round"><g transform="translate(114.69967078783793 199.19590234429887) rotate(0 10.875622044046054 1.871948995827239)"><path d="M0.02 0.23 C0.85 1.07, 3.36 4.95, 4.88 4.84 C6.39 4.74, 7.8 -0.35, 9.12 -0.41 C10.44 -0.47, 11.47 4.46, 12.81 4.48 C14.14 4.51, 15.7 -0.16, 17.13 -0.25 C18.55 -0.34, 20.61 3.23, 21.36 3.94 M-0.64 -0.13 C0.17 0.58, 3.09 4.31, 4.67 4.12 C6.25 3.92, 7.45 -1.46, 8.82 -1.31 C10.19 -1.16, 11.62 4.81, 12.92 5.03 C14.21 5.25, 15.13 0.04, 16.61 0.01 C18.09 -0.02, 20.92 4.05, 21.8 4.85" stroke="#e03131" stroke-width="2" fill="none"></path></g></g><mask></mask><g stroke-linecap="round"><g transform="translate(150.92972871414293 199.94904082186486) rotate(179.39098195963928 10.875622044045997 1.871948995827239)"><path d="M0.44 0.46 C1.19 1.21, 3.11 4.88, 4.54 4.7 C5.96 4.51, 7.59 -0.61, 9.01 -0.64 C10.44 -0.66, 11.86 4.6, 13.1 4.55 C14.33 4.5, 15.02 -0.85, 16.45 -0.94 C17.87 -1.03, 20.72 3.16, 21.63 4 M0 0.23 C0.69 0.8, 2.71 3.93, 4.16 3.9 C5.6 3.86, 7.13 -0.2, 8.66 0.01 C10.2 0.21, 11.93 5.31, 13.36 5.13 C14.78 4.96, 15.77 -1.01, 17.24 -1.04 C18.71 -1.07, 21.37 3.96, 22.2 4.94" stroke="#e03131" stroke-width="2" fill="none"></path></g></g><mask></mask><g stroke-linecap="round"><g transform="translate(132.85989722751174 199.83301019081188) rotate(179.39098195963928 10.875622044046054 1.871948995827239)"><path d="M0.1 0.32 C0.77 0.99, 2.9 4.62, 4.43 4.47 C5.96 4.32, 7.97 -0.47, 9.3 -0.57 C10.63 -0.67, 11.18 3.91, 12.41 3.86 C13.65 3.81, 15.14 -0.91, 16.72 -0.88 C18.29 -0.85, 21 3.24, 21.87 4.06 M-0.51 0.01 C0.04 0.74, 2.4 3.81, 4 3.55 C5.6 3.29, 7.71 -1.65, 9.1 -1.56 C10.49 -1.47, 10.9 3.99, 12.32 4.09 C13.75 4.19, 15.94 -1.1, 17.65 -0.95 C19.35 -0.79, 21.79 4.08, 22.57 5.03" stroke="#e03131" stroke-width="2" fill="none"></path></g></g><mask></mask><g stroke-linecap="round"><g transform="translate(169.49752467353744 199.16543053706374) rotate(0 10.875622044045997 1.871948995827239)"><path d="M0 0.09 C0.77 0.79, 3.28 4.76, 4.72 4.53 C6.16 4.31, 7.29 -1.16, 8.62 -1.26 C9.95 -1.37, 11.29 3.85, 12.68 3.92 C14.07 3.99, 15.42 -0.83, 16.96 -0.82 C18.49 -0.81, 21.12 3.02, 21.91 4 M-0.67 -0.34 C0.05 0.16, 2.7 3.75, 4.44 3.65 C6.17 3.55, 8.35 -1.03, 9.74 -0.94 C11.12 -0.85, 11.63 4.16, 12.73 4.18 C13.83 4.19, 14.97 -0.98, 16.34 -0.86 C17.72 -0.73, 20.03 4.02, 20.97 4.94" stroke="#e03131" stroke-width="2" fill="none"></path></g></g><mask></mask><g stroke-linecap="round"><g transform="translate(187.47744294586028 199.09498977907566) rotate(0 10.875622044046054 1.871948995827239)"><path d="M0.29 0.16 C0.96 0.78, 2.61 4.07, 4.04 3.84 C5.47 3.62, 7.41 -1.23, 8.89 -1.2 C10.37 -1.18, 11.57 3.93, 12.92 3.98 C14.27 4.03, 15.53 -1.05, 17 -0.88 C18.46 -0.71, 20.92 4.07, 21.71 5.02 M-0.23 -0.24 C0.62 0.42, 3.62 4.37, 5.07 4.27 C6.52 4.17, 7.14 -0.85, 8.48 -0.85 C9.82 -0.85, 11.77 4.28, 13.09 4.27 C14.42 4.25, 14.87 -1.04, 16.41 -0.95 C17.95 -0.85, 21.39 3.94, 22.33 4.83" stroke="#e03131" stroke-width="2" fill="none"></path></g></g><mask></mask><g stroke-linecap="round"><g transform="translate(223.70750087216538 199.54548076066084) rotate(179.39098195963928 10.875622044046054 1.871948995827239)"><path d="M-0.39 -0.54 C0.28 0.09, 2.72 4, 4.31 3.9 C5.9 3.8, 7.69 -1.15, 9.13 -1.14 C10.57 -1.14, 11.69 3.71, 12.97 3.92 C14.24 4.13, 15.33 -0.01, 16.8 0.14 C18.27 0.29, 21.02 4.03, 21.77 4.83 M0.4 0.38 C0.97 1.04, 2.41 4.55, 3.81 4.36 C5.22 4.17, 7.28 -0.73, 8.84 -0.76 C10.4 -0.79, 11.95 4.23, 13.16 4.18 C14.37 4.13, 14.57 -1.12, 16.11 -1.06 C17.66 -1, 21.54 3.6, 22.42 4.54" stroke="#e03131" stroke-width="2" fill="none"></path></g></g><mask></mask><g stroke-linecap="round"><g transform="translate(205.63766938553385 199.93249249730445) rotate(179.39098195963928 10.875622044046054 1.871948995827239)"><path d="M-0.13 -0.48 C0.7 0.27, 3 4.08, 4.55 3.96 C6.1 3.84, 7.8 -1.37, 9.17 -1.2 C10.54 -1.04, 11.49 4.75, 12.77 4.94 C14.05 5.14, 15.43 -0.04, 16.86 -0.05 C18.29 -0.05, 20.46 4.14, 21.33 4.93 M0.81 0.47 C1.61 1.32, 2.83 4.67, 4.18 4.45 C5.53 4.23, 7.46 -0.78, 8.91 -0.85 C10.35 -0.91, 11.65 3.87, 12.86 4.06 C14.08 4.25, 14.72 0.21, 16.2 0.32 C17.68 0.42, 20.7 4.04, 21.76 4.69" stroke="#e03131" stroke-width="2" fill="none"></path></g></g><mask></mask><g stroke-linecap="round"><g transform="translate(241.88135191254798 199.20048715004572) rotate(0 10.875622044045997 1.871948995827239)"><path d="M0.11 -0.42 C0.9 0.31, 3.11 3.86, 4.59 3.9 C6.07 3.94, 7.6 -0.32, 8.98 -0.18 C10.35 -0.04, 11.59 4.71, 12.83 4.75 C14.07 4.79, 14.88 0.06, 16.42 0.05 C17.96 0.05, 21.16 4, 22.09 4.71 M-0.49 0.56 C0.25 1.38, 2.72 4.61, 4.24 4.36 C5.76 4.1, 7.16 -0.87, 8.61 -0.97 C10.06 -1.06, 11.52 3.81, 12.95 3.77 C14.38 3.74, 15.82 -1.29, 17.2 -1.2 C18.58 -1.1, 20.37 3.27, 21.25 4.35" stroke="#e03131" stroke-width="2" fill="none"></path></g></g><mask></mask><g stroke-linecap="round"><g transform="translate(259.8612701848708 199.675156325702) rotate(0 10.875622044046054 1.871948995827239)"><path d="M0.16 -0.48 C0.87 0.41, 2.92 4.91, 4.4 4.93 C5.88 4.94, 7.7 -0.36, 9.04 -0.37 C10.37 -0.38, 11.03 4.82, 12.39 4.85 C13.75 4.89, 15.57 -0.08, 17.18 -0.17 C18.79 -0.26, 21.35 3.57, 22.05 4.31 M-0.43 0.47 C0.2 1.26, 2.42 4.53, 3.94 4.24 C5.47 3.95, 7.31 -1.2, 8.7 -1.25 C10.09 -1.3, 10.95 3.7, 12.28 3.93 C13.62 4.16, 15.21 0.16, 16.69 0.13 C18.17 0.1, 20.38 2.91, 21.17 3.75" stroke="#e03131" stroke-width="2" fill="none"></path></g></g><mask></mask><g stroke-linecap="round"><g transform="translate(296.0913281111759 199.92687650310802) rotate(179.39098195963928 10.875622044046054 1.871948995827239)"><path d="M-0.04 0.55 C0.68 1.42, 3.02 4.87, 4.45 4.74 C5.89 4.6, 7.15 -0.25, 8.59 -0.27 C10.04 -0.29, 11.73 4.68, 13.15 4.63 C14.58 4.58, 15.77 -0.51, 17.14 -0.57 C18.5 -0.64, 20.59 3.32, 21.35 4.24 M-0.72 0.35 C-0.09 1.11, 2.3 4.2, 4.03 3.96 C5.77 3.71, 8.13 -1.04, 9.7 -1.1 C11.26 -1.16, 12.29 3.48, 13.44 3.59 C14.59 3.69, 15.23 -0.49, 16.62 -0.48 C18.01 -0.47, 20.9 2.8, 21.79 3.65" stroke="#e03131" stroke-width="2" fill="none"></path></g></g><mask></mask><g stroke-linecap="round"><g transform="translate(278.02149662454474 200.0255590636262) rotate(179.39098195963928 10.875622044045997 1.871948995827239)"><path d="M0.02 0.36 C0.7 1.07, 2.46 4.98, 4.01 4.84 C5.57 4.7, 7.84 -0.39, 9.36 -0.49 C10.87 -0.6, 11.92 4.25, 13.1 4.23 C14.28 4.21, 15.01 -0.76, 16.44 -0.64 C17.87 -0.51, 20.72 4.15, 21.68 4.96 M-0.63 0.07 C0.22 0.87, 3.39 4.36, 5.03 4.11 C6.67 3.86, 7.8 -1.53, 9.19 -1.44 C10.58 -1.35, 12.03 4.5, 13.37 4.65 C14.71 4.79, 15.75 -0.59, 17.23 -0.58 C18.72 -0.56, 21.65 3.78, 22.29 4.74" stroke="#e03131" stroke-width="2" fill="none"></path></g></g><mask></mask><g stroke-linecap="round"><g transform="translate(314.65912407057044 199.32697384617302) rotate(0 10.875622044046054 1.871948995827239)"><path d="M-0.42 0.46 C0.37 1.17, 3.16 4.84, 4.78 4.61 C6.4 4.39, 8.04 -0.82, 9.31 -0.89 C10.58 -0.97, 11.17 4, 12.41 4.16 C13.65 4.33, 15.14 0.07, 16.77 0.08 C18.4 0.1, 21.3 3.51, 22.21 4.25 M0.36 0.22 C1.11 0.73, 3.06 3.87, 4.52 3.77 C5.98 3.67, 7.81 -0.51, 9.11 -0.38 C10.41 -0.25, 11.16 4.68, 12.32 4.55 C13.47 4.42, 14.55 -1, 16.06 -1.15 C17.58 -1.3, 20.58 2.82, 21.42 3.67" stroke="#e03131" stroke-width="2" fill="none"></path></g></g><mask></mask><g transform="translate(153.889524612174 968.3053802939692) rotate(0 263.671875 12)"><text x="0" y="0" font-family="monospace" font-size="20px" fill="#868e96" text-anchor="start" style="white-space: pre;" direction="ltr" dominant-baseline="text-before-edge"># GLOBAL_ARG was not redeclared in this stage</text></g><g transform="translate(155.79056627884052 1001.2530445209427) rotate(0 117.1875 12)"><text x="0" y="0" font-family="monospace" font-size="20px" fill="#1e1e1e" text-anchor="start" style="white-space: pre;" direction="ltr" dominant-baseline="text-before-edge">RUN echo $GLOBAL_ARG</text></g><g stroke-linecap="round"><g transform="translate(154.4533933542814 1030.0620223560434) rotate(0 10.875622044046054 1.8719489958272106)"><path d="M-0.47 -0.23 C0.3 0.35, 3 3.88, 4.56 3.83 C6.13 3.79, 7.6 -0.52, 8.92 -0.51 C10.24 -0.49, 11.17 3.93, 12.48 3.93 C13.79 3.92, 15.19 -0.55, 16.78 -0.53 C18.36 -0.5, 21.24 3.21, 22 4.05 M0.28 -0.82 C1.01 -0.23, 2.82 4.36, 4.2 4.25 C5.57 4.15, 7.16 -1.45, 8.53 -1.46 C9.9 -1.47, 11.16 4.02, 12.42 4.19 C13.68 4.36, 14.63 -0.55, 16.07 -0.41 C17.52 -0.27, 20.21 4.3, 21.11 5.02" stroke="#fab005" stroke-width="2" fill="none"></path></g></g><mask></mask><g stroke-linecap="round"><g transform="translate(172.43331162660434 1030.0120131266947) rotate(0 10.875622044046054 1.8719489958272106)"><path d="M0.13 -0.54 C0.93 0.26, 2.92 4.71, 4.34 4.6 C5.77 4.49, 7.28 -1.14, 8.69 -1.2 C10.09 -1.25, 11.34 4.21, 12.74 4.27 C14.15 4.34, 15.66 -0.87, 17.09 -0.83 C18.52 -0.79, 20.55 3.65, 21.35 4.52 M-0.47 0.37 C0.29 1.02, 2.15 3.95, 3.86 3.75 C5.58 3.55, 8.34 -1, 9.83 -0.84 C11.33 -0.68, 11.7 4.72, 12.82 4.72 C13.94 4.71, 15.06 -0.76, 16.55 -0.87 C18.04 -0.98, 20.84 3.3, 21.78 4.06" stroke="#fab005" stroke-width="2" fill="none"></path></g></g><mask></mask><g stroke-linecap="round"><g transform="translate(208.66336955290933 1030.7651516042604) rotate(179.39098195963928 10.875622044045997 1.8719489958272106)"><path d="M-0.09 0.22 C0.57 0.97, 2.6 4.09, 4.1 3.91 C5.61 3.73, 7.46 -0.86, 8.95 -0.85 C10.44 -0.84, 11.81 3.89, 13.06 3.97 C14.31 4.05, 14.97 -0.43, 16.44 -0.36 C17.9 -0.3, 21.01 3.56, 21.85 4.37 M-0.8 -0.14 C0.02 0.7, 3.61 4.4, 5.17 4.37 C6.73 4.34, 7.21 -0.29, 8.57 -0.31 C9.93 -0.33, 11.86 4.23, 13.3 4.26 C14.74 4.28, 15.68 -0.09, 17.22 -0.16 C18.77 -0.23, 21.81 3.16, 22.55 3.84" stroke="#fab005" stroke-width="2" fill="none"></path></g></g><mask></mask><g stroke-linecap="round"><g transform="translate(190.59353806627814 1030.6491209732073) rotate(179.39098195963928 10.875622044046054 1.8719489958272106)"><path d="M-0.33 -0.47 C0.41 0.21, 2.77 4.37, 4.37 4.26 C5.97 4.14, 7.93 -1.18, 9.27 -1.15 C10.61 -1.12, 11.12 4.33, 12.4 4.44 C13.68 4.55, 15.43 -0.52, 16.94 -0.51 C18.46 -0.5, 20.81 3.68, 21.52 4.5 M0.5 0.48 C1.18 1.22, 2.48 5.1, 3.91 4.9 C5.33 4.69, 7.65 -0.78, 9.05 -0.77 C10.45 -0.76, 11.1 4.9, 12.31 4.96 C13.52 5.03, 14.71 -0.23, 16.33 -0.39 C17.95 -0.54, 21.23 3.35, 22.04 4.03" stroke="#fab005" stroke-width="2" fill="none"></path></g></g><mask></mask><g stroke-linecap="round"><g transform="translate(227.23116551230385 1029.9815413194594) rotate(0 10.875622044045997 1.8719489958272106)"><path d="M-0.06 -0.12 C0.77 0.62, 3.24 4.05, 4.68 3.96 C6.13 3.86, 7.24 -0.74, 8.61 -0.68 C9.98 -0.63, 11.58 4.24, 12.91 4.29 C14.25 4.34, 15.23 -0.39, 16.61 -0.38 C17.99 -0.37, 20.35 3.49, 21.21 4.37 M-0.76 -0.66 C0.05 0.18, 2.63 4.34, 4.38 4.44 C6.13 4.54, 8.27 -0.11, 9.72 -0.06 C11.17 -0.01, 11.78 4.76, 13.08 4.74 C14.37 4.72, 16.07 -0.04, 17.48 -0.19 C18.9 -0.34, 20.8 3.06, 21.57 3.84" stroke="#fab005" stroke-width="2" fill="none"></path></g></g><mask></mask><g stroke-linecap="round"><g transform="translate(245.21108378462668 1029.9111005614711) rotate(0 10.875622044046054 1.8719489958272106)"><path d="M0.25 -0.42 C0.93 0.33, 2.55 4.49, 4.03 4.42 C5.51 4.35, 7.7 -0.83, 9.12 -0.83 C10.54 -0.83, 11.38 4.36, 12.58 4.42 C13.77 4.47, 14.76 -0.59, 16.3 -0.51 C17.83 -0.43, 20.78 4.03, 21.78 4.91 M-0.29 0.55 C0.57 1.41, 3.54 5.28, 5.06 5.14 C6.57 5, 7.57 -0.25, 8.82 -0.29 C10.08 -0.32, 11.2 4.95, 12.57 4.93 C13.93 4.92, 15.37 -0.34, 17.01 -0.38 C18.66 -0.43, 21.74 3.87, 22.43 4.66" stroke="#fab005" stroke-width="2" fill="none"></path></g></g><mask></mask><g stroke-linecap="round"><g transform="translate(281.4411417109318 1030.3615915430566) rotate(179.39098195963928 10.875622044046054 1.8719489958272106)"><path d="M-0.4 0.04 C0.31 0.83, 3.01 4.4, 4.54 4.27 C6.07 4.15, 7.5 -0.71, 8.78 -0.7 C10.07 -0.7, 10.92 4.17, 12.27 4.29 C13.61 4.41, 15.2 -0.05, 16.87 0.03 C18.53 0.11, 21.51 4.05, 22.28 4.78 M0.39 -0.41 C1.02 0.49, 2.84 4.86, 4.16 4.92 C5.48 4.97, 6.99 -0.06, 8.32 -0.09 C9.64 -0.12, 10.78 4.93, 12.1 4.74 C13.41 4.55, 14.64 -1.19, 16.21 -1.23 C17.78 -1.28, 20.62 3.63, 21.53 4.46" stroke="#fab005" stroke-width="2" fill="none"></path></g></g><mask></mask><g stroke-linecap="round"><g transform="translate(263.37131022430026 1030.7486032796999) rotate(179.39098195963928 10.875622044046054 1.8719489958272106)"><path d="M0.1 -0.11 C0.87 0.62, 2.81 4.52, 4.2 4.4 C5.6 4.28, 7.03 -0.9, 8.47 -0.83 C9.91 -0.76, 11.35 4.71, 12.83 4.83 C14.32 4.95, 15.93 -0.02, 17.37 -0.1 C18.81 -0.18, 20.78 3.64, 21.49 4.37 M-0.51 -0.64 C0.2 0.18, 1.98 5.05, 3.65 5.11 C5.32 5.17, 7.96 -0.08, 9.51 -0.29 C11.06 -0.49, 11.72 3.8, 12.96 3.89 C14.2 3.98, 15.47 0.24, 16.97 0.23 C18.48 0.23, 21.19 3.01, 21.99 3.85" stroke="#fab005" stroke-width="2" fill="none"></path></g></g><mask></mask><g stroke-linecap="round"><g transform="translate(299.6149927513144 1030.0165979324413) rotate(0 10.875622044045997 1.8719489958272106)"><path d="M-0.23 0.02 C0.4 0.75, 2.35 4.33, 3.89 4.28 C5.44 4.22, 7.47 -0.36, 9.04 -0.29 C10.62 -0.22, 12.08 4.73, 13.34 4.7 C14.59 4.66, 15.2 -0.44, 16.58 -0.5 C17.95 -0.57, 20.68 3.39, 21.59 4.31 M0.65 -0.44 C1.43 0.38, 3.5 5.04, 4.85 4.92 C6.19 4.81, 7.5 -0.93, 8.71 -1.14 C9.91 -1.34, 10.6 3.57, 12.06 3.69 C13.51 3.82, 15.75 -0.39, 17.44 -0.38 C19.12 -0.37, 21.31 2.91, 22.14 3.76" stroke="#fab005" stroke-width="2" fill="none"></path></g></g><mask></mask><g stroke-linecap="round"><g transform="translate(317.5949110236372 1030.4912671080976) rotate(0 10.875622044046054 1.8719489958272106)"><path d="M-0.54 -0.1 C0.24 0.69, 2.78 4.87, 4.46 4.81 C6.14 4.76, 8.2 -0.34, 9.54 -0.42 C10.89 -0.51, 11.36 4.32, 12.54 4.3 C13.73 4.27, 15.1 -0.69, 16.68 -0.56 C18.25 -0.44, 21.12 4.24, 22.01 5.02 M0.18 -0.63 C0.91 0.02, 2.49 4.19, 4.04 4.07 C5.59 3.95, 8.05 -1.45, 9.47 -1.33 C10.88 -1.22, 11.17 4.6, 12.52 4.75 C13.87 4.89, 16.15 -0.48, 17.59 -0.47 C19.02 -0.46, 20.31 3.92, 21.12 4.83" stroke="#fab005" stroke-width="2" fill="none"></path></g></g><mask></mask><g stroke-linecap="round"><g transform="translate(353.82496894994233 1030.7429872855034) rotate(179.39098195963928 10.875622044046054 1.8719489958272106)"><path d="M0.02 0.43 C0.94 1.23, 3.51 4.89, 4.96 4.68 C6.42 4.47, 7.47 -0.75, 8.75 -0.83 C10.03 -0.9, 11.25 4.07, 12.64 4.24 C14.04 4.4, 15.53 0.16, 17.1 0.14 C18.66 0.12, 21.35 3.33, 22.03 4.11 M-0.63 0.18 C0.31 0.83, 3.32 3.95, 4.8 3.87 C6.29 3.8, 6.95 -0.41, 8.27 -0.28 C9.58 -0.15, 11.29 4.79, 12.67 4.65 C14.05 4.52, 15.15 -1.14, 16.56 -1.07 C17.98 -0.99, 20.38 4.21, 21.16 5.11" stroke="#fab005" stroke-width="2" fill="none"></path></g></g><mask></mask><g stroke-linecap="round"><g transform="translate(335.75513746331114 1030.8416698460217) rotate(179.39098195963928 10.875622044045997 1.8719489958272106)"><path d="M0.53 0.3 C1.22 0.94, 2.78 4.48, 4.17 4.28 C5.56 4.08, 7.37 -1, 8.85 -0.89 C10.33 -0.78, 11.69 4.92, 13.07 4.94 C14.45 4.96, 15.77 -0.74, 17.12 -0.77 C18.48 -0.8, 20.4 3.92, 21.2 4.78 M0.14 -0.02 C1.01 0.67, 3.89 4.99, 5.27 4.93 C6.65 4.87, 7.08 -0.23, 8.42 -0.37 C9.76 -0.52, 11.95 4.13, 13.31 4.06 C14.68 3.99, 15.23 -0.85, 16.6 -0.78 C17.98 -0.71, 20.61 3.71, 21.56 4.47" stroke="#fab005" stroke-width="2" fill="none"></path></g></g><mask></mask><g stroke-linecap="round"><g transform="translate(372.39276490933685 1030.1430846285687) rotate(0 10.875622044046054 1.8719489958272106)"><path d="M-0.27 -0.1 C0.36 0.55, 2.68 4.23, 4.27 4.22 C5.86 4.2, 7.8 -0.15, 9.27 -0.18 C10.74 -0.21, 11.92 4.02, 13.09 4.03 C14.26 4.05, 14.82 -0.16, 16.29 -0.1 C17.76 -0.03, 20.94 3.72, 21.93 4.4 M0.6 -0.63 C1.09 0.08, 2.34 4.89, 3.75 4.84 C5.16 4.78, 7.46 -0.89, 9.06 -0.97 C10.66 -1.05, 12.03 4.15, 13.35 4.35 C14.67 4.55, 15.73 0.32, 17 0.24 C18.28 0.16, 20.32 3.13, 20.99 3.89" stroke="#fab005" stroke-width="2" fill="none"></path></g></g><mask></mask><g transform="translate(153.79679393652805 1061.8771925019407) rotate(0 205.078125 12)"><text x="0" y="0" font-family="monospace" font-size="20px" fill="#868e96" text-anchor="start" style="white-space: pre;" direction="ltr" dominant-baseline="text-before-edge"># LOCAL_ARG was declared in stage-a</text></g><g transform="translate(157.70304393652782 1093.5585237631292) rotate(0 111.328125 12)"><text x="0" y="0" font-family="monospace" font-size="20px" fill="#1e1e1e" text-anchor="start" style="white-space: pre;" direction="ltr" dominant-baseline="text-before-edge">RUN echo $LOCAL_ARG</text></g><g stroke-linecap="round"><g transform="translate(157.51652935521463 1122.345486074279) rotate(0 10.875622044045997 1.8719489958272106)"><path d="M-0.05 -0.39 C0.74 0.16, 3.02 3.95, 4.45 3.85 C5.89 3.75, 7.1 -1.15, 8.55 -1.01 C9.99 -0.86, 11.71 4.61, 13.12 4.72 C14.53 4.84, 15.58 -0.2, 17 -0.32 C18.43 -0.44, 20.98 3.12, 21.68 4 M-0.74 0.6 C0.01 1.43, 2.3 4.47, 4.03 4.27 C5.76 4.08, 8.07 -0.46, 9.62 -0.55 C11.18 -0.64, 12.25 3.65, 13.39 3.73 C14.52 3.8, 14.94 -0.3, 16.42 -0.1 C17.9 0.11, 21.49 4.16, 22.29 4.95" stroke="#fab005" stroke-width="2" fill="none"></path></g></g><mask></mask><g stroke-linecap="round"><g transform="translate(175.49644762753758 1122.2954768449304) rotate(0 10.875622044045997 1.8719489958272106)"><path d="M0.02 -0.53 C0.69 0.22, 2.42 4.08, 3.97 4.1 C5.52 4.12, 7.82 -0.47, 9.32 -0.4 C10.83 -0.34, 11.73 4.56, 12.97 4.48 C14.21 4.4, 15.4 -0.96, 16.77 -0.87 C18.14 -0.79, 20.34 4.05, 21.21 4.99 M-0.64 0.39 C0.2 1.24, 3.33 4.94, 4.96 4.66 C6.59 4.38, 7.77 -1.36, 9.13 -1.3 C10.5 -1.24, 12.01 4.96, 13.17 5.02 C14.32 5.09, 14.66 -0.9, 16.07 -0.94 C17.47 -0.98, 20.52 3.91, 21.58 4.79" stroke="#fab005" stroke-width="2" fill="none"></path></g></g><mask></mask><g stroke-linecap="round"><g transform="translate(211.72650555384257 1123.0486153224965) rotate(179.39098195963928 10.875622044046054 1.8719489958272106)"><path d="M-0.47 -0.28 C0.32 0.59, 3.13 4.77, 4.74 4.7 C6.35 4.64, 7.85 -0.51, 9.18 -0.64 C10.51 -0.77, 11.55 3.8, 12.74 3.93 C13.93 4.05, 14.76 -0.03, 16.3 0.12 C17.84 0.26, 21.03 4.06, 22 4.78 M0.29 0.77 C1.03 1.53, 3.03 4.03, 4.47 3.91 C5.91 3.78, 7.52 -0.05, 8.92 0 C10.31 0.05, 11.46 4.37, 12.81 4.19 C14.17 4, 15.64 -1.15, 17.02 -1.1 C18.4 -1.06, 20.18 3.65, 21.1 4.47" stroke="#fab005" stroke-width="2" fill="none"></path></g></g><mask></mask><g stroke-linecap="round"><g transform="translate(193.65667406721138 1122.9325846914435) rotate(179.39098195963928 10.875622044045997 1.8719489958272106)"><path d="M0.31 0.33 C1.15 1.12, 3.16 4.72, 4.6 4.46 C6.04 4.21, 7.67 -1.27, 8.95 -1.2 C10.22 -1.12, 10.91 4.73, 12.27 4.92 C13.62 5.1, 15.45 -0.01, 17.09 -0.09 C18.72 -0.17, 21.27 3.76, 22.08 4.43 M-0.2 0.02 C0.63 0.93, 2.79 5.35, 4.25 5.21 C5.71 5.06, 7.25 -0.64, 8.56 -0.84 C9.87 -1.04, 10.77 3.84, 12.1 4.02 C13.43 4.2, 15.02 0.26, 16.54 0.25 C18.06 0.23, 20.25 3.19, 21.22 3.94" stroke="#fab005" stroke-width="2" fill="none"></path></g></g><mask></mask><g stroke-linecap="round"><g transform="translate(230.2943015132371 1122.2650050376951) rotate(0 10.875622044046054 1.8719489958272106)"><path d="M0.16 0.08 C0.84 0.68, 2.98 3.96, 4.36 3.91 C5.75 3.86, 7.03 -0.34, 8.48 -0.21 C9.92 -0.07, 11.6 4.75, 13.05 4.71 C14.5 4.67, 15.68 -0.32, 17.17 -0.44 C18.65 -0.56, 21.2 3.2, 21.96 3.98 M-0.42 -0.35 C0.16 0.27, 2.24 4.48, 3.9 4.37 C5.55 4.26, 7.95 -0.9, 9.51 -1.01 C11.08 -1.12, 12.1 3.59, 13.29 3.71 C14.48 3.83, 15.37 -0.48, 16.67 -0.28 C17.96 -0.08, 20.16 4.01, 21.04 4.92" stroke="#fab005" stroke-width="2" fill="none"></path></g></g><mask></mask><g stroke-linecap="round"><g transform="translate(248.27421978555992 1122.1945642797073) rotate(0 10.875622044045997 1.8719489958272106)"><path d="M-0.07 -0.47 C0.55 0.33, 2.34 4.89, 3.89 4.9 C5.45 4.91, 7.72 -0.32, 9.26 -0.41 C10.8 -0.5, 11.84 4.44, 13.14 4.36 C14.43 4.28, 15.62 -0.88, 17.05 -0.9 C18.48 -0.92, 20.99 3.38, 21.72 4.22 M-0.77 0.48 C0 1.13, 3.22 4.5, 4.85 4.2 C6.48 3.9, 7.61 -1.43, 9.04 -1.32 C10.47 -1.21, 12.17 4.78, 13.42 4.84 C14.66 4.9, 15 -1.05, 16.49 -0.97 C17.97 -0.9, 21.5 4.29, 22.34 5.28" stroke="#fab005" stroke-width="2" fill="none"></path></g></g><mask></mask><g stroke-linecap="round"><g transform="translate(284.50427771186503 1122.6450552612923) rotate(179.39098195963928 10.875622044045997 1.8719489958272106)"><path d="M-0.54 0.52 C0.25 1.38, 3.03 4.91, 4.68 4.69 C6.33 4.48, 7.95 -0.63, 9.34 -0.77 C10.73 -0.9, 11.77 3.88, 13.02 3.9 C14.26 3.92, 15.41 -0.69, 16.81 -0.66 C18.21 -0.62, 20.63 3.21, 21.42 4.12 M0.18 0.31 C0.93 1.05, 2.88 3.97, 4.37 3.89 C5.87 3.8, 7.68 -0.23, 9.16 -0.18 C10.64 -0.14, 12.08 4.22, 13.24 4.15 C14.4 4.08, 14.68 -0.77, 16.12 -0.61 C17.56 -0.44, 20.96 4.31, 21.89 5.13" stroke="#fab005" stroke-width="2" fill="none"></path></g></g><mask></mask><g stroke-linecap="round"><g transform="translate(266.4344462252335 1123.032066997936) rotate(179.39098195963928 10.875622044045997 1.8719489958272106)"><path d="M0.24 0.31 C1.13 0.95, 3.26 4.6, 4.76 4.34 C6.26 4.09, 7.89 -1.19, 9.22 -1.22 C10.56 -1.25, 11.56 4.07, 12.78 4.14 C13.99 4.22, 15.05 -0.86, 16.51 -0.75 C17.97 -0.65, 20.57 3.89, 21.53 4.79 M-0.29 0 C0.59 0.96, 2.95 5.17, 4.5 5.02 C6.04 4.88, 7.59 -0.79, 8.98 -0.88 C10.38 -0.96, 11.48 4.5, 12.87 4.52 C14.26 4.54, 15.8 -0.75, 17.33 -0.76 C18.86 -0.76, 21.43 3.66, 22.05 4.48" stroke="#fab005" stroke-width="2" fill="none"></path></g></g><mask></mask><g stroke-linecap="round"><g transform="translate(302.67812875224763 1122.300061650677) rotate(0 10.875622044046054 1.8719489958272106)"><path d="M-0.49 0.1 C0.19 0.76, 2.8 4.43, 4.36 4.33 C5.92 4.22, 7.46 -0.6, 8.86 -0.55 C10.25 -0.51, 11.35 4.52, 12.72 4.6 C14.09 4.68, 15.62 -0.09, 17.06 -0.06 C18.49 -0.03, 20.49 4.05, 21.34 4.79 M0.26 -0.32 C0.84 0.4, 2.53 5.2, 3.89 5 C5.25 4.8, 6.94 -1.56, 8.43 -1.53 C9.91 -1.49, 11.44 4.9, 12.79 5.21 C14.13 5.51, 15 0.42, 16.5 0.3 C18 0.18, 21.02 3.91, 21.77 4.48" stroke="#fab005" stroke-width="2" fill="none"></path></g></g><mask></mask><g stroke-linecap="round"><g transform="translate(320.65804702457046 1122.7747308263333) rotate(0 10.875622044045997 1.8719489958272106)"><path d="M-0.08 -0.05 C0.72 0.69, 2.78 4.63, 4.28 4.56 C5.78 4.48, 7.47 -0.56, 8.93 -0.52 C10.39 -0.49, 11.78 4.67, 13.03 4.74 C14.28 4.82, 14.9 -0.03, 16.43 -0.08 C17.95 -0.14, 21.24 3.68, 22.17 4.39 M-0.78 -0.56 C-0.03 0.01, 2.21 3.83, 3.76 3.68 C5.32 3.53, 6.95 -1.5, 8.54 -1.49 C10.12 -1.47, 11.8 3.47, 13.25 3.76 C14.7 4.05, 15.86 0.24, 17.21 0.26 C18.56 0.28, 20.49 3.07, 21.36 3.88" stroke="#fab005" stroke-width="2" fill="none"></path></g></g><mask></mask><g stroke-linecap="round"><g transform="translate(356.8881049508756 1123.0264510037396) rotate(179.39098195963928 10.875622044045997 1.8719489958272106)"><path d="M-0.16 0.18 C0.58 0.95, 2.78 4.67, 4.35 4.58 C5.91 4.49, 7.89 -0.4, 9.23 -0.38 C10.58 -0.36, 11.06 4.73, 12.4 4.72 C13.73 4.7, 15.65 -0.4, 17.26 -0.48 C18.86 -0.57, 21.27 3.44, 22.03 4.18 M0.76 -0.21 C1.43 0.4, 2.5 3.9, 3.87 3.72 C5.24 3.54, 7.59 -1.27, 9 -1.27 C10.4 -1.27, 11 3.56, 12.3 3.72 C13.6 3.87, 15.33 -0.6, 16.8 -0.35 C18.28 -0.1, 20.27 4.37, 21.14 5.23" stroke="#fab005" stroke-width="2" fill="none"></path></g></g><mask></mask><g stroke-linecap="round"><g transform="translate(338.8182734642444 1123.1251335642578) rotate(179.39098195963928 10.875622044046054 1.8719489958272106)"><path d="M-0.09 0.2 C0.71 0.96, 3.2 4.83, 4.65 4.73 C6.1 4.62, 7.17 -0.34, 8.6 -0.41 C10.03 -0.48, 11.81 4.36, 13.23 4.32 C14.64 4.27, 15.69 -0.64, 17.12 -0.69 C18.54 -0.75, 21.03 3.09, 21.77 3.99 M-0.8 -0.17 C-0.03 0.42, 2.58 4.13, 4.33 3.94 C6.08 3.75, 8.17 -1.45, 9.71 -1.31 C11.25 -1.17, 12.41 4.67, 13.55 4.78 C14.7 4.88, 15.11 -0.69, 16.59 -0.66 C18.06 -0.64, 21.56 4.12, 22.42 4.93" stroke="#fab005" stroke-width="2" fill="none"></path></g></g><mask></mask><g stroke-linecap="round" transform="translate(86.16203204724468 804.2740687105547) rotate(0 448.5219508046551 174.28500452423054)"><path d="M32 0 C351.79 3.61, 670.37 4.07, 865.04 0 M32 0 C264.12 0.05, 497.17 -0.3, 865.04 0 M865.04 0 C887.9 1.3, 896 12.03, 897.04 32 M865.04 0 C886.5 -0.3, 894.88 8.63, 897.04 32 M897.04 32 C897.48 97.41, 896.15 162.77, 897.04 316.57 M897.04 32 C897.07 92.06, 898.22 151.82, 897.04 316.57 M897.04 316.57 C897.58 336.71, 885.78 349.31, 865.04 348.57 M897.04 316.57 C895.85 339.4, 886.2 349.25, 865.04 348.57 M865.04 348.57 C629.97 345.86, 394.81 345.06, 32 348.57 M865.04 348.57 C550.26 351.01, 235.39 351.14, 32 348.57 M32 348.57 C12.01 348.62, -1.4 339.54, 0 316.57 M32 348.57 C9.95 348.14, 1.47 336.58, 0 316.57 M0 316.57 C1.5 240.72, 0.39 162.93, 0 32 M0 316.57 C-2.39 251.36, -1.66 184.74, 0 32 M0 32 C-1.31 10.19, 12.61 -0.29, 32 0 M0 32 C2.12 9.49, 8.94 1.64, 32 0" stroke="#1e1e1e" stroke-width="2" fill="none"></path></g><g stroke-linecap="round"><g transform="translate(133.52793683734149 806.7575385411618) rotate(0 -5.684341886080802e-14 172.8749189001423)"><path d="M0.47 0.38 C0.86 57.78, 1.3 287.92, 1.16 345.5 M-0.74 -0.46 C-0.3 57.64, 0.92 288.95, 0.82 346.9" stroke="#1e1e1e" stroke-width="2" fill="none"></path></g></g><mask></mask><g transform="translate(67.32218829724457 970.1031840213891) rotate(270 41.015625 12)"><text x="0" y="0" font-family="monospace" font-size="20px" fill="#1e1e1e" text-anchor="start" style="white-space: pre;" direction="ltr" dominant-baseline="text-before-edge">stage-b</text></g><g transform="translate(96.36391449189273 760.7606572486847) rotate(0 345.703125 12)"><text x="0" y="0" font-family="monospace" font-size="20px" fill="#1e1e1e" text-anchor="start" style="white-space: pre;" direction="ltr" dominant-baseline="text-before-edge">FROM --platform=$BUILDPLATFORM alpine:${VERSION} as stage-b</text></g><g stroke-linecap="round" transform="translate(90.36051876314593 305.3363422867699) rotate(0 450.0057524190432 185.89722333765815)"><path d="M32 0 C253.07 3.22, 475.72 3.73, 868.01 0 M32 0 C233.37 1.81, 434.09 1.91, 868.01 0 M868.01 0 C887.69 -1.83, 901.11 9.33, 900.01 32 M868.01 0 C890.95 0.42, 900.56 8.62, 900.01 32 M900.01 32 C899.04 106.43, 897.5 182.87, 900.01 339.79 M900.01 32 C900.22 153.56, 899.21 274.98, 900.01 339.79 M900.01 339.79 C901.08 362.67, 891.34 372.8, 868.01 371.79 M900.01 339.79 C899.93 360.28, 891.52 371.48, 868.01 371.79 M868.01 371.79 C546.1 368.69, 225.94 369.31, 32 371.79 M868.01 371.79 C547.75 370.12, 226.36 370.2, 32 371.79 M32 371.79 C11.81 373.14, 1.09 359.41, 0 339.79 M32 371.79 C12.32 372.28, 1.7 362.47, 0 339.79 M0 339.79 C1.67 267.75, 2.33 193.59, 0 32 M0 339.79 C-0.74 227.48, -0.24 115.43, 0 32 M0 32 C0.1 8.85, 11.2 -1.29, 32 0 M0 32 C0.24 10.87, 11.99 -0.62, 32 0" stroke="#1e1e1e" stroke-width="2" fill="none"></path></g><g stroke-linecap="round"><g transform="translate(137.72642355324274 304.9262584799999) rotate(0 0 185.052722866983)"><path d="M0.02 0.26 C0.34 62, 0.8 307.84, 0.78 369.39 M-1.44 -0.65 C-1.1 61.32, 0.15 308.68, 0.24 370.55" stroke="#1e1e1e" stroke-width="2" fill="none"></path></g></g><mask></mask><g transform="translate(72.28855765490334 484.2163361370194) rotate(270 41.015625 12)"><text x="0" y="0" font-family="monospace" font-size="20px" fill="#1e1e1e" text-anchor="start" style="white-space: pre;" direction="ltr" dominant-baseline="text-before-edge">stage-a</text></g><g transform="translate(95.722270550536 232.87221790524399) rotate(0 410.15625 12)"><text x="0" y="0" font-family="monospace" font-size="20px" fill="#868e96" text-anchor="start" style="white-space: pre;" direction="ltr" dominant-baseline="text-before-edge"># FROM-lines belong to the global scope and have access to global ARGs</text></g><g transform="translate(97.23013381272517 266.4822695378388) rotate(0 193.359375 12)"><text x="0" y="0" font-family="monospace" font-size="20px" fill="#1e1e1e" text-anchor="start" style="white-space: pre;" direction="ltr" dominant-baseline="text-before-edge">FROM alpine:${VERSION} as stage-a</text></g><g transform="translate(160.8094110936372 327.94112834784005) rotate(0 398.4375 12)"><text x="0" y="0" font-family="monospace" font-size="20px" fill="#868e96" text-anchor="start" style="white-space: pre;" direction="ltr" dominant-baseline="text-before-edge"># Redeclaring GLOBAL_ARG without a value inherits the global default</text></g><g transform="translate(162.2978888321311 359.7027312066824) rotate(0 82.03125 12)"><text x="0" y="0" font-family="monospace" font-size="20px" fill="#1e1e1e" text-anchor="start" style="white-space: pre;" direction="ltr" dominant-baseline="text-before-edge">ARG GLOBAL_ARG</text></g><g transform="translate(162.1833846676236 637.7797382867685) rotate(0 117.1875 12)"><text x="0" y="0" font-family="monospace" font-size="20px" fill="#1e1e1e" text-anchor="start" style="white-space: pre;" direction="ltr" dominant-baseline="text-before-edge">RUN echo $GLOBAL_ARG</text></g><g transform="translate(158.27871581681643 401.0411395379771) rotate(0 269.53125 12)"><text x="0" y="0" font-family="monospace" font-size="20px" fill="#868e96" text-anchor="start" style="white-space: pre;" direction="ltr" dominant-baseline="text-before-edge"># ARG here this scope creates a local argument</text></g><g transform="translate(160.17975748348294 433.10133271660504) rotate(0 210.9375 12)"><text x="0" y="0" font-family="monospace" font-size="20px" fill="#1e1e1e" text-anchor="start" style="white-space: pre;" direction="ltr" dominant-baseline="text-before-edge">ARG LOCAL_ARG="local arg in stage-a"</text></g><g transform="translate(158.27871581681643 480.5488444213912) rotate(0 251.953125 12)"><text x="0" y="0" font-family="monospace" font-size="20px" fill="#868e96" text-anchor="start" style="white-space: pre;" direction="ltr" dominant-baseline="text-before-edge"># Set an environment variable in this scope</text></g><g transform="translate(160.17975748348294 510.61994138181205) rotate(0 105.46875 12)"><text x="0" y="0" font-family="monospace" font-size="20px" fill="#1e1e1e" text-anchor="start" style="white-space: pre;" direction="ltr" dominant-baseline="text-before-edge">ENV LOCAL_ENV=true</text></g><g transform="translate(158.27871581681643 551.2419656604121) rotate(0 363.28125 12)"><text x="0" y="0" font-family="monospace" font-size="20px" fill="#868e96" text-anchor="start" style="white-space: pre;" direction="ltr" dominant-baseline="text-before-edge"># Set an environment variable to the value of a build argument</text></g><g transform="translate(158.66387367202674 583.326220486841) rotate(0 123.046875 12)"><text x="0" y="0" font-family="monospace" font-size="20px" fill="#1e1e1e" text-anchor="start" style="white-space: pre;" direction="ltr" dominant-baseline="text-before-edge">ENV MY_VAR=$LOCAL_ARG</text></g><g stroke-linecap="round" transform="translate(91.87640257460168 1257.5483255258505) rotate(0 448.0768103203382 70.16871796463431)"><path d="M32 0 C344.86 1.25, 658.48 1.05, 864.15 0 M32 0 C232.76 2.32, 432.6 2.49, 864.15 0 M864.15 0 C886.73 -0.64, 894.99 11.08, 896.15 32 M864.15 0 C886.02 -0.23, 894.74 12.71, 896.15 32 M896.15 32 C896.74 54.19, 897.02 79.1, 896.15 108.34 M896.15 32 C897.59 59.95, 897.41 88.43, 896.15 108.34 M896.15 108.34 C897.72 130.08, 886.87 141.58, 864.15 140.34 M896.15 108.34 C895.98 128.64, 884.2 139.44, 864.15 140.34 M864.15 140.34 C543.22 139.74, 222.44 139.76, 32 140.34 M864.15 140.34 C558.29 138.23, 252.73 137.75, 32 140.34 M32 140.34 C8.78 138.64, 0.05 130.79, 0 108.34 M32 140.34 C12.59 142.62, 0.77 130.37, 0 108.34 M0 108.34 C1.79 89.03, -0.96 66.8, 0 32 M0 108.34 C1.15 89.79, 0.15 70.96, 0 32 M0 32 C-0.58 11.54, 10.17 0.01, 32 0 M0 32 C-2.02 11.84, 10.18 -0.43, 32 0" stroke="#1e1e1e" stroke-width="2" fill="none"></path></g><g stroke-linecap="round"><g transform="translate(139.2423073646985 1257.6246950342768) rotate(0 0 70.4404739371115)"><path d="M0.77 -1.18 C0.89 22.37, 0.55 116.65, 0.47 140.17 M-0.29 0.81 C-0.26 24.61, -0.22 118, -0.23 141.34" stroke="#1e1e1e" stroke-width="2" fill="none"></path></g></g><mask></mask><g transform="translate(73.03655882460157 1316.7954582743134) rotate(270 41.015625 12)"><text x="0" y="0" font-family="monospace" font-size="20px" fill="#1e1e1e" text-anchor="start" style="white-space: pre;" direction="ltr" dominant-baseline="text-before-edge">stage-c</text></g><g transform="translate(96.22756515435458 1188.2407683246124) rotate(0 175.78125 12)"><text x="0" y="0" font-family="monospace" font-size="20px" fill="#868e96" text-anchor="start" style="white-space: pre;" direction="ltr" dominant-baseline="text-before-edge"># New stage based on "stage-a"</text></g><g transform="translate(97.23815436199197 1221.8508199572072) rotate(0 134.765625 12)"><text x="0" y="0" font-family="monospace" font-size="20px" fill="#1e1e1e" text-anchor="start" style="white-space: pre;" direction="ltr" dominant-baseline="text-before-edge">FROM stage-a AS stage-c</text></g><g transform="translate(161.30668514818876 1280.7546527819427) rotate(0 339.84375 12)"><text x="0" y="0" font-family="monospace" font-size="20px" fill="#868e96" text-anchor="start" style="white-space: pre;" direction="ltr" dominant-baseline="text-before-edge"># Arguments and variables are inherited from parent stages</text></g><g transform="translate(160.17975748348272 1320.0639886026324) rotate(0 111.328125 12)"><text x="0" y="0" font-family="monospace" font-size="20px" fill="#1e1e1e" text-anchor="start" style="white-space: pre;" direction="ltr" dominant-baseline="text-before-edge">RUN echo $LOCAL_ARG</text></g><g transform="translate(160.68505208730153 1353.798418819483) rotate(0 111.328125 12)"><text x="0" y="0" font-family="monospace" font-size="20px" fill="#1e1e1e" text-anchor="start" style="white-space: pre;" direction="ltr" dominant-baseline="text-before-edge">RUN echo $LOCAL_ENV</text></g><g transform="translate(459.51762903653366 1001.2272136084616) rotate(0 152.34375 12)"><text x="0" y="0" font-family="monospace" font-size="20px" fill="#868e96" text-anchor="start" style="white-space: pre;" direction="ltr" dominant-baseline="text-before-edge">&lt;- prints an emptry string</text></g><g transform="translate(459.51762903653366 1094.562345428122) rotate(0 152.34375 12)"><text x="0" y="0" font-family="monospace" font-size="20px" fill="#868e96" text-anchor="start" style="white-space: pre;" direction="ltr" dominant-baseline="text-before-edge">&lt;- prints an emptry string</text></g><g transform="translate(455.0599700089376 634.5587543162438) rotate(0 187.5 12)"><text x="0" y="0" font-family="monospace" font-size="20px" fill="#868e96" text-anchor="start" style="white-space: pre;" direction="ltr" dominant-baseline="text-before-edge">&lt;- prints "global default value"</text></g><g transform="translate(459.7763686520491 1318.926103708041) rotate(0 187.5 12)"><text x="0" y="0" font-family="monospace" font-size="20px" fill="#868e96" text-anchor="start" style="white-space: pre;" direction="ltr" dominant-baseline="text-before-edge">&lt;- prints "local arg in stage-a"</text></g><g transform="translate(459.7763686520491 1352.6765750234256) rotate(0 93.75 12)"><text x="0" y="0" font-family="monospace" font-size="20px" fill="#868e96" text-anchor="start" style="white-space: pre;" direction="ltr" dominant-baseline="text-before-edge">&lt;- prints "true"</text></g><g transform="translate(157.31376429739407 868.3488129535199) rotate(0 105.46875 12)"><text x="0" y="0" font-family="monospace" font-size="20px" fill="#1e1e1e" text-anchor="start" style="white-space: pre;" direction="ltr" dominant-baseline="text-before-edge">ARG TARGETPLATFORM</text></g><g transform="translate(154.5346844690887 828.9977562693839) rotate(0 380.859375 12)"><text x="0" y="0" font-family="monospace" font-size="20px" fill="#868e96" text-anchor="start" style="white-space: pre;" direction="ltr" dominant-baseline="text-before-edge"># You must redeclare pre-defined arguments to use them in a stage</text></g><g transform="translate(157.73636020851723 901.372882634279) rotate(0 140.625 12)"><text x="0" y="0" font-family="monospace" font-size="20px" fill="#1e1e1e" text-anchor="start" style="white-space: pre;" direction="ltr" dominant-baseline="text-before-edge">RUN echo $TARGETPLATFORM</text></g><g transform="translate(456.6373611167471 901.4832955042493) rotate(0 228.515625 12)"><text x="0" y="0" font-family="monospace" font-size="20px" fill="#868e96" text-anchor="start" style="white-space: pre;" direction="ltr" dominant-baseline="text-before-edge">&lt;- prints os/arch/variant of --platform</text></g><g stroke-linecap="round"><g transform="translate(535.1414722881311 675.2569609220587) rotate(0 250.3253528965804 288.4689111292416)"><path d="M0 0 C-1.43 6.83, -0.07 11.69, -0.4 26.76 M-0.4 26.76 C139.78 27.72, 280.08 28.44, 512.12 29.99 M512.12 29.99 C514.55 160.21, 515.61 291.93, 516.83 530.58 M516.83 530.58 C375.82 532.42, 234.27 532.95, -14.18 533.72 M-14.18 533.72 C-15.62 549.61, -16.91 564.02, -16.18 576.94" stroke="#1e1e1e" stroke-width="2.5" fill="none" stroke-dasharray="8 10"></path></g></g><mask></mask><g transform="translate(97.67451560383006 726.2688100539343) rotate(0 404.296875 12)"><text x="0" y="0" font-family="monospace" font-size="20px" fill="#868e96" text-anchor="start" style="white-space: pre;" direction="ltr" dominant-baseline="text-before-edge"># Pre-defined multi-platform arguments like $BUILDPLATFORM are global</text></g></svg>
