<?xml version="1.0" encoding="utf-8"?>
<!-- Generator: Adobe Illustrator 17.0.0, SVG Export Plug-In . SVG Version: 6.00 Build 0)  -->
<!DOCTYPE svg PUBLIC "-//W3C//DTD SVG 1.1//EN" "http://www.w3.org/Graphics/SVG/1.1/DTD/svg11.dtd">
<svg version="1.1" id="Layer_1" xmlns="http://www.w3.org/2000/svg" xmlns:xlink="http://www.w3.org/1999/xlink" x="0px" y="0px"
	 width="200px" height="160px" viewBox="0 0 200 160" enable-background="new 0 0 200 160" xml:space="preserve">
<image display="none" overflow="visible" width="348" height="436" xlink:href="../../../../../../Desktop/Screen Shot 2015-05-05 at 6.08.20 PM.png"  transform="matrix(1 0 0 1 -79.5 -36.5)">
</image>
<g display="none">
	<g display="inline">
		<path fill="none" stroke="#89A5B5" stroke-width="2" stroke-miterlimit="10" d="M123.306,20.567l-12.014-1.136
			c-0.757-0.069-1.412-0.551-1.721-1.274l-4.303-10.43c-0.688-1.721-3.133-1.721-3.821,0l-4.269,10.43
			c-0.275,0.723-0.964,1.205-1.721,1.274l-12.014,1.136c-1.79,0.172-2.513,2.41-1.17,3.614l9.053,7.952
			c0.585,0.516,0.826,1.274,0.654,2.031l-2.719,11.153c-0.413,1.756,1.48,3.201,3.064,2.272l10.017-5.887
			c0.654-0.379,1.446-0.379,2.1,0l10.018,5.887c1.583,0.929,3.477-0.482,3.063-2.272l-2.685-11.153
			c-0.172-0.757,0.069-1.515,0.654-2.031l9.053-7.952C125.854,22.977,125.096,20.739,123.306,20.567z"/>
	</g>
	<g display="inline">
		<path fill="none" stroke="#89A5B5" stroke-width="2" stroke-miterlimit="10" d="M179.237,62.015l-12.014-1.136
			c-0.757-0.069-1.412-0.551-1.721-1.274l-4.303-10.43c-0.688-1.721-3.133-1.721-3.821,0l-4.269,10.43
			c-0.275,0.723-0.964,1.205-1.721,1.274l-12.014,1.136c-1.79,0.172-2.513,2.41-1.17,3.614l9.053,7.952
			c0.585,0.516,0.826,1.274,0.654,2.031l-2.719,11.153c-0.413,1.756,1.48,3.201,3.064,2.272l10.017-5.887
			c0.654-0.379,1.446-0.379,2.1,0l10.018,5.887c1.583,0.929,3.477-0.482,3.063-2.272l-2.685-11.153
			c-0.172-0.757,0.069-1.515,0.654-2.031l9.053-7.952C181.784,64.425,181.027,62.187,179.237,62.015z"/>
	</g>
	<g display="inline">
		<path fill="none" stroke="#89A5B5" stroke-width="2" stroke-miterlimit="10" d="M93.438,117.704l-12.014-1.136
			c-0.757-0.069-1.412-0.551-1.721-1.274l-4.303-10.43c-0.688-1.721-3.133-1.721-3.821,0l-4.269,10.43
			c-0.275,0.723-0.964,1.205-1.721,1.274l-12.014,1.136c-1.79,0.172-2.513,2.41-1.17,3.614l9.053,7.952
			c0.585,0.516,0.826,1.274,0.654,2.031l-2.719,11.153c-0.413,1.756,1.48,3.201,3.064,2.272l10.017-5.887
			c0.654-0.379,1.446-0.379,2.1,0l10.018,5.887c1.583,0.929,3.477-0.482,3.063-2.272l-2.685-11.153
			c-0.172-0.757,0.069-1.515,0.654-2.031l9.053-7.952C95.985,120.114,95.228,117.876,93.438,117.704z"/>
	</g>
	<g display="inline">
		<path fill="none" stroke="#89A5B5" stroke-width="2" stroke-miterlimit="10" d="M68.832,62.015l-12.014-1.136
			c-0.757-0.069-1.412-0.551-1.721-1.274l-4.303-10.43c-0.688-1.721-3.133-1.721-3.821,0l-4.269,10.43
			c-0.275,0.723-0.964,1.205-1.721,1.274l-12.014,1.136c-1.79,0.172-2.513,2.41-1.17,3.614l9.053,7.952
			c0.585,0.516,0.826,1.274,0.654,2.031l-2.719,11.153c-0.413,1.756,1.48,3.201,3.064,2.272l10.017-5.887
			c0.654-0.379,1.446-0.379,2.1,0l10.018,5.887c1.583,0.929,3.477-0.482,3.063-2.272l-2.685-11.153
			c-0.172-0.757,0.069-1.515,0.654-2.031l9.053-7.952C71.379,64.425,70.622,62.187,68.832,62.015z"/>
	</g>
	<g display="inline">
		<path fill="none" stroke="#89A5B5" stroke-width="2" stroke-miterlimit="10" d="M153.175,117.704l-12.014-1.136
			c-0.757-0.069-1.412-0.551-1.721-1.274l-4.303-10.43c-0.688-1.721-3.133-1.721-3.821,0l-4.269,10.43
			c-0.275,0.723-0.964,1.205-1.721,1.274l-12.014,1.136c-1.79,0.172-2.513,2.41-1.17,3.614l9.053,7.952
			c0.585,0.516,0.826,1.274,0.654,2.031l-2.719,11.153c-0.413,1.756,1.48,3.201,3.064,2.272l10.017-5.887
			c0.654-0.379,1.446-0.379,2.1,0l10.018,5.887c1.583,0.929,3.477-0.482,3.063-2.272l-2.685-11.153
			c-0.172-0.757,0.069-1.515,0.654-2.031l9.053-7.952C155.722,120.114,154.965,117.876,153.175,117.704z"/>
	</g>
</g>
<g display="none">
	<g display="inline">
		<path fill="none" stroke="#89A5B5" stroke-width="2" stroke-miterlimit="10" d="M142.793,88.351
			c13.146,0,23.834-10.703,23.834-23.834c0-10.976-7.432-20.225-17.534-22.98l0,0c-3.684-9.77-13.126-16.735-24.182-16.735
			c-2.537,0-5.004,0.367-7.327,1.067c-6.305-10.182-17.549-16.948-30.387-16.948c-19.49,0-35.337,15.593-35.744,34.964
			c-7.134,4.13-11.924,11.83-11.924,20.632c0,13.151,10.683,23.834,23.834,23.834 M149.093,41.537"/>
	</g>
	<polyline display="inline" fill="none" stroke="#89A5B5" stroke-width="2" stroke-miterlimit="10" points="131.212,112.634 
		101.868,140.535 72.525,112.634 	"/>
	
		<line display="inline" fill="none" stroke="#89A5B5" stroke-width="2" stroke-miterlimit="10" x1="101.869" y1="140.535" x2="101.869" y2="76.939"/>
	
		<line display="inline" fill="none" stroke="#89A5B5" stroke-width="2" stroke-miterlimit="10" x1="61.623" y1="153.486" x2="142.717" y2="153.486"/>
</g>
<g>
	<path fill="none" stroke="#89A5B5" stroke-width="2" stroke-linecap="round" stroke-linejoin="round" stroke-miterlimit="10" d="
		M161.632,40.777l-2.106,0.668l-11.216,0.999l-3.168,5.059l-2.299-0.73l-8.926-8.048l-1.295-4.185l-1.734-4.463l-5.61-5.032
		l-6.618-1.295l-0.152,3.029l6.484,6.327l3.172,3.737l-3.567,1.864l-2.904-0.856l-4.351-1.815l0.148-3.509l-5.709-2.348
		l-1.895,8.249l-5.753,1.304l0.569,4.602l7.496,1.443l1.295-7.353l6.188,0.914l2.877,1.685h4.615l3.159,6.327l8.375,8.496
		l-0.614,3.302l-6.753-0.86l-11.668,5.892l-8.402,10.077l-1.093,4.463h-3.016l-5.619-2.59l-5.458,2.59l1.358,5.758l2.375-2.738
		l4.176-0.13l-0.291,5.171l3.459,1.013l3.455,3.88l5.641-1.586l6.443,1.017l7.483,2.012l3.737,0.439l6.336,7.192l12.228,7.192
		l-7.909,15.109l-8.348,3.88l-3.168,8.635l-12.08,8.066l-1.286,4.651c30.882-7.438,53.856-35.179,53.856-68.347
		C173.542,65.448,169.15,51.966,161.632,40.777z"/>
	<path fill="none" stroke="#89A5B5" stroke-width="2" stroke-linecap="round" stroke-linejoin="round" stroke-miterlimit="10" d="
		M111.267,116.723l-5.126-9.504l4.705-9.804l-4.705-1.407l-5.283-5.305l-11.704-2.626l-3.885-8.128v4.826h-1.712L73.47,71.099
		V59.865l-7.393-12.022l-11.74,2.093h-7.909l-3.979-2.608l5.077-4.024l-5.063,1.17c-6.103,10.423-9.661,22.516-9.661,35.471
		c0,38.863,31.505,70.381,70.372,70.381c2.993,0,5.928-0.264,8.832-0.614l-0.735-8.527c0,0,3.231-12.663,3.231-13.093
		C114.497,127.656,111.267,116.723,111.267,116.723z"/>
	<path fill="none" stroke="#89A5B5" stroke-width="2" stroke-linecap="round" stroke-linejoin="round" stroke-miterlimit="10" d="
		M58.952,32.25l12.502-1.743l5.762-3.159l6.484,1.869l10.36-0.574l3.549-5.579l5.175,0.851l12.569-1.178l3.464-3.818l4.884-3.262
		l6.91,1.04l2.518-0.381c-9.101-4.284-19.227-6.762-29.959-6.762c-21.844,0-41.376,9.956-54.272,25.59h0.036L58.952,32.25z
		 M106.145,16.553l7.187-3.957l4.615,2.666l-6.681,5.086l-6.381,0.641l-2.872-1.864L106.145,16.553z M84.856,17.131l3.172,1.322
		l4.154-1.322l2.263,3.921l-9.589,2.518l-4.611-2.697C80.241,20.873,84.753,17.969,84.856,17.131z"/>
</g>
<g id="Group" display="none">
	<path display="inline" fill="none" stroke="#89A5B5" stroke-width="2" stroke-miterlimit="10" d="M102.354,76.649
		c13.206,0,23.478-13.697,23.478-27.876v-4.442c0-14.179-10.271-24.239-23.478-24.239c-13.207,0-23.478,10.06-23.478,24.239v4.442
		C78.876,62.952,89.147,76.649,102.354,76.649z M55.316,81.235c3.776,0,14.11-4.899,14.11-15.065v-7.533
		c0-10.166-7.454-15.065-14.11-15.065c-6.434,0-14.109,4.899-14.109,15.065v7.533C41.207,76.335,51.741,81.235,55.316,81.235z
		 M139.855,100.07c-0.007-0.074-0.029-0.144-0.037-0.217c-0.11-0.887-0.28-1.754-0.515-2.604c0-0.008,0-0.015-0.007-0.022
		c-0.493-1.806-1.325-3.546-2.567-5.26V91.96c-2.038-2.821-5.112-5.698-10.107-8.503c-2.641-1.483-3.803-2.163-5.436-2.163
		c-2.597,0-4.862,2.019-8.68,5.524h-0.008l-3.472,3.192c-0.125,0.118-3.869,5.407-6.672,5.407c-2.803,0-6.547-5.289-6.672-5.407
		l-3.472-3.192h-0.007c-3.817-3.505-6.083-5.524-8.68-5.524c-1.633,0-3.09,0.68-5.436,2.163c-4.843,3.057-8.07,5.679-10.1,8.495
		l-0.008,0.004c-0.007,0.007-0.007,0.019-0.014,0.025c-1.229,1.7-2.053,3.428-2.545,5.223c-0.007,0.015-0.015,0.033-0.021,0.051
		c-0.229,0.843-0.398,1.699-0.508,2.578c-0.007,0.082-0.029,0.158-0.037,0.239c-0.103,0.934-0.162,1.887-0.162,2.876
		c0,0.11-0.002,20.619,0,20.715c0,6.694,2.523,9.416,9.416,9.416h56.494c6.952,0,9.416-2.575,9.416-9.416
		c0.002-0.096-0.001-20.605-0.001-20.715C140.016,101.96,139.958,101.008,139.855,100.07z M149.474,81.235
		c3.776,0,14.11-4.899,14.11-15.065v-7.533c0-10.166-7.454-15.065-14.11-15.065c-6.435,0-14.11,4.899-14.11,15.065v7.533
		C135.364,76.335,145.898,81.235,149.474,81.235z M37.739,91.43c-8.762,4.988-10.711,12.94-10.711,18.111
		c0,0.08-0.007,9.342,0,9.416c0,6.834,2.295,9.416,9.416,9.416h18.832c0,0,0-20.008,0-28.248l-4.708-4.708
		C45.587,91.026,41.388,89.356,37.739,91.43z M55.275,100.125C55.379,100.214,55.275,97.889,55.275,100.125L55.275,100.125z
		 M177.68,109.541c0-5.172-1.95-13.124-10.711-18.111c-3.649-2.074-7.848-0.405-12.829,3.988l-4.708,4.708
		c0,8.239,0,28.248,0,28.248h18.832c7.12,0,9.416-2.582,9.416-9.416C177.687,118.883,177.68,109.622,177.68,109.541z
		 M149.433,100.125C149.433,97.889,149.329,100.214,149.433,100.125L149.433,100.125z"/>
</g>
<g display="none">
	
		<path display="inline" fill="none" stroke="#89A5B5" stroke-width="2" stroke-linecap="round" stroke-linejoin="round" stroke-miterlimit="10" d="
		M127.307,105.289c-0.032-0.078-3.097-7.963,8.714-24.276c5.542-7.211,8.473-15.842,8.473-24.963
		c0-22.604-18.389-40.993-40.993-40.993S62.506,33.449,62.506,56.05c0,9.18,2.966,17.859,8.58,25.1
		c0.027,0.035,0.056,0.069,0.086,0.104c11.707,16.251,8.797,23.982,8.797,23.995"/>
	
		<path display="inline" fill="none" stroke="#89A5B5" stroke-width="2" stroke-linecap="round" stroke-linejoin="round" stroke-miterlimit="10" d="
		M127.374,119.355v-2.273c0-3.624-2.95-6.572-6.572-6.572H84.758c-3.624,0-6.572,2.948-6.572,6.572v2.273
		c0,3.622,2.948,6.572,6.572,6.572h36.047C124.426,125.927,127.374,122.979,127.374,119.355z"/>
	
		<path display="inline" fill="none" stroke="#89A5B5" stroke-width="2" stroke-linecap="round" stroke-linejoin="round" stroke-miterlimit="10" d="
		M86.413,132.667v7.064c0,1.048,0.612,1.998,1.565,2.434l14.414,6.577c0.353,0.161,0.73,0.241,1.11,0.241
		c0.391,0,0.781-0.086,1.142-0.257l14.454-6.821c0.936-0.441,1.533-1.383,1.533-2.418v-6.818"/>
	
		<path display="inline" fill="none" stroke="#89A5B5" stroke-width="2" stroke-linecap="round" stroke-linejoin="round" stroke-miterlimit="10" d="
		M101.75,28.046c-15.441,0-28.004,12.563-28.004,28.004"/>
	
		<line display="inline" fill="none" stroke="#89A5B5" stroke-width="2" stroke-linecap="round" stroke-linejoin="round" stroke-miterlimit="10" x1="144.158" y1="27.872" x2="165.82" y2="11.904"/>
	
		<line display="inline" fill="none" stroke="#89A5B5" stroke-width="2" stroke-linecap="round" stroke-linejoin="round" stroke-miterlimit="10" x1="153.196" y1="58.144" x2="179.004" y2="58.144"/>
	
		<line display="inline" fill="none" stroke="#89A5B5" stroke-width="2" stroke-linecap="round" stroke-linejoin="round" stroke-miterlimit="10" x1="143.366" y1="87.828" x2="165.815" y2="104.382"/>
	
		<line display="inline" fill="none" stroke="#89A5B5" stroke-width="2" stroke-linecap="round" stroke-linejoin="round" stroke-miterlimit="10" x1="62.97" y1="27.872" x2="41.308" y2="11.904"/>
	
		<line display="inline" fill="none" stroke="#89A5B5" stroke-width="2" stroke-linecap="round" stroke-linejoin="round" stroke-miterlimit="10" x1="53.932" y1="58.144" x2="28.123" y2="58.144"/>
	
		<line display="inline" fill="none" stroke="#89A5B5" stroke-width="2" stroke-linecap="round" stroke-linejoin="round" stroke-miterlimit="10" x1="63.762" y1="87.828" x2="41.313" y2="104.382"/>
</g>
</svg>
