<svg width="800" height="500" viewBox="0 0 800 500" xmlns="http://www.w3.org/2000/svg" style="background:#FFF"><title>Collections</title><g fill="none" fill-rule="evenodd"><path fill="#FBFBFC" d="M0 0h800v500H0z"/><path d="M280 198v-24h-80v24h-16v56h112v-56h-16zm-72-16h64v16h-64v-16zm80 64h-96v-40h96v40zm-8-88h-80v8h80v-8zm0-16h-80v8h80v-8zM440 198v-24h-80v24h-16v56h112v-56h-16zm-72-16h64v16h-64v-16zm80 64h-96v-40h96v40zm-8-88h-80v8h80v-8zm0-16h-80v8h80v-8z" fill="#066DA5" fill-rule="nonzero" opacity=".15"/><path d="M420 306v-12h-40v12h-8v28h56v-28h-8zm-36-8h32v8h-32v-8zm40 32h-48v-20h48v20zm-4-44h-40v4h40v-4zm0-8h-40v4h40v-4zM580 306v-12h-40v12h-8v28h56v-28h-8zm-36-8h32v8h-32v-8zm40 32h-48v-20h48v20zm-4-44h-40v4h40v-4zm0-8h-40v4h40v-4z" fill="#066DA5" fill-rule="nonzero" opacity=".3"/><path d="M600 198v-24h-80v24h-16v56h112v-56h-16zm-72-16h64v16h-64v-16zm80 64h-96v-40h96v40zm-8-88h-80v8h80v-8zm0-16h-80v8h80v-8z" fill="#066DA5" fill-rule="nonzero" opacity=".15"/><path d="M212.425 220.15l-4.79 12.85h-1.46l4.79-12.85h1.46zm7.945 10.222c0 .897-.334 1.588-1.002 2.074-.668.487-1.605.73-2.812.73-1.278 0-2.274-.202-2.99-.607v-1.354c.464.234.96.42 1.49.554a6.22 6.22 0 0 0 1.535.202c.763 0 1.348-.122 1.76-.365.41-.243.614-.614.614-1.112 0-.375-.163-.696-.488-.962-.325-.267-.96-.582-1.903-.945-.896-.334-1.533-.626-1.91-.875-.38-.25-.66-.53-.845-.848-.185-.316-.277-.694-.277-1.134 0-.784.32-1.403.96-1.857.638-.455 1.514-.682 2.627-.682 1.037 0 2.05.212 3.04.634l-.518 1.187c-.967-.398-1.843-.597-2.63-.597-.69 0-1.21.108-1.563.325-.352.217-.527.516-.527.897 0 .258.066.477.197.66.132.18.345.353.638.518.293.164.855.4 1.687.71 1.143.417 1.915.836 2.316 1.258.4.423.602.953.602 1.592zm.844-7.005h1.564l2.11 5.493c.463 1.254.75 2.16.86 2.716h.07c.078-.3.237-.81.48-1.534.244-.723 1.04-2.948 2.387-6.675h1.564l-4.14 10.97c-.41 1.083-.89 1.852-1.438 2.306-.547.454-1.22.68-2.017.68a5.87 5.87 0 0 1-1.318-.148v-1.17c.322.07.683.106 1.08.106 1.003 0 1.718-.56 2.145-1.686l.537-1.37-3.886-9.687zm16.813 7.005c0 .897-.334 1.588-1.002 2.074-.668.487-1.605.73-2.812.73-1.277 0-2.274-.202-2.988-.607v-1.354c.463.234.96.42 1.49.554a6.22 6.22 0 0 0 1.533.202c.762 0 1.348-.122 1.758-.365.41-.243.615-.614.615-1.112 0-.375-.162-.696-.487-.962-.325-.267-.96-.582-1.903-.945-.896-.334-1.533-.626-1.91-.875-.38-.25-.66-.53-.845-.848-.184-.316-.277-.694-.277-1.134 0-.784.32-1.403.958-1.857.64-.455 1.515-.682 2.628-.682 1.037 0 2.05.212 3.04.634l-.517 1.187c-.967-.398-1.843-.597-2.628-.597-.693 0-1.214.108-1.566.325-.35.217-.527.516-.527.897 0 .258.066.477.198.66.132.18.344.353.637.518.293.164.855.4 1.687.71 1.142.417 1.914.836 2.315 1.258.402.423.602.953.602 1.592zm5.485 1.6c.258 0 .507-.02.747-.057.24-.04.43-.078.57-.12v1.117c-.158.076-.39.14-.7.19-.306.05-.583.074-.83.074-1.863 0-2.794-.982-2.794-2.945v-5.73h-1.38v-.702l1.38-.607.615-2.055h.845v2.232h2.795v1.134h-2.795v5.67c0 .58.138 1.025.413 1.336.275.31.653.466 1.134.466zm7.312 1.204c-1.424 0-2.547-.434-3.37-1.3-.824-.868-1.235-2.072-1.235-3.613 0-1.553.38-2.786 1.146-3.7.764-.915 1.79-1.372 3.08-1.372 1.207 0 2.162.398 2.866 1.192.703.794 1.054 1.842 1.054 3.142v.923h-6.636c.03 1.13.315 1.99.857 2.575.542.586 1.306.88 2.29.88a7.76 7.76 0 0 0 3.076-.65v1.3a7.72 7.72 0 0 1-1.463.48c-.46.095-1.015.144-1.666.144zm-.395-8.763c-.775 0-1.39.252-1.85.756-.46.503-.732 1.2-.814 2.09h5.036c0-.92-.205-1.624-.615-2.113-.41-.49-.997-.734-1.758-.734zM269.13 233v-6.267c0-.767-.164-1.343-.492-1.727-.328-.383-.838-.575-1.53-.575-.908 0-1.58.26-2.012.783-.434.52-.65 1.324-.65 2.408V233h-1.46v-6.267c0-.767-.164-1.343-.492-1.727-.328-.383-.84-.575-1.538-.575-.914 0-1.583.275-2.008.822-.425.548-.637 1.446-.637 2.694V233h-1.46v-9.633h1.187l.237 1.32h.07c.276-.47.664-.836 1.165-1.1a3.558 3.558 0 0 1 1.683-.396c1.506 0 2.49.546 2.953 1.636h.07a3.072 3.072 0 0 1 1.25-1.195c.544-.292 1.165-.44 1.862-.44 1.09 0 1.906.28 2.448.84.542.56.813 1.455.813 2.686V233h-1.458zM374.425 221.15l-4.79 12.85h-1.46l4.79-12.85h1.46zm7.945 10.222c0 .897-.334 1.588-1.002 2.074-.668.487-1.605.73-2.812.73-1.278 0-2.274-.202-2.99-.607v-1.354c.464.234.96.42 1.49.554a6.22 6.22 0 0 0 1.535.202c.763 0 1.348-.122 1.76-.365.41-.243.614-.614.614-1.112 0-.375-.163-.696-.488-.962-.325-.267-.96-.582-1.903-.945-.896-.334-1.533-.626-1.91-.875-.38-.25-.66-.53-.845-.848-.185-.316-.277-.694-.277-1.134 0-.784.32-1.403.96-1.857.638-.455 1.514-.682 2.627-.682 1.037 0 2.05.212 3.04.634l-.518 1.187c-.967-.398-1.843-.597-2.63-.597-.69 0-1.21.108-1.563.325-.352.217-.527.516-.527.897 0 .258.066.477.197.66.132.18.345.353.638.518.293.164.855.4 1.687.71 1.143.417 1.915.836 2.316 1.258.4.423.602.953.602 1.592zm8.965 2.628v-6.23c0-.787-.18-1.373-.536-1.76-.36-.386-.918-.58-1.68-.58-1.014 0-1.753.276-2.22.827-.465.55-.698 1.453-.698 2.707V234h-1.46v-13.676h1.46v4.14c0 .498-.023.91-.07 1.24h.088a2.976 2.976 0 0 1 1.226-1.095c.53-.268 1.135-.4 1.815-.4 1.178 0 2.062.28 2.65.838.59.56.884 1.45.884 2.668V234h-1.46zm10.38 0l-.29-1.37h-.07c-.48.602-.96 1.01-1.438 1.225-.477.214-1.073.32-1.788.32-.956 0-1.705-.245-2.247-.738-.542-.492-.813-1.192-.813-2.1 0-1.945 1.556-2.965 4.667-3.06l1.635-.05v-.6c0-.755-.163-1.313-.488-1.673-.325-.36-.845-.54-1.56-.54-.803 0-1.71.245-2.724.737l-.45-1.115c.476-.258.996-.46 1.56-.606a6.757 6.757 0 0 1 1.702-.22c1.15 0 2 .254 2.553.764.554.51.83 1.327.83 2.452V234h-1.08zm-3.296-1.028c.907 0 1.62-.25 2.14-.747.518-.498.777-1.196.777-2.092v-.87l-1.46.06c-1.16.042-1.996.222-2.508.542-.514.32-.77.816-.77 1.49 0 .527.16.928.48 1.204.318.274.765.412 1.34.412zm11.776-8.78c.428 0 .812.035 1.152.105l-.202 1.353a4.97 4.97 0 0 0-1.055-.13c-.778 0-1.445.315-2 .948-.552.633-.83 1.42-.83 2.364V234h-1.458v-9.633h1.204l.167 1.784h.07c.358-.626.788-1.11 1.292-1.45a2.908 2.908 0 0 1 1.66-.51zm6.662 9.984c-1.423 0-2.547-.434-3.37-1.3-.823-.868-1.235-2.072-1.235-3.613 0-1.553.382-2.786 1.147-3.7.765-.915 1.79-1.372 3.08-1.372 1.208 0 2.163.398 2.866 1.192.703.794 1.054 1.842 1.054 3.142v.923h-6.635c.03 1.13.315 1.99.857 2.575.542.586 1.305.88 2.29.88a7.76 7.76 0 0 0 3.075-.65v1.3a7.72 7.72 0 0 1-1.463.48c-.46.095-1.015.144-1.666.144zm-.395-8.763c-.774 0-1.39.252-1.85.756-.46.503-.73 1.2-.813 2.09h5.036c0-.92-.205-1.624-.615-2.113-.41-.49-.995-.734-1.757-.734zm12.98 7.295h-.078c-.674.98-1.68 1.468-3.023 1.468-1.26 0-2.24-.43-2.94-1.292-.7-.862-1.05-2.086-1.05-3.674s.35-2.82 1.054-3.7c.703-.88 1.682-1.32 2.936-1.32 1.306 0 2.308.476 3.006 1.425h.114l-.062-.694-.035-.676v-3.92h1.46V234h-1.187l-.194-1.292zm-2.917.246c.996 0 1.72-.27 2.167-.813.448-.54.672-1.415.672-2.622v-.308c0-1.365-.227-2.34-.68-2.922-.455-.583-1.18-.875-2.176-.875-.857 0-1.51.333-1.966.998-.454.666-.68 1.605-.68 2.818 0 1.23.225 2.16.676 2.786.45.627 1.113.94 1.986.94zM382.283 344.434L379.09 353h-.973l3.194-8.566h.973zm4.143 8.683c-.418 0-.8-.077-1.146-.23a2.154 2.154 0 0 1-.87-.713h-.07c.047.375.07.73.07 1.066v2.643h-.973v-9.305h.792l.133.88h.047c.25-.353.54-.606.873-.763a2.654 2.654 0 0 1 1.143-.234c.85 0 1.51.292 1.97.874.464.582.696 1.398.696 2.45 0 1.054-.236 1.873-.706 2.457-.47.585-1.124.877-1.96.877zm-.14-5.83c-.657 0-1.132.182-1.425.545-.292.363-.442.94-.45 1.734v.217c0 .903.15 1.548.45 1.937.302.388.785.583 1.45.583.553 0 .988-.225 1.302-.674.315-.45.472-1.07.472-1.86 0-.8-.157-1.414-.472-1.84-.314-.43-.757-.643-1.327-.643zm7.435-.826c.286 0 .542.024.768.07l-.134.904c-.266-.06-.5-.088-.704-.088-.52 0-.963.21-1.333.633-.37.42-.553.946-.553 1.575V353h-.973v-6.422h.804l.11 1.19h.048c.238-.418.525-.74.86-.967a1.94 1.94 0 0 1 1.11-.34zm2.942 6.54h-.973v-6.422h.972V353zm-1.055-8.162c0-.223.055-.386.164-.49a.573.573 0 0 1 .412-.155c.156 0 .29.053.404.16.113.104.17.266.17.485 0 .22-.057.382-.17.49a.567.567 0 0 1-.404.16.562.562 0 0 1-.41-.16c-.11-.108-.165-.27-.165-.49zM400.13 353l-2.437-6.422h1.043l1.383 3.81c.312.89.495 1.467.55 1.733h.047c.043-.206.18-.635.407-1.285.23-.65.74-2.07 1.538-4.257h1.043L401.268 353h-1.137zm8.556 0l-.194-.914h-.047c-.32.402-.64.675-.958.817-.318.143-.716.214-1.192.214-.637 0-1.136-.164-1.497-.492-.36-.328-.542-.795-.542-1.4 0-1.297 1.037-1.977 3.11-2.04l1.09-.035v-.398c0-.504-.107-.876-.324-1.116-.217-.24-.564-.36-1.04-.36-.535 0-1.14.163-1.817.492l-.298-.745a4.57 4.57 0 0 1 1.04-.404 4.504 4.504 0 0 1 1.133-.147c.766 0 1.333.17 1.703.51.37.34.553.884.553 1.634V353h-.72zm-2.198-.686c.606 0 1.08-.166 1.427-.498.346-.332.52-.796.52-1.394v-.58l-.974.04c-.773.028-1.33.148-1.672.36-.342.214-.513.545-.513.994 0 .352.107.62.32.803.213.183.51.274.893.274zm6.996 0c.172 0 .338-.012.498-.038.16-.025.288-.05.38-.08v.745c-.104.052-.26.094-.465.127-.205.034-.39.05-.553.05-1.242 0-1.864-.654-1.864-1.963v-3.82h-.92v-.47l.92-.403.41-1.37h.563v1.488h1.863v.756h-1.863v3.78c0 .386.092.683.276.89.182.207.434.31.754.31zm4.875.803c-.95 0-1.7-.29-2.248-.867-.55-.578-.823-1.38-.823-2.408 0-1.035.254-1.858.764-2.467.51-.61 1.194-.914 2.053-.914.805 0 1.442.266 1.91.795.47.53.704 1.227.704 2.095v.615h-4.423c.02.754.21 1.326.57 1.717.362.39.87.586 1.528.586.69 0 1.375-.145 2.05-.434v.867c-.343.15-.67.256-.975.32a5.483 5.483 0 0 1-1.11.097zm-.264-5.842c-.516 0-.927.168-1.234.504-.306.335-.487.8-.542 1.394h3.358c0-.613-.137-1.083-.41-1.41-.274-.326-.664-.49-1.172-.49zM518.283 344.434L515.09 353h-.973l3.194-8.566h.973zm4.143 8.683c-.418 0-.8-.077-1.146-.23a2.154 2.154 0 0 1-.87-.713h-.07c.047.375.07.73.07 1.066v2.643h-.972v-9.305h.79l.135.88h.047c.25-.353.54-.606.873-.763a2.654 2.654 0 0 1 1.143-.234c.85 0 1.51.292 1.97.874.464.582.696 1.398.696 2.45 0 1.054-.236 1.873-.706 2.457-.47.585-1.124.877-1.96.877zm-.14-5.83c-.657 0-1.132.182-1.425.545-.292.363-.442.94-.45 1.734v.217c0 .903.15 1.548.45 1.937.302.388.785.583 1.45.583.553 0 .988-.225 1.302-.674.315-.45.472-1.07.472-1.86 0-.8-.157-1.414-.472-1.84-.314-.43-.757-.643-1.327-.643zm7.435-.826c.286 0 .542.024.768.07l-.134.904c-.266-.06-.5-.088-.704-.088-.52 0-.963.21-1.333.633-.37.42-.553.946-.553 1.575V353h-.973v-6.422h.804l.11 1.19h.048c.238-.418.525-.74.86-.967a1.94 1.94 0 0 1 1.11-.34zm7.272 3.323c0 1.047-.263 1.864-.79 2.452-.528.588-1.257.882-2.186.882-.575 0-1.084-.135-1.53-.404a2.668 2.668 0 0 1-1.03-1.16c-.243-.504-.364-1.094-.364-1.77 0-1.047.262-1.862.785-2.446.523-.584 1.25-.876 2.18-.876.898 0 1.612.3 2.14.897.53.598.795 1.407.795 2.426zm-4.892 0c0 .82.164 1.446.492 1.875.328.43.81.645 1.447.645.636 0 1.12-.214 1.45-.642.33-.427.494-1.053.494-1.877 0-.816-.165-1.436-.495-1.86-.33-.424-.818-.636-1.463-.636-.636 0-1.117.21-1.44.627-.325.418-.487 1.04-.487 1.87zm10.968 2.356h-.052c-.45.65-1.12.977-2.016.977-.84 0-1.493-.287-1.96-.86-.467-.575-.7-1.392-.7-2.45 0-1.06.234-1.88.703-2.467.47-.586 1.12-.88 1.957-.88.87 0 1.54.317 2.004.95h.076l-.04-.463-.024-.45v-2.614h.972V353h-.79l-.13-.86zm-1.945.163c.664 0 1.146-.18 1.444-.542.3-.36.45-.944.45-1.748v-.205c0-.91-.153-1.56-.455-1.95-.303-.387-.787-.582-1.45-.582-.57 0-1.008.222-1.31.665-.303.444-.454 1.07-.454 1.878 0 .82.15 1.44.45 1.858.302.418.743.627 1.325.627zm8.18-7.87L546.11 353h-.973l3.193-8.566h.973zM555.7 353l-1.177-3.768c-.074-.23-.212-.753-.416-1.57h-.046a21.48 21.48 0 0 1-.41 1.582L552.438 353h-1.125l-1.752-6.422h1.02l.946 3.686c.217.843.34 1.412.372 1.705h.047c.043-.224.113-.512.208-.866.096-.353.18-.633.25-.84l1.177-3.686h1.055l1.148 3.686c.22.672.367 1.236.446 1.693h.045a6.21 6.21 0 0 1 .126-.65c.07-.293.477-1.87 1.223-4.73h1.008L556.856 353H555.7zm6.804.117c-.95 0-1.698-.29-2.247-.867-.55-.578-.823-1.38-.823-2.408 0-1.035.254-1.858.764-2.467.51-.61 1.195-.914 2.054-.914.805 0 1.44.266 1.91.795.47.53.703 1.227.703 2.095v.615h-4.424c.02.754.21 1.326.573 1.717.36.39.87.586 1.526.586.69 0 1.374-.145 2.05-.434v.867c-.344.15-.67.256-.976.32a5.483 5.483 0 0 1-1.11.097zm-.264-5.842c-.515 0-.927.168-1.233.504-.307.335-.487.8-.542 1.394h3.357c0-.613-.136-1.083-.41-1.41-.273-.326-.664-.49-1.172-.49zm7.272-.802c.843 0 1.5.288 1.966.864.466.576.7 1.392.7 2.446 0 1.055-.236 1.874-.706 2.458-.47.585-1.124.877-1.96.877-.418 0-.8-.077-1.146-.23a2.154 2.154 0 0 1-.87-.713h-.07l-.205.826h-.697v-9.117h.973v2.215c0 .496-.016.94-.047 1.336h.046c.453-.64 1.125-.96 2.016-.96zm-.14.814c-.665 0-1.143.19-1.436.57-.293.382-.44 1.024-.44 1.926 0 .903.15 1.548.45 1.937.302.388.784.583 1.45.583.596 0 1.04-.218 1.334-.654.293-.436.44-1.062.44-1.88 0-.834-.147-1.457-.44-1.868-.293-.41-.746-.615-1.36-.615zm8.648 3.96c0 .6-.223 1.06-.668 1.384-.446.325-1.07.487-1.875.487-.852 0-1.516-.135-1.993-.404v-.902c.31.157.64.28.994.37.353.09.694.134 1.022.134.508 0 .898-.08 1.172-.243.273-.16.41-.408.41-.74 0-.25-.108-.464-.325-.642-.217-.177-.64-.387-1.27-.63-.596-.222-1.02-.416-1.273-.582a1.74 1.74 0 0 1-.563-.566 1.475 1.475 0 0 1-.183-.756c0-.523.213-.936.638-1.24.426-.302 1.01-.453 1.752-.453.692 0 1.368.142 2.028.423l-.346.79c-.645-.265-1.23-.398-1.753-.398-.46 0-.808.073-1.043.217-.234.145-.35.344-.35.598 0 .172.043.318.13.44.088.12.23.236.425.345.195.11.57.268 1.124.475.762.277 1.277.556 1.544.837.268.282.402.635.402 1.06zm4.294 1.87c-.95 0-1.698-.29-2.247-.867-.548-.578-.823-1.38-.823-2.408 0-1.035.255-1.858.765-2.467.51-.61 1.193-.914 2.053-.914.804 0 1.44.266 1.91.795.468.53.703 1.227.703 2.095v.615h-4.424c.02.754.21 1.326.57 1.717.363.39.87.586 1.528.586.69 0 1.375-.145 2.05-.434v.867c-.343.15-.67.256-.975.32a5.483 5.483 0 0 1-1.11.097zm-.263-5.842c-.515 0-.926.168-1.233.504-.306.335-.487.8-.542 1.394h3.358c0-.613-.137-1.083-.41-1.41-.274-.326-.664-.49-1.172-.49zm7.214-.814c.285 0 .54.024.767.07l-.134.904c-.265-.06-.5-.088-.703-.088-.52 0-.964.21-1.333.633-.37.42-.553.946-.553 1.575V353h-.973v-6.422h.803l.11 1.19h.048c.238-.418.525-.74.86-.967a1.94 1.94 0 0 1 1.11-.34zm3.375 6.54l-2.44-6.422h1.044l1.383 3.81c.312.89.496 1.467.55 1.733h.048c.043-.206.178-.635.407-1.285.228-.65.74-2.07 1.538-4.257h1.043L593.775 353h-1.136zm7.317.117c-.95 0-1.698-.29-2.247-.867-.55-.578-.823-1.38-.823-2.408 0-1.035.255-1.858.764-2.467.51-.61 1.196-.914 2.055-.914.805 0 1.44.266 1.91.795.47.53.703 1.227.703 2.095v.615h-4.423c.02.754.21 1.326.57 1.717.362.39.87.586 1.527.586.692 0 1.375-.145 2.05-.434v.867c-.343.15-.668.256-.975.32a5.483 5.483 0 0 1-1.11.097zm-.264-5.842c-.515 0-.926.168-1.233.504-.307.335-.487.8-.542 1.394h3.357c0-.613-.136-1.083-.41-1.41-.273-.326-.664-.49-1.172-.49zm7.213-.814c.285 0 .54.024.768.07l-.135.904c-.267-.06-.5-.088-.704-.088-.52 0-.964.21-1.333.633-.37.42-.554.946-.554 1.575V353h-.973v-6.422h.802l.11 1.19h.048c.238-.418.525-.74.86-.967a1.94 1.94 0 0 1 1.108-.34zM543.425 212.15l-4.79 12.85h-1.46l4.79-12.85h1.46zm6.214 13.026a4.17 4.17 0 0 1-1.72-.347 3.23 3.23 0 0 1-1.305-1.07h-.105c.07.563.105 1.096.105 1.6v3.964h-1.46v-13.957h1.188l.202 1.32h.07c.375-.53.812-.91 1.31-1.144.498-.234 1.07-.352 1.714-.352 1.276 0 2.262.438 2.956 1.31.695.874 1.042 2.1 1.042 3.675 0 1.582-.353 2.81-1.06 3.687-.705.876-1.685 1.314-2.94 1.314zm-.212-8.745c-.985 0-1.697.273-2.136.818-.44.545-.665 1.412-.677 2.602v.325c0 1.353.226 2.322.677 2.905.45.583 1.175.874 2.17.874.833 0 1.485-.337 1.956-1.01.472-.674.708-1.603.708-2.787 0-1.2-.236-2.122-.708-2.764-.47-.642-1.135-.962-1.99-.962zm11.153-1.24c.43 0 .813.037 1.152.107l-.202 1.353a4.97 4.97 0 0 0-1.054-.13c-.78 0-1.446.315-2 .948s-.83 1.42-.83 2.364V225h-1.46v-9.633h1.205l.168 1.784h.07c.357-.626.788-1.11 1.292-1.45a2.908 2.908 0 0 1 1.66-.51zm10.908 4.985c0 1.57-.395 2.796-1.186 3.678-.79.882-1.884 1.323-3.28 1.323-.86 0-1.625-.202-2.293-.607-.668-.405-1.184-.985-1.547-1.74-.364-.757-.545-1.642-.545-2.655 0-1.57.392-2.794 1.177-3.67.786-.876 1.875-1.314 3.27-1.314 1.348 0 2.418.45 3.212 1.346.794.897 1.19 2.11 1.19 3.64zm-7.34 0c0 1.23.248 2.168.74 2.812.492.645 1.216.967 2.17.967.956 0 1.68-.32 2.176-.962.495-.642.743-1.58.743-2.817 0-1.225-.248-2.155-.743-2.79-.495-.636-1.226-.954-2.193-.954-.954 0-1.675.314-2.16.94-.487.628-.73 1.563-.73 2.805zm16.455 3.533h-.08c-.673.98-1.68 1.468-3.023 1.468-1.26 0-2.24-.43-2.94-1.292-.7-.862-1.05-2.086-1.05-3.674s.35-2.82 1.054-3.7c.704-.88 1.682-1.32 2.936-1.32 1.307 0 2.31.476 3.006 1.425h.114l-.06-.694-.037-.676v-3.92h1.46V225h-1.187l-.193-1.292zm-2.918.246c.996 0 1.718-.27 2.166-.813.45-.54.673-1.415.673-2.622v-.308c0-1.365-.227-2.34-.68-2.922-.455-.583-1.18-.875-2.176-.875-.855 0-1.51.333-1.964.998-.454.666-.682 1.605-.682 2.818 0 1.23.227 2.16.678 2.786.45.627 1.114.94 1.987.94z" fill="#066DA5"/><path fill="#066DA5" opacity=".4" d="M400 258h1v16h-1zM560 258h1v16h-1z"/><path d="M351 398v-6h-20v6h-4v14h28v-14h-4zm-18-4h16v4h-16v-4zm20 16h-24v-10h24v10zm-2-22h-20v2h20v-2zm0-4h-20v2h20v-2zM410 398v-6h-20v6h-4v14h28v-14h-4zm-18-4h16v4h-16v-4zm20 16h-24v-10h24v10zm-2-22h-20v2h20v-2zm0-4h-20v2h20v-2zM471 398v-6h-20v6h-4v14h28v-14h-4zm-18-4h16v4h-16v-4zm20 16h-24v-10h24v10zm-2-22h-20v2h20v-2zm0-4h-20v2h20v-2z" fill="#066DA5" fill-rule="nonzero"/><path d="M325.283 422.434L322.09 431h-.973l3.194-8.566h.973zm5.104 8.566l-.194-.914h-.047c-.32.402-.64.675-.958.817-.318.143-.715.214-1.192.214-.637 0-1.136-.164-1.497-.492-.362-.328-.543-.795-.543-1.4 0-1.297 1.037-1.977 3.11-2.04l1.09-.035v-.398c0-.504-.107-.876-.324-1.116-.217-.24-.563-.36-1.04-.36-.535 0-1.14.163-1.816.492l-.3-.745a4.57 4.57 0 0 1 1.04-.404 4.504 4.504 0 0 1 1.135-.147c.765 0 1.333.17 1.702.51.37.34.553.884.553 1.634V431h-.72zm-2.198-.686c.605 0 1.08-.166 1.426-.498.346-.332.52-.796.52-1.394v-.58l-.974.04c-.773.028-1.33.148-1.673.36-.343.214-.513.545-.513.994 0 .352.106.62.32.803.212.183.51.274.892.274zm9.292-.175h-.052c-.45.65-1.12.977-2.016.977-.84 0-1.493-.287-1.96-.86-.467-.575-.7-1.392-.7-2.45 0-1.06.234-1.88.703-2.467.47-.586 1.12-.88 1.957-.88.87 0 1.54.317 2.004.95h.076l-.04-.463-.024-.45v-2.614h.972V431h-.79l-.13-.86zm-1.945.163c.664 0 1.146-.18 1.444-.542.3-.36.45-.944.45-1.748v-.205c0-.91-.152-1.56-.454-1.95-.303-.387-.787-.582-1.45-.582-.57 0-1.007.222-1.31.665-.303.444-.454 1.07-.454 1.878 0 .82.15 1.44.45 1.858.302.418.743.627 1.325.627zm13.113.697v-4.178c0-.51-.11-.895-.328-1.15-.218-.257-.558-.385-1.02-.385-.605 0-1.052.174-1.34.522-.29.346-.435.88-.435 1.604V431h-.972v-4.178c0-.51-.11-.895-.328-1.15-.22-.257-.56-.385-1.026-.385-.608 0-1.054.183-1.338.548-.283.365-.425.964-.425 1.796V431h-.972v-6.422h.79l.16.88h.046c.185-.313.443-.558.777-.733a2.372 2.372 0 0 1 1.122-.264c1.003 0 1.66.364 1.968 1.09h.047c.19-.335.47-.6.832-.796a2.582 2.582 0 0 1 1.242-.293c.726 0 1.27.187 1.63.56.362.374.543.97.543 1.79V431h-.973zm3.95 0h-.973v-6.422h.973V431zm-1.055-8.162c0-.223.055-.386.164-.49a.573.573 0 0 1 .41-.155c.155 0 .29.053.403.16.114.104.17.266.17.485 0 .22-.056.382-.17.49a.567.567 0 0 1-.404.16.562.562 0 0 1-.41-.16c-.11-.108-.165-.27-.165-.49zm7.512 8.162v-4.154c0-.524-.12-.914-.358-1.172-.24-.258-.612-.387-1.12-.387-.672 0-1.164.182-1.476.545-.313.363-.47.963-.47 1.8V431h-.972v-6.422h.79l.16.88h.046c.2-.317.48-.562.838-.736.36-.174.76-.26 1.2-.26.775 0 1.357.185 1.747.56.39.372.586.968.586 1.79V431h-.973zM386.283 422.434L383.09 431h-.973l3.194-8.566h.973zm2.07 2.144v4.166c0 .524.118.914.356 1.172.237.258.61.387 1.118.387.672 0 1.163-.184 1.474-.55.31-.368.466-.968.466-1.8v-3.375h.972V431h-.803l-.14-.86h-.053c-.2.315-.475.557-.83.725a2.787 2.787 0 0 1-1.21.252c-.78 0-1.365-.185-1.754-.556-.388-.37-.583-.964-.583-1.78v-4.202h.985zm10.592 4.67c0 .598-.222 1.06-.668 1.383-.445.325-1.07.487-1.875.487-.85 0-1.515-.135-1.992-.404v-.902c.31.157.64.28.993.37.354.09.695.134 1.023.134.508 0 .898-.08 1.172-.243.273-.16.41-.408.41-.74 0-.25-.11-.464-.325-.642-.217-.177-.64-.387-1.27-.63-.597-.222-1.02-.416-1.273-.582a1.74 1.74 0 0 1-.563-.566 1.475 1.475 0 0 1-.184-.756c0-.523.212-.936.638-1.24.427-.302 1.01-.453 1.753-.453.692 0 1.367.142 2.028.423l-.345.79c-.645-.265-1.23-.398-1.752-.398-.46 0-.81.073-1.043.217-.234.145-.352.344-.352.598 0 .172.044.318.132.44.088.12.23.236.425.345.195.11.57.268 1.125.475.762.277 1.276.556 1.544.837.268.282.4.635.4 1.06zm4.295 1.87c-.95 0-1.698-.29-2.247-.868-.55-.578-.823-1.38-.823-2.408 0-1.035.255-1.858.765-2.467.51-.61 1.194-.914 2.053-.914.805 0 1.442.266 1.91.795.47.53.704 1.227.704 2.095v.615h-4.424c.02.754.21 1.326.57 1.717.362.39.87.586 1.527.586.692 0 1.375-.145 2.05-.434v.867c-.343.15-.668.256-.974.32a5.483 5.483 0 0 1-1.11.097zm-.263-5.843c-.516 0-.927.168-1.234.504-.306.335-.487.8-.542 1.394h3.36c0-.613-.138-1.083-.412-1.41-.273-.326-.664-.49-1.17-.49zm7.212-.814c.285 0 .54.024.767.07l-.135.904c-.265-.06-.5-.088-.703-.088-.52 0-.965.21-1.334.633-.37.42-.554.946-.554 1.575V431h-.972v-6.422h.803l.11 1.19h.048c.24-.418.526-.74.862-.967a1.94 1.94 0 0 1 1.107-.34zm7.154 6.54h-5.63v-.838l2.255-2.267c.686-.696 1.14-1.192 1.358-1.49.22-.296.383-.585.492-.866.11-.282.164-.585.164-.91 0-.456-.138-.818-.416-1.086-.277-.268-.662-.4-1.154-.4-.355 0-.692.057-1.01.174-.32.118-.674.33-1.064.64l-.516-.663c.79-.656 1.65-.984 2.578-.984.805 0 1.436.207 1.893.62.457.41.685.965.685 1.66 0 .543-.152 1.08-.457 1.61-.304.532-.875 1.204-1.71 2.017l-1.875 1.834v.048h4.406V431zM447.283 422.434L444.09 431h-.973l3.194-8.566h.973zm2.07 2.144v4.166c0 .524.118.914.356 1.172.237.258.61.387 1.118.387.672 0 1.163-.184 1.474-.55.31-.368.466-.968.466-1.8v-3.375h.972V431h-.803l-.14-.86h-.053c-.2.315-.475.557-.83.725a2.787 2.787 0 0 1-1.21.252c-.78 0-1.365-.185-1.754-.556-.388-.37-.583-.964-.583-1.78v-4.202h.985zm10.592 4.67c0 .598-.222 1.06-.668 1.383-.445.325-1.07.487-1.875.487-.85 0-1.515-.135-1.992-.404v-.902c.31.157.64.28.993.37.354.09.695.134 1.023.134.508 0 .898-.08 1.172-.243.273-.16.41-.408.41-.74 0-.25-.11-.464-.325-.642-.217-.177-.64-.387-1.27-.63-.597-.222-1.02-.416-1.273-.582a1.74 1.74 0 0 1-.563-.566 1.475 1.475 0 0 1-.184-.756c0-.523.212-.936.638-1.24.427-.302 1.01-.453 1.753-.453.692 0 1.367.142 2.028.423l-.345.79c-.645-.265-1.23-.398-1.752-.398-.46 0-.81.073-1.043.217-.234.145-.352.344-.352.598 0 .172.044.318.132.44.088.12.23.236.425.345.195.11.57.268 1.125.475.762.277 1.276.556 1.544.837.268.282.4.635.4 1.06zm4.295 1.87c-.95 0-1.698-.29-2.247-.868-.55-.578-.823-1.38-.823-2.408 0-1.035.255-1.858.765-2.467.51-.61 1.194-.914 2.053-.914.805 0 1.442.266 1.91.795.47.53.704 1.227.704 2.095v.615h-4.424c.02.754.21 1.326.57 1.717.362.39.87.586 1.527.586.692 0 1.375-.145 2.05-.434v.867c-.343.15-.668.256-.974.32a5.483 5.483 0 0 1-1.11.097zm-.263-5.843c-.516 0-.927.168-1.234.504-.306.335-.487.8-.542 1.394h3.36c0-.613-.138-1.083-.412-1.41-.273-.326-.664-.49-1.17-.49zm7.212-.814c.285 0 .54.024.767.07l-.135.904c-.265-.06-.5-.088-.703-.088-.52 0-.965.21-1.334.633-.37.42-.554.946-.554 1.575V431h-.972v-6.422h.803l.11 1.19h.048c.24-.418.526-.74.862-.967a1.94 1.94 0 0 1 1.107-.34zm6.83-.01c0 .546-.152.993-.458 1.34-.307.35-.742.58-1.304.698v.047c.687.086 1.197.305 1.53.656.33.353.497.814.497 1.384 0 .817-.283 1.445-.85 1.884-.566.44-1.37.66-2.414.66-.452 0-.867-.035-1.244-.103a4.26 4.26 0 0 1-1.098-.36v-.926c.37.182.766.322 1.186.417.42.096.818.144 1.193.144 1.48 0 2.22-.58 2.22-1.74 0-1.038-.816-1.558-2.45-1.558h-.843v-.838h.856c.668 0 1.197-.147 1.588-.442.39-.295.586-.704.586-1.228 0-.418-.144-.746-.43-.984-.288-.238-.678-.357-1.17-.357-.375 0-.728.05-1.06.152-.333.1-.71.29-1.137.562l-.492-.656a4.103 4.103 0 0 1 1.215-.652 4.42 4.42 0 0 1 1.45-.237c.833 0 1.48.19 1.94.572.46.38.69.903.69 1.567z" fill="#066DA5"/><path fill="#066DA5" opacity=".4" d="M400 360h1v17h-1zM439.69 360l-.69.586L458.31 377l.69-.586zM363.31 360l.69.586L344.69 377l-.69-.586z"/><path d="M303.315 56.037c-1.14 0-2.02.428-2.646 1.284-.626.857-.94 2.05-.94 3.58 0 3.184 1.196 4.776 3.585 4.776 1.003 0 2.217-.25 3.643-.752v2.54c-1.172.487-2.48.73-3.926.73-2.077 0-3.665-.63-4.765-1.888-1.1-1.26-1.65-3.068-1.65-5.425 0-1.484.27-2.784.81-3.9.54-1.117 1.316-1.973 2.33-2.57 1.01-.595 2.198-.892 3.558-.892 1.387 0 2.78.335 4.18 1.005l-.976 2.46a16.165 16.165 0 0 0-1.613-.663 4.807 4.807 0 0 0-1.592-.283zm8.82 6.484c0 1.082.176 1.9.53 2.453.356.553.934.83 1.734.83.794 0 1.365-.275 1.713-.825.35-.55.523-1.37.523-2.457 0-1.08-.176-1.89-.528-2.43-.35-.54-.927-.81-1.728-.81-.794 0-1.367.268-1.72.805-.35.537-.526 1.35-.526 2.436zm7.548 0c0 1.78-.47 3.17-1.407 4.17-.937 1.004-2.242 1.505-3.916 1.505-1.048 0-1.972-.23-2.773-.688a4.58 4.58 0 0 1-1.846-1.978c-.428-.86-.643-1.863-.643-3.01 0-1.782.465-3.17 1.396-4.16.93-.988 2.24-1.483 3.926-1.483 1.047 0 1.972.228 2.772.684.8.456 1.416 1.11 1.846 1.963.43.853.645 1.853.645 2.998zm5.44 5.48h-2.98V52.805h2.98V68zm6.103 0h-2.98V52.805h2.98V68zm7.646-9.004c-.63 0-1.126.2-1.484.6-.358.4-.563.97-.616 1.705h4.18c-.013-.735-.205-1.303-.576-1.703-.37-.4-.872-.6-1.504-.6zm.42 9.2c-1.758 0-3.132-.486-4.12-1.456-.99-.97-1.485-2.344-1.485-4.12 0-1.83.457-3.245 1.372-4.244.913-1 2.178-1.5 3.793-1.5 1.543 0 2.744.44 3.603 1.32.86.878 1.29 2.092 1.29 3.642v1.445h-7.042c.033.847.283 1.507.752 1.983.47.475 1.126.713 1.973.713a8.19 8.19 0 0 0 1.864-.207 9.333 9.333 0 0 0 1.836-.654v2.304c-.52.26-1.078.454-1.67.58-.592.128-1.315.19-2.168.19zm11.31 0c-3.4 0-5.1-1.866-5.1-5.596 0-1.856.463-3.273 1.388-4.253.924-.98 2.25-1.47 3.974-1.47 1.263 0 2.396.247 3.4.742l-.88 2.304c-.47-.19-.905-.344-1.31-.464a4.216 4.216 0 0 0-1.21-.18c-1.55 0-2.324 1.1-2.324 3.3 0 2.136.775 3.203 2.324 3.203a5.3 5.3 0 0 0 1.592-.23 5.747 5.747 0 0 0 1.465-.717v2.55a4.8 4.8 0 0 1-1.46.634c-.49.117-1.11.175-1.86.175zm10.448-2.374c.52 0 1.146-.114 1.875-.342v2.217c-.742.332-1.654.498-2.735.498-1.19 0-2.058-.3-2.602-.903-.544-.602-.816-1.506-.816-2.71v-5.264h-1.425v-1.26l1.64-.995.86-2.305h1.904v2.324h3.058v2.236h-3.057v5.264c0 .423.12.736.357.938.238.2.552.302.943.302zm3.955-11.562c0-.97.54-1.455 1.62-1.455 1.082 0 1.622.485 1.622 1.455 0 .462-.135.822-.405 1.08-.27.256-.676.385-1.216.385-1.08 0-1.62-.49-1.62-1.465zM368.11 68h-2.978V57.082h2.978V68zm5.498-5.48c0 1.082.178 1.9.533 2.453.355.553.933.83 1.734.83.794 0 1.366-.275 1.714-.825.348-.55.522-1.37.522-2.457 0-1.08-.175-1.89-.527-2.43-.352-.54-.928-.81-1.73-.81-.793 0-1.366.268-1.717.805-.352.537-.528 1.35-.528 2.436zm7.55 0c0 1.78-.47 3.17-1.407 4.17-.937 1.004-2.242 1.505-3.915 1.505-1.048 0-1.973-.23-2.773-.688a4.58 4.58 0 0 1-1.846-1.978c-.43-.86-.645-1.863-.645-3.01 0-1.782.467-3.17 1.398-4.16.93-.988 2.24-1.483 3.926-1.483 1.048 0 1.972.228 2.773.684.8.456 1.416 1.11 1.846 1.963.43.853.644 1.853.644 2.998zM393.695 68h-2.978v-6.377c0-.788-.14-1.38-.42-1.772-.28-.393-.726-.59-1.338-.59-.833 0-1.436.278-1.807.835-.37.556-.556 1.48-.556 2.768V68h-2.98V57.082h2.277l.4 1.397h.166c.332-.53.79-.928 1.372-1.198.583-.27 1.245-.405 1.987-.405 1.27 0 2.232.343 2.89 1.03.658.687.986 1.678.986 2.974V68zm10.684-3.242c0 1.12-.39 1.972-1.167 2.558-.778.586-1.942.88-3.49.88-.796 0-1.473-.054-2.033-.162a7.683 7.683 0 0 1-1.572-.473V65.1c.554.26 1.177.478 1.87.654.694.176 1.304.264 1.83.264 1.082 0 1.622-.313 1.622-.938a.782.782 0 0 0-.214-.57c-.144-.148-.39-.314-.743-.5-.35-.185-.82-.4-1.406-.65-.84-.35-1.457-.676-1.85-.975-.394-.3-.68-.643-.86-1.03-.18-.388-.268-.865-.268-1.43 0-.97.375-1.722 1.127-2.252.752-.53 1.818-.796 3.198-.796 1.315 0 2.594.286 3.838.86l-.9 2.148a16.527 16.527 0 0 0-1.532-.576 4.815 4.815 0 0 0-1.454-.226c-.88 0-1.318.238-1.318.713 0 .267.14.498.424.693.284.196.904.485 1.86.87.854.344 1.48.667 1.876.966.397.3.69.645.88 1.035.187.392.282.857.282 1.398zm20.713-3.916c0 2.363-.586 4.18-1.758 5.45-1.172 1.27-2.852 1.903-5.04 1.903-2.187 0-3.866-.634-5.038-1.904-1.172-1.27-1.758-3.09-1.758-5.468 0-2.376.587-4.19 1.762-5.444 1.175-1.253 2.86-1.88 5.053-1.88 2.194 0 3.872.632 5.035 1.895 1.162 1.263 1.743 3.08 1.743 5.45zm-10.42 0c0 1.595.303 2.796.908 3.603.607.808 1.51 1.21 2.716 1.21 2.415 0 3.623-1.604 3.623-4.813 0-3.216-1.202-4.824-3.605-4.824-1.204 0-2.112.405-2.724 1.215-.61.81-.917 2.014-.917 3.61zM430.415 68l-4.16-10.918h3.115l2.11 6.22a11.1 11.1 0 0 1 .44 2.237h.058c.032-.626.18-1.37.44-2.237l2.1-6.22h3.114L433.472 68h-3.057zm13.3-9.004c-.63 0-1.125.2-1.484.6-.357.4-.562.97-.614 1.705h4.18c-.013-.735-.205-1.303-.576-1.703-.37-.4-.873-.6-1.504-.6zm.42 9.2c-1.757 0-3.13-.486-4.12-1.456-.99-.97-1.485-2.344-1.485-4.12 0-1.83.458-3.245 1.372-4.244.915-1 2.18-1.5 3.794-1.5 1.543 0 2.744.44 3.604 1.32.86.878 1.29 2.092 1.29 3.642v1.445h-7.042c.032.847.283 1.507.752 1.983.47.475 1.126.713 1.972.713a8.19 8.19 0 0 0 1.866-.207 9.333 9.333 0 0 0 1.836-.654v2.304c-.52.26-1.078.454-1.67.58-.593.128-1.315.19-2.168.19zm12.97-11.32c.403 0 .738.03 1.005.09l-.224 2.792a3.412 3.412 0 0 0-.88-.098c-.95 0-1.69.244-2.22.733-.53.488-.797 1.17-.797 2.05V68h-2.98V57.082h2.257l.44 1.836h.146a4.104 4.104 0 0 1 1.372-1.48 3.383 3.383 0 0 1 1.88-.56zM462.69 68l-4.16-10.918h3.116l2.11 6.22a11.1 11.1 0 0 1 .438 2.237h.06c.03-.626.178-1.37.438-2.237l2.1-6.22h3.115L465.747 68h-3.057zm8.653-13.74c0-.97.54-1.455 1.62-1.455 1.082 0 1.622.485 1.622 1.455 0 .462-.135.822-.405 1.08-.27.256-.676.385-1.216.385-1.08 0-1.62-.49-1.62-1.465zM474.448 68h-2.978V57.082h2.978V68zm7.647-9.004c-.632 0-1.127.2-1.485.6-.358.4-.563.97-.615 1.705h4.18c-.013-.735-.205-1.303-.576-1.703-.372-.4-.874-.6-1.505-.6zm.42 9.2c-1.758 0-3.132-.486-4.12-1.456-.99-.97-1.486-2.344-1.486-4.12 0-1.83.457-3.245 1.37-4.244.916-1 2.18-1.5 3.795-1.5 1.543 0 2.744.44 3.604 1.32.858.878 1.288 2.092 1.288 3.642v1.445h-7.04c.03.847.282 1.507.75 1.983.47.475 1.127.713 1.973.713a8.19 8.19 0 0 0 1.867-.207 9.333 9.333 0 0 0 1.836-.654v2.304c-.52.26-1.078.454-1.67.58-.593.128-1.315.19-2.168.19zm15.45-.196l-.84-3.818-1.134-4.825h-.067L493.93 68h-3.202l-3.106-10.918h2.97l1.26 4.834c.2.866.405 2.06.614 3.584h.058c.026-.495.14-1.28.342-2.354l.156-.83 1.348-5.234h3.28l1.28 5.234c.027.144.067.355.123.635a38.176 38.176 0 0 1 .303 1.82c.042.305.066.548.073.73h.057c.06-.47.163-1.112.313-1.93.15-.816.257-1.368.322-1.654l1.31-4.834h2.92L501.205 68h-3.242z" fill="#066DA5"/><path d="M540.48 239.406c0-1.324.235-2.55.704-3.674.468-1.125 1.218-2.224 2.25-3.298h.92c-.96 1.054-1.687 2.168-2.177 3.34a9.297 9.297 0 0 0-.736 3.62c0 1.325.224 2.493.67 3.504h-.768c-.574-1.04-.862-2.203-.862-3.492zm7.706-1.13h-2.907L543.843 241h-1.108l4.682-8.566h1.02l1.078 8.566h-.996l-.334-2.725zm-.106-.915l-.205-1.75c-.094-.7-.15-1.383-.17-2.05-.144.342-.302.684-.472 1.024-.17.34-.657 1.266-1.462 2.777h2.31zm5.748-2.887c.758 0 1.307.37 1.647 1.113h.058c.067-.606.154-1.14.264-1.606l.457-2.097h.973L555.293 241h-.814l.127-1.225h-.046c-.394.49-.763.834-1.107 1.037a2.07 2.07 0 0 1-1.066.305c-.543 0-.967-.19-1.272-.574-.304-.383-.457-.914-.457-1.594 0-.837.14-1.602.422-2.298.28-.695.66-1.232 1.14-1.61a2.526 2.526 0 0 1 1.608-.57zm-1.113 5.83c.367 0 .746-.183 1.137-.548.39-.365.7-.832.928-1.4a4.62 4.62 0 0 0 .343-1.738c0-.433-.105-.763-.316-.99-.21-.227-.518-.34-.92-.34-.395 0-.76.16-1.1.484-.337.323-.608.776-.813 1.36a5.52 5.52 0 0 0-.308 1.843c0 .886.35 1.33 1.05 1.33zm8.373.697l.867-4.055c.07-.367.106-.63.106-.79 0-.274-.06-.487-.18-.64-.122-.152-.33-.228-.622-.228-.328 0-.648.117-.958.352-.31.233-.584.568-.82 1.004-.237.435-.42.96-.548 1.573L558.34 241h-.985l1.372-6.422h.814l-.128 1.19h.06c.34-.465.677-.8 1.015-1.002a2.004 2.004 0 0 1 1.046-.305c.442 0 .78.128 1.02.382.238.254.38.607.422 1.06h.046c.337-.488.695-.85 1.074-1.087.38-.236.76-.354 1.148-.354.496 0 .88.134 1.152.4.27.265.407.652.407 1.16 0 .265-.042.613-.128 1.042l-.844 3.938h-.996l.867-4.055c.077-.406.116-.69.116-.855 0-.242-.067-.437-.202-.583-.135-.147-.346-.22-.635-.22-.318 0-.63.113-.94.34-.308.227-.578.548-.81.964-.233.417-.41.91-.53 1.48l-.628 2.93h-.984zm7.717 0h-.985l1.37-6.422h.986l-1.37 6.422zm.662-8.063a.77.77 0 0 1 .187-.536.624.624 0 0 1 .487-.207c.344 0 .516.176.516.528a.795.795 0 0 1-.196.546.59.59 0 0 1-.454.222.54.54 0 0 1-.387-.143c-.102-.096-.153-.232-.153-.407zm5.326 8.063l.867-4.055c.078-.406.117-.687.117-.843 0-.247-.07-.444-.208-.592-.14-.15-.36-.223-.666-.223-.347 0-.686.117-1.016.352-.33.233-.62.567-.873 1-.252.434-.443.96-.572 1.577l-.59 2.783h-.986l1.37-6.422h.816l-.13 1.19h.06c.374-.477.737-.814 1.086-1.01.35-.198.71-.297 1.086-.297.496 0 .888.137 1.175.408.288.272.432.652.432 1.14 0 .308-.045.66-.135 1.054L575.79 241h-.997zm5.584-5.063c0 1.333-.237 2.562-.712 3.69-.475 1.126-1.222 2.217-2.24 3.27h-.915c1.937-2.15 2.906-4.47 2.906-6.96 0-1.332-.22-2.5-.662-3.503h.767c.572 1.05.857 2.218.857 3.504z" fill="#066DA5" opacity=".7"/></g></svg>