<?xml version="1.0" encoding="utf-8"?>
<!-- Generator: Adobe Illustrator 23.0.1, SVG Export Plug-In . SVG Version: 6.00 Build 0)  -->
<svg version="1.1" xmlns="http://www.w3.org/2000/svg" xmlns:xlink="http://www.w3.org/1999/xlink" x="0px" y="0px"
	 viewBox="0 0 740 250" style="enable-background:new 0 0 740 250;" xml:space="preserve">
<style type="text/css">
	.st0{fill:#FFFFFF;}
	.st1{fill-rule:evenodd;clip-rule:evenodd;fill:#82949E;}
	.st2{font-family:'OpenSans';}
	.st3{font-size:14px;}
	.st4{fill-rule:evenodd;clip-rule:evenodd;fill:#1488C6;}
	.st5{fill-rule:evenodd;clip-rule:evenodd;fill:#00B6B5;}
	.st6{fill:#82949E;}
	.st7{font-size:12px;}
	.st8{fill:none;stroke:#82949E;stroke-width:2;stroke-linecap:round;stroke-linejoin:round;}
	.st9{fill-rule:evenodd;clip-rule:evenodd;fill:#8F9EA8;}
</style>
<g id="Layer_1">
	<rect class="st0" width="740" height="250"/>
	<title>architecture-1</title>
	<desc>Created with Sketch.</desc>
	<g id="architecture-diagrams">
		<g id="architecture-1">
			<g id="Group" transform="translate(28.000000, 51.000000)">
				<g id="stack">
					<g id="servers" transform="translate(0.000000, 114.000000)">
						<g id="cloud">
							<path id="Rectangle-138" class="st1" d="M2,0h168c1.1,0,2,0.9,2,2v30c0,1.1-0.9,2-2,2H2c-1.1,0-2-0.9-2-2V2C0,0.9,0.9,0,2,0z
								"/>
							<text transform="matrix(1 0 0 1 42.5098 23)" class="st0 st2 st3">cloud servers</text>
						</g>
						<g id="virtual" transform="translate(176.000000, 0.000000)">
							<path class="st1" d="M2,0h168c1.1,0,2,0.9,2,2v30c0,1.1-0.9,2-2,2H2c-1.1,0-2-0.9-2-2V2C0,0.9,0.9,0,2,0z"/>
							<text transform="matrix(1 0 0 1 39.8608 23)" class="st0 st2 st3">virtual servers</text>
						</g>
						<g id="physical" transform="translate(352.000000, 0.000000)">
							<path class="st1" d="M2,0h168c1.1,0,2,0.9,2,2v30c0,1.1-0.9,2-2,2H2c-1.1,0-2-0.9-2-2V2C0,0.9,0.9,0,2,0z"/>
							<text transform="matrix(1 0 0 1 34.2075 23)" class="st0 st2 st3">physical servers</text>
						</g>
					</g>
					<g id="docker" transform="translate(0.000000, 76.000000)">
						<path class="st4" d="M2,0h520c1.1,0,2,0.9,2,2v30c0,1.1-0.9,2-2,2H2c-1.1,0-2-0.9-2-2V2C0,0.9,0.9,0,2,0z"/>
						<text transform="matrix(1 0 0 1 225.4644 23)" class="st0 st2 st3">Docker EE</text>
					</g>
					<g id="ucp" transform="translate(0.000000, 38.000000)">
						<path class="st4" d="M2,0h520c1.1,0,2,0.9,2,2v30c0,1.1-0.9,2-2,2H2c-1.1,0-2-0.9-2-2V2C0,0.9,0.9,0,2,0z"/>
						<text transform="matrix(1 0 0 1 185.5366 23)" class="st0 st2 st3">Universal Control Plane</text>
					</g>
					<g id="dtr">
						<path class="st4" d="M2,0h168c1.1,0,2,0.9,2,2v30c0,1.1-0.9,2-2,2H2c-1.1,0-2-0.9-2-2V2C0,0.9,0.9,0,2,0z"/>
						<text transform="matrix(1 0 0 1 8.1318 23)" class="st0 st2 st3">Docker Trusted Registry</text>
					</g>
					<g id="your-apps" transform="translate(176.000000, 0.000000)">
						<path class="st5" d="M2,0h344c1.1,0,2,0.9,2,2v30c0,1.1-0.9,2-2,2H2c-1.1,0-2-0.9-2-2V2C0,0.9,0.9,0,2,0z"/>
						<text transform="matrix(1 0 0 1 118.4282 23)" class="st0 st2 st3">your applications</text>
					</g>
				</g>
				<g id="user" transform="translate(528.000000, 44.000000)">
					<g transform="translate(44.000000, 0.000000)">
						<text transform="matrix(1 0 0 1 0 39)" class="st6 st2 st7">deploy and manage</text>
						<path id="Shape" class="st1" d="M56,13c3.6,0,6.5-2.9,6.5-6.5C62.5,2.9,59.6,0,56,0s-6.5,2.9-6.5,6.5C49.5,10.1,52.4,13,56,13
							L56,13z M56,16.2c-4.3,0-13,2.2-13,6.5V26h26v-3.2C69,18.4,60.3,16.2,56,16.2L56,16.2z"/>
					</g>
					<g id="arrow" transform="translate(0.000000, 8.000000)">
						<path id="Line" class="st8" d="M1.5,5H60"/>
						<circle id="Oval" class="st9" cx="5" cy="5" r="5"/>
					</g>
				</g>
			</g>
		</g>
	</g>
</g>
<g id="Layer_2">
</g>
</svg>
