<svg width="800" height="500" viewBox="0 0 800 500" xmlns="http://www.w3.org/2000/svg" style="background:#FFF"><title>nodes_containers</title><g fill="none" fill-rule="evenodd"><path fill="#FBFBFC" d="M0 0h800v500H0z"/><path d="M305.47 68h-3.85l-6.21-10.8h-.088c.124 1.907.186 3.267.186 4.08V68h-2.705V53.723h3.818l6.202 10.693h.07c-.1-1.855-.148-3.167-.148-3.936v-6.757h2.725V68zm5.73-5.48c0 1.082.18 1.9.533 2.453.355.553.933.83 1.734.83.794 0 1.365-.275 1.714-.825.35-.55.523-1.37.523-2.457 0-1.08-.176-1.89-.527-2.43-.352-.54-.928-.81-1.73-.81-.793 0-1.366.268-1.717.805-.353.537-.53 1.35-.53 2.436zm7.55 0c0 1.78-.47 3.17-1.406 4.17-.938 1.004-2.243 1.505-3.916 1.505-1.048 0-1.973-.23-2.774-.688a4.58 4.58 0 0 1-1.845-1.978c-.43-.86-.646-1.863-.646-3.01 0-1.782.466-3.17 1.397-4.16.932-.988 2.24-1.483 3.926-1.483 1.05 0 1.973.228 2.774.684.8.456 1.416 1.11 1.845 1.963.43.853.645 1.853.645 2.998zm5.918 5.675c-1.283 0-2.29-.498-3.022-1.494-.733-.995-1.1-2.375-1.1-4.14 0-1.79.374-3.185 1.12-4.184.744-1 1.77-1.5 3.08-1.5 1.374 0 2.422.535 3.145 1.603h.098c-.15-.815-.224-1.54-.224-2.18v-3.495h2.988V68h-2.285l-.576-1.416h-.126c-.677 1.074-1.71 1.61-3.096 1.61zm1.045-2.373c.762 0 1.32-.22 1.675-.664.355-.443.548-1.194.58-2.256v-.322c0-1.172-.18-2.012-.54-2.52-.363-.507-.95-.76-1.764-.76-.664 0-1.18.28-1.548.844-.368.563-.552 1.38-.552 2.456 0 1.074.186 1.88.557 2.417.372.537.903.805 1.593.805zm12.676-6.826c-.633 0-1.128.2-1.486.6-.358.4-.563.97-.615 1.705h4.18c-.014-.735-.206-1.303-.577-1.703-.372-.4-.873-.6-1.504-.6zm.42 9.2c-1.76 0-3.133-.486-4.123-1.456-.99-.97-1.484-2.344-1.484-4.12 0-1.83.457-3.245 1.372-4.244.915-1 2.18-1.5 3.794-1.5 1.542 0 2.743.44 3.603 1.32.86.878 1.29 2.092 1.29 3.642v1.445h-7.042c.033.847.284 1.507.753 1.983.468.475 1.126.713 1.972.713a8.19 8.19 0 0 0 1.866-.207 9.333 9.333 0 0 0 1.836-.654v2.304c-.52.26-1.077.454-1.67.58-.592.128-1.315.19-2.167.19zm14.49-3.438c0 1.12-.388 1.972-1.166 2.558-.778.586-1.942.88-3.49.88-.796 0-1.473-.054-2.033-.162a7.683 7.683 0 0 1-1.57-.473V65.1c.552.26 1.176.478 1.87.654.693.176 1.303.264 1.83.264 1.08 0 1.62-.313 1.62-.938a.782.782 0 0 0-.214-.57c-.143-.148-.39-.314-.742-.5-.35-.185-.82-.4-1.406-.65-.84-.35-1.457-.676-1.85-.975-.394-.3-.68-.643-.86-1.03-.18-.388-.268-.865-.268-1.43 0-.97.376-1.722 1.127-2.252.752-.53 1.818-.796 3.2-.796 1.314 0 2.593.286 3.837.86l-.9 2.148a16.527 16.527 0 0 0-1.532-.576 4.815 4.815 0 0 0-1.455-.226c-.88 0-1.318.238-1.318.713 0 .267.14.498.423.693.284.196.904.485 1.86.87.854.344 1.48.667 1.876.966.396.3.69.645.878 1.035.188.392.283.857.283 1.398zM367.755 68l-.576-1.484h-.078c-.502.63-1.018 1.07-1.548 1.313-.53.243-1.223.365-2.075.365-1.05 0-1.874-.3-2.476-.898-.6-.6-.902-1.452-.902-2.56 0-1.158.405-2.012 1.215-2.562.81-.55 2.033-.855 3.667-.913l1.895-.06v-.477c0-1.107-.566-1.66-1.7-1.66-.872 0-1.897.263-3.075.79l-.987-2.01c1.257-.66 2.65-.988 4.18-.988 1.465 0 2.588.32 3.37.957.78.638 1.17 1.61 1.17 2.91V68h-2.08zm-.88-5.06l-1.15.04c-.867.027-1.512.183-1.935.47-.424.286-.636.722-.636 1.308 0 .84.482 1.26 1.446 1.26.69 0 1.24-.2 1.655-.596.413-.397.62-.925.62-1.582v-.9zM382.98 68H380v-6.377c0-.788-.14-1.38-.42-1.772-.28-.393-.726-.59-1.338-.59-.833 0-1.435.278-1.806.835-.372.556-.557 1.48-.557 2.768V68h-2.98V57.082h2.276l.4 1.397h.166c.332-.53.79-.928 1.372-1.198.583-.27 1.245-.405 1.988-.405 1.27 0 2.233.343 2.89 1.03.658.687.987 1.678.987 2.974V68zm6.522.195c-1.283 0-2.29-.498-3.023-1.494-.733-.995-1.1-2.375-1.1-4.14 0-1.79.374-3.185 1.12-4.184.744-1 1.77-1.5 3.08-1.5 1.374 0 2.422.535 3.145 1.603h.097c-.15-.815-.224-1.54-.224-2.18v-3.495h2.988V68H393.3l-.575-1.416h-.127c-.677 1.074-1.71 1.61-3.096 1.61zm1.045-2.373c.762 0 1.32-.22 1.675-.664.354-.443.548-1.194.58-2.256v-.322c0-1.172-.18-2.012-.54-2.52-.363-.507-.95-.76-1.764-.76-.664 0-1.18.28-1.548.844-.368.563-.552 1.38-.552 2.456 0 1.074.186 1.88.557 2.417.37.537.902.805 1.592.805zm17.783 2.373c-3.398 0-5.098-1.865-5.098-5.595 0-1.856.463-3.273 1.387-4.253.924-.98 2.248-1.47 3.974-1.47 1.263 0 2.396.247 3.398.742l-.88 2.304c-.467-.19-.904-.344-1.307-.464a4.216 4.216 0 0 0-1.21-.18c-1.55 0-2.325 1.1-2.325 3.3 0 2.136.774 3.203 2.324 3.203a5.3 5.3 0 0 0 1.592-.23 5.747 5.747 0 0 0 1.464-.717v2.55a4.8 4.8 0 0 1-1.46.634c-.49.117-1.11.175-1.86.175zm8.223-5.674c0 1.082.177 1.9.532 2.453.355.553.933.83 1.733.83.795 0 1.366-.275 1.714-.825.35-.55.523-1.37.523-2.457 0-1.08-.176-1.89-.528-2.43-.35-.54-.927-.81-1.728-.81-.795 0-1.368.268-1.72.805-.35.537-.527 1.35-.527 2.436zm7.55 0c0 1.78-.47 3.17-1.408 4.17-.937 1.004-2.243 1.505-3.916 1.505-1.05 0-1.973-.23-2.774-.688a4.58 4.58 0 0 1-1.846-1.978c-.43-.86-.644-1.863-.644-3.01 0-1.782.465-3.17 1.396-4.16.93-.988 2.24-1.483 3.926-1.483 1.048 0 1.973.228 2.773.684.802.456 1.417 1.11 1.847 1.963.43.853.645 1.853.645 2.998zM436.64 68h-2.978v-6.377c0-.788-.14-1.38-.42-1.772-.28-.393-.726-.59-1.338-.59-.833 0-1.435.278-1.806.835-.37.556-.557 1.48-.557 2.768V68h-2.978V57.082h2.276l.4 1.397h.166c.332-.53.79-.928 1.372-1.198.583-.27 1.245-.405 1.988-.405 1.27 0 2.233.343 2.89 1.03.658.687.987 1.678.987 2.974V68zm7.667-2.178c.52 0 1.145-.114 1.875-.342v2.217c-.743.332-1.654.498-2.735.498-1.19 0-2.06-.3-2.602-.903-.544-.602-.816-1.506-.816-2.71v-5.264h-1.426v-1.26l1.64-.995.86-2.305h1.904v2.324h3.056v2.236h-3.056v5.264c0 .423.12.736.356.938.238.2.552.302.943.302zM455.322 68l-.576-1.484h-.078c-.5.63-1.017 1.07-1.548 1.313-.53.243-1.222.365-2.075.365-1.048 0-1.873-.3-2.476-.898-.603-.6-.904-1.452-.904-2.56 0-1.158.405-2.012 1.216-2.562.81-.55 2.033-.855 3.667-.913l1.893-.06v-.477c0-1.107-.566-1.66-1.7-1.66-.87 0-1.897.263-3.075.79l-.986-2.01c1.256-.66 2.65-.988 4.18-.988 1.464 0 2.587.32 3.368.957.782.638 1.172 1.61 1.172 2.91V68h-2.08zm-.88-5.06l-1.15.04c-.867.027-1.51.183-1.935.47-.423.286-.634.722-.634 1.308 0 .84.48 1.26 1.445 1.26.69 0 1.242-.2 1.655-.596.414-.397.62-.925.62-1.582v-.9zm5.9-8.68c0-.97.54-1.455 1.62-1.455 1.082 0 1.622.485 1.622 1.455 0 .462-.135.822-.405 1.08-.27.256-.677.385-1.217.385-1.08 0-1.62-.49-1.62-1.465zM463.447 68h-2.978V57.082h2.977V68zm13.203 0h-2.978v-6.377c0-.788-.14-1.38-.42-1.772-.28-.393-.726-.59-1.338-.59-.833 0-1.435.278-1.807.835-.37.556-.556 1.48-.556 2.768V68h-2.978V57.082h2.276l.4 1.397h.166c.332-.53.79-.928 1.372-1.198.583-.27 1.245-.405 1.987-.405 1.27 0 2.234.343 2.89 1.03.66.687.987 1.678.987 2.974V68zm7.588-9.004c-.63 0-1.126.2-1.484.6-.358.4-.563.97-.615 1.705h4.178c-.013-.735-.205-1.303-.576-1.703-.37-.4-.872-.6-1.504-.6zm.42 9.2c-1.758 0-3.13-.486-4.12-1.456-.99-.97-1.485-2.344-1.485-4.12 0-1.83.457-3.245 1.372-4.244.915-1 2.18-1.5 3.794-1.5 1.542 0 2.743.44 3.602 1.32.86.878 1.29 2.092 1.29 3.642v1.445h-7.042c.033.847.284 1.507.752 1.983.47.475 1.127.713 1.973.713a8.19 8.19 0 0 0 1.865-.207 9.333 9.333 0 0 0 1.836-.654v2.304c-.52.26-1.077.454-1.67.58-.592.128-1.315.19-2.168.19zm12.97-11.32c.403 0 .738.03 1.005.09l-.225 2.792a3.412 3.412 0 0 0-.88-.098c-.95 0-1.69.244-2.22.733-.53.488-.796 1.17-.796 2.05V68h-2.98V57.082h2.257l.44 1.836h.145a4.104 4.104 0 0 1 1.372-1.48 3.383 3.383 0 0 1 1.88-.56zm10.604 7.882c0 1.12-.39 1.972-1.167 2.558-.778.586-1.94.88-3.49.88-.795 0-1.472-.054-2.032-.162a7.683 7.683 0 0 1-1.572-.473V65.1c.554.26 1.177.478 1.87.654.694.176 1.305.264 1.832.264 1.08 0 1.62-.313 1.62-.938a.782.782 0 0 0-.214-.57c-.143-.148-.39-.314-.742-.5-.352-.185-.82-.4-1.406-.65-.84-.35-1.457-.676-1.85-.975-.395-.3-.68-.643-.86-1.03-.18-.388-.27-.865-.27-1.43 0-.97.377-1.722 1.13-2.252.75-.53 1.817-.796 3.197-.796 1.315 0 2.595.286 3.838.86l-.898 2.148a16.527 16.527 0 0 0-1.533-.576 4.815 4.815 0 0 0-1.455-.226c-.88 0-1.32.238-1.32.713 0 .267.142.498.425.693.283.196.903.485 1.86.87.853.344 1.478.667 1.875.966.397.3.69.645.88 1.035.188.392.282.857.282 1.398z" fill="#066DA5"/><path d="M223 175v-24h-80v24h-16v56h112v-56h-16zm-72-16h64v16h-64v-16zm80 64h-96v-40h96v40zm-8-88h-80v8h80v-8zm0-16h-80v8h80v-8zM429 175v-24h-80v24h-16v56h112v-56h-16zm-72-16h64v16h-64v-16zm80 64h-96v-40h96v40zm-8-88h-80v8h80v-8zm0-16h-80v8h80v-8zM635 175v-24h-80v24h-16v56h112v-56h-16zm-72-16h64v16h-64v-16zm80 64h-96v-40h96v40zm-8-88h-80v8h80v-8zm0-16h-80v8h80v-8z" fill="#066DA5" fill-rule="nonzero" opacity=".15"/><path d="M156.425 197.15l-4.79 12.85h-1.46l4.79-12.85h1.46zm7.945 10.222c0 .897-.334 1.588-1.002 2.074-.668.487-1.605.73-2.812.73-1.278 0-2.274-.202-2.99-.607v-1.354c.464.234.96.42 1.49.554a6.22 6.22 0 0 0 1.535.202c.763 0 1.348-.122 1.76-.365.41-.243.614-.614.614-1.112 0-.375-.163-.696-.488-.962-.325-.267-.96-.582-1.903-.945-.896-.334-1.533-.626-1.91-.875-.38-.25-.66-.53-.845-.848-.185-.316-.277-.694-.277-1.134 0-.784.32-1.403.96-1.857.638-.455 1.514-.682 2.627-.682 1.037 0 2.05.212 3.04.634l-.518 1.187c-.967-.398-1.843-.597-2.63-.597-.69 0-1.21.108-1.563.325-.352.217-.527.516-.527.897 0 .258.066.477.197.66.132.18.345.353.638.518.293.164.855.4 1.687.71 1.143.417 1.915.836 2.316 1.258.4.423.602.953.602 1.592zm.844-7.005h1.564l2.11 5.493c.463 1.254.75 2.16.86 2.716h.07c.078-.3.237-.81.48-1.534.244-.723 1.04-2.948 2.387-6.675h1.564l-4.14 10.97c-.41 1.083-.89 1.852-1.438 2.306-.547.454-1.22.68-2.017.68a5.87 5.87 0 0 1-1.318-.148v-1.17c.322.07.683.106 1.08.106 1.003 0 1.718-.56 2.145-1.686l.537-1.37-3.886-9.687zm16.813 7.005c0 .897-.334 1.588-1.002 2.074-.668.487-1.605.73-2.812.73-1.277 0-2.274-.202-2.988-.607v-1.354c.463.234.96.42 1.49.554a6.22 6.22 0 0 0 1.533.202c.762 0 1.348-.122 1.758-.365.41-.243.615-.614.615-1.112 0-.375-.162-.696-.487-.962-.325-.267-.96-.582-1.903-.945-.896-.334-1.533-.626-1.91-.875-.38-.25-.66-.53-.845-.848-.184-.316-.277-.694-.277-1.134 0-.784.32-1.403.958-1.857.64-.455 1.515-.682 2.628-.682 1.037 0 2.05.212 3.04.634l-.517 1.187c-.967-.398-1.843-.597-2.628-.597-.693 0-1.214.108-1.566.325-.35.217-.527.516-.527.897 0 .258.066.477.198.66.132.18.344.353.637.518.293.164.855.4 1.687.71 1.142.417 1.914.836 2.315 1.258.402.423.602.953.602 1.592zm5.485 1.6c.258 0 .507-.02.747-.057.24-.04.43-.078.57-.12v1.117c-.158.076-.39.14-.7.19-.306.05-.583.074-.83.074-1.863 0-2.794-.982-2.794-2.945v-5.73h-1.38v-.702l1.38-.607.615-2.055h.845v2.232h2.795v1.134h-2.795v5.67c0 .58.138 1.025.413 1.336.275.31.653.466 1.134.466zm7.312 1.204c-1.424 0-2.547-.434-3.37-1.3-.824-.868-1.235-2.072-1.235-3.613 0-1.553.38-2.786 1.146-3.7.764-.915 1.79-1.372 3.08-1.372 1.207 0 2.162.398 2.866 1.192.703.794 1.054 1.842 1.054 3.142v.923h-6.636c.03 1.13.315 1.99.857 2.575.542.586 1.306.88 2.29.88a7.76 7.76 0 0 0 3.076-.65v1.3a7.72 7.72 0 0 1-1.463.48c-.46.095-1.015.144-1.666.144zm-.395-8.763c-.775 0-1.39.252-1.85.756-.46.503-.732 1.2-.814 2.09h5.036c0-.92-.205-1.624-.615-2.113-.41-.49-.997-.734-1.758-.734zM213.13 210v-6.267c0-.767-.164-1.343-.492-1.727-.328-.383-.838-.575-1.53-.575-.908 0-1.58.26-2.012.783-.434.52-.65 1.324-.65 2.408V210h-1.46v-6.267c0-.767-.164-1.343-.492-1.727-.328-.383-.84-.575-1.538-.575-.914 0-1.583.275-2.008.822-.425.548-.637 1.446-.637 2.694V210h-1.46v-9.633h1.187l.237 1.32h.07c.276-.47.664-.836 1.165-1.1a3.558 3.558 0 0 1 1.683-.396c1.506 0 2.49.546 2.953 1.636h.07a3.072 3.072 0 0 1 1.25-1.195c.544-.292 1.165-.44 1.862-.44 1.09 0 1.906.28 2.448.84.542.56.813 1.455.813 2.686V210h-1.458zM363.425 197.15l-4.79 12.85h-1.46l4.79-12.85h1.46zm7.945 10.222c0 .897-.334 1.588-1.002 2.074-.668.487-1.605.73-2.812.73-1.278 0-2.274-.202-2.99-.607v-1.354c.464.234.96.42 1.49.554a6.22 6.22 0 0 0 1.535.202c.763 0 1.348-.122 1.76-.365.41-.243.614-.614.614-1.112 0-.375-.163-.696-.488-.962-.325-.267-.96-.582-1.903-.945-.896-.334-1.533-.626-1.91-.875-.38-.25-.66-.53-.845-.848-.185-.316-.277-.694-.277-1.134 0-.784.32-1.403.96-1.857.638-.455 1.514-.682 2.627-.682 1.037 0 2.05.212 3.04.634l-.518 1.187c-.967-.398-1.843-.597-2.63-.597-.69 0-1.21.108-1.563.325-.352.217-.527.516-.527.897 0 .258.066.477.197.66.132.18.345.353.638.518.293.164.855.4 1.687.71 1.143.417 1.915.836 2.316 1.258.4.423.602.953.602 1.592zm8.965 2.628v-6.23c0-.787-.18-1.373-.536-1.76-.36-.386-.918-.58-1.68-.58-1.014 0-1.753.276-2.22.827-.465.55-.698 1.453-.698 2.707V210h-1.46v-13.676h1.46v4.14c0 .498-.023.91-.07 1.24h.088a2.976 2.976 0 0 1 1.226-1.095c.53-.268 1.135-.4 1.815-.4 1.178 0 2.062.28 2.65.838.59.56.884 1.45.884 2.668V210h-1.46zm10.38 0l-.29-1.37h-.07c-.48.602-.96 1.01-1.438 1.225-.477.214-1.073.32-1.788.32-.956 0-1.705-.245-2.247-.738-.542-.492-.813-1.192-.813-2.1 0-1.945 1.556-2.965 4.667-3.06l1.635-.05v-.6c0-.755-.163-1.313-.488-1.673-.325-.36-.845-.54-1.56-.54-.803 0-1.71.245-2.724.737l-.45-1.115c.476-.258.996-.46 1.56-.606a6.757 6.757 0 0 1 1.702-.22c1.15 0 2 .254 2.553.764.554.51.83 1.327.83 2.452V210h-1.08zm-3.296-1.028c.907 0 1.62-.25 2.14-.747.518-.498.777-1.196.777-2.092v-.87l-1.46.06c-1.16.042-1.996.222-2.508.542-.514.32-.77.816-.77 1.49 0 .527.16.928.48 1.204.318.274.765.412 1.34.412zm11.776-8.78c.428 0 .812.035 1.152.105l-.202 1.353a4.97 4.97 0 0 0-1.055-.13c-.778 0-1.445.315-2 .948-.552.633-.83 1.42-.83 2.364V210h-1.458v-9.633h1.204l.167 1.784h.07c.358-.626.788-1.11 1.292-1.45a2.908 2.908 0 0 1 1.66-.51zm6.662 9.984c-1.423 0-2.547-.434-3.37-1.3-.823-.868-1.235-2.072-1.235-3.613 0-1.553.382-2.786 1.147-3.7.765-.915 1.79-1.372 3.08-1.372 1.208 0 2.163.398 2.866 1.192.703.794 1.054 1.842 1.054 3.142v.923h-6.635c.03 1.13.315 1.99.857 2.575.542.586 1.305.88 2.29.88a7.76 7.76 0 0 0 3.075-.65v1.3a7.72 7.72 0 0 1-1.463.48c-.46.095-1.015.144-1.666.144zm-.395-8.763c-.774 0-1.39.252-1.85.756-.46.503-.73 1.2-.813 2.09h5.036c0-.92-.205-1.624-.615-2.113-.41-.49-.995-.734-1.757-.734zm12.98 7.295h-.078c-.674.98-1.68 1.468-3.023 1.468-1.26 0-2.24-.43-2.94-1.292-.7-.862-1.05-2.086-1.05-3.674s.35-2.82 1.054-3.7c.703-.88 1.682-1.32 2.936-1.32 1.306 0 2.308.476 3.006 1.425h.114l-.062-.694-.035-.676v-3.92h1.46V210h-1.187l-.194-1.292zm-2.917.246c.996 0 1.72-.27 2.167-.813.448-.54.672-1.415.672-2.622v-.308c0-1.365-.227-2.34-.68-2.922-.455-.583-1.18-.875-2.176-.875-.857 0-1.51.333-1.966.998-.454.666-.68 1.605-.68 2.818 0 1.23.225 2.16.676 2.786.45.627 1.113.94 1.986.94zM578.425 189.15l-4.79 12.85h-1.46l4.79-12.85h1.46zm6.214 13.026a4.17 4.17 0 0 1-1.72-.347 3.23 3.23 0 0 1-1.305-1.07h-.105c.07.563.105 1.096.105 1.6v3.964h-1.46v-13.957h1.188l.202 1.32h.07c.375-.53.812-.91 1.31-1.144.498-.234 1.07-.352 1.714-.352 1.276 0 2.262.438 2.956 1.31.695.874 1.042 2.1 1.042 3.675 0 1.582-.353 2.81-1.06 3.687-.705.876-1.685 1.314-2.94 1.314zm-.212-8.745c-.985 0-1.697.273-2.136.818-.44.545-.665 1.412-.677 2.602v.325c0 1.353.226 2.322.677 2.905.45.583 1.175.874 2.17.874.833 0 1.485-.337 1.956-1.01.472-.674.708-1.603.708-2.787 0-1.2-.236-2.122-.708-2.764-.47-.642-1.135-.962-1.99-.962zm11.153-1.24c.43 0 .813.037 1.152.107l-.202 1.353a4.97 4.97 0 0 0-1.054-.13c-.78 0-1.446.315-2 .948s-.83 1.42-.83 2.364V202h-1.46v-9.633h1.205l.168 1.784h.07c.357-.626.788-1.11 1.292-1.45a2.908 2.908 0 0 1 1.66-.51zm10.908 4.985c0 1.57-.395 2.796-1.186 3.678-.79.882-1.884 1.323-3.28 1.323-.86 0-1.625-.202-2.293-.607-.668-.405-1.184-.985-1.547-1.74-.364-.757-.545-1.642-.545-2.655 0-1.57.392-2.794 1.177-3.67.786-.876 1.875-1.314 3.27-1.314 1.348 0 2.418.45 3.212 1.346.794.897 1.19 2.11 1.19 3.64zm-7.34 0c0 1.23.248 2.168.74 2.812.492.645 1.216.967 2.17.967.956 0 1.68-.32 2.176-.962.495-.642.743-1.58.743-2.817 0-1.225-.248-2.155-.743-2.79-.495-.636-1.226-.954-2.193-.954-.954 0-1.675.314-2.16.94-.487.628-.73 1.563-.73 2.805zm16.455 3.533h-.08c-.673.98-1.68 1.468-3.023 1.468-1.26 0-2.24-.43-2.94-1.292-.7-.862-1.05-2.086-1.05-3.674s.35-2.82 1.054-3.7c.704-.88 1.682-1.32 2.936-1.32 1.307 0 2.31.476 3.006 1.425h.114l-.06-.694-.037-.676v-3.92h1.46V202h-1.187l-.193-1.292zm-2.918.246c.996 0 1.718-.27 2.166-.813.45-.54.673-1.415.673-2.622v-.308c0-1.365-.227-2.34-.68-2.922-.455-.583-1.18-.875-2.176-.875-.855 0-1.51.333-1.964.998-.454.666-.682 1.605-.682 2.818 0 1.23.227 2.16.678 2.786.45.627 1.114.94 1.987.94z" fill="#066DA5"/><path d="M575.48 217.406c0-1.324.235-2.55.704-3.674.468-1.125 1.218-2.224 2.25-3.298h.92c-.96 1.054-1.687 2.168-2.177 3.34a9.297 9.297 0 0 0-.736 3.62c0 1.325.224 2.493.67 3.504h-.768c-.574-1.04-.862-2.203-.862-3.492zm7.706-1.13h-2.907L578.843 219h-1.108l4.682-8.566h1.02l1.078 8.566h-.996l-.334-2.725zm-.106-.915l-.205-1.75c-.094-.7-.15-1.383-.17-2.05-.144.342-.302.684-.472 1.024-.17.34-.657 1.266-1.462 2.777h2.31zm5.748-2.887c.758 0 1.307.37 1.647 1.113h.058c.067-.606.154-1.14.264-1.606l.457-2.097h.973L590.293 219h-.814l.127-1.225h-.046c-.394.49-.763.834-1.107 1.037a2.07 2.07 0 0 1-1.066.305c-.543 0-.967-.19-1.272-.574-.304-.383-.457-.914-.457-1.594 0-.837.14-1.602.422-2.298.28-.695.66-1.232 1.14-1.61a2.526 2.526 0 0 1 1.608-.57zm-1.113 5.83c.367 0 .746-.183 1.137-.548.39-.365.7-.832.928-1.4a4.62 4.62 0 0 0 .343-1.738c0-.433-.105-.763-.316-.99-.21-.227-.518-.34-.92-.34-.395 0-.76.16-1.1.484-.337.323-.608.776-.813 1.36a5.52 5.52 0 0 0-.308 1.843c0 .886.35 1.33 1.05 1.33zm8.373.697l.867-4.055c.07-.367.106-.63.106-.79 0-.274-.06-.487-.18-.64-.122-.152-.33-.228-.622-.228-.328 0-.648.117-.958.352-.31.233-.584.568-.82 1.004-.237.435-.42.96-.548 1.573L593.34 219h-.985l1.372-6.422h.814l-.128 1.19h.06c.34-.465.677-.8 1.015-1.002a2.004 2.004 0 0 1 1.046-.305c.442 0 .78.128 1.02.382.238.254.38.607.422 1.06h.046c.337-.488.695-.85 1.074-1.087.38-.236.76-.354 1.148-.354.496 0 .88.134 1.152.4.27.265.407.652.407 1.16 0 .265-.042.613-.128 1.042l-.844 3.938h-.996l.867-4.055c.077-.406.116-.69.116-.855 0-.242-.067-.437-.202-.583-.135-.147-.346-.22-.635-.22-.318 0-.63.113-.94.34-.308.227-.578.548-.81.964-.233.417-.41.91-.53 1.48l-.628 2.93h-.984zm7.717 0h-.985l1.37-6.422h.986l-1.37 6.422zm.662-8.063a.77.77 0 0 1 .187-.536.624.624 0 0 1 .487-.207c.344 0 .516.176.516.528a.795.795 0 0 1-.196.546.59.59 0 0 1-.454.222.54.54 0 0 1-.387-.143c-.102-.096-.153-.232-.153-.407zm5.326 8.063l.867-4.055c.078-.406.117-.687.117-.843 0-.247-.07-.444-.208-.592-.14-.15-.36-.223-.666-.223-.347 0-.686.117-1.016.352-.33.233-.62.567-.873 1-.252.434-.443.96-.572 1.577l-.59 2.783h-.986l1.37-6.422h.816l-.13 1.19h.06c.374-.477.737-.814 1.086-1.01.35-.198.71-.297 1.086-.297.496 0 .888.137 1.175.408.288.272.432.652.432 1.14 0 .308-.045.66-.135 1.054L610.79 219h-.997zm5.584-5.063c0 1.333-.237 2.562-.712 3.69-.475 1.126-1.222 2.217-2.24 3.27h-.915c1.937-2.15 2.906-4.47 2.906-6.96 0-1.332-.22-2.5-.662-3.503h.767c.572 1.05.857 2.218.857 3.504z" fill="#066DA5" opacity=".7"/><path d="M390 289v6.24h-1V289h-58v6.24h-1V288h121v7.24h-1V289h-60zM594 289v6.24h-1V289h-58v6.24h-1V288h121v7.24h-1V289h-60zM142 252.5v-.5h84v17h-1v-16h-82v16h-1v-16.5zm41-17.5h1v17h-1v-17z" fill="#066DA5" opacity=".4"/><path d="M426 304v44h56v-44h-56zm52 40h-48v-16h48v16zm0-20h-48v-16h48v16zm-40-4c2.4 0 4-1.6 4-4s-1.6-4-4-4-4 1.6-4 4 1.6 4 4 4zm16 0c2.4 0 4-1.6 4-4s-1.6-4-4-4-4 1.6-4 4 1.6 4 4 4zm-16 20c2.4 0 4-1.6 4-4s-1.6-4-4-4-4 1.6-4 4 1.6 4 4 4zm16 0c2.4 0 4-1.6 4-4s-1.6-4-4-4-4 1.6-4 4 1.6 4 4 4zM362 304v44h56v-44h-56zm52 40h-48v-16h48v16zm0-20h-48v-16h48v16zm-40-4c2.4 0 4-1.6 4-4s-1.6-4-4-4-4 1.6-4 4 1.6 4 4 4zm16 0c2.4 0 4-1.6 4-4s-1.6-4-4-4-4 1.6-4 4 1.6 4 4 4zm-16 20c2.4 0 4-1.6 4-4s-1.6-4-4-4-4 1.6-4 4 1.6 4 4 4zm16 0c2.4 0 4-1.6 4-4s-1.6-4-4-4-4 1.6-4 4 1.6 4 4 4zM298 304v44h56v-44h-56zm52 40h-48v-16h48v16zm0-20h-48v-16h48v16zm-40-4c2.4 0 4-1.6 4-4s-1.6-4-4-4-4 1.6-4 4 1.6 4 4 4zm16 0c2.4 0 4-1.6 4-4s-1.6-4-4-4-4 1.6-4 4 1.6 4 4 4zm-16 20c2.4 0 4-1.6 4-4s-1.6-4-4-4-4 1.6-4 4 1.6 4 4 4zm16 0c2.4 0 4-1.6 4-4s-1.6-4-4-4-4 1.6-4 4 1.6 4 4 4zM631 304v44h56v-44h-56zm52 40h-48v-16h48v16zm0-20h-48v-16h48v16zm-40-4c2.4 0 4-1.6 4-4s-1.6-4-4-4-4 1.6-4 4 1.6 4 4 4zm16 0c2.4 0 4-1.6 4-4s-1.6-4-4-4-4 1.6-4 4 1.6 4 4 4zm-16 20c2.4 0 4-1.6 4-4s-1.6-4-4-4-4 1.6-4 4 1.6 4 4 4zm16 0c2.4 0 4-1.6 4-4s-1.6-4-4-4-4 1.6-4 4 1.6 4 4 4zM567 304v44h56v-44h-56zm52 40h-48v-16h48v16zm0-20h-48v-16h48v16zm-40-4c2.4 0 4-1.6 4-4s-1.6-4-4-4-4 1.6-4 4 1.6 4 4 4zm16 0c2.4 0 4-1.6 4-4s-1.6-4-4-4-4 1.6-4 4 1.6 4 4 4zm-16 20c2.4 0 4-1.6 4-4s-1.6-4-4-4-4 1.6-4 4 1.6 4 4 4zm16 0c2.4 0 4-1.6 4-4s-1.6-4-4-4-4 1.6-4 4 1.6 4 4 4zM503 304v44h56v-44h-56zm52 40h-48v-16h48v16zm0-20h-48v-16h48v16zm-40-4c2.4 0 4-1.6 4-4s-1.6-4-4-4-4 1.6-4 4 1.6 4 4 4zm16 0c2.4 0 4-1.6 4-4s-1.6-4-4-4-4 1.6-4 4 1.6 4 4 4zm-16 20c2.4 0 4-1.6 4-4s-1.6-4-4-4-4 1.6-4 4 1.6 4 4 4zm16 0c2.4 0 4-1.6 4-4s-1.6-4-4-4-4 1.6-4 4 1.6 4 4 4z" fill="#066DA5" fill-rule="nonzero" opacity=".3"/><path d="M369.992 273h-2.413l-1.354-5.25c-.05-.187-.136-.573-.257-1.16-.122-.584-.19-.977-.21-1.178-.027.246-.095.642-.204 1.186-.11.545-.194.933-.253 1.166L363.956 273h-2.406l-2.55-9.994h2.085l1.278 5.455c.224 1.008.385 1.88.486 2.62.026-.26.09-.663.187-1.207.098-.545.19-.968.276-1.27l1.457-5.597h2.002l1.457 5.598c.062.25.142.634.238 1.15.095.514.168.956.22 1.325.044-.356.117-.8.217-1.33.1-.53.192-.96.274-1.29l1.27-5.454h2.085L369.992 273zm5.018-3.835c0 .757.124 1.328.372 1.716.25.388.653.582 1.214.582.556 0 .956-.193 1.2-.578.243-.385.365-.958.365-1.72 0-.755-.122-1.323-.368-1.7-.246-.38-.65-.568-1.21-.568-.556 0-.957.187-1.203.563-.247.375-.37.944-.37 1.705zm5.284 0c0 1.244-.328 2.217-.984 2.92-.657.7-1.57 1.052-2.742 1.052-.733 0-1.38-.16-1.94-.482-.562-.322-.992-.783-1.293-1.384-.3-.6-.45-1.303-.45-2.105 0-1.25.325-2.22.976-2.912.653-.693 1.57-1.04 2.75-1.04.733 0 1.38.16 1.94.48.56.318.992.776 1.293 1.373.3.597.45 1.297.45 2.1zm5.988-3.95c.283 0 .517.02.704.06l-.157 1.955a2.388 2.388 0 0 0-.616-.068c-.666 0-1.184.17-1.555.513-.373.342-.558.82-.558 1.435V273h-2.085v-7.643h1.58l.306 1.286h.103c.237-.43.557-.774.96-1.036a2.368 2.368 0 0 1 1.316-.393zm4.095 3.63l.91-1.163 2.14-2.325h2.35l-3.035 3.316 3.22 4.327h-2.406l-2.202-3.097-.895.718V273h-2.086v-10.637h2.085v4.744l-.11 1.737h.027zm9.563-2.148c-.442 0-.788.14-1.04.42-.25.28-.393.68-.43 1.194h2.926c-.01-.514-.143-.912-.403-1.192-.26-.28-.61-.42-1.053-.42zm.294 6.44c-1.23 0-2.192-.34-2.884-1.02-.693-.678-1.04-1.64-1.04-2.884 0-1.28.32-2.27.96-2.97.64-.7 1.527-1.05 2.657-1.05 1.08 0 1.92.308 2.522.924.6.615.902 1.465.902 2.55v1.01h-4.93c.024.594.2 1.056.527 1.39.327.332.788.498 1.38.498.46 0 .896-.048 1.306-.144.41-.094.838-.247 1.285-.457v1.614a4.896 4.896 0 0 1-1.168.406c-.415.09-.92.134-1.518.134zm9.08-7.923c.28 0 .516.02.703.06l-.158 1.956a2.388 2.388 0 0 0-.616-.068c-.665 0-1.184.17-1.555.513-.372.342-.558.82-.558 1.435V273h-2.085v-7.643h1.58l.307 1.286h.102c.237-.43.557-.774.96-1.036a2.368 2.368 0 0 1 1.317-.393zm7.422 5.516c0 .784-.272 1.38-.817 1.79-.545.412-1.36.617-2.444.617-.556 0-1.03-.038-1.422-.113a5.378 5.378 0 0 1-1.1-.332v-1.722c.386.182.823.335 1.308.458a5.3 5.3 0 0 0 1.282.184c.756 0 1.135-.218 1.135-.656a.548.548 0 0 0-.152-.4c-.1-.102-.273-.22-.52-.348a13.12 13.12 0 0 0-.984-.455c-.587-.246-1.02-.474-1.295-.684a1.924 1.924 0 0 1-.603-.722c-.125-.27-.188-.605-.188-1 0-.68.263-1.206.79-1.577.525-.37 1.272-.556 2.238-.556.92 0 1.816.2 2.686.6l-.63 1.505c-.38-.165-.74-.3-1.072-.404a3.37 3.37 0 0 0-1.018-.157c-.616 0-.923.165-.923.498 0 .187.1.348.298.485.198.137.632.34 1.302.61.597.24 1.035.466 1.313.675.278.21.483.45.615.725.132.273.198.6.198.977zM575.992 268h-2.413l-1.354-5.25c-.05-.187-.136-.573-.257-1.16-.122-.584-.19-.977-.21-1.178-.027.246-.095.642-.204 1.186-.11.545-.194.933-.253 1.166L569.956 268h-2.406l-2.55-9.994h2.085l1.278 5.455c.224 1.008.385 1.88.486 2.62.026-.26.09-.663.187-1.207.098-.545.19-.968.276-1.27l1.457-5.597h2.002l1.457 5.598c.062.25.142.634.238 1.15.095.514.168.956.22 1.325.044-.356.117-.8.217-1.33.1-.53.192-.96.274-1.29l1.27-5.454h2.085L575.992 268zm5.018-3.835c0 .757.124 1.328.372 1.716.25.388.653.582 1.214.582.556 0 .956-.193 1.2-.578.243-.385.365-.958.365-1.72 0-.755-.122-1.323-.368-1.7-.246-.38-.65-.568-1.21-.568-.556 0-.957.187-1.203.563-.247.375-.37.944-.37 1.705zm5.284 0c0 1.244-.328 2.217-.984 2.92-.657.7-1.57 1.052-2.742 1.052-.733 0-1.38-.16-1.94-.482-.562-.322-.992-.783-1.293-1.384-.3-.6-.45-1.303-.45-2.105 0-1.25.325-2.22.976-2.912.653-.693 1.57-1.04 2.75-1.04.733 0 1.38.16 1.94.48.56.318.992.776 1.293 1.373.3.597.45 1.297.45 2.1zm5.988-3.95c.283 0 .517.02.704.06l-.157 1.955a2.388 2.388 0 0 0-.616-.068c-.666 0-1.184.17-1.555.513-.373.342-.558.82-.558 1.435V268h-2.085v-7.643h1.58l.306 1.286h.103c.237-.43.557-.774.96-1.036a2.368 2.368 0 0 1 1.316-.393zm4.095 3.63l.91-1.163 2.14-2.325h2.35l-3.035 3.316 3.22 4.327h-2.406l-2.202-3.097-.895.718V268h-2.086v-10.637h2.085v4.744l-.11 1.737h.027zm9.563-2.148c-.442 0-.788.14-1.04.42-.25.28-.393.68-.43 1.194h2.926c-.01-.514-.143-.912-.403-1.192-.26-.28-.61-.42-1.053-.42zm.294 6.44c-1.23 0-2.192-.34-2.884-1.02-.693-.678-1.04-1.64-1.04-2.884 0-1.28.32-2.27.96-2.97.64-.7 1.527-1.05 2.657-1.05 1.08 0 1.92.308 2.522.924.6.615.902 1.465.902 2.55v1.01h-4.93c.024.594.2 1.056.527 1.39.327.332.788.498 1.38.498.46 0 .896-.048 1.306-.144.41-.094.838-.247 1.285-.457v1.614a4.896 4.896 0 0 1-1.168.406c-.415.09-.92.134-1.518.134zm9.078-7.923c.283 0 .518.02.705.06l-.158 1.956a2.388 2.388 0 0 0-.616-.068c-.665 0-1.184.17-1.555.513-.372.342-.558.82-.558 1.435V268h-2.085v-7.643h1.58l.307 1.286h.102c.237-.43.557-.774.96-1.036a2.368 2.368 0 0 1 1.317-.393zm7.424 5.516c0 .784-.272 1.38-.817 1.79-.545.412-1.36.617-2.444.617-.556 0-1.03-.038-1.422-.113a5.378 5.378 0 0 1-1.1-.332v-1.722c.386.182.823.335 1.308.458a5.3 5.3 0 0 0 1.282.184c.756 0 1.135-.218 1.135-.656a.548.548 0 0 0-.152-.4c-.1-.102-.273-.22-.52-.348a13.12 13.12 0 0 0-.984-.455c-.587-.246-1.02-.474-1.295-.684a1.924 1.924 0 0 1-.603-.722c-.125-.27-.188-.605-.188-1 0-.68.263-1.206.79-1.577.525-.37 1.272-.556 2.238-.556.92 0 1.816.2 2.686.6l-.63 1.505c-.38-.165-.74-.3-1.072-.404a3.37 3.37 0 0 0-1.018-.157c-.616 0-.923.165-.923.498 0 .187.1.348.298.485.198.137.632.34 1.302.61.597.24 1.035.466 1.313.675.278.21.483.45.615.725.132.273.198.6.198.977z" fill="#066DA5"/><path d="M535.48 279.406c0-1.324.235-2.55.704-3.674.468-1.125 1.218-2.224 2.25-3.298h.92c-.96 1.054-1.687 2.168-2.177 3.34a9.297 9.297 0 0 0-.736 3.62c0 1.325.224 2.493.67 3.504h-.768c-.574-1.04-.862-2.203-.862-3.492zm7.752 1.594h-4.306l1.81-8.566h4.307l-.188.896h-3.316l-.575 2.748h3.088l-.17.89h-3.1l-.668 3.14h3.31l-.193.892zm6.135 0h-4.306l1.81-8.566h4.308l-.188.896h-3.316l-.574 2.748h3.087l-.17.89h-3.1l-.667 3.14h3.31l-.193.892zm9.205-2.725h-2.906L554.23 281h-1.107l4.682-8.566h1.02L559.9 281h-.996l-.334-2.725zm-.105-.914l-.205-1.75c-.094-.7-.15-1.383-.17-2.05-.145.342-.302.684-.472 1.024-.17.34-.657 1.266-1.462 2.777h2.31zm5.748-2.887c.758 0 1.306.37 1.646 1.113h.06c.066-.606.154-1.14.264-1.606l.457-2.097h.973L565.68 281h-.815l.13-1.225h-.048c-.394.49-.763.834-1.107 1.038a2.07 2.07 0 0 1-1.067.304c-.543 0-.966-.19-1.27-.574-.306-.383-.458-.914-.458-1.594 0-.837.14-1.602.422-2.298.28-.695.66-1.232 1.14-1.61a2.526 2.526 0 0 1 1.608-.57zm-1.113 5.83c.367 0 .746-.183 1.136-.548.39-.365.7-.832.93-1.4a4.62 4.62 0 0 0 .342-1.738c0-.433-.106-.763-.317-.99-.21-.227-.517-.34-.92-.34-.394 0-.76.16-1.098.484-.338.323-.61.776-.815 1.36a5.52 5.52 0 0 0-.307 1.843c0 .886.35 1.33 1.05 1.33zm5.6.697l-.73-6.422h.983l.375 3.592c.094 1.008.14 1.715.14 2.12h.036c.496-1.073.846-1.798 1.05-2.173l1.903-3.54h1.042L570.04 281h-1.337zm7.982-6.54c.36 0 .68.098.96.29.282.194.5.473.657.836h.065l.393-1.008h.744L578.137 281h-.78l.153-1.225h-.047c-.7.895-1.436 1.342-2.21 1.342-.542 0-.968-.193-1.276-.58-.31-.387-.463-.916-.463-1.588 0-.813.138-1.567.416-2.262.277-.696.66-1.24 1.148-1.635.488-.395 1.024-.592 1.606-.592zm-1.114 5.843c.38 0 .756-.18 1.13-.542.376-.36.68-.83.915-1.41s.352-1.162.352-1.745c0-.402-.11-.722-.328-.96-.22-.24-.507-.358-.863-.358-.406 0-.784.168-1.133.504-.35.337-.624.792-.824 1.366-.2.574-.3 1.18-.3 1.817 0 .445.093.778.277 1 .183.22.44.33.773.33zm8.42.697l.867-4.055c.08-.406.118-.687.118-.843 0-.247-.07-.444-.208-.592-.14-.15-.36-.223-.665-.223-.348 0-.687.117-1.017.352-.33.233-.62.567-.873 1-.252.434-.442.96-.57 1.577l-.593 2.783h-.986l1.372-6.422h.814l-.13 1.19h.06c.375-.477.737-.814 1.087-1.01.35-.198.712-.297 1.087-.297.496 0 .887.137 1.174.408.287.272.43.652.43 1.14 0 .308-.044.66-.134 1.055l-.838 3.937h-.996zm5.62.117c-.758 0-1.346-.21-1.764-.627-.418-.418-.627-1.008-.627-1.77 0-.78.143-1.5.432-2.16.29-.662.69-1.176 1.2-1.545a2.86 2.86 0 0 1 1.718-.554c.535 0 1.06.1 1.57.3l-.275.826c-.47-.2-.896-.3-1.283-.3-.437 0-.837.15-1.198.45-.362.298-.645.714-.85 1.247a4.8 4.8 0 0 0-.307 1.738c0 .5.13.89.39 1.167s.617.416 1.074.416c.283 0 .548-.04.798-.117.25-.08.496-.17.74-.276v.838a3.518 3.518 0 0 1-1.62.37zm5.32 0c-.72 0-1.284-.213-1.694-.638-.41-.427-.615-1.017-.615-1.77 0-.735.147-1.44.438-2.113.29-.674.676-1.2 1.157-1.574a2.522 2.522 0 0 1 1.588-.562c.597 0 1.047.13 1.347.39.3.26.452.623.452 1.087 0 .704-.325 1.255-.973 1.656-.65.4-1.577.6-2.784.6h-.194l-.023.47c0 .51.12.91.36 1.197.24.287.612.43 1.115.43.247 0 .5-.034.76-.104.26-.07.582-.2.97-.387v.854a5.31 5.31 0 0 1-.974.36c-.28.07-.59.103-.93.103zm.814-5.818c-.402 0-.78.182-1.134.55-.353.367-.624.877-.81 1.53h.07c.89 0 1.572-.117 2.047-.35.475-.232.712-.57.712-1.01 0-.208-.072-.38-.215-.516-.143-.137-.366-.205-.67-.205zm5.965-.827c.757 0 1.306.37 1.645 1.113h.06c.065-.606.153-1.14.263-1.606l.457-2.097h.972L603.174 281h-.815l.128-1.225h-.047c-.393.49-.762.834-1.106 1.038a2.07 2.07 0 0 1-1.066.304c-.543 0-.967-.19-1.272-.574-.305-.383-.457-.914-.457-1.594 0-.837.14-1.602.42-2.298.282-.695.662-1.232 1.14-1.61a2.526 2.526 0 0 1 1.61-.57zm-1.114 5.83c.367 0 .746-.183 1.136-.548.39-.365.7-.832.93-1.4a4.62 4.62 0 0 0 .342-1.738c0-.433-.106-.763-.317-.99-.21-.227-.517-.34-.92-.34-.394 0-.76.16-1.098.484-.34.323-.61.776-.816 1.36a5.52 5.52 0 0 0-.307 1.843c0 .886.35 1.33 1.05 1.33zm10.054-5.725l-.88 4.072c-.07.348-.104.62-.104.815 0 .558.287.838.86.838.345 0 .683-.117 1.015-.352.333-.233.626-.57.88-1.007.254-.437.447-.964.58-1.582l.586-2.782h.973L613.204 281h-.814l.13-1.19h-.07c-.384.49-.75.83-1.096 1.02-.348.19-.708.287-1.08.287-.5 0-.89-.136-1.176-.407-.286-.272-.428-.66-.428-1.163 0-.242.043-.578.13-1.008l.854-3.962h.996zm8.59 4.6c0 .61-.216 1.085-.647 1.426-.432.342-1.04.513-1.825.513-.66 0-1.256-.135-1.788-.404v-.926c.274.164.57.29.885.38.317.09.61.136.88.136.49 0 .862-.098 1.112-.293a.91.91 0 0 0 .375-.75.812.812 0 0 0-.205-.563c-.136-.152-.43-.36-.884-.627-.508-.285-.868-.564-1.08-.838a1.546 1.546 0 0 1-.315-.972c0-.54.197-.974.592-1.304.394-.33.914-.495 1.558-.495.668 0 1.313.145 1.934.435l-.316.802-.328-.146a3.257 3.257 0 0 0-1.29-.25c-.363 0-.648.084-.855.254a.813.813 0 0 0-.31.66c0 .218.07.405.207.56.14.158.425.36.86.605.417.233.717.434.898.602.182.168.318.35.407.542.09.194.135.412.135.654zm3.715 1.94c-.72 0-1.283-.214-1.693-.64-.41-.425-.616-1.015-.616-1.77 0-.733.146-1.437.437-2.11.29-.675.677-1.2 1.157-1.575a2.522 2.522 0 0 1 1.588-.562c.598 0 1.047.13 1.348.39.3.26.45.623.45 1.087 0 .704-.323 1.255-.972 1.656-.648.4-1.576.6-2.783.6h-.192l-.024.47c0 .51.12.91.36 1.197.24.287.613.43 1.117.43.247 0 .5-.034.76-.104.26-.07.583-.2.97-.387v.854a5.31 5.31 0 0 1-.973.36c-.282.07-.592.103-.932.103zm.815-5.82c-.403 0-.78.184-1.134.552-.354.367-.624.877-.812 1.53h.07c.89 0 1.574-.117 2.048-.35.475-.232.712-.57.712-1.01 0-.208-.07-.38-.214-.516-.142-.137-.366-.205-.67-.205zm9.105-.802c.742 0 1.328.22 1.758.66.43.44.644 1.043.644 1.813 0 .733-.14 1.426-.422 2.08-.28.65-.662 1.155-1.142 1.51a2.67 2.67 0 0 1-1.63.534c-.75 0-1.337-.22-1.763-.662-.425-.442-.638-1.045-.638-1.81 0-.743.142-1.44.427-2.096.285-.654.67-1.156 1.154-1.505a2.69 2.69 0 0 1 1.61-.524zm1.383 2.338c0-.45-.122-.813-.366-1.093-.245-.278-.576-.418-.994-.418-.425 0-.807.145-1.145.434-.338.29-.6.69-.785 1.204a5.016 5.016 0 0 0-.28 1.714c0 .512.125.907.374 1.186.248.28.604.42 1.07.42.405 0 .77-.143 1.095-.428.324-.286.577-.69.758-1.216.182-.526.273-1.126.273-1.802zM640.11 281l.87-4.055c.077-.406.116-.687.116-.843 0-.247-.07-.444-.208-.592-.14-.15-.36-.223-.665-.223-.348 0-.687.117-1.017.352-.33.233-.62.567-.873 1-.252.434-.442.96-.57 1.577L637.17 281h-.984l1.37-6.422h.815l-.128 1.19h.06c.374-.477.736-.814 1.086-1.01.35-.198.712-.297 1.087-.297.496 0 .887.137 1.174.408.287.272.43.652.43 1.14 0 .308-.045.66-.135 1.055l-.838 3.937h-.996zm3.974 0h-.984l1.945-9.117h.984L644.083 281zm2.303-6.422h.984l.435 3.193c.04.27.077.668.114 1.194.036.525.055.948.055 1.268h.035c.136-.34.306-.73.51-1.17.203-.443.353-.748.45-.916l1.905-3.568h1.043l-4.078 7.512c-.363.672-.723 1.14-1.078 1.4-.356.262-.783.393-1.283.393-.283 0-.556-.04-.822-.123v-.79c.246.07.502.104.768.104.32 0 .595-.098.823-.296.228-.197.45-.49.664-.876l.445-.797-.973-6.527zm7.898 1.36c0 1.332-.237 2.56-.712 3.688-.474 1.127-1.22 2.218-2.24 3.272h-.915c1.937-2.152 2.906-4.472 2.906-6.96 0-1.333-.22-2.5-.662-3.504h.768c.57 1.05.855 2.218.855 3.503z" fill="#066DA5" opacity=".7"/><path d="M119.49 287l-2.407-7.84h-.062c.088 1.594.13 2.658.13 3.192V287h-1.892v-9.994h2.885l2.365 7.642h.04l2.51-7.642h2.884V287h-1.975v-4.73c0-.224.003-.48.01-.773.007-.292.038-1.066.092-2.324h-.062L121.43 287h-1.94zm13.657 0l-.403-1.04h-.055c-.35.443-.713.75-1.084.92-.37.17-.856.257-1.453.257-.733 0-1.31-.21-1.733-.63-.42-.418-.632-1.015-.632-1.79 0-.81.284-1.41.85-1.795.57-.385 1.424-.598 2.568-.64l1.326-.04v-.335c0-.775-.396-1.162-1.19-1.162-.61 0-1.328.185-2.153.554l-.69-1.41c.88-.46 1.854-.69 2.925-.69 1.025 0 1.81.224 2.358.67.547.447.82 1.126.82 2.037V287h-1.456zm-.615-3.54l-.806.026c-.607.02-1.058.128-1.354.328-.296.2-.444.506-.444.916 0 .588.337.882 1.01.882.485 0 .87-.14 1.16-.417.29-.278.434-.647.434-1.107v-.63zm11.273 3.54h-2.085v-4.464c0-.55-.098-.965-.294-1.24-.196-.276-.508-.414-.937-.414-.584 0-1.006.195-1.265.584-.26.39-.39 1.036-.39 1.938V287h-2.085v-7.643h1.593l.28.978h.116c.232-.37.552-.648.96-.837a3.27 3.27 0 0 1 1.39-.284c.89 0 1.564.24 2.024.72.46.482.69 1.176.69 2.083V287zm7 0l-.404-1.04h-.053c-.35.443-.712.75-1.084.92-.37.17-.855.257-1.452.257-.733 0-1.31-.21-1.732-.63-.422-.418-.633-1.015-.633-1.79 0-.81.284-1.41.85-1.795.57-.385 1.424-.598 2.568-.64l1.326-.04v-.335c0-.775-.397-1.162-1.19-1.162-.61 0-1.328.185-2.153.554l-.69-1.41c.88-.46 1.854-.69 2.925-.69 1.025 0 1.812.224 2.358.67.547.447.82 1.126.82 2.037V287h-1.455zm-.616-3.54l-.807.026c-.606.02-1.057.128-1.354.328-.297.2-.445.506-.445.916 0 .588.337.882 1.012.882.483 0 .87-.14 1.158-.417.29-.278.434-.647.434-1.107v-.63zm10.87-4.103v1.06l-1.198.308c.22.34.328.724.328 1.148 0 .82-.286 1.46-.857 1.918-.572.46-1.367.688-2.383.688l-.376-.02-.307-.035c-.215.164-.322.346-.322.547 0 .3.383.45 1.15.45h1.298c.838 0 1.477.18 1.917.54.44.36.66.89.66 1.587 0 .893-.373 1.586-1.118 2.078-.745.492-1.815.738-3.21.738-1.066 0-1.88-.185-2.443-.557-.564-.37-.846-.892-.846-1.562 0-.46.144-.845.43-1.155.288-.31.71-.532 1.266-.664-.214-.09-.4-.24-.56-.448a1.064 1.064 0 0 1-.24-.66c0-.29.084-.534.253-.728.17-.193.412-.384.73-.57a2.05 2.05 0 0 1-.952-.834c-.234-.383-.35-.834-.35-1.354 0-.834.27-1.48.812-1.935.543-.455 1.317-.683 2.324-.683.215 0 .47.02.763.058.293.04.48.067.563.085h2.666zm-5.9 8.723c0 .287.137.513.413.677.275.164.662.246 1.158.246.75 0 1.334-.103 1.758-.308.424-.205.636-.485.636-.84 0-.288-.125-.486-.376-.595-.25-.11-.638-.164-1.162-.164h-1.08c-.383 0-.703.09-.96.27-.258.18-.387.418-.387.714zm.758-6.22c0 .414.095.742.284.984.19.24.477.362.864.362.392 0 .68-.12.862-.362.182-.242.273-.57.273-.985 0-.92-.377-1.38-1.134-1.38-.765 0-1.148.46-1.148 1.38zm9.563-1.163c-.44 0-.787.14-1.038.42-.25.28-.394.68-.43 1.194h2.925c-.01-.514-.143-.912-.403-1.192-.26-.28-.61-.42-1.053-.42zm.295 6.44c-1.23 0-2.192-.34-2.884-1.02-.692-.678-1.038-1.64-1.038-2.884 0-1.28.32-2.27.96-2.97.64-.7 1.526-1.05 2.656-1.05 1.08 0 1.92.308 2.522.924.602.615.903 1.465.903 2.55v1.01h-4.93c.024.594.2 1.056.527 1.39.328.332.79.498 1.38.498.46 0 .897-.048 1.307-.144.41-.094.838-.247 1.285-.457v1.614a4.896 4.896 0 0 1-1.17.406c-.414.09-.92.134-1.517.134zm9.08-7.923c.28 0 .516.02.703.06l-.158 1.956a2.388 2.388 0 0 0-.615-.068c-.665 0-1.184.17-1.555.513-.37.342-.557.82-.557 1.435V287h-2.085v-7.643h1.58l.307 1.286h.102c.237-.43.557-.774.96-1.036a2.368 2.368 0 0 1 1.317-.393zM210.992 287h-2.413l-1.354-5.25c-.05-.187-.136-.573-.257-1.16-.122-.584-.19-.977-.21-1.178-.027.246-.095.642-.204 1.186-.11.545-.194.933-.253 1.166L204.956 287h-2.406l-2.55-9.994h2.085l1.278 5.455c.224 1.008.385 1.88.486 2.62.026-.26.09-.663.187-1.207.098-.545.19-.968.276-1.27l1.457-5.597h2.002l1.457 5.598c.062.25.142.634.238 1.15.095.514.168.956.22 1.325.044-.356.117-.8.217-1.33.1-.53.192-.96.274-1.29l1.27-5.454h2.085L210.992 287zm5.018-3.835c0 .757.124 1.328.372 1.716.25.388.653.582 1.214.582.556 0 .956-.193 1.2-.578.243-.385.365-.958.365-1.72 0-.755-.122-1.323-.368-1.7-.246-.38-.65-.568-1.21-.568-.556 0-.957.187-1.203.563-.247.375-.37.944-.37 1.705zm5.284 0c0 1.244-.328 2.217-.984 2.92-.657.7-1.57 1.052-2.742 1.052-.733 0-1.38-.16-1.94-.482-.562-.322-.992-.783-1.293-1.384-.3-.6-.45-1.303-.45-2.105 0-1.25.325-2.22.976-2.912.653-.693 1.57-1.04 2.75-1.04.733 0 1.38.16 1.94.48.56.318.992.776 1.293 1.373.3.597.45 1.297.45 2.1zm5.988-3.95c.283 0 .517.02.704.06l-.157 1.955a2.388 2.388 0 0 0-.616-.068c-.666 0-1.184.17-1.555.513-.373.342-.558.82-.558 1.435V287h-2.085v-7.643h1.58l.306 1.286h.103c.237-.43.557-.774.96-1.036a2.368 2.368 0 0 1 1.316-.393zm4.095 3.63l.91-1.163 2.14-2.325h2.35l-3.035 3.316 3.22 4.327h-2.406l-2.202-3.097-.895.718V287h-2.086v-10.637h2.085v4.744l-.11 1.737h.027zm9.563-2.148c-.442 0-.788.14-1.04.42-.25.28-.393.68-.43 1.194h2.926c-.01-.514-.143-.912-.403-1.192-.26-.28-.61-.42-1.053-.42zm.294 6.44c-1.23 0-2.192-.34-2.884-1.02-.693-.678-1.04-1.64-1.04-2.884 0-1.28.32-2.27.96-2.97.64-.7 1.527-1.05 2.657-1.05 1.08 0 1.92.308 2.522.924.6.615.902 1.465.902 2.55v1.01h-4.93c.024.594.2 1.056.527 1.39.327.332.788.498 1.38.498.46 0 .896-.048 1.306-.144.41-.094.838-.247 1.285-.457v1.614a4.896 4.896 0 0 1-1.168.406c-.415.09-.92.134-1.518.134zm9.078-7.923c.283 0 .518.02.705.06l-.158 1.956a2.388 2.388 0 0 0-.616-.068c-.665 0-1.184.17-1.555.513-.372.342-.558.82-.558 1.435V287h-2.085v-7.643h1.58l.307 1.286h.102c.237-.43.557-.774.96-1.036a2.368 2.368 0 0 1 1.316-.393z" fill="#066DA5"/><path d="M116 299v44h56v-44h-56zm52 40h-48v-16h48v16zm0-20h-48v-16h48v16zm-40-4c2.4 0 4-1.6 4-4s-1.6-4-4-4-4 1.6-4 4 1.6 4 4 4zm16 0c2.4 0 4-1.6 4-4s-1.6-4-4-4-4 1.6-4 4 1.6 4 4 4zm-16 20c2.4 0 4-1.6 4-4s-1.6-4-4-4-4 1.6-4 4 1.6 4 4 4zm16 0c2.4 0 4-1.6 4-4s-1.6-4-4-4-4 1.6-4 4 1.6 4 4 4zM197 299v44h56v-44h-56zm52 40h-48v-16h48v16zm0-20h-48v-16h48v16zm-40-4c2.4 0 4-1.6 4-4s-1.6-4-4-4-4 1.6-4 4 1.6 4 4 4zm16 0c2.4 0 4-1.6 4-4s-1.6-4-4-4-4 1.6-4 4 1.6 4 4 4zm-16 20c2.4 0 4-1.6 4-4s-1.6-4-4-4-4 1.6-4 4 1.6 4 4 4zm16 0c2.4 0 4-1.6 4-4s-1.6-4-4-4-4 1.6-4 4 1.6 4 4 4z" fill="#066DA5" fill-rule="nonzero" opacity=".3"/><path d="M131 353v24h24v-24h-24zm22 22h-20v-20h20v20zm-10-4c3.4 0 6-2.6 6-6s-2.6-6-6-6-6 2.6-6 6 2.6 6 6 6zM131 385v24h24v-24h-24zm22 22h-20v-20h20v20zm-10-4c3.4 0 6-2.6 6-6s-2.6-6-6-6-6 2.6-6 6 2.6 6 6 6zM131 417v24h24v-24h-24zm22 22h-20v-20h20v20zm-10-4c3.4 0 6-2.6 6-6s-2.6-6-6-6-6 2.6-6 6 2.6 6 6 6z" fill="#066DA5" fill-rule="nonzero"/><path d="M117 344h1v86h-1v-86zm8 21v1h-7v-1h7zm0 32v1h-7v-1h7zm0 32v1h-7v-1h7z" fill="#066DA5" opacity=".4"/><path d="M210 353v24h24v-24h-24zm22 22h-20v-20h20v20zm-10-4c3.4 0 6-2.6 6-6s-2.6-6-6-6-6 2.6-6 6 2.6 6 6 6z" fill="#066DA5" fill-rule="nonzero"/><path d="M197 344h1v21h-1v-21zm7 21v1h-7v-1h7z" fill="#066DA5" opacity=".4"/><path d="M219.186 388.635c0 1.41-.402 2.49-1.205 3.24-.8.75-1.96 1.125-3.476 1.125h-2.426v-8.566h2.69c1.398 0 2.484.37 3.257 1.107.774.74 1.16 1.77 1.16 3.095zm-1.887.047c0-1.84-.814-2.76-2.44-2.76h-.965v5.578h.78c1.75 0 2.624-.94 2.624-2.818zm6.608 4.318h-1.816v-7.055h-2.326v-1.51h6.468v1.51h-2.326V393zm5.46-4.764h.587c.574 0 .998-.095 1.272-.287.273-.192.41-.493.41-.903 0-.406-.14-.695-.42-.867-.28-.172-.71-.258-1.297-.258h-.55v2.314zm0 1.477V393h-1.815v-8.566h2.496c1.163 0 2.024.212 2.583.635.558.423.838 1.067.838 1.93 0 .504-.138.952-.415 1.345-.278.392-.67.7-1.178.923 1.29 1.925 2.13 3.17 2.52 3.732h-2.016l-2.044-3.287h-.967zM138.05 449.434v5.543c0 .632-.14 1.187-.424 1.664a2.765 2.765 0 0 1-1.228 1.096c-.535.254-1.168.38-1.898.38-1.102 0-1.957-.28-2.566-.845-.61-.564-.914-1.336-.914-2.317v-5.52h1.81v5.245c0 .66.133 1.144.4 1.453.264.31.704.464 1.317.464.594 0 1.024-.156 1.292-.466.266-.31.4-.798.4-1.462v-5.232h1.81zm5.737 1.388c-.683 0-1.213.257-1.588.77-.376.514-.563 1.23-.563 2.148 0 1.91.717 2.865 2.15 2.865.602 0 1.33-.15 2.186-.45v1.523c-.703.293-1.49.44-2.356.44-1.246 0-2.2-.38-2.86-1.135-.66-.755-.99-1.84-.99-3.254 0-.892.163-1.672.487-2.342.324-.67.79-1.184 1.397-1.54.61-.36 1.32-.537 2.137-.537.832 0 1.668.202 2.508.604l-.586 1.477a9.7 9.7 0 0 0-.968-.398 2.884 2.884 0 0 0-.955-.17zm5.824 2.643h.6c.558 0 .976-.11 1.253-.33.277-.222.416-.543.416-.965 0-.426-.117-.74-.35-.943-.232-.204-.596-.305-1.093-.305h-.826v2.543zm4.103-1.36c0 .922-.288 1.627-.864 2.116-.578.49-1.397.733-2.46.733h-.78V458h-1.815v-8.566h2.736c1.04 0 1.83.223 2.37.67.542.448.813 1.115.813 2z" fill="#066DA5"/><path fill="#066DA5" opacity=".4" d="M594 238h1v16h-1zM389 238h1v16h-1z"/></g></svg>