<?xml version="1.0" encoding="utf-8"?>
<!-- Generator: Adobe Illustrator 23.0.1, SVG Export Plug-In . SVG Version: 6.00 Build 0)  -->
<svg version="1.1" id="Layer_1" xmlns="http://www.w3.org/2000/svg" xmlns:xlink="http://www.w3.org/1999/xlink" x="0px" y="0px"
	 viewBox="0 0 740 270" style="enable-background:new 0 0 740 270;" xml:space="preserve">
<style type="text/css">
	.st0{fill:#FFFFFF;}
	.st1{fill:#E0E4E7;}
	.st2{font-family:'OpenSans';}
	.st3{font-size:10px;}
	.st4{fill:#82949E;}
	.st5{fill-rule:evenodd;clip-rule:evenodd;fill:#445D6E;}
	.st6{font-size:8px;}
	.st7{fill-rule:evenodd;clip-rule:evenodd;fill:#439FD1;}
	.st8{fill-rule:evenodd;clip-rule:evenodd;fill:#FFB463;}
	.st9{fill:none;stroke:#445D6E;stroke-width:2;}
	.st10{fill-rule:evenodd;clip-rule:evenodd;fill:#E0E4E7;}
	.st11{fill-rule:evenodd;clip-rule:evenodd;fill:#A1CFE8;}
	.st12{fill:none;stroke:#E0E4E7;stroke-width:2;}
	.st13{fill:none;stroke:#445D6E;stroke-width:2;stroke-linecap:round;stroke-linejoin:round;}
	.st14{fill:none;stroke:#F7F8F9;stroke-width:2;}
	.st15{fill:none;stroke:#E0E4E7;stroke-width:2;stroke-linecap:round;stroke-linejoin:round;}
	.st16{fill:none;stroke:#E0E4E7;stroke-width:2;stroke-dasharray:5,5,5,5;}
	.st17{fill-rule:evenodd;clip-rule:evenodd;fill:#82949E;}
</style>
<rect class="st0" width="740" height="270"/>
<title>interlock-overview-1</title>
<desc>Created with Sketch.</desc>
<g id="interlock-overview-1">
	<text transform="matrix(1 0 0 1 91 258)" class="st1 st2 st3">Docker swarm managed with UCP</text>
	<g id="nodes" transform="translate(108.000000, 117.000000)">
		<g id="workers" transform="translate(321.000000, 0.000000)">
			<g id="node-1" transform="translate(107.000000, 0.000000)">
				<text transform="matrix(1 0 0 1 32.313 116)" class="st4 st2 st3">node-5</text>
				<g id="node">
					<g id="node-label">
						<path id="Rectangle-127" class="st5" d="M0,2c0-1.1,0.9-2,2-2h69v10.6c0,5.9-4.8,10.6-10.6,10.6H0V2z"/>
						<text transform="matrix(1 0 0 1 6 14)" class="st0 st2 st6">worker node</text>
					</g>
				</g>
				<g id="app" transform="translate(1.000000, 79.000000)">
					<path id="Rectangle-138" class="st7" d="M2,0h91c1.1,0,2,0.9,2,2v18c0,1.1-0.9,2-2,2H2c-1.1,0-2-0.9-2-2V2C0,0.9,0.9,0,2,0z"/>
					<text transform="matrix(1 0 0 1 38.1953 15)" class="st0 st2 st3">UCP</text>
				</g>
				<g id="app-copy" transform="translate(1.000000, 56.000000)">
					<path class="st8" d="M2,0h91c1.1,0,2,0.9,2,2v18c0,1.1-0.9,2-2,2H2c-1.1,0-2-0.9-2-2V2C0,0.9,0.9,0,2,0z"/>
					<text transform="matrix(1 0 0 1 10.5391 15)" class="st0 st2 st3">wordpress:8000</text>
				</g>
				<path id="node-border" class="st9" d="M2,0h93c1.1,0,2,0.9,2,2v98c0,1.1-0.9,2-2,2H2c-1.1,0-2-0.9-2-2V2C0,0.9,0.9,0,2,0z"/>
			</g>
			<g id="node-1-copy">
				<text transform="matrix(1 0 0 1 32.313 116)" class="st4 st2 st3">node-4</text>
				<g>
					<g>
						<path class="st10" d="M0,2c0-1.1,0.9-2,2-2h69v10.6c0,5.9-4.8,10.6-10.6,10.6H0V2z"/>
						<text transform="matrix(1 0 0 1 6 14)" class="st0 st2 st6">worker node</text>
					</g>
				</g>
				<g transform="translate(1.000000, 79.000000)">
					<path class="st11" d="M2,0h91c1.1,0,2,0.9,2,2v18c0,1.1-0.9,2-2,2H2c-1.1,0-2-0.9-2-2V2C0,0.9,0.9,0,2,0z"/>
					<text transform="matrix(1 0 0 1 38.1953 15)" class="st0 st2 st3">UCP</text>
				</g>
				<path class="st12" d="M2,0h93c1.1,0,2,0.9,2,2v98c0,1.1-0.9,2-2,2H2c-1.1,0-2-0.9-2-2V2C0,0.9,0.9,0,2,0z"/>
			</g>
		</g>
		<g id="managers">
			<g transform="translate(214.000000, 0.000000)">
				<text transform="matrix(1 0 0 1 32.313 116)" class="st4 st2 st3">node-3</text>
				<g>
					<g>
						<path class="st10" d="M0,2c0-1.1,0.9-2,2-2h69v10.6c0,5.9-4.8,10.6-10.6,10.6H0V2z"/>
						<text transform="matrix(1 0 0 1 6 14)" class="st0 st2 st6">manager node</text>
					</g>
				</g>
				<g transform="translate(1.000000, 79.000000)">
					<path class="st11" d="M2,0h91c1.1,0,2,0.9,2,2v18c0,1.1-0.9,2-2,2H2c-1.1,0-2-0.9-2-2V2C0,0.9,0.9,0,2,0z"/>
					<text transform="matrix(1 0 0 1 38.1953 15)" class="st0 st2 st3">UCP</text>
				</g>
				<path class="st12" d="M2,0h93c1.1,0,2,0.9,2,2v98c0,1.1-0.9,2-2,2H2c-1.1,0-2-0.9-2-2V2C0,0.9,0.9,0,2,0z"/>
			</g>
			<g id="node-1-copy-3" transform="translate(107.000000, 0.000000)">
				<text transform="matrix(1 0 0 1 32.313 116)" class="st4 st2 st3">node-2</text>
				<g>
					<g>
						<path class="st10" d="M0,2c0-1.1,0.9-2,2-2h69v10.6c0,5.9-4.8,10.6-10.6,10.6H0V2z"/>
						<text transform="matrix(1 0 0 1 6 14)" class="st0 st2 st6">manager node</text>
					</g>
				</g>
				<g transform="translate(1.000000, 79.000000)">
					<path class="st11" d="M2,0h91c1.1,0,2,0.9,2,2v18c0,1.1-0.9,2-2,2H2c-1.1,0-2-0.9-2-2V2C0,0.9,0.9,0,2,0z"/>
					<text transform="matrix(1 0 0 1 38.1953 15)" class="st0 st2 st3">UCP</text>
				</g>
				<path class="st12" d="M2,0h93c1.1,0,2,0.9,2,2v98c0,1.1-0.9,2-2,2H2c-1.1,0-2-0.9-2-2V2C0,0.9,0.9,0,2,0z"/>
			</g>
			<g id="node-1-copy-2">
				<text transform="matrix(1 0 0 1 32.313 116)" class="st4 st2 st3">node-1</text>
				<g>
					<g>
						<path class="st10" d="M0,2c0-1.1,0.9-2,2-2h69v10.6c0,5.9-4.8,10.6-10.6,10.6H0V2z"/>
						<text transform="matrix(1 0 0 1 6 14)" class="st0 st2 st6">manager node</text>
					</g>
				</g>
				<g transform="translate(1.000000, 79.000000)">
					<path class="st11" d="M2,0h91c1.1,0,2,0.9,2,2v18c0,1.1-0.9,2-2,2H2c-1.1,0-2-0.9-2-2V2C0,0.9,0.9,0,2,0z"/>
					<text transform="matrix(1 0 0 1 38.1953 15)" class="st0 st2 st3">UCP</text>
				</g>
				<path class="st12" d="M2,0h93c1.1,0,2,0.9,2,2v98c0,1.1-0.9,2-2,2H2c-1.1,0-2-0.9-2-2V2C0,0.9,0.9,0,2,0z"/>
			</g>
		</g>
	</g>
	<g id="load-balancer" transform="translate(107.000000, 72.000000)">
		<g id="lb">
			<path class="st5" d="M2,0h523c1.1,0,2,0.9,2,2v18c0,1.1-0.9,2-2,2H2c-1.1,0-2-0.9-2-2V2C0,0.9,0.9,0,2,0z"/>
			<text transform="matrix(1 0 0 1 214.8194 15)" class="st0 st2 st3">swarm routing mesh</text>
		</g>
		
			<g id="arrow-copy-2" transform="translate(477.500000, 32.500000) scale(1, -1) rotate(-90.000000) translate(-477.500000, -32.500000) translate(465.500000, 28.500000)">
			<path id="Line" class="st13" d="M2,4h22"/>
			<g id="Oval">
				<g>
					<circle id="path-1" class="st5" cx="4" cy="4" r="4"/>
				</g>
				<circle class="st14" cx="4" cy="4" r="5"/>
			</g>
		</g>
		
			<g id="arrow-copy-3" transform="translate(370.500000, 32.500000) scale(1, -1) rotate(-90.000000) translate(-370.500000, -32.500000) translate(358.500000, 28.500000)">
			<path class="st15" d="M2,4h22"/>
			<g>
				<g>
					<circle id="path-2" class="st10" cx="4" cy="4" r="4"/>
				</g>
				<circle class="st14" cx="4" cy="4" r="5"/>
			</g>
		</g>
		
			<g id="arrow-copy-4" transform="translate(263.500000, 32.500000) scale(1, -1) rotate(-90.000000) translate(-263.500000, -32.500000) translate(251.500000, 28.500000)">
			<path class="st15" d="M2,4h22"/>
			<g>
				<g>
					<circle id="path-3" class="st10" cx="4" cy="4" r="4"/>
				</g>
				<circle class="st14" cx="4" cy="4" r="5"/>
			</g>
		</g>
		
			<g id="arrow-copy-5" transform="translate(156.500000, 32.500000) scale(1, -1) rotate(-90.000000) translate(-156.500000, -32.500000) translate(144.500000, 28.500000)">
			<path class="st15" d="M2,4h22"/>
			<g>
				<g>
					<circle id="path-4" class="st10" cx="4" cy="4" r="4"/>
				</g>
				<circle class="st14" cx="4" cy="4" r="5"/>
			</g>
		</g>
		
			<g id="arrow-copy-6" transform="translate(49.500000, 32.500000) scale(1, -1) rotate(-90.000000) translate(-49.500000, -32.500000) translate(37.500000, 28.500000)">
			<path class="st15" d="M2,4h22"/>
			<g>
				<g>
					<circle id="path-5" class="st10" cx="4" cy="4" r="4"/>
				</g>
				<circle class="st14" cx="4" cy="4" r="5"/>
			</g>
		</g>
	</g>
	<path id="group" class="st16" d="M86,64c0-1.1,0.9-2,2-2h564c1.1,0,2,0.9,2,2v199c0,1.1-0.9,2-2,2H88c-1.1,0-2-0.9-2-2V64z"/>
	<g id="user" transform="translate(324.000000, 7.000000)">
		<text transform="matrix(1 0 0 1 0.5269 42)" class="st4 st2 st3">http://node-5:8000</text>
		<path id="Shape" class="st17" d="M46,13c3.6,0,6.5-2.9,6.5-6.5C52.5,2.9,49.6,0,46,0s-6.5,2.9-6.5,6.5C39.5,10.1,42.4,13,46,13
			L46,13z M46,16.2c-4.3,0-13,2.2-13,6.5V26h26v-3.2C59,18.4,50.3,16.2,46,16.2L46,16.2z"/>
	</g>
</g>
</svg>
