<?xml version="1.0" encoding="utf-8"?>
<!-- Generator: Adobe Illustrator 23.0.1, SVG Export Plug-In . SVG Version: 6.00 Build 0)  -->
<svg version="1.1" id="Layer_1" xmlns="http://www.w3.org/2000/svg" xmlns:xlink="http://www.w3.org/1999/xlink" x="0px" y="0px"
	 viewBox="0 0 740 321" style="enable-background:new 0 0 740 321;" xml:space="preserve">
<style type="text/css">
	.st0{fill:#FFFFFF;}
	.st1{fill:#E0E4E7;}
	.st2{font-family:'OpenSans';}
	.st3{font-size:10px;}
	.st4{fill-rule:evenodd;clip-rule:evenodd;fill:#439FD1;}
	.st5{fill-rule:evenodd;clip-rule:evenodd;fill:#00B6B5;}
	.st6{fill-rule:evenodd;clip-rule:evenodd;fill:#445D6E;}
	.st7{font-size:8px;}
	.st8{fill:none;stroke:#445D6E;stroke-width:2;}
	.st9{fill-rule:evenodd;clip-rule:evenodd;fill:#FFB463;}
	.st10{fill:none;stroke:#445D6E;stroke-width:2;stroke-linecap:round;stroke-linejoin:round;}
	.st11{fill:none;stroke:#F7F8F9;stroke-width:2;}
	.st12{fill:none;stroke:#E0E4E7;stroke-width:2;stroke-dasharray:5,5,5,5;}
	.st13{fill:#82949E;}
	.st14{fill-rule:evenodd;clip-rule:evenodd;fill:#82949E;}
	.st15{fill:none;stroke:#E0E4E7;stroke-width:2;stroke-linecap:round;stroke-linejoin:round;}
</style>
<rect class="st0" width="740" height="321"/>
<title>interlock-architecture-1</title>
<desc>Created with Sketch.</desc>
<g id="interlock-architecture-1">
	<g id="all" transform="translate(6.000000, 5.000000)">
		<text transform="matrix(1 0 0 1 8 297)" class="st1 st2 st3">Docker swarm managed with UCP</text>
		<g id="nodes" transform="translate(133.000000, 100.000000)">
			<g id="workers" transform="translate(122.000000, 0.000000)">
				<g id="node-4" transform="translate(248.000000, 0.000000)">
					<g id="ucp" transform="translate(1.000000, 112.000000)">
						<path id="Rectangle-138" class="st4" d="M2,0h102c1.1,0,2,0.9,2,2v18c0,1.1-0.9,2-2,2H2c-1.1,0-2-0.9-2-2V2C0,0.9,0.9,0,2,0z"
							/>
						<text transform="matrix(1 0 0 1 43.6953 15)" class="st0 st2 st3">UCP</text>
					</g>
					<g id="wordpress-copy" transform="translate(1.000000, 89.000000)">
						<path class="st5" d="M2,0h102c1.1,0,2,0.9,2,2v18c0,1.1-0.9,2-2,2H2c-1.1,0-2-0.9-2-2V2C0,0.9,0.9,0,2,0z"/>
						<text transform="matrix(1 0 0 1 11.3442 15)" class="st0 st2 st3">interlock-proxy:80</text>
					</g>
					<g id="label">
						<g id="node-label">
							<path id="Rectangle-127" class="st6" d="M0,2c0-1.1,0.9-2,2-2h69v10.6c0,5.9-4.8,10.6-10.6,10.6H0V2z"/>
							<text transform="matrix(1 0 0 1 6 14)" class="st0 st2 st7">worker node</text>
						</g>
					</g>
					<path id="node-border" class="st8" d="M2,0h104c1.1,0,2,0.9,2,2v131c0,1.1-0.9,2-2,2H2c-1.1,0-2-0.9-2-2V2C0,0.9,0.9,0,2,0z"/>
				</g>
				<g id="node-3" transform="translate(124.000000, 0.000000)">
					<g transform="translate(1.000000, 112.000000)">
						<path class="st4" d="M2,0h102c1.1,0,2,0.9,2,2v18c0,1.1-0.9,2-2,2H2c-1.1,0-2-0.9-2-2V2C0,0.9,0.9,0,2,0z"/>
						<text transform="matrix(1 0 0 1 43.6953 15)" class="st0 st2 st3">UCP</text>
					</g>
					<g transform="translate(1.000000, 89.000000)">
						<path class="st5" d="M2,0h102c1.1,0,2,0.9,2,2v18c0,1.1-0.9,2-2,2H2c-1.1,0-2-0.9-2-2V2C0,0.9,0.9,0,2,0z"/>
						<text transform="matrix(1 0 0 1 11.3442 15)" class="st0 st2 st3">interlock-proxy:80</text>
					</g>
					<g>
						<g>
							<path class="st6" d="M0,2c0-1.1,0.9-2,2-2h69v10.6c0,5.9-4.8,10.6-10.6,10.6H0V2z"/>
							<text transform="matrix(1 0 0 1 6 14)" class="st0 st2 st7">worker node</text>
						</g>
					</g>
					<path class="st8" d="M2,0h104c1.1,0,2,0.9,2,2v131c0,1.1-0.9,2-2,2H2c-1.1,0-2-0.9-2-2V2C0,0.9,0.9,0,2,0z"/>
				</g>
				<g id="node-2">
					<g transform="translate(1.000000, 112.000000)">
						<path class="st4" d="M2,0h102c1.1,0,2,0.9,2,2v18c0,1.1-0.9,2-2,2H2c-1.1,0-2-0.9-2-2V2C0,0.9,0.9,0,2,0z"/>
						<text transform="matrix(1 0 0 1 43.6953 15)" class="st0 st2 st3">UCP</text>
					</g>
					<g id="extension" transform="translate(1.000000, 89.000000)">
						<path class="st5" d="M2,0h102c1.1,0,2,0.9,2,2v18c0,1.1-0.9,2-2,2H2c-1.1,0-2-0.9-2-2V2C0,0.9,0.9,0,2,0z"/>
						<text transform="matrix(1 0 0 1 8.354 15)" class="st0 st2 st3">interlock-extension</text>
					</g>
					<g id="wordpress-copy-2" transform="translate(1.000000, 66.000000)">
						<path class="st9" d="M2,0h102c1.1,0,2,0.9,2,2v18c0,1.1-0.9,2-2,2H2c-1.1,0-2-0.9-2-2V2C0,0.9,0.9,0,2,0z"/>
						<text transform="matrix(1 0 0 1 16.0391 15)" class="st0 st2 st3">wordpress:8000</text>
					</g>
					<g>
						<g>
							<path class="st6" d="M0,2c0-1.1,0.9-2,2-2h69v10.6c0,5.9-4.8,10.6-10.6,10.6H0V2z"/>
							<text transform="matrix(1 0 0 1 6 14)" class="st0 st2 st7">worker node</text>
						</g>
					</g>
					<path class="st8" d="M2,0h104c1.1,0,2,0.9,2,2v131c0,1.1-0.9,2-2,2H2c-1.1,0-2-0.9-2-2V2C0,0.9,0.9,0,2,0z"/>
				</g>
			</g>
			<g id="managers">
				<g id="node">
					<g transform="translate(1.000000, 112.000000)">
						<path class="st4" d="M2,0h102c1.1,0,2,0.9,2,2v18c0,1.1-0.9,2-2,2H2c-1.1,0-2-0.9-2-2V2C0,0.9,0.9,0,2,0z"/>
						<text transform="matrix(1 0 0 1 43.6953 15)" class="st0 st2 st3">UCP</text>
					</g>
					<g id="interlock" transform="translate(1.000000, 89.000000)">
						<path class="st5" d="M2,0h102c1.1,0,2,0.9,2,2v18c0,1.1-0.9,2-2,2H2c-1.1,0-2-0.9-2-2V2C0,0.9,0.9,0,2,0z"/>
						<text transform="matrix(1 0 0 1 22.6436 15)" class="st0 st2 st3">ucp-interlock</text>
					</g>
					<g>
						<g>
							<path class="st6" d="M0,2c0-1.1,0.9-2,2-2h69v10.6c0,5.9-4.8,10.6-10.6,10.6H0V2z"/>
							<text transform="matrix(1 0 0 1 6 14)" class="st0 st2 st7">manager node</text>
						</g>
					</g>
					<path class="st8" d="M2,0h104c1.1,0,2,0.9,2,2v131c0,1.1-0.9,2-2,2H2c-1.1,0-2-0.9-2-2V2C0,0.9,0.9,0,2,0z"/>
				</g>
			</g>
		</g>
		<g id="load-balancer" transform="translate(378.000000, 55.000000)">
			<g id="L7">
				<path class="st6" d="M2,0h230c1.1,0,2,0.9,2,2v18c0,1.1-0.9,2-2,2H2c-1.1,0-2-0.9-2-2V2C0,0.9,0.9,0,2,0z"/>
				<text transform="matrix(1 0 0 1 73.438 15)" class="st0 st2 st3">your load balancer</text>
			</g>
			
				<g id="arrow" transform="translate(175.000000, 33.000000) scale(1, -1) rotate(-90.000000) translate(-175.000000, -33.000000) translate(163.000000, 29.000000)">
				<path id="Line" class="st10" d="M2,4h22"/>
				<g id="Oval">
					<g>
						<circle id="path-1" class="st6" cx="4" cy="4" r="4"/>
					</g>
					<circle class="st11" cx="4" cy="4" r="5"/>
				</g>
			</g>
			
				<g transform="translate(57.000000, 33.000000) scale(1, -1) rotate(-90.000000) translate(-57.000000, -33.000000) translate(45.000000, 29.000000)">
				<path class="st10" d="M2,4h22"/>
				<g>
					<g>
						<circle id="path-2" class="st6" cx="4" cy="4" r="4"/>
					</g>
					<circle class="st11" cx="4" cy="4" r="5"/>
				</g>
			</g>
		</g>
		<path id="group" class="st12" d="M0,93c0-1.1,0.9-2,2-2h724c1.1,0,2,0.9,2,2v211c0,1.1-0.9,2-2,2H2c-1.1,0-2-0.9-2-2V93z"/>
		<g id="user" transform="translate(420.000000, 0.000000)">
			<text transform="matrix(1 0 0 1 0.1294 42)" class="st13 st2 st3">http://wordpress.example.org</text>
			<path id="Shape" class="st14" d="M73,13c3.6,0,6.5-2.9,6.5-6.5C79.5,2.9,76.6,0,73,0s-6.5,2.9-6.5,6.5C66.5,10.1,69.4,13,73,13
				L73,13z M73,16.2c-4.3,0-13,2.2-13,6.5V26h26v-3.2C86,18.4,77.3,16.2,73,16.2L73,16.2z"/>
		</g>
		<g id="networks" transform="translate(6.000000, 174.000000)">
			<g id="wordpress-net" transform="translate(351.000000, 0.000000)">
				<text transform="matrix(1 0 0 1 293.9414 75)" class="st1 st2 st3">wordpress-net</text>
				<path id="common" class="st15" d="M286.1,72.7H10.6"/>
				
					<g id="arrow-3" transform="translate(253.500000, 47.000000) scale(1, -1) rotate(-90.000000) translate(-253.500000, -47.000000) translate(228.500000, 41.500000)">
					<g>
						<g>
							<circle id="path-3" class="st5" cx="4" cy="4" r="4"/>
						</g>
						<circle class="st11" cx="4" cy="4" r="5"/>
					</g>
					<polyline id="Path-2" class="st15" points="49.7,10.5 4.1,10.5 4.1,4.7 					"/>
				</g>
				
					<g id="arrow-2" transform="translate(129.500000, 47.000000) scale(1, -1) rotate(-90.000000) translate(-129.500000, -47.000000) translate(104.500000, 41.500000)">
					<g>
						<g>
							<circle id="path-4" class="st5" cx="4" cy="4" r="4"/>
						</g>
						<circle class="st11" cx="4" cy="4" r="5"/>
					</g>
					<polyline class="st15" points="49.7,10.5 4.1,10.5 4.1,4.7 					"/>
				</g>
				
					<g id="arrow-1" transform="translate(5.500000, 36.000000) scale(1, -1) rotate(-90.000000) translate(-5.500000, -36.000000) translate(-30.500000, 30.500000)">
					<g>
						<g>
							<circle id="path-5" class="st9" cx="4" cy="4" r="4"/>
						</g>
						<circle class="st11" cx="4" cy="4" r="5"/>
					</g>
					<polyline class="st15" points="71.7,10.5 4.1,10.5 4.1,4.7 					"/>
				</g>
			</g>
			<g transform="translate(0.000000, 22.000000)">
				<text transform="matrix(1 0 0 1 0.2739 53)" class="st1 st2 st3">ucp-interlock</text>
				<path class="st15" d="M244.4,50.7h-174"/>
				
					<g transform="translate(248.500000, 25.000000) scale(1, -1) rotate(-90.000000) translate(-248.500000, -25.000000) translate(223.500000, 20.500000)">
					<g>
						<g>
							<circle id="path-6" class="st5" cx="4" cy="5" r="4"/>
						</g>
						<circle class="st11" cx="4" cy="5" r="5"/>
					</g>
					<polyline class="st15" points="49.7,0 4.1,0 4.1,5.7 					"/>
				</g>
				
					<g transform="translate(126.500000, 25.000000) scale(1, -1) rotate(-90.000000) translate(-126.500000, -25.000000) translate(101.500000, 20.500000)">
					<g>
						<g>
							<circle id="path-7" class="st5" cx="4" cy="5" r="4"/>
						</g>
						<circle class="st11" cx="4" cy="5" r="5"/>
					</g>
					<polyline class="st15" points="49.7,0 4.1,0 4.1,5.7 					"/>
				</g>
			</g>
		</g>
	</g>
</g>
</svg>
