<?xml version="1.0" encoding="utf-8"?>
<!-- Generator: Adobe Illustrator 23.0.1, SVG Export Plug-In . SVG Version: 6.00 Build 0)  -->
<svg version="1.1" id="Layer_1" xmlns="http://www.w3.org/2000/svg" xmlns:xlink="http://www.w3.org/1999/xlink" x="0px" y="0px"
	 viewBox="0 0 740 250" style="enable-background:new 0 0 740 250;" xml:space="preserve">
<style type="text/css">
	.st0{fill:#FFFFFF;}
	.st1{fill:#82949E;}
	.st2{font-family:'OpenSans';}
	.st3{font-size:10px;}
	.st4{fill-rule:evenodd;clip-rule:evenodd;fill:#445D6E;}
	.st5{font-size:8px;}
	.st6{fill-rule:evenodd;clip-rule:evenodd;fill:#439FD1;}
	.st7{fill-rule:evenodd;clip-rule:evenodd;fill:#FFB463;}
	.st8{fill:none;stroke:#445D6E;stroke-width:2;}
	.st9{fill-rule:evenodd;clip-rule:evenodd;fill:#E0E4E7;}
	.st10{fill-rule:evenodd;clip-rule:evenodd;fill:#A1CFE8;}
	.st11{fill:none;stroke:#E0E4E7;stroke-width:2;}
	.st12{fill:none;stroke:#445D6E;stroke-width:2;stroke-linecap:round;stroke-linejoin:round;}
	.st13{fill:#FFFFFF;filter:url(#Adobe_OpacityMaskFilter);}
	.st14{mask:url(#mask-2_1_);}
	.st15{fill:none;stroke:#F7F8F9;stroke-width:4;}
	.st16{fill:none;stroke:#E0E4E7;stroke-width:2;stroke-linecap:round;stroke-linejoin:round;}
	.st17{fill:#FFFFFF;filter:url(#Adobe_OpacityMaskFilter_1_);}
	.st18{mask:url(#mask-4_1_);}
	.st19{fill:#FFFFFF;filter:url(#Adobe_OpacityMaskFilter_2_);}
	.st20{mask:url(#mask-6_1_);}
	.st21{fill:#FFFFFF;filter:url(#Adobe_OpacityMaskFilter_3_);}
	.st22{mask:url(#mask-8_1_);}
	.st23{fill:#FFFFFF;filter:url(#Adobe_OpacityMaskFilter_4_);}
	.st24{mask:url(#mask-10_1_);}
	.st25{fill-rule:evenodd;clip-rule:evenodd;fill:#82949E;}
</style>
<rect class="st0" width="740" height="250"/>
<title>use-domain-names-1</title>
<desc>Created with Sketch.</desc>
<g id="ucp-diagrams">
	<g id="use-domain-names-1">
		<g id="nodes" transform="translate(108.000000, 104.000000)">
			<g id="workers" transform="translate(321.000000, 0.000000)">
				<g id="node-1" transform="translate(107.000000, 0.000000)">
					<text transform="matrix(1 0 0 1 13.4824 116)" class="st1 st2 st3">192.168.99.104</text>
					<g id="node">
						<g id="node-label">
							<path id="Rectangle-127" class="st4" d="M0,2c0-1.1,0.9-2,2-2h69v10.6c0,5.9-4.8,10.6-10.6,10.6H0V2z"/>
							<text transform="matrix(1 0 0 1 6 14)" class="st0 st2 st5">worker node</text>
						</g>
					</g>
					<g id="app" transform="translate(1.000000, 79.000000)">
						<path id="Rectangle-138" class="st6" d="M2,0h91c1.1,0,2,0.9,2,2v18c0,1.1-0.9,2-2,2H2c-1.1,0-2-0.9-2-2V2C0,0.9,0.9,0,2,0z"
							/>
						<text transform="matrix(1 0 0 1 38.1953 15)" class="st0 st2 st3">UCP</text>
					</g>
					<g id="app-copy" transform="translate(1.000000, 56.000000)">
						<path class="st7" d="M2,0h91c1.1,0,2,0.9,2,2v18c0,1.1-0.9,2-2,2H2c-1.1,0-2-0.9-2-2V2C0,0.9,0.9,0,2,0z"/>
						<text transform="matrix(1 0 0 1 10.5391 15)" class="st0 st2 st3">wordpress:8000</text>
					</g>
					<path id="node-border" class="st8" d="M2,0h93c1.1,0,2,0.9,2,2v98c0,1.1-0.9,2-2,2H2c-1.1,0-2-0.9-2-2V2C0,0.9,0.9,0,2,0z"/>
				</g>
				<g id="node-1-copy">
					<text transform="matrix(1 0 0 1 13.4824 116)" class="st1 st2 st3">192.168.99.103</text>
					<g>
						<g>
							<path class="st9" d="M0,2c0-1.1,0.9-2,2-2h69v10.6c0,5.9-4.8,10.6-10.6,10.6H0V2z"/>
							<text transform="matrix(1 0 0 1 6 14)" class="st0 st2 st5">worker node</text>
						</g>
					</g>
					<g transform="translate(1.000000, 79.000000)">
						<path class="st10" d="M2,0h91c1.1,0,2,0.9,2,2v18c0,1.1-0.9,2-2,2H2c-1.1,0-2-0.9-2-2V2C0,0.9,0.9,0,2,0z"/>
						<text transform="matrix(1 0 0 1 38.1953 15)" class="st0 st2 st3">UCP</text>
					</g>
					<path class="st11" d="M2,0h93c1.1,0,2,0.9,2,2v98c0,1.1-0.9,2-2,2H2c-1.1,0-2-0.9-2-2V2C0,0.9,0.9,0,2,0z"/>
				</g>
			</g>
			<g id="managers">
				<g transform="translate(214.000000, 0.000000)">
					<text transform="matrix(1 0 0 1 13.4824 116)" class="st1 st2 st3">192.168.99.102</text>
					<g>
						<g>
							<path class="st9" d="M0,2c0-1.1,0.9-2,2-2h69v10.6c0,5.9-4.8,10.6-10.6,10.6H0V2z"/>
							<text transform="matrix(1 0 0 1 6 14)" class="st0 st2 st5">manager node</text>
						</g>
					</g>
					<g transform="translate(1.000000, 79.000000)">
						<path class="st10" d="M2,0h91c1.1,0,2,0.9,2,2v18c0,1.1-0.9,2-2,2H2c-1.1,0-2-0.9-2-2V2C0,0.9,0.9,0,2,0z"/>
						<text transform="matrix(1 0 0 1 38.1953 15)" class="st0 st2 st3">UCP</text>
					</g>
					<path class="st11" d="M2,0h93c1.1,0,2,0.9,2,2v98c0,1.1-0.9,2-2,2H2c-1.1,0-2-0.9-2-2V2C0,0.9,0.9,0,2,0z"/>
				</g>
				<g id="node-1-copy-3" transform="translate(107.000000, 0.000000)">
					<text transform="matrix(1 0 0 1 13.4824 116)" class="st1 st2 st3">192.168.99.101</text>
					<g>
						<g>
							<path class="st9" d="M0,2c0-1.1,0.9-2,2-2h69v10.6c0,5.9-4.8,10.6-10.6,10.6H0V2z"/>
							<text transform="matrix(1 0 0 1 6 14)" class="st0 st2 st5">manager node</text>
						</g>
					</g>
					<g transform="translate(1.000000, 79.000000)">
						<path class="st10" d="M2,0h91c1.1,0,2,0.9,2,2v18c0,1.1-0.9,2-2,2H2c-1.1,0-2-0.9-2-2V2C0,0.9,0.9,0,2,0z"/>
						<text transform="matrix(1 0 0 1 38.1953 15)" class="st0 st2 st3">UCP</text>
					</g>
					<path class="st11" d="M2,0h93c1.1,0,2,0.9,2,2v98c0,1.1-0.9,2-2,2H2c-1.1,0-2-0.9-2-2V2C0,0.9,0.9,0,2,0z"/>
				</g>
				<g id="node-1-copy-2">
					<text transform="matrix(1 0 0 1 13.4824 116)" class="st1 st2 st3">192.168.99.100</text>
					<g>
						<g>
							<path class="st9" d="M0,2c0-1.1,0.9-2,2-2h69v10.6c0,5.9-4.8,10.6-10.6,10.6H0V2z"/>
							<text transform="matrix(1 0 0 1 6 14)" class="st0 st2 st5">manager node</text>
						</g>
					</g>
					<g transform="translate(1.000000, 79.000000)">
						<path class="st10" d="M2,0h91c1.1,0,2,0.9,2,2v18c0,1.1-0.9,2-2,2H2c-1.1,0-2-0.9-2-2V2C0,0.9,0.9,0,2,0z"/>
						<text transform="matrix(1 0 0 1 38.1953 15)" class="st0 st2 st3">UCP</text>
					</g>
					<path class="st11" d="M2,0h93c1.1,0,2,0.9,2,2v98c0,1.1-0.9,2-2,2H2c-1.1,0-2-0.9-2-2V2C0,0.9,0.9,0,2,0z"/>
				</g>
			</g>
		</g>
		<g id="load-balancer" transform="translate(107.000000, 59.000000)">
			<g id="lb">
				<path class="st4" d="M2,0h523c1.1,0,2,0.9,2,2v18c0,1.1-0.9,2-2,2H2c-1.1,0-2-0.9-2-2V2C0,0.9,0.9,0,2,0z"/>
				<text transform="matrix(1 0 0 1 214.8194 15)" class="st0 st2 st3">swarm routing mesh</text>
			</g>
			
				<g id="arrow-copy-2" transform="translate(477.500000, 32.500000) scale(1, -1) rotate(-90.000000) translate(-477.500000, -32.500000) translate(465.500000, 28.500000)">
				<path id="Line" class="st12" d="M2,4h22"/>
				<defs>
					<filter id="Adobe_OpacityMaskFilter" filterUnits="userSpaceOnUse">
						<feColorMatrix  type="matrix" values="1 0 0 0 0  0 1 0 0 0  0 0 1 0 0  0 0 0 1 0"/>
					</filter>
				</defs>
				<mask maskUnits="userSpaceOnUse" id="mask-2_1_">
					
						<rect x="-81.5" y="-570.5" transform="matrix(2.535182e-06 1 -1 2.535182e-06 -651.9998 -500.9985)" class="st13" width="12" height="-12"/>
					<g>
						<circle id="path-1_1_" cx="-75.5" cy="-576.5" r="4"/>
					</g>
				</mask>
				<g id="Oval" class="st14">
					<g>
						<circle class="st4" cx="4" cy="4" r="4"/>
					</g>
					<g>
						<circle class="st15" cx="4" cy="4" r="4"/>
					</g>
				</g>
			</g>
			
				<g id="arrow-copy-3" transform="translate(370.500000, 32.500000) scale(1, -1) rotate(-90.000000) translate(-370.500000, -32.500000) translate(358.500000, 28.500000)">
				<path class="st16" d="M2,4h22"/>
				<defs>
					<filter id="Adobe_OpacityMaskFilter_1_" filterUnits="userSpaceOnUse">
						<feColorMatrix  type="matrix" values="1 0 0 0 0  0 1 0 0 0  0 0 1 0 0  0 0 0 1 0"/>
					</filter>
				</defs>
				<mask maskUnits="userSpaceOnUse" id="mask-4_1_">
					
						<rect x="-81.5" y="-463.5" transform="matrix(2.535182e-06 1 -1 2.535182e-06 -544.9998 -393.9988)" class="st17" width="12" height="-12"/>
					<g>
						<circle id="path-3_1_" cx="-75.5" cy="-469.5" r="4"/>
					</g>
				</mask>
				<g class="st18">
					<g>
						<circle class="st9" cx="4" cy="4" r="4"/>
					</g>
					<g>
						<circle class="st15" cx="4" cy="4" r="4"/>
					</g>
				</g>
			</g>
			
				<g id="arrow-copy-4" transform="translate(263.500000, 32.500000) scale(1, -1) rotate(-90.000000) translate(-263.500000, -32.500000) translate(251.500000, 28.500000)">
				<path class="st16" d="M2,4h22"/>
				<defs>
					<filter id="Adobe_OpacityMaskFilter_2_" filterUnits="userSpaceOnUse">
						<feColorMatrix  type="matrix" values="1 0 0 0 0  0 1 0 0 0  0 0 1 0 0  0 0 0 1 0"/>
					</filter>
				</defs>
				<mask maskUnits="userSpaceOnUse" id="mask-6_1_">
					
						<rect x="-81.5" y="-356.5" transform="matrix(2.535182e-06 1 -1 2.535182e-06 -437.9998 -286.9991)" class="st19" width="12" height="-12"/>
					<g>
						<circle id="path-5_1_" cx="-75.5" cy="-362.5" r="4"/>
					</g>
				</mask>
				<g class="st20">
					<g>
						<circle class="st9" cx="4" cy="4" r="4"/>
					</g>
					<g>
						<circle class="st15" cx="4" cy="4" r="4"/>
					</g>
				</g>
			</g>
			
				<g id="arrow-copy-5" transform="translate(156.500000, 32.500000) scale(1, -1) rotate(-90.000000) translate(-156.500000, -32.500000) translate(144.500000, 28.500000)">
				<path class="st16" d="M2,4h22"/>
				<defs>
					<filter id="Adobe_OpacityMaskFilter_3_" filterUnits="userSpaceOnUse">
						<feColorMatrix  type="matrix" values="1 0 0 0 0  0 1 0 0 0  0 0 1 0 0  0 0 0 1 0"/>
					</filter>
				</defs>
				<mask maskUnits="userSpaceOnUse" id="mask-8_1_">
					
						<rect x="-81.5" y="-249.5" transform="matrix(2.535182e-06 1 -1 2.535182e-06 -330.9998 -179.9994)" class="st21" width="12" height="-12"/>
					<g>
						<circle id="path-7_1_" cx="-75.5" cy="-255.5" r="4"/>
					</g>
				</mask>
				<g class="st22">
					<g>
						<circle class="st9" cx="4" cy="4" r="4"/>
					</g>
					<g>
						<circle class="st15" cx="4" cy="4" r="4"/>
					</g>
				</g>
			</g>
			
				<g id="arrow-copy-6" transform="translate(49.500000, 32.500000) scale(1, -1) rotate(-90.000000) translate(-49.500000, -32.500000) translate(37.500000, 28.500000)">
				<path class="st16" d="M2,4h22"/>
				<defs>
					<filter id="Adobe_OpacityMaskFilter_4_" filterUnits="userSpaceOnUse">
						<feColorMatrix  type="matrix" values="1 0 0 0 0  0 1 0 0 0  0 0 1 0 0  0 0 0 1 0"/>
					</filter>
				</defs>
				<mask maskUnits="userSpaceOnUse" id="mask-10_1_">
					
						<rect x="-81.5" y="-142.5" transform="matrix(2.535182e-06 1 -1 2.535182e-06 -223.9998 -72.9996)" class="st23" width="12" height="-12"/>
					<g>
						<circle id="path-9_1_" cx="-75.5" cy="-148.5" r="4"/>
					</g>
				</mask>
				<g class="st24">
					<g>
						<circle class="st9" cx="4" cy="4" r="4"/>
					</g>
					<g>
						<circle class="st15" cx="4" cy="4" r="4"/>
					</g>
				</g>
			</g>
		</g>
		<g id="user" transform="translate(321.000000, 4.000000)">
			<text transform="matrix(1 0 0 1 0.1919 42)" class="st1 st2 st3">192.168.99.100:8000</text>
			<path id="Shape" class="st25" d="M49,13c3.6,0,6.5-2.9,6.5-6.5C55.5,2.9,52.6,0,49,0s-6.5,2.9-6.5,6.5C42.5,10.1,45.4,13,49,13
				L49,13z M49,16.2c-4.3,0-13,2.2-13,6.5V26h26v-3.2C62,18.4,53.3,16.2,49,16.2L49,16.2z"/>
		</g>
	</g>
</g>
</svg>
