<svg width="800" height="500" viewBox="0 0 800 500" xmlns="http://www.w3.org/2000/svg" style="background:#FFF"><title>isolate_swarm</title><g fill="none" fill-rule="evenodd"><path fill="#FBFBFC" d="M0 0h800v500H0z"/><path d="M208.354 68V53.723h3.028V68h-3.028zm14.004-3.242c0 1.12-.39 1.972-1.167 2.558-.777.586-1.94.88-3.49.88-.794 0-1.47-.054-2.03-.162a7.683 7.683 0 0 1-1.573-.473V65.1c.553.26 1.176.478 1.87.654.693.176 1.304.264 1.83.264 1.082 0 1.622-.313 1.622-.938a.782.782 0 0 0-.216-.57c-.143-.148-.39-.314-.742-.5-.352-.185-.82-.4-1.406-.65-.84-.35-1.457-.676-1.85-.975-.395-.3-.68-.643-.86-1.03-.18-.388-.27-.865-.27-1.43 0-.97.377-1.722 1.13-2.252.75-.53 1.817-.796 3.197-.796 1.315 0 2.595.286 3.838.86l-.897 2.148a16.527 16.527 0 0 0-1.533-.576 4.815 4.815 0 0 0-1.456-.226c-.878 0-1.318.238-1.318.713 0 .267.142.498.425.693.284.196.904.485 1.86.87.854.344 1.48.667 1.876.966.397.3.69.645.88 1.035.188.392.282.857.282 1.398zm4.698-2.237c0 1.082.177 1.9.532 2.453.355.553.933.83 1.733.83.796 0 1.367-.275 1.715-.825.348-.55.523-1.37.523-2.457 0-1.08-.176-1.89-.528-2.43-.35-.54-.927-.81-1.728-.81-.795 0-1.367.268-1.72.805-.35.537-.526 1.35-.526 2.436zm7.548 0c0 1.78-.468 3.17-1.406 4.17-.937 1.004-2.243 1.505-3.916 1.505-1.048 0-1.972-.23-2.773-.688a4.58 4.58 0 0 1-1.847-1.978c-.43-.86-.644-1.863-.644-3.01 0-1.782.464-3.17 1.395-4.16.93-.988 2.24-1.483 3.926-1.483 1.05 0 1.973.228 2.774.684.8.456 1.416 1.11 1.846 1.963.43.853.644 1.853.644 2.998zm5.44 5.48h-2.98V52.805h2.98V68zm10.06 0l-.578-1.484h-.078c-.5.63-1.017 1.07-1.548 1.313-.53.243-1.222.365-2.075.365-1.048 0-1.873-.3-2.475-.898-.603-.6-.904-1.452-.904-2.56 0-1.158.406-2.012 1.216-2.562.81-.55 2.033-.855 3.667-.913l1.894-.06v-.477c0-1.107-.567-1.66-1.7-1.66-.872 0-1.897.263-3.076.79l-.986-2.01c1.256-.66 2.65-.988 4.18-.988 1.464 0 2.587.32 3.37.957.78.638 1.17 1.61 1.17 2.91V68h-2.08zm-.88-5.06l-1.153.04c-.865.027-1.51.183-1.932.47-.423.286-.635.722-.635 1.308 0 .84.482 1.26 1.445 1.26.69 0 1.242-.2 1.656-.596.413-.397.62-.925.62-1.582v-.9zm10.625 2.882c.52 0 1.144-.114 1.874-.342v2.217c-.743.332-1.654.498-2.735.498-1.192 0-2.06-.3-2.603-.903-.544-.602-.816-1.506-.816-2.71v-5.264h-1.424v-1.26l1.64-.995.86-2.305h1.904v2.324h3.056v2.236h-3.056v5.264c0 .423.12.736.356.938.238.2.552.302.943.302zm8.602-6.826c-.63 0-1.126.2-1.484.6-.358.4-.563.97-.615 1.705h4.18c-.014-.735-.206-1.303-.577-1.703-.37-.4-.872-.6-1.504-.6zm.42 9.2c-1.758 0-3.13-.486-4.12-1.456-.99-.97-1.485-2.344-1.485-4.12 0-1.83.457-3.245 1.372-4.244.913-1 2.178-1.5 3.793-1.5 1.543 0 2.744.44 3.603 1.32.86.878 1.29 2.092 1.29 3.642v1.445h-7.042c.033.847.283 1.507.752 1.983.47.475 1.126.713 1.973.713a8.19 8.19 0 0 0 1.864-.207 9.333 9.333 0 0 0 1.836-.654v2.304c-.52.26-1.078.454-1.67.58-.592.128-1.315.19-2.168.19zm19.688-3.438c0 1.12-.39 1.972-1.167 2.558-.778.586-1.942.88-3.492.88-.793 0-1.47-.054-2.03-.162a7.683 7.683 0 0 1-1.572-.473V65.1c.553.26 1.177.478 1.87.654.693.176 1.304.264 1.83.264 1.082 0 1.622-.313 1.622-.938a.782.782 0 0 0-.215-.57c-.143-.148-.39-.314-.742-.5-.35-.185-.82-.4-1.406-.65-.84-.35-1.457-.676-1.85-.975-.395-.3-.68-.643-.86-1.03-.18-.388-.27-.865-.27-1.43 0-.97.377-1.722 1.13-2.252.75-.53 1.817-.796 3.197-.796 1.316 0 2.595.286 3.838.86l-.898 2.148a16.527 16.527 0 0 0-1.533-.576 4.815 4.815 0 0 0-1.454-.226c-.88 0-1.32.238-1.32.713 0 .267.143.498.426.693.283.196.903.485 1.86.87.853.344 1.478.667 1.875.966.398.3.69.645.88 1.035.188.392.283.857.283 1.398zM299.858 68l-.84-3.818-1.132-4.825h-.07L295.827 68h-3.204l-3.105-10.918h2.968l1.26 4.834c.202.866.407 2.06.615 3.584h.06c.025-.495.14-1.28.34-2.354l.157-.83 1.348-5.234h3.28l1.28 5.234c.026.144.067.355.122.635a38.176 38.176 0 0 1 .303 1.82c.042.305.067.548.073.73h.06c.057-.47.162-1.112.31-1.93.15-.816.258-1.368.324-1.654l1.308-4.834h2.92L303.1 68h-3.242zm15.08 0l-.578-1.484h-.078c-.5.63-1.017 1.07-1.548 1.313-.53.243-1.222.365-2.075.365-1.05 0-1.874-.3-2.476-.898-.603-.6-.904-1.452-.904-2.56 0-1.158.406-2.012 1.216-2.562.81-.55 2.033-.855 3.667-.913l1.895-.06v-.477c0-1.107-.567-1.66-1.7-1.66-.872 0-1.897.263-3.076.79l-.986-2.01c1.256-.66 2.65-.988 4.18-.988 1.464 0 2.587.32 3.37.957.78.638 1.17 1.61 1.17 2.91V68h-2.08zm-.88-5.06l-1.153.04c-.866.027-1.51.183-1.933.47-.423.286-.635.722-.635 1.308 0 .84.482 1.26 1.445 1.26.69 0 1.242-.2 1.656-.596.413-.397.62-.925.62-1.582v-.9zm12.12-6.063c.402 0 .738.03 1.005.088l-.225 2.793a3.412 3.412 0 0 0-.88-.098c-.95 0-1.69.244-2.22.733-.53.488-.796 1.17-.796 2.05V68h-2.98V57.082h2.257l.438 1.836h.147a4.104 4.104 0 0 1 1.372-1.48 3.383 3.383 0 0 1 1.88-.56zM338.94 68h-2.978v-6.377c0-.788-.132-1.38-.396-1.772-.263-.393-.678-.59-1.245-.59-.76 0-1.314.28-1.66.84-.344.56-.516 1.48-.516 2.763V68h-2.98V57.082h2.276l.4 1.397h.167c.293-.503.716-.895 1.27-1.178.553-.283 1.188-.425 1.904-.425 1.635 0 2.742.534 3.32 1.602h.265c.293-.51.724-.903 1.294-1.183.568-.28 1.21-.42 1.927-.42 1.237 0 2.173.317 2.808.952.635.634.952 1.65.952 3.05V68h-2.988v-6.377c0-.788-.133-1.38-.397-1.772-.263-.393-.678-.59-1.245-.59-.73 0-1.274.26-1.636.78-.36.522-.542 1.35-.542 2.48V68zm25.137 0H361.1v-6.377c0-.788-.14-1.38-.42-1.772-.28-.393-.727-.59-1.34-.59-.833 0-1.435.278-1.806.835-.37.556-.556 1.48-.556 2.768V68h-2.98V57.082h2.276l.4 1.397h.167c.333-.53.79-.928 1.373-1.198.583-.27 1.245-.405 1.987-.405 1.27 0 2.233.343 2.89 1.03.658.687.987 1.678.987 2.974V68zm5.44-5.48c0 1.082.177 1.9.532 2.453.354.553.93.83 1.732.83.795 0 1.366-.275 1.714-.825.348-.55.523-1.37.523-2.457 0-1.08-.177-1.89-.53-2.43-.35-.54-.927-.81-1.727-.81-.795 0-1.367.268-1.72.805-.35.537-.526 1.35-.526 2.436zm7.548 0c0 1.78-.468 3.17-1.406 4.17-.938 1.004-2.244 1.505-3.917 1.505-1.048 0-1.972-.23-2.773-.688a4.58 4.58 0 0 1-1.846-1.978c-.43-.86-.645-1.863-.645-3.01 0-1.782.465-3.17 1.396-4.16.93-.988 2.24-1.483 3.926-1.483 1.048 0 1.972.228 2.773.684.8.456 1.416 1.11 1.846 1.963.43.853.645 1.853.645 2.998zm5.918 5.675c-1.282 0-2.29-.498-3.022-1.494-.73-.995-1.098-2.375-1.098-4.14 0-1.79.373-3.185 1.118-4.184.746-1 1.773-1.5 3.082-1.5 1.373 0 2.42.535 3.144 1.603h.098c-.15-.815-.225-1.54-.225-2.18v-3.495h2.987V68h-2.285l-.576-1.416h-.127c-.678 1.074-1.71 1.61-3.097 1.61zm1.045-2.373c.762 0 1.32-.22 1.675-.664.355-.443.55-1.194.58-2.256v-.322c0-1.172-.18-2.012-.54-2.52-.362-.507-.95-.76-1.764-.76-.665 0-1.18.28-1.548.844-.368.563-.552 1.38-.552 2.456 0 1.074.185 1.88.557 2.417.37.537.9.805 1.59.805zm12.676-6.826c-.63 0-1.126.2-1.484.6-.358.4-.563.97-.616 1.705h4.18c-.013-.735-.205-1.303-.576-1.703-.37-.4-.872-.6-1.504-.6zm.42 9.2c-1.758 0-3.13-.486-4.12-1.456-.99-.97-1.485-2.344-1.485-4.12 0-1.83.456-3.245 1.37-4.244.915-1 2.18-1.5 3.795-1.5 1.543 0 2.744.44 3.603 1.32.86.878 1.29 2.092 1.29 3.642v1.445h-7.042c.033.847.283 1.507.752 1.983.47.475 1.126.713 1.973.713a8.19 8.19 0 0 0 1.866-.207 9.333 9.333 0 0 0 1.836-.654v2.304c-.52.26-1.078.454-1.67.58-.592.128-1.315.19-2.168.19zm14.492-3.438c0 1.12-.39 1.972-1.167 2.558-.78.586-1.943.88-3.492.88-.794 0-1.47-.054-2.03-.162a7.683 7.683 0 0 1-1.574-.473V65.1c.554.26 1.177.478 1.87.654.694.176 1.304.264 1.832.264 1.08 0 1.62-.313 1.62-.938a.782.782 0 0 0-.214-.57c-.143-.148-.39-.314-.742-.5-.352-.185-.82-.4-1.407-.65-.84-.35-1.456-.676-1.85-.975-.394-.3-.68-.643-.86-1.03-.18-.388-.268-.865-.268-1.43 0-.97.376-1.722 1.128-2.252.752-.53 1.818-.796 3.198-.796 1.316 0 2.596.286 3.84.86l-.9 2.148a16.527 16.527 0 0 0-1.533-.576 4.815 4.815 0 0 0-1.455-.226c-.88 0-1.318.238-1.318.713 0 .267.142.498.425.693.282.196.902.485 1.86.87.852.344 1.477.667 1.874.966.397.3.69.645.88 1.035.188.392.282.857.282 1.398zm12.12 1.064c.52 0 1.145-.114 1.874-.342v2.217c-.742.332-1.653.498-2.734.498-1.19 0-2.06-.3-2.603-.903-.543-.602-.815-1.506-.815-2.71v-5.264h-1.426v-1.26l1.64-.995.86-2.305h1.905v2.324h3.056v2.236h-3.056v5.264c0 .423.118.736.356.938.238.2.552.302.942.302zm6.454-3.3c0 1.08.178 1.897.533 2.45.354.554.932.83 1.733.83.794 0 1.366-.274 1.714-.824.348-.55.522-1.37.522-2.457 0-1.08-.175-1.89-.527-2.43-.352-.54-.928-.81-1.728-.81-.795 0-1.368.268-1.72.805-.35.537-.527 1.35-.527 2.436zm7.55 0c0 1.777-.47 3.167-1.407 4.17-.937 1.002-2.243 1.503-3.916 1.503-1.048 0-1.973-.23-2.773-.688a4.58 4.58 0 0 1-1.846-1.978c-.43-.86-.645-1.863-.645-3.01 0-1.782.466-3.17 1.397-4.16.93-.988 2.24-1.483 3.926-1.483 1.048 0 1.972.228 2.773.684.8.456 1.415 1.11 1.845 1.963.43.853.644 1.853.644 2.998zM452.33 68l-.577-1.484h-.078c-.502.63-1.017 1.07-1.548 1.313-.53.243-1.222.365-2.075.365-1.048 0-1.874-.3-2.476-.898-.602-.6-.903-1.452-.903-2.56 0-1.158.405-2.012 1.216-2.562.81-.55 2.032-.855 3.666-.913l1.894-.06v-.477c0-1.107-.566-1.66-1.7-1.66-.87 0-1.897.263-3.075.79l-.987-2.01c1.257-.66 2.65-.988 4.18-.988 1.465 0 2.588.32 3.37.957.78.638 1.17 1.61 1.17 2.91V68h-2.08zm-.88-5.06l-1.152.04c-.866.027-1.51.183-1.934.47-.423.286-.635.722-.635 1.308 0 .84.48 1.26 1.445 1.26.69 0 1.242-.2 1.655-.596.413-.397.62-.925.62-1.582v-.9zm18.838 1.818c0 1.12-.39 1.972-1.167 2.558-.777.586-1.94.88-3.49.88-.794 0-1.47-.054-2.03-.162a7.683 7.683 0 0 1-1.574-.473V65.1c.554.26 1.177.478 1.87.654.694.176 1.304.264 1.832.264 1.08 0 1.62-.313 1.62-.938a.782.782 0 0 0-.214-.57c-.143-.148-.39-.314-.742-.5-.352-.185-.82-.4-1.407-.65-.84-.35-1.456-.676-1.85-.975-.394-.3-.68-.643-.86-1.03-.18-.388-.268-.865-.268-1.43 0-.97.376-1.722 1.128-2.252.752-.53 1.818-.796 3.198-.796 1.315 0 2.594.286 3.838.86l-.898 2.148a16.527 16.527 0 0 0-1.533-.576 4.815 4.815 0 0 0-1.456-.226c-.88 0-1.318.238-1.318.713 0 .267.14.498.425.693.284.196.904.485 1.86.87.854.344 1.48.667 1.876.966.397.3.69.645.88 1.035.188.392.282.857.282 1.398zm8.32 3.437c-1.282 0-2.288-.465-3.017-1.396h-.155c.104.91.156 1.438.156 1.58v4.425h-2.978V57.082h2.422l.42 1.416h.137c.697-1.08 1.73-1.62 3.097-1.62 1.29 0 2.298.497 3.027 1.493.73.997 1.094 2.38 1.094 4.15 0 1.167-.17 2.18-.513 3.04-.342.858-.83 1.512-1.46 1.96-.632.45-1.374.675-2.227.675zm-.88-8.935c-.734 0-1.27.226-1.61.678-.338.453-.514 1.2-.527 2.242v.322c0 1.172.175 2.012.523 2.52.35.507.9.76 1.656.76 1.333 0 2-1.1 2-3.3 0-1.074-.164-1.88-.493-2.417-.328-.537-.844-.805-1.548-.805zm12.062-.264c-.63 0-1.126.2-1.484.6-.358.4-.563.97-.616 1.705h4.18c-.013-.735-.205-1.303-.576-1.703-.37-.4-.872-.6-1.504-.6zm.42 9.2c-1.758 0-3.132-.486-4.12-1.456-.99-.97-1.486-2.344-1.486-4.12 0-1.83.458-3.245 1.373-4.244.914-1 2.18-1.5 3.794-1.5 1.543 0 2.745.44 3.604 1.32.86.878 1.29 2.092 1.29 3.642v1.445h-7.042c.033.847.283 1.507.752 1.983.47.475 1.126.713 1.973.713a8.19 8.19 0 0 0 1.865-.207 9.333 9.333 0 0 0 1.836-.654v2.304c-.52.26-1.078.454-1.67.58-.593.128-1.315.19-2.168.19zm11.31 0c-3.4 0-5.1-1.866-5.1-5.596 0-1.856.463-3.273 1.388-4.253.924-.98 2.25-1.47 3.974-1.47 1.263 0 2.396.247 3.4.742l-.88 2.304c-.47-.19-.905-.344-1.31-.464a4.216 4.216 0 0 0-1.21-.18c-1.55 0-2.324 1.1-2.324 3.3 0 2.136.775 3.203 2.324 3.203a5.3 5.3 0 0 0 1.592-.23 5.747 5.747 0 0 0 1.465-.717v2.55a4.8 4.8 0 0 1-1.46.634c-.493.117-1.113.175-1.86.175zm5.72-13.936c0-.97.542-1.455 1.622-1.455s1.62.485 1.62 1.455c0 .462-.134.822-.404 1.08-.27.256-.675.385-1.216.385-1.08 0-1.62-.49-1.62-1.465zM510.348 68h-2.98V57.082h2.98V68zm9.16-8.682h-2.578V68h-2.98v-8.682h-1.64v-1.435l1.64-.8v-.802c0-1.242.306-2.15.918-2.723.612-.573 1.592-.86 2.94-.86 1.028 0 1.943.153 2.744.46l-.762 2.187c-.6-.19-1.152-.283-1.66-.283-.423 0-.73.126-.918.377-.19.25-.283.57-.283.96v.685h2.577v2.236zm1.582-5.058c0-.97.54-1.455 1.62-1.455s1.62.485 1.62 1.455c0 .462-.134.822-.404 1.08-.27.256-.676.385-1.216.385-1.08 0-1.62-.49-1.62-1.465zM524.193 68h-2.978V57.082h2.978V68zm7.55.195c-3.4 0-5.098-1.865-5.098-5.595 0-1.856.462-3.273 1.386-4.253.925-.98 2.25-1.47 3.975-1.47 1.263 0 2.396.247 3.398.742l-.88 2.304c-.467-.19-.904-.344-1.307-.464a4.216 4.216 0 0 0-1.21-.18c-1.55 0-2.325 1.1-2.325 3.3 0 2.136.774 3.203 2.324 3.203a5.3 5.3 0 0 0 1.592-.23 5.747 5.747 0 0 0 1.463-.717v2.55a4.8 4.8 0 0 1-1.46.634c-.49.117-1.11.175-1.86.175zm15.644-2.373c.52 0 1.146-.114 1.875-.342v2.217c-.742.332-1.654.498-2.735.498-1.19 0-2.06-.3-2.602-.903-.544-.602-.816-1.506-.816-2.71v-5.264h-1.425v-1.26l1.64-.995.86-2.305h1.904v2.324h3.056v2.236h-3.057v5.264c0 .423.118.736.355.938.238.2.552.302.943.302zm8.603-6.826c-.63 0-1.125.2-1.483.6-.358.4-.563.97-.615 1.705h4.18c-.014-.735-.206-1.303-.577-1.703-.37-.4-.872-.6-1.504-.6zm.42 9.2c-1.757 0-3.13-.486-4.12-1.456-.99-.97-1.484-2.344-1.484-4.12 0-1.83.457-3.245 1.372-4.244.914-1 2.18-1.5 3.794-1.5 1.543 0 2.744.44 3.603 1.32.86.878 1.29 2.092 1.29 3.642v1.445h-7.042c.033.847.283 1.507.752 1.983.47.475 1.126.713 1.973.713a8.19 8.19 0 0 0 1.865-.207 9.333 9.333 0 0 0 1.836-.654v2.304c-.522.26-1.078.454-1.67.58-.593.128-1.316.19-2.17.19zM570.22 68l-.576-1.484h-.08c-.5.63-1.016 1.07-1.546 1.313-.53.243-1.223.365-2.076.365-1.048 0-1.873-.3-2.475-.898-.602-.6-.904-1.452-.904-2.56 0-1.158.406-2.012 1.216-2.562.81-.55 2.032-.855 3.666-.913l1.895-.06v-.477c0-1.107-.566-1.66-1.698-1.66-.873 0-1.898.263-3.077.79l-.986-2.01c1.256-.66 2.65-.988 4.18-.988 1.464 0 2.587.32 3.368.957.78.638 1.172 1.61 1.172 2.91V68h-2.08zm-.88-5.06l-1.152.04c-.865.027-1.51.183-1.933.47-.423.286-.635.722-.635 1.308 0 .84.482 1.26 1.445 1.26.69 0 1.242-.2 1.656-.596.414-.397.62-.925.62-1.582v-.9zM585.143 68h-2.98v-6.377c0-.788-.13-1.38-.394-1.772-.264-.393-.68-.59-1.246-.59-.76 0-1.315.28-1.66.84-.345.56-.517 1.48-.517 2.763V68h-2.98V57.082h2.277l.4 1.397h.166c.293-.503.716-.895 1.27-1.178.553-.283 1.188-.425 1.904-.425 1.634 0 2.74.534 3.32 1.602h.264c.293-.51.724-.903 1.294-1.183.57-.28 1.212-.42 1.928-.42 1.237 0 2.173.317 2.808.952.635.634.952 1.65.952 3.05V68h-2.988v-6.377c0-.788-.132-1.38-.396-1.772-.263-.393-.678-.59-1.245-.59-.73 0-1.275.26-1.636.78-.362.522-.542 1.35-.542 2.48V68z" fill="#066DA5"/><path fill="#066DA5" opacity=".05" d="M531 100h153v170H531zM501 279h220v193H501z"/><path d="M629 330v-12h-40v12h-8v28h56v-28h-8zm-36-8h32v8h-32v-8zm40 32h-48v-20h48v20zm-4-44h-40v4h40v-4zm0-8h-40v4h40v-4z" fill="#066DA5" fill-rule="nonzero" opacity=".3"/><path d="M598.926 340.147L596 348h-.893l2.928-7.853h.89zm3.798 7.96c-.384 0-.734-.07-1.05-.212a1.975 1.975 0 0 1-.798-.652h-.064c.042.343.064.67.064.977v2.423h-.892v-8.53h.725l.123.806h.043a2.07 2.07 0 0 1 .8-.7 2.433 2.433 0 0 1 1.048-.214c.78 0 1.383.267 1.807.8.425.534.637 1.282.637 2.245 0 .968-.215 1.72-.647 2.254-.43.536-1.03.803-1.796.803zm-.13-5.344c-.6 0-1.036.167-1.304.5-.27.333-.407.863-.414 1.59v.198c0 .828.138 1.42.414 1.776.275.357.717.535 1.326.535.51 0 .907-.205 1.195-.617.29-.412.434-.98.434-1.702 0-.734-.144-1.297-.433-1.69-.287-.39-.692-.587-1.215-.587zm6.817-.757c.262 0 .497.02.704.064l-.123.827a3.037 3.037 0 0 0-.644-.08c-.476 0-.883.193-1.222.58-.338.387-.507.868-.507 1.445V348h-.892v-5.887h.736l.103 1.09h.043c.218-.383.482-.678.79-.886a1.777 1.777 0 0 1 1.015-.31zm6.666 3.045c0 .96-.242 1.71-.725 2.25-.482.538-1.15.807-2.002.807-.527 0-.994-.123-1.402-.37a2.446 2.446 0 0 1-.946-1.064c-.222-.462-.333-1.002-.333-1.622 0-.958.24-1.706.72-2.24.48-.536 1.146-.804 1.998-.804.824 0 1.478.274 1.963.822.486.547.728 1.29.728 2.223zm-4.485 0c0 .753.152 1.326.452 1.72.3.394.743.59 1.327.59.583 0 1.026-.195 1.328-.587.303-.392.454-.966.454-1.722 0-.747-.15-1.316-.454-1.704-.302-.39-.75-.583-1.34-.583-.583 0-1.024.192-1.32.575-.298.383-.447.954-.447 1.713zm10.056 2.16h-.048c-.412.598-1.028.897-1.848.897-.77 0-1.37-.263-1.797-.79-.428-.525-.64-1.274-.64-2.244 0-.97.213-1.724.643-2.26.43-.54 1.028-.807 1.794-.807.8 0 1.41.29 1.837.87h.07l-.038-.424-.022-.414v-2.395h.89V348h-.724l-.118-.79zm-1.783.15c.61 0 1.05-.165 1.324-.496.274-.33.41-.866.41-1.603v-.187c0-.835-.138-1.43-.416-1.786-.276-.356-.72-.535-1.328-.535-.523 0-.923.204-1.2.61-.278.406-.417.98-.417 1.72 0 .753.138 1.32.414 1.704.275.383.68.575 1.213.575z" fill="#066DA5"/><path d="M609 415v13h-1v-13h-58v13h-1v-14h121v14h-1v-13h-60z" fill="#066DA5" opacity=".4"/><path d="M569.992 389h-2.413l-1.354-5.25c-.05-.187-.136-.573-.257-1.16-.122-.584-.19-.977-.21-1.178-.027.246-.095.642-.204 1.186-.11.545-.194.933-.253 1.166L563.956 389h-2.406l-2.55-9.994h2.085l1.278 5.455c.224 1.008.385 1.88.486 2.62.026-.26.09-.663.187-1.207.098-.545.19-.968.276-1.27l1.457-5.597h2.002l1.457 5.598c.062.25.142.634.238 1.15.095.514.168.956.22 1.325.044-.356.117-.8.217-1.33.1-.53.192-.96.274-1.29l1.27-5.454h2.085L569.992 389zm5.018-3.835c0 .757.124 1.328.372 1.716.25.388.653.582 1.214.582.556 0 .956-.193 1.2-.578.243-.385.365-.958.365-1.72 0-.755-.122-1.323-.368-1.7-.246-.38-.65-.568-1.21-.568-.556 0-.957.187-1.203.563-.247.375-.37.944-.37 1.705zm5.284 0c0 1.244-.328 2.217-.984 2.92-.657.7-1.57 1.052-2.742 1.052-.733 0-1.38-.16-1.94-.482-.562-.322-.992-.783-1.293-1.384-.3-.6-.45-1.303-.45-2.105 0-1.25.325-2.22.976-2.912.653-.693 1.57-1.04 2.75-1.04.733 0 1.38.16 1.94.48.56.318.992.776 1.293 1.373.3.597.45 1.297.45 2.1zm5.988-3.95c.283 0 .517.02.704.06l-.157 1.955a2.388 2.388 0 0 0-.616-.068c-.666 0-1.184.17-1.555.513-.373.342-.558.82-.558 1.435V389h-2.085v-7.643h1.58l.306 1.286h.103c.237-.43.557-.774.96-1.036a2.368 2.368 0 0 1 1.316-.393zm4.095 3.63l.91-1.163 2.14-2.325h2.35l-3.035 3.316 3.22 4.327h-2.406l-2.202-3.097-.895.718V389h-2.086v-10.637h2.085v4.744l-.11 1.737h.027zm9.563-2.148c-.442 0-.788.14-1.04.42-.25.28-.393.68-.43 1.194h2.926c-.01-.514-.143-.912-.403-1.192-.26-.28-.61-.42-1.053-.42zm.294 6.44c-1.23 0-2.192-.34-2.884-1.02-.693-.678-1.04-1.64-1.04-2.884 0-1.28.32-2.27.96-2.97.64-.7 1.527-1.05 2.657-1.05 1.08 0 1.92.308 2.522.924.6.615.902 1.465.902 2.55v1.01h-4.93c.024.594.2 1.056.527 1.39.327.332.788.498 1.38.498.46 0 .896-.048 1.306-.144.41-.094.838-.247 1.285-.457v1.614a4.896 4.896 0 0 1-1.168.406c-.415.09-.92.134-1.518.134zm9.078-7.923c.283 0 .518.02.705.06l-.158 1.956a2.388 2.388 0 0 0-.616-.068c-.665 0-1.184.17-1.555.513-.372.342-.558.82-.558 1.435V389h-2.085v-7.643h1.58l.307 1.286h.102c.237-.43.557-.774.96-1.036a2.368 2.368 0 0 1 1.317-.393zm14.76 7.786h-2.694l-4.348-7.56h-.06c.085 1.335.13 2.287.13 2.857V389h-1.895v-9.994h2.673l4.34 7.485h.05c-.07-1.298-.104-2.216-.104-2.754v-4.73h1.907V389zm4.012-3.835c0 .757.124 1.328.373 1.716.248.388.652.582 1.213.582.556 0 .956-.193 1.2-.578.243-.385.365-.958.365-1.72 0-.755-.123-1.323-.37-1.7-.245-.38-.648-.568-1.21-.568-.555 0-.956.187-1.202.563-.246.375-.37.944-.37 1.705zm5.284 0c0 1.244-.328 2.217-.984 2.92-.656.7-1.57 1.052-2.74 1.052-.735 0-1.382-.16-1.943-.482-.56-.322-.99-.783-1.29-1.384-.302-.6-.452-1.303-.452-2.105 0-1.25.326-2.22.978-2.912.65-.693 1.567-1.04 2.748-1.04.733 0 1.38.16 1.94.48.562.318.992.776 1.293 1.373.3.597.45 1.297.45 2.1zm4.143 3.972c-.897 0-1.602-.35-2.115-1.046-.513-.696-.77-1.663-.77-2.898 0-1.253.262-2.23.784-2.93.52-.698 1.24-1.048 2.155-1.048.962 0 1.696.374 2.202 1.12h.068a8.524 8.524 0 0 1-.157-1.523v-2.447h2.092V389h-1.6l-.403-.99h-.09c-.473.75-1.196 1.127-2.166 1.127zm.732-1.66c.533 0 .924-.156 1.173-.466.248-.31.384-.836.406-1.578v-.226c0-.82-.125-1.408-.378-1.764-.253-.355-.664-.533-1.234-.533-.465 0-.826.196-1.083.59-.258.395-.387.968-.387 1.72s.13 1.316.39 1.692c.26.376.63.564 1.114.564zm8.873-4.78c-.442 0-.788.14-1.04.42-.25.28-.393.68-.43 1.194h2.926c-.008-.514-.142-.912-.402-1.192-.26-.28-.61-.42-1.053-.42zm.294 6.44c-1.23 0-2.193-.34-2.886-1.02-.692-.678-1.04-1.64-1.04-2.884 0-1.28.32-2.27.962-2.97.64-.7 1.525-1.05 2.656-1.05 1.08 0 1.92.308 2.522.924.602.615.902 1.465.902 2.55v1.01h-4.928c.022.594.198 1.056.526 1.39.328.332.788.498 1.38.498.46 0 .896-.048 1.307-.144.41-.094.84-.247 1.286-.457v1.614a4.896 4.896 0 0 1-1.17.406c-.414.09-.92.134-1.517.134zm10.144-2.407c0 .784-.273 1.38-.817 1.79-.545.412-1.36.617-2.444.617-.556 0-1.03-.038-1.422-.113a5.378 5.378 0 0 1-1.1-.332v-1.722c.388.182.824.335 1.31.458a5.3 5.3 0 0 0 1.28.184c.758 0 1.136-.218 1.136-.656a.548.548 0 0 0-.15-.4c-.1-.102-.274-.22-.52-.348a13.12 13.12 0 0 0-.984-.455c-.588-.246-1.02-.474-1.296-.684a1.924 1.924 0 0 1-.6-.722c-.127-.27-.19-.605-.19-1 0-.68.264-1.206.79-1.577.527-.37 1.273-.556 2.24-.556.92 0 1.815.2 2.686.6l-.63 1.505c-.382-.165-.74-.3-1.072-.404a3.37 3.37 0 0 0-1.02-.157c-.614 0-.922.165-.922.498 0 .187.1.348.297.485.2.137.633.34 1.303.61.597.24 1.034.466 1.312.675.278.21.483.45.615.725.133.273.2.6.2.977z" fill="#066DA5"/><path d="M540.48 402.406c0-1.324.235-2.55.704-3.674.468-1.125 1.218-2.224 2.25-3.298h.92c-.96 1.054-1.687 2.168-2.177 3.34a9.297 9.297 0 0 0-.736 3.62c0 1.325.224 2.493.67 3.504h-.768c-.574-1.04-.862-2.203-.862-3.492zm7.752 1.594h-4.306l1.81-8.566h4.307l-.188.896h-3.316l-.575 2.748h3.088l-.17.89h-3.1l-.668 3.14h3.31l-.193.892zm6.135 0h-4.306l1.81-8.566h4.308l-.188.896h-3.316l-.574 2.748h3.087l-.17.89h-3.1l-.667 3.14h3.31l-.193.892zm9.205-2.725h-2.906L559.23 404h-1.107l4.682-8.566h1.02L564.9 404h-.996l-.334-2.725zm-.105-.914l-.205-1.75c-.094-.7-.15-1.383-.17-2.05-.145.342-.302.684-.472 1.024-.17.34-.657 1.266-1.462 2.777h2.31zm5.748-2.887c.758 0 1.306.37 1.646 1.113h.06c.066-.606.154-1.14.264-1.606l.457-2.097h.973L570.68 404h-.815l.13-1.225h-.048c-.394.49-.763.834-1.107 1.038a2.07 2.07 0 0 1-1.067.304c-.543 0-.966-.19-1.27-.574-.306-.383-.458-.914-.458-1.594 0-.837.14-1.602.422-2.298.28-.695.66-1.232 1.14-1.61a2.526 2.526 0 0 1 1.608-.57zm-1.113 5.83c.367 0 .746-.183 1.136-.548.39-.365.7-.832.93-1.4a4.62 4.62 0 0 0 .342-1.738c0-.433-.106-.763-.317-.99-.21-.227-.517-.34-.92-.34-.394 0-.76.16-1.098.484-.338.323-.61.776-.815 1.36a5.52 5.52 0 0 0-.307 1.843c0 .886.35 1.33 1.05 1.33zm5.6.697l-.73-6.422h.983l.375 3.592c.094 1.008.14 1.715.14 2.12h.036c.496-1.073.846-1.798 1.05-2.173l1.903-3.54h1.042L575.04 404h-1.337zm7.982-6.54c.36 0 .68.098.96.29.282.194.5.473.657.836h.065l.393-1.008h.744L583.137 404h-.78l.153-1.225h-.047c-.7.895-1.436 1.342-2.21 1.342-.542 0-.968-.193-1.276-.58-.31-.387-.463-.916-.463-1.588 0-.813.138-1.567.416-2.262.277-.696.66-1.24 1.148-1.635.488-.395 1.024-.592 1.606-.592zm-1.114 5.843c.38 0 .756-.18 1.13-.542.376-.36.68-.83.915-1.41s.352-1.162.352-1.745c0-.402-.11-.722-.328-.96-.22-.24-.507-.358-.863-.358-.406 0-.784.168-1.133.504-.35.337-.624.792-.824 1.366-.2.574-.3 1.18-.3 1.817 0 .445.093.778.277 1 .183.22.44.33.773.33zm8.42.697l.867-4.055c.08-.406.118-.687.118-.843 0-.247-.07-.444-.208-.592-.14-.15-.36-.223-.665-.223-.348 0-.687.117-1.017.352-.33.233-.62.567-.873 1-.252.434-.442.96-.57 1.577l-.593 2.783h-.986l1.372-6.422h.814l-.13 1.19h.06c.375-.477.737-.814 1.087-1.01.35-.198.712-.297 1.087-.297.496 0 .887.137 1.174.408.287.272.43.652.43 1.14 0 .308-.044.66-.134 1.055l-.838 3.937h-.996zm5.62.117c-.758 0-1.346-.21-1.764-.627-.418-.418-.627-1.008-.627-1.77 0-.78.143-1.5.432-2.16.29-.662.69-1.176 1.2-1.545a2.86 2.86 0 0 1 1.718-.554c.535 0 1.06.1 1.57.3l-.275.826c-.47-.2-.896-.3-1.283-.3-.437 0-.837.15-1.198.45-.362.298-.645.714-.85 1.247a4.8 4.8 0 0 0-.307 1.738c0 .5.13.89.39 1.167s.617.416 1.074.416c.283 0 .548-.04.798-.117.25-.08.496-.17.74-.276v.838a3.518 3.518 0 0 1-1.62.37zm5.32 0c-.72 0-1.284-.213-1.694-.638-.41-.427-.615-1.017-.615-1.77 0-.735.147-1.44.438-2.113.29-.674.676-1.2 1.157-1.574a2.522 2.522 0 0 1 1.588-.562c.597 0 1.047.13 1.347.39.3.26.452.623.452 1.087 0 .704-.325 1.255-.973 1.656-.65.4-1.577.6-2.784.6h-.194l-.023.47c0 .51.12.91.36 1.197.24.287.612.43 1.115.43.247 0 .5-.034.76-.104.26-.07.582-.2.97-.387v.854a5.31 5.31 0 0 1-.974.36c-.28.07-.59.103-.93.103zm.814-5.818c-.402 0-.78.182-1.134.55-.353.367-.624.877-.81 1.53h.07c.89 0 1.572-.117 2.047-.35.475-.232.712-.57.712-1.01 0-.208-.072-.38-.215-.516-.143-.137-.366-.205-.67-.205zm5.965-.827c.757 0 1.306.37 1.645 1.113h.06c.065-.606.153-1.14.263-1.606l.457-2.097h.972L608.174 404h-.815l.128-1.225h-.047c-.393.49-.762.834-1.106 1.038a2.07 2.07 0 0 1-1.066.304c-.543 0-.967-.19-1.272-.574-.305-.383-.457-.914-.457-1.594 0-.837.14-1.602.42-2.298.282-.695.662-1.232 1.14-1.61a2.526 2.526 0 0 1 1.61-.57zm-1.114 5.83c.367 0 .746-.183 1.136-.548.39-.365.7-.832.93-1.4a4.62 4.62 0 0 0 .342-1.738c0-.433-.106-.763-.317-.99-.21-.227-.517-.34-.92-.34-.394 0-.76.16-1.098.484-.34.323-.61.776-.816 1.36a5.52 5.52 0 0 0-.307 1.843c0 .886.35 1.33 1.05 1.33zm8.73.697h-.984l1.945-9.117h.984L614.327 404zm3.06 0h-.986l1.37-6.422h.986l-1.37 6.422zm.66-8.063a.77.77 0 0 1 .188-.536.624.624 0 0 1 .487-.207c.344 0 .516.176.516.528a.795.795 0 0 1-.196.546.59.59 0 0 1-.454.222.54.54 0 0 1-.387-.143c-.102-.096-.153-.232-.153-.408zm4.02 8.18c-.757 0-1.345-.21-1.763-.627-.418-.418-.627-1.008-.627-1.77 0-.78.144-1.5.433-2.16.288-.662.688-1.176 1.198-1.545a2.86 2.86 0 0 1 1.72-.554c.535 0 1.058.1 1.57.3l-.276.826c-.468-.2-.896-.3-1.283-.3-.438 0-.838.15-1.2.45-.36.298-.644.714-.85 1.247a4.8 4.8 0 0 0-.306 1.738c0 .5.13.89.39 1.167s.617.416 1.074.416c.282 0 .547-.04.797-.117.25-.08.496-.17.74-.276v.838a3.518 3.518 0 0 1-1.62.37zm5.32 0c-.718 0-1.282-.213-1.693-.638-.41-.427-.615-1.017-.615-1.77 0-.735.146-1.44.437-2.113.29-.674.676-1.2 1.157-1.574a2.522 2.522 0 0 1 1.588-.562c.597 0 1.047.13 1.347.39.3.26.452.623.452 1.087 0 .704-.326 1.255-.974 1.656-.65.4-1.576.6-2.783.6h-.194l-.024.47c0 .51.12.91.36 1.197.24.287.613.43 1.116.43.247 0 .5-.034.76-.104.26-.07.582-.2.97-.387v.854a5.31 5.31 0 0 1-.974.36c-.28.07-.59.103-.93.103zm.815-5.818c-.4 0-.78.182-1.133.55-.353.367-.624.877-.81 1.53h.07c.89 0 1.572-.117 2.047-.35.475-.232.712-.57.712-1.01 0-.208-.07-.38-.214-.516-.143-.137-.366-.205-.67-.205zm6.493 5.7l.868-4.055c.08-.406.118-.687.118-.843 0-.247-.07-.444-.208-.592-.14-.15-.36-.223-.665-.223-.348 0-.687.117-1.017.352-.33.233-.62.567-.873 1-.252.434-.442.96-.57 1.577L631.75 404h-.984l1.37-6.422h.815l-.13 1.19h.06c.375-.477.737-.814 1.087-1.01.35-.198.712-.297 1.087-.297.496 0 .887.137 1.174.408.29.272.432.652.432 1.14 0 .308-.045.66-.135 1.055L635.69 404h-.997zm6.96-1.822c0 .61-.215 1.085-.646 1.426-.432.342-1.04.513-1.825.513-.66 0-1.256-.135-1.787-.404v-.926c.273.164.568.29.884.38.316.09.61.136.878.136.492 0 .863-.098 1.113-.293a.91.91 0 0 0 .376-.75.812.812 0 0 0-.205-.563c-.135-.152-.43-.36-.883-.627-.508-.285-.868-.564-1.078-.838a1.546 1.546 0 0 1-.318-.972c0-.54.197-.974.592-1.304.394-.33.914-.495 1.558-.495.668 0 1.313.145 1.934.435l-.316.802-.328-.146a3.257 3.257 0 0 0-1.29-.25c-.363 0-.648.084-.855.254a.813.813 0 0 0-.31.66c0 .218.07.405.207.56.14.158.425.36.86.605.417.233.717.434.898.602.182.168.318.35.408.542.09.194.134.412.134.654zm3.716 1.94c-.72 0-1.284-.214-1.694-.64-.41-.425-.615-1.015-.615-1.77 0-.733.146-1.437.437-2.11.29-.675.677-1.2 1.157-1.575a2.522 2.522 0 0 1 1.588-.562c.598 0 1.047.13 1.348.39.3.26.45.623.45 1.087 0 .704-.323 1.255-.972 1.656-.648.4-1.576.6-2.783.6h-.193l-.024.47c0 .51.12.91.36 1.197.24.287.613.43 1.117.43.246 0 .5-.034.76-.104.258-.07.582-.2.968-.387v.854a5.31 5.31 0 0 1-.972.36c-.28.07-.59.103-.93.103zm.814-5.82c-.403 0-.78.184-1.134.552-.354.367-.624.877-.812 1.53h.07c.89 0 1.574-.117 2.048-.35.475-.232.712-.57.712-1.01 0-.208-.07-.38-.214-.516-.142-.137-.366-.205-.67-.205zm9.105-.802c.74 0 1.327.22 1.757.66.43.44.644 1.043.644 1.813 0 .733-.14 1.426-.42 2.08-.282.65-.663 1.155-1.143 1.51a2.67 2.67 0 0 1-1.63.534c-.75 0-1.337-.22-1.763-.662-.425-.442-.638-1.045-.638-1.81 0-.743.142-1.44.427-2.096.286-.654.67-1.156 1.155-1.505a2.69 2.69 0 0 1 1.61-.524zm1.382 2.338c0-.45-.122-.813-.366-1.093-.244-.278-.576-.418-.994-.418-.425 0-.807.145-1.145.434-.338.29-.6.69-.785 1.204a5.016 5.016 0 0 0-.278 1.714c0 .512.124.907.372 1.186.248.28.604.42 1.07.42.405 0 .77-.143 1.095-.428.325-.286.578-.69.76-1.216.18-.526.272-1.126.272-1.802zm5.853 4.166l.868-4.055c.078-.406.117-.687.117-.843 0-.247-.07-.444-.208-.592-.14-.15-.36-.223-.665-.223-.348 0-.687.117-1.017.352-.33.233-.62.567-.873 1-.252.434-.442.96-.57 1.577l-.593 2.783h-.984l1.37-6.422h.815l-.13 1.19h.06c.375-.477.737-.814 1.087-1.01.35-.198.712-.297 1.087-.297.495 0 .886.137 1.173.408.288.272.43.652.43 1.14 0 .308-.044.66-.134 1.055l-.84 3.937h-.995zm3.973 0h-.984l1.945-9.117h.983L666.498 404zm2.303-6.422h.985l.434 3.193c.038.27.076.668.113 1.194.037.525.056.948.056 1.268h.034c.137-.34.306-.73.51-1.17.203-.443.353-.748.45-.916l1.905-3.568h1.042l-4.078 7.512c-.363.672-.723 1.14-1.078 1.4-.356.262-.783.393-1.283.393-.282 0-.555-.04-.82-.123v-.79c.245.07.5.104.767.104.32 0 .595-.098.823-.296.23-.197.45-.49.665-.876l.445-.797-.972-6.527zm7.9 1.36c0 1.332-.238 2.56-.713 3.688-.474 1.127-1.22 2.218-2.24 3.272h-.915c1.938-2.152 2.906-4.472 2.906-6.96 0-1.333-.22-2.5-.662-3.504h.768c.57 1.05.855 2.218.855 3.503z" fill="#066DA5" opacity=".7"/><path fill="#066DA5" opacity=".4" d="M609 361h1v14h-1z"/><path d="M655 431v22h28v-22h-28zm26 20h-24v-8h24v8zm0-10h-24v-8h24v8zm-20-2c1.2 0 2-.8 2-2s-.8-2-2-2-2 .8-2 2 .8 2 2 2zm8 0c1.2 0 2-.8 2-2s-.8-2-2-2-2 .8-2 2 .8 2 2 2zm-8 10c1.2 0 2-.8 2-2s-.8-2-2-2-2 .8-2 2 .8 2 2 2zm8 0c1.2 0 2-.8 2-2s-.8-2-2-2-2 .8-2 2 .8 2 2 2zM595 431v22h28v-22h-28zm26 20h-24v-8h24v8zm0-10h-24v-8h24v8zm-20-2c1.2 0 2-.8 2-2s-.8-2-2-2-2 .8-2 2 .8 2 2 2zm8 0c1.2 0 2-.8 2-2s-.8-2-2-2-2 .8-2 2 .8 2 2 2zm-8 10c1.2 0 2-.8 2-2s-.8-2-2-2-2 .8-2 2 .8 2 2 2zm8 0c1.2 0 2-.8 2-2s-.8-2-2-2-2 .8-2 2 .8 2 2 2zM535 431v22h28v-22h-28zm26 20h-24v-8h24v8zm0-10h-24v-8h24v8zm-20-2c1.2 0 2-.8 2-2s-.8-2-2-2-2 .8-2 2 .8 2 2 2zm8 0c1.2 0 2-.8 2-2s-.8-2-2-2-2 .8-2 2 .8 2 2 2zm-8 10c1.2 0 2-.8 2-2s-.8-2-2-2-2 .8-2 2 .8 2 2 2zm8 0c1.2 0 2-.8 2-2s-.8-2-2-2-2 .8-2 2 .8 2 2 2z" fill="#066DA5" fill-rule="nonzero" opacity=".4"/><path d="M233.025 258.29C243.075 244.446 249 227.415 249 209c0-46.392-37.608-84-84-84s-84 37.608-84 84 37.608 84 84 84c16.785 0 32.42-4.923 45.54-13.405A27.124 27.124 0 0 0 210 285c0 14.912 12.088 27 27 27s27-12.088 27-27-12.088-27-27-27c-1.35 0-2.677.1-3.975.29z" fill="#066DA5" opacity=".1"/><path d="M148 193c4.4 0 8-3.6 8-8s-3.6-8-8-8-8 3.6-8 8 3.6 8 8 8zm0 4c-6.8 0-12 5.2-12 12v24h24v-24c0-6.8-5.2-12-12-12zm32-4c4.4 0 8-3.6 8-8s-3.6-8-8-8-8 3.6-8 8 3.6 8 8 8zm0 4c-6.8 0-12 5.2-12 12v24h24v-24c0-6.8-5.2-12-12-12zM238.93 286H253v6h-2v-4h-2v4h-2v-4h-8.07a7.002 7.002 0 0 1-13.93-1 7 7 0 0 1 13.93-1zm-6.93 6a5 5 0 1 0 0-10 5 5 0 0 0 0 10z" fill="#066DA5" fill-rule="nonzero"/><path d="M372 165v-8c0-4.4-3.6-8-8-8s-8 3.6-8 8v8h-6v2h28v-2h-6zm-2 0h-12v-8c0-3.4 2.6-6 6-6s6 2.6 6 6v8zm-20 6h28v-2h-28v2z" fill="#066DA5" fill-rule="nonzero" opacity=".4"/><path d="M215.48 341.406c0-1.324.235-2.55.704-3.674.468-1.125 1.218-2.224 2.25-3.298h.92c-.96 1.054-1.687 2.168-2.177 3.34a9.297 9.297 0 0 0-.736 3.62c0 1.325.224 2.493.67 3.504h-.768c-.574-1.04-.862-2.203-.862-3.492zm7.706-1.13h-2.907L218.843 343h-1.108l4.682-8.566h1.02l1.078 8.566h-.996l-.334-2.725zm-.106-.915l-.205-1.75c-.094-.7-.15-1.383-.17-2.05-.144.342-.302.684-.472 1.024-.17.34-.657 1.266-1.462 2.777h2.31zm5.748-2.887c.758 0 1.307.37 1.647 1.113h.058c.067-.606.154-1.14.264-1.606l.457-2.097h.973L230.293 343h-.814l.127-1.225h-.046c-.394.49-.763.834-1.107 1.038a2.07 2.07 0 0 1-1.066.304c-.543 0-.967-.19-1.272-.574-.304-.383-.457-.914-.457-1.594 0-.837.14-1.602.422-2.298.28-.695.66-1.232 1.14-1.61a2.526 2.526 0 0 1 1.608-.57zm-1.113 5.83c.367 0 .746-.183 1.137-.548.39-.365.7-.832.928-1.4a4.62 4.62 0 0 0 .343-1.738c0-.433-.105-.763-.316-.99-.21-.227-.518-.34-.92-.34-.395 0-.76.16-1.1.484-.337.323-.608.776-.813 1.36a5.52 5.52 0 0 0-.308 1.843c0 .886.35 1.33 1.05 1.33zm8.373.697l.867-4.055c.07-.367.106-.63.106-.79 0-.274-.06-.487-.18-.64-.122-.152-.33-.228-.622-.228-.328 0-.648.117-.958.352-.31.233-.584.568-.82 1.004-.237.435-.42.96-.548 1.573L233.34 343h-.985l1.372-6.422h.814l-.128 1.19h.06c.34-.465.677-.8 1.015-1.002a2.004 2.004 0 0 1 1.046-.305c.442 0 .78.128 1.02.382.238.254.38.607.422 1.06h.046c.337-.488.695-.85 1.074-1.087.38-.236.76-.354 1.148-.354.496 0 .88.134 1.152.4.27.265.407.652.407 1.16 0 .265-.042.613-.128 1.043l-.844 3.937h-.996l.867-4.055c.077-.406.116-.69.116-.855 0-.242-.067-.437-.202-.583-.135-.147-.346-.22-.635-.22-.318 0-.63.113-.94.34-.308.227-.578.548-.81.964-.233.417-.41.91-.53 1.48l-.628 2.93h-.984zm7.717 0h-.985l1.37-6.422h.986l-1.37 6.422zm.662-8.063a.77.77 0 0 1 .187-.536.624.624 0 0 1 .487-.207c.344 0 .516.176.516.528a.795.795 0 0 1-.196.546.59.59 0 0 1-.454.222.54.54 0 0 1-.387-.143c-.102-.096-.153-.232-.153-.408zm5.326 8.063l.867-4.055c.078-.406.117-.687.117-.843 0-.247-.07-.444-.208-.592-.14-.15-.36-.223-.666-.223-.347 0-.686.117-1.016.352-.33.233-.62.567-.873 1-.252.434-.443.96-.572 1.577l-.59 2.783h-.986l1.37-6.422h.816l-.13 1.19h.06c.374-.477.737-.814 1.086-1.01.35-.198.71-.297 1.086-.297.496 0 .888.137 1.175.408.288.272.432.652.432 1.14 0 .308-.045.66-.135 1.055L250.79 343h-.997zm5.584-5.063c0 1.333-.237 2.562-.712 3.69-.475 1.126-1.222 2.217-2.24 3.27h-.915c1.937-2.15 2.906-4.47 2.906-6.96 0-1.332-.22-2.5-.662-3.503h.767c.572 1.05.857 2.218.857 3.503z" fill="#066DA5" opacity=".6"/><path d="M157.805 305.273c0 1.89-.47 3.344-1.407 4.36-.937 1.015-2.28 1.523-4.03 1.523-1.75 0-3.095-.508-4.032-1.523-.938-1.016-1.406-2.474-1.406-4.375 0-1.9.47-3.353 1.41-4.356.94-1.002 2.288-1.504 4.043-1.504 1.755 0 3.097.506 4.027 1.516.93 1.01 1.395 2.464 1.395 4.36zm-8.336 0c0 1.276.24 2.237.725 2.883.485.646 1.21.97 2.172.97 1.932 0 2.9-1.285 2.9-3.853 0-2.572-.962-3.86-2.884-3.86-.964 0-1.69.325-2.18.974-.49.648-.734 1.61-.734 2.886zm13.124-.32h.797c.745 0 1.303-.147 1.673-.44.37-.296.554-.724.554-1.286 0-.568-.155-.987-.465-1.258-.31-.272-.795-.408-1.457-.408h-1.1v3.39zm5.47-1.812c0 1.23-.386 2.17-1.154 2.82-.768.652-1.86.978-3.277.978h-1.04V311h-2.42v-11.422h3.647c1.386 0 2.44.298 3.16.895.722.596 1.083 1.485 1.083 2.668zm8.897 4.688c0 1.03-.37 1.844-1.112 2.438-.743.593-1.775.89-3.098.89-1.22 0-2.297-.23-3.234-.687v-2.25c.77.343 1.423.585 1.957.725a5.79 5.79 0 0 0 1.464.21c.532 0 .94-.1 1.223-.303.284-.204.426-.506.426-.907a1 1 0 0 0-.188-.597 2.098 2.098 0 0 0-.55-.504c-.243-.162-.736-.42-1.48-.774-.7-.328-1.222-.643-1.57-.945a3.55 3.55 0 0 1-.837-1.055c-.207-.4-.312-.87-.312-1.406 0-1.01.343-1.805 1.028-2.383.685-.577 1.63-.866 2.84-.866.593 0 1.16.07 1.7.21.538.142 1.102.34 1.69.595l-.78 1.882c-.61-.25-1.114-.425-1.513-.524-.398-.1-.79-.148-1.175-.148-.46 0-.81.106-1.055.32a1.057 1.057 0 0 0-.367.836c0 .213.05.4.148.56.1.157.257.31.473.46.216.148.728.415 1.535.8 1.068.51 1.8 1.022 2.195 1.535.396.514.594 1.143.594 1.888zM221.052 321.388h3.965v5.18c-.643.21-1.248.358-1.815.442-.568.085-1.148.127-1.74.127-1.51 0-2.66-.443-3.456-1.33-.795-.886-1.193-2.16-1.193-3.818 0-1.614.462-2.872 1.385-3.774.923-.903 2.202-1.354 3.838-1.354 1.026 0 2.014.205 2.967.616l-.704 1.695a5.03 5.03 0 0 0-2.278-.547c-.916 0-1.65.308-2.2.923-.552.614-.828 1.44-.828 2.48 0 1.085.222 1.913.667 2.485.445.572 1.09.858 1.94.858.44 0 .89-.046 1.345-.137v-2.085h-1.893v-1.762zm10.445-2.174c.283 0 .517.02.704.06l-.156 1.956a2.388 2.388 0 0 0-.615-.068c-.667 0-1.185.17-1.556.513-.372.342-.558.82-.558 1.435V327h-2.085v-7.643h1.58l.308 1.286h.103c.238-.43.558-.774.96-1.036a2.368 2.368 0 0 1 1.317-.393zm6.665 7.786l-.403-1.04h-.056c-.35.443-.712.75-1.083.92-.37.17-.855.257-1.452.257-.734 0-1.31-.21-1.733-.63-.42-.418-.632-1.015-.632-1.79 0-.81.283-1.41.85-1.795.568-.385 1.424-.598 2.568-.64l1.327-.04v-.335c0-.775-.397-1.162-1.19-1.162-.61 0-1.328.185-2.153.554l-.69-1.41c.88-.46 1.854-.69 2.925-.69 1.025 0 1.81.224 2.358.67.547.447.82 1.126.82 2.037V327h-1.456zm-.615-3.54l-.807.026c-.606.02-1.057.128-1.353.328-.297.2-.445.506-.445.916 0 .588.338.882 1.012.882.483 0 .87-.14 1.16-.417.288-.278.433-.647.433-1.107v-.63zM248.82 327h-2.086v-4.464c0-.55-.098-.965-.294-1.24-.196-.276-.508-.414-.936-.414-.583 0-1.005.195-1.265.584-.26.39-.39 1.036-.39 1.938V327h-2.085v-7.643h1.592l.28.978h.117c.232-.37.552-.648.96-.837a3.27 3.27 0 0 1 1.39-.284c.89 0 1.565.24 2.025.72.46.482.69 1.176.69 2.083V327zm5.366-1.524c.364 0 .802-.08 1.312-.24v1.552c-.52.233-1.158.35-1.914.35-.834 0-1.44-.212-1.822-.634-.38-.42-.57-1.053-.57-1.897v-3.684h-1v-.882l1.15-.696.6-1.614h1.334v1.627h2.14v1.566h-2.14v3.684c0 .297.084.515.25.657.166.14.386.212.66.212zM352.536 183.844V188h-1.162v-9.994h2.74c1.227 0 2.133.235 2.72.704.584.47.877 1.176.877 2.12 0 1.32-.67 2.214-2.01 2.68l2.715 4.49h-1.374l-2.42-4.156h-2.084zm0-.998h1.593c.82 0 1.42-.163 1.804-.49.382-.325.574-.814.574-1.465 0-.66-.195-1.136-.585-1.428-.39-.292-1.015-.438-1.876-.438h-1.51v3.822zm10.486 5.29c-1.107 0-1.98-.337-2.62-1.01-.64-.675-.962-1.612-.962-2.81 0-1.208.298-2.168.893-2.88.594-.71 1.393-1.065 2.396-1.065.937 0 1.68.31 2.227.927.547.618.82 1.432.82 2.444v.72h-5.16c.022.88.244 1.546.666 2.002.42.456 1.015.684 1.78.684.807 0 1.605-.17 2.393-.506v1.01c-.4.175-.78.3-1.138.374-.358.075-.79.113-1.296.113zm-.307-6.815c-.602 0-1.08.197-1.44.59-.357.39-.568.933-.63 1.626h3.916c0-.715-.16-1.263-.478-1.644-.32-.38-.775-.57-1.367-.57zm9.83 4.636c0 .697-.26 1.235-.78 1.613-.52.378-1.248.567-2.187.567-.993 0-1.768-.158-2.324-.472v-1.053c.36.183.746.326 1.16.43.41.106.81.158 1.19.158.594 0 1.05-.094 1.37-.283.318-.19.477-.478.477-.865 0-.292-.125-.54-.378-.75-.253-.206-.746-.45-1.48-.734-.697-.26-1.193-.486-1.487-.68a2.03 2.03 0 0 1-.656-.66 1.72 1.72 0 0 1-.217-.88c0-.612.25-1.094.746-1.447.495-.352 1.177-.53 2.042-.53a5.98 5.98 0 0 1 2.366.493l-.404.923c-.752-.31-1.433-.465-2.044-.465-.537 0-.943.086-1.216.254-.274.17-.41.4-.41.697 0 .202.05.373.153.514.103.14.268.276.496.404.228.127.665.312 1.312.553.89.325 1.49.65 1.802.98.312.327.468.74.468 1.236zm4.266 1.244c.2 0 .395-.015.582-.044.186-.03.335-.06.444-.093v.87c-.123.058-.304.107-.544.146a4.08 4.08 0 0 1-.646.057c-1.45 0-2.173-.764-2.173-2.29v-4.457H373.4v-.547l1.073-.472.478-1.6h.657v1.738h2.174v.882h-2.173v4.41c0 .45.108.796.322 1.038.213.24.507.362.88.362zm5.94-6.83c.334 0 .632.028.896.083l-.157 1.053a3.865 3.865 0 0 0-.82-.103c-.607 0-1.126.246-1.556.74-.43.49-.646 1.104-.646 1.837V188h-1.135v-7.492h.937l.13 1.388h.054c.278-.488.613-.864 1.005-1.128a2.262 2.262 0 0 1 1.29-.397zm3.433 7.63h-1.135v-7.492h1.135V188zm-1.23-9.522c0-.26.063-.45.19-.57a.67.67 0 0 1 .48-.182.67.67 0 0 1 .47.184c.133.123.2.312.2.568 0 .255-.067.445-.2.57a.662.662 0 0 1-.47.188.655.655 0 0 1-.48-.188c-.127-.125-.19-.315-.19-.57zm6.63 9.66c-1.085 0-1.924-.335-2.52-1.003-.594-.667-.89-1.612-.89-2.833 0-1.254.3-2.222.905-2.906.603-.683 1.464-1.025 2.58-1.025.36 0 .72.04 1.08.117.36.078.643.17.848.274l-.35.965c-.25-.1-.523-.184-.82-.25a3.663 3.663 0 0 0-.785-.1c-1.52 0-2.282.972-2.282 2.913 0 .92.185 1.627.557 2.12.37.49.92.738 1.65.738.625 0 1.265-.135 1.922-.404v1.005c-.502.26-1.133.39-1.894.39zm6.09-.938c.2 0 .395-.015.582-.044.187-.03.335-.06.444-.093v.87c-.124.058-.305.107-.544.146a4.08 4.08 0 0 1-.646.057c-1.45 0-2.174-.764-2.174-2.29v-4.457h-1.073v-.547l1.073-.472.478-1.6h.657v1.738h2.175v.882h-2.174v4.41c0 .45.108.796.322 1.038.214.24.508.362.882.362zm5.688.937c-1.106 0-1.98-.338-2.62-1.012-.64-.674-.96-1.61-.96-2.81 0-1.207.297-2.167.89-2.877.596-.71 1.395-1.067 2.397-1.067.94 0 1.682.31 2.23.927.546.618.82 1.432.82 2.444v.72h-5.162c.023.88.245 1.546.667 2.002.42.456 1.015.684 1.78.684.807 0 1.605-.17 2.393-.506v1.01c-.4.175-.78.3-1.138.374-.358.075-.79.113-1.296.113zm-.306-6.816c-.602 0-1.082.197-1.44.59-.357.39-.568.933-.632 1.626h3.917c0-.715-.16-1.263-.48-1.644-.318-.38-.774-.57-1.366-.57zm10.096 5.675h-.06c-.525.76-1.31 1.142-2.353 1.142-.98 0-1.742-.335-2.286-1.005-.544-.67-.816-1.623-.816-2.858s.273-2.194.82-2.878c.547-.683 1.308-1.025 2.283-1.025 1.017 0 1.796.37 2.338 1.11h.09l-.05-.542-.026-.526v-3.05h1.134V188h-.923l-.15-1.005zm-2.27.192c.776 0 1.337-.21 1.686-.633.35-.42.523-1.102.523-2.04v-.24c0-1.06-.178-1.82-.53-2.273-.354-.452-.918-.68-1.693-.68-.665 0-1.174.26-1.528.777-.354.517-.53 1.248-.53 2.19 0 .958.175 1.68.526 2.168.35.488.866.732 1.545.732zm12.38.95c-1.084 0-1.924-.334-2.518-1.002-.595-.667-.892-1.612-.892-2.833 0-1.254.302-2.222.905-2.906.604-.683 1.464-1.025 2.58-1.025.36 0 .72.04 1.08.117.36.078.644.17.85.274l-.35.965c-.25-.1-.524-.184-.82-.25a3.663 3.663 0 0 0-.786-.1c-1.524 0-2.285.972-2.285 2.913 0 .92.186 1.627.558 2.12.37.49.92.738 1.65.738.625 0 1.265-.135 1.92-.404v1.005c-.5.26-1.13.39-1.892.39zm10.138-3.89c0 1.22-.307 2.175-.922 2.86-.616.687-1.466 1.03-2.55 1.03-.67 0-1.265-.158-1.784-.472a3.113 3.113 0 0 1-1.204-1.353c-.282-.588-.423-1.277-.423-2.065 0-1.22.305-2.173.916-2.854.61-.68 1.46-1.022 2.544-1.022 1.048 0 1.88.35 2.498 1.047.618.697.926 1.64.926 2.83zm-5.708 0c0 .957.192 1.686.575 2.188.382.5.945.752 1.688.752s1.307-.25 1.692-.75c.385-.498.578-1.228.578-2.19 0-.952-.193-1.676-.578-2.17-.385-.495-.954-.742-1.706-.742-.743 0-1.304.244-1.682.73-.378.49-.568 1.216-.568 2.182zM440.515 188v-4.847c0-.61-.14-1.066-.417-1.367-.278-.3-.714-.45-1.306-.45-.784 0-1.358.21-1.723.635-.365.425-.548 1.124-.548 2.1V188h-1.134v-7.492h.923l.185 1.025h.055c.232-.37.558-.655.977-.858.42-.203.887-.304 1.402-.304.9 0 1.58.22 2.036.654.456.435.683 1.13.683 2.088V188h-1.135zm5.885-.8c.2 0 .395-.015.58-.044.188-.03.336-.06.446-.093v.87c-.123.058-.304.107-.544.146a4.08 4.08 0 0 1-.646.057c-1.45 0-2.173-.764-2.173-2.29v-4.457h-1.074v-.547l1.072-.472.48-1.6h.655v1.738h2.174v.882h-2.173v4.41c0 .45.107.796.322 1.038.213.24.507.362.88.362zm5.94-6.83c.334 0 .632.028.896.083l-.157 1.053a3.865 3.865 0 0 0-.82-.103c-.607 0-1.126.246-1.556.74-.43.49-.646 1.104-.646 1.837V188h-1.135v-7.492h.936l.13 1.388h.054c.278-.488.613-.864 1.005-1.128a2.262 2.262 0 0 1 1.29-.397zm8.484 3.877c0 1.22-.307 2.175-.923 2.86-.614.687-1.464 1.03-2.548 1.03-.67 0-1.265-.158-1.785-.472a3.113 3.113 0 0 1-1.203-1.353c-.282-.588-.424-1.277-.424-2.065 0-1.22.306-2.173.916-2.854.61-.68 1.46-1.022 2.543-1.022 1.048 0 1.88.35 2.498 1.047.617.697.926 1.64.926 2.83zm-5.708 0c0 .957.192 1.686.574 2.188.383.5.946.752 1.69.752.742 0 1.306-.25 1.69-.75.386-.498.578-1.228.578-2.19 0-.952-.192-1.676-.577-2.17-.384-.495-.953-.742-1.705-.742-.743 0-1.303.244-1.68.73-.38.49-.57 1.216-.57 2.182zm8.832 3.753h-1.135v-10.637h1.135V188zm8.463-.8c.202 0 .395-.015.582-.044.187-.03.335-.06.445-.093v.87c-.124.058-.305.107-.544.146a4.08 4.08 0 0 1-.646.057c-1.45 0-2.174-.764-2.174-2.29v-4.457H469v-.547l1.073-.472.48-1.6h.655v1.738h2.174v.882h-2.174v4.41c0 .45.107.796.32 1.038.215.24.51.362.883.362zm8.99-2.953c0 1.22-.307 2.175-.922 2.86-.616.687-1.466 1.03-2.55 1.03-.67 0-1.265-.158-1.784-.472a3.113 3.113 0 0 1-1.204-1.353c-.282-.588-.423-1.277-.423-2.065 0-1.22.305-2.173.916-2.854.61-.68 1.458-1.022 2.543-1.022 1.048 0 1.88.35 2.498 1.047.618.697.926 1.64.926 2.83zm-5.708 0c0 .957.192 1.686.575 2.188.382.5.945.752 1.688.752s1.307-.25 1.692-.75c.385-.498.578-1.228.578-2.19 0-.952-.193-1.676-.578-2.17-.385-.495-.954-.742-1.706-.742-.74 0-1.302.244-1.68.73-.378.49-.568 1.216-.568 2.182z" fill="#066DA5"/><path d="M509 181l12 3-12 4v-7zm-19 3h19v1h-19v-1z" fill="#066DA5" opacity=".4"/><path d="M382 357v-8c0-4.4-3.6-8-8-8s-8 3.6-8 8v8h-6v2h28v-2h-6zm-2 0h-12v-8c0-3.4 2.6-6 6-6s6 2.6 6 6v8zm-20 6h28v-2h-28v2z" fill="#066DA5" fill-rule="nonzero" opacity=".4"/><path d="M367.014 376.34c0 .88-.32 1.566-.957 2.058-.638.493-1.504.74-2.598.74-1.186 0-2.097-.154-2.735-.46v-1.12a7.2 7.2 0 0 0 1.34.41c.483.1.96.15 1.435.15.775 0 1.358-.147 1.75-.44.392-.295.588-.704.588-1.228 0-.346-.07-.63-.21-.85-.138-.222-.37-.426-.696-.613-.326-.187-.82-.398-1.487-.635-.93-.333-1.594-.727-1.992-1.183-.4-.457-.6-1.052-.6-1.785 0-.77.29-1.383.87-1.84.578-.455 1.344-.683 2.297-.683.993 0 1.907.183 2.74.547l-.362 1.01c-.824-.345-1.627-.52-2.406-.52-.615 0-1.096.134-1.442.398-.347.264-.52.63-.52 1.1 0 .347.064.63.192.852.127.22.343.423.646.608.303.184.766.388 1.39.612 1.05.373 1.77.774 2.164 1.203.395.428.592.984.592 1.668zm4.867 2.797c-1.084 0-1.923-.334-2.518-1.002-.595-.667-.892-1.612-.892-2.833 0-1.254.302-2.222.905-2.906.604-.683 1.465-1.025 2.58-1.025.36 0 .72.04 1.08.117.36.078.644.17.85.274l-.35.965c-.25-.1-.524-.184-.82-.25a3.663 3.663 0 0 0-.786-.1c-1.523 0-2.284.972-2.284 2.913 0 .92.185 1.627.557 2.12.37.49.92.738 1.65.738.625 0 1.265-.135 1.92-.404v1.005c-.5.26-1.13.39-1.892.39zm8.8-.137v-4.847c0-.61-.14-1.066-.418-1.367-.278-.3-.713-.45-1.306-.45-.788 0-1.364.213-1.726.642-.362.428-.543 1.13-.543 2.105V379h-1.135v-10.637h1.135v3.22c0 .387-.02.71-.055.964h.068c.224-.36.54-.644.954-.85a3.1 3.1 0 0 1 1.41-.312c.917 0 1.604.217 2.062.653.458.435.687 1.126.687 2.074V379h-1.134zm6.63.137c-1.108 0-1.982-.338-2.622-1.012-.64-.674-.96-1.61-.96-2.81 0-1.207.297-2.167.892-2.877.594-.71 1.393-1.067 2.396-1.067.938 0 1.68.31 2.228.927.547.618.82 1.432.82 2.444v.72h-5.16c.022.88.244 1.546.666 2.002.42.456 1.015.684 1.78.684.807 0 1.605-.17 2.393-.506v1.01c-.4.175-.78.3-1.138.374-.358.075-.79.113-1.295.113zm-.308-6.816c-.602 0-1.08.197-1.44.59-.357.39-.568.933-.63 1.626h3.916c0-.715-.16-1.263-.48-1.644-.318-.38-.774-.57-1.366-.57zm10.097 5.675h-.063c-.524.76-1.308 1.142-2.35 1.142-.98 0-1.743-.335-2.288-1.005-.546-.67-.818-1.623-.818-2.858s.273-2.194.82-2.878c.547-.683 1.308-1.025 2.284-1.025 1.016 0 1.795.37 2.337 1.11h.09l-.05-.542-.026-.526v-3.05h1.135V379h-.923l-.15-1.005zm-2.27.192c.774 0 1.336-.21 1.684-.633.35-.42.523-1.102.523-2.04v-.24c0-1.06-.176-1.82-.53-2.273-.353-.452-.917-.68-1.692-.68-.665 0-1.174.26-1.527.777-.354.517-.53 1.248-.53 2.19 0 .958.175 1.68.526 2.168.35.488.866.732 1.545.732zm6.815-6.68v4.86c0 .612.14 1.068.417 1.368.278.3.713.452 1.305.452.784 0 1.357-.215 1.72-.643.362-.428.543-1.128.543-2.1v-3.936h1.135V379h-.937l-.164-1.005h-.06c-.234.37-.556.652-.97.848-.41.196-.882.294-1.41.294-.912 0-1.594-.217-2.048-.65-.453-.433-.68-1.125-.68-2.078v-4.902h1.15zm8.66 7.493h-1.134v-10.637h1.136V379zm5.572.137c-1.107 0-1.98-.338-2.622-1.012-.64-.674-.96-1.61-.96-2.81 0-1.207.297-2.167.892-2.877s1.393-1.067 2.396-1.067c.94 0 1.682.31 2.23.927.545.618.82 1.432.82 2.444v.72h-5.162c.023.88.246 1.546.667 2.002.422.456 1.015.684 1.78.684.808 0 1.605-.17 2.394-.506v1.01c-.4.175-.78.3-1.138.374-.357.075-.79.113-1.295.113zm-.308-6.816c-.602 0-1.082.197-1.44.59-.357.39-.568.933-.632 1.626h3.917c0-.715-.16-1.263-.478-1.644-.32-.38-.775-.57-1.368-.57zm8.414-.95c.333 0 .632.028.896.083l-.157 1.053a3.865 3.865 0 0 0-.82-.103c-.607 0-1.125.246-1.556.74-.43.49-.646 1.104-.646 1.837V379h-1.134v-7.492h.937l.13 1.388h.055c.277-.488.612-.864 1.004-1.128a2.262 2.262 0 0 1 1.292-.397zm8.354 6.83c.2 0 .394-.015.58-.044.188-.03.336-.06.445-.093v.87c-.123.058-.304.107-.543.146a4.08 4.08 0 0 1-.646.057c-1.45 0-2.174-.764-2.174-2.29v-4.457h-1.073v-.547l1.073-.472.48-1.6h.655v1.738h2.174v.882h-2.175v4.41c0 .45.107.796.32 1.038.215.24.51.362.883.362zm8.99-2.953c0 1.22-.308 2.175-.924 2.86-.615.687-1.465 1.03-2.55 1.03-.67 0-1.264-.158-1.784-.472a3.113 3.113 0 0 1-1.203-1.353c-.282-.588-.424-1.277-.424-2.065 0-1.22.306-2.173.916-2.854.61-.68 1.458-1.022 2.542-1.022 1.05 0 1.88.35 2.5 1.047.616.697.925 1.64.925 2.83zm-5.71 0c0 .957.193 1.686.575 2.188.383.5.946.752 1.69.752.742 0 1.306-.25 1.69-.75.386-.498.578-1.228.578-2.19 0-.952-.19-1.676-.576-2.17-.385-.495-.954-.742-1.706-.742-.743 0-1.303.244-1.68.73-.38.49-.57 1.216-.57 2.182z" fill="#066DA5"/><path d="M475 372l12 3-12 4v-7zm-19 3h19v1h-19v-1z" fill="#066DA5" opacity=".4"/><path d="M618 137v-6h-20v6h-4v14h28v-14h-4zm-18-4h16v4h-16v-4zm20 16h-24v-10h24v10zm-2-22h-20v2h20v-2zm0-4h-20v2h20v-2z" fill="#066DA5" fill-rule="nonzero" opacity=".4"/><path d="M565.283 161.434L562.09 170h-.973l3.194-8.566h.973zm4.143 8.683c-.418 0-.8-.077-1.146-.23a2.154 2.154 0 0 1-.87-.713h-.07c.047.375.07.73.07 1.066v2.643h-.972v-9.305h.79l.135.88h.047c.25-.353.54-.606.873-.763a2.654 2.654 0 0 1 1.143-.234c.85 0 1.51.292 1.97.874.464.582.696 1.398.696 2.45 0 1.054-.236 1.873-.706 2.457-.47.585-1.124.877-1.96.877zm-.14-5.83c-.657 0-1.132.182-1.425.545-.292.363-.442.94-.45 1.734v.217c0 .903.15 1.548.45 1.937.302.388.785.583 1.45.583.553 0 .988-.225 1.302-.674.315-.45.472-1.07.472-1.86 0-.8-.157-1.414-.472-1.84-.314-.43-.757-.643-1.327-.643zm7.435-.826c.286 0 .542.024.768.07l-.134.904c-.266-.06-.5-.088-.704-.088-.52 0-.963.21-1.333.633-.37.42-.553.946-.553 1.575V170h-.973v-6.422h.804l.11 1.19h.048c.238-.418.525-.74.86-.967a1.94 1.94 0 0 1 1.11-.34zm7.272 3.323c0 1.047-.263 1.864-.79 2.452-.528.588-1.257.882-2.186.882-.575 0-1.084-.135-1.53-.404a2.668 2.668 0 0 1-1.03-1.16c-.243-.504-.364-1.094-.364-1.77 0-1.047.262-1.862.785-2.446.523-.584 1.25-.876 2.18-.876.898 0 1.612.3 2.14.897.53.598.795 1.407.795 2.426zm-4.892 0c0 .82.164 1.446.492 1.875.328.43.81.645 1.447.645.636 0 1.12-.214 1.45-.642.33-.427.494-1.053.494-1.877 0-.816-.165-1.436-.495-1.86-.33-.424-.818-.636-1.463-.636-.636 0-1.117.21-1.44.627-.325.418-.487 1.04-.487 1.87zm10.968 2.356h-.052c-.45.65-1.12.977-2.016.977-.84 0-1.493-.287-1.96-.86-.467-.575-.7-1.392-.7-2.45 0-1.06.234-1.88.703-2.467.47-.586 1.12-.88 1.957-.88.87 0 1.54.317 2.004.95h.076l-.04-.463-.024-.45v-2.614h.972V170h-.79l-.13-.86zm-1.945.163c.664 0 1.146-.18 1.444-.542.3-.36.45-.944.45-1.748v-.205c0-.91-.153-1.56-.455-1.95-.303-.387-.787-.582-1.45-.582-.57 0-1.008.222-1.31.665-.303.444-.454 1.07-.454 1.878 0 .82.15 1.44.45 1.858.302.418.743.627 1.325.627zm4.39-2.074v-.892h2.876v.89h-2.878zm9.643 2.77l-1.177-3.768c-.076-.23-.214-.753-.418-1.57h-.046a21.48 21.48 0 0 1-.41 1.582L598.892 170h-1.125l-1.752-6.422h1.02c.413 1.613.73 2.842.945 3.686.218.843.342 1.412.374 1.705h.046c.043-.224.113-.512.208-.866.096-.353.18-.633.25-.84l1.177-3.686h1.055l1.148 3.686c.22.672.367 1.236.446 1.693h.046a6.21 6.21 0 0 1 .126-.65c.07-.293.476-1.87 1.222-4.73h1.008L603.31 170h-1.154zm6.803.117c-.95 0-1.7-.29-2.248-.867-.55-.578-.823-1.38-.823-2.408 0-1.035.254-1.858.763-2.467.51-.61 1.195-.914 2.054-.914.805 0 1.44.266 1.91.795.47.53.703 1.227.703 2.095v.615h-4.424c.02.754.21 1.326.572 1.717.36.39.87.586 1.526.586.692 0 1.375-.145 2.05-.434v.867c-.343.15-.668.256-.975.32a5.483 5.483 0 0 1-1.11.097zm-.265-5.842c-.515 0-.926.168-1.233.504-.307.335-.487.8-.542 1.394h3.357c0-.613-.136-1.083-.41-1.41-.273-.326-.664-.49-1.172-.49zm7.272-.802c.844 0 1.5.288 1.966.864.466.576.7 1.392.7 2.446 0 1.055-.236 1.874-.706 2.458-.47.585-1.124.877-1.96.877-.418 0-.8-.077-1.146-.23a2.154 2.154 0 0 1-.87-.713h-.07l-.204.826h-.697v-9.117h.97v2.215c0 .496-.014.94-.046 1.336h.047c.454-.64 1.126-.96 2.017-.96zm-.14.814c-.665 0-1.143.19-1.436.57-.292.382-.44 1.024-.44 1.926 0 .903.152 1.548.452 1.937.3.388.784.583 1.448.583.597 0 1.043-.218 1.336-.654.293-.436.44-1.062.44-1.88 0-.834-.147-1.457-.44-1.868-.293-.41-.747-.615-1.36-.615zm8.648 3.96c0 .6-.223 1.06-.668 1.384-.446.325-1.07.487-1.875.487-.852 0-1.516-.135-1.993-.404v-.902c.308.157.64.28.993.37.353.09.694.134 1.022.134.508 0 .9-.08 1.172-.243.273-.16.41-.408.41-.74 0-.25-.108-.464-.325-.642-.217-.177-.64-.387-1.27-.63-.596-.222-1.02-.416-1.273-.582a1.74 1.74 0 0 1-.564-.566 1.475 1.475 0 0 1-.184-.756c0-.523.213-.936.64-1.24.424-.302 1.008-.453 1.75-.453.692 0 1.368.142 2.028.423l-.346.79c-.644-.265-1.228-.398-1.752-.398-.46 0-.808.073-1.043.217-.235.145-.352.344-.352.598 0 .172.044.318.13.44.09.12.23.236.426.345.196.11.57.268 1.125.475.76.277 1.276.556 1.543.838.268.28.402.634.402 1.06zm4.295 1.87c-.95 0-1.7-.29-2.248-.867-.548-.578-.823-1.38-.823-2.408 0-1.035.254-1.858.764-2.467.51-.61 1.194-.914 2.054-.914.804 0 1.44.266 1.91.795.468.53.703 1.227.703 2.095v.615h-4.423c.02.754.21 1.326.57 1.717.363.39.87.586 1.528.586.69 0 1.375-.145 2.05-.434v.867c-.343.15-.668.256-.975.32a5.483 5.483 0 0 1-1.11.097zm-.264-5.842c-.516 0-.927.168-1.234.504-.306.335-.487.8-.542 1.394h3.358c0-.613-.137-1.083-.41-1.41-.274-.326-.664-.49-1.172-.49zm7.213-.814c.284 0 .54.024.766.07l-.134.904c-.266-.06-.5-.088-.704-.088-.52 0-.963.21-1.333.633-.37.42-.553.946-.553 1.575V170h-.973v-6.422h.802l.11 1.19h.048c.238-.418.525-.74.86-.967a1.94 1.94 0 0 1 1.11-.34zm3.374 6.54l-2.438-6.422h1.043l1.382 3.81c.313.89.496 1.467.55 1.733h.048c.043-.206.178-.635.407-1.285.228-.65.74-2.07 1.538-4.257h1.043L640.23 170h-1.136zm7.318.117c-.95 0-1.698-.29-2.247-.867-.55-.578-.823-1.38-.823-2.408 0-1.035.255-1.858.764-2.467.51-.61 1.195-.914 2.054-.914.805 0 1.442.266 1.91.795.47.53.703 1.227.703 2.095v.615h-4.423c.02.754.21 1.326.57 1.717.362.39.87.586 1.527.586.692 0 1.375-.145 2.05-.434v.867c-.343.15-.668.256-.975.32a5.483 5.483 0 0 1-1.11.097zm-.264-5.842c-.515 0-.926.168-1.233.504-.307.335-.487.8-.542 1.394h3.357c0-.613-.136-1.083-.41-1.41-.273-.326-.664-.49-1.172-.49zm7.213-.814c.286 0 .542.024.77.07l-.136.904c-.265-.06-.5-.088-.703-.088-.52 0-.963.21-1.332.633-.37.42-.554.946-.554 1.575V170h-.972v-6.422h.802l.112 1.19h.047c.238-.418.525-.74.86-.967a1.94 1.94 0 0 1 1.108-.34zM598.87 247h-1.138l-4.68-7.19h-.048c.062.844.094 1.618.094 2.32V247h-.92v-8.566h1.125l4.67 7.16h.047a65.12 65.12 0 0 1-.053-1.017 17.64 17.64 0 0 1-.03-1.227v-4.916h.932V247zm6.122-4.488h2.912v4.166a9.362 9.362 0 0 1-1.383.328c-.467.074-1.01.11-1.627.11-1.297 0-2.307-.385-3.03-1.156-.722-.772-1.084-1.853-1.084-3.243 0-.89.178-1.67.535-2.34a3.626 3.626 0 0 1 1.544-1.536c.67-.353 1.458-.53 2.36-.53.915 0 1.766.17 2.555.504l-.386.88c-.775-.33-1.52-.493-2.234-.493-1.043 0-1.857.312-2.443.933-.586.62-.88 1.482-.88 2.584 0 1.156.283 2.033.848 2.63.565.598 1.394.897 2.488.897a7.39 7.39 0 0 0 1.74-.205V243.4h-1.916v-.89zm4.97 4.488v-8.566h.995V247h-.996zm10.036 0h-1.137l-4.68-7.19h-.047c.062.844.094 1.618.094 2.32V247h-.92v-8.566h1.125l4.67 7.16h.046a65.1 65.1 0 0 1-.052-1.017 17.64 17.64 0 0 1-.03-1.227v-4.916h.932V247zm8.057 0h-1.13l-2.304-3.768-2.343 3.768h-1.054l2.847-4.477-2.654-4.09h1.102l2.127 3.393 2.144-3.392h1.06l-2.655 4.054 2.86 4.512z" fill="#066DA5"/><path d="M600 199v30h16v-30h-16zm14 28h-12v-12h12v12zm0-14h-12v-12h12v12zm-6 10c1.2 0 2-.8 2-2s-.8-2-2-2-2 .8-2 2 .8 2 2 2zm0-14c1.2 0 2-.8 2-2s-.8-2-2-2-2 .8-2 2 .8 2 2 2z" fill="#066DA5" fill-rule="nonzero" opacity=".4"/><path fill="#066DA5" opacity=".4" d="M607 175h1v20h-1z"/><path fill="#066DA5" fill-rule="nonzero" d="M258.534 267.206l89.672-98.74-.74-.672-89.672 98.74zM258.814 301.673l97.86 58.513.512-.86-97.86-58.512z"/></g></svg>