<svg width="800" height="500" viewBox="0 0 800 500" xmlns="http://www.w3.org/2000/svg" style="background:#fff"><title>isolate_vol</title><g fill="none" fill-rule="evenodd"><path fill="#FBFBFC" d="M0 0h800v500H0z"/><path d="M174.907 68V53.723h3.028V68h-3.028zm14.004-3.242c0 1.12-.387 1.972-1.165 2.558-.778.586-1.942.88-3.49.88-.795 0-1.472-.054-2.032-.162a7.683 7.683 0 0 1-1.573-.473V65.1c.553.26 1.176.478 1.87.654.693.176 1.303.264 1.83.264 1.08 0 1.622-.313 1.622-.938a.782.782 0 0 0-.215-.57c-.143-.148-.39-.314-.742-.5-.352-.185-.82-.4-1.407-.65-.84-.35-1.456-.676-1.85-.975-.394-.3-.68-.643-.86-1.03-.18-.388-.268-.865-.268-1.43 0-.97.376-1.722 1.128-2.252.752-.53 1.818-.796 3.198-.796 1.315 0 2.594.286 3.838.86l-.898 2.148a16.527 16.527 0 0 0-1.534-.576 4.815 4.815 0 0 0-1.455-.227c-.88 0-1.318.238-1.318.713 0 .267.14.498.423.693.283.195.903.484 1.86.87.853.343 1.478.666 1.875.965.396.3.69.645.878 1.035.19.392.283.857.283 1.398zm4.7-2.237c0 1.083.177 1.9.532 2.454.355.553.933.83 1.734.83.794 0 1.366-.275 1.714-.825.348-.55.522-1.37.522-2.458 0-1.08-.175-1.89-.527-2.43-.352-.54-.928-.81-1.73-.81-.793 0-1.366.268-1.717.805-.352.537-.528 1.35-.528 2.436zm7.55 0c0 1.78-.47 3.17-1.408 4.17-.937 1.005-2.242 1.506-3.915 1.506-1.048 0-1.973-.23-2.773-.688a4.58 4.58 0 0 1-1.846-1.978c-.43-.86-.645-1.863-.645-3.01 0-1.782.467-3.17 1.398-4.16.93-.988 2.24-1.483 3.927-1.483 1.048 0 1.972.228 2.773.684a4.57 4.57 0 0 1 1.846 1.964c.43.853.644 1.853.644 2.998zM206.6 68h-2.98V52.806h2.98V68zm10.056 0l-.576-1.483H216c-.5.63-1.016 1.07-1.547 1.313-.53.243-1.222.365-2.075.365-1.048 0-1.873-.3-2.476-.898-.602-.6-.903-1.452-.903-2.56 0-1.158.403-2.012 1.214-2.562.81-.55 2.033-.855 3.667-.913l1.895-.06v-.477c0-1.107-.566-1.66-1.7-1.66-.87 0-1.897.263-3.075.79l-.985-2.01c1.256-.66 2.65-.988 4.18-.988 1.464 0 2.587.32 3.368.957.782.638 1.172 1.61 1.172 2.91V68h-2.08zm-.88-5.06l-1.15.04c-.867.028-1.51.184-1.935.47-.422.287-.633.723-.633 1.31 0 .84.48 1.26 1.445 1.26.69 0 1.243-.2 1.656-.597.414-.397.62-.925.62-1.582v-.9zm10.626 2.883c.522 0 1.147-.114 1.876-.342V67.7c-.742.332-1.653.498-2.734.498-1.19 0-2.06-.3-2.603-.903-.543-.602-.815-1.506-.815-2.71V59.32H220.7v-1.26l1.64-.996.86-2.305h1.904v2.323h3.056v2.236h-3.057v5.263c0 .423.118.736.356.938.236.2.55.303.94.303zm8.605-6.826c-.632 0-1.126.2-1.484.6-.358.4-.563.97-.615 1.705h4.18c-.013-.735-.205-1.303-.576-1.703-.372-.4-.874-.6-1.505-.6zm.42 9.2c-1.758 0-3.132-.486-4.12-1.456-.99-.97-1.486-2.343-1.486-4.12 0-1.83.458-3.244 1.37-4.243.917-1 2.18-1.5 3.796-1.5 1.543 0 2.744.44 3.604 1.32.858.878 1.288 2.092 1.288 3.642v1.444h-7.04c.03.847.282 1.507.75 1.983.47.475 1.127.713 1.974.713a8.19 8.19 0 0 0 1.865-.207 9.333 9.333 0 0 0 1.836-.654v2.303c-.52.26-1.078.454-1.67.58-.593.128-1.315.19-2.168.19zM250.093 68l-4.16-10.918h3.115l2.11 6.22a11.1 11.1 0 0 1 .44 2.237h.057c.033-.627.18-1.37.44-2.238l2.1-6.22h3.115L253.15 68h-3.057zm11.152-5.48c0 1.082.178 1.9.532 2.453.355.553.933.83 1.734.83.796 0 1.367-.275 1.716-.825.348-.55.522-1.37.522-2.457 0-1.08-.176-1.89-.527-2.43-.35-.54-.927-.81-1.73-.81-.792 0-1.365.27-1.717.806-.35.537-.527 1.35-.527 2.436zm7.55 0c0 1.78-.47 3.17-1.407 4.17-.938 1.004-2.243 1.505-3.916 1.505-1.05 0-1.973-.23-2.774-.688a4.58 4.58 0 0 1-1.845-1.978c-.43-.86-.645-1.864-.645-3.01 0-1.783.465-3.17 1.396-4.16.93-.99 2.24-1.484 3.926-1.484 1.048 0 1.973.228 2.774.684.8.456 1.416 1.11 1.845 1.963.43.853.643 1.853.643 2.998zm5.438 5.48h-2.978V52.805h2.978V68zm10.86 0l-.4-1.396h-.157c-.32.507-.77.9-1.357 1.176-.588.277-1.256.415-2.004.415-1.283 0-2.25-.343-2.9-1.03-.652-.687-.977-1.675-.977-2.964v-7.117h2.977v6.377c0 .787.14 1.378.42 1.77.28.395.726.592 1.338.592.833 0 1.436-.278 1.807-.835.37-.556.556-1.48.556-2.768v-5.14h2.978V68h-2.285zm15.185 0H297.3v-6.377c0-.788-.132-1.38-.396-1.772-.263-.392-.678-.59-1.245-.59-.764 0-1.317.28-1.66.84-.347.56-.52 1.48-.52 2.764V68H290.5V57.082h2.275l.4 1.397h.167a3.015 3.015 0 0 1 1.27-1.18c.553-.282 1.187-.424 1.904-.424 1.633 0 2.74.534 3.32 1.602h.263c.294-.51.725-.903 1.294-1.183.57-.28 1.213-.42 1.93-.42 1.236 0 2.172.317 2.807.952.636.634.953 1.65.953 3.05V68h-2.988v-6.377c0-.788-.132-1.38-.396-1.772-.264-.392-.68-.59-1.245-.59-.73 0-1.274.26-1.636.78-.36.523-.543 1.35-.543 2.48V68zm14.385-9.004c-.63 0-1.126.2-1.484.6-.36.4-.565.97-.618 1.705h4.18c-.013-.734-.205-1.302-.576-1.702-.37-.4-.872-.6-1.504-.6zm.42 9.2c-1.758 0-3.13-.486-4.12-1.456-.99-.97-1.485-2.344-1.485-4.12 0-1.83.457-3.245 1.372-4.244.914-1 2.18-1.5 3.794-1.5 1.543 0 2.744.44 3.603 1.32.86.878 1.29 2.092 1.29 3.642v1.445h-7.042c.033.847.283 1.507.752 1.983.47.475 1.126.713 1.973.713a8.19 8.19 0 0 0 1.865-.208 9.333 9.333 0 0 0 1.836-.654v2.304c-.52.26-1.076.454-1.67.58-.59.128-1.313.19-2.166.19zm14.492-3.438c0 1.12-.39 1.972-1.167 2.558-.778.586-1.942.88-3.49.88-.795 0-1.472-.054-2.032-.162a7.683 7.683 0 0 1-1.573-.473V65.1c.554.26 1.177.478 1.87.654.694.176 1.304.264 1.832.264 1.08 0 1.62-.313 1.62-.938a.782.782 0 0 0-.214-.57c-.14-.148-.39-.314-.74-.5-.352-.185-.82-.4-1.407-.65-.84-.35-1.456-.676-1.85-.975-.394-.3-.68-.643-.86-1.03-.18-.388-.268-.865-.268-1.43 0-.97.376-1.722 1.128-2.252.752-.53 1.818-.796 3.198-.796 1.316 0 2.596.286 3.84.86l-.9 2.148a16.527 16.527 0 0 0-1.533-.576 4.815 4.815 0 0 0-1.455-.227c-.878 0-1.317.238-1.317.713 0 .267.142.498.425.693.283.195.903.484 1.86.87.853.343 1.478.666 1.875.965.397.3.69.645.88 1.035.188.392.282.857.282 1.398zm13.594-7.88c1.287 0 2.296.502 3.025 1.508.73 1.006 1.094 2.384 1.094 4.135 0 1.806-.377 3.2-1.13 4.19-.75.99-1.775 1.486-3.07 1.486-1.283 0-2.29-.465-3.02-1.396h-.203l-.498 1.2h-2.276V52.805h2.978v3.535c0 .45-.04 1.168-.117 2.158h.117c.697-1.08 1.73-1.62 3.096-1.62zm-.96 2.382c-.735 0-1.272.226-1.61.678-.34.453-.515 1.2-.53 2.242v.322c0 1.172.176 2.012.525 2.52.348.507.9.76 1.655.76.613 0 1.1-.28 1.46-.844.362-.563.543-1.38.543-2.456 0-1.074-.182-1.88-.547-2.417-.365-.537-.863-.805-1.494-.805zm12.06-.264c-.63 0-1.125.2-1.483.6-.358.4-.563.97-.615 1.705h4.18c-.013-.734-.206-1.302-.577-1.702-.37-.4-.872-.6-1.504-.6zm.42 9.2c-1.756 0-3.13-.486-4.12-1.456-.99-.97-1.484-2.344-1.484-4.12 0-1.83.457-3.245 1.372-4.244.914-1 2.178-1.5 3.793-1.5 1.544 0 2.745.44 3.604 1.32.86.878 1.29 2.092 1.29 3.642v1.445h-7.042c.033.847.284 1.507.752 1.983.47.475 1.127.713 1.973.713a8.19 8.19 0 0 0 1.864-.208 9.333 9.333 0 0 0 1.837-.654v2.304c-.52.26-1.077.454-1.67.58-.592.128-1.315.19-2.168.19zm11.476-2.374c.52 0 1.146-.114 1.875-.342v2.217c-.74.332-1.653.498-2.733.498-1.192 0-2.06-.3-2.603-.903-.544-.602-.815-1.506-.815-2.71v-5.264h-1.427v-1.26l1.64-.995.86-2.305h1.904v2.324h3.057v2.236h-3.057v5.264c0 .423.12.736.357.938.237.2.55.302.942.302zM379.224 68l-.84-3.818-1.133-4.825h-.066L375.19 68h-3.203l-3.105-10.918h2.97l1.258 4.834c.202.866.407 2.06.616 3.584h.058c.026-.495.14-1.28.342-2.354l.156-.83 1.348-5.234h3.28l1.28 5.234c.026.144.067.355.123.635a38.18 38.18 0 0 1 .303 1.82c.042.306.066.55.072.73h.06c.058-.47.162-1.11.312-1.93.15-.815.257-1.367.322-1.653l1.308-4.834h2.92L382.466 68h-3.242zm12.666-9.004c-.632 0-1.127.2-1.485.6-.358.4-.563.97-.615 1.705h4.18c-.013-.734-.205-1.302-.576-1.702-.372-.4-.873-.6-1.504-.6zm.42 9.2c-1.758 0-3.132-.486-4.122-1.456-.99-.97-1.484-2.344-1.484-4.12 0-1.83.457-3.245 1.372-4.244.915-1 2.18-1.5 3.794-1.5 1.543 0 2.744.44 3.604 1.32.86.878 1.29 2.092 1.29 3.642v1.445h-7.042c.032.847.283 1.507.752 1.983.468.475 1.126.713 1.972.713a8.19 8.19 0 0 0 1.866-.208 9.333 9.333 0 0 0 1.835-.654v2.304c-.52.26-1.077.454-1.67.58-.592.128-1.315.19-2.167.19zm11.396-9.2c-.63 0-1.126.2-1.484.6-.358.4-.563.97-.616 1.705h4.18c-.013-.734-.205-1.302-.576-1.702-.37-.4-.872-.6-1.504-.6zm.42 9.2c-1.758 0-3.132-.486-4.12-1.456-.99-.97-1.485-2.344-1.485-4.12 0-1.83.46-3.245 1.374-4.244.914-1 2.18-1.5 3.794-1.5 1.542 0 2.744.44 3.603 1.32.86.878 1.29 2.092 1.29 3.642v1.445h-7.04c.032.847.282 1.507.75 1.983.47.475 1.127.713 1.974.713a8.19 8.19 0 0 0 1.865-.208 9.333 9.333 0 0 0 1.835-.654v2.304c-.52.26-1.078.454-1.67.58-.593.128-1.315.19-2.168.19zM421.08 68h-2.98v-6.377c0-.788-.14-1.38-.42-1.772-.28-.392-.725-.59-1.337-.59-.834 0-1.436.28-1.807.836-.37.556-.557 1.48-.557 2.768V68H411V57.082h2.276l.4 1.397h.167c.332-.53.79-.93 1.372-1.2.583-.27 1.245-.404 1.987-.404 1.27 0 2.233.343 2.89 1.03.658.687.987 1.678.987 2.974V68zm12.86-2.178c.52 0 1.146-.114 1.875-.342v2.217c-.742.332-1.653.498-2.734.498-1.19 0-2.057-.3-2.6-.903-.544-.602-.816-1.506-.816-2.71v-5.264h-1.426v-1.26l1.64-.995.86-2.305h1.905v2.324h3.056v2.236h-3.057v5.264c0 .423.118.736.356.938.237.2.55.302.94.302zM446.997 68l-.84-3.818-1.133-4.825h-.068L442.964 68h-3.203l-3.104-10.918h2.97l1.26 4.834c.2.866.406 2.06.614 3.584h.058c.026-.495.14-1.28.34-2.354l.158-.83 1.347-5.234h3.282l1.28 5.234c.025.144.066.355.12.635a37.03 37.03 0 0 1 .304 1.822c.04.304.065.547.072.73h.06c.058-.47.16-1.113.31-1.93s.26-1.37.324-1.655l1.31-4.834h2.92L450.238 68h-3.243zm10.518-5.48c0 1.082.177 1.9.532 2.453.355.553.932.83 1.733.83.795 0 1.366-.275 1.714-.825.348-.55.523-1.37.523-2.457 0-1.08-.176-1.89-.528-2.43-.353-.54-.93-.81-1.73-.81-.795 0-1.367.27-1.72.806-.35.537-.526 1.35-.526 2.436zm7.548 0c0 1.78-.468 3.17-1.406 4.17-.937 1.004-2.243 1.505-3.916 1.505-1.046 0-1.97-.23-2.77-.688a4.58 4.58 0 0 1-1.847-1.978c-.43-.86-.644-1.864-.644-3.01 0-1.783.464-3.17 1.395-4.16.93-.99 2.24-1.484 3.926-1.484 1.05 0 1.973.228 2.774.684a4.57 4.57 0 0 1 1.846 1.963c.43.853.643 1.853.643 2.998zm11.114 5.675c-1.283 0-2.29-.498-3.023-1.494-.732-.994-1.098-2.374-1.098-4.14 0-1.79.372-3.184 1.118-4.183.745-1 1.772-1.5 3.08-1.5 1.375 0 2.423.535 3.145 1.603h.096c-.15-.815-.225-1.54-.225-2.18v-3.495h2.99V68h-2.285l-.577-1.416h-.128c-.677 1.074-1.71 1.61-3.095 1.61zm1.045-2.373c.76 0 1.32-.22 1.674-.664.355-.443.55-1.194.582-2.256v-.322c0-1.172-.18-2.012-.542-2.52-.362-.507-.95-.76-1.763-.76-.664 0-1.18.28-1.548.844-.368.563-.552 1.38-.552 2.456 0 1.074.186 1.88.557 2.417.37.537.902.805 1.592.805zm8.027-11.562c0-.97.54-1.455 1.62-1.455s1.62.485 1.62 1.455c0 .462-.135.822-.405 1.08-.27.256-.676.385-1.216.385-1.08 0-1.62-.49-1.62-1.465zM488.352 68h-2.978V57.082h2.978V68zm9.16-8.682h-2.577V68h-2.98v-8.682h-1.64v-1.435l1.64-.8v-.802c0-1.24.307-2.15.92-2.722.61-.573 1.59-.86 2.938-.86 1.03 0 1.944.153 2.745.46l-.763 2.187c-.6-.19-1.152-.283-1.66-.283-.423 0-.73.126-.918.377-.19.25-.284.57-.284.96v.684h2.578v2.236zm7.745 0h-2.58V68H499.7v-8.682h-1.64v-1.435l1.64-.8v-.802c0-1.24.306-2.15.918-2.722.612-.573 1.592-.86 2.94-.86 1.028 0 1.943.153 2.744.46l-.762 2.187c-.6-.19-1.152-.283-1.66-.283-.423 0-.73.126-.918.377-.19.25-.283.57-.283.96v.684h2.58v2.236zm6.22-.322c-.632 0-1.127.2-1.485.6-.358.4-.563.97-.615 1.705h4.18c-.013-.734-.206-1.302-.577-1.702-.37-.4-.87-.6-1.503-.6zm.42 9.2c-1.758 0-3.132-.486-4.122-1.456-.99-.97-1.484-2.344-1.484-4.12 0-1.83.457-3.245 1.372-4.244.915-1 2.18-1.5 3.794-1.5 1.543 0 2.744.44 3.603 1.32.86.878 1.29 2.092 1.29 3.642v1.445h-7.04c.03.847.283 1.507.75 1.983.47.475 1.128.713 1.974.713a8.19 8.19 0 0 0 1.865-.208 9.333 9.333 0 0 0 1.836-.654v2.304c-.52.26-1.077.454-1.67.58-.592.128-1.315.19-2.168.19zm12.968-11.32c.404 0 .74.03 1.006.09l-.225 2.792a3.412 3.412 0 0 0-.88-.098c-.95 0-1.69.244-2.22.733-.532.488-.797 1.17-.797 2.05V68h-2.98V57.082h2.257l.44 1.836h.146a4.104 4.104 0 0 1 1.372-1.48 3.383 3.383 0 0 1 1.88-.56zm7.11 2.12c-.632 0-1.127.2-1.485.6-.357.4-.562.97-.614 1.705h4.18c-.013-.734-.205-1.302-.577-1.702-.37-.4-.87-.6-1.503-.6zm.42 9.2c-1.758 0-3.132-.486-4.122-1.456-.99-.97-1.484-2.344-1.484-4.12 0-1.83.457-3.245 1.372-4.244.915-1 2.18-1.5 3.794-1.5 1.543 0 2.744.44 3.604 1.32.86.878 1.29 2.092 1.29 3.642v1.445h-7.042c.032.847.283 1.507.752 1.983.468.475 1.126.713 1.972.713a8.19 8.19 0 0 0 1.865-.208 9.333 9.333 0 0 0 1.835-.654v2.304c-.52.26-1.077.454-1.67.58-.592.128-1.315.19-2.168.19zM549.35 68h-2.978v-6.377c0-.788-.14-1.38-.42-1.772-.28-.392-.726-.59-1.338-.59-.833 0-1.435.28-1.806.836-.37.556-.557 1.48-.557 2.768V68h-2.977V57.082h2.276l.4 1.397h.165c.332-.53.79-.93 1.372-1.2.583-.27 1.245-.404 1.988-.404 1.27 0 2.233.343 2.89 1.03.658.687.987 1.678.987 2.974V68zm7.667-2.178c.52 0 1.145-.114 1.875-.342v2.217c-.743.332-1.654.498-2.735.498-1.19 0-2.06-.3-2.602-.903-.544-.602-.816-1.506-.816-2.71v-5.264h-1.428v-1.26l1.64-.995.86-2.305h1.905v2.324h3.056v2.236h-3.056v5.264c0 .423.12.736.356.938.238.2.552.302.943.302zm13.877 0c.52 0 1.145-.114 1.875-.342v2.217c-.745.332-1.656.498-2.737.498-1.19 0-2.06-.3-2.602-.903-.543-.602-.815-1.506-.815-2.71v-5.264h-1.426v-1.26l1.64-.995.86-2.305h1.904v2.324h3.056v2.236h-3.055v5.264c0 .423.12.736.356.938.24.2.554.302.945.302zm8.603-6.826c-.63 0-1.126.2-1.484.6-.358.4-.563.97-.616 1.705h4.18c-.013-.734-.205-1.302-.576-1.702-.37-.4-.87-.6-1.502-.6zm.42 9.2c-1.758 0-3.132-.486-4.12-1.456-.99-.97-1.485-2.344-1.485-4.12 0-1.83.457-3.245 1.372-4.244.914-1 2.18-1.5 3.794-1.5 1.543 0 2.744.44 3.603 1.32.86.878 1.29 2.092 1.29 3.642v1.445h-7.04c.033.847.283 1.507.75 1.983.47.475 1.128.713 1.975.713a8.19 8.19 0 0 0 1.865-.208 9.333 9.333 0 0 0 1.835-.654v2.304c-.52.26-1.078.454-1.67.58-.592.128-1.315.19-2.168.19zm13.81-.196l-.578-1.484h-.08c-.5.63-1.017 1.07-1.548 1.313-.53.242-1.222.364-2.075.364-1.048 0-1.873-.3-2.475-.898-.603-.6-.904-1.452-.904-2.56 0-1.158.405-2.012 1.215-2.562.81-.55 2.033-.855 3.667-.913l1.895-.06v-.476c0-1.107-.567-1.66-1.7-1.66-.872 0-1.897.263-3.076.79l-.986-2.01c1.256-.66 2.65-.988 4.18-.988 1.465 0 2.588.32 3.37.957.78.638 1.17 1.61 1.17 2.91V68h-2.08zm-.88-5.06l-1.153.04c-.866.027-1.51.183-1.933.47-.42.286-.633.722-.633 1.308 0 .84.482 1.26 1.445 1.26.69 0 1.243-.2 1.657-.596.412-.397.62-.925.62-1.582v-.9zm15.8 5.06h-2.978v-6.377c0-.788-.134-1.38-.398-1.772-.263-.392-.678-.59-1.245-.59-.76 0-1.315.28-1.66.84-.345.56-.517 1.48-.517 2.764V68h-2.978V57.082h2.275l.4 1.397h.167a3.015 3.015 0 0 1 1.27-1.18c.553-.282 1.188-.424 1.904-.424 1.634 0 2.74.534 3.32 1.602h.264c.293-.51.724-.903 1.294-1.183.57-.28 1.212-.42 1.928-.42 1.237 0 2.173.317 2.808.952.635.634.952 1.65.952 3.05V68h-2.988v-6.377c0-.788-.132-1.38-.396-1.772-.263-.392-.678-.59-1.245-.59-.73 0-1.274.26-1.636.78-.363.523-.544 1.35-.544 2.48V68zm17.48-3.242c0 1.12-.388 1.972-1.166 2.558-.776.586-1.94.88-3.49.88-.794 0-1.47-.054-2.03-.162a7.683 7.683 0 0 1-1.573-.473V65.1c.554.26 1.177.478 1.87.654.694.176 1.304.264 1.83.264 1.082 0 1.622-.313 1.622-.938a.782.782 0 0 0-.215-.57c-.144-.148-.39-.314-.743-.5-.35-.185-.82-.4-1.405-.65-.84-.35-1.457-.676-1.85-.975-.394-.3-.68-.643-.86-1.03-.18-.388-.268-.865-.268-1.43 0-.97.375-1.722 1.127-2.252.752-.53 1.818-.796 3.198-.796 1.315 0 2.594.286 3.838.86l-.898 2.148a16.527 16.527 0 0 0-1.533-.576 4.815 4.815 0 0 0-1.456-.227c-.88 0-1.318.238-1.318.713 0 .267.14.498.424.693.284.195.904.484 1.86.87.854.343 1.48.666 1.876.965.397.3.69.645.88 1.035.188.392.282.857.282 1.398z" fill="#066DA5"/><path fill="#066DA5" opacity=".1" d="M244 119h78v78h-78zm229 0h78v78h-78z"/><path d="M275 141c2.2 0 4-1.8 4-4s-1.8-4-4-4-4 1.8-4 4 1.8 4 4 4zm0 2c-3.4 0-6 2.6-6 6v12h12v-12c0-3.4-2.6-6-6-6zm16-2c2.2 0 4-1.8 4-4s-1.8-4-4-4-4 1.8-4 4 1.8 4 4 4zm0 2c-3.4 0-6 2.6-6 6v12h12v-12c0-3.4-2.6-6-6-6zm213-2c2.2 0 4-1.8 4-4s-1.8-4-4-4-4 1.8-4 4 1.8 4 4 4zm0 2c-3.4 0-6 2.6-6 6v12h12v-12c0-3.4-2.6-6-6-6zm16-2c2.2 0 4-1.8 4-4s-1.8-4-4-4-4 1.8-4 4 1.8 4 4 4zm0 2c-3.4 0-6 2.6-6 6v12h12v-12c0-3.4-2.6-6-6-6z" fill="#066DA5" fill-rule="nonzero"/><path d="M281.48 234.406c0-1.324.235-2.55.704-3.674.468-1.125 1.218-2.224 2.25-3.298h.92c-.96 1.054-1.687 2.168-2.177 3.34a9.297 9.297 0 0 0-.736 3.62c0 1.325.225 2.493.67 3.504h-.767c-.574-1.04-.862-2.203-.862-3.492zm7.706-1.13h-2.907L284.842 236h-1.108l4.682-8.566h1.02l1.078 8.566h-.996l-.335-2.725zm-.106-.915l-.205-1.75a19.87 19.87 0 0 1-.17-2.05c-.144.343-.302.685-.472 1.025-.17.34-.657 1.266-1.462 2.777h2.31zm5.748-2.886c.758 0 1.307.37 1.647 1.113h.058c.067-.606.154-1.14.264-1.606l.457-2.096h.973L296.293 236h-.814l.126-1.225h-.046c-.394.49-.763.834-1.107 1.037a2.07 2.07 0 0 1-1.066.305c-.543 0-.967-.19-1.272-.574-.304-.383-.457-.914-.457-1.594 0-.838.14-1.603.422-2.3.28-.694.66-1.23 1.14-1.61a2.526 2.526 0 0 1 1.608-.57zm-1.113 5.83c.367 0 .746-.183 1.137-.548.39-.365.7-.832.928-1.4a4.62 4.62 0 0 0 .343-1.738c0-.433-.105-.763-.316-.99-.21-.227-.518-.34-.92-.34-.395 0-.76.16-1.1.484-.337.323-.608.776-.813 1.36a5.52 5.52 0 0 0-.308 1.843c0 .886.35 1.33 1.05 1.33zm8.373.697l.867-4.054c.07-.367.106-.63.106-.79 0-.274-.06-.487-.18-.64-.12-.152-.33-.228-.62-.228-.33 0-.65.117-.96.352-.31.233-.583.568-.82 1.004-.236.435-.42.96-.547 1.573L299.34 236h-.985l1.372-6.422h.814l-.127 1.19h.06c.34-.465.677-.8 1.015-1.002a2.004 2.004 0 0 1 1.046-.305c.442 0 .78.13 1.02.383.238.254.38.607.422 1.06h.046c.337-.488.695-.85 1.074-1.087.38-.236.76-.354 1.148-.354.496 0 .88.134 1.152.4.27.265.407.652.407 1.16 0 .265-.042.613-.128 1.042l-.844 3.938h-.995l.867-4.055c.077-.406.116-.69.116-.855 0-.242-.067-.437-.202-.583-.135-.148-.346-.22-.635-.22-.317 0-.63.112-.94.34-.307.226-.577.547-.81.963a5.23 5.23 0 0 0-.53 1.48l-.627 2.93h-.984zm7.717 0h-.985l1.37-6.42h.986l-1.37 6.42zm.662-8.062a.77.77 0 0 1 .187-.536.624.624 0 0 1 .487-.207c.345 0 .517.176.517.528a.795.795 0 0 1-.196.546.59.59 0 0 1-.453.22.54.54 0 0 1-.387-.142c-.102-.096-.153-.232-.153-.407zm5.326 8.063l.867-4.054c.078-.406.117-.687.117-.843 0-.247-.07-.444-.208-.592-.14-.15-.36-.222-.667-.222-.347 0-.686.117-1.016.352-.33.233-.62.567-.873 1-.252.434-.443.96-.572 1.577l-.59 2.783h-.986l1.37-6.422h.816l-.13 1.19h.06c.374-.477.737-.814 1.086-1.01.35-.198.71-.297 1.086-.297.496 0 .888.138 1.175.41.287.27.43.65.43 1.14 0 .307-.044.66-.134 1.053L316.79 236h-.997zm5.584-5.062c0 1.333-.237 2.562-.712 3.69-.475 1.126-1.222 2.217-2.24 3.27h-.915c1.937-2.15 2.906-4.47 2.906-6.96 0-1.332-.22-2.5-.662-3.503h.767c.573 1.05.858 2.218.858 3.504zM258.48 441.406c0-1.324.235-2.55.704-3.674.468-1.125 1.218-2.224 2.25-3.298h.92c-.96 1.054-1.687 2.168-2.177 3.34a9.297 9.297 0 0 0-.736 3.62c0 1.325.225 2.493.67 3.504h-.767c-.574-1.04-.862-2.203-.862-3.492zm6.686-4.933c.758 0 1.307.37 1.647 1.113h.058c.068-.606.156-1.14.266-1.606l.457-2.097h.972L266.63 443h-.814l.13-1.225h-.048c-.394.49-.763.834-1.107 1.038a2.07 2.07 0 0 1-1.064.304c-.543 0-.967-.19-1.272-.574-.305-.383-.457-.914-.457-1.594 0-.838.14-1.603.422-2.3.28-.694.66-1.23 1.14-1.61a2.526 2.526 0 0 1 1.607-.57zm-1.113 5.83c.367 0 .746-.183 1.136-.548.39-.365.7-.832.927-1.4a4.62 4.62 0 0 0 .343-1.738c0-.433-.105-.763-.315-.99-.21-.227-.518-.34-.92-.34-.395 0-.76.16-1.1.484-.337.324-.608.777-.813 1.36a5.52 5.52 0 0 0-.308 1.844c0 .886.35 1.33 1.05 1.33zm7.177.814c-.718 0-1.283-.213-1.693-.638-.41-.428-.615-1.018-.615-1.77 0-.736.145-1.44.436-2.114.29-.674.677-1.2 1.158-1.574a2.522 2.522 0 0 1 1.588-.562c.597 0 1.046.13 1.347.39.303.26.453.623.453 1.087 0 .704-.324 1.255-.972 1.656-.65.4-1.575.6-2.783.6h-.193l-.023.47c0 .51.12.91.36 1.197.24.287.613.43 1.117.43.246 0 .5-.034.76-.104.26-.07.582-.2.97-.387v.853a5.31 5.31 0 0 1-.974.36c-.28.07-.592.103-.932.103zm.815-5.818c-.402 0-.78.18-1.134.55-.35.366-.622.876-.81 1.53h.07c.89 0 1.574-.118 2.05-.35.473-.233.71-.57.71-1.01a.685.685 0 0 0-.213-.517c-.143-.137-.366-.205-.67-.205zm3.287 5.7l-.732-6.423h.984l.375 3.592c.092 1.007.14 1.714.14 2.12h.034c.496-1.074.845-1.8 1.05-2.174l1.903-3.54h1.043L276.67 443h-1.336zm9.996-6.423l-.88 4.072c-.07.347-.104.62-.104.814 0 .558.287.838.86.838.345 0 .683-.117 1.015-.352.33-.233.623-.57.877-1.007.254-.437.447-.964.58-1.582l.586-2.78h.972l-1.352 6.42h-.815l.13-1.19h-.07c-.384.49-.75.83-1.097 1.02-.345.19-.705.287-1.076.287-.5 0-.892-.136-1.178-.407-.285-.272-.427-.66-.427-1.163 0-.242.042-.578.13-1.008l.853-3.963h.996zm8.59 4.6c0 .61-.216 1.085-.647 1.426-.43.342-1.04.513-1.824.513a3.9 3.9 0 0 1-1.787-.404v-.926c.273.164.57.29.884.38.316.09.61.136.88.136.49 0 .862-.098 1.112-.293a.91.91 0 0 0 .375-.75.812.812 0 0 0-.204-.564c-.137-.152-.432-.36-.885-.627-.507-.286-.866-.565-1.077-.84a1.546 1.546 0 0 1-.316-.97c0-.54.197-.975.592-1.305.393-.33.913-.495 1.557-.495.668 0 1.313.145 1.934.435l-.316.802-.328-.146a3.257 3.257 0 0 0-1.29-.25c-.362 0-.647.085-.854.255a.813.813 0 0 0-.31.66c0 .218.07.405.208.56.14.158.425.36.86.605.417.233.716.434.898.602.182.168.317.35.407.542.09.194.135.412.135.654zm3.715 1.94c-.72 0-1.283-.214-1.694-.64-.41-.425-.617-1.015-.617-1.77 0-.733.146-1.437.437-2.11.292-.675.677-1.2 1.158-1.575a2.522 2.522 0 0 1 1.588-.562c.598 0 1.047.13 1.348.39.3.26.45.623.45 1.087 0 .704-.324 1.255-.972 1.656-.648.4-1.576.6-2.783.6h-.196l-.023.47c0 .51.12.91.36 1.197.24.287.614.43 1.118.43.245 0 .498-.034.757-.104.26-.07.583-.2.97-.387v.853a5.31 5.31 0 0 1-.973.36c-.28.07-.59.103-.93.103zm.814-5.82c-.402 0-.78.184-1.134.552-.353.366-.624.876-.81 1.53h.07c.89 0 1.573-.118 2.047-.35.475-.233.712-.57.712-1.01 0-.21-.07-.38-.214-.517-.142-.137-.366-.205-.67-.205zm6.627-.837c.27 0 .504.028.703.083l-.21.88a2.575 2.575 0 0 0-.616-.077c-.353 0-.686.117-.997.35-.31.236-.582.56-.814.977a4.967 4.967 0 0 0-.514 1.386L302 443h-.985l1.37-6.423h.815l-.13 1.19h.06c.28-.372.513-.638.696-.8a2.21 2.21 0 0 1 .577-.375c.2-.088.425-.132.67-.132zm3.276 1.478c0 1.332-.238 2.56-.712 3.688-.475 1.127-1.222 2.218-2.242 3.272h-.914c1.938-2.152 2.907-4.472 2.907-6.96 0-1.333-.223-2.5-.664-3.504h.767c.57 1.05.856 2.218.856 3.503zm176.13 3.468c0-1.324.235-2.55.704-3.674.468-1.125 1.218-2.224 2.25-3.298h.92c-.96 1.054-1.687 2.168-2.177 3.34a9.297 9.297 0 0 0-.736 3.62c0 1.325.225 2.493.67 3.504h-.767c-.574-1.04-.862-2.203-.862-3.492zm6.135 1.71c-.38 0-.71-.096-.996-.292a1.902 1.902 0 0 1-.664-.82h-.06l-.022.223a9.69 9.69 0 0 1-.062.41 219.1 219.1 0 0 1-.67 3.246h-.973l1.97-9.305h.812l-.152 1.225h.048c.7-.887 1.425-1.33 2.18-1.33.535 0 .956.19 1.265.57.31.382.463.916.463 1.603 0 .83-.135 1.588-.404 2.28-.27.69-.643 1.23-1.12 1.614a2.506 2.506 0 0 1-1.617.577zm1.09-5.83c-.375 0-.757.187-1.145.558a3.97 3.97 0 0 0-.926 1.4 4.554 4.554 0 0 0-.343 1.73c0 .428.11.757.327.986.217.228.53.343.94.343.387 0 .748-.158 1.082-.475.333-.316.6-.766.804-1.35a5.623 5.623 0 0 0 .305-1.86c0-.888-.35-1.33-1.044-1.33zm7.05-.825c.268 0 .503.03.702.084l-.21.88a2.575 2.575 0 0 0-.616-.077 1.63 1.63 0 0 0-.997.35c-.31.236-.582.56-.815.977a4.967 4.967 0 0 0-.512 1.386l-.627 2.94h-.986l1.37-6.422h.816l-.13 1.19h.06c.28-.372.512-.638.696-.8a2.21 2.21 0 0 1 .577-.375c.2-.088.425-.132.67-.132zm3.872.037c.742 0 1.328.22 1.758.66.43.44.644 1.043.644 1.813a5.18 5.18 0 0 1-.424 2.08c-.28.65-.662 1.155-1.142 1.51a2.67 2.67 0 0 1-1.63.534c-.75 0-1.337-.22-1.763-.662-.425-.442-.637-1.045-.637-1.81 0-.743.142-1.44.427-2.096.286-.654.67-1.156 1.156-1.505a2.69 2.69 0 0 1 1.61-.523zm1.383 2.338c0-.45-.122-.813-.366-1.093-.245-.278-.576-.418-.994-.418-.425 0-.807.145-1.145.434-.338.29-.6.69-.785 1.204a5.016 5.016 0 0 0-.28 1.714c0 .512.125.907.373 1.186.25.28.605.42 1.07.42.406 0 .77-.143 1.096-.428.322-.286.575-.69.756-1.216.182-.526.273-1.126.273-1.802zm5.326-2.36c.758 0 1.307.37 1.646 1.112h.06c.065-.606.153-1.14.263-1.606l.457-2.096h.972L510.8 443h-.814l.13-1.225h-.048c-.394.49-.763.834-1.107 1.038a2.07 2.07 0 0 1-1.064.304c-.543 0-.967-.19-1.272-.574-.305-.383-.457-.914-.457-1.594 0-.838.14-1.603.422-2.3.28-.694.66-1.23 1.14-1.61a2.526 2.526 0 0 1 1.607-.57zm-1.113 5.83c.367 0 .746-.184 1.136-.55.39-.364.7-.83.927-1.4a4.62 4.62 0 0 0 .343-1.737c0-.433-.105-.763-.316-.99-.21-.227-.517-.34-.92-.34-.394 0-.76.16-1.098.484-.338.323-.61.776-.815 1.36a5.52 5.52 0 0 0-.305 1.843c0 .886.35 1.33 1.05 1.33zm10.054-5.726l-.88 4.07c-.07.35-.104.62-.104.816 0 .558.287.838.86.838.345 0 .683-.117 1.015-.352.332-.233.625-.57.88-1.007.253-.437.446-.964.58-1.582l.585-2.782h.973l-1.354 6.42h-.814l.128-1.19h-.07c-.383.49-.748.83-1.096 1.02a2.22 2.22 0 0 1-1.078.287c-.5 0-.892-.136-1.177-.407-.286-.272-.428-.66-.428-1.163 0-.242.043-.578.13-1.008l.854-3.963h.998zm8.59 4.6c0 .61-.216 1.084-.647 1.425-.432.342-1.04.513-1.825.513-.66 0-1.256-.135-1.788-.404v-.926c.274.164.57.29.885.38.317.09.61.136.88.136.49 0 .862-.098 1.112-.293a.91.91 0 0 0 .375-.75.812.812 0 0 0-.207-.562c-.136-.152-.43-.36-.884-.627-.51-.284-.87-.563-1.08-.837a1.546 1.546 0 0 1-.316-.972c0-.54.197-.973.592-1.303.394-.33.914-.495 1.558-.495.668 0 1.313.145 1.934.435l-.317.802-.33-.147a3.257 3.257 0 0 0-1.287-.25c-.363 0-.648.084-.855.254a.813.813 0 0 0-.31.66c0 .218.07.405.207.56.14.158.425.36.86.605.417.233.717.434.898.602.182.168.318.35.407.542.09.194.135.412.135.654zm3.715 1.94c-.72 0-1.283-.215-1.693-.64-.41-.426-.618-1.016-.618-1.77 0-.734.146-1.438.437-2.11.29-.676.676-1.2 1.156-1.576a2.522 2.522 0 0 1 1.588-.562c.598 0 1.047.13 1.348.39.3.26.45.623.45 1.087 0 .703-.323 1.254-.972 1.655-.647.4-1.575.6-2.782.6h-.193l-.024.47c0 .51.12.91.363 1.197.24.287.612.43 1.116.43.245 0 .5-.034.76-.104.257-.07.58-.2.967-.387v.855a5.31 5.31 0 0 1-.972.36c-.282.07-.592.103-.932.103zm.814-5.82c-.402 0-.78.183-1.133.55-.354.368-.624.878-.812 1.53h.07c.893 0 1.576-.116 2.05-.35.475-.23.71-.57.71-1.01a.68.68 0 0 0-.212-.515c-.142-.137-.366-.205-.67-.205zm6.627-.838c.27 0 .504.028.704.083l-.21.88a2.575 2.575 0 0 0-.617-.077 1.64 1.64 0 0 0-1 .35c-.31.236-.58.56-.813.977a4.967 4.967 0 0 0-.513 1.386l-.627 2.94h-.984l1.37-6.42h.815l-.128 1.19h.058c.28-.373.514-.64.697-.8a2.21 2.21 0 0 1 .578-.376c.2-.088.424-.132.67-.132zm3.276 1.478c0 1.332-.24 2.56-.714 3.688-.475 1.127-1.222 2.218-2.24 3.272h-.915c1.938-2.152 2.907-4.472 2.907-6.96 0-1.333-.22-2.5-.662-3.504h.767c.57 1.05.856 2.218.856 3.503zM263.48 322.406c0-1.324.235-2.55.704-3.674.468-1.125 1.218-2.224 2.25-3.298h.92c-.96 1.054-1.687 2.168-2.177 3.34a9.297 9.297 0 0 0-.736 3.62c0 1.325.225 2.493.67 3.504h-.767c-.574-1.04-.862-2.203-.862-3.492zm7.706-1.13h-2.907L266.842 324h-1.108l4.682-8.566h1.02l1.078 8.566h-.996l-.335-2.725zm-.106-.915l-.205-1.75a19.87 19.87 0 0 1-.17-2.05c-.144.343-.302.685-.472 1.025-.17.34-.657 1.266-1.462 2.777h2.31zm5.748-2.886c.758 0 1.307.37 1.647 1.113h.058c.067-.606.154-1.14.264-1.606l.457-2.096h.973L278.293 324h-.814l.126-1.225h-.046c-.394.49-.763.834-1.107 1.038a2.07 2.07 0 0 1-1.066.304c-.543 0-.967-.19-1.272-.574-.304-.383-.457-.914-.457-1.594 0-.838.14-1.603.422-2.3.28-.694.66-1.23 1.14-1.61a2.526 2.526 0 0 1 1.608-.57zm-1.113 5.83c.367 0 .746-.183 1.137-.548.39-.365.7-.832.928-1.4a4.62 4.62 0 0 0 .343-1.738c0-.433-.105-.763-.316-.99-.21-.227-.518-.34-.92-.34-.395 0-.76.16-1.1.484-.337.323-.608.776-.813 1.36a5.52 5.52 0 0 0-.308 1.843c0 .886.35 1.33 1.05 1.33zm8.373.697l.867-4.054c.07-.367.106-.63.106-.79 0-.274-.06-.487-.18-.64-.12-.152-.33-.228-.62-.228-.33 0-.65.117-.96.352-.31.233-.583.568-.82 1.004-.236.435-.42.96-.547 1.573L281.34 324h-.985l1.372-6.422h.814l-.127 1.19h.06c.34-.465.677-.8 1.015-1.002a2.004 2.004 0 0 1 1.046-.305c.442 0 .78.13 1.02.383.238.254.38.607.422 1.06h.046c.337-.488.695-.85 1.074-1.087.38-.236.76-.354 1.148-.354.496 0 .88.134 1.152.4.27.265.407.652.407 1.16 0 .265-.042.613-.128 1.043l-.844 3.937h-.995l.867-4.055c.077-.406.116-.69.116-.855 0-.242-.067-.437-.202-.583-.135-.148-.346-.22-.635-.22-.317 0-.63.112-.94.34-.307.226-.577.547-.81.963a5.23 5.23 0 0 0-.53 1.48l-.627 2.93h-.984zm7.717 0h-.985l1.37-6.42h.986l-1.37 6.42zm.662-8.062a.77.77 0 0 1 .187-.536.624.624 0 0 1 .487-.207c.345 0 .517.176.517.528a.795.795 0 0 1-.196.546.59.59 0 0 1-.453.22.54.54 0 0 1-.387-.142c-.102-.096-.153-.232-.153-.408zm5.326 8.063l.867-4.054c.078-.406.117-.687.117-.843 0-.247-.07-.444-.208-.592-.14-.15-.36-.222-.667-.222-.347 0-.686.117-1.016.352-.33.233-.62.567-.873 1-.252.434-.443.96-.572 1.577l-.59 2.783h-.986l1.37-6.422h.816l-.13 1.19h.06c.374-.477.737-.814 1.086-1.01.35-.198.71-.297 1.086-.297.496 0 .888.138 1.175.41.287.27.43.65.43 1.14 0 .307-.044.66-.134 1.054L298.79 324h-.997zm5.584-5.062c0 1.333-.237 2.562-.712 3.69-.475 1.126-1.222 2.217-2.24 3.27h-.915c1.937-2.15 2.906-4.47 2.906-6.96 0-1.332-.22-2.5-.662-3.503h.767c.573 1.05.858 2.218.858 3.503z" fill="#066DA5" opacity=".7"/><path d="M286.77 214.764h3.397v4.86c-.53.17-1.066.296-1.613.383-.547.086-1.18.13-1.9.13-1.514 0-2.692-.45-3.535-1.35-.845-.9-1.267-2.162-1.267-3.784 0-1.04.21-1.95.626-2.73a4.23 4.23 0 0 1 1.8-1.792c.784-.41 1.702-.617 2.755-.617a7.53 7.53 0 0 1 2.98.588l-.45 1.027c-.903-.383-1.77-.575-2.605-.575-1.216 0-2.166.364-2.85 1.088-.683.725-1.025 1.73-1.025 3.015 0 1.35.33 2.372.988 3.07.658.697 1.626 1.045 2.902 1.045.692 0 1.37-.08 2.03-.24v-3.075h-2.235v-1.04zm9.043-2.393c.333 0 .632.03.896.084l-.16 1.053a3.865 3.865 0 0 0-.82-.103c-.606 0-1.124.246-1.555.74-.43.49-.646 1.104-.646 1.837V220h-1.135v-7.492h.936l.13 1.388h.056c.278-.488.613-.864 1.004-1.128a2.262 2.262 0 0 1 1.293-.397zm6.625 7.63l-.226-1.065h-.055c-.373.47-.746.787-1.117.953-.372.167-.836.25-1.392.25-.742 0-1.325-.192-1.746-.575-.422-.382-.632-.927-.632-1.633 0-1.514 1.21-2.307 3.63-2.38l1.27-.04v-.466c0-.588-.126-1.022-.378-1.302-.253-.28-.658-.42-1.214-.42-.624 0-1.33.19-2.12.574l-.348-.87c.37-.2.774-.356 1.214-.47.44-.114.88-.17 1.322-.17.894 0 1.556.197 1.986.593.43.395.646 1.03.646 1.906V220h-.84zm-2.564-.8c.706 0 1.26-.192 1.665-.58.4-.387.603-.93.603-1.627v-.677l-1.135.048c-.904.032-1.554.172-1.953.42-.4.25-.598.635-.598 1.16 0 .41.123.722.372.936.247.213.594.32 1.04.32zm10.87.8v-4.846c0-.61-.14-1.066-.418-1.367-.278-.3-.713-.45-1.305-.45-.782 0-1.357.21-1.72.635-.366.425-.548 1.124-.548 2.1V220h-1.134v-7.492h.923l.185 1.025h.054c.232-.37.56-.655.977-.858.42-.203.886-.304 1.4-.304.904 0 1.583.22 2.038.655.456.435.684 1.13.684 2.088V220h-1.136zm5.885-.8c.2 0 .392-.014.58-.043.186-.03.334-.06.443-.093v.87a2.14 2.14 0 0 1-.543.146 4.08 4.08 0 0 1-.645.057c-1.45 0-2.174-.764-2.174-2.29v-4.457h-1.07v-.547l1.072-.472.48-1.6h.656v1.74h2.174v.88h-2.174v4.41c0 .45.107.797.32 1.04.215.24.51.36.883.36zm-38.716-41.02c0 1.88-.535 3.32-1.605 4.32-1.073 1-2.618 1.5-4.64 1.5h-3.234v-11.422h3.586c1.865 0 3.313.492 4.344 1.477 1.03.984 1.547 2.36 1.547 4.125zm-2.516.062c0-2.453-1.083-3.68-3.25-3.68h-1.29V182h1.04c2.334 0 3.5-1.253 3.5-3.758zm11.46 5.758h-6.577v-11.422h6.58v1.984h-4.156v2.508h3.867v1.985h-3.866V182h4.156v2zm8.9-11.422h2.445L294.32 184h-2.64l-3.875-11.422h2.445l2.148 6.797c.12.4.244.868.372 1.402.127.534.207.905.238 1.114.057-.48.252-1.316.586-2.514l2.164-6.797zm197.102 5.375h.796c.745 0 1.302-.147 1.672-.44.37-.296.555-.724.555-1.286 0-.568-.155-.987-.465-1.258-.31-.273-.796-.408-1.457-.408h-1.1v3.39zm5.468-1.812c0 1.23-.384 2.17-1.152 2.82-.768.653-1.86.978-3.278.978h-1.04V184h-2.42v-11.422h3.648c1.385 0 2.44.298 3.16.895.72.596 1.082 1.485 1.082 2.668zm4.578 1.51h.78c.767 0 1.332-.128 1.697-.383.364-.256.547-.657.547-1.203 0-.542-.187-.928-.56-1.157-.37-.23-.948-.344-1.73-.344h-.734v3.086zm0 1.97V184h-2.422v-11.422h3.33c1.55 0 2.7.283 3.444.848.745.565 1.117 1.423 1.117 2.574a3.03 3.03 0 0 1-.555 1.793c-.37.523-.893.934-1.57 1.23 1.72 2.568 2.84 4.227 3.36 4.977h-2.688l-2.727-4.383h-1.29zm18.508-1.346c0 1.89-.47 3.344-1.406 4.36-.938 1.015-2.28 1.523-4.03 1.523-1.75 0-3.095-.508-4.033-1.523-.937-1.016-1.406-2.474-1.406-4.375 0-1.9.47-3.354 1.41-4.357.94-1.002 2.286-1.504 4.04-1.504s3.1.505 4.03 1.515c.93 1.01 1.393 2.464 1.393 4.36zm-8.336 0c0 1.276.242 2.237.727 2.883.484.646 1.208.97 2.172.97 1.932 0 2.898-1.285 2.898-3.853 0-2.572-.96-3.86-2.883-3.86-.963 0-1.69.325-2.18.974-.49.648-.734 1.61-.734 2.886zm20.18-.093c0 1.88-.535 3.32-1.606 4.32-1.07 1-2.616 1.5-4.636 1.5h-3.235v-11.42h3.588c1.865 0 3.313.49 4.344 1.476 1.032.984 1.548 2.36 1.548 4.125zm-2.516.063c0-2.453-1.083-3.68-3.25-3.68h-1.29V182h1.04c2.334 0 3.5-1.253 3.5-3.758z" fill="#066DA5"/><path d="M293 280v-6h-20v6h-4v14h28v-14h-4zm-18-4h16v4h-16v-4zm20 16h-24v-10h24v10zm-2-22h-20v2h20v-2zm0-4h-20v2h20v-2z" fill="#066DA5" fill-rule="nonzero" opacity=".3"/><path d="M252.283 300.434L249.09 309h-.973l3.194-8.566h.974zm5.526 7.705h-.055c-.45.65-1.12.976-2.016.976-.84 0-1.494-.287-1.96-.86-.468-.575-.7-1.392-.7-2.45 0-1.06.233-1.88.702-2.467.47-.587 1.12-.88 1.957-.88.87 0 1.54.316 2.003.95h.076l-.04-.464-.025-.45v-2.614h.973V309h-.793l-.128-.86zm-1.948.162c.664 0 1.146-.18 1.445-.542.298-.36.448-.944.448-1.748v-.205c0-.91-.152-1.56-.454-1.95-.302-.387-.785-.582-1.45-.582-.57 0-1.006.222-1.31.665-.302.444-.453 1.07-.453 1.878 0 .82.15 1.44.45 1.858.302.418.743.627 1.325.627zm7.64.814c-.948 0-1.697-.29-2.246-.867-.55-.58-.823-1.38-.823-2.41 0-1.034.254-1.857.764-2.466.51-.61 1.195-.914 2.054-.914.806 0 1.44.266 1.91.795.47.53.704 1.227.704 2.095v.615h-4.424c.02.754.21 1.326.573 1.717.36.39.87.586 1.526.586.69 0 1.373-.145 2.05-.434v.867c-.345.15-.67.257-.977.32a5.483 5.483 0 0 1-1.11.098zm-.263-5.842c-.516 0-.928.168-1.234.504-.307.335-.487.8-.542 1.394h3.357c0-.613-.135-1.083-.41-1.41-.272-.326-.663-.49-1.17-.49zm5.45 5.725l-2.44-6.423h1.044l1.383 3.81c.312.89.496 1.467.55 1.733h.047c.043-.206.18-.635.408-1.285.228-.65.74-2.07 1.538-4.257h1.044L269.826 309h-1.137zm4.065-2.77v-.893h2.877v.89h-2.877zm5.807 2.77l-2.438-6.423h1.043l1.383 3.81c.313.89.497 1.467.552 1.733h.046c.043-.206.18-.635.408-1.285.228-.65.74-2.07 1.538-4.257h1.043L279.7 309h-1.137zm10.148-3.218c0 1.047-.263 1.864-.79 2.452-.527.588-1.256.882-2.186.882a2.904 2.904 0 0 1-1.53-.404 2.668 2.668 0 0 1-1.03-1.16c-.242-.504-.363-1.094-.363-1.77 0-1.047.263-1.862.787-2.446.523-.584 1.25-.876 2.18-.876.898 0 1.612.3 2.14.897.53.598.795 1.407.795 2.426zm-4.892 0c0 .82.164 1.446.493 1.875.33.43.81.645 1.45.645.636 0 1.12-.214 1.45-.642.33-.427.494-1.053.494-1.877 0-.816-.165-1.436-.495-1.86-.33-.424-.818-.636-1.463-.636-.637 0-1.117.21-1.44.627-.326.418-.488 1.04-.488 1.87zm7.57 3.217h-.972v-9.118h.973V309zm2.977-6.423v4.166c0 .524.12.914.358 1.172.238.258.61.387 1.12.387.67 0 1.162-.184 1.472-.55.31-.368.466-.968.466-1.8v-3.375h.975V309h-.803l-.14-.86h-.052a1.95 1.95 0 0 1-.83.725 2.787 2.787 0 0 1-1.21.252c-.78 0-1.365-.185-1.754-.556-.39-.37-.583-.963-.583-1.78v-4.2h.985zM309.002 309v-4.178c0-.51-.11-.895-.328-1.15-.22-.257-.56-.385-1.02-.385-.605 0-1.052.174-1.34.522-.29.345-.435.88-.435 1.603V309h-.975v-4.178c0-.51-.11-.895-.328-1.15-.22-.257-.56-.385-1.025-.385-.61 0-1.056.183-1.34.548-.282.365-.424.964-.424 1.796V309h-.974v-6.422h.79l.16.88h.046a1.91 1.91 0 0 1 .777-.733 2.372 2.372 0 0 1 1.12-.264c1.005 0 1.66.365 1.97 1.09h.047c.19-.334.468-.6.832-.795a2.582 2.582 0 0 1 1.24-.293c.727 0 1.27.187 1.633.56.36.374.54.97.54 1.79V309H309zm5.69.117c-.95 0-1.7-.29-2.248-.867-.548-.578-.823-1.38-.823-2.408 0-1.035.257-1.858.767-2.467.51-.61 1.194-.914 2.053-.914.804 0 1.44.267 1.91.796.468.53.703 1.227.703 2.095v.616h-4.424c.017.754.21 1.326.57 1.717.36.39.87.586 1.526.586.69 0 1.375-.146 2.05-.435v.867c-.343.15-.67.256-.975.32a5.483 5.483 0 0 1-1.11.097zm-.264-5.842c-.516 0-.927.168-1.234.504-.306.334-.487.8-.542 1.393h3.358c0-.613-.137-1.083-.41-1.41-.274-.326-.664-.49-1.172-.49zm8.426 3.973c0 .598-.223 1.06-.668 1.383-.446.326-1.07.488-1.875.488-.85 0-1.514-.135-1.99-.404v-.902c.31.157.64.28.993.37.353.09.694.134 1.022.134.508 0 .898-.08 1.172-.243.273-.16.41-.408.41-.74 0-.25-.108-.464-.325-.642-.216-.176-.64-.386-1.268-.63-.597-.22-1.022-.415-1.274-.58a1.74 1.74 0 0 1-.563-.567 1.475 1.475 0 0 1-.184-.756c0-.523.214-.936.64-1.24.425-.302 1.01-.453 1.75-.453.693 0 1.37.142 2.03.423l-.347.79c-.644-.265-1.228-.398-1.752-.398-.46 0-.807.072-1.042.216-.234.145-.35.344-.35.598 0 .172.043.318.13.44.088.12.23.236.425.345.196.11.57.267 1.125.474.762.277 1.277.556 1.544.837.268.283.402.636.402 1.06zM264.402 427.14h-.052c-.45.65-1.12.977-2.016.977-.84 0-1.493-.287-1.96-.86-.467-.575-.7-1.392-.7-2.45 0-1.06.234-1.88.703-2.467.47-.586 1.12-.88 1.957-.88.87 0 1.54.317 2.004.95h.076l-.04-.463-.024-.45v-2.614h.972V428h-.79l-.13-.86zm-1.945.163c.664 0 1.146-.18 1.444-.542.3-.36.45-.943.45-1.747v-.205c0-.91-.15-1.56-.453-1.95-.303-.387-.787-.582-1.45-.582-.57 0-1.008.222-1.31.665-.303.445-.454 1.07-.454 1.88 0 .82.15 1.44.45 1.857.302.418.743.627 1.325.627zm7.64.814c-.95 0-1.698-.29-2.246-.867-.547-.578-.822-1.38-.822-2.408 0-1.035.255-1.858.765-2.467.51-.61 1.194-.914 2.054-.914.804 0 1.44.267 1.91.796.47.53.703 1.227.703 2.095v.616h-4.425c.02.754.21 1.326.57 1.717.363.39.872.586 1.528.586.69 0 1.375-.146 2.05-.435v.867c-.343.15-.668.256-.975.32a5.483 5.483 0 0 1-1.11.097zm-.263-5.842c-.516 0-.927.168-1.233.504-.305.334-.486.8-.54 1.393h3.357c0-.613-.137-1.083-.41-1.41-.274-.326-.664-.49-1.172-.49zm5.45 5.725l-2.438-6.422h1.043l1.38 3.81c.313.89.497 1.467.55 1.733h.048c.042-.205.178-.634.406-1.284.23-.65.742-2.07 1.538-4.257h1.043L276.42 428h-1.137zm4.066-2.77v-.892h2.877v.89h-2.877zm8.77 1.91h-.052c-.45.65-1.12.977-2.015.977-.84 0-1.493-.287-1.96-.86-.467-.575-.7-1.392-.7-2.45 0-1.06.234-1.88.703-2.467.468-.586 1.12-.88 1.957-.88.87 0 1.54.317 2.004.95h.076l-.04-.463-.025-.45v-2.614h.973V428h-.79l-.13-.86zm-1.944.163c.664 0 1.145-.18 1.444-.542.3-.36.448-.943.448-1.747v-.205c0-.91-.15-1.56-.454-1.95-.302-.387-.786-.582-1.45-.582-.57 0-1.007.222-1.31.665-.302.445-.454 1.07-.454 1.88 0 .82.15 1.44.452 1.857.3.418.742.627 1.324.627zm8.877.697l-.194-.914h-.05c-.32.402-.64.675-.957.817-.318.143-.715.214-1.192.214-.636 0-1.135-.164-1.496-.492-.36-.328-.542-.795-.542-1.4 0-1.297 1.037-1.977 3.11-2.04l1.09-.035v-.398c0-.504-.107-.876-.324-1.116-.218-.24-.564-.36-1.04-.36-.536 0-1.142.163-1.817.492l-.3-.745a4.57 4.57 0 0 1 1.04-.404 4.504 4.504 0 0 1 1.136-.148c.765 0 1.333.17 1.702.51.37.34.553.884.553 1.634V428h-.72zm-2.198-.686c.606 0 1.082-.166 1.427-.498.346-.332.52-.796.52-1.394v-.58l-.974.04c-.773.028-1.33.148-1.673.36-.342.214-.512.545-.512.994 0 .352.106.62.32.803.212.182.51.273.892.273zm6.997 0c.17 0 .337-.012.498-.038.16-.025.287-.05.38-.08v.745c-.105.053-.26.095-.465.128-.205.034-.39.05-.554.05-1.24 0-1.86-.654-1.86-1.963v-3.82h-.92v-.47l.92-.403.41-1.37h.56v1.488h1.865v.756h-1.864v3.78c0 .386.093.683.277.89.183.207.435.31.756.31zm6.11.686l-.192-.914h-.047c-.32.402-.64.675-.958.817-.32.143-.716.214-1.193.214-.636 0-1.135-.164-1.497-.492-.36-.328-.542-.795-.542-1.4 0-1.297 1.037-1.977 3.112-2.04l1.09-.035v-.398c0-.504-.11-.876-.326-1.116-.22-.24-.565-.36-1.04-.36-.537 0-1.14.163-1.818.492l-.3-.745a4.57 4.57 0 0 1 1.04-.404 4.504 4.504 0 0 1 1.135-.148c.765 0 1.333.17 1.702.51.37.34.553.884.553 1.634V428h-.72zm-2.196-.686c.605 0 1.08-.166 1.426-.498.346-.332.52-.796.52-1.394v-.58l-.974.04c-.773.028-1.33.148-1.673.36-.34.214-.512.545-.512.994 0 .352.106.62.32.803.212.182.51.273.893.273zm185.254.803c-.418 0-.8-.077-1.146-.23a2.154 2.154 0 0 1-.87-.713h-.07c.046.375.07.73.07 1.066v2.643h-.973v-9.305h.793l.135.88h.047c.25-.353.54-.606.873-.763a2.654 2.654 0 0 1 1.143-.234c.85 0 1.51.293 1.97.875.465.582.697 1.398.697 2.45 0 1.054-.236 1.873-.707 2.457-.47.585-1.125.877-1.96.877zm-.14-5.83c-.657 0-1.132.182-1.425.545-.293.363-.443.94-.45 1.734v.217c0 .903.15 1.548.45 1.937.3.388.783.583 1.447.583.555 0 .99-.225 1.304-.674.315-.45.472-1.07.472-1.86 0-.8-.157-1.415-.472-1.84-.314-.43-.757-.644-1.327-.644zm7.434-.826c.286 0 .54.025.768.07l-.135.905a3.22 3.22 0 0 0-.703-.088c-.52 0-.964.21-1.333.633-.367.42-.552.946-.552 1.575V428h-.972v-6.422h.803l.11 1.19h.047c.238-.418.525-.74.86-.967a1.94 1.94 0 0 1 1.108-.34zm7.272 3.324c0 1.047-.264 1.864-.79 2.452-.528.588-1.257.882-2.187.882-.576 0-1.086-.135-1.53-.404a2.668 2.668 0 0 1-1.03-1.16c-.244-.504-.365-1.094-.365-1.77 0-1.047.26-1.862.785-2.446.524-.584 1.25-.876 2.18-.876.9 0 1.613.3 2.142.897.53.597.794 1.406.794 2.425zm-4.893 0c0 .82.164 1.446.493 1.875.328.43.81.644 1.447.644s1.12-.214 1.45-.642c.33-.427.495-1.053.495-1.877 0-.816-.165-1.436-.495-1.86-.33-.424-.817-.636-1.462-.636-.635 0-1.115.21-1.44.626-.324.418-.486 1.04-.486 1.87zm10.97 2.356h-.054c-.45.65-1.123.977-2.017.977-.84 0-1.493-.287-1.96-.86-.467-.575-.7-1.392-.7-2.45 0-1.06.234-1.88.703-2.467.468-.586 1.12-.88 1.957-.88.87 0 1.54.317 2.004.95h.076l-.04-.463-.025-.45v-2.614h.972V428h-.79l-.13-.86zm-1.946.163c.664 0 1.145-.18 1.444-.542.3-.36.45-.943.45-1.747v-.205c0-.91-.15-1.56-.454-1.95-.302-.387-.786-.582-1.45-.582-.57 0-1.007.222-1.31.665-.302.445-.454 1.07-.454 1.88 0 .82.152 1.44.453 1.857.3.418.742.627 1.324.627zm4.388-2.074v-.893h2.877v.89h-2.877zm8.772 1.91h-.053c-.45.65-1.12.976-2.015.976-.84 0-1.496-.287-1.96-.86-.47-.575-.703-1.392-.703-2.45 0-1.06.235-1.88.704-2.467.47-.587 1.12-.88 1.958-.88.87 0 1.538.316 2.003.95h.077l-.042-.464-.024-.45v-2.614h.974V428h-.79l-.13-.86zm-1.945.162c.664 0 1.145-.18 1.444-.542.3-.36.448-.944.448-1.748v-.205c0-.91-.15-1.56-.454-1.95-.303-.387-.786-.582-1.45-.582-.57 0-1.007.222-1.31.665-.302.444-.454 1.07-.454 1.878 0 .82.15 1.44.45 1.858.302.418.744.627 1.326.627zm8.877.697l-.196-.915h-.047c-.32.402-.64.675-.958.817-.32.143-.716.214-1.193.214-.637 0-1.136-.164-1.497-.492-.36-.328-.54-.795-.54-1.4 0-1.297 1.036-1.977 3.11-2.04l1.09-.035v-.4c0-.503-.108-.875-.325-1.115-.217-.24-.564-.36-1.04-.36-.535 0-1.14.163-1.817.492l-.298-.745a4.57 4.57 0 0 1 1.04-.404 4.504 4.504 0 0 1 1.133-.147c.766 0 1.333.17 1.703.51.37.34.553.885.553 1.635V428h-.72zm-2.2-.687c.606 0 1.08-.166 1.427-.498.346-.332.52-.796.52-1.394v-.58l-.974.04c-.773.03-1.33.15-1.673.36-.34.215-.512.546-.512.995 0 .352.107.62.32.803.213.183.51.274.893.274zm6.996 0c.172 0 .338-.012.498-.038.16-.025.288-.05.38-.08v.745c-.104.052-.26.094-.464.127a3.41 3.41 0 0 1-.553.05c-1.242 0-1.863-.654-1.863-1.963v-3.82h-.92v-.47l.92-.403.41-1.37h.562v1.49h1.863v.755h-1.865v3.78c0 .386.092.683.276.89.184.207.436.31.756.31zm6.112.686l-.195-.915h-.046c-.322.402-.64.675-.96.817-.318.143-.715.214-1.192.214-.637 0-1.136-.164-1.497-.492-.36-.328-.54-.795-.54-1.4 0-1.297 1.036-1.977 3.11-2.04l1.09-.035v-.4c0-.503-.108-.875-.325-1.115-.217-.24-.563-.36-1.04-.36-.535 0-1.14.163-1.816.492l-.3-.745a4.57 4.57 0 0 1 1.04-.404 4.504 4.504 0 0 1 1.134-.147c.766 0 1.334.17 1.703.51.37.34.553.885.553 1.635V428h-.72zm-2.2-.687c.607 0 1.083-.166 1.428-.498.346-.332.52-.796.52-1.394v-.58l-.974.04c-.773.03-1.33.15-1.673.36-.34.215-.51.546-.51.995 0 .352.104.62.317.803.213.183.51.274.893.274z" fill="#066DA5"/><path d="M263 353v56h40v-56h-40zm36 52h-32v-48h32v48zm-16-16c2.4 0 4.8-.8 6.8-2.4l-8.4-8 2.8-2.8 8.4 8.4c1.6-2.4 2.4-4.8 2.4-7.2 0-6.8-5.2-12-12-12s-12 5.2-12 12 5.2 12 12 12zm210-36v56h40v-56h-40zm36 52h-32v-48h32v48zm-16-16c2.4 0 4.8-.8 6.8-2.4l-8.4-8 2.8-2.8 8.4 8.4c1.6-2.4 2.4-4.8 2.4-7.2 0-6.8-5.2-12-12-12s-12 5.2-12 12 5.2 12 12 12z" fill="#066DA5" fill-rule="nonzero"/><path d="M343.5 382H326v-1h123v1H343.5zm124.5-4l12 3-12 4v-7zm-19 3h19v1h-19v-1zm-123-3v7l-11-4 11-3z" fill="#066DA5" opacity=".4"/><circle fill="#E61018" cx="397.5" cy="382.5" r="19.5"/><path d="M397 376c-5 0-9.27 3.11-11 7.5 1.73 4.39 6 7.5 11 7.5s9.27-3.11 11-7.5c-1.73-4.39-6-7.5-11-7.5zm0 12.5c-2.76 0-5-2.24-5-5s2.24-5 5-5 5 2.24 5 5-2.24 5-5 5zm0-8c-1.66 0-3 1.34-3 3s1.34 3 3 3 3-1.34 3-3-1.34-3-3-3z" fill="#FFF" fill-rule="nonzero"/><path fill="#FFF" d="M405.678 373l1.414 1.414-17.678 17.678-1.414-1.414z"/><path d="M405.678 373L388 390.678l1.414 1.414 17.678-17.678-1.414-1.414zm0-1.414l2.828 2.828-19.092 19.092-2.828-2.828 19.092-19.092z" fill="#F6000C" fill-rule="nonzero"/><circle fill="#066DA5" opacity=".1" cx="260" cy="223" r="17"/><path d="M259.965 223H267v3h-1v-2h-1v2h-1v-2h-4.035a3.5 3.5 0 1 1 0-1zm-3.465 3a2.5 2.5 0 1 0 0-5 2.5 2.5 0 0 0 0 5z" fill="#066DA5" fill-rule="nonzero"/><path d="M492.48 322.406c0-1.324.235-2.55.704-3.674.468-1.125 1.218-2.224 2.25-3.298h.92c-.96 1.054-1.687 2.168-2.177 3.34a9.297 9.297 0 0 0-.736 3.62c0 1.325.225 2.493.67 3.504h-.767c-.574-1.04-.862-2.203-.862-3.492zm7.706-1.13h-2.907L495.842 324h-1.108l4.682-8.566h1.02l1.078 8.566h-.996l-.335-2.725zm-.106-.915l-.205-1.75a19.87 19.87 0 0 1-.17-2.05c-.144.343-.302.685-.472 1.025-.17.34-.657 1.266-1.462 2.777h2.31zm5.748-2.886c.758 0 1.307.37 1.647 1.113h.058c.067-.606.154-1.14.264-1.606l.457-2.096h.973L507.293 324h-.814l.126-1.225h-.046c-.394.49-.763.834-1.107 1.038a2.07 2.07 0 0 1-1.066.304c-.543 0-.967-.19-1.272-.574-.304-.383-.457-.914-.457-1.594 0-.838.14-1.603.422-2.3.28-.694.66-1.23 1.14-1.61a2.526 2.526 0 0 1 1.608-.57zm-1.113 5.83c.367 0 .746-.183 1.137-.548.39-.365.7-.832.928-1.4a4.62 4.62 0 0 0 .343-1.738c0-.433-.105-.763-.316-.99-.21-.227-.518-.34-.92-.34-.395 0-.76.16-1.1.484-.337.323-.608.776-.813 1.36a5.52 5.52 0 0 0-.308 1.843c0 .886.35 1.33 1.05 1.33zm8.373.697l.867-4.054c.07-.367.106-.63.106-.79 0-.274-.06-.487-.18-.64-.12-.152-.33-.228-.62-.228-.33 0-.65.117-.96.352-.31.233-.583.568-.82 1.004-.236.435-.42.96-.547 1.573L510.34 324h-.985l1.372-6.422h.814l-.127 1.19h.06c.34-.465.677-.8 1.015-1.002a2.004 2.004 0 0 1 1.046-.305c.442 0 .78.13 1.02.383.238.254.38.607.422 1.06h.046c.337-.488.695-.85 1.074-1.087.38-.236.76-.354 1.148-.354.496 0 .88.134 1.152.4.27.265.407.652.407 1.16 0 .265-.042.613-.128 1.043l-.844 3.937h-.995l.867-4.055c.077-.406.116-.69.116-.855 0-.242-.067-.437-.202-.583-.135-.148-.346-.22-.635-.22-.317 0-.63.112-.94.34-.307.226-.577.547-.81.963a5.23 5.23 0 0 0-.53 1.48l-.627 2.93h-.984zm7.717 0h-.985l1.37-6.42h.986l-1.37 6.42zm.662-8.062a.77.77 0 0 1 .187-.536.624.624 0 0 1 .487-.207c.345 0 .517.176.517.528a.795.795 0 0 1-.196.546.59.59 0 0 1-.453.22.54.54 0 0 1-.387-.142c-.102-.096-.153-.232-.153-.408zm5.326 8.063l.867-4.054c.078-.406.117-.687.117-.843 0-.247-.07-.444-.208-.592-.14-.15-.36-.222-.667-.222-.347 0-.686.117-1.016.352-.33.233-.62.567-.873 1-.252.434-.443.96-.572 1.577l-.59 2.783h-.986l1.37-6.422h.816l-.13 1.19h.06c.374-.477.737-.814 1.086-1.01.35-.198.71-.297 1.086-.297.496 0 .888.138 1.175.41.287.27.43.65.43 1.14 0 .307-.044.66-.134 1.054L527.79 324h-.997zm5.584-5.062c0 1.333-.237 2.562-.712 3.69-.475 1.126-1.222 2.217-2.24 3.27h-.915c1.937-2.15 2.906-4.47 2.906-6.96 0-1.332-.22-2.5-.662-3.503h.767c.573 1.05.858 2.218.858 3.503z" fill="#066DA5" opacity=".7"/><path d="M522 280v-6h-20v6h-4v14h28v-14h-4zm-18-4h16v4h-16v-4zm20 16h-24v-10h24v10zm-2-22h-20v2h20v-2zm0-4h-20v2h20v-2z" fill="#066DA5" fill-rule="nonzero" opacity=".3"/><path d="M478.283 300.434L475.09 309h-.973l3.194-8.566h.974zm4.143 8.683c-.418 0-.8-.077-1.146-.23a2.154 2.154 0 0 1-.87-.713h-.07c.047.375.07.73.07 1.066v2.643h-.973v-9.305h.792l.132.88h.047c.25-.353.54-.606.872-.763a2.654 2.654 0 0 1 1.143-.234c.85 0 1.51.293 1.97.875.464.582.696 1.398.696 2.45 0 1.054-.235 1.873-.705 2.457-.47.585-1.124.877-1.96.877zm-.14-5.83c-.657 0-1.132.182-1.425.545-.29.363-.44.94-.45 1.734v.217c0 .903.15 1.548.45 1.937.303.388.786.583 1.45.583.554 0 .99-.225 1.303-.674.315-.45.472-1.07.472-1.86 0-.8-.157-1.415-.472-1.84-.314-.43-.757-.644-1.327-.644zm7.435-.826c.287 0 .543.025.77.07l-.135.905a3.23 3.23 0 0 0-.704-.088c-.52 0-.962.21-1.332.633-.37.42-.553.946-.553 1.575V309h-.973v-6.422h.804l.11 1.19h.048c.238-.418.525-.74.86-.967a1.94 1.94 0 0 1 1.11-.34zm7.273 3.324c0 1.047-.263 1.864-.79 2.452-.528.588-1.257.882-2.186.882a2.902 2.902 0 0 1-1.53-.404 2.668 2.668 0 0 1-1.03-1.16c-.243-.504-.364-1.094-.364-1.77 0-1.047.262-1.862.785-2.446.523-.584 1.25-.876 2.18-.876.898 0 1.612.3 2.14.897.53.597.795 1.406.795 2.425zm-4.892 0c0 .82.165 1.446.493 1.875.328.43.81.644 1.447.644.636 0 1.12-.214 1.45-.642.33-.427.494-1.053.494-1.877 0-.816-.165-1.436-.495-1.86-.33-.424-.82-.636-1.464-.636-.636 0-1.117.21-1.44.626-.325.418-.487 1.04-.487 1.87zm10.97 2.356h-.053c-.45.65-1.12.977-2.016.977-.84 0-1.492-.287-1.96-.86-.466-.575-.7-1.392-.7-2.45 0-1.06.235-1.88.704-2.467.47-.586 1.12-.88 1.957-.88.87 0 1.54.317 2.005.95h.076l-.04-.463-.023-.45v-2.614h.972V309h-.79l-.13-.86zm-1.946.163c.664 0 1.146-.18 1.444-.542.3-.36.45-.943.45-1.747v-.205c0-.91-.153-1.56-.455-1.95-.303-.387-.787-.582-1.45-.582-.57 0-1.008.222-1.31.665-.303.445-.454 1.07-.454 1.88 0 .82.15 1.44.45 1.857.3.418.742.627 1.324.627zm4.39-2.074v-.893h2.876v.89h-2.878zm5.805 2.77l-2.438-6.423h1.044l1.383 3.81c.31.89.495 1.467.55 1.733h.046c.043-.206.18-.635.408-1.285.228-.65.74-2.07 1.538-4.257h1.043l-2.44 6.422h-1.137zm10.15-3.218c0 1.047-.266 1.864-.793 2.452-.528.588-1.256.882-2.186.882a2.904 2.904 0 0 1-1.53-.404 2.668 2.668 0 0 1-1.03-1.16c-.242-.504-.363-1.094-.363-1.77 0-1.047.262-1.862.786-2.446.523-.584 1.25-.876 2.18-.876.898 0 1.612.3 2.14.897.53.598.795 1.407.795 2.426zm-4.895 0c0 .82.164 1.446.492 1.875.33.43.81.645 1.448.645.636 0 1.12-.214 1.45-.642.33-.427.495-1.053.495-1.877 0-.816-.166-1.436-.496-1.86-.33-.424-.818-.636-1.462-.636-.637 0-1.117.21-1.44.627-.326.418-.488 1.04-.488 1.87zm7.57 3.217h-.972v-9.118h.973V309zm2.977-6.423v4.166c0 .524.12.914.36 1.172.237.258.61.387 1.118.387.672 0 1.163-.184 1.473-.55.312-.368.467-.968.467-1.8v-3.375h.973V309h-.803l-.14-.86h-.053a1.95 1.95 0 0 1-.83.725 2.787 2.787 0 0 1-1.21.252c-.78 0-1.366-.185-1.754-.556-.39-.37-.583-.963-.583-1.78v-4.2h.984zM541.76 309v-4.178c0-.51-.11-.895-.328-1.15-.22-.257-.56-.385-1.02-.385-.605 0-1.053.174-1.342.522-.29.345-.433.88-.433 1.603V309h-.973v-4.178c0-.51-.11-.895-.328-1.15-.22-.257-.56-.385-1.025-.385-.61 0-1.056.183-1.34.548-.282.365-.424.964-.424 1.796V309h-.973v-6.422h.79l.16.88h.046a1.91 1.91 0 0 1 .776-.733 2.372 2.372 0 0 1 1.122-.264c1.004 0 1.66.365 1.97 1.09h.045c.192-.334.47-.6.832-.795a2.582 2.582 0 0 1 1.243-.293c.726 0 1.27.187 1.63.56.363.374.543.97.543 1.79V309h-.97zm5.69.117c-.95 0-1.7-.29-2.248-.867-.55-.578-.823-1.38-.823-2.408 0-1.035.254-1.858.764-2.467.51-.61 1.194-.914 2.053-.914.805 0 1.442.267 1.91.796.47.53.704 1.227.704 2.095v.616h-4.424c.02.754.21 1.326.57 1.717.362.39.87.586 1.527.586.692 0 1.375-.146 2.05-.435v.867c-.343.15-.668.256-.974.32a5.483 5.483 0 0 1-1.11.097zm-.264-5.842c-.516 0-.927.168-1.234.504-.306.334-.487.8-.542 1.393h3.358c0-.613-.137-1.083-.41-1.41-.274-.326-.665-.49-1.172-.49zm8.425 3.973c0 .598-.222 1.06-.67 1.383-.443.326-1.07.488-1.873.488-.85 0-1.515-.135-1.992-.404v-.902c.31.157.64.28.993.37.354.09.695.134 1.023.134.51 0 .9-.08 1.173-.243.273-.16.41-.408.41-.74 0-.25-.11-.464-.325-.642-.217-.176-.64-.386-1.27-.63-.597-.22-1.02-.415-1.273-.58a1.74 1.74 0 0 1-.563-.567 1.475 1.475 0 0 1-.183-.756c0-.523.212-.936.637-1.24.426-.302 1.01-.453 1.752-.453.69 0 1.366.142 2.027.423l-.346.79c-.645-.265-1.23-.398-1.752-.398-.46 0-.81.072-1.043.216-.234.145-.352.344-.352.598a.73.73 0 0 0 .132.44c.088.12.23.236.425.345.194.11.57.267 1.124.474.762.277 1.276.556 1.544.837.268.283.4.636.4 1.06z" fill="#066DA5"/><path d="M510.48 234.406c0-1.324.235-2.55.704-3.674.468-1.125 1.218-2.224 2.25-3.298h.92c-.96 1.054-1.687 2.168-2.177 3.34a9.297 9.297 0 0 0-.736 3.62c0 1.325.225 2.493.67 3.504h-.767c-.574-1.04-.862-2.203-.862-3.492zm7.706-1.13h-2.907L513.842 236h-1.108l4.682-8.566h1.02l1.078 8.566h-.996l-.335-2.725zm-.106-.915l-.205-1.75a19.87 19.87 0 0 1-.17-2.05c-.144.343-.302.685-.472 1.025-.17.34-.657 1.266-1.462 2.777h2.31zm5.748-2.886c.758 0 1.307.37 1.647 1.113h.058c.067-.606.154-1.14.264-1.606l.457-2.096h.973L525.293 236h-.814l.126-1.225h-.046c-.394.49-.763.834-1.107 1.037a2.07 2.07 0 0 1-1.066.305c-.543 0-.967-.19-1.272-.574-.304-.383-.457-.914-.457-1.594 0-.838.14-1.603.422-2.3.28-.694.66-1.23 1.14-1.61a2.526 2.526 0 0 1 1.608-.57zm-1.113 5.83c.367 0 .746-.183 1.137-.548.39-.365.7-.832.928-1.4a4.62 4.62 0 0 0 .343-1.738c0-.433-.105-.763-.316-.99-.21-.227-.518-.34-.92-.34-.395 0-.76.16-1.1.484-.337.323-.608.776-.813 1.36a5.52 5.52 0 0 0-.308 1.843c0 .886.35 1.33 1.05 1.33zm8.373.697l.867-4.054c.07-.367.106-.63.106-.79 0-.274-.06-.487-.18-.64-.12-.152-.33-.228-.62-.228-.33 0-.65.117-.96.352-.31.233-.583.568-.82 1.004-.236.435-.42.96-.547 1.573L528.34 236h-.985l1.372-6.422h.814l-.127 1.19h.06c.34-.465.677-.8 1.015-1.002a2.004 2.004 0 0 1 1.046-.305c.442 0 .78.13 1.02.383.238.254.38.607.422 1.06h.046c.337-.488.695-.85 1.074-1.087.38-.236.76-.354 1.148-.354.496 0 .88.134 1.152.4.27.265.407.652.407 1.16 0 .265-.042.613-.128 1.042l-.844 3.938h-.995l.867-4.055c.077-.406.116-.69.116-.855 0-.242-.067-.437-.202-.583-.135-.148-.346-.22-.635-.22-.317 0-.63.112-.94.34-.307.226-.577.547-.81.963a5.23 5.23 0 0 0-.53 1.48l-.627 2.93h-.984zm7.717 0h-.985l1.37-6.42h.986l-1.37 6.42zm.662-8.062a.77.77 0 0 1 .187-.536.624.624 0 0 1 .487-.207c.345 0 .517.176.517.528a.795.795 0 0 1-.196.546.59.59 0 0 1-.453.22.54.54 0 0 1-.387-.142c-.102-.096-.153-.232-.153-.407zm5.326 8.063l.867-4.054c.078-.406.117-.687.117-.843 0-.247-.07-.444-.208-.592-.14-.15-.36-.222-.667-.222-.347 0-.686.117-1.016.352-.33.233-.62.567-.873 1-.252.434-.443.96-.572 1.577l-.59 2.783h-.986l1.37-6.422h.816l-.13 1.19h.06c.374-.477.737-.814 1.086-1.01.35-.198.71-.297 1.086-.297.496 0 .888.138 1.175.41.287.27.43.65.43 1.14 0 .307-.044.66-.134 1.053L545.79 236h-.997zm5.584-5.062c0 1.333-.237 2.562-.712 3.69-.475 1.126-1.222 2.217-2.24 3.27h-.915c1.937-2.15 2.906-4.47 2.906-6.96 0-1.332-.22-2.5-.662-3.503h.767c.573 1.05.858 2.218.858 3.504z" fill="#066DA5" opacity=".7"/><path d="M515.77 214.764h3.397v4.86c-.53.17-1.066.296-1.613.383-.547.086-1.18.13-1.9.13-1.514 0-2.692-.45-3.535-1.35-.845-.9-1.267-2.162-1.267-3.784 0-1.04.21-1.95.626-2.73a4.23 4.23 0 0 1 1.8-1.792c.784-.41 1.702-.617 2.755-.617a7.53 7.53 0 0 1 2.98.588l-.45 1.027c-.903-.383-1.77-.575-2.605-.575-1.216 0-2.166.364-2.85 1.088-.683.725-1.025 1.73-1.025 3.015 0 1.35.33 2.372.988 3.07.658.697 1.626 1.045 2.902 1.045.692 0 1.37-.08 2.03-.24v-3.075h-2.235v-1.04zm9.043-2.393c.333 0 .632.03.896.084l-.16 1.053a3.865 3.865 0 0 0-.82-.103c-.606 0-1.124.246-1.555.74-.43.49-.646 1.104-.646 1.837V220h-1.135v-7.492h.936l.13 1.388h.056c.278-.488.613-.864 1.004-1.128a2.262 2.262 0 0 1 1.293-.397zm6.625 7.63l-.226-1.065h-.055c-.373.47-.746.787-1.117.953-.372.167-.836.25-1.392.25-.742 0-1.325-.192-1.746-.575-.422-.382-.632-.927-.632-1.633 0-1.514 1.21-2.307 3.63-2.38l1.27-.04v-.466c0-.588-.126-1.022-.378-1.302-.253-.28-.658-.42-1.214-.42-.624 0-1.33.19-2.12.574l-.348-.87c.37-.2.774-.356 1.214-.47.44-.114.88-.17 1.322-.17.894 0 1.556.197 1.986.593.43.395.646 1.03.646 1.906V220h-.84zm-2.564-.8c.706 0 1.26-.192 1.665-.58.4-.387.603-.93.603-1.627v-.677l-1.135.048c-.904.032-1.554.172-1.953.42-.4.25-.598.635-.598 1.16 0 .41.123.722.372.936.247.213.594.32 1.04.32zm10.87.8v-4.846c0-.61-.14-1.066-.418-1.367-.278-.3-.713-.45-1.305-.45-.782 0-1.357.21-1.72.635-.366.425-.548 1.124-.548 2.1V220h-1.134v-7.492h.923l.185 1.025h.054c.232-.37.56-.655.977-.858.42-.203.886-.304 1.4-.304.904 0 1.583.22 2.038.655.456.435.684 1.13.684 2.088V220h-1.136zm5.885-.8c.2 0 .392-.014.58-.043.186-.03.334-.06.443-.093v.87a2.14 2.14 0 0 1-.543.146 4.08 4.08 0 0 1-.645.057c-1.45 0-2.174-.764-2.174-2.29v-4.457h-1.07v-.547l1.072-.472.48-1.6h.656v1.74h2.174v.88h-2.174v4.41c0 .45.107.797.32 1.04.215.24.51.36.883.36z" fill="#066DA5"/><circle fill="#066DA5" opacity=".1" cx="489" cy="223" r="17"/><path d="M488.965 223H496v3h-1v-2h-1v2h-1v-2h-4.035a3.5 3.5 0 1 1 0-1zm-3.465 3a2.5 2.5 0 1 0 0-5 2.5 2.5 0 0 0 0 5z" fill="#066DA5" fill-rule="nonzero"/><path fill="#066DA5" opacity=".4" d="M283 244h1v16h-1zm229 0h1v16h-1zm-229 86h1v20h-1zm229 0h1v20h-1z"/></g></svg>