<?xml version="1.0" encoding="utf-8"?>
<!-- Generator: Adobe Illustrator 23.0.1, SVG Export Plug-In . SVG Version: 6.00 Build 0)  -->
<svg version="1.1" id="Layer_1" xmlns="http://www.w3.org/2000/svg" xmlns:xlink="http://www.w3.org/1999/xlink" x="0px" y="0px"
	 viewBox="0 0 740 307" style="enable-background:new 0 0 740 307;" xml:space="preserve">
<style type="text/css">
	.st0{fill:#FFFFFF;}
	.st1{fill:#E0E4E7;}
	.st2{font-family:'OpenSans';}
	.st3{font-size:10px;}
	.st4{fill:none;stroke:#E0E4E7;stroke-width:2;stroke-dasharray:5,5,5,5;}
	.st5{fill-rule:evenodd;clip-rule:evenodd;fill:#445D6E;}
	.st6{fill:none;stroke:#E0E4E7;stroke-width:2;stroke-linecap:round;stroke-linejoin:round;}
	.st7{fill:#FFFFFF;filter:url(#Adobe_OpacityMaskFilter);}
	.st8{mask:url(#mask-2_1_);}
	.st9{fill-rule:evenodd;clip-rule:evenodd;fill:#E0E4E7;}
	.st10{fill:none;stroke:#F7F8F9;stroke-width:4;}
	.st11{fill:#FFFFFF;filter:url(#Adobe_OpacityMaskFilter_1_);}
	.st12{mask:url(#mask-4_1_);}
	.st13{fill:none;stroke:#445D6E;stroke-width:2;stroke-linecap:round;stroke-linejoin:round;}
	.st14{fill:#FFFFFF;filter:url(#Adobe_OpacityMaskFilter_2_);}
	.st15{mask:url(#mask-6_1_);}
	.st16{font-size:8px;}
	.st17{fill-rule:evenodd;clip-rule:evenodd;fill:#1488C6;}
	.st18{fill-rule:evenodd;clip-rule:evenodd;fill:#FFB463;}
	.st19{fill:none;stroke:#445D6E;stroke-width:2;}
	.st20{fill-rule:evenodd;clip-rule:evenodd;fill:#E0E4E7;stroke:#E0E4E7;stroke-width:2;}
	.st21{font-size:100px;}
	.st22{fill:#F7F8F9;}
	.st23{fill-rule:evenodd;clip-rule:evenodd;fill:#00B6B5;}
</style>
<rect class="st0" width="740" height="307"/>
<title>scale-your-cluster-1</title>
<desc>Created with Sketch.</desc>
<g id="architecture-diagrams">
	<g id="scale-your-cluster-1">
		<g id="ddc" transform="translate(170.000000, 8.000000)">
			<g id="swarm-group" transform="translate(0.000000, 42.000000)">
				<text transform="matrix(1 0 0 1 9.025 236.0095)" class="st1 st2 st3">Docker swarm</text>
				<path id="group" class="st4" d="M2,0h397c1.1,0,2,0.9,2,2v241c0,1.1-0.9,2-2,2H2c-1.1,0-2-0.9-2-2V2C0,0.9,0.9,0,2,0z"/>
			</g>
			<g id="load-balancer" transform="translate(47.000000, 0.000000)">
				<g id="main">
					<path id="Rectangle-138" class="st5" d="M2,0h305c1.1,0,2,0.9,2,2v18c0,1.1-0.9,2-2,2H2c-1.1,0-2-0.9-2-2V2C0,0.9,0.9,0,2,0z"
						/>
					<text transform="matrix(1 0 0 1 111.438 15)" class="st0 st2 st3">your load balancer</text>
				</g>
				<g id="arrows" transform="translate(43.000000, 21.000000)">
					
						<g id="arrow-copy" transform="translate(111.500000, 17.000000) scale(1, -1) rotate(-90.000000) translate(-111.500000, -17.000000) translate(95.000000, 13.000000)">
						<path id="Line" class="st6" d="M2,4h31"/>
						<defs>
							<filter id="Adobe_OpacityMaskFilter" filterUnits="userSpaceOnUse">
								<feColorMatrix  type="matrix" values="1 0 0 0 0  0 1 0 0 0  0 0 1 0 0  0 0 0 1 0"/>
							</filter>
						</defs>
						<mask maskUnits="userSpaceOnUse" id="mask-2_1_">
							
								<rect x="-31.5" y="-357.5" transform="matrix(2.535182e-06 1 -1 2.535182e-06 -388.9999 -337.9991)" class="st7" width="12" height="-12"/>
							<g>
								<circle id="path-1_1_" cx="-25.5" cy="-363.5" r="4"/>
							</g>
						</mask>
						<g id="Oval" class="st8">
							<g>
								<circle class="st9" cx="4" cy="4" r="4"/>
							</g>
							<g>
								<circle class="st10" cx="4" cy="4" r="4"/>
							</g>
						</g>
					</g>
					
						<g id="arrow-copy-4" transform="translate(218.500000, 17.000000) scale(1, -1) rotate(-90.000000) translate(-218.500000, -17.000000) translate(202.000000, 13.000000)">
						<path class="st6" d="M2,4h31"/>
						<defs>
							<filter id="Adobe_OpacityMaskFilter_1_" filterUnits="userSpaceOnUse">
								<feColorMatrix  type="matrix" values="1 0 0 0 0  0 1 0 0 0  0 0 1 0 0  0 0 0 1 0"/>
							</filter>
						</defs>
						<mask maskUnits="userSpaceOnUse" id="mask-4_1_">
							
								<rect x="-31.5" y="-464.5" transform="matrix(2.535182e-06 1 -1 2.535182e-06 -495.9999 -444.9988)" class="st11" width="12" height="-12"/>
							<g>
								<circle id="path-3_1_" cx="-25.5" cy="-470.5" r="4"/>
							</g>
						</mask>
						<g class="st12">
							<g>
								<circle class="st9" cx="4" cy="4" r="4"/>
							</g>
							<g>
								<circle class="st10" cx="4" cy="4" r="4"/>
							</g>
						</g>
					</g>
					
						<g id="arrow-copy-2" transform="translate(4.500000, 17.000000) scale(1, -1) rotate(-90.000000) translate(-4.500000, -17.000000) translate(-12.000000, 13.000000)">
						<path class="st13" d="M2,4h31"/>
						<defs>
							<filter id="Adobe_OpacityMaskFilter_2_" filterUnits="userSpaceOnUse">
								<feColorMatrix  type="matrix" values="1 0 0 0 0  0 1 0 0 0  0 0 1 0 0  0 0 0 1 0"/>
							</filter>
						</defs>
						<mask maskUnits="userSpaceOnUse" id="mask-6_1_">
							
								<rect x="-31.5" y="-250.5" transform="matrix(2.535182e-06 1 -1 2.535182e-06 -281.9999 -230.9993)" class="st14" width="12" height="-12"/>
							<g>
								<circle id="path-5_1_" cx="-25.5" cy="-256.5" r="4"/>
							</g>
						</mask>
						<g class="st15">
							<g>
								<circle class="st5" cx="4" cy="4" r="4"/>
							</g>
							<g>
								<circle class="st10" cx="4" cy="4" r="4"/>
							</g>
						</g>
					</g>
				</g>
			</g>
			<g id="swam" transform="translate(46.000000, 34.000000)">
				<g id="nodes">
					<g id="workers" transform="translate(53.000000, 121.000000)">
						<g id="node-1" transform="translate(0.000000, 17.000000)">
							<g id="node">
								<g id="node-label">
									<path id="Rectangle-127" class="st5" d="M2,0h67c1.1,0,2,0.9,2,2v17.3c0,1.1-0.9,2-2,2H2c-1.1,0-2-0.9-2-2V2
										C0,0.9,0.9,0,2,0z"/>
									<text transform="matrix(1 0 0 1 6 14)" class="st0 st2 st16">worker node</text>
								</g>
							</g>
							<g id="engine" transform="translate(1.000000, 79.000000)">
								<path class="st17" d="M2,0h91c1.1,0,2,0.9,2,2v18c0,1.1-0.9,2-2,2H2c-1.1,0-2-0.9-2-2V2C0,0.9,0.9,0,2,0z"/>
								<text transform="matrix(1 0 0 1 7.2603 15)" class="st0 st2 st3">Docker EE Engine</text>
							</g>
							<g id="ucp" transform="translate(1.000000, 56.000000)">
								<path class="st17" d="M2,0h91c1.1,0,2,0.9,2,2v18c0,1.1-0.9,2-2,2H2c-1.1,0-2-0.9-2-2V2C0,0.9,0.9,0,2,0z"/>
								<text transform="matrix(1 0 0 1 23.7373 15)" class="st0 st2 st3">UCP agent</text>
							</g>
							<g id="app" transform="translate(1.000000, 33.000000)">
								<path class="st18" d="M2,0h91c1.1,0,2,0.9,2,2v18c0,1.1-0.9,2-2,2H2c-1.1,0-2-0.9-2-2V2C0,0.9,0.9,0,2,0z"/>
								<text transform="matrix(1 0 0 1 20.4756 15)" class="st0 st2 st3">UCP worker</text>
							</g>
							<path id="node-border" class="st19" d="M2,0h93c1.1,0,2,0.9,2,2v98c0,1.1-0.9,2-2,2H2c-1.1,0-2-0.9-2-2V2C0,0.9,0.9,0,2,0z"
								/>
						</g>
						<g id="node-1-copy" transform="translate(107.000000, 0.000000)">
							<path class="st20" d="M2,17h93c1.1,0,2,0.9,2,2v98c0,1.1-0.9,2-2,2H2c-1.1,0-2-0.9-2-2V19C0,17.9,0.9,17,2,17z"/>
							<g transform="translate(0.000000, 17.000000)">
							</g>
							<text transform="matrix(1 0 0 1 20.4111 104)" class="st0 st2 st21">+</text>
						</g>
					</g>
					<g id="managers">
						<g transform="translate(107.000000, 0.000000)">
							<path class="st20" d="M2,20h93c1.1,0,2,0.9,2,2v98c0,1.1-0.9,2-2,2H2c-1.1,0-2-0.9-2-2V22C0,20.9,0.9,20,2,20z"/>
							<text transform="matrix(1 0 0 1 20.4111 107)" class="st22 st2 st21">+</text>
						</g>
						<g id="node-1-copy-4" transform="translate(214.000000, 0.000000)">
							<path class="st20" d="M2,20h93c1.1,0,2,0.9,2,2v98c0,1.1-0.9,2-2,2H2c-1.1,0-2-0.9-2-2V22C0,20.9,0.9,20,2,20z"/>
							<g transform="translate(0.000000, 20.000000)">
							</g>
							<text transform="matrix(1 0 0 1 20.4111 107)" class="st0 st2 st21">+</text>
						</g>
						<g transform="translate(0.000000, 20.000000)">
							<g>
								<g>
									<path class="st5" d="M2,0h67c1.1,0,2,0.9,2,2v17.3c0,1.1-0.9,2-2,2H2c-1.1,0-2-0.9-2-2V2C0,0.9,0.9,0,2,0z"/>
									<text transform="matrix(1 0 0 1 6 14)" class="st0 st2 st16">manager node</text>
								</g>
							</g>
							<g transform="translate(1.000000, 79.000000)">
								<path class="st17" d="M2,0h91c1.1,0,2,0.9,2,2v18c0,1.1-0.9,2-2,2H2c-1.1,0-2-0.9-2-2V2C0,0.9,0.9,0,2,0z"/>
								<text transform="matrix(1 0 0 1 7.2603 15)" class="st0 st2 st3">Docker EE Engine</text>
							</g>
							<g transform="translate(1.000000, 56.000000)">
								<path class="st17" d="M2,0h91c1.1,0,2,0.9,2,2v18c0,1.1-0.9,2-2,2H2c-1.1,0-2-0.9-2-2V2C0,0.9,0.9,0,2,0z"/>
								<text transform="matrix(1 0 0 1 23.7373 15)" class="st0 st2 st3">UCP agent</text>
							</g>
							<g transform="translate(1.000000, 33.000000)">
								<path class="st23" d="M2,0h91c1.1,0,2,0.9,2,2v18c0,1.1-0.9,2-2,2H2c-1.1,0-2-0.9-2-2V2C0,0.9,0.9,0,2,0z"/>
								<text transform="matrix(1 0 0 1 16.0298 15)" class="st0 st2 st3">UCP manager</text>
							</g>
							<path class="st19" d="M2,0h93c1.1,0,2,0.9,2,2v98c0,1.1-0.9,2-2,2H2c-1.1,0-2-0.9-2-2V2C0,0.9,0.9,0,2,0z"/>
						</g>
					</g>
				</g>
			</g>
		</g>
	</g>
</g>
</svg>
