<?xml version="1.0" encoding="UTF-8"?>
<svg xmlns="http://www.w3.org/2000/svg" width="71" height="70" viewBox="0 0 71 70" fill="none"><mask id="mask0_4917_14425" style="mask-type:alpha" maskUnits="userSpaceOnUse" x="0" y="0" width="71" height="70"><g clip-path="url(#clip0_4917_14425)"><path d="M32.3498 37.1875L35.4998 34.7959L38.6207 37.1584C39.7582 38.0042 41.304 36.925 40.8957 35.5542L39.6707 31.5875L43.1707 28.8167C44.2498 28 43.6373 26.25 42.2373 26.25H38.154L36.8998 22.3417C36.4623 21 34.5665 21 34.129 22.3417L32.8457 26.25H28.7332C27.3623 26.25 26.7498 28 27.829 28.8459L31.2998 31.6167L30.0748 35.5834C29.6665 36.9542 31.2123 38.0334 32.3498 37.1875ZM17.9998 63.0292C17.9998 65.0125 19.954 66.4125 21.8498 65.8L35.4998 61.25L49.1498 65.8C51.0457 66.4417 52.9998 65.0417 52.9998 63.0292V44.5667C56.6165 40.4542 58.8332 35.0875 58.8332 29.1667C58.8332 16.275 48.3915 5.83337 35.4998 5.83337C22.6082 5.83337 12.1665 16.275 12.1665 29.1667C12.1665 35.0875 14.3832 40.4542 17.9998 44.5667V63.0292ZM35.4998 11.6667C45.154 11.6667 52.9998 19.5125 52.9998 29.1667C52.9998 38.8209 45.154 46.6667 35.4998 46.6667C25.8457 46.6667 17.9998 38.8209 17.9998 29.1667C17.9998 19.5125 25.8457 11.6667 35.4998 11.6667Z" fill="black"/></g></mask><g mask="url(#mask0_4917_14425)"><rect x="0.5" width="70" height="70" fill="#2E7F74"/></g><defs><clipPath id="clip0_4917_14425"><rect width="70" height="70" fill="white" transform="translate(0.5)"/></clipPath></defs></svg>