<?xml version="1.0" encoding="UTF-8"?>
<svg xmlns="http://www.w3.org/2000/svg" width="71" height="70" viewBox="0 0 71 70" fill="none"><mask id="mask0_4917_14435" style="mask-type:alpha" maskUnits="userSpaceOnUse" x="0" y="0" width="71" height="70"><g clip-path="url(#clip0_4917_14435)"><path d="M12.1672 26.2501C12.9255 27.0085 13.1588 28.0876 12.8963 29.1085C11.8755 33.0751 11.8463 37.4793 13.188 41.8835C15.7547 50.371 23.2213 56.7585 31.9713 58.071C48.0713 60.4335 61.6922 46.2293 58.3088 30.0127C56.413 20.8835 48.888 13.6501 39.7297 12.046C36.2005 11.4335 32.788 11.6085 29.638 12.4251C28.6172 12.6876 27.5088 12.4251 26.7797 11.696C25.1463 10.0626 25.963 7.35015 28.1505 6.76682C32.438 5.65848 37.0755 5.48348 41.8588 6.50432C53.4672 9.01265 62.538 18.696 64.3172 30.421C67.3505 50.2835 50.2588 67.1127 30.3672 63.7293C18.6713 61.7168 9.19218 52.471 6.91718 40.8335C6.01301 36.196 6.21718 31.7335 7.26718 27.621C7.85051 25.4335 10.563 24.646 12.1672 26.2501ZM18.0005 35.0002C18.0005 25.346 25.8463 17.5001 35.5005 17.5001C45.1547 17.5001 53.0005 25.346 53.0005 35.0002C53.0005 44.6543 45.1547 52.5001 35.5005 52.5001C25.8463 52.5001 18.0005 44.6543 18.0005 35.0002ZM20.9172 16.0418C20.9172 18.4626 18.963 20.4168 16.5422 20.4168C14.1213 20.4168 12.1672 18.4626 12.1672 16.0418C12.1672 13.621 14.1213 11.6668 16.5422 11.6668C18.963 11.6668 20.9172 13.621 20.9172 16.0418Z" fill="black"/></g></mask><g mask="url(#mask0_4917_14435)"><rect x="0.5" width="70" height="70" fill="#7D2EFF"/></g><defs><clipPath id="clip0_4917_14435"><rect width="70" height="70" fill="white" transform="translate(0.5)"/></clipPath></defs></svg>