<?xml version="1.0" encoding="UTF-8"?>
<svg width="740px" height="217px" viewBox="0 0 740 217" version="1.1" xmlns="http://www.w3.org/2000/svg" xmlns:xlink="http://www.w3.org/1999/xlink">
    <!-- Generator: Sketch 40.1 (33804) - http://www.bohemiancoding.com/sketch -->
    <title>grant-access-secrets-2</title>
    <desc>Created with Sketch.</desc>
    <defs></defs>
    <g id="dtr-diagrams" stroke="none" stroke-width="1" fill="none" fill-rule="evenodd">
        <g id="grant-access-secrets-2">
            <g id="group" transform="translate(148.000000, 30.000000)">
                <g id="permissions" transform="translate(250.000000, 0.000000)">
                    <g transform="translate(0.000000, 116.000000)">
                        <g id="permissions-3" transform="translate(144.000000, 0.000000)" fill="#E0E4E7">
                            <path d="M12.09,0 C4.5,0 0,9 0,9 C0,9 4.5,18 12.09,18 C19.5,18 24,9 24,9 C24,9 19.5,0 12.09,0 L12.09,0 Z M12,15 C8.7,15 6,12.33 6,9 C6,5.7 8.7,3 12,3 C15.33,3 18,5.7 18,9 C18,12.33 15.33,15 12,15 L12,15 Z M15,9 C15,10.665 13.665,12 12,12 C10.335,12 9,10.665 9,9 C9,7.335 10.335,6 12,6 C13.665,6 15,7.335 15,9 L15,9 Z" id="Shape"></path>
                            <path d="M32,14.0272045 L32,18 L35.9727791,18 L46.5668567,7.40587876 L42.5940776,3.4330833 L32,14.0272045 L32,14.0272045 Z M35.9727791,16.6757348 L33.3242597,16.6757348 L33.3242597,14.0272045 L34.6485194,14.0272045 L34.6485194,15.3514697 L35.9727791,15.3514697 L35.9727791,16.6757348 L35.9727791,16.6757348 Z M49.612654,4.36006891 L47.8911164,6.08161361 L43.9183373,2.10881814 L45.6398749,0.387273441 C45.8873057,0.139333807 46.2231988,8.8817842e-15 46.573478,8.8817842e-15 C46.9237573,8.8817842e-15 47.2596503,0.139333807 47.5070811,0.387273441 L49.612654,2.49285504 C50.1291153,3.00931845 50.1291153,3.8436055 49.612654,4.36006891 L49.612654,4.36006891 Z" id="Shape"></path>
                        </g>
                        <g id="permissions-2" transform="translate(72.000000, 0.000000)">
                            <path d="M12.09,0 C4.5,0 0,9 0,9 C0,9 4.5,18 12.09,18 C19.5,18 24,9 24,9 C24,9 19.5,0 12.09,0 L12.09,0 Z M12,15 C8.7,15 6,12.33 6,9 C6,5.7 8.7,3 12,3 C15.33,3 18,5.7 18,9 C18,12.33 15.33,15 12,15 L12,15 Z M15,9 C15,10.665 13.665,12 12,12 C10.335,12 9,10.665 9,9 C9,7.335 10.335,6 12,6 C13.665,6 15,7.335 15,9 L15,9 Z" id="Shape" fill="#637986"></path>
                            <path d="M32,14.0272045 L32,18 L35.9727791,18 L46.5668567,7.40587876 L42.5940776,3.4330833 L32,14.0272045 L32,14.0272045 Z M35.9727791,16.6757348 L33.3242597,16.6757348 L33.3242597,14.0272045 L34.6485194,14.0272045 L34.6485194,15.3514697 L35.9727791,15.3514697 L35.9727791,16.6757348 L35.9727791,16.6757348 Z M49.612654,4.36006891 L47.8911164,6.08161361 L43.9183373,2.10881814 L45.6398749,0.387273441 C45.8873057,0.139333807 46.2231988,8.8817842e-15 46.573478,8.8817842e-15 C46.9237573,8.8817842e-15 47.2596503,0.139333807 47.5070811,0.387273441 L49.612654,2.49285504 C50.1291153,3.00931845 50.1291153,3.8436055 49.612654,4.36006891 L49.612654,4.36006891 Z" id="Shape" fill="#E0E4E7"></path>
                        </g>
                        <g id="permissions-1" fill="#637986">
                            <path d="M12.09,0 C4.5,0 0,9 0,9 C0,9 4.5,18 12.09,18 C19.5,18 24,9 24,9 C24,9 19.5,0 12.09,0 L12.09,0 Z M12,15 C8.7,15 6,12.33 6,9 C6,5.7 8.7,3 12,3 C15.33,3 18,5.7 18,9 C18,12.33 15.33,15 12,15 L12,15 Z M15,9 C15,10.665 13.665,12 12,12 C10.335,12 9,10.665 9,9 C9,7.335 10.335,6 12,6 C13.665,6 15,7.335 15,9 L15,9 Z" id="Shape"></path>
                            <path d="M32,14.0272045 L32,18 L35.9727791,18 L46.5668567,7.40587876 L42.5940776,3.4330833 L32,14.0272045 L32,14.0272045 Z M35.9727791,16.6757348 L33.3242597,16.6757348 L33.3242597,14.0272045 L34.6485194,14.0272045 L34.6485194,15.3514697 L35.9727791,15.3514697 L35.9727791,16.6757348 L35.9727791,16.6757348 Z M49.612654,4.36006891 L47.8911164,6.08161361 L43.9183373,2.10881814 L45.6398749,0.387273441 C45.8873057,0.139333807 46.2231988,8.8817842e-15 46.573478,8.8817842e-15 C46.9237573,8.8817842e-15 47.2596503,0.139333807 47.5070811,0.387273441 L49.612654,2.49285504 C50.1291153,3.00931845 50.1291153,3.8436055 49.612654,4.36006891 L49.612654,4.36006891 Z" id="Shape"></path>
                        </g>
                    </g>
                    <g id="teams" transform="translate(1.000000, 0.000000)">
                        <g id="team-3" transform="translate(150.000000, 0.000000)">
                            <text id="others" font-family="OpenSans-Semibold, Open Sans" font-size="10" font-weight="500" fill="#82949E">
                                <tspan x="1.8359375" y="50">others</tspan>
                            </text>
                            <path d="M18,18 C22.9725,18 27,13.96125 27,9 C27,4.0275 22.9725,0 18,0 C13.0275,0 9,4.0275 9,9 C9,13.96125 13.0275,18 18,18 L18,18 Z M18,22.5 C12.00375,22.5 0,25.50375 0,31.5 L0,36 L36,36 L36,31.5 C36,25.50375 23.99625,22.5 18,22.5 L18,22.5 Z" id="Shape" fill="#FFB463"></path>
                        </g>
                        <g id="team-2" transform="translate(72.000000, 0.000000)">
                            <text id="crm-team" font-family="OpenSans-Semibold, Open Sans" font-size="10" font-weight="500" fill="#82949E">
                                <tspan x="0.262695312" y="50">crm team</tspan>
                            </text>
                            <path d="M24,18 C28.9725,18 33,13.96125 33,9 C33,4.0275 28.9725,0 24,0 C19.0275,0 15,4.0275 15,9 C15,13.96125 19.0275,18 24,18 L24,18 Z M24,22.5 C18.00375,22.5 6,25.50375 6,31.5 L6,36 L42,36 L42,31.5 C42,25.50375 29.99625,22.5 24,22.5 L24,22.5 Z" id="Shape" fill="#00CBCA"></path>
                        </g>
                        <g id="team-1">
                            <text id="blog-team" font-family="OpenSans-Semibold, Open Sans" font-size="10" font-weight="500" fill="#82949E">
                                <tspan x="0.330078125" y="50">blog team</tspan>
                            </text>
                            <path d="M25,18 C29.9725,18 34,13.96125 34,9 C34,4.0275 29.9725,0 25,0 C20.0275,0 16,4.0275 16,9 C16,13.96125 20.0275,18 25,18 L25,18 Z M25,22.5 C19.00375,22.5 7,25.50375 7,31.5 L7,36 L43,36 L43,31.5 C43,25.50375 30.99625,22.5 25,22.5 L25,22.5 Z" id="Shape" fill="#1488C6"></path>
                        </g>
                    </g>
                </g>
                <g id="resources" transform="translate(-30.000000, 67.000000)">
                    <g id="services-secrets" transform="translate(17.000000, 34.000000)" fill="#1488C6">
                        <g id="secret" transform="translate(71.000000, 0.000000)">
                            <text id="wordpress-password-v" font-family="OpenSans-Semibold, Open Sans" font-size="10" font-weight="500">
                                <tspan x="0.029296875" y="45">wordpress-password-v0</tspan>
                            </text>
                            <path d="M66.5714286,11.2380813 L64.8571429,11.2380813 L64.8571429,6.42176072 C64.8571429,2.87373792 61.7885714,0 58,0 C54.2114286,0 51.1428571,2.87373792 51.1428571,6.42176072 L51.1428571,11.2380813 L49.4285714,11.2380813 C47.536,11.2380813 46,12.6765557 46,14.4489616 L46,27.2924831 C46,29.064889 47.536,30.5033634 49.4285714,30.5033634 L66.5714286,30.5033634 C68.464,30.5033634 70,29.064889 70,27.2924831 L70,14.4489616 C70,12.6765557 68.464,11.2380813 66.5714286,11.2380813 L66.5714286,11.2380813 Z M58,24.0816027 C56.1142857,24.0816027 54.5714286,22.6367065 54.5714286,20.8707223 C54.5714286,19.1047381 56.1142857,17.659842 58,17.659842 C59.8857143,17.659842 61.4285714,19.1047381 61.4285714,20.8707223 C61.4285714,22.6367065 59.8857143,24.0816027 58,24.0816027 L58,24.0816027 Z M61.4285714,11.2380813 L54.5714286,11.2380813 L54.5714286,6.42176072 C54.5714286,4.64935476 56.1074286,3.21088036 58,3.21088036 C59.8925714,3.21088036 61.4285714,4.64935476 61.4285714,6.42176072 L61.4285714,11.2380813 L61.4285714,11.2380813 Z" id="lock"></path>
                        </g>
                        <g id="services" transform="translate(0.000000, 1.000000)">
                            <text id="wordpress" font-family="OpenSans-Semibold, Open Sans" font-size="10" font-weight="500">
                                <tspan x="0.0703125" y="44">wordpress</tspan>
                            </text>
                            <path d="M39.34,12.486757 L34.3333333,12.486757 L34.3333333,1.55460124 C34.3333333,0.711745147 33.5916667,0 32.6733333,0 L19.3266667,0 C18.4266667,0 17.6666667,0.6961367 17.6666667,1.55460124 L17.6666667,12.486757 L12.66,12.486757 C11.76,12.486757 11,13.1828937 11,14.0413582 L11,26.5406019 C11,27.383458 11.7433333,28.0952032 12.66,28.0952032 L39.3433333,28.0952032 C40.2433333,28.0952032 41,27.4006273 41,26.5406019 L41,14.0413582 C41,13.1985021 40.2583333,12.486757 39.34,12.486757 L39.34,12.486757 Z M21,3.12168924 L31,3.12168924 L31,12.486757 L21,12.486757 L21,3.12168924 L21,3.12168924 Z M24.3333333,24.9735139 L14.3333333,24.9735139 L14.3333333,15.6084462 L24.3333333,15.6084462 L24.3333333,24.9735139 L24.3333333,24.9735139 Z M37.6666667,24.9735139 L27.6666667,24.9735139 L27.6666667,15.6084462 L37.6666667,15.6084462 L37.6666667,24.9735139 L37.6666667,24.9735139 Z M21,18.7301354 L17.6666667,18.7301354 L17.6666667,21.8518247 L21,21.8518247 L21,18.7301354 L21,18.7301354 Z M24.3333333,9.36506772 L27.6666667,9.36506772 L27.6666667,6.24337848 L24.3333333,6.24337848 L24.3333333,9.36506772 L24.3333333,9.36506772 Z M34.3333333,18.7301354 L31,18.7301354 L31,21.8518247 L34.3333333,21.8518247 L34.3333333,18.7301354 L34.3333333,18.7301354 Z"></path>
                        </g>
                    </g>
                    <g id="group">
                        <text id="com.docker.ucp.acces" font-family="OpenSans-Semibold, Open Sans" font-size="10" font-weight="500" fill="#82949E">
                            <tspan x="28.4033203" y="11">com.docker.ucp.access.label=blog</tspan>
                        </text>
                        <rect stroke="#82949E" stroke-width="2" stroke-dasharray="5,5,5,5" x="0" y="23" width="220" height="68" rx="2"></rect>
                    </g>
                </g>
            </g>
        </g>
    </g>
</svg>