<svg width="24" height="24" viewBox="0 0 24 24" fill="none" xmlns="http://www.w3.org/2000/svg">
<g id="docker_icon">
<mask id="mask0_1191_12367" style="mask-type:alpha" maskUnits="userSpaceOnUse" x="0" y="0" width="24" height="24">
<g id="whale">
<g id="Group 1212">
<g id="Group 1209">
<g id="Group 1208">
<path id="2" fill-rule="evenodd" clip-rule="evenodd" d="M4.83234 13.1031H8.47924C8.65597 13.1031 8.79865 12.9441 8.79865 12.7474V9.12844C8.79865 8.93169 8.65597 8.77271 8.47924 8.77271H4.83234C4.6557 8.77271 4.51294 8.93169 4.51294 9.12844V12.7474C4.51294 12.9441 4.6557 13.1031 4.83234 13.1031Z" fill="black"/>
<path id="4" fill-rule="evenodd" clip-rule="evenodd" d="M10.5469 7.3304H14.1938C14.3706 7.3304 14.5133 7.17142 14.5133 6.97473V3.35573C14.5133 3.15898 14.3706 3 14.1938 3H10.5469C10.3703 3 10.2275 3.15898 10.2275 3.35573V6.97473C10.2275 7.17142 10.3703 7.3304 10.5469 7.3304Z" fill="black"/>
<path id="3" fill-rule="evenodd" clip-rule="evenodd" d="M10.5465 13.1031H14.1934C14.3701 13.1031 14.5128 12.9441 14.5128 12.7474V9.12844C14.5128 8.93169 14.3701 8.77271 14.1934 8.77271H10.5465C10.3698 8.77271 10.2271 8.93169 10.2271 9.12844V12.7474C10.2271 12.9441 10.3698 13.1031 10.5465 13.1031Z" fill="black"/>
</g>
<g id="Group 1197">
<path id="Subtract" fill-rule="evenodd" clip-rule="evenodd" d="M21.8154 12.8084C21.7612 12.7648 21.2545 12.3845 20.1867 12.3845C19.9196 12.3845 19.6378 12.4087 19.345 12.4565C19.1387 11.0464 17.9692 10.3595 17.9148 10.3284L17.6279 10.1636L17.4387 10.4346C17.4246 10.4548 17.0923 10.9361 16.9292 11.6213C16.7378 12.4259 16.854 13.1814 17.2648 13.8281C16.7687 14.1028 15.9767 14.1745 15.8123 14.1766H2.63865C2.29494 14.1766 2.01415 14.4545 2.01279 14.7963C2.00758 16.0021 2.20732 17.1675 2.59021 18.1662C3.0443 19.3506 3.71976 20.2224 4.59745 20.7577C5.58187 21.3578 7.1846 21.702 8.99443 21.702C9.84126 21.702 10.6854 21.626 11.4353 21.4819C12.6172 21.2552 13.6902 20.8674 14.6242 20.3298C15.4388 19.8609 16.1704 19.2645 16.7988 18.5576C17.8427 17.3825 18.4644 16.07 18.9268 14.9084C18.9892 14.9109 19.0506 14.9121 19.1111 14.9121C20.2538 14.9121 20.9565 14.4576 21.3446 14.0761C21.7655 13.6624 21.9152 13.25 21.9309 13.2043L22.0127 12.9659L21.8154 12.8084Z" fill="black"/>
</g>
</g>
</g>
</g>
</mask>
<g mask="url(#mask0_1191_12367)">
<rect id="colour" width="24" height="24" fill="#677285"/>
</g>
</g>
</svg>