<svg width="740" height="523" viewBox="0 0 740 523" xmlns="http://www.w3.org/2000/svg" xmlns:xlink="http://www.w3.org/1999/xlink" style="background:#fff"><title>ddc_aws.svg</title><defs><rect id="a" width="710" height="509" rx="4"/><mask id="k" x="0" y="0" width="710" height="509" fill="#fff"><use xlink:href="#a"/></mask><rect id="b" width="270" height="447" rx="4"/><mask id="l" x="0" y="0" width="270" height="447" fill="#fff"><use xlink:href="#b"/></mask><rect id="c" width="240" height="385" rx="4"/><mask id="m" x="0" y="0" width="240" height="385" fill="#fff"><use xlink:href="#c"/></mask><rect id="d" width="270" height="447" rx="4"/><mask id="n" x="0" y="0" width="270" height="447" fill="#fff"><use xlink:href="#d"/></mask><rect id="e" width="240" height="385" rx="4"/><mask id="o" x="0" y="0" width="240" height="385" fill="#fff"><use xlink:href="#e"/></mask><rect id="f" width="500" height="132" rx="4"/><mask id="p" x="0" y="0" width="500" height="132" fill="#fff"><use xlink:href="#f"/></mask><rect id="g" width="500" height="124" rx="4"/><mask id="q" x="0" y="0" width="500" height="124" fill="#fff"><use xlink:href="#g"/></mask><rect id="h" width="60" height="71" rx="4"/><mask id="r" x="0" y="0" width="60" height="71" fill="#fff"><use xlink:href="#h"/></mask><rect id="i" width="60" height="71" rx="4"/><mask id="s" x="0" y="0" width="60" height="71" fill="#fff"><use xlink:href="#i"/></mask><rect id="j" width="60" height="71" rx="4"/><mask id="t" x="0" y="0" width="60" height="71" fill="#fff"><use xlink:href="#j"/></mask></defs><g fill="none" fill-rule="evenodd"><use mask="url(#k)" xlink:href="#a" opacity=".2" transform="translate(20 13)" stroke="#254356" stroke-width="4" fill="#FFF"/><use mask="url(#l)" xlink:href="#b" transform="translate(35 46)" stroke-width="4" stroke="#254356" fill="#E0E4E7"/><use mask="url(#m)" xlink:href="#c" transform="translate(50 61)" stroke="#254356" stroke-width="4" fill="#FFF"/><text font-family="OpenSans-Semibold, Open Sans" font-size="16" font-weight="500" fill="#254356"><tspan x="103.102" y="477">Availability zone</tspan></text><text font-family="OpenSans-Semibold, Open Sans" font-size="16" font-weight="500" fill="#254356"><tspan x="102.176" y="426">VPC Public Subnet</tspan></text><use mask="url(#n)" xlink:href="#d" transform="translate(336 46)" stroke-width="4" stroke="#254356" fill="#E0E4E7"/><use mask="url(#o)" xlink:href="#e" transform="translate(351 61)" stroke="#254356" stroke-width="4" fill="#FFF"/><text font-family="OpenSans-Semibold, Open Sans" font-size="16" font-weight="500" fill="#254356"><tspan x="404.102" y="477">Availability zone</tspan></text><text font-family="OpenSans-Semibold, Open Sans" font-size="16" font-weight="500" fill="#254356"><tspan x="403.176" y="426">VPC Public Subnet</tspan></text><text font-family="OpenSans-Semibold, Open Sans" font-size="14" font-weight="500" fill="#254356"><tspan x="151.441" y="37">Internet gateway</tspan></text><text font-family="OpenSans-Semibold, Open Sans" font-size="14" font-weight="500" fill="#254356"><tspan x="466.441" y="37">Internet gateway</tspan></text><g fill="#254356"><path d="M63 100h20V86H63v14zm-2-16h24v18H61V84zm21 0v-4.008C82 75.58 78.418 72 74 72h-2c-4.422 0-8 3.578-8 7.992V84h3v-3.007C67 77.683 69.693 75 73 75c3.314 0 6 2.682 6 5.993V84h3z"/><path d="M65 88h16v1H65v-1zm0 3h16v1H65v-1zm0 3h16v1H65v-1z"/></g><g fill="#254356"><path d="M364 116h20v-14h-20v14zm-2-16h24v18h-24v-18zm21 0v-4.008c0-4.412-3.582-7.992-8-7.992h-2c-4.422 0-8 3.578-8 7.992V100h3v-3.007c0-3.31 2.693-5.993 6-5.993 3.314 0 6 2.682 6 5.993V100h3z"/><path d="M366 104h16v1h-16v-1zm0 3h16v1h-16v-1zm0 3h16v1h-16v-1z"/></g><use mask="url(#p)" xlink:href="#f" transform="translate(71 113)" stroke-width="4" stroke="#254356" fill="#E0E4E7"/><use mask="url(#q)" xlink:href="#g" transform="translate(71 270)" stroke-width="4" stroke="#254356" fill="#E0E4E7"/><text font-family="OpenSans-Semibold, Open Sans" font-size="14" font-weight="500" fill="#254356"><tspan x="91.322" y="144">Manager Auto Scaling Group</tspan></text><use mask="url(#r)" xlink:href="#h" stroke="#1488C6" stroke-width="4" fill="#1488C6" transform="translate(93 165)"/><text font-family="OpenSans-Semibold, Open Sans" font-size="14" font-weight="500" fill="#FFF" transform="translate(93 165)"><tspan x="15.062" y="27">UCP</tspan></text><text font-family="OpenSans-Semibold, Open Sans" font-size="14" font-weight="500" fill="#FFF" transform="translate(93 165)"><tspan x="16.136" y="58">DTR</tspan></text><path d="M112 202h31" stroke="#FFF" stroke-width="2" stroke-linecap="round" stroke-dasharray="20,20,20,20"/><use mask="url(#s)" xlink:href="#i" stroke="#1488C6" stroke-width="4" fill="#1488C6" transform="translate(156 165)"/><text font-family="OpenSans-Semibold, Open Sans" font-size="14" font-weight="500" fill="#FFF" transform="translate(156 165)"><tspan x="15.062" y="27">UCP</tspan></text><text font-family="OpenSans-Semibold, Open Sans" font-size="14" font-weight="500" fill="#FFF" transform="translate(156 165)"><tspan x="16.136" y="58">DTR</tspan></text><path d="M175 202h31" stroke="#FFF" stroke-width="2" stroke-linecap="round" stroke-dasharray="20,20,20,20"/><use mask="url(#t)" xlink:href="#j" stroke="#1488C6" stroke-width="4" fill="#1488C6" transform="translate(467 166)"/><text font-family="OpenSans-Semibold, Open Sans" font-size="14" font-weight="500" fill="#FFF" transform="translate(467 166)"><tspan x="15.062" y="27">UCP</tspan></text><text font-family="OpenSans-Semibold, Open Sans" font-size="14" font-weight="500" fill="#FFF" transform="translate(467 166)"><tspan x="16.136" y="58">DTR</tspan></text><path d="M486 203h31" stroke="#FFF" stroke-width="2" stroke-linecap="round" stroke-dasharray="20,20,20,20"/><text font-family="OpenSans-Semibold, Open Sans" font-size="14" font-weight="500" fill="#254356"><tspan x="91.292" y="305">Worker Auto Scaling group</tspan></text><g fill-rule="nonzero" fill="#254356"><path d="M120 370h25v-36h-27v36h2zm0-34h23v32h-23v-32z"/><path d="M147 372v-30h-1v29h-26v1h26.5z"/><path d="M148 344v29h-25v1h26v-30z"/></g><path d="M168 370h25v-36h-27v36h2zm0-34h23v32h-23v-32z" fill="#254356" fill-rule="nonzero"/><path fill="#254356" fill-rule="nonzero" d="M195 372v-30h-1v29h-26v1h26.5z"/><path fill="#254356" fill-rule="nonzero" d="M196 344v29h-25v1h26v-30zm266 27h25v-36h-27v36h2zm0-34h23v32h-23v-32z"/><path fill="#254356" fill-rule="nonzero" d="M489 373v-30h-1v29h-26v1h26.5z"/><path fill="#254356" fill-rule="nonzero" d="M490 345v29h-25v1h26v-30zm-74 26h25v-36h-27v36h2zm0-34h23v32h-23v-32z"/><path fill="#254356" fill-rule="nonzero" d="M443 373v-30h-1v29h-26v1h26.5z"/><path fill="#254356" fill-rule="nonzero" d="M444 345v29h-25v1h26v-30zm63 26h25v-36h-27v36h2zm0-34h23v32h-23v-32z"/><path fill="#254356" fill-rule="nonzero" d="M534 373v-30h-1v29h-26v1h26.5z"/><path fill="#254356" fill-rule="nonzero" d="M535 345v29h-25v1h26v-30z"/><text font-family="OpenSans-Semibold, Open Sans" font-size="14" font-weight="500" fill="#254356"><tspan x="668" y="103">Cloud </tspan> <tspan x="668" y="122">Watch</tspan> <tspan x="668" y="141">Logs</tspan></text><text font-family="OpenSans-Semibold, Open Sans" font-size="14" font-weight="500" fill="#254356"><tspan x="666.473" y="203">DTR S3 </tspan> <tspan x="666.323" y="222">Bucket</tspan></text><g fill-rule="nonzero"><path fill="#8C3123" d="M616.503 187.197l-3.452 1.765v31.005l3.452 1.764 8.474-17.27z"/><path fill="#E05243" d="M634.5 217.272l-17.997 4.453v-34.528l17.997 4.454 8.505 12.862z"/><path fill="#8C3123" d="M634.5 217.272l17.99 4.453 3.112-16.824-3.112-17.704-17.99 4.454z"/><path fill="#E05243" d="M652.49 187.197l3.46 1.765v31.005l-3.46 1.764z"/><path fill="#8C3123" d="M626.653 210.175l7.847 1.028 6.222-6.69-6.222-6.683-7.848 1.008z"/><path fill="#5E1F18" d="M642.347 193.35l-7.847 1.461-7.848-1.46L634.5 178z"/><path fill="#F2B0A9" d="M642.347 215.65l-7.847-1.474-7.848 1.473L634.5 231z"/><path fill="#E05243" d="M642.347 193.35l-7.847-1.984V178l7.848 4.007z"/><path fill="#8C3123" d="M626.653 193.35l7.847-1.984V178l-7.848 4.007z"/><path fill="#E05243" d="M634.5 231l7.848-4.007v-11.344l-7.848 1.985z"/><path fill="#8C3123" d="M634.5 231l-7.848-4.007v-11.344l7.848 1.985z"/><path fill="#E05243" d="M642.347 210.175l-7.847 1.028V197.83l7.848 1.008z"/></g><g fill-rule="nonzero"><path d="M67.38 25.872v2.58c0 4.697-5.14 9.548-11.463 9.548H22.083c-6.323 0-11.463-4.851-11.463-9.549v-2.579h56.76z" fill="#9D5125"/><path d="M32.467.728a14.497 14.497 0 0 1 13.227 8.538 7.34 7.34 0 0 1 7.46-.503 7.392 7.392 0 0 1 4.052 6.308c5.719.477 10.174 6.015 10.174 10.413v.954c0 4.73-5.14 9.525-11.487 9.525h-33.81c-6.331 0-11.47-4.795-11.47-9.525v-.946c0-3.646 3.052-8.659 7.346-9.904v-.412a14.531 14.531 0 0 1 4.273-10.24A14.425 14.425 0 0 1 32.467.728z" fill="#F58535"/><path fill="#FFF" d="M24.371 17.634h2.248l2.255 10.664 2.417-10.64h2.247l-3.343 13.3h-2.698zm10.529 0h4.205c2.545 0 3.665 1.617 3.665 3.88 0 2.264-1.394 3.938-3.883 3.938h-1.869v5.506H34.9V17.634zm2.118 6.217h1.507c1.136 0 2.118-.614 2.118-2.296 0-1.44-.572-2.312-2.271-2.312h-1.354v4.608zm15.676 2.329v.283c0 2.425-.966 4.762-4.092 4.762-3.35 0-4.39-2.167-4.39-6.921 0-4.754 1.04-6.921 4.406-6.921 3.77 0 4.028 2.797 4.028 4.18v.267h-2.11v-.227c0-1.229-.371-2.652-1.894-2.595-1.522.057-2.271.97-2.271 5.263 0 4.294.685 5.345 2.296 5.345 1.764 0 1.973-1.981 1.973-3.234v-.227l2.054.025z"/></g><g transform="translate(586 23)" fill-rule="nonzero"><ellipse fill="#9D5025" cx="20" cy="21.301" rx="19.632" ry="19.494"/><path fill="#9D5025" d="M.368 19.699h39.265v1.602H.368z"/><ellipse fill="#F58536" cx="20" cy="19.699" rx="19.632" ry="19.494"/><path d="M5.2 21.634v-.493a6.406 6.406 0 0 1 3.632-5.375c.174-3.488 2.635-6.447 6.05-7.277 3.417-.829 6.975.669 8.75 3.683a4.428 4.428 0 0 1 3.795.166 4.372 4.372 0 0 1 2.25 3.037c2.962.577 5.097 3.389 5.097 5.766v.467c0 2.883-3.006 5.414-6.451 5.414h-16.71c-3.407.025-6.413-2.505-6.413-5.388z" fill="#FFF"/><path d="M24.032 14.248l-1.251.852-.646-1.371a5.93 5.93 0 0 0-5.36-3.479c-1.571 0-3.077.62-4.186 1.723a5.854 5.854 0 0 0-1.73 4.158v1.089l-.93.27a4.321 4.321 0 0 0-2.71 3.65v.468c0 1.583 1.936 3.421 4.42 3.421h16.748c2.484 0 4.413-1.838 4.413-3.42v-.468c0-1.59-1.787-3.684-3.871-3.844l-1.123-.09-.064-1.102a2.35 2.35 0 0 0-1.303-2.016 2.382 2.382 0 0 0-2.407.165v-.006z" fill="#F58536"/></g><g transform="translate(281 23)" fill-rule="nonzero"><ellipse fill="#9D5025" cx="20" cy="21.301" rx="19.632" ry="19.494"/><path fill="#9D5025" d="M.368 19.699h39.265v1.602H.368z"/><ellipse fill="#F58536" cx="20" cy="19.699" rx="19.632" ry="19.494"/><path d="M5.2 21.634v-.493a6.406 6.406 0 0 1 3.632-5.375c.174-3.488 2.635-6.447 6.05-7.277 3.417-.829 6.975.669 8.75 3.683a4.428 4.428 0 0 1 3.795.166 4.372 4.372 0 0 1 2.25 3.037c2.962.577 5.097 3.389 5.097 5.766v.467c0 2.883-3.006 5.414-6.451 5.414h-16.71c-3.407.025-6.413-2.505-6.413-5.388z" fill="#FFF"/><path d="M24.032 14.248l-1.251.852-.646-1.371a5.93 5.93 0 0 0-5.36-3.479c-1.571 0-3.077.62-4.186 1.723a5.854 5.854 0 0 0-1.73 4.158v1.089l-.93.27a4.321 4.321 0 0 0-2.71 3.65v.468c0 1.583 1.936 3.421 4.42 3.421h16.748c2.484 0 4.413-1.838 4.413-3.42v-.468c0-1.59-1.787-3.684-3.871-3.844l-1.123-.09-.064-1.102a2.35 2.35 0 0 0-1.303-2.016 2.382 2.382 0 0 0-2.407.165v-.006z" fill="#F58536"/></g><g fill-rule="nonzero"><path fill="#9D5025" d="M431.227 100.278l-1.759.875v24.694l1.759.876 6.968-13.223z"/><path fill="#F58536" d="M435.326 125.765l-4.1.958v-26.445l4.1.931z"/><path fill="#9D5025" d="M433.166 99.31l2.16-1.07 5.112 15.26-5.112 15.26-2.16-1.07z"/><path fill="#F58536" d="M440.438 127.321l-5.112 1.439V98.24l5.112 1.444z"/><path fill="#9D5025" d="M437.733 97.037l2.705-1.346 16.889 17.809-16.89 17.804-2.704-1.341z"/><path fill="#F58536" d="M458.7 124.578l-18.262 6.726V95.691l18.262 6.644z"/><path fill="#6B3A19" d="M456.334 110.178l-3.41.22-9.426-.794 3.497-17.174z"/><path fill="#9D5025" d="M446.995 109.251V92.43l-3.497 1.74v15.434z"/><path fill="#F58536" d="M456.334 110.178v-13.1l-9.34-4.648v16.821z"/><path fill="#FBBF93" d="M456.334 116.71l-3.23-.205-9.606.809 3.497 17.256z"/><path fill="#9D5025" d="M443.498 117.314v15.52l3.497 1.736v-16.939z"/><path fill="#F58536" d="M446.995 117.631v16.939l9.34-4.648V116.71z"/><path fill="#FBBF93" d="M464.532 115.9l-2.006-.081-5.2.456 2.202 12.06z"/><path fill="#F58536" d="M459.528 116.392v11.943l5.004-2.493v-9.941z"/><path fill="#6B3A19" d="M464.532 110.997l-2.006.082-5.2-.461 2.202-11.953z"/><path fill="#F58536" d="M464.532 110.997v-9.839l-5.004-2.493v11.83z"/><path fill="#9D5025" d="M457.327 127.757l2.201.578v-11.943l-2.201-.117zm0-28.514l2.201-.578v11.83l-2.201.123z"/></g><g fill-rule="nonzero"><path fill="#9D5025" d="M514.227 100.278l-1.759.875v24.694l1.759.876 6.968-13.223z"/><path fill="#F58536" d="M518.326 125.765l-4.1.958v-26.445l4.1.931z"/><path fill="#9D5025" d="M516.166 99.31l2.16-1.07 5.112 15.26-5.112 15.26-2.16-1.07z"/><path fill="#F58536" d="M523.438 127.321l-5.112 1.439V98.24l5.112 1.444z"/><path fill="#9D5025" d="M520.733 97.037l2.705-1.346 16.889 17.809-16.89 17.804-2.704-1.341z"/><path fill="#F58536" d="M541.7 124.578l-18.262 6.726V95.691l18.262 6.644z"/><path fill="#6B3A19" d="M539.334 110.178l-3.41.22-9.426-.794 3.497-17.174z"/><path fill="#9D5025" d="M529.995 109.251V92.43l-3.497 1.74v15.434z"/><path fill="#F58536" d="M539.334 110.178v-13.1l-9.34-4.648v16.821z"/><path fill="#FBBF93" d="M539.334 116.71l-3.23-.205-9.606.809 3.497 17.256z"/><path fill="#9D5025" d="M526.498 117.314v15.52l3.497 1.736v-16.939z"/><path fill="#F58536" d="M529.995 117.631v16.939l9.34-4.648V116.71z"/><path fill="#FBBF93" d="M547.532 115.9l-2.006-.081-5.2.456 2.202 12.06z"/><path fill="#F58536" d="M542.528 116.392v11.943l5.004-2.493v-9.941z"/><path fill="#6B3A19" d="M547.532 110.997l-2.006.082-5.2-.461 2.202-11.953z"/><path fill="#F58536" d="M547.532 110.997v-9.839l-5.004-2.493v11.83z"/><path fill="#9D5025" d="M540.327 127.757l2.201.578v-11.943l-2.201-.117zm0-28.514l2.201-.578v11.83l-2.201.123z"/></g><g fill-rule="nonzero"><path fill="#9D5025" d="M483.227 257.277l-1.759.876v24.694l1.759.876 6.968-13.223z"/><path fill="#F58536" d="M487.326 282.765l-4.1.957v-26.445l4.1.932z"/><path fill="#9D5025" d="M485.166 256.31l2.16-1.07 5.112 15.26-5.112 15.26-2.16-1.07z"/><path fill="#F58536" d="M492.438 284.321l-5.112 1.439v-30.52l5.112 1.444z"/><path fill="#9D5025" d="M489.733 254.037l2.705-1.346 16.889 17.809-16.89 17.804-2.704-1.341z"/><path fill="#F58536" d="M510.7 281.578l-18.262 6.726v-35.613l18.262 6.644z"/><path fill="#6B3A19" d="M508.334 267.178l-3.41.22-9.426-.794 3.497-17.174z"/><path fill="#9D5025" d="M498.995 266.251V249.43l-3.497 1.74v15.434z"/><path fill="#F58536" d="M508.334 267.178v-13.1l-9.34-4.648v16.821z"/><path fill="#FBBF93" d="M508.334 273.71l-3.23-.205-9.606.809 3.497 17.256z"/><path fill="#9D5025" d="M495.498 274.314v15.52l3.497 1.736v-16.939z"/><path fill="#F58536" d="M498.995 274.631v16.939l9.34-4.648V273.71z"/><path fill="#FBBF93" d="M516.532 272.9l-2.006-.081-5.2.456 2.202 12.06z"/><path fill="#F58536" d="M511.528 273.392v11.943l5.004-2.493v-9.941z"/><path fill="#6B3A19" d="M516.532 267.997l-2.006.082-5.2-.461 2.202-11.953z"/><path fill="#F58536" d="M516.532 267.997v-9.839l-5.004-2.493v11.83z"/><path fill="#9D5025" d="M509.327 284.757l2.201.578v-11.943l-2.201-.117zm0-28.514l2.201-.578v11.83l-2.201.123z"/></g><text font-family="OpenSans-Semibold, Open Sans" font-size="14" font-weight="500" fill="#445D6E"><tspan x="422.496" y="156">DTR ELB</tspan></text><text font-family="OpenSans-Semibold, Open Sans" font-size="14" font-weight="500" fill="#254356"><tspan x="504.421" y="156">UCP ELB</tspan></text><text font-family="OpenSans-Semibold, Open Sans" font-size="14" font-weight="500" fill="#254356"><tspan x="447.157" y="317">Application ELB</tspan></text><g fill-rule="nonzero"><path fill="#B7CA9D" d="M660.517 129.473l-23.01-3.445-23.024 3.445L637.493 146z"/><path fill="#4B612C" d="M619.094 129.072l3.887 1.183 9.14-14.265-9.14-14.264-3.887 1.519z"/><path fill="#759C3E" d="M636.75 127.844l-13.77 2.463v-28.581l13.77 3.154z"/><path fill="#4B612C" d="M630.609 132.64l-5.367-1.635V95.734L630.609 93l15.904 20.864z"/><path fill="#759C3E" d="M649.002 128.297l-18.393 4.388V93l18.393 7.297z"/><path fill="#4B612C" d="M637.494 137.779l-23.011-8.306v4.822L637.493 146z"/><path fill="#759C3E" d="M660.517 134.288L637.494 146v-8.221l23.023-8.306z"/><path fill="#B7CA9D" d="M654.052 121.49h-5.583l-15.904 1.1 4.935 12.157z"/><path fill="#4B612C" d="M632.565 133.241l4.935 1.506-.006-11.615-4.929-.542z"/><path fill="#759C3E" d="M654.052 121.49l-16.558 1.642.006 11.615 16.552-5.074z"/></g></g></svg>