<?xml version="1.0" encoding="UTF-8"?>
<svg width="261px" height="84px" viewBox="0 0 261 84" version="1.1" xmlns="http://www.w3.org/2000/svg" xmlns:xlink="http://www.w3.org/1999/xlink">
    <!-- Generator: Sketch 43.1 (39012) - http://www.bohemiancoding.com/sketch -->
    <title>Dockercon-register-now</title>
    <desc>Created with Sketch.</desc>
    <defs>
        <polygon id="path-1" points="-8.52651283e-14 0 262 4 262 49 21.3837891 48.8623047"></polygon>
    </defs>
    <g id="fisher" stroke="none" stroke-width="1" fill="none" fill-rule="evenodd">
        <g id="Dockercon-register-now" transform="translate(-1.000000, 0.000000)">
            <g id="Group-3" transform="translate(0.000000, 36.000000)">
                <mask id="mask-2" fill="white">
                    <use xlink:href="#path-1"></use>
                </mask>
                <g id="Mask"></g>
                <g mask="url(#mask-2)">
                    <g transform="translate(-117.000000, 6.000000)">
                        <polygon id="Rectangle-15" fill="#6CDBFF" points="426.184898 0 448.290479 12 10.0798373 12 0.977539062 0"></polygon>
                        <polygon id="Rectangle-15-Copy" fill="#F27D52" points="437.887852 15 459.993434 27 23.0831204 27 12.6804939 15"></polygon>
                        <polygon id="Rectangle-15-Copy-2" fill="#FAAC18" points="470.39606 30 486 42 33.4857469 42 24.3834487 30"></polygon>
                    </g>
                </g>
            </g>
            <path d="M14.7607422,28.34375 C14.7607422,27.6874967 14.6354179,27.0699899 14.3847656,26.4912109 C14.1341133,25.912432 13.7923199,25.4042991 13.359375,24.9667969 C12.9264301,24.5292947 12.4182972,24.182944 11.8349609,23.9277344 C11.2516247,23.6725248 10.627282,23.5449219 9.96191406,23.5449219 C9.28743152,23.5449219 8.65853156,23.6725248 8.07519531,23.9277344 C7.49185906,24.182944 6.98600475,24.5270161 6.55761719,24.9599609 C6.12922963,25.3929058 5.78971479,25.9010388 5.5390625,26.484375 C5.28841021,27.0677112 5.16308594,27.6874967 5.16308594,28.34375 C5.16308594,29.0000033 5.28841021,29.6197887 5.5390625,30.203125 C5.78971479,30.7864613 6.12922963,31.2945942 6.55761719,31.7275391 C6.98600475,32.1604839 7.49185906,32.504556 8.07519531,32.7597656 C8.65853156,33.0149752 9.28743152,33.1425781 9.96191406,33.1425781 C10.627282,33.1425781 11.2516247,33.0149752 11.8349609,32.7597656 C12.4182972,32.504556 12.9264301,32.1582053 13.359375,31.7207031 C13.7923199,31.2832009 14.1341133,30.775068 14.3847656,30.1962891 C14.6354179,29.6175101 14.7607422,29.0000033 14.7607422,28.34375 Z M9.96191406,20.6875 C11.7757252,20.6875 13.3753186,21.2480413 14.7607422,22.3691406 L14.7607422,15.546875 C14.7607422,15.1367167 14.8951809,14.7972019 15.1640625,14.5283203 C15.4329441,14.2594388 15.7724589,14.125 16.1826172,14.125 C16.5836609,14.125 16.9231757,14.2594388 17.2011719,14.5283203 C17.4791681,14.7972019 17.6181641,15.1367167 17.6181641,15.546875 L17.6181641,28.34375 C17.6181641,30.4765732 16.8707757,32.2812426 15.3759766,33.7578125 C13.8629482,35.2526116 12.0582787,36 9.96191406,36 C7.84732016,36 6.0426507,35.2526116 4.54785156,33.7578125 C3.05305242,32.2630134 2.30566406,30.4583439 2.30566406,28.34375 C2.30566406,26.2291561 3.05305242,24.4244866 4.54785156,22.9296875 C6.0426507,21.4348884 7.84732016,20.6875 9.96191406,20.6875 Z M35.1181641,28.34375 C35.1181641,30.4765732 34.3707757,32.2812426 32.8759766,33.7578125 C31.3629482,35.2526116 29.5582787,36 27.4619141,36 C25.3473202,36 23.5426507,35.2526116 22.0478516,33.7578125 C20.5530524,32.2630134 19.8056641,30.4583439 19.8056641,28.34375 C19.8056641,26.2291561 20.5530524,24.4244866 22.0478516,22.9296875 C23.5426507,21.4348884 25.3473202,20.6875 27.4619141,20.6875 C29.5582787,20.6875 31.3629482,21.4348884 32.8759766,22.9296875 C33.6233761,23.6770871 34.1816388,24.5019486 34.5507812,25.4042969 C34.9199237,26.3066451 35.1090494,27.286453 35.1181641,28.34375 Z M27.4619141,23.5449219 C26.7874315,23.5449219 26.1585316,23.6725248 25.5751953,23.9277344 C24.9918591,24.182944 24.4860047,24.5270161 24.0576172,24.9599609 C23.6292296,25.3929058 23.2897148,25.9010388 23.0390625,26.484375 C22.7884102,27.0677112 22.6630859,27.6874967 22.6630859,28.34375 C22.6630859,29.0000033 22.7884102,29.6197887 23.0390625,30.203125 C23.2897148,30.7864613 23.6292296,31.2945942 24.0576172,31.7275391 C24.4860047,32.1604839 24.9918591,32.504556 25.5751953,32.7597656 C26.1585316,33.0149752 26.7874315,33.1425781 27.4619141,33.1425781 C28.127282,33.1425781 28.7516247,33.0149752 29.3349609,32.7597656 C29.9182972,32.504556 30.4264301,32.1582053 30.859375,31.7207031 C31.2923199,31.2832009 31.6341133,30.775068 31.8847656,30.1962891 C32.1354179,29.6175101 32.2607422,29.0000033 32.2607422,28.34375 C32.2607422,27.6874967 32.1354179,27.0699899 31.8847656,26.4912109 C31.6341133,25.912432 31.2923199,25.4042991 30.859375,24.9667969 C30.4264301,24.5292947 29.9182972,24.182944 29.3349609,23.9277344 C28.7516247,23.6725248 28.127282,23.5449219 27.4619141,23.5449219 Z M48.9541016,31.6660156 C49.3642599,31.6660156 49.7037747,31.8004544 49.9726562,32.0693359 C50.2415378,32.3382175 50.3759766,32.6777323 50.3759766,33.0878906 C50.3759766,33.4889343 50.2255874,33.8398422 49.9248047,34.140625 C48.5120372,35.3802145 46.8486424,36 44.9345703,36 C42.8199764,36 41.015307,35.2526116 39.5205078,33.7578125 C38.0257087,32.2630134 37.2783203,30.4583439 37.2783203,28.34375 C37.2783203,26.2291561 38.0257087,24.4244866 39.5205078,22.9296875 C41.015307,21.4348884 42.8199764,20.6875 44.9345703,20.6875 C46.857757,20.6875 48.5211518,21.3072855 49.9248047,22.546875 C50.2529313,22.8385431 50.4169922,23.1985656 50.4169922,23.6269531 C50.4169922,24.0371114 50.2825534,24.3789049 50.0136719,24.6523438 C49.7447903,24.9257826 49.4052755,25.0625 48.9951172,25.0625 C48.6487613,25.0625 48.3388686,24.9531261 48.0654297,24.734375 C47.6005836,24.342446 47.1129583,24.046225 46.6025391,23.8457031 C46.0921198,23.6451813 45.5361358,23.5449219 44.9345703,23.5449219 C44.2692024,23.5449219 43.6448597,23.6702461 43.0615234,23.9208984 C42.4781872,24.1715507 41.9677756,24.5133442 41.5302734,24.9462891 C41.0927712,25.3792339 40.7486992,25.8873669 40.4980469,26.4707031 C40.2473946,27.0540394 40.1220703,27.6783821 40.1220703,28.34375 C40.1220703,29.0091179 40.2473946,29.6334606 40.4980469,30.2167969 C40.7486992,30.8001331 41.0927712,31.3082661 41.5302734,31.7412109 C41.9677756,32.1741558 42.4781872,32.5159493 43.0615234,32.7666016 C43.6448597,33.0172539 44.2692024,33.1425781 44.9345703,33.1425781 C45.5361358,33.1425781 46.0921198,33.0445973 46.6025391,32.8486328 C47.1129583,32.6526683 47.5960264,32.3587259 48.0517578,31.9667969 C48.3069674,31.7753897 48.6077457,31.6751303 48.9541016,31.6660156 Z M52.5908203,34.5644531 L52.5908203,15.5605469 C52.5908203,15.1595032 52.7298163,14.8199884 53.0078125,14.5419922 C53.2858087,14.263996 53.6253235,14.125 54.0263672,14.125 C54.4182962,14.125 54.7532538,14.263996 55.03125,14.5419922 C55.3092462,14.8199884 55.4482422,15.1595032 55.4482422,15.5605469 L55.4482422,26.2246094 L63.6240234,20.90625 C63.8518892,20.7604159 64.1070949,20.6875 64.3896484,20.6875 C64.5901703,20.6875 64.7770174,20.723958 64.9501953,20.796875 C65.1233733,20.869792 65.2737624,20.9723301 65.4013672,21.1044922 C65.528972,21.2366543 65.63151,21.3893221 65.7089844,21.5625 C65.7864587,21.7356779 65.8251953,21.9179678 65.8251953,22.109375 C65.8251953,22.6197942 65.6429055,22.9980456 65.2783203,23.2441406 L59.5498047,26.9628906 L65.4287109,33.5800781 C65.6930352,33.8717463 65.8251953,34.2044252 65.8251953,34.578125 C65.8251953,34.7695322 65.7864587,34.9518221 65.7089844,35.125 C65.63151,35.2981779 65.528972,35.4508457 65.4013672,35.5830078 C65.2737624,35.7151699 65.1233733,35.817708 64.9501953,35.890625 C64.7770174,35.963542 64.5901703,36 64.3896484,36 C64.006834,36 63.6878268,35.8769544 63.4326172,35.6308594 L57.1162109,28.5351562 L55.4482422,29.6289062 L55.4482422,34.5644531 C55.4482422,34.9563822 55.3092462,35.2936184 55.03125,35.5761719 C54.7532538,35.8587254 54.4182962,36 54.0263672,36 C53.6253235,36 53.2858087,35.8587254 53.0078125,35.5761719 C52.7298163,35.2936184 52.5908203,34.9563822 52.5908203,34.5644531 Z M79.3330078,26.921875 C79.1780591,26.4205704 78.9479182,25.9625672 78.6425781,25.5478516 C78.3372381,25.1331359 77.9817729,24.7776708 77.5761719,24.4814453 C77.1705709,24.1852199 76.7239608,23.9550789 76.2363281,23.7910156 C75.7486955,23.6269523 75.2451198,23.5449219 74.7255859,23.5449219 C74.2060521,23.5449219 73.7001978,23.6269523 73.2080078,23.7910156 C72.7158179,23.9550789 72.2646505,24.1852199 71.8544922,24.4814453 C71.4443339,24.7776708 71.0888687,25.1331359 70.7880859,25.5478516 C70.4873032,25.9625672 70.2639981,26.4205704 70.1181641,26.921875 L79.3330078,26.921875 Z M78.7177734,31.6933594 C79.1279317,31.6933594 79.4674466,31.8277981 79.7363281,32.0966797 C80.0052097,32.3655612 80.1396484,32.7050761 80.1396484,33.1152344 C80.1396484,33.516278 80.0029311,33.8580715 79.7294922,34.140625 C78.3167247,35.3802145 76.6487726,36 74.7255859,36 C72.610992,36 70.8063226,35.2526116 69.3115234,33.7578125 C67.8167243,32.2630134 67.0693359,30.4583439 67.0693359,28.34375 C67.0693359,26.2291561 67.8167243,24.4244866 69.3115234,22.9296875 C70.8063226,21.4348884 72.610992,20.6875 74.7255859,20.6875 C76.8219506,20.6875 78.62662,21.4348884 80.1396484,22.9296875 C80.887048,23.6679724 81.4475893,24.4905554 81.8212891,25.3974609 C82.1949888,26.3043665 82.3818359,27.286453 82.3818359,28.34375 C82.3818359,28.7539083 82.2428399,29.0934231 81.9648438,29.3623047 C81.6868476,29.6311862 81.3473327,29.765625 80.9462891,29.765625 L70.1181641,29.765625 C70.2731128,30.2669296 70.5009751,30.7249328 70.8017578,31.1396484 C71.1025406,31.5543641 71.4557271,31.9098292 71.8613281,32.2060547 C72.2669291,32.5022801 72.7135392,32.7324211 73.2011719,32.8964844 C73.6888045,33.0605477 74.1969375,33.1425781 74.7255859,33.1425781 C75.3271514,33.1425781 75.8785782,33.0514332 76.3798828,32.8691406 C76.8811874,32.686848 77.3460265,32.4134133 77.7744141,32.0488281 C78.0478529,31.8209624 78.3623029,31.702474 78.7177734,31.6933594 Z M87.3720703,22.109375 L87.3720703,22.3828125 C88.0556675,21.8359348 88.7984986,21.4166681 89.6005859,21.125 C90.4026733,20.8333319 91.2594355,20.6875 92.1708984,20.6875 C92.5719421,20.6875 93.0026019,20.7148435 93.4628906,20.7695312 C93.9231794,20.824219 94.3470033,20.9221998 94.734375,21.0634766 C95.1217467,21.2047533 95.4430326,21.3984363 95.6982422,21.6445312 C95.9534518,21.8906262 96.0810547,22.2096335 96.0810547,22.6015625 C96.0810547,22.8020843 96.0423181,22.9889314 95.9648438,23.1621094 C95.8873694,23.3352873 95.7848314,23.4879551 95.6572266,23.6201172 C95.5296218,23.7522793 95.3792326,23.8548173 95.2060547,23.9277344 C95.0328767,24.0006514 94.8460296,24.0371094 94.6455078,24.0371094 C94.4723299,24.0371094 94.271811,23.9869797 94.0439453,23.8867188 C93.4697237,23.658853 92.845381,23.5449219 92.1708984,23.5449219 C91.5055305,23.5449219 90.8811878,23.6702461 90.2978516,23.9208984 C89.7145153,24.1715507 89.2063824,24.5133442 88.7734375,24.9462891 C88.3404926,25.3792339 87.9986992,25.8873669 87.7480469,26.4707031 C87.4973946,27.0540394 87.3720703,27.6783821 87.3720703,28.34375 L87.3720703,34.578125 C87.3720703,34.970054 87.2330743,35.3050116 86.9550781,35.5830078 C86.6770819,35.861004 86.3421244,36 85.9501953,36 C85.5491516,36 85.2096368,35.861004 84.9316406,35.5830078 C84.6536444,35.3050116 84.5146484,34.970054 84.5146484,34.578125 L84.5146484,22.109375 C84.5146484,21.717446 84.6536444,21.3824884 84.9316406,21.1044922 C85.2096368,20.826496 85.5491516,20.6875 85.9501953,20.6875 C86.3421244,20.6875 86.6770819,20.826496 86.9550781,21.1044922 C87.2330743,21.3824884 87.3720703,21.717446 87.3720703,22.109375 Z M109.342773,31.6660156 C109.752932,31.6660156 110.092447,31.8004544 110.361328,32.0693359 C110.63021,32.3382175 110.764648,32.6777323 110.764648,33.0878906 C110.764648,33.4889343 110.614259,33.8398422 110.313477,34.140625 C108.900709,35.3802145 107.237314,36 105.323242,36 C103.208648,36 101.403979,35.2526116 99.9091797,33.7578125 C98.4143805,32.2630134 97.6669922,30.4583439 97.6669922,28.34375 C97.6669922,26.2291561 98.4143805,24.4244866 99.9091797,22.9296875 C101.403979,21.4348884 103.208648,20.6875 105.323242,20.6875 C107.246429,20.6875 108.909824,21.3072855 110.313477,22.546875 C110.641603,22.8385431 110.805664,23.1985656 110.805664,23.6269531 C110.805664,24.0371114 110.671225,24.3789049 110.402344,24.6523438 C110.133462,24.9257826 109.793947,25.0625 109.383789,25.0625 C109.037433,25.0625 108.72754,24.9531261 108.454102,24.734375 C107.989255,24.342446 107.50163,24.046225 106.991211,23.8457031 C106.480792,23.6451813 105.924808,23.5449219 105.323242,23.5449219 C104.657874,23.5449219 104.033532,23.6702461 103.450195,23.9208984 C102.866859,24.1715507 102.356448,24.5133442 101.918945,24.9462891 C101.481443,25.3792339 101.137371,25.8873669 100.886719,26.4707031 C100.636066,27.0540394 100.510742,27.6783821 100.510742,28.34375 C100.510742,29.0091179 100.636066,29.6334606 100.886719,30.2167969 C101.137371,30.8001331 101.481443,31.3082661 101.918945,31.7412109 C102.356448,32.1741558 102.866859,32.5159493 103.450195,32.7666016 C104.033532,33.0172539 104.657874,33.1425781 105.323242,33.1425781 C105.924808,33.1425781 106.480792,33.0445973 106.991211,32.8486328 C107.50163,32.6526683 107.984698,32.3587259 108.44043,31.9667969 C108.695639,31.7753897 108.996418,31.6751303 109.342773,31.6660156 Z M128.319336,28.34375 C128.319336,30.4765732 127.571948,32.2812426 126.077148,33.7578125 C124.56412,35.2526116 122.759451,36 120.663086,36 C118.548492,36 116.743823,35.2526116 115.249023,33.7578125 C113.754224,32.2630134 113.006836,30.4583439 113.006836,28.34375 C113.006836,26.2291561 113.754224,24.4244866 115.249023,22.9296875 C116.743823,21.4348884 118.548492,20.6875 120.663086,20.6875 C122.759451,20.6875 124.56412,21.4348884 126.077148,22.9296875 C126.824548,23.6770871 127.382811,24.5019486 127.751953,25.4042969 C128.121096,26.3066451 128.310221,27.286453 128.319336,28.34375 Z M120.663086,23.5449219 C119.988603,23.5449219 119.359703,23.6725248 118.776367,23.9277344 C118.193031,24.182944 117.687177,24.5270161 117.258789,24.9599609 C116.830402,25.3929058 116.490887,25.9010388 116.240234,26.484375 C115.989582,27.0677112 115.864258,27.6874967 115.864258,28.34375 C115.864258,29.0000033 115.989582,29.6197887 116.240234,30.203125 C116.490887,30.7864613 116.830402,31.2945942 117.258789,31.7275391 C117.687177,32.1604839 118.193031,32.504556 118.776367,32.7597656 C119.359703,33.0149752 119.988603,33.1425781 120.663086,33.1425781 C121.328454,33.1425781 121.952797,33.0149752 122.536133,32.7597656 C123.119469,32.504556 123.627602,32.1582053 124.060547,31.7207031 C124.493492,31.2832009 124.835285,30.775068 125.085938,30.1962891 C125.33659,29.6175101 125.461914,29.0000033 125.461914,28.34375 C125.461914,27.6874967 125.33659,27.0699899 125.085938,26.4912109 C124.835285,25.912432 124.493492,25.4042991 124.060547,24.9667969 C123.627602,24.5292947 123.119469,24.182944 122.536133,23.9277344 C121.952797,23.6725248 121.328454,23.5449219 120.663086,23.5449219 Z M133.350586,22.0957031 C134.562832,21.1568963 135.98925,20.6875 137.629883,20.6875 C138.586919,20.6875 139.496089,20.8743471 140.357422,21.2480469 C141.218754,21.6217467 141.977536,22.1298796 142.633789,22.7724609 C143.290042,23.4150423 143.809568,24.1715451 144.192383,25.0419922 C144.575197,25.9124392 144.766602,26.8398388 144.766602,27.8242188 L144.766602,34.5644531 C144.766602,34.9654968 144.627606,35.3050116 144.349609,35.5830078 C144.071613,35.861004 143.736656,36 143.344727,36 C142.943683,36 142.604168,35.861004 142.326172,35.5830078 C142.048176,35.3050116 141.90918,34.9654968 141.90918,34.5644531 L141.90918,27.8242188 C141.90918,27.2408825 141.795249,26.6894557 141.567383,26.1699219 C141.339517,25.650388 141.031903,25.196942 140.644531,24.8095703 C140.25716,24.4221986 139.803714,24.1145845 139.28418,23.8867188 C138.764646,23.658853 138.213219,23.5449219 137.629883,23.5449219 C137.037432,23.5449219 136.483727,23.6565744 135.96875,23.8798828 C135.453773,24.1031912 135.000327,24.4108053 134.608398,24.8027344 C134.216469,25.1946634 133.908855,25.650388 133.685547,26.1699219 C133.462238,26.6894557 133.350586,27.2408825 133.350586,27.8242188 L133.350586,34.5644531 C133.350586,34.9654968 133.21159,35.3050116 132.933594,35.5830078 C132.655598,35.861004 132.32064,36 131.928711,36 C131.527667,36 131.188152,35.861004 130.910156,35.5830078 C130.63216,35.3050116 130.493164,34.9654968 130.493164,34.5644531 L130.493164,22.1230469 C130.493164,21.7311178 130.63216,21.3938816 130.910156,21.1113281 C131.188152,20.8287746 131.527667,20.6875 131.928711,20.6875 C132.32064,20.6875 132.655598,20.8287746 132.933594,21.1113281 C133.21159,21.3938816 133.350586,21.7220033 133.350586,22.0957031 Z M149.756836,34.578125 L149.756836,17.5566406 C149.483397,17.6477869 149.196291,17.750325 148.895508,17.8642578 C148.594725,17.9781907 148.32129,18.0351562 148.075195,18.0351562 C147.665037,18.0351562 147.325522,17.9007175 147.056641,17.6318359 C146.787759,17.3629544 146.65332,17.0234396 146.65332,16.6132812 C146.65332,16.3216131 146.728515,16.0618501 146.878906,15.8339844 C147.029298,15.6061187 147.259439,15.4192716 147.569336,15.2734375 L150.700195,14.234375 C150.864259,14.1705726 151.028319,14.1386719 151.192383,14.1386719 C151.602541,14.1386719 151.942056,14.2776679 152.210938,14.5556641 C152.479819,14.8336602 152.614258,15.1731751 152.614258,15.5742188 L152.614258,34.578125 C152.614258,34.970054 152.475262,35.3050116 152.197266,35.5830078 C151.919269,35.861004 151.579755,36 151.178711,36 C150.786782,36 150.451824,35.861004 150.173828,35.5830078 C149.895832,35.3050116 149.756836,34.970054 149.756836,34.578125 Z M154.788086,33.6894531 L164.112305,16.9824219 L156.141602,16.9824219 C155.731443,16.9824219 155.391928,16.8479831 155.123047,16.5791016 C154.854165,16.31022 154.719727,15.9707052 154.719727,15.5605469 C154.719727,15.1595032 154.854165,14.8199884 155.123047,14.5419922 C155.391928,14.263996 155.731443,14.125 156.141602,14.125 L166.518555,14.125 C166.719077,14.125 166.905924,14.1637366 167.079102,14.2412109 C167.25228,14.3186853 167.402669,14.4212233 167.530273,14.5488281 C167.657878,14.6764329 167.760416,14.8268221 167.837891,15 C167.915365,15.1731779 167.954102,15.360025 167.954102,15.5605469 C167.954102,15.8066419 167.885743,16.0618476 167.749023,16.3261719 L157.249023,35.2070312 C157.176106,35.3437507 157.084961,35.4667963 156.975586,35.5761719 C156.693032,35.8587254 156.351239,36 155.950195,36 C155.558266,36 155.223309,35.861004 154.945312,35.5830078 C154.667316,35.3050116 154.52832,34.970054 154.52832,34.578125 C154.52832,34.2864569 154.614908,33.9902359 154.788086,33.6894531 Z" id="dockercon17" fill="#FFFFFF"></path>
            <path d="M1.47851562,10.2890625 L1.47851562,0.780273438 C1.47851562,0.579751602 1.545735,0.409994185 1.68017578,0.270996094 C1.81461656,0.131998003 1.98437397,0.0625 2.18945312,0.0625 C2.39453228,0.0625 2.56428969,0.131998003 2.69873047,0.270996094 C2.83317125,0.409994185 2.90039062,0.579751602 2.90039062,0.780273438 L2.90039062,9.57128906 L3.22851563,9.57128906 C3.42448015,9.57128906 3.59195894,9.64078707 3.73095703,9.77978516 C3.86995512,9.91878325 3.93945313,10.0885407 3.93945313,10.2890625 C3.93945313,10.485027 3.86995512,10.6525058 3.73095703,10.7915039 C3.59195894,10.930502 3.42448015,11 3.22851563,11 L2.18261719,11 C1.98665267,11 1.82031318,10.930502 1.68359375,10.7915039 C1.54687432,10.6525058 1.47851562,10.485027 1.47851562,10.2890625 Z M6.76269531,1.98339844 C6.76269531,2.21582147 6.68066488,2.41406168 6.51660156,2.578125 C6.35253824,2.74218832 6.15429804,2.82421875 5.921875,2.82421875 C5.68945196,2.82421875 5.49121176,2.74218832 5.32714844,2.578125 C5.16308512,2.41406168 5.08105469,2.21582147 5.08105469,1.98339844 C5.08105469,1.7509754 5.16308512,1.5527352 5.32714844,1.38867188 C5.49121176,1.22460855 5.68945196,1.14257812 5.921875,1.14257812 C6.15429804,1.14257812 6.35253824,1.22460855 6.51660156,1.38867188 C6.68066488,1.5527352 6.76269531,1.7509754 6.76269531,1.98339844 Z M5.2109375,10.2822266 L5.2109375,4.06152344 C5.2109375,3.8610016 5.2804355,3.69124418 5.41943359,3.55224609 C5.55843168,3.413248 5.72591048,3.34375 5.921875,3.34375 C6.11783952,3.34375 6.28531832,3.413248 6.42431641,3.55224609 C6.5633145,3.69124418 6.63509112,3.8610016 6.63964844,4.06152344 L6.63964844,10.2822266 C6.63509112,10.4827484 6.5633145,10.6525058 6.42431641,10.7915039 C6.28531832,10.930502 6.11783952,11 5.921875,11 C5.72591048,11 5.55843168,10.930502 5.41943359,10.7915039 C5.2804355,10.6525058 5.2109375,10.4827484 5.2109375,10.2822266 Z M11.6708984,11 C11.3701157,11 11.1604824,10.8723971 11.0419922,10.6171875 L8.15722656,4.34179688 C8.12076805,4.24609327 8.10253906,4.1503911 8.10253906,4.0546875 C8.10253906,3.9589839 8.12076805,3.86783897 8.15722656,3.78125 C8.19368508,3.69466103 8.24381479,3.61832715 8.30761719,3.55224609 C8.37141959,3.48616503 8.44661415,3.43489602 8.53320312,3.3984375 C8.6197921,3.36197898 8.71321564,3.34375 8.81347656,3.34375 C8.93652405,3.34375 9.05501245,3.37451141 9.16894531,3.43603516 C9.28287817,3.4975589 9.37174447,3.58528589 9.43554688,3.69921875 L11.6708984,8.57324219 L13.8994141,3.70605469 C14.0315762,3.46451702 14.2389309,3.34375 14.5214844,3.34375 C14.6217453,3.34375 14.7151688,3.36197898 14.8017578,3.3984375 C14.8883468,3.43489602 14.9635413,3.48616503 15.0273438,3.55224609 C15.0911462,3.61832715 15.1424152,3.69466103 15.1811523,3.78125 C15.2198895,3.86783897 15.2392578,3.9589839 15.2392578,4.0546875 C15.2392578,4.15950573 15.2187502,4.2552079 15.1777344,4.34179688 L12.2998047,10.6171875 C12.1721999,10.8723971 11.9625666,11 11.6708984,11 Z M22.1230469,6.4609375 C22.0455725,6.21028521 21.9305021,5.98128359 21.777832,5.77392578 C21.625162,5.56656797 21.4474294,5.38883538 21.2446289,5.24072266 C21.0418284,5.09260994 20.8185234,4.97753947 20.574707,4.89550781 C20.3308907,4.81347615 20.0791029,4.77246094 19.8193359,4.77246094 C19.559569,4.77246094 19.3066419,4.81347615 19.0605469,4.89550781 C18.8144519,4.97753947 18.5888682,5.09260994 18.3837891,5.24072266 C18.1787099,5.38883538 18.0009773,5.56656797 17.8505859,5.77392578 C17.7001946,5.98128359 17.588542,6.21028521 17.515625,6.4609375 L22.1230469,6.4609375 Z M21.8154297,8.84667969 C22.0205088,8.84667969 22.1902663,8.91389907 22.324707,9.04833984 C22.4591478,9.18278062 22.5263672,9.35253804 22.5263672,9.55761719 C22.5263672,9.75813902 22.4580085,9.92903575 22.3212891,10.0703125 C21.6149053,10.6901073 20.7809293,11 19.8193359,11 C18.762039,11 17.8597043,10.6263058 17.1123047,9.87890625 C16.3649051,9.13150668 15.9912109,8.22917195 15.9912109,7.171875 C15.9912109,6.11457805 16.3649051,5.21224332 17.1123047,4.46484375 C17.8597043,3.71744418 18.762039,3.34375 19.8193359,3.34375 C20.8675183,3.34375 21.769853,3.71744418 22.5263672,4.46484375 C22.900067,4.83398622 23.1803376,5.24527768 23.3671875,5.69873047 C23.5540374,6.15218326 23.6474609,6.64322652 23.6474609,7.171875 C23.6474609,7.37695415 23.5779629,7.54671157 23.4389648,7.68115234 C23.2999668,7.81559312 23.1302093,7.8828125 22.9296875,7.8828125 L17.515625,7.8828125 C17.5930993,8.13346479 17.7070305,8.36246641 17.8574219,8.56982422 C18.0078133,8.77718203 18.1844065,8.95491462 18.387207,9.10302734 C18.5900075,9.25114006 18.8133126,9.36621053 19.0571289,9.44824219 C19.3009452,9.53027385 19.5550117,9.57128906 19.8193359,9.57128906 C20.1201187,9.57128906 20.3958321,9.5257166 20.6464844,9.43457031 C20.8971367,9.34342402 21.1295562,9.20670664 21.34375,9.02441406 C21.4804694,8.9104812 21.6376944,8.851237 21.8154297,8.84667969 Z M30.2373047,7.35644531 C29.8089171,7.19238199 29.5081389,7.02376389 29.3349609,6.85058594 L29.3417969,6.85058594 C28.995441,6.49967272 28.8222656,6.08724195 28.8222656,5.61328125 C28.8222656,5.26692535 28.9145499,4.95361468 29.0991211,4.67333984 C29.2836923,4.393065 29.5240871,4.1549489 29.8203125,3.95898438 C30.1165379,3.76301985 30.4503562,3.61149142 30.8217773,3.50439453 C31.1931985,3.39729764 31.5657533,3.34375 31.9394531,3.34375 C33.0787817,3.34375 34.056311,3.80175323 34.8720703,4.71777344 C34.9677739,4.83626361 35.015625,4.97981687 35.015625,5.1484375 C35.015625,5.35351665 34.9484056,5.52327407 34.8139648,5.65771484 C34.6795241,5.79215562 34.5097667,5.859375 34.3046875,5.859375 C34.1588534,5.859375 34.0346685,5.81835979 33.9321289,5.73632812 C33.8295893,5.65429646 33.7304692,5.56543017 33.6347656,5.46972656 C33.1699196,5.00488049 32.604821,4.77246094 31.9394531,4.77246094 C31.2831998,4.77246094 30.7591165,4.97297977 30.3671875,5.37402344 C30.2942705,5.44694047 30.2578125,5.54719988 30.2578125,5.67480469 C30.2578125,5.80240949 30.3170567,5.88899717 30.4355469,5.93457031 L33.6347656,6.98730469 C34.0813824,7.16048264 34.3821607,7.32910074 34.5371094,7.49316406 L34.5302734,7.49316406 C34.8766293,7.84407728 35.0498047,8.25650805 35.0498047,8.73046875 C35.0498047,9.08138196 34.9575205,9.39583194 34.7729492,9.67382812 C34.588378,9.95182431 34.3479833,10.1899404 34.0517578,10.3881836 C33.7555324,10.5864268 33.4228534,10.7379552 33.0537109,10.8427734 C32.6845685,10.9475917 32.3131529,11 31.9394531,11 C30.7910099,11 29.8134806,10.546554 29.0068359,9.63964844 C28.906575,9.50748632 28.8564453,9.35937582 28.8564453,9.1953125 C28.8564453,8.99023335 28.9236647,8.82047593 29.0581055,8.68603516 C29.1925462,8.55159438 29.3623037,8.484375 29.5673828,8.484375 C29.7177742,8.484375 29.8453771,8.52880815 29.9501953,8.61767578 C30.0550135,8.70654341 30.1507157,8.79199178 30.2373047,8.87402344 C30.7021508,9.33886951 31.2695279,9.57128906 31.9394531,9.57128906 C32.5911491,9.57128906 33.1152324,9.36621299 33.5117188,8.95605469 C33.5800785,8.87858034 33.6142578,8.7851568 33.6142578,8.67578125 C33.6142578,8.54817645 33.552735,8.45931015 33.4296875,8.40917969 L30.2373047,7.35644531 Z M36.7587891,3.34375 L37.0800781,3.34375 L37.0800781,0.7734375 C37.0800781,0.577472979 37.1495761,0.409994185 37.2885742,0.270996094 C37.4275723,0.131998003 37.5973297,0.0625 37.7978516,0.0625 C37.9938161,0.0625 38.1612949,0.131998003 38.300293,0.270996094 C38.4392911,0.409994185 38.5087891,0.577472979 38.5087891,0.7734375 L38.5087891,3.34375 L39.3632812,3.34375 C39.5592458,3.34375 39.7255853,3.413248 39.8623047,3.55224609 C39.9990241,3.69124418 40.0673828,3.85872298 40.0673828,4.0546875 C40.0673828,4.25520934 39.9990241,4.42496675 39.8623047,4.56396484 C39.7255853,4.70296293 39.5592458,4.77246094 39.3632812,4.77246094 L38.5087891,4.77246094 L38.5087891,8.2109375 C38.5087891,9.11784308 38.9645137,9.57128906 39.8759766,9.57128906 C40.0719411,9.57128906 40.2382806,9.64078707 40.375,9.77978516 C40.5117194,9.91878325 40.5800781,10.086262 40.5800781,10.2822266 C40.5800781,10.4827484 40.5117194,10.6525058 40.375,10.7915039 C40.2382806,10.930502 40.0719411,11 39.8759766,11 C38.012035,11 37.0800781,10.0703218 37.0800781,8.2109375 L37.0800781,4.77246094 L36.7587891,4.77246094 C36.5673819,4.77246094 36.4021817,4.70296293 36.2631836,4.56396484 C36.1241855,4.42496675 36.0546875,4.25520934 36.0546875,4.0546875 C36.0546875,3.85872298 36.1241855,3.69124418 36.2631836,3.55224609 C36.4021817,3.413248 36.5673819,3.34375 36.7587891,3.34375 Z M42.9589844,4.0546875 L42.9589844,4.19140625 C43.300783,3.91796738 43.6721985,3.70833406 44.0732422,3.5625 C44.4742859,3.41666594 44.902667,3.34375 45.3583984,3.34375 C45.5589203,3.34375 45.7742502,3.35742174 46.0043945,3.38476562 C46.2345389,3.41210951 46.4464509,3.46109991 46.6401367,3.53173828 C46.8338226,3.60237666 46.9944655,3.69921813 47.1220703,3.82226562 C47.2496751,3.94531312 47.3134766,4.10481673 47.3134766,4.30078125 C47.3134766,4.40104217 47.2941083,4.49446571 47.2553711,4.58105469 C47.2166339,4.66764366 47.1653649,4.74397753 47.1015625,4.81005859 C47.0377601,4.87613965 46.9625655,4.92740867 46.8759766,4.96386719 C46.7893876,5.0003257 46.695964,5.01855469 46.5957031,5.01855469 C46.5091142,5.01855469 46.4088547,4.99348983 46.2949219,4.94335938 C46.0078111,4.82942651 45.6956397,4.77246094 45.3583984,4.77246094 C45.0257145,4.77246094 44.7135431,4.83512307 44.421875,4.96044922 C44.1302069,5.08577537 43.8761404,5.25667209 43.659668,5.47314453 C43.4431955,5.68961697 43.2722988,5.94368344 43.1469727,6.23535156 C43.0216465,6.52701969 42.9589844,6.83919104 42.9589844,7.171875 L42.9589844,10.2890625 C42.9589844,10.485027 42.8894864,10.6525058 42.7504883,10.7915039 C42.6114902,10.930502 42.4440114,11 42.2480469,11 C42.047525,11 41.8777676,10.930502 41.7387695,10.7915039 C41.5997714,10.6525058 41.5302734,10.485027 41.5302734,10.2890625 L41.5302734,4.0546875 C41.5302734,3.85872298 41.5997714,3.69124418 41.7387695,3.55224609 C41.8777676,3.413248 42.047525,3.34375 42.2480469,3.34375 C42.4440114,3.34375 42.6114902,3.413248 42.7504883,3.55224609 C42.8894864,3.69124418 42.9589844,3.85872298 42.9589844,4.0546875 Z M54.2519531,6.4609375 C54.1744788,6.21028521 54.0594083,5.98128359 53.9067383,5.77392578 C53.7540682,5.56656797 53.5763356,5.38883538 53.3735352,5.24072266 C53.1707347,5.09260994 52.9474296,4.97753947 52.7036133,4.89550781 C52.459797,4.81347615 52.2080091,4.77246094 51.9482422,4.77246094 C51.6884753,4.77246094 51.4355481,4.81347615 51.1894531,4.89550781 C50.9433581,4.97753947 50.7177745,5.09260994 50.5126953,5.24072266 C50.3076162,5.38883538 50.1298836,5.56656797 49.9794922,5.77392578 C49.8291008,5.98128359 49.7174483,6.21028521 49.6445312,6.4609375 L54.2519531,6.4609375 Z M53.9443359,8.84667969 C54.1494151,8.84667969 54.3191725,8.91389907 54.4536133,9.04833984 C54.5880541,9.18278062 54.6552734,9.35253804 54.6552734,9.55761719 C54.6552734,9.75813902 54.5869147,9.92903575 54.4501953,10.0703125 C53.7438116,10.6901073 52.9098355,11 51.9482422,11 C50.8909452,11 49.9886105,10.6263058 49.2412109,9.87890625 C48.4938114,9.13150668 48.1201172,8.22917195 48.1201172,7.171875 C48.1201172,6.11457805 48.4938114,5.21224332 49.2412109,4.46484375 C49.9886105,3.71744418 50.8909452,3.34375 51.9482422,3.34375 C52.9964245,3.34375 53.8987592,3.71744418 54.6552734,4.46484375 C55.0289732,4.83398622 55.3092439,5.24527768 55.4960938,5.69873047 C55.6829436,6.15218326 55.7763672,6.64322652 55.7763672,7.171875 C55.7763672,7.37695415 55.7068692,7.54671157 55.5678711,7.68115234 C55.428873,7.81559312 55.2591156,7.8828125 55.0585938,7.8828125 L49.6445312,7.8828125 C49.7220056,8.13346479 49.8359367,8.36246641 49.9863281,8.56982422 C50.1367195,8.77718203 50.3133128,8.95491462 50.5161133,9.10302734 C50.7189138,9.25114006 50.9422188,9.36621053 51.1860352,9.44824219 C51.4298515,9.53027385 51.6839179,9.57128906 51.9482422,9.57128906 C52.2490249,9.57128906 52.5247383,9.5257166 52.7753906,9.43457031 C53.0260429,9.34342402 53.2584625,9.20670664 53.4726562,9.02441406 C53.6093757,8.9104812 53.7666007,8.851237 53.9443359,8.84667969 Z M60.6982422,4.77246094 C60.3610009,4.77246094 60.0465509,4.83626238 59.7548828,4.96386719 C59.4632147,5.09147199 59.2102875,5.26350803 58.9960938,5.47998047 C58.7819,5.69645291 58.6121426,5.95051938 58.4868164,6.2421875 C58.3614903,6.53385562 58.2988281,6.84374836 58.2988281,7.171875 C58.2988281,7.50000164 58.3614903,7.80989438 58.4868164,8.1015625 C58.6121426,8.39323063 58.7819,8.64729709 58.9960938,8.86376953 C59.2102875,9.08024197 59.4632147,9.25227801 59.7548828,9.37988281 C60.0465509,9.50748762 60.3610009,9.57128906 60.6982422,9.57128906 C61.0309261,9.57128906 61.3430975,9.50748762 61.6347656,9.37988281 C61.9264338,9.25227801 62.1805002,9.07910266 62.3969727,8.86035156 C62.6134451,8.64160047 62.7843418,8.387534 62.909668,8.09814453 C63.0349941,7.80875506 63.0976563,7.50000164 63.0976563,7.171875 C63.0976563,6.84374836 63.0349941,6.53499494 62.909668,6.24560547 C62.7843418,5.956216 62.6134451,5.70214953 62.3969727,5.48339844 C62.1805002,5.26464734 61.9264338,5.09147199 61.6347656,4.96386719 C61.3430975,4.83626238 61.0309261,4.77246094 60.6982422,4.77246094 Z M63.0976562,10.2890625 L63.0976562,10.1523438 C62.7558577,10.4257826 62.3844421,10.6354159 61.9833984,10.78125 C61.5823548,10.9270841 61.1539736,11 60.6982422,11 C59.6409452,11 58.7386105,10.6263058 57.9912109,9.87890625 C57.2438114,9.13150668 56.8701172,8.22917195 56.8701172,7.171875 C56.8701172,6.11457805 57.2438114,5.21224332 57.9912109,4.46484375 C58.7386105,3.71744418 59.6409452,3.34375 60.6982422,3.34375 C61.7464245,3.34375 62.6487592,3.71744418 63.4052734,4.46484375 C64.152673,5.21224332 64.5263672,6.11457805 64.5263672,7.171875 L64.5263672,10.2890625 C64.5263672,10.485027 64.4568692,10.6525058 64.3178711,10.7915039 C64.178873,10.930502 64.0113942,11 63.8154297,11 C63.6149079,11 63.4451504,10.930502 63.3061523,10.7915039 C63.1671543,10.6525058 63.0976562,10.485027 63.0976562,10.2890625 Z M76.4277344,10.2822266 C76.4277344,10.4827484 76.3582364,10.6525058 76.2192383,10.7915039 C76.0802402,10.930502 75.9127614,11 75.7167969,11 C75.516275,11 75.3476569,10.930502 75.2109375,10.7915039 C75.0742181,10.6525058 75.0058594,10.4827484 75.0058594,10.2822266 L75.0058594,6.39257812 C75.0058594,6.17382703 74.9637048,5.96647233 74.8793945,5.77050781 C74.7950842,5.57454329 74.6800138,5.40250725 74.5341797,5.25439453 C74.3883456,5.10628181 74.2163096,4.98893272 74.0180664,4.90234375 C73.8198232,4.81575478 73.606772,4.77246094 73.3789062,4.77246094 C73.1555978,4.77246094 72.9459645,4.81575478 72.75,4.90234375 C72.5540355,4.98893272 72.3819994,5.1051425 72.2338867,5.25097656 C72.085774,5.39681063 71.9695642,5.56770735 71.8852539,5.76367188 C71.8009436,5.9596364 71.7587891,6.16926972 71.7587891,6.39257812 L71.7587891,10.2822266 C71.7587891,10.4827484 71.6892911,10.6525058 71.550293,10.7915039 C71.4112949,10.930502 71.2438161,11 71.0478516,11 C70.8473297,11 70.6775723,10.930502 70.5385742,10.7915039 C70.3995761,10.6525058 70.3300781,10.4827484 70.3300781,10.2822266 L70.3300781,6.39257812 C70.3300781,6.16926972 70.2867843,5.9596364 70.2001953,5.76367188 C70.1136063,5.56770735 69.9973966,5.39681063 69.8515625,5.25097656 C69.7057284,5.1051425 69.5348317,4.98893272 69.3388672,4.90234375 C69.1429027,4.81575478 68.9332693,4.77246094 68.7099609,4.77246094 C68.4866525,4.77246094 68.2770192,4.81461546 68.0810547,4.89892578 C67.8850902,4.9832361 67.7130541,5.09944587 67.5649414,5.24755859 C67.4168287,5.39567131 67.3006189,5.56770735 67.2163086,5.76367188 C67.1319983,5.9596364 67.0898438,6.16926972 67.0898438,6.39257812 L67.0898438,10.2822266 C67.0898438,10.4827484 67.0203457,10.6525058 66.8813477,10.7915039 C66.7423496,10.930502 66.5748708,11 66.3789062,11 C66.1783844,11 66.008627,10.930502 65.8696289,10.7915039 C65.7306308,10.6525058 65.6611328,10.4827484 65.6611328,10.2822266 L65.6611328,4.0546875 C65.6611328,3.85872298 65.7306308,3.69124418 65.8696289,3.55224609 C66.008627,3.413248 66.1761058,3.34375 66.3720703,3.34375 C66.5315763,3.34375 66.6728509,3.38818315 66.7958984,3.47705078 C66.9189459,3.56591841 67.003255,3.6832675 67.0488281,3.82910156 C67.5364608,3.50553224 68.0901662,3.34375 68.7099609,3.34375 C69.1656924,3.34375 69.5940735,3.43375561 69.9951172,3.61376953 C70.3961609,3.79378345 70.7470688,4.06607891 71.0478516,4.43066406 C71.6813183,3.70605106 72.4583287,3.34375 73.3789062,3.34375 C73.7936219,3.34375 74.1866843,3.42464112 74.5581055,3.58642578 C74.9295266,3.74821044 75.2530911,3.96695826 75.5288086,4.24267578 C75.8045261,4.51839331 76.0232739,4.84195778 76.1850586,5.21337891 C76.3468433,5.58480003 76.4277344,5.97786251 76.4277344,6.39257812 L76.4277344,10.2822266 Z M79.5859375,1.98339844 C79.5859375,2.21582147 79.5039071,2.41406168 79.3398438,2.578125 C79.1757804,2.74218832 78.9775402,2.82421875 78.7451172,2.82421875 C78.5126942,2.82421875 78.3144539,2.74218832 78.1503906,2.578125 C77.9863273,2.41406168 77.9042969,2.21582147 77.9042969,1.98339844 C77.9042969,1.7509754 77.9863273,1.5527352 78.1503906,1.38867188 C78.3144539,1.22460855 78.5126942,1.14257812 78.7451172,1.14257812 C78.9775402,1.14257812 79.1757804,1.22460855 79.3398438,1.38867188 C79.5039071,1.5527352 79.5859375,1.7509754 79.5859375,1.98339844 Z M78.0341797,10.2822266 L78.0341797,4.06152344 C78.0341797,3.8610016 78.1036777,3.69124418 78.2426758,3.55224609 C78.3816739,3.413248 78.5491527,3.34375 78.7451172,3.34375 C78.9410817,3.34375 79.1085605,3.413248 79.2475586,3.55224609 C79.3865567,3.69124418 79.4583333,3.8610016 79.4628906,4.06152344 L79.4628906,10.2822266 C79.4583333,10.4827484 79.3865567,10.6525058 79.2475586,10.7915039 C79.1085605,10.930502 78.9410817,11 78.7451172,11 C78.5491527,11 78.3816739,10.930502 78.2426758,10.7915039 C78.1036777,10.6525058 78.0341797,10.4827484 78.0341797,10.2822266 Z M82.3544922,4.04785156 C82.960615,3.57844817 83.673824,3.34375 84.4941406,3.34375 C84.9726586,3.34375 85.4272439,3.43717354 85.8579102,3.62402344 C86.2885764,3.81087333 86.6679671,4.0649398 86.9960938,4.38623047 C87.3242204,4.70752114 87.5839834,5.08577256 87.7753906,5.52099609 C87.9667978,5.95621962 88.0625,6.41991941 88.0625,6.91210938 L88.0625,10.2822266 C88.0625,10.4827484 87.993002,10.6525058 87.8540039,10.7915039 C87.7150058,10.930502 87.547527,11 87.3515625,11 C87.1510407,11 86.9812832,10.930502 86.8422852,10.7915039 C86.7032871,10.6525058 86.6337891,10.4827484 86.6337891,10.2822266 L86.6337891,6.91210938 C86.6337891,6.62044125 86.5768235,6.34472786 86.4628906,6.08496094 C86.3489578,5.82519401 86.1951507,5.59847102 86.0014648,5.40478516 C85.807779,5.21109929 85.581056,5.05729224 85.3212891,4.94335938 C85.0615221,4.82942651 84.7858088,4.77246094 84.4941406,4.77246094 C84.1979152,4.77246094 83.9210625,4.8282872 83.6635742,4.93994141 C83.406086,5.05159561 83.179363,5.20540267 82.9833984,5.40136719 C82.7874339,5.59733171 82.6336269,5.82519401 82.5219727,6.08496094 C82.4103185,6.34472786 82.3544922,6.62044125 82.3544922,6.91210938 L82.3544922,10.2822266 C82.3544922,10.4827484 82.2849942,10.6525058 82.1459961,10.7915039 C82.006998,10.930502 81.8395192,11 81.6435547,11 C81.4430329,11 81.2732754,10.930502 81.1342773,10.7915039 C80.9952793,10.6525058 80.9257812,10.4827484 80.9257812,10.2822266 L80.9257812,4.06152344 C80.9257812,3.86555892 80.9952793,3.69694081 81.1342773,3.55566406 C81.2732754,3.41438731 81.4430329,3.34375 81.6435547,3.34375 C81.8395192,3.34375 82.006998,3.41438731 82.1459961,3.55566406 C82.2849942,3.69694081 82.3544922,3.86100167 82.3544922,4.04785156 Z M92.9638672,4.77246094 C92.6266259,4.77246094 92.3121759,4.83626238 92.0205078,4.96386719 C91.7288397,5.09147199 91.4759125,5.26350803 91.2617188,5.47998047 C91.047525,5.69645291 90.8777676,5.95051938 90.7524414,6.2421875 C90.6271153,6.53385562 90.5644531,6.84374836 90.5644531,7.171875 C90.5644531,7.50000164 90.6271153,7.80989438 90.7524414,8.1015625 C90.8777676,8.39323063 91.047525,8.64729709 91.2617188,8.86376953 C91.4759125,9.08024197 91.7288397,9.25227801 92.0205078,9.37988281 C92.3121759,9.50748762 92.6266259,9.57128906 92.9638672,9.57128906 C93.2965511,9.57128906 93.6087225,9.50748762 93.9003906,9.37988281 C94.1920588,9.25227801 94.4461252,9.07910266 94.6625977,8.86035156 C94.8790701,8.64160047 95.0499668,8.387534 95.175293,8.09814453 C95.3006191,7.80875506 95.3632812,7.50000164 95.3632812,7.171875 C95.3632812,6.84374836 95.3006191,6.53499494 95.175293,6.24560547 C95.0499668,5.956216 94.8790701,5.70214953 94.6625977,5.48339844 C94.4461252,5.26464734 94.1920588,5.09147199 93.9003906,4.96386719 C93.6087225,4.83626238 93.2965511,4.77246094 92.9638672,4.77246094 Z M95.3632812,10.1591797 C94.6796841,10.7197294 93.8798874,11 92.9638672,11 C91.9065702,11 91.0042355,10.6263058 90.2568359,9.87890625 C89.5094364,9.13150668 89.1357422,8.22917195 89.1357422,7.171875 C89.1357422,6.11457805 89.5094364,5.21224332 90.2568359,4.46484375 C91.0042355,3.71744418 91.9065702,3.34375 92.9638672,3.34375 C94.0120495,3.34375 94.9143842,3.71744418 95.6708984,4.46484375 C96.418298,5.21224332 96.7919922,6.11457805 96.7919922,7.171875 L96.7919922,10.9726562 C96.7919922,11.3007829 96.7418625,11.6106756 96.6416016,11.9023438 C96.5413406,12.1940119 96.4023446,12.4617501 96.2246094,12.7055664 C96.0468741,12.9493827 95.8372408,13.1692699 95.5957031,13.3652344 C95.3541655,13.5611989 95.0932631,13.7263991 94.8129883,13.8608398 C94.5327134,13.9952806 94.2399104,14.098958 93.9345703,14.171875 C93.6292302,14.244792 93.3238948,14.28125 93.0185547,14.28125 C92.6539695,14.28125 92.2962257,14.2345382 91.9453125,14.1411133 C91.5943993,14.0476883 91.2617203,13.9098316 90.9472656,13.7275391 C90.6328109,13.5452465 90.3445651,13.3196628 90.0825195,13.0507812 C89.820474,12.7818997 89.5983082,12.4811215 89.4160156,12.1484375 C89.3430986,12.0436193 89.3066406,11.9160164 89.3066406,11.765625 C89.3066406,11.5605458 89.3749993,11.3907884 89.5117188,11.2563477 C89.6484382,11.1219069 89.8193349,11.0546875 90.0244141,11.0546875 C90.1611335,11.0546875 90.2739253,11.0865882 90.362793,11.1503906 C90.4516606,11.214193 90.5735669,11.3554677 90.7285156,11.5742188 C90.8834643,11.7929698 91.0201817,11.9593093 91.1386719,12.0732422 C91.6582057,12.592776 92.2848271,12.8525391 93.0185547,12.8525391 C93.7568396,12.8525391 94.3811823,12.5973333 94.8916016,12.0869141 C95.2060563,11.7040996 95.3632812,11.3326841 95.3632812,10.9726562 L95.3632812,10.1591797 Z" id="live-streaming" fill="#FFFFFF" opacity="0.511265851"></path>
            <path d="M42.2265625,60.0625 L42.2265625,60.21875 C42.6171895,59.9062484 43.0416644,59.6666675 43.5,59.5 C43.9583356,59.3333325 44.4479141,59.25 44.96875,59.25 C45.1979178,59.25 45.4440091,59.2656248 45.7070312,59.296875 C45.9700534,59.3281252 46.2122385,59.3841142 46.4335938,59.4648438 C46.654949,59.5455733 46.8385409,59.6562493 46.984375,59.796875 C47.1302091,59.9375007 47.203125,60.1197905 47.203125,60.34375 C47.203125,60.4583339 47.1809898,60.5651037 47.1367188,60.6640625 C47.0924477,60.7630213 47.0338545,60.85026 46.9609375,60.9257812 C46.8880205,61.0013025 46.8020838,61.0598956 46.703125,61.1015625 C46.6041662,61.1432294 46.4973964,61.1640625 46.3828125,61.1640625 C46.2838537,61.1640625 46.1692715,61.135417 46.0390625,61.078125 C45.7109359,60.947916 45.3541686,60.8828125 44.96875,60.8828125 C44.5885398,60.8828125 44.2317725,60.9544264 43.8984375,61.0976562 C43.5651025,61.2408861 43.2747408,61.4361967 43.0273438,61.6835938 C42.7799467,61.9309908 42.5846361,62.2213525 42.4414062,62.5546875 C42.2981764,62.8880225 42.2265625,63.2447898 42.2265625,63.625 L42.2265625,67.1875 C42.2265625,67.4114595 42.1471362,67.6028638 41.9882812,67.7617188 C41.8294263,67.9205737 41.638022,68 41.4140625,68 C41.1848947,68 40.9908862,67.9205737 40.8320312,67.7617188 C40.6731763,67.6028638 40.59375,67.4114595 40.59375,67.1875 L40.59375,60.0625 C40.59375,59.8385405 40.6731763,59.6471362 40.8320312,59.4882812 C40.9908862,59.3294263 41.1848947,59.25 41.4140625,59.25 C41.638022,59.25 41.8294263,59.3294263 41.9882812,59.4882812 C42.1471362,59.6471362 42.2265625,59.8385405 42.2265625,60.0625 Z M55.1328125,62.8125 C55.0442704,62.5260402 54.9127613,62.2643241 54.7382812,62.0273438 C54.5638012,61.7903634 54.3606782,61.5872404 54.1289062,61.4179688 C53.8971343,61.2486971 53.6419285,61.117188 53.3632812,61.0234375 C53.084634,60.929687 52.7968765,60.8828125 52.5,60.8828125 C52.2031235,60.8828125 51.9140639,60.929687 51.6328125,61.0234375 C51.3515611,61.117188 51.0937512,61.2486971 50.859375,61.4179688 C50.6249988,61.5872404 50.4218759,61.7903634 50.25,62.0273438 C50.0781241,62.2643241 49.9505213,62.5260402 49.8671875,62.8125 L55.1328125,62.8125 Z M54.78125,65.5390625 C55.0156262,65.5390625 55.2096346,65.6158846 55.3632812,65.7695312 C55.5169279,65.9231779 55.59375,66.1171863 55.59375,66.3515625 C55.59375,66.5807303 55.5156258,66.7760409 55.359375,66.9375 C54.5520793,67.6458369 53.5989638,68 52.5,68 C51.2916606,68 50.2604209,67.5729209 49.40625,66.71875 C48.5520791,65.8645791 48.125,64.8333394 48.125,63.625 C48.125,62.4166606 48.5520791,61.3854209 49.40625,60.53125 C50.2604209,59.6770791 51.2916606,59.25 52.5,59.25 C53.6979227,59.25 54.7291623,59.6770791 55.59375,60.53125 C56.0208355,60.9531271 56.3411448,61.4231745 56.5546875,61.9414062 C56.7682302,62.459638 56.875,63.0208303 56.875,63.625 C56.875,63.8593762 56.7955737,64.0533846 56.6367188,64.2070312 C56.4778638,64.3606779 56.2838553,64.4375 56.0546875,64.4375 L49.8671875,64.4375 C49.9557296,64.7239598 50.0859366,64.9856759 50.2578125,65.2226562 C50.4296884,65.4596366 50.6315093,65.6627596 50.8632812,65.8320312 C51.0950532,66.0013029 51.350259,66.132812 51.6289062,66.2265625 C51.9075535,66.320313 52.1979152,66.3671875 52.5,66.3671875 C52.8437517,66.3671875 53.1588527,66.3151047 53.4453125,66.2109375 C53.7317723,66.1067703 53.9973946,65.9505219 54.2421875,65.7421875 C54.3984383,65.6119785 54.578124,65.5442709 54.78125,65.5390625 Z M62.5,60.8828125 C62.1145814,60.8828125 61.75521,60.9557284 61.421875,61.1015625 C61.08854,61.2473966 60.7994804,61.4440092 60.5546875,61.6914062 C60.3098946,61.9388033 60.1158861,62.229165 59.9726562,62.5625 C59.8294264,62.895835 59.7578125,63.2499981 59.7578125,63.625 C59.7578125,64.0000019 59.8294264,64.354165 59.9726562,64.6875 C60.1158861,65.020835 60.3098946,65.3111967 60.5546875,65.5585938 C60.7994804,65.8059908 61.08854,66.0026034 61.421875,66.1484375 C61.75521,66.2942716 62.1145814,66.3671875 62.5,66.3671875 C62.8802102,66.3671875 63.2369775,66.2942716 63.5703125,66.1484375 C63.9036475,66.0026034 64.1940092,65.8046887 64.4414062,65.5546875 C64.6888033,65.3046863 64.8841139,65.0143246 65.0273438,64.6835938 C65.1705736,64.3528629 65.2421875,64.0000019 65.2421875,63.625 C65.2421875,63.2499981 65.1705736,62.8971371 65.0273438,62.5664062 C64.8841139,62.2356754 64.6888033,61.9453137 64.4414062,61.6953125 C64.1940092,61.4453113 63.9036475,61.2473966 63.5703125,61.1015625 C63.2369775,60.9557284 62.8802102,60.8828125 62.5,60.8828125 Z M65.2421875,67.0390625 C64.4609336,67.6796907 63.5468802,68 62.5,68 C61.2916606,68 60.2604209,67.5729209 59.40625,66.71875 C58.5520791,65.8645791 58.125,64.8333394 58.125,63.625 C58.125,62.4166606 58.5520791,61.3854209 59.40625,60.53125 C60.2604209,59.6770791 61.2916606,59.25 62.5,59.25 C63.6979227,59.25 64.7291623,59.6770791 65.59375,60.53125 C66.4479209,61.3854209 66.875,62.4166606 66.875,63.625 L66.875,67.96875 C66.875,68.3437519 66.8177089,68.697915 66.703125,69.03125 C66.5885411,69.364585 66.4296885,69.6705715 66.2265625,69.9492188 C66.0234365,70.227866 65.7838555,70.4791655 65.5078125,70.703125 C65.2317695,70.9270845 64.9335954,71.1158846 64.6132812,71.2695312 C64.2929671,71.4231779 63.9583351,71.5416662 63.609375,71.625 C63.2604149,71.7083338 62.9114601,71.75 62.5625,71.75 C62.1458313,71.75 61.7369812,71.6966151 61.3359375,71.5898438 C60.9348938,71.4830724 60.5546893,71.3255219 60.1953125,71.1171875 C59.8359357,70.9088531 59.5065119,70.6510432 59.2070312,70.34375 C58.9075506,70.0364568 58.6536469,69.6927102 58.4453125,69.3125 C58.3619787,69.1927077 58.3203125,69.0468759 58.3203125,68.875 C58.3203125,68.6406238 58.3984367,68.4466154 58.5546875,68.2929688 C58.7109383,68.1393221 58.9062488,68.0625 59.140625,68.0625 C59.2968758,68.0625 59.4257807,68.098958 59.5273438,68.171875 C59.6289068,68.244792 59.7682283,68.4062488 59.9453125,68.65625 C60.1223967,68.9062512 60.2786452,69.0963535 60.4140625,69.2265625 C61.0078155,69.8203155 61.7239541,70.1171875 62.5625,70.1171875 C63.4062542,70.1171875 64.1197887,69.8255238 64.703125,69.2421875 C65.0625018,68.8046853 65.2421875,68.3802104 65.2421875,67.96875 L65.2421875,67.0390625 Z M70.3359375,57.6953125 C70.3359375,57.9609388 70.2421884,58.1874991 70.0546875,58.375 C69.8671866,58.5625009 69.6406263,58.65625 69.375,58.65625 C69.1093737,58.65625 68.8828134,58.5625009 68.6953125,58.375 C68.5078116,58.1874991 68.4140625,57.9609388 68.4140625,57.6953125 C68.4140625,57.4296862 68.5078116,57.2031259 68.6953125,57.015625 C68.8828134,56.8281241 69.1093737,56.734375 69.375,56.734375 C69.6406263,56.734375 69.8671866,56.8281241 70.0546875,57.015625 C70.2421884,57.2031259 70.3359375,57.4296862 70.3359375,57.6953125 Z M68.5625,67.1796875 L68.5625,60.0703125 C68.5625,59.8411447 68.6419263,59.6471362 68.8007812,59.4882812 C68.9596362,59.3294263 69.1510405,59.25 69.375,59.25 C69.5989595,59.25 69.7903638,59.3294263 69.9492188,59.4882812 C70.1080737,59.6471362 70.1901041,59.8411447 70.1953125,60.0703125 L70.1953125,67.1796875 C70.1901041,67.4088553 70.1080737,67.6028638 69.9492188,67.7617188 C69.7903638,67.9205737 69.5989595,68 69.375,68 C69.1510405,68 68.9596362,67.9205737 68.8007812,67.7617188 C68.6419263,67.6028638 68.5625,67.4088553 68.5625,67.1796875 Z M73.46875,63.8359375 C72.9791642,63.6484366 72.6354177,63.4557302 72.4375,63.2578125 L72.4453125,63.2578125 C72.0494772,62.8567688 71.8515625,62.3854194 71.8515625,61.84375 C71.8515625,61.4479147 71.9570302,61.0898454 72.1679688,60.7695312 C72.3789073,60.4492171 72.6536441,60.1770845 72.9921875,59.953125 C73.3307309,59.7291655 73.7122375,59.5559902 74.1367188,59.4335938 C74.5612,59.3111973 74.986977,59.25 75.4140625,59.25 C76.7161523,59.25 77.8333287,59.7734323 78.765625,60.8203125 C78.8750005,60.9557298 78.9296875,61.1197907 78.9296875,61.3125 C78.9296875,61.5468762 78.8528654,61.7408846 78.6992188,61.8945312 C78.5455721,62.0481779 78.3515637,62.125 78.1171875,62.125 C77.95052,62.125 77.8085943,62.0781255 77.6914062,61.984375 C77.5742182,61.8906245 77.460938,61.789063 77.3515625,61.6796875 C76.8203098,61.1484348 76.174483,60.8828125 75.4140625,60.8828125 C74.6640588,60.8828125 74.0651064,61.1119769 73.6171875,61.5703125 C73.5338537,61.6536462 73.4921875,61.7682284 73.4921875,61.9140625 C73.4921875,62.0598966 73.5598952,62.1588539 73.6953125,62.2109375 L77.3515625,63.4140625 C77.8619817,63.6119802 78.2057283,63.8046866 78.3828125,63.9921875 L78.375,63.9921875 C78.7708353,64.3932312 78.96875,64.8645806 78.96875,65.40625 C78.96875,65.8072937 78.8632823,66.1666651 78.6523438,66.484375 C78.4414052,66.8020849 78.1666684,67.0742176 77.828125,67.3007812 C77.4895816,67.5273449 77.1093771,67.7005202 76.6875,67.8203125 C76.2656229,67.9401048 75.841148,68 75.4140625,68 C74.1015559,68 72.9843796,67.481776 72.0625,66.4453125 C71.9479161,66.2942701 71.890625,66.1250009 71.890625,65.9375 C71.890625,65.7031238 71.9674471,65.5091154 72.1210938,65.3554688 C72.2747404,65.2018221 72.4687488,65.125 72.703125,65.125 C72.8750009,65.125 73.0208327,65.1757807 73.140625,65.2773438 C73.2604173,65.3789068 73.3697912,65.476562 73.46875,65.5703125 C74.0000027,66.1015652 74.6484337,66.3671875 75.4140625,66.3671875 C76.1588579,66.3671875 76.7578102,66.1328148 77.2109375,65.6640625 C77.2890629,65.5755204 77.328125,65.4687506 77.328125,65.34375 C77.328125,65.1979159 77.2578132,65.0963545 77.1171875,65.0390625 L73.46875,63.8359375 Z M80.921875,59.25 L81.2890625,59.25 L81.2890625,56.3125 C81.2890625,56.0885405 81.3684888,55.8971362 81.5273438,55.7382812 C81.6861987,55.5794263 81.8802072,55.5 82.109375,55.5 C82.3333345,55.5 82.5247388,55.5794263 82.6835938,55.7382812 C82.8424487,55.8971362 82.921875,56.0885405 82.921875,56.3125 L82.921875,59.25 L83.8984375,59.25 C84.122397,59.25 84.3124992,59.3294263 84.46875,59.4882812 C84.6250008,59.6471362 84.703125,59.8385405 84.703125,60.0625 C84.703125,60.2916678 84.6250008,60.4856763 84.46875,60.6445312 C84.3124992,60.8033862 84.122397,60.8828125 83.8984375,60.8828125 L82.921875,60.8828125 L82.921875,64.8125 C82.921875,65.8489635 83.4427031,66.3671875 84.484375,66.3671875 C84.7083345,66.3671875 84.8984367,66.4466138 85.0546875,66.6054688 C85.2109383,66.7643237 85.2890625,66.955728 85.2890625,67.1796875 C85.2890625,67.4088553 85.2109383,67.6028638 85.0546875,67.7617188 C84.8984367,67.9205737 84.7083345,68 84.484375,68 C82.354156,68 81.2890625,66.9375106 81.2890625,64.8125 L81.2890625,60.8828125 L80.921875,60.8828125 C80.7031239,60.8828125 80.5143237,60.8033862 80.3554688,60.6445312 C80.1966138,60.4856763 80.1171875,60.2916678 80.1171875,60.0625 C80.1171875,59.8385405 80.1966138,59.6471362 80.3554688,59.4882812 C80.5143237,59.3294263 80.7031239,59.25 80.921875,59.25 Z M92.9375,62.8125 C92.8489579,62.5260402 92.7174488,62.2643241 92.5429688,62.0273438 C92.3684887,61.7903634 92.1653657,61.5872404 91.9335938,61.4179688 C91.7018218,61.2486971 91.446616,61.117188 91.1679688,61.0234375 C90.8893215,60.929687 90.601564,60.8828125 90.3046875,60.8828125 C90.007811,60.8828125 89.7187514,60.929687 89.4375,61.0234375 C89.1562486,61.117188 88.8984387,61.2486971 88.6640625,61.4179688 C88.4296863,61.5872404 88.2265634,61.7903634 88.0546875,62.0273438 C87.8828116,62.2643241 87.7552088,62.5260402 87.671875,62.8125 L92.9375,62.8125 Z M92.5859375,65.5390625 C92.8203137,65.5390625 93.0143221,65.6158846 93.1679688,65.7695312 C93.3216154,65.9231779 93.3984375,66.1171863 93.3984375,66.3515625 C93.3984375,66.5807303 93.3203133,66.7760409 93.1640625,66.9375 C92.3567668,67.6458369 91.4036513,68 90.3046875,68 C89.0963481,68 88.0651084,67.5729209 87.2109375,66.71875 C86.3567666,65.8645791 85.9296875,64.8333394 85.9296875,63.625 C85.9296875,62.4166606 86.3567666,61.3854209 87.2109375,60.53125 C88.0651084,59.6770791 89.0963481,59.25 90.3046875,59.25 C91.5026102,59.25 92.5338498,59.6770791 93.3984375,60.53125 C93.825523,60.9531271 94.1458323,61.4231745 94.359375,61.9414062 C94.5729177,62.459638 94.6796875,63.0208303 94.6796875,63.625 C94.6796875,63.8593762 94.6002612,64.0533846 94.4414062,64.2070312 C94.2825513,64.3606779 94.0885428,64.4375 93.859375,64.4375 L87.671875,64.4375 C87.7604171,64.7239598 87.8906241,64.9856759 88.0625,65.2226562 C88.2343759,65.4596366 88.4361968,65.6627596 88.6679688,65.8320312 C88.8997407,66.0013029 89.1549465,66.132812 89.4335938,66.2265625 C89.712241,66.320313 90.0026027,66.3671875 90.3046875,66.3671875 C90.6484392,66.3671875 90.9635402,66.3151047 91.25,66.2109375 C91.5364598,66.1067703 91.8020821,65.9505219 92.046875,65.7421875 C92.2031258,65.6119785 92.3828115,65.5442709 92.5859375,65.5390625 Z M97.53125,60.0625 L97.53125,60.21875 C97.921877,59.9062484 98.3463519,59.6666675 98.8046875,59.5 C99.2630231,59.3333325 99.7526016,59.25 100.273438,59.25 C100.502605,59.25 100.748697,59.2656248 101.011719,59.296875 C101.274741,59.3281252 101.516926,59.3841142 101.738281,59.4648438 C101.959637,59.5455733 102.143228,59.6562493 102.289062,59.796875 C102.434897,59.9375007 102.507812,60.1197905 102.507812,60.34375 C102.507812,60.4583339 102.485677,60.5651037 102.441406,60.6640625 C102.397135,60.7630213 102.338542,60.85026 102.265625,60.9257812 C102.192708,61.0013025 102.106771,61.0598956 102.007812,61.1015625 C101.908854,61.1432294 101.802084,61.1640625 101.6875,61.1640625 C101.588541,61.1640625 101.473959,61.135417 101.34375,61.078125 C101.015623,60.947916 100.658856,60.8828125 100.273438,60.8828125 C99.8932273,60.8828125 99.53646,60.9544264 99.203125,61.0976562 C98.86979,61.2408861 98.5794283,61.4361967 98.3320312,61.6835938 C98.0846342,61.9309908 97.8893236,62.2213525 97.7460938,62.5546875 C97.6028639,62.8880225 97.53125,63.2447898 97.53125,63.625 L97.53125,67.1875 C97.53125,67.4114595 97.4518237,67.6028638 97.2929688,67.7617188 C97.1341138,67.9205737 96.9427095,68 96.71875,68 C96.4895822,68 96.2955737,67.9205737 96.1367188,67.7617188 C95.9778638,67.6028638 95.8984375,67.4114595 95.8984375,67.1875 L95.8984375,60.0625 C95.8984375,59.8385405 95.9778638,59.6471362 96.1367188,59.4882812 C96.2955737,59.3294263 96.4895822,59.25 96.71875,59.25 C96.9427095,59.25 97.1341138,59.3294263 97.2929688,59.4882812 C97.4518237,59.6471362 97.53125,59.8385405 97.53125,60.0625 Z M109.742188,60.0546875 C110.434899,59.5182265 111.249995,59.25 112.1875,59.25 C112.734378,59.25 113.253904,59.3567698 113.746094,59.5703125 C114.238284,59.7838552 114.671873,60.0742169 115.046875,60.4414062 C115.421877,60.8085956 115.718749,61.2408829 115.9375,61.7382812 C116.156251,62.2356796 116.265625,62.7656222 116.265625,63.328125 L116.265625,67.1796875 C116.265625,67.4088553 116.186199,67.6028638 116.027344,67.7617188 C115.868489,67.9205737 115.677084,68 115.453125,68 C115.223957,68 115.029949,67.9205737 114.871094,67.7617188 C114.712239,67.6028638 114.632812,67.4088553 114.632812,67.1796875 L114.632812,63.328125 C114.632812,62.99479 114.567709,62.679689 114.4375,62.3828125 C114.307291,62.085936 114.131512,61.826824 113.910156,61.6054688 C113.688801,61.3841135 113.429689,61.208334 113.132812,61.078125 C112.835936,60.947916 112.520835,60.8828125 112.1875,60.8828125 C111.848957,60.8828125 111.532554,60.9466139 111.238281,61.0742188 C110.944009,61.2018236 110.684897,61.377603 110.460938,61.6015625 C110.236978,61.825522 110.061199,62.085936 109.933594,62.3828125 C109.805989,62.679689 109.742188,62.99479 109.742188,63.328125 L109.742188,67.1796875 C109.742188,67.4088553 109.662761,67.6028638 109.503906,67.7617188 C109.345051,67.9205737 109.153647,68 108.929688,68 C108.70052,68 108.506511,67.9205737 108.347656,67.7617188 C108.188801,67.6028638 108.109375,67.4088553 108.109375,67.1796875 L108.109375,60.0703125 C108.109375,59.846353 108.188801,59.6536466 108.347656,59.4921875 C108.506511,59.3307284 108.70052,59.25 108.929688,59.25 C109.153647,59.25 109.345051,59.3307284 109.503906,59.4921875 C109.662761,59.6536466 109.742188,59.8411448 109.742188,60.0546875 Z M126.242188,63.625 C126.242188,64.8437561 125.815108,65.8749958 124.960938,66.71875 C124.09635,67.5729209 123.06511,68 121.867188,68 C120.658848,68 119.627608,67.5729209 118.773438,66.71875 C117.919267,65.8645791 117.492188,64.8333394 117.492188,63.625 C117.492188,62.4166606 117.919267,61.3854209 118.773438,60.53125 C119.627608,59.6770791 120.658848,59.25 121.867188,59.25 C123.06511,59.25 124.09635,59.6770791 124.960938,60.53125 C125.388023,60.9583355 125.70703,61.4296849 125.917969,61.9453125 C126.128907,62.4609401 126.236979,63.0208303 126.242188,63.625 Z M121.867188,60.8828125 C121.481769,60.8828125 121.122398,60.9557284 120.789062,61.1015625 C120.455727,61.2473966 120.166668,61.4440092 119.921875,61.6914062 C119.677082,61.9388033 119.483074,62.229165 119.339844,62.5625 C119.196614,62.895835 119.125,63.2499981 119.125,63.625 C119.125,64.0000019 119.196614,64.354165 119.339844,64.6875 C119.483074,65.020835 119.677082,65.3111967 119.921875,65.5585938 C120.166668,65.8059908 120.455727,66.0026034 120.789062,66.1484375 C121.122398,66.2942716 121.481769,66.3671875 121.867188,66.3671875 C122.247398,66.3671875 122.604165,66.2942716 122.9375,66.1484375 C123.270835,66.0026034 123.561197,65.8046887 123.808594,65.5546875 C124.055991,65.3046863 124.251301,65.0143246 124.394531,64.6835938 C124.537761,64.3528629 124.609375,64.0000019 124.609375,63.625 C124.609375,63.2499981 124.537761,62.8971371 124.394531,62.5664062 C124.251301,62.2356754 124.055991,61.9453137 123.808594,61.6953125 C123.561197,61.4453113 123.270835,61.2473966 122.9375,61.1015625 C122.604165,60.9557284 122.247398,60.8828125 121.867188,60.8828125 Z M133.085938,59.25 C133.471356,59.25 133.73177,59.4505188 133.867188,59.8515625 L135.453125,64.609375 L137.09375,59.703125 C137.135417,59.5677077 137.218749,59.4583338 137.34375,59.375 C137.468751,59.2916662 137.630207,59.25 137.828125,59.25 C137.942709,59.25 138.049479,59.2708331 138.148438,59.3125 C138.247396,59.3541669 138.333333,59.41276 138.40625,59.4882812 C138.479167,59.5638025 138.53776,59.6510412 138.582031,59.75 C138.626302,59.8489588 138.648438,59.9531245 138.648438,60.0625 C138.648438,60.1614588 138.627604,60.2656245 138.585938,60.375 L136.21875,67.4765625 C136.171875,67.6276049 136.085938,67.7526037 135.960938,67.8515625 C135.835937,67.9505213 135.666668,68 135.453125,68 C135.270832,68 135.109376,67.9479172 134.96875,67.84375 C134.828124,67.7395828 134.736979,67.6171882 134.695312,67.4765625 L133.085938,62.6484375 L131.476562,67.4765625 C131.429687,67.6276049 131.335938,67.7526037 131.195312,67.8515625 C131.054687,67.9505213 130.89323,68 130.710938,68 C130.528645,68 130.36849,67.9505213 130.230469,67.8515625 C130.092447,67.7526037 129.997396,67.6276049 129.945312,67.4765625 L127.578125,60.375 C127.541666,60.2604161 127.523438,60.1562505 127.523438,60.0625 C127.523438,59.9531245 127.544271,59.8489588 127.585938,59.75 C127.627604,59.6510412 127.684895,59.5638025 127.757812,59.4882812 C127.83073,59.41276 127.916666,59.3541669 128.015625,59.3125 C128.114584,59.2708331 128.221354,59.25 128.335938,59.25 C128.523438,59.25 128.680989,59.2942704 128.808594,59.3828125 C128.936199,59.4713546 129.023437,59.5781244 129.070312,59.703125 L130.710938,64.6015625 L132.296875,59.8515625 C132.432292,59.4505188 132.695311,59.25 133.085938,59.25 Z" id="register-now" fill="#FFFFFF"></path>
            <path d="M180.375,29.7724609 C180.037759,29.7724609 179.723309,29.8362624 179.431641,29.9638672 C179.139972,30.091472 178.887045,30.263508 178.672852,30.4799805 C178.458658,30.6964529 178.2889,30.9505194 178.163574,31.2421875 C178.038248,31.5338556 177.975586,31.8437484 177.975586,32.171875 C177.975586,32.5000016 178.038248,32.8098944 178.163574,33.1015625 C178.2889,33.3932306 178.458658,33.6472971 178.672852,33.8637695 C178.887045,34.080242 179.139972,34.252278 179.431641,34.3798828 C179.723309,34.5074876 180.037759,34.5712891 180.375,34.5712891 C180.707684,34.5712891 181.019855,34.5074876 181.311523,34.3798828 C181.603192,34.252278 181.857258,34.0791027 182.07373,33.8603516 C182.290203,33.6416005 182.4611,33.387534 182.586426,33.0981445 C182.711752,32.8087551 182.774414,32.5000016 182.774414,32.171875 C182.774414,31.8437484 182.711752,31.5349949 182.586426,31.2456055 C182.4611,30.956216 182.290203,30.7021495 182.07373,30.4833984 C181.857258,30.2646473 181.603192,30.091472 181.311523,29.9638672 C181.019855,29.8362624 180.707684,29.7724609 180.375,29.7724609 Z M182.774414,35.2890625 L182.774414,35.1523438 C182.432615,35.4257826 182.0612,35.6354159 181.660156,35.78125 C181.259113,35.9270841 180.830731,36 180.375,36 C179.317703,36 178.415368,35.6263058 177.667969,34.8789062 C176.920569,34.1315067 176.546875,33.229172 176.546875,32.171875 C176.546875,31.114578 176.920569,30.2122433 177.667969,29.4648438 C178.415368,28.7174442 179.317703,28.34375 180.375,28.34375 C181.423182,28.34375 182.325517,28.7174442 183.082031,29.4648438 C183.829431,30.2122433 184.203125,31.114578 184.203125,32.171875 L184.203125,35.2890625 C184.203125,35.485027 184.133627,35.6525058 183.994629,35.7915039 C183.855631,35.930502 183.688152,36 183.492188,36 C183.291666,36 183.121908,35.930502 182.98291,35.7915039 C182.843912,35.6525058 182.774414,35.485027 182.774414,35.2890625 Z M186.725586,32.171875 C186.725586,32.5000016 186.788248,32.8098944 186.913574,33.1015625 C187.0389,33.3932306 187.208658,33.6472971 187.422852,33.8637695 C187.637045,34.080242 187.889972,34.252278 188.181641,34.3798828 C188.473309,34.5074876 188.787759,34.5712891 189.125,34.5712891 C189.457684,34.5712891 189.769855,34.5074876 190.061523,34.3798828 C190.353192,34.252278 190.607258,34.0791027 190.82373,33.8603516 C191.040203,33.6416005 191.2111,33.387534 191.336426,33.0981445 C191.461752,32.8087551 191.524414,32.5000016 191.524414,32.171875 C191.524414,31.8437484 191.461752,31.5349949 191.336426,31.2456055 C191.2111,30.956216 191.040203,30.7021495 190.82373,30.4833984 C190.607258,30.2646473 190.353192,30.091472 190.061523,29.9638672 C189.769855,29.8362624 189.457684,29.7724609 189.125,29.7724609 C188.787759,29.7724609 188.473309,29.8362624 188.181641,29.9638672 C187.889972,30.091472 187.637045,30.263508 187.422852,30.4799805 C187.208658,30.6964529 187.0389,30.9505194 186.913574,31.2421875 C186.788248,31.5338556 186.725586,31.8437484 186.725586,32.171875 Z M189.125,36 C188.20898,36 187.409183,35.7197294 186.725586,35.1591797 L186.725586,38.5703125 C186.725586,38.7753917 186.656088,38.9451491 186.51709,39.0795898 C186.378092,39.2140306 186.208334,39.28125 186.007812,39.28125 C185.802733,39.28125 185.632976,39.2140306 185.498535,39.0795898 C185.364094,38.9451491 185.296875,38.7753917 185.296875,38.5703125 L185.296875,32.171875 C185.296875,31.114578 185.670569,30.2122433 186.417969,29.4648438 C187.165368,28.7174442 188.067703,28.34375 189.125,28.34375 C190.173182,28.34375 191.075517,28.7174442 191.832031,29.4648438 C192.205731,29.8339862 192.486002,30.2452777 192.672852,30.6987305 C192.859701,31.1521833 192.953125,31.6432265 192.953125,32.171875 C192.953125,33.2382866 192.579431,34.1406213 191.832031,34.8789062 C191.449217,35.2571633 191.033368,35.5385733 190.584473,35.7231445 C190.135577,35.9077158 189.649091,36 189.125,36 Z M195.448242,29.0546875 L195.448242,29.1914062 C195.790041,28.9179674 196.161456,28.7083341 196.5625,28.5625 C196.963544,28.4166659 197.391925,28.34375 197.847656,28.34375 C198.048178,28.34375 198.263508,28.3574217 198.493652,28.3847656 C198.723797,28.4121095 198.935709,28.4610999 199.129395,28.5317383 C199.32308,28.6023767 199.483723,28.6992181 199.611328,28.8222656 C199.738933,28.9453131 199.802734,29.1048167 199.802734,29.3007812 C199.802734,29.4010422 199.783366,29.4944657 199.744629,29.5810547 C199.705892,29.6676437 199.654623,29.7439775 199.59082,29.8100586 C199.527018,29.8761397 199.451823,29.9274087 199.365234,29.9638672 C199.278645,30.0003257 199.185222,30.0185547 199.084961,30.0185547 C198.998372,30.0185547 198.898113,29.9934898 198.78418,29.9433594 C198.497069,29.8294265 198.184898,29.7724609 197.847656,29.7724609 C197.514972,29.7724609 197.202801,29.8351231 196.911133,29.9604492 C196.619465,30.0857754 196.365398,30.2566721 196.148926,30.4731445 C195.932453,30.689617 195.761557,30.9436834 195.63623,31.2353516 C195.510904,31.5270197 195.448242,31.839191 195.448242,32.171875 L195.448242,35.2890625 C195.448242,35.485027 195.378744,35.6525058 195.239746,35.7915039 C195.100748,35.930502 194.933269,36 194.737305,36 C194.536783,36 194.367025,35.930502 194.228027,35.7915039 C194.089029,35.6525058 194.019531,35.485027 194.019531,35.2890625 L194.019531,29.0546875 C194.019531,28.858723 194.089029,28.6912442 194.228027,28.5522461 C194.367025,28.413248 194.536783,28.34375 194.737305,28.34375 C194.933269,28.34375 195.100748,28.413248 195.239746,28.5522461 C195.378744,28.6912442 195.448242,28.858723 195.448242,29.0546875 Z M202.543945,26.9833984 C202.543945,27.2158215 202.461915,27.4140617 202.297852,27.578125 C202.133788,27.7421883 201.935548,27.8242188 201.703125,27.8242188 C201.470702,27.8242188 201.272462,27.7421883 201.108398,27.578125 C200.944335,27.4140617 200.862305,27.2158215 200.862305,26.9833984 C200.862305,26.7509754 200.944335,26.5527352 201.108398,26.3886719 C201.272462,26.2246086 201.470702,26.1425781 201.703125,26.1425781 C201.935548,26.1425781 202.133788,26.2246086 202.297852,26.3886719 C202.461915,26.5527352 202.543945,26.7509754 202.543945,26.9833984 Z M200.992188,35.2822266 L200.992188,29.0615234 C200.992188,28.8610016 201.061686,28.6912442 201.200684,28.5522461 C201.339682,28.413248 201.50716,28.34375 201.703125,28.34375 C201.89909,28.34375 202.066568,28.413248 202.205566,28.5522461 C202.344564,28.6912442 202.416341,28.8610016 202.420898,29.0615234 L202.420898,35.2822266 C202.416341,35.4827484 202.344564,35.6525058 202.205566,35.7915039 C202.066568,35.930502 201.89909,36 201.703125,36 C201.50716,36 201.339682,35.930502 201.200684,35.7915039 C201.061686,35.6525058 200.992188,35.4827484 200.992188,35.2822266 Z M203.822266,35.2890625 L203.822266,25.7802734 C203.822266,25.5797516 203.889485,25.4099942 204.023926,25.2709961 C204.158367,25.131998 204.328124,25.0625 204.533203,25.0625 C204.738282,25.0625 204.90804,25.131998 205.04248,25.2709961 C205.176921,25.4099942 205.244141,25.5797516 205.244141,25.7802734 L205.244141,34.5712891 L205.572266,34.5712891 C205.76823,34.5712891 205.935709,34.6407871 206.074707,34.7797852 C206.213705,34.9187832 206.283203,35.0885407 206.283203,35.2890625 C206.283203,35.485027 206.213705,35.6525058 206.074707,35.7915039 C205.935709,35.930502 205.76823,36 205.572266,36 L204.526367,36 C204.330403,36 204.164063,35.930502 204.027344,35.7915039 C203.890624,35.6525058 203.822266,35.485027 203.822266,35.2890625 Z M212.695312,35.2890625 L212.695312,26.7783203 C212.558593,26.8238935 212.41504,26.8751625 212.264648,26.9321289 C212.114257,26.9890953 211.97754,27.0175781 211.854492,27.0175781 C211.649413,27.0175781 211.479656,26.9503587 211.345215,26.815918 C211.210774,26.6814772 211.143555,26.5117198 211.143555,26.3066406 C211.143555,26.1608066 211.181152,26.030925 211.256348,25.9169922 C211.331543,25.8030593 211.446614,25.7096358 211.601562,25.6367188 L213.166992,25.1171875 C213.249024,25.0852863 213.331054,25.0693359 213.413086,25.0693359 C213.618165,25.0693359 213.787923,25.1388339 213.922363,25.277832 C214.056804,25.4168301 214.124023,25.5865875 214.124023,25.7871094 L214.124023,35.2890625 C214.124023,35.485027 214.054525,35.6525058 213.915527,35.7915039 C213.776529,35.930502 213.606772,36 213.40625,36 C213.210285,36 213.042807,35.930502 212.903809,35.7915039 C212.764811,35.6525058 212.695312,35.485027 212.695312,35.2890625 Z M215.210938,34.8447266 L219.873047,26.4912109 L215.887695,26.4912109 C215.682616,26.4912109 215.512859,26.4239916 215.378418,26.2895508 C215.243977,26.15511 215.176758,25.9853526 215.176758,25.7802734 C215.176758,25.5797516 215.243977,25.4099942 215.378418,25.2709961 C215.512859,25.131998 215.682616,25.0625 215.887695,25.0625 L221.076172,25.0625 C221.176433,25.0625 221.269856,25.0818683 221.356445,25.1206055 C221.443034,25.1593426 221.518229,25.2106117 221.582031,25.2744141 C221.645834,25.3382165 221.697103,25.413411 221.73584,25.5 C221.774577,25.586589 221.793945,25.6800125 221.793945,25.7802734 C221.793945,25.9033209 221.759766,26.0309238 221.691406,26.1630859 L216.441406,35.6035156 C216.404948,35.6718753 216.359375,35.7333982 216.304688,35.7880859 C216.163411,35.9293627 215.992514,36 215.791992,36 C215.596028,36 215.428549,35.930502 215.289551,35.7915039 C215.150553,35.6525058 215.081055,35.485027 215.081055,35.2890625 C215.081055,35.1432284 215.124349,34.9951179 215.210938,34.8447266 Z M223.427734,32.8828125 C223.222655,32.8828125 223.052898,32.8155931 222.918457,32.6811523 C222.784016,32.5467116 222.716797,32.3769542 222.716797,32.171875 C222.716797,31.9667958 222.784016,31.7970384 222.918457,31.6625977 C223.052898,31.5281569 223.222655,31.4609375 223.427734,31.4609375 L226.544922,31.4609375 C226.750001,31.4609375 226.919758,31.5281569 227.054199,31.6625977 C227.18864,31.7970384 227.255859,31.9667958 227.255859,32.171875 C227.255859,32.3769542 227.18864,32.5467116 227.054199,32.6811523 C226.919758,32.8155931 226.750001,32.8828125 226.544922,32.8828125 L223.427734,32.8828125 Z M228.212891,28.3779297 C228.212891,27.9221982 228.300618,27.4938171 228.476074,27.0927734 C228.651531,26.6917298 228.889647,26.3408218 229.19043,26.0400391 C229.491212,25.7392563 229.84212,25.5022795 230.243164,25.3291016 C230.644208,25.1559236 231.07031,25.0693359 231.521484,25.0693359 C231.972659,25.0693359 232.398761,25.1582022 232.799805,25.3359375 C233.200848,25.5136728 233.551756,25.7529282 233.852539,26.0537109 C234.153322,26.3544937 234.391438,26.7054016 234.566895,27.1064453 C234.742351,27.507489 234.830078,27.9313129 234.830078,28.3779297 C234.830078,28.8336611 234.746908,29.257485 234.580566,29.6494141 C234.414224,30.0413431 234.17383,30.3968083 233.859375,30.7158203 L230.537109,34.5712891 L234.112305,34.5712891 C234.312827,34.5712891 234.482584,34.6419264 234.621582,34.7832031 C234.76058,34.9244799 234.830078,35.093098 234.830078,35.2890625 C234.830078,35.485027 234.76058,35.6525058 234.621582,35.7915039 C234.482584,35.930502 234.312827,36 234.112305,36 L228.923828,36 C228.823567,36 228.730144,35.981771 228.643555,35.9453125 C228.556966,35.908854 228.481771,35.857585 228.417969,35.7915039 C228.354166,35.7254228 228.304037,35.649089 228.267578,35.5625 C228.23112,35.475911 228.212891,35.3847661 228.212891,35.2890625 C228.212891,35.0839833 228.278971,34.9153652 228.411133,34.7832031 L232.84082,29.7246094 C233.21452,29.3509096 233.401367,28.9020208 233.401367,28.3779297 C233.401367,28.1227201 233.351237,27.881186 233.250977,27.6533203 C233.150716,27.4254546 233.015138,27.2260751 232.844238,27.0551758 C232.673339,26.8842765 232.473959,26.7486984 232.246094,26.6484375 C232.018228,26.5481766 231.776694,26.4980469 231.521484,26.4980469 C231.261717,26.4980469 231.017905,26.5470373 230.790039,26.6450195 C230.562173,26.7430018 230.362794,26.8763012 230.191895,27.0449219 C230.020995,27.2135425 229.886556,27.4117827 229.788574,27.6396484 C229.690592,27.8675142 229.641602,28.1136054 229.641602,28.3779297 C229.641602,28.5738942 229.572104,28.741373 229.433105,28.8803711 C229.294107,29.0193692 229.12435,29.0888672 228.923828,29.0888672 C228.727864,29.0888672 228.560385,29.0193692 228.421387,28.8803711 C228.282389,28.741373 228.212891,28.5738942 228.212891,28.3779297 Z M235.869141,30.5244141 C235.869141,29.6630816 235.944335,28.8940464 236.094727,28.2172852 C236.245118,27.540524 236.461587,26.9674503 236.744141,26.4980469 C237.026694,26.0286435 237.375323,25.6697604 237.790039,25.4213867 C238.204755,25.1730131 238.678708,25.0488281 239.211914,25.0488281 C239.74512,25.0488281 240.219073,25.1752917 240.633789,25.4282227 C241.048505,25.6811536 241.398273,26.0434547 241.683105,26.5151367 C241.967938,26.9868188 242.184407,27.5610318 242.33252,28.237793 C242.480632,28.9145542 242.554688,29.6767536 242.554688,30.5244141 C242.554688,31.3720746 242.480632,32.134274 242.33252,32.8110352 C242.184407,33.4877964 241.967938,34.0620094 241.683105,34.5336914 C241.398273,35.0053735 241.048505,35.3676745 240.633789,35.6206055 C240.219073,35.8735364 239.74512,36 239.211914,36 C238.678708,36 238.204755,35.875815 237.790039,35.6274414 C237.375323,35.3790678 237.026694,35.021324 236.744141,34.5541992 C236.461587,34.0870745 236.245118,33.5140008 236.094727,32.8349609 C235.944335,32.1559211 235.869141,31.3857465 235.869141,30.5244141 Z M239.211914,26.4980469 C238.892902,26.4980469 238.613771,26.6005849 238.374512,26.8056641 C238.135253,27.0107432 237.937013,27.2910138 237.779785,27.6464844 C237.622558,28.0019549 237.505209,28.4269181 237.427734,28.9213867 C237.35026,29.4158553 237.311523,29.9501924 237.311523,30.5244141 C237.311523,31.1077503 237.35026,31.6466447 237.427734,32.1411133 C237.505209,32.6355819 237.623697,33.0605451 237.783203,33.4160156 C237.942709,33.7714862 238.140949,34.0494782 238.37793,34.25 C238.61491,34.4505218 238.892902,34.5507812 239.211914,34.5507812 C239.535483,34.5507812 239.816893,34.4482432 240.056152,34.2431641 C240.295411,34.0380849 240.492512,33.756675 240.647461,33.3989258 C240.80241,33.0411766 240.918619,32.6162134 240.996094,32.1240234 C241.073568,31.6318335 241.112305,31.0986357 241.112305,30.5244141 C241.112305,29.9547498 241.072429,29.4238306 240.992676,28.9316406 C240.912923,28.4394507 240.795574,28.0133482 240.640625,27.6533203 C240.485676,27.2932925 240.288575,27.0107432 240.049316,26.8056641 C239.810057,26.6005849 239.530926,26.4980469 239.211914,26.4980469 Z" id="april-17-20" fill="#FFFFFF" opacity="0.511265851"></path>
        </g>
    </g>
</svg>