<?xml version="1.0" encoding="UTF-8"?>
<svg width="322px" height="85px" viewBox="0 0 322 85" version="1.1" xmlns="http://www.w3.org/2000/svg" xmlns:xlink="http://www.w3.org/1999/xlink">
    <!-- Generator: Sketch 49.1 (51147) - http://www.bohemiancoding.com/sketch -->
    <title>Group 8</title>
    <desc>Created with Sketch.</desc>
    <defs>
        <path d="M16.328125,0.08984375 L363.111942,0.08984375 C371.948498,0.08984375 379.111942,7.25328775 379.111942,16.0898437 L379.111942,88.4257812 C379.111942,97.2623372 371.948498,104.425781 363.111942,104.425781 L16.328125,104.425781 C7.491569,104.425781 0.328125,97.2623372 0.328125,88.4257812 L0.328125,16.0898438 C0.328125,7.25328775 7.491569,0.08984375 16.328125,0.08984375 Z" id="path-1"></path>
        <mask id="mask-2" maskContentUnits="userSpaceOnUse" maskUnits="objectBoundingBox" x="0" y="0" width="378.783817" height="104.335938" fill="white">
            <use xlink:href="#path-1"></use>
        </mask>
        <polygon id="path-3" points="0 45.6422028 175.267051 45.6422028 175.267051 0.7801086 0 0.7801086"></polygon>
        <rect id="path-5" x="0" y="0.0362013026" width="113.044601" height="85.350001"></rect>
        <polygon id="path-7" points="0.140042129 0.191560753 184.446384 0.191560753 184.446384 90.6574101 0.140042129 90.6574101"></polygon>
        <polygon id="path-9" points="0.437677994 0.249795114 195.84783 0.249795114 195.84783 89.9770242 0.437677994 89.9770242"></polygon>
        <rect id="path-11" x="0" y="0.0363378731" width="113.471065" height="85.6719864"></rect>
        <polygon id="path-13" points="0.140570442 0.192283421 185.142213 0.192283421 185.142213 90.9994179 0.140570442 90.9994179"></polygon>
        <polygon id="path-15" points="0.487779644 0.250737473 196.635122 0.250737473 196.635122 90.3164652 0.487779644 90.3164652"></polygon>
        <path d="M127.45671,6.09704677 L127.45671,21.2917917 C141.524445,25.7310546 148.870961,27.9506861 149.496256,27.9506861 C150.121551,27.9506861 157.046541,27.9506861 170.271226,27.9506861 L170.271226,50.9053351 L126.813633,50.9053351 L126.813633,64.8607756 C106.756047,66.5009497 96.7272532,66.5009497 96.7272532,64.8607756 C96.7272532,63.2206016 96.7272532,58.9383756 96.7272532,52.0140977 C32.6875448,52.0140977 0.667690566,52.0140977 0.667690566,52.0140977 C0.667690566,52.0140977 0.667690566,61.4561704 0.667690566,80.3403159 L181.517169,80.3403159 L181.517169,0.0954757101 L127.45671,6.09704677 Z" id="path-17"></path>
    </defs>
    <g id="DockerCon2018" stroke="none" stroke-width="1" fill="none" fill-rule="evenodd">
        <g id="DockerDocs" transform="translate(-1300.000000, -299.000000)">
            <g id="Group-8" transform="translate(1281.937500, 279.000000)">
                <g id="Group-4" transform="translate(19.000000, 0.000000)">
                    <use id="Rectangle" stroke="#FFFFFF" mask="url(#mask-2)" stroke-width="4" fill="#292B44" opacity="0" stroke-dasharray="4,5" xlink:href="#path-1"></use>
                    <g id="Page-1" transform="translate(94.600140, 29.164062)">
                        <mask id="mask-4" fill="white">
                            <use xlink:href="#path-3"></use>
                        </mask>
                        <g id="Clip-85"></g>
                        <polygon id="Fill-88" fill="#FF827B" mask="url(#mask-4)" points="17.133219 17.4196176 20.07832 17.4196176 20.07832 16.0804389 17.133219 16.0804389"></polygon>
                        <polygon id="Fill-89" fill="#FF827B" opacity="0" mask="url(#mask-4)" points="21.7333795 17.4196176 24.6777006 17.4196176 24.6777006 16.0804389 21.7333795 16.0804389"></polygon>
                        <polygon id="Fill-89-Copy" fill="#FF827B" opacity="0" mask="url(#mask-4)" points="26.8817687 17.4196176 29.8260898 17.4196176 29.8260898 16.0804389 26.8817687 16.0804389"></polygon>
                        <polygon id="Fill-89-Copy-2" fill="#FF827B" opacity="0" mask="url(#mask-4)" points="31.5942951 17.4196176 34.5386162 17.4196176 34.5386162 16.0804389 31.5942951 16.0804389"></polygon>
                        <polygon id="Fill-89-Copy-3" fill="#FF827B" opacity="0" mask="url(#mask-4)" points="36.3068216 17.4196176 39.2511427 17.4196176 39.2511427 16.0804389 36.3068216 16.0804389"></polygon>
                        <polygon id="Fill-89-Copy-4" fill="#FF827B" opacity="0" mask="url(#mask-4)" points="41.0193481 17.4196176 43.9636692 17.4196176 43.9636692 16.0804389 41.0193481 16.0804389"></polygon>
                        <polygon id="Fill-89-Copy-5" fill="#FF827B" opacity="0" mask="url(#mask-4)" points="45.7318746 17.4196176 48.6761957 17.4196176 48.6761957 16.0804389 45.7318746 16.0804389"></polygon>
                        <polygon id="Fill-89-Copy-6" fill="#FF827B" opacity="0" mask="url(#mask-4)" points="50.4444011 17.4196176 53.3887222 17.4196176 53.3887222 16.0804389 50.4444011 16.0804389"></polygon>
                        <path d="M118.50366,44.9081114 C118.587895,44.9923462 118.630012,45.0937401 118.630012,45.2122929 C118.630012,45.3300657 118.587895,45.4322395 118.50366,45.5164744 C118.419425,45.6007093 118.314911,45.6420468 118.191679,45.6420468 L115.068748,45.6420468 C114.944736,45.6420468 114.841782,45.6007093 114.759887,45.5164744 C114.678772,45.4322395 114.637435,45.3300657 114.637435,45.2122929 C114.637435,45.0882804 114.677212,44.9876665 114.755987,44.9081114 L117.153562,42.1057416 C117.50766,41.7017262 117.684709,41.3499676 117.684709,41.0512457 C117.684709,40.6854479 117.590335,40.3929657 117.402367,40.1730191 C117.213618,39.9530724 116.956234,39.8438791 116.629434,39.8438791 C116.421186,39.8438791 116.230098,39.8984757 116.055388,40.009229 C115.881459,40.1184224 115.744967,40.2666134 115.645913,40.4514621 C115.547639,40.6370909 115.498502,40.8367587 115.498502,41.0512457 C115.498502,41.1635589 115.457945,41.2618329 115.37605,41.3468477 C115.294935,41.4303027 115.191981,41.4732001 115.068748,41.4732001 C114.949416,41.4732001 114.848022,41.4303027 114.764567,41.3468477 C114.680332,41.2618329 114.637435,41.1635589 114.637435,41.0512457 C114.637435,40.6745286 114.724789,40.3336893 114.899499,40.0295078 C115.074208,39.7253263 115.311314,39.4866608 115.612375,39.3119514 C115.913437,39.138022 116.252716,39.0506673 116.629434,39.0506673 C117.006931,39.0506673 117.337631,39.1325623 117.621533,39.2955724 C117.905436,39.4585825 118.125383,39.6910084 118.279813,39.9912901 C118.434244,40.2931318 118.512239,40.6464503 118.512239,41.0512457 C118.512239,41.2984907 118.440483,41.555875 118.296192,41.8233988 C118.153461,42.0909225 117.974072,42.345967 117.761145,42.5869724 L115.827642,44.781759 L118.191679,44.781759 C118.314911,44.781759 118.419425,44.8246564 118.50366,44.9081114" id="Fill-95" fill="#F0EFF0" mask="url(#mask-4)"></path>
                        <path d="M120.634802,40.5825722 C120.440594,41.030265 120.34388,41.6167893 120.34388,42.3421453 C120.34388,43.0737408 120.442154,43.6602652 120.638702,44.1024983 C120.83603,44.5439515 121.119933,44.7646781 121.49197,44.7646781 C121.868687,44.7646781 122.15415,44.5431715 122.348358,44.0978186 C122.541786,43.6540256 122.63928,43.0682812 122.63928,42.3421453 C122.63928,41.622249 122.541006,41.0372846 122.343678,40.5864719 C122.14635,40.1364393 121.863228,39.9118129 121.49197,39.9118129 C121.114473,39.9118129 120.82901,40.1356593 120.634802,40.5825722 M122.580004,39.4383817 C122.884965,39.7027856 123.115051,40.0826226 123.272602,40.5778925 C123.430152,41.0731624 123.508928,41.6612466 123.508928,42.3421453 C123.508928,43.0238239 123.430152,43.6119081 123.272602,44.107178 C123.115051,44.601668 122.884965,44.9822849 122.580004,45.2459088 C122.275822,45.5103128 121.913924,45.6421248 121.49197,45.6421248 C120.850069,45.6421248 120.354019,45.3527623 120.001481,44.7732576 C119.649722,44.1945327 119.474233,43.383382 119.474233,42.3421453 C119.474233,41.3016885 119.649722,40.4913177 120.001481,39.9118129 C120.354019,39.3315282 120.850069,39.0421658 121.49197,39.0421658 C121.913924,39.0421658 122.275822,39.1739778 122.580004,39.4383817" id="Fill-96" fill="#F0EFF0" mask="url(#mask-4)"></path>
                        <path d="M124.318986,40.3845422 C124.195754,40.3845422 124.0928,40.3447646 124.010905,40.2667694 C123.92979,40.1872142 123.888452,40.0858204 123.888452,39.9618079 C123.888452,39.8666537 123.911071,39.7831988 123.956308,39.713783 C124.001546,39.6428073 124.071741,39.5905505 124.167676,39.5562325 L125.484236,39.0843612 C125.551311,39.0625225 125.604348,39.0508233 125.644126,39.0508233 C125.767358,39.0508233 125.868752,39.0921607 125.948307,39.1724959 C126.026303,39.2543909 126.06608,39.3604644 126.06608,39.4899366 L126.06608,45.2116689 C126.06608,45.3302217 126.024743,45.4323955 125.939728,45.5166304 C125.855493,45.6000853 125.750979,45.6422028 125.627747,45.6422028 C125.514654,45.6422028 125.41638,45.6000853 125.332145,45.5166304 C125.24713,45.4323955 125.205792,45.3302217 125.205792,45.2116689 L125.205792,40.0639817 L124.58963,40.3252658 C124.493696,40.3650434 124.403221,40.3845422 124.318986,40.3845422" id="Fill-97" fill="#F0EFF0" mask="url(#mask-4)"></path>
                        <path d="M128.771736,41.3122958 C128.931626,41.4870052 129.129734,41.5743599 129.36684,41.5743599 C129.602385,41.5743599 129.799713,41.4831055 129.958044,41.2998166 C130.114814,41.1173077 130.193589,40.8965811 130.193589,40.6376368 C130.193589,40.3896119 130.114814,40.1860443 129.958044,40.025374 C129.799713,39.8654838 129.602385,39.7851486 129.36684,39.7851486 C129.124274,39.7851486 128.924606,39.8678236 128.767056,40.0339535 C128.609506,40.1993035 128.53073,40.4130105 128.53073,40.6711748 C128.53073,40.9246594 128.611066,41.1375865 128.771736,41.3122958 M130.152252,42.7598879 C129.943225,42.5376014 129.68194,42.4268481 129.36684,42.4268481 C129.046279,42.4268481 128.781095,42.5407212 128.572848,42.7684674 C128.36538,42.9969935 128.260867,43.2824561 128.260867,43.6256353 C128.260867,43.8510416 128.308444,44.057729 128.404378,44.2456976 C128.499532,44.4344461 128.632124,44.5834171 128.801374,44.6933904 C128.969844,44.8033637 129.157812,44.8579604 129.36684,44.8579604 C129.574307,44.8579604 129.762276,44.8018038 129.927626,44.6887107 C130.093755,44.5771775 130.224787,44.4227469 130.319942,44.2293186 C130.415876,44.0343305 130.463453,43.8229633 130.463453,43.5920973 C130.463453,43.2598375 130.359719,42.9829543 130.152252,42.7598879 M131.067136,42.625736 C131.227807,42.9096388 131.308142,43.2286394 131.308142,43.5835178 C131.308142,43.9656946 131.223907,44.3135535 131.054657,44.6255345 C130.886187,44.9375156 130.653761,45.1839806 130.358159,45.3633697 C130.062557,45.5450987 129.731857,45.6347932 129.36684,45.6347932 C129.000262,45.6347932 128.668782,45.5458786 128.37084,45.3688294 C128.072898,45.1917801 127.838912,44.9492149 127.670443,44.6426935 C127.501193,44.3353922 127.416958,43.9914331 127.416958,43.6084763 C127.416958,43.2535979 127.496513,42.9322574 127.657183,42.642115 C127.817854,42.3527526 128.03858,42.1203267 128.320143,41.9456174 C128.122815,41.7997662 127.969944,41.6172573 127.859971,41.3965307 C127.749998,41.178144 127.695401,40.9386985 127.695401,40.6797543 C127.695401,40.3646534 127.768717,40.0791908 127.914568,39.8225864 C128.061199,39.5675419 128.262427,39.3663141 128.518251,39.218903 C128.774076,39.0730519 129.062658,38.9997364 129.383219,38.9997364 C129.69364,38.9997364 129.972863,39.0722719 130.223228,39.2157832 C130.473592,39.3592945 130.67092,39.5566225 130.813652,39.8101071 C130.957943,40.0635917 131.029699,40.3474945 131.029699,40.6625953 C131.029699,40.9269993 130.974322,41.1687846 130.865129,41.3887312 C130.755155,41.6078979 130.602285,41.7911867 130.404957,41.9378178 C130.686519,42.1117473 130.907246,42.3402734 131.067136,42.625736" id="Fill-98" fill="#F0EFF0" mask="url(#mask-4)"></path>
                        <path d="M174.780594,25.2874675 C174.253346,24.9357089 173.04286,24.8062368 172.111596,24.9817261 C171.991484,24.1042794 171.502453,23.3438256 170.612528,22.6559074 L170.101659,22.3142882 L169.760039,22.826717 C169.323266,23.484997 169.105659,24.3975416 169.176635,25.2734284 C169.208613,25.5815097 169.310007,26.1321562 169.627447,26.6165068 C169.310007,26.7865364 168.684485,27.0213022 167.859295,27.0049232 L151.994279,27.0049232 L151.963081,27.188212 C151.81411,28.0672186 151.818009,30.8118719 153.599421,32.9216437 C154.954199,34.5252262 156.985196,35.3387168 159.635474,35.3387168 C165.382165,35.3387168 169.632907,32.6931176 171.624126,27.8847097 C172.407198,27.9010887 174.092676,27.8893894 174.959203,26.2351099 C174.981822,26.1976722 175.033299,26.0978383 175.18461,25.7850773 L175.267285,25.6127078 L174.780594,25.2874675 Z M162.267035,21.3034696 L164.679428,21.3034696 L164.679428,19.1102429 L162.267035,19.1102429 L162.267035,21.3034696 Z M162.267035,23.9350297 L164.679428,23.9350297 L164.679428,21.741803 L162.267035,21.741803 L162.267035,23.9350297 Z M159.416308,23.9350297 L161.829481,23.9350297 L161.829481,21.741803 L159.416308,21.741803 L159.416308,23.9350297 Z M156.565581,23.9350297 L158.978754,23.9350297 L158.978754,21.741803 L156.565581,21.741803 L156.565581,23.9350297 Z M153.714074,26.5665898 L156.127248,26.5665898 L156.127248,24.3733631 L153.714074,24.3733631 L153.714074,26.5665898 Z M156.565581,26.5665898 L158.978754,26.5665898 L158.978754,24.3733631 L156.565581,24.3733631 L156.565581,26.5665898 Z M159.416308,26.5665898 L161.829481,26.5665898 L161.829481,24.3733631 L159.416308,24.3733631 L159.416308,26.5665898 Z M162.267035,26.5665898 L164.679428,26.5665898 L164.679428,24.3733631 L162.267035,24.3733631 L162.267035,26.5665898 Z M165.117761,26.5665898 L167.530935,26.5665898 L167.530935,24.3733631 L165.117761,24.3733631 L165.117761,26.5665898 Z" id="Fill-99" fill="#93D6FF" mask="url(#mask-4)"></path>
                        <path d="M136.011412,22.1432446 C137.295994,21.148805 138.556397,20.836044 140.294912,20.836044 C141.30963,20.836044 142.273651,21.034152 143.186976,21.4303679 C144.1003,21.8273638 144.904432,22.3655311 145.600149,23.0464297 C146.296647,23.7281083 146.847293,24.5306795 147.252869,25.4525835 C147.659224,26.3752674 147.861232,27.3587877 147.861232,28.4023643 L147.861232,35.5482901 C147.861232,35.9733642 147.714601,36.3329224 147.419779,36.6285244 C147.124177,36.9233465 146.769298,37.0707576 146.354363,37.0707576 C145.928509,37.0707576 145.568951,36.9233465 145.274129,36.6285244 C144.979307,36.3329224 144.832676,35.9733642 144.832676,35.5482901 L144.832676,28.4023643 C144.832676,27.7838618 144.711003,27.1988974 144.469998,26.6482508 C144.228213,26.0976043 143.902192,25.6171535 143.491157,25.2068984 C143.080122,24.7950834 142.599672,24.4690632 142.049025,24.2280579 C141.498378,23.9862726 140.913414,23.8653799 140.294912,23.8653799 C139.66705,23.8653799 139.080525,23.9831528 138.533779,24.2210383 C137.988592,24.4581439 137.507361,24.7841641 137.092426,25.1990989 C136.676711,25.6140337 136.350691,26.0976043 136.113586,26.6482508 C135.87648,27.1988974 135.758707,27.7838618 135.758707,28.4023643 L135.758707,35.5482901 C135.758707,35.9733642 135.611296,36.3329224 135.315694,36.6285244 C135.020872,36.9233465 134.665994,37.0707576 134.251059,37.0707576 C133.825205,37.0707576 133.465647,36.9233465 133.170824,36.6285244 C132.876002,36.3329224 132.669315,35.9733642 132.669315,35.5482901 L132.675555,22.4146681 C132.675555,21.9989533 132.876002,21.5847985 133.170824,21.2852967 C133.465647,20.9865748 133.825205,20.836044 134.251059,20.836044 C134.665994,20.836044 135.020872,20.9865748 135.315694,21.2852967 C135.611296,21.5847985 135.667453,21.7127107 136.011412,22.1432446" id="Fill-100" fill="#F0EFF0" mask="url(#mask-4)"></path>
                        <path d="M104.737886,25.3681926 C105.195718,24.9119203 105.729206,24.5508023 106.338349,24.2863983 C106.948272,24.0212145 107.601092,23.8894025 108.29603,23.8894025 C108.924672,23.8894025 109.505736,23.995476 110.039224,24.2068432 C110.572712,24.4182103 111.082801,24.7317513 111.568711,25.1443462 C111.854174,25.3759921 112.177854,25.4906452 112.539752,25.4906452 C112.968726,25.4906452 113.323604,25.3471339 113.604387,25.0585514 C113.88595,24.769189 114.025562,24.4096309 114.025562,23.9759772 C114.025562,23.5243846 113.853972,23.1437678 113.511573,22.8364664 C112.044482,21.5284859 110.305968,20.8741057 108.29603,20.8741057 C106.086424,20.8741057 104.200499,21.6626378 102.638254,23.2397019 C101.076009,24.8175461 100.295276,26.7214104 100.295276,28.9536348 C100.295276,31.1842992 101.076009,33.0889435 102.638254,34.6667876 C104.200499,36.2430719 106.086424,37.0323839 108.29603,37.0323839 C110.296608,37.0323839 112.034343,36.3780037 113.511573,35.0700231 C113.825114,34.7533624 113.983444,34.3828849 113.983444,33.9593706 C113.983444,33.5264969 113.843053,33.1684987 113.56149,32.8845959 C113.279927,32.6006932 112.925829,32.4595217 112.496855,32.4595217 C112.134957,32.4688812 111.821416,32.5741748 111.553892,32.7761825 C111.077341,33.1895574 110.572712,33.4999785 110.039224,33.706666 C109.505736,33.9133534 108.924672,34.0170871 108.29603,34.0170871 C107.601092,34.0170871 106.948272,33.8852751 106.338349,33.6208712 C105.729206,33.3556873 105.195718,32.9945692 104.737886,32.538297 C104.280834,32.0812447 103.921276,31.5461972 103.659992,30.9300347 C103.397148,30.3146521 103.266116,29.6555921 103.266116,28.9536348 C103.266116,28.2508975 103.397148,27.5926175 103.659992,26.9772349 C103.921276,26.3610723 104.280834,25.8252448 104.737886,25.3681926" id="Fill-101" fill="#F0EFF0" mask="url(#mask-4)"></path>
                        <path d="M34.4484789,30.908586 C34.1864148,31.5192889 33.8291965,32.0558963 33.376824,32.5168483 C32.9244515,32.9785802 32.3925238,33.343598 31.7833808,33.6134616 C31.1734579,33.8825453 30.5214175,34.0166971 29.8256998,34.0166971 C29.1214026,34.0166971 28.4639025,33.8825453 27.8539796,33.6134616 C27.2448366,33.343598 26.7160287,32.9809201 26.2691159,32.5238678 C25.8198632,32.0668156 25.4657647,31.5309882 25.2037006,30.9156056 C24.9424165,30.3002229 24.8113844,29.6458427 24.8113844,28.9532448 C24.8113844,28.2606469 24.9424165,27.6070466 25.2037006,26.991664 C25.4657647,26.3755014 25.8198632,25.839674 26.2691159,25.3826217 C26.7160287,24.9255695 27.2448366,24.5628915 27.8539796,24.2938079 C28.4639025,24.0247242 29.1214026,23.8897924 29.8256998,23.8897924 C30.5214175,23.8897924 31.1734579,24.0247242 31.7833808,24.2938079 C32.3925238,24.5628915 32.9244515,24.9279094 33.376824,25.3904213 C33.8291965,25.8521532 34.1864148,26.3879807 34.4484789,26.9986835 C34.710543,27.6093864 34.8407951,28.2606469 34.8407951,28.9532448 C34.8407951,29.6458427 34.710543,30.2971031 34.4484789,30.908586 M35.484256,23.2400919 C33.9025121,21.6630277 32.0165867,20.8744957 29.8256998,20.8744957 C27.616094,20.8744957 25.7301686,21.6630277 24.1679235,23.2400919 C22.6056785,24.8171561 21.824166,26.7218004 21.824166,28.9532448 C21.824166,31.1846892 22.6056785,33.0893335 24.1679235,34.6663977 C25.7301686,36.2434618 27.616094,37.0327739 29.8256998,37.0327739 C32.0165867,37.0327739 33.9025121,36.2434618 35.484256,34.6663977 C37.046501,33.1080523 37.8280136,31.204188 37.8280136,28.9532448 C37.8178742,27.8371326 37.6205462,26.8036954 37.2344696,25.8521532 C36.8483931,24.8990511 36.2657685,24.029404 35.484256,23.2400919" id="Fill-102" fill="#F0EFF0" mask="url(#mask-4)"></path>
                        <path d="M16.7441786,30.908586 C16.4821145,31.5192889 16.1248962,32.0558963 15.6725237,32.5168483 C15.2201512,32.9785802 14.6890035,33.343598 14.0790805,33.6134616 C13.4699376,33.8825453 12.8178972,34.0166971 12.1213995,34.0166971 C11.4171023,34.0166971 10.7588223,33.8825453 10.1504593,33.6134616 C9.54053631,33.343598 9.01172844,32.9809201 8.56403565,32.5238678 C8.11634285,32.0668156 7.76146441,31.5309882 7.49862038,30.9156056 C7.23811621,30.3002229 7.10708417,29.6458427 7.10708417,28.9532448 C7.10708417,28.2606469 7.23811621,27.6070466 7.49862038,26.991664 C7.76146441,26.3755014 8.11634285,25.839674 8.56403565,25.3826217 C9.01172844,24.9255695 9.54053631,24.5628915 10.1504593,24.2938079 C10.7588223,24.0247242 11.4171023,23.8897924 12.1213995,23.8897924 C12.8178972,23.8897924 13.4699376,24.0247242 14.0790805,24.2938079 C14.6890035,24.5628915 15.2201512,24.9279094 15.6725237,25.3904213 C16.1248962,25.8521532 16.4821145,26.3879807 16.7441786,26.9986835 C17.0062427,27.6093864 17.1372747,28.2606469 17.1372747,28.9532448 C17.1372747,29.6458427 17.0062427,30.2971031 16.7441786,30.908586 M18.6230845,13.9492964 C18.1941105,13.9492964 17.8392321,14.0912478 17.5584491,14.3751506 C17.2776662,14.6590533 17.1372747,15.0170516 17.1372747,15.4499253 L17.1372747,22.6488878 C15.6889027,21.4664797 14.0174643,20.8744957 12.1213995,20.8744957 C9.91179375,20.8744957 8.02586834,21.6630277 6.46284331,23.2400919 C4.90137819,24.8171561 4.11986567,26.7218004 4.11986567,28.9532448 C4.11986567,31.1846892 4.90137819,33.0893335 6.46284331,34.6663977 C8.02586834,36.2434618 9.91179375,37.0327739 12.1213995,37.0327739 C14.3122864,37.0327739 16.1989917,36.2434618 17.7807356,34.6663977 C19.3422008,33.1080523 20.1237133,31.204188 20.1237133,28.9532448 L20.1237133,15.4499253 C20.1237133,15.0170516 19.9778621,14.6590533 19.6877198,14.3751506 C19.3967974,14.0912478 19.041919,13.9492964 18.6230845,13.9492964" id="Fill-103" fill="#F0EFF0" mask="url(#mask-4)"></path>
                        <path d="M99.9782253,23.486089 C100.05934,23.3028001 100.099898,23.1054721 100.099898,22.8941049 C100.099898,22.4807301 99.965746,22.1437905 99.7005621,21.8840663 C99.4330384,21.6243421 99.0968788,21.4207745 98.6928634,21.2710236 C98.288068,21.1220526 97.8450549,21.0183189 97.3630442,20.9613824 C96.8818134,20.9028859 96.4325607,20.8740277 96.0129462,20.8740277 C95.0606241,20.8740277 94.1652385,21.0284583 93.3275694,21.3357596 C92.4883404,21.6438409 91.7122875,22.086074 90.9978509,22.663239 L90.9978509,22.3746565 C90.9978509,21.9612816 90.8527797,21.6079631 90.5626374,21.3147009 C90.271715,21.0214387 89.9215163,20.8740277 89.5120412,20.8740277 C89.0932067,20.8740277 88.7383282,21.0214387 88.4474059,21.3147009 C88.1572635,21.6079631 88.0114124,21.9612816 88.0114124,22.3746565 L88.0114124,35.5316771 C88.0114124,35.9458319 88.1572635,36.2991504 88.4474059,36.5924126 C88.7383282,36.8864548 89.0932067,37.0323059 89.5120412,37.0323059 C89.9215163,37.0323059 90.271715,36.8864548 90.5626374,36.5924126 C90.8527797,36.2991504 90.9978509,35.9458319 90.9978509,35.5316771 L90.9978509,28.9535568 C90.9978509,28.2508195 91.128883,27.5925395 91.390947,26.9771569 C91.6530111,26.3617742 92.0102294,25.8251669 92.4626019,25.3681146 C92.9141945,24.9110624 93.4461222,24.5507243 94.0560451,24.2863204 C94.6651881,24.0219164 95.3180084,23.8901044 96.0129462,23.8901044 C96.7180234,23.8901044 97.3708437,24.0094372 97.9714072,24.2496626 C98.2085128,24.3557361 98.4191,24.4095529 98.5992691,24.4095529 C98.8090763,24.4095529 99.0040645,24.3705552 99.1850135,24.2933399 C99.3667424,24.2169046 99.5235129,24.1084912 99.6568848,23.9688796 C99.7902567,23.8292681 99.8971102,23.6678179 99.9782253,23.486089" id="Fill-104" fill="#F0EFF0" mask="url(#mask-4)"></path>
                        <path d="M73.551247,27.4529279 C73.7033377,26.9241201 73.9365436,26.4405495 74.2508645,26.002996 C74.5659653,25.5654426 74.9364428,25.1902854 75.3654168,24.8775244 C75.7943907,24.5655434 76.2654821,24.3221982 76.7810307,24.1498286 C77.2950195,23.9758992 77.8238274,23.8901044 78.3666744,23.8901044 C78.9095214,23.8901044 79.4359894,23.9758992 79.9452985,24.1498286 C80.4553875,24.3221982 80.9210192,24.5655434 81.3453134,24.8775244 C81.7696076,25.1902854 82.1408651,25.5654426 82.4598657,26.002996 C82.7788663,26.4405495 83.0198717,26.9241201 83.1813219,27.4529279 L73.551247,27.4529279 Z M84.0244506,23.2404039 C82.4434867,21.6625598 80.5575613,20.8740277 78.3666744,20.8740277 C76.1562887,20.8740277 74.2703633,21.6625598 72.7081182,23.2404039 C71.1458731,24.8174681 70.3643606,26.7221124 70.3643606,28.9535568 C70.3643606,31.1842212 71.1458731,33.0896455 72.7081182,34.6667096 C74.2703633,36.2437738 76.1562887,37.0323059 78.3666744,37.0323059 C80.3758323,37.0323059 82.1190264,36.3779257 83.5962567,35.0707251 C83.8817193,34.7727832 84.0244506,34.4116651 84.0244506,33.9889308 C84.0244506,33.5552772 83.8840592,33.1972789 83.6032762,32.9133762 C83.3224933,32.6302534 82.9676148,32.488302 82.537861,32.488302 C82.1666035,32.4976614 81.8390234,32.6224538 81.5527808,32.8634592 C81.105088,33.2479758 80.6199575,33.5365583 80.0950494,33.7292066 C79.5717012,33.9210749 78.9945363,34.0170091 78.3666744,34.0170091 C77.813688,34.0170091 77.2825403,33.9312143 76.7732312,33.7572849 C76.2639222,33.5841354 75.7967306,33.3415702 75.3732163,33.0288092 C74.949702,32.7160482 74.5792245,32.3416709 74.2649036,31.9033375 C73.9513627,31.4665641 73.7126972,30.9829935 73.551247,30.4541856 L84.8675794,30.4541856 C85.286414,30.4541856 85.6412924,30.3114543 85.9314348,30.0283315 C86.223137,29.7444287 86.3682082,29.3864305 86.3682082,28.9535568 C86.3682082,27.8374446 86.1724401,26.8016675 85.7824638,25.8438857 C85.3924875,24.8876638 84.8059631,24.0195766 84.0244506,23.2404039 Z" id="Fill-105" fill="#F0EFF0" mask="url(#mask-4)"></path>
                        <path d="M127.594943,30.908586 C127.333659,31.5192889 126.975661,32.0558963 126.523288,32.5168483 C126.070916,32.9785802 125.538988,33.343598 124.930625,33.6134616 C124.320702,33.8825453 123.667882,34.0166971 122.972164,34.0166971 C122.267867,34.0166971 121.610367,33.8825453 121.000444,33.6134616 C120.391301,33.343598 119.862493,32.9809201 119.41558,32.5238678 C118.967108,32.0668156 118.612229,31.5309882 118.350165,30.9156056 C118.088881,30.3002229 117.957849,29.6458427 117.957849,28.9532448 C117.957849,28.2606469 118.088881,27.6070466 118.350165,26.991664 C118.612229,26.3755014 118.967108,25.839674 119.41558,25.3826217 C119.862493,24.9255695 120.391301,24.5628915 121.000444,24.2938079 C121.610367,24.0247242 122.267867,23.8897924 122.972164,23.8897924 C123.667882,23.8897924 124.320702,24.0247242 124.930625,24.2938079 C125.538988,24.5628915 126.070916,24.9279094 126.523288,25.3904213 C126.975661,25.8521532 127.333659,26.3879807 127.594943,26.9986835 C127.857007,27.6093864 127.988039,28.2606469 127.988039,28.9532448 C127.988039,29.6458427 127.857007,30.2971031 127.594943,30.908586 M128.63072,23.2400919 C127.049756,21.6630277 125.163831,20.8744957 122.972164,20.8744957 C120.762558,20.8744957 118.876633,21.6630277 117.314388,23.2400919 C115.752143,24.8171561 114.97063,26.7218004 114.97063,28.9532448 C114.97063,31.1846892 115.752143,33.0893335 117.314388,34.6663977 C118.876633,36.2434618 120.762558,37.0327739 122.972164,37.0327739 C125.163831,37.0327739 127.049756,36.2434618 128.63072,34.6663977 C130.193745,33.1080523 130.974478,31.204188 130.974478,28.9532448 C130.964339,27.8371326 130.767011,26.8036954 130.380934,25.8521532 C129.995637,24.8990511 129.412233,24.029404 128.63072,23.2400919" id="Fill-106" fill="#F0EFF0" mask="url(#mask-4)"></path>
                        <path d="M68.7496247,22.3748125 C68.7496247,22.1728048 68.7090672,21.9801565 68.6279521,21.7976476 C68.5468371,21.6143587 68.4399836,21.4536885 68.3066117,21.3148569 C68.1732398,21.1752454 68.0164693,21.066832 67.8355203,20.9896167 C67.6545713,20.9124014 67.4588032,20.8741837 67.2489959,20.8741837 C66.9533939,20.8741837 66.6866501,20.951399 66.4495445,21.1050496 L57.9051637,26.7168087 L57.9051637,15.4644324 C57.9051637,15.0416981 57.7585326,14.6829199 57.4683902,14.3896577 C57.1782478,14.0963955 56.8280491,13.9489845 56.418574,13.9489845 C55.9989595,13.9489845 55.644861,14.0963955 55.3539387,14.3896577 C55.0630163,14.6829199 54.9187251,15.0416981 54.9187251,15.4644324 L54.9187251,35.5177939 C54.9187251,35.9311688 55.0630163,36.2868272 55.3539387,36.585549 C55.644861,36.8834909 55.9989595,37.0324619 56.418574,37.0324619 C56.8280491,37.0324619 57.1782478,36.8834909 57.4683902,36.585549 C57.7585326,36.2868272 57.9051637,35.9311688 57.9051637,35.5177939 L57.9051637,30.3100503 L59.6475778,29.1549405 L66.2490967,36.6424856 C66.5158405,36.9022098 66.8488802,37.0324619 67.2489959,37.0324619 C67.4588032,37.0324619 67.6545713,36.9942442 67.8355203,36.9170289 C68.0164693,36.8405935 68.1732398,36.7321801 68.3066117,36.5925686 C68.4399836,36.4529571 68.5468371,36.2922869 68.6279521,36.108998 C68.7090672,35.9264891 68.7496247,35.7338408 68.7496247,35.5318331 C68.7496247,35.137177 68.6115731,34.7861984 68.3354699,34.478897 L62.1910032,27.4959813 L68.1786994,23.5720398 C68.5593163,23.3123155 68.7496247,22.9129798 68.7496247,22.3748125" id="Fill-107" fill="#F0EFF0" mask="url(#mask-4)"></path>
                        <path d="M43.943544,25.3681926 C44.4013762,24.9111404 44.9348637,24.5508023 45.5440067,24.2863983 C46.1539297,24.0212145 46.80597,23.8894025 47.5016878,23.8894025 C48.1303296,23.8894025 48.7113943,23.995476 49.2448819,24.2068432 C49.7783694,24.4182103 50.2884584,24.7309713 50.7743689,25.1443462 C51.0598316,25.3759921 51.3835119,25.4906452 51.7454099,25.4906452 C52.1743839,25.4906452 52.5292623,25.3471339 52.8100452,25.0585514 C53.0916081,24.769189 53.2312196,24.4096309 53.2312196,23.9759772 C53.2312196,23.5243846 53.0596301,23.1437678 52.7172309,22.8364664 C51.25014,21.5284859 49.5116256,20.8741057 47.5016878,20.8741057 C45.292082,20.8741057 43.4061566,21.6626378 41.8439115,23.2397019 C40.2816665,24.8175461 39.5009339,26.7214104 39.5009339,28.9536348 C39.5009339,31.1842992 40.2816665,33.0889435 41.8439115,34.6667876 C43.4061566,36.2430719 45.292082,37.0323839 47.5016878,37.0323839 C49.5022662,37.0323839 51.2400006,36.3780037 52.7172309,35.0700231 C53.0307718,34.7533624 53.1891022,34.3828849 53.1891022,33.9593706 C53.1891022,33.5264969 53.0479308,33.1684987 52.7671478,32.8845959 C52.485585,32.6006932 52.1307065,32.4595217 51.7017326,32.4595217 C51.3406145,32.4688812 51.0262936,32.5741748 50.7595498,32.7761825 C50.2829988,33.1895574 49.7783694,33.4999785 49.2448819,33.706666 C48.7113943,33.9133534 48.1303296,34.0170871 47.5016878,34.0170871 C46.80597,34.0170871 46.1539297,33.8852751 45.5440067,33.6208712 C44.9348637,33.3556873 44.4013762,32.9945692 43.943544,32.538297 C43.4864917,32.0812447 43.1269336,31.5454173 42.8648695,30.9300347 C42.6028054,30.3146521 42.4717734,29.6555921 42.4717734,28.9536348 C42.4717734,28.2508975 42.6028054,27.5926175 42.8648695,26.9772349 C43.1269336,26.3610723 43.4864917,25.8252448 43.943544,25.3681926" id="Fill-108" fill="#F0EFF0" mask="url(#mask-4)"></path>
                    </g>
                    <g id="Group-6" transform="translate(212.866742, 76.503906)" fill="#FFFFFF" font-family="Comfortaa-Bold, Comfortaa" font-size="18" font-weight="bold">
                        <text id="&gt;" opacity="0.315387228">
                            <tspan x="0.899944799" y="18.4067383">&gt;</tspan>
                        </text>
                        <text id="&gt;-copy" opacity="0.58055933">
                            <tspan x="8.56982421" y="18.4067383">&gt;</tspan>
                        </text>
                        <text id="&gt;-copy-2">
                            <tspan x="15.8887142" y="18.4067383">&gt;</tspan>
                        </text>
                    </g>
                </g>
                <g id="Group-5" transform="translate(0.732568, 18.718750)">
                    <mask id="mask-6" fill="white">
                        <use xlink:href="#path-5"></use>
                    </mask>
                    <use id="Rectangle-5" fill-opacity="0" fill="#FFFFFF" xlink:href="#path-5"></use>
                    <g id="Page-1" mask="url(#mask-6)">
                        <g transform="translate(0.000000, 1.645953)">
                            <path d="M154.512674,48.6211393 L153.957757,49.3813054 L148.848845,49.3813054 L147.793715,48.6754056 L147.793715,37.2685365 L148.848845,36.7254357 L153.902178,36.7254357 L154.512674,37.5945721 L154.512674,48.6211393 Z M154.235215,67.9040652 L153.346823,68.772764 L148.848845,68.772764 L147.793715,68.2843671 L147.577525,58.1409406 C147.543827,56.553213 148.850596,55.2477578 150.474209,55.2477578 L153.624282,55.2477578 L154.235215,56.0083616 L154.235215,67.9040652 Z M159.138003,59.5947444 L159.138003,49.0902804 L158.785709,48.4185158 L158.764265,33.6554496 L156.03782,30.9867718 L150.833942,30.9867718 L146.765281,30.9867718 C145.164862,30.9867718 143.867721,32.2559036 143.867721,33.8208744 L143.867721,48.1712539 L143.223528,49.0303249 L143.223528,67.360089 L142.637977,68.0476084 L142.637977,92.6543147 C142.637977,94.2197232 143.935117,95.4884173 145.535536,95.4884173 L145.655009,95.4884173 C147.255428,95.4884173 148.552568,94.2197232 148.552568,92.6543147 L148.552568,76.30528 L149.13243,75.4203888 L152.718384,75.4203888 L153.965634,76.4965251 L153.965634,92.7552987 C153.965634,94.3207071 155.262774,95.5894013 156.862756,95.5894013 C158.463175,95.5894013 159.759877,94.3207071 159.759877,92.7552987 L159.759877,81.1362958 L159.759877,68.2734263 L159.138003,59.5947444 Z" id="Fill-1" fill="#FFFFFF"></path>
                            <path d="M157.743708,31.9926681 C157.997535,31.4753875 156.088148,30.1060381 156.088148,30.1060381 L156.088148,28.7489423 L155.103914,28.7489423 L155.103914,30.1060381 L152.706568,31.9926681 L149.619952,31.9926681 L147.381904,30.1060381 L147.381904,28.7489423 L146.548653,28.7489423 L146.548653,30.1060381 C146.548653,30.1060381 145.741223,30.6250692 145.564857,30.9213459 C145.388054,31.2176225 144.539486,31.9926681 144.539486,31.9926681 L157.743708,31.9926681 Z" id="Fill-3" fill="#FFFFFF"></path>
                            <path d="M75.5381908,29.3553248 L74.7373249,30.451592 L67.3711089,30.451592 L65.8499013,29.4336608 L65.8499013,12.986588 L67.3711089,12.2032274 L74.6572383,12.2032274 L75.5381908,13.4561668 L75.5381908,29.3553248 Z M75.1377579,57.1589389 L73.85681,58.412316 L67.3711089,58.412316 L65.8499013,57.7072914 L65.5339312,42.8663268 C65.4875423,40.6947985 67.2743923,38.9101366 69.4944977,38.9101366 L74.2568054,38.9101366 L75.1377579,40.0068416 L75.1377579,57.1589389 Z M82.206822,40.7780855 L82.206822,30.0323409 L81.6987316,29.0634244 L81.6987316,7.80415398 C81.6987316,5.66369757 79.9250105,3.92892569 77.7368523,3.92892569 L70.2340952,3.92892569 L64.1510152,3.92892569 C61.9628569,3.92892569 60.1891359,5.66369757 60.1891359,7.80415398 L60.1891359,28.7067546 L59.2604815,29.9456899 L59.2604815,56.3751407 L58.4158524,57.3663764 L58.4158524,92.5703508 C58.4158524,94.7108072 60.1895735,96.445579 62.3777318,96.445579 L62.9825387,96.445579 C65.170697,96.445579 66.9439804,94.7108072 66.9439804,92.5703508 L66.9439804,69.2725831 L67.7798569,67.9968868 L71.8577086,67.9968868 C72.561858,67.9968868 73.2423752,68.248525 73.770159,68.7045372 C74.3924712,69.2410736 74.7487033,70.0134935 74.7487033,70.8248626 L74.7487033,93.0400576 C74.7487033,95.180514 76.5224244,96.9152859 78.7105827,96.9152859 L79.1420875,96.9152859 C81.3302458,96.9152859 83.1039669,95.180514 83.1039669,93.0400576 L83.1039669,76.2383661 L83.1039669,57.6919743 L82.206822,40.7780855 Z" id="Fill-5" fill="#FFFFFF"></path>
                            <path d="M80.2544596,5.04326717 C79.4907924,3.92905698 77.6256063,2.30238013 77.6256063,2.30238013 L77.6256063,0.33084953 L76.1958637,0.33084953 L76.1958637,2.30238013 L72.7123157,5.04326717 L68.2279042,5.04326717 L64.976301,2.30238013 L64.976301,0.33084953 L63.7662495,0.33084953 L63.7662495,2.30238013 C63.7662495,2.30238013 62.9509417,3.06079578 62.5772043,3.59908272 C62.2909932,4.01133173 61.3706538,5.04326717 61.3706538,5.04326717 L80.2544596,5.04326717 Z" id="Fill-7" fill="#FFFFFF"></path>
                            <g id="Group-11" stroke-width="1" fill="none" transform="translate(17.299396, 3.707178)">
                                <mask id="mask-8" fill="white">
                                    <use xlink:href="#path-7"></use>
                                </mask>
                                <g id="Clip-10"></g>
                                <path d="M183.848883,90.6574101 C183.814747,90.6574101 183.780174,90.6543467 183.744726,90.6482198 C177.145678,89.5020625 169.944887,87.2338177 162.917836,84.088559 C159.880234,82.7292751 157.194051,81.0929703 157.167356,81.0776532 C155.980061,80.3511847 154.188835,79.1870845 152.386668,77.751215 C152.215116,77.60986 148.310566,74.36876 144.589385,69.5154249 C142.1474,66.3307794 132.632412,38.2895312 129.90728,30.1727769 C128.360252,37.700479 126.287191,45.1262129 123.736674,52.278427 C119.837813,63.1960238 115.720137,70.9858673 109.967907,78.3205738 C106.884792,82.2483179 105.306692,84.1616435 103.132538,84.721812 C92.807932,87.4088703 78.7919031,65.6988393 72.0746948,55.2678888 L70.0484603,52.1366343 C62.3850924,40.3267065 53.7339899,26.9938206 46.2246683,3.34026736 C45.1288387,7.91001708 42.2479095,12.9567853 38.2111951,20.026287 C35.8532358,24.1549041 33.1810569,28.8344993 30.1915951,34.5661611 C19.135269,55.7523471 -1.68155586,87.5900498 -9.13661108,89.2495491 C-9.45389403,89.3239464 -9.77905435,89.1230735 -9.85082594,88.8092916 C-9.92566095,88.4941968 -9.72303749,88.1821655 -9.4009406,88.1108315 C-2.93930924,86.6705857 16.959802,57.3505779 29.1268373,34.0331257 C32.1276775,28.2835211 34.8042327,23.5947355 37.167006,19.4569283 C41.8811742,11.2014447 44.9949234,5.74855435 45.4557495,0.72323007 C45.4806945,0.443145812 45.7047619,0.220828932 45.990973,0.19369577 C46.266681,0.170501292 46.5406384,0.338114215 46.6229131,0.607695314 C54.2552092,25.6135304 63.1820196,39.3722319 71.0572012,51.5095082 L73.0864992,54.6438261 C79.6479106,64.8388931 93.29983,86.0342693 102.827509,83.5922847 C104.623549,83.1279575 106.10537,81.3227269 109.018246,77.6081095 C114.689515,70.3788722 118.754675,62.6879335 122.606709,51.8915606 C125.389171,44.0955903 127.59746,35.9713963 129.172497,27.7412955 C129.222387,27.4795917 129.448205,27.2830951 129.720411,27.2664651 C130.0145,27.2314546 130.243381,27.413947 130.327407,27.668211 C134.653833,40.6763742 143.40209,66.0169975 145.545172,68.8152143 C149.180578,73.5556403 153.110073,76.8181843 153.150773,76.8501314 C154.895172,78.2413625 156.643073,79.3787671 157.799296,80.0851046 C157.825992,80.1017346 160.451344,81.6986525 163.416298,83.0259893 C170.351009,86.1301106 177.452458,88.3681589 183.953039,89.4976862 C184.278199,89.5537031 184.494827,89.8565442 184.437059,90.1747024 C184.385857,90.4578501 184.133781,90.6574101 183.848883,90.6574101" id="Fill-9" fill="#FFFFFF" mask="url(#mask-8)"></path>
                            </g>
                            <g id="Group-14" stroke-width="1" fill="none" transform="translate(6.796191, 4.582441)">
                                <mask id="mask-10" fill="white">
                                    <use xlink:href="#path-9"></use>
                                </mask>
                                <g id="Clip-13"></g>
                                <path d="M181.372789,83.5359615 C178.992299,82.1919947 175.261377,78.8519899 172.566581,76.2975339 C166.288694,70.3496821 164.603146,66.3628578 163.117453,62.8447369 L162.625401,61.6893894 C161.463119,59.0158976 160.360663,56.4968898 159.324536,54.1279896 C155.219047,44.7429788 152.188268,37.8148321 150.518327,32.9553703 C149.12801,43.1307438 146.306624,49.1770628 143.787406,54.5800631 C143.155326,55.9332202 142.538418,57.2531173 141.964864,58.5975217 C137.552872,68.9160008 133.821949,73.0503071 130.753888,75.7325515 C127.544063,78.543022 120.021957,85.129816 111.558234,83.933331 C101.193066,82.4782058 95.4471157,70.1868832 90.8313668,60.3117249 C88.8700963,56.1130868 86.8784789,49.7210389 82.9112846,36.986833 C82.0529036,34.2280031 81.4667768,32.2735401 80.8316615,30.1497137 C80.1536272,27.8845323 79.417934,25.4246048 78.2508826,21.6600973 C76.5596986,16.1949532 74.7926476,10.6764181 72.9952498,5.23228028 C72.7607123,5.22790397 72.6098454,5.18239028 72.5001634,4.97057656 C69.3878819,13.556472 61.5649094,26.7641953 48.7347144,45.1202173 C47.7063913,46.5910973 46.6568254,48.2212752 45.5452654,49.9459816 C38.7198357,60.5384181 29.3708526,75.0445945 3.42737017,88.4943281 C3.04326634,88.6938882 2.56378684,88.5490321 2.36219736,88.1669796 C2.15844025,87.7866777 2.30800664,87.3144732 2.69341105,87.1149131 C28.2657954,73.8572998 37.4834202,59.5533093 44.2130407,49.1087922 C45.3341383,47.3718322 46.3915076,45.7294006 47.4367383,44.2344509 C62.2004582,23.1104086 70.2662051,8.92414091 72.0935162,0.862090594 C72.1797878,0.48266395 72.5079668,0.204330219 72.931955,0.255970754 C73.6104228,0.313738132 73.645972,0.846773486 73.6906251,1.52247676 C73.7075326,1.79205786 73.7413476,2.30671268 73.7786308,2.81655356 C73.8553649,2.89751541 73.915625,2.99642017 73.9511741,3.10582808 C75.9414909,9.09000331 77.894958,15.1792101 79.7617199,21.2032098 C80.9287713,24.9738442 81.6674992,27.4385856 82.3455335,29.708581 C82.9793482,31.8271559 83.5637409,33.7759296 84.399145,36.4643009 C88.3659058,49.1954433 90.3471185,55.5542312 92.2138805,59.5506835 C96.7203808,69.1912712 102.266042,81.05459 111.779765,82.3898042 C119.523836,83.4690038 126.659237,77.2323152 129.706923,74.5667007 C132.642326,71.9982406 136.222382,68.022357 140.509518,57.9918395 C141.090876,56.632118 141.713852,55.2969038 142.353736,53.9271167 C145.1257,47.9853918 148.265727,41.2524288 149.385091,28.9335354 C149.42064,28.5514829 149.730611,28.2517052 150.11905,28.2254473 C150.5322,28.1921873 150.854743,28.4569545 150.941015,28.8315672 C151.998384,33.4490188 155.489134,41.4287943 160.773813,53.5096161 C161.809939,55.8785163 162.912395,58.3997122 164.074678,61.0745169 L164.5741,62.2447439 C166.071064,65.7873722 167.619185,69.4499115 173.659499,75.1741335 C177.37785,78.6996941 180.430738,81.2116998 182.254581,82.2480115 C182.427124,82.3731742 190.177264,88.3586623 195.067435,88.4181802 C195.503995,88.4243071 195.85255,88.7774758 195.847781,89.2067924 C195.841712,89.6343586 195.490122,89.9770242 195.058331,89.9770242 C189.622351,89.9100665 181.707038,83.7963523 181.372789,83.5359615 Z" id="Fill-12" fill="#FFFFFF" mask="url(#mask-10)"></path>
                            </g>
                            <path d="M59.2611817,92.9991333 C58.8209243,92.9991333 58.4642545,92.6507785 58.4642545,92.2197113 L58.4642545,16.530004 C58.4642545,16.0989368 58.8209243,15.750582 59.2611817,15.750582 C59.7014391,15.750582 60.0581089,16.0989368 60.0581089,16.530004 L60.0581089,92.2197113 C60.0581089,92.6507785 59.7014391,92.9991333 59.2611817,92.9991333" id="Fill-15" fill="#FFFFFF"></path>
                            <path d="M76.2591452,80.3928472 C75.8188878,80.3928472 75.462218,80.0440548 75.462218,79.6134252 L75.462218,27.2319797 C75.462218,26.8009126 75.8188878,26.4525578 76.2591452,26.4525578 C76.6994027,26.4525578 77.0560725,26.8009126 77.0560725,27.2319797 L77.0560725,79.6134252 C77.0560725,80.0440548 76.6994027,80.3928472 76.2591452,80.3928472" id="Fill-17" fill="#FFFFFF"></path>
                            <path d="M74.6577635,31.2308827 C74.217506,31.2308827 73.8608362,30.8825279 73.8608362,30.4514608 L73.8608362,12.2035337 C73.8608362,11.7729042 74.217506,11.4241117 74.6577635,11.4241117 C75.0980209,11.4241117 75.4546907,11.7729042 75.4546907,12.2035337 L75.4546907,30.4514608 C75.4546907,30.8825279 75.0980209,31.2308827 74.6577635,31.2308827" id="Fill-19" fill="#FFFFFF"></path>
                            <path d="M129.71839,92.4144574 C129.608107,92.4144574 129.519268,92.3278063 129.519268,92.2197113 L129.519268,77.5323554 C129.519268,77.4242604 129.608107,77.3376093 129.71839,77.3376093 C129.828673,77.3376093 129.917512,77.4242604 129.917512,77.5323554 L129.917512,92.2197113 C129.917512,92.3278063 129.828673,92.4144574 129.71839,92.4144574" id="Fill-23" fill="#FFFFFF"></path>
                            <path d="M107.592346,92.4144574 C107.482063,92.4144574 107.393224,92.3278063 107.393224,92.2197113 L107.393224,81.6714756 C107.393224,81.5633806 107.482063,81.4767295 107.592346,81.4767295 C107.702629,81.4767295 107.791469,81.5633806 107.791469,81.6714756 L107.791469,92.2197113 C107.791469,92.3278063 107.702629,92.4144574 107.592346,92.4144574" id="Fill-25" fill="#FFFFFF"></path>
                            <path d="M136.172363,92.4144574 C136.06208,92.4144574 135.97324,92.3278063 135.97324,92.2197113 L135.97324,64.9443185 C135.97324,64.8362235 136.06208,64.7495725 136.172363,64.7495725 C136.282646,64.7495725 136.371485,64.8362235 136.371485,64.9443185 L136.371485,92.2197113 C136.371485,92.3278063 136.282646,92.4144574 136.172363,92.4144574" id="Fill-31" fill="#FFFFFF"></path>
                            <path d="M139.280248,92.4144574 C139.169965,92.4144574 139.081125,92.3278063 139.081125,92.2197113 L139.081125,59.0100333 C139.081125,58.9019383 139.169965,58.8152872 139.280248,58.8152872 C139.390968,58.8152872 139.479808,58.9019383 139.479808,59.0100333 L139.479808,92.2197113 C139.479808,92.3278063 139.390968,92.4144574 139.280248,92.4144574" id="Fill-33" fill="#FFFFFF"></path>
                            <path d="M101.756309,92.4144574 C101.645589,92.4144574 101.556749,92.3278063 101.556749,92.2197113 L101.556749,72.9105275 C101.556749,72.8024325 101.645589,72.7157814 101.756309,72.7157814 C101.866592,72.7157814 101.955432,72.8024325 101.955432,72.9105275 L101.955432,92.2197113 C101.955432,92.3278063 101.866592,92.4144574 101.756309,92.4144574" id="Fill-35" fill="#FFFFFF"></path>
                            <path d="M95.8329211,92.4144574 C95.7226379,92.4144574 95.6337987,92.3278063 95.6337987,92.2197113 L95.6337987,61.1841874 C95.6337987,61.0760924 95.7226379,60.9894413 95.8329211,60.9894413 C95.9432043,60.9894413 96.0320435,61.0760924 96.0320435,61.1841874 L96.0320435,92.2197113 C96.0320435,92.3278063 95.9432043,92.4144574 95.8329211,92.4144574" id="Fill-37" fill="#FFFFFF"></path>
                            <path d="M89.3789046,92.4144574 C89.2686214,92.4144574 89.1797822,92.3278063 89.1797822,92.2197113 L89.1797822,40.0938427 C89.1797822,39.9857477 89.2686214,39.8990966 89.3789046,39.8990966 C89.4891877,39.8990966 89.578027,39.9857477 89.578027,40.0938427 L89.578027,92.2197113 C89.578027,92.3278063 89.4891877,92.4144574 89.3789046,92.4144574" id="Fill-39" fill="#FFFFFF"></path>
                            <path d="M83.695251,92.4144574 C83.5849678,92.4144574 83.4961286,92.3278063 83.4961286,92.2197113 L83.4961286,21.0647432 C83.4961286,20.9566482 83.5849678,20.8699971 83.695251,20.8699971 C83.8055342,20.8699971 83.8943734,20.9566482 83.8943734,21.0647432 L83.8943734,92.2197113 C83.8943734,92.3278063 83.8055342,92.4144574 83.695251,92.4144574" id="Fill-41" fill="#FFFFFF"></path>
                            <path d="M42.6337609,92.4144574 C42.5230401,92.4144574 42.4342009,92.3278063 42.4342009,92.2197113 L42.4342009,45.9778003 C42.4342009,45.8697053 42.5230401,45.7826166 42.6337609,45.7826166 C42.7440441,45.7826166 42.8328833,45.8697053 42.8328833,45.9778003 L42.8328833,92.2197113 C42.8328833,92.3278063 42.7440441,92.4144574 42.6337609,92.4144574" id="Fill-43" fill="#FFFFFF"></path>
                            <path d="M30.7232216,92.4144574 C30.6129384,92.4144574 30.5240992,92.3278063 30.5240992,92.2197113 L30.5240992,65.4602863 C30.5240992,65.3521912 30.6129384,65.2655402 30.7232216,65.2655402 C30.8335048,65.2655402 30.922344,65.3521912 30.922344,65.4602863 L30.922344,92.2197113 C30.922344,92.3278063 30.8335048,92.4144574 30.7232216,92.4144574" id="Fill-45" fill="#FFFFFF"></path>
                            <path d="M18.3428409,92.5820266 C18.2325578,92.5820266 18.1437185,92.4953755 18.1437185,92.3872805 L18.1437185,83.3628782 C18.1437185,83.2547831 18.2325578,83.1681321 18.3428409,83.1681321 C18.4531241,83.1681321 18.5419633,83.2547831 18.5419633,83.3628782 L18.5419633,92.3872805 C18.5419633,92.4953755 18.4531241,92.5820266 18.3428409,92.5820266" id="Fill-47" fill="#FFFFFF"></path>
                            <path d="M24.2504306,92.5820266 C24.1401474,92.5820266 24.0513082,92.4953755 24.0513082,92.3872805 L24.0513082,74.9533483 C24.0513082,74.8456909 24.1401474,74.7586022 24.2504306,74.7586022 C24.3611514,74.7586022 24.4499907,74.8456909 24.4499907,74.9533483 L24.4499907,92.3872805 C24.4499907,92.4953755 24.3611514,92.5820266 24.2504306,92.5820266" id="Fill-49" fill="#FFFFFF"></path>
                            <path d="M48.3934749,92.4144574 C48.2831917,92.4144574 48.1943525,92.3278063 48.1943525,92.2197113 L48.1943525,35.2212519 C48.1943525,35.1127193 48.2831917,35.0260682 48.3934749,35.0260682 C48.503758,35.0260682 48.5930349,35.1127193 48.5930349,35.2212519 L48.5930349,92.2197113 C48.5930349,92.3278063 48.503758,92.4144574 48.3934749,92.4144574" id="Fill-51" fill="#FFFFFF"></path>
                            <path d="M55.1214051,92.4144574 C55.0111219,92.4144574 54.9222827,92.3278063 54.9222827,92.2197113 L54.9222827,22.1885813 C54.9222827,22.0804863 55.0111219,21.9933976 55.1214051,21.9933976 C55.2316883,21.9933976 55.3205275,22.0804863 55.3205275,22.1885813 L55.3205275,92.2197113 C55.3205275,92.3278063 55.2316883,92.4144574 55.1214051,92.4144574" id="Fill-53" fill="#FFFFFF"></path>
                            <path d="M70.7592532,92.4770825 C70.64897,92.4770825 70.5601308,92.3899938 70.5601308,92.2823364 L70.5601308,22.1899379 C70.5601308,22.0818429 70.64897,21.9951918 70.7592532,21.9951918 C70.8695364,21.9951918 70.9583756,22.0818429 70.9583756,22.1899379 L70.9583756,92.2823364 C70.9583756,92.3899938 70.8695364,92.4770825 70.7592532,92.4770825" id="Fill-55" fill="#FFFFFF"></path>
                            <path d="M150.689655,92.5820266 C150.579372,92.5820266 150.490533,92.4953755 150.490533,92.3872805 L150.490533,43.0535018 C150.490533,42.9454068 150.579372,42.8583181 150.689655,42.8583181 C150.799938,42.8583181 150.888777,42.9454068 150.888777,43.0535018 L150.888777,92.3872805 C150.888777,92.4953755 150.799938,92.5820266 150.689655,92.5820266" id="Fill-57" fill="#FFFFFF"></path>
                            <path d="M154.234953,92.5181324 C154.12467,92.5181324 154.03583,92.4314813 154.03583,92.3233863 L154.03583,56.008274 C154.03583,55.900179 154.12467,55.813528 154.234953,55.813528 C154.345236,55.813528 154.434075,55.900179 154.434075,56.008274 L154.434075,92.3233863 C154.434075,92.4314813 154.345236,92.5181324 154.234953,92.5181324" id="Fill-59" fill="#FFFFFF"></path>
                            <path d="M163.292703,92.2212868 C163.181982,92.2212868 163.093143,92.1346357 163.093143,92.0265407 L163.093143,50.4318402 C163.093143,50.3237452 163.181982,50.2370941 163.292703,50.2370941 C163.402986,50.2370941 163.491825,50.3237452 163.491825,50.4318402 L163.491825,92.0265407 C163.491825,92.1346357 163.402986,92.2212868 163.292703,92.2212868" id="Fill-61" fill="#FFFFFF"></path>
                            <path d="M168.251113,92.2228185 C168.140392,92.2228185 168.051553,92.1361674 168.051553,92.0280724 L168.051553,62.2892511 C168.051553,62.181156 168.140392,62.094505 168.251113,62.094505 C168.361396,62.094505 168.450235,62.181156 168.450235,62.2892511 L168.450235,92.0280724 C168.450235,92.1361674 168.361396,92.2228185 168.251113,92.2228185" id="Fill-63" fill="#FFFFFF"></path>
                            <path d="M174.143123,92.5820266 C174.03284,92.5820266 173.944001,92.4953755 173.944001,92.3872805 L173.944001,74.1651737 C173.944001,74.0566411 174.03284,73.96999 174.143123,73.96999 C174.253406,73.96999 174.342683,74.0566411 174.342683,74.1651737 L174.342683,92.3872805 C174.342683,92.4953755 174.253406,92.5820266 174.143123,92.5820266" id="Fill-65" fill="#FFFFFF"></path>
                            <path d="M178.960047,92.5820266 C178.849326,92.5820266 178.760487,92.4953755 178.760487,92.3872805 L178.760487,79.6180641 C178.760487,79.5099691 178.849326,79.423318 178.960047,79.423318 C179.07033,79.423318 179.15917,79.5099691 179.15917,79.6180641 L179.15917,92.3872805 C179.15917,92.4953755 179.07033,92.5820266 178.960047,92.5820266" id="Fill-67" fill="#FFFFFF"></path>
                            <path d="M184.315302,92.5181324 C184.205019,92.5181324 184.116179,92.4314813 184.116179,92.3233863 L184.116179,84.4346381 C184.116179,84.3265431 184.205019,84.2394544 184.315302,84.2394544 C184.425585,84.2394544 184.514424,84.3265431 184.514424,84.4346381 L184.514424,92.3233863 C184.514424,92.4314813 184.425585,92.5181324 184.315302,92.5181324" id="Fill-69" fill="#FFFFFF"></path>
                        </g>
                    </g>
                </g>
                <g id="Group-5-Copy" transform="translate(272.500000, 16.796875)">
                    <mask id="mask-12" fill="white">
                        <use xlink:href="#path-11"></use>
                    </mask>
                    <use id="Rectangle-5" fill-opacity="0" fill="#FFFFFF" xlink:href="#path-11"></use>
                    <g id="Page-1" mask="url(#mask-12)">
                        <g transform="translate(-118.786085, 1.652162)">
                            <path d="M155.095578,48.804564 L154.538567,49.5675979 L149.410382,49.5675979 L148.351271,48.859035 L148.351271,37.4091332 L149.410382,36.8639835 L154.482778,36.8639835 L155.095578,37.7363988 L155.095578,48.804564 Z M154.817072,68.1602353 L153.925329,69.0322113 L149.410382,69.0322113 L148.351271,68.5419719 L148.134266,58.3602791 C148.100441,56.7665617 149.412139,55.4561816 151.041877,55.4561816 L154.203834,55.4561816 L154.817072,56.2196548 L154.817072,68.1602353 Z M159.738356,59.8195674 L159.738356,49.275475 L159.384733,48.6011761 L159.363208,33.7824158 L156.626478,31.1036703 L151.402968,31.1036703 L147.318957,31.1036703 C145.712501,31.1036703 144.410467,32.37759 144.410467,33.9484647 L144.410467,48.3529814 L143.763843,49.2152932 L143.763843,67.614207 L143.176083,68.30432 L143.176083,93.0038559 C143.176083,94.5751699 144.478116,95.8486503 146.084573,95.8486503 L146.204497,95.8486503 C147.810954,95.8486503 149.112987,94.5751699 149.112987,93.0038559 L149.112987,76.593144 L149.695037,75.7049145 L153.294519,75.7049145 L154.546474,76.7851105 L154.546474,93.1052209 C154.546474,94.6765349 155.848508,95.9500152 157.454525,95.9500152 C159.060982,95.9500152 160.362576,94.6765349 160.362576,93.1052209 L160.362576,81.442385 L160.362576,68.5309899 L159.738356,59.8195674 Z" id="Fill-1" fill="#FFFFFF"></path>
                            <path d="M158.338801,32.1133615 C158.593585,31.5941294 156.676995,30.219614 156.676995,30.219614 L156.676995,28.8573986 L155.689048,28.8573986 L155.689048,30.219614 L153.282658,32.1133615 L150.184398,32.1133615 L147.937906,30.219614 L147.937906,28.8573986 L147.101512,28.8573986 L147.101512,30.219614 C147.101512,30.219614 146.291036,30.7406032 146.114005,31.0379976 C145.936535,31.3353919 145.084766,32.1133615 145.084766,32.1133615 L158.338801,32.1133615 Z" id="Fill-3" fill="#FFFFFF"></path>
                            <path d="M75.8231609,29.4660686 L75.0192737,30.5664716 L67.6252685,30.5664716 L66.098322,29.5447002 L66.098322,13.0355803 L67.6252685,12.2492644 L74.938885,12.2492644 L75.8231609,13.5069306 L75.8231609,29.4660686 Z M75.4212173,57.3745728 L74.1354371,58.6326782 L67.6252685,58.6326782 L66.098322,57.9249939 L65.78116,43.0280413 C65.734596,40.8483209 67.528187,39.0569263 69.7566678,39.0569263 L74.5369414,39.0569263 L75.4212173,40.1577686 L75.4212173,57.3745728 Z M82.5169497,40.9319221 L82.5169497,30.1456388 L82.0069426,29.1730671 L82.0069426,7.83359539 C82.0069426,5.68506404 80.22653,3.94374768 78.0301169,3.94374768 L70.4990554,3.94374768 L64.3930269,3.94374768 C62.1966137,3.94374768 60.4162012,5.68506404 60.4162012,7.83359539 L60.4162012,28.8150517 L59.4840434,30.0586609 L59.4840434,56.5878176 L58.636228,57.5827927 L58.636228,92.9195752 C58.636228,95.0681066 60.4166405,96.8094229 62.6130536,96.8094229 L63.2201422,96.8094229 C65.4165554,96.8094229 67.1965286,95.0681066 67.1965286,92.9195752 L67.1965286,69.533916 L68.0355584,68.2534072 L72.128794,68.2534072 C72.8355998,68.2534072 73.5186843,68.5059947 74.0484591,68.9637272 C74.673119,69.5022877 75.0306951,70.2776215 75.0306951,71.0920515 L75.0306951,93.391054 C75.0306951,95.5395854 76.8111076,97.2809017 79.0075207,97.2809017 L79.4406534,97.2809017 C81.6370666,97.2809017 83.4174791,95.5395854 83.4174791,93.391054 L83.4174791,76.5259777 L83.4174791,57.909619 L82.5169497,40.9319221 Z" id="Fill-5" fill="#FFFFFF"></path>
                            <path d="M80.557222,5.06229305 C79.7906738,3.94387947 77.9184512,2.31106593 77.9184512,2.31106593 L77.9184512,0.33209767 L76.4833149,0.33209767 L76.4833149,2.31106593 L72.9866251,5.06229305 L68.485296,5.06229305 L65.221426,2.31106593 L65.221426,0.33209767 L64.0068096,0.33209767 L64.0068096,2.31106593 C64.0068096,2.31106593 63.188426,3.07234273 62.8132787,3.61266037 C62.5259878,4.0264646 61.6021764,5.06229305 61.6021764,5.06229305 L80.557222,5.06229305 Z" id="Fill-7" fill="#FFFFFF"></path>
                            <g id="Group-11" stroke-width="1" fill="none" transform="translate(17.364658, 3.721163)">
                                <mask id="mask-14" fill="white">
                                    <use xlink:href="#path-13"></use>
                                </mask>
                                <g id="Clip-10"></g>
                                <path d="M184.542458,90.9994179 C184.508194,90.9994179 184.473491,90.9963429 184.437909,90.990193 C177.813966,89.8397118 170.586009,87.5629099 163.532448,84.4057856 C160.483388,83.0413738 157.787071,81.398896 157.760274,81.3835211 C156.568501,80.6543119 154.770517,79.4858201 152.961551,78.0445338 C152.789352,77.9026455 148.870073,74.6493184 145.134852,69.777674 C142.683655,66.5810142 133.132772,38.4339796 130.397359,30.2866046 C128.844495,37.8427052 126.763613,45.2964529 124.203474,52.4756489 C120.289905,63.4344328 116.156695,71.2536636 110.382764,78.6160405 C107.288018,82.5586021 105.703965,84.4791458 103.521609,85.0414276 C93.1580528,87.7386229 79.0891479,65.9466901 72.3465988,55.4763886 L70.3127202,52.3333214 C62.620442,40.4788403 53.936703,27.0956556 46.3990523,3.35286862 C45.2990886,7.93985786 42.407291,13.0056652 38.355348,20.1018368 C35.9884932,24.2460292 33.3062334,28.9432783 30.3054938,34.696563 C19.2074574,55.9626745 -1.68789959,87.9204859 -9.17107922,89.5862457 C-9.48955913,89.6609237 -9.81594612,89.459293 -9.88798848,89.1443274 C-9.96310581,88.8280439 -9.75971795,88.5148353 -9.43640593,88.4432323 C-2.95039787,86.9975531 17.0237834,57.5669346 29.2367191,34.1615167 C32.2488801,28.3902215 34.9355327,23.6837474 37.3072197,19.5303301 C42.0391722,11.2437025 45.1646681,5.77024094 45.6272327,0.725958478 C45.6522718,0.444817593 45.8771845,0.221662016 46.1644754,0.194426493 C46.4412234,0.171144513 46.7162143,0.339389761 46.7987995,0.609987863 C54.4598886,25.7101582 63.4203757,39.5207648 71.3252667,51.7038294 L73.3622202,54.8499716 C79.9483847,65.0834998 93.6518064,86.3588362 103.215429,83.9076391 C105.018245,83.4415602 106.505656,81.6295194 109.429521,77.9008884 C115.122184,70.6443786 119.202681,62.9244256 123.069246,52.0873231 C125.862205,44.2619423 128.078826,36.1070995 129.659804,27.8459503 C129.709882,27.5832593 129.936552,27.3860214 130.209786,27.3693287 C130.504984,27.3341861 130.734728,27.5173669 130.819071,27.7725901 C135.161819,40.8298271 143.943079,66.2660486 146.094246,69.0748218 C149.743366,73.8331312 153.687685,77.1079832 153.728538,77.1400509 C155.479519,78.5365304 157.234014,79.6782259 158.394599,80.3872281 C158.421395,80.4039208 161.056651,82.0068632 164.032791,83.3392074 C170.993664,86.4550391 178.121903,88.7015305 184.647007,89.8353189 C184.973394,89.8915471 185.190839,90.1955307 185.132854,90.5148892 C185.081458,90.799105 184.828431,90.9994179 184.542458,90.9994179" id="Fill-9" fill="#FFFFFF" mask="url(#mask-14)"></path>
                            </g>
                            <g id="Group-14" stroke-width="1" fill="none" transform="translate(13.643660, 4.599728)">
                                <mask id="mask-16" fill="white">
                                    <use xlink:href="#path-15"></use>
                                </mask>
                                <g id="Clip-13"></g>
                                <path d="M175.235194,83.8511034 C172.845723,82.5020665 169.100726,79.1494614 166.395763,76.5853687 C160.094193,70.6150784 158.402286,66.6132137 156.910988,63.0818206 L156.41708,61.9221144 C155.250413,59.2385368 154.143798,56.710026 153.103763,54.3321891 C148.982786,44.9117731 145.940573,37.9574897 144.264332,33.0796954 C142.86877,43.2934559 140.036741,49.3625847 137.508018,54.7859681 C136.873553,56.14423 136.254319,57.4691064 135.678601,58.8185826 C131.249964,69.1759885 127.504967,73.3258916 124.42533,76.0182548 C121.203397,78.8393279 113.652914,85.4509708 105.15726,84.2499721 C94.75299,82.7893573 88.9853628,70.4516653 84.3522009,60.5392527 C82.3835314,56.3247751 80.3844006,49.908613 76.4022399,37.126367 C75.5406206,34.3571293 74.9522826,32.395293 74.3147714,30.2634544 C73.6341792,27.9897275 72.8957105,25.5205199 71.7242564,21.7418107 C70.0266924,16.2560492 68.2529751,10.7166952 66.4487965,5.25201922 C66.2133743,5.24762639 66.0619382,5.201941 65.9518424,4.98932821 C62.8278197,13.6076142 54.9753349,26.865164 42.0967376,45.2904347 C41.0645351,46.7668636 40.0110097,48.4031914 38.8952562,50.1344043 C32.0440774,60.7668011 22.659825,75.3277025 -3.38153001,88.8281756 C-3.76708288,89.0284885 -4.24837123,88.883086 -4.45072121,88.4995922 C-4.655247,88.1178556 -4.50511637,87.6438697 -4.11825802,87.4435568 C21.5505989,74.1359287 30.8029975,59.7779759 37.5580057,49.2940566 C38.6833327,47.5505439 39.744691,45.9019161 40.7938648,44.4013267 C55.6132813,23.1975933 63.7094564,8.9578075 65.5436611,0.865342857 C65.6302582,0.484484815 65.9596753,0.205101061 66.385263,0.256936411 C67.0662904,0.314921719 67.1019736,0.849967965 67.1467952,1.52822035 C67.1637665,1.79881845 67.1977091,2.31541482 67.2351329,2.82717909 C67.3121565,2.90844638 67.3726439,3.00772425 67.4083271,3.11754491 C69.4061524,9.12429562 71.366989,15.2364742 73.2407934,21.2831996 C74.4122475,25.0680587 75.1537623,27.5420985 75.8343545,29.8206575 C76.4705602,31.9472248 77.0571576,33.9033503 77.8957133,36.6018635 C81.8774388,49.3810346 83.8661258,55.7638112 85.7399301,59.7753402 C90.2634314,69.4522973 95.8300141,81.3603709 105.379628,82.7006222 C113.152913,83.7838932 120.315232,77.5236764 123.374416,74.8480059 C126.320893,72.2698561 129.914455,68.2789734 134.217764,58.2106155 C134.801315,56.8457643 135.426642,55.505513 136.06894,54.1305584 C138.851361,48.1664181 142.003234,41.4080548 143.126821,29.042688 C143.162504,28.6591943 143.473644,28.3582857 143.863549,28.3319287 C144.278257,28.2985432 144.602017,28.5643092 144.688614,28.9403351 C145.749973,33.5752062 149.253891,41.5850857 154.558507,53.7114828 C155.598542,56.0893197 156.705157,58.6200269 157.871825,61.3049223 L158.37313,62.4795641 C159.875742,66.035557 161.429703,69.7119134 167.492805,75.4577302 C171.225183,78.9965911 174.289588,81.5180734 176.120312,82.5582946 C176.293506,82.6839295 184.072884,88.691998 188.981503,88.7517405 C189.41971,88.7578904 189.76958,89.1123915 189.764793,89.5433278 C189.758701,89.9725069 189.405785,90.3164652 188.972364,90.3164652 C183.515877,90.249255 175.570703,84.1124766 175.235194,83.8511034 Z" id="Fill-12" fill="#FFFFFF" mask="url(#mask-16)"></path>
                            </g>
                            <path d="M59.4847463,93.3499753 C59.042828,93.3499753 58.6848126,93.0003064 58.6848126,92.567613 L58.6848126,16.5923639 C58.6848126,16.1596705 59.042828,15.8100016 59.4847463,15.8100016 C59.9266646,15.8100016 60.28468,16.1596705 60.28468,16.5923639 L60.28468,92.567613 C60.28468,93.0003064 59.9266646,93.3499753 59.4847463,93.3499753" id="Fill-15" fill="#FFFFFF"></path>
                            <path d="M76.5468352,80.6961316 C76.1049168,80.6961316 75.7469015,80.3460234 75.7469015,79.9137693 L75.7469015,27.3347132 C75.7469015,26.9020198 76.1049168,26.5523508 76.5468352,26.5523508 C76.9887535,26.5523508 77.3467688,26.9020198 77.3467688,27.3347132 L77.3467688,79.9137693 C77.3467688,80.3460234 76.9887535,80.6961316 76.5468352,80.6961316" id="Fill-17" fill="#FFFFFF"></path>
                            <path d="M74.9394121,31.3487022 C74.4974938,31.3487022 74.1394785,30.9990332 74.1394785,30.5663398 L74.1394785,12.2495719 C74.1394785,11.8173178 74.4974938,11.4672095 74.9394121,11.4672095 C75.3813305,11.4672095 75.7393458,11.8173178 75.7393458,12.2495719 L75.7393458,30.5663398 C75.7393458,30.9990332 75.3813305,31.3487022 74.9394121,31.3487022" id="Fill-19" fill="#FFFFFF"></path>
                            <path d="M124.262198,92.7630938 C124.151059,92.7630938 124.061885,92.6761158 124.061885,92.567613 L124.061885,85.7293002 C124.061885,85.6212367 124.151059,85.5338195 124.262198,85.5338195 C124.372897,85.5338195 124.462071,85.6212367 124.462071,85.7293002 L124.462071,92.567613 C124.462071,92.6761158 124.372897,92.7630938 124.262198,92.7630938" id="Fill-21" fill="#FFFFFF"></path>
                            <path d="M130.207756,92.7630938 C130.097057,92.7630938 130.007883,92.6761158 130.007883,92.567613 L130.007883,77.8248486 C130.007883,77.7163458 130.097057,77.6293678 130.207756,77.6293678 C130.318456,77.6293678 130.40763,77.7163458 130.40763,77.8248486 L130.40763,92.567613 C130.40763,92.6761158 130.318456,92.7630938 130.207756,92.7630938" id="Fill-23" fill="#FFFFFF"></path>
                            <path d="M107.998242,92.7630938 C107.887542,92.7630938 107.798368,92.6761158 107.798368,92.567613 L107.798368,81.9795837 C107.798368,81.8710809 107.887542,81.7841029 107.998242,81.7841029 C108.108941,81.7841029 108.198115,81.8710809 108.198115,81.9795837 L108.198115,92.567613 C108.198115,92.6761158 108.108941,92.7630938 107.998242,92.7630938" id="Fill-25" fill="#FFFFFF"></path>
                            <path d="M136.686077,92.7630938 C136.575378,92.7630938 136.486204,92.6761158 136.486204,92.567613 L136.486204,65.1893229 C136.486204,65.0808201 136.575378,64.9938422 136.686077,64.9938422 C136.796776,64.9938422 136.885951,65.0808201 136.885951,65.1893229 L136.885951,92.567613 C136.885951,92.6761158 136.796776,92.7630938 136.686077,92.7630938" id="Fill-31" fill="#FFFFFF"></path>
                            <path d="M139.805687,92.7630938 C139.694987,92.7630938 139.605813,92.6761158 139.605813,92.567613 L139.605813,59.2326505 C139.605813,59.1241476 139.694987,59.0371697 139.805687,59.0371697 C139.916825,59.0371697 140.006,59.1241476 140.006,59.2326505 L140.006,92.567613 C140.006,92.6761158 139.916825,92.7630938 139.805687,92.7630938" id="Fill-33" fill="#FFFFFF"></path>
                            <path d="M102.140188,92.7630938 C102.02905,92.7630938 101.939875,92.6761158 101.939875,92.567613 L101.939875,73.1855847 C101.939875,73.0770819 102.02905,72.9901039 102.140188,72.9901039 C102.250887,72.9901039 102.340062,73.0770819 102.340062,73.1855847 L102.340062,92.567613 C102.340062,92.6761158 102.250887,92.7630938 102.140188,92.7630938" id="Fill-35" fill="#FFFFFF"></path>
                            <path d="M96.1944537,92.7630938 C96.0837545,92.7630938 95.9945801,92.6761158 95.9945801,92.567613 L95.9945801,61.4150066 C95.9945801,61.3065038 96.0837545,61.2195258 96.1944537,61.2195258 C96.3051529,61.2195258 96.3943273,61.3065038 96.3943273,61.4150066 L96.3943273,92.567613 C96.3943273,92.6761158 96.3051529,92.7630938 96.1944537,92.7630938" id="Fill-37" fill="#FFFFFF"></path>
                            <path d="M89.7160892,92.7630938 C89.60539,92.7630938 89.5162156,92.6761158 89.5162156,92.567613 L89.5162156,40.245098 C89.5162156,40.1365952 89.60539,40.0496172 89.7160892,40.0496172 C89.8267884,40.0496172 89.9159628,40.1365952 89.9159628,40.245098 L89.9159628,92.567613 C89.9159628,92.6761158 89.8267884,92.7630938 89.7160892,92.7630938" id="Fill-39" fill="#FFFFFF"></path>
                            <path d="M84.0109938,92.7630938 C83.9002946,92.7630938 83.8111203,92.6761158 83.8111203,92.567613 L83.8111203,21.1442106 C83.8111203,21.0357078 83.9002946,20.9487298 84.0109938,20.9487298 C84.1216931,20.9487298 84.2108674,21.0357078 84.2108674,21.1442106 L84.2108674,92.567613 C84.2108674,92.6761158 84.1216931,92.7630938 84.0109938,92.7630938" id="Fill-41" fill="#FFFFFF"></path>
                            <path d="M42.7945981,92.7630938 C42.6834595,92.7630938 42.5942852,92.6761158 42.5942852,92.567613 L42.5942852,46.151253 C42.5942852,46.0427501 42.6834595,45.9553329 42.7945981,45.9553329 C42.9052973,45.9553329 42.9944717,46.0427501 42.9944717,46.151253 L42.9944717,92.567613 C42.9944717,92.6761158 42.9052973,92.7630938 42.7945981,92.7630938" id="Fill-43" fill="#FFFFFF"></path>
                            <path d="M30.8391259,92.7630938 C30.7284266,92.7630938 30.6392523,92.6761158 30.6392523,92.567613 L30.6392523,65.7072372 C30.6392523,65.5987344 30.7284266,65.5117564 30.8391259,65.5117564 C30.9498251,65.5117564 31.0389995,65.5987344 31.0389995,65.7072372 L31.0389995,92.567613 C31.0389995,92.6761158 30.9498251,92.7630938 30.8391259,92.7630938" id="Fill-45" fill="#FFFFFF"></path>
                            <path d="M18.4120399,92.9312951 C18.3013406,92.9312951 18.2121663,92.8443171 18.2121663,92.7358143 L18.2121663,83.6773671 C18.2121663,83.5688643 18.3013406,83.4818864 18.4120399,83.4818864 C18.5227391,83.4818864 18.6119135,83.5688643 18.6119135,83.6773671 L18.6119135,92.7358143 C18.6119135,92.8443171 18.5227391,92.9312951 18.4120399,92.9312951" id="Fill-47" fill="#FFFFFF"></path>
                            <path d="M24.3419161,92.9312951 C24.2312169,92.9312951 24.1420425,92.8443171 24.1420425,92.7358143 L24.1420425,75.2361121 C24.1420425,75.1280486 24.2312169,75.0406313 24.3419161,75.0406313 C24.4530546,75.0406313 24.542229,75.1280486 24.542229,75.2361121 L24.542229,92.7358143 C24.542229,92.8443171 24.4530546,92.9312951 24.3419161,92.9312951" id="Fill-49" fill="#FFFFFF"></path>
                            <path d="M48.5760407,92.7630938 C48.4653415,92.7630938 48.3761671,92.6761158 48.3761671,92.567613 L48.3761671,35.3541251 C48.3761671,35.2451831 48.4653415,35.1582051 48.5760407,35.1582051 C48.6867399,35.1582051 48.7763536,35.2451831 48.7763536,35.3541251 L48.7763536,92.567613 C48.7763536,92.6761158 48.6867399,92.7630938 48.5760407,92.7630938" id="Fill-51" fill="#FFFFFF"></path>
                            <path d="M55.3293522,92.7630938 C55.218653,92.7630938 55.1294786,92.6761158 55.1294786,92.567613 L55.1294786,22.2722884 C55.1294786,22.1637856 55.218653,22.0763683 55.3293522,22.0763683 C55.4400515,22.0763683 55.5292258,22.1637856 55.5292258,22.2722884 L55.5292258,92.567613 C55.5292258,92.6761158 55.4400515,92.7630938 55.3293522,92.7630938" id="Fill-53" fill="#FFFFFF"></path>
                            <path d="M71.0261946,92.8259551 C70.9154954,92.8259551 70.826321,92.7385379 70.826321,92.6304743 L70.826321,22.2736501 C70.826321,22.1651473 70.9154954,22.0781694 71.0261946,22.0781694 C71.1368938,22.0781694 71.2260682,22.1651473 71.2260682,22.2736501 L71.2260682,92.6304743 C71.2260682,92.7385379 71.1368938,92.8259551 71.0261946,92.8259551" id="Fill-55" fill="#FFFFFF"></path>
                            <path d="M151.258136,92.9312951 C151.147437,92.9312951 151.058263,92.8443171 151.058263,92.7358143 L151.058263,43.2159225 C151.058263,43.1074197 151.147437,43.0200024 151.258136,43.0200024 C151.368836,43.0200024 151.45801,43.1074197 151.45801,43.2159225 L151.45801,92.7358143 C151.45801,92.8443171 151.368836,92.9312951 151.258136,92.9312951" id="Fill-57" fill="#FFFFFF"></path>
                            <path d="M154.816809,92.8671598 C154.70611,92.8671598 154.616935,92.7801818 154.616935,92.671679 L154.616935,56.219567 C154.616935,56.1110641 154.70611,56.0240862 154.816809,56.0240862 C154.927508,56.0240862 155.016682,56.1110641 155.016682,56.219567 L155.016682,92.671679 C155.016682,92.7801818 154.927508,92.8671598 154.816809,92.8671598" id="Fill-59" fill="#FFFFFF"></path>
                            <path d="M163.908729,92.5691944 C163.797591,92.5691944 163.708416,92.4822164 163.708416,92.3737136 L163.708416,50.6220959 C163.708416,50.5135931 163.797591,50.4266151 163.908729,50.4266151 C164.019429,50.4266151 164.108603,50.5135931 164.108603,50.6220959 L164.108603,92.3737136 C164.108603,92.4822164 164.019429,92.5691944 163.908729,92.5691944" id="Fill-61" fill="#FFFFFF"></path>
                            <path d="M168.885845,92.5707319 C168.774707,92.5707319 168.685533,92.4837539 168.685533,92.3752511 L168.685533,62.5242391 C168.685533,62.4157363 168.774707,62.3287584 168.885845,62.3287584 C168.996545,62.3287584 169.085719,62.4157363 169.085719,62.5242391 L169.085719,92.3752511 C169.085719,92.4837539 168.996545,92.5707319 168.885845,92.5707319" id="Fill-63" fill="#FFFFFF"></path>
                            <path d="M174.800083,92.9312951 C174.689384,92.9312951 174.60021,92.8443171 174.60021,92.7358143 L174.60021,74.4449641 C174.60021,74.336022 174.689384,74.249044 174.800083,74.249044 C174.910782,74.249044 175.000396,74.336022 175.000396,74.4449641 L175.000396,92.7358143 C175.000396,92.8443171 174.910782,92.9312951 174.800083,92.9312951" id="Fill-65" fill="#FFFFFF"></path>
                            <path d="M179.635179,92.9312951 C179.524041,92.9312951 179.434866,92.8443171 179.434866,92.7358143 L179.434866,79.9184257 C179.434866,79.8099229 179.524041,79.7229449 179.635179,79.7229449 C179.745879,79.7229449 179.835053,79.8099229 179.835053,79.9184257 L179.835053,92.7358143 C179.835053,92.8443171 179.745879,92.9312951 179.635179,92.9312951" id="Fill-67" fill="#FFFFFF"></path>
                            <path d="M185.010637,92.8671598 C184.899938,92.8671598 184.810763,92.7801818 184.810763,92.671679 L184.810763,84.7531703 C184.810763,84.6446675 184.899938,84.5572503 185.010637,84.5572503 C185.121336,84.5572503 185.210511,84.6446675 185.210511,84.7531703 L185.210511,92.671679 C185.210511,92.7801818 185.121336,92.8671598 185.010637,92.8671598" id="Fill-69" fill="#FFFFFF"></path>
                        </g>
                    </g>
                </g>
                <text id="register-now" font-family="Comfortaa-Bold, Comfortaa" font-size="12" font-weight="bold" fill="#FFFFFF">
                    <tspan x="153.390137" y="91.1542969">register now </tspan>
                </text>
                <text id="Join-us-in-San-Franc" font-family="Comfortaa-Bold, Comfortaa" font-size="12" font-weight="bold" fill="#FFFFFF">
                    <tspan x="107.98584" y="32.796875">Join us in San Francisco</tspan>
                </text>
                <g id="Group-7" transform="translate(124.623047, 17.514533)">
                    <mask id="mask-18" fill="white">
                        <use xlink:href="#path-17"></use>
                    </mask>
                    <g id="Path-5"></g>
                    <path d="M128.556164,11.0365968 L153.144188,11.0365968 L153.144188,55.9857403 L9.39650528,55.9857403 L9.39650528,72.8963029 L20.7178067,72.8963029" id="Path-3" stroke="#FF5757" stroke-width="2" stroke-dasharray="5,2" mask="url(#mask-18)"></path>
                </g>
            </g>
        </g>
    </g>
</svg>