<?xml version="1.0" encoding="UTF-8"?>
<svg width="261px" height="84px" viewBox="0 0 261 84" version="1.1" xmlns="http://www.w3.org/2000/svg" xmlns:xlink="http://www.w3.org/1999/xlink">
    <!-- Generator: Sketch 42 (36781) - http://www.bohemiancoding.com/sketch -->
    <title>dockercon-live-banner</title>
    <desc>Created with Sketch.</desc>
    <defs>
        <polygon id="path-1" points="-8.52651283e-14 0 262 4 262 49 21.3837891 48.8623047"></polygon>
    </defs>
    <g id="fisher" stroke="none" stroke-width="1" fill="none" fill-rule="evenodd">
        <g id="dockercon-live-banner" transform="translate(-1.000000, 0.000000)">
            <g id="Dockercon-Copy-3">
                <g id="Group-3" transform="translate(0.000000, 36.000000)">
                    <mask id="mask-2" fill="white">
                        <use xlink:href="#path-1"></use>
                    </mask>
                    <g id="Mask"></g>
                    <g mask="url(#mask-2)">
                        <g transform="translate(-117.000000, 6.000000)">
                            <polygon id="Rectangle-15" fill="#6CDBFF" points="426.184898 0 448.290479 12 10.0798373 12 0.977539062 0"></polygon>
                            <polygon id="Rectangle-15-Copy" fill="#F27D52" points="437.887852 15 459.993434 27 23.0831204 27 12.6804939 15"></polygon>
                            <polygon id="Rectangle-15-Copy-2" fill="#FAAC18" points="470.39606 30 486 42 33.4857469 42 24.3834487 30"></polygon>
                        </g>
                    </g>
                </g>
                <path d="M14.7607422,28.34375 C14.7607422,27.6874967 14.6354179,27.0699899 14.3847656,26.4912109 C14.1341133,25.912432 13.7923199,25.4042991 13.359375,24.9667969 C12.9264301,24.5292947 12.4182972,24.182944 11.8349609,23.9277344 C11.2516247,23.6725248 10.627282,23.5449219 9.96191406,23.5449219 C9.28743152,23.5449219 8.65853156,23.6725248 8.07519531,23.9277344 C7.49185906,24.182944 6.98600475,24.5270161 6.55761719,24.9599609 C6.12922963,25.3929058 5.78971479,25.9010388 5.5390625,26.484375 C5.28841021,27.0677112 5.16308594,27.6874967 5.16308594,28.34375 C5.16308594,29.0000033 5.28841021,29.6197888 5.5390625,30.203125 C5.78971479,30.7864613 6.12922963,31.2945942 6.55761719,31.7275391 C6.98600475,32.1604839 7.49185906,32.504556 8.07519531,32.7597656 C8.65853156,33.0149752 9.28743152,33.1425781 9.96191406,33.1425781 C10.627282,33.1425781 11.2516247,33.0149752 11.8349609,32.7597656 C12.4182972,32.504556 12.9264301,32.1582053 13.359375,31.7207031 C13.7923199,31.2832009 14.1341133,30.775068 14.3847656,30.1962891 C14.6354179,29.6175101 14.7607422,29.0000033 14.7607422,28.34375 Z M9.96191406,20.6875 C11.7757252,20.6875 13.3753186,21.2480413 14.7607422,22.3691406 L14.7607422,15.546875 C14.7607422,15.1367167 14.8951809,14.7972019 15.1640625,14.5283203 C15.4329441,14.2594388 15.7724589,14.125 16.1826172,14.125 C16.5836609,14.125 16.9231757,14.2594388 17.2011719,14.5283203 C17.4791681,14.7972019 17.6181641,15.1367167 17.6181641,15.546875 L17.6181641,28.34375 C17.6181641,30.4765732 16.8707757,32.2812426 15.3759766,33.7578125 C13.8629482,35.2526116 12.0582787,36 9.96191406,36 C7.84732016,36 6.0426507,35.2526116 4.54785156,33.7578125 C3.05305242,32.2630134 2.30566406,30.4583439 2.30566406,28.34375 C2.30566406,26.2291561 3.05305242,24.4244866 4.54785156,22.9296875 C6.0426507,21.4348884 7.84732016,20.6875 9.96191406,20.6875 Z M35.1181641,28.34375 C35.1181641,30.4765732 34.3707757,32.2812426 32.8759766,33.7578125 C31.3629482,35.2526116 29.5582787,36 27.4619141,36 C25.3473202,36 23.5426507,35.2526116 22.0478516,33.7578125 C20.5530524,32.2630134 19.8056641,30.4583439 19.8056641,28.34375 C19.8056641,26.2291561 20.5530524,24.4244866 22.0478516,22.9296875 C23.5426507,21.4348884 25.3473202,20.6875 27.4619141,20.6875 C29.5582787,20.6875 31.3629482,21.4348884 32.8759766,22.9296875 C33.6233761,23.6770871 34.1816388,24.5019486 34.5507812,25.4042969 C34.9199237,26.3066451 35.1090494,27.286453 35.1181641,28.34375 Z M27.4619141,23.5449219 C26.7874315,23.5449219 26.1585316,23.6725248 25.5751953,23.9277344 C24.9918591,24.182944 24.4860047,24.5270161 24.0576172,24.9599609 C23.6292296,25.3929058 23.2897148,25.9010388 23.0390625,26.484375 C22.7884102,27.0677112 22.6630859,27.6874967 22.6630859,28.34375 C22.6630859,29.0000033 22.7884102,29.6197888 23.0390625,30.203125 C23.2897148,30.7864613 23.6292296,31.2945942 24.0576172,31.7275391 C24.4860047,32.1604839 24.9918591,32.504556 25.5751953,32.7597656 C26.1585316,33.0149752 26.7874315,33.1425781 27.4619141,33.1425781 C28.127282,33.1425781 28.7516247,33.0149752 29.3349609,32.7597656 C29.9182972,32.504556 30.4264301,32.1582053 30.859375,31.7207031 C31.2923199,31.2832009 31.6341133,30.775068 31.8847656,30.1962891 C32.1354179,29.6175101 32.2607422,29.0000033 32.2607422,28.34375 C32.2607422,27.6874967 32.1354179,27.0699899 31.8847656,26.4912109 C31.6341133,25.912432 31.2923199,25.4042991 30.859375,24.9667969 C30.4264301,24.5292947 29.9182972,24.182944 29.3349609,23.9277344 C28.7516247,23.6725248 28.127282,23.5449219 27.4619141,23.5449219 Z M48.9541016,31.6660156 C49.3642599,31.6660156 49.7037747,31.8004544 49.9726562,32.0693359 C50.2415378,32.3382175 50.3759766,32.6777323 50.3759766,33.0878906 C50.3759766,33.4889343 50.2255874,33.8398422 49.9248047,34.140625 C48.5120372,35.3802145 46.8486424,36 44.9345703,36 C42.8199764,36 41.015307,35.2526116 39.5205078,33.7578125 C38.0257087,32.2630134 37.2783203,30.4583439 37.2783203,28.34375 C37.2783203,26.2291561 38.0257087,24.4244866 39.5205078,22.9296875 C41.015307,21.4348884 42.8199764,20.6875 44.9345703,20.6875 C46.857757,20.6875 48.5211518,21.3072855 49.9248047,22.546875 C50.2529313,22.8385431 50.4169922,23.1985656 50.4169922,23.6269531 C50.4169922,24.0371114 50.2825534,24.3789049 50.0136719,24.6523438 C49.7447903,24.9257826 49.4052755,25.0625 48.9951172,25.0625 C48.6487613,25.0625 48.3388686,24.9531261 48.0654297,24.734375 C47.6005836,24.342446 47.1129583,24.046225 46.6025391,23.8457031 C46.0921198,23.6451813 45.5361358,23.5449219 44.9345703,23.5449219 C44.2692024,23.5449219 43.6448597,23.6702461 43.0615234,23.9208984 C42.4781872,24.1715507 41.9677756,24.5133442 41.5302734,24.9462891 C41.0927712,25.3792339 40.7486992,25.8873669 40.4980469,26.4707031 C40.2473946,27.0540394 40.1220703,27.6783821 40.1220703,28.34375 C40.1220703,29.0091179 40.2473946,29.6334606 40.4980469,30.2167969 C40.7486992,30.8001331 41.0927712,31.3082661 41.5302734,31.7412109 C41.9677756,32.1741558 42.4781872,32.5159493 43.0615234,32.7666016 C43.6448597,33.0172539 44.2692024,33.1425781 44.9345703,33.1425781 C45.5361358,33.1425781 46.0921198,33.0445973 46.6025391,32.8486328 C47.1129583,32.6526683 47.5960264,32.3587259 48.0517578,31.9667969 C48.3069674,31.7753897 48.6077457,31.6751303 48.9541016,31.6660156 Z M52.5908203,34.5644531 L52.5908203,15.5605469 C52.5908203,15.1595032 52.7298163,14.8199884 53.0078125,14.5419922 C53.2858087,14.263996 53.6253235,14.125 54.0263672,14.125 C54.4182962,14.125 54.7532538,14.263996 55.03125,14.5419922 C55.3092462,14.8199884 55.4482422,15.1595032 55.4482422,15.5605469 L55.4482422,26.2246094 L63.6240234,20.90625 C63.8518892,20.7604159 64.1070949,20.6875 64.3896484,20.6875 C64.5901703,20.6875 64.7770174,20.723958 64.9501953,20.796875 C65.1233733,20.869792 65.2737624,20.9723301 65.4013672,21.1044922 C65.528972,21.2366543 65.63151,21.3893221 65.7089844,21.5625 C65.7864587,21.7356779 65.8251953,21.9179678 65.8251953,22.109375 C65.8251953,22.6197942 65.6429055,22.9980456 65.2783203,23.2441406 L59.5498047,26.9628906 L65.4287109,33.5800781 C65.6930352,33.8717463 65.8251953,34.2044252 65.8251953,34.578125 C65.8251953,34.7695322 65.7864587,34.9518221 65.7089844,35.125 C65.63151,35.2981779 65.528972,35.4508457 65.4013672,35.5830078 C65.2737624,35.7151699 65.1233733,35.817708 64.9501953,35.890625 C64.7770174,35.963542 64.5901703,36 64.3896484,36 C64.006834,36 63.6878268,35.8769544 63.4326172,35.6308594 L57.1162109,28.5351562 L55.4482422,29.6289062 L55.4482422,34.5644531 C55.4482422,34.9563822 55.3092462,35.2936184 55.03125,35.5761719 C54.7532538,35.8587254 54.4182962,36 54.0263672,36 C53.6253235,36 53.2858087,35.8587254 53.0078125,35.5761719 C52.7298163,35.2936184 52.5908203,34.9563822 52.5908203,34.5644531 Z M79.3330078,26.921875 C79.1780591,26.4205704 78.9479182,25.9625672 78.6425781,25.5478516 C78.3372381,25.1331359 77.9817729,24.7776708 77.5761719,24.4814453 C77.1705709,24.1852199 76.7239608,23.9550789 76.2363281,23.7910156 C75.7486955,23.6269523 75.2451198,23.5449219 74.7255859,23.5449219 C74.2060521,23.5449219 73.7001978,23.6269523 73.2080078,23.7910156 C72.7158179,23.9550789 72.2646505,24.1852199 71.8544922,24.4814453 C71.4443339,24.7776708 71.0888687,25.1331359 70.7880859,25.5478516 C70.4873032,25.9625672 70.2639981,26.4205704 70.1181641,26.921875 L79.3330078,26.921875 Z M78.7177734,31.6933594 C79.1279317,31.6933594 79.4674466,31.8277981 79.7363281,32.0966797 C80.0052097,32.3655612 80.1396484,32.7050761 80.1396484,33.1152344 C80.1396484,33.516278 80.0029311,33.8580715 79.7294922,34.140625 C78.3167247,35.3802145 76.6487726,36 74.7255859,36 C72.610992,36 70.8063226,35.2526116 69.3115234,33.7578125 C67.8167243,32.2630134 67.0693359,30.4583439 67.0693359,28.34375 C67.0693359,26.2291561 67.8167243,24.4244866 69.3115234,22.9296875 C70.8063226,21.4348884 72.610992,20.6875 74.7255859,20.6875 C76.8219506,20.6875 78.62662,21.4348884 80.1396484,22.9296875 C80.887048,23.6679724 81.4475893,24.4905554 81.8212891,25.3974609 C82.1949888,26.3043665 82.3818359,27.286453 82.3818359,28.34375 C82.3818359,28.7539083 82.2428399,29.0934231 81.9648438,29.3623047 C81.6868476,29.6311862 81.3473327,29.765625 80.9462891,29.765625 L70.1181641,29.765625 C70.2731128,30.2669296 70.5009751,30.7249328 70.8017578,31.1396484 C71.1025406,31.5543641 71.4557271,31.9098292 71.8613281,32.2060547 C72.2669291,32.5022801 72.7135392,32.7324211 73.2011719,32.8964844 C73.6888045,33.0605477 74.1969375,33.1425781 74.7255859,33.1425781 C75.3271514,33.1425781 75.8785782,33.0514332 76.3798828,32.8691406 C76.8811874,32.686848 77.3460265,32.4134133 77.7744141,32.0488281 C78.0478529,31.8209624 78.3623029,31.702474 78.7177734,31.6933594 Z M87.3720703,22.109375 L87.3720703,22.3828125 C88.0556675,21.8359348 88.7984986,21.4166681 89.6005859,21.125 C90.4026733,20.8333319 91.2594355,20.6875 92.1708984,20.6875 C92.5719421,20.6875 93.0026019,20.7148435 93.4628906,20.7695312 C93.9231794,20.824219 94.3470033,20.9221998 94.734375,21.0634766 C95.1217467,21.2047533 95.4430326,21.3984363 95.6982422,21.6445312 C95.9534518,21.8906262 96.0810547,22.2096335 96.0810547,22.6015625 C96.0810547,22.8020843 96.0423181,22.9889314 95.9648438,23.1621094 C95.8873694,23.3352873 95.7848314,23.4879551 95.6572266,23.6201172 C95.5296218,23.7522793 95.3792326,23.8548173 95.2060547,23.9277344 C95.0328767,24.0006514 94.8460296,24.0371094 94.6455078,24.0371094 C94.4723299,24.0371094 94.271811,23.9869797 94.0439453,23.8867188 C93.4697237,23.658853 92.845381,23.5449219 92.1708984,23.5449219 C91.5055305,23.5449219 90.8811878,23.6702461 90.2978516,23.9208984 C89.7145153,24.1715507 89.2063824,24.5133442 88.7734375,24.9462891 C88.3404926,25.3792339 87.9986992,25.8873669 87.7480469,26.4707031 C87.4973946,27.0540394 87.3720703,27.6783821 87.3720703,28.34375 L87.3720703,34.578125 C87.3720703,34.970054 87.2330743,35.3050116 86.9550781,35.5830078 C86.6770819,35.861004 86.3421244,36 85.9501953,36 C85.5491516,36 85.2096368,35.861004 84.9316406,35.5830078 C84.6536444,35.3050116 84.5146484,34.970054 84.5146484,34.578125 L84.5146484,22.109375 C84.5146484,21.717446 84.6536444,21.3824884 84.9316406,21.1044922 C85.2096368,20.826496 85.5491516,20.6875 85.9501953,20.6875 C86.3421244,20.6875 86.6770819,20.826496 86.9550781,21.1044922 C87.2330743,21.3824884 87.3720703,21.717446 87.3720703,22.109375 Z M109.342773,31.6660156 C109.752932,31.6660156 110.092447,31.8004544 110.361328,32.0693359 C110.63021,32.3382175 110.764648,32.6777323 110.764648,33.0878906 C110.764648,33.4889343 110.614259,33.8398422 110.313477,34.140625 C108.900709,35.3802145 107.237314,36 105.323242,36 C103.208648,36 101.403979,35.2526116 99.9091797,33.7578125 C98.4143805,32.2630134 97.6669922,30.4583439 97.6669922,28.34375 C97.6669922,26.2291561 98.4143805,24.4244866 99.9091797,22.9296875 C101.403979,21.4348884 103.208648,20.6875 105.323242,20.6875 C107.246429,20.6875 108.909824,21.3072855 110.313477,22.546875 C110.641603,22.8385431 110.805664,23.1985656 110.805664,23.6269531 C110.805664,24.0371114 110.671225,24.3789049 110.402344,24.6523438 C110.133462,24.9257826 109.793947,25.0625 109.383789,25.0625 C109.037433,25.0625 108.72754,24.9531261 108.454102,24.734375 C107.989255,24.342446 107.50163,24.046225 106.991211,23.8457031 C106.480792,23.6451813 105.924808,23.5449219 105.323242,23.5449219 C104.657874,23.5449219 104.033532,23.6702461 103.450195,23.9208984 C102.866859,24.1715507 102.356448,24.5133442 101.918945,24.9462891 C101.481443,25.3792339 101.137371,25.8873669 100.886719,26.4707031 C100.636066,27.0540394 100.510742,27.6783821 100.510742,28.34375 C100.510742,29.0091179 100.636066,29.6334606 100.886719,30.2167969 C101.137371,30.8001331 101.481443,31.3082661 101.918945,31.7412109 C102.356448,32.1741558 102.866859,32.5159493 103.450195,32.7666016 C104.033532,33.0172539 104.657874,33.1425781 105.323242,33.1425781 C105.924808,33.1425781 106.480792,33.0445973 106.991211,32.8486328 C107.50163,32.6526683 107.984698,32.3587259 108.44043,31.9667969 C108.695639,31.7753897 108.996418,31.6751303 109.342773,31.6660156 Z M128.319336,28.34375 C128.319336,30.4765732 127.571948,32.2812426 126.077148,33.7578125 C124.56412,35.2526116 122.759451,36 120.663086,36 C118.548492,36 116.743823,35.2526116 115.249023,33.7578125 C113.754224,32.2630134 113.006836,30.4583439 113.006836,28.34375 C113.006836,26.2291561 113.754224,24.4244866 115.249023,22.9296875 C116.743823,21.4348884 118.548492,20.6875 120.663086,20.6875 C122.759451,20.6875 124.56412,21.4348884 126.077148,22.9296875 C126.824548,23.6770871 127.382811,24.5019486 127.751953,25.4042969 C128.121096,26.3066451 128.310221,27.286453 128.319336,28.34375 Z M120.663086,23.5449219 C119.988603,23.5449219 119.359703,23.6725248 118.776367,23.9277344 C118.193031,24.182944 117.687177,24.5270161 117.258789,24.9599609 C116.830402,25.3929058 116.490887,25.9010388 116.240234,26.484375 C115.989582,27.0677112 115.864258,27.6874967 115.864258,28.34375 C115.864258,29.0000033 115.989582,29.6197888 116.240234,30.203125 C116.490887,30.7864613 116.830402,31.2945942 117.258789,31.7275391 C117.687177,32.1604839 118.193031,32.504556 118.776367,32.7597656 C119.359703,33.0149752 119.988603,33.1425781 120.663086,33.1425781 C121.328454,33.1425781 121.952797,33.0149752 122.536133,32.7597656 C123.119469,32.504556 123.627602,32.1582053 124.060547,31.7207031 C124.493492,31.2832009 124.835285,30.775068 125.085938,30.1962891 C125.33659,29.6175101 125.461914,29.0000033 125.461914,28.34375 C125.461914,27.6874967 125.33659,27.0699899 125.085938,26.4912109 C124.835285,25.912432 124.493492,25.4042991 124.060547,24.9667969 C123.627602,24.5292947 123.119469,24.182944 122.536133,23.9277344 C121.952797,23.6725248 121.328454,23.5449219 120.663086,23.5449219 Z M133.350586,22.0957031 C134.562832,21.1568963 135.98925,20.6875 137.629883,20.6875 C138.586919,20.6875 139.496089,20.8743471 140.357422,21.2480469 C141.218754,21.6217467 141.977536,22.1298796 142.633789,22.7724609 C143.290042,23.4150423 143.809568,24.1715451 144.192383,25.0419922 C144.575197,25.9124392 144.766602,26.8398388 144.766602,27.8242188 L144.766602,34.5644531 C144.766602,34.9654968 144.627606,35.3050116 144.349609,35.5830078 C144.071613,35.861004 143.736656,36 143.344727,36 C142.943683,36 142.604168,35.861004 142.326172,35.5830078 C142.048176,35.3050116 141.90918,34.9654968 141.90918,34.5644531 L141.90918,27.8242188 C141.90918,27.2408825 141.795249,26.6894557 141.567383,26.1699219 C141.339517,25.650388 141.031903,25.196942 140.644531,24.8095703 C140.25716,24.4221986 139.803714,24.1145845 139.28418,23.8867188 C138.764646,23.658853 138.213219,23.5449219 137.629883,23.5449219 C137.037432,23.5449219 136.483727,23.6565744 135.96875,23.8798828 C135.453773,24.1031912 135.000327,24.4108053 134.608398,24.8027344 C134.216469,25.1946634 133.908855,25.650388 133.685547,26.1699219 C133.462238,26.6894557 133.350586,27.2408825 133.350586,27.8242188 L133.350586,34.5644531 C133.350586,34.9654968 133.21159,35.3050116 132.933594,35.5830078 C132.655598,35.861004 132.32064,36 131.928711,36 C131.527667,36 131.188152,35.861004 130.910156,35.5830078 C130.63216,35.3050116 130.493164,34.9654968 130.493164,34.5644531 L130.493164,22.1230469 C130.493164,21.7311178 130.63216,21.3938816 130.910156,21.1113281 C131.188152,20.8287746 131.527667,20.6875 131.928711,20.6875 C132.32064,20.6875 132.655598,20.8287746 132.933594,21.1113281 C133.21159,21.3938816 133.350586,21.7220033 133.350586,22.0957031 Z M149.756836,34.578125 L149.756836,17.5566406 C149.483397,17.6477869 149.196291,17.750325 148.895508,17.8642578 C148.594725,17.9781907 148.32129,18.0351562 148.075195,18.0351562 C147.665037,18.0351562 147.325522,17.9007175 147.056641,17.6318359 C146.787759,17.3629544 146.65332,17.0234396 146.65332,16.6132812 C146.65332,16.3216131 146.728515,16.0618501 146.878906,15.8339844 C147.029298,15.6061187 147.259439,15.4192716 147.569336,15.2734375 L150.700195,14.234375 C150.864259,14.1705726 151.028319,14.1386719 151.192383,14.1386719 C151.602541,14.1386719 151.942056,14.2776679 152.210938,14.5556641 C152.479819,14.8336602 152.614258,15.1731751 152.614258,15.5742188 L152.614258,34.578125 C152.614258,34.970054 152.475262,35.3050116 152.197266,35.5830078 C151.919269,35.861004 151.579755,36 151.178711,36 C150.786782,36 150.451824,35.861004 150.173828,35.5830078 C149.895832,35.3050116 149.756836,34.970054 149.756836,34.578125 Z M154.788086,33.6894531 L164.112305,16.9824219 L156.141602,16.9824219 C155.731443,16.9824219 155.391928,16.8479831 155.123047,16.5791016 C154.854165,16.31022 154.719727,15.9707052 154.719727,15.5605469 C154.719727,15.1595032 154.854165,14.8199884 155.123047,14.5419922 C155.391928,14.263996 155.731443,14.125 156.141602,14.125 L166.518555,14.125 C166.719077,14.125 166.905924,14.1637366 167.079102,14.2412109 C167.25228,14.3186853 167.402669,14.4212233 167.530273,14.5488281 C167.657878,14.6764329 167.760416,14.8268221 167.837891,15 C167.915365,15.1731779 167.954102,15.360025 167.954102,15.5605469 C167.954102,15.8066419 167.885743,16.0618476 167.749023,16.3261719 L157.249023,35.2070312 C157.176106,35.3437507 157.084961,35.4667963 156.975586,35.5761719 C156.693032,35.8587254 156.351239,36 155.950195,36 C155.558266,36 155.223309,35.861004 154.945312,35.5830078 C154.667316,35.3050116 154.52832,34.970054 154.52832,34.578125 C154.52832,34.2864569 154.614908,33.9902359 154.788086,33.6894531 Z" id="dockercon17" fill="#FFFFFF"></path>
                <path d="M1.47851562,10.2890625 L1.47851562,0.780273438 C1.47851562,0.579751602 1.545735,0.409994185 1.68017578,0.270996094 C1.81461656,0.131998003 1.98437397,0.0625 2.18945312,0.0625 C2.39453228,0.0625 2.56428969,0.131998003 2.69873047,0.270996094 C2.83317125,0.409994185 2.90039062,0.579751602 2.90039062,0.780273438 L2.90039062,9.57128906 L3.22851563,9.57128906 C3.42448015,9.57128906 3.59195894,9.64078707 3.73095703,9.77978516 C3.86995512,9.91878325 3.93945313,10.0885407 3.93945313,10.2890625 C3.93945313,10.485027 3.86995512,10.6525058 3.73095703,10.7915039 C3.59195894,10.930502 3.42448015,11 3.22851563,11 L2.18261719,11 C1.98665267,11 1.82031318,10.930502 1.68359375,10.7915039 C1.54687432,10.6525058 1.47851562,10.485027 1.47851562,10.2890625 Z M6.76269531,1.98339844 C6.76269531,2.21582147 6.68066488,2.41406168 6.51660156,2.578125 C6.35253824,2.74218832 6.15429804,2.82421875 5.921875,2.82421875 C5.68945196,2.82421875 5.49121176,2.74218832 5.32714844,2.578125 C5.16308512,2.41406168 5.08105469,2.21582147 5.08105469,1.98339844 C5.08105469,1.7509754 5.16308512,1.5527352 5.32714844,1.38867188 C5.49121176,1.22460855 5.68945196,1.14257812 5.921875,1.14257812 C6.15429804,1.14257812 6.35253824,1.22460855 6.51660156,1.38867188 C6.68066488,1.5527352 6.76269531,1.7509754 6.76269531,1.98339844 Z M5.2109375,10.2822266 L5.2109375,4.06152344 C5.2109375,3.8610016 5.2804355,3.69124418 5.41943359,3.55224609 C5.55843168,3.413248 5.72591048,3.34375 5.921875,3.34375 C6.11783952,3.34375 6.28531832,3.413248 6.42431641,3.55224609 C6.5633145,3.69124418 6.63509112,3.8610016 6.63964844,4.06152344 L6.63964844,10.2822266 C6.63509112,10.4827484 6.5633145,10.6525058 6.42431641,10.7915039 C6.28531832,10.930502 6.11783952,11 5.921875,11 C5.72591048,11 5.55843168,10.930502 5.41943359,10.7915039 C5.2804355,10.6525058 5.2109375,10.4827484 5.2109375,10.2822266 Z M11.6708984,11 C11.3701157,11 11.1604824,10.8723971 11.0419922,10.6171875 L8.15722656,4.34179688 C8.12076805,4.24609327 8.10253906,4.1503911 8.10253906,4.0546875 C8.10253906,3.9589839 8.12076805,3.86783897 8.15722656,3.78125 C8.19368508,3.69466103 8.24381479,3.61832715 8.30761719,3.55224609 C8.37141959,3.48616503 8.44661415,3.43489602 8.53320312,3.3984375 C8.6197921,3.36197898 8.71321564,3.34375 8.81347656,3.34375 C8.93652405,3.34375 9.05501245,3.37451141 9.16894531,3.43603516 C9.28287817,3.4975589 9.37174447,3.58528589 9.43554688,3.69921875 L11.6708984,8.57324219 L13.8994141,3.70605469 C14.0315762,3.46451702 14.2389309,3.34375 14.5214844,3.34375 C14.6217453,3.34375 14.7151688,3.36197898 14.8017578,3.3984375 C14.8883468,3.43489602 14.9635413,3.48616503 15.0273438,3.55224609 C15.0911462,3.61832715 15.1424152,3.69466103 15.1811523,3.78125 C15.2198895,3.86783897 15.2392578,3.9589839 15.2392578,4.0546875 C15.2392578,4.15950573 15.2187502,4.2552079 15.1777344,4.34179688 L12.2998047,10.6171875 C12.1721999,10.8723971 11.9625666,11 11.6708984,11 Z M22.1230469,6.4609375 C22.0455725,6.21028521 21.9305021,5.98128359 21.777832,5.77392578 C21.625162,5.56656797 21.4474294,5.38883538 21.2446289,5.24072266 C21.0418284,5.09260994 20.8185234,4.97753947 20.574707,4.89550781 C20.3308907,4.81347615 20.0791029,4.77246094 19.8193359,4.77246094 C19.559569,4.77246094 19.3066419,4.81347615 19.0605469,4.89550781 C18.8144519,4.97753947 18.5888682,5.09260994 18.3837891,5.24072266 C18.1787099,5.38883538 18.0009773,5.56656797 17.8505859,5.77392578 C17.7001946,5.98128359 17.588542,6.21028521 17.515625,6.4609375 L22.1230469,6.4609375 Z M21.8154297,8.84667969 C22.0205088,8.84667969 22.1902663,8.91389907 22.324707,9.04833984 C22.4591478,9.18278062 22.5263672,9.35253804 22.5263672,9.55761719 C22.5263672,9.75813902 22.4580085,9.92903575 22.3212891,10.0703125 C21.6149053,10.6901073 20.7809293,11 19.8193359,11 C18.762039,11 17.8597043,10.6263058 17.1123047,9.87890625 C16.3649051,9.13150668 15.9912109,8.22917195 15.9912109,7.171875 C15.9912109,6.11457805 16.3649051,5.21224332 17.1123047,4.46484375 C17.8597043,3.71744418 18.762039,3.34375 19.8193359,3.34375 C20.8675183,3.34375 21.769853,3.71744418 22.5263672,4.46484375 C22.900067,4.83398622 23.1803376,5.24527768 23.3671875,5.69873047 C23.5540374,6.15218326 23.6474609,6.64322652 23.6474609,7.171875 C23.6474609,7.37695415 23.5779629,7.54671157 23.4389648,7.68115234 C23.2999668,7.81559312 23.1302093,7.8828125 22.9296875,7.8828125 L17.515625,7.8828125 C17.5930993,8.13346479 17.7070305,8.36246641 17.8574219,8.56982422 C18.0078133,8.77718203 18.1844065,8.95491462 18.387207,9.10302734 C18.5900075,9.25114006 18.8133126,9.36621053 19.0571289,9.44824219 C19.3009452,9.53027385 19.5550117,9.57128906 19.8193359,9.57128906 C20.1201187,9.57128906 20.3958321,9.5257166 20.6464844,9.43457031 C20.8971367,9.34342402 21.1295562,9.20670664 21.34375,9.02441406 C21.4804694,8.9104812 21.6376944,8.851237 21.8154297,8.84667969 Z M30.2373047,7.35644531 C29.8089171,7.19238199 29.5081389,7.02376389 29.3349609,6.85058594 L29.3417969,6.85058594 C28.995441,6.49967272 28.8222656,6.08724195 28.8222656,5.61328125 C28.8222656,5.26692535 28.9145499,4.95361468 29.0991211,4.67333984 C29.2836923,4.393065 29.5240871,4.1549489 29.8203125,3.95898438 C30.1165379,3.76301985 30.4503562,3.61149142 30.8217773,3.50439453 C31.1931985,3.39729764 31.5657533,3.34375 31.9394531,3.34375 C33.0787817,3.34375 34.056311,3.80175323 34.8720703,4.71777344 C34.9677739,4.83626361 35.015625,4.97981687 35.015625,5.1484375 C35.015625,5.35351665 34.9484056,5.52327407 34.8139648,5.65771484 C34.6795241,5.79215562 34.5097667,5.859375 34.3046875,5.859375 C34.1588534,5.859375 34.0346685,5.81835979 33.9321289,5.73632812 C33.8295893,5.65429646 33.7304692,5.56543017 33.6347656,5.46972656 C33.1699196,5.00488049 32.604821,4.77246094 31.9394531,4.77246094 C31.2831998,4.77246094 30.7591165,4.97297977 30.3671875,5.37402344 C30.2942705,5.44694047 30.2578125,5.54719988 30.2578125,5.67480469 C30.2578125,5.80240949 30.3170567,5.88899717 30.4355469,5.93457031 L33.6347656,6.98730469 C34.0813824,7.16048264 34.3821607,7.32910074 34.5371094,7.49316406 L34.5302734,7.49316406 C34.8766293,7.84407728 35.0498047,8.25650805 35.0498047,8.73046875 C35.0498047,9.08138196 34.9575205,9.39583194 34.7729492,9.67382812 C34.588378,9.95182431 34.3479833,10.1899404 34.0517578,10.3881836 C33.7555324,10.5864268 33.4228534,10.7379552 33.0537109,10.8427734 C32.6845685,10.9475917 32.3131529,11 31.9394531,11 C30.7910099,11 29.8134806,10.546554 29.0068359,9.63964844 C28.906575,9.50748632 28.8564453,9.35937582 28.8564453,9.1953125 C28.8564453,8.99023335 28.9236647,8.82047593 29.0581055,8.68603516 C29.1925462,8.55159438 29.3623037,8.484375 29.5673828,8.484375 C29.7177742,8.484375 29.8453771,8.52880815 29.9501953,8.61767578 C30.0550135,8.70654341 30.1507157,8.79199178 30.2373047,8.87402344 C30.7021508,9.33886951 31.2695279,9.57128906 31.9394531,9.57128906 C32.5911491,9.57128906 33.1152324,9.36621299 33.5117188,8.95605469 C33.5800785,8.87858034 33.6142578,8.7851568 33.6142578,8.67578125 C33.6142578,8.54817645 33.552735,8.45931015 33.4296875,8.40917969 L30.2373047,7.35644531 Z M36.7587891,3.34375 L37.0800781,3.34375 L37.0800781,0.7734375 C37.0800781,0.577472979 37.1495761,0.409994185 37.2885742,0.270996094 C37.4275723,0.131998003 37.5973297,0.0625 37.7978516,0.0625 C37.9938161,0.0625 38.1612949,0.131998003 38.300293,0.270996094 C38.4392911,0.409994185 38.5087891,0.577472979 38.5087891,0.7734375 L38.5087891,3.34375 L39.3632812,3.34375 C39.5592458,3.34375 39.7255853,3.413248 39.8623047,3.55224609 C39.9990241,3.69124418 40.0673828,3.85872298 40.0673828,4.0546875 C40.0673828,4.25520934 39.9990241,4.42496675 39.8623047,4.56396484 C39.7255853,4.70296293 39.5592458,4.77246094 39.3632812,4.77246094 L38.5087891,4.77246094 L38.5087891,8.2109375 C38.5087891,9.11784308 38.9645137,9.57128906 39.8759766,9.57128906 C40.0719411,9.57128906 40.2382806,9.64078707 40.375,9.77978516 C40.5117194,9.91878325 40.5800781,10.086262 40.5800781,10.2822266 C40.5800781,10.4827484 40.5117194,10.6525058 40.375,10.7915039 C40.2382806,10.930502 40.0719411,11 39.8759766,11 C38.012035,11 37.0800781,10.0703218 37.0800781,8.2109375 L37.0800781,4.77246094 L36.7587891,4.77246094 C36.5673819,4.77246094 36.4021817,4.70296293 36.2631836,4.56396484 C36.1241855,4.42496675 36.0546875,4.25520934 36.0546875,4.0546875 C36.0546875,3.85872298 36.1241855,3.69124418 36.2631836,3.55224609 C36.4021817,3.413248 36.5673819,3.34375 36.7587891,3.34375 Z M42.9589844,4.0546875 L42.9589844,4.19140625 C43.300783,3.91796738 43.6721985,3.70833406 44.0732422,3.5625 C44.4742859,3.41666594 44.902667,3.34375 45.3583984,3.34375 C45.5589203,3.34375 45.7742502,3.35742174 46.0043945,3.38476562 C46.2345389,3.41210951 46.4464509,3.46109991 46.6401367,3.53173828 C46.8338226,3.60237666 46.9944655,3.69921813 47.1220703,3.82226562 C47.2496751,3.94531312 47.3134766,4.10481673 47.3134766,4.30078125 C47.3134766,4.40104217 47.2941083,4.49446571 47.2553711,4.58105469 C47.2166339,4.66764366 47.1653649,4.74397753 47.1015625,4.81005859 C47.0377601,4.87613965 46.9625655,4.92740867 46.8759766,4.96386719 C46.7893876,5.0003257 46.695964,5.01855469 46.5957031,5.01855469 C46.5091142,5.01855469 46.4088547,4.99348983 46.2949219,4.94335938 C46.0078111,4.82942651 45.6956397,4.77246094 45.3583984,4.77246094 C45.0257145,4.77246094 44.7135431,4.83512307 44.421875,4.96044922 C44.1302069,5.08577537 43.8761404,5.25667209 43.659668,5.47314453 C43.4431955,5.68961697 43.2722988,5.94368344 43.1469727,6.23535156 C43.0216465,6.52701969 42.9589844,6.83919104 42.9589844,7.171875 L42.9589844,10.2890625 C42.9589844,10.485027 42.8894864,10.6525058 42.7504883,10.7915039 C42.6114902,10.930502 42.4440114,11 42.2480469,11 C42.047525,11 41.8777676,10.930502 41.7387695,10.7915039 C41.5997714,10.6525058 41.5302734,10.485027 41.5302734,10.2890625 L41.5302734,4.0546875 C41.5302734,3.85872298 41.5997714,3.69124418 41.7387695,3.55224609 C41.8777676,3.413248 42.047525,3.34375 42.2480469,3.34375 C42.4440114,3.34375 42.6114902,3.413248 42.7504883,3.55224609 C42.8894864,3.69124418 42.9589844,3.85872298 42.9589844,4.0546875 Z M54.2519531,6.4609375 C54.1744788,6.21028521 54.0594083,5.98128359 53.9067383,5.77392578 C53.7540682,5.56656797 53.5763356,5.38883538 53.3735352,5.24072266 C53.1707347,5.09260994 52.9474296,4.97753947 52.7036133,4.89550781 C52.459797,4.81347615 52.2080091,4.77246094 51.9482422,4.77246094 C51.6884753,4.77246094 51.4355481,4.81347615 51.1894531,4.89550781 C50.9433581,4.97753947 50.7177745,5.09260994 50.5126953,5.24072266 C50.3076162,5.38883538 50.1298836,5.56656797 49.9794922,5.77392578 C49.8291008,5.98128359 49.7174483,6.21028521 49.6445312,6.4609375 L54.2519531,6.4609375 Z M53.9443359,8.84667969 C54.1494151,8.84667969 54.3191725,8.91389907 54.4536133,9.04833984 C54.5880541,9.18278062 54.6552734,9.35253804 54.6552734,9.55761719 C54.6552734,9.75813902 54.5869147,9.92903575 54.4501953,10.0703125 C53.7438116,10.6901073 52.9098355,11 51.9482422,11 C50.8909452,11 49.9886105,10.6263058 49.2412109,9.87890625 C48.4938114,9.13150668 48.1201172,8.22917195 48.1201172,7.171875 C48.1201172,6.11457805 48.4938114,5.21224332 49.2412109,4.46484375 C49.9886105,3.71744418 50.8909452,3.34375 51.9482422,3.34375 C52.9964245,3.34375 53.8987592,3.71744418 54.6552734,4.46484375 C55.0289732,4.83398622 55.3092439,5.24527768 55.4960938,5.69873047 C55.6829436,6.15218326 55.7763672,6.64322652 55.7763672,7.171875 C55.7763672,7.37695415 55.7068692,7.54671157 55.5678711,7.68115234 C55.428873,7.81559312 55.2591156,7.8828125 55.0585938,7.8828125 L49.6445312,7.8828125 C49.7220056,8.13346479 49.8359367,8.36246641 49.9863281,8.56982422 C50.1367195,8.77718203 50.3133128,8.95491462 50.5161133,9.10302734 C50.7189138,9.25114006 50.9422188,9.36621053 51.1860352,9.44824219 C51.4298515,9.53027385 51.6839179,9.57128906 51.9482422,9.57128906 C52.2490249,9.57128906 52.5247383,9.5257166 52.7753906,9.43457031 C53.0260429,9.34342402 53.2584625,9.20670664 53.4726562,9.02441406 C53.6093757,8.9104812 53.7666007,8.851237 53.9443359,8.84667969 Z M60.6982422,4.77246094 C60.3610009,4.77246094 60.0465509,4.83626238 59.7548828,4.96386719 C59.4632147,5.09147199 59.2102875,5.26350803 58.9960938,5.47998047 C58.7819,5.69645291 58.6121426,5.95051938 58.4868164,6.2421875 C58.3614903,6.53385562 58.2988281,6.84374836 58.2988281,7.171875 C58.2988281,7.50000164 58.3614903,7.80989438 58.4868164,8.1015625 C58.6121426,8.39323063 58.7819,8.64729709 58.9960938,8.86376953 C59.2102875,9.08024197 59.4632147,9.25227801 59.7548828,9.37988281 C60.0465509,9.50748762 60.3610009,9.57128906 60.6982422,9.57128906 C61.0309261,9.57128906 61.3430975,9.50748762 61.6347656,9.37988281 C61.9264338,9.25227801 62.1805002,9.07910266 62.3969727,8.86035156 C62.6134451,8.64160047 62.7843418,8.387534 62.909668,8.09814453 C63.0349941,7.80875506 63.0976563,7.50000164 63.0976563,7.171875 C63.0976563,6.84374836 63.0349941,6.53499494 62.909668,6.24560547 C62.7843418,5.956216 62.6134451,5.70214953 62.3969727,5.48339844 C62.1805002,5.26464734 61.9264338,5.09147199 61.6347656,4.96386719 C61.3430975,4.83626238 61.0309261,4.77246094 60.6982422,4.77246094 Z M63.0976562,10.2890625 L63.0976562,10.1523438 C62.7558577,10.4257826 62.3844421,10.6354159 61.9833984,10.78125 C61.5823548,10.9270841 61.1539736,11 60.6982422,11 C59.6409452,11 58.7386105,10.6263058 57.9912109,9.87890625 C57.2438114,9.13150668 56.8701172,8.22917195 56.8701172,7.171875 C56.8701172,6.11457805 57.2438114,5.21224332 57.9912109,4.46484375 C58.7386105,3.71744418 59.6409452,3.34375 60.6982422,3.34375 C61.7464245,3.34375 62.6487592,3.71744418 63.4052734,4.46484375 C64.152673,5.21224332 64.5263672,6.11457805 64.5263672,7.171875 L64.5263672,10.2890625 C64.5263672,10.485027 64.4568692,10.6525058 64.3178711,10.7915039 C64.178873,10.930502 64.0113942,11 63.8154297,11 C63.6149079,11 63.4451504,10.930502 63.3061523,10.7915039 C63.1671543,10.6525058 63.0976562,10.485027 63.0976562,10.2890625 Z M76.4277344,10.2822266 C76.4277344,10.4827484 76.3582364,10.6525058 76.2192383,10.7915039 C76.0802402,10.930502 75.9127614,11 75.7167969,11 C75.516275,11 75.3476569,10.930502 75.2109375,10.7915039 C75.0742181,10.6525058 75.0058594,10.4827484 75.0058594,10.2822266 L75.0058594,6.39257812 C75.0058594,6.17382703 74.9637048,5.96647233 74.8793945,5.77050781 C74.7950842,5.57454329 74.6800138,5.40250725 74.5341797,5.25439453 C74.3883456,5.10628181 74.2163096,4.98893272 74.0180664,4.90234375 C73.8198232,4.81575478 73.606772,4.77246094 73.3789062,4.77246094 C73.1555978,4.77246094 72.9459645,4.81575478 72.75,4.90234375 C72.5540355,4.98893272 72.3819994,5.1051425 72.2338867,5.25097656 C72.085774,5.39681063 71.9695642,5.56770735 71.8852539,5.76367188 C71.8009436,5.9596364 71.7587891,6.16926972 71.7587891,6.39257812 L71.7587891,10.2822266 C71.7587891,10.4827484 71.6892911,10.6525058 71.550293,10.7915039 C71.4112949,10.930502 71.2438161,11 71.0478516,11 C70.8473297,11 70.6775723,10.930502 70.5385742,10.7915039 C70.3995761,10.6525058 70.3300781,10.4827484 70.3300781,10.2822266 L70.3300781,6.39257812 C70.3300781,6.16926972 70.2867843,5.9596364 70.2001953,5.76367188 C70.1136063,5.56770735 69.9973966,5.39681063 69.8515625,5.25097656 C69.7057284,5.1051425 69.5348317,4.98893272 69.3388672,4.90234375 C69.1429027,4.81575478 68.9332693,4.77246094 68.7099609,4.77246094 C68.4866525,4.77246094 68.2770192,4.81461546 68.0810547,4.89892578 C67.8850902,4.9832361 67.7130541,5.09944587 67.5649414,5.24755859 C67.4168287,5.39567131 67.3006189,5.56770735 67.2163086,5.76367188 C67.1319983,5.9596364 67.0898438,6.16926972 67.0898438,6.39257812 L67.0898438,10.2822266 C67.0898438,10.4827484 67.0203457,10.6525058 66.8813477,10.7915039 C66.7423496,10.930502 66.5748708,11 66.3789062,11 C66.1783844,11 66.008627,10.930502 65.8696289,10.7915039 C65.7306308,10.6525058 65.6611328,10.4827484 65.6611328,10.2822266 L65.6611328,4.0546875 C65.6611328,3.85872298 65.7306308,3.69124418 65.8696289,3.55224609 C66.008627,3.413248 66.1761058,3.34375 66.3720703,3.34375 C66.5315763,3.34375 66.6728509,3.38818315 66.7958984,3.47705078 C66.9189459,3.56591841 67.003255,3.6832675 67.0488281,3.82910156 C67.5364608,3.50553224 68.0901662,3.34375 68.7099609,3.34375 C69.1656924,3.34375 69.5940735,3.43375561 69.9951172,3.61376953 C70.3961609,3.79378345 70.7470688,4.06607891 71.0478516,4.43066406 C71.6813183,3.70605106 72.4583287,3.34375 73.3789062,3.34375 C73.7936219,3.34375 74.1866843,3.42464112 74.5581055,3.58642578 C74.9295266,3.74821044 75.2530911,3.96695826 75.5288086,4.24267578 C75.8045261,4.51839331 76.0232739,4.84195778 76.1850586,5.21337891 C76.3468433,5.58480003 76.4277344,5.97786251 76.4277344,6.39257812 L76.4277344,10.2822266 Z M79.5859375,1.98339844 C79.5859375,2.21582147 79.5039071,2.41406168 79.3398438,2.578125 C79.1757804,2.74218832 78.9775402,2.82421875 78.7451172,2.82421875 C78.5126942,2.82421875 78.3144539,2.74218832 78.1503906,2.578125 C77.9863273,2.41406168 77.9042969,2.21582147 77.9042969,1.98339844 C77.9042969,1.7509754 77.9863273,1.5527352 78.1503906,1.38867188 C78.3144539,1.22460855 78.5126942,1.14257812 78.7451172,1.14257812 C78.9775402,1.14257812 79.1757804,1.22460855 79.3398438,1.38867188 C79.5039071,1.5527352 79.5859375,1.7509754 79.5859375,1.98339844 Z M78.0341797,10.2822266 L78.0341797,4.06152344 C78.0341797,3.8610016 78.1036777,3.69124418 78.2426758,3.55224609 C78.3816739,3.413248 78.5491527,3.34375 78.7451172,3.34375 C78.9410817,3.34375 79.1085605,3.413248 79.2475586,3.55224609 C79.3865567,3.69124418 79.4583333,3.8610016 79.4628906,4.06152344 L79.4628906,10.2822266 C79.4583333,10.4827484 79.3865567,10.6525058 79.2475586,10.7915039 C79.1085605,10.930502 78.9410817,11 78.7451172,11 C78.5491527,11 78.3816739,10.930502 78.2426758,10.7915039 C78.1036777,10.6525058 78.0341797,10.4827484 78.0341797,10.2822266 Z M82.3544922,4.04785156 C82.960615,3.57844817 83.673824,3.34375 84.4941406,3.34375 C84.9726586,3.34375 85.4272439,3.43717354 85.8579102,3.62402344 C86.2885764,3.81087333 86.6679671,4.0649398 86.9960938,4.38623047 C87.3242204,4.70752114 87.5839834,5.08577256 87.7753906,5.52099609 C87.9667978,5.95621962 88.0625,6.41991941 88.0625,6.91210938 L88.0625,10.2822266 C88.0625,10.4827484 87.993002,10.6525058 87.8540039,10.7915039 C87.7150058,10.930502 87.547527,11 87.3515625,11 C87.1510407,11 86.9812832,10.930502 86.8422852,10.7915039 C86.7032871,10.6525058 86.6337891,10.4827484 86.6337891,10.2822266 L86.6337891,6.91210938 C86.6337891,6.62044125 86.5768235,6.34472786 86.4628906,6.08496094 C86.3489578,5.82519401 86.1951507,5.59847102 86.0014648,5.40478516 C85.807779,5.21109929 85.581056,5.05729224 85.3212891,4.94335938 C85.0615221,4.82942651 84.7858088,4.77246094 84.4941406,4.77246094 C84.1979152,4.77246094 83.9210625,4.8282872 83.6635742,4.93994141 C83.406086,5.05159561 83.179363,5.20540267 82.9833984,5.40136719 C82.7874339,5.59733171 82.6336269,5.82519401 82.5219727,6.08496094 C82.4103185,6.34472786 82.3544922,6.62044125 82.3544922,6.91210938 L82.3544922,10.2822266 C82.3544922,10.4827484 82.2849942,10.6525058 82.1459961,10.7915039 C82.006998,10.930502 81.8395192,11 81.6435547,11 C81.4430329,11 81.2732754,10.930502 81.1342773,10.7915039 C80.9952793,10.6525058 80.9257812,10.4827484 80.9257812,10.2822266 L80.9257812,4.06152344 C80.9257812,3.86555892 80.9952793,3.69694081 81.1342773,3.55566406 C81.2732754,3.41438731 81.4430329,3.34375 81.6435547,3.34375 C81.8395192,3.34375 82.006998,3.41438731 82.1459961,3.55566406 C82.2849942,3.69694081 82.3544922,3.86100167 82.3544922,4.04785156 Z M92.9638672,4.77246094 C92.6266259,4.77246094 92.3121759,4.83626238 92.0205078,4.96386719 C91.7288397,5.09147199 91.4759125,5.26350803 91.2617188,5.47998047 C91.047525,5.69645291 90.8777676,5.95051938 90.7524414,6.2421875 C90.6271153,6.53385562 90.5644531,6.84374836 90.5644531,7.171875 C90.5644531,7.50000164 90.6271153,7.80989438 90.7524414,8.1015625 C90.8777676,8.39323063 91.047525,8.64729709 91.2617188,8.86376953 C91.4759125,9.08024197 91.7288397,9.25227801 92.0205078,9.37988281 C92.3121759,9.50748762 92.6266259,9.57128906 92.9638672,9.57128906 C93.2965511,9.57128906 93.6087225,9.50748762 93.9003906,9.37988281 C94.1920588,9.25227801 94.4461252,9.07910266 94.6625977,8.86035156 C94.8790701,8.64160047 95.0499668,8.387534 95.175293,8.09814453 C95.3006191,7.80875506 95.3632812,7.50000164 95.3632812,7.171875 C95.3632812,6.84374836 95.3006191,6.53499494 95.175293,6.24560547 C95.0499668,5.956216 94.8790701,5.70214953 94.6625977,5.48339844 C94.4461252,5.26464734 94.1920588,5.09147199 93.9003906,4.96386719 C93.6087225,4.83626238 93.2965511,4.77246094 92.9638672,4.77246094 Z M95.3632812,10.1591797 C94.6796841,10.7197294 93.8798874,11 92.9638672,11 C91.9065702,11 91.0042355,10.6263058 90.2568359,9.87890625 C89.5094364,9.13150668 89.1357422,8.22917195 89.1357422,7.171875 C89.1357422,6.11457805 89.5094364,5.21224332 90.2568359,4.46484375 C91.0042355,3.71744418 91.9065702,3.34375 92.9638672,3.34375 C94.0120495,3.34375 94.9143842,3.71744418 95.6708984,4.46484375 C96.418298,5.21224332 96.7919922,6.11457805 96.7919922,7.171875 L96.7919922,10.9726562 C96.7919922,11.3007829 96.7418625,11.6106756 96.6416016,11.9023438 C96.5413406,12.1940119 96.4023446,12.4617501 96.2246094,12.7055664 C96.0468741,12.9493827 95.8372408,13.1692699 95.5957031,13.3652344 C95.3541655,13.5611989 95.0932631,13.7263991 94.8129883,13.8608398 C94.5327134,13.9952806 94.2399104,14.098958 93.9345703,14.171875 C93.6292302,14.244792 93.3238948,14.28125 93.0185547,14.28125 C92.6539695,14.28125 92.2962257,14.2345382 91.9453125,14.1411133 C91.5943993,14.0476883 91.2617203,13.9098316 90.9472656,13.7275391 C90.6328109,13.5452465 90.3445651,13.3196628 90.0825195,13.0507812 C89.820474,12.7818997 89.5983082,12.4811215 89.4160156,12.1484375 C89.3430986,12.0436193 89.3066406,11.9160164 89.3066406,11.765625 C89.3066406,11.5605458 89.3749993,11.3907884 89.5117188,11.2563477 C89.6484382,11.1219069 89.8193349,11.0546875 90.0244141,11.0546875 C90.1611335,11.0546875 90.2739253,11.0865882 90.362793,11.1503906 C90.4516606,11.214193 90.5735669,11.3554677 90.7285156,11.5742188 C90.8834643,11.7929698 91.0201817,11.9593093 91.1386719,12.0732422 C91.6582057,12.592776 92.2848271,12.8525391 93.0185547,12.8525391 C93.7568396,12.8525391 94.3811823,12.5973333 94.8916016,12.0869141 C95.2060563,11.7040996 95.3632812,11.3326841 95.3632812,10.9726562 L95.3632812,10.1591797 Z" id="live-streaming" fill="#FFFFFF" opacity="0.511265851"></path>
                <path d="M46.21875,59.25 C46.6041686,59.25 46.8645827,59.4505188 47,59.8515625 L48.5859375,64.609375 L50.2265625,59.703125 C50.2682294,59.5677077 50.3515619,59.4583338 50.4765625,59.375 C50.6015631,59.2916662 50.7630198,59.25 50.9609375,59.25 C51.0755214,59.25 51.1822912,59.2708331 51.28125,59.3125 C51.3802088,59.3541669 51.4661455,59.41276 51.5390625,59.4882812 C51.6119795,59.5638025 51.6705727,59.6510412 51.7148438,59.75 C51.7591148,59.8489588 51.78125,59.9531245 51.78125,60.0625 C51.78125,60.1614588 51.7604169,60.2656245 51.71875,60.375 L49.3515625,67.4765625 C49.3046873,67.6276049 49.2187506,67.7526037 49.09375,67.8515625 C48.9687494,67.9505213 48.7994802,68 48.5859375,68 C48.4036449,68 48.2421882,67.9479172 48.1015625,67.84375 C47.9609368,67.7395828 47.8697919,67.6171882 47.828125,67.4765625 L46.21875,62.6484375 L44.609375,67.4765625 C44.5624998,67.6276049 44.4687507,67.7526037 44.328125,67.8515625 C44.1874993,67.9505213 44.0260426,68 43.84375,68 C43.6614574,68 43.5013028,67.9505213 43.3632812,67.8515625 C43.2252597,67.7526037 43.1302086,67.6276049 43.078125,67.4765625 L40.7109375,60.375 C40.674479,60.2604161 40.65625,60.1562505 40.65625,60.0625 C40.65625,59.9531245 40.6770831,59.8489588 40.71875,59.75 C40.7604169,59.6510412 40.817708,59.5638025 40.890625,59.4882812 C40.963542,59.41276 41.0494787,59.3541669 41.1484375,59.3125 C41.2473963,59.2708331 41.3541661,59.25 41.46875,59.25 C41.6562509,59.25 41.8138014,59.2942704 41.9414062,59.3828125 C42.0690111,59.4713546 42.1562498,59.5781244 42.203125,59.703125 L43.84375,64.6015625 L45.4296875,59.8515625 C45.5651048,59.4505188 45.828123,59.25 46.21875,59.25 Z M57.5,60.8828125 C57.1145814,60.8828125 56.75521,60.9557284 56.421875,61.1015625 C56.08854,61.2473966 55.7994804,61.4440092 55.5546875,61.6914062 C55.3098946,61.9388033 55.1158861,62.229165 54.9726562,62.5625 C54.8294264,62.895835 54.7578125,63.2499981 54.7578125,63.625 C54.7578125,64.0000019 54.8294264,64.354165 54.9726562,64.6875 C55.1158861,65.020835 55.3098946,65.3111967 55.5546875,65.5585938 C55.7994804,65.8059908 56.08854,66.0026034 56.421875,66.1484375 C56.75521,66.2942716 57.1145814,66.3671875 57.5,66.3671875 C57.8802102,66.3671875 58.2369775,66.2942716 58.5703125,66.1484375 C58.9036475,66.0026034 59.1940092,65.8046887 59.4414062,65.5546875 C59.6888033,65.3046863 59.8841139,65.0143246 60.0273438,64.6835938 C60.1705736,64.3528629 60.2421875,64.0000019 60.2421875,63.625 C60.2421875,63.2499981 60.1705736,62.8971371 60.0273438,62.5664062 C59.8841139,62.2356754 59.6888033,61.9453137 59.4414062,61.6953125 C59.1940092,61.4453113 58.9036475,61.2473966 58.5703125,61.1015625 C58.2369775,60.9557284 57.8802102,60.8828125 57.5,60.8828125 Z M60.2421875,67.1875 L60.2421875,67.03125 C59.8515605,67.3437516 59.4270856,67.5833325 58.96875,67.75 C58.5104144,67.9166675 58.0208359,68 57.5,68 C56.2916606,68 55.2604209,67.5729209 54.40625,66.71875 C53.5520791,65.8645791 53.125,64.8333394 53.125,63.625 C53.125,62.4166606 53.5520791,61.3854209 54.40625,60.53125 C55.2604209,59.6770791 56.2916606,59.25 57.5,59.25 C58.6979227,59.25 59.7291623,59.6770791 60.59375,60.53125 C61.4479209,61.3854209 61.875,62.4166606 61.875,63.625 L61.875,67.1875 C61.875,67.4114595 61.7955737,67.6028638 61.6367188,67.7617188 C61.4778638,67.9205737 61.2864595,68 61.0625,68 C60.8333322,68 60.6393237,67.9205737 60.4804688,67.7617188 C60.3216138,67.6028638 60.2421875,67.4114595 60.2421875,67.1875 Z M63.1875,59.25 L63.5546875,59.25 L63.5546875,56.3125 C63.5546875,56.0885405 63.6341138,55.8971362 63.7929688,55.7382812 C63.9518237,55.5794263 64.1458322,55.5 64.375,55.5 C64.5989595,55.5 64.7903638,55.5794263 64.9492188,55.7382812 C65.1080737,55.8971362 65.1875,56.0885405 65.1875,56.3125 L65.1875,59.25 L66.1640625,59.25 C66.388022,59.25 66.5781242,59.3294263 66.734375,59.4882812 C66.8906258,59.6471362 66.96875,59.8385405 66.96875,60.0625 C66.96875,60.2916678 66.8906258,60.4856763 66.734375,60.6445312 C66.5781242,60.8033862 66.388022,60.8828125 66.1640625,60.8828125 L65.1875,60.8828125 L65.1875,64.8125 C65.1875,65.8489635 65.7083281,66.3671875 66.75,66.3671875 C66.9739595,66.3671875 67.1640617,66.4466138 67.3203125,66.6054688 C67.4765633,66.7643237 67.5546875,66.955728 67.5546875,67.1796875 C67.5546875,67.4088553 67.4765633,67.6028638 67.3203125,67.7617188 C67.1640617,67.9205737 66.9739595,68 66.75,68 C64.619781,68 63.5546875,66.9375106 63.5546875,64.8125 L63.5546875,60.8828125 L63.1875,60.8828125 C62.9687489,60.8828125 62.7799487,60.8033862 62.6210938,60.6445312 C62.4622388,60.4856763 62.3828125,60.2916678 62.3828125,60.0625 C62.3828125,59.8385405 62.4622388,59.6471362 62.6210938,59.4882812 C62.7799487,59.3294263 62.9687489,59.25 63.1875,59.25 Z M74.625,65.5234375 C74.8593762,65.5234375 75.0533846,65.6002596 75.2070312,65.7539062 C75.3606779,65.9075529 75.4375,66.1015613 75.4375,66.3359375 C75.4375,66.5651053 75.3515634,66.7656241 75.1796875,66.9375 C74.3723918,67.6458369 73.4218805,68 72.328125,68 C71.1197856,68 70.0885459,67.5729209 69.234375,66.71875 C68.3802041,65.8645791 67.953125,64.8333394 67.953125,63.625 C67.953125,62.4166606 68.3802041,61.3854209 69.234375,60.53125 C70.0885459,59.6770791 71.1197856,59.25 72.328125,59.25 C73.4270888,59.25 74.3776002,59.6041631 75.1796875,60.3125 C75.3671884,60.4791675 75.4609375,60.6848946 75.4609375,60.9296875 C75.4609375,61.1640637 75.3841154,61.3593742 75.2304688,61.515625 C75.0768221,61.6718758 74.8828137,61.75 74.6484375,61.75 C74.4505198,61.75 74.2734383,61.6875006 74.1171875,61.5625 C73.8515612,61.3385405 73.5729181,61.1692714 73.28125,61.0546875 C72.9895819,60.9401036 72.6718767,60.8828125 72.328125,60.8828125 C71.9479148,60.8828125 71.5911475,60.9544264 71.2578125,61.0976562 C70.9244775,61.2408861 70.6328137,61.4361967 70.3828125,61.6835938 C70.1328113,61.9309908 69.9361986,62.2213525 69.7929688,62.5546875 C69.6497389,62.8880225 69.578125,63.2447898 69.578125,63.625 C69.578125,64.0052102 69.6497389,64.3619775 69.7929688,64.6953125 C69.9361986,65.0286475 70.1328113,65.3190092 70.3828125,65.5664062 C70.6328137,65.8138033 70.9244775,66.0091139 71.2578125,66.1523438 C71.5911475,66.2955736 71.9479148,66.3671875 72.328125,66.3671875 C72.6718767,66.3671875 72.9895819,66.3111985 73.28125,66.1992188 C73.5729181,66.087239 73.848957,65.919272 74.109375,65.6953125 C74.2552091,65.585937 74.4270823,65.5286459 74.625,65.5234375 Z M78.34375,67.1796875 C78.34375,67.4088553 78.2643237,67.6028638 78.1054688,67.7617188 C77.9466138,67.9205737 77.7526053,68 77.5234375,68 C77.299478,68 77.1080737,67.9205737 76.9492188,67.7617188 C76.7903638,67.6028638 76.7109375,67.4088553 76.7109375,67.1796875 L76.7109375,56.3203125 C76.7109375,56.0911447 76.7903638,55.8971362 76.9492188,55.7382812 C77.1080737,55.5794263 77.299478,55.5 77.5234375,55.5 C77.747397,55.5 77.9388013,55.5794263 78.0976562,55.7382812 C78.2565112,55.8971362 78.3385416,56.0911447 78.34375,56.3203125 L78.34375,60.0703125 C79.0364618,59.5338515 79.8515578,59.265625 80.7890625,59.265625 C81.3359402,59.265625 81.8554663,59.3723948 82.3476562,59.5859375 C82.8398462,59.7994802 83.2734356,60.0898419 83.6484375,60.4570312 C84.0234394,60.8242206 84.3203114,61.2565079 84.5390625,61.7539062 C84.7578136,62.2513046 84.8671875,62.7812472 84.8671875,63.34375 L84.8671875,67.1796875 C84.8619791,67.4088553 84.7799487,67.6028638 84.6210938,67.7617188 C84.4622388,67.9205737 84.2708345,68 84.046875,68 C83.8229155,68 83.6315112,67.9205737 83.4726562,67.7617188 C83.3138013,67.6028638 83.234375,67.4088553 83.234375,67.1796875 L83.234375,63.34375 C83.234375,63.010415 83.1692715,62.695314 83.0390625,62.3984375 C82.9088535,62.101561 82.733074,61.842449 82.5117188,61.6210938 C82.2903635,61.3997385 82.0312515,61.223959 81.734375,61.09375 C81.4374985,60.963541 81.1223975,60.8984375 80.7890625,60.8984375 C80.4505191,60.8984375 80.1341161,60.9622389 79.8398438,61.0898438 C79.5455714,61.2174486 79.2864595,61.393228 79.0625,61.6171875 C78.8385405,61.841147 78.6627611,62.101561 78.5351562,62.3984375 C78.4075514,62.695314 78.34375,63.010415 78.34375,63.34375 L78.34375,67.1796875 Z M92.40625,60.0546875 C93.0989618,59.5182265 93.9140578,59.25 94.8515625,59.25 C95.3984402,59.25 95.9179663,59.3567698 96.4101562,59.5703125 C96.9023462,59.7838552 97.3359356,60.0742169 97.7109375,60.4414062 C98.0859394,60.8085956 98.3828114,61.2408829 98.6015625,61.7382812 C98.8203136,62.2356796 98.9296875,62.7656222 98.9296875,63.328125 L98.9296875,67.1796875 C98.9296875,67.4088553 98.8502612,67.6028638 98.6914062,67.7617188 C98.5325513,67.9205737 98.341147,68 98.1171875,68 C97.8880197,68 97.6940112,67.9205737 97.5351562,67.7617188 C97.3763013,67.6028638 97.296875,67.4088553 97.296875,67.1796875 L97.296875,63.328125 C97.296875,62.99479 97.2317715,62.679689 97.1015625,62.3828125 C96.9713535,62.085936 96.795574,61.826824 96.5742188,61.6054688 C96.3528635,61.3841135 96.0937515,61.208334 95.796875,61.078125 C95.4999985,60.947916 95.1848975,60.8828125 94.8515625,60.8828125 C94.5130191,60.8828125 94.1966161,60.9466139 93.9023438,61.0742188 C93.6080714,61.2018236 93.3489595,61.377603 93.125,61.6015625 C92.9010405,61.825522 92.7252611,62.085936 92.5976562,62.3828125 C92.4700514,62.679689 92.40625,62.99479 92.40625,63.328125 L92.40625,67.1796875 C92.40625,67.4088553 92.3268237,67.6028638 92.1679688,67.7617188 C92.0091138,67.9205737 91.8177095,68 91.59375,68 C91.3645822,68 91.1705737,67.9205737 91.0117188,67.7617188 C90.8528638,67.6028638 90.7734375,67.4088553 90.7734375,67.1796875 L90.7734375,60.0703125 C90.7734375,59.846353 90.8528638,59.6536466 91.0117188,59.4921875 C91.1705737,59.3307284 91.3645822,59.25 91.59375,59.25 C91.8177095,59.25 92.0091138,59.3307284 92.1679688,59.4921875 C92.3268237,59.6536466 92.40625,59.8411448 92.40625,60.0546875 Z M108.90625,63.625 C108.90625,64.8437561 108.479171,65.8749958 107.625,66.71875 C106.760412,67.5729209 105.729173,68 104.53125,68 C103.322911,68 102.291671,67.5729209 101.4375,66.71875 C100.583329,65.8645791 100.15625,64.8333394 100.15625,63.625 C100.15625,62.4166606 100.583329,61.3854209 101.4375,60.53125 C102.291671,59.6770791 103.322911,59.25 104.53125,59.25 C105.729173,59.25 106.760412,59.6770791 107.625,60.53125 C108.052085,60.9583355 108.371093,61.4296849 108.582031,61.9453125 C108.79297,62.4609401 108.901042,63.0208303 108.90625,63.625 Z M104.53125,60.8828125 C104.145831,60.8828125 103.78646,60.9557284 103.453125,61.1015625 C103.11979,61.2473966 102.83073,61.4440092 102.585938,61.6914062 C102.341145,61.9388033 102.147136,62.229165 102.003906,62.5625 C101.860676,62.895835 101.789062,63.2499981 101.789062,63.625 C101.789062,64.0000019 101.860676,64.354165 102.003906,64.6875 C102.147136,65.020835 102.341145,65.3111967 102.585938,65.5585938 C102.83073,65.8059908 103.11979,66.0026034 103.453125,66.1484375 C103.78646,66.2942716 104.145831,66.3671875 104.53125,66.3671875 C104.91146,66.3671875 105.268227,66.2942716 105.601562,66.1484375 C105.934898,66.0026034 106.225259,65.8046887 106.472656,65.5546875 C106.720053,65.3046863 106.915364,65.0143246 107.058594,64.6835938 C107.201824,64.3528629 107.273438,64.0000019 107.273438,63.625 C107.273438,63.2499981 107.201824,62.8971371 107.058594,62.5664062 C106.915364,62.2356754 106.720053,61.9453137 106.472656,61.6953125 C106.225259,61.4453113 105.934898,61.2473966 105.601562,61.1015625 C105.268227,60.9557284 104.91146,60.8828125 104.53125,60.8828125 Z M115.75,59.25 C116.135419,59.25 116.395833,59.4505188 116.53125,59.8515625 L118.117188,64.609375 L119.757812,59.703125 C119.799479,59.5677077 119.882812,59.4583338 120.007812,59.375 C120.132813,59.2916662 120.29427,59.25 120.492188,59.25 C120.606771,59.25 120.713541,59.2708331 120.8125,59.3125 C120.911459,59.3541669 120.997395,59.41276 121.070312,59.4882812 C121.14323,59.5638025 121.201823,59.6510412 121.246094,59.75 C121.290365,59.8489588 121.3125,59.9531245 121.3125,60.0625 C121.3125,60.1614588 121.291667,60.2656245 121.25,60.375 L118.882812,67.4765625 C118.835937,67.6276049 118.750001,67.7526037 118.625,67.8515625 C118.499999,67.9505213 118.33073,68 118.117188,68 C117.934895,68 117.773438,67.9479172 117.632812,67.84375 C117.492187,67.7395828 117.401042,67.6171882 117.359375,67.4765625 L115.75,62.6484375 L114.140625,67.4765625 C114.09375,67.6276049 114.000001,67.7526037 113.859375,67.8515625 C113.718749,67.9505213 113.557293,68 113.375,68 C113.192707,68 113.032553,67.9505213 112.894531,67.8515625 C112.75651,67.7526037 112.661459,67.6276049 112.609375,67.4765625 L110.242188,60.375 C110.205729,60.2604161 110.1875,60.1562505 110.1875,60.0625 C110.1875,59.9531245 110.208333,59.8489588 110.25,59.75 C110.291667,59.6510412 110.348958,59.5638025 110.421875,59.4882812 C110.494792,59.41276 110.580729,59.3541669 110.679688,59.3125 C110.778646,59.2708331 110.885416,59.25 111,59.25 C111.187501,59.25 111.345051,59.2942704 111.472656,59.3828125 C111.600261,59.4713546 111.6875,59.5781244 111.734375,59.703125 L113.375,64.6015625 L114.960938,59.8515625 C115.096355,59.4505188 115.359373,59.25 115.75,59.25 Z" id="watch-now" fill="#FFFFFF"></path>
                <path d="M180.375,29.7724609 C180.037759,29.7724609 179.723309,29.8362624 179.431641,29.9638672 C179.139972,30.091472 178.887045,30.263508 178.672852,30.4799805 C178.458658,30.6964529 178.2889,30.9505194 178.163574,31.2421875 C178.038248,31.5338556 177.975586,31.8437484 177.975586,32.171875 C177.975586,32.5000016 178.038248,32.8098944 178.163574,33.1015625 C178.2889,33.3932306 178.458658,33.6472971 178.672852,33.8637695 C178.887045,34.080242 179.139972,34.252278 179.431641,34.3798828 C179.723309,34.5074876 180.037759,34.5712891 180.375,34.5712891 C180.707684,34.5712891 181.019855,34.5074876 181.311523,34.3798828 C181.603192,34.252278 181.857258,34.0791027 182.07373,33.8603516 C182.290203,33.6416005 182.4611,33.387534 182.586426,33.0981445 C182.711752,32.8087551 182.774414,32.5000016 182.774414,32.171875 C182.774414,31.8437484 182.711752,31.5349949 182.586426,31.2456055 C182.4611,30.956216 182.290203,30.7021495 182.07373,30.4833984 C181.857258,30.2646473 181.603192,30.091472 181.311523,29.9638672 C181.019855,29.8362624 180.707684,29.7724609 180.375,29.7724609 Z M182.774414,35.2890625 L182.774414,35.1523438 C182.432615,35.4257826 182.0612,35.6354159 181.660156,35.78125 C181.259113,35.9270841 180.830731,36 180.375,36 C179.317703,36 178.415368,35.6263058 177.667969,34.8789062 C176.920569,34.1315067 176.546875,33.229172 176.546875,32.171875 C176.546875,31.114578 176.920569,30.2122433 177.667969,29.4648438 C178.415368,28.7174442 179.317703,28.34375 180.375,28.34375 C181.423182,28.34375 182.325517,28.7174442 183.082031,29.4648438 C183.829431,30.2122433 184.203125,31.114578 184.203125,32.171875 L184.203125,35.2890625 C184.203125,35.485027 184.133627,35.6525058 183.994629,35.7915039 C183.855631,35.930502 183.688152,36 183.492188,36 C183.291666,36 183.121908,35.930502 182.98291,35.7915039 C182.843912,35.6525058 182.774414,35.485027 182.774414,35.2890625 Z M186.725586,32.171875 C186.725586,32.5000016 186.788248,32.8098944 186.913574,33.1015625 C187.0389,33.3932306 187.208658,33.6472971 187.422852,33.8637695 C187.637045,34.080242 187.889972,34.252278 188.181641,34.3798828 C188.473309,34.5074876 188.787759,34.5712891 189.125,34.5712891 C189.457684,34.5712891 189.769855,34.5074876 190.061523,34.3798828 C190.353192,34.252278 190.607258,34.0791027 190.82373,33.8603516 C191.040203,33.6416005 191.2111,33.387534 191.336426,33.0981445 C191.461752,32.8087551 191.524414,32.5000016 191.524414,32.171875 C191.524414,31.8437484 191.461752,31.5349949 191.336426,31.2456055 C191.2111,30.956216 191.040203,30.7021495 190.82373,30.4833984 C190.607258,30.2646473 190.353192,30.091472 190.061523,29.9638672 C189.769855,29.8362624 189.457684,29.7724609 189.125,29.7724609 C188.787759,29.7724609 188.473309,29.8362624 188.181641,29.9638672 C187.889972,30.091472 187.637045,30.263508 187.422852,30.4799805 C187.208658,30.6964529 187.0389,30.9505194 186.913574,31.2421875 C186.788248,31.5338556 186.725586,31.8437484 186.725586,32.171875 Z M189.125,36 C188.20898,36 187.409183,35.7197294 186.725586,35.1591797 L186.725586,38.5703125 C186.725586,38.7753917 186.656088,38.9451491 186.51709,39.0795898 C186.378092,39.2140306 186.208334,39.28125 186.007812,39.28125 C185.802733,39.28125 185.632976,39.2140306 185.498535,39.0795898 C185.364094,38.9451491 185.296875,38.7753917 185.296875,38.5703125 L185.296875,32.171875 C185.296875,31.114578 185.670569,30.2122433 186.417969,29.4648438 C187.165368,28.7174442 188.067703,28.34375 189.125,28.34375 C190.173182,28.34375 191.075517,28.7174442 191.832031,29.4648438 C192.205731,29.8339862 192.486002,30.2452777 192.672852,30.6987305 C192.859701,31.1521833 192.953125,31.6432265 192.953125,32.171875 C192.953125,33.2382866 192.579431,34.1406213 191.832031,34.8789062 C191.449217,35.2571633 191.033368,35.5385733 190.584473,35.7231445 C190.135577,35.9077158 189.649091,36 189.125,36 Z M195.448242,29.0546875 L195.448242,29.1914062 C195.790041,28.9179674 196.161456,28.7083341 196.5625,28.5625 C196.963544,28.4166659 197.391925,28.34375 197.847656,28.34375 C198.048178,28.34375 198.263508,28.3574217 198.493652,28.3847656 C198.723797,28.4121095 198.935709,28.4610999 199.129395,28.5317383 C199.32308,28.6023767 199.483723,28.6992181 199.611328,28.8222656 C199.738933,28.9453131 199.802734,29.1048167 199.802734,29.3007812 C199.802734,29.4010422 199.783366,29.4944657 199.744629,29.5810547 C199.705892,29.6676437 199.654623,29.7439775 199.59082,29.8100586 C199.527018,29.8761397 199.451823,29.9274087 199.365234,29.9638672 C199.278645,30.0003257 199.185222,30.0185547 199.084961,30.0185547 C198.998372,30.0185547 198.898113,29.9934898 198.78418,29.9433594 C198.497069,29.8294265 198.184898,29.7724609 197.847656,29.7724609 C197.514972,29.7724609 197.202801,29.8351231 196.911133,29.9604492 C196.619465,30.0857754 196.365398,30.2566721 196.148926,30.4731445 C195.932453,30.689617 195.761557,30.9436834 195.63623,31.2353516 C195.510904,31.5270197 195.448242,31.839191 195.448242,32.171875 L195.448242,35.2890625 C195.448242,35.485027 195.378744,35.6525058 195.239746,35.7915039 C195.100748,35.930502 194.933269,36 194.737305,36 C194.536783,36 194.367025,35.930502 194.228027,35.7915039 C194.089029,35.6525058 194.019531,35.485027 194.019531,35.2890625 L194.019531,29.0546875 C194.019531,28.858723 194.089029,28.6912442 194.228027,28.5522461 C194.367025,28.413248 194.536783,28.34375 194.737305,28.34375 C194.933269,28.34375 195.100748,28.413248 195.239746,28.5522461 C195.378744,28.6912442 195.448242,28.858723 195.448242,29.0546875 Z M202.543945,26.9833984 C202.543945,27.2158215 202.461915,27.4140617 202.297852,27.578125 C202.133788,27.7421883 201.935548,27.8242188 201.703125,27.8242188 C201.470702,27.8242188 201.272462,27.7421883 201.108398,27.578125 C200.944335,27.4140617 200.862305,27.2158215 200.862305,26.9833984 C200.862305,26.7509754 200.944335,26.5527352 201.108398,26.3886719 C201.272462,26.2246086 201.470702,26.1425781 201.703125,26.1425781 C201.935548,26.1425781 202.133788,26.2246086 202.297852,26.3886719 C202.461915,26.5527352 202.543945,26.7509754 202.543945,26.9833984 Z M200.992188,35.2822266 L200.992188,29.0615234 C200.992188,28.8610016 201.061686,28.6912442 201.200684,28.5522461 C201.339682,28.413248 201.50716,28.34375 201.703125,28.34375 C201.89909,28.34375 202.066568,28.413248 202.205566,28.5522461 C202.344564,28.6912442 202.416341,28.8610016 202.420898,29.0615234 L202.420898,35.2822266 C202.416341,35.4827484 202.344564,35.6525058 202.205566,35.7915039 C202.066568,35.930502 201.89909,36 201.703125,36 C201.50716,36 201.339682,35.930502 201.200684,35.7915039 C201.061686,35.6525058 200.992188,35.4827484 200.992188,35.2822266 Z M203.822266,35.2890625 L203.822266,25.7802734 C203.822266,25.5797516 203.889485,25.4099942 204.023926,25.2709961 C204.158367,25.131998 204.328124,25.0625 204.533203,25.0625 C204.738282,25.0625 204.90804,25.131998 205.04248,25.2709961 C205.176921,25.4099942 205.244141,25.5797516 205.244141,25.7802734 L205.244141,34.5712891 L205.572266,34.5712891 C205.76823,34.5712891 205.935709,34.6407871 206.074707,34.7797852 C206.213705,34.9187832 206.283203,35.0885407 206.283203,35.2890625 C206.283203,35.485027 206.213705,35.6525058 206.074707,35.7915039 C205.935709,35.930502 205.76823,36 205.572266,36 L204.526367,36 C204.330403,36 204.164063,35.930502 204.027344,35.7915039 C203.890624,35.6525058 203.822266,35.485027 203.822266,35.2890625 Z M212.695312,35.2890625 L212.695312,26.7783203 C212.558593,26.8238935 212.41504,26.8751625 212.264648,26.9321289 C212.114257,26.9890953 211.97754,27.0175781 211.854492,27.0175781 C211.649413,27.0175781 211.479656,26.9503587 211.345215,26.815918 C211.210774,26.6814772 211.143555,26.5117198 211.143555,26.3066406 C211.143555,26.1608066 211.181152,26.030925 211.256348,25.9169922 C211.331543,25.8030593 211.446614,25.7096358 211.601562,25.6367188 L213.166992,25.1171875 C213.249024,25.0852863 213.331054,25.0693359 213.413086,25.0693359 C213.618165,25.0693359 213.787923,25.1388339 213.922363,25.277832 C214.056804,25.4168301 214.124023,25.5865875 214.124023,25.7871094 L214.124023,35.2890625 C214.124023,35.485027 214.054525,35.6525058 213.915527,35.7915039 C213.776529,35.930502 213.606772,36 213.40625,36 C213.210285,36 213.042807,35.930502 212.903809,35.7915039 C212.764811,35.6525058 212.695312,35.485027 212.695312,35.2890625 Z M215.210938,34.8447266 L219.873047,26.4912109 L215.887695,26.4912109 C215.682616,26.4912109 215.512859,26.4239916 215.378418,26.2895508 C215.243977,26.15511 215.176758,25.9853526 215.176758,25.7802734 C215.176758,25.5797516 215.243977,25.4099942 215.378418,25.2709961 C215.512859,25.131998 215.682616,25.0625 215.887695,25.0625 L221.076172,25.0625 C221.176433,25.0625 221.269856,25.0818683 221.356445,25.1206055 C221.443034,25.1593426 221.518229,25.2106117 221.582031,25.2744141 C221.645834,25.3382165 221.697103,25.413411 221.73584,25.5 C221.774577,25.586589 221.793945,25.6800125 221.793945,25.7802734 C221.793945,25.9033209 221.759766,26.0309238 221.691406,26.1630859 L216.441406,35.6035156 C216.404948,35.6718753 216.359375,35.7333982 216.304688,35.7880859 C216.163411,35.9293627 215.992514,36 215.791992,36 C215.596028,36 215.428549,35.930502 215.289551,35.7915039 C215.150553,35.6525058 215.081055,35.485027 215.081055,35.2890625 C215.081055,35.1432284 215.124349,34.9951179 215.210938,34.8447266 Z M223.427734,32.8828125 C223.222655,32.8828125 223.052898,32.8155931 222.918457,32.6811523 C222.784016,32.5467116 222.716797,32.3769542 222.716797,32.171875 C222.716797,31.9667958 222.784016,31.7970384 222.918457,31.6625977 C223.052898,31.5281569 223.222655,31.4609375 223.427734,31.4609375 L226.544922,31.4609375 C226.750001,31.4609375 226.919758,31.5281569 227.054199,31.6625977 C227.18864,31.7970384 227.255859,31.9667958 227.255859,32.171875 C227.255859,32.3769542 227.18864,32.5467116 227.054199,32.6811523 C226.919758,32.8155931 226.750001,32.8828125 226.544922,32.8828125 L223.427734,32.8828125 Z M228.212891,28.3779297 C228.212891,27.9221982 228.300618,27.4938171 228.476074,27.0927734 C228.651531,26.6917298 228.889647,26.3408218 229.19043,26.0400391 C229.491212,25.7392563 229.84212,25.5022795 230.243164,25.3291016 C230.644208,25.1559236 231.07031,25.0693359 231.521484,25.0693359 C231.972659,25.0693359 232.398761,25.1582022 232.799805,25.3359375 C233.200848,25.5136728 233.551756,25.7529282 233.852539,26.0537109 C234.153322,26.3544937 234.391438,26.7054016 234.566895,27.1064453 C234.742351,27.507489 234.830078,27.9313129 234.830078,28.3779297 C234.830078,28.8336611 234.746908,29.257485 234.580566,29.6494141 C234.414224,30.0413431 234.17383,30.3968083 233.859375,30.7158203 L230.537109,34.5712891 L234.112305,34.5712891 C234.312827,34.5712891 234.482584,34.6419264 234.621582,34.7832031 C234.76058,34.9244799 234.830078,35.093098 234.830078,35.2890625 C234.830078,35.485027 234.76058,35.6525058 234.621582,35.7915039 C234.482584,35.930502 234.312827,36 234.112305,36 L228.923828,36 C228.823567,36 228.730144,35.981771 228.643555,35.9453125 C228.556966,35.908854 228.481771,35.857585 228.417969,35.7915039 C228.354166,35.7254228 228.304037,35.649089 228.267578,35.5625 C228.23112,35.475911 228.212891,35.3847661 228.212891,35.2890625 C228.212891,35.0839833 228.278971,34.9153652 228.411133,34.7832031 L232.84082,29.7246094 C233.21452,29.3509096 233.401367,28.9020208 233.401367,28.3779297 C233.401367,28.1227201 233.351237,27.881186 233.250977,27.6533203 C233.150716,27.4254546 233.015138,27.2260751 232.844238,27.0551758 C232.673339,26.8842765 232.473959,26.7486984 232.246094,26.6484375 C232.018228,26.5481766 231.776694,26.4980469 231.521484,26.4980469 C231.261717,26.4980469 231.017905,26.5470373 230.790039,26.6450195 C230.562173,26.7430018 230.362794,26.8763012 230.191895,27.0449219 C230.020995,27.2135425 229.886556,27.4117827 229.788574,27.6396484 C229.690592,27.8675142 229.641602,28.1136054 229.641602,28.3779297 C229.641602,28.5738942 229.572104,28.741373 229.433105,28.8803711 C229.294107,29.0193692 229.12435,29.0888672 228.923828,29.0888672 C228.727864,29.0888672 228.560385,29.0193692 228.421387,28.8803711 C228.282389,28.741373 228.212891,28.5738942 228.212891,28.3779297 Z M235.869141,30.5244141 C235.869141,29.6630816 235.944335,28.8940464 236.094727,28.2172852 C236.245118,27.540524 236.461587,26.9674503 236.744141,26.4980469 C237.026694,26.0286435 237.375323,25.6697604 237.790039,25.4213867 C238.204755,25.1730131 238.678708,25.0488281 239.211914,25.0488281 C239.74512,25.0488281 240.219073,25.1752917 240.633789,25.4282227 C241.048505,25.6811536 241.398273,26.0434547 241.683105,26.5151367 C241.967938,26.9868188 242.184407,27.5610318 242.33252,28.237793 C242.480632,28.9145542 242.554688,29.6767536 242.554688,30.5244141 C242.554688,31.3720746 242.480632,32.134274 242.33252,32.8110352 C242.184407,33.4877964 241.967938,34.0620094 241.683105,34.5336914 C241.398273,35.0053735 241.048505,35.3676745 240.633789,35.6206055 C240.219073,35.8735364 239.74512,36 239.211914,36 C238.678708,36 238.204755,35.875815 237.790039,35.6274414 C237.375323,35.3790678 237.026694,35.021324 236.744141,34.5541992 C236.461587,34.0870745 236.245118,33.5140008 236.094727,32.8349609 C235.944335,32.1559211 235.869141,31.3857465 235.869141,30.5244141 Z M239.211914,26.4980469 C238.892902,26.4980469 238.613771,26.6005849 238.374512,26.8056641 C238.135253,27.0107432 237.937013,27.2910138 237.779785,27.6464844 C237.622558,28.0019549 237.505209,28.4269181 237.427734,28.9213867 C237.35026,29.4158553 237.311523,29.9501924 237.311523,30.5244141 C237.311523,31.1077503 237.35026,31.6466447 237.427734,32.1411133 C237.505209,32.6355819 237.623697,33.0605451 237.783203,33.4160156 C237.942709,33.7714862 238.140949,34.0494782 238.37793,34.25 C238.61491,34.4505218 238.892902,34.5507812 239.211914,34.5507812 C239.535483,34.5507812 239.816893,34.4482432 240.056152,34.2431641 C240.295411,34.0380849 240.492512,33.756675 240.647461,33.3989258 C240.80241,33.0411766 240.918619,32.6162134 240.996094,32.1240234 C241.073568,31.6318335 241.112305,31.0986357 241.112305,30.5244141 C241.112305,29.9547498 241.072429,29.4238306 240.992676,28.9316406 C240.912923,28.4394507 240.795574,28.0133482 240.640625,27.6533203 C240.485676,27.2932925 240.288575,27.0107432 240.049316,26.8056641 C239.810057,26.6005849 239.530926,26.4980469 239.211914,26.4980469 Z" id="april-17-20" fill="#FFFFFF" opacity="0.511265851"></path>
            </g>
            <circle id="Oval-Copy" fill="#FFFFFF" opacity="0.426120924" cx="136" cy="63" r="9"></circle>
            <polyline id="Rectangle-2-Copy" fill="#FFFFFF" points="134 57 140.853496 62.673643 134 69"></polyline>
        </g>
    </g>
</svg>