<?xml version="1.0" encoding="UTF-8"?>
<svg width="259px" height="82px" viewBox="0 0 259 82" version="1.1" xmlns="http://www.w3.org/2000/svg" xmlns:xlink="http://www.w3.org/1999/xlink">
    <!-- Generator: Sketch 41.2 (35397) - http://www.bohemiancoding.com/sketch -->
    <title>dockercon-Vector</title>
    <desc>Created with Sketch.</desc>
    <defs></defs>
    <g id="fisher" stroke="none" stroke-width="1" fill="none" fill-rule="evenodd">
        <g id="What-is-a-Container@2x-Copy" transform="translate(-1021.000000, -376.000000)">
            <g id="dockercon" transform="translate(1020.000000, 376.000000)">
                <g id="Group-3" transform="translate(2.000000, 42.000000)">
                    <polygon id="Rectangle" fill="#6CDBFF" points="0 0 260 0 260 12 5.35429688 12"></polygon>
                    <polygon id="Rectangle-Copy" fill="#F27D52" points="6 14 259.75332 14 259.75332 26 11.3542969 26"></polygon>
                    <polygon id="Rectangle-Copy-2" fill="#FAAC18" points="12 28 259.506641 28 259.506641 40 17.3542969 40"></polygon>
                </g>
                <path d="M14.7607422,28.34375 C14.7607422,27.6874967 14.6354179,27.0699899 14.3847656,26.4912109 C14.1341133,25.912432 13.7923199,25.4042991 13.359375,24.9667969 C12.9264301,24.5292947 12.4182972,24.182944 11.8349609,23.9277344 C11.2516247,23.6725248 10.627282,23.5449219 9.96191406,23.5449219 C9.28743152,23.5449219 8.65853156,23.6725248 8.07519531,23.9277344 C7.49185906,24.182944 6.98600475,24.5270161 6.55761719,24.9599609 C6.12922963,25.3929058 5.78971479,25.9010388 5.5390625,26.484375 C5.28841021,27.0677112 5.16308594,27.6874967 5.16308594,28.34375 C5.16308594,29.0000033 5.28841021,29.6197887 5.5390625,30.203125 C5.78971479,30.7864613 6.12922963,31.2945942 6.55761719,31.7275391 C6.98600475,32.1604839 7.49185906,32.504556 8.07519531,32.7597656 C8.65853156,33.0149752 9.28743152,33.1425781 9.96191406,33.1425781 C10.627282,33.1425781 11.2516247,33.0149752 11.8349609,32.7597656 C12.4182972,32.504556 12.9264301,32.1582053 13.359375,31.7207031 C13.7923199,31.2832009 14.1341133,30.775068 14.3847656,30.1962891 C14.6354179,29.6175101 14.7607422,29.0000033 14.7607422,28.34375 Z M9.96191406,20.6875 C11.7757252,20.6875 13.3753186,21.2480413 14.7607422,22.3691406 L14.7607422,15.546875 C14.7607422,15.1367167 14.8951809,14.7972019 15.1640625,14.5283203 C15.4329441,14.2594388 15.7724589,14.125 16.1826172,14.125 C16.5836609,14.125 16.9231757,14.2594388 17.2011719,14.5283203 C17.4791681,14.7972019 17.6181641,15.1367167 17.6181641,15.546875 L17.6181641,28.34375 C17.6181641,30.4765732 16.8707757,32.2812426 15.3759766,33.7578125 C13.8629482,35.2526116 12.0582787,36 9.96191406,36 C7.84732016,36 6.0426507,35.2526116 4.54785156,33.7578125 C3.05305242,32.2630134 2.30566406,30.4583439 2.30566406,28.34375 C2.30566406,26.2291561 3.05305242,24.4244866 4.54785156,22.9296875 C6.0426507,21.4348884 7.84732016,20.6875 9.96191406,20.6875 Z M35.1181641,28.34375 C35.1181641,30.4765732 34.3707757,32.2812426 32.8759766,33.7578125 C31.3629482,35.2526116 29.5582787,36 27.4619141,36 C25.3473202,36 23.5426507,35.2526116 22.0478516,33.7578125 C20.5530524,32.2630134 19.8056641,30.4583439 19.8056641,28.34375 C19.8056641,26.2291561 20.5530524,24.4244866 22.0478516,22.9296875 C23.5426507,21.4348884 25.3473202,20.6875 27.4619141,20.6875 C29.5582787,20.6875 31.3629482,21.4348884 32.8759766,22.9296875 C33.6233761,23.6770871 34.1816388,24.5019486 34.5507812,25.4042969 C34.9199237,26.3066451 35.1090494,27.286453 35.1181641,28.34375 Z M27.4619141,23.5449219 C26.7874315,23.5449219 26.1585316,23.6725248 25.5751953,23.9277344 C24.9918591,24.182944 24.4860047,24.5270161 24.0576172,24.9599609 C23.6292296,25.3929058 23.2897148,25.9010388 23.0390625,26.484375 C22.7884102,27.0677112 22.6630859,27.6874967 22.6630859,28.34375 C22.6630859,29.0000033 22.7884102,29.6197887 23.0390625,30.203125 C23.2897148,30.7864613 23.6292296,31.2945942 24.0576172,31.7275391 C24.4860047,32.1604839 24.9918591,32.504556 25.5751953,32.7597656 C26.1585316,33.0149752 26.7874315,33.1425781 27.4619141,33.1425781 C28.127282,33.1425781 28.7516247,33.0149752 29.3349609,32.7597656 C29.9182972,32.504556 30.4264301,32.1582053 30.859375,31.7207031 C31.2923199,31.2832009 31.6341133,30.775068 31.8847656,30.1962891 C32.1354179,29.6175101 32.2607422,29.0000033 32.2607422,28.34375 C32.2607422,27.6874967 32.1354179,27.0699899 31.8847656,26.4912109 C31.6341133,25.912432 31.2923199,25.4042991 30.859375,24.9667969 C30.4264301,24.5292947 29.9182972,24.182944 29.3349609,23.9277344 C28.7516247,23.6725248 28.127282,23.5449219 27.4619141,23.5449219 Z M48.9541016,31.6660156 C49.3642599,31.6660156 49.7037747,31.8004544 49.9726562,32.0693359 C50.2415378,32.3382175 50.3759766,32.6777323 50.3759766,33.0878906 C50.3759766,33.4889343 50.2255874,33.8398422 49.9248047,34.140625 C48.5120372,35.3802145 46.8486424,36 44.9345703,36 C42.8199764,36 41.015307,35.2526116 39.5205078,33.7578125 C38.0257087,32.2630134 37.2783203,30.4583439 37.2783203,28.34375 C37.2783203,26.2291561 38.0257087,24.4244866 39.5205078,22.9296875 C41.015307,21.4348884 42.8199764,20.6875 44.9345703,20.6875 C46.857757,20.6875 48.5211518,21.3072855 49.9248047,22.546875 C50.2529313,22.8385431 50.4169922,23.1985656 50.4169922,23.6269531 C50.4169922,24.0371114 50.2825534,24.3789049 50.0136719,24.6523438 C49.7447903,24.9257826 49.4052755,25.0625 48.9951172,25.0625 C48.6487613,25.0625 48.3388686,24.9531261 48.0654297,24.734375 C47.6005836,24.342446 47.1129583,24.046225 46.6025391,23.8457031 C46.0921198,23.6451813 45.5361358,23.5449219 44.9345703,23.5449219 C44.2692024,23.5449219 43.6448597,23.6702461 43.0615234,23.9208984 C42.4781872,24.1715507 41.9677756,24.5133442 41.5302734,24.9462891 C41.0927712,25.3792339 40.7486992,25.8873669 40.4980469,26.4707031 C40.2473946,27.0540394 40.1220703,27.6783821 40.1220703,28.34375 C40.1220703,29.0091179 40.2473946,29.6334606 40.4980469,30.2167969 C40.7486992,30.8001331 41.0927712,31.3082661 41.5302734,31.7412109 C41.9677756,32.1741558 42.4781872,32.5159493 43.0615234,32.7666016 C43.6448597,33.0172539 44.2692024,33.1425781 44.9345703,33.1425781 C45.5361358,33.1425781 46.0921198,33.0445973 46.6025391,32.8486328 C47.1129583,32.6526683 47.5960264,32.3587259 48.0517578,31.9667969 C48.3069674,31.7753897 48.6077457,31.6751303 48.9541016,31.6660156 Z M52.5908203,34.5644531 L52.5908203,15.5605469 C52.5908203,15.1595032 52.7298163,14.8199884 53.0078125,14.5419922 C53.2858087,14.263996 53.6253235,14.125 54.0263672,14.125 C54.4182962,14.125 54.7532538,14.263996 55.03125,14.5419922 C55.3092462,14.8199884 55.4482422,15.1595032 55.4482422,15.5605469 L55.4482422,26.2246094 L63.6240234,20.90625 C63.8518892,20.7604159 64.1070949,20.6875 64.3896484,20.6875 C64.5901703,20.6875 64.7770174,20.723958 64.9501953,20.796875 C65.1233733,20.869792 65.2737624,20.9723301 65.4013672,21.1044922 C65.528972,21.2366543 65.63151,21.3893221 65.7089844,21.5625 C65.7864587,21.7356779 65.8251953,21.9179678 65.8251953,22.109375 C65.8251953,22.6197942 65.6429055,22.9980456 65.2783203,23.2441406 L59.5498047,26.9628906 L65.4287109,33.5800781 C65.6930352,33.8717463 65.8251953,34.2044252 65.8251953,34.578125 C65.8251953,34.7695322 65.7864587,34.9518221 65.7089844,35.125 C65.63151,35.2981779 65.528972,35.4508457 65.4013672,35.5830078 C65.2737624,35.7151699 65.1233733,35.817708 64.9501953,35.890625 C64.7770174,35.963542 64.5901703,36 64.3896484,36 C64.006834,36 63.6878268,35.8769544 63.4326172,35.6308594 L57.1162109,28.5351562 L55.4482422,29.6289062 L55.4482422,34.5644531 C55.4482422,34.9563822 55.3092462,35.2936184 55.03125,35.5761719 C54.7532538,35.8587254 54.4182962,36 54.0263672,36 C53.6253235,36 53.2858087,35.8587254 53.0078125,35.5761719 C52.7298163,35.2936184 52.5908203,34.9563822 52.5908203,34.5644531 Z M79.3330078,26.921875 C79.1780591,26.4205704 78.9479182,25.9625672 78.6425781,25.5478516 C78.3372381,25.1331359 77.9817729,24.7776708 77.5761719,24.4814453 C77.1705709,24.1852199 76.7239608,23.9550789 76.2363281,23.7910156 C75.7486955,23.6269523 75.2451198,23.5449219 74.7255859,23.5449219 C74.2060521,23.5449219 73.7001978,23.6269523 73.2080078,23.7910156 C72.7158179,23.9550789 72.2646505,24.1852199 71.8544922,24.4814453 C71.4443339,24.7776708 71.0888687,25.1331359 70.7880859,25.5478516 C70.4873032,25.9625672 70.2639981,26.4205704 70.1181641,26.921875 L79.3330078,26.921875 Z M78.7177734,31.6933594 C79.1279317,31.6933594 79.4674466,31.8277981 79.7363281,32.0966797 C80.0052097,32.3655612 80.1396484,32.7050761 80.1396484,33.1152344 C80.1396484,33.516278 80.0029311,33.8580715 79.7294922,34.140625 C78.3167247,35.3802145 76.6487726,36 74.7255859,36 C72.610992,36 70.8063226,35.2526116 69.3115234,33.7578125 C67.8167243,32.2630134 67.0693359,30.4583439 67.0693359,28.34375 C67.0693359,26.2291561 67.8167243,24.4244866 69.3115234,22.9296875 C70.8063226,21.4348884 72.610992,20.6875 74.7255859,20.6875 C76.8219506,20.6875 78.62662,21.4348884 80.1396484,22.9296875 C80.887048,23.6679724 81.4475893,24.4905554 81.8212891,25.3974609 C82.1949888,26.3043665 82.3818359,27.286453 82.3818359,28.34375 C82.3818359,28.7539083 82.2428399,29.0934231 81.9648438,29.3623047 C81.6868476,29.6311862 81.3473327,29.765625 80.9462891,29.765625 L70.1181641,29.765625 C70.2731128,30.2669296 70.5009751,30.7249328 70.8017578,31.1396484 C71.1025406,31.5543641 71.4557271,31.9098292 71.8613281,32.2060547 C72.2669291,32.5022801 72.7135392,32.7324211 73.2011719,32.8964844 C73.6888045,33.0605477 74.1969375,33.1425781 74.7255859,33.1425781 C75.3271514,33.1425781 75.8785782,33.0514332 76.3798828,32.8691406 C76.8811874,32.686848 77.3460265,32.4134133 77.7744141,32.0488281 C78.0478529,31.8209624 78.3623029,31.702474 78.7177734,31.6933594 Z M87.3720703,22.109375 L87.3720703,22.3828125 C88.0556675,21.8359348 88.7984986,21.4166681 89.6005859,21.125 C90.4026733,20.8333319 91.2594355,20.6875 92.1708984,20.6875 C92.5719421,20.6875 93.0026019,20.7148435 93.4628906,20.7695312 C93.9231794,20.824219 94.3470033,20.9221998 94.734375,21.0634766 C95.1217467,21.2047533 95.4430326,21.3984363 95.6982422,21.6445312 C95.9534518,21.8906262 96.0810547,22.2096335 96.0810547,22.6015625 C96.0810547,22.8020843 96.0423181,22.9889314 95.9648438,23.1621094 C95.8873694,23.3352873 95.7848314,23.4879551 95.6572266,23.6201172 C95.5296218,23.7522793 95.3792326,23.8548173 95.2060547,23.9277344 C95.0328767,24.0006514 94.8460296,24.0371094 94.6455078,24.0371094 C94.4723299,24.0371094 94.271811,23.9869797 94.0439453,23.8867188 C93.4697237,23.658853 92.845381,23.5449219 92.1708984,23.5449219 C91.5055305,23.5449219 90.8811878,23.6702461 90.2978516,23.9208984 C89.7145153,24.1715507 89.2063824,24.5133442 88.7734375,24.9462891 C88.3404926,25.3792339 87.9986992,25.8873669 87.7480469,26.4707031 C87.4973946,27.0540394 87.3720703,27.6783821 87.3720703,28.34375 L87.3720703,34.578125 C87.3720703,34.970054 87.2330743,35.3050116 86.9550781,35.5830078 C86.6770819,35.861004 86.3421244,36 85.9501953,36 C85.5491516,36 85.2096368,35.861004 84.9316406,35.5830078 C84.6536444,35.3050116 84.5146484,34.970054 84.5146484,34.578125 L84.5146484,22.109375 C84.5146484,21.717446 84.6536444,21.3824884 84.9316406,21.1044922 C85.2096368,20.826496 85.5491516,20.6875 85.9501953,20.6875 C86.3421244,20.6875 86.6770819,20.826496 86.9550781,21.1044922 C87.2330743,21.3824884 87.3720703,21.717446 87.3720703,22.109375 Z M109.342773,31.6660156 C109.752932,31.6660156 110.092447,31.8004544 110.361328,32.0693359 C110.63021,32.3382175 110.764648,32.6777323 110.764648,33.0878906 C110.764648,33.4889343 110.614259,33.8398422 110.313477,34.140625 C108.900709,35.3802145 107.237314,36 105.323242,36 C103.208648,36 101.403979,35.2526116 99.9091797,33.7578125 C98.4143805,32.2630134 97.6669922,30.4583439 97.6669922,28.34375 C97.6669922,26.2291561 98.4143805,24.4244866 99.9091797,22.9296875 C101.403979,21.4348884 103.208648,20.6875 105.323242,20.6875 C107.246429,20.6875 108.909824,21.3072855 110.313477,22.546875 C110.641603,22.8385431 110.805664,23.1985656 110.805664,23.6269531 C110.805664,24.0371114 110.671225,24.3789049 110.402344,24.6523438 C110.133462,24.9257826 109.793947,25.0625 109.383789,25.0625 C109.037433,25.0625 108.72754,24.9531261 108.454102,24.734375 C107.989255,24.342446 107.50163,24.046225 106.991211,23.8457031 C106.480792,23.6451813 105.924808,23.5449219 105.323242,23.5449219 C104.657874,23.5449219 104.033532,23.6702461 103.450195,23.9208984 C102.866859,24.1715507 102.356447,24.5133442 101.918945,24.9462891 C101.481443,25.3792339 101.137371,25.8873669 100.886719,26.4707031 C100.636066,27.0540394 100.510742,27.6783821 100.510742,28.34375 C100.510742,29.0091179 100.636066,29.6334606 100.886719,30.2167969 C101.137371,30.8001331 101.481443,31.3082661 101.918945,31.7412109 C102.356447,32.1741558 102.866859,32.5159493 103.450195,32.7666016 C104.033532,33.0172539 104.657874,33.1425781 105.323242,33.1425781 C105.924808,33.1425781 106.480792,33.0445973 106.991211,32.8486328 C107.50163,32.6526683 107.984698,32.3587259 108.44043,31.9667969 C108.695639,31.7753897 108.996418,31.6751303 109.342773,31.6660156 Z M128.319336,28.34375 C128.319336,30.4765732 127.571948,32.2812426 126.077148,33.7578125 C124.56412,35.2526116 122.759451,36 120.663086,36 C118.548492,36 116.743823,35.2526116 115.249023,33.7578125 C113.754224,32.2630134 113.006836,30.4583439 113.006836,28.34375 C113.006836,26.2291561 113.754224,24.4244866 115.249023,22.9296875 C116.743823,21.4348884 118.548492,20.6875 120.663086,20.6875 C122.759451,20.6875 124.56412,21.4348884 126.077148,22.9296875 C126.824548,23.6770871 127.382811,24.5019486 127.751953,25.4042969 C128.121096,26.3066451 128.310221,27.286453 128.319336,28.34375 Z M120.663086,23.5449219 C119.988603,23.5449219 119.359703,23.6725248 118.776367,23.9277344 C118.193031,24.182944 117.687177,24.5270161 117.258789,24.9599609 C116.830402,25.3929058 116.490887,25.9010388 116.240234,26.484375 C115.989582,27.0677112 115.864258,27.6874967 115.864258,28.34375 C115.864258,29.0000033 115.989582,29.6197887 116.240234,30.203125 C116.490887,30.7864613 116.830402,31.2945942 117.258789,31.7275391 C117.687177,32.1604839 118.193031,32.504556 118.776367,32.7597656 C119.359703,33.0149752 119.988603,33.1425781 120.663086,33.1425781 C121.328454,33.1425781 121.952797,33.0149752 122.536133,32.7597656 C123.119469,32.504556 123.627602,32.1582053 124.060547,31.7207031 C124.493492,31.2832009 124.835285,30.775068 125.085938,30.1962891 C125.33659,29.6175101 125.461914,29.0000033 125.461914,28.34375 C125.461914,27.6874967 125.33659,27.0699899 125.085938,26.4912109 C124.835285,25.912432 124.493492,25.4042991 124.060547,24.9667969 C123.627602,24.5292947 123.119469,24.182944 122.536133,23.9277344 C121.952797,23.6725248 121.328454,23.5449219 120.663086,23.5449219 Z M133.350586,22.0957031 C134.562832,21.1568963 135.98925,20.6875 137.629883,20.6875 C138.586919,20.6875 139.496089,20.8743471 140.357422,21.2480469 C141.218754,21.6217467 141.977536,22.1298796 142.633789,22.7724609 C143.290042,23.4150423 143.809568,24.1715451 144.192383,25.0419922 C144.575197,25.9124392 144.766602,26.8398388 144.766602,27.8242188 L144.766602,34.5644531 C144.766602,34.9654968 144.627606,35.3050116 144.349609,35.5830078 C144.071613,35.861004 143.736656,36 143.344727,36 C142.943683,36 142.604168,35.861004 142.326172,35.5830078 C142.048176,35.3050116 141.90918,34.9654968 141.90918,34.5644531 L141.90918,27.8242188 C141.90918,27.2408825 141.795249,26.6894557 141.567383,26.1699219 C141.339517,25.650388 141.031903,25.196942 140.644531,24.8095703 C140.25716,24.4221986 139.803714,24.1145845 139.28418,23.8867188 C138.764646,23.658853 138.213219,23.5449219 137.629883,23.5449219 C137.037432,23.5449219 136.483727,23.6565744 135.96875,23.8798828 C135.453773,24.1031912 135.000327,24.4108053 134.608398,24.8027344 C134.216469,25.1946634 133.908855,25.650388 133.685547,26.1699219 C133.462238,26.6894557 133.350586,27.2408825 133.350586,27.8242188 L133.350586,34.5644531 C133.350586,34.9654968 133.21159,35.3050116 132.933594,35.5830078 C132.655598,35.861004 132.32064,36 131.928711,36 C131.527667,36 131.188152,35.861004 130.910156,35.5830078 C130.63216,35.3050116 130.493164,34.9654968 130.493164,34.5644531 L130.493164,22.1230469 C130.493164,21.7311178 130.63216,21.3938816 130.910156,21.1113281 C131.188152,20.8287746 131.527667,20.6875 131.928711,20.6875 C132.32064,20.6875 132.655598,20.8287746 132.933594,21.1113281 C133.21159,21.3938816 133.350586,21.7220033 133.350586,22.0957031 Z M149.756836,34.578125 L149.756836,17.5566406 C149.483397,17.6477869 149.196291,17.750325 148.895508,17.8642578 C148.594725,17.9781907 148.32129,18.0351562 148.075195,18.0351562 C147.665037,18.0351562 147.325522,17.9007175 147.056641,17.6318359 C146.787759,17.3629544 146.65332,17.0234396 146.65332,16.6132812 C146.65332,16.3216131 146.728515,16.0618501 146.878906,15.8339844 C147.029298,15.6061187 147.259439,15.4192716 147.569336,15.2734375 L150.700195,14.234375 C150.864259,14.1705726 151.028319,14.1386719 151.192383,14.1386719 C151.602541,14.1386719 151.942056,14.2776679 152.210938,14.5556641 C152.479819,14.8336602 152.614258,15.1731751 152.614258,15.5742188 L152.614258,34.578125 C152.614258,34.970054 152.475262,35.3050116 152.197266,35.5830078 C151.919269,35.861004 151.579755,36 151.178711,36 C150.786782,36 150.451824,35.861004 150.173828,35.5830078 C149.895832,35.3050116 149.756836,34.970054 149.756836,34.578125 Z M154.788086,33.6894531 L164.112305,16.9824219 L156.141602,16.9824219 C155.731443,16.9824219 155.391928,16.8479831 155.123047,16.5791016 C154.854165,16.31022 154.719727,15.9707052 154.719727,15.5605469 C154.719727,15.1595032 154.854165,14.8199884 155.123047,14.5419922 C155.391928,14.263996 155.731443,14.125 156.141602,14.125 L166.518555,14.125 C166.719077,14.125 166.905924,14.1637366 167.079102,14.2412109 C167.25228,14.3186853 167.402669,14.4212233 167.530273,14.5488281 C167.657878,14.6764329 167.760416,14.8268221 167.837891,15 C167.915365,15.1731779 167.954102,15.360025 167.954102,15.5605469 C167.954102,15.8066419 167.885743,16.0618476 167.749023,16.3261719 L157.249023,35.2070312 C157.176106,35.3437507 157.084961,35.4667963 156.975586,35.5761719 C156.693032,35.8587254 156.351239,36 155.950195,36 C155.558266,36 155.223309,35.861004 154.945312,35.5830078 C154.667316,35.3050116 154.52832,34.970054 154.52832,34.578125 C154.52832,34.2864569 154.614908,33.9902359 154.788086,33.6894531 Z" id="dockercon17" fill="#FFFFFF"></path>
                <path d="M5.11523438,1.98339844 C5.11523438,2.21582147 5.03320395,2.41406168 4.86914062,2.578125 C4.7050773,2.74218832 4.5068371,2.82421875 4.27441406,2.82421875 C4.04199103,2.82421875 3.84375082,2.74218832 3.6796875,2.578125 C3.51562418,2.41406168 3.43359375,2.21582147 3.43359375,1.98339844 C3.43359375,1.7509754 3.51562418,1.5527352 3.6796875,1.38867188 C3.84375082,1.22460855 4.04199103,1.14257812 4.27441406,1.14257812 C4.5068371,1.14257812 4.7050773,1.22460855 4.86914062,1.38867188 C5.03320395,1.5527352 5.11523438,1.7509754 5.11523438,1.98339844 Z M4.98535156,4.06152344 L4.98535156,10.9658203 C4.98535156,11.4169944 4.89762458,11.843097 4.72216797,12.2441406 C4.54671136,12.6451843 4.30859525,12.9960922 4.0078125,13.296875 C3.70702975,13.5976578 3.3561218,13.8357739 2.95507812,14.0112305 C2.55403445,14.1866871 2.12793194,14.2744141 1.67675781,14.2744141 C1.47167866,14.2744141 1.30192125,14.2060554 1.16748047,14.0693359 C1.03303969,13.9326165 0.965820312,13.7617198 0.965820312,13.5566406 C0.965820312,13.3515615 1.03303969,13.1818041 1.16748047,13.0473633 C1.30192125,12.9129225 1.47167866,12.8457031 1.67675781,12.8457031 C1.93652474,12.8457031 2.1803374,12.7967127 2.40820312,12.6987305 C2.63606885,12.6007482 2.83544836,12.4663094 3.00634766,12.2954102 C3.17724695,12.1245109 3.31282502,11.9251313 3.41308594,11.6972656 C3.51334686,11.4693999 3.56347656,11.2255872 3.56347656,10.9658203 L3.56347656,4.06152344 C3.56347656,3.8610016 3.63297457,3.69124418 3.77197266,3.55224609 C3.91097075,3.413248 4.07844954,3.34375 4.27441406,3.34375 C4.47037858,3.34375 4.63785738,3.413248 4.77685547,3.55224609 C4.91585356,3.69124418 4.98535156,3.8610016 4.98535156,4.06152344 Z M13.6875,7.171875 C13.6875,8.23828658 13.3138058,9.14062131 12.5664062,9.87890625 C11.8098921,10.6263058 10.9075573,11 9.859375,11 C8.80207805,11 7.89974332,10.6263058 7.15234375,9.87890625 C6.40494418,9.13150668 6.03125,8.22917195 6.03125,7.171875 C6.03125,6.11457805 6.40494418,5.21224332 7.15234375,4.46484375 C7.89974332,3.71744418 8.80207805,3.34375 9.859375,3.34375 C10.9075573,3.34375 11.8098921,3.71744418 12.5664062,4.46484375 C12.940106,4.83854354 13.2192374,5.25097431 13.4038086,5.70214844 C13.5883798,6.15332257 13.6829427,6.64322652 13.6875,7.171875 Z M9.859375,4.77246094 C9.52213373,4.77246094 9.20768375,4.83626238 8.91601562,4.96386719 C8.6243475,5.09147199 8.37142034,5.26350803 8.15722656,5.47998047 C7.94303278,5.69645291 7.77327537,5.95051938 7.64794922,6.2421875 C7.52262307,6.53385562 7.45996094,6.84374836 7.45996094,7.171875 C7.45996094,7.50000164 7.52262307,7.80989438 7.64794922,8.1015625 C7.77327537,8.39323063 7.94303278,8.64729709 8.15722656,8.86376953 C8.37142034,9.08024197 8.6243475,9.25227801 8.91601562,9.37988281 C9.20768375,9.50748762 9.52213373,9.57128906 9.859375,9.57128906 C10.192059,9.57128906 10.5042303,9.50748762 10.7958984,9.37988281 C11.0875666,9.25227801 11.341633,9.07910266 11.5581055,8.86035156 C11.7745779,8.64160047 11.9454746,8.387534 12.0708008,8.09814453 C12.1961269,7.80875506 12.2587891,7.50000164 12.2587891,7.171875 C12.2587891,6.84374836 12.1961269,6.53499494 12.0708008,6.24560547 C11.9454746,5.956216 11.7745779,5.70214953 11.5581055,5.48339844 C11.341633,5.26464734 11.0875666,5.09147199 10.7958984,4.96386719 C10.5042303,4.83626238 10.192059,4.77246094 9.859375,4.77246094 Z M16.7158203,1.98339844 C16.7158203,2.21582147 16.6337899,2.41406168 16.4697266,2.578125 C16.3056632,2.74218832 16.107423,2.82421875 15.875,2.82421875 C15.642577,2.82421875 15.4443368,2.74218832 15.2802734,2.578125 C15.1162101,2.41406168 15.0341797,2.21582147 15.0341797,1.98339844 C15.0341797,1.7509754 15.1162101,1.5527352 15.2802734,1.38867188 C15.4443368,1.22460855 15.642577,1.14257812 15.875,1.14257812 C16.107423,1.14257812 16.3056632,1.22460855 16.4697266,1.38867188 C16.6337899,1.5527352 16.7158203,1.7509754 16.7158203,1.98339844 Z M15.1640625,10.2822266 L15.1640625,4.06152344 C15.1640625,3.8610016 15.2335605,3.69124418 15.3725586,3.55224609 C15.5115567,3.413248 15.6790355,3.34375 15.875,3.34375 C16.0709645,3.34375 16.2384433,3.413248 16.3774414,3.55224609 C16.5164395,3.69124418 16.5882161,3.8610016 16.5927734,4.06152344 L16.5927734,10.2822266 C16.5882161,10.4827484 16.5164395,10.6525058 16.3774414,10.7915039 C16.2384433,10.930502 16.0709645,11 15.875,11 C15.6790355,11 15.5115567,10.930502 15.3725586,10.7915039 C15.2335605,10.6525058 15.1640625,10.4827484 15.1640625,10.2822266 Z M19.484375,4.04785156 C20.0904978,3.57844817 20.8037068,3.34375 21.6240234,3.34375 C22.1025415,3.34375 22.5571268,3.43717354 22.987793,3.62402344 C23.4184592,3.81087333 23.7978499,4.0649398 24.1259766,4.38623047 C24.4541032,4.70752114 24.7138662,5.08577256 24.9052734,5.52099609 C25.0966806,5.95621962 25.1923828,6.41991941 25.1923828,6.91210938 L25.1923828,10.2822266 C25.1923828,10.4827484 25.1228848,10.6525058 24.9838867,10.7915039 C24.8448886,10.930502 24.6774098,11 24.4814453,11 C24.2809235,11 24.1111661,10.930502 23.972168,10.7915039 C23.8331699,10.6525058 23.7636719,10.4827484 23.7636719,10.2822266 L23.7636719,6.91210938 C23.7636719,6.62044125 23.7067063,6.34472786 23.5927734,6.08496094 C23.4788406,5.82519401 23.3250335,5.59847102 23.1313477,5.40478516 C22.9376618,5.21109929 22.7109388,5.05729224 22.4511719,4.94335938 C22.191405,4.82942651 21.9156916,4.77246094 21.6240234,4.77246094 C21.327798,4.77246094 21.0509453,4.8282872 20.793457,4.93994141 C20.5359688,5.05159561 20.3092458,5.20540267 20.1132812,5.40136719 C19.9173167,5.59733171 19.7635097,5.82519401 19.6518555,6.08496094 C19.5402013,6.34472786 19.484375,6.62044125 19.484375,6.91210938 L19.484375,10.2822266 C19.484375,10.4827484 19.414877,10.6525058 19.2758789,10.7915039 C19.1368808,10.930502 18.969402,11 18.7734375,11 C18.5729157,11 18.4031582,10.930502 18.2641602,10.7915039 C18.1251621,10.6525058 18.0556641,10.4827484 18.0556641,10.2822266 L18.0556641,4.06152344 C18.0556641,3.86555892 18.1251621,3.69694081 18.2641602,3.55566406 C18.4031582,3.41438731 18.5729157,3.34375 18.7734375,3.34375 C18.969402,3.34375 19.1368808,3.41438731 19.2758789,3.55566406 C19.414877,3.69694081 19.484375,3.86100167 19.484375,4.04785156 Z M36.7792969,11 C36.5742177,11 36.4055996,10.9316413 36.2734375,10.7949219 C36.1412754,10.6582024 36.0729167,10.491863 36.0683594,10.2958984 C35.7539047,10.5419934 35.4212257,10.7208653 35.0703125,10.8325195 C34.7193993,10.9441737 34.3388692,11 33.9287109,11 C33.4410783,11 32.9807964,10.9054371 32.5478516,10.7163086 C32.1149067,10.52718 31.7366553,10.270835 31.4130859,9.94726562 C31.0895166,9.6236963 30.8331715,9.24544487 30.644043,8.8125 C30.4549144,8.37955513 30.3603516,7.91927327 30.3603516,7.43164062 L30.3603516,4.0546875 C30.3603516,3.85872298 30.4298496,3.69124418 30.5688477,3.55224609 C30.7078457,3.413248 30.8776032,3.34375 31.078125,3.34375 C31.2740895,3.34375 31.4415683,3.413248 31.5805664,3.55224609 C31.7195645,3.69124418 31.7890625,3.85872298 31.7890625,4.0546875 L31.7890625,7.43164062 C31.7890625,7.72786606 31.8448888,8.00585808 31.956543,8.265625 C32.0681972,8.52539192 32.2208649,8.75211492 32.4145508,8.94580078 C32.6082366,9.13948665 32.8349596,9.29215439 33.0947266,9.40380859 C33.3544935,9.5154628 33.6324855,9.57128906 33.9287109,9.57128906 C34.2203791,9.57128906 34.4960925,9.5154628 34.7558594,9.40380859 C35.0156263,9.29215439 35.2434886,9.13834733 35.4394531,8.94238281 C35.6354176,8.74641829 35.7892247,8.5196953 35.9008789,8.26220703 C36.0125331,8.00471876 36.0683594,7.72786606 36.0683594,7.43164062 L36.0683594,4.0546875 C36.0683594,3.85872298 36.1378574,3.69124418 36.2768555,3.55224609 C36.4158536,3.413248 36.585611,3.34375 36.7861328,3.34375 C36.9820973,3.34375 37.1495761,3.413248 37.2885742,3.55224609 C37.4275723,3.69124418 37.4970703,3.85872298 37.4970703,4.0546875 L37.4970703,10.2890625 C37.4970703,10.485027 37.4275723,10.6525058 37.2885742,10.7915039 C37.1495761,10.930502 36.9798187,11 36.7792969,11 Z M39.9648438,7.35644531 C39.5364562,7.19238199 39.2356779,7.02376389 39.0625,6.85058594 L39.0693359,6.85058594 C38.72298,6.49967272 38.5498047,6.08724195 38.5498047,5.61328125 C38.5498047,5.26692535 38.6420889,4.95361468 38.8266602,4.67333984 C39.0112314,4.393065 39.2516261,4.1549489 39.5478516,3.95898438 C39.844077,3.76301985 40.1778953,3.61149142 40.5493164,3.50439453 C40.9207375,3.39729764 41.2932924,3.34375 41.6669922,3.34375 C42.8063208,3.34375 43.7838501,3.80175323 44.5996094,4.71777344 C44.695313,4.83626361 44.7431641,4.97981687 44.7431641,5.1484375 C44.7431641,5.35351665 44.6759447,5.52327407 44.5415039,5.65771484 C44.4070631,5.79215562 44.2373057,5.859375 44.0322266,5.859375 C43.8863925,5.859375 43.7622075,5.81835979 43.659668,5.73632812 C43.5571284,5.65429646 43.4580083,5.56543017 43.3623047,5.46972656 C42.8974586,5.00488049 42.3323601,4.77246094 41.6669922,4.77246094 C41.0107389,4.77246094 40.4866556,4.97297977 40.0947266,5.37402344 C40.0218095,5.44694047 39.9853516,5.54719988 39.9853516,5.67480469 C39.9853516,5.80240949 40.0445958,5.88899717 40.1630859,5.93457031 L43.3623047,6.98730469 C43.8089215,7.16048264 44.1096997,7.32910074 44.2646484,7.49316406 L44.2578125,7.49316406 C44.6041684,7.84407728 44.7773438,8.25650805 44.7773438,8.73046875 C44.7773438,9.08138196 44.6850595,9.39583194 44.5004883,9.67382812 C44.315917,9.95182431 44.0755223,10.1899404 43.7792969,10.3881836 C43.4830714,10.5864268 43.1503925,10.7379552 42.78125,10.8427734 C42.4121075,10.9475917 42.040692,11 41.6669922,11 C40.5185489,11 39.5410197,10.546554 38.734375,9.63964844 C38.6341141,9.50748632 38.5839844,9.35937582 38.5839844,9.1953125 C38.5839844,8.99023335 38.6512038,8.82047593 38.7856445,8.68603516 C38.9200853,8.55159438 39.0898427,8.484375 39.2949219,8.484375 C39.4453133,8.484375 39.5729161,8.52880815 39.6777344,8.61767578 C39.7825526,8.70654341 39.8782548,8.79199178 39.9648438,8.87402344 C40.4296898,9.33886951 40.997067,9.57128906 41.6669922,9.57128906 C42.3186882,9.57128906 42.8427715,9.36621299 43.2392578,8.95605469 C43.3076175,8.87858034 43.3417969,8.7851568 43.3417969,8.67578125 C43.3417969,8.54817645 43.2802741,8.45931015 43.1572266,8.40917969 L39.9648438,7.35644531 Z M47.6826172,10.0292969 C47.6826172,10.1660163 47.656413,10.2936192 47.6040039,10.4121094 C47.5515948,10.5305996 47.4809575,10.6331376 47.3920898,10.7197266 C47.3032222,10.8063155 47.1995449,10.8746742 47.0810547,10.9248047 C46.9625645,10.9749351 46.8395189,11 46.7119141,11 C46.5797519,11 46.455567,10.9749351 46.3393555,10.9248047 C46.223144,10.8746742 46.1206059,10.8063155 46.0317383,10.7197266 C45.9428706,10.6331376 45.8722333,10.5305996 45.8198242,10.4121094 C45.7674151,10.2936192 45.7412109,10.1660163 45.7412109,10.0292969 C45.7412109,9.89713476 45.7662758,9.77181049 45.8164062,9.65332031 C45.8665367,9.53483014 45.9360347,9.43115279 46.0249023,9.34228516 C46.11377,9.25341752 46.2174473,9.18278021 46.3359375,9.13037109 C46.4544277,9.07796198 46.5797519,9.05175781 46.7119141,9.05175781 C46.8440762,9.05175781 46.9694004,9.07796198 47.0878906,9.13037109 C47.2063808,9.18278021 47.3100581,9.25341752 47.3989258,9.34228516 C47.4877934,9.43115279 47.5572914,9.53483014 47.6074219,9.65332031 C47.6575523,9.77181049 47.6826172,9.89713476 47.6826172,10.0292969 Z M46.0009766,0.787109375 C46.0009766,0.586587539 46.0681959,0.416830122 46.2026367,0.277832031 C46.3370775,0.13883394 46.5068349,0.0693359375 46.7119141,0.0693359375 C46.9169932,0.0693359375 47.0867506,0.13883394 47.2211914,0.277832031 C47.3556322,0.416830122 47.4228516,0.586587539 47.4228516,0.787109375 L47.4228516,7.92382812 C47.4228516,8.01953173 47.4034833,8.11067665 47.3647461,8.19726562 C47.3260089,8.2838546 47.2747399,8.35904916 47.2109375,8.42285156 C47.1471351,8.48665396 47.0719405,8.53678367 46.9853516,8.57324219 C46.8987626,8.6097007 46.8076177,8.62792969 46.7119141,8.62792969 C46.6116531,8.62792969 46.5182296,8.60856139 46.4316406,8.56982422 C46.3450517,8.53108705 46.2698571,8.47981803 46.2060547,8.41601562 C46.1422523,8.35221322 46.0921226,8.27815797 46.0556641,8.19384766 C46.0192055,8.10953734 46.0009766,8.01953173 46.0009766,7.92382812 L46.0009766,0.787109375 Z" id="Join-US!" fill="#FFFFFF" opacity="0.511265851"></path>
                <path d="M43.2265625,60.0625 L43.2265625,60.21875 C43.6171895,59.9062484 44.0416644,59.6666675 44.5,59.5 C44.9583356,59.3333325 45.4479141,59.25 45.96875,59.25 C46.1979178,59.25 46.4440091,59.2656248 46.7070312,59.296875 C46.9700534,59.3281252 47.2122385,59.3841142 47.4335938,59.4648438 C47.654949,59.5455733 47.8385409,59.6562493 47.984375,59.796875 C48.1302091,59.9375007 48.203125,60.1197905 48.203125,60.34375 C48.203125,60.4583339 48.1809898,60.5651037 48.1367188,60.6640625 C48.0924477,60.7630213 48.0338545,60.85026 47.9609375,60.9257812 C47.8880205,61.0013025 47.8020838,61.0598956 47.703125,61.1015625 C47.6041662,61.1432294 47.4973964,61.1640625 47.3828125,61.1640625 C47.2838537,61.1640625 47.1692715,61.135417 47.0390625,61.078125 C46.7109359,60.947916 46.3541686,60.8828125 45.96875,60.8828125 C45.5885398,60.8828125 45.2317725,60.9544264 44.8984375,61.0976562 C44.5651025,61.2408861 44.2747408,61.4361967 44.0273438,61.6835938 C43.7799467,61.9309908 43.5846361,62.2213525 43.4414062,62.5546875 C43.2981764,62.8880225 43.2265625,63.2447898 43.2265625,63.625 L43.2265625,67.1875 C43.2265625,67.4114595 43.1471362,67.6028638 42.9882812,67.7617188 C42.8294263,67.9205737 42.638022,68 42.4140625,68 C42.1848947,68 41.9908862,67.9205737 41.8320312,67.7617188 C41.6731763,67.6028638 41.59375,67.4114595 41.59375,67.1875 L41.59375,60.0625 C41.59375,59.8385405 41.6731763,59.6471362 41.8320312,59.4882812 C41.9908862,59.3294263 42.1848947,59.25 42.4140625,59.25 C42.638022,59.25 42.8294263,59.3294263 42.9882812,59.4882812 C43.1471362,59.6471362 43.2265625,59.8385405 43.2265625,60.0625 Z M56.1328125,62.8125 C56.0442704,62.5260402 55.9127613,62.2643241 55.7382812,62.0273438 C55.5638012,61.7903634 55.3606782,61.5872404 55.1289062,61.4179688 C54.8971343,61.2486971 54.6419285,61.117188 54.3632812,61.0234375 C54.084634,60.929687 53.7968765,60.8828125 53.5,60.8828125 C53.2031235,60.8828125 52.9140639,60.929687 52.6328125,61.0234375 C52.3515611,61.117188 52.0937512,61.2486971 51.859375,61.4179688 C51.6249988,61.5872404 51.4218759,61.7903634 51.25,62.0273438 C51.0781241,62.2643241 50.9505213,62.5260402 50.8671875,62.8125 L56.1328125,62.8125 Z M55.78125,65.5390625 C56.0156262,65.5390625 56.2096346,65.6158846 56.3632812,65.7695312 C56.5169279,65.9231779 56.59375,66.1171863 56.59375,66.3515625 C56.59375,66.5807303 56.5156258,66.7760409 56.359375,66.9375 C55.5520793,67.6458369 54.5989638,68 53.5,68 C52.2916606,68 51.2604209,67.5729209 50.40625,66.71875 C49.5520791,65.8645791 49.125,64.8333394 49.125,63.625 C49.125,62.4166606 49.5520791,61.3854209 50.40625,60.53125 C51.2604209,59.6770791 52.2916606,59.25 53.5,59.25 C54.6979227,59.25 55.7291623,59.6770791 56.59375,60.53125 C57.0208355,60.9531271 57.3411448,61.4231745 57.5546875,61.9414062 C57.7682302,62.459638 57.875,63.0208303 57.875,63.625 C57.875,63.8593762 57.7955737,64.0533846 57.6367188,64.2070312 C57.4778638,64.3606779 57.2838553,64.4375 57.0546875,64.4375 L50.8671875,64.4375 C50.9557296,64.7239598 51.0859366,64.9856759 51.2578125,65.2226562 C51.4296884,65.4596366 51.6315093,65.6627596 51.8632812,65.8320312 C52.0950532,66.0013029 52.350259,66.132812 52.6289062,66.2265625 C52.9075535,66.320313 53.1979152,66.3671875 53.5,66.3671875 C53.8437517,66.3671875 54.1588527,66.3151047 54.4453125,66.2109375 C54.7317723,66.1067703 54.9973946,65.9505219 55.2421875,65.7421875 C55.3984383,65.6119785 55.578124,65.5442709 55.78125,65.5390625 Z M63.5,60.8828125 C63.1145814,60.8828125 62.75521,60.9557284 62.421875,61.1015625 C62.08854,61.2473966 61.7994804,61.4440092 61.5546875,61.6914062 C61.3098946,61.9388033 61.1158861,62.229165 60.9726562,62.5625 C60.8294264,62.895835 60.7578125,63.2499981 60.7578125,63.625 C60.7578125,64.0000019 60.8294264,64.354165 60.9726562,64.6875 C61.1158861,65.020835 61.3098946,65.3111967 61.5546875,65.5585938 C61.7994804,65.8059908 62.08854,66.0026034 62.421875,66.1484375 C62.75521,66.2942716 63.1145814,66.3671875 63.5,66.3671875 C63.8802102,66.3671875 64.2369775,66.2942716 64.5703125,66.1484375 C64.9036475,66.0026034 65.1940092,65.8046887 65.4414062,65.5546875 C65.6888033,65.3046863 65.8841139,65.0143246 66.0273438,64.6835938 C66.1705736,64.3528629 66.2421875,64.0000019 66.2421875,63.625 C66.2421875,63.2499981 66.1705736,62.8971371 66.0273438,62.5664062 C65.8841139,62.2356754 65.6888033,61.9453137 65.4414062,61.6953125 C65.1940092,61.4453113 64.9036475,61.2473966 64.5703125,61.1015625 C64.2369775,60.9557284 63.8802102,60.8828125 63.5,60.8828125 Z M66.2421875,67.0390625 C65.4609336,67.6796907 64.5468802,68 63.5,68 C62.2916606,68 61.2604209,67.5729209 60.40625,66.71875 C59.5520791,65.8645791 59.125,64.8333394 59.125,63.625 C59.125,62.4166606 59.5520791,61.3854209 60.40625,60.53125 C61.2604209,59.6770791 62.2916606,59.25 63.5,59.25 C64.6979227,59.25 65.7291623,59.6770791 66.59375,60.53125 C67.4479209,61.3854209 67.875,62.4166606 67.875,63.625 L67.875,67.96875 C67.875,68.3437519 67.8177089,68.697915 67.703125,69.03125 C67.5885411,69.364585 67.4296885,69.6705715 67.2265625,69.9492188 C67.0234365,70.227866 66.7838555,70.4791655 66.5078125,70.703125 C66.2317695,70.9270845 65.9335954,71.1158846 65.6132812,71.2695312 C65.2929671,71.4231779 64.9583351,71.5416662 64.609375,71.625 C64.2604149,71.7083338 63.9114601,71.75 63.5625,71.75 C63.1458313,71.75 62.7369812,71.6966151 62.3359375,71.5898438 C61.9348938,71.4830724 61.5546893,71.3255219 61.1953125,71.1171875 C60.8359357,70.9088531 60.5065119,70.6510432 60.2070312,70.34375 C59.9075506,70.0364568 59.6536469,69.6927102 59.4453125,69.3125 C59.3619787,69.1927077 59.3203125,69.0468759 59.3203125,68.875 C59.3203125,68.6406238 59.3984367,68.4466154 59.5546875,68.2929688 C59.7109383,68.1393221 59.9062488,68.0625 60.140625,68.0625 C60.2968758,68.0625 60.4257807,68.098958 60.5273438,68.171875 C60.6289068,68.244792 60.7682283,68.4062488 60.9453125,68.65625 C61.1223967,68.9062512 61.2786452,69.0963535 61.4140625,69.2265625 C62.0078155,69.8203155 62.7239541,70.1171875 63.5625,70.1171875 C64.4062542,70.1171875 65.1197887,69.8255238 65.703125,69.2421875 C66.0625018,68.8046853 66.2421875,68.3802104 66.2421875,67.96875 L66.2421875,67.0390625 Z M71.3359375,57.6953125 C71.3359375,57.9609388 71.2421884,58.1874991 71.0546875,58.375 C70.8671866,58.5625009 70.6406263,58.65625 70.375,58.65625 C70.1093737,58.65625 69.8828134,58.5625009 69.6953125,58.375 C69.5078116,58.1874991 69.4140625,57.9609388 69.4140625,57.6953125 C69.4140625,57.4296862 69.5078116,57.2031259 69.6953125,57.015625 C69.8828134,56.8281241 70.1093737,56.734375 70.375,56.734375 C70.6406263,56.734375 70.8671866,56.8281241 71.0546875,57.015625 C71.2421884,57.2031259 71.3359375,57.4296862 71.3359375,57.6953125 Z M69.5625,67.1796875 L69.5625,60.0703125 C69.5625,59.8411447 69.6419263,59.6471362 69.8007812,59.4882812 C69.9596362,59.3294263 70.1510405,59.25 70.375,59.25 C70.5989595,59.25 70.7903638,59.3294263 70.9492188,59.4882812 C71.1080737,59.6471362 71.1901041,59.8411447 71.1953125,60.0703125 L71.1953125,67.1796875 C71.1901041,67.4088553 71.1080737,67.6028638 70.9492188,67.7617188 C70.7903638,67.9205737 70.5989595,68 70.375,68 C70.1510405,68 69.9596362,67.9205737 69.8007812,67.7617188 C69.6419263,67.6028638 69.5625,67.4088553 69.5625,67.1796875 Z M74.46875,63.8359375 C73.9791642,63.6484366 73.6354177,63.4557302 73.4375,63.2578125 L73.4453125,63.2578125 C73.0494772,62.8567688 72.8515625,62.3854194 72.8515625,61.84375 C72.8515625,61.4479147 72.9570302,61.0898454 73.1679688,60.7695312 C73.3789073,60.4492171 73.6536441,60.1770845 73.9921875,59.953125 C74.3307309,59.7291655 74.7122375,59.5559902 75.1367188,59.4335938 C75.5612,59.3111973 75.986977,59.25 76.4140625,59.25 C77.7161523,59.25 78.8333287,59.7734323 79.765625,60.8203125 C79.8750005,60.9557298 79.9296875,61.1197907 79.9296875,61.3125 C79.9296875,61.5468762 79.8528654,61.7408846 79.6992188,61.8945312 C79.5455721,62.0481779 79.3515637,62.125 79.1171875,62.125 C78.95052,62.125 78.8085943,62.0781255 78.6914062,61.984375 C78.5742182,61.8906245 78.460938,61.789063 78.3515625,61.6796875 C77.8203098,61.1484348 77.174483,60.8828125 76.4140625,60.8828125 C75.6640588,60.8828125 75.0651064,61.1119769 74.6171875,61.5703125 C74.5338537,61.6536462 74.4921875,61.7682284 74.4921875,61.9140625 C74.4921875,62.0598966 74.5598952,62.1588539 74.6953125,62.2109375 L78.3515625,63.4140625 C78.8619817,63.6119802 79.2057283,63.8046866 79.3828125,63.9921875 L79.375,63.9921875 C79.7708353,64.3932312 79.96875,64.8645806 79.96875,65.40625 C79.96875,65.8072937 79.8632823,66.1666651 79.6523438,66.484375 C79.4414052,66.8020849 79.1666684,67.0742176 78.828125,67.3007812 C78.4895816,67.5273449 78.1093771,67.7005202 77.6875,67.8203125 C77.2656229,67.9401048 76.841148,68 76.4140625,68 C75.1015559,68 73.9843796,67.481776 73.0625,66.4453125 C72.9479161,66.2942701 72.890625,66.1250009 72.890625,65.9375 C72.890625,65.7031238 72.9674471,65.5091154 73.1210938,65.3554688 C73.2747404,65.2018221 73.4687488,65.125 73.703125,65.125 C73.8750009,65.125 74.0208327,65.1757807 74.140625,65.2773438 C74.2604173,65.3789068 74.3697912,65.476562 74.46875,65.5703125 C75.0000027,66.1015652 75.6484337,66.3671875 76.4140625,66.3671875 C77.1588579,66.3671875 77.7578102,66.1328148 78.2109375,65.6640625 C78.2890629,65.5755204 78.328125,65.4687506 78.328125,65.34375 C78.328125,65.1979159 78.2578132,65.0963545 78.1171875,65.0390625 L74.46875,63.8359375 Z M81.921875,59.25 L82.2890625,59.25 L82.2890625,56.3125 C82.2890625,56.0885405 82.3684888,55.8971362 82.5273438,55.7382812 C82.6861987,55.5794263 82.8802072,55.5 83.109375,55.5 C83.3333345,55.5 83.5247388,55.5794263 83.6835938,55.7382812 C83.8424487,55.8971362 83.921875,56.0885405 83.921875,56.3125 L83.921875,59.25 L84.8984375,59.25 C85.122397,59.25 85.3124992,59.3294263 85.46875,59.4882812 C85.6250008,59.6471362 85.703125,59.8385405 85.703125,60.0625 C85.703125,60.2916678 85.6250008,60.4856763 85.46875,60.6445312 C85.3124992,60.8033862 85.122397,60.8828125 84.8984375,60.8828125 L83.921875,60.8828125 L83.921875,64.8125 C83.921875,65.8489635 84.4427031,66.3671875 85.484375,66.3671875 C85.7083345,66.3671875 85.8984367,66.4466138 86.0546875,66.6054688 C86.2109383,66.7643237 86.2890625,66.955728 86.2890625,67.1796875 C86.2890625,67.4088553 86.2109383,67.6028638 86.0546875,67.7617188 C85.8984367,67.9205737 85.7083345,68 85.484375,68 C83.354156,68 82.2890625,66.9375106 82.2890625,64.8125 L82.2890625,60.8828125 L81.921875,60.8828125 C81.7031239,60.8828125 81.5143237,60.8033862 81.3554688,60.6445312 C81.1966138,60.4856763 81.1171875,60.2916678 81.1171875,60.0625 C81.1171875,59.8385405 81.1966138,59.6471362 81.3554688,59.4882812 C81.5143237,59.3294263 81.7031239,59.25 81.921875,59.25 Z M93.9375,62.8125 C93.8489579,62.5260402 93.7174488,62.2643241 93.5429688,62.0273438 C93.3684887,61.7903634 93.1653657,61.5872404 92.9335938,61.4179688 C92.7018218,61.2486971 92.446616,61.117188 92.1679688,61.0234375 C91.8893215,60.929687 91.601564,60.8828125 91.3046875,60.8828125 C91.007811,60.8828125 90.7187514,60.929687 90.4375,61.0234375 C90.1562486,61.117188 89.8984387,61.2486971 89.6640625,61.4179688 C89.4296863,61.5872404 89.2265634,61.7903634 89.0546875,62.0273438 C88.8828116,62.2643241 88.7552088,62.5260402 88.671875,62.8125 L93.9375,62.8125 Z M93.5859375,65.5390625 C93.8203137,65.5390625 94.0143221,65.6158846 94.1679688,65.7695312 C94.3216154,65.9231779 94.3984375,66.1171863 94.3984375,66.3515625 C94.3984375,66.5807303 94.3203133,66.7760409 94.1640625,66.9375 C93.3567668,67.6458369 92.4036513,68 91.3046875,68 C90.0963481,68 89.0651084,67.5729209 88.2109375,66.71875 C87.3567666,65.8645791 86.9296875,64.8333394 86.9296875,63.625 C86.9296875,62.4166606 87.3567666,61.3854209 88.2109375,60.53125 C89.0651084,59.6770791 90.0963481,59.25 91.3046875,59.25 C92.5026102,59.25 93.5338498,59.6770791 94.3984375,60.53125 C94.825523,60.9531271 95.1458323,61.4231745 95.359375,61.9414062 C95.5729177,62.459638 95.6796875,63.0208303 95.6796875,63.625 C95.6796875,63.8593762 95.6002612,64.0533846 95.4414062,64.2070312 C95.2825513,64.3606779 95.0885428,64.4375 94.859375,64.4375 L88.671875,64.4375 C88.7604171,64.7239598 88.8906241,64.9856759 89.0625,65.2226562 C89.2343759,65.4596366 89.4361968,65.6627596 89.6679688,65.8320312 C89.8997407,66.0013029 90.1549465,66.132812 90.4335938,66.2265625 C90.712241,66.320313 91.0026027,66.3671875 91.3046875,66.3671875 C91.6484392,66.3671875 91.9635402,66.3151047 92.25,66.2109375 C92.5364598,66.1067703 92.8020821,65.9505219 93.046875,65.7421875 C93.2031258,65.6119785 93.3828115,65.5442709 93.5859375,65.5390625 Z M98.53125,60.0625 L98.53125,60.21875 C98.921877,59.9062484 99.3463519,59.6666675 99.8046875,59.5 C100.263023,59.3333325 100.752602,59.25 101.273438,59.25 C101.502605,59.25 101.748697,59.2656248 102.011719,59.296875 C102.274741,59.3281252 102.516926,59.3841142 102.738281,59.4648438 C102.959637,59.5455733 103.143228,59.6562493 103.289062,59.796875 C103.434897,59.9375007 103.507812,60.1197905 103.507812,60.34375 C103.507812,60.4583339 103.485677,60.5651037 103.441406,60.6640625 C103.397135,60.7630213 103.338542,60.85026 103.265625,60.9257812 C103.192708,61.0013025 103.106771,61.0598956 103.007812,61.1015625 C102.908854,61.1432294 102.802084,61.1640625 102.6875,61.1640625 C102.588541,61.1640625 102.473959,61.135417 102.34375,61.078125 C102.015623,60.947916 101.658856,60.8828125 101.273438,60.8828125 C100.893227,60.8828125 100.53646,60.9544264 100.203125,61.0976562 C99.86979,61.2408861 99.5794283,61.4361967 99.3320312,61.6835938 C99.0846342,61.9309908 98.8893236,62.2213525 98.7460938,62.5546875 C98.6028639,62.8880225 98.53125,63.2447898 98.53125,63.625 L98.53125,67.1875 C98.53125,67.4114595 98.4518237,67.6028638 98.2929688,67.7617188 C98.1341138,67.9205737 97.9427095,68 97.71875,68 C97.4895822,68 97.2955737,67.9205737 97.1367188,67.7617188 C96.9778638,67.6028638 96.8984375,67.4114595 96.8984375,67.1875 L96.8984375,60.0625 C96.8984375,59.8385405 96.9778638,59.6471362 97.1367188,59.4882812 C97.2955737,59.3294263 97.4895822,59.25 97.71875,59.25 C97.9427095,59.25 98.1341138,59.3294263 98.2929688,59.4882812 C98.4518237,59.6471362 98.53125,59.8385405 98.53125,60.0625 Z M110.742188,60.0546875 C111.434899,59.5182265 112.249995,59.25 113.1875,59.25 C113.734378,59.25 114.253904,59.3567698 114.746094,59.5703125 C115.238284,59.7838552 115.671873,60.0742169 116.046875,60.4414062 C116.421877,60.8085956 116.718749,61.2408829 116.9375,61.7382812 C117.156251,62.2356796 117.265625,62.7656222 117.265625,63.328125 L117.265625,67.1796875 C117.265625,67.4088553 117.186199,67.6028638 117.027344,67.7617188 C116.868489,67.9205737 116.677084,68 116.453125,68 C116.223957,68 116.029949,67.9205737 115.871094,67.7617188 C115.712239,67.6028638 115.632812,67.4088553 115.632812,67.1796875 L115.632812,63.328125 C115.632812,62.99479 115.567709,62.679689 115.4375,62.3828125 C115.307291,62.085936 115.131512,61.826824 114.910156,61.6054688 C114.688801,61.3841135 114.429689,61.208334 114.132812,61.078125 C113.835936,60.947916 113.520835,60.8828125 113.1875,60.8828125 C112.848957,60.8828125 112.532554,60.9466139 112.238281,61.0742188 C111.944009,61.2018236 111.684897,61.377603 111.460938,61.6015625 C111.236978,61.825522 111.061199,62.085936 110.933594,62.3828125 C110.805989,62.679689 110.742188,62.99479 110.742188,63.328125 L110.742188,67.1796875 C110.742188,67.4088553 110.662761,67.6028638 110.503906,67.7617188 C110.345051,67.9205737 110.153647,68 109.929688,68 C109.70052,68 109.506511,67.9205737 109.347656,67.7617188 C109.188801,67.6028638 109.109375,67.4088553 109.109375,67.1796875 L109.109375,60.0703125 C109.109375,59.846353 109.188801,59.6536466 109.347656,59.4921875 C109.506511,59.3307284 109.70052,59.25 109.929688,59.25 C110.153647,59.25 110.345051,59.3307284 110.503906,59.4921875 C110.662761,59.6536466 110.742188,59.8411448 110.742188,60.0546875 Z M127.242188,63.625 C127.242188,64.8437561 126.815108,65.8749958 125.960938,66.71875 C125.09635,67.5729209 124.06511,68 122.867188,68 C121.658848,68 120.627608,67.5729209 119.773438,66.71875 C118.919267,65.8645791 118.492188,64.8333394 118.492188,63.625 C118.492188,62.4166606 118.919267,61.3854209 119.773438,60.53125 C120.627608,59.6770791 121.658848,59.25 122.867188,59.25 C124.06511,59.25 125.09635,59.6770791 125.960938,60.53125 C126.388023,60.9583355 126.70703,61.4296849 126.917969,61.9453125 C127.128907,62.4609401 127.236979,63.0208303 127.242188,63.625 Z M122.867188,60.8828125 C122.481769,60.8828125 122.122398,60.9557284 121.789062,61.1015625 C121.455727,61.2473966 121.166668,61.4440092 120.921875,61.6914062 C120.677082,61.9388033 120.483074,62.229165 120.339844,62.5625 C120.196614,62.895835 120.125,63.2499981 120.125,63.625 C120.125,64.0000019 120.196614,64.354165 120.339844,64.6875 C120.483074,65.020835 120.677082,65.3111967 120.921875,65.5585938 C121.166668,65.8059908 121.455727,66.0026034 121.789062,66.1484375 C122.122398,66.2942716 122.481769,66.3671875 122.867188,66.3671875 C123.247398,66.3671875 123.604165,66.2942716 123.9375,66.1484375 C124.270835,66.0026034 124.561197,65.8046887 124.808594,65.5546875 C125.055991,65.3046863 125.251301,65.0143246 125.394531,64.6835938 C125.537761,64.3528629 125.609375,64.0000019 125.609375,63.625 C125.609375,63.2499981 125.537761,62.8971371 125.394531,62.5664062 C125.251301,62.2356754 125.055991,61.9453137 124.808594,61.6953125 C124.561197,61.4453113 124.270835,61.2473966 123.9375,61.1015625 C123.604165,60.9557284 123.247398,60.8828125 122.867188,60.8828125 Z M134.085938,59.25 C134.471356,59.25 134.73177,59.4505188 134.867188,59.8515625 L136.453125,64.609375 L138.09375,59.703125 C138.135417,59.5677077 138.218749,59.4583338 138.34375,59.375 C138.468751,59.2916662 138.630207,59.25 138.828125,59.25 C138.942709,59.25 139.049479,59.2708331 139.148438,59.3125 C139.247396,59.3541669 139.333333,59.41276 139.40625,59.4882812 C139.479167,59.5638025 139.53776,59.6510412 139.582031,59.75 C139.626302,59.8489588 139.648438,59.9531245 139.648438,60.0625 C139.648438,60.1614588 139.627604,60.2656245 139.585938,60.375 L137.21875,67.4765625 C137.171875,67.6276049 137.085938,67.7526037 136.960938,67.8515625 C136.835937,67.9505213 136.666668,68 136.453125,68 C136.270832,68 136.109376,67.9479172 135.96875,67.84375 C135.828124,67.7395828 135.736979,67.6171882 135.695312,67.4765625 L134.085938,62.6484375 L132.476562,67.4765625 C132.429687,67.6276049 132.335938,67.7526037 132.195312,67.8515625 C132.054687,67.9505213 131.89323,68 131.710938,68 C131.528645,68 131.36849,67.9505213 131.230469,67.8515625 C131.092447,67.7526037 130.997396,67.6276049 130.945312,67.4765625 L128.578125,60.375 C128.541666,60.2604161 128.523438,60.1562505 128.523438,60.0625 C128.523438,59.9531245 128.544271,59.8489588 128.585938,59.75 C128.627604,59.6510412 128.684895,59.5638025 128.757812,59.4882812 C128.83073,59.41276 128.916666,59.3541669 129.015625,59.3125 C129.114584,59.2708331 129.221354,59.25 129.335938,59.25 C129.523438,59.25 129.680989,59.2942704 129.808594,59.3828125 C129.936199,59.4713546 130.023437,59.5781244 130.070312,59.703125 L131.710938,64.6015625 L133.296875,59.8515625 C133.432292,59.4505188 133.695311,59.25 134.085938,59.25 Z" id="register-now" fill="#FFFFFF"></path>
                <path d="M180.375,29.7724609 C180.037759,29.7724609 179.723309,29.8362624 179.431641,29.9638672 C179.139972,30.091472 178.887045,30.263508 178.672852,30.4799805 C178.458658,30.6964529 178.2889,30.9505194 178.163574,31.2421875 C178.038248,31.5338556 177.975586,31.8437484 177.975586,32.171875 C177.975586,32.5000016 178.038248,32.8098944 178.163574,33.1015625 C178.2889,33.3932306 178.458658,33.6472971 178.672852,33.8637695 C178.887045,34.080242 179.139972,34.252278 179.431641,34.3798828 C179.723309,34.5074876 180.037759,34.5712891 180.375,34.5712891 C180.707684,34.5712891 181.019855,34.5074876 181.311523,34.3798828 C181.603192,34.252278 181.857258,34.0791027 182.07373,33.8603516 C182.290203,33.6416005 182.4611,33.387534 182.586426,33.0981445 C182.711752,32.8087551 182.774414,32.5000016 182.774414,32.171875 C182.774414,31.8437484 182.711752,31.5349949 182.586426,31.2456055 C182.4611,30.956216 182.290203,30.7021495 182.07373,30.4833984 C181.857258,30.2646473 181.603192,30.091472 181.311523,29.9638672 C181.019855,29.8362624 180.707684,29.7724609 180.375,29.7724609 Z M182.774414,35.2890625 L182.774414,35.1523438 C182.432615,35.4257826 182.0612,35.6354159 181.660156,35.78125 C181.259113,35.9270841 180.830731,36 180.375,36 C179.317703,36 178.415368,35.6263058 177.667969,34.8789062 C176.920569,34.1315067 176.546875,33.229172 176.546875,32.171875 C176.546875,31.114578 176.920569,30.2122433 177.667969,29.4648438 C178.415368,28.7174442 179.317703,28.34375 180.375,28.34375 C181.423182,28.34375 182.325517,28.7174442 183.082031,29.4648438 C183.829431,30.2122433 184.203125,31.114578 184.203125,32.171875 L184.203125,35.2890625 C184.203125,35.485027 184.133627,35.6525058 183.994629,35.7915039 C183.855631,35.930502 183.688152,36 183.492188,36 C183.291666,36 183.121908,35.930502 182.98291,35.7915039 C182.843912,35.6525058 182.774414,35.485027 182.774414,35.2890625 Z M186.725586,32.171875 C186.725586,32.5000016 186.788248,32.8098944 186.913574,33.1015625 C187.0389,33.3932306 187.208658,33.6472971 187.422852,33.8637695 C187.637045,34.080242 187.889972,34.252278 188.181641,34.3798828 C188.473309,34.5074876 188.787759,34.5712891 189.125,34.5712891 C189.457684,34.5712891 189.769855,34.5074876 190.061523,34.3798828 C190.353192,34.252278 190.607258,34.0791027 190.82373,33.8603516 C191.040203,33.6416005 191.2111,33.387534 191.336426,33.0981445 C191.461752,32.8087551 191.524414,32.5000016 191.524414,32.171875 C191.524414,31.8437484 191.461752,31.5349949 191.336426,31.2456055 C191.2111,30.956216 191.040203,30.7021495 190.82373,30.4833984 C190.607258,30.2646473 190.353192,30.091472 190.061523,29.9638672 C189.769855,29.8362624 189.457684,29.7724609 189.125,29.7724609 C188.787759,29.7724609 188.473309,29.8362624 188.181641,29.9638672 C187.889972,30.091472 187.637045,30.263508 187.422852,30.4799805 C187.208658,30.6964529 187.0389,30.9505194 186.913574,31.2421875 C186.788248,31.5338556 186.725586,31.8437484 186.725586,32.171875 Z M189.125,36 C188.20898,36 187.409183,35.7197294 186.725586,35.1591797 L186.725586,38.5703125 C186.725586,38.7753917 186.656088,38.9451491 186.51709,39.0795898 C186.378092,39.2140306 186.208334,39.28125 186.007812,39.28125 C185.802733,39.28125 185.632976,39.2140306 185.498535,39.0795898 C185.364094,38.9451491 185.296875,38.7753917 185.296875,38.5703125 L185.296875,32.171875 C185.296875,31.114578 185.670569,30.2122433 186.417969,29.4648438 C187.165368,28.7174442 188.067703,28.34375 189.125,28.34375 C190.173182,28.34375 191.075517,28.7174442 191.832031,29.4648438 C192.205731,29.8339862 192.486002,30.2452777 192.672852,30.6987305 C192.859701,31.1521833 192.953125,31.6432265 192.953125,32.171875 C192.953125,33.2382866 192.579431,34.1406213 191.832031,34.8789062 C191.449217,35.2571633 191.033368,35.5385733 190.584473,35.7231445 C190.135577,35.9077158 189.649091,36 189.125,36 Z M195.448242,29.0546875 L195.448242,29.1914062 C195.790041,28.9179674 196.161456,28.7083341 196.5625,28.5625 C196.963544,28.4166659 197.391925,28.34375 197.847656,28.34375 C198.048178,28.34375 198.263508,28.3574217 198.493652,28.3847656 C198.723797,28.4121095 198.935709,28.4610999 199.129395,28.5317383 C199.32308,28.6023767 199.483723,28.6992181 199.611328,28.8222656 C199.738933,28.9453131 199.802734,29.1048167 199.802734,29.3007812 C199.802734,29.4010422 199.783366,29.4944657 199.744629,29.5810547 C199.705892,29.6676437 199.654623,29.7439775 199.59082,29.8100586 C199.527018,29.8761397 199.451823,29.9274087 199.365234,29.9638672 C199.278645,30.0003257 199.185222,30.0185547 199.084961,30.0185547 C198.998372,30.0185547 198.898113,29.9934898 198.78418,29.9433594 C198.497069,29.8294265 198.184898,29.7724609 197.847656,29.7724609 C197.514972,29.7724609 197.202801,29.8351231 196.911133,29.9604492 C196.619465,30.0857754 196.365398,30.2566721 196.148926,30.4731445 C195.932453,30.689617 195.761557,30.9436834 195.63623,31.2353516 C195.510904,31.5270197 195.448242,31.839191 195.448242,32.171875 L195.448242,35.2890625 C195.448242,35.485027 195.378744,35.6525058 195.239746,35.7915039 C195.100748,35.930502 194.933269,36 194.737305,36 C194.536783,36 194.367025,35.930502 194.228027,35.7915039 C194.089029,35.6525058 194.019531,35.485027 194.019531,35.2890625 L194.019531,29.0546875 C194.019531,28.858723 194.089029,28.6912442 194.228027,28.5522461 C194.367025,28.413248 194.536783,28.34375 194.737305,28.34375 C194.933269,28.34375 195.100748,28.413248 195.239746,28.5522461 C195.378744,28.6912442 195.448242,28.858723 195.448242,29.0546875 Z M202.543945,26.9833984 C202.543945,27.2158215 202.461915,27.4140617 202.297852,27.578125 C202.133788,27.7421883 201.935548,27.8242188 201.703125,27.8242188 C201.470702,27.8242188 201.272462,27.7421883 201.108398,27.578125 C200.944335,27.4140617 200.862305,27.2158215 200.862305,26.9833984 C200.862305,26.7509754 200.944335,26.5527352 201.108398,26.3886719 C201.272462,26.2246086 201.470702,26.1425781 201.703125,26.1425781 C201.935548,26.1425781 202.133788,26.2246086 202.297852,26.3886719 C202.461915,26.5527352 202.543945,26.7509754 202.543945,26.9833984 Z M200.992188,35.2822266 L200.992188,29.0615234 C200.992188,28.8610016 201.061686,28.6912442 201.200684,28.5522461 C201.339682,28.413248 201.50716,28.34375 201.703125,28.34375 C201.89909,28.34375 202.066568,28.413248 202.205566,28.5522461 C202.344564,28.6912442 202.416341,28.8610016 202.420898,29.0615234 L202.420898,35.2822266 C202.416341,35.4827484 202.344564,35.6525058 202.205566,35.7915039 C202.066568,35.930502 201.89909,36 201.703125,36 C201.50716,36 201.339682,35.930502 201.200684,35.7915039 C201.061686,35.6525058 200.992188,35.4827484 200.992188,35.2822266 Z M203.822266,35.2890625 L203.822266,25.7802734 C203.822266,25.5797516 203.889485,25.4099942 204.023926,25.2709961 C204.158367,25.131998 204.328124,25.0625 204.533203,25.0625 C204.738282,25.0625 204.90804,25.131998 205.04248,25.2709961 C205.176921,25.4099942 205.244141,25.5797516 205.244141,25.7802734 L205.244141,34.5712891 L205.572266,34.5712891 C205.76823,34.5712891 205.935709,34.6407871 206.074707,34.7797852 C206.213705,34.9187832 206.283203,35.0885407 206.283203,35.2890625 C206.283203,35.485027 206.213705,35.6525058 206.074707,35.7915039 C205.935709,35.930502 205.76823,36 205.572266,36 L204.526367,36 C204.330403,36 204.164063,35.930502 204.027344,35.7915039 C203.890624,35.6525058 203.822266,35.485027 203.822266,35.2890625 Z M212.695312,35.2890625 L212.695312,26.7783203 C212.558593,26.8238935 212.41504,26.8751625 212.264648,26.9321289 C212.114257,26.9890953 211.97754,27.0175781 211.854492,27.0175781 C211.649413,27.0175781 211.479656,26.9503587 211.345215,26.815918 C211.210774,26.6814772 211.143555,26.5117198 211.143555,26.3066406 C211.143555,26.1608066 211.181152,26.030925 211.256348,25.9169922 C211.331543,25.8030593 211.446614,25.7096358 211.601562,25.6367188 L213.166992,25.1171875 C213.249024,25.0852863 213.331054,25.0693359 213.413086,25.0693359 C213.618165,25.0693359 213.787923,25.1388339 213.922363,25.277832 C214.056804,25.4168301 214.124023,25.5865875 214.124023,25.7871094 L214.124023,35.2890625 C214.124023,35.485027 214.054525,35.6525058 213.915527,35.7915039 C213.776529,35.930502 213.606772,36 213.40625,36 C213.210285,36 213.042807,35.930502 212.903809,35.7915039 C212.764811,35.6525058 212.695312,35.485027 212.695312,35.2890625 Z M215.210938,34.8447266 L219.873047,26.4912109 L215.887695,26.4912109 C215.682616,26.4912109 215.512859,26.4239916 215.378418,26.2895508 C215.243977,26.15511 215.176758,25.9853526 215.176758,25.7802734 C215.176758,25.5797516 215.243977,25.4099942 215.378418,25.2709961 C215.512859,25.131998 215.682616,25.0625 215.887695,25.0625 L221.076172,25.0625 C221.176433,25.0625 221.269856,25.0818683 221.356445,25.1206055 C221.443034,25.1593426 221.518229,25.2106117 221.582031,25.2744141 C221.645834,25.3382165 221.697103,25.413411 221.73584,25.5 C221.774577,25.586589 221.793945,25.6800125 221.793945,25.7802734 C221.793945,25.9033209 221.759766,26.0309238 221.691406,26.1630859 L216.441406,35.6035156 C216.404948,35.6718753 216.359375,35.7333982 216.304688,35.7880859 C216.163411,35.9293627 215.992514,36 215.791992,36 C215.596028,36 215.428549,35.930502 215.289551,35.7915039 C215.150553,35.6525058 215.081055,35.485027 215.081055,35.2890625 C215.081055,35.1432284 215.124349,34.9951179 215.210938,34.8447266 Z M223.427734,32.8828125 C223.222655,32.8828125 223.052898,32.8155931 222.918457,32.6811523 C222.784016,32.5467116 222.716797,32.3769542 222.716797,32.171875 C222.716797,31.9667958 222.784016,31.7970384 222.918457,31.6625977 C223.052898,31.5281569 223.222655,31.4609375 223.427734,31.4609375 L226.544922,31.4609375 C226.750001,31.4609375 226.919758,31.5281569 227.054199,31.6625977 C227.18864,31.7970384 227.255859,31.9667958 227.255859,32.171875 C227.255859,32.3769542 227.18864,32.5467116 227.054199,32.6811523 C226.919758,32.8155931 226.750001,32.8828125 226.544922,32.8828125 L223.427734,32.8828125 Z M228.212891,28.3779297 C228.212891,27.9221982 228.300618,27.4938171 228.476074,27.0927734 C228.651531,26.6917298 228.889647,26.3408218 229.19043,26.0400391 C229.491212,25.7392563 229.84212,25.5022795 230.243164,25.3291016 C230.644208,25.1559236 231.07031,25.0693359 231.521484,25.0693359 C231.972659,25.0693359 232.398761,25.1582022 232.799805,25.3359375 C233.200848,25.5136728 233.551756,25.7529282 233.852539,26.0537109 C234.153322,26.3544937 234.391438,26.7054016 234.566895,27.1064453 C234.742351,27.507489 234.830078,27.9313129 234.830078,28.3779297 C234.830078,28.8336611 234.746908,29.257485 234.580566,29.6494141 C234.414224,30.0413431 234.17383,30.3968083 233.859375,30.7158203 L230.537109,34.5712891 L234.112305,34.5712891 C234.312827,34.5712891 234.482584,34.6419264 234.621582,34.7832031 C234.76058,34.9244799 234.830078,35.093098 234.830078,35.2890625 C234.830078,35.485027 234.76058,35.6525058 234.621582,35.7915039 C234.482584,35.930502 234.312827,36 234.112305,36 L228.923828,36 C228.823567,36 228.730144,35.981771 228.643555,35.9453125 C228.556966,35.908854 228.481771,35.857585 228.417969,35.7915039 C228.354166,35.7254228 228.304037,35.649089 228.267578,35.5625 C228.23112,35.475911 228.212891,35.3847661 228.212891,35.2890625 C228.212891,35.0839833 228.278971,34.9153652 228.411133,34.7832031 L232.84082,29.7246094 C233.21452,29.3509096 233.401367,28.9020208 233.401367,28.3779297 C233.401367,28.1227201 233.351237,27.881186 233.250977,27.6533203 C233.150716,27.4254546 233.015138,27.2260751 232.844238,27.0551758 C232.673339,26.8842765 232.473959,26.7486984 232.246094,26.6484375 C232.018228,26.5481766 231.776694,26.4980469 231.521484,26.4980469 C231.261717,26.4980469 231.017905,26.5470373 230.790039,26.6450195 C230.562173,26.7430018 230.362794,26.8763012 230.191895,27.0449219 C230.020995,27.2135425 229.886556,27.4117827 229.788574,27.6396484 C229.690592,27.8675142 229.641602,28.1136054 229.641602,28.3779297 C229.641602,28.5738942 229.572104,28.741373 229.433105,28.8803711 C229.294107,29.0193692 229.12435,29.0888672 228.923828,29.0888672 C228.727864,29.0888672 228.560385,29.0193692 228.421387,28.8803711 C228.282389,28.741373 228.212891,28.5738942 228.212891,28.3779297 Z M235.869141,30.5244141 C235.869141,29.6630816 235.944335,28.8940464 236.094727,28.2172852 C236.245118,27.540524 236.461587,26.9674503 236.744141,26.4980469 C237.026694,26.0286435 237.375323,25.6697604 237.790039,25.4213867 C238.204755,25.1730131 238.678708,25.0488281 239.211914,25.0488281 C239.74512,25.0488281 240.219073,25.1752917 240.633789,25.4282227 C241.048505,25.6811536 241.398273,26.0434547 241.683105,26.5151367 C241.967938,26.9868188 242.184407,27.5610318 242.33252,28.237793 C242.480632,28.9145542 242.554688,29.6767536 242.554688,30.5244141 C242.554688,31.3720746 242.480632,32.134274 242.33252,32.8110352 C242.184407,33.4877964 241.967938,34.0620094 241.683105,34.5336914 C241.398273,35.0053735 241.048505,35.3676745 240.633789,35.6206055 C240.219073,35.8735364 239.74512,36 239.211914,36 C238.678708,36 238.204755,35.875815 237.790039,35.6274414 C237.375323,35.3790678 237.026694,35.021324 236.744141,34.5541992 C236.461587,34.0870745 236.245118,33.5140008 236.094727,32.8349609 C235.944335,32.1559211 235.869141,31.3857465 235.869141,30.5244141 Z M239.211914,26.4980469 C238.892902,26.4980469 238.613771,26.6005849 238.374512,26.8056641 C238.135253,27.0107432 237.937013,27.2910138 237.779785,27.6464844 C237.622558,28.0019549 237.505209,28.4269181 237.427734,28.9213867 C237.35026,29.4158553 237.311523,29.9501924 237.311523,30.5244141 C237.311523,31.1077503 237.35026,31.6466447 237.427734,32.1411133 C237.505209,32.6355819 237.623697,33.0605451 237.783203,33.4160156 C237.942709,33.7714862 238.140949,34.0494782 238.37793,34.25 C238.61491,34.4505218 238.892902,34.5507812 239.211914,34.5507812 C239.535483,34.5507812 239.816893,34.4482432 240.056152,34.2431641 C240.295411,34.0380849 240.492512,33.756675 240.647461,33.3989258 C240.80241,33.0411766 240.918619,32.6162134 240.996094,32.1240234 C241.073568,31.6318335 241.112305,31.0986357 241.112305,30.5244141 C241.112305,29.9547498 241.072429,29.4238306 240.992676,28.9316406 C240.912923,28.4394507 240.795574,28.0133482 240.640625,27.6533203 C240.485676,27.2932925 240.288575,27.0107432 240.049316,26.8056641 C239.810057,26.6005849 239.530926,26.4980469 239.211914,26.4980469 Z" id="april-17-20" fill="#FFFFFF" opacity="0.511265851"></path>
            </g>
        </g>
    </g>
</svg>