<svg width="312" height="100" viewBox="0 0 312 100" fill="none" xmlns="http://www.w3.org/2000/svg">
<path d="M147.071 57.8293H68.9726C66.8195 57.8293 65.0684 59.5805 65.0684 61.7335V83.2497C65.0684 85.4027 66.8195 87.1539 68.9726 87.1539H137.239L146.784 99.1105C148.176 100.847 150.975 99.8712 150.975 97.6464V83.264V73.6758V61.7479C150.975 59.5805 149.224 57.8293 147.071 57.8293Z" fill="#FFA328"/>
<path d="M79.824 79.8779C79.4938 79.5478 79.3359 79.0741 79.3359 78.4425V66.5003C79.3359 65.8831 79.5225 65.3951 79.8814 65.0362C80.2402 64.6774 80.7426 64.4908 81.3742 64.4908C82.0201 64.4908 82.5224 64.6774 82.8956 65.0362C83.2688 65.3951 83.4554 65.8974 83.4554 66.5003V77.0359H88.594C89.8859 77.0359 90.5461 77.5957 90.5461 78.7153C90.5461 79.2894 90.3883 79.7057 90.0581 79.964C89.7423 80.2367 89.2543 80.3659 88.594 80.3659H81.2306C80.6278 80.3659 80.1541 80.208 79.824 79.8779Z" fill="#17182F"/>
<path d="M95.814 79.9497C95.4552 79.5909 95.2686 79.0885 95.2686 78.457V66.486C95.2686 65.8688 95.4552 65.3808 95.814 65.0219C96.1728 64.6631 96.6752 64.4765 97.3068 64.4765C97.9527 64.4765 98.4551 64.6631 98.8283 65.0219C99.2015 65.3808 99.3881 65.8832 99.3881 66.486V78.457C99.3881 79.0885 99.2015 79.5766 98.8283 79.9497C98.4551 80.3086 97.9527 80.4952 97.3068 80.4952C96.6752 80.4952 96.1728 80.3229 95.814 79.9497Z" fill="#17182F"/>
<path d="M117.387 64.7492C117.688 64.577 118.019 64.4765 118.377 64.4765C118.909 64.4765 119.397 64.6488 119.827 64.9932C120.258 65.3377 120.473 65.7683 120.473 66.2851C120.473 66.5434 120.401 66.8018 120.272 67.0745L114.373 79.2608C114.186 79.6627 113.885 79.9785 113.497 80.1938C113.11 80.4091 112.693 80.5239 112.248 80.5239C111.803 80.5239 111.387 80.4091 111 80.1938C110.612 79.9785 110.325 79.6627 110.124 79.2608L104.225 67.0745C104.11 66.8305 104.052 66.5721 104.052 66.2851C104.052 65.7827 104.282 65.3521 104.727 64.9932C105.172 64.6488 105.674 64.4622 106.22 64.4622C106.579 64.4622 106.909 64.5483 107.21 64.7349C107.512 64.9071 107.756 65.1798 107.914 65.5387L112.32 75.0695L116.698 65.5387C116.856 65.2085 117.086 64.9358 117.387 64.7492Z" fill="#17182F"/>
<path d="M125.612 79.8764C125.281 79.5462 125.124 79.0726 125.124 78.4697V66.4988C125.124 65.8816 125.281 65.4222 125.612 65.0921C125.942 64.762 126.401 64.5897 127.018 64.5897H134.755C135.401 64.5897 135.874 64.7189 136.205 64.9916C136.535 65.2643 136.693 65.6519 136.693 66.1543C136.693 67.2308 136.047 67.7619 134.74 67.7619H129.099V70.7618H134.296C135.587 70.7618 136.248 71.2929 136.248 72.355C136.248 72.8574 136.09 73.245 135.76 73.5177C135.429 73.7904 134.941 73.9196 134.31 73.9196H129.114V77.1922H134.755C136.047 77.1922 136.707 77.7233 136.707 78.7998C136.707 79.3022 136.549 79.6898 136.219 79.9625C135.889 80.2352 135.401 80.3644 134.769 80.3644H127.018C126.401 80.3644 125.942 80.2065 125.612 79.8764Z" fill="#17182F"/>
<path d="M191.654 96.7865C191.654 98.8678 190.477 99.9156 188.123 99.9156H165.731C164.712 99.9156 163.909 99.6142 163.32 98.997C162.732 98.3941 162.43 97.6334 162.43 96.7291C162.43 95.5521 162.875 94.4899 163.779 93.5426L177.214 79.1028C178.865 77.2943 180.071 75.6292 180.846 74.1221C181.607 72.615 181.994 71.1078 181.994 69.6151C181.994 67.7634 181.463 66.3568 180.401 65.3664C179.339 64.3903 177.832 63.8879 175.865 63.8879C174.258 63.8879 172.693 64.1894 171.186 64.8066C169.679 65.4094 168.157 66.2563 166.621 67.3041C166.234 67.5768 165.832 67.8065 165.444 67.9787C165.057 68.151 164.655 68.2371 164.267 68.2371C163.593 68.2371 163.019 67.9213 162.531 67.2898C162.043 66.6582 161.799 65.9118 161.799 65.0506C161.799 64.4621 161.899 63.9454 162.129 63.5148C162.344 63.0841 162.689 62.6679 163.162 62.2803C164.885 60.9024 166.908 59.8115 169.234 59.0077C171.545 58.2039 173.87 57.802 176.181 57.802C180.229 57.802 183.458 58.8211 185.884 60.8737C188.295 62.9119 189.515 65.6678 189.515 69.127C189.515 71.5241 188.999 73.7776 187.98 75.8733C186.961 77.9689 185.224 80.3229 182.798 82.9209L172.607 93.7723H188.166C190.477 93.7866 191.654 94.7914 191.654 96.7865Z" fill="#017CFF"/>
<path d="M267.784 96.7865C267.784 98.8678 266.607 99.9156 264.253 99.9156H241.862C240.842 99.9156 240.039 99.6142 239.45 98.997C238.862 98.3941 238.56 97.6334 238.56 96.7291C238.56 95.5521 239.005 94.4899 239.91 93.5426L253.345 79.1028C254.995 77.2943 256.201 75.6292 256.976 74.1221C257.737 72.615 258.124 71.1078 258.124 69.6151C258.124 67.7634 257.593 66.3568 256.531 65.3664C255.469 64.3903 253.962 63.8879 251.995 63.8879C250.388 63.8879 248.823 64.1894 247.316 64.8066C245.809 65.4094 244.287 66.2563 242.752 67.3041C242.364 67.5768 241.962 67.8065 241.575 67.9787C241.187 68.151 240.785 68.2371 240.398 68.2371C239.723 68.2371 239.149 67.9213 238.661 67.2898C238.173 66.6582 237.929 65.9118 237.929 65.0506C237.929 64.4621 238.029 63.9454 238.259 63.5148C238.474 63.0841 238.819 62.6679 239.292 62.2803C241.015 60.9024 243.039 59.8115 245.364 59.0077C247.675 58.2039 250 57.802 252.311 57.802C256.359 57.802 259.588 58.8211 262.014 60.8737C264.426 62.9119 265.646 65.6678 265.646 69.127C265.646 71.5241 265.129 73.7776 264.11 75.8733C263.091 77.9689 261.354 80.3229 258.928 82.9209L248.737 93.7723H264.296C266.607 93.7866 267.784 94.7914 267.784 96.7865Z" fill="#017CFF"/>
<path d="M214.778 99.9143C203.18 99.9143 193.735 90.4696 193.735 78.8718C193.735 67.2741 203.18 57.8293 214.778 57.8293C226.376 57.8293 235.82 67.2741 235.82 78.8718C235.82 90.4696 226.376 99.9143 214.778 99.9143ZM214.778 64.1737C206.668 64.1737 200.08 70.762 200.08 78.8718C200.08 86.9816 206.668 93.57 214.778 93.57C222.888 93.57 229.476 86.9816 229.476 78.8718C229.476 70.762 222.888 64.1737 214.778 64.1737Z" fill="#017CFF"/>
<path d="M290.909 99.9143C279.311 99.9143 269.866 90.4696 269.866 78.8718C269.866 67.2741 279.311 57.8293 290.909 57.8293C302.506 57.8293 311.951 67.2741 311.951 78.8718C311.951 90.4696 302.521 99.9143 290.909 99.9143ZM290.909 64.1737C282.799 64.1737 276.211 70.762 276.211 78.8718C276.211 86.9816 282.799 93.57 290.909 93.57C299.018 93.57 305.607 86.9816 305.607 78.8718C305.607 70.762 299.018 64.1737 290.909 64.1737Z" fill="#017CFF"/>
<path d="M291.597 20.5686C293.808 18.8605 295.961 18.3294 298.96 18.3294C300.697 18.3294 302.362 18.6739 303.927 19.3485C305.491 20.0232 306.884 20.9561 308.075 22.1188C309.266 23.2958 310.214 24.6737 310.917 26.2526C311.62 27.8315 311.965 29.5253 311.965 31.3195V43.5919C311.965 44.3239 311.707 44.9411 311.204 45.4435C310.702 45.9459 310.085 46.2042 309.381 46.2042C308.649 46.2042 308.032 45.9459 307.53 45.4435C307.027 44.9411 306.769 44.3239 306.769 43.5919V31.3195C306.769 30.2573 306.568 29.2526 306.152 28.3052C305.735 27.3579 305.176 26.5397 304.472 25.822C303.769 25.1187 302.936 24.5589 301.989 24.1427C301.042 23.7264 300.037 23.5255 298.975 23.5255C297.898 23.5255 296.894 23.7264 295.946 24.1283C295.013 24.5302 294.181 25.09 293.463 25.8077C292.745 26.5254 292.186 27.3579 291.784 28.2909C291.382 29.2382 291.181 30.243 291.181 31.3051V43.5775C291.181 44.3095 290.922 44.9268 290.42 45.4291C289.918 45.9315 289.3 46.1899 288.597 46.1899C287.865 46.1899 287.248 45.9315 286.746 45.4291C286.243 44.9268 285.884 44.3095 285.884 43.5775L285.899 21.0136C285.899 20.2959 286.243 19.5925 286.746 19.0758C287.248 18.5591 287.865 18.3007 288.597 18.3007C289.315 18.3007 289.918 18.5591 290.42 19.0758C290.908 19.6213 291.009 19.8366 291.597 20.5686Z" fill="white"/>
<path d="M237.886 26.1089C238.676 25.3195 239.594 24.7023 240.628 24.2573C241.676 23.798 242.795 23.5827 243.987 23.5827C245.063 23.5827 246.068 23.7693 246.987 24.1281C247.905 24.487 248.781 25.0324 249.613 25.7357C250.101 26.1376 250.661 26.3242 251.278 26.3242C252.01 26.3242 252.628 26.0802 253.101 25.5778C253.589 25.0755 253.819 24.4582 253.819 23.7262C253.819 22.9511 253.532 22.2908 252.943 21.7741C250.417 19.5206 247.432 18.401 243.987 18.401C240.197 18.401 236.953 19.7502 234.269 22.4631C231.585 25.1759 230.25 28.4486 230.25 32.281C230.25 36.1134 231.585 39.386 234.269 42.0989C236.953 44.8117 240.197 46.161 243.987 46.161C247.417 46.161 250.403 45.0414 252.943 42.7879C253.489 42.2424 253.747 41.6109 253.747 40.8788C253.747 40.1324 253.503 39.5152 253.029 39.0272C252.541 38.5392 251.939 38.2952 251.207 38.2952C250.589 38.3095 250.044 38.4961 249.585 38.8406C248.766 39.5439 247.905 40.0894 246.987 40.4339C246.068 40.7927 245.078 40.965 243.987 40.965C242.795 40.965 241.676 40.7353 240.628 40.2903C239.58 39.831 238.661 39.2138 237.886 38.4244C237.097 37.6349 236.48 36.7163 236.035 35.6685C235.59 34.6063 235.36 33.4867 235.36 32.2666C235.36 31.0609 235.59 29.927 236.035 28.8792C236.48 27.817 237.097 26.8984 237.886 26.1089Z" fill="white"/>
<path d="M118.938 22.4631C116.225 19.7502 112.981 18.401 109.221 18.401C105.431 18.401 102.187 19.7502 99.5032 22.4631C96.819 25.1759 95.4841 28.4486 95.4841 32.281C95.4841 36.1134 96.8334 39.386 99.5032 42.0989C102.187 44.8117 105.431 46.161 109.221 46.161C112.981 46.161 116.225 44.8117 118.938 42.0989C121.622 39.4291 122.957 36.1565 122.957 32.281C122.943 30.372 122.598 28.5921 121.938 26.9558C121.278 25.3051 120.273 23.8123 118.938 22.4631ZM117.158 35.6254C116.713 36.6732 116.096 37.5918 115.321 38.3813C114.546 39.1707 113.627 39.8023 112.579 40.2616C111.532 40.7209 110.412 40.9506 109.221 40.9506C108.015 40.9506 106.881 40.7209 105.833 40.2616C104.785 39.8023 103.881 39.1707 103.106 38.3956C102.331 37.6062 101.728 36.6876 101.283 35.6397C100.838 34.5776 100.608 33.458 100.608 32.2666C100.608 31.0753 100.838 29.9557 101.283 28.8935C101.728 27.8314 102.345 26.9127 103.106 26.1233C103.881 25.3338 104.785 24.7166 105.833 24.2573C106.881 23.798 108.015 23.5683 109.221 23.5683C110.412 23.5683 111.532 23.798 112.579 24.2573C113.627 24.7166 114.531 25.3482 115.321 26.1376C116.096 26.9271 116.713 27.8457 117.158 28.9079C117.603 29.9557 117.833 31.0753 117.833 32.2666C117.833 33.458 117.603 34.5776 117.158 35.6254Z" fill="white"/>
<path d="M89.9705 6.50128C89.2385 6.50128 88.6213 6.74529 88.1476 7.23332C87.6596 7.72134 87.4299 8.33855 87.4299 9.08494V21.4434C84.9468 19.4052 82.076 18.4005 78.8177 18.4005C75.0284 18.4005 71.7845 19.7497 69.1003 22.4625C66.4162 25.1754 65.0813 28.448 65.0813 32.2804C65.0813 36.1129 66.4162 39.3855 69.1003 42.0983C71.7845 44.8112 75.0284 46.1604 78.8177 46.1604C82.5784 46.1604 85.8223 44.8112 88.5352 42.0983C91.2193 39.4286 92.5542 36.1559 92.5542 32.2804V9.08494C92.5542 8.33855 92.3102 7.72134 91.8078 7.23332C91.3054 6.74529 90.6882 6.50128 89.9705 6.50128ZM86.741 35.6248C86.296 36.6727 85.6788 37.5913 84.9037 38.3807C84.1286 39.1702 83.21 39.8018 82.1622 40.2611C81.1143 40.7204 79.9947 40.9501 78.8034 40.9501C77.5977 40.9501 76.4637 40.7204 75.4159 40.2611C74.3681 39.8018 73.4638 39.1702 72.6887 38.3951C71.9136 37.6057 71.3108 36.687 70.8658 35.6392C70.4209 34.577 70.1912 33.4574 70.1912 32.2661C70.1912 31.0747 70.4209 29.9552 70.8658 28.893C71.3108 27.8308 71.928 26.9122 72.6887 26.1227C73.4638 25.3333 74.3681 24.7161 75.4159 24.2568C76.4637 23.7974 77.5977 23.5678 78.8034 23.5678C79.9947 23.5678 81.1143 23.7974 82.1622 24.2568C83.21 24.7161 84.1142 25.3476 84.9037 26.1371C85.6788 26.9265 86.296 27.8452 86.741 28.9073C87.1859 29.9552 87.4156 31.0747 87.4156 32.2661C87.4156 33.4574 87.2003 34.577 86.741 35.6248Z" fill="white"/>
<path d="M229.705 22.882C229.848 22.5662 229.92 22.2361 229.92 21.8629C229.92 21.1595 229.69 20.571 229.231 20.1261C228.772 19.6811 228.197 19.3223 227.494 19.0783C226.805 18.8199 226.044 18.6476 225.212 18.5472C224.379 18.4467 223.619 18.4036 222.887 18.4036C221.25 18.4036 219.714 18.662 218.279 19.1931C216.844 19.7242 215.509 20.4849 214.274 21.4753V20.9729C214.274 20.2696 214.03 19.6524 213.528 19.15C213.026 18.6476 212.423 18.3893 211.719 18.3893C211.002 18.3893 210.385 18.6476 209.897 19.15C209.394 19.6524 209.15 20.2553 209.15 20.9729V43.5656C209.15 44.2689 209.394 44.8861 209.897 45.3885C210.399 45.8909 211.002 46.1493 211.719 46.1493C212.423 46.1493 213.026 45.8909 213.528 45.3885C214.03 44.8861 214.274 44.2833 214.274 43.5656V32.2693C214.274 31.0636 214.504 29.9296 214.949 28.8818C215.394 27.8196 216.011 26.901 216.786 26.1115C217.561 25.3221 218.48 24.7049 219.528 24.2599C220.576 23.8006 221.695 23.5853 222.887 23.5853C224.092 23.5853 225.212 23.7863 226.245 24.2025C226.647 24.3891 227.02 24.4752 227.322 24.4752C227.681 24.4752 228.011 24.4035 228.327 24.2743C228.642 24.1451 228.901 23.9585 229.13 23.7145C229.389 23.4705 229.575 23.1978 229.705 22.882Z" fill="white"/>
<path d="M202.304 22.4631C199.591 19.7502 196.347 18.401 192.587 18.401C188.797 18.401 185.553 19.7502 182.869 22.4631C180.185 25.1759 178.85 28.4486 178.85 32.281C178.85 36.1134 180.185 39.386 182.869 42.0989C185.553 44.8117 188.797 46.161 192.587 46.161C196.046 46.161 199.031 45.0414 201.572 42.7879C202.06 42.2711 202.304 41.6539 202.304 40.9362C202.304 40.1899 202.06 39.5726 201.586 39.0846C201.098 38.5966 200.495 38.3526 199.763 38.3526C199.132 38.3669 198.558 38.5822 198.07 38.9985C197.295 39.6588 196.462 40.1611 195.572 40.4913C194.668 40.8214 193.677 40.9937 192.601 40.9937C191.654 40.9937 190.735 40.8501 189.859 40.5487C188.984 40.2473 188.18 39.831 187.448 39.2999C186.716 38.7688 186.084 38.1229 185.539 37.3622C184.993 36.6158 184.592 35.7833 184.319 34.8646H203.754C204.471 34.8646 205.089 34.6206 205.577 34.1326C206.079 33.6446 206.323 33.0274 206.323 32.281C206.323 30.372 205.993 28.5921 205.318 26.9414C204.658 25.2908 203.653 23.798 202.304 22.4631ZM184.319 29.6973C184.577 28.793 184.979 27.9605 185.525 27.1998C186.07 26.4534 186.702 25.8075 187.434 25.262C188.166 24.731 188.984 24.3147 189.859 24.0133C190.749 23.7119 191.654 23.5683 192.587 23.5683C193.52 23.5683 194.424 23.7119 195.299 24.0133C196.175 24.3147 196.979 24.731 197.711 25.262C198.443 25.7931 199.074 26.4391 199.62 27.1998C200.165 27.9462 200.582 28.7787 200.854 29.6973H184.319Z" fill="white"/>
<path d="M278.924 22.4631C276.211 19.7502 272.967 18.401 269.206 18.401C265.417 18.401 262.173 19.7502 259.489 22.4631C256.805 25.1759 255.47 28.4486 255.47 32.281C255.47 36.1134 256.819 39.386 259.489 42.0989C262.173 44.8117 265.417 46.161 269.206 46.161C272.967 46.161 276.211 44.8117 278.924 42.0989C281.608 39.4291 282.943 36.1565 282.943 32.281C282.928 30.372 282.584 28.5921 281.924 26.9558C281.263 25.3051 280.273 23.8123 278.924 22.4631ZM277.144 35.6254C276.699 36.6732 276.082 37.5918 275.306 38.3813C274.531 39.1707 273.613 39.8023 272.565 40.2616C271.517 40.7209 270.398 40.9506 269.206 40.9506C268 40.9506 266.867 40.7209 265.819 40.2616C264.771 39.8023 263.867 39.1707 263.092 38.3956C262.316 37.6062 261.714 36.6876 261.269 35.6397C260.824 34.5776 260.594 33.458 260.594 32.2666C260.594 31.0753 260.824 29.9557 261.269 28.8935C261.714 27.8314 262.331 26.9127 263.092 26.1233C263.867 25.3338 264.771 24.7166 265.819 24.2573C266.867 23.798 268 23.5683 269.206 23.5683C270.398 23.5683 271.517 23.798 272.565 24.2573C273.613 24.7166 274.517 25.3482 275.306 26.1376C276.082 26.9271 276.699 27.8457 277.144 28.9079C277.589 29.9557 277.818 31.0753 277.818 32.2666C277.818 33.458 277.603 34.5776 277.144 35.6254Z" fill="white"/>
<path d="M176.065 20.9698C176.065 20.6253 175.993 20.2952 175.85 19.9794C175.706 19.6637 175.52 19.3909 175.29 19.1469C175.06 18.9029 174.788 18.7163 174.486 18.5871C174.17 18.4579 173.84 18.3862 173.481 18.3862C172.979 18.3862 172.52 18.5154 172.104 18.7881L157.434 28.4337V9.09936C157.434 8.36733 157.19 7.76448 156.688 7.24774C156.185 6.74537 155.582 6.487 154.879 6.487C154.161 6.487 153.544 6.74537 153.056 7.24774C152.554 7.75012 152.31 8.36733 152.31 9.09936V43.5481C152.31 44.2515 152.554 44.8687 153.056 45.3854C153.559 45.9021 154.161 46.1605 154.879 46.1605C155.582 46.1605 156.185 45.9021 156.688 45.3854C157.19 44.8687 157.434 44.2658 157.434 43.5481V34.6058L160.434 32.625L171.773 45.4859C172.233 45.9308 172.807 46.1605 173.496 46.1605C173.855 46.1605 174.185 46.0887 174.501 45.9595C174.816 45.8304 175.075 45.6438 175.304 45.3998C175.534 45.1557 175.721 44.883 175.864 44.5672C176.008 44.2515 176.079 43.9213 176.079 43.5768C176.079 42.9022 175.85 42.2994 175.362 41.7683L164.812 29.7686L175.089 23.0224C175.749 22.5774 176.065 21.9028 176.065 20.9698Z" fill="white"/>
<path d="M133.464 26.1089C134.253 25.3195 135.172 24.7023 136.205 24.2573C137.253 23.798 138.372 23.5827 139.564 23.5827C140.64 23.5827 141.645 23.7693 142.564 24.1281C143.482 24.487 144.358 25.0324 145.19 25.7357C145.679 26.1376 146.238 26.3242 146.855 26.3242C147.588 26.3242 148.205 26.0802 148.678 25.5778C149.166 25.0755 149.396 24.4582 149.396 23.7262C149.396 22.9511 149.109 22.2908 148.521 21.7741C145.994 19.5206 143.009 18.401 139.564 18.401C135.774 18.401 132.531 19.7502 129.846 22.4631C127.162 25.1759 125.827 28.4486 125.827 32.281C125.827 36.1134 127.162 39.386 129.846 42.0989C132.531 44.8117 135.774 46.161 139.564 46.161C142.994 46.161 145.98 45.0414 148.521 42.7879C149.066 42.2424 149.324 41.6109 149.324 40.8788C149.324 40.1324 149.08 39.5152 148.607 39.0272C148.119 38.5392 147.516 38.2952 146.784 38.2952C146.167 38.3095 145.621 38.4961 145.162 38.8406C144.344 39.5439 143.482 40.0894 142.564 40.4339C141.645 40.7927 140.655 40.965 139.564 40.965C138.372 40.965 137.253 40.7353 136.205 40.2903C135.157 39.831 134.239 39.2138 133.464 38.4244C132.674 37.6349 132.057 36.7163 131.612 35.6685C131.167 34.6063 130.937 33.4723 130.937 32.2666C130.937 31.0609 131.167 29.927 131.612 28.8792C132.057 27.817 132.674 26.8984 133.464 26.1089Z" fill="white"/>
<path d="M63.7625 17.4532C63.5903 17.3097 61.9396 16.0896 58.5234 16.0896C57.6192 16.0896 56.7149 16.1757 55.8106 16.3193C55.3369 13.4773 53.6575 10.9654 51.2031 9.42952L50.2844 8.89844L49.6672 9.75966C48.9065 10.9367 48.361 12.2428 48.0309 13.6064C47.385 16.0322 47.7725 18.6159 49.1074 20.7546C47.6434 21.4292 46.0501 21.8167 44.4281 21.8741H2.0131C0.907872 21.8741 0.00359153 22.7641 0.00359153 23.8837C-0.0538231 27.6013 0.577738 31.2901 1.85521 34.7924C3.31929 38.6249 5.50104 41.4525 8.31436 43.175C11.4865 45.1127 16.6395 46.2179 22.4814 46.2179C25.1225 46.2323 27.7492 45.9883 30.3472 45.5146C33.95 44.8543 37.4236 43.5912 40.6244 41.7827C43.2511 40.2612 45.6195 38.3234 47.629 36.0412C50.9878 32.2375 52.9973 27.9888 54.4901 24.2425H55.0929C58.7387 24.2425 61.0353 22.7641 62.2841 21.544C63.1166 20.7546 63.7625 19.7929 64.1644 18.7163L64.4371 17.9556L63.7625 17.4532Z" fill="white"/>
<path d="M5.94623 14.5677H11.6159C11.8886 14.5677 12.1183 14.7973 12.1183 15.0701V20.1226C12.1183 20.3953 11.8886 20.6249 11.6159 20.6249H5.94623C5.67351 20.6249 5.44385 20.3953 5.44385 20.1226V15.0701C5.44385 14.7973 5.65915 14.5677 5.94623 14.5677Z" fill="white"/>
<path d="M13.7687 14.5677H19.4528C19.7255 14.5677 19.9552 14.7973 19.9552 15.0701V20.1226C19.9552 20.3953 19.7255 20.6249 19.4528 20.6249H13.7687C13.496 20.6249 13.2664 20.3953 13.2664 20.1226V15.0701C13.2807 14.7973 13.496 14.5677 13.7687 14.5677Z" fill="white"/>
<path d="M21.7204 14.5677H27.4044C27.6772 14.5677 27.9068 14.7973 27.9068 15.0701V20.1226C27.9068 20.3953 27.6772 20.6249 27.4044 20.6249H21.7204C21.4477 20.6249 21.218 20.3953 21.218 20.1226V15.0701C21.2324 14.7973 21.4477 14.5677 21.7204 14.5677Z" fill="white"/>
<path d="M29.5849 14.5677H35.2689C35.5417 14.5677 35.7713 14.7973 35.7713 15.0701V20.1226C35.7713 20.3953 35.5417 20.6249 35.2689 20.6249H29.5849C29.3122 20.6249 29.0825 20.3953 29.0825 20.1226V15.0701C29.0825 14.7973 29.3122 14.5677 29.5849 14.5677Z" fill="white"/>
<path d="M13.7687 7.29163H19.4528C19.7255 7.29163 19.9552 7.52128 19.9552 7.794V12.8465C19.9552 13.1192 19.7255 13.3489 19.4528 13.3489H13.7687C13.496 13.3489 13.2664 13.1192 13.2664 12.8465V7.77965C13.2807 7.50693 13.496 7.29163 13.7687 7.29163Z" fill="white"/>
<path d="M21.7204 7.29163H27.4044C27.6772 7.29163 27.9068 7.52128 27.9068 7.794V12.8465C27.9068 13.1192 27.6772 13.3489 27.4044 13.3489H21.7204C21.4477 13.3489 21.218 13.1192 21.218 12.8465V7.77965C21.2324 7.50693 21.4477 7.29163 21.7204 7.29163Z" fill="white"/>
<path d="M29.5849 7.29163H35.2689C35.5417 7.29163 35.7713 7.52128 35.7713 7.794V12.8465C35.7713 13.1192 35.5417 13.3489 35.2689 13.3489H29.5849C29.3122 13.3489 29.0825 13.1192 29.0825 12.8465V7.77965C29.0825 7.50693 29.3122 7.29163 29.5849 7.29163Z" fill="white"/>
<path d="M29.5849 0H35.2689C35.5417 0 35.7713 0.229658 35.7713 0.502378V5.55486C35.7713 5.82758 35.5417 6.05724 35.2689 6.05724H29.5849C29.3122 6.05724 29.0825 5.82758 29.0825 5.55486V0.502378C29.0825 0.229658 29.3122 0 29.5849 0Z" fill="white"/>
<path d="M37.5231 14.5677H43.2072C43.4799 14.5677 43.7096 14.7973 43.7096 15.0701V20.1226C43.7096 20.3953 43.4799 20.6249 43.2072 20.6249H37.5231C37.2504 20.6249 37.0208 20.3953 37.0208 20.1226V15.0701C37.0208 14.7973 37.2361 14.5677 37.5231 14.5677Z" fill="white"/>
</svg>
