<?xml version="1.0" encoding="UTF-8" standalone="no"?>
<svg width="48px" height="48px" viewBox="0 0 48 48" version="1.1" xmlns="http://www.w3.org/2000/svg" xmlns:xlink="http://www.w3.org/1999/xlink">
    <!-- Generator: Sketch 42 (36781) - http://www.bohemiancoding.com/sketch -->
    <title>dtr_48</title>
    <desc>Created with Sketch.</desc>
    <defs></defs>
    <g id="Page-1" stroke="none" stroke-width="1" fill="none" fill-rule="evenodd">
        <g id="dtr_48">
            <g id="registry_48">
                <g id="Capa_1">
                    <polygon id="Rectangle-34" points="0 0 48 0 48 48 0 48"></polygon>
                    <path d="M37,6 L37,24 L11,24 L11,6 L4,6 L4,42 L11,42 L11,37 L37,37 L37,42 L44,42 L44,6 L37,6 Z M10,41 L5,41 L5,7 L10,7 L10,41 Z M37,36 L11,36 L11,25 L37,25 L37,36 Z M43,41 L38,41 L38,7 L43,7 L43,41 Z M19,10 L15,10 L15,21 L19,21 L19,10 Z M26,6 L22,6 L22,17 L26,17 L26,6 Z M33,10 L29,10 L29,21 L33,21 L33,10 Z M19,28 L15,28 L15,34 L19,34 L19,28 Z M26,28 L22,28 L22,34 L26,34 L26,28 Z M33,28 L29,28 L29,34 L33,34 L33,28 Z" id="Shape" fill="#2089C4" fill-rule="nonzero"></path>
                </g>
            </g>
        </g>
    </g>
</svg>