<?xml version="1.0" encoding="UTF-8"?>
<svg width="261px" height="88px" viewBox="0 0 261 88" version="1.1" xmlns="http://www.w3.org/2000/svg" xmlns:xlink="http://www.w3.org/1999/xlink">
    <!-- Generator: Sketch 43.2 (39069) - http://www.bohemiancoding.com/sketch -->
    <title>Group</title>
    <desc>Created with Sketch.</desc>
    <defs>
        <polygon id="path-1" points="-8.52651283e-14 0 262 4 262 49 21.3837891 48.8623047"></polygon>
    </defs>
    <g id="Page-1" stroke="none" stroke-width="1" fill="none" fill-rule="evenodd">
        <g id="Group" transform="translate(-1.000000, 0.000000)">
            <g id="Group-3" transform="translate(0.000000, 40.000000)">
                <mask id="mask-2" fill="white">
                    <use xlink:href="#path-1"></use>
                </mask>
                <g id="Mask"></g>
                <g mask="url(#mask-2)">
                    <g transform="translate(-117.000000, 6.000000)">
                        <polygon id="Rectangle-15" fill="#6CDBFF" points="426.184898 0 448.290479 12 10.0798373 12 0.977539062 0"></polygon>
                        <polygon id="Rectangle-15-Copy" fill="#F27D52" points="437.887852 15 459.993434 27 23.0831204 27 12.6804939 15"></polygon>
                        <polygon id="Rectangle-15-Copy-2" fill="#FAAC18" points="470.39606 30 486 42 33.4857469 42 24.3834487 30"></polygon>
                    </g>
                </g>
            </g>
            <path d="M20.5761719,17.0117188 L20.8222656,17.0117188 C21.6881554,17.1940113 22.1210938,17.6087207 22.1210938,18.2558594 L22.1210938,28.4824219 L22.1757812,30.2324219 C22.1757812,31.6725332 21.5924538,33.1718672 20.4257812,34.7304688 C18.7760334,36.516936 16.916677,37.4101562 14.8476562,37.4101562 L14.4375,37.4101562 C12.4140524,37.4101562 10.536467,36.4668063 8.8046875,34.5800781 C7.73827592,33.0761644 7.20507812,31.5221434 7.20507812,29.9179688 C7.20507812,27.4934775 8.2805882,25.4563885 10.4316406,23.8066406 C11.798835,22.8951777 13.2206957,22.4394531 14.6972656,22.4394531 C16.5931084,22.4394531 18.1425721,22.9772082 19.3457031,24.0527344 L19.3457031,19.1445312 L19.2910156,18.2558594 C19.5553399,17.4264281 19.983721,17.0117188 20.5761719,17.0117188 Z M10.0351562,29.7675781 L10.0351562,30.0273438 C10.0351562,31.9596451 11.0514221,33.3997348 13.0839844,34.3476562 C13.6126329,34.5026049 14.0957009,34.5800781 14.5332031,34.5800781 L14.8476562,34.5800781 C16.7252698,34.5800781 18.1471306,33.5683695 19.1132812,31.5449219 C19.2682299,30.9342417 19.3457031,30.4648454 19.3457031,30.1367188 L19.3457031,29.8222656 C19.3457031,27.8990789 18.3157655,26.4589892 16.2558594,25.5019531 C15.62695,25.3470044 15.1393246,25.2695312 14.7929688,25.2695312 L14.5878906,25.2695312 C12.7102771,25.2695312 11.2884163,26.2675681 10.3222656,28.2636719 C10.1308584,28.8196642 10.0351562,29.3209613 10.0351562,29.7675781 Z M30.515625,22.671875 C32.4205824,22.671875 34.1432215,23.3919199 35.6835938,24.8320312 C37.151049,26.3724035 37.8847656,28.1087143 37.8847656,30.0410156 C37.8847656,32.8027482 36.5813932,34.9719973 33.9746094,36.5488281 C32.8352808,37.1230497 31.7324272,37.4101562 30.6660156,37.4101562 L30.2558594,37.4101562 C28.2688703,37.4101562 26.4231856,36.480478 24.71875,34.6210938 C23.6705677,33.1445239 23.1464844,31.6178464 23.1464844,30.0410156 C23.1464844,27.6438682 24.2037655,25.6386799 26.3183594,24.0253906 C27.6673245,23.1230424 29.066399,22.671875 30.515625,22.671875 Z M26.0039062,29.890625 L26.0039062,30.1367188 C26.0039062,31.8411544 26.8287678,33.1627557 28.4785156,34.1015625 C29.0618519,34.4023453 29.6907518,34.5527344 30.3652344,34.5527344 L30.6660156,34.5527344 C32.425139,34.5527344 33.7740838,33.6367279 34.7128906,31.8046875 C34.9225271,31.2395805 35.0273438,30.6835965 35.0273438,30.1367188 L35.0273438,29.890625 C35.0273438,28.4778575 34.3756576,27.283859 33.0722656,26.3085938 C32.3157514,25.7890599 31.4453174,25.5292969 30.4609375,25.5292969 C28.5377508,25.5292969 27.1250045,26.5410055 26.2226562,28.5644531 C26.0768222,29.0384138 26.0039062,29.4804667 26.0039062,29.890625 Z M45.7597656,22.5625 C47.6738377,22.5625 49.4238202,23.2916594 51.0097656,24.75 C51.1647143,25.0325535 51.2421875,25.2923165 51.2421875,25.5292969 L51.2421875,25.625 C51.0781242,26.5182336 50.6178423,26.9648438 49.8613281,26.9648438 L49.8066406,26.9648438 C49.4693994,26.9648438 48.8496139,26.6230503 47.9472656,25.9394531 C47.2727831,25.5930972 46.5937534,25.4199219 45.9101562,25.4199219 L45.609375,25.4199219 C43.7955638,25.4199219 42.4192755,26.3769436 41.4804688,28.2910156 C41.2617177,28.9381543 41.1523438,29.5214818 41.1523438,30.0410156 C41.1523438,31.8912853 42.1139227,33.2994743 44.0371094,34.265625 C44.6022164,34.4843761 45.2128873,34.59375 45.8691406,34.59375 C46.9446668,34.59375 48.0384059,34.1243537 49.1503906,33.1855469 L49.7109375,33.0625 L49.9160156,33.0625 C50.6451859,33.0625 51.0872388,33.5091101 51.2421875,34.4023438 L51.2421875,34.484375 C51.2421875,35.3776086 50.048189,36.2799434 47.6601562,37.1914062 C46.8762982,37.3372403 46.2929707,37.4101562 45.9101562,37.4101562 L45.5,37.4101562 C43.4947816,37.4101562 41.6354252,36.4713636 39.921875,34.59375 C38.864578,33.1080655 38.3359375,31.5722736 38.3359375,29.9863281 C38.3359375,27.5709515 39.4023331,25.5475342 41.5351562,23.9160156 C42.893236,23.0136674 44.301425,22.5625 45.7597656,22.5625 Z M57.640625,29.9179688 L55.9316406,31.0117188 L55.9316406,36.0703125 C55.9316406,36.8085974 55.475916,37.2552076 54.5644531,37.4101562 L54.4824219,37.4101562 C53.7805954,37.4101562 53.3157563,36.9817751 53.0878906,36.125 L53.0878906,18.3242188 C53.2792978,17.4218705 53.707679,16.9707031 54.3730469,16.9707031 L54.6191406,16.9707031 C55.494145,17.1621103 55.9316406,17.5768197 55.9316406,18.2148438 L55.9316406,27.6484375 C60.3886942,24.6952977 63.0592404,22.9681015 63.9433594,22.4667969 L64.3125,22.4667969 C65.0963581,22.4667969 65.5611972,22.9544222 65.7070312,23.9296875 C65.7070312,24.531253 65.0872458,25.160153 63.8476562,25.8164062 C61.815094,27.1927152 60.5572941,28.0540347 60.0742188,28.4003906 L65.625,35.4277344 L65.7070312,35.8789062 L65.7070312,36.0019531 C65.5429679,36.9043014 65.0781288,37.3554688 64.3125,37.3554688 L64.2167969,37.3554688 C63.6699191,37.3554688 62.9544315,36.7174543 62.0703125,35.4414062 L57.640625,29.9179688 Z M73.8417969,22.5761719 C76.6946757,22.5761719 78.9094973,23.929674 80.4863281,26.6367188 C81.0332059,27.7031303 81.3066406,28.8561136 81.3066406,30.0957031 L81.3066406,30.3964844 C81.1425773,31.3261765 80.6822954,31.7910156 79.9257812,31.7910156 L69.6855469,31.7910156 C69.9498711,32.6933639 70.6927022,33.472653 71.9140625,34.1289062 C72.6341182,34.4023451 73.3085906,34.5390625 73.9375,34.5390625 C74.6666703,34.5390625 75.5416616,34.2838567 76.5625,33.7734375 L77,33.7734375 C77.8567751,33.9375008 78.2851562,34.3841109 78.2851562,35.1132812 L78.2851562,35.2636719 C78.2851562,36.3391981 76.9316542,37.0546857 74.2246094,37.4101562 L73.8417969,37.4101562 C71.1803252,37.4101562 69.0475341,36.1660281 67.4433594,33.6777344 C66.7962207,32.5019472 66.4726562,31.2714908 66.4726562,29.9863281 C66.4726562,27.2701687 67.7532424,25.1100341 70.3144531,23.5058594 C71.5631573,22.8860646 72.7389268,22.5761719 73.8417969,22.5761719 Z M69.4394531,28.9746094 L78.3945312,28.9746094 C78.3945312,28.6373681 78.0162798,27.9583384 77.2597656,26.9375 C76.2389272,25.9713493 75.236333,25.4882812 74.2519531,25.4882812 L73.6914062,25.4882812 C72.1966071,25.4882812 70.9661507,26.2265551 70,27.703125 C69.6627587,28.2864613 69.4759116,28.7102851 69.4394531,28.9746094 Z M84.7929688,22.4941406 C85.6862024,22.7220063 86.1328125,23.1503875 86.1328125,23.7792969 L86.1328125,23.9980469 C87.2630265,22.9954377 88.735017,22.4941406 90.5488281,22.4941406 C91.5240934,22.4941406 92.5813745,22.7402319 93.7207031,23.2324219 C94.1126322,23.6334655 94.3085938,24.0208315 94.3085938,24.3945312 L94.3085938,24.4902344 C94.1536451,25.383468 93.6933632,25.8300781 92.9277344,25.8300781 L92.8046875,25.8300781 C91.8658807,25.5292954 91.1822938,25.3789062 90.7539062,25.3789062 L90.453125,25.3789062 C88.61197,25.3789062 87.2630251,26.3359279 86.40625,28.25 C86.2239574,28.7513046 86.1328125,29.3346321 86.1328125,30 L86.1328125,36.0703125 C86.1328125,36.8085974 85.6770879,37.2552076 84.765625,37.4101562 L84.6835938,37.4101562 C83.9361942,37.4101562 83.4759123,36.9453171 83.3027344,36.015625 L83.3027344,24.0664062 C83.4121099,23.0182239 83.9088497,22.4941406 84.7929688,22.4941406 Z M102.019531,22.5625 C103.933603,22.5625 105.683586,23.2916594 107.269531,24.75 C107.42448,25.0325535 107.501953,25.2923165 107.501953,25.5292969 L107.501953,25.625 C107.33789,26.5182336 106.877608,26.9648438 106.121094,26.9648438 L106.066406,26.9648438 C105.729165,26.9648438 105.10938,26.6230503 104.207031,25.9394531 C103.532549,25.5930972 102.853519,25.4199219 102.169922,25.4199219 L101.869141,25.4199219 C100.055329,25.4199219 98.6790412,26.3769436 97.7402344,28.2910156 C97.5214833,28.9381543 97.4121094,29.5214818 97.4121094,30.0410156 C97.4121094,31.8912853 98.3736883,33.2994743 100.296875,34.265625 C100.861982,34.4843761 101.472653,34.59375 102.128906,34.59375 C103.204432,34.59375 104.298172,34.1243537 105.410156,33.1855469 L105.970703,33.0625 L106.175781,33.0625 C106.904952,33.0625 107.347004,33.5091101 107.501953,34.4023438 L107.501953,34.484375 C107.501953,35.3776086 106.307955,36.2799434 103.919922,37.1914062 C103.136064,37.3372403 102.552736,37.4101562 102.169922,37.4101562 L101.759766,37.4101562 C99.7545473,37.4101562 97.8951909,36.4713636 96.1816406,34.59375 C95.1243437,33.1080655 94.5957031,31.5722736 94.5957031,29.9863281 C94.5957031,27.5709515 95.6620987,25.5475342 97.7949219,23.9160156 C99.1530016,23.0136674 100.561191,22.5625 102.019531,22.5625 Z M115.664062,22.671875 C117.56902,22.671875 119.291659,23.3919199 120.832031,24.8320312 C122.299487,26.3724035 123.033203,28.1087143 123.033203,30.0410156 C123.033203,32.8027482 121.729831,34.9719973 119.123047,36.5488281 C117.983718,37.1230497 116.880865,37.4101562 115.814453,37.4101562 L115.404297,37.4101562 C113.417308,37.4101562 111.571623,36.480478 109.867188,34.6210938 C108.819005,33.1445239 108.294922,31.6178464 108.294922,30.0410156 C108.294922,27.6438682 109.352203,25.6386799 111.466797,24.0253906 C112.815762,23.1230424 114.214837,22.671875 115.664062,22.671875 Z M111.152344,29.890625 L111.152344,30.1367188 C111.152344,31.8411544 111.977205,33.1627557 113.626953,34.1015625 C114.210289,34.4023453 114.839189,34.5527344 115.513672,34.5527344 L115.814453,34.5527344 C117.573577,34.5527344 118.922521,33.6367279 119.861328,31.8046875 C120.070965,31.2395805 120.175781,30.6835965 120.175781,30.1367188 L120.175781,29.890625 C120.175781,28.4778575 119.524095,27.283859 118.220703,26.3085938 C117.464189,25.7890599 116.593755,25.5292969 115.609375,25.5292969 C113.686188,25.5292969 112.273442,26.5410055 111.371094,28.5644531 C111.22526,29.0384138 111.152344,29.4804667 111.152344,29.890625 Z M126.041016,22.6035156 C126.925135,22.8313813 127.367188,23.2597625 127.367188,23.8886719 L127.367188,24.09375 C128.460943,23.1002554 129.937491,22.6035156 131.796875,22.6035156 C133.838552,22.6035156 135.647779,23.4511634 137.224609,25.1464844 C138.373053,26.5683665 138.947266,28.0677004 138.947266,29.6445312 L138.947266,36.1386719 C138.947266,36.8131544 138.500656,37.2369783 137.607422,37.4101562 L137.470703,37.4101562 C136.577469,37.2460929 136.130859,36.7858111 136.130859,36.0292969 L136.130859,30.3144531 C136.130859,27.9446496 135.123708,26.3906287 133.109375,25.6523438 C132.617185,25.5247389 132.179689,25.4609375 131.796875,25.4609375 L131.646484,25.4609375 C129.960278,25.4609375 128.652348,26.340486 127.722656,28.0996094 C127.485676,28.6191432 127.367188,29.4941345 127.367188,30.7246094 L127.367188,36.0839844 C127.367188,36.8131547 126.920577,37.2552076 126.027344,37.4101562 L125.931641,37.4101562 C125.184241,37.4101562 124.723959,36.9453171 124.550781,36.015625 L124.550781,24.1621094 C124.660157,23.1230417 125.156897,22.6035156 126.041016,22.6035156 Z M144.375,16.9433594 L144.634766,16.9433594 C145.500655,17.1347666 145.933594,17.567705 145.933594,18.2421875 L145.933594,36.0566406 C145.76953,36.9589889 145.304691,37.4101562 144.539062,37.4101562 L144.443359,37.4101562 C143.541011,37.218749 143.089844,36.7903679 143.089844,36.125 L143.089844,20.3203125 C142.479164,20.5208343 142.009767,20.6210938 141.681641,20.6210938 C141.034502,20.6210938 140.606121,20.1881554 140.396484,19.3222656 L140.396484,19.0078125 C140.396484,18.2786422 141.194002,17.7500016 142.789062,17.421875 L144.375,16.9433594 Z M156.898438,19.8828125 L149.583984,19.8828125 C148.645178,19.7005199 148.175781,19.2083373 148.175781,18.40625 C148.376303,17.5039017 148.804684,17.0527344 149.460938,17.0527344 L159.455078,17.0527344 C160.320968,17.235027 160.753906,17.6451791 160.753906,18.2832031 L160.753906,18.5429688 C160.753906,18.807293 160.562502,19.2265596 160.179688,19.8007812 L150.445312,37.0273438 C150.062498,37.2825534 149.734376,37.4101562 149.460938,37.4101562 L149.378906,37.4101562 C148.476558,37.2460929 148.025391,36.7812538 148.025391,36.015625 L148.025391,35.8105469 C148.134766,35.4095032 151.092419,30.1003115 156.898438,19.8828125 Z" id="dockercon17" fill="#FFFFFF"></path>
            <path d="M1.7109375,13.9941406 C1.30533651,13.9941406 1.06835972,13.7457707 1,13.2490234 C1,12.8707663 1.24836991,12.6451827 1.74511719,12.5722656 C2.6018923,12.5722656 3.16926944,12.1484417 3.44726562,11.3007812 L3.50195312,10.5761719 L3.50195312,4.46484375 C3.50195312,4.08202934 3.74120854,3.85416703 4.21972656,3.78125 C4.67090069,3.86783897 4.89648438,4.09570128 4.89648438,4.46484375 L4.89648438,10.8085938 C4.89648438,12.1530015 4.25846992,13.135088 2.98242188,13.7548828 C2.57226357,13.9007169 2.19173353,13.9804687 1.84082031,13.9941406 L1.7109375,13.9941406 Z M4.17871094,2.05859375 C4.65722896,2.15429735 4.89648438,2.39355277 4.89648438,2.77636719 C4.89648438,3.17741086 4.64583584,3.41666628 4.14453125,3.49414062 C3.71614369,3.37109313 3.50195312,3.15690257 3.50195312,2.8515625 L3.50195312,2.70117188 C3.50195312,2.39127449 3.72753681,2.17708393 4.17871094,2.05859375 Z M9.16894531,3.8359375 C10.121424,3.8359375 10.9827435,4.19595994 11.7529297,4.91601562 C12.4866573,5.68620177 12.8535156,6.55435715 12.8535156,7.52050781 C12.8535156,8.90137409 12.2018294,9.98599866 10.8984375,10.7744141 C10.3287732,11.0615249 9.77734642,11.2050781 9.24414062,11.2050781 L9.0390625,11.2050781 C8.04556795,11.2050781 7.12272562,10.740239 6.27050781,9.81054688 C5.74641665,9.07226193 5.484375,8.30892321 5.484375,7.52050781 C5.484375,6.32193411 6.01301555,5.31933997 7.0703125,4.51269531 C7.74479504,4.06152118 8.44433231,3.8359375 9.16894531,3.8359375 Z M6.91308594,7.4453125 L6.91308594,7.56835938 C6.91308594,8.42057718 7.32551671,9.08137786 8.15039062,9.55078125 C8.44205875,9.70117263 8.75650873,9.77636719 9.09375,9.77636719 L9.24414062,9.77636719 C10.1237023,9.77636719 10.7981747,9.31836396 11.2675781,8.40234375 C11.3723964,8.11979025 11.4248047,7.84179824 11.4248047,7.56835938 L11.4248047,7.4453125 C11.4248047,6.73892876 11.0989616,6.14192952 10.4472656,5.65429688 C10.0690085,5.39452995 9.63379152,5.26464844 9.14160156,5.26464844 C8.18000821,5.26464844 7.47363507,5.77050275 7.02246094,6.78222656 C6.94954391,7.01920691 6.91308594,7.24023335 6.91308594,7.4453125 Z M14.5214844,2.00390625 C14.9726585,2.11783911 15.1982422,2.33202968 15.1982422,2.64648438 L15.1982422,2.796875 C15.1982422,3.15690284 14.9544295,3.37109341 14.4667969,3.43945312 C14.1158837,3.43945312 13.8857427,3.20019771 13.7763672,2.72167969 C13.8720708,2.24316167 14.1204407,2.00390625 14.5214844,2.00390625 Z M14.5214844,3.75390625 C14.9726585,3.86783911 15.1982422,4.08202968 15.1982422,4.39648438 L15.1982422,10.5351562 C15.1982422,10.9042987 14.9703799,11.1276038 14.5146484,11.2050781 L14.4736328,11.2050781 C14.099933,11.2050781 13.8697921,10.9726586 13.7832031,10.5078125 L13.7832031,4.53320312 C13.8378909,4.01366928 14.0839822,3.75390625 14.5214844,3.75390625 Z M17.3037109,3.80175781 C17.7457704,3.91569067 17.9667969,4.12988124 17.9667969,4.44433594 L17.9667969,4.546875 C18.5136746,4.05012772 19.2519485,3.80175781 20.1816406,3.80175781 C21.2024791,3.80175781 22.1070924,4.2255817 22.8955078,5.07324219 C23.4697294,5.78418324 23.7568359,6.53385022 23.7568359,7.32226562 L23.7568359,10.5693359 C23.7568359,10.9065772 23.5335309,11.1184892 23.0869141,11.2050781 L23.0185547,11.2050781 C22.5719379,11.1230465 22.3486328,10.8929055 22.3486328,10.5146484 L22.3486328,7.65722656 C22.3486328,6.4723248 21.8450571,5.69531435 20.8378906,5.32617188 C20.5917956,5.26236947 20.3730478,5.23046875 20.1816406,5.23046875 L20.1064453,5.23046875 C19.2633421,5.23046875 18.6093773,5.670243 18.1445312,6.54980469 C18.0260411,6.80957161 17.9667969,7.24706724 17.9667969,7.86230469 L17.9667969,10.5419922 C17.9667969,10.9065773 17.7434918,11.1276038 17.296875,11.2050781 L17.2490234,11.2050781 C16.8753237,11.2050781 16.6451827,10.9726586 16.5585938,10.5078125 L16.5585938,4.58105469 C16.6132815,4.06152084 16.8616514,3.80175781 17.3037109,3.80175781 Z M33.9765625,10.453125 C33.3339812,10.9544296 32.6253294,11.2050781 31.8505859,11.2050781 L31.6728516,11.2050781 C30.5426376,11.2050781 29.5628297,10.6536513 28.7333984,9.55078125 C28.350584,8.95377306 28.1591797,8.22461368 28.1591797,7.36328125 L28.1591797,4.55371094 C28.2138675,4.03417709 28.4622374,3.77441406 28.9042969,3.77441406 C29.3463564,3.88834692 29.5673828,4.10253749 29.5673828,4.41699219 L29.5673828,7.15820312 C29.5673828,8.25195859 29.8704397,8.98111797 30.4765625,9.34570312 C30.8684915,9.64648588 31.3014299,9.796875 31.7753906,9.796875 C32.6822962,9.796875 33.3681617,9.32747865 33.8330078,8.38867188 C33.9287114,8.08333181 33.9765625,7.7757177 33.9765625,7.46582031 L33.9765625,4.47167969 C34.0677088,4.00683361 34.3138001,3.77441406 34.7148438,3.77441406 C35.1614606,3.87467498 35.3847656,4.10481591 35.3847656,4.46484375 L35.3847656,10.5625 C35.3847656,10.9042986 35.1614606,11.1184892 34.7148438,11.2050781 L34.6464844,11.2050781 C34.1998676,11.1230465 33.9765625,10.8929055 33.9765625,10.5146484 L33.9765625,10.453125 Z M40.6142578,8.76464844 C40.6097005,8.67350215 40.516277,8.6188152 40.3339844,8.60058594 C38.0279833,8.0856094 36.7975268,7.75748769 36.6425781,7.61621094 C36.1731747,7.26074041 35.9384766,6.82096616 35.9384766,6.296875 C35.9384766,5.58593395 36.4352164,4.91146152 37.4287109,4.2734375 C37.9755887,3.98632669 38.5156223,3.84277344 39.0488281,3.84277344 C40.2975323,3.84277344 41.2841761,4.41926507 42.0087891,5.57226562 L42.0361328,5.82519531 L42.0361328,5.86621094 C42.0361328,6.25358267 41.8037133,6.48144497 41.3388672,6.54980469 C41.0289698,6.54980469 40.7418633,6.33105688 40.4775391,5.89355469 C40.0628234,5.4879537 39.5865912,5.28515625 39.0488281,5.28515625 C38.3470017,5.28515625 37.7978535,5.61327797 37.4013672,6.26953125 L37.3876953,6.33789062 C37.3876953,6.42903691 37.5836569,6.49055974 37.9755859,6.52246094 C39.9352312,6.99642164 41.0175771,7.27213503 41.2226562,7.34960938 C41.7832059,7.71875185 42.0634766,8.18586957 42.0634766,8.75097656 L42.0634766,8.77148438 C42.0634766,9.55078515 41.5120498,10.2548797 40.4091797,10.8837891 C39.9306617,11.0979828 39.427086,11.2050781 38.8984375,11.2050781 C37.804682,11.2050781 36.8818397,10.6946666 36.1298828,9.67382812 C36.0341792,9.53710869 35.9863281,9.40494855 35.9863281,9.27734375 L35.9863281,9.12695312 C35.9863281,8.75781065 36.2369767,8.54589871 36.7382812,8.49121094 C36.9798189,8.49121094 37.2646468,8.72590911 37.5927734,9.1953125 C37.9938171,9.56901229 38.4632135,9.75585938 39.0009766,9.75585938 C39.6390006,9.75585938 40.1676411,9.45735976 40.5869141,8.86035156 L40.6142578,8.76464844 Z M47.3339844,2.00390625 C47.7851585,2.11783911 48.0107422,2.33202968 48.0107422,2.64648438 L48.0107422,2.796875 C48.0107422,3.15690284 47.7669295,3.37109341 47.2792969,3.43945312 C46.9283837,3.43945312 46.6982427,3.20019771 46.5888672,2.72167969 C46.6845708,2.24316167 46.9329407,2.00390625 47.3339844,2.00390625 Z M47.3339844,3.75390625 C47.7851585,3.86783911 48.0107422,4.08202968 48.0107422,4.39648438 L48.0107422,10.5351562 C48.0107422,10.9042987 47.7828799,11.1276038 47.3271484,11.2050781 L47.2861328,11.2050781 C46.912433,11.2050781 46.6822921,10.9726586 46.5957031,10.5078125 L46.5957031,4.53320312 C46.6503909,4.01366928 46.8964822,3.75390625 47.3339844,3.75390625 Z M50.1162109,3.80175781 C50.5582704,3.91569067 50.7792969,4.12988124 50.7792969,4.44433594 L50.7792969,4.546875 C51.3261746,4.05012772 52.0644485,3.80175781 52.9941406,3.80175781 C54.0149791,3.80175781 54.9195924,4.2255817 55.7080078,5.07324219 C56.2822294,5.78418324 56.5693359,6.53385022 56.5693359,7.32226562 L56.5693359,10.5693359 C56.5693359,10.9065772 56.3460309,11.1184892 55.8994141,11.2050781 L55.8310547,11.2050781 C55.3844379,11.1230465 55.1611328,10.8929055 55.1611328,10.5146484 L55.1611328,7.65722656 C55.1611328,6.4723248 54.6575571,5.69531435 53.6503906,5.32617188 C53.4042956,5.26236947 53.1855478,5.23046875 52.9941406,5.23046875 L52.9189453,5.23046875 C52.0758421,5.23046875 51.4218773,5.670243 50.9570312,6.54980469 C50.8385411,6.80957161 50.7792969,7.24706724 50.7792969,7.86230469 L50.7792969,10.5419922 C50.7792969,10.9065773 50.5559918,11.1276038 50.109375,11.2050781 L50.0615234,11.2050781 C49.6878237,11.2050781 49.4576827,10.9726586 49.3710938,10.5078125 L49.3710938,4.58105469 C49.4257815,4.06152084 49.6741514,3.80175781 50.1162109,3.80175781 Z M64.2050781,3.78125 C65.1621142,3.78125 66.0371054,4.14582969 66.8300781,4.875 C66.9075525,5.01627675 66.9462891,5.14615826 66.9462891,5.26464844 L66.9462891,5.3125 C66.8642574,5.75911682 66.6341165,5.98242188 66.2558594,5.98242188 L66.2285156,5.98242188 C66.059895,5.98242188 65.7500023,5.81152515 65.2988281,5.46972656 C64.9615869,5.29654861 64.622072,5.20996094 64.2802734,5.20996094 L64.1298828,5.20996094 C63.2229772,5.20996094 62.5348331,5.68847178 62.0654297,6.64550781 C61.9560541,6.96907714 61.9013672,7.26074089 61.9013672,7.52050781 C61.9013672,8.44564265 62.3821567,9.14973717 63.34375,9.6328125 C63.6263035,9.74218805 63.931639,9.796875 64.2597656,9.796875 C64.7975287,9.796875 65.3443983,9.56217683 65.9003906,9.09277344 L66.1806641,9.03125 L66.2832031,9.03125 C66.6477883,9.03125 66.8688147,9.25455506 66.9462891,9.70117188 L66.9462891,9.7421875 C66.9462891,10.1888043 66.3492898,10.6399717 65.1552734,11.0957031 C64.7633444,11.1686202 64.4716806,11.2050781 64.2802734,11.2050781 L64.0751953,11.2050781 C63.0725861,11.2050781 62.1429079,10.7356818 61.2861328,9.796875 C60.7574843,9.05403274 60.4931641,8.28613678 60.4931641,7.49316406 C60.4931641,6.28547573 61.0263619,5.2737671 62.0927734,4.45800781 C62.7718133,4.00683368 63.4759078,3.78125 64.2050781,3.78125 Z M71.0273438,3.8359375 C71.9798225,3.8359375 72.841142,4.19595994 73.6113281,4.91601562 C74.3450558,5.68620177 74.7119141,6.55435715 74.7119141,7.52050781 C74.7119141,8.90137409 74.0602279,9.98599866 72.7568359,10.7744141 C72.1871716,11.0615249 71.6357449,11.2050781 71.1025391,11.2050781 L70.8974609,11.2050781 C69.9039664,11.2050781 68.9811241,10.740239 68.1289062,9.81054688 C67.6048151,9.07226193 67.3427734,8.30892321 67.3427734,7.52050781 C67.3427734,6.32193411 67.871414,5.31933997 68.9287109,4.51269531 C69.6031935,4.06152118 70.3027308,3.8359375 71.0273438,3.8359375 Z M68.7714844,7.4453125 L68.7714844,7.56835938 C68.7714844,8.42057718 69.1839151,9.08137786 70.0087891,9.55078125 C70.3004572,9.70117263 70.6149072,9.77636719 70.9521484,9.77636719 L71.1025391,9.77636719 C71.9821008,9.77636719 72.6565732,9.31836396 73.1259766,8.40234375 C73.2307948,8.11979025 73.2832031,7.84179824 73.2832031,7.56835938 L73.2832031,7.4453125 C73.2832031,6.73892876 72.95736,6.14192952 72.3056641,5.65429688 C71.927407,5.39452995 71.49219,5.26464844 71,5.26464844 C70.0384067,5.26464844 69.3320335,5.77050275 68.8808594,6.78222656 C68.8079423,7.01920691 68.7714844,7.24023335 68.7714844,7.4453125 Z M79.0048828,3.82226562 C79.9573615,3.82226562 80.8164024,4.18000944 81.5820312,4.89550781 C82.3157589,5.66569396 82.6826172,6.53157071 82.6826172,7.49316406 C82.6826172,8.86947303 82.0332096,9.94954035 80.734375,10.7333984 C80.1647107,11.0205092 79.6155625,11.1640625 79.0869141,11.1640625 L78.8818359,11.1640625 C78.0250608,11.1640625 77.3095732,10.9042995 76.7353516,10.3847656 L76.7353516,13.4130859 C76.7353516,13.7366553 76.5052106,13.9485672 76.0449219,14.0488281 C75.6803367,14.0488281 75.4456385,13.8186872 75.3408203,13.3583984 L75.3408203,7.71875 C75.3408203,5.87303765 76.2135329,4.62890946 77.9589844,3.98632812 C78.1822928,3.91341109 78.5309221,3.85872414 79.0048828,3.82226562 Z M76.7626953,7.41796875 L76.7626953,7.54785156 C76.7626953,8.39095474 77.1728475,9.04719817 77.9931641,9.51660156 C78.2848322,9.66699294 78.5992822,9.7421875 78.9365234,9.7421875 L79.0869141,9.7421875 C79.9664758,9.7421875 80.6386696,9.28646289 81.1035156,8.375 C81.2083339,8.0924465 81.2607422,7.81673312 81.2607422,7.54785156 L81.2607422,7.41796875 C81.2607422,6.71614232 80.9371777,6.12142171 80.2900391,5.63378906 C79.9072246,5.37402214 79.4720076,5.24414062 78.984375,5.24414062 C78.027339,5.24414062 77.3255231,5.74999494 76.8789062,6.76171875 C76.8014319,7.00325642 76.7626953,7.22200423 76.7626953,7.41796875 Z M86.6337891,3.78808594 C88.0602285,3.78808594 89.1676393,4.46483698 89.9560547,5.81835938 C90.2294936,6.35156517 90.3662109,6.9280568 90.3662109,7.54785156 L90.3662109,7.69824219 C90.2841793,8.16308826 90.0540383,8.39550781 89.6757812,8.39550781 L84.5556641,8.39550781 C84.6878262,8.84668194 85.0592417,9.23632648 85.6699219,9.56445312 C86.0299497,9.70117256 86.3671859,9.76953125 86.6816406,9.76953125 C87.0462258,9.76953125 87.4837214,9.64192836 87.9941406,9.38671875 L88.2128906,9.38671875 C88.6412782,9.46875041 88.8554688,9.69205547 88.8554688,10.0566406 L88.8554688,10.1318359 C88.8554688,10.669599 88.1787177,11.0273429 86.8251953,11.2050781 L86.6337891,11.2050781 C85.3030532,11.2050781 84.2366577,10.583014 83.4345703,9.33886719 C83.111001,8.75097362 82.9492188,8.1357454 82.9492188,7.49316406 C82.9492188,6.13508436 83.5895118,5.05501703 84.8701172,4.25292969 C85.4944693,3.9430323 86.082354,3.78808594 86.6337891,3.78808594 Z M84.4326172,6.98730469 L88.9101562,6.98730469 C88.9101562,6.81868405 88.7210305,6.47916922 88.3427734,5.96875 C87.8323542,5.48567467 87.3310571,5.24414062 86.8388672,5.24414062 L86.5585938,5.24414062 C85.8111942,5.24414062 85.195966,5.61327756 84.7128906,6.3515625 C84.54427,6.64323063 84.4508464,6.85514257 84.4326172,6.98730469 Z M91.9658203,3.80175781 C92.4078798,3.91569067 92.6289062,4.12988124 92.6289062,4.44433594 L92.6289062,4.546875 C93.175784,4.05012772 93.9140579,3.80175781 94.84375,3.80175781 C95.8645884,3.80175781 96.7692018,4.2255817 97.5576172,5.07324219 C98.1318388,5.78418324 98.4189453,6.53385022 98.4189453,7.32226562 L98.4189453,10.5693359 C98.4189453,10.9065772 98.1956403,11.1184892 97.7490234,11.2050781 L97.6806641,11.2050781 C97.2340472,11.1230465 97.0107422,10.8929055 97.0107422,10.5146484 L97.0107422,7.65722656 C97.0107422,6.4723248 96.5071665,5.69531435 95.5,5.32617188 C95.253905,5.26236947 95.0351572,5.23046875 94.84375,5.23046875 L94.7685547,5.23046875 C93.9254515,5.23046875 93.2714867,5.670243 92.8066406,6.54980469 C92.6881504,6.80957161 92.6289062,7.24706724 92.6289062,7.86230469 L92.6289062,10.5419922 C92.6289062,10.9065773 92.4056012,11.1276038 91.9589844,11.2050781 L91.9111328,11.2050781 C91.537433,11.2050781 91.3072921,10.9726586 91.2207031,10.5078125 L91.2207031,4.58105469 C91.2753909,4.06152084 91.5237608,3.80175781 91.9658203,3.80175781 Z M99.8408203,1.01953125 L99.9638672,1.01953125 C100.396812,1.11067754 100.613281,1.31575361 100.613281,1.63476562 L100.613281,4.34179688 C101.087242,3.93163857 101.725256,3.7265625 102.527344,3.7265625 C103.748704,3.7265625 104.726233,4.30305413 105.459961,5.45605469 C105.737957,5.97103122 105.876953,6.46093518 105.876953,6.92578125 L105.876953,10.5351562 C105.876953,10.9042987 105.649091,11.1276038 105.193359,11.2050781 L105.15918,11.2050781 C104.808266,11.2050781 104.575847,10.9908876 104.461914,10.5625 L104.461914,7.07617188 C104.461914,6.23762602 104.026697,5.63151229 103.15625,5.2578125 C102.951171,5.19856741 102.741538,5.16894531 102.527344,5.16894531 C101.666011,5.16894531 101.057619,5.63150579 100.702148,6.55664062 C100.642903,6.75260515 100.613281,7.08984136 100.613281,7.56835938 L100.613281,10.5351562 C100.613281,10.9042987 100.385419,11.1276038 99.9296875,11.2050781 L99.8955078,11.2050781 C99.5445946,11.2050781 99.312175,10.9908876 99.1982422,10.5625 L99.1982422,1.68945312 C99.2939458,1.24283631 99.5081364,1.01953125 99.8408203,1.01953125 Z M107.797852,7.45214844 L107.797852,7.52734375 C107.797852,8.46159321 108.267248,9.16340911 109.206055,9.6328125 C109.497723,9.74218805 109.759764,9.796875 109.992188,9.796875 L110.19043,9.796875 C110.965173,9.796875 111.605466,9.40723046 112.111328,8.62792969 C112.293621,8.26334453 112.384766,7.91471521 112.384766,7.58203125 L112.384766,7.47949219 C112.384766,6.58170124 111.940434,5.89355708 111.051758,5.41503906 C110.746418,5.27831963 110.427411,5.20996094 110.094727,5.20996094 L110.067383,5.20996094 C109.124019,5.20996094 108.413088,5.70214352 107.93457,6.68652344 C107.843424,6.98730619 107.797852,7.24251197 107.797852,7.45214844 Z M112.391602,10.4257812 C111.835609,10.9453151 111.101893,11.2050781 110.19043,11.2050781 L109.992188,11.2050781 C108.734369,11.2050781 107.686202,10.5761782 106.847656,9.31835938 C106.542316,8.70767924 106.389648,8.09472964 106.389648,7.47949219 C106.389648,6.10318322 107.064121,5.01172278 108.413086,4.20507812 C108.987308,3.93619657 109.547849,3.80175781 110.094727,3.80175781 C111.493822,3.80175781 112.601233,4.48534473 113.416992,5.85253906 C113.667644,6.41308874 113.792969,6.98958037 113.792969,7.58203125 L113.792969,10.5419922 C113.792969,10.9065773 113.569664,11.1276038 113.123047,11.2050781 L113.075195,11.2050781 C112.765298,11.2050781 112.535157,11.0227883 112.384766,10.6582031 L112.384766,10.5830078 L112.391602,10.4257812 Z M118.325195,3.81542969 C119.423508,3.81542969 120.373694,4.2711543 121.175781,5.18261719 C121.731774,5.9436887 122.009766,6.66601221 122.009766,7.34960938 L121.982422,8.2109375 L121.982422,11.2802734 C121.982422,11.9228548 121.513026,12.6041631 120.574219,13.3242188 C119.85872,13.7936221 119.109053,14.0283203 118.325195,14.0283203 C116.985345,14.0283203 115.877934,13.4313211 115.00293,12.2373047 C114.829752,11.9456366 114.743164,11.7382819 114.743164,11.6152344 L114.743164,11.5400391 C114.743164,11.2073551 114.957355,10.9931645 115.385742,10.8974609 L115.481445,10.8974609 C115.805015,10.8974609 116.057942,11.1435522 116.240234,11.6357422 C116.796227,12.3330113 117.491207,12.6816406 118.325195,12.6816406 C119.323247,12.6816406 120.070636,12.2350305 120.567383,11.3417969 L120.608398,11.0683594 L120.608398,10.4052734 C120.047849,10.9248073 119.311854,11.1845703 118.400391,11.1845703 L118.195312,11.1845703 C117.201818,11.1845703 116.278976,10.7197312 115.426758,9.79003906 C114.902667,9.05175412 114.640625,8.2884154 114.640625,7.5 C114.640625,6.3014263 115.169266,5.29883216 116.226562,4.4921875 C116.901045,4.04101337 117.600582,3.81542969 118.325195,3.81542969 Z M116.041992,7.42480469 L116.041992,7.54785156 C116.041992,8.49577297 116.541011,9.20214611 117.539062,9.66699219 C117.798829,9.74446653 118.035806,9.78320312 118.25,9.78320312 L118.400391,9.78320312 C119.325525,9.78320312 120.025063,9.2864633 120.499023,8.29296875 C120.57194,7.99674331 120.608398,7.76660238 120.608398,7.60253906 L120.608398,7.4453125 C120.608398,6.50194841 120.104823,5.79557526 119.097656,5.32617188 C118.783202,5.25325484 118.541668,5.21679688 118.373047,5.21679688 L118.277344,5.21679688 C117.352209,5.21679688 116.652672,5.70670083 116.178711,6.68652344 C116.087565,6.95540499 116.041992,7.20149628 116.041992,7.42480469 Z M126.118164,3.78808594 C127.544603,3.78808594 128.652014,4.46483698 129.44043,5.81835938 C129.713869,6.35156517 129.850586,6.9280568 129.850586,7.54785156 L129.850586,7.69824219 C129.768554,8.16308826 129.538413,8.39550781 129.160156,8.39550781 L124.040039,8.39550781 C124.172201,8.84668194 124.543617,9.23632648 125.154297,9.56445312 C125.514325,9.70117256 125.851561,9.76953125 126.166016,9.76953125 C126.530601,9.76953125 126.968096,9.64192836 127.478516,9.38671875 L127.697266,9.38671875 C128.125653,9.46875041 128.339844,9.69205547 128.339844,10.0566406 L128.339844,10.1318359 C128.339844,10.669599 127.663093,11.0273429 126.30957,11.2050781 L126.118164,11.2050781 C124.787428,11.2050781 123.721033,10.583014 122.918945,9.33886719 C122.595376,8.75097362 122.433594,8.1357454 122.433594,7.49316406 C122.433594,6.13508436 123.073887,5.05501703 124.354492,4.25292969 C124.978844,3.9430323 125.566729,3.78808594 126.118164,3.78808594 Z M123.916992,6.98730469 L128.394531,6.98730469 C128.394531,6.81868405 128.205406,6.47916922 127.827148,5.96875 C127.316729,5.48567467 126.815432,5.24414062 126.323242,5.24414062 L126.042969,5.24414062 C125.295569,5.24414062 124.680341,5.61327756 124.197266,6.3515625 C124.028645,6.64323063 123.935221,6.85514257 123.916992,6.98730469 Z M131.450195,3.80175781 C131.892255,3.91569067 132.113281,4.12988124 132.113281,4.44433594 L132.113281,4.546875 C132.660159,4.05012772 133.398433,3.80175781 134.328125,3.80175781 C135.348963,3.80175781 136.253577,4.2255817 137.041992,5.07324219 C137.616214,5.78418324 137.90332,6.53385022 137.90332,7.32226562 L137.90332,10.5693359 C137.90332,10.9065772 137.680015,11.1184892 137.233398,11.2050781 L137.165039,11.2050781 C136.718422,11.1230465 136.495117,10.8929055 136.495117,10.5146484 L136.495117,7.65722656 C136.495117,6.4723248 135.991541,5.69531435 134.984375,5.32617188 C134.73828,5.26236947 134.519532,5.23046875 134.328125,5.23046875 L134.25293,5.23046875 C133.409827,5.23046875 132.755862,5.670243 132.291016,6.54980469 C132.172525,6.80957161 132.113281,7.24706724 132.113281,7.86230469 L132.113281,10.5419922 C132.113281,10.9065773 131.889976,11.1276038 131.443359,11.2050781 L131.395508,11.2050781 C131.021808,11.2050781 130.791667,10.9726586 130.705078,10.5078125 L130.705078,4.58105469 C130.759766,4.06152084 131.008136,3.80175781 131.450195,3.80175781 Z M140.029297,0.9375 L140.111328,0.9375 C140.494143,0.9375 140.728841,1.15624781 140.81543,1.59375 L140.81543,8.16308594 C140.706054,8.61426007 140.455406,8.83984375 140.063477,8.83984375 C139.571287,8.76692672 139.325195,8.54134304 139.325195,8.16308594 L139.325195,1.56640625 C139.411784,1.14713332 139.646482,0.9375 140.029297,0.9375 Z M139.967773,9.38671875 L140.036133,9.38671875 C140.633141,9.47330772 140.931641,9.75129974 140.931641,10.2207031 L140.931641,10.3710938 C140.931641,10.8040386 140.653649,11.0820306 140.097656,11.2050781 L139.995117,11.2050781 C139.521156,11.2050781 139.224935,10.9020213 139.106445,10.2958984 C139.229493,9.68977562 139.516599,9.38671875 139.967773,9.38671875 Z" id="Join-US-in-Copenhage" fill="#FFFFFF" opacity="0.511265851"></path>
            <path d="M38.828125,62.6748047 C39.4023466,62.8212898 39.6894531,63.0966777 39.6894531,63.5009766 L39.6894531,63.6416016 C40.4160193,62.9970671 41.3622989,62.6748047 42.5283203,62.6748047 C43.1552766,62.6748047 43.8349573,62.8330062 44.5673828,63.1494141 C44.8193372,63.4072279 44.9453125,63.6562488 44.9453125,63.8964844 L44.9453125,63.9580078 C44.8457026,64.5322294 44.5498071,64.8193359 44.0576172,64.8193359 L43.9785156,64.8193359 C43.374997,64.6259756 42.9355483,64.5292969 42.6601562,64.5292969 L42.4667969,64.5292969 C41.2831972,64.5292969 40.4160184,65.1445251 39.8652344,66.375 C39.7480463,66.6972672 39.6894531,67.0722635 39.6894531,67.5 L39.6894531,71.4023438 C39.6894531,71.8769555 39.3964873,72.164062 38.8105469,72.2636719 L38.7578125,72.2636719 C38.2773413,72.2636719 37.9814459,71.9648467 37.8701172,71.3671875 L37.8701172,63.6855469 C37.94043,63.0117154 38.2597628,62.6748047 38.828125,62.6748047 Z M49.8671875,62.7275391 C51.701181,62.7275391 53.1249949,63.5976475 54.1386719,65.3378906 C54.4902361,66.0234409 54.6660156,66.7646445 54.6660156,67.5615234 L54.6660156,67.7548828 C54.5605463,68.3525421 54.2646509,68.6513672 53.7783203,68.6513672 L47.1953125,68.6513672 C47.3652352,69.2314482 47.8427695,69.7324198 48.6279297,70.1542969 C49.0908226,70.330079 49.524412,70.4179688 49.9287109,70.4179688 C50.3974633,70.4179688 50.9599577,70.2539079 51.6162109,69.9257812 L51.8974609,69.9257812 C52.4482449,70.0312505 52.7236328,70.318357 52.7236328,70.7871094 L52.7236328,70.8837891 C52.7236328,71.5751988 51.8535243,72.0351551 50.1132812,72.2636719 L49.8671875,72.2636719 C48.1562414,72.2636719 46.7851614,71.4638752 45.7539062,69.8642578 C45.3378885,69.1083947 45.1298828,68.3173869 45.1298828,67.4912109 C45.1298828,65.7451085 45.9531168,64.3564505 47.5996094,63.3251953 C48.4023478,62.9267558 49.1581996,62.7275391 49.8671875,62.7275391 Z M47.0371094,66.8408203 L52.7939453,66.8408203 C52.7939453,66.6240224 52.5507837,66.1875033 52.0644531,65.53125 C51.4081998,64.9101531 50.763675,64.5996094 50.1308594,64.5996094 L49.7705078,64.5996094 C48.8095655,64.5996094 48.0185578,65.074214 47.3974609,66.0234375 C47.180663,66.3984394 47.060547,66.6708976 47.0371094,66.8408203 Z M59.8603516,62.7626953 C61.272468,62.7626953 62.4941355,63.348627 63.5253906,64.5205078 C64.2402379,65.4990283 64.5976562,66.42773 64.5976562,67.3066406 L64.5625,68.4140625 L64.5625,72.3603516 C64.5625,73.1865276 63.9589904,74.0624954 62.7519531,74.9882812 C61.8320267,75.5917999 60.8681691,75.8935547 59.8603516,75.8935547 C58.1376867,75.8935547 56.7138728,75.1259842 55.5888672,73.5908203 C55.3662098,73.2158184 55.2548828,72.9492195 55.2548828,72.7910156 L55.2548828,72.6943359 C55.2548828,72.2665994 55.5302707,71.9912116 56.0810547,71.8681641 L56.2041016,71.8681641 C56.6201193,71.8681641 56.9453113,72.1845671 57.1796875,72.8173828 C57.8945348,73.7138717 58.7880806,74.1621094 59.8603516,74.1621094 C61.1435611,74.1621094 62.104489,73.5878964 62.7431641,72.4394531 L62.7958984,72.0878906 L62.7958984,71.2353516 C62.0751917,71.9033237 61.1289121,72.2373047 59.9570312,72.2373047 L59.6933594,72.2373047 C58.4160092,72.2373047 57.2294977,71.6396544 56.1337891,70.4443359 C55.4599576,69.4951124 55.1230469,68.5136769 55.1230469,67.5 C55.1230469,65.9589767 55.8027276,64.6699271 57.1621094,63.6328125 C58.0293012,63.0527315 58.9287063,62.7626953 59.8603516,62.7626953 Z M56.9248047,67.4033203 L56.9248047,67.5615234 C56.9248047,68.7802795 57.5663998,69.6884736 58.8496094,70.2861328 C59.1835954,70.3857427 59.4882799,70.4355469 59.7636719,70.4355469 L59.9570312,70.4355469 C61.1464903,70.4355469 62.0458954,69.7968814 62.6552734,68.5195312 C62.7490239,68.13867 62.7958984,67.8427745 62.7958984,67.6318359 L62.7958984,67.4296875 C62.7958984,66.2167908 62.148444,65.3085968 60.8535156,64.7050781 C60.4492167,64.6113277 60.138673,64.5644531 59.921875,64.5644531 L59.7988281,64.5644531 C58.6093691,64.5644531 57.709964,65.1943296 57.1005859,66.4541016 C56.9833979,66.7998064 56.9248047,67.1162095 56.9248047,67.4033203 Z M66.9970703,60.4335938 C67.5771513,60.5800789 67.8671875,60.8554667 67.8671875,61.2597656 L67.8671875,61.453125 C67.8671875,61.9160179 67.5537141,62.1914058 66.9267578,62.2792969 C66.4755837,62.2792969 66.1796882,61.9716828 66.0390625,61.3564453 C66.16211,60.7412079 66.4814427,60.4335938 66.9970703,60.4335938 Z M66.9970703,62.6835938 C67.5771513,62.8300789 67.8671875,63.1054667 67.8671875,63.5097656 L67.8671875,71.4023438 C67.8671875,71.8769555 67.5742217,72.164062 66.9882812,72.2636719 L66.9355469,72.2636719 C66.4550757,72.2636719 66.1591802,71.9648467 66.0478516,71.3671875 L66.0478516,63.6855469 C66.1181644,63.0175748 66.4345675,62.6835938 66.9970703,62.6835938 Z M75.1181641,69.1259766 C75.1123047,69.0087885 74.9921887,68.9384767 74.7578125,68.9150391 C71.7929539,68.2529264 70.2109385,67.8310556 70.0117188,67.6494141 C69.4082001,67.1923805 69.1064453,66.6269565 69.1064453,65.953125 C69.1064453,65.0390579 69.7451108,64.1718791 71.0224609,63.3515625 C71.7255895,62.98242 72.4199184,62.7978516 73.1054688,62.7978516 C74.7109455,62.7978516 75.9794875,63.5390551 76.9111328,65.0214844 L76.9462891,65.3466797 L76.9462891,65.3994141 C76.9462891,65.8974634 76.6474639,66.1904292 76.0498047,66.2783203 C75.6513652,66.2783203 75.2822283,65.9970731 74.9423828,65.4345703 C74.409177,64.9130833 73.7968785,64.6523438 73.1054688,64.6523438 C72.2031205,64.6523438 71.4970729,65.0742145 70.9873047,65.9179688 L70.9697266,66.0058594 C70.9697266,66.1230475 71.2216772,66.2021482 71.7255859,66.2431641 C74.2451298,66.8525421 75.6367174,67.2070308 75.9003906,67.3066406 C76.6210974,67.7812524 76.9814453,68.3818323 76.9814453,69.1083984 L76.9814453,69.1347656 C76.9814453,70.1367238 76.272468,71.0419881 74.8544922,71.8505859 C74.2392547,72.1259779 73.5918003,72.2636719 72.9121094,72.2636719 C71.5058523,72.2636719 70.3193408,71.6074284 69.3525391,70.2949219 C69.2294916,70.1191397 69.1679688,69.9492196 69.1679688,69.7851562 L69.1679688,69.5917969 C69.1679688,69.1171851 69.4902312,68.8447269 70.1347656,68.7744141 C70.4453141,68.7744141 70.8115213,69.0761689 71.2333984,69.6796875 C71.749026,70.1601587 72.3525356,70.4003906 73.0439453,70.4003906 C73.8642619,70.4003906 74.5439426,70.0166054 75.0830078,69.2490234 L75.1181641,69.1259766 Z M79.9609375,59.5195312 L80.1103516,59.5195312 C80.6552762,59.6367193 80.9277344,59.8974589 80.9277344,60.3017578 L80.9277344,62.9384766 L81.9736328,62.9384766 L82.2636719,62.9033203 C82.714846,62.9033203 83.0107415,63.1962861 83.1513672,63.7822266 C83.1513672,64.2216819 82.8935573,64.5351553 82.3779297,64.7226562 L81.8505859,64.6875 L80.9277344,64.6875 L80.9277344,69.1611328 C80.9277344,69.8642613 81.1269511,70.2832025 81.5253906,70.4179688 L82.2197266,70.4794922 L82.5712891,70.4794922 C82.9990256,70.4794922 83.2685541,70.763669 83.3798828,71.3320312 L83.3798828,71.4111328 C83.2802729,71.979495 82.9873071,72.2636719 82.5009766,72.2636719 L81.8242188,72.2636719 C80.6874943,72.2636719 79.8437528,71.6484437 79.2929688,70.4179688 C79.1933589,70.1074203 79.1435547,69.7529317 79.1435547,69.3544922 L79.1435547,64.6875 L78.7744141,64.6875 L78.2119141,64.7226562 C77.6962865,64.5410147 77.4384766,64.2304709 77.4384766,63.7910156 C77.5380864,63.2226534 77.7314439,62.9384766 78.0185547,62.9384766 L78.0185547,62.8769531 L78.625,62.9384766 L79.1435547,62.9384766 L79.1435547,60.4775391 C79.2138675,59.838864 79.4863258,59.5195312 79.9609375,59.5195312 Z M88.2490234,62.7275391 C90.083017,62.7275391 91.5068309,63.5976475 92.5205078,65.3378906 C92.8720721,66.0234409 93.0478516,66.7646445 93.0478516,67.5615234 L93.0478516,67.7548828 C92.9423823,68.3525421 92.6464868,68.6513672 92.1601562,68.6513672 L85.5771484,68.6513672 C85.7470712,69.2314482 86.2246054,69.7324198 87.0097656,70.1542969 C87.4726586,70.330079 87.906248,70.4179688 88.3105469,70.4179688 C88.7792992,70.4179688 89.3417936,70.2539079 89.9980469,69.9257812 L90.2792969,69.9257812 C90.8300809,70.0312505 91.1054688,70.318357 91.1054688,70.7871094 L91.1054688,70.8837891 C91.1054688,71.5751988 90.2353603,72.0351551 88.4951172,72.2636719 L88.2490234,72.2636719 C86.5380774,72.2636719 85.1669973,71.4638752 84.1357422,69.8642578 C83.7197245,69.1083947 83.5117188,68.3173869 83.5117188,67.4912109 C83.5117188,65.7451085 84.3349527,64.3564505 85.9814453,63.3251953 C86.7841837,62.9267558 87.5400355,62.7275391 88.2490234,62.7275391 Z M85.4189453,66.8408203 L91.1757812,66.8408203 C91.1757812,66.6240224 90.9326196,66.1875033 90.4462891,65.53125 C89.7900358,64.9101531 89.145511,64.5996094 88.5126953,64.5996094 L88.1523438,64.5996094 C87.1914014,64.5996094 86.4003937,65.074214 85.7792969,66.0234375 C85.5624989,66.3984394 85.4423829,66.6708976 85.4189453,66.8408203 Z M95.2890625,62.6748047 C95.8632841,62.8212898 96.1503906,63.0966777 96.1503906,63.5009766 L96.1503906,63.6416016 C96.8769568,62.9970671 97.8232364,62.6748047 98.9892578,62.6748047 C99.6162141,62.6748047 100.295895,62.8330062 101.02832,63.1494141 C101.280275,63.4072279 101.40625,63.6562488 101.40625,63.8964844 L101.40625,63.9580078 C101.30664,64.5322294 101.010745,64.8193359 100.518555,64.8193359 L100.439453,64.8193359 C99.8359345,64.6259756 99.3964858,64.5292969 99.1210938,64.5292969 L98.9277344,64.5292969 C97.7441347,64.5292969 96.8769559,65.1445251 96.3261719,66.375 C96.2089838,66.6972672 96.1503906,67.0722635 96.1503906,67.5 L96.1503906,71.4023438 C96.1503906,71.8769555 95.8574248,72.164062 95.2714844,72.2636719 L95.21875,72.2636719 C94.7382788,72.2636719 94.4423834,71.9648467 94.3310547,71.3671875 L94.3310547,63.6855469 C94.4013675,63.0117154 94.7207003,62.6748047 95.2890625,62.6748047 Z M107.699219,62.7451172 C108.267581,62.8916023 108.551758,63.1669902 108.551758,63.5712891 L108.551758,63.703125 C109.254886,63.0644499 110.204096,62.7451172 111.399414,62.7451172 C112.711921,62.7451172 113.874995,63.2900336 114.888672,64.3798828 C115.626957,65.2939499 115.996094,66.2578074 115.996094,67.2714844 L115.996094,71.4462891 C115.996094,71.879885 115.708987,72.1523432 115.134766,72.2636719 L115.046875,72.2636719 C114.472653,72.1582026 114.185547,71.8623071 114.185547,71.3759766 L114.185547,67.7021484 C114.185547,66.1787033 113.538092,65.1796899 112.243164,64.7050781 C111.926756,64.6230465 111.645509,64.5820312 111.399414,64.5820312 L111.302734,64.5820312 C110.218745,64.5820312 109.377933,65.1474553 108.780273,66.2783203 C108.627929,66.6123064 108.551758,67.1748007 108.551758,67.9658203 L108.551758,71.4111328 C108.551758,71.8798852 108.264651,72.164062 107.69043,72.2636719 L107.628906,72.2636719 C107.148435,72.2636719 106.85254,71.9648467 106.741211,71.3671875 L106.741211,63.7470703 C106.811524,63.0790982 107.130857,62.7451172 107.699219,62.7451172 Z M121.313477,62.7890625 C122.538092,62.7890625 123.645503,63.2519485 124.635742,64.1777344 C125.579106,65.1679737 126.050781,66.2841735 126.050781,67.5263672 C126.050781,69.3017667 125.212899,70.696284 123.537109,71.7099609 C122.804684,72.0791034 122.095707,72.2636719 121.410156,72.2636719 L121.146484,72.2636719 C119.869134,72.2636719 118.682623,71.6660216 117.586914,70.4707031 C116.913083,69.5214796 116.576172,68.5400441 116.576172,67.5263672 C116.576172,65.9853439 117.255853,64.6962942 118.615234,63.6591797 C119.482426,63.0790987 120.381831,62.7890625 121.313477,62.7890625 Z M118.413086,67.4296875 L118.413086,67.5878906 C118.413086,68.6835992 118.943354,69.5332001 120.003906,70.1367188 C120.378908,70.3300791 120.783201,70.4267578 121.216797,70.4267578 L121.410156,70.4267578 C122.541021,70.4267578 123.4082,69.8378965 124.011719,68.6601562 C124.146485,68.2968732 124.213867,67.9394549 124.213867,67.5878906 L124.213867,67.4296875 C124.213867,66.5214798 123.794926,65.7539094 122.957031,65.1269531 C122.470701,64.7929671 121.911136,64.6259766 121.27832,64.6259766 C120.041986,64.6259766 119.133792,65.2763607 118.553711,66.5771484 C118.45996,66.8818375 118.413086,67.1660143 118.413086,67.4296875 Z M132.124023,66.7265625 L130.47168,71.8330078 C130.254882,72.1201186 130.002931,72.2636719 129.71582,72.2636719 L129.689453,72.2636719 C129.255857,72.2636719 128.954102,72.0087916 128.78418,71.4990234 L126.34082,63.7998047 C126.463868,63.1787078 126.771482,62.8681641 127.263672,62.8681641 C127.808596,62.8681641 128.171874,63.3691356 128.353516,64.3710938 L129.698242,68.484375 C130.770513,65.0859205 131.359374,63.316407 131.464844,63.1757812 C131.669923,62.9999991 131.892577,62.8974611 132.132812,62.8681641 C132.677737,62.8681641 133.026366,63.2929645 133.178711,64.1425781 L134.584961,68.484375 C135.604497,65.2617026 136.172851,63.5244153 136.290039,63.2724609 C136.541993,63.0029283 136.796874,62.8681641 137.054688,62.8681641 C137.646487,62.9853521 137.942383,63.3046849 137.942383,63.8261719 L135.349609,71.8945312 C135.085936,72.1406262 134.836915,72.2636719 134.602539,72.2636719 L134.576172,72.2636719 C134.031247,72.2636719 133.66504,71.7773486 133.477539,70.8046875 C132.815426,68.7949118 132.364259,67.4355504 132.124023,66.7265625 Z" id="register-now" fill="#FFFFFF"></path>
            <path d="M175.947754,31.3242188 C176.968267,31.3242188 177.891109,31.7099571 178.716309,32.4814453 C179.502445,33.3066448 179.895508,34.2368112 179.895508,35.2719727 C179.895508,36.7514722 179.197273,37.91357 177.800781,38.7583008 C177.190427,39.0659195 176.599612,39.2197266 176.02832,39.2197266 L175.808594,39.2197266 C174.744135,39.2197266 173.755376,38.7216847 172.842285,37.7255859 C172.280759,36.9345664 172,36.1167034 172,35.2719727 C172,33.9877865 172.566401,32.9135785 173.699219,32.0493164 C174.421879,31.5659156 175.171383,31.3242188 175.947754,31.3242188 Z M173.530762,35.1914062 L173.530762,35.3232422 C173.530762,36.2363327 173.972652,36.9443334 174.856445,37.4472656 C175.168947,37.6083992 175.505858,37.6889648 175.867188,37.6889648 L176.02832,37.6889648 C176.970708,37.6889648 177.693357,37.1982471 178.196289,36.2167969 C178.308594,35.914061 178.364746,35.6162124 178.364746,35.3232422 L178.364746,35.1914062 C178.364746,34.4345665 178.015628,33.7949245 177.317383,33.2724609 C176.912107,32.9941392 176.445803,32.8549805 175.918457,32.8549805 C174.888178,32.8549805 174.13135,33.3969672 173.647949,34.480957 C173.569824,34.7348646 173.530762,34.9716786 173.530762,35.1914062 Z M184.114258,31.265625 C185.139654,31.265625 186.077144,31.6562461 186.926758,32.4375 C187.009766,32.5888679 187.05127,32.7280267 187.05127,32.8549805 L187.05127,32.90625 C186.963378,33.384768 186.716799,33.6240234 186.311523,33.6240234 L186.282227,33.6240234 C186.101562,33.6240234 185.769534,33.4409198 185.286133,33.074707 C184.924803,32.8891592 184.561037,32.7963867 184.194824,32.7963867 L184.033691,32.7963867 C183.062007,32.7963867 182.32471,33.3090769 181.821777,34.3344727 C181.704589,34.6811541 181.645996,34.993651 181.645996,35.2719727 C181.645996,36.2631885 182.161128,37.0175755 183.191406,37.5351562 C183.494142,37.6523443 183.821287,37.7109375 184.172852,37.7109375 C184.749026,37.7109375 185.334958,37.4594752 185.930664,36.956543 L186.230957,36.890625 L186.34082,36.890625 C186.731447,36.890625 186.968261,37.1298804 187.05127,37.6083984 L187.05127,37.6523438 C187.05127,38.1308618 186.411627,38.6142554 185.132324,39.1025391 C184.7124,39.1806645 184.399903,39.2197266 184.194824,39.2197266 L183.975098,39.2197266 C182.900874,39.2197266 181.90479,38.7168019 180.986816,37.7109375 C180.420407,36.9150351 180.137207,36.0922894 180.137207,35.2426758 C180.137207,33.948724 180.70849,32.8647505 181.851074,31.9907227 C182.578617,31.5073218 183.333004,31.265625 184.114258,31.265625 Z M189.578125,28.5996094 L189.702637,28.5996094 C190.156741,28.6972661 190.383789,28.9145491 190.383789,29.2514648 L190.383789,31.4487305 L191.255371,31.4487305 L191.49707,31.4194336 C191.873049,31.4194336 192.119628,31.6635718 192.236816,32.1518555 C192.236816,32.5180682 192.021975,32.7792961 191.592285,32.9355469 L191.152832,32.90625 L190.383789,32.90625 L190.383789,36.6342773 C190.383789,37.2202178 190.549803,37.5693354 190.881836,37.6816406 L191.460449,37.7329102 L191.753418,37.7329102 C192.109865,37.7329102 192.334472,37.9697242 192.427246,38.4433594 L192.427246,38.5092773 C192.344238,38.9829125 192.1001,39.2197266 191.694824,39.2197266 L191.130859,39.2197266 C190.183589,39.2197266 189.480471,38.7070364 189.021484,37.6816406 C188.938476,37.4228503 188.896973,37.1274431 188.896973,36.7954102 L188.896973,32.90625 L188.589355,32.90625 L188.120605,32.9355469 C187.690916,32.7841789 187.476074,32.5253925 187.476074,32.1591797 C187.559082,31.6855445 187.720214,31.4487305 187.959473,31.4487305 L187.959473,31.3974609 L188.464844,31.4487305 L188.896973,31.4487305 L188.896973,29.3979492 C188.955567,28.86572 189.182615,28.5996094 189.578125,28.5996094 Z M196.484863,31.3242188 C197.505376,31.3242188 198.428219,31.7099571 199.253418,32.4814453 C200.039555,33.3066448 200.432617,34.2368112 200.432617,35.2719727 C200.432617,36.7514722 199.734382,37.91357 198.337891,38.7583008 C197.727536,39.0659195 197.136722,39.2197266 196.56543,39.2197266 L196.345703,39.2197266 C195.281245,39.2197266 194.292485,38.7216847 193.379395,37.7255859 C192.817868,36.9345664 192.537109,36.1167034 192.537109,35.2719727 C192.537109,33.9877865 193.10351,32.9135785 194.236328,32.0493164 C194.958988,31.5659156 195.708492,31.3242188 196.484863,31.3242188 Z M194.067871,35.1914062 L194.067871,35.3232422 C194.067871,36.2363327 194.509761,36.9443334 195.393555,37.4472656 C195.706056,37.6083992 196.042967,37.6889648 196.404297,37.6889648 L196.56543,37.6889648 C197.507817,37.6889648 198.230466,37.1982471 198.733398,36.2167969 C198.845704,35.914061 198.901855,35.6162124 198.901855,35.3232422 L198.901855,35.1914062 C198.901855,34.4345665 198.552738,33.7949245 197.854492,33.2724609 C197.449217,32.9941392 196.982913,32.8549805 196.455566,32.8549805 C195.425288,32.8549805 194.668459,33.3969672 194.185059,34.480957 C194.106933,34.7348646 194.067871,34.9716786 194.067871,35.1914062 Z M201.692383,28.2919922 L201.816895,28.2919922 C202.280764,28.3945318 202.512695,28.626463 202.512695,28.987793 L202.512695,32.0639648 C203.113284,31.4877901 203.945795,31.199707 205.010254,31.199707 C206.040532,31.199707 206.975582,31.5903281 207.81543,32.371582 C208.616215,33.21143 209.016602,34.1562448 209.016602,35.2060547 C209.016602,36.7099685 208.306159,37.8915973 206.885254,38.7509766 C206.265134,39.0634781 205.666995,39.2197266 205.09082,39.2197266 L204.871094,39.2197266 C203.787104,39.2197266 202.781255,38.7143605 201.853516,37.7036133 C201.282224,36.9418907 200.996582,36.0459036 200.996582,35.015625 L200.996582,28.987793 C200.996582,28.626463 201.228513,28.3945318 201.692383,28.2919922 Z M202.512695,35.1254883 L202.512695,35.2646484 C202.512695,36.2998099 203.057123,37.0712865 204.145996,37.5791016 C204.429201,37.6621098 204.687987,37.7036133 204.922363,37.7036133 L205.09082,37.7036133 C206.096685,37.7036133 206.858396,37.1616265 207.375977,36.0776367 C207.458985,35.7504866 207.500488,35.4990243 207.500488,35.3232422 L207.500488,35.1547852 C207.500488,34.1245066 206.948736,33.3530299 205.845215,32.840332 C205.508299,32.7573238 205.247071,32.7158203 205.061523,32.7158203 L204.95166,32.7158203 C203.945796,32.7158203 203.184085,33.2504829 202.666504,34.3198242 C202.563964,34.6176773 202.512695,34.8862293 202.512695,35.1254883 Z M213.418457,31.2729492 C214.946785,31.2729492 216.133297,31.9980396 216.978027,33.4482422 C217.270998,34.0195341 217.41748,34.6372037 217.41748,35.3012695 L217.41748,35.4624023 C217.329589,35.9604517 217.08301,36.2094727 216.677734,36.2094727 L211.191895,36.2094727 C211.333497,36.6928735 211.731442,37.1103498 212.385742,37.4619141 C212.771486,37.6083992 213.132811,37.6816406 213.469727,37.6816406 C213.860354,37.6816406 214.329099,37.5449232 214.875977,37.2714844 L215.110352,37.2714844 C215.569338,37.3593754 215.798828,37.5986309 215.798828,37.9892578 L215.798828,38.0698242 C215.798828,38.645999 215.073738,39.0292959 213.623535,39.2197266 L213.418457,39.2197266 C211.992669,39.2197266 210.850102,38.5532293 209.990723,37.2202148 C209.644041,36.5903289 209.470703,35.9311558 209.470703,35.2426758 C209.470703,33.7875904 210.156731,32.6303754 211.528809,31.7709961 C212.197757,31.4389632 212.827634,31.2729492 213.418457,31.2729492 Z M211.060059,34.7006836 L215.857422,34.7006836 C215.857422,34.5200186 215.654787,34.1562527 215.249512,33.609375 C214.702634,33.0917943 214.16553,32.8330078 213.638184,32.8330078 L213.337891,32.8330078 C212.537105,32.8330078 211.877932,33.2285117 211.360352,34.0195312 C211.179687,34.3320328 211.07959,34.5590813 211.060059,34.7006836 Z M219.285156,31.2290039 C219.763674,31.3510748 220.00293,31.5805647 220.00293,31.9174805 L220.00293,32.034668 C220.608401,31.4975559 221.396968,31.2290039 222.368652,31.2290039 C222.891116,31.2290039 223.457516,31.3608385 224.067871,31.6245117 C224.277833,31.8393565 224.382812,32.046874 224.382812,32.2470703 L224.382812,32.2983398 C224.299804,32.7768579 224.053225,33.0161133 223.643066,33.0161133 L223.577148,33.0161133 C223.074216,32.8549797 222.708009,32.7744141 222.478516,32.7744141 L222.317383,32.7744141 C221.33105,32.7744141 220.608401,33.2871042 220.149414,34.3125 C220.051757,34.581056 220.00293,34.8935529 220.00293,35.25 L220.00293,38.5019531 C220.00293,38.8974629 219.758792,39.1367183 219.270508,39.2197266 L219.226562,39.2197266 C218.82617,39.2197266 218.57959,38.9707056 218.486816,38.4726562 L218.486816,32.0712891 C218.54541,31.5097628 218.811521,31.2290039 219.285156,31.2290039 Z M230.681641,28.2553711 L230.820801,28.2553711 C231.28467,28.3579107 231.516602,28.5898419 231.516602,28.9511719 L231.516602,38.4946289 C231.42871,38.9780298 231.17969,39.2197266 230.769531,39.2197266 L230.718262,39.2197266 C230.234861,39.117187 229.993164,38.8876971 229.993164,38.53125 L229.993164,30.0644531 C229.666014,30.1718755 229.414552,30.2255859 229.23877,30.2255859 C228.892088,30.2255859 228.662598,29.9936547 228.550293,29.5297852 L228.550293,29.3613281 C228.550293,28.9707012 228.977535,28.6875009 229.832031,28.5117188 L230.681641,28.2553711 Z M233.962891,35.7333984 L233.962891,35.9897461 C233.962891,36.6586948 234.348629,37.1884746 235.120117,37.5791016 C235.339845,37.6425784 235.564452,37.6840819 235.793945,37.7036133 C236.619145,37.7036133 237.207518,37.2690473 237.559082,36.3999023 L237.632324,35.9238281 L237.632324,35.8286133 C237.632324,34.9643511 237.16602,34.3735367 236.233398,34.0561523 L235.75,34.0048828 C234.949215,34.0048828 234.368166,34.4467729 234.006836,35.3305664 L233.962891,35.7333984 Z M235.640137,32.4887695 L235.918457,32.4887695 C237.002447,32.4887695 237.920406,33.0283149 238.672363,34.1074219 C239.009279,34.703128 239.177734,35.2841769 239.177734,35.8505859 C239.177734,36.9687556 238.667486,37.9038048 237.646973,38.6557617 C237.065915,39.0317402 236.462894,39.2197266 235.837891,39.2197266 L235.69873,39.2197266 C234.624506,39.2197266 233.699223,38.6875053 232.922852,37.6230469 C232.585936,37.0175751 232.41748,36.4267607 232.41748,35.8505859 C232.41748,35.0937462 232.688474,34.3540075 233.230469,33.6313477 L236.233398,28.4604492 C236.453126,28.3286126 236.643554,28.2626953 236.804688,28.2626953 C237.1709,28.2626953 237.410156,28.5141576 237.522461,29.0170898 C237.522461,29.222169 237.29053,29.6909143 236.82666,30.4233398 L235.640137,32.4887695 Z M240.664551,33.8876953 L243.594238,33.8876953 C243.999514,33.8876953 244.2583,34.1562473 244.370605,34.6933594 C244.248535,35.2109401 243.989748,35.4697266 243.594238,35.4697266 L240.664551,35.4697266 C240.21533,35.4697266 239.954102,35.1865263 239.880859,34.6201172 C240.017579,34.1318335 240.278807,33.8876953 240.664551,33.8876953 Z M246.714355,28.2553711 L246.853516,28.2553711 C247.317385,28.3579107 247.549316,28.5898419 247.549316,28.9511719 L247.549316,38.4946289 C247.461425,38.9780298 247.212404,39.2197266 246.802246,39.2197266 L246.750977,39.2197266 C246.267576,39.117187 246.025879,38.8876971 246.025879,38.53125 L246.025879,30.0644531 C245.698729,30.1718755 245.447267,30.2255859 245.271484,30.2255859 C244.924803,30.2255859 244.695313,29.9936547 244.583008,29.5297852 L244.583008,29.3613281 C244.583008,28.9707012 245.01025,28.6875009 245.864746,28.5117188 L246.714355,28.2553711 Z M251.943848,28.2407227 C252.852055,28.2407227 253.621091,28.6411093 254.250977,29.4418945 C254.612306,29.9350611 254.792969,30.4770478 254.792969,31.0678711 L254.792969,31.2070312 C254.792969,32.0029337 254.504886,32.6621068 253.928711,33.1845703 C254.802739,33.8193391 255.239746,34.7031193 255.239746,35.8359375 C255.239746,36.95899 254.727056,37.898922 253.70166,38.6557617 C253.120603,39.0317402 252.51514,39.2197266 251.885254,39.2197266 L251.746094,39.2197266 C250.666987,39.2197266 249.73682,38.6875053 248.955566,37.6230469 C248.618651,37.0126923 248.450195,36.4169951 248.450195,35.8359375 C248.450195,34.6640566 248.918941,33.7485385 249.856445,33.0893555 C249.553709,32.8549793 249.326661,32.4350616 249.175293,31.8295898 C249.116699,31.6782219 249.087402,31.4707044 249.087402,31.2070312 L249.087402,31.0678711 C249.087402,30.0620067 249.568355,29.2514679 250.530273,28.6362305 C251.008791,28.3725573 251.479978,28.2407227 251.943848,28.2407227 Z M250.61084,31.1923828 C250.61084,31.7783232 250.967282,32.1909168 251.680176,32.4301758 L251.951172,32.4594727 C252.571292,32.4594727 252.996093,32.1274447 253.225586,31.4633789 L253.276855,31.1118164 C253.276855,30.4623991 252.927738,30.0327159 252.229492,29.8227539 L251.907227,29.793457 C251.306638,29.793457 250.889161,30.1157194 250.654785,30.7602539 L250.61084,31.1923828 Z M249.973633,35.8286133 C249.973633,36.6928754 250.435054,37.2934553 251.35791,37.6303711 C251.470215,37.6743166 251.645995,37.6962891 251.885254,37.6962891 C252.700688,37.6962891 253.286619,37.242192 253.643066,36.3339844 L253.694336,35.9604492 L253.694336,35.6967773 C253.694336,35.0034145 253.286625,34.4638691 252.471191,34.078125 C252.246581,34.0097653 252.041505,33.9755859 251.855957,33.9755859 C250.967281,33.9755859 250.364259,34.429683 250.046875,35.3378906 L249.973633,35.8286133 Z" id="october-16-18" fill="#FFFFFF" opacity="0.511265851"></path>
        </g>
    </g>
</svg>