<svg fill="none" height="50" viewBox="0 0 53 50" width="53" xmlns="http://www.w3.org/2000/svg"><path d="m11.5 16c-6.35088 0-11.5 5.0745-11.5 11.3333 0 8.5 11.5 22.6667 11.5 22.6667s11.5-14.1667 11.5-22.6667c0-6.2588-5.1491-11.3333-11.5-11.3333zm0 17c-3.174 0-5.75-2.5387-5.75-5.6667s2.576-5.6666 5.75-5.6666 5.75 2.5386 5.75 5.6666-2.576 5.6667-5.75 5.6667z" fill="#2854a1"/><path d="m14 49h29.1169s8.8831-.5831 8.8831-7.5801-8.8831-6.997-8.8831-6.997h-11.3507s-6.9091 0-6.9091-6.9971c0-6.997 6.9091-6.4139 6.9091-6.4139h11.3507" stroke="#71cfff" stroke-dasharray="3 3" stroke-linecap="round" stroke-linejoin="round" stroke-width="2"/><path d="m44.5 0c-4.1419 0-7.5 3.2835-7.5 7.33333 0 5.49997 7.5 14.66667 7.5 14.66667s7.5-9.1667 7.5-14.66667c0-4.04983-3.3581-7.33333-7.5-7.33333zm0 11c-2.07 0-3.75-1.64267-3.75-3.66667s1.68-3.66666 3.75-3.66666 3.75 1.64266 3.75 3.66666-1.68 3.66667-3.75 3.66667z" fill="#2854a1"/></svg>