<?xml version="1.0" encoding="UTF-8" standalone="no"?>
<svg width="48px" height="48px" viewBox="0 0 48 48" version="1.1" xmlns="http://www.w3.org/2000/svg" xmlns:xlink="http://www.w3.org/1999/xlink">
    <!-- Generator: Sketch 42 (36781) - http://www.bohemiancoding.com/sketch -->
    <title>linux_48</title>
    <desc>Created with Sketch.</desc>
    <defs></defs>
    <g id="Page-1" stroke="none" stroke-width="1" fill="none" fill-rule="evenodd">
        <g id="linux_48">
            <rect id="Rectangle-33" x="0" y="0" width="48" height="48"></rect>
            <g transform="translate(8.000000, 6.000000)" id="Shape" fill="#2089C4">
                <g>
                    <path d="M31.104,28.654 C30.124,28.274 29.318,27.674 29.376,26.524 C29.433,25.377 28.511,24.617 28.511,24.617 C28.511,24.617 29.318,22.104 28.568,20.03 C27.819,17.952 25.343,14.624 23.442,12.113 C21.545,9.6 23.156,6.705 21.429,2.994 C19.699,-0.717 15.209,-0.499 12.789,1.084 C10.369,2.666 11.117,6.596 11.231,8.456 C11.346,10.31 11.283,11.631 11.06,12.111 C10.832,12.591 9.275,14.352 8.237,15.825 C7.2,17.298 6.452,20.357 5.7,21.612 C4.952,22.868 5.47,24.014 5.47,24.014 C5.47,24.014 4.952,24.176 4.548,24.999 C4.145,25.815 3.339,26.198 1.899,26.468 C0.459,26.74 0.459,27.618 0.804,28.6 C1.151,29.581 0.806,30.13 0.402,31.383 C-0.001,32.635 2.015,33.021 3.972,33.235 C5.932,33.456 8.12,34.657 9.965,34.875 C11.805,35.094 12.383,33.675 12.383,33.675 C12.383,33.675 14.456,33.235 16.643,33.185 C18.833,33.129 20.903,33.621 20.903,33.621 C20.903,33.621 21.306,34.494 22.055,34.875 C22.805,35.258 24.417,35.313 25.454,34.278 C26.492,33.238 29.256,31.93 30.81,31.11 C32.369,30.288 32.084,29.034 31.104,28.654 L31.104,28.654 Z M17.625,4.578 C18.613,4.578 19.41,5.507 19.41,6.651 C19.41,7.464 19.01,8.165 18.426,8.505 C18.277,8.443 18.121,8.38 17.954,8.313 C18.306,8.148 18.556,7.723 18.556,7.228 C18.556,6.584 18.135,6.06 17.614,6.06 C17.1,6.06 16.677,6.585 16.677,7.228 C16.677,7.467 16.737,7.697 16.84,7.884 C16.533,7.769 16.25,7.66 16.029,7.581 C15.9033021,7.28711259 15.8389864,6.97063847 15.84,6.651 C15.84,5.507 16.638,4.578 17.625,4.578 L17.625,4.578 Z M17.497,8.949 C17.991,9.111 18.54,9.415 18.483,9.717 C18.424,10.02 18.165,10.02 17.497,10.407 C16.827,10.791 15.378,11.643 14.915,11.698 C14.448,11.754 14.188,11.506 13.695,11.205 C13.201,10.902 12.272,10.184 12.506,9.801 C12.506,9.801 13.229,9.276 13.547,9.001 C13.867,8.725 14.68,8.067 15.174,8.152 C15.668,8.232 17.004,8.784 17.497,8.949 L17.497,8.949 Z M13.046,4.907 C13.824,4.907 14.457,5.786 14.457,6.87 C14.457,7.07 14.437,7.254 14.397,7.433 C14.207,7.494 14.014,7.593 13.827,7.743 C13.7389343,7.81152334 13.6525746,7.88221156 13.568,7.955 C13.691,7.735 13.74,7.424 13.685,7.095 C13.581,6.503 13.165,6.071 12.751,6.132 C12.34,6.2 12.091,6.732 12.196,7.328 C12.302,7.923 12.716,8.355 13.128,8.291 C13.1516771,8.28642647 13.1750537,8.28041534 13.198,8.273 C12.997,8.456 12.812,8.613 12.623,8.747 C12.053,8.496 11.636,7.751 11.636,6.869 C11.636,5.784 12.267,4.907 13.046,4.907 L13.046,4.907 Z M11.526,32.493 C11.342,33.276 10.375,33.844 10.375,33.844 C9.498,34.105 7.061,33.104 5.957,32.664 C4.854,32.23 2.045,32.095 1.677,31.708 C1.311,31.313 1.86,30.441 2.001,29.615 C2.137,28.782 1.725,28.261 1.861,27.693 C2.001,27.127 3.795,27.127 4.483,26.736 C5.175,26.341 5.313,25.207 5.865,24.903 C6.417,24.595 7.428,25.686 7.843,26.299 C8.256,26.907 9.821,29.526 10.465,30.18 C11.111,30.834 11.709,31.71 11.525,32.493 L11.526,32.493 Z M21.711,24.885 C21.545,25.655 21.545,28.435 21.545,28.435 C21.545,28.435 19.76,30.78 16.992,31.164 C14.228,31.548 12.845,31.272 12.845,31.272 L11.291,29.582 C11.291,29.582 12.498,29.415 12.327,28.269 C12.153,27.123 8.642,25.539 8.007,24.119 C7.376,22.701 7.893,20.297 8.7,19.095 C9.506,17.895 10.022,15.276 10.829,14.4 C11.636,13.53 12.267,11.673 11.979,10.852 C11.979,10.852 13.707,12.819 14.915,12.493 C16.124,12.165 18.835,10.253 19.235,10.583 C19.637,10.911 23.093,18.115 23.436,20.409 C23.783,22.701 23.205,24.447 23.205,24.447 C23.205,24.447 21.882,24.12 21.711,24.885 L21.711,24.885 Z M30.551,30.028 C30.012,30.497 27.019,31.642 26.121,32.536 C25.229,33.423 24.063,34.144 23.349,33.934 C22.631,33.72 22.005,32.789 22.319,31.43 C22.631,30.075 22.901,28.59 22.857,27.741 C22.812,26.892 22.631,25.744 22.857,25.575 C23.08,25.41 23.436,25.493 23.436,25.493 C23.436,25.493 23.26,27.102 24.287,27.53 C25.314,27.95 26.792,27.36 27.24,26.933 C27.69,26.511 28.003,25.875 28.003,25.875 C28.003,25.875 28.449,26.09 28.405,26.766 C28.36,27.444 28.716,28.422 29.391,28.76 C30.06,29.094 31.089,29.564 30.551,30.029 L30.551,30.028 Z"></path>
                </g>
            </g>
        </g>
    </g>
</svg>