<?xml version="1.0" encoding="UTF-8" standalone="no"?>
<svg width="48px" height="48px" viewBox="0 0 48 48" version="1.1" xmlns="http://www.w3.org/2000/svg" xmlns:xlink="http://www.w3.org/1999/xlink">
    <!-- Generator: Sketch 42 (36781) - http://www.bohemiancoding.com/sketch -->
    <title>machinen_48</title>
    <desc>Created with Sketch.</desc>
    <defs></defs>
    <g id="Page-1" stroke="none" stroke-width="1" fill="none" fill-rule="evenodd">
        <g id="machinen_48">
            <g id="machine_48-(1)">
                <g id="Capa_1">
                    <path d="M38,18 L20.8,13.5 C19.1,12.5 17.1,12 15,12 C8.4,12 3,17.4 3,24 C3,30.6 8.4,36 15,36 C17.1,36 19.1,35.4 20.8,34.5 L38,30 C41.3,30 44,27.3 44,24 C44,20.7 41.3,18 38,18 Z M16,33.9 C15.7,33.9 15.3,34 15,34 C9.5,34 5,29.5 5,24 C5,18.5 9.5,14 15,14 C15.3,14 15.7,14 16,14.1 C21,14.6 25,18.9 25,24 C25,29.2 21,33.4 16,33.9 Z M23.1,32.9 C25.5,30.7 27,27.6 27,24 C27,20.5 25.5,17.3 23.1,15.1 L35.8,18.4 C33.6,19.3 32.1,21.4 32.1,24 C32.1,26.6 33.6,28.7 35.8,29.6 L23.1,32.9 L23.1,32.9 Z M38,28 C37.7,28 37.3,27.9 37,27.9 C35.3,27.5 34,25.9 34,24 C34,22.1 35.3,20.6 37,20.1 C37.3,20 37.7,20 38,20 C40.2,20 42,21.8 42,24 C42,26.2 40.2,28 38,28 Z" id="Shape_1_" fill="#E0E4E7" fill-rule="nonzero"></path>
                    <path d="M16,20.1 C15.7,20 15.3,20 15,20 C12.8,20 11,21.8 11,24 C11,26.2 12.8,28 15,28 C15.3,28 15.7,27.9 16,27.9 C17.7,27.5 19,25.9 19,24 C19,22.1 17.7,20.6 16,20.1 Z M16,26.8 C15.7,26.9 15.4,27 15,27 C13.3,27 12,25.7 12,24 C12,22.3 13.3,21 15,21 C15.4,21 15.7,21.1 16,21.2 C17.2,21.6 18,22.7 18,24 C18,25.3 17.2,26.4 16,26.8 Z" id="Shape_2_" fill="#E0E4E7" fill-rule="nonzero"></path>
                    <polygon id="Rectangle-35" points="0 0 48 0 48 48 0 48"></polygon>
                </g>
            </g>
        </g>
    </g>
</svg>