<?xml version="1.0" encoding="utf-8"?>
<!-- Uploaded to SVGRepo https://www.svgrepo.com -->
<!-- License: CC0. Made by SVG Repo: https://www.svgrepo.com/svg/308679/launch-rocket-startup-space-exploration -->
<svg version="1.1" id="Layer_1" xmlns="http://www.w3.org/2000/svg" xmlns:xlink="http://www.w3.org/1999/xlink" x="0px" y="0px"
	 width="256px" height="256px" viewBox="0 0 256 256" enable-background="new 0 0 256 256" xml:space="preserve">
<path d="M147.137,108.752c-5.549-5.549-8.872-12.729-9.534-20.458l8.83-8.83c4.453-4.453,11.603-4.453,16.056,0l12.97,12.97
	c4.359,4.36,4.452,11.604,0.125,16.182l-9.504,9.504C158.931,117.175,152.322,113.937,147.137,108.752z M253.913,15.507
	c-5.542,45.567-25.574,89.371-60.195,123.992c-15.261,15.26-32.203,27.768-50.302,37.454v17.671c0,7.318-2.548,14.407-7.207,20.052
	l-32.368,39.214V192.16l-40.114-40.114H2l38.042-32.921c5.724-4.953,13.042-7.68,20.613-7.68h18.879
	c9.691-17.617,22.112-34.094,37.069-49.051c34.63-34.63,78.435-54.662,124.002-60.194C248.224,1.273,254.839,7.888,253.913,15.507z
	 M195.307,55.482c-15.243-12.678-38.344-11.584-52.352,2.432c-14.932,14.941-14.906,40.102,0.006,55.014
	c5.818,5.818,13.46,9.726,21.607,10.929c18.695,2.761,37.811-9.176,43.193-27.356C212.113,81.802,207.101,65.291,195.307,55.482z
	 M183.431,84.225c3.544-3.544,3.544-9.314,0-12.858c-3.544-3.544-9.314-3.544-12.858,0c-3.544,3.544-3.544,9.314,0,12.858
	C174.117,87.769,179.887,87.769,183.431,84.225z M89.222,195.699l-4.125-4.125c-0.521,0.747-1.097,1.466-1.764,2.132
	c-6.11,6.11-24.847,9.612-31.919,9.794c0.182-7.074,3.684-25.809,9.794-31.919c0.666-0.666,1.386-1.243,2.133-1.764l-4.006-4.006
	c-8.168-0.231-16.412,2.761-22.646,8.996c-12.023,12.022-18.914,48.89-19.271,62.808c13.918-0.357,50.786-7.248,62.808-19.271
	C86.459,212.111,89.453,203.868,89.222,195.699z"/>
</svg>
