<?xml version="1.0" encoding="UTF-8" standalone="no"?>
<svg width="48px" height="48px" viewBox="0 0 48 48" version="1.1" xmlns="http://www.w3.org/2000/svg" xmlns:xlink="http://www.w3.org/1999/xlink">
    <!-- Generator: Sketch 42 (36781) - http://www.bohemiancoding.com/sketch -->
    <title>UCP_48</title>
    <desc>Created with Sketch.</desc>
    <defs></defs>
    <g id="Page-1" stroke="none" stroke-width="1" fill="none" fill-rule="evenodd">
        <g id="UCP_48">
            <g id="Docker-UCP">
                <rect id="Boarder" opacity="0.200000003" x="0" y="0" width="48" height="48"></rect>
                <path d="M8.82842712,14.6568542 L11.6568542,17.4852814 L14.4852814,14.6568542 L11.6568542,11.8284271 L8.82842712,14.6568542 Z M12,9.34314575 L17.3137085,14.6568542 L12,19.9705627 L12,44 L11,44 L11,19.6568542 L6,14.6568542 L11,9.65685425 L11,4 L12,4 L12,9.34314575 Z" id="Combined-Shape" fill="#1488C6" fill-rule="nonzero"></path>
                <path d="M33.8284271,14.6568542 L36.6568542,17.4852814 L39.4852814,14.6568542 L36.6568542,11.8284271 L33.8284271,14.6568542 Z M37.3137085,9.65685425 L42.3137085,14.6568542 L37.3137085,19.6568542 L37.3137085,44 L36.3137085,44 L36.3137085,19.9705627 L31,14.6568542 L36.3137085,9.34314575 L36.3137085,4 L37.3137085,4 L37.3137085,9.65685425 Z" id="Combined-Shape-Copy" fill="#1488C6" fill-rule="nonzero" transform="translate(36.656854, 24.000000) rotate(-180.000000) translate(-36.656854, -24.000000) "></path>
                <path d="M16.8284271,29.6568542 L19.6568542,32.4852814 L22.4852814,29.6568542 L19.6568542,26.8284271 L16.8284271,29.6568542 Z M20,24.3431458 L25.3137085,29.6568542 L20,34.9705627 L20,44 L19,44 L19,34.6568542 L14,29.6568542 L19,24.6568542 L19,4 L20,4 L20,24.3431458 Z" id="Combined-Shape" fill="#1488C6" fill-rule="nonzero"></path>
                <path d="M25.8284271,29.6568542 L28.6568542,32.4852814 L31.4852814,29.6568542 L28.6568542,26.8284271 L25.8284271,29.6568542 Z M29.3137085,24.6568542 L34.3137085,29.6568542 L29.3137085,34.6568542 L29.3137085,44 L28.3137085,44 L28.3137085,34.9705627 L23,29.6568542 L28.3137085,24.3431458 L28.3137085,4 L29.3137085,4 L29.3137085,24.6568542 Z" id="Combined-Shape" fill="#1488C6" fill-rule="nonzero" transform="translate(28.656854, 24.000000) rotate(-180.000000) translate(-28.656854, -24.000000) "></path>
            </g>
        </g>
    </g>
</svg>