<?xml version="1.0" encoding="utf-8"?>
<!-- Generator: Adobe Illustrator 23.0.1, SVG Export Plug-In . SVG Version: 6.00 Build 0)  -->
<svg version="1.1" id="Layer_1" xmlns="http://www.w3.org/2000/svg" xmlns:xlink="http://www.w3.org/1999/xlink" x="0px" y="0px"
	 viewBox="0 0 740 250" style="enable-background:new 0 0 740 250;" xml:space="preserve">
<style type="text/css">
	.st0{fill:#FFFFFF;}
	.st1{fill-rule:evenodd;clip-rule:evenodd;fill:#82949E;}
	.st2{font-family:'OpenSans';}
	.st3{font-size:14px;}
	.st4{fill-rule:evenodd;clip-rule:evenodd;fill:#1488C6;}
	.st5{fill-rule:evenodd;clip-rule:evenodd;fill:#00B6B5;}
	.st6{fill:none;stroke:#82949E;stroke-width:2;stroke-linecap:round;stroke-linejoin:round;}
	.st7{fill-rule:evenodd;clip-rule:evenodd;fill:#8F9EA8;}
	.st8{fill:#637986;}
	.st9{font-family:'Courier-Bold';}
</style>
<rect class="st0" width="740" height="250"/>
<title>architecture-1</title>
<desc>Created with Sketch.</desc>
<g id="dtr-diagrams">
	<g id="architecture-1">
		<g id="Group" transform="translate(33.000000, 51.000000)">
			<g id="stack" transform="translate(150.000000, 0.000000)">
				<g id="servers" transform="translate(0.000000, 114.000000)">
					<g id="cloud">
						<path id="Rectangle-138" class="st1" d="M2,0h168c1.1,0,2,0.9,2,2v30c0,1.1-0.9,2-2,2H2c-1.1,0-2-0.9-2-2V2C0,0.9,0.9,0,2,0z"
							/>
						<text transform="matrix(1 0 0 1 42.5098 23)" class="st0 st2 st3">cloud servers</text>
					</g>
					<g id="virtual" transform="translate(176.000000, 0.000000)">
						<path class="st1" d="M2,0h168c1.1,0,2,0.9,2,2v30c0,1.1-0.9,2-2,2H2c-1.1,0-2-0.9-2-2V2C0,0.9,0.9,0,2,0z"/>
						<text transform="matrix(1 0 0 1 39.8608 23)" class="st0 st2 st3">virtual servers</text>
					</g>
					<g id="physical" transform="translate(352.000000, 0.000000)">
						<path class="st1" d="M2,0h168c1.1,0,2,0.9,2,2v30c0,1.1-0.9,2-2,2H2c-1.1,0-2-0.9-2-2V2C0,0.9,0.9,0,2,0z"/>
						<text transform="matrix(1 0 0 1 34.2075 23)" class="st0 st2 st3">physical servers</text>
					</g>
				</g>
				<g id="docker" transform="translate(0.000000, 76.000000)">
					<path class="st4" d="M2,0h520c1.1,0,2,0.9,2,2v30c0,1.1-0.9,2-2,2H2c-1.1,0-2-0.9-2-2V2C0,0.9,0.9,0,2,0z"/>
					<text transform="matrix(1 0 0 1 205.936 23)" class="st0 st2 st3">Docker Engine EE</text>
				</g>
				<g id="ucp" transform="translate(0.000000, 38.000000)">
					<path class="st4" d="M2,0h520c1.1,0,2,0.9,2,2v30c0,1.1-0.9,2-2,2H2c-1.1,0-2-0.9-2-2V2C0,0.9,0.9,0,2,0z"/>
					<text transform="matrix(1 0 0 1 185.5366 23)" class="st0 st2 st3">Universal Control Plane</text>
				</g>
				<g id="dtr">
					<path class="st4" d="M2,0h168c1.1,0,2,0.9,2,2v30c0,1.1-0.9,2-2,2H2c-1.1,0-2-0.9-2-2V2C0,0.9,0.9,0,2,0z"/>
					<text transform="matrix(1 0 0 1 8.1318 23)" class="st0 st2 st3">Docker Trusted Registry</text>
				</g>
				<g id="your-apps" transform="translate(176.000000, 0.000000)">
					<path class="st5" d="M2,0h344c1.1,0,2,0.9,2,2v30c0,1.1-0.9,2-2,2H2c-1.1,0-2-0.9-2-2V2C0,0.9,0.9,0,2,0z"/>
					<text transform="matrix(1 0 0 1 118.4282 23)" class="st0 st2 st3">your applications</text>
				</g>
			</g>
			<g id="commands" transform="translate(0.000000, 7.000000)">
				<g id="command-2" transform="translate(0.000000, 38.000000)">
					<path id="Line" class="st6" d="M101,10h35"/>
					<circle id="Oval" class="st7" cx="138" cy="10" r="5"/>
					<text transform="matrix(1 0 0 1 0 12)" class="st8 st9 st3">docker run</text>
				</g>
				<g id="command-1">
					<path class="st6" d="M101,9h35"/>
					<circle class="st1" cx="138" cy="9" r="5"/>
					<text transform="matrix(1 0 0 1 0 12)" class="st8 st9 st3">docker push</text>
				</g>
			</g>
		</g>
	</g>
</g>
</svg>
