<?xml version="1.0" encoding="utf-8"?>
<!-- Generator: Adobe Illustrator 23.0.1, SVG Export Plug-In . SVG Version: 6.00 Build 0)  -->
<svg version="1.1" id="Layer_1" xmlns="http://www.w3.org/2000/svg" xmlns:xlink="http://www.w3.org/1999/xlink" x="0px" y="0px"
	 viewBox="0 0 690 250" style="enable-background:new 0 0 690 250;" xml:space="preserve">
<style type="text/css">
	.st0{fill:#FFFFFF;}
	.st1{fill-rule:evenodd;clip-rule:evenodd;fill:#FFB463;}
	.st2{fill:#C0C9CE;}
	.st3{font-family:'OpenSans';}
	.st4{font-size:12px;}
	.st5{fill-rule:evenodd;clip-rule:evenodd;fill:#00B6B5;}
	.st6{fill-rule:evenodd;clip-rule:evenodd;fill:#445D6E;}
	.st7{fill-rule:evenodd;clip-rule:evenodd;fill:#C0C9CE;}
	.st8{fill:#82949E;}
	.st9{font-size:16px;}
	.st10{fill-rule:evenodd;clip-rule:evenodd;fill:#E0E4E7;}
</style>
<rect class="st0" width="690" height="250"/>
<title>delegate-image-signing-1</title>
<desc>Created with Sketch.</desc>
<g id="dtr-diagrams">
	<g id="delegate-image-signing-1">
		<g id="all" transform="translate(175.000000, 11.000000)">
			<g id="Group" transform="translate(171.000000, 0.000000)">
				<g id="teams">
					<g id="billing-team" transform="translate(97.000000, 0.000000)">
						<path id="Shape-Copy" class="st1" d="M34.5,26.5c7.3,0,13.2-5.9,13.2-13.2C47.8,5.9,41.8,0,34.5,0S21.2,5.9,21.2,13.2
							C21.2,20.6,27.2,26.5,34.5,26.5L34.5,26.5z M34.5,33.1C25.7,33.1,8,37.5,8,46.4V53h53v-6.6C61,37.5,43.3,33.1,34.5,33.1
							L34.5,33.1z"/>
						<text transform="matrix(1 0 0 1 0.7998 70)" class="st2 st3 st4">IT ops team</text>
					</g>
					<g id="blog-team">
						<text transform="matrix(1 0 0 1 1.7197 70)" class="st2 st3 st4">QA team</text>
						<path id="Shape-Copy-2" class="st5" d="M26.5,26.5c7.3,0,13.2-5.9,13.2-13.2C39.8,5.9,33.8,0,26.5,0S13.2,5.9,13.2,13.2
							C13.2,20.6,19.2,26.5,26.5,26.5L26.5,26.5z M26.5,33.1C17.7,33.1,0,37.5,0,46.4V53h53v-6.6C53,37.5,35.3,33.1,26.5,33.1
							L26.5,33.1z"/>
					</g>
				</g>
			</g>
			<g id="permissions" transform="translate(160.000000, 101.000000)">
				<g transform="translate(105.000000, 84.000000)">
					<path id="settings" class="st6" d="M75,11.3V8.7C73.6,8.2,72.8,8,72.3,7v0c-0.4-1.1,0.1-1.8,0.7-3.1L71.1,2
						c-1.3,0.6-2,1.1-3.1,0.7h0C67,2.2,66.8,1.4,66.3,0h-2.7C63.2,1.4,63,2.2,62,2.7h0c-1.1,0.4-1.8-0.1-3.1-0.7L57,3.9
						c0.6,1.3,1.1,2,0.7,3.1C57.2,8,56.4,8.2,55,8.7v2.7c1.4,0.5,2.2,0.6,2.7,1.7c0.4,1.1-0.1,1.8-0.7,3.1l1.9,1.9
						c1.3-0.6,2-1.1,3.1-0.7h0c1.1,0.4,1.2,1.3,1.7,2.7h2.7c0.5-1.4,0.6-2.2,1.7-2.7h0c1.1-0.4,1.8,0.1,3.1,0.7l1.9-1.9
						c-0.6-1.3-1.1-2-0.7-3.1C72.8,12,73.6,11.8,75,11.3L75,11.3z M65,13.3c-1.8,0-3.3-1.5-3.3-3.3s1.5-3.3,3.3-3.3
						c1.8,0,3.3,1.5,3.3,3.3S66.8,13.3,65,13.3L65,13.3z"/>
					<path id="Shape" class="st6" d="M12.1,1C4.5,1,0,10,0,10s4.5,9,12.1,9c7.4,0,11.9-9,11.9-9S19.5,1,12.1,1L12.1,1z M12,16
						c-3.3,0-6-2.7-6-6c0-3.3,2.7-6,6-6c3.3,0,6,2.7,6,6C18,13.3,15.3,16,12,16L12,16z M15,10c0,1.7-1.3,3-3,3s-3-1.3-3-3s1.3-3,3-3
						S15,8.3,15,10L15,10z"/>
					<path class="st6" d="M31,15v4h4L45.6,8.4l-4-4L31,15L31,15z M35,17.7h-2.6V15h1.3v1.3H35V17.7L35,17.7z M48.6,5.4l-1.7,1.7
						l-4-4l1.7-1.7C44.9,1.1,45.2,1,45.6,1c0.4,0,0.7,0.1,0.9,0.4l2.1,2.1C49.1,4,49.1,4.8,48.6,5.4L48.6,5.4z"/>
				</g>
				<g transform="translate(0.000000, 84.000000)">
					<path class="st7" d="M75,11.3V8.7C73.6,8.2,72.8,8,72.3,7v0c-0.4-1.1,0.1-1.8,0.7-3.1L71.1,2c-1.3,0.6-2,1.1-3.1,0.7h0
						C67,2.2,66.8,1.4,66.3,0h-2.7C63.2,1.4,63,2.2,62,2.7h0c-1.1,0.4-1.8-0.1-3.1-0.7L57,3.9c0.6,1.3,1.1,2,0.7,3.1
						C57.2,8,56.4,8.2,55,8.7v2.7c1.4,0.5,2.2,0.6,2.7,1.7c0.4,1.1-0.1,1.8-0.7,3.1l1.9,1.9c1.3-0.6,2-1.1,3.1-0.7h0
						c1.1,0.4,1.2,1.3,1.7,2.7h2.7c0.5-1.4,0.6-2.2,1.7-2.7h0c1.1-0.4,1.8,0.1,3.1,0.7l1.9-1.9c-0.6-1.3-1.1-2-0.7-3.1
						C72.8,12,73.6,11.8,75,11.3L75,11.3z M65,13.3c-1.8,0-3.3-1.5-3.3-3.3s1.5-3.3,3.3-3.3c1.8,0,3.3,1.5,3.3,3.3
						S66.8,13.3,65,13.3L65,13.3z"/>
					<path class="st7" d="M12.1,1C4.5,1,0,10,0,10s4.5,9,12.1,9c7.4,0,11.9-9,11.9-9S19.5,1,12.1,1L12.1,1z M12,16c-3.3,0-6-2.7-6-6
						c0-3.3,2.7-6,6-6c3.3,0,6,2.7,6,6C18,13.3,15.3,16,12,16L12,16z M15,10c0,1.7-1.3,3-3,3s-3-1.3-3-3s1.3-3,3-3S15,8.3,15,10
						L15,10z"/>
					<path class="st7" d="M31,15v4h4L45.6,8.4l-4-4L31,15L31,15z M35,17.7h-2.6V15h1.3v1.3H35V17.7L35,17.7z M48.6,5.4l-1.7,1.7
						l-4-4l1.7-1.7C44.9,1.1,45.2,1,45.6,1c0.4,0,0.7,0.1,0.9,0.4l2.1,2.1C49.1,4,49.1,4.8,48.6,5.4L48.6,5.4z"/>
				</g>
				<g transform="translate(105.000000, 42.000000)">
					<path class="st6" d="M75,11.3V8.7C73.6,8.2,72.8,8,72.3,7v0c-0.4-1.1,0.1-1.8,0.7-3.1L71.1,2c-1.3,0.6-2,1.1-3.1,0.7h0
						C67,2.2,66.8,1.4,66.3,0h-2.7C63.2,1.4,63,2.2,62,2.7h0c-1.1,0.4-1.8-0.1-3.1-0.7L57,3.9c0.6,1.3,1.1,2,0.7,3.1
						C57.2,8,56.4,8.2,55,8.7v2.7c1.4,0.5,2.2,0.6,2.7,1.7c0.4,1.1-0.1,1.8-0.7,3.1l1.9,1.9c1.3-0.6,2-1.1,3.1-0.7h0
						c1.1,0.4,1.2,1.3,1.7,2.7h2.7c0.5-1.4,0.6-2.2,1.7-2.7h0c1.1-0.4,1.8,0.1,3.1,0.7l1.9-1.9c-0.6-1.3-1.1-2-0.7-3.1
						C72.8,12,73.6,11.8,75,11.3L75,11.3z M65,13.3c-1.8,0-3.3-1.5-3.3-3.3s1.5-3.3,3.3-3.3c1.8,0,3.3,1.5,3.3,3.3
						S66.8,13.3,65,13.3L65,13.3z"/>
					<path class="st6" d="M12.1,1C4.5,1,0,10,0,10s4.5,9,12.1,9c7.4,0,11.9-9,11.9-9S19.5,1,12.1,1L12.1,1z M12,16c-3.3,0-6-2.7-6-6
						c0-3.3,2.7-6,6-6c3.3,0,6,2.7,6,6C18,13.3,15.3,16,12,16L12,16z M15,10c0,1.7-1.3,3-3,3s-3-1.3-3-3s1.3-3,3-3S15,8.3,15,10
						L15,10z"/>
					<path class="st6" d="M31,15v4h4L45.6,8.4l-4-4L31,15L31,15z M35,17.7h-2.6V15h1.3v1.3H35V17.7L35,17.7z M48.6,5.4l-1.7,1.7
						l-4-4l1.7-1.7C44.9,1.1,45.2,1,45.6,1c0.4,0,0.7,0.1,0.9,0.4l2.1,2.1C49.1,4,49.1,4.8,48.6,5.4L48.6,5.4z"/>
				</g>
				<g transform="translate(0.000000, 42.000000)">
					<path class="st7" d="M75,11.3V8.7C73.6,8.2,72.8,8,72.3,7v0c-0.4-1.1,0.1-1.8,0.7-3.1L71.1,2c-1.3,0.6-2,1.1-3.1,0.7h0
						C67,2.2,66.8,1.4,66.3,0h-2.7C63.2,1.4,63,2.2,62,2.7h0c-1.1,0.4-1.8-0.1-3.1-0.7L57,3.9c0.6,1.3,1.1,2,0.7,3.1
						C57.2,8,56.4,8.2,55,8.7v2.7c1.4,0.5,2.2,0.6,2.7,1.7c0.4,1.1-0.1,1.8-0.7,3.1l1.9,1.9c1.3-0.6,2-1.1,3.1-0.7h0
						c1.1,0.4,1.2,1.3,1.7,2.7h2.7c0.5-1.4,0.6-2.2,1.7-2.7h0c1.1-0.4,1.8,0.1,3.1,0.7l1.9-1.9c-0.6-1.3-1.1-2-0.7-3.1
						C72.8,12,73.6,11.8,75,11.3L75,11.3z M65,13.3c-1.8,0-3.3-1.5-3.3-3.3s1.5-3.3,3.3-3.3c1.8,0,3.3,1.5,3.3,3.3
						S66.8,13.3,65,13.3L65,13.3z"/>
					<path class="st7" d="M12.1,1C4.5,1,0,10,0,10s4.5,9,12.1,9c7.4,0,11.9-9,11.9-9S19.5,1,12.1,1L12.1,1z M12,16c-3.3,0-6-2.7-6-6
						c0-3.3,2.7-6,6-6c3.3,0,6,2.7,6,6C18,13.3,15.3,16,12,16L12,16z M15,10c0,1.7-1.3,3-3,3s-3-1.3-3-3s1.3-3,3-3S15,8.3,15,10
						L15,10z"/>
					<path class="st7" d="M31,15v4h4L45.6,8.4l-4-4L31,15L31,15z M35,17.7h-2.6V15h1.3v1.3H35V17.7L35,17.7z M48.6,5.4l-1.7,1.7
						l-4-4l1.7-1.7C44.9,1.1,45.2,1,45.6,1c0.4,0,0.7,0.1,0.9,0.4l2.1,2.1C49.1,4,49.1,4.8,48.6,5.4L48.6,5.4z"/>
				</g>
				<g transform="translate(105.000000, 0.000000)">
					<path class="st6" d="M75,11.3V8.7C73.6,8.2,72.8,8,72.3,7v0c-0.4-1.1,0.1-1.8,0.7-3.1L71.1,2c-1.3,0.6-2,1.1-3.1,0.7h0
						C67,2.2,66.8,1.4,66.3,0h-2.7C63.2,1.4,63,2.2,62,2.7h0c-1.1,0.4-1.8-0.1-3.1-0.7L57,3.9c0.6,1.3,1.1,2,0.7,3.1
						C57.2,8,56.4,8.2,55,8.7v2.7c1.4,0.5,2.2,0.6,2.7,1.7c0.4,1.1-0.1,1.8-0.7,3.1l1.9,1.9c1.3-0.6,2-1.1,3.1-0.7h0
						c1.1,0.4,1.2,1.3,1.7,2.7h2.7c0.5-1.4,0.6-2.2,1.7-2.7h0c1.1-0.4,1.8,0.1,3.1,0.7l1.9-1.9c-0.6-1.3-1.1-2-0.7-3.1
						C72.8,12,73.6,11.8,75,11.3L75,11.3z M65,13.3c-1.8,0-3.3-1.5-3.3-3.3s1.5-3.3,3.3-3.3c1.8,0,3.3,1.5,3.3,3.3
						S66.8,13.3,65,13.3L65,13.3z"/>
					<path class="st6" d="M12.1,1C4.5,1,0,10,0,10s4.5,9,12.1,9c7.4,0,11.9-9,11.9-9S19.5,1,12.1,1L12.1,1z M12,16c-3.3,0-6-2.7-6-6
						c0-3.3,2.7-6,6-6c3.3,0,6,2.7,6,6C18,13.3,15.3,16,12,16L12,16z M15,10c0,1.7-1.3,3-3,3s-3-1.3-3-3s1.3-3,3-3S15,8.3,15,10
						L15,10z"/>
					<path class="st6" d="M31,15v4h4L45.6,8.4l-4-4L31,15L31,15z M35,17.7h-2.6V15h1.3v1.3H35V17.7L35,17.7z M48.6,5.4l-1.7,1.7
						l-4-4l1.7-1.7C44.9,1.1,45.2,1,45.6,1c0.4,0,0.7,0.1,0.9,0.4l2.1,2.1C49.1,4,49.1,4.8,48.6,5.4L48.6,5.4z"/>
				</g>
				<g>
					<path class="st7" d="M75,11.3V8.7C73.6,8.2,72.8,8,72.3,7v0c-0.4-1.1,0.1-1.8,0.7-3.1L71.1,2c-1.3,0.6-2,1.1-3.1,0.7h0
						C67,2.2,66.8,1.4,66.3,0h-2.7C63.2,1.4,63,2.2,62,2.7h0c-1.1,0.4-1.8-0.1-3.1-0.7L57,3.9c0.6,1.3,1.1,2,0.7,3.1
						C57.2,8,56.4,8.2,55,8.7v2.7c1.4,0.5,2.2,0.6,2.7,1.7c0.4,1.1-0.1,1.8-0.7,3.1l1.9,1.9c1.3-0.6,2-1.1,3.1-0.7h0
						c1.1,0.4,1.2,1.3,1.7,2.7h2.7c0.5-1.4,0.6-2.2,1.7-2.7h0c1.1-0.4,1.8,0.1,3.1,0.7l1.9-1.9c-0.6-1.3-1.1-2-0.7-3.1
						C72.8,12,73.6,11.8,75,11.3L75,11.3z M65,13.3c-1.8,0-3.3-1.5-3.3-3.3s1.5-3.3,3.3-3.3c1.8,0,3.3,1.5,3.3,3.3
						S66.8,13.3,65,13.3L65,13.3z"/>
					<path class="st6" d="M12.1,1C4.5,1,0,10,0,10s4.5,9,12.1,9c7.4,0,11.9-9,11.9-9S19.5,1,12.1,1L12.1,1z M12,16c-3.3,0-6-2.7-6-6
						c0-3.3,2.7-6,6-6c3.3,0,6,2.7,6,6C18,13.3,15.3,16,12,16L12,16z M15,10c0,1.7-1.3,3-3,3s-3-1.3-3-3s1.3-3,3-3S15,8.3,15,10
						L15,10z"/>
					<path class="st6" d="M31,15v4h4L45.6,8.4l-4-4L31,15L31,15z M35,17.7h-2.6V15h1.3v1.3H35V17.7L35,17.7z M48.6,5.4l-1.7,1.7
						l-4-4l1.7-1.7C44.9,1.1,45.2,1,45.6,1c0.4,0,0.7,0.1,0.9,0.4l2.1,2.1C49.1,4,49.1,4.8,48.6,5.4L48.6,5.4z"/>
				</g>
			</g>
			<g id="repos" transform="translate(0.000000, 98.000000)">
				<g id="node" transform="translate(0.000000, 84.000000)">
					<text transform="matrix(1 0 0 1 33 19)" class="st8 st3 st9">dev/node</text>
					<path class="st10" d="M27.6,5.9c0.4,0.6,0.5,1.4,0.3,2.2l-4.6,15.2C23,24,22.6,24.6,22,25.1c-0.6,0.5-1.3,0.7-2.1,0.7H4.4
						c-0.9,0-1.7-0.3-2.5-0.9s-1.4-1.3-1.7-2.2c-0.3-0.8-0.3-1.5,0-2.1c0,0,0-0.2,0.1-0.5s0.1-0.5,0.1-0.6c0-0.1,0-0.2-0.1-0.4
						c0-0.2-0.1-0.3-0.1-0.3c0-0.1,0.1-0.2,0.1-0.4c0.1-0.1,0.2-0.2,0.3-0.4s0.2-0.3,0.3-0.4c0.3-0.4,0.5-0.9,0.8-1.5
						c0.2-0.6,0.4-1.1,0.5-1.5c0-0.1,0-0.3,0-0.5c0-0.2,0-0.4,0-0.5c0-0.1,0.1-0.3,0.3-0.5c0.2-0.2,0.3-0.3,0.3-0.4
						c0.2-0.4,0.5-0.9,0.7-1.5c0.2-0.6,0.4-1.1,0.4-1.5c0-0.1,0-0.3,0-0.5c0-0.3,0-0.4,0-0.5c0-0.1,0.2-0.3,0.4-0.5
						C4.4,8,4.5,7.9,4.5,7.8C4.8,7.5,5,7,5.3,6.4s0.4-1.2,0.5-1.6c0-0.1,0-0.2-0.1-0.4S5.6,4,5.6,3.9c0-0.1,0.1-0.2,0.2-0.3
						C5.9,3.5,6,3.3,6.1,3.2C6.2,3,6.3,2.9,6.4,2.8c0.1-0.1,0.2-0.3,0.3-0.5c0.1-0.2,0.2-0.4,0.3-0.6s0.2-0.4,0.3-0.6
						c0.1-0.2,0.2-0.4,0.3-0.5S7.8,0.3,8,0.2S8.3,0,8.6,0S9,0,9.4,0.1l0,0.1C9.8,0.1,10.1,0,10.2,0H23c0.8,0,1.5,0.3,1.9,0.9
						c0.4,0.6,0.5,1.4,0.3,2.2l-4.6,15.2c-0.4,1.3-0.8,2.2-1.2,2.6c-0.4,0.4-1.1,0.6-2.2,0.6H2.6c-0.3,0-0.5,0.1-0.6,0.3
						c-0.1,0.2-0.1,0.4,0,0.7c0.3,0.8,1.1,1.2,2.4,1.2h15.5c0.3,0,0.6-0.1,0.9-0.3c0.3-0.2,0.5-0.4,0.6-0.7l5-16.6
						c0.1-0.2,0.1-0.6,0.1-1C27,5.3,27.3,5.6,27.6,5.9L27.6,5.9z M9.7,5.9c0,0.1,0,0.3,0,0.4C9.8,6.4,9.9,6.5,10,6.5h10.2
						c0.1,0,0.3-0.1,0.4-0.2c0.1-0.1,0.2-0.2,0.3-0.4l0.4-1.1c0-0.1,0-0.3,0-0.4c-0.1-0.1-0.2-0.2-0.3-0.2H10.7
						c-0.1,0-0.3,0.1-0.4,0.2c-0.1,0.1-0.2,0.2-0.3,0.4L9.7,5.9z M8.3,10.2c0,0.1,0,0.3,0,0.4c0.1,0.1,0.2,0.2,0.3,0.2h10.2
						c0.1,0,0.3-0.1,0.4-0.2c0.1-0.1,0.2-0.2,0.3-0.4l0.4-1.1c0-0.1,0-0.3,0-0.4c-0.1-0.1-0.2-0.2-0.3-0.2H9.3
						c-0.1,0-0.3,0.1-0.4,0.2S8.7,9,8.6,9.1L8.3,10.2z"/>
				</g>
				<g id="java" transform="translate(0.000000, 42.000000)">
					<text transform="matrix(1 0 0 1 33 19)" class="st8 st3 st9">dev/java</text>
					<path class="st10" d="M27.6,5.9c0.4,0.6,0.5,1.4,0.3,2.2l-4.6,15.2C23,24,22.6,24.6,22,25.1c-0.6,0.5-1.3,0.7-2.1,0.7H4.4
						c-0.9,0-1.7-0.3-2.5-0.9s-1.4-1.3-1.7-2.2c-0.3-0.8-0.3-1.5,0-2.1c0,0,0-0.2,0.1-0.5s0.1-0.5,0.1-0.6c0-0.1,0-0.2-0.1-0.4
						c0-0.2-0.1-0.3-0.1-0.3c0-0.1,0.1-0.2,0.1-0.4c0.1-0.1,0.2-0.2,0.3-0.4s0.2-0.3,0.3-0.4c0.3-0.4,0.5-0.9,0.8-1.5
						c0.2-0.6,0.4-1.1,0.5-1.5c0-0.1,0-0.3,0-0.5c0-0.2,0-0.4,0-0.5c0-0.1,0.1-0.3,0.3-0.5c0.2-0.2,0.3-0.3,0.3-0.4
						c0.2-0.4,0.5-0.9,0.7-1.5c0.2-0.6,0.4-1.1,0.4-1.5c0-0.1,0-0.3,0-0.5c0-0.3,0-0.4,0-0.5c0-0.1,0.2-0.3,0.4-0.5
						C4.4,8,4.5,7.9,4.5,7.8C4.8,7.5,5,7,5.3,6.4s0.4-1.2,0.5-1.6c0-0.1,0-0.2-0.1-0.4S5.6,4,5.6,3.9c0-0.1,0.1-0.2,0.2-0.3
						C5.9,3.5,6,3.3,6.1,3.2C6.2,3,6.3,2.9,6.4,2.8c0.1-0.1,0.2-0.3,0.3-0.5c0.1-0.2,0.2-0.4,0.3-0.6s0.2-0.4,0.3-0.6
						c0.1-0.2,0.2-0.4,0.3-0.5S7.8,0.3,8,0.2S8.3,0,8.6,0S9,0,9.4,0.1l0,0.1C9.8,0.1,10.1,0,10.2,0H23c0.8,0,1.5,0.3,1.9,0.9
						c0.4,0.6,0.5,1.4,0.3,2.2l-4.6,15.2c-0.4,1.3-0.8,2.2-1.2,2.6c-0.4,0.4-1.1,0.6-2.2,0.6H2.6c-0.3,0-0.5,0.1-0.6,0.3
						c-0.1,0.2-0.1,0.4,0,0.7c0.3,0.8,1.1,1.2,2.4,1.2h15.5c0.3,0,0.6-0.1,0.9-0.3c0.3-0.2,0.5-0.4,0.6-0.7l5-16.6
						c0.1-0.2,0.1-0.6,0.1-1C27,5.3,27.3,5.6,27.6,5.9L27.6,5.9z M9.7,5.9c0,0.1,0,0.3,0,0.4C9.8,6.4,9.9,6.5,10,6.5h10.2
						c0.1,0,0.3-0.1,0.4-0.2c0.1-0.1,0.2-0.2,0.3-0.4l0.4-1.1c0-0.1,0-0.3,0-0.4c-0.1-0.1-0.2-0.2-0.3-0.2H10.7
						c-0.1,0-0.3,0.1-0.4,0.2c-0.1,0.1-0.2,0.2-0.3,0.4L9.7,5.9z M8.3,10.2c0,0.1,0,0.3,0,0.4c0.1,0.1,0.2,0.2,0.3,0.2h10.2
						c0.1,0,0.3-0.1,0.4-0.2c0.1-0.1,0.2-0.2,0.3-0.4l0.4-1.1c0-0.1,0-0.3,0-0.4c-0.1-0.1-0.2-0.2-0.3-0.2H9.3
						c-0.1,0-0.3,0.1-0.4,0.2S8.7,9,8.6,9.1L8.3,10.2z"/>
				</g>
				<g id="golang">
					<text transform="matrix(1 0 0 1 33 19)" class="st8 st3 st9">dev/nginx</text>
					<path class="st10" d="M27.6,5.9c0.4,0.6,0.5,1.4,0.3,2.2l-4.6,15.2C23,24,22.6,24.6,22,25.1c-0.6,0.5-1.3,0.7-2.1,0.7H4.4
						c-0.9,0-1.7-0.3-2.5-0.9s-1.4-1.3-1.7-2.2c-0.3-0.8-0.3-1.5,0-2.1c0,0,0-0.2,0.1-0.5s0.1-0.5,0.1-0.6c0-0.1,0-0.2-0.1-0.4
						c0-0.2-0.1-0.3-0.1-0.3c0-0.1,0.1-0.2,0.1-0.4c0.1-0.1,0.2-0.2,0.3-0.4s0.2-0.3,0.3-0.4c0.3-0.4,0.5-0.9,0.8-1.5
						c0.2-0.6,0.4-1.1,0.5-1.5c0-0.1,0-0.3,0-0.5c0-0.2,0-0.4,0-0.5c0-0.1,0.1-0.3,0.3-0.5c0.2-0.2,0.3-0.3,0.3-0.4
						c0.2-0.4,0.5-0.9,0.7-1.5c0.2-0.6,0.4-1.1,0.4-1.5c0-0.1,0-0.3,0-0.5c0-0.3,0-0.4,0-0.5c0-0.1,0.2-0.3,0.4-0.5
						C4.4,8,4.5,7.9,4.5,7.8C4.8,7.5,5,7,5.3,6.4s0.4-1.2,0.5-1.6c0-0.1,0-0.2-0.1-0.4S5.6,4,5.6,3.9c0-0.1,0.1-0.2,0.2-0.3
						C5.9,3.5,6,3.3,6.1,3.2C6.2,3,6.3,2.9,6.4,2.8c0.1-0.1,0.2-0.3,0.3-0.5c0.1-0.2,0.2-0.4,0.3-0.6s0.2-0.4,0.3-0.6
						c0.1-0.2,0.2-0.4,0.3-0.5S7.8,0.3,8,0.2S8.3,0,8.6,0S9,0,9.4,0.1l0,0.1C9.8,0.1,10.1,0,10.2,0H23c0.8,0,1.5,0.3,1.9,0.9
						c0.4,0.6,0.5,1.4,0.3,2.2l-4.6,15.2c-0.4,1.3-0.8,2.2-1.2,2.6c-0.4,0.4-1.1,0.6-2.2,0.6H2.6c-0.3,0-0.5,0.1-0.6,0.3
						c-0.1,0.2-0.1,0.4,0,0.7c0.3,0.8,1.1,1.2,2.4,1.2h15.5c0.3,0,0.6-0.1,0.9-0.3c0.3-0.2,0.5-0.4,0.6-0.7l5-16.6
						c0.1-0.2,0.1-0.6,0.1-1C27,5.3,27.3,5.6,27.6,5.9L27.6,5.9z M9.7,5.9c0,0.1,0,0.3,0,0.4C9.8,6.4,9.9,6.5,10,6.5h10.2
						c0.1,0,0.3-0.1,0.4-0.2c0.1-0.1,0.2-0.2,0.3-0.4l0.4-1.1c0-0.1,0-0.3,0-0.4c-0.1-0.1-0.2-0.2-0.3-0.2H10.7
						c-0.1,0-0.3,0.1-0.4,0.2c-0.1,0.1-0.2,0.2-0.3,0.4L9.7,5.9z M8.3,10.2c0,0.1,0,0.3,0,0.4c0.1,0.1,0.2,0.2,0.3,0.2h10.2
						c0.1,0,0.3-0.1,0.4-0.2c0.1-0.1,0.2-0.2,0.3-0.4l0.4-1.1c0-0.1,0-0.3,0-0.4c-0.1-0.1-0.2-0.2-0.3-0.2H9.3
						c-0.1,0-0.3,0.1-0.4,0.2S8.7,9,8.6,9.1L8.3,10.2z"/>
				</g>
			</g>
		</g>
	</g>
</g>
</svg>
