<?xml version="1.0" encoding="utf-8"?>
<!-- Generator: Adobe Illustrator 23.0.1, SVG Export Plug-In . SVG Version: 6.00 Build 0)  -->
<svg version="1.1" id="Layer_1" xmlns="http://www.w3.org/2000/svg" xmlns:xlink="http://www.w3.org/1999/xlink" x="0px" y="0px"
	 viewBox="0 0 740 220" style="enable-background:new 0 0 740 220;" xml:space="preserve">
<style type="text/css">
	.st0{fill:#FFFFFF;}
	.st1{fill:none;stroke:#E0E4E7;stroke-width:2;stroke-linecap:round;stroke-linejoin:round;}
	.st2{fill-rule:evenodd;clip-rule:evenodd;fill:#1488C6;}
	.st3{font-family:'OpenSans';}
	.st4{font-size:12px;}
</style>
<rect x="2" y="3" class="st0" width="738" height="216"/>
<title>deploy-cache-simple-1</title>
<desc>Created with Sketch.</desc>
<g id="dtr-diagrams">
	<g id="deploy-cache-simple-1">
		<g id="Group" transform="translate(265.000000, 20.000000)">
			<g id="lines" transform="translate(52.000000, 39.000000)">
				<path id="Line" class="st1" d="M117.5,93.5l-64-93"/>
				<path id="Line-Copy" class="st1" d="M0.5,79.5l53-79"/>
			</g>
			<g id="cache-eur" transform="translate(130.000000, 100.000000)">
				<circle id="Oval-2" class="st2" cx="40" cy="40" r="40"/>
				<text transform="matrix(1 0 0 1 10.1201 36)" class="st0 st3 st4">DTR cache</text>
				<text transform="matrix(1 0 0 1 68.2393 36)" class="st0 st3 st4"> </text>
				<text transform="matrix(1 0 0 1 15.5928 53)" class="st0 st3 st4">(Europe)</text>
			</g>
			<g id="cache-as" transform="translate(0.000000, 100.000000)">
				<circle class="st2" cx="40" cy="40" r="40"/>
				<text transform="matrix(1 0 0 1 10.1201 36)" class="st0 st3 st4">DTR cache</text>
				<text transform="matrix(1 0 0 1 68.2393 36)" class="st0 st3 st4"> </text>
				<text transform="matrix(1 0 0 1 24.1562 53)" class="st0 st3 st4">(Asia)</text>
			</g>
			<g id="dtr" transform="translate(65.000000, 0.000000)">
				<circle class="st2" cx="40" cy="40" r="40"/>
				<text transform="matrix(1 0 0 1 7.0322 36)" class="st0 st3 st4">DTR cluster</text>
				<text transform="matrix(1 0 0 1 70.6592 36)" class="st0 st3 st4"> </text>
				<text transform="matrix(1 0 0 1 28.4453 53)" class="st0 st3 st4">(US)</text>
			</g>
		</g>
	</g>
</g>
</svg>
