<?xml version="1.0" encoding="utf-8"?>
<!-- Generator: Adobe Illustrator 23.0.1, SVG Export Plug-In . SVG Version: 6.00 Build 0)  -->
<svg version="1.1" id="Layer_1" xmlns="http://www.w3.org/2000/svg" xmlns:xlink="http://www.w3.org/1999/xlink" x="0px" y="0px"
	 viewBox="0 0 740 250" style="enable-background:new 0 0 740 250;" xml:space="preserve">
<style type="text/css">
	.st0{fill:#FFFFFF;}
	.st1{font-family:'OpenSans';}
	.st2{font-size:12px;}
	.st3{fill:none;stroke:#82949E;stroke-width:2;stroke-dasharray:5,5,5,5;}
	.st4{fill-rule:evenodd;clip-rule:evenodd;fill:#E0E4E7;}
	.st5{fill:#82949E;}
	.st6{fill-rule:evenodd;clip-rule:evenodd;fill:#82949E;stroke:#FFFFFF;stroke-width:2;}
	.st7{fill-rule:evenodd;clip-rule:evenodd;fill:#82949E;}
	.st8{fill:none;stroke:#E0E4E7;stroke-width:2;stroke-linecap:round;stroke-linejoin:round;}
	.st9{fill:#E0E4E7;}
	.st10{font-size:14px;}
</style>
<rect class="st0" width="740" height="250"/>
<title>cache-overview-3</title>
<desc>Created with Sketch.</desc>
<g id="dtr-diagrams">
	<g id="cache-overview-3">
		<g id="all" transform="translate(10.000000, 3.000000)">
			<g id="prod" transform="translate(540.000000, 0.000000)">
				<text transform="matrix(1 0 0 1 9.025 234.0095)" class="st0 st1 st2">DTR at prod.example.org</text>
				<path id="group" class="st3" d="M2,0h176c1.1,0,2,0.9,2,2v241c0,1.1-0.9,2-2,2H2c-1.1,0-2-0.9-2-2V2C0,0.9,0.9,0,2,0z"/>
				<g id="user-1" transform="translate(14.000000, 78.000000)">
					<g id="widgets" transform="translate(77.000000, 15.000000)">
						<path id="settings" class="st4" d="M75,11.3V8.7C73.6,8.2,72.8,8,72.3,7v0c-0.4-1.1,0.1-1.8,0.7-3.1L71.1,2
							c-1.3,0.6-2,1.1-3.1,0.7h0C67,2.2,66.8,1.4,66.3,0h-2.7C63.2,1.4,63,2.2,62,2.7h0c-1.1,0.4-1.8-0.1-3.1-0.7L57,3.9
							c0.6,1.3,1.1,2,0.7,3.1C57.2,8,56.4,8.2,55,8.7v2.7c1.4,0.5,2.2,0.6,2.7,1.7c0.4,1.1-0.1,1.8-0.7,3.1l1.9,1.9
							c1.3-0.6,2-1.1,3.1-0.7h0c1.1,0.4,1.2,1.3,1.7,2.7h2.7c0.5-1.4,0.6-2.2,1.7-2.7h0c1.1-0.4,1.8,0.1,3.1,0.7l1.9-1.9
							c-0.6-1.3-1.1-2-0.7-3.1C72.8,12,73.6,11.8,75,11.3L75,11.3z M65,13.3c-1.8,0-3.3-1.5-3.3-3.3s1.5-3.3,3.3-3.3
							c1.8,0,3.3,1.5,3.3,3.3S66.8,13.3,65,13.3L65,13.3z"/>
						<path id="Shape" class="st4" d="M12.1,1C4.5,1,0,10,0,10s4.5,9,12.1,9c7.4,0,11.9-9,11.9-9S19.5,1,12.1,1L12.1,1z M12,16
							c-3.3,0-6-2.7-6-6c0-3.3,2.7-6,6-6c3.3,0,6,2.7,6,6C18,13.3,15.3,16,12,16L12,16z M15,10c0,1.7-1.3,3-3,3s-3-1.3-3-3
							s1.3-3,3-3S15,8.3,15,10L15,10z"/>
						<path class="st4" d="M31,15v4h4L45.6,8.4l-4-4L31,15L31,15z M35,17.7h-2.6V15h1.3v1.3H35V17.7L35,17.7z M48.6,5.4l-1.7,1.7
							l-4-4l1.7-1.7C44.9,1.1,45.2,1,45.6,1c0.4,0,0.7,0.1,0.9,0.4l2.1,2.1C49.1,4,49.1,4.8,48.6,5.4L48.6,5.4z"/>
					</g>
					<text transform="matrix(1 0 0 1 0 64)" class="st5 st1 st2">dev team</text>
					<path id="user" class="st6" d="M27,25c6.9,0,12.5-5.6,12.5-12.5C39.5,5.6,33.9,0,27,0S14.5,5.6,14.5,12.5
						C14.5,19.4,20.1,25,27,25L27,25z M27,31.2c-8.3,0-25,4.2-25,12.5V50h50v-6.2C52,35.4,35.3,31.2,27,31.2L27,31.2z"/>
				</g>
			</g>
			<g id="qa" transform="translate(270.000000, 0.000000)">
				<text transform="matrix(1 0 0 1 9.025 234.0095)" class="st5 st1 st2">DTR at qa.example.org</text>
				<path class="st3" d="M2,0h176c1.1,0,2,0.9,2,2v241c0,1.1-0.9,2-2,2H2c-1.1,0-2-0.9-2-2V2C0,0.9,0.9,0,2,0z"/>
				<g transform="translate(14.000000, 78.000000)">
					<g transform="translate(77.000000, 15.000000)">
						<path class="st4" d="M75,11.3V8.7C73.6,8.2,72.8,8,72.3,7v0c-0.4-1.1,0.1-1.8,0.7-3.1L71.1,2c-1.3,0.6-2,1.1-3.1,0.7h0
							C67,2.2,66.8,1.4,66.3,0h-2.7C63.2,1.4,63,2.2,62,2.7h0c-1.1,0.4-1.8-0.1-3.1-0.7L57,3.9c0.6,1.3,1.1,2,0.7,3.1
							C57.2,8,56.4,8.2,55,8.7v2.7c1.4,0.5,2.2,0.6,2.7,1.7c0.4,1.1-0.1,1.8-0.7,3.1l1.9,1.9c1.3-0.6,2-1.1,3.1-0.7h0
							c1.1,0.4,1.2,1.3,1.7,2.7h2.7c0.5-1.4,0.6-2.2,1.7-2.7h0c1.1-0.4,1.8,0.1,3.1,0.7l1.9-1.9c-0.6-1.3-1.1-2-0.7-3.1
							C72.8,12,73.6,11.8,75,11.3L75,11.3z M65,13.3c-1.8,0-3.3-1.5-3.3-3.3s1.5-3.3,3.3-3.3c1.8,0,3.3,1.5,3.3,3.3
							S66.8,13.3,65,13.3L65,13.3z"/>
						<path class="st7" d="M12.1,1C4.5,1,0,10,0,10s4.5,9,12.1,9c7.4,0,11.9-9,11.9-9S19.5,1,12.1,1L12.1,1z M12,16
							c-3.3,0-6-2.7-6-6c0-3.3,2.7-6,6-6c3.3,0,6,2.7,6,6C18,13.3,15.3,16,12,16L12,16z M15,10c0,1.7-1.3,3-3,3s-3-1.3-3-3
							s1.3-3,3-3S15,8.3,15,10L15,10z"/>
						<path class="st4" d="M31,15v4h4L45.6,8.4l-4-4L31,15L31,15z M35,17.7h-2.6V15h1.3v1.3H35V17.7L35,17.7z M48.6,5.4l-1.7,1.7
							l-4-4l1.7-1.7C44.9,1.1,45.2,1,45.6,1c0.4,0,0.7,0.1,0.9,0.4l2.1,2.1C49.1,4,49.1,4.8,48.6,5.4L48.6,5.4z"/>
					</g>
					<text transform="matrix(1 0 0 1 0 64)" class="st5 st1 st2">dev team</text>
					<path class="st6" d="M27,25c6.9,0,12.5-5.6,12.5-12.5C39.5,5.6,33.9,0,27,0S14.5,5.6,14.5,12.5C14.5,19.4,20.1,25,27,25L27,25z
						 M27,31.2c-8.3,0-25,4.2-25,12.5V50h50v-6.2C52,35.4,35.3,31.2,27,31.2L27,31.2z"/>
				</g>
			</g>
			<g id="arrow-2" transform="translate(462.000000, 101.000000)">
				<circle id="Oval" class="st4" cx="63" cy="38" r="4"/>
				<path id="Path-3" class="st8" d="M0,38c0,0,10.6-8.9,32-8.9S64,38,64,38"/>
				<text transform="matrix(1 0 0 1 4 15)" class="st9 st1 st10">promote</text>
			</g>
			<g id="dev">
				<text transform="matrix(1 0 0 1 8.025 234.0095)" class="st5 st1 st2">DTR at dev.example.org</text>
				<path class="st3" d="M2,0h176c1.1,0,2,0.9,2,2v241c0,1.1-0.9,2-2,2H2c-1.1,0-2-0.9-2-2V2C0,0.9,0.9,0,2,0z"/>
				<g transform="translate(14.000000, 78.000000)">
					<g transform="translate(77.000000, 15.000000)">
						<path class="st4" d="M75,11.3V8.7C73.6,8.2,72.8,8,72.3,7v0c-0.4-1.1,0.1-1.8,0.7-3.1L71.1,2c-1.3,0.6-2,1.1-3.1,0.7h0
							C67,2.2,66.8,1.4,66.3,0h-2.7C63.2,1.4,63,2.2,62,2.7h0c-1.1,0.4-1.8-0.1-3.1-0.7L57,3.9c0.6,1.3,1.1,2,0.7,3.1
							C57.2,8,56.4,8.2,55,8.7v2.7c1.4,0.5,2.2,0.6,2.7,1.7c0.4,1.1-0.1,1.8-0.7,3.1l1.9,1.9c1.3-0.6,2-1.1,3.1-0.7h0
							c1.1,0.4,1.2,1.3,1.7,2.7h2.7c0.5-1.4,0.6-2.2,1.7-2.7h0c1.1-0.4,1.8,0.1,3.1,0.7l1.9-1.9c-0.6-1.3-1.1-2-0.7-3.1
							C72.8,12,73.6,11.8,75,11.3L75,11.3z M65,13.3c-1.8,0-3.3-1.5-3.3-3.3s1.5-3.3,3.3-3.3c1.8,0,3.3,1.5,3.3,3.3
							S66.8,13.3,65,13.3L65,13.3z"/>
						<path class="st7" d="M12.1,1C4.5,1,0,10,0,10s4.5,9,12.1,9c7.4,0,11.9-9,11.9-9S19.5,1,12.1,1L12.1,1z M12,16
							c-3.3,0-6-2.7-6-6c0-3.3,2.7-6,6-6c3.3,0,6,2.7,6,6C18,13.3,15.3,16,12,16L12,16z M15,10c0,1.7-1.3,3-3,3s-3-1.3-3-3
							s1.3-3,3-3S15,8.3,15,10L15,10z"/>
						<path class="st7" d="M31,15v4h4L45.6,8.4l-4-4L31,15L31,15z M35,17.7h-2.6V15h1.3v1.3H35V17.7L35,17.7z M48.6,5.4l-1.7,1.7
							l-4-4l1.7-1.7C44.9,1.1,45.2,1,45.6,1c0.4,0,0.7,0.1,0.9,0.4l2.1,2.1C49.1,4,49.1,4.8,48.6,5.4L48.6,5.4z"/>
					</g>
					<text transform="matrix(1 0 0 1 0 64)" class="st5 st1 st2">dev team</text>
					<path class="st6" d="M27,25c6.9,0,12.5-5.6,12.5-12.5C39.5,5.6,33.9,0,27,0S14.5,5.6,14.5,12.5C14.5,19.4,20.1,25,27,25L27,25z
						 M27,31.2c-8.3,0-25,4.2-25,12.5V50h50v-6.2C52,35.4,35.3,31.2,27,31.2L27,31.2z"/>
				</g>
			</g>
			<g id="arrow-1" transform="translate(193.000000, 101.000000)">
				<circle class="st4" cx="63" cy="38" r="4"/>
				<path class="st8" d="M0,38c0,0,10.6-8.9,32-8.9S64,38,64,38"/>
				<text transform="matrix(1 0 0 1 4 15)" class="st9 st1 st10">promote</text>
			</g>
		</g>
	</g>
</g>
</svg>
