<?xml version="1.0" encoding="UTF-8"?>
<svg width="740px" height="550px" viewBox="0 0 740 550" version="1.1" xmlns="http://www.w3.org/2000/svg" xmlns:xlink="http://www.w3.org/1999/xlink">
    <!-- Generator: Sketch 48.2 (47327) - http://www.bohemiancoding.com/sketch -->
    <title>deploy-cache-simple-2</title>
    <desc>Created with Sketch.</desc>
    <defs>
        <circle id="path-1" cx="4" cy="4" r="4"></circle>
        <circle id="path-2" cx="4" cy="4" r="4"></circle>
        <circle id="path-3" cx="4" cy="4" r="4"></circle>
        <circle id="path-4" cx="4" cy="4" r="4"></circle>
        <circle id="path-5" cx="4" cy="4" r="4"></circle>
        <circle id="path-6" cx="4" cy="4" r="4"></circle>
    </defs>
    <g id="dtr-diagrams" stroke="none" stroke-width="1" fill="none" fill-rule="evenodd">
        <g id="deploy-cache-simple-2">
            <g id="all" transform="translate(12.000000, 10.000000)">
                <g id="europe" transform="translate(380.000000, 350.000000)">
                    <rect id="group" stroke="#82949E" stroke-width="2" stroke-dasharray="5,5,5,5" x="0" y="0" width="336" height="175.781832" rx="2"></rect>
                    <text id="Europe-datacenter" font-family="OpenSans-Semibold, Open Sans" font-size="10" font-weight="500" fill="#82949E">
                        <tspan x="10.8218828" y="166.009524">Europe datacenter</tspan>
                    </text>
                    <text id="dtr.cache=true" font-family="OpenSans-Semibold, Open Sans" font-size="10" font-weight="500" fill="#82949E">
                        <tspan x="121" y="131">dtr.cache=true</tspan>
                    </text>
                    <g id="nodes" transform="translate(14.000000, 12.000000)">
                        <g id="node-1-copy-4">
                            <g id="node">
                                <g id="node-label">
                                    <path d="M0,2.00295631 C0,0.896754086 0.897702336,0 1.99174577,0 L71,0 L71,10.6452381 C71,16.5244408 66.2312425,21.2904762 60.3513837,21.2904762 L0,21.2904762 L0,2.00295631 Z" id="Rectangle-127" fill="#445D6E"></path>
                                    <text id="worker-node" font-family="OpenSans, Open Sans" font-size="8" font-weight="normal" fill="#FFFFFF">
                                        <tspan x="6" y="14">worker node</tspan>
                                    </text>
                                </g>
                            </g>
                            <g id="engine" transform="translate(1.000000, 79.000000)">
                                <rect id="Rectangle-138" fill="#1488C6" x="0" y="0" width="95" height="22" rx="2"></rect>
                                <text id="Docker-EE-Engine" font-family="OpenSans, Open Sans" font-size="10" font-weight="normal" fill="#FFFFFF">
                                    <tspan x="7.59716797" y="15">Docker EE Engine</tspan>
                                </text>
                            </g>
                            <rect id="node-border" stroke="#445D6E" stroke-width="2" x="0" y="0" width="97" height="102" rx="2"></rect>
                        </g>
                        <g id="node-1-copy-6" transform="translate(214.000000, 0.000000)">
                            <g id="node">
                                <g id="node-label">
                                    <path d="M0,2.00295631 C0,0.896754086 0.897702336,0 1.99174577,0 L71,0 L71,10.6452381 C71,16.5244408 66.2312425,21.2904762 60.3513837,21.2904762 L0,21.2904762 L0,2.00295631 Z" id="Rectangle-127" fill="#445D6E"></path>
                                    <text id="worker-node" font-family="OpenSans, Open Sans" font-size="8" font-weight="normal" fill="#FFFFFF">
                                        <tspan x="6" y="14">worker node</tspan>
                                    </text>
                                </g>
                            </g>
                            <g id="engine" transform="translate(1.000000, 79.000000)">
                                <rect id="Rectangle-138" fill="#1488C6" x="0" y="0" width="95" height="22" rx="2"></rect>
                                <text id="Docker-EE-Engine" font-family="OpenSans, Open Sans" font-size="10" font-weight="normal" fill="#FFFFFF">
                                    <tspan x="7.59716797" y="15">Docker EE Engine</tspan>
                                </text>
                            </g>
                            <rect id="node-border" stroke="#445D6E" stroke-width="2" x="0" y="0" width="97" height="102" rx="2"></rect>
                        </g>
                    </g>
                    <g id="node-1-copy-5" transform="translate(121.000000, 12.000000)">
                        <g id="node">
                            <g id="node-label">
                                <path d="M0,2.00295631 C0,0.896754086 0.897702336,0 1.99174577,0 L71,0 L71,10.6452381 C71,16.5244408 66.2312425,21.2904762 60.3513837,21.2904762 L0,21.2904762 L0,2.00295631 Z" id="Rectangle-127" fill="#445D6E"></path>
                                <text id="worker-node" font-family="OpenSans, Open Sans" font-size="8" font-weight="normal" fill="#FFFFFF">
                                    <tspan x="6" y="14">worker node</tspan>
                                </text>
                            </g>
                        </g>
                        <g id="engine" transform="translate(1.000000, 79.000000)">
                            <rect id="Rectangle-138" fill="#1488C6" x="0" y="0" width="95" height="22" rx="2"></rect>
                            <text id="Docker-EE-Engine" font-family="OpenSans, Open Sans" font-size="10" font-weight="normal" fill="#FFFFFF">
                                <tspan x="7.59716797" y="15">Docker EE Engine</tspan>
                            </text>
                        </g>
                        <g id="ucp-copy" transform="translate(1.000000, 56.000000)">
                            <rect id="Rectangle-138" fill="#00B6B5" x="0" y="0" width="95" height="22" rx="2"></rect>
                            <text id="DTR-cache" font-family="OpenSans, Open Sans" font-size="10" font-weight="normal" fill="#FFFFFF">
                                <tspan x="23.7836914" y="15">DTR cache</tspan>
                            </text>
                        </g>
                        <rect id="node-border" stroke="#445D6E" stroke-width="2" x="0" y="0" width="97" height="102" rx="2"></rect>
                    </g>
                </g>
                <g id="asia" transform="translate(0.000000, 350.000000)">
                    <rect id="group" stroke="#82949E" stroke-width="2" stroke-dasharray="5,5,5,5" x="0" y="0" width="336" height="175.781832" rx="2"></rect>
                    <text id="Asia-datacenter" font-family="OpenSans-Semibold, Open Sans" font-size="10" font-weight="500" fill="#82949E">
                        <tspan x="10.8218828" y="166.009524">Asia datacenter</tspan>
                    </text>
                    <text id="dtr.cache=true" font-family="OpenSans-Semibold, Open Sans" font-size="10" font-weight="500" fill="#82949E">
                        <tspan x="121" y="131.009524">dtr.cache=true</tspan>
                    </text>
                    <g id="nodes" transform="translate(14.000000, 12.000000)">
                        <g id="node-1-copy-4">
                            <g id="node">
                                <g id="node-label">
                                    <path d="M0,2.00295631 C0,0.896754086 0.897702336,0 1.99174577,0 L71,0 L71,10.6452381 C71,16.5244408 66.2312425,21.2904762 60.3513837,21.2904762 L0,21.2904762 L0,2.00295631 Z" id="Rectangle-127" fill="#445D6E"></path>
                                    <text id="worker-node" font-family="OpenSans, Open Sans" font-size="8" font-weight="normal" fill="#FFFFFF">
                                        <tspan x="6" y="14">worker node</tspan>
                                    </text>
                                </g>
                            </g>
                            <g id="engine" transform="translate(1.000000, 79.000000)">
                                <rect id="Rectangle-138" fill="#1488C6" x="0" y="0" width="95" height="22" rx="2"></rect>
                                <text id="Docker-EE-Engine" font-family="OpenSans, Open Sans" font-size="10" font-weight="normal" fill="#FFFFFF">
                                    <tspan x="7.59716797" y="15">Docker EE Engine</tspan>
                                </text>
                            </g>
                            <rect id="node-border" stroke="#445D6E" stroke-width="2" x="0" y="0" width="97" height="102" rx="2"></rect>
                        </g>
                        <g id="node-1-copy-6" transform="translate(214.000000, 0.000000)">
                            <g id="node">
                                <g id="node-label">
                                    <path d="M0,2.00295631 C0,0.896754086 0.897702336,0 1.99174577,0 L71,0 L71,10.6452381 C71,16.5244408 66.2312425,21.2904762 60.3513837,21.2904762 L0,21.2904762 L0,2.00295631 Z" id="Rectangle-127" fill="#445D6E"></path>
                                    <text id="worker-node" font-family="OpenSans, Open Sans" font-size="8" font-weight="normal" fill="#FFFFFF">
                                        <tspan x="6" y="14">worker node</tspan>
                                    </text>
                                </g>
                            </g>
                            <g id="engine" transform="translate(1.000000, 79.000000)">
                                <rect id="Rectangle-138" fill="#1488C6" x="0" y="0" width="95" height="22" rx="2"></rect>
                                <text id="Docker-EE-Engine" font-family="OpenSans, Open Sans" font-size="10" font-weight="normal" fill="#FFFFFF">
                                    <tspan x="7.59716797" y="15">Docker EE Engine</tspan>
                                </text>
                            </g>
                            <rect id="node-border" stroke="#445D6E" stroke-width="2" x="0" y="0" width="97" height="102" rx="2"></rect>
                        </g>
                    </g>
                    <g id="node-1-copy-5" transform="translate(121.000000, 12.000000)">
                        <g id="node">
                            <g id="node-label">
                                <path d="M0,2.00295631 C0,0.896754086 0.897702336,0 1.99174577,0 L71,0 L71,10.6452381 C71,16.5244408 66.2312425,21.2904762 60.3513837,21.2904762 L0,21.2904762 L0,2.00295631 Z" id="Rectangle-127" fill="#445D6E"></path>
                                <text id="worker-node" font-family="OpenSans, Open Sans" font-size="8" font-weight="normal" fill="#FFFFFF">
                                    <tspan x="6" y="14">worker node</tspan>
                                </text>
                            </g>
                        </g>
                        <g id="engine" transform="translate(1.000000, 79.000000)">
                            <rect id="Rectangle-138" fill="#1488C6" x="0" y="0" width="95" height="22" rx="2"></rect>
                            <text id="Docker-EE-Engine" font-family="OpenSans, Open Sans" font-size="10" font-weight="normal" fill="#FFFFFF">
                                <tspan x="7.59716797" y="15">Docker EE Engine</tspan>
                            </text>
                        </g>
                        <g id="ucp-copy" transform="translate(1.000000, 56.000000)">
                            <rect id="Rectangle-138" fill="#00B6B5" x="0" y="0" width="95" height="22" rx="2"></rect>
                            <text id="DTR-cache" font-family="OpenSans, Open Sans" font-size="10" font-weight="normal" fill="#FFFFFF">
                                <tspan x="23.7836914" y="15">DTR cache</tspan>
                            </text>
                        </g>
                        <rect id="node-border" stroke="#445D6E" stroke-width="2" x="0" y="0" width="97" height="102" rx="2"></rect>
                    </g>
                </g>
                <g id="arrow-2" transform="translate(549.000000, 238.000000)">
                    <circle id="Oval" fill="#E0E4E7" cx="4" cy="4" r="4"></circle>
                    <path d="M4,88 C4,88 14.695432,66.3896645 14.695432,44.9976782 C14.695432,23.6056918 4,1.99535635 4,1.99535635" id="Path-3" stroke="#E0E4E7" stroke-width="2" stroke-linecap="round" stroke-linejoin="round"></path>
                    <text id="pull-from-upstream" font-family="OpenSans-Semibold, Open Sans" font-size="14" font-weight="500" fill="#E0E4E7">
                        <tspan x="26.5" y="36">pull from</tspan>
                        <tspan x="26.5" y="55">upstream</tspan>
                    </text>
                </g>
                <g id="arrow-1" transform="translate(57.000000, 237.000000)">
                    <circle id="Oval" fill="#E0E4E7" cx="96" cy="4" r="4"></circle>
                    <path d="M96.0764013,88.0046436 C96.0764013,88.0046436 90,66.3943082 90,45.0023218 C90,23.6103355 96.0764013,2 96.0764013,2" id="Path-3" stroke="#E0E4E7" stroke-width="2" stroke-linecap="round" stroke-linejoin="round"></path>
                    <text id="pull-from-upstream" font-family="OpenSans-Semibold, Open Sans" font-size="14" font-weight="500" fill="#E0E4E7">
                        <tspan x="0" y="41">pull from</tspan>
                        <tspan x="0" y="60">upstream</tspan>
                    </text>
                </g>
                <g id="us" transform="translate(191.000000, 0.000000)">
                    <text id="US-datacenter---dtr." font-family="OpenSans-Semibold, Open Sans" font-size="10" font-weight="500" fill="#82949E">
                        <tspan x="10.8218828" y="267.009524">US datacenter - dtr.example.org</tspan>
                    </text>
                    <rect id="group" stroke="#82949E" stroke-width="2" stroke-dasharray="5,5,5,5" x="0" y="93" width="336" height="181" rx="2"></rect>
                    <g id="storage" transform="translate(14.000000, 194.000000)">
                        <rect id="Rectangle-138" fill="#FFB463" x="0" y="31" width="309" height="22" rx="2"></rect>
                        <text id="shared-storage" font-family="OpenSans, Open Sans" font-size="10" font-weight="normal" fill="#FFFFFF">
                            <tspan x="118.519531" y="46">shared storage</tspan>
                        </text>
                        <g id="arrows" transform="translate(44.000000, 0.000000)">
                            <g id="arrow-copy-2" transform="translate(218.500000, 17.000000) rotate(-90.000000) translate(-218.500000, -17.000000) translate(202.000000, 13.000000)">
                                <path d="M2,4 L33,4" id="Line" stroke="#FFB463" stroke-width="2" stroke-linecap="round" stroke-linejoin="round"></path>
                                <g id="Oval">
                                    <use fill="#FFB463" fill-rule="evenodd" xlink:href="#path-1"></use>
                                    <circle stroke="#F7F8F9" stroke-width="2" cx="4" cy="4" r="5"></circle>
                                </g>
                            </g>
                            <g id="arrow-copy-3" transform="translate(111.500000, 17.000000) rotate(-90.000000) translate(-111.500000, -17.000000) translate(95.000000, 13.000000)">
                                <path d="M2,4 L33,4" id="Line" stroke="#FFB463" stroke-width="2" stroke-linecap="round" stroke-linejoin="round"></path>
                                <g id="Oval">
                                    <use fill="#FFB463" fill-rule="evenodd" xlink:href="#path-2"></use>
                                    <circle stroke="#F7F8F9" stroke-width="2" cx="4" cy="4" r="5"></circle>
                                </g>
                            </g>
                            <g id="arrow-copy-4" transform="translate(4.500000, 17.000000) rotate(-90.000000) translate(-4.500000, -17.000000) translate(-12.000000, 13.000000)">
                                <path d="M2,4 L33,4" id="Line" stroke="#FFB463" stroke-width="2" stroke-linecap="round" stroke-linejoin="round"></path>
                                <g id="Oval">
                                    <use fill="#FFB463" fill-rule="evenodd" xlink:href="#path-3"></use>
                                    <circle stroke="#F7F8F9" stroke-width="2" cx="4" cy="4" r="5"></circle>
                                </g>
                            </g>
                        </g>
                    </g>
                    <g id="nodes" transform="translate(14.000000, 105.000000)">
                        <g id="node-1-copy-4">
                            <g id="node">
                                <g id="node-label">
                                    <path d="M0,2.00295631 C0,0.896754086 0.897702336,0 1.99174577,0 L71,0 L71,10.6452381 C71,16.5244408 66.2312425,21.2904762 60.3513837,21.2904762 L0,21.2904762 L0,2.00295631 Z" id="Rectangle-127" fill="#445D6E"></path>
                                    <text id="worker-node" font-family="OpenSans, Open Sans" font-size="8" font-weight="normal" fill="#FFFFFF">
                                        <tspan x="6" y="14">worker node</tspan>
                                    </text>
                                </g>
                            </g>
                            <g id="engine" transform="translate(1.000000, 79.000000)">
                                <rect id="Rectangle-138" fill="#1488C6" x="0" y="0" width="95" height="22" rx="2"></rect>
                                <text id="Docker-EE-Engine" font-family="OpenSans, Open Sans" font-size="10" font-weight="normal" fill="#FFFFFF">
                                    <tspan x="7.59716797" y="15">Docker EE Engine</tspan>
                                </text>
                            </g>
                            <g id="ucp" transform="translate(1.000000, 56.000000)">
                                <rect id="Rectangle-138" fill="#1488C6" x="0" y="0" width="95" height="22" rx="2"></rect>
                                <text id="UCP-agent" font-family="OpenSans, Open Sans" font-size="10" font-weight="normal" fill="#FFFFFF">
                                    <tspan x="23.7373047" y="15">UCP agent</tspan>
                                </text>
                            </g>
                            <g id="ucp-copy" transform="translate(1.000000, 33.000000)">
                                <rect id="Rectangle-138" fill="#FFB463" x="0" y="0" width="95" height="22" rx="2"></rect>
                                <text id="DTR-replica" font-family="OpenSans, Open Sans" font-size="10" font-weight="normal" fill="#FFFFFF">
                                    <tspan x="21.5986328" y="15">DTR replica</tspan>
                                </text>
                            </g>
                            <rect id="node-border" stroke="#445D6E" stroke-width="2" x="0" y="0" width="97" height="102" rx="2"></rect>
                        </g>
                        <g id="node-1-copy-5" transform="translate(107.000000, 0.000000)">
                            <g id="node">
                                <g id="node-label">
                                    <path d="M0,2.00295631 C0,0.896754086 0.897702336,0 1.99174577,0 L71,0 L71,10.6452381 C71,16.5244408 66.2312425,21.2904762 60.3513837,21.2904762 L0,21.2904762 L0,2.00295631 Z" id="Rectangle-127" fill="#445D6E"></path>
                                    <text id="worker-node" font-family="OpenSans, Open Sans" font-size="8" font-weight="normal" fill="#FFFFFF">
                                        <tspan x="6" y="14">worker node</tspan>
                                    </text>
                                </g>
                            </g>
                            <g id="engine" transform="translate(1.000000, 79.000000)">
                                <rect id="Rectangle-138" fill="#1488C6" x="0" y="0" width="95" height="22" rx="2"></rect>
                                <text id="Docker-EE-Engine" font-family="OpenSans, Open Sans" font-size="10" font-weight="normal" fill="#FFFFFF">
                                    <tspan x="7.59716797" y="15">Docker EE Engine</tspan>
                                </text>
                            </g>
                            <g id="ucp" transform="translate(1.000000, 56.000000)">
                                <rect id="Rectangle-138" fill="#1488C6" x="0" y="0" width="95" height="22" rx="2"></rect>
                                <text id="UCP-agent" font-family="OpenSans, Open Sans" font-size="10" font-weight="normal" fill="#FFFFFF">
                                    <tspan x="23.7373047" y="15">UCP agent</tspan>
                                </text>
                            </g>
                            <g id="ucp-copy" transform="translate(1.000000, 33.000000)">
                                <rect id="Rectangle-138" fill="#FFB463" x="0" y="0" width="95" height="22" rx="2"></rect>
                                <text id="DTR-replica" font-family="OpenSans, Open Sans" font-size="10" font-weight="normal" fill="#FFFFFF">
                                    <tspan x="21.5986328" y="15">DTR replica</tspan>
                                </text>
                            </g>
                            <rect id="node-border" stroke="#445D6E" stroke-width="2" x="0" y="0" width="97" height="102" rx="2"></rect>
                        </g>
                        <g id="node-1-copy-6" transform="translate(214.000000, 0.000000)">
                            <g id="node">
                                <g id="node-label">
                                    <path d="M0,2.00295631 C0,0.896754086 0.897702336,0 1.99174577,0 L71,0 L71,10.6452381 C71,16.5244408 66.2312425,21.2904762 60.3513837,21.2904762 L0,21.2904762 L0,2.00295631 Z" id="Rectangle-127" fill="#445D6E"></path>
                                    <text id="worker-node" font-family="OpenSans, Open Sans" font-size="8" font-weight="normal" fill="#FFFFFF">
                                        <tspan x="6" y="14">worker node</tspan>
                                    </text>
                                </g>
                            </g>
                            <g id="engine" transform="translate(1.000000, 79.000000)">
                                <rect id="Rectangle-138" fill="#1488C6" x="0" y="0" width="95" height="22" rx="2"></rect>
                                <text id="Docker-EE-Engine" font-family="OpenSans, Open Sans" font-size="10" font-weight="normal" fill="#FFFFFF">
                                    <tspan x="7.59716797" y="15">Docker EE Engine</tspan>
                                </text>
                            </g>
                            <g id="ucp" transform="translate(1.000000, 56.000000)">
                                <rect id="Rectangle-138" fill="#1488C6" x="0" y="0" width="95" height="22" rx="2"></rect>
                                <text id="UCP-agent" font-family="OpenSans, Open Sans" font-size="10" font-weight="normal" fill="#FFFFFF">
                                    <tspan x="23.7373047" y="15">UCP agent</tspan>
                                </text>
                            </g>
                            <g id="ucp-copy" transform="translate(1.000000, 33.000000)">
                                <rect id="Rectangle-138" fill="#FFB463" x="0" y="0" width="95" height="22" rx="2"></rect>
                                <text id="DTR-replica" font-family="OpenSans, Open Sans" font-size="10" font-weight="normal" fill="#FFFFFF">
                                    <tspan x="21.5986328" y="15">DTR replica</tspan>
                                </text>
                            </g>
                            <rect id="node-border" stroke="#445D6E" stroke-width="2" x="0" y="0" width="97" height="102" rx="2"></rect>
                        </g>
                    </g>
                    <g id="lb" transform="translate(15.000000, 51.000000)">
                        <g id="main">
                            <rect id="Rectangle-138" fill="#445D6E" x="0" y="0" width="309" height="22" rx="2"></rect>
                            <text id="your-load-balancer" font-family="OpenSans, Open Sans" font-size="10" font-weight="normal" fill="#FFFFFF">
                                <tspan x="111.437988" y="15">your load balancer</tspan>
                            </text>
                        </g>
                        <g id="arrows" transform="translate(43.000000, 21.000000)">
                            <g id="arrow-copy-3" transform="translate(218.500000, 17.000000) scale(1, -1) rotate(-90.000000) translate(-218.500000, -17.000000) translate(202.000000, 13.000000)">
                                <path d="M2,4 L33,4" id="Line" stroke="#445D6E" stroke-width="2" stroke-linecap="round" stroke-linejoin="round"></path>
                                <g id="Oval">
                                    <use fill="#445D6E" fill-rule="evenodd" xlink:href="#path-4"></use>
                                    <circle stroke="#F7F8F9" stroke-width="2" cx="4" cy="4" r="5"></circle>
                                </g>
                            </g>
                            <g id="arrow-copy" transform="translate(111.500000, 17.000000) scale(1, -1) rotate(-90.000000) translate(-111.500000, -17.000000) translate(95.000000, 13.000000)">
                                <path d="M2,4 L33,4" id="Line" stroke="#445D6E" stroke-width="2" stroke-linecap="round" stroke-linejoin="round"></path>
                                <g id="Oval">
                                    <use fill="#445D6E" fill-rule="evenodd" xlink:href="#path-5"></use>
                                    <circle stroke="#F7F8F9" stroke-width="2" cx="4" cy="4" r="5"></circle>
                                </g>
                            </g>
                            <g id="arrow-copy-2" transform="translate(4.500000, 17.000000) scale(1, -1) rotate(-90.000000) translate(-4.500000, -17.000000) translate(-12.000000, 13.000000)">
                                <path d="M2,4 L33,4" id="Line" stroke="#445D6E" stroke-width="2" stroke-linecap="round" stroke-linejoin="round"></path>
                                <g id="Oval">
                                    <use fill="#445D6E" fill-rule="evenodd" xlink:href="#path-6"></use>
                                    <circle stroke="#F7F8F9" stroke-width="2" cx="4" cy="4" r="5"></circle>
                                </g>
                            </g>
                        </g>
                    </g>
                    <g id="users" transform="translate(136.000000, 0.000000)" fill="#82949E">
                        <g id="user">
                            <text id="UI" font-family="OpenSans, Open Sans" font-size="12" font-weight="normal">
                                <tspan x="7" y="41">UI</tspan>
                            </text>
                            <path d="M13,13 C16.59125,13 19.5,10.083125 19.5,6.5 C19.5,2.90875 16.59125,0 13,0 C9.40875,0 6.5,2.90875 6.5,6.5 C6.5,10.083125 9.40875,13 13,13 L13,13 Z M13,16.25 C8.669375,16.25 0,18.419375 0,22.75 L0,26 L26,26 L26,22.75 C26,18.419375 17.330625,16.25 13,16.25 L13,16.25 Z" id="Shape"></path>
                        </g>
                        <g id="user-copy" transform="translate(42.000000, 0.000000)">
                            <text id="CLI" font-family="OpenSans, Open Sans" font-size="12" font-weight="normal">
                                <tspan x="4" y="41">CLI</tspan>
                            </text>
                            <path d="M13,13 C16.59125,13 19.5,10.083125 19.5,6.5 C19.5,2.90875 16.59125,0 13,0 C9.40875,0 6.5,2.90875 6.5,6.5 C6.5,10.083125 9.40875,13 13,13 L13,13 Z M13,16.25 C8.669375,16.25 0,18.419375 0,22.75 L0,26 L26,26 L26,22.75 C26,18.419375 17.330625,16.25 13,16.25 L13,16.25 Z" id="Shape"></path>
                        </g>
                    </g>
                </g>
            </g>
        </g>
    </g>
</svg>