<?xml version="1.0" encoding="UTF-8"?>
<svg width="740px" height="250px" viewBox="0 0 740 250" version="1.1" xmlns="http://www.w3.org/2000/svg" xmlns:xlink="http://www.w3.org/1999/xlink" style="background: #FFFFFF;">
    <!-- Generator: Sketch 48.2 (47327) - http://www.bohemiancoding.com/sketch -->
    <title>cache-overview-2</title>
    <desc>Created with Sketch.</desc>
    <defs></defs>
    <g id="dtr-diagrams" stroke="none" stroke-width="1" fill="none" fill-rule="evenodd">
        <g id="cache-overview-2">
            <g id="all" transform="translate(16.000000, 3.000000)">
                <g id="right" transform="translate(410.000000, 0.000000)">
                    <text id="Asia-office" font-family="OpenSans-Semibold, Open Sans" font-size="12" font-weight="500" fill="#82949E">
                        <tspan x="11.025" y="234.009524">Asia office</tspan>
                    </text>
                    <rect id="group" stroke="#82949E" stroke-width="2" stroke-dasharray="5,5,5,5" x="0" y="0" width="300" height="245" rx="2"></rect>
                    <g id="Group" transform="translate(64.000000, 19.000000)">
                        <g id="arrow-3" transform="translate(97.000000, 52.000000)">
                            <circle id="Oval" fill="#E0E4E7" cx="4" cy="86" r="4"></circle>
                            <path d="M4,87 C4,87 14.695432,65.3896645 14.695432,43.9976782 C14.695432,22.6056918 4,0.995356351 4,0.995356351" id="Path-3" stroke="#E0E4E7" stroke-width="2" stroke-linecap="round" stroke-linejoin="round"></path>
                            <text id="3.-pull-image-layers" font-family="OpenSans-Semibold, Open Sans" font-size="14" font-weight="500" fill="#E0E4E7">
                                <tspan x="35.5" y="41">3. pull image</tspan>
                                <tspan x="35.5" y="60">layers</tspan>
                            </text>
                        </g>
                        <g id="users" transform="translate(0.000000, 128.000000)" fill="#82949E">
                            <path d="M69,28 C73.69625,28 77.5,24.185625 77.5,19.5 C77.5,14.80375 73.69625,11 69,11 C64.30375,11 60.5,14.80375 60.5,19.5 C60.5,24.185625 64.30375,28 69,28 L69,28 Z M69,32.25 C63.336875,32.25 52,35.086875 52,40.75 L52,45 L86,45 L86,40.75 C86,35.086875 74.663125,32.25 69,32.25 L69,32.25 Z" id="user-copy-2"></path>
                            <path d="M17,28 C21.69625,28 25.5,24.185625 25.5,19.5 C25.5,14.80375 21.69625,11 17,11 C12.30375,11 8.5,14.80375 8.5,19.5 C8.5,24.185625 12.30375,28 17,28 L17,28 Z M17,32.25 C11.336875,32.25 3.55271368e-15,35.086875 3.55271368e-15,40.75 L3.55271368e-15,45 L34,45 L34,40.75 C34,35.086875 22.663125,32.25 17,32.25 L17,32.25 Z" id="user-copy"></path>
                            <path d="M43,26.5 C50.320625,26.5 56.25,20.5540625 56.25,13.25 C56.25,5.929375 50.320625,0 43,0 C35.679375,0 29.75,5.929375 29.75,13.25 C29.75,20.5540625 35.679375,26.5 43,26.5 L43,26.5 Z M43,33.125 C34.1721875,33.125 16.5,37.5471875 16.5,46.375 L16.5,53 L69.5,53 L69.5,46.375 C69.5,37.5471875 51.8278125,33.125 43,33.125 L43,33.125 Z" id="user" stroke="#FFFFFF" stroke-width="2"></path>
                        </g>
                        <g id="server" transform="translate(9.000000, 0.000000)">
                            <text id="cache-asia" font-family="OpenSans-Semibold, Open Sans" font-size="12" font-weight="500" fill="#82949E">
                                <tspan x="3" y="70">cache-asia</tspan>
                            </text>
                            <g id="dials-3" transform="translate(3.000000, 43.000000)" fill="#82949E">
                                <circle id="Oval-4-Copy" cx="11" cy="3" r="3"></circle>
                                <circle id="Oval-4" cx="3" cy="3" r="3"></circle>
                            </g>
                            <rect id="3" stroke="#82949E" stroke-width="2" x="0" y="38" width="66" height="16" rx="2"></rect>
                            <g id="dials-2" transform="translate(3.000000, 24.000000)" fill="#82949E">
                                <circle id="Oval-4-Copy" cx="11" cy="3" r="3"></circle>
                                <circle id="Oval-4" cx="3" cy="3" r="3"></circle>
                            </g>
                            <rect id="2" stroke="#82949E" stroke-width="2" x="0" y="19" width="66" height="16" rx="2"></rect>
                            <g id="dials" transform="translate(3.000000, 5.000000)" fill="#82949E">
                                <circle id="Oval-4-Copy" cx="11" cy="3" r="3"></circle>
                                <circle id="Oval-4" cx="3" cy="3" r="3"></circle>
                            </g>
                            <rect id="1" stroke="#82949E" stroke-width="2" x="0" y="0" width="66" height="16" rx="2"></rect>
                        </g>
                    </g>
                </g>
                <g id="arrows" transform="translate(282.000000, 51.000000)">
                    <g id="arrow-1" transform="translate(16.000000, 0.000000)">
                        <circle id="Oval" fill="#E0E4E7" cx="67" cy="9" r="4"></circle>
                        <path d="M4,9 C4,9 14.5912352,0.109468108 36.0154397,0.109468108 C57.4396442,0.109468108 68.0308794,9 68.0308794,9" id="Path-3" stroke="#E0E4E7" stroke-width="2" stroke-linecap="round" stroke-linejoin="round"></path>
                        <text id="2.-redirect" font-family="OpenSans-Semibold, Open Sans" font-size="14" font-weight="500" fill="#E0E4E7">
                            <tspan x="0" y="34">2. redirect</tspan>
                        </text>
                    </g>
                    <g id="arrow-2" transform="translate(0.000000, 115.000000)">
                        <circle id="Oval" fill="#E0E4E7" cx="17" cy="4" r="4"></circle>
                        <path d="M17,4 C17,4 27.5912352,14.1507354 49.0154397,14.1507354 C70.4396442,14.1507354 81.0308794,4 81.0308794,4" id="Path-3" stroke="#E0E4E7" stroke-width="2" stroke-linecap="round" stroke-linejoin="round"></path>
                        <text id="1.-authenticate" font-family="OpenSans-Semibold, Open Sans" font-size="14" font-weight="500" fill="#E0E4E7">
                            <tspan x="0" y="36">1. authenticate</tspan>
                        </text>
                    </g>
                </g>
                <g id="middle">
                    <text id="DTR-cluster-(US)---d" font-family="OpenSans-Semibold, Open Sans" font-size="12" font-weight="500" fill="#82949E">
                        <tspan x="10.025" y="234.009524">DTR cluster (US) - dtr.example.org</tspan>
                    </text>
                    <rect id="group" stroke="#82949E" stroke-width="2" stroke-dasharray="5,5,5,5" x="0" y="0" width="260" height="245" rx="2"></rect>
                    <g id="website-dev" transform="translate(79.000000, 47.000000)">
                        <text id="tags" font-family="OpenSans-Semibold, Open Sans" font-size="12" font-weight="500" fill="#82949E">
                            <tspan x="38" y="40">1</tspan>
                            <tspan x="38" y="57">2</tspan>
                            <tspan x="38" y="74">3-stable</tspan>
                        </text>
                        <path d="M31.5,31.5 L31.5,73.5" id="Line" stroke="#E0E4E7" stroke-linecap="square"></path>
                        <text id="website/ui" font-family="OpenSans-Semibold, Open Sans" font-size="14" font-weight="500" fill="#82949E">
                            <tspan x="31" y="19">website/ui</tspan>
                        </text>
                        <text id="" font-family="FontAwesome" font-size="26" font-weight="normal" fill="#8F9EA8">
                            <tspan x="0" y="22"></tspan>
                        </text>
                    </g>
                </g>
            </g>
        </g>
    </g>
</svg>