<?xml version="1.0" encoding="utf-8"?>
<!-- Generator: Adobe Illustrator 23.0.1, SVG Export Plug-In . SVG Version: 6.00 Build 0)  -->
<svg version="1.1" id="Layer_1" xmlns="http://www.w3.org/2000/svg" xmlns:xlink="http://www.w3.org/1999/xlink" x="0px" y="0px"
	 viewBox="0 0 740 250" style="enable-background:new 0 0 740 250;" xml:space="preserve">
<style type="text/css">
	.st0{fill:#FFFFFF;}
	.st1{fill:#82949E;}
	.st2{font-family:'OpenSans';}
	.st3{font-size:12px;}
	.st4{fill:none;stroke:#82949E;stroke-width:2;stroke-dasharray:5,5,5,5;}
	.st5{fill-rule:evenodd;clip-rule:evenodd;fill:#E0E4E7;}
	.st6{fill:none;stroke:#E0E4E7;stroke-width:2;stroke-linecap:round;stroke-linejoin:round;}
	.st7{fill:#E0E4E7;}
	.st8{font-size:14px;}
	.st9{fill-rule:evenodd;clip-rule:evenodd;fill:#82949E;}
	.st10{fill-rule:evenodd;clip-rule:evenodd;fill:#82949E;stroke:#FFFFFF;stroke-width:2;}
	.st11{fill:none;stroke:#82949E;stroke-width:2;}
	.st12{fill:none;stroke:#E0E4E7;stroke-linecap:square;}
	.st13{fill:#8F9EA8;}
	.st14{font-family:'MyriadPro-Regular';}
	.st15{font-size:26px;}
</style>
<rect class="st0" width="740" height="250"/>
<title>cache-overview-2</title>
<desc>Created with Sketch.</desc>
<g id="dtr-diagrams">
	<g id="cache-overview-2">
		<g id="all" transform="translate(16.000000, 3.000000)">
			<g id="right" transform="translate(410.000000, 0.000000)">
				<text transform="matrix(1 0 0 1 11.025 234.0095)" class="st1 st2 st3">Asia office</text>
				<path id="group" class="st4" d="M2,0h296c1.1,0,2,0.9,2,2v241c0,1.1-0.9,2-2,2H2c-1.1,0-2-0.9-2-2V2C0,0.9,0.9,0,2,0z"/>
				<g id="Group" transform="translate(64.000000, 19.000000)">
					<g id="arrow-3" transform="translate(97.000000, 52.000000)">
						<circle id="Oval" class="st5" cx="4" cy="86" r="4"/>
						<path id="Path-3" class="st6" d="M4,87c0,0,10.7-21.6,10.7-43S4,1,4,1"/>
						<text transform="matrix(1 0 0 1 35.5 41)" class="st7 st2 st8">3. pull image</text>
						<text transform="matrix(1 0 0 1 118.6318 41)" class="st7 st2 st8"> </text>
						<text transform="matrix(1 0 0 1 35.5 60)" class="st7 st2 st8">layers</text>
					</g>
					<g id="users" transform="translate(0.000000, 128.000000)">
						<path id="user-copy-2" class="st9" d="M69,28c4.7,0,8.5-3.8,8.5-8.5c0-4.7-3.8-8.5-8.5-8.5s-8.5,3.8-8.5,8.5
							C60.5,24.2,64.3,28,69,28L69,28z M69,32.2c-5.7,0-17,2.8-17,8.5V45h34v-4.2C86,35.1,74.7,32.2,69,32.2L69,32.2z"/>
						<path id="user-copy" class="st9" d="M17,28c4.7,0,8.5-3.8,8.5-8.5c0-4.7-3.8-8.5-8.5-8.5s-8.5,3.8-8.5,8.5
							C8.5,24.2,12.3,28,17,28L17,28z M17,32.2c-5.7,0-17,2.8-17,8.5V45h34v-4.2C34,35.1,22.7,32.2,17,32.2L17,32.2z"/>
						<path id="user" class="st10" d="M43,26.5c7.3,0,13.2-5.9,13.2-13.2C56.2,5.9,50.3,0,43,0S29.8,5.9,29.8,13.2
							C29.8,20.6,35.7,26.5,43,26.5L43,26.5z M43,33.1c-8.8,0-26.5,4.4-26.5,13.2V53h53v-6.6C69.5,37.5,51.8,33.1,43,33.1L43,33.1z"
							/>
					</g>
					<g id="server" transform="translate(9.000000, 0.000000)">
						<text transform="matrix(1 0 0 1 3 70)" class="st1 st2 st3">cache-asia</text>
						<g id="dials-3" transform="translate(3.000000, 43.000000)">
							<circle id="Oval-4-Copy" class="st9" cx="11" cy="3" r="3"/>
							<circle id="Oval-4" class="st9" cx="3" cy="3" r="3"/>
						</g>
						<path class="st11" d="M2,38h62c1.1,0,2,0.9,2,2v12c0,1.1-0.9,2-2,2H2c-1.1,0-2-0.9-2-2V40C0,38.9,0.9,38,2,38z"/>
						<g id="dials-2" transform="translate(3.000000, 24.000000)">
							<circle class="st9" cx="11" cy="3" r="3"/>
							<circle class="st9" cx="3" cy="3" r="3"/>
						</g>
						<path class="st11" d="M2,19h62c1.1,0,2,0.9,2,2v12c0,1.1-0.9,2-2,2H2c-1.1,0-2-0.9-2-2V21C0,19.9,0.9,19,2,19z"/>
						<g id="dials" transform="translate(3.000000, 5.000000)">
							<circle class="st9" cx="11" cy="3" r="3"/>
							<circle class="st9" cx="3" cy="3" r="3"/>
						</g>
						<path class="st11" d="M2,0h62c1.1,0,2,0.9,2,2v12c0,1.1-0.9,2-2,2H2c-1.1,0-2-0.9-2-2V2C0,0.9,0.9,0,2,0z"/>
					</g>
				</g>
			</g>
			<g id="arrows" transform="translate(282.000000, 51.000000)">
				<g id="arrow-1" transform="translate(16.000000, 0.000000)">
					<circle class="st5" cx="67" cy="9" r="4"/>
					<path class="st6" d="M4,9c0,0,10.6-8.9,32-8.9S68,9,68,9"/>
					<text transform="matrix(1 0 0 1 0 34)" class="st7 st2 st8">2. redirect</text>
				</g>
				<g id="arrow-2" transform="translate(0.000000, 115.000000)">
					<circle class="st5" cx="17" cy="4" r="4"/>
					<path class="st6" d="M17,4c0,0,10.6,10.2,32,10.2S81,4,81,4"/>
					<text transform="matrix(1 0 0 1 0 36)" class="st7 st2 st8">1. authenticate</text>
				</g>
			</g>
			<g id="middle">
				<text transform="matrix(1 0 0 1 10.025 234.0095)" class="st1 st2 st3">DTR cluster (US) - dtr.example.org</text>
				<path class="st4" d="M2,0h256c1.1,0,2,0.9,2,2v241c0,1.1-0.9,2-2,2H2c-1.1,0-2-0.9-2-2V2C0,0.9,0.9,0,2,0z"/>
				<g id="website-dev" transform="translate(79.000000, 47.000000)">
					<text transform="matrix(1 0 0 1 38 40)" class="st1 st2 st3">1</text>
					<text transform="matrix(1 0 0 1 44.8613 40)" class="st1 st2 st3"> </text>
					<text transform="matrix(1 0 0 1 38 57)" class="st1 st2 st3">2</text>
					<text transform="matrix(1 0 0 1 44.8613 57)" class="st1 st2 st3"> </text>
					<text transform="matrix(1 0 0 1 38 74)" class="st1 st2 st3">3-stable</text>
					<path id="Line" class="st12" d="M31.5,31.5v42"/>
					<text transform="matrix(1 0 0 1 31 19)" class="st0 st2 st8">website/ui</text>
					<text transform="matrix(1 0 0 1 0 22)" class="st13 st14 st15"></text>
				</g>
			</g>
		</g>
	</g>
</g>
</svg>
