<?xml version="1.0" encoding="utf-8"?>
<!-- Generator: Adobe Illustrator 23.0.1, SVG Export Plug-In . SVG Version: 6.00 Build 0)  -->
<svg version="1.1" id="Layer_1" xmlns="http://www.w3.org/2000/svg" xmlns:xlink="http://www.w3.org/1999/xlink" x="0px" y="0px"
	 viewBox="0 0 740 250" style="enable-background:new 0 0 740 250;" xml:space="preserve">
<style type="text/css">
	.st0{fill:#FFFFFF;}
	.st1{fill:#82949E;}
	.st2{font-family:'OpenSans';}
	.st3{font-size:10px;}
	.st4{fill-rule:evenodd;clip-rule:evenodd;fill:#445D6E;}
	.st5{font-size:8px;}
	.st6{fill-rule:evenodd;clip-rule:evenodd;fill:#1488C6;}
	.st7{fill:none;stroke:#445D6E;stroke-width:2;}
	.st8{fill-rule:evenodd;clip-rule:evenodd;fill:#FFB463;}
	.st9{fill:none;stroke:#82949E;stroke-width:2;stroke-dasharray:5,5,5,5;}
</style>
<rect class="st0" width="740" height="250"/>
<title>architecture-2</title>
<desc>Created with Sketch.</desc>
<g id="dtr-diagrams">
	<g id="architecture-2">
		<text transform="matrix(1 0 0 1 28.025 239.0095)" class="st1 st2 st3">UCP cluster</text>
		<g id="nodes" transform="translate(36.000000, 15.000000)">
			<g id="workers" transform="translate(233.000000, 116.000000)">
				<g id="node-1-copy">
					<g id="node">
						<g id="node-label">
							<path id="Rectangle-127" class="st4" d="M0,2c0-1.1,0.9-2,2-2h69v10.6c0,5.9-4.8,10.6-10.6,10.6H0V2z"/>
							<text transform="matrix(1 0 0 1 6 14)" class="st0 st2 st5">worker node</text>
						</g>
					</g>
					<g id="engine" transform="translate(1.000000, 79.000000)">
						<path id="Rectangle-138" class="st6" d="M2,0h91c1.1,0,2,0.9,2,2v18c0,1.1-0.9,2-2,2H2c-1.1,0-2-0.9-2-2V2C0,0.9,0.9,0,2,0z"
							/>
						<text transform="matrix(1 0 0 1 7.5972 15)" class="st0 st2 st3">Docker Engine EE</text>
					</g>
					<g id="ucp" transform="translate(1.000000, 56.000000)">
						<path class="st6" d="M2,0h91c1.1,0,2,0.9,2,2v18c0,1.1-0.9,2-2,2H2c-1.1,0-2-0.9-2-2V2C0,0.9,0.9,0,2,0z"/>
						<text transform="matrix(1 0 0 1 20.4756 15)" class="st0 st2 st3">UCP worker</text>
					</g>
					<path id="node-border" class="st7" d="M2,0h93c1.1,0,2,0.9,2,2v98c0,1.1-0.9,2-2,2H2c-1.1,0-2-0.9-2-2V2C0,0.9,0.9,0,2,0z"/>
				</g>
				<g id="node-1-copy-2" transform="translate(107.000000, 0.000000)">
					<g>
						<g>
							<path class="st4" d="M0,2c0-1.1,0.9-2,2-2h69v10.6c0,5.9-4.8,10.6-10.6,10.6H0V2z"/>
							<text transform="matrix(1 0 0 1 6 14)" class="st0 st2 st5">worker node</text>
						</g>
					</g>
					<g transform="translate(1.000000, 79.000000)">
						<path class="st6" d="M2,0h91c1.1,0,2,0.9,2,2v18c0,1.1-0.9,2-2,2H2c-1.1,0-2-0.9-2-2V2C0,0.9,0.9,0,2,0z"/>
						<text transform="matrix(1 0 0 1 7.5972 15)" class="st0 st2 st3">Docker Engine EE</text>
					</g>
					<g transform="translate(1.000000, 56.000000)">
						<path class="st6" d="M2,0h91c1.1,0,2,0.9,2,2v18c0,1.1-0.9,2-2,2H2c-1.1,0-2-0.9-2-2V2C0,0.9,0.9,0,2,0z"/>
						<text transform="matrix(1 0 0 1 20.4756 15)" class="st0 st2 st3">UCP worker</text>
					</g>
					<path class="st7" d="M2,0h93c1.1,0,2,0.9,2,2v98c0,1.1-0.9,2-2,2H2c-1.1,0-2-0.9-2-2V2C0,0.9,0.9,0,2,0z"/>
				</g>
			</g>
			<g id="worker-dtr" transform="translate(347.000000, 0.000000)">
				<g id="node-1">
					<g>
						<g>
							<path class="st4" d="M0,2c0-1.1,0.9-2,2-2h69v10.6c0,5.9-4.8,10.6-10.6,10.6H0V2z"/>
							<text transform="matrix(1 0 0 1 6 14)" class="st0 st2 st5">worker node</text>
						</g>
					</g>
					<g transform="translate(1.000000, 79.000000)">
						<path class="st6" d="M2,0h91c1.1,0,2,0.9,2,2v18c0,1.1-0.9,2-2,2H2c-1.1,0-2-0.9-2-2V2C0,0.9,0.9,0,2,0z"/>
						<text transform="matrix(1 0 0 1 7.5972 15)" class="st0 st2 st3">Docker Engine EE</text>
					</g>
					<g transform="translate(1.000000, 56.000000)">
						<path class="st6" d="M2,0h91c1.1,0,2,0.9,2,2v18c0,1.1-0.9,2-2,2H2c-1.1,0-2-0.9-2-2V2C0,0.9,0.9,0,2,0z"/>
						<text transform="matrix(1 0 0 1 20.4756 15)" class="st0 st2 st3">UCP worker</text>
					</g>
					<g id="dtr" transform="translate(1.000000, 33.000000)">
						<path class="st8" d="M2,0h91c1.1,0,2,0.9,2,2v18c0,1.1-0.9,2-2,2H2c-1.1,0-2-0.9-2-2V2C0,0.9,0.9,0,2,0z"/>
						<text transform="matrix(1 0 0 1 38.498 15)" class="st0 st2 st3">DTR</text>
					</g>
					<path class="st7" d="M2,0h93c1.1,0,2,0.9,2,2v98c0,1.1-0.9,2-2,2H2c-1.1,0-2-0.9-2-2V2C0,0.9,0.9,0,2,0z"/>
				</g>
				<g id="node-2" transform="translate(107.000000, 0.000000)">
					<g>
						<g>
							<path class="st4" d="M0,2c0-1.1,0.9-2,2-2h69v10.6c0,5.9-4.8,10.6-10.6,10.6H0V2z"/>
							<text transform="matrix(1 0 0 1 6 14)" class="st0 st2 st5">worker node</text>
						</g>
					</g>
					<g transform="translate(1.000000, 79.000000)">
						<path class="st6" d="M2,0h91c1.1,0,2,0.9,2,2v18c0,1.1-0.9,2-2,2H2c-1.1,0-2-0.9-2-2V2C0,0.9,0.9,0,2,0z"/>
						<text transform="matrix(1 0 0 1 7.5972 15)" class="st0 st2 st3">Docker Engine EE</text>
					</g>
					<g transform="translate(1.000000, 56.000000)">
						<path class="st6" d="M2,0h91c1.1,0,2,0.9,2,2v18c0,1.1-0.9,2-2,2H2c-1.1,0-2-0.9-2-2V2C0,0.9,0.9,0,2,0z"/>
						<text transform="matrix(1 0 0 1 20.4756 15)" class="st0 st2 st3">UCP worker</text>
					</g>
					<g transform="translate(1.000000, 33.000000)">
						<path class="st8" d="M2,0h91c1.1,0,2,0.9,2,2v18c0,1.1-0.9,2-2,2H2c-1.1,0-2-0.9-2-2V2C0,0.9,0.9,0,2,0z"/>
						<text transform="matrix(1 0 0 1 38.498 15)" class="st0 st2 st3">DTR</text>
					</g>
					<path class="st7" d="M2,0h93c1.1,0,2,0.9,2,2v98c0,1.1-0.9,2-2,2H2c-1.1,0-2-0.9-2-2V2C0,0.9,0.9,0,2,0z"/>
				</g>
				<g id="node-3" transform="translate(214.000000, 0.000000)">
					<g>
						<g>
							<path class="st4" d="M0,2c0-1.1,0.9-2,2-2h69v10.6c0,5.9-4.8,10.6-10.6,10.6H0V2z"/>
							<text transform="matrix(1 0 0 1 6 14)" class="st0 st2 st5">worker node</text>
						</g>
					</g>
					<g transform="translate(1.000000, 79.000000)">
						<path class="st6" d="M2,0h91c1.1,0,2,0.9,2,2v18c0,1.1-0.9,2-2,2H2c-1.1,0-2-0.9-2-2V2C0,0.9,0.9,0,2,0z"/>
						<text transform="matrix(1 0 0 1 7.5972 15)" class="st0 st2 st3">Docker Engine EE</text>
					</g>
					<g transform="translate(1.000000, 56.000000)">
						<path class="st6" d="M2,0h91c1.1,0,2,0.9,2,2v18c0,1.1-0.9,2-2,2H2c-1.1,0-2-0.9-2-2V2C0,0.9,0.9,0,2,0z"/>
						<text transform="matrix(1 0 0 1 20.4756 15)" class="st0 st2 st3">UCP worker</text>
					</g>
					<g transform="translate(1.000000, 33.000000)">
						<path class="st8" d="M2,0h91c1.1,0,2,0.9,2,2v18c0,1.1-0.9,2-2,2H2c-1.1,0-2-0.9-2-2V2C0,0.9,0.9,0,2,0z"/>
						<text transform="matrix(1 0 0 1 38.498 15)" class="st0 st2 st3">DTR</text>
					</g>
					<path class="st7" d="M2,0h93c1.1,0,2,0.9,2,2v98c0,1.1-0.9,2-2,2H2c-1.1,0-2-0.9-2-2V2C0,0.9,0.9,0,2,0z"/>
				</g>
			</g>
			<g id="manager-ucp">
				<g transform="translate(214.000000, 0.000000)">
					<g>
						<g>
							<path class="st4" d="M0,2c0-1.1,0.9-2,2-2h69v10.6c0,5.9-4.8,10.6-10.6,10.6H0V2z"/>
							<text transform="matrix(1 0 0 1 6 14)" class="st0 st2 st5">manager node</text>
						</g>
					</g>
					<g transform="translate(1.000000, 79.000000)">
						<path class="st6" d="M2,0h91c1.1,0,2,0.9,2,2v18c0,1.1-0.9,2-2,2H2c-1.1,0-2-0.9-2-2V2C0,0.9,0.9,0,2,0z"/>
						<text transform="matrix(1 0 0 1 7.5972 15)" class="st0 st2 st3">Docker Engine EE</text>
					</g>
					<g transform="translate(1.000000, 56.000000)">
						<path class="st6" d="M2,0h91c1.1,0,2,0.9,2,2v18c0,1.1-0.9,2-2,2H2c-1.1,0-2-0.9-2-2V2C0,0.9,0.9,0,2,0z"/>
						<text transform="matrix(1 0 0 1 16.0298 15)" class="st0 st2 st3">UCP manager</text>
					</g>
					<path class="st7" d="M2,0h93c1.1,0,2,0.9,2,2v98c0,1.1-0.9,2-2,2H2c-1.1,0-2-0.9-2-2V2C0,0.9,0.9,0,2,0z"/>
				</g>
				<g transform="translate(107.000000, 0.000000)">
					<g>
						<g>
							<path class="st4" d="M0,2c0-1.1,0.9-2,2-2h69v10.6c0,5.9-4.8,10.6-10.6,10.6H0V2z"/>
							<text transform="matrix(1 0 0 1 6 14)" class="st0 st2 st5">manager node</text>
						</g>
					</g>
					<g transform="translate(1.000000, 79.000000)">
						<path class="st6" d="M2,0h91c1.1,0,2,0.9,2,2v18c0,1.1-0.9,2-2,2H2c-1.1,0-2-0.9-2-2V2C0,0.9,0.9,0,2,0z"/>
						<text transform="matrix(1 0 0 1 7.5972 15)" class="st0 st2 st3">Docker Engine EE</text>
					</g>
					<g transform="translate(1.000000, 56.000000)">
						<path class="st6" d="M2,0h91c1.1,0,2,0.9,2,2v18c0,1.1-0.9,2-2,2H2c-1.1,0-2-0.9-2-2V2C0,0.9,0.9,0,2,0z"/>
						<text transform="matrix(1 0 0 1 16.0298 15)" class="st0 st2 st3">UCP manager</text>
					</g>
					<path class="st7" d="M2,0h93c1.1,0,2,0.9,2,2v98c0,1.1-0.9,2-2,2H2c-1.1,0-2-0.9-2-2V2C0,0.9,0.9,0,2,0z"/>
				</g>
				<g>
					<g>
						<g>
							<path class="st4" d="M0,2c0-1.1,0.9-2,2-2h69v10.6c0,5.9-4.8,10.6-10.6,10.6H0V2z"/>
							<text transform="matrix(1 0 0 1 6 14)" class="st0 st2 st5">manager node</text>
						</g>
					</g>
					<g transform="translate(1.000000, 79.000000)">
						<path class="st6" d="M2,0h91c1.1,0,2,0.9,2,2v18c0,1.1-0.9,2-2,2H2c-1.1,0-2-0.9-2-2V2C0,0.9,0.9,0,2,0z"/>
						<text transform="matrix(1 0 0 1 7.5972 15)" class="st0 st2 st3">Docker Engine EE</text>
					</g>
					<g transform="translate(1.000000, 56.000000)">
						<path class="st6" d="M2,0h91c1.1,0,2,0.9,2,2v18c0,1.1-0.9,2-2,2H2c-1.1,0-2-0.9-2-2V2C0,0.9,0.9,0,2,0z"/>
						<text transform="matrix(1 0 0 1 16.0298 15)" class="st0 st2 st3">UCP manager</text>
					</g>
					<path class="st7" d="M2,0h93c1.1,0,2,0.9,2,2v98c0,1.1-0.9,2-2,2H2c-1.1,0-2-0.9-2-2V2C0,0.9,0.9,0,2,0z"/>
				</g>
			</g>
		</g>
		<path id="group" class="st9" d="M23,3h683c1.1,0,2,0.9,2,2v241c0,1.1-0.9,2-2,2H23c-1.1,0-2-0.9-2-2V5C21,3.9,21.9,3,23,3z"/>
	</g>
</g>
</svg>
