<?xml version="1.0" encoding="utf-8"?>
<!-- Generator: Adobe Illustrator 23.0.1, SVG Export Plug-In . SVG Version: 6.00 Build 0)  -->
<svg version="1.1" id="Layer_1" xmlns="http://www.w3.org/2000/svg" xmlns:xlink="http://www.w3.org/1999/xlink" x="0px" y="0px"
	 viewBox="0 0 740 250" style="enable-background:new 0 0 740 250;" xml:space="preserve">
<style type="text/css">
	.st0{fill:#FFFFFF;}
	.st1{fill:#82949E;}
	.st2{font-family:'OpenSans';}
	.st3{font-size:12px;}
	.st4{fill:none;stroke:#82949E;stroke-width:2;stroke-dasharray:5,5,5,5;}
	.st5{fill:none;stroke:#E0E4E7;stroke-linecap:square;}
	.st6{font-size:14px;}
	.st7{fill:#8F9EA8;}
	.st8{font-family:'MyriadPro-Regular';}
	.st9{font-size:26px;}
	.st10{fill-rule:evenodd;clip-rule:evenodd;fill:#E0E4E7;}
	.st11{fill:none;stroke:#FFFFFF;stroke-width:2;}
</style>
<rect class="st0" width="740" height="250"/>
<title>pull-mirror-1</title>
<desc>Created with Sketch.</desc>
<g id="dtr-diagrams">
	<g id="pull-mirror-1">
		<g id="all" transform="translate(129.000000, 3.000000)">
			<g id="right" transform="translate(283.000000, 0.000000)">
				<text transform="matrix(1 0 0 1 11.025 234.0095)" class="st1 st2 st3">DTR at qa.example.org</text>
				<path id="group" class="st4" d="M2,0h196c1.1,0,2,0.9,2,2v241c0,1.1-0.9,2-2,2H2c-1.1,0-2-0.9-2-2V2C0,0.9,0.9,0,2,0z"/>
				<g id="website-dev" transform="translate(31.000000, 47.000000)">
					<text transform="matrix(1 0 0 1 38 40)" class="st1 st2 st3">1</text>
					<text transform="matrix(1 0 0 1 44.8613 40)" class="st1 st2 st3"> </text>
					<text transform="matrix(1 0 0 1 38 57)" class="st1 st2 st3">2</text>
					<text transform="matrix(1 0 0 1 44.8613 57)" class="st1 st2 st3"> </text>
					<text transform="matrix(1 0 0 1 38 74)" class="st1 st2 st3">3-stable</text>
					<path id="Line" class="st5" d="M31.5,31.5v42"/>
					<text transform="matrix(1 0 0 1 31 19)" class="st1 st2 st6">website/ui</text>
					<text transform="matrix(1 0 0 1 0 22)" class="st7 st8 st9"></text>
				</g>
			</g>
			
				<g id="Shape" transform="translate(241.843068, 138.250000) scale(-1, -1) rotate(40.000000) translate(-241.843068, -138.250000) ">
				<g>
					<path id="path-1" class="st10" d="M245.6,112c-14.1,0-25.5,11.1-26.2,25h-7.6l11.3,14.8l11.2-14.8l-7.4,0
						c0.6-9.8,8.8-17.5,18.7-17.5c10.3,0,18.8,8.4,18.8,18.7c0,10.3-8.4,18.8-18.8,18.8c-6,0-11.3-2.8-14.7-7.1l-4.6,6.1
						c4.8,5.2,11.7,8.5,19.3,8.5c14.5,0,26.3-11.8,26.2-26.3C271.8,123.8,260.1,112,245.6,112z"/>
				</g>
				<path class="st11" d="M228,136l8.3,0l-13.2,17.4L209.8,136h8.7c1.2-14,12.9-25,27.1-25c15,0,27.3,12.2,27.3,27.2
					c0,15-12.2,27.3-27.2,27.3c-7.7,0-14.9-3.2-20-8.8l-0.6-0.6l5.9-7.8l0.8,1c3.4,4.2,8.4,6.8,13.9,6.8c9.8,0,17.8-8,17.8-17.8
					c0-9.8-8-17.7-17.8-17.7C236.6,120.5,229.1,127.2,228,136z"/>
			</g>
			<g id="middle">
				<text transform="matrix(1 0 0 1 11.025 234.0095)" class="st1 st2 st3">DTR at dev.example.org</text>
				<path class="st4" d="M2,0h196c1.1,0,2,0.9,2,2v241c0,1.1-0.9,2-2,2H2c-1.1,0-2-0.9-2-2V2C0,0.9,0.9,0,2,0z"/>
				<g transform="translate(31.000000, 47.000000)">
					<text transform="matrix(1 0 0 1 38 40)" class="st1 st2 st3">1</text>
					<text transform="matrix(1 0 0 1 44.8613 40)" class="st1 st2 st3"> </text>
					<text transform="matrix(1 0 0 1 38 57)" class="st1 st2 st3">2</text>
					<text transform="matrix(1 0 0 1 44.8613 57)" class="st1 st2 st3"> </text>
					<text transform="matrix(1 0 0 1 38 74)" class="st1 st2 st3">3-stable</text>
					<path class="st5" d="M31.5,31.5v42"/>
					<text transform="matrix(1 0 0 1 31 19)" class="st1 st2 st6">website/ui</text>
					<text transform="matrix(1 0 0 1 0 22)" class="st7 st8 st9"></text>
				</g>
			</g>
		</g>
	</g>
</g>
</svg>
