<?xml version="1.0" encoding="utf-8"?>
<!-- Generator: Adobe Illustrator 23.0.1, SVG Export Plug-In . SVG Version: 6.00 Build 0)  -->
<svg version="1.1" id="Layer_1" xmlns="http://www.w3.org/2000/svg" xmlns:xlink="http://www.w3.org/1999/xlink" x="0px" y="0px"
	 viewBox="0 0 740 250" style="enable-background:new 0 0 740 250;" xml:space="preserve">
<style type="text/css">
	.st0{fill:#FFFFFF;}
	.st1{fill:#82949E;}
	.st2{font-family:'OpenSans';}
	.st3{font-size:12px;}
	.st4{fill:none;stroke:#82949E;stroke-width:2;stroke-dasharray:5,5,5,5;}
	.st5{fill:none;stroke:#E0E4E7;stroke-linecap:square;}
	.st6{font-size:14px;}
	.st7{fill:#8F9EA8;}
	.st8{font-family:'MyriadPro-Regular';}
	.st9{font-size:26px;}
	.st10{fill-rule:evenodd;clip-rule:evenodd;fill:#E0E4E7;}
	.st11{fill:none;stroke:#E0E4E7;stroke-width:2;stroke-linecap:round;stroke-linejoin:round;}
	.st12{fill-rule:evenodd;clip-rule:evenodd;fill:#254356;}
	.st13{fill-rule:evenodd;clip-rule:evenodd;fill:#82949E;}
	.st14{fill:#E0E4E7;}
	.st15{font-family:'Courier-Bold';}
	.st16{font-size:13px;}
	.st17{fill:#254356;}
</style>
<rect class="st0" width="740" height="250"/>
<title>push-mirror-1</title>
<desc>Created with Sketch.</desc>
<g id="dtr-diagrams">
	<g id="push-mirror-1">
		<g id="right" transform="translate(537.000000, 3.000000)">
			<text transform="matrix(1 0 0 1 11.025 234.0095)" class="st1 st2 st3">DTR at qa,example.org</text>
			<path id="group" class="st4" d="M2,0h196c1.1,0,2,0.9,2,2v241c0,1.1-0.9,2-2,2H2c-1.1,0-2-0.9-2-2V2C0,0.9,0.9,0,2,0z"/>
			<g id="website-prod" transform="translate(31.000000, 47.000000)">
				<text transform="matrix(1 0 0 1 38 40)" class="st1 st2 st3">2018-01-16</text>
				<path id="Line" class="st5" d="M31.5,31.5v9"/>
				<text transform="matrix(1 0 0 1 31 19)" class="st1 st2 st6">website/ui</text>
				<text transform="matrix(1 0 0 1 0 22)" class="st7 st8 st9"></text>
			</g>
		</g>
		<g id="arrow-2" transform="translate(461.000000, 81.000000)">
			<circle id="Oval" class="st10" cx="65" cy="44" r="4"/>
			<path id="Path-3" class="st11" d="M0,44c0,0,10.6-9.5,32-9.5S64,44,64,44"/>
			<g id="annotation" transform="translate(20.000000, 0.000000)">
				<circle id="Oval-Copy" class="st10" cx="12" cy="12" r="12"/>
				<text transform="matrix(1 0 0 1 8 18)" class="st0 st2 st6">2</text>
			</g>
		</g>
		<g id="middle" transform="translate(254.000000, 3.000000)">
			<text transform="matrix(1 0 0 1 11.025 234.0095)" class="st1 st2 st3">DTR at dev.example.org</text>
			<path class="st4" d="M2,0h196c1.1,0,2,0.9,2,2v241c0,1.1-0.9,2-2,2H2c-1.1,0-2-0.9-2-2V2C0,0.9,0.9,0,2,0z"/>
			<g id="website-dev" transform="translate(31.000000, 47.000000)">
				<text transform="matrix(1 0 0 1 38 40)" class="st1 st2 st3">1</text>
				<text transform="matrix(1 0 0 1 44.8613 40)" class="st1 st2 st3"> </text>
				<text transform="matrix(1 0 0 1 38 57)" class="st1 st2 st3">2</text>
				<text transform="matrix(1 0 0 1 44.8613 57)" class="st1 st2 st3"> </text>
				<text transform="matrix(1 0 0 1 38 74)" class="st1 st2 st3">3-stable</text>
				<path class="st5" d="M31.5,31.5v42"/>
				<text transform="matrix(1 0 0 1 31 19)" class="st1 st2 st6">website/ui</text>
				<text transform="matrix(1 0 0 1 0 22)" class="st7 st8 st9"></text>
			</g>
		</g>
		<g id="arrow-1" transform="translate(178.000000, 81.000000)">
			<circle class="st10" cx="65" cy="44" r="4"/>
			<path class="st11" d="M0,44c0,0,10.6-9.5,32-9.5S64,44,64,44"/>
			<g transform="translate(20.000000, 0.000000)">
				<circle class="st10" cx="12" cy="12" r="12"/>
				<text transform="matrix(1 0 0 1 8 18)" class="st0 st2 st6">1</text>
			</g>
		</g>
		<g id="terminal" transform="translate(4.000000, 78.000000)">
			<path id="Rectangle-2" class="st12" d="M2,0h166c1.1,0,2,0.9,2,2v98c0,1.1-0.9,2-2,2H2c-1.1,0-2-0.9-2-2V2C0,0.9,0.9,0,2,0z"/>
			<path id="Rectangle-2-Copy" class="st13" d="M2,0h166c1.1,0,2,0.9,2,2v16c0,1.1-0.9,2-2,2H2c-1.1,0-2-0.9-2-2V2C0,0.9,0.9,0,2,0z
				"/>
			<text transform="matrix(1 0 0 1 11 38)" class="st14 st15 st16">&gt; docker push</text>
			<text transform="matrix(1 0 0 1 112.4165 38)" class="st14 st15 st16"> </text>
			<text transform="matrix(1 0 0 1 11 74)" class="st14 st15 st16">dev.example.org/</text>
			<text transform="matrix(1 0 0 1 135.8203 74)" class="st14 st15 st16"> </text>
			<text transform="matrix(1 0 0 1 11 92)" class="st14 st15 st16">website/ui:3-stable</text>
			<text transform="matrix(1 0 0 1 51 13)" class="st17 st15 st3">localhost</text>
		</g>
	</g>
</g>
</svg>
