<?xml version="1.0" encoding="utf-8"?>
<!-- Generator: Adobe Illustrator 23.0.1, SVG Export Plug-In . SVG Version: 6.00 Build 0)  -->
<svg version="1.1" id="Layer_1" xmlns="http://www.w3.org/2000/svg" xmlns:xlink="http://www.w3.org/1999/xlink" x="0px" y="0px"
	 viewBox="0 0 740 250" style="enable-background:new 0 0 740 250;" xml:space="preserve">
<style type="text/css">
	.st0{fill:#FFFFFF;}
	.st1{fill-rule:evenodd;clip-rule:evenodd;fill:#439FD1;}
	.st2{fill-rule:evenodd;clip-rule:evenodd;fill:#82949E;}
	.st3{fill:none;stroke:#FFFFFF;stroke-width:3;}
	.st4{fill:none;stroke:#439FD1;stroke-width:2;stroke-linecap:round;stroke-linejoin:round;}
	.st5{fill:none;stroke:#F7F8F9;stroke-width:2;}
	.st6{fill-rule:evenodd;clip-rule:evenodd;fill:#445D6E;}
	.st7{font-family:'OpenSans';}
	.st8{font-size:8px;}
	.st9{fill-rule:evenodd;clip-rule:evenodd;fill:#1488C6;}
	.st10{font-size:10px;}
	.st11{fill:none;stroke:#445D6E;stroke-width:2;}
</style>
<rect class="st0" width="740" height="250"/>
<title>repair-replica-2</title>
<desc>Created with Sketch.</desc>
<g id="dtr-diagrams">
	<g id="repair-replica-2">
		<g id="group" transform="translate(29.000000, 55.000000)">
			<g id="dtr">
				<g id="network" transform="translate(0.000000, 120.000000)">
					<path id="Rectangle-138" class="st1" d="M2,7h678c1.1,0,2,0.9,2,2v10c0,1.1-0.9,2-2,2H2c-1.1,0-2-0.9-2-2V9C0,7.9,0.9,7,2,7z"
						/>
					<g id="error" transform="translate(327.000000, 0.000000)">
						<g id="Oval-3">
							<g>
								<circle id="path-1" class="st2" cx="14" cy="14" r="14"/>
							</g>
							<circle class="st3" cx="14" cy="14" r="15.5"/>
						</g>
						<path id="Path-5" class="st3" d="M14,14L8.3,8.3L14,14l5.7-5.7L14,14z M14,14l-5.7,5.7L14,14l5.7,5.7L14,14z"/>
					</g>
				</g>
				<g id="arrows" transform="translate(229.000000, 102.000000)">
				</g>
				<g id="nodes">
					<g id="node-1-copy-6" transform="translate(476.000000, 0.000000)">
						
							<g id="arrow" transform="translate(48.500000, 119.000000) rotate(-90.000000) translate(-48.500000, -119.000000) translate(32.000000, 115.000000)">
							<path id="Line" class="st4" d="M2,4h31"/>
							<g id="Oval">
								<g>
									<circle id="path-2" class="st1" cx="4" cy="4" r="4"/>
								</g>
								<circle class="st5" cx="4" cy="4" r="5"/>
							</g>
						</g>
						<g id="node">
							<g id="node-label">
								<path id="Rectangle-127" class="st6" d="M0,2c0-1.1,0.9-2,2-2h69v10.6c0,5.9-4.8,10.6-10.6,10.6H0V2z"/>
								<text transform="matrix(1 0 0 1 6 14)" class="st0 st7 st8">worker node</text>
							</g>
						</g>
						<g id="engine" transform="translate(1.000000, 43.000000)">
							<path class="st9" d="M2,0h91c1.1,0,2,0.9,2,2v54c0,1.1-0.9,2-2,2H2c-1.1,0-2-0.9-2-2V2C0,0.9,0.9,0,2,0z"/>
							<text transform="matrix(1 0 0 1 38.498 33)" class="st0 st7 st10">DTR</text>
						</g>
						<path id="node-border" class="st11" d="M2,0h93c1.1,0,2,0.9,2,2v98c0,1.1-0.9,2-2,2H2c-1.1,0-2-0.9-2-2V2C0,0.9,0.9,0,2,0z"/>
					</g>
					<g id="node-1-copy-5" transform="translate(367.000000, 0.000000)">
						
							<g transform="translate(48.500000, 119.000000) rotate(-90.000000) translate(-48.500000, -119.000000) translate(32.000000, 115.000000)">
							<path class="st4" d="M2,4h31"/>
							<g>
								<g>
									<circle id="path-3" class="st1" cx="4" cy="4" r="4"/>
								</g>
								<circle class="st5" cx="4" cy="4" r="5"/>
							</g>
						</g>
						<g>
							<g>
								<path class="st6" d="M0,2c0-1.1,0.9-2,2-2h69v10.6c0,5.9-4.8,10.6-10.6,10.6H0V2z"/>
								<text transform="matrix(1 0 0 1 6 14)" class="st0 st7 st8">worker node</text>
							</g>
						</g>
						<g transform="translate(1.000000, 43.000000)">
							<path class="st9" d="M2,0h91c1.1,0,2,0.9,2,2v54c0,1.1-0.9,2-2,2H2c-1.1,0-2-0.9-2-2V2C0,0.9,0.9,0,2,0z"/>
							<text transform="matrix(1 0 0 1 38.498 33)" class="st0 st7 st10">DTR</text>
						</g>
						<path class="st11" d="M2,0h93c1.1,0,2,0.9,2,2v98c0,1.1-0.9,2-2,2H2c-1.1,0-2-0.9-2-2V2C0,0.9,0.9,0,2,0z"/>
					</g>
					<g id="node-1-copy-2" transform="translate(218.000000, 0.000000)">
						
							<g transform="translate(48.500000, 119.000000) rotate(-90.000000) translate(-48.500000, -119.000000) translate(32.000000, 115.000000)">
							<path class="st4" d="M2,4h31"/>
							<g>
								<g>
									<circle id="path-4" class="st1" cx="4" cy="4" r="4"/>
								</g>
								<circle class="st5" cx="4" cy="4" r="5"/>
							</g>
						</g>
						<g>
							<g>
								<path class="st6" d="M0,2c0-1.1,0.9-2,2-2h69v10.6c0,5.9-4.8,10.6-10.6,10.6H0V2z"/>
								<text transform="matrix(1 0 0 1 6 14)" class="st0 st7 st8">worker node</text>
							</g>
						</g>
						<g transform="translate(1.000000, 43.000000)">
							<path class="st9" d="M2,0h91c1.1,0,2,0.9,2,2v54c0,1.1-0.9,2-2,2H2c-1.1,0-2-0.9-2-2V2C0,0.9,0.9,0,2,0z"/>
							<text transform="matrix(1 0 0 1 38.498 33)" class="st0 st7 st10">DTR</text>
						</g>
						<path class="st11" d="M2,0h93c1.1,0,2,0.9,2,2v98c0,1.1-0.9,2-2,2H2c-1.1,0-2-0.9-2-2V2C0,0.9,0.9,0,2,0z"/>
					</g>
					<g id="node-1-copy" transform="translate(109.000000, 0.000000)">
						
							<g transform="translate(48.500000, 119.000000) rotate(-90.000000) translate(-48.500000, -119.000000) translate(32.000000, 115.000000)">
							<path class="st4" d="M2,4h31"/>
							<g>
								<g>
									<circle id="path-5" class="st1" cx="4" cy="4" r="4"/>
								</g>
								<circle class="st5" cx="4" cy="4" r="5"/>
							</g>
						</g>
						<g>
							<g>
								<path class="st6" d="M0,2c0-1.1,0.9-2,2-2h69v10.6c0,5.9-4.8,10.6-10.6,10.6H0V2z"/>
								<text transform="matrix(1 0 0 1 6 14)" class="st0 st7 st8">worker node</text>
							</g>
						</g>
						<g transform="translate(1.000000, 43.000000)">
							<path class="st9" d="M2,0h91c1.1,0,2,0.9,2,2v54c0,1.1-0.9,2-2,2H2c-1.1,0-2-0.9-2-2V2C0,0.9,0.9,0,2,0z"/>
							<text transform="matrix(1 0 0 1 38.498 33)" class="st0 st7 st10">DTR</text>
						</g>
						<path class="st11" d="M2,0h93c1.1,0,2,0.9,2,2v98c0,1.1-0.9,2-2,2H2c-1.1,0-2-0.9-2-2V2C0,0.9,0.9,0,2,0z"/>
					</g>
					<g id="node-1">
						
							<g transform="translate(48.500000, 119.000000) rotate(-90.000000) translate(-48.500000, -119.000000) translate(32.000000, 115.000000)">
							<path class="st4" d="M2,4h31"/>
							<g>
								<g>
									<circle id="path-6" class="st1" cx="4" cy="4" r="4"/>
								</g>
								<circle class="st5" cx="4" cy="4" r="5"/>
							</g>
						</g>
						<g>
							<g>
								<path class="st6" d="M0,2c0-1.1,0.9-2,2-2h69v10.6c0,5.9-4.8,10.6-10.6,10.6H0V2z"/>
								<text transform="matrix(1 0 0 1 6 14)" class="st0 st7 st8">worker node</text>
							</g>
						</g>
						<g transform="translate(1.000000, 43.000000)">
							<path class="st9" d="M2,0h91c1.1,0,2,0.9,2,2v54c0,1.1-0.9,2-2,2H2c-1.1,0-2-0.9-2-2V2C0,0.9,0.9,0,2,0z"/>
							<text transform="matrix(1 0 0 1 38.498 33)" class="st0 st7 st10">DTR</text>
						</g>
						<path class="st11" d="M2,0h93c1.1,0,2,0.9,2,2v98c0,1.1-0.9,2-2,2H2c-1.1,0-2-0.9-2-2V2C0,0.9,0.9,0,2,0z"/>
					</g>
				</g>
			</g>
		</g>
	</g>
</g>
</svg>
