<?xml version="1.0" encoding="utf-8"?>
<!-- Generator: Adobe Illustrator 23.0.1, SVG Export Plug-In . SVG Version: 6.00 Build 0)  -->
<svg version="1.1" id="Layer_1" xmlns="http://www.w3.org/2000/svg" xmlns:xlink="http://www.w3.org/1999/xlink" x="0px" y="0px"
	 viewBox="0 0 740 383" style="enable-background:new 0 0 740 383;" xml:space="preserve">
<style type="text/css">
	.st0{fill:#FFFFFF;}
	.st1{fill:#E0E4E7;}
	.st2{font-family:'OpenSans';}
	.st3{font-size:10px;}
	.st4{fill:none;stroke:#E0E4E7;stroke-width:2;stroke-dasharray:5,5,5,5;}
	.st5{fill-rule:evenodd;clip-rule:evenodd;fill:#1488C6;}
	.st6{font-size:14px;}
	.st7{fill-rule:evenodd;clip-rule:evenodd;fill:#82949E;}
	.st8{fill:#637986;}
	.st9{font-family:'Courier-Bold';}
	.st10{fill:none;stroke:#1488C6;stroke-width:2;stroke-linecap:round;stroke-linejoin:round;}
	.st11{fill:#FFFFFF;filter:url(#Adobe_OpacityMaskFilter);}
	.st12{mask:url(#mask-10_1_);}
	.st13{fill:none;stroke:#FFFFFF;stroke-width:4;}
	.st14{fill-rule:evenodd;clip-rule:evenodd;fill:#FFFFFF;stroke:#82949E;stroke-width:2;}
	.st15{fill:#82949E;}
	.st16{font-size:12px;}
	.st17{fill-rule:evenodd;clip-rule:evenodd;fill:#00B6B5;}
	.st18{fill:none;stroke:#FFFFFF;stroke-linecap:round;}
	.st19{fill:none;stroke:#E0E4E7;stroke-linecap:square;}
	.st20{fill-rule:evenodd;clip-rule:evenodd;fill:#254356;}
	.st21{enable-background:new    ;}
</style>
<rect class="st0" width="740" height="383"/>
<title>sign-an-image-2</title>
<desc>Created with Sketch.</desc>
<g id="Group" transform="translate(53.000000, 12.000000)">
	<g>
		<g id="stack" transform="translate(0.000000, 94.000000)">
			<text transform="matrix(1 0 0 1 10.8219 172.0095)" class="st1 st2 st3">DTR</text>
			<path id="group" class="st4" d="M2,0h364c1.1,0,2,0.9,2,2v176c0,1.1-0.9,2-2,2H2c-1.1,0-2-0.9-2-2V2C0,0.9,0.9,0,2,0z"/>
			<g id="components" transform="translate(10.000000, 9.000000)">
				<g id="Group-2" transform="translate(0.000000, 109.000000)">
					<g id="notary" transform="translate(176.000000, 0.000000)">
						<path id="Rectangle-138" class="st5" d="M2,0h168c1.1,0,2,0.9,2,2v30c0,1.1-0.9,2-2,2H2c-1.1,0-2-0.9-2-2V2C0,0.9,0.9,0,2,0z"
							/>
						<text transform="matrix(1 0 0 1 42.9927 23)" class="st0 st2 st6">notary server</text>
					</g>
					<g id="registry">
						<path class="st5" d="M2,0h168c1.1,0,2,0.9,2,2v30c0,1.1-0.9,2-2,2H2c-1.1,0-2-0.9-2-2V2C0,0.9,0.9,0,2,0z"/>
						<text transform="matrix(1 0 0 1 61.9146 23)" class="st0 st2 st6">registry</text>
					</g>
				</g>
				<g id="others" transform="translate(0.000000, 38.000000)">
					<path class="st7" d="M2,0h344c1.1,0,2,0.9,2,2v63c0,1.1-0.9,2-2,2H2c-1.1,0-2-0.9-2-2V2C0,0.9,0.9,0,2,0z"/>
				</g>
				<g id="front-end">
					<path class="st5" d="M2,0h344c1.1,0,2,0.9,2,2v30c0,1.1-0.9,2-2,2H2c-1.1,0-2-0.9-2-2V2C0,0.9,0.9,0,2,0z"/>
					<text transform="matrix(1 0 0 1 143.5093 23)" class="st0 st2 st6">front-end</text>
				</g>
			</g>
		</g>
		<g id="user" transform="translate(54.000000, 0.000000)">
			<text transform="matrix(1 0 0 1 0 47)" class="st8 st9 st6">&gt; export DOCKER_CONTENT_TRUST=1</text>
			<text transform="matrix(1 0 0 1 260.4424 47)" class="st8 st9 st6"> </text>
			<text transform="matrix(1 0 0 1 0 63)" class="st8 st9 st6">docker push</text>
			<path id="Shape" class="st7" d="M131,13c3.6,0,6.5-2.9,6.5-6.5c0-3.6-2.9-6.5-6.5-6.5s-6.5,2.9-6.5,6.5
				C124.5,10.1,127.4,13,131,13L131,13z M131,16.2c-4.3,0-13,2.2-13,6.5V26h26v-3.2C144,18.4,135.3,16.2,131,16.2L131,16.2z"/>
		</g>
	</g>
	
		<g id="arrow" transform="translate(381.500000, 120.000000) scale(1, -1) translate(-381.500000, -120.000000) translate(355.000000, 116.000000)">
		<path class="st10" d="M2,4h50.5"/>
		<defs>
			<filter id="Adobe_OpacityMaskFilter" filterUnits="userSpaceOnUse" x="-2" y="-10" width="12" height="12">
				<feColorMatrix  type="matrix" values="1 0 0 0 0  0 1 0 0 0  0 0 1 0 0  0 0 0 1 0"/>
			</filter>
		</defs>
		<mask maskUnits="userSpaceOnUse" x="-2" y="-10" width="12" height="12" id="mask-10_1_">
			<rect x="-410" y="138" class="st11" width="12" height="-12"/>
			<g>
				<circle id="path-9_1_" cx="-404" cy="132" r="4"/>
			</g>
		</mask>
		<g class="st12">
			<g>
				<circle class="st5" cx="4" cy="4" r="4"/>
			</g>
			<g>
				<circle class="st13" cx="4" cy="4" r="4"/>
			</g>
		</g>
	</g>
	<g id="chrome">
		<rect x="407" y="103" class="st14" width="228" height="144"/>
	</g>
	<g id="table" transform="translate(9.000000, 60.000000)">
		<g id="data" transform="translate(0.000000, 25.000000)">
			<text transform="matrix(1 0 0 1 552 116)" class="st15 st2 st16">dave.lauper</text>
			<text transform="matrix(1 0 0 1 468 116)" class="st15 st2 st16">9baa16</text>
			<text transform="matrix(1 0 0 1 407 116)" class="st15 st2 st16">1</text>
		</g>
		<g id="signed" transform="translate(9.000000, 28.000000)">
			<circle id="sign" class="st17" cx="412.5" cy="108.5" r="5.5"/>
			<polyline id="Path-2" class="st18" points="409.3,108 411.7,110.3 415.5,106.3 			"/>
		</g>
		<g id="header">
			<text transform="matrix(1 0 0 1 552 116)" class="st15 st2 st16">last pushed</text>
			<text transform="matrix(1 0 0 1 468 116)" class="st15 st2 st16">id</text>
			<text transform="matrix(1 0 0 1 407 116)" class="st15 st2 st16">tag</text>
		</g>
	</g>
	<g id="repo" transform="translate(0.000000, 26.000000)">
		<rect x="407" y="103" class="st7" width="228" height="27"/>
		<text transform="matrix(1 0 0 1 416 121)" class="st0 st2 st16">dev/nginx</text>
	</g>
	<g>
		<path class="st19" d="M416.5,182.5h208"/>
		<rect x="407" y="103" class="st5" width="228" height="27"/>
		<text transform="matrix(1 0 0 1 416 121)" class="st0 st2 st16">docker trusted registry</text>
	</g>
</g>
<path id="Rectangle-2" class="st20" d="M65,303h167c1.1,0,2,0.6,2,1.3v65.3c0,0.7-0.9,1.3-2,1.3H65c-1.1,0-2-0.6-2-1.3v-65.3
	C63,303.6,63.9,303,65,303z"/>
<path class="st10" d="M149.5,257.5V308"/>
<text transform="matrix(1 0 0 1 74 323)" class="st1 st9 st6">dev/ngnix:1</text>
<path id="Rectangle-2_1_" class="st20" d="M241,303h167c1.1,0,2,0.6,2,1.3v65.3c0,0.7-0.9,1.3-2,1.3H241c-1.1,0-2-0.6-2-1.3v-65.3
	C239,303.6,239.9,303,241,303z"/>
<path class="st10" d="M325.5,257.5V308"/>
<circle class="st5" cx="149.3" cy="259.3" r="4.2"/>
<circle class="st5" cx="325.3" cy="259.3" r="4.2"/>
<text transform="matrix(1 0 0 1 243 323)" class="st21"><tspan x="0" y="0" class="st1 st9 st6">dev/ngnix:1</tspan><tspan x="0" y="16.8" class="st0 st9 st6">digest: m647f0</tspan><tspan x="0" y="33.6" class="st0 st9 st6">signed-by: 53f4a3</tspan></text>
</svg>
