<?xml version="1.0" encoding="utf-8"?>
<!-- Generator: Adobe Illustrator 23.0.1, SVG Export Plug-In . SVG Version: 6.00 Build 0)  -->
<svg version="1.1" id="Layer_1" xmlns="http://www.w3.org/2000/svg" xmlns:xlink="http://www.w3.org/1999/xlink" x="0px" y="0px"
	 viewBox="0 0 740 383" style="enable-background:new 0 0 740 383;" xml:space="preserve">
<style type="text/css">
	.st0{fill:#E0E4E7;}
	.st1{font-family:'OpenSans';}
	.st2{font-size:10px;}
	.st3{fill:none;stroke:#E0E4E7;stroke-width:2;stroke-dasharray:5,5,5,5;}
	.st4{fill-rule:evenodd;clip-rule:evenodd;fill:#1488C6;}
	.st5{fill:#FFFFFF;}
	.st6{font-size:14px;}
	.st7{fill-rule:evenodd;clip-rule:evenodd;fill:#254356;}
	.st8{fill:none;stroke:#1488C6;stroke-width:2;stroke-linecap:round;stroke-linejoin:round;}
	.st9{fill-rule:evenodd;clip-rule:evenodd;fill:#82949E;}
	.st10{fill:#637986;}
	.st11{font-family:'Courier-Bold';}
	.st12{fill-rule:evenodd;clip-rule:evenodd;fill:#FFFFFF;stroke:#82949E;stroke-width:2;}
	.st13{fill:#82949E;}
	.st14{font-size:12px;}
	.st15{fill:none;stroke:#E0E4E7;stroke-linecap:square;}
	.st16{font-size:13px;}
</style>
<title>sign-an-image-1</title>
<desc>Created with Sketch.</desc>
<text transform="matrix(1 0 0 1 63.8219 278.0095)" class="st0 st1 st2">DTR</text>
<path id="group" class="st3" d="M55,106h364c1.1,0,2,0.9,2,2v176c0,1.1-0.9,2-2,2H55c-1.1,0-2-0.9-2-2V108C53,106.9,53.9,106,55,106
	z"/>
<g id="notary" transform="translate(176.000000, 0.000000)">
	<path id="Rectangle-138" class="st4" d="M65,224h168c1.1,0,2,0.9,2,2v30c0,1.1-0.9,2-2,2H65c-1.1,0-2-0.9-2-2v-30
		C63,224.9,63.9,224,65,224z"/>
	<text transform="matrix(1 0 0 1 105.9927 247)" class="st5 st1 st6">notary server</text>
</g>
<g id="registry">
	<path class="st4" d="M65,224h168c1.1,0,2,0.9,2,2v30c0,1.1-0.9,2-2,2H65c-1.1,0-2-0.9-2-2v-30C63,224.9,63.9,224,65,224z"/>
	<text transform="matrix(1 0 0 1 124.9146 247)" class="st5 st1 st6">registry</text>
</g>
<path id="Rectangle-2" class="st7" d="M65,303h167c1.1,0,2,0.6,2,1.3v65.3c0,0.7-0.9,1.3-2,1.3H65c-1.1,0-2-0.6-2-1.3v-65.3
	C63,303.6,63.9,303,65,303z"/>
<path class="st8" d="M149.5,257.5V308"/>
<g id="others" transform="translate(0.000000, 38.000000)">
	<path class="st9" d="M65,115h344c1.1,0,2,0.9,2,2v63c0,1.1-0.9,2-2,2H65c-1.1,0-2-0.9-2-2v-63C63,115.9,63.9,115,65,115z"/>
</g>
<g id="front-end">
	<path class="st4" d="M65,115h344c1.1,0,2,0.9,2,2v30c0,1.1-0.9,2-2,2H65c-1.1,0-2-0.9-2-2v-30C63,115.9,63.9,115,65,115z"/>
	<text transform="matrix(1 0 0 1 206.5093 138)" class="st5 st1 st6">front-end</text>
</g>
<g id="user" transform="translate(130.000000, 0.000000)">
	<text transform="matrix(1 0 0 1 53 59)" class="st10 st11 st6">&gt; docker push</text>
	<path id="Shape" class="st9" d="M108,25c3.6,0,6.5-2.9,6.5-6.5S111.6,12,108,12s-6.5,2.9-6.5,6.5S104.4,25,108,25L108,25z
		 M108,28.2c-4.3,0-13,2.2-13,6.5V38h26v-3.2C121,30.4,112.3,28.2,108,28.2L108,28.2z"/>
</g>
<path class="st8" d="M410,132h50.5"/>
<g id="chrome">
	<rect x="460" y="115" class="st12" width="228" height="144"/>
</g>
<g id="table" transform="translate(9.000000, 60.000000)">
	<g id="data" transform="translate(0.000000, 25.000000)">
		<text transform="matrix(1 0 0 1 605 128)" class="st13 st1 st14">dave.lauper</text>
		<text transform="matrix(1 0 0 1 521 128)" class="st13 st1 st14">9baa16</text>
		<text transform="matrix(1 0 0 1 460 128)" class="st13 st1 st14">1</text>
	</g>
	<g id="header">
		<text transform="matrix(1 0 0 1 605 128)" class="st13 st1 st14">last pushed</text>
		<text transform="matrix(1 0 0 1 521 128)" class="st13 st1 st14">id</text>
		<text transform="matrix(1 0 0 1 460 128)" class="st13 st1 st14">tag</text>
	</g>
</g>
<g id="repo" transform="translate(0.000000, 26.000000)">
	<rect x="460" y="115" class="st9" width="228" height="27"/>
	<text transform="matrix(1 0 0 1 469 133)" class="st5 st1 st14">dev/nginx</text>
</g>
<path class="st15" d="M469.5,194.5h208"/>
<rect x="460" y="115" class="st4" width="228" height="27"/>
<text transform="matrix(1 0 0 1 469 133)" class="st5 st1 st14">docker trusted registry</text>
<text transform="matrix(1 0 0 1 74 323)" class="st0 st11 st6">dev/ngnix:1</text>
<text transform="matrix(1 0 0 1 175.4165 373)" class="st0 st11 st16"> </text>
<text transform="matrix(1 0 0 1 198.8203 409)" class="st0 st11 st16"> </text>
<path id="Rectangle-2_1_" class="st7" d="M241,303h167c1.1,0,2,0.6,2,1.3v65.3c0,0.7-0.9,1.3-2,1.3H241c-1.1,0-2-0.6-2-1.3v-65.3
	C239,303.6,239.9,303,241,303z"/>
<path class="st8" d="M325.5,257.5V308"/>
<circle class="st4" cx="149.3" cy="259.3" r="4.2"/>
<circle class="st4" cx="325.3" cy="259.3" r="4.2"/>
<circle class="st4" cx="411.3" cy="132.3" r="4.2"/>
</svg>
