<?xml version="1.0" encoding="utf-8"?>
<!-- Generator: Adobe Illustrator 23.0.1, SVG Export Plug-In . SVG Version: 6.00 Build 0)  -->
<svg version="1.1" id="Layer_1" xmlns="http://www.w3.org/2000/svg" xmlns:xlink="http://www.w3.org/1999/xlink" x="0px" y="0px"
	 viewBox="0 0 740 250" style="enable-background:new 0 0 740 250;" xml:space="preserve">
<style type="text/css">
	.st0{fill:#FFFFFF;}
	.st1{fill:#82949E;}
	.st2{font-family:'OpenSans';}
	.st3{font-size:10px;}
	.st4{fill-rule:evenodd;clip-rule:evenodd;fill:#439FD1;}
	.st5{fill-rule:evenodd;clip-rule:evenodd;fill:#FFFFFF;fill-opacity:5.000000e-02;}
	.st6{fill-rule:evenodd;clip-rule:evenodd;fill:#FFFFFF;fill-opacity:0.2;}
	.st7{fill-rule:evenodd;clip-rule:evenodd;fill:#FFFFFF;fill-opacity:0.4;}
	.st8{fill-rule:evenodd;clip-rule:evenodd;fill:#FFFFFF;fill-opacity:0.6;}
	.st9{fill-rule:evenodd;clip-rule:evenodd;fill:#FFFFFF;fill-opacity:0.8;}
	.st10{fill-rule:evenodd;clip-rule:evenodd;fill:#FFFFFF;}
	.st11{fill:none;stroke:#439FD1;stroke-width:2;stroke-linecap:round;stroke-linejoin:round;}
	.st12{fill:#FFFFFF;filter:url(#Adobe_OpacityMaskFilter);}
	.st13{mask:url(#mask-2_1_);}
	.st14{fill:none;stroke:#F7F8F9;stroke-width:4;}
	.st15{fill:#FFFFFF;filter:url(#Adobe_OpacityMaskFilter_1_);}
	.st16{mask:url(#mask-4_1_);}
	.st17{fill:#FFFFFF;filter:url(#Adobe_OpacityMaskFilter_2_);}
	.st18{mask:url(#mask-6_1_);}
	.st19{fill-rule:evenodd;clip-rule:evenodd;fill:#445D6E;}
	.st20{font-size:8px;}
	.st21{fill-rule:evenodd;clip-rule:evenodd;fill:#1488C6;}
	.st22{fill-rule:evenodd;clip-rule:evenodd;}
	.st23{fill:none;stroke:#445D6E;stroke-width:2;}
	.st24{fill:none;stroke:#82949E;stroke-width:2;stroke-dasharray:5,5,5,5;}
</style>
<rect class="st0" width="740" height="250"/>
<title>troubleshoot-batch-jobs</title>
<desc>Created with Sketch.</desc>
<g id="dtr-diagrams">
	<g id="troubleshoot-batch-jobs">
		<g transform="translate(154.000000, 3.000000)">
			<g>
				<text transform="matrix(1 0 0 1 7.025 236.0095)" class="st1 st2 st3">DTR cluster</text>
				<g id="network" transform="translate(33.000000, 178.000000)">
					<path id="Rectangle-138" class="st4" d="M2,0h362c1.1,0,2,0.9,2,2v18c0,1.1-0.9,2-2,2H2c-1.1,0-2-0.9-2-2V2C0,0.9,0.9,0,2,0z"
						/>
					<text transform="matrix(1 0 0 1 160.0405 15)" class="st0 st2 st3">job queue</text>
					<g id="work" transform="translate(6.000000, 5.000000)">
						<rect id="Rectangle-Copy-5" x="70" class="st5" width="12" height="12"/>
						<rect id="Rectangle-Copy-4" x="56" class="st6" width="12" height="12"/>
						<rect id="Rectangle-Copy-3" x="42" class="st7" width="12" height="12"/>
						<rect id="Rectangle-Copy-2" x="28" class="st8" width="12" height="12"/>
						<rect id="Rectangle-Copy" x="14" class="st9" width="12" height="12"/>
						<rect id="Rectangle" class="st10" width="12" height="12"/>
					</g>
				</g>
				<g id="arrows" transform="translate(104.000000, 147.000000)">
					
						<g id="arrow-copy-2" transform="translate(218.500000, 17.000000) rotate(-90.000000) translate(-218.500000, -17.000000) translate(202.000000, 13.000000)">
						<path id="Line" class="st11" d="M2,4h31"/>
						<defs>
							<filter id="Adobe_OpacityMaskFilter" filterUnits="userSpaceOnUse" x="-2" y="-10" width="12" height="12">
								<feColorMatrix  type="matrix" values="1 0 0 0 0  0 1 0 0 0  0 0 1 0 0  0 0 0 1 0"/>
							</filter>
						</defs>
						<mask maskUnits="userSpaceOnUse" x="-2" y="-10" width="12" height="12" id="mask-2_1_">
							
								<rect x="173.5" y="-474.5" transform="matrix(-2.535182e-06 -1 1 -2.535182e-06 648.0004 -289.0012)" class="st12" width="12" height="12"/>
							<g>
								<circle id="path-1_1_" cx="179.5" cy="-468.5" r="4"/>
							</g>
						</mask>
						<g id="Oval" class="st13">
							<g>
								<circle class="st4" cx="4" cy="4" r="4"/>
							</g>
							<g>
								<circle class="st14" cx="4" cy="4" r="4"/>
							</g>
						</g>
					</g>
					
						<g id="arrow-copy-3" transform="translate(111.500000, 17.000000) rotate(-90.000000) translate(-111.500000, -17.000000) translate(95.000000, 13.000000)">
						<path class="st11" d="M2,4h31"/>
						<defs>
							<filter id="Adobe_OpacityMaskFilter_1_" filterUnits="userSpaceOnUse" x="-2" y="-10" width="12" height="12">
								<feColorMatrix  type="matrix" values="1 0 0 0 0  0 1 0 0 0  0 0 1 0 0  0 0 0 1 0"/>
							</filter>
						</defs>
						<mask maskUnits="userSpaceOnUse" x="-2" y="-10" width="12" height="12" id="mask-4_1_">
							
								<rect x="173.5" y="-367.5" transform="matrix(-2.535182e-06 -1 1 -2.535182e-06 541.0004 -182.0009)" class="st15" width="12" height="12"/>
							<g>
								<circle id="path-3_1_" cx="179.5" cy="-361.5" r="4"/>
							</g>
						</mask>
						<g class="st16">
							<g>
								<circle class="st4" cx="4" cy="4" r="4"/>
							</g>
							<g>
								<circle class="st14" cx="4" cy="4" r="4"/>
							</g>
						</g>
					</g>
					
						<g id="arrow-copy-4" transform="translate(4.500000, 17.000000) rotate(-90.000000) translate(-4.500000, -17.000000) translate(-12.000000, 13.000000)">
						<path class="st11" d="M2,4h31"/>
						<defs>
							<filter id="Adobe_OpacityMaskFilter_2_" filterUnits="userSpaceOnUse" x="-2" y="-10" width="12" height="12">
								<feColorMatrix  type="matrix" values="1 0 0 0 0  0 1 0 0 0  0 0 1 0 0  0 0 0 1 0"/>
							</filter>
						</defs>
						<mask maskUnits="userSpaceOnUse" x="-2" y="-10" width="12" height="12" id="mask-6_1_">
							
								<rect x="173.5" y="-260.5" transform="matrix(-2.535182e-06 -1 1 -2.535182e-06 434.0005 -75.0006)" class="st17" width="12" height="12"/>
							<g>
								<circle id="path-5_1_" cx="179.5" cy="-254.5" r="4"/>
							</g>
						</mask>
						<g class="st18">
							<g>
								<circle class="st4" cx="4" cy="4" r="4"/>
							</g>
							<g>
								<circle class="st14" cx="4" cy="4" r="4"/>
							</g>
						</g>
					</g>
				</g>
				<g id="nodes" transform="translate(59.000000, 45.000000)">
					<g id="node-3" transform="translate(216.000000, 0.000000)">
						<g id="node" transform="translate(1.000000, 0.000000)">
							<g id="node-label">
								<path id="Rectangle-127" class="st19" d="M0,2c0-1.1,0.9-2,2-2h69v10.6c0,5.9-4.8,10.6-10.6,10.6H0V2z"/>
								<text transform="matrix(1 0 0 1 6 14)" class="st0 st2 st20">worker node</text>
							</g>
						</g>
						<g id="engine" transform="translate(2.000000, 43.000000)">
							<path class="st21" d="M2,0h91c1.1,0,2,0.9,2,2v54c0,1.1-0.9,2-2,2H2c-1.1,0-2-0.9-2-2V2C0,0.9,0.9,0,2,0z"/>
							<text transform="matrix(1 0 0 1 38.498 51)" class="st0 st2 st3">DTR</text>
						</g>
						<g id="dtr" transform="translate(0.000000, 43.000000)">
							<g>
								<g>
									<path id="path-7" class="st22" d="M2,0h59c1.1,0,2,0.9,2,2v18c0,1.1-0.9,2-2,2H2c-1.1,0-2-0.9-2-2V2C0,0.9,0.9,0,2,0z"/>
								</g>
								<g>
									<path class="st4" d="M2,0h59c1.1,0,2,0.9,2,2v18c0,1.1-0.9,2-2,2H2c-1.1,0-2-0.9-2-2V2C0,0.9,0.9,0,2,0z"/>
								</g>
							</g>
							<text transform="matrix(1 0 0 1 7.188 15)" class="st0 st2 st3">Job runner</text>
						</g>
						<path id="node-border" class="st23" d="M3,0h93c1.1,0,2,0.9,2,2v98c0,1.1-0.9,2-2,2H3c-1.1,0-2-0.9-2-2V2C1,0.9,1.9,0,3,0z"/>
					</g>
					<g id="node-2" transform="translate(108.000000, 0.000000)">
						<g transform="translate(1.000000, 0.000000)">
							<g>
								<path class="st19" d="M0,2c0-1.1,0.9-2,2-2h69v10.6c0,5.9-4.8,10.6-10.6,10.6H0V2z"/>
								<text transform="matrix(1 0 0 1 6 14)" class="st0 st2 st20">worker node</text>
							</g>
						</g>
						<g transform="translate(2.000000, 43.000000)">
							<path class="st21" d="M2,0h91c1.1,0,2,0.9,2,2v54c0,1.1-0.9,2-2,2H2c-1.1,0-2-0.9-2-2V2C0,0.9,0.9,0,2,0z"/>
							<text transform="matrix(1 0 0 1 38.498 51)" class="st0 st2 st3">DTR</text>
						</g>
						<g transform="translate(0.000000, 43.000000)">
							<g>
								<g>
									<path id="path-9" class="st22" d="M2,0h59c1.1,0,2,0.9,2,2v18c0,1.1-0.9,2-2,2H2c-1.1,0-2-0.9-2-2V2C0,0.9,0.9,0,2,0z"/>
								</g>
								<g>
									<path class="st4" d="M2,0h59c1.1,0,2,0.9,2,2v18c0,1.1-0.9,2-2,2H2c-1.1,0-2-0.9-2-2V2C0,0.9,0.9,0,2,0z"/>
								</g>
							</g>
							<text transform="matrix(1 0 0 1 7.188 15)" class="st0 st2 st3">Job runner</text>
						</g>
						<path class="st23" d="M3,0h93c1.1,0,2,0.9,2,2v98c0,1.1-0.9,2-2,2H3c-1.1,0-2-0.9-2-2V2C1,0.9,1.9,0,3,0z"/>
					</g>
					<g id="node-1">
						<g transform="translate(1.000000, 0.000000)">
							<g>
								<path class="st19" d="M0,2c0-1.1,0.9-2,2-2h69v10.6c0,5.9-4.8,10.6-10.6,10.6H0V2z"/>
								<text transform="matrix(1 0 0 1 6 14)" class="st0 st2 st20">worker node</text>
							</g>
						</g>
						<g transform="translate(2.000000, 43.000000)">
							<path class="st21" d="M2,0h91c1.1,0,2,0.9,2,2v54c0,1.1-0.9,2-2,2H2c-1.1,0-2-0.9-2-2V2C0,0.9,0.9,0,2,0z"/>
							<text transform="matrix(1 0 0 1 38.498 51)" class="st0 st2 st3">DTR</text>
						</g>
						<g transform="translate(0.000000, 43.000000)">
							<g>
								<g>
									<path id="path-11" class="st22" d="M2,0h59c1.1,0,2,0.9,2,2v18c0,1.1-0.9,2-2,2H2c-1.1,0-2-0.9-2-2V2C0,0.9,0.9,0,2,0z"/>
								</g>
								<g>
									<path class="st4" d="M2,0h59c1.1,0,2,0.9,2,2v18c0,1.1-0.9,2-2,2H2c-1.1,0-2-0.9-2-2V2C0,0.9,0.9,0,2,0z"/>
								</g>
							</g>
							<text transform="matrix(1 0 0 1 7.188 15)" class="st0 st2 st3">Job runner</text>
						</g>
						<path class="st23" d="M3,0h93c1.1,0,2,0.9,2,2v98c0,1.1-0.9,2-2,2H3c-1.1,0-2-0.9-2-2V2C1,0.9,1.9,0,3,0z"/>
					</g>
				</g>
				<path id="group" class="st24" d="M2,0h429c1.1,0,2,0.9,2,2v241c0,1.1-0.9,2-2,2H2c-1.1,0-2-0.9-2-2V2C0,0.9,0.9,0,2,0z"/>
			</g>
		</g>
	</g>
</g>
</svg>
