<svg version="1.1" xmlns="http://www.w3.org/2000/svg" viewBox="0 0 2518.746093749999 522.0546875" width="2518.746093749999" height="522.0546875">
  <!-- svg-source:excalidraw -->
  
  <defs>
    <style class="style-fonts">
      @font-face {
        font-family: "Virgil";
        src: url("https://excalidraw.com/Virgil.woff2");
      }
      @font-face {
        font-family: "Cascadia";
        src: url("https://excalidraw.com/Cascadia.woff2");
      }
      @font-face {
        font-family: "Assistant";
        src: url("https://excalidraw.com/Assistant-Regular.woff2");
      }
    </style>
    
  </defs>
  <rect x="0" y="0" width="2518.746093749999" height="522.0546875" fill="#ffffff"></rect><g stroke-linecap="round" transform="translate(358.5156249999999 147.7421875) rotate(0 179 137.5)"><path d="M225 34.5 C255.38 60.26, 284.92 79.64, 313 103.5 C363.2 143.03, 358.71 143.49, 313 172.5 C288.67 185.35, 271.82 196.13, 225 240.5 C180.94 278.1, 181.82 271.94, 135 240.5 C104.75 210.71, 68.5 195.3, 45 172.5 C-0.26 141.49, -2.57 136.85, 45 103.5 C69.2 86.34, 88.49 73.02, 135 34.5 C178.73 -4.22, 178 4.22, 225 34.5" stroke="none" stroke-width="0" fill="#4dabf7"></path><path d="M225 34.5 C254.87 56.89, 278.06 72.05, 313 103.5 M225 34.5 C246.81 52.42, 271.56 72.66, 313 103.5 M313 103.5 C356.39 137.53, 360.86 140.3, 313 172.5 M313 103.5 C359.15 138.92, 358.84 139.41, 313 172.5 M313 172.5 C280.16 193.63, 242.83 218.75, 225 240.5 M313 172.5 C286.26 189.92, 260.2 213.22, 225 240.5 M225 240.5 C180.4 276.13, 181.31 271.08, 135 240.5 M225 240.5 C177.08 278.92, 182.49 276.47, 135 240.5 M135 240.5 C102.2 217.08, 71.23 193.88, 45 172.5 M135 240.5 C113.7 223.87, 90.98 203.69, 45 172.5 M45 172.5 C-3.36 137.65, -3.61 138.3, 45 103.5 M45 172.5 C-1.08 141.39, 3.61 135.72, 45 103.5 M45 103.5 C69.89 82.52, 96.4 62.38, 135 34.5 M45 103.5 C73.15 82.21, 100.84 60.58, 135 34.5 M135 34.5 C181.42 3.58, 176.1 -3.89, 225 34.5 M135 34.5 C180.9 -4.59, 183.28 -2.09, 225 34.5" stroke="#4dabf7" stroke-width="4" fill="none"></path></g><g stroke-opacity="0.9" fill-opacity="0.9" transform="translate(455.8124999999999 237.19218749999982) rotate(0 81.703125 48.299999999999955)"><text x="81.703125" y="25.760546874999996" font-family="Helvetica, Segoe UI Emoji" font-size="28px" fill="#ffffff" text-anchor="middle" style="white-space: pre;" direction="ltr" dominant-baseline="alphabetic">Account </text><text x="81.703125" y="57.96054687499999" font-family="Helvetica, Segoe UI Emoji" font-size="28px" fill="#ffffff" text-anchor="middle" style="white-space: pre;" direction="ltr" dominant-baseline="alphabetic">exists in </text><text x="81.703125" y="90.160546875" font-family="Helvetica, Segoe UI Emoji" font-size="28px" fill="#ffffff" text-anchor="middle" style="white-space: pre;" direction="ltr" dominant-baseline="alphabetic">Docker Hub?</text></g><g stroke-opacity="0.9" fill-opacity="0.9" stroke-linecap="round" transform="translate(827.6607142857139 73.57477678571422) rotate(0 106.5 76)"><path d="M7.86 8.16 C7.86 8.16, 7.86 8.16, 7.86 8.16 M7.86 8.16 C7.86 8.16, 7.86 8.16, 7.86 8.16 M2.35 20.59 C6.39 16.87, 11.15 7.77, 18.1 2.48 M2.35 20.59 C5.09 15.23, 12.09 11.12, 18.1 2.48 M1.43 27.75 C8.28 17.53, 22 4.19, 24.4 1.33 M1.43 27.75 C8.1 17.62, 16.66 10.8, 24.4 1.33 M1.17 34.14 C3.92 23.79, 12.03 19.99, 30.7 0.18 M1.17 34.14 C8.97 23.22, 15.85 14.34, 30.7 0.18 M0.91 40.54 C10.29 29.22, 20.29 23.94, 36.34 -0.21 M0.91 40.54 C12.2 24.41, 25.58 11.04, 36.34 -0.21 M1.31 46.19 C17.56 35.63, 23.61 18.45, 41.33 0.15 M1.31 46.19 C13.13 30.75, 25.25 19.23, 41.33 0.15 M1.04 52.58 C20.12 34.42, 36.44 14.18, 46.97 -0.25 M1.04 52.58 C13.41 38.47, 24.26 24.63, 46.97 -0.25 M0.78 58.98 C14.14 42.69, 27.14 27.6, 51.96 0.11 M0.78 58.98 C14.23 45.03, 26.88 28.5, 51.96 0.11 M1.18 64.62 C17.02 49.84, 31.51 27.38, 57.6 -0.28 M1.18 64.62 C25.34 39.62, 47.3 12.5, 57.6 -0.28 M0.92 71.02 C21.46 49.08, 38.79 29.05, 62.59 0.08 M0.92 71.02 C22.85 44.57, 46.89 19.57, 62.59 0.08 M0.65 77.42 C24.59 44.48, 53.34 12.12, 67.57 0.44 M0.65 77.42 C20.27 55.82, 35.72 38.31, 67.57 0.44 M1.05 83.06 C27.16 54.32, 55.39 20.13, 73.22 0.04 M1.05 83.06 C14.2 65.06, 30.48 50.53, 73.22 0.04 M0.79 89.46 C18.11 73.44, 35.07 53.61, 78.2 0.41 M0.79 89.46 C30 61.88, 54.7 31.75, 78.2 0.41 M0.53 95.86 C29.63 56.1, 61.22 20.05, 83.85 0.01 M0.53 95.86 C22.58 73.81, 38.12 50.8, 83.85 0.01 M0.92 101.5 C27.42 74.87, 57.09 40.48, 88.83 0.37 M0.92 101.5 C26.14 72.74, 50.95 44.74, 88.83 0.37 M0.66 107.9 C29.84 74.89, 57.61 41.27, 94.48 -0.02 M0.66 107.9 C28.26 73.91, 59.7 38.73, 94.48 -0.02 M0.4 114.3 C22.29 84.96, 52.06 57.27, 99.46 0.34 M0.4 114.3 C28.02 80.56, 55.44 43.5, 99.46 0.34 M0.14 120.69 C25.61 88.67, 54.15 63.91, 105.11 -0.06 M0.14 120.69 C35.26 77.83, 71.22 37.99, 105.11 -0.06 M1.19 125.58 C24.5 97.77, 43.85 69.84, 110.09 0.3 M1.19 125.58 C23.99 97.05, 49.23 66.31, 110.09 0.3 M2.24 130.47 C32.29 96.69, 57.48 70.01, 115.74 -0.09 M2.24 130.47 C34.43 92.43, 67.52 55.36, 115.74 -0.09 M3.29 135.36 C42.07 89.13, 83.88 46.57, 120.72 0.27 M3.29 135.36 C36.45 102.4, 63.23 66.39, 120.72 0.27 M5.65 138.74 C37.88 93.62, 74.8 57.09, 126.37 -0.13 M5.65 138.74 C51.63 88.04, 94.51 34.93, 126.37 -0.13 M7.36 142.87 C41.03 104.86, 68.68 67.86, 131.35 0.23 M7.36 142.87 C49.48 95.11, 90.39 50.22, 131.35 0.23 M10.38 145.5 C42.28 101.92, 76.33 63.71, 137 -0.16 M10.38 145.5 C58.67 90.47, 108.76 33.15, 137 -0.16 M14.05 147.37 C53.93 101.82, 91.22 55.51, 141.98 0.2 M14.05 147.37 C38.21 117.01, 66.57 84.24, 141.98 0.2 M17.07 149.99 C62.37 103.85, 105.56 57.22, 147.63 -0.2 M17.07 149.99 C50.76 110.91, 82.31 70.85, 147.63 -0.2 M22.06 150.35 C61.88 110.91, 101.94 57.94, 152.61 0.16 M22.06 150.35 C52.99 120.89, 77.72 88.05, 152.61 0.16 M26.39 151.47 C52.55 122.74, 77.64 88.66, 158.26 -0.23 M26.39 151.47 C76.85 96.25, 126.03 41.76, 158.26 -0.23 M31.38 151.83 C63.77 114.16, 105.63 72.48, 163.24 0.13 M31.38 151.83 C64.18 113.17, 98.83 77.34, 163.24 0.13 M36.36 152.19 C69.31 117.01, 96.81 76.51, 168.89 -0.27 M36.36 152.19 C83.85 93.82, 134.35 37.15, 168.89 -0.27 M41.35 152.55 C91.05 102.62, 140.54 42.05, 173.87 0.09 M41.35 152.55 C89.68 92.63, 142.08 36.34, 173.87 0.09 M46.99 152.15 C90.98 99.4, 135.44 54.69, 178.86 0.45 M46.99 152.15 C81.03 116.73, 112.37 79.88, 178.86 0.45 M51.98 152.51 C101.9 101.44, 152.38 43.85, 183.85 0.81 M51.98 152.51 C88.01 114.21, 121.56 72.16, 183.85 0.81 M57.62 152.12 C102.72 96.81, 144.3 50.3, 188.83 1.17 M57.62 152.12 C106.76 94.04, 156.33 36.76, 188.83 1.17 M62.61 152.48 C106.61 98.84, 157.53 35.51, 193.17 2.29 M62.61 152.48 C106.99 99.82, 156.41 45.3, 193.17 2.29 M68.25 152.08 C106.95 106.95, 145.99 68.61, 197.5 3.4 M68.25 152.08 C103.48 111.98, 138.78 70.65, 197.5 3.4 M73.24 152.44 C115.84 101.82, 166.17 48.01, 200.52 6.03 M73.24 152.44 C106.84 110.16, 141.96 71.01, 200.52 6.03 M78.88 152.05 C109.91 122.25, 138.23 93.49, 204.19 7.9 M78.88 152.05 C120.35 108.53, 159.82 61.77, 204.19 7.9 M83.87 152.41 C122 113.17, 153.43 75.93, 206.55 11.28 M83.87 152.41 C128.75 97.37, 176.61 48.78, 206.55 11.28 M89.51 152.01 C125.24 109.11, 165.97 63.8, 208.92 14.66 M89.51 152.01 C132.4 102.59, 175.29 51.53, 208.92 14.66 M94.5 152.37 C132.09 113.5, 160.79 78.67, 211.28 18.04 M94.5 152.37 C121.4 120.88, 152.65 86.97, 211.28 18.04 M100.14 151.98 C133.1 114.75, 167.84 79.9, 211.67 23.68 M100.14 151.98 C139.87 104.71, 179.77 61.84, 211.67 23.68 M105.13 152.34 C140.3 110.25, 179.72 74.22, 212.72 28.57 M105.13 152.34 C131.79 123.96, 158.3 97.8, 212.72 28.57 M110.77 151.94 C139.01 115.22, 173.73 82.12, 213.12 34.21 M110.77 151.94 C137.24 118.82, 166.77 85.61, 213.12 34.21 M115.76 152.3 C138.56 127.48, 160.94 97.29, 213.51 39.85 M115.76 152.3 C138.95 120.25, 168.07 89.32, 213.51 39.85 M121.4 151.91 C145.65 132.03, 165.01 105.81, 213.25 46.25 M121.4 151.91 C142.48 126.51, 166.32 99.4, 213.25 46.25 M126.39 152.27 C153.18 121.57, 188.45 88.95, 212.99 52.65 M126.39 152.27 C150.79 129.71, 170.98 102.42, 212.99 52.65 M131.38 152.63 C158.52 116.02, 188.97 79.32, 213.38 58.29 M131.38 152.63 C148.39 132.08, 168.08 111.59, 213.38 58.29 M137.02 152.24 C166.03 121.67, 197.21 87.55, 213.12 64.69 M137.02 152.24 C160.48 125.93, 181.65 104.44, 213.12 64.69 M142.01 152.6 C170.61 121.76, 195.4 96.22, 213.52 70.33 M142.01 152.6 C161.91 132.16, 175.89 109.99, 213.52 70.33 M147.65 152.2 C166.77 129.59, 179.21 116.82, 213.26 76.73 M147.65 152.2 C171.82 123.89, 197.7 96.64, 213.26 76.73 M152.64 152.56 C176.87 127.74, 198.12 96.46, 213 83.13 M152.64 152.56 C165.91 136.81, 182.42 120.29, 213 83.13 M158.28 152.17 C176.49 131.78, 186.25 119.98, 213.39 88.77 M158.28 152.17 C167.6 138.96, 180.19 124.04, 213.39 88.77 M163.27 152.53 C178.32 134.55, 191.11 120.45, 213.13 95.17 M163.27 152.53 C172.91 141.24, 183.48 126.76, 213.13 95.17 M168.91 152.13 C174.37 141.56, 186.84 130.04, 212.87 101.57 M168.91 152.13 C186.3 133.43, 202.4 113.24, 212.87 101.57 M173.9 152.49 C187.48 138.67, 198.69 125.05, 213.26 107.21 M173.9 152.49 C182.53 141.47, 194.43 129.57, 213.26 107.21 M179.54 152.1 C194.14 138.56, 201.01 121.65, 213 113.61 M179.54 152.1 C190.45 138.27, 200.94 126.31, 213 113.61 M184.53 152.46 C195.01 137.27, 202.12 125.97, 212.74 120.01 M184.53 152.46 C194.42 141.49, 201.76 134.9, 212.74 120.01 M190.83 151.31 C199.94 144.54, 202.46 140.57, 213.13 125.65 M190.83 151.31 C197.54 142.86, 204.7 135.24, 213.13 125.65 M198.44 148.65 C202.68 141.16, 205.81 137.99, 208.28 137.33 M198.44 148.65 C202 144.73, 207.67 138.3, 208.28 137.33" stroke="#a5d8ff" stroke-width="0.5" fill="none"></path><path d="M32 0 C88 -1.72, 133.63 2.48, 181 0 M32 0 C85.42 -1.3, 143.49 -0.87, 181 0 M181 0 C205.94 0.82, 214.17 14.4, 213 32 M181 0 C203.7 3.5, 208.68 8.53, 213 32 M213 32 C212.46 58.62, 217.39 77.78, 213 120 M213 32 C212.67 57.32, 212.13 83.4, 213 120 M213 120 C216.01 140.69, 200.52 148.27, 181 152 M213 120 C213.7 145.49, 203.49 147.42, 181 152 M181 152 C148.06 153.89, 112.09 149.8, 32 152 M181 152 C130 151.69, 76.63 150.18, 32 152 M32 152 C9.34 151.94, -1.41 143.84, 0 120 M32 152 C11.73 150.02, -1.95 142.91, 0 120 M0 120 C-0.96 89.55, -2.24 61.4, 0 32 M0 120 C-1.7 93.21, 0.62 63.56, 0 32 M0 32 C-1.18 7.46, 9.73 -1.44, 32 0 M0 32 C-3.99 15.06, 7.8 2.75, 32 0" stroke="#1e1e1e" stroke-width="1" fill="none"></path></g><g stroke-opacity="0.9" fill-opacity="0.9" transform="translate(843.1060267857139 117.3747767857144) rotate(0 91.0546875 32.200000000000045)"><text x="91.0546875" y="25.760546874999996" font-family="Helvetica, Segoe UI Emoji" font-size="28px" fill="#1e1e1e" text-anchor="middle" style="white-space: pre;" direction="ltr" dominant-baseline="alphabetic">Update profile </text><text x="91.0546875" y="57.96054687499999" font-family="Helvetica, Segoe UI Emoji" font-size="28px" fill="#1e1e1e" text-anchor="middle" style="white-space: pre;" direction="ltr" dominant-baseline="alphabetic">(if needed)</text></g><g stroke-opacity="0.9" fill-opacity="0.9" stroke-linecap="round" transform="translate(10 199.755859375) rotate(0 125.33984374999994 80.2109375)"><path d="M32 0 C100.19 3.1, 168.28 -0.73, 218.68 0 C236.51 4.36, 254.83 8.41, 250.68 32 C254.02 60.92, 253.63 89.31, 250.68 128.42 C255.09 145.17, 234.86 162.66, 218.68 160.42 C176.92 158.25, 129.98 153.9, 32 160.42 C5.77 160.55, 2.51 150.31, 0 128.42 C-4.44 101.53, 2.14 66.89, 0 32 C1.64 15.65, 14.08 -2.74, 32 0" stroke="none" stroke-width="0" fill="#1971c2"></path><path d="M32 0 C71.5 2.02, 111.96 3.64, 218.68 0 M32 0 C77.93 -2.06, 123.88 -2.73, 218.68 0 M218.68 0 C236.49 1.22, 248.04 11.52, 250.68 32 M218.68 0 C242.11 -2.19, 255.06 15.11, 250.68 32 M250.68 32 C248.37 50.24, 248.68 71.85, 250.68 128.42 M250.68 32 C251.74 51.55, 253.04 73.4, 250.68 128.42 M250.68 128.42 C253.18 148.71, 237.87 158.09, 218.68 160.42 M250.68 128.42 C253.4 150.76, 238.74 160.36, 218.68 160.42 M218.68 160.42 C178.93 163.94, 133.83 162.29, 32 160.42 M218.68 160.42 C148.93 161.51, 78.4 161.28, 32 160.42 M32 160.42 C10.11 159.31, 0.34 152.03, 0 128.42 M32 160.42 C11.35 164.47, -0.31 148.29, 0 128.42 M0 128.42 C4.38 92.11, 4.7 50.76, 0 32 M0 128.42 C1.72 98.98, 0.95 70.31, 0 32 M0 32 C2.53 11.53, 11.89 -0.31, 32 0 M0 32 C-0.72 14.09, 11.71 4.38, 32 0" stroke="#1971c2" stroke-width="4" fill="none"></path></g><g stroke-opacity="0.9" fill-opacity="0.9" transform="translate(38.158203124999886 257.888671875) rotate(0 95.044921875 20.700000000000045)"><text x="0" y="33.120703125" font-family="Helvetica, Segoe UI Emoji" font-size="36px" fill="#ffffff" text-anchor="start" style="white-space: pre;" direction="ltr" dominant-baseline="alphabetic">SSO sign in</text></g><g stroke-linecap="round" transform="translate(1121.4960937499995 157.96875) rotate(0 179.1171874999999 137.125)"><path d="M225 34.5 C247.88 55.75, 268.2 70.54, 313.23 103.5 C356.44 133.04, 359.28 134.84, 313.23 172.5 C287.54 199.89, 254.69 218.91, 225 239.75 C182.07 275.05, 181.02 275.8, 135 239.75 C96.51 210.24, 67.49 188.79, 45 172.5 C3.52 132.88, 1.82 142.21, 45 103.5 C76.95 78.25, 105.33 53.97, 135 34.5 C174.86 -5.55, 181.04 -2.9, 225 34.5" stroke="none" stroke-width="0" fill="#4dabf7"></path><path d="M225 34.5 C246.4 55.17, 278.69 72.37, 313.23 103.5 M225 34.5 C248.59 52.16, 274.02 71.79, 313.23 103.5 M313.23 103.5 C359.96 137.76, 356.71 138.76, 313.23 172.5 M313.23 103.5 C355.23 141.72, 362.74 137.15, 313.23 172.5 M313.23 172.5 C281.85 192.25, 255.47 213.85, 225 239.75 M313.23 172.5 C292.02 188.09, 267.99 208.89, 225 239.75 M225 239.75 C176.56 270.58, 177.33 270.87, 135 239.75 M225 239.75 C176.91 271.56, 180.53 271.6, 135 239.75 M135 239.75 C111.12 225.67, 87.02 209.65, 45 172.5 M135 239.75 C108.58 219.28, 81.33 198.87, 45 172.5 M45 172.5 C-1.85 139.05, 2.58 141.25, 45 103.5 M45 172.5 C4.36 142.46, -4.08 141.53, 45 103.5 M45 103.5 C79.31 77.13, 113.38 52.52, 135 34.5 M45 103.5 C65 88.14, 88.38 72.77, 135 34.5 M135 34.5 C179.04 -3.35, 181.96 -0.16, 225 34.5 M135 34.5 C182.82 -1.41, 182.5 -0.88, 225 34.5" stroke="#4dabf7" stroke-width="4" fill="none"></path></g><g stroke-opacity="0.9" fill-opacity="0.9" transform="translate(1166.2890624999995 281.81874999999945) rotate(0 129.1923828124999 16.09999999999991)"><text x="0" y="25.760546874999996" font-family="Helvetica, Segoe UI Emoji" font-size="28px" fill="#ffffff" text-anchor="start" style="white-space: pre;" direction="ltr" dominant-baseline="alphabetic">IdP Group mapping?</text></g><g stroke-linecap="round" transform="translate(1523.8710937499995 10) rotate(0 163.5 139)"><path d="M205 35 C225.81 52.02, 240.4 61.4, 286 105 C323.56 140.47, 321.41 136.23, 286 175 C260.3 196.43, 236.57 223.13, 205 243 C161.55 283.51, 168.58 273.9, 123 243 C93.98 222.3, 64.81 198.25, 41 175 C4.34 137.39, 0.5 139.82, 41 105 C76.88 77.17, 106.69 55.2, 123 35 C169.19 2.85, 169.5 5.27, 205 35" stroke="none" stroke-width="0" fill="#4dabf7"></path><path d="M205 35 C232.02 60.93, 257.77 87.39, 286 105 M205 35 C235.34 58.54, 266.74 85.21, 286 105 M286 105 C326.92 139.5, 327.4 142.25, 286 175 M286 105 C328.11 139.56, 327.85 143.92, 286 175 M286 175 C264.24 187.13, 247.69 200.78, 205 243 M286 175 C262.37 190.23, 241.35 209.15, 205 243 M205 243 C166.57 274.85, 167.24 274.24, 123 243 M205 243 C161.63 277.74, 159.43 279.91, 123 243 M123 243 C103.18 226.08, 81.69 213.74, 41 175 M123 243 C102.75 225.18, 82.51 208.4, 41 175 M41 175 C1.21 141.8, -2.31 138.86, 41 105 M41 175 C-0.13 143.14, 4.18 142.05, 41 105 M41 105 C74.69 77.84, 105.83 51.47, 123 35 M41 105 C64.5 86.9, 89.69 64.75, 123 35 M123 35 C160.71 2.86, 165.52 1.35, 205 35 M123 35 C159.68 4.25, 167.92 -4.4, 205 35" stroke="#4dabf7" stroke-width="4" fill="none"></path></g><g stroke-opacity="0.9" fill-opacity="0.9" transform="translate(1611.3457031249995 84.59999999999991) rotate(0 76.275390625 64.40000000000009)"><text x="76.275390625" y="25.760546874999996" font-family="Helvetica, Segoe UI Emoji" font-size="28px" fill="#ffffff" text-anchor="middle" style="white-space: pre;" direction="ltr" dominant-baseline="alphabetic">Is the user </text><text x="76.275390625" y="57.96054687499999" font-family="Helvetica, Segoe UI Emoji" font-size="28px" fill="#ffffff" text-anchor="middle" style="white-space: pre;" direction="ltr" dominant-baseline="alphabetic">in an SSO </text><text x="76.275390625" y="90.160546875" font-family="Helvetica, Segoe UI Emoji" font-size="28px" fill="#ffffff" text-anchor="middle" style="white-space: pre;" direction="ltr" dominant-baseline="alphabetic">organization</text><text x="76.275390625" y="122.36054687499998" font-family="Helvetica, Segoe UI Emoji" font-size="28px" fill="#ffffff" text-anchor="middle" style="white-space: pre;" direction="ltr" dominant-baseline="alphabetic">?</text></g><g stroke-opacity="0.9" fill-opacity="0.9" stroke-linecap="round" transform="translate(824.7812499999999 360.05468749999955) rotate(0 106.5 76.00000000000023)"><path d="M7.86 8.16 C7.86 8.16, 7.86 8.16, 7.86 8.16 M7.86 8.16 C7.86 8.16, 7.86 8.16, 7.86 8.16 M2.35 20.59 C9.84 17.21, 12.88 9.48, 18.1 2.48 M2.35 20.59 C8.34 12.71, 15.27 8.01, 18.1 2.48 M1.43 27.75 C9.05 14.82, 18.24 12.2, 24.4 1.33 M1.43 27.75 C4.57 21.17, 10.86 16.57, 24.4 1.33 M1.17 34.14 C5.5 23.79, 20.47 12.86, 30.7 0.18 M1.17 34.14 C7.73 24.53, 18.28 13.04, 30.7 0.18 M0.91 40.54 C8.96 30.99, 15.42 22.84, 36.34 -0.21 M0.91 40.54 C14.73 25.54, 30.8 9.58, 36.34 -0.21 M1.31 46.19 C6.89 39.23, 15.4 27.25, 41.33 0.15 M1.31 46.19 C16.69 26.22, 33.31 10.77, 41.33 0.15 M1.04 52.58 C16.86 37.82, 31.54 16, 46.97 -0.25 M1.04 52.58 C16.24 31.1, 36.16 10.34, 46.97 -0.25 M0.78 58.98 C18.56 39.1, 38.42 15.22, 51.96 0.11 M0.78 58.98 C17.52 44.57, 31.42 24.98, 51.96 0.11 M1.18 64.62 C14.68 44.52, 31.85 29.36, 57.6 -0.28 M1.18 64.62 C13.45 50.61, 24.73 38.39, 57.6 -0.28 M0.92 71.02 C16.33 50.88, 36.23 30.15, 62.59 0.08 M0.92 71.02 C23.79 45.2, 41.17 23.13, 62.59 0.08 M0.65 77.42 C15.46 60.87, 23.95 45.29, 67.57 0.44 M0.65 77.42 C16.97 59.94, 35.24 42.05, 67.57 0.44 M1.05 83.06 C15.07 65.22, 32.65 44.2, 73.22 0.04 M1.05 83.06 C18.38 61.22, 40.24 37.56, 73.22 0.04 M0.79 89.46 C22.27 67.14, 44.77 34.02, 78.2 0.41 M0.79 89.46 C18.91 70.26, 33.08 52.66, 78.2 0.41 M0.53 95.86 C23.21 67.96, 45.65 41.81, 83.85 0.01 M0.53 95.86 C18.57 75.53, 36.44 54.77, 83.85 0.01 M0.92 101.5 C37.06 62.04, 69.83 22.97, 88.83 0.37 M0.92 101.5 C21.15 77.02, 45.59 50.4, 88.83 0.37 M0.66 107.9 C35.18 71.3, 65.13 33.49, 94.48 -0.02 M0.66 107.9 C23.82 79.9, 44.11 58.63, 94.48 -0.02 M0.4 114.3 C32.55 80.66, 57.26 49.3, 99.46 0.34 M0.4 114.3 C24.78 83.95, 52.02 57.56, 99.46 0.34 M0.14 120.69 C23.56 91.49, 47.42 63.7, 105.11 -0.06 M0.14 120.69 C42.24 71.38, 85.8 25.33, 105.11 -0.06 M1.19 125.58 C28.05 97.95, 49.25 71.59, 110.09 0.3 M1.19 125.58 C31.84 91.05, 60.14 55.13, 110.09 0.3 M2.24 130.47 C27.05 102.88, 48.37 78.91, 115.74 -0.09 M2.24 130.47 C33.58 91.17, 67.74 51.8, 115.74 -0.09 M3.29 135.36 C46.87 81.08, 86.5 29.07, 120.72 0.27 M3.29 135.36 C45.25 82.58, 88.19 34.83, 120.72 0.27 M5.65 138.74 C36.7 104.25, 60.25 78.13, 126.37 -0.13 M5.65 138.74 C51.58 84.85, 97 30.65, 126.37 -0.13 M7.36 142.87 C42.24 98.33, 87.11 49.59, 131.35 0.23 M7.36 142.87 C46.97 96.82, 87.63 48.37, 131.35 0.23 M10.38 145.5 C55.46 95.78, 98.78 49, 137 -0.16 M10.38 145.5 C54.34 90.36, 99.1 40.67, 137 -0.16 M14.05 147.37 C36.74 116.68, 66.3 82.26, 141.98 0.2 M14.05 147.37 C58.72 98.99, 103.19 50.38, 141.98 0.2 M17.07 149.99 C45.9 118.75, 77.18 80.84, 147.63 -0.2 M17.07 149.99 C43.81 113.61, 74.39 81.38, 147.63 -0.2 M22.06 150.35 C70.32 96.27, 112.39 41.51, 152.61 0.16 M22.06 150.35 C68.02 100.61, 109.59 49.49, 152.61 0.16 M26.39 151.47 C67.99 103.83, 104.73 64.26, 158.26 -0.23 M26.39 151.47 C56.16 115.68, 92.25 74.95, 158.26 -0.23 M31.38 151.83 C60.61 115.77, 96.24 79.04, 163.24 0.13 M31.38 151.83 C68.92 110.9, 105.07 71.51, 163.24 0.13 M36.36 152.19 C86.79 93.64, 141.17 35.25, 168.89 -0.27 M36.36 152.19 C86.48 98.17, 134.74 44.55, 168.89 -0.27 M41.35 152.55 C85.95 97.19, 134.56 39.47, 173.87 0.09 M41.35 152.55 C70.89 121.3, 100.48 88.64, 173.87 0.09 M46.99 152.15 C77.04 115.35, 112.42 76.13, 178.86 0.45 M46.99 152.15 C97.37 95.08, 145.14 39.5, 178.86 0.45 M51.98 152.51 C101.66 91.94, 153.71 33.09, 183.85 0.81 M51.98 152.51 C85.27 118.5, 118.52 78.34, 183.85 0.81 M57.62 152.12 C104.85 98.78, 144.26 49.47, 188.83 1.17 M57.62 152.12 C101.14 104.05, 144.24 50.44, 188.83 1.17 M62.61 152.48 C106.45 105.96, 148.13 55.65, 193.17 2.29 M62.61 152.48 C89.64 119.6, 116.08 88.19, 193.17 2.29 M68.25 152.08 C106.17 111.28, 147.26 61.89, 197.5 3.4 M68.25 152.08 C97.67 115.63, 128.26 79.26, 197.5 3.4 M73.24 152.44 C98.81 117.44, 127.9 82.01, 200.52 6.03 M73.24 152.44 C112.32 113.13, 150.93 69.53, 200.52 6.03 M78.88 152.05 C121.27 101.94, 165.98 49.04, 204.19 7.9 M78.88 152.05 C116.84 114.06, 149.68 75.99, 204.19 7.9 M83.87 152.41 C110.76 111.52, 139.94 79.77, 206.55 11.28 M83.87 152.41 C119.15 109.31, 157.28 67.7, 206.55 11.28 M89.51 152.01 C127 108.24, 174.49 62.59, 208.92 14.66 M89.51 152.01 C132 103.26, 174.53 57.16, 208.92 14.66 M94.5 152.37 C132.93 104.87, 179.48 54.83, 211.28 18.04 M94.5 152.37 C142.47 100.87, 185.09 46.45, 211.28 18.04 M100.14 151.98 C146.39 99.26, 184.05 49.94, 211.67 23.68 M100.14 151.98 C125.31 122.17, 151.18 91.08, 211.67 23.68 M105.13 152.34 C140.92 106.88, 181.57 62.74, 212.72 28.57 M105.13 152.34 C134.71 117.15, 167.11 83.12, 212.72 28.57 M110.77 151.94 C145.46 114.33, 171.97 75.26, 213.12 34.21 M110.77 151.94 C150.42 110.87, 182.86 68.23, 213.12 34.21 M115.76 152.3 C149.61 119.44, 172.27 84.61, 213.51 39.85 M115.76 152.3 C141.78 123.27, 167.45 94.77, 213.51 39.85 M121.4 151.91 C139.06 128.25, 161.05 104.6, 213.25 46.25 M121.4 151.91 C142.39 127.95, 161.96 105.19, 213.25 46.25 M126.39 152.27 C153.11 117.63, 185.45 87.35, 212.99 52.65 M126.39 152.27 C144.89 131.36, 165.49 109.02, 212.99 52.65 M131.38 152.63 C154.83 132.91, 170.36 105.13, 213.38 58.29 M131.38 152.63 C151.17 133.66, 169.24 112.99, 213.38 58.29 M137.02 152.24 C162.85 122.41, 183.69 95.35, 213.12 64.69 M137.02 152.24 C165.46 120.52, 193.03 87.05, 213.12 64.69 M142.01 152.6 C159.84 136.47, 179.53 107.76, 213.52 70.33 M142.01 152.6 C170.21 118.54, 195.14 88.76, 213.52 70.33 M147.65 152.2 C170.72 124.46, 193.92 104.56, 213.26 76.73 M147.65 152.2 C170.44 124.19, 193.41 98.29, 213.26 76.73 M152.64 152.56 C177.51 127.71, 196.09 100.96, 213 83.13 M152.64 152.56 C169.94 131.58, 186.75 113.56, 213 83.13 M158.28 152.17 C168.64 139.73, 176.52 124.86, 213.39 88.77 M158.28 152.17 C177.59 132.29, 198.61 107.54, 213.39 88.77 M163.27 152.53 C177.15 139.63, 186.58 124.94, 213.13 95.17 M163.27 152.53 C179.4 135.19, 192.17 121.79, 213.13 95.17 M168.91 152.13 C187.41 137.31, 199.1 118.16, 212.87 101.57 M168.91 152.13 C184.55 134.95, 196.33 118.73, 212.87 101.57 M173.9 152.49 C182.85 139.09, 195.08 131.36, 213.26 107.21 M173.9 152.49 C186.32 142.37, 193.89 132.51, 213.26 107.21 M179.54 152.1 C187.74 141.37, 202.33 124.95, 213 113.61 M179.54 152.1 C192.57 136.65, 204.09 122.7, 213 113.61 M184.53 152.46 C196.37 136.87, 204.01 128.47, 212.74 120.01 M184.53 152.46 C192.2 144.05, 203.53 133.33, 212.74 120.01 M190.83 151.31 C194.6 145.65, 204.41 138.3, 213.13 125.65 M190.83 151.31 C196.91 146.21, 203.33 139.17, 213.13 125.65 M198.44 148.65 C200.82 142.71, 206.36 141.51, 208.28 137.33 M198.44 148.65 C203.05 145.86, 205.56 140.93, 208.28 137.33" stroke="#a5d8ff" stroke-width="0.5" fill="none"></path><path d="M32 0 C78.29 -1.86, 118.58 1.05, 181 0 M32 0 C89.48 -4.63, 148.32 -0.71, 181 0 M181 0 C202.34 -2.76, 211.45 9.78, 213 32 M181 0 C198.28 -0.22, 213.3 8.58, 213 32 M213 32 C212.05 62.94, 213.95 95.93, 213 120 M213 32 C212.22 49.31, 214.73 68.17, 213 120 M213 120 C212.96 139.9, 204.85 154.55, 181 152 M213 120 C213.71 141.6, 204.55 153.88, 181 152 M181 152 C125.71 156.91, 74.91 157.05, 32 152 M181 152 C130.69 153.87, 82.59 153.4, 32 152 M32 152 C13.24 149.78, 1.87 142.37, 0 120 M32 152 C13.16 149.99, -3.61 139.44, 0 120 M0 120 C-0.02 93.69, 0.5 65.24, 0 32 M0 120 C-0.18 86.37, 1.85 48.31, 0 32 M0 32 C2.05 9.11, 7.54 -0.42, 32 0 M0 32 C2.76 12.49, 8.36 0.03, 32 0" stroke="#1e1e1e" stroke-width="1" fill="none"></path></g><g stroke-opacity="0.9" fill-opacity="0.9" transform="translate(855.7988281249999 403.8546874999997) rotate(0 75.482421875 32.200000000000045)"><text x="75.482421875" y="25.760546874999996" font-family="Helvetica, Segoe UI Emoji" font-size="28px" fill="#1e1e1e" text-anchor="middle" style="white-space: pre;" direction="ltr" dominant-baseline="alphabetic">Create new </text><text x="75.482421875" y="57.96054687499999" font-family="Helvetica, Segoe UI Emoji" font-size="28px" fill="#1e1e1e" text-anchor="middle" style="white-space: pre;" direction="ltr" dominant-baseline="alphabetic">account</text></g><g stroke-opacity="0.9" fill-opacity="0.9" stroke-linecap="round" transform="translate(1590.2656249999995 356.14843750000045) rotate(0 106.5 75.99999999999977)"><path d="M7.86 8.16 C7.86 8.16, 7.86 8.16, 7.86 8.16 M7.86 8.16 C7.86 8.16, 7.86 8.16, 7.86 8.16 M2.35 20.59 C2.76 20.86, 7.76 13.67, 18.1 2.48 M2.35 20.59 C7.17 16.37, 7.81 11.62, 18.1 2.48 M2.75 26.24 C7.71 14.6, 18.5 9.66, 24.4 1.33 M2.75 26.24 C8.2 17.13, 17.21 11.62, 24.4 1.33 M2.48 32.64 C15.64 19.55, 21.27 8.98, 30.7 0.18 M2.48 32.64 C8.57 25.56, 16.33 18.28, 30.7 0.18 M2.88 38.28 C18.6 20.71, 31.29 8.19, 34.37 2.05 M2.88 38.28 C13.8 24.16, 24.28 13.07, 34.37 2.05 M2.62 44.68 C14.56 30.35, 16.46 25.52, 39.36 2.41 M2.62 44.68 C9.44 35.27, 18.78 27.43, 39.36 2.41 M2.36 51.07 C10.56 39.43, 17.68 27.88, 45 2.02 M2.36 51.07 C9.7 38.24, 21.49 28.62, 45 2.02 M2.75 56.72 C22.43 34.34, 43.17 15.66, 49.99 2.38 M2.75 56.72 C18.69 35.37, 37.42 17.62, 49.99 2.38 M2.49 63.11 C21.21 46.28, 35 22.9, 55.63 1.98 M2.49 63.11 C20.8 39.18, 41.72 18.95, 55.63 1.98 M2.23 69.51 C13.97 56.76, 22.24 39.37, 60.62 2.34 M2.23 69.51 C20.79 45.67, 40.56 26.38, 60.62 2.34 M2.62 75.16 C27.8 50.42, 44.12 29.95, 66.26 1.95 M2.62 75.16 C27.47 45.48, 51.2 18.42, 66.26 1.95 M2.36 81.55 C19.73 62.38, 31.97 51.13, 71.25 2.31 M2.36 81.55 C23.21 58.77, 43.95 32.79, 71.25 2.31 M2.1 87.95 C22.62 61.65, 37.58 43.85, 76.89 1.91 M2.1 87.95 C26.5 60.45, 50.94 33.95, 76.89 1.91 M2.49 93.59 C30.27 58.6, 55.03 26.62, 81.88 2.27 M2.49 93.59 C27.56 67.17, 52.42 41.36, 81.88 2.27 M2.23 99.99 C25.8 73.95, 54.92 46.16, 87.52 1.88 M2.23 99.99 C31 68.8, 62.65 35.31, 87.52 1.88 M1.97 106.39 C33.33 71.15, 61.36 38.26, 92.51 2.24 M1.97 106.39 C41.06 67.1, 73.82 25.84, 92.51 2.24 M2.37 112.03 C18.26 91.84, 44.76 69.46, 98.15 1.85 M2.37 112.03 C21.3 88.74, 40.76 65.2, 98.15 1.85 M0.14 120.69 C19.26 97.61, 44.78 72.04, 103.14 2.21 M0.14 120.69 C39.11 76.55, 77.07 33.17, 103.14 2.21 M1.19 125.58 C42.44 77.57, 81.24 40.26, 108.78 1.81 M1.19 125.58 C25.96 94.59, 52.42 62.31, 108.78 1.81 M2.24 130.47 C33.39 89.56, 63.48 56.56, 113.77 2.17 M2.24 130.47 C27.81 96.81, 58 66.69, 113.77 2.17 M3.29 135.36 C35.44 103.88, 61.78 71.44, 119.41 1.78 M3.29 135.36 C43.53 88.38, 86.96 38.54, 119.41 1.78 M5.65 138.74 C50.14 85.83, 95.43 37.37, 124.4 2.14 M5.65 138.74 C50.26 88.3, 93.14 39.48, 124.4 2.14 M8.01 142.12 C28.06 109.05, 54.97 83.73, 130.04 1.74 M8.01 142.12 C32.83 111.57, 56.51 83.43, 130.04 1.74 M10.38 145.5 C50.67 102.46, 85.54 56.03, 135.03 2.1 M10.38 145.5 C42.73 107.16, 74.39 66.73, 135.03 2.1 M13.4 148.12 C54.95 106.26, 93.78 59.15, 140.67 1.71 M13.4 148.12 C42.65 112.96, 72.78 78.48, 140.67 1.71 M17.07 149.99 C53.73 103.3, 93.23 64.42, 145.66 2.07 M17.07 149.99 C44.61 118.68, 72.05 85.92, 145.66 2.07 M20.75 151.86 C72.49 94.31, 123.43 35.23, 150.65 2.43 M20.75 151.86 C55.12 111.32, 88.13 71.07, 150.65 2.43 M25.08 152.98 C53.62 115.12, 87.91 76.45, 156.29 2.03 M25.08 152.98 C73.96 99.26, 124.74 41.69, 156.29 2.03 M30.06 153.34 C69.9 106.24, 113.85 52.85, 161.28 2.39 M30.06 153.34 C65.69 112.09, 99.06 73.34, 161.28 2.39 M34.39 154.45 C60.24 124.89, 91.64 91.81, 166.92 2 M34.39 154.45 C69.34 109.01, 108.68 67.64, 166.92 2 M40.04 154.06 C80.32 102.69, 124.4 57.6, 171.91 2.36 M40.04 154.06 C68.88 121.78, 98.19 86.23, 171.91 2.36 M45.02 154.42 C75.93 122.04, 103.08 87.92, 177.55 1.96 M45.02 154.42 C76.54 116.87, 108 78, 177.55 1.96 M50.67 154.02 C101.33 98.61, 147.09 49.42, 183.19 1.57 M50.67 154.02 C85.14 119.52, 118.37 80.86, 183.19 1.57 M55.65 154.38 C94.67 114.19, 128.86 68.61, 187.52 2.68 M55.65 154.38 C82.15 122.97, 106.63 90.57, 187.52 2.68 M61.3 153.99 C93.25 125.38, 124.22 90.4, 192.51 3.04 M61.3 153.99 C91.14 120.67, 119.68 83.55, 192.51 3.04 M66.28 154.35 C113.57 102.27, 163.62 44.65, 196.84 4.16 M66.28 154.35 C112.4 102.66, 158.23 52.51, 196.84 4.16 M71.93 153.95 C101.64 120.11, 135.62 84.81, 200.52 6.03 M71.93 153.95 C105.73 113.16, 140.11 75.74, 200.52 6.03 M76.91 154.31 C112.28 112.86, 145.96 76.06, 204.19 7.9 M76.91 154.31 C124.31 100.78, 171.59 43.8, 204.19 7.9 M82.56 153.92 C127.36 100.73, 176.83 42.78, 207.21 10.52 M82.56 153.92 C130.65 99.24, 179.82 45.31, 207.21 10.52 M87.54 154.28 C129.53 103.77, 165.25 62.7, 209.57 13.9 M87.54 154.28 C118.03 116.34, 149.7 84.3, 209.57 13.9 M93.19 153.88 C132.48 110.14, 167.14 64.62, 211.28 18.04 M93.19 153.88 C120.72 121.95, 144.31 94.78, 211.28 18.04 M98.18 154.24 C121.41 121.41, 148.57 95.18, 211.67 23.68 M98.18 154.24 C139.82 101.42, 184.23 52.38, 211.67 23.68 M103.16 154.6 C143.33 107.24, 182.44 63.33, 212.72 28.57 M103.16 154.6 C141.66 113.44, 179.28 69.12, 212.72 28.57 M108.81 154.21 C140.97 114.46, 174.83 75.02, 214.43 32.7 M108.81 154.21 C136.21 118.86, 171.3 81.5, 214.43 32.7 M113.79 154.57 C154.43 116.27, 187.62 72.13, 214.17 39.1 M113.79 154.57 C149.68 116.56, 180.01 79.31, 214.17 39.1 M119.44 154.17 C142.33 134.7, 160.34 107.1, 213.91 45.5 M119.44 154.17 C151.67 117.32, 185.38 79.73, 213.91 45.5 M124.42 154.53 C158.02 113.38, 193.68 80.71, 214.3 51.14 M124.42 154.53 C150.63 126.06, 176.62 92.93, 214.3 51.14 M130.07 154.14 C148.28 124.96, 168.37 105.89, 214.04 57.54 M130.07 154.14 C159.92 116.61, 191.54 81.45, 214.04 57.54 M135.05 154.5 C167.58 123.27, 193.99 86.6, 213.78 63.93 M135.05 154.5 C163.61 122.07, 191.54 89, 213.78 63.93 M140.7 154.1 C167.68 117.67, 198.56 90.87, 214.17 69.58 M140.7 154.1 C163.7 126.28, 184.1 100.99, 214.17 69.58 M145.68 154.47 C175.83 126.63, 203.05 89.75, 213.91 75.98 M145.68 154.47 C159.1 140.59, 171.05 122.89, 213.91 75.98 M151.33 154.07 C169.75 136.34, 187.29 115.1, 213.65 82.37 M151.33 154.07 C172.55 133.01, 190.89 108.05, 213.65 82.37 M156.31 154.43 C170.78 137.56, 181.26 126.93, 214.05 88.02 M156.31 154.43 C170.96 135.05, 184.39 119.19, 214.05 88.02 M161.96 154.04 C177.88 135.47, 195.49 116.71, 213.78 94.41 M161.96 154.04 C177.17 138.14, 190.44 121.08, 213.78 94.41 M166.94 154.4 C183.74 133.75, 198.45 109.44, 213.52 100.81 M166.94 154.4 C183.82 136.78, 201.06 118.26, 213.52 100.81 M172.59 154 C183.29 145.41, 195.24 131.89, 213.92 106.45 M172.59 154 C187.03 140.11, 198.62 122.57, 213.92 106.45 M177.57 154.36 C184.57 144.27, 191.72 137.34, 213.66 112.85 M177.57 154.36 C186.46 140.58, 195.94 129.52, 213.66 112.85 M183.22 153.97 C189.72 146.97, 199.43 140.53, 213.39 119.25 M183.22 153.97 C191.13 147.34, 197.29 140.86, 213.39 119.25 M189.51 152.82 C192.89 145.26, 201.45 139.58, 213.79 124.89 M189.51 152.82 C195.34 144.73, 199.01 139.87, 213.79 124.89 M196.47 150.91 C197.02 144.04, 206.78 140.81, 214.84 129.78 M196.47 150.91 C200.88 145.41, 206.59 138.94, 214.84 129.78" stroke="#a5d8ff" stroke-width="0.5" fill="none"></path><path d="M32 0 C83.91 4.73, 138.25 0.33, 181 0 M32 0 C78.58 -2.37, 122.43 -0.43, 181 0 M181 0 C204.92 -2.8, 209.64 10.17, 213 32 M181 0 C201.2 1.18, 208.49 10.05, 213 32 M213 32 C211.21 68.54, 215.71 100.89, 213 120 M213 32 C214.22 59.54, 213.26 87.88, 213 120 M213 120 C215.06 143.23, 203.06 151.52, 181 152 M213 120 C212.7 136.95, 203.43 155.16, 181 152 M181 152 C146.8 152.42, 118.45 154.32, 32 152 M181 152 C139.57 151.14, 103.51 150.19, 32 152 M32 152 C9.79 155.45, 1.71 139.21, 0 120 M32 152 C10.86 154.94, -4.52 138.14, 0 120 M0 120 C-0.31 95.88, 0.94 79.87, 0 32 M0 120 C-0.09 99.2, -0.14 73.05, 0 32 M0 32 C3.52 9.56, 8.17 3.05, 32 0 M0 32 C-3.31 12.15, 15.2 2.32, 32 0" stroke="#1e1e1e" stroke-width="1" fill="none"></path></g><g stroke-opacity="0.9" fill-opacity="0.9" transform="translate(1595.5937499999995 383.8484375000003) rotate(0 101.171875 48.299999999999955)"><text x="101.171875" y="25.760546874999996" font-family="Helvetica, Segoe UI Emoji" font-size="28px" fill="#1e1e1e" text-anchor="middle" style="white-space: pre;" direction="ltr" dominant-baseline="alphabetic">Add user to </text><text x="101.171875" y="57.96054687499999" font-family="Helvetica, Segoe UI Emoji" font-size="28px" fill="#1e1e1e" text-anchor="middle" style="white-space: pre;" direction="ltr" dominant-baseline="alphabetic">org/groups </text><text x="101.171875" y="90.160546875" font-family="Helvetica, Segoe UI Emoji" font-size="28px" fill="#1e1e1e" text-anchor="middle" style="white-space: pre;" direction="ltr" dominant-baseline="alphabetic">according to IdP</text></g><g stroke-opacity="0.9" fill-opacity="0.9" stroke-linecap="round" transform="translate(2258.066406249999 167.96875) rotate(0 125.33984375 80.2109375)"><path d="M32 0 C96.49 -1.04, 149.83 4.72, 218.68 0 C239.57 1.31, 252.43 10.67, 250.68 32 C251.72 69.14, 249.85 102.62, 250.68 128.42 C246.02 146.97, 239.73 163.33, 218.68 160.42 C181.3 163.95, 137.44 159.02, 32 160.42 C12.59 158.65, -0.34 145.87, 0 128.42 C3.21 101.32, 0.3 88.55, 0 32 C-1.23 8.1, 14.58 4.99, 32 0" stroke="none" stroke-width="0" fill="#1e1e1e"></path><path d="M32 0 C87.12 -3.3, 141.61 -0.03, 218.68 0 M32 0 C70.86 -0.31, 114.01 2.34, 218.68 0 M218.68 0 C242.08 -2.78, 248.64 10.52, 250.68 32 M218.68 0 C242.78 -0.69, 246.93 13.56, 250.68 32 M250.68 32 C248.7 58.24, 248.46 80.26, 250.68 128.42 M250.68 32 C250.42 66.24, 249.99 103.09, 250.68 128.42 M250.68 128.42 C249.07 151.45, 240.27 163.25, 218.68 160.42 M250.68 128.42 C254.96 148.23, 235.71 163.99, 218.68 160.42 M218.68 160.42 C183.61 156.61, 140.91 156.57, 32 160.42 M218.68 160.42 C173.49 163.39, 131.72 163.72, 32 160.42 M32 160.42 C7.42 156.48, 2.48 146.35, 0 128.42 M32 160.42 C12.07 158.56, -1.88 148.32, 0 128.42 M0 128.42 C1.23 98.31, -1.45 64.21, 0 32 M0 128.42 C2.11 105.97, -1.46 84.34, 0 32 M0 32 C-0.36 10.93, 14.22 -0.98, 32 0 M0 32 C-0.52 11.87, 9.12 3.92, 32 0" stroke="#1e1e1e" stroke-width="4" fill="none"></path></g><g stroke-opacity="0.9" fill-opacity="0.9" transform="translate(2299.374023437499 206.7796874999999) rotate(0 84.0322265625 41.40000000000009)"><text x="84.0322265625" y="33.120703125" font-family="Helvetica, Segoe UI Emoji" font-size="36px" fill="#ffffff" text-anchor="middle" style="white-space: pre;" direction="ltr" dominant-baseline="alphabetic">SSO </text><text x="84.0322265625" y="74.520703125" font-family="Helvetica, Segoe UI Emoji" font-size="36px" fill="#ffffff" text-anchor="middle" style="white-space: pre;" direction="ltr" dominant-baseline="alphabetic">successful</text></g><g stroke-opacity="0.9" fill-opacity="0.9" stroke-linecap="round" transform="translate(1937.9609374999995 175.45312499999955) rotate(0 106.5 76)"><path d="M7.86 8.16 C7.86 8.16, 7.86 8.16, 7.86 8.16 M7.86 8.16 C7.86 8.16, 7.86 8.16, 7.86 8.16 M2.35 20.59 C6.12 18.28, 14.97 13.81, 18.1 2.48 M2.35 20.59 C6.72 15.95, 14.45 9.98, 18.1 2.48 M1.43 27.75 C10.76 16.84, 17.61 8.32, 24.4 1.33 M1.43 27.75 C12.34 18.91, 18.36 8.41, 24.4 1.33 M1.17 34.14 C3.34 28.61, 16.07 22.08, 30.7 0.18 M1.17 34.14 C7.14 27.32, 12.58 19.91, 30.7 0.18 M0.91 40.54 C5.81 33.58, 16.54 25.03, 36.34 -0.21 M0.91 40.54 C15.26 26.1, 28.38 11.29, 36.34 -0.21 M1.31 46.19 C17.57 25.98, 32.58 16.04, 41.33 0.15 M1.31 46.19 C9.68 35.05, 19.21 22.24, 41.33 0.15 M1.04 52.58 C13.43 33.96, 25.12 22.13, 46.97 -0.25 M1.04 52.58 C11.07 37.87, 24.79 26.7, 46.97 -0.25 M0.78 58.98 C15.7 46.08, 25.8 32.34, 51.96 0.11 M0.78 58.98 C17.45 38.69, 37.55 15.67, 51.96 0.11 M1.18 64.62 C21 39.14, 42.12 18.48, 57.6 -0.28 M1.18 64.62 C22.69 40.15, 43.41 16.82, 57.6 -0.28 M0.92 71.02 C9.25 53.07, 23.74 42.05, 62.59 0.08 M0.92 71.02 C13.42 55.24, 24.56 41.53, 62.59 0.08 M0.65 77.42 C22.89 55.77, 39.91 29.88, 67.57 0.44 M0.65 77.42 C17.79 57.42, 34.32 34.39, 67.57 0.44 M1.05 83.06 C25.52 60.48, 47.74 32.47, 73.22 0.04 M1.05 83.06 C17.26 62.37, 34.24 43.02, 73.22 0.04 M0.79 89.46 C22.34 60.6, 46.96 38.83, 78.2 0.41 M0.79 89.46 C17.81 71.14, 33.78 51.56, 78.2 0.41 M0.53 95.86 C34.06 60.2, 66.52 22.39, 83.85 0.01 M0.53 95.86 C22.68 69.47, 43.31 43.45, 83.85 0.01 M0.92 101.5 C18.51 76.57, 41.76 50.68, 88.83 0.37 M0.92 101.5 C33.16 65.9, 68.41 26.29, 88.83 0.37 M0.66 107.9 C28.38 74.87, 60.02 35.33, 94.48 -0.02 M0.66 107.9 C26.51 77.88, 49.31 51.25, 94.48 -0.02 M0.4 114.3 C18.67 92.42, 43.49 67.26, 99.46 0.34 M0.4 114.3 C26.11 79.84, 56.11 49.67, 99.46 0.34 M0.14 120.69 C31.68 78.95, 67.41 44.12, 105.11 -0.06 M0.14 120.69 C22.7 95.14, 45.97 66.34, 105.11 -0.06 M1.19 125.58 C27.22 99.6, 48.58 71.81, 110.09 0.3 M1.19 125.58 C26.99 94.69, 52.37 62.5, 110.09 0.3 M2.24 130.47 C46.52 82.64, 85.3 41.87, 115.74 -0.09 M2.24 130.47 C32.02 101.19, 60.77 67.64, 115.74 -0.09 M3.29 135.36 C38.36 99.89, 68.33 58.44, 120.72 0.27 M3.29 135.36 C26.97 107.4, 48.34 78.1, 120.72 0.27 M5.65 138.74 C35.5 113.09, 64.47 80.48, 126.37 -0.13 M5.65 138.74 C33.2 108.41, 59.09 73.85, 126.37 -0.13 M7.36 142.87 C52.18 93.59, 99.71 38.86, 131.35 0.23 M7.36 142.87 C51.13 93.71, 94.66 46.2, 131.35 0.23 M10.38 145.5 C39.62 112.2, 73.1 77.47, 137 -0.16 M10.38 145.5 C43.65 105.32, 77.51 68.5, 137 -0.16 M14.05 147.37 C49.59 105.7, 83.45 68.69, 141.98 0.2 M14.05 147.37 C61.7 93.55, 109.22 36.28, 141.98 0.2 M17.07 149.99 C64.15 94.28, 115.89 33.72, 147.63 -0.2 M17.07 149.99 C67.48 92.77, 118.94 36.19, 147.63 -0.2 M22.06 150.35 C66.71 96.56, 105.22 52.29, 152.61 0.16 M22.06 150.35 C54.76 109.88, 88.6 75.34, 152.61 0.16 M26.39 151.47 C70.05 102.39, 109.65 51.76, 158.26 -0.23 M26.39 151.47 C56.89 116.23, 83.75 85.32, 158.26 -0.23 M31.38 151.83 C58.85 114.42, 89.99 83.1, 163.24 0.13 M31.38 151.83 C80.23 90.88, 131.9 33.28, 163.24 0.13 M36.36 152.19 C84.54 94.89, 132.16 41.08, 168.89 -0.27 M36.36 152.19 C82.79 101.83, 128.38 48.45, 168.89 -0.27 M41.35 152.55 C81.76 103.27, 124.04 54.2, 173.87 0.09 M41.35 152.55 C76.74 107.62, 119.55 61.08, 173.87 0.09 M46.99 152.15 C98.88 100.99, 143.76 44.01, 178.86 0.45 M46.99 152.15 C93.38 101.92, 134.33 52.69, 178.86 0.45 M51.98 152.51 C83.04 123.59, 109.7 86.74, 183.85 0.81 M51.98 152.51 C96.97 101.09, 143.5 48.64, 183.85 0.81 M57.62 152.12 C106.42 94.19, 156.39 44.22, 188.83 1.17 M57.62 152.12 C96.16 109.74, 134.68 62.52, 188.83 1.17 M62.61 152.48 C91.74 109.26, 123.71 76.53, 193.17 2.29 M62.61 152.48 C110.11 94.38, 159.14 39.19, 193.17 2.29 M68.25 152.08 C120.09 99.3, 165.08 41.25, 197.5 3.4 M68.25 152.08 C114.46 98.67, 160.93 44.26, 197.5 3.4 M73.24 152.44 C122.14 91.66, 174.24 40.44, 200.52 6.03 M73.24 152.44 C113.26 105.05, 149.84 61.17, 200.52 6.03 M78.88 152.05 C131.31 98.23, 181.17 35.31, 204.19 7.9 M78.88 152.05 C102.81 125.33, 126.41 94.22, 204.19 7.9 M83.87 152.41 C121.37 114.18, 157.22 71.87, 206.55 11.28 M83.87 152.41 C124.85 110.43, 162.1 63.73, 206.55 11.28 M89.51 152.01 C116.24 119.42, 140.13 93.37, 208.92 14.66 M89.51 152.01 C119.9 113.33, 149.39 79.01, 208.92 14.66 M94.5 152.37 C130.61 108.74, 169.09 65.96, 211.28 18.04 M94.5 152.37 C128.32 115.66, 159.17 78.38, 211.28 18.04 M100.14 151.98 C140.9 102.22, 180.57 49.2, 211.67 23.68 M100.14 151.98 C139.72 107.95, 180.05 62.87, 211.67 23.68 M105.13 152.34 C133.88 124.49, 163.5 90.63, 212.72 28.57 M105.13 152.34 C140.89 114.4, 172.68 73.63, 212.72 28.57 M110.77 151.94 C132.67 124.06, 154.99 99.67, 213.12 34.21 M110.77 151.94 C137.92 115.91, 166.09 83.35, 213.12 34.21 M115.76 152.3 C137.69 127.2, 163.31 102.45, 213.51 39.85 M115.76 152.3 C138.26 128.89, 159.16 105.45, 213.51 39.85 M121.4 151.91 C141.75 122.8, 168.02 96.74, 213.25 46.25 M121.4 151.91 C142.07 126.79, 159.54 106.05, 213.25 46.25 M126.39 152.27 C139.4 129.83, 162.95 110.75, 212.99 52.65 M126.39 152.27 C151.08 124.36, 176.29 95.44, 212.99 52.65 M131.38 152.63 C161.17 115.31, 192.48 80.65, 213.38 58.29 M131.38 152.63 C152.47 129.11, 175 102.92, 213.38 58.29 M137.02 152.24 C154.01 131.53, 169.99 114.44, 213.12 64.69 M137.02 152.24 C155.69 127.4, 174.18 107.49, 213.12 64.69 M142.01 152.6 C162.65 136.77, 171.51 120.15, 213.52 70.33 M142.01 152.6 C167.01 123.11, 191.89 93.83, 213.52 70.33 M147.65 152.2 C165.47 131.95, 178.14 121.32, 213.26 76.73 M147.65 152.2 C168.26 126.78, 189.77 98.45, 213.26 76.73 M152.64 152.56 C167.64 132.1, 187.84 118.56, 213 83.13 M152.64 152.56 C174.15 128, 196.45 100.98, 213 83.13 M158.28 152.17 C170.36 136.27, 181.18 124.26, 213.39 88.77 M158.28 152.17 C171.2 134.03, 186.12 121.87, 213.39 88.77 M163.27 152.53 C177.85 132.04, 194.71 118.33, 213.13 95.17 M163.27 152.53 C179.75 131.3, 196.67 112.45, 213.13 95.17 M168.91 152.13 C179.39 136.6, 193.87 127.69, 212.87 101.57 M168.91 152.13 C182.4 135.72, 198.52 119.11, 212.87 101.57 M173.9 152.49 C185.07 133.49, 201.52 115.79, 213.26 107.21 M173.9 152.49 C185.38 139.37, 198.21 121.74, 213.26 107.21 M179.54 152.1 C189.96 141.3, 206.39 124.68, 213 113.61 M179.54 152.1 C191.92 139.12, 203.75 123.84, 213 113.61 M184.53 152.46 C194.46 144.05, 196.61 137.38, 212.74 120.01 M184.53 152.46 C193.23 144.53, 199.61 132.34, 212.74 120.01 M190.83 151.31 C202.52 143.75, 205.98 131.62, 213.13 125.65 M190.83 151.31 C198.18 142.6, 208.92 129.64, 213.13 125.65 M198.44 148.65 C201.59 145.03, 204.92 142.07, 208.28 137.33 M198.44 148.65 C199.55 144.91, 202.01 144.44, 208.28 137.33" stroke="#a5d8ff" stroke-width="0.5" fill="none"></path><path d="M32 0 C66.47 2.97, 105.22 1.73, 181 0 M32 0 C76.73 1.56, 119.11 0.04, 181 0 M181 0 C204.72 -2.53, 209.8 12.25, 213 32 M181 0 C201.97 1.08, 214.44 10.67, 213 32 M213 32 C213.62 65.18, 212.28 95.75, 213 120 M213 32 C213.16 49.21, 213.86 70.73, 213 120 M213 120 C213.84 142.79, 199.39 149.93, 181 152 M213 120 C214.58 139.88, 202.06 148.81, 181 152 M181 152 C148.31 150.87, 112.36 157.41, 32 152 M181 152 C141.36 153.8, 98.53 153.96, 32 152 M32 152 C8.77 149.67, 0.96 137.41, 0 120 M32 152 C8.15 152.59, 2.99 137.89, 0 120 M0 120 C-1.87 92.12, -2.47 66.86, 0 32 M0 120 C-1.7 100.98, -0.2 77.65, 0 32 M0 32 C-3.9 11.49, 11.53 -0.09, 32 0 M0 32 C-1.72 11.41, 9.75 1.63, 32 0" stroke="#1e1e1e" stroke-width="1" fill="none"></path></g><g stroke-opacity="0.9" fill-opacity="0.9" transform="translate(1968.9716796874995 203.15312499999936) rotate(0 75.4892578125 48.299999999999955)"><text x="75.4892578125" y="25.760546874999996" font-family="Helvetica, Segoe UI Emoji" font-size="28px" fill="#1e1e1e" text-anchor="middle" style="white-space: pre;" direction="ltr" dominant-baseline="alphabetic">Add user to </text><text x="75.4892578125" y="57.96054687499999" font-family="Helvetica, Segoe UI Emoji" font-size="28px" fill="#1e1e1e" text-anchor="middle" style="white-space: pre;" direction="ltr" dominant-baseline="alphabetic">default </text><text x="75.4892578125" y="90.160546875" font-family="Helvetica, Segoe UI Emoji" font-size="28px" fill="#1e1e1e" text-anchor="middle" style="white-space: pre;" direction="ltr" dominant-baseline="alphabetic">org/groups</text></g><g mask="url(#mask-Zr36CnJnfzrgWyNW8rzTJ)" stroke-linecap="round"><g stroke-opacity="0.9" fill-opacity="0.9" transform="translate(637.4723887844626 206.47353061634203) rotate(0 80.68717813094509 -26.01404160828065)"><path d="M0.53 -0.16 C12.67 -8.89, 45.96 -44.25, 72.65 -52.66 C99.33 -61.07, 145.84 -50.81, 160.65 -50.63 M-0.65 -1.29 C11.41 -9.85, 44.8 -42.9, 72.1 -51.45 C99.4 -60, 148.2 -52.75, 163.16 -52.6" stroke="#1e1e1e" stroke-width="2" fill="none"></path></g><g stroke-opacity="0.9" fill-opacity="0.9" transform="translate(637.4723887844626 206.47353061634203) rotate(0 80.68717813094509 -26.01404160828065)"><path d="M162.56 -52.17 L148.86 -48.79 L150.71 -60.13 L161.99 -52.97" stroke="none" stroke-width="0" fill="#1e1e1e" fill-rule="evenodd"></path><path d="M163.16 -52.6 C158.97 -50.05, 154.39 -50.36, 149.17 -47.19 M163.16 -52.6 C157.47 -49.98, 153 -49.16, 149.17 -47.19 M149.17 -47.19 C150.32 -51.72, 149.82 -54.12, 150.03 -59.84 M149.17 -47.19 C148.98 -50.5, 149.13 -53.67, 150.03 -59.84 M150.03 -59.84 C154.17 -58.3, 159.25 -54.63, 163.16 -52.6 M150.03 -59.84 C152.4 -58.64, 155.6 -56.51, 163.16 -52.6 M163.16 -52.6 C163.16 -52.6, 163.16 -52.6, 163.16 -52.6 M163.16 -52.6 C163.16 -52.6, 163.16 -52.6, 163.16 -52.6" stroke="#1e1e1e" stroke-width="2" fill="none"></path></g></g><mask id="mask-Zr36CnJnfzrgWyNW8rzTJ"><rect x="0" y="0" fill="#fff" width="898.8467450463528" height="358.50161383290333"></rect><rect x="679.9953118621736" y="133.74544739978091" fill="#000" width="58.728515625" height="41.4" opacity="1"></rect></mask><g stroke-opacity="0.9" fill-opacity="0.9" transform="translate(679.9953118621738 133.74544739978091) rotate(0 38.73463701580715 44.665029174926076)"><text x="29.3642578125" y="33.120703125" font-family="Helvetica, Segoe UI Emoji" font-size="36px" fill="#1e1e1e" text-anchor="middle" style="white-space: pre;" direction="ltr" dominant-baseline="alphabetic">Yes</text></g><g mask="url(#mask-tSS7Pg5WqHQ1y-QTq2bJp)" stroke-linecap="round"><g stroke-opacity="0.9" fill-opacity="0.9" transform="translate(632.5447844059344 369.04131685649463) rotate(359.6506622880162 91.79908999904217 32.614335046793485)"><path d="M-1.77 -0.17 C9.59 9.63, 38.45 46.85, 69.31 57.79 C100.16 68.74, 164.75 64.57, 183.34 65.5 M2.46 -2.73 C13.37 7.49, 37.41 48.55, 67.23 60.47 C97.05 72.38, 162.61 68.01, 181.39 68.76" stroke="#1e1e1e" stroke-width="2" fill="none"></path></g><g stroke-opacity="0.9" fill-opacity="0.9" transform="translate(632.5447844059344 369.04131685649463) rotate(359.6506622880162 91.79908999904217 32.614335046793485)"><path d="M180.72 68.93 L169.05 76.04 L168.85 61.48 L181.39 67.81" stroke="none" stroke-width="0" fill="#1e1e1e" fill-rule="evenodd"></path><path d="M181.3 68.92 C175.8 70.72, 172.26 71.57, 166.82 73.85 M181.98 68.5 C178.03 70.41, 173.12 72.17, 167.94 75.6 M166.65 74.78 C168.18 70.71, 166.88 67.1, 167.59 61.74 M167.79 75.46 C168.43 71.88, 168.14 67.67, 168.16 62.77 M166.51 61.17 C170.44 65.28, 176.65 66.5, 181.11 67.93 M167.46 62.77 C170.76 63.62, 175.36 65.54, 181.85 68.79 M181.39 68.76 C181.39 68.76, 181.39 68.76, 181.39 68.76 M181.39 68.76 C181.39 68.76, 181.39 68.76, 181.39 68.76" stroke="#1e1e1e" stroke-width="2" fill="none"></path></g></g><mask id="mask-tSS7Pg5WqHQ1y-QTq2bJp"><rect x="0" y="0" fill="#fff" width="916.1429644040187" height="534.2699869500816"></rect><rect x="678.7000917832647" y="408.03239213875986" fill="#000" width="46.01953125" height="41.4" opacity="1"></rect></mask><g stroke-opacity="0.9" fill-opacity="0.9" transform="translate(678.6970477314651 408.0262083426528) rotate(0 44.63108743450425 -5.874387094034546)"><text x="23.009765625" y="33.120703125" font-family="Helvetica, Segoe UI Emoji" font-size="36px" fill="#1e1e1e" text-anchor="middle" style="white-space: pre;" direction="ltr" dominant-baseline="alphabetic">No</text></g><g stroke-linecap="round"><g stroke-opacity="0.9" fill-opacity="0.9" transform="translate(1050.3281249999995 156.75732421875) rotate(0 76.1171875 26.8828125)"><path d="M-2.45 -0.33 C12.35 2.75, 59.9 7.74, 86.04 16.6 C112.19 25.45, 143.04 46.79, 154.42 52.8 M1.41 -2.97 C16.03 -0.49, 58.05 3, 83.45 12.73 C108.84 22.45, 141.7 48.39, 153.79 55.38" stroke="#1e1e1e" stroke-width="2" fill="none"></path></g><g stroke-opacity="0.9" fill-opacity="0.9" transform="translate(1050.3281249999995 156.75732421875) rotate(0 76.1171875 26.8828125)"><path d="M153.31 56.56 L137.52 51.35 L144.22 43.41 L152.59 54.07" stroke="none" stroke-width="0" fill="#1e1e1e" fill-rule="evenodd"></path><path d="M153.62 55.03 C151.94 55.97, 147.3 55.46, 138.37 52.25 M154.06 54.76 C150.05 54.21, 146.2 54.51, 138.84 52.53 M138.72 53.06 C140.11 49.58, 144.26 47.34, 146.55 43.25 M138.99 52.95 C141.19 50, 141.76 47.35, 146.41 42.83 M145.57 41.88 C147.28 46.13, 151.57 49.48, 152.42 55.75 M145.48 42.09 C147.68 45.14, 149.4 49.2, 153.55 54.75 M153.79 55.38 C153.79 55.38, 153.79 55.38, 153.79 55.38 M153.79 55.38 C153.79 55.38, 153.79 55.38, 153.79 55.38" stroke="#1e1e1e" stroke-width="2" fill="none"></path></g></g><mask></mask><g stroke-linecap="round"><g stroke-opacity="0.9" fill-opacity="0.9" transform="translate(1048.7968749999995 433.92919921875) rotate(0 75.63671875 -31.22265625)"><path d="M0.27 -2.74 C15.3 -5.87, 63.3 -8.92, 88.41 -18.98 C113.52 -29.04, 140.12 -56.22, 150.95 -63.1 M-3.03 1.94 C13.06 -0.9, 68.46 -6.3, 93.79 -16.68 C119.12 -27.06, 138.74 -52.28, 148.96 -60.35" stroke="#1e1e1e" stroke-width="2" fill="none"></path></g><g stroke-opacity="0.9" fill-opacity="0.9" transform="translate(1048.7968749999995 433.92919921875) rotate(0 75.63671875 -31.22265625)"><path d="M147.96 -60.36 L142.51 -46.88 L135.92 -57.05 L147.18 -62.11" stroke="none" stroke-width="0" fill="#1e1e1e" fill-rule="evenodd"></path><path d="M147.49 -61.36 C146.33 -57.21, 145.98 -52.6, 144.62 -46.92 M148.57 -60.24 C147.28 -54.89, 144.16 -49.98, 142.76 -46.62 M143.89 -46.58 C139.92 -49.66, 137.79 -53.59, 134.66 -55.01 M143.1 -46.01 C140.25 -49.97, 136.33 -53.05, 134.2 -56.15 M135.07 -55.89 C136.77 -57.03, 139.79 -58.78, 148.35 -59.78 M134.25 -55.14 C137.77 -57.12, 140.2 -57.84, 148.51 -60.7 M148.96 -60.35 C148.96 -60.35, 148.96 -60.35, 148.96 -60.35 M148.96 -60.35 C148.96 -60.35, 148.96 -60.35, 148.96 -60.35" stroke="#1e1e1e" stroke-width="2" fill="none"></path></g></g><mask></mask><g mask="url(#mask-7rOwBY-JE0gGDe_Fg8krv)" stroke-linecap="round"><g stroke-opacity="0.9" fill-opacity="0.9" transform="translate(1401.9140625 215.49267578125) rotate(0 56.12792968749977 -26.3046875)"><path d="M2.18 -0.97 C9.55 -8.26, 25.48 -32.77, 43.55 -41.61 C61.62 -50.46, 99.1 -52.49, 110.61 -54.05 M-0.08 -3.96 C7.17 -11.06, 23.01 -30.62, 42.45 -38.58 C61.89 -46.54, 104.72 -48.8, 116.56 -51.73" stroke="#1e1e1e" stroke-width="2" fill="none"></path></g><g stroke-opacity="0.9" fill-opacity="0.9" transform="translate(1401.9140625 215.49267578125) rotate(0 56.12792968749977 -26.3046875)"><path d="M114.79 -50.89 L102.84 -44.76 L102.6 -54.47 L116.73 -51.47" stroke="none" stroke-width="0" fill="#1e1e1e" fill-rule="evenodd"></path><path d="M116.04 -50.61 C112.57 -50.22, 108.93 -46.83, 104.92 -42.92 M116.33 -51.57 C113.72 -50.65, 111.39 -48.36, 103.61 -43.59 M104.64 -42.23 C104.19 -46.47, 102.35 -50.05, 102.75 -55.94 M103.5 -44.06 C103.85 -46.61, 103.05 -50.4, 101.82 -56.16 M102.75 -57.37 C104.42 -54.47, 108.48 -52.85, 116.63 -52.73 M101.83 -55.4 C105.3 -55.53, 109.19 -54.06, 116.31 -51.66 M116.56 -51.73 C116.56 -51.73, 116.56 -51.73, 116.56 -51.73 M116.56 -51.73 C116.56 -51.73, 116.56 -51.73, 116.56 -51.73" stroke="#1e1e1e" stroke-width="2" fill="none"></path></g></g><mask id="mask-7rOwBY-JE0gGDe_Fg8krv"><rect x="0" y="0" fill="#fff" width="1614.1699218749995" height="368.10205078125"></rect><rect x="1425.4804687499995" y="158.8809570312501" fill="#000" width="35.79296875" height="32.199999999999996" opacity="1"></rect></mask><g stroke-opacity="0.9" fill-opacity="0.9" transform="translate(1425.4804687499995 158.8809570312501) rotate(0 34.672940611094646 29.09983952119933)"><text x="17.896484375" y="25.760546874999996" font-family="Helvetica, Segoe UI Emoji" font-size="28px" fill="#1e1e1e" text-anchor="middle" style="white-space: pre;" direction="ltr" dominant-baseline="alphabetic">No</text></g><g mask="url(#mask-XAXiEs_3ecZWwWA5co2vR)" stroke-linecap="round"><g stroke-opacity="0.9" fill-opacity="0.9" transform="translate(1396.3671875 370.11767578125) rotate(0 91.37499999999977 38.47231173998398)"><path d="M-1.64 -1.45 C8.98 9.63, 34.9 52.65, 65.8 65.32 C96.7 78, 164.28 73.11, 183.74 74.61 M2.66 3.94 C12.76 14.3, 33.82 49.11, 63.78 61.19 C93.75 73.28, 162.59 74.06, 182.46 76.45" stroke="#1e1e1e" stroke-width="2" fill="none"></path></g><g stroke-opacity="0.9" fill-opacity="0.9" transform="translate(1396.3671875 370.11767578125) rotate(0 91.37499999999977 38.47231173998398)"><path d="M182.89 77.97 L168.62 82.06 L170.18 69.37 L182.18 74.59" stroke="none" stroke-width="0" fill="#1e1e1e" fill-rule="evenodd"></path><path d="M181.69 76.67 C178.06 78.9, 170.69 80.27, 167.05 81.35 M182.72 76.35 C177.51 77.92, 173.4 79.06, 168.41 82.15 M167.73 82.58 C169.33 76.84, 168.75 72.95, 168.3 68.05 M168.59 81.68 C168.2 79.06, 168.44 76.15, 169.1 69.4 M168.4 70.07 C172.08 69.64, 173.76 71.7, 181.56 75.76 M169.62 69 C174.04 72.09, 179.27 74.95, 182.9 76.18 M182.46 76.45 C182.46 76.45, 182.46 76.45, 182.46 76.45 M182.46 76.45 C182.46 76.45, 182.46 76.45, 182.46 76.45" stroke="#1e1e1e" stroke-width="2" fill="none"></path></g></g><mask id="mask-XAXiEs_3ecZWwWA5co2vR"><rect x="0" y="0" fill="#fff" width="1679.1171874999995" height="547.062299261218"></rect><rect x="1438.9189453125" y="417.72080078124964" fill="#000" width="45.677734375" height="32.199999999999996" opacity="1"></rect></mask><g stroke-opacity="0.9" fill-opacity="0.9" transform="translate(1438.9189453125 417.7208007812501) rotate(0 48.49552804157133 -10.098747978595156)"><text x="22.8388671875" y="25.760546874999996" font-family="Helvetica, Segoe UI Emoji" font-size="28px" fill="#1e1e1e" text-anchor="middle" style="white-space: pre;" direction="ltr" dominant-baseline="alphabetic">Yes</text></g><g mask="url(#mask-MvLytloqYK9s_A-rXwu8a)" stroke-linecap="round"><g stroke-opacity="0.9" fill-opacity="0.9" transform="translate(1783.5703125 213.51611328125) rotate(0 76.82421875 19.79296875)"><path d="M2.09 1.42 C13.76 7.88, 47.9 33.11, 72.72 38.52 C97.53 43.93, 137.09 34.88, 150.98 33.9 M-0.22 -0.28 C10.79 6.59, 44.15 35.4, 70.25 41.57 C96.34 47.73, 141.75 37.93, 156.36 36.71" stroke="#1e1e1e" stroke-width="2" fill="none"></path></g><g stroke-opacity="0.9" fill-opacity="0.9" transform="translate(1783.5703125 213.51611328125) rotate(0 76.82421875 19.79296875)"><path d="M157.11 35.3 L142.43 45.35 L142.31 30.56 L156.15 38.29" stroke="none" stroke-width="0" fill="#1e1e1e" fill-rule="evenodd"></path><path d="M157.12 36.48 C150.76 38.61, 146.02 44.54, 142.78 44.92 M156.89 37 C151.89 39.92, 147.45 43.12, 144.14 45.52 M143.6 45.65 C143.28 40.03, 143.05 36.1, 143.23 32.58 M143.46 45.4 C143.43 42.04, 142.88 39.46, 142.47 32.38 M141.94 33.22 C148.8 34.56, 151.83 36.65, 156.78 35.24 M142.75 32.84 C147.86 34.55, 153.25 35.04, 155.79 36.9 M156.36 36.71 C156.36 36.71, 156.36 36.71, 156.36 36.71 M156.36 36.71 C156.36 36.71, 156.36 36.71, 156.36 36.71" stroke="#1e1e1e" stroke-width="2" fill="none"></path></g></g><mask id="mask-MvLytloqYK9s_A-rXwu8a"><rect x="0" y="0" fill="#fff" width="2037.21875" height="353.10205078125"></rect><rect x="1838.8222656249995" y="237.0020507812501" fill="#000" width="35.79296875" height="32.199999999999996" opacity="1"></rect></mask><g stroke-opacity="0.9" fill-opacity="0.9" transform="translate(1838.8222656249995 237.0020507812501) rotate(0 22.82055856451393 -1.8316267747431993)"><text x="17.896484375" y="25.760546874999996" font-family="Helvetica, Segoe UI Emoji" font-size="28px" fill="#1e1e1e" text-anchor="middle" style="white-space: pre;" direction="ltr" dominant-baseline="alphabetic">No</text></g><g mask="url(#mask-n2IMmV-gOkeVhl5jBbmNt)" stroke-linecap="round"><g stroke-opacity="0.9" fill-opacity="0.9" transform="translate(1770.859375 74.90673828125) rotate(0 311.6835937499998 37.2265625)"><path d="M1.95 0.78 C56.17 0.2, 222.81 -19.53, 326.49 -5.64 C430.17 8.25, 574.09 69.05, 624.02 84.14 M-0.43 -1.26 C54.49 -2.37, 227.57 -22.63, 331.41 -9.2 C435.24 4.24, 574.56 64.48, 622.57 79.35" stroke="#1e1e1e" stroke-width="2" fill="none"></path></g><g stroke-opacity="0.9" fill-opacity="0.9" transform="translate(1770.859375 74.90673828125) rotate(0 311.6835937499998 37.2265625)"><path d="M620.94 77.54 L607.08 82.45 L613.16 67.83 L622.18 78.95" stroke="none" stroke-width="0" fill="#1e1e1e" fill-rule="evenodd"></path><path d="M622.99 77.88 C618.86 80.27, 613.03 81.84, 608.78 81.01 M622 79.54 C616.82 79.14, 611.08 80.09, 607.71 80.04 M607.06 79.92 C608.05 78.23, 610.27 73.67, 612.01 69.69 M607.66 80.7 C608.77 77.59, 609.08 75.52, 612 68.25 M610.44 68.39 C613.67 72.92, 618.2 74.3, 621.54 78.68 M612.11 69.42 C614.07 71.48, 616.33 72.95, 622.37 79.63 M622.57 79.35 C622.57 79.35, 622.57 79.35, 622.57 79.35 M622.57 79.35 C622.57 79.35, 622.57 79.35, 622.57 79.35" stroke="#1e1e1e" stroke-width="2" fill="none"></path></g></g><mask id="mask-n2IMmV-gOkeVhl5jBbmNt"><rect x="0" y="0" fill="#fff" width="2494.2265624999995" height="266.00048828125"></rect><rect x="2077.2548828124995" y="50.48642578125009" fill="#000" width="45.677734375" height="32.199999999999996" opacity="1"></rect></mask><g stroke-opacity="0.9" fill-opacity="0.9" transform="translate(2077.2548828124995 50.48642578125009) rotate(0 5.40006316810809 59.599104410008295)"><text x="22.8388671875" y="25.760546874999996" font-family="Helvetica, Segoe UI Emoji" font-size="28px" fill="#1e1e1e" text-anchor="middle" style="white-space: pre;" direction="ltr" dominant-baseline="alphabetic">Yes</text></g><g stroke-linecap="round"><g stroke-opacity="0.9" fill-opacity="0.9" transform="translate(1815.6263040193912 456.4824534598738) rotate(0 290.2695312499998 -58.1015625)"><path d="M1.04 -2.55 C53.3 -2.98, 218.06 15.04, 314.61 -4.02 C411.16 -23.09, 535.98 -97.99, 580.35 -116.94 M-1.83 2.24 C50.06 1.18, 216.26 11.59, 312.97 -7.82 C409.68 -27.23, 533.67 -96.2, 578.44 -114.23" stroke="#1e1e1e" stroke-width="2" fill="none"></path></g><g stroke-opacity="0.9" fill-opacity="0.9" transform="translate(1815.6263040193912 456.4824534598738) rotate(0 290.2695312499998 -58.1015625)"><path d="M579.36 -112.73 L569.41 -104.19 L564.99 -113.55 L578.68 -114.84" stroke="none" stroke-width="0" fill="#1e1e1e" fill-rule="evenodd"></path><path d="M577.08 -113.64 C576.32 -110.42, 571.46 -106.29, 567.94 -102.65 M579.13 -113.66 C575.25 -110.88, 571.19 -106.32, 568.78 -103.5 M569.06 -102.35 C566.65 -108.24, 565.67 -111.16, 563.7 -113.24 M568.25 -102.91 C567.53 -107.11, 565.87 -110.27, 564.04 -114.79 M564.7 -113.26 C567.57 -115.12, 571 -113.45, 578.13 -112.89 M563.2 -114.59 C568.9 -113.62, 573.37 -113.82, 578.88 -113.94 M578.44 -114.23 C578.44 -114.23, 578.44 -114.23, 578.44 -114.23 M578.44 -114.23 C578.44 -114.23, 578.44 -114.23, 578.44 -114.23" stroke="#1e1e1e" stroke-width="2" fill="none"></path></g></g><mask></mask><g stroke-linecap="round"><g stroke-opacity="0.9" fill-opacity="0.9" transform="translate(266.31835937500034 284.31103515625) rotate(0 42.1923828125 1.0595703125)"><path d="M1.68 -1.73 C15.76 -1.97, 72.69 -1.1, 86.33 -0.16 M-0.85 3.5 C12.87 3.42, 71.47 2.93, 85.15 2.23" stroke="#1e1e1e" stroke-width="2" fill="none"></path></g><g stroke-opacity="0.9" fill-opacity="0.9" transform="translate(266.31835937500034 284.31103515625) rotate(0 42.1923828125 1.0595703125)"><path d="M83.98 2.28 L70.08 8.34 L73.07 -3.65 L86.96 1.07" stroke="none" stroke-width="0" fill="#1e1e1e" fill-rule="evenodd"></path><path d="M84.22 3.27 C79.05 4.29, 76.29 7.48, 72.68 7.54 M85.02 1.98 C80.64 5.06, 74.58 7.68, 71.18 8.59 M71.42 9.25 C70.41 4.96, 70.55 3.34, 71.66 -2.78 M71.36 9.36 C71.08 3.42, 71.75 -1.58, 71.62 -3.51 M72.4 -5.25 C73.47 -2.4, 76.78 -0.87, 84.22 1.11 M70.69 -3.18 C75.4 -2.32, 80.09 0.84, 85.39 2 M85.15 2.23 C85.15 2.23, 85.15 2.23, 85.15 2.23 M85.15 2.23 C85.15 2.23, 85.15 2.23, 85.15 2.23" stroke="#1e1e1e" stroke-width="2" fill="none"></path></g></g><mask></mask></svg>