<?xml version="1.0" encoding="UTF-8"?>
<svg width="690px" height="250px" viewBox="0 0 690 250" version="1.1" xmlns="http://www.w3.org/2000/svg" xmlns:xlink="http://www.w3.org/1999/xlink">
    <!-- Generator: Sketch 42 (36781) - http://www.bohemiancoding.com/sketch -->
    <title>delegate-image-signing-1</title>
    <desc>Created with Sketch.</desc>
    <defs></defs>
    <g id="dtr-diagrams" stroke="none" stroke-width="1" fill="none" fill-rule="evenodd">
        <g id="delegate-image-signing-1">
            <g id="all" transform="translate(175.000000, 11.000000)">
                <g id="Group" transform="translate(171.000000, 0.000000)">
                    <g id="teams">
                        <g id="billing-team" transform="translate(97.000000, 0.000000)">
                            <path d="M34.5,26.5 C41.820625,26.5 47.75,20.5540625 47.75,13.25 C47.75,5.929375 41.820625,0 34.5,0 C27.179375,0 21.25,5.929375 21.25,13.25 C21.25,20.5540625 27.179375,26.5 34.5,26.5 L34.5,26.5 Z M34.5,33.125 C25.6721875,33.125 8,37.5471875 8,46.375 L8,53 L61,53 L61,46.375 C61,37.5471875 43.3278125,33.125 34.5,33.125 L34.5,33.125 Z" id="Shape-Copy" fill="#FFB463"></path>
                            <text id="IT-ops-team" font-family="OpenSans-Semibold, Open Sans" font-size="12" font-weight="500" fill="#C0C9CE">
                                <tspan x="0.799804688" y="70">IT ops team</tspan>
                            </text>
                        </g>
                        <g id="blog-team">
                            <text id="QA-team" font-family="OpenSans-Semibold, Open Sans" font-size="12" font-weight="500" fill="#C0C9CE">
                                <tspan x="1.71972656" y="70">QA team</tspan>
                            </text>
                            <path d="M26.5,26.5 C33.820625,26.5 39.75,20.5540625 39.75,13.25 C39.75,5.929375 33.820625,0 26.5,0 C19.179375,0 13.25,5.929375 13.25,13.25 C13.25,20.5540625 19.179375,26.5 26.5,26.5 L26.5,26.5 Z M26.5,33.125 C17.6721875,33.125 3.55271368e-15,37.5471875 3.55271368e-15,46.375 L3.55271368e-15,53 L53,53 L53,46.375 C53,37.5471875 35.3278125,33.125 26.5,33.125 L26.5,33.125 Z" id="Shape-Copy-2" fill="#00B6B5"></path>
                        </g>
                    </g>
                </g>
                <g id="permissions" transform="translate(160.000000, 101.000000)">
                    <g id="6" transform="translate(105.000000, 84.000000)" fill="#445D6E">
                        <path d="M75,11.3466667 L75,8.65333333 C73.6241667,8.16416667 72.755,8.02666667 72.3175,6.97083333 L72.3175,6.97 C71.8783333,5.91083333 72.4008333,5.19166667 73.0233333,3.88083333 L71.1191667,1.97666667 C69.8183333,2.595 69.0916667,3.1225 68.03,2.6825 L68.0291667,2.6825 C66.9716667,2.24416667 66.8333333,1.36916667 66.3466667,0 L63.6533333,0 C63.1683333,1.3625 63.0291667,2.24333333 61.9708333,2.6825 L61.97,2.6825 C60.9108333,3.1225 60.1933333,2.60083333 58.8808333,1.97666667 L56.9766667,3.88083333 C57.5975,5.1875 58.1225,5.90916667 57.6825,6.97 C57.2433333,8.02916667 56.3625,8.16833333 55,8.65333333 L55,11.3466667 C56.36,11.83 57.2433333,11.9708333 57.6825,13.0291667 C58.1241667,14.0975 57.5875,14.8341667 56.9766667,16.1183333 L58.8808333,18.0233333 C60.1825,17.4041667 60.9091667,16.8775 61.97,17.3175 L61.9708333,17.3175 C63.0291667,17.7558333 63.1675,18.6333333 63.6533333,20 L66.3466667,20 C66.8316667,18.6366667 66.9716667,17.7583333 68.0358333,17.315 L68.0366667,17.315 C69.0883333,16.8783333 69.8033333,17.3991667 71.1183333,18.0241667 L73.0225,16.1191667 C72.4025,14.8166667 71.8766667,14.0916667 72.3158333,13.0308333 C72.755,11.9716667 73.6391667,11.8308333 75,11.3466667 L75,11.3466667 Z M65,13.3333333 C63.1591667,13.3333333 61.6666667,11.8408333 61.6666667,10 C61.6666667,8.15916667 63.1591667,6.66666667 65,6.66666667 C66.8408333,6.66666667 68.3333333,8.15916667 68.3333333,10 C68.3333333,11.8408333 66.8408333,13.3333333 65,13.3333333 L65,13.3333333 Z" id="settings"></path>
                        <path d="M12.09,1 C4.5,1 0,10 0,10 C0,10 4.5,19 12.09,19 C19.5,19 24,10 24,10 C24,10 19.5,1 12.09,1 L12.09,1 Z M12,16 C8.7,16 6,13.33 6,10 C6,6.7 8.7,4 12,4 C15.33,4 18,6.7 18,10 C18,13.33 15.33,16 12,16 L12,16 Z M15,10 C15,11.665 13.665,13 12,13 C10.335,13 9,11.665 9,10 C9,8.335 10.335,7 12,7 C13.665,7 15,8.335 15,10 L15,10 Z" id="Shape"></path>
                        <path d="M31,15.0272045 L31,19 L34.9727791,19 L45.5668567,8.40587876 L41.5940776,4.4330833 L31,15.0272045 L31,15.0272045 Z M34.9727791,17.6757348 L32.3242597,17.6757348 L32.3242597,15.0272045 L33.6485194,15.0272045 L33.6485194,16.3514697 L34.9727791,16.3514697 L34.9727791,17.6757348 L34.9727791,17.6757348 Z M48.612654,5.36006891 L46.8911164,7.08161361 L42.9183373,3.10881814 L44.6398749,1.38727344 C44.8873057,1.13933381 45.2231988,1 45.573478,1 C45.9237573,1 46.2596503,1.13933381 46.5070811,1.38727344 L48.612654,3.49285504 C49.1291153,4.00931845 49.1291153,4.8436055 48.612654,5.36006891 L48.612654,5.36006891 Z" id="Shape"></path>
                    </g>
                    <g id="5" transform="translate(0.000000, 84.000000)" fill="#C0C9CE">
                        <path d="M75,11.3466667 L75,8.65333333 C73.6241667,8.16416667 72.755,8.02666667 72.3175,6.97083333 L72.3175,6.97 C71.8783333,5.91083333 72.4008333,5.19166667 73.0233333,3.88083333 L71.1191667,1.97666667 C69.8183333,2.595 69.0916667,3.1225 68.03,2.6825 L68.0291667,2.6825 C66.9716667,2.24416667 66.8333333,1.36916667 66.3466667,0 L63.6533333,0 C63.1683333,1.3625 63.0291667,2.24333333 61.9708333,2.6825 L61.97,2.6825 C60.9108333,3.1225 60.1933333,2.60083333 58.8808333,1.97666667 L56.9766667,3.88083333 C57.5975,5.1875 58.1225,5.90916667 57.6825,6.97 C57.2433333,8.02916667 56.3625,8.16833333 55,8.65333333 L55,11.3466667 C56.36,11.83 57.2433333,11.9708333 57.6825,13.0291667 C58.1241667,14.0975 57.5875,14.8341667 56.9766667,16.1183333 L58.8808333,18.0233333 C60.1825,17.4041667 60.9091667,16.8775 61.97,17.3175 L61.9708333,17.3175 C63.0291667,17.7558333 63.1675,18.6333333 63.6533333,20 L66.3466667,20 C66.8316667,18.6366667 66.9716667,17.7583333 68.0358333,17.315 L68.0366667,17.315 C69.0883333,16.8783333 69.8033333,17.3991667 71.1183333,18.0241667 L73.0225,16.1191667 C72.4025,14.8166667 71.8766667,14.0916667 72.3158333,13.0308333 C72.755,11.9716667 73.6391667,11.8308333 75,11.3466667 L75,11.3466667 Z M65,13.3333333 C63.1591667,13.3333333 61.6666667,11.8408333 61.6666667,10 C61.6666667,8.15916667 63.1591667,6.66666667 65,6.66666667 C66.8408333,6.66666667 68.3333333,8.15916667 68.3333333,10 C68.3333333,11.8408333 66.8408333,13.3333333 65,13.3333333 L65,13.3333333 Z" id="settings"></path>
                        <path d="M12.09,1 C4.5,1 0,10 0,10 C0,10 4.5,19 12.09,19 C19.5,19 24,10 24,10 C24,10 19.5,1 12.09,1 L12.09,1 Z M12,16 C8.7,16 6,13.33 6,10 C6,6.7 8.7,4 12,4 C15.33,4 18,6.7 18,10 C18,13.33 15.33,16 12,16 L12,16 Z M15,10 C15,11.665 13.665,13 12,13 C10.335,13 9,11.665 9,10 C9,8.335 10.335,7 12,7 C13.665,7 15,8.335 15,10 L15,10 Z" id="Shape"></path>
                        <path d="M31,15.0272045 L31,19 L34.9727791,19 L45.5668567,8.40587876 L41.5940776,4.4330833 L31,15.0272045 L31,15.0272045 Z M34.9727791,17.6757348 L32.3242597,17.6757348 L32.3242597,15.0272045 L33.6485194,15.0272045 L33.6485194,16.3514697 L34.9727791,16.3514697 L34.9727791,17.6757348 L34.9727791,17.6757348 Z M48.612654,5.36006891 L46.8911164,7.08161361 L42.9183373,3.10881814 L44.6398749,1.38727344 C44.8873057,1.13933381 45.2231988,1 45.573478,1 C45.9237573,1 46.2596503,1.13933381 46.5070811,1.38727344 L48.612654,3.49285504 C49.1291153,4.00931845 49.1291153,4.8436055 48.612654,5.36006891 L48.612654,5.36006891 Z" id="Shape"></path>
                    </g>
                    <g id="4" transform="translate(105.000000, 42.000000)" fill="#445D6E">
                        <path d="M75,11.3466667 L75,8.65333333 C73.6241667,8.16416667 72.755,8.02666667 72.3175,6.97083333 L72.3175,6.97 C71.8783333,5.91083333 72.4008333,5.19166667 73.0233333,3.88083333 L71.1191667,1.97666667 C69.8183333,2.595 69.0916667,3.1225 68.03,2.6825 L68.0291667,2.6825 C66.9716667,2.24416667 66.8333333,1.36916667 66.3466667,0 L63.6533333,0 C63.1683333,1.3625 63.0291667,2.24333333 61.9708333,2.6825 L61.97,2.6825 C60.9108333,3.1225 60.1933333,2.60083333 58.8808333,1.97666667 L56.9766667,3.88083333 C57.5975,5.1875 58.1225,5.90916667 57.6825,6.97 C57.2433333,8.02916667 56.3625,8.16833333 55,8.65333333 L55,11.3466667 C56.36,11.83 57.2433333,11.9708333 57.6825,13.0291667 C58.1241667,14.0975 57.5875,14.8341667 56.9766667,16.1183333 L58.8808333,18.0233333 C60.1825,17.4041667 60.9091667,16.8775 61.97,17.3175 L61.9708333,17.3175 C63.0291667,17.7558333 63.1675,18.6333333 63.6533333,20 L66.3466667,20 C66.8316667,18.6366667 66.9716667,17.7583333 68.0358333,17.315 L68.0366667,17.315 C69.0883333,16.8783333 69.8033333,17.3991667 71.1183333,18.0241667 L73.0225,16.1191667 C72.4025,14.8166667 71.8766667,14.0916667 72.3158333,13.0308333 C72.755,11.9716667 73.6391667,11.8308333 75,11.3466667 L75,11.3466667 Z M65,13.3333333 C63.1591667,13.3333333 61.6666667,11.8408333 61.6666667,10 C61.6666667,8.15916667 63.1591667,6.66666667 65,6.66666667 C66.8408333,6.66666667 68.3333333,8.15916667 68.3333333,10 C68.3333333,11.8408333 66.8408333,13.3333333 65,13.3333333 L65,13.3333333 Z" id="settings"></path>
                        <path d="M12.09,1 C4.5,1 0,10 0,10 C0,10 4.5,19 12.09,19 C19.5,19 24,10 24,10 C24,10 19.5,1 12.09,1 L12.09,1 Z M12,16 C8.7,16 6,13.33 6,10 C6,6.7 8.7,4 12,4 C15.33,4 18,6.7 18,10 C18,13.33 15.33,16 12,16 L12,16 Z M15,10 C15,11.665 13.665,13 12,13 C10.335,13 9,11.665 9,10 C9,8.335 10.335,7 12,7 C13.665,7 15,8.335 15,10 L15,10 Z" id="Shape"></path>
                        <path d="M31,15.0272045 L31,19 L34.9727791,19 L45.5668567,8.40587876 L41.5940776,4.4330833 L31,15.0272045 L31,15.0272045 Z M34.9727791,17.6757348 L32.3242597,17.6757348 L32.3242597,15.0272045 L33.6485194,15.0272045 L33.6485194,16.3514697 L34.9727791,16.3514697 L34.9727791,17.6757348 L34.9727791,17.6757348 Z M48.612654,5.36006891 L46.8911164,7.08161361 L42.9183373,3.10881814 L44.6398749,1.38727344 C44.8873057,1.13933381 45.2231988,1 45.573478,1 C45.9237573,1 46.2596503,1.13933381 46.5070811,1.38727344 L48.612654,3.49285504 C49.1291153,4.00931845 49.1291153,4.8436055 48.612654,5.36006891 L48.612654,5.36006891 Z" id="Shape"></path>
                    </g>
                    <g id="3" transform="translate(0.000000, 42.000000)" fill="#C0C9CE">
                        <path d="M75,11.3466667 L75,8.65333333 C73.6241667,8.16416667 72.755,8.02666667 72.3175,6.97083333 L72.3175,6.97 C71.8783333,5.91083333 72.4008333,5.19166667 73.0233333,3.88083333 L71.1191667,1.97666667 C69.8183333,2.595 69.0916667,3.1225 68.03,2.6825 L68.0291667,2.6825 C66.9716667,2.24416667 66.8333333,1.36916667 66.3466667,0 L63.6533333,0 C63.1683333,1.3625 63.0291667,2.24333333 61.9708333,2.6825 L61.97,2.6825 C60.9108333,3.1225 60.1933333,2.60083333 58.8808333,1.97666667 L56.9766667,3.88083333 C57.5975,5.1875 58.1225,5.90916667 57.6825,6.97 C57.2433333,8.02916667 56.3625,8.16833333 55,8.65333333 L55,11.3466667 C56.36,11.83 57.2433333,11.9708333 57.6825,13.0291667 C58.1241667,14.0975 57.5875,14.8341667 56.9766667,16.1183333 L58.8808333,18.0233333 C60.1825,17.4041667 60.9091667,16.8775 61.97,17.3175 L61.9708333,17.3175 C63.0291667,17.7558333 63.1675,18.6333333 63.6533333,20 L66.3466667,20 C66.8316667,18.6366667 66.9716667,17.7583333 68.0358333,17.315 L68.0366667,17.315 C69.0883333,16.8783333 69.8033333,17.3991667 71.1183333,18.0241667 L73.0225,16.1191667 C72.4025,14.8166667 71.8766667,14.0916667 72.3158333,13.0308333 C72.755,11.9716667 73.6391667,11.8308333 75,11.3466667 L75,11.3466667 Z M65,13.3333333 C63.1591667,13.3333333 61.6666667,11.8408333 61.6666667,10 C61.6666667,8.15916667 63.1591667,6.66666667 65,6.66666667 C66.8408333,6.66666667 68.3333333,8.15916667 68.3333333,10 C68.3333333,11.8408333 66.8408333,13.3333333 65,13.3333333 L65,13.3333333 Z" id="settings"></path>
                        <path d="M12.09,1 C4.5,1 0,10 0,10 C0,10 4.5,19 12.09,19 C19.5,19 24,10 24,10 C24,10 19.5,1 12.09,1 L12.09,1 Z M12,16 C8.7,16 6,13.33 6,10 C6,6.7 8.7,4 12,4 C15.33,4 18,6.7 18,10 C18,13.33 15.33,16 12,16 L12,16 Z M15,10 C15,11.665 13.665,13 12,13 C10.335,13 9,11.665 9,10 C9,8.335 10.335,7 12,7 C13.665,7 15,8.335 15,10 L15,10 Z" id="Shape"></path>
                        <path d="M31,15.0272045 L31,19 L34.9727791,19 L45.5668567,8.40587876 L41.5940776,4.4330833 L31,15.0272045 L31,15.0272045 Z M34.9727791,17.6757348 L32.3242597,17.6757348 L32.3242597,15.0272045 L33.6485194,15.0272045 L33.6485194,16.3514697 L34.9727791,16.3514697 L34.9727791,17.6757348 L34.9727791,17.6757348 Z M48.612654,5.36006891 L46.8911164,7.08161361 L42.9183373,3.10881814 L44.6398749,1.38727344 C44.8873057,1.13933381 45.2231988,1 45.573478,1 C45.9237573,1 46.2596503,1.13933381 46.5070811,1.38727344 L48.612654,3.49285504 C49.1291153,4.00931845 49.1291153,4.8436055 48.612654,5.36006891 L48.612654,5.36006891 Z" id="Shape"></path>
                    </g>
                    <g id="2" transform="translate(105.000000, 0.000000)" fill="#445D6E">
                        <path d="M75,11.3466667 L75,8.65333333 C73.6241667,8.16416667 72.755,8.02666667 72.3175,6.97083333 L72.3175,6.97 C71.8783333,5.91083333 72.4008333,5.19166667 73.0233333,3.88083333 L71.1191667,1.97666667 C69.8183333,2.595 69.0916667,3.1225 68.03,2.6825 L68.0291667,2.6825 C66.9716667,2.24416667 66.8333333,1.36916667 66.3466667,0 L63.6533333,0 C63.1683333,1.3625 63.0291667,2.24333333 61.9708333,2.6825 L61.97,2.6825 C60.9108333,3.1225 60.1933333,2.60083333 58.8808333,1.97666667 L56.9766667,3.88083333 C57.5975,5.1875 58.1225,5.90916667 57.6825,6.97 C57.2433333,8.02916667 56.3625,8.16833333 55,8.65333333 L55,11.3466667 C56.36,11.83 57.2433333,11.9708333 57.6825,13.0291667 C58.1241667,14.0975 57.5875,14.8341667 56.9766667,16.1183333 L58.8808333,18.0233333 C60.1825,17.4041667 60.9091667,16.8775 61.97,17.3175 L61.9708333,17.3175 C63.0291667,17.7558333 63.1675,18.6333333 63.6533333,20 L66.3466667,20 C66.8316667,18.6366667 66.9716667,17.7583333 68.0358333,17.315 L68.0366667,17.315 C69.0883333,16.8783333 69.8033333,17.3991667 71.1183333,18.0241667 L73.0225,16.1191667 C72.4025,14.8166667 71.8766667,14.0916667 72.3158333,13.0308333 C72.755,11.9716667 73.6391667,11.8308333 75,11.3466667 L75,11.3466667 Z M65,13.3333333 C63.1591667,13.3333333 61.6666667,11.8408333 61.6666667,10 C61.6666667,8.15916667 63.1591667,6.66666667 65,6.66666667 C66.8408333,6.66666667 68.3333333,8.15916667 68.3333333,10 C68.3333333,11.8408333 66.8408333,13.3333333 65,13.3333333 L65,13.3333333 Z" id="settings"></path>
                        <path d="M12.09,1 C4.5,1 0,10 0,10 C0,10 4.5,19 12.09,19 C19.5,19 24,10 24,10 C24,10 19.5,1 12.09,1 L12.09,1 Z M12,16 C8.7,16 6,13.33 6,10 C6,6.7 8.7,4 12,4 C15.33,4 18,6.7 18,10 C18,13.33 15.33,16 12,16 L12,16 Z M15,10 C15,11.665 13.665,13 12,13 C10.335,13 9,11.665 9,10 C9,8.335 10.335,7 12,7 C13.665,7 15,8.335 15,10 L15,10 Z" id="Shape"></path>
                        <path d="M31,15.0272045 L31,19 L34.9727791,19 L45.5668567,8.40587876 L41.5940776,4.4330833 L31,15.0272045 L31,15.0272045 Z M34.9727791,17.6757348 L32.3242597,17.6757348 L32.3242597,15.0272045 L33.6485194,15.0272045 L33.6485194,16.3514697 L34.9727791,16.3514697 L34.9727791,17.6757348 L34.9727791,17.6757348 Z M48.612654,5.36006891 L46.8911164,7.08161361 L42.9183373,3.10881814 L44.6398749,1.38727344 C44.8873057,1.13933381 45.2231988,1 45.573478,1 C45.9237573,1 46.2596503,1.13933381 46.5070811,1.38727344 L48.612654,3.49285504 C49.1291153,4.00931845 49.1291153,4.8436055 48.612654,5.36006891 L48.612654,5.36006891 Z" id="Shape"></path>
                    </g>
                    <g id="1">
                        <path d="M75,11.3466667 L75,8.65333333 C73.6241667,8.16416667 72.755,8.02666667 72.3175,6.97083333 L72.3175,6.97 C71.8783333,5.91083333 72.4008333,5.19166667 73.0233333,3.88083333 L71.1191667,1.97666667 C69.8183333,2.595 69.0916667,3.1225 68.03,2.6825 L68.0291667,2.6825 C66.9716667,2.24416667 66.8333333,1.36916667 66.3466667,0 L63.6533333,0 C63.1683333,1.3625 63.0291667,2.24333333 61.9708333,2.6825 L61.97,2.6825 C60.9108333,3.1225 60.1933333,2.60083333 58.8808333,1.97666667 L56.9766667,3.88083333 C57.5975,5.1875 58.1225,5.90916667 57.6825,6.97 C57.2433333,8.02916667 56.3625,8.16833333 55,8.65333333 L55,11.3466667 C56.36,11.83 57.2433333,11.9708333 57.6825,13.0291667 C58.1241667,14.0975 57.5875,14.8341667 56.9766667,16.1183333 L58.8808333,18.0233333 C60.1825,17.4041667 60.9091667,16.8775 61.97,17.3175 L61.9708333,17.3175 C63.0291667,17.7558333 63.1675,18.6333333 63.6533333,20 L66.3466667,20 C66.8316667,18.6366667 66.9716667,17.7583333 68.0358333,17.315 L68.0366667,17.315 C69.0883333,16.8783333 69.8033333,17.3991667 71.1183333,18.0241667 L73.0225,16.1191667 C72.4025,14.8166667 71.8766667,14.0916667 72.3158333,13.0308333 C72.755,11.9716667 73.6391667,11.8308333 75,11.3466667 L75,11.3466667 Z M65,13.3333333 C63.1591667,13.3333333 61.6666667,11.8408333 61.6666667,10 C61.6666667,8.15916667 63.1591667,6.66666667 65,6.66666667 C66.8408333,6.66666667 68.3333333,8.15916667 68.3333333,10 C68.3333333,11.8408333 66.8408333,13.3333333 65,13.3333333 L65,13.3333333 Z" id="settings" fill="#C0C9CE"></path>
                        <path d="M12.09,1 C4.5,1 0,10 0,10 C0,10 4.5,19 12.09,19 C19.5,19 24,10 24,10 C24,10 19.5,1 12.09,1 L12.09,1 Z M12,16 C8.7,16 6,13.33 6,10 C6,6.7 8.7,4 12,4 C15.33,4 18,6.7 18,10 C18,13.33 15.33,16 12,16 L12,16 Z M15,10 C15,11.665 13.665,13 12,13 C10.335,13 9,11.665 9,10 C9,8.335 10.335,7 12,7 C13.665,7 15,8.335 15,10 L15,10 Z" id="Shape" fill="#445D6E"></path>
                        <path d="M31,15.0272045 L31,19 L34.9727791,19 L45.5668567,8.40587876 L41.5940776,4.4330833 L31,15.0272045 L31,15.0272045 Z M34.9727791,17.6757348 L32.3242597,17.6757348 L32.3242597,15.0272045 L33.6485194,15.0272045 L33.6485194,16.3514697 L34.9727791,16.3514697 L34.9727791,17.6757348 L34.9727791,17.6757348 Z M48.612654,5.36006891 L46.8911164,7.08161361 L42.9183373,3.10881814 L44.6398749,1.38727344 C44.8873057,1.13933381 45.2231988,1 45.573478,1 C45.9237573,1 46.2596503,1.13933381 46.5070811,1.38727344 L48.612654,3.49285504 C49.1291153,4.00931845 49.1291153,4.8436055 48.612654,5.36006891 L48.612654,5.36006891 Z" id="Shape" fill="#445D6E"></path>
                    </g>
                </g>
                <g id="repos" transform="translate(0.000000, 98.000000)">
                    <g id="node" transform="translate(0.000000, 84.000000)">
                        <text id="dev/node" font-family="OpenSans-Semibold, Open Sans" font-size="16" font-weight="500" fill="#82949E">
                            <tspan x="33" y="19">dev/node</tspan>
                        </text>
                        <path d="M27.5661032,5.88472594 C28.0144632,6.52363904 28.1153442,7.24661966 27.8687462,8.05366778 L23.245033,23.2867012 C23.0320619,24.0040773 22.6033176,24.6065612 21.9588,25.0941528 C21.3142824,25.5817443 20.6277311,25.8255401 19.8991459,25.8255401 L4.38028296,25.8255401 C3.51718982,25.8255401 2.68492144,25.5256993 1.88347781,24.9260177 C1.08203418,24.3263361 0.524386344,23.5893443 0.210534294,22.7150421 C-0.0584817485,21.964039 -0.0696907502,21.2522674 0.176907289,20.5797273 C0.176907289,20.5348913 0.193720792,20.3835698 0.227347797,20.1257627 C0.260974802,19.8679557 0.283392806,19.6605891 0.294601808,19.5036631 C0.30581081,19.4139911 0.288997307,19.2934943 0.2441613,19.1421728 C0.199325293,18.9908513 0.18251179,18.8815635 0.193720792,18.8143095 C0.216138795,18.6910105 0.260974802,18.573316 0.328228813,18.4612259 C0.395482824,18.3491359 0.487957089,18.2174302 0.605651607,18.0661086 C0.723346126,17.9147871 0.815820391,17.7830813 0.883074402,17.6709913 C1.14088144,17.2450492 1.39308398,16.7322374 1.63968202,16.1325558 C1.88628006,15.5328742 2.05441509,15.0200624 2.1440871,14.5941203 C2.17771411,14.4820303 2.18051636,14.3138953 2.15249385,14.0897152 C2.12447135,13.8655352 2.1216691,13.7086092 2.1440871,13.6189372 C2.17771411,13.4956382 2.27299062,13.3387121 2.42991665,13.1481591 C2.58684267,12.9576061 2.68211919,12.8287025 2.71574619,12.7614485 C2.95113523,12.3579245 3.18652427,11.8423104 3.42191331,11.2146063 C3.65730234,10.5869022 3.79741487,10.0824971 3.84225087,9.70139105 C3.85345988,9.60051003 3.83944862,9.421166 3.80021712,9.16335896 C3.76098561,8.90555192 3.76378786,8.7486259 3.80862387,8.69258089 C3.85345988,8.54686386 3.9767589,8.37592659 4.17852093,8.17976905 C4.38028296,7.98361152 4.50358198,7.85751025 4.54841799,7.80146524 C4.76138902,7.5100312 4.99958031,7.03645087 5.26299185,6.38072427 C5.52640339,5.72499766 5.68052717,5.18416333 5.72536317,4.75822126 C5.73657218,4.66854924 5.71975867,4.52563447 5.67492267,4.32947694 C5.63008666,4.13331941 5.61887766,3.98480014 5.64129566,3.88391912 C5.66371366,3.79424711 5.71415417,3.69336609 5.79261718,3.58127607 C5.8710802,3.46918605 5.97196121,3.34028253 6.09526023,3.19456551 C6.21855925,3.04884849 6.31383577,2.93115397 6.38108978,2.84148195 C6.47076179,2.70697393 6.56323606,2.53603665 6.65851257,2.32867012 C6.75378909,2.12130359 6.8378566,1.92514606 6.91071511,1.74019753 C6.98357362,1.555249 7.07324564,1.35348697 7.17973116,1.13491143 C7.28621667,0.916335896 7.39550444,0.736991868 7.50759446,0.596879345 C7.61968448,0.456766823 7.76820375,0.325061052 7.95315228,0.201762032 C8.13810081,0.0784630125 8.33986284,0.0140112522 8.55843838,0.00840675134 C8.77701391,0.00280225045 9.0432277,0.0336270054 9.35707975,0.100881016 L9.34026625,0.151321524 C9.76620832,0.050440508 10.0520379,0 10.1977549,0 L22.9928304,0 C23.8222966,0 24.4612097,0.31385205 24.9095697,0.94155615 C25.3579298,1.56926025 25.4588108,2.29784537 25.2122128,3.1273115 L20.605313,18.3603449 C20.201789,19.6942161 19.8010672,20.554507 19.4031476,20.9412176 C19.005228,21.3279282 18.2850497,21.5212834 17.2426125,21.5212834 L2.63167868,21.5212834 C2.32903563,21.5212834 2.1160646,21.6053509 1.99276558,21.773486 C1.86946656,21.95283 1.86386206,22.1938235 1.97595208,22.4964666 C2.24496812,23.2810967 3.05201625,23.6734118 4.39709646,23.6734118 L19.9159594,23.6734118 C20.2410205,23.6734118 20.5548725,23.586542 20.8575156,23.4128025 C21.1601586,23.239063 21.3563162,23.0064762 21.4459882,22.7150421 L26.490039,6.12011498 C26.568502,5.87351694 26.5965245,5.55406039 26.5741065,5.16174532 C27.0000486,5.32988035 27.3307141,5.57087389 27.5661032,5.88472594 L27.5661032,5.88472594 Z M9.6765363,5.91835294 C9.6317003,6.06406997 9.6429093,6.19017124 9.71016331,6.29665675 C9.77741732,6.40314227 9.88950734,6.45638503 10.0464334,6.45638503 L20.269043,6.45638503 C20.41476,6.45638503 20.5576748,6.40314227 20.6977873,6.29665675 C20.8378998,6.19017124 20.9303741,6.06406997 20.9752101,5.91835294 L21.3282937,4.84228877 C21.3731297,4.69657175 21.3619207,4.57047048 21.2946667,4.46398496 C21.2274126,4.35749944 21.1153226,4.30425669 20.9583966,4.30425669 L10.735787,4.30425669 C10.5900699,4.30425669 10.4471552,4.35749944 10.3070427,4.46398496 C10.1669301,4.57047048 10.0744559,4.69657175 10.0296199,4.84228877 L9.6765363,5.91835294 Z M8.28101558,10.2226096 C8.23617957,10.3683267 8.24738858,10.4944279 8.31464259,10.6009134 C8.3818966,10.707399 8.49398662,10.7606417 8.65091264,10.7606417 L18.8735223,10.7606417 C19.0192393,10.7606417 19.1621541,10.707399 19.3022666,10.6009134 C19.4423791,10.4944279 19.5348534,10.3683267 19.5796894,10.2226096 L19.9327729,9.14654546 C19.9776089,9.00082844 19.9663999,8.87472717 19.8991459,8.76824165 C19.8318919,8.66175613 19.7198019,8.60851337 19.5628759,8.60851337 L9.34026625,8.60851337 C9.19454923,8.60851337 9.05163445,8.66175613 8.91152193,8.76824165 C8.77140941,8.87472717 8.67893514,9.00082844 8.63409914,9.14654546 L8.28101558,10.2226096 Z" id="Shape" fill="#E0E4E7"></path>
                    </g>
                    <g id="java" transform="translate(0.000000, 42.000000)">
                        <text id="dev/java" font-family="OpenSans-Semibold, Open Sans" font-size="16" font-weight="500" fill="#82949E">
                            <tspan x="33" y="19">dev/java</tspan>
                        </text>
                        <path d="M27.5661032,5.88472594 C28.0144632,6.52363904 28.1153442,7.24661966 27.8687462,8.05366778 L23.245033,23.2867012 C23.0320619,24.0040773 22.6033176,24.6065612 21.9588,25.0941528 C21.3142824,25.5817443 20.6277311,25.8255401 19.8991459,25.8255401 L4.38028296,25.8255401 C3.51718982,25.8255401 2.68492144,25.5256993 1.88347781,24.9260177 C1.08203418,24.3263361 0.524386344,23.5893443 0.210534294,22.7150421 C-0.0584817485,21.964039 -0.0696907502,21.2522674 0.176907289,20.5797273 C0.176907289,20.5348913 0.193720792,20.3835698 0.227347797,20.1257627 C0.260974802,19.8679557 0.283392806,19.6605891 0.294601808,19.5036631 C0.30581081,19.4139911 0.288997307,19.2934943 0.2441613,19.1421728 C0.199325293,18.9908513 0.18251179,18.8815635 0.193720792,18.8143095 C0.216138795,18.6910105 0.260974802,18.573316 0.328228813,18.4612259 C0.395482824,18.3491359 0.487957089,18.2174302 0.605651607,18.0661086 C0.723346126,17.9147871 0.815820391,17.7830813 0.883074402,17.6709913 C1.14088144,17.2450492 1.39308398,16.7322374 1.63968202,16.1325558 C1.88628006,15.5328742 2.05441509,15.0200624 2.1440871,14.5941203 C2.17771411,14.4820303 2.18051636,14.3138953 2.15249385,14.0897152 C2.12447135,13.8655352 2.1216691,13.7086092 2.1440871,13.6189372 C2.17771411,13.4956382 2.27299062,13.3387121 2.42991665,13.1481591 C2.58684267,12.9576061 2.68211919,12.8287025 2.71574619,12.7614485 C2.95113523,12.3579245 3.18652427,11.8423104 3.42191331,11.2146063 C3.65730234,10.5869022 3.79741487,10.0824971 3.84225087,9.70139105 C3.85345988,9.60051003 3.83944862,9.421166 3.80021712,9.16335896 C3.76098561,8.90555192 3.76378786,8.7486259 3.80862387,8.69258089 C3.85345988,8.54686386 3.9767589,8.37592659 4.17852093,8.17976905 C4.38028296,7.98361152 4.50358198,7.85751025 4.54841799,7.80146524 C4.76138902,7.5100312 4.99958031,7.03645087 5.26299185,6.38072427 C5.52640339,5.72499766 5.68052717,5.18416333 5.72536317,4.75822126 C5.73657218,4.66854924 5.71975867,4.52563447 5.67492267,4.32947694 C5.63008666,4.13331941 5.61887766,3.98480014 5.64129566,3.88391912 C5.66371366,3.79424711 5.71415417,3.69336609 5.79261718,3.58127607 C5.8710802,3.46918605 5.97196121,3.34028253 6.09526023,3.19456551 C6.21855925,3.04884849 6.31383577,2.93115397 6.38108978,2.84148195 C6.47076179,2.70697393 6.56323606,2.53603665 6.65851257,2.32867012 C6.75378909,2.12130359 6.8378566,1.92514606 6.91071511,1.74019753 C6.98357362,1.555249 7.07324564,1.35348697 7.17973116,1.13491143 C7.28621667,0.916335896 7.39550444,0.736991868 7.50759446,0.596879345 C7.61968448,0.456766823 7.76820375,0.325061052 7.95315228,0.201762032 C8.13810081,0.0784630125 8.33986284,0.0140112522 8.55843838,0.00840675134 C8.77701391,0.00280225045 9.0432277,0.0336270054 9.35707975,0.100881016 L9.34026625,0.151321524 C9.76620832,0.050440508 10.0520379,0 10.1977549,0 L22.9928304,0 C23.8222966,0 24.4612097,0.31385205 24.9095697,0.94155615 C25.3579298,1.56926025 25.4588108,2.29784537 25.2122128,3.1273115 L20.605313,18.3603449 C20.201789,19.6942161 19.8010672,20.554507 19.4031476,20.9412176 C19.005228,21.3279282 18.2850497,21.5212834 17.2426125,21.5212834 L2.63167868,21.5212834 C2.32903563,21.5212834 2.1160646,21.6053509 1.99276558,21.773486 C1.86946656,21.95283 1.86386206,22.1938235 1.97595208,22.4964666 C2.24496812,23.2810967 3.05201625,23.6734118 4.39709646,23.6734118 L19.9159594,23.6734118 C20.2410205,23.6734118 20.5548725,23.586542 20.8575156,23.4128025 C21.1601586,23.239063 21.3563162,23.0064762 21.4459882,22.7150421 L26.490039,6.12011498 C26.568502,5.87351694 26.5965245,5.55406039 26.5741065,5.16174532 C27.0000486,5.32988035 27.3307141,5.57087389 27.5661032,5.88472594 L27.5661032,5.88472594 Z M9.6765363,5.91835294 C9.6317003,6.06406997 9.6429093,6.19017124 9.71016331,6.29665675 C9.77741732,6.40314227 9.88950734,6.45638503 10.0464334,6.45638503 L20.269043,6.45638503 C20.41476,6.45638503 20.5576748,6.40314227 20.6977873,6.29665675 C20.8378998,6.19017124 20.9303741,6.06406997 20.9752101,5.91835294 L21.3282937,4.84228877 C21.3731297,4.69657175 21.3619207,4.57047048 21.2946667,4.46398496 C21.2274126,4.35749944 21.1153226,4.30425669 20.9583966,4.30425669 L10.735787,4.30425669 C10.5900699,4.30425669 10.4471552,4.35749944 10.3070427,4.46398496 C10.1669301,4.57047048 10.0744559,4.69657175 10.0296199,4.84228877 L9.6765363,5.91835294 Z M8.28101558,10.2226096 C8.23617957,10.3683267 8.24738858,10.4944279 8.31464259,10.6009134 C8.3818966,10.707399 8.49398662,10.7606417 8.65091264,10.7606417 L18.8735223,10.7606417 C19.0192393,10.7606417 19.1621541,10.707399 19.3022666,10.6009134 C19.4423791,10.4944279 19.5348534,10.3683267 19.5796894,10.2226096 L19.9327729,9.14654546 C19.9776089,9.00082844 19.9663999,8.87472717 19.8991459,8.76824165 C19.8318919,8.66175613 19.7198019,8.60851337 19.5628759,8.60851337 L9.34026625,8.60851337 C9.19454923,8.60851337 9.05163445,8.66175613 8.91152193,8.76824165 C8.77140941,8.87472717 8.67893514,9.00082844 8.63409914,9.14654546 L8.28101558,10.2226096 Z" id="Shape" fill="#E0E4E7"></path>
                    </g>
                    <g id="golang">
                        <text id="dev/nginx" font-family="OpenSans-Semibold, Open Sans" font-size="16" font-weight="500" fill="#82949E">
                            <tspan x="33" y="19">dev/nginx</tspan>
                        </text>
                        <path d="M27.5661032,5.88472594 C28.0144632,6.52363904 28.1153442,7.24661966 27.8687462,8.05366778 L23.245033,23.2867012 C23.0320619,24.0040773 22.6033176,24.6065612 21.9588,25.0941528 C21.3142824,25.5817443 20.6277311,25.8255401 19.8991459,25.8255401 L4.38028296,25.8255401 C3.51718982,25.8255401 2.68492144,25.5256993 1.88347781,24.9260177 C1.08203418,24.3263361 0.524386344,23.5893443 0.210534294,22.7150421 C-0.0584817485,21.964039 -0.0696907502,21.2522674 0.176907289,20.5797273 C0.176907289,20.5348913 0.193720792,20.3835698 0.227347797,20.1257627 C0.260974802,19.8679557 0.283392806,19.6605891 0.294601808,19.5036631 C0.30581081,19.4139911 0.288997307,19.2934943 0.2441613,19.1421728 C0.199325293,18.9908513 0.18251179,18.8815635 0.193720792,18.8143095 C0.216138795,18.6910105 0.260974802,18.573316 0.328228813,18.4612259 C0.395482824,18.3491359 0.487957089,18.2174302 0.605651607,18.0661086 C0.723346126,17.9147871 0.815820391,17.7830813 0.883074402,17.6709913 C1.14088144,17.2450492 1.39308398,16.7322374 1.63968202,16.1325558 C1.88628006,15.5328742 2.05441509,15.0200624 2.1440871,14.5941203 C2.17771411,14.4820303 2.18051636,14.3138953 2.15249385,14.0897152 C2.12447135,13.8655352 2.1216691,13.7086092 2.1440871,13.6189372 C2.17771411,13.4956382 2.27299062,13.3387121 2.42991665,13.1481591 C2.58684267,12.9576061 2.68211919,12.8287025 2.71574619,12.7614485 C2.95113523,12.3579245 3.18652427,11.8423104 3.42191331,11.2146063 C3.65730234,10.5869022 3.79741487,10.0824971 3.84225087,9.70139105 C3.85345988,9.60051003 3.83944862,9.421166 3.80021712,9.16335896 C3.76098561,8.90555192 3.76378786,8.7486259 3.80862387,8.69258089 C3.85345988,8.54686386 3.9767589,8.37592659 4.17852093,8.17976905 C4.38028296,7.98361152 4.50358198,7.85751025 4.54841799,7.80146524 C4.76138902,7.5100312 4.99958031,7.03645087 5.26299185,6.38072427 C5.52640339,5.72499766 5.68052717,5.18416333 5.72536317,4.75822126 C5.73657218,4.66854924 5.71975867,4.52563447 5.67492267,4.32947694 C5.63008666,4.13331941 5.61887766,3.98480014 5.64129566,3.88391912 C5.66371366,3.79424711 5.71415417,3.69336609 5.79261718,3.58127607 C5.8710802,3.46918605 5.97196121,3.34028253 6.09526023,3.19456551 C6.21855925,3.04884849 6.31383577,2.93115397 6.38108978,2.84148195 C6.47076179,2.70697393 6.56323606,2.53603665 6.65851257,2.32867012 C6.75378909,2.12130359 6.8378566,1.92514606 6.91071511,1.74019753 C6.98357362,1.555249 7.07324564,1.35348697 7.17973116,1.13491143 C7.28621667,0.916335896 7.39550444,0.736991868 7.50759446,0.596879345 C7.61968448,0.456766823 7.76820375,0.325061052 7.95315228,0.201762032 C8.13810081,0.0784630125 8.33986284,0.0140112522 8.55843838,0.00840675134 C8.77701391,0.00280225045 9.0432277,0.0336270054 9.35707975,0.100881016 L9.34026625,0.151321524 C9.76620832,0.050440508 10.0520379,0 10.1977549,0 L22.9928304,0 C23.8222966,0 24.4612097,0.31385205 24.9095697,0.94155615 C25.3579298,1.56926025 25.4588108,2.29784537 25.2122128,3.1273115 L20.605313,18.3603449 C20.201789,19.6942161 19.8010672,20.554507 19.4031476,20.9412176 C19.005228,21.3279282 18.2850497,21.5212834 17.2426125,21.5212834 L2.63167868,21.5212834 C2.32903563,21.5212834 2.1160646,21.6053509 1.99276558,21.773486 C1.86946656,21.95283 1.86386206,22.1938235 1.97595208,22.4964666 C2.24496812,23.2810967 3.05201625,23.6734118 4.39709646,23.6734118 L19.9159594,23.6734118 C20.2410205,23.6734118 20.5548725,23.586542 20.8575156,23.4128025 C21.1601586,23.239063 21.3563162,23.0064762 21.4459882,22.7150421 L26.490039,6.12011498 C26.568502,5.87351694 26.5965245,5.55406039 26.5741065,5.16174532 C27.0000486,5.32988035 27.3307141,5.57087389 27.5661032,5.88472594 L27.5661032,5.88472594 Z M9.6765363,5.91835294 C9.6317003,6.06406997 9.6429093,6.19017124 9.71016331,6.29665675 C9.77741732,6.40314227 9.88950734,6.45638503 10.0464334,6.45638503 L20.269043,6.45638503 C20.41476,6.45638503 20.5576748,6.40314227 20.6977873,6.29665675 C20.8378998,6.19017124 20.9303741,6.06406997 20.9752101,5.91835294 L21.3282937,4.84228877 C21.3731297,4.69657175 21.3619207,4.57047048 21.2946667,4.46398496 C21.2274126,4.35749944 21.1153226,4.30425669 20.9583966,4.30425669 L10.735787,4.30425669 C10.5900699,4.30425669 10.4471552,4.35749944 10.3070427,4.46398496 C10.1669301,4.57047048 10.0744559,4.69657175 10.0296199,4.84228877 L9.6765363,5.91835294 Z M8.28101558,10.2226096 C8.23617957,10.3683267 8.24738858,10.4944279 8.31464259,10.6009134 C8.3818966,10.707399 8.49398662,10.7606417 8.65091264,10.7606417 L18.8735223,10.7606417 C19.0192393,10.7606417 19.1621541,10.707399 19.3022666,10.6009134 C19.4423791,10.4944279 19.5348534,10.3683267 19.5796894,10.2226096 L19.9327729,9.14654546 C19.9776089,9.00082844 19.9663999,8.87472717 19.8991459,8.76824165 C19.8318919,8.66175613 19.7198019,8.60851337 19.5628759,8.60851337 L9.34026625,8.60851337 C9.19454923,8.60851337 9.05163445,8.66175613 8.91152193,8.76824165 C8.77140941,8.87472717 8.67893514,9.00082844 8.63409914,9.14654546 L8.28101558,10.2226096 Z" id="Shape" fill="#E0E4E7"></path>
                    </g>
                </g>
            </g>
        </g>
    </g>
</svg>