<?xml version="1.0" encoding="UTF-8"?>
<svg width="740px" height="350px" viewBox="0 0 740 350" version="1.1" xmlns="http://www.w3.org/2000/svg" xmlns:xlink="http://www.w3.org/1999/xlink">
    <!-- Generator: Sketch 44.1 (41455) - http://www.bohemiancoding.com/sketch -->
    <title>architecture-4</title>
    <desc>Created with Sketch.</desc>
    <defs>
        <circle id="path-1" cx="4" cy="4" r="4"></circle>
        <circle id="path-2" cx="4" cy="4" r="4"></circle>
        <circle id="path-3" cx="4" cy="4" r="4"></circle>
        <circle id="path-4" cx="4" cy="4" r="4"></circle>
        <circle id="path-5" cx="4" cy="4" r="4"></circle>
        <circle id="path-6" cx="4" cy="4" r="4"></circle>
    </defs>
    <g id="dtr-diagrams" stroke="none" stroke-width="1" fill="none" fill-rule="evenodd">
        <g id="architecture-4">
            <g id="ddc" transform="translate(30.000000, 56.000000)">
                <g id="swarm-group" transform="translate(0.000000, 42.000000)">
                    <text id="Docker-swarm" font-family="OpenSans-Semibold, Open Sans" font-size="10" font-weight="500" fill="#E0E4E7">
                        <tspan x="15.8218828" y="236.009524">Docker swarm</tspan>
                    </text>
                    <rect id="group" stroke="#E0E4E7" stroke-width="2" stroke-dasharray="5,5,5,5" x="0" y="0" width="703" height="245" rx="2"></rect>
                </g>
                <g id="load-balancers" transform="translate(23.000000, 0.000000)">
                    <g id="right" transform="translate(347.000000, 0.000000)">
                        <g id="main">
                            <rect id="Rectangle-138" fill="#445D6E" x="0" y="0" width="309" height="22" rx="2"></rect>
                            <text id="your-load-balancer" font-family="OpenSans, Open Sans" font-size="10" font-weight="normal" fill="#FFFFFF">
                                <tspan x="111.437988" y="15">your load balancer</tspan>
                            </text>
                        </g>
                        <g id="arrows" transform="translate(43.000000, 21.000000)">
                            <g id="arrow-copy-3" transform="translate(218.500000, 17.000000) scale(1, -1) rotate(-90.000000) translate(-218.500000, -17.000000) translate(202.000000, 13.000000)">
                                <path d="M2,4 L33,4" id="Line" stroke="#445D6E" stroke-width="2" stroke-linecap="round" stroke-linejoin="round"></path>
                                <g id="Oval">
                                    <use fill="#445D6E" fill-rule="evenodd" xlink:href="#path-1"></use>
                                    <circle stroke="#F7F8F9" stroke-width="2" cx="4" cy="4" r="5"></circle>
                                </g>
                            </g>
                            <g id="arrow-copy" transform="translate(111.500000, 17.000000) scale(1, -1) rotate(-90.000000) translate(-111.500000, -17.000000) translate(95.000000, 13.000000)">
                                <path d="M2,4 L33,4" id="Line" stroke="#445D6E" stroke-width="2" stroke-linecap="round" stroke-linejoin="round"></path>
                                <g id="Oval">
                                    <use fill="#445D6E" fill-rule="evenodd" xlink:href="#path-2"></use>
                                    <circle stroke="#F7F8F9" stroke-width="2" cx="4" cy="4" r="5"></circle>
                                </g>
                            </g>
                            <g id="arrow-copy-2" transform="translate(4.500000, 17.000000) scale(1, -1) rotate(-90.000000) translate(-4.500000, -17.000000) translate(-12.000000, 13.000000)">
                                <path d="M2,4 L33,4" id="Line" stroke="#445D6E" stroke-width="2" stroke-linecap="round" stroke-linejoin="round"></path>
                                <g id="Oval">
                                    <use fill="#445D6E" fill-rule="evenodd" xlink:href="#path-3"></use>
                                    <circle stroke="#F7F8F9" stroke-width="2" cx="4" cy="4" r="5"></circle>
                                </g>
                            </g>
                        </g>
                    </g>
                    <g id="left">
                        <g id="main">
                            <rect id="Rectangle-138" fill="#445D6E" x="0" y="0" width="309" height="22" rx="2"></rect>
                            <text id="your-load-balancer" font-family="OpenSans, Open Sans" font-size="10" font-weight="normal" fill="#FFFFFF">
                                <tspan x="111.437988" y="15">your load balancer</tspan>
                            </text>
                        </g>
                        <g id="arrows" transform="translate(43.000000, 21.000000)">
                            <g id="arrow-copy-3" transform="translate(218.500000, 17.000000) scale(1, -1) rotate(-90.000000) translate(-218.500000, -17.000000) translate(202.000000, 13.000000)">
                                <path d="M2,4 L33,4" id="Line" stroke="#445D6E" stroke-width="2" stroke-linecap="round" stroke-linejoin="round"></path>
                                <g id="Oval">
                                    <use fill="#445D6E" fill-rule="evenodd" xlink:href="#path-4"></use>
                                    <circle stroke="#F7F8F9" stroke-width="2" cx="4" cy="4" r="5"></circle>
                                </g>
                            </g>
                            <g id="arrow-copy" transform="translate(111.500000, 17.000000) scale(1, -1) rotate(-90.000000) translate(-111.500000, -17.000000) translate(95.000000, 13.000000)">
                                <path d="M2,4 L33,4" id="Line" stroke="#445D6E" stroke-width="2" stroke-linecap="round" stroke-linejoin="round"></path>
                                <g id="Oval">
                                    <use fill="#445D6E" fill-rule="evenodd" xlink:href="#path-5"></use>
                                    <circle stroke="#F7F8F9" stroke-width="2" cx="4" cy="4" r="5"></circle>
                                </g>
                            </g>
                            <g id="arrow-copy-2" transform="translate(4.500000, 17.000000) scale(1, -1) rotate(-90.000000) translate(-4.500000, -17.000000) translate(-12.000000, 13.000000)">
                                <path d="M2,4 L33,4" id="Line" stroke="#445D6E" stroke-width="2" stroke-linecap="round" stroke-linejoin="round"></path>
                                <g id="Oval">
                                    <use fill="#445D6E" fill-rule="evenodd" xlink:href="#path-6"></use>
                                    <circle stroke="#F7F8F9" stroke-width="2" cx="4" cy="4" r="5"></circle>
                                </g>
                            </g>
                        </g>
                    </g>
                </g>
                <g id="swam" transform="translate(22.000000, 54.000000)">
                    <g id="nodes">
                        <g id="workers" transform="translate(216.000000, 118.000000)">
                            <g id="node-1">
                                <g id="node">
                                    <g id="node-label">
                                        <path d="M0,2.00295631 C0,0.896754086 0.897702336,0 1.99174577,0 L71,0 L71,10.6452381 C71,16.5244408 66.2312425,21.2904762 60.3513837,21.2904762 L0,21.2904762 L0,2.00295631 Z" id="Rectangle-127" fill="#E0E4E7"></path>
                                        <text id="worker-node" font-family="OpenSans, Open Sans" font-size="8" font-weight="normal" fill="#FFFFFF">
                                            <tspan x="6" y="14">worker node</tspan>
                                        </text>
                                    </g>
                                </g>
                                <g id="engine" transform="translate(1.000000, 79.000000)">
                                    <rect id="Rectangle-138" fill="#A1CFE8" x="0" y="0" width="95" height="22" rx="2"></rect>
                                    <text id="Docker-Engine-EE" font-family="OpenSans, Open Sans" font-size="10" font-weight="normal" fill="#FFFFFF">
                                        <tspan x="7.59716797" y="15">Docker Engine EE</tspan>
                                    </text>
                                </g>
                                <g id="ucp" transform="translate(1.000000, 56.000000)">
                                    <rect id="Rectangle-138" fill="#A1CFE8" x="0" y="0" width="95" height="22" rx="2"></rect>
                                    <text id="UCP-worker" font-family="OpenSans, Open Sans" font-size="10" font-weight="normal" fill="#FFFFFF">
                                        <tspan x="20.4755859" y="15">UCP worker</tspan>
                                    </text>
                                </g>
                                <rect id="node-border" stroke="#E0E4E7" stroke-width="2" x="0" y="0" width="97" height="102" rx="2"></rect>
                            </g>
                            <g id="node-1-copy-3" transform="translate(107.000000, 0.000000)">
                                <g id="node">
                                    <g id="node-label">
                                        <path d="M0,2.00295631 C0,0.896754086 0.897702336,0 1.99174577,0 L71,0 L71,10.6452381 C71,16.5244408 66.2312425,21.2904762 60.3513837,21.2904762 L0,21.2904762 L0,2.00295631 Z" id="Rectangle-127" fill="#E0E4E7"></path>
                                        <text id="worker-node" font-family="OpenSans, Open Sans" font-size="8" font-weight="normal" fill="#FFFFFF">
                                            <tspan x="6" y="14">worker node</tspan>
                                        </text>
                                    </g>
                                </g>
                                <g id="engine" transform="translate(1.000000, 79.000000)">
                                    <rect id="Rectangle-138" fill="#A1CFE8" x="0" y="0" width="95" height="22" rx="2"></rect>
                                    <text id="Docker-Engine-EE" font-family="OpenSans, Open Sans" font-size="10" font-weight="normal" fill="#FFFFFF">
                                        <tspan x="7.59716797" y="15">Docker Engine EE</tspan>
                                    </text>
                                </g>
                                <g id="ucp" transform="translate(1.000000, 56.000000)">
                                    <rect id="Rectangle-138" fill="#A1CFE8" x="0" y="0" width="95" height="22" rx="2"></rect>
                                    <text id="UCP-worker" font-family="OpenSans, Open Sans" font-size="10" font-weight="normal" fill="#FFFFFF">
                                        <tspan x="20.4755859" y="15">UCP worker</tspan>
                                    </text>
                                </g>
                                <rect id="node-border" stroke="#E0E4E7" stroke-width="2" x="0" y="0" width="97" height="102" rx="2"></rect>
                            </g>
                        </g>
                        <g id="workers-dtr" transform="translate(347.000000, 0.000000)">
                            <g id="node-1-copy-4">
                                <g id="node">
                                    <g id="node-label">
                                        <path d="M0,2.00295631 C0,0.896754086 0.897702336,0 1.99174577,0 L71,0 L71,10.6452381 C71,16.5244408 66.2312425,21.2904762 60.3513837,21.2904762 L0,21.2904762 L0,2.00295631 Z" id="Rectangle-127" fill="#445D6E"></path>
                                        <text id="worker-node" font-family="OpenSans, Open Sans" font-size="8" font-weight="normal" fill="#FFFFFF">
                                            <tspan x="6" y="14">worker node</tspan>
                                        </text>
                                    </g>
                                </g>
                                <g id="engine" transform="translate(1.000000, 79.000000)">
                                    <rect id="Rectangle-138" fill="#1488C6" x="0" y="0" width="95" height="22" rx="2"></rect>
                                    <text id="Docker-Engine-EE" font-family="OpenSans, Open Sans" font-size="10" font-weight="normal" fill="#FFFFFF">
                                        <tspan x="7.59716797" y="15">Docker Engine EE</tspan>
                                    </text>
                                </g>
                                <g id="ucp" transform="translate(1.000000, 56.000000)">
                                    <rect id="Rectangle-138" fill="#1488C6" x="0" y="0" width="95" height="22" rx="2"></rect>
                                    <text id="UCP-worker" font-family="OpenSans, Open Sans" font-size="10" font-weight="normal" fill="#FFFFFF">
                                        <tspan x="20.4755859" y="15">UCP worker</tspan>
                                    </text>
                                </g>
                                <g id="ucp-copy" transform="translate(1.000000, 33.000000)">
                                    <rect id="Rectangle-138" fill="#FFB463" x="0" y="0" width="95" height="22" rx="2"></rect>
                                    <text id="DTR" font-family="OpenSans, Open Sans" font-size="10" font-weight="normal" fill="#FFFFFF">
                                        <tspan x="38.4980469" y="15">DTR</tspan>
                                    </text>
                                </g>
                                <rect id="node-border" stroke="#445D6E" stroke-width="2" x="0" y="0" width="97" height="102" rx="2"></rect>
                            </g>
                            <g id="node-1-copy-5" transform="translate(107.000000, 0.000000)">
                                <g id="node">
                                    <g id="node-label">
                                        <path d="M0,2.00295631 C0,0.896754086 0.897702336,0 1.99174577,0 L71,0 L71,10.6452381 C71,16.5244408 66.2312425,21.2904762 60.3513837,21.2904762 L0,21.2904762 L0,2.00295631 Z" id="Rectangle-127" fill="#445D6E"></path>
                                        <text id="worker-node" font-family="OpenSans, Open Sans" font-size="8" font-weight="normal" fill="#FFFFFF">
                                            <tspan x="6" y="14">worker node</tspan>
                                        </text>
                                    </g>
                                </g>
                                <g id="engine" transform="translate(1.000000, 79.000000)">
                                    <rect id="Rectangle-138" fill="#1488C6" x="0" y="0" width="95" height="22" rx="2"></rect>
                                    <text id="Docker-Engine-EE" font-family="OpenSans, Open Sans" font-size="10" font-weight="normal" fill="#FFFFFF">
                                        <tspan x="7.59716797" y="15">Docker Engine EE</tspan>
                                    </text>
                                </g>
                                <g id="ucp" transform="translate(1.000000, 56.000000)">
                                    <rect id="Rectangle-138" fill="#1488C6" x="0" y="0" width="95" height="22" rx="2"></rect>
                                    <text id="UCP-worker" font-family="OpenSans, Open Sans" font-size="10" font-weight="normal" fill="#FFFFFF">
                                        <tspan x="20.4755859" y="15">UCP worker</tspan>
                                    </text>
                                </g>
                                <g id="ucp-copy" transform="translate(1.000000, 33.000000)">
                                    <rect id="Rectangle-138" fill="#FFB463" x="0" y="0" width="95" height="22" rx="2"></rect>
                                    <text id="DTR" font-family="OpenSans, Open Sans" font-size="10" font-weight="normal" fill="#FFFFFF">
                                        <tspan x="38.4980469" y="15">DTR</tspan>
                                    </text>
                                </g>
                                <rect id="node-border" stroke="#445D6E" stroke-width="2" x="0" y="0" width="97" height="102" rx="2"></rect>
                            </g>
                            <g id="node-1-copy-6" transform="translate(214.000000, 0.000000)">
                                <g id="node">
                                    <g id="node-label">
                                        <path d="M0,2.00295631 C0,0.896754086 0.897702336,0 1.99174577,0 L71,0 L71,10.6452381 C71,16.5244408 66.2312425,21.2904762 60.3513837,21.2904762 L0,21.2904762 L0,2.00295631 Z" id="Rectangle-127" fill="#445D6E"></path>
                                        <text id="worker-node" font-family="OpenSans, Open Sans" font-size="8" font-weight="normal" fill="#FFFFFF">
                                            <tspan x="6" y="14">worker node</tspan>
                                        </text>
                                    </g>
                                </g>
                                <g id="engine" transform="translate(1.000000, 79.000000)">
                                    <rect id="Rectangle-138" fill="#1488C6" x="0" y="0" width="95" height="22" rx="2"></rect>
                                    <text id="Docker-Engine-EE" font-family="OpenSans, Open Sans" font-size="10" font-weight="normal" fill="#FFFFFF">
                                        <tspan x="7.59716797" y="15">Docker Engine EE</tspan>
                                    </text>
                                </g>
                                <g id="ucp" transform="translate(1.000000, 56.000000)">
                                    <rect id="Rectangle-138" fill="#1488C6" x="0" y="0" width="95" height="22" rx="2"></rect>
                                    <text id="UCP-worker" font-family="OpenSans, Open Sans" font-size="10" font-weight="normal" fill="#FFFFFF">
                                        <tspan x="20.4755859" y="15">UCP worker</tspan>
                                    </text>
                                </g>
                                <g id="ucp-copy" transform="translate(1.000000, 33.000000)">
                                    <rect id="Rectangle-138" fill="#FFB463" x="0" y="0" width="95" height="22" rx="2"></rect>
                                    <text id="DTR" font-family="OpenSans, Open Sans" font-size="10" font-weight="normal" fill="#FFFFFF">
                                        <tspan x="38.4980469" y="15">DTR</tspan>
                                    </text>
                                </g>
                                <rect id="node-border" stroke="#445D6E" stroke-width="2" x="0" y="0" width="97" height="102" rx="2"></rect>
                            </g>
                        </g>
                        <g id="managers-ucp">
                            <g id="node-1">
                                <g id="node">
                                    <g id="node-label">
                                        <path d="M0,2.00295631 C0,0.896754086 0.897702336,0 1.99174577,0 L71,0 L71,10.6452381 C71,16.5244408 66.2312425,21.2904762 60.3513837,21.2904762 L0,21.2904762 L0,2.00295631 Z" id="Rectangle-127" fill="#445D6E"></path>
                                        <text id="manager-node" font-family="OpenSans, Open Sans" font-size="8" font-weight="normal" fill="#FFFFFF">
                                            <tspan x="6" y="14">manager node</tspan>
                                        </text>
                                    </g>
                                </g>
                                <g id="engine" transform="translate(1.000000, 79.000000)">
                                    <rect id="Rectangle-138" fill="#1488C6" x="0" y="0" width="95" height="22" rx="2"></rect>
                                    <text id="Docker-Engine-EE" font-family="OpenSans, Open Sans" font-size="10" font-weight="normal" fill="#FFFFFF">
                                        <tspan x="7.59716797" y="15">Docker Engine EE</tspan>
                                    </text>
                                </g>
                                <g id="ucp" transform="translate(1.000000, 56.000000)">
                                    <rect id="Rectangle-138" fill="#1488C6" x="0" y="0" width="95" height="22" rx="2"></rect>
                                    <text id="UCP-manager" font-family="OpenSans, Open Sans" font-size="10" font-weight="normal" fill="#FFFFFF">
                                        <tspan x="16.0297852" y="15">UCP manager</tspan>
                                    </text>
                                </g>
                                <rect id="node-border" stroke="#445D6E" stroke-width="2" x="0" y="0" width="97" height="102" rx="2"></rect>
                            </g>
                            <g id="node-1-copy" transform="translate(107.000000, 0.000000)">
                                <g id="node">
                                    <g id="node-label">
                                        <path d="M0,2.00295631 C0,0.896754086 0.897702336,0 1.99174577,0 L71,0 L71,10.6452381 C71,16.5244408 66.2312425,21.2904762 60.3513837,21.2904762 L0,21.2904762 L0,2.00295631 Z" id="Rectangle-127" fill="#445D6E"></path>
                                        <text id="manager-node" font-family="OpenSans, Open Sans" font-size="8" font-weight="normal" fill="#FFFFFF">
                                            <tspan x="6" y="14">manager node</tspan>
                                        </text>
                                    </g>
                                </g>
                                <g id="engine" transform="translate(1.000000, 79.000000)">
                                    <rect id="Rectangle-138" fill="#1488C6" x="0" y="0" width="95" height="22" rx="2"></rect>
                                    <text id="Docker-Engine-EE" font-family="OpenSans, Open Sans" font-size="10" font-weight="normal" fill="#FFFFFF">
                                        <tspan x="7.59716797" y="15">Docker Engine EE</tspan>
                                    </text>
                                </g>
                                <g id="ucp" transform="translate(1.000000, 56.000000)">
                                    <rect id="Rectangle-138" fill="#1488C6" x="0" y="0" width="95" height="22" rx="2"></rect>
                                    <text id="UCP-manager" font-family="OpenSans, Open Sans" font-size="10" font-weight="normal" fill="#FFFFFF">
                                        <tspan x="16.0297852" y="15">UCP manager</tspan>
                                    </text>
                                </g>
                                <rect id="node-border" stroke="#445D6E" stroke-width="2" x="0" y="0" width="97" height="102" rx="2"></rect>
                            </g>
                            <g id="node-1-copy-2" transform="translate(214.000000, 0.000000)">
                                <g id="node">
                                    <g id="node-label">
                                        <path d="M0,2.00295631 C0,0.896754086 0.897702336,0 1.99174577,0 L71,0 L71,10.6452381 C71,16.5244408 66.2312425,21.2904762 60.3513837,21.2904762 L0,21.2904762 L0,2.00295631 Z" id="Rectangle-127" fill="#445D6E"></path>
                                        <text id="manager-node" font-family="OpenSans, Open Sans" font-size="8" font-weight="normal" fill="#FFFFFF">
                                            <tspan x="6" y="14">manager node</tspan>
                                        </text>
                                    </g>
                                </g>
                                <g id="engine" transform="translate(1.000000, 79.000000)">
                                    <rect id="Rectangle-138" fill="#1488C6" x="0" y="0" width="95" height="22" rx="2"></rect>
                                    <text id="Docker-Engine-EE" font-family="OpenSans, Open Sans" font-size="10" font-weight="normal" fill="#FFFFFF">
                                        <tspan x="7.59716797" y="15">Docker Engine EE</tspan>
                                    </text>
                                </g>
                                <g id="ucp" transform="translate(1.000000, 56.000000)">
                                    <rect id="Rectangle-138" fill="#1488C6" x="0" y="0" width="95" height="22" rx="2"></rect>
                                    <text id="UCP-manager" font-family="OpenSans, Open Sans" font-size="10" font-weight="normal" fill="#FFFFFF">
                                        <tspan x="16.0297852" y="15">UCP manager</tspan>
                                    </text>
                                </g>
                                <rect id="node-border" stroke="#445D6E" stroke-width="2" x="0" y="0" width="97" height="102" rx="2"></rect>
                            </g>
                        </g>
                    </g>
                </g>
            </g>
            <g id="users" transform="translate(174.000000, 5.000000)" fill="#82949E">
                <g id="right" transform="translate(347.000000, 0.000000)">
                    <g id="user">
                        <text id="UI" font-family="OpenSans, Open Sans" font-size="12" font-weight="normal">
                            <tspan x="7" y="41">UI</tspan>
                        </text>
                        <path d="M13,13 C16.59125,13 19.5,10.083125 19.5,6.5 C19.5,2.90875 16.59125,0 13,0 C9.40875,0 6.5,2.90875 6.5,6.5 C6.5,10.083125 9.40875,13 13,13 L13,13 Z M13,16.25 C8.669375,16.25 0,18.419375 0,22.75 L0,26 L26,26 L26,22.75 C26,18.419375 17.330625,16.25 13,16.25 L13,16.25 Z" id="Shape"></path>
                    </g>
                    <g id="user-copy" transform="translate(42.000000, 0.000000)">
                        <text id="CLI" font-family="OpenSans, Open Sans" font-size="12" font-weight="normal">
                            <tspan x="4" y="41">CLI</tspan>
                        </text>
                        <path d="M13,13 C16.59125,13 19.5,10.083125 19.5,6.5 C19.5,2.90875 16.59125,0 13,0 C9.40875,0 6.5,2.90875 6.5,6.5 C6.5,10.083125 9.40875,13 13,13 L13,13 Z M13,16.25 C8.669375,16.25 0,18.419375 0,22.75 L0,26 L26,26 L26,22.75 C26,18.419375 17.330625,16.25 13,16.25 L13,16.25 Z" id="Shape"></path>
                    </g>
                </g>
                <g id="left">
                    <g id="user">
                        <text id="UI" font-family="OpenSans, Open Sans" font-size="12" font-weight="normal">
                            <tspan x="7" y="41">UI</tspan>
                        </text>
                        <path d="M13,13 C16.59125,13 19.5,10.083125 19.5,6.5 C19.5,2.90875 16.59125,0 13,0 C9.40875,0 6.5,2.90875 6.5,6.5 C6.5,10.083125 9.40875,13 13,13 L13,13 Z M13,16.25 C8.669375,16.25 0,18.419375 0,22.75 L0,26 L26,26 L26,22.75 C26,18.419375 17.330625,16.25 13,16.25 L13,16.25 Z" id="Shape"></path>
                    </g>
                    <g id="user-copy" transform="translate(42.000000, 0.000000)">
                        <text id="CLI" font-family="OpenSans, Open Sans" font-size="12" font-weight="normal">
                            <tspan x="4" y="41">CLI</tspan>
                        </text>
                        <path d="M13,13 C16.59125,13 19.5,10.083125 19.5,6.5 C19.5,2.90875 16.59125,0 13,0 C9.40875,0 6.5,2.90875 6.5,6.5 C6.5,10.083125 9.40875,13 13,13 L13,13 Z M13,16.25 C8.669375,16.25 0,18.419375 0,22.75 L0,26 L26,26 L26,22.75 C26,18.419375 17.330625,16.25 13,16.25 L13,16.25 Z" id="Shape"></path>
                    </g>
                </g>
            </g>
        </g>
    </g>
</svg>