<svg width="732" height="213" viewBox="0 0 732 213" fill="none" xmlns="http://www.w3.org/2000/svg">
<path d="M472 52L356.5 81M352 110.5L293.5 136" stroke="black"/>
<path d="M352.5 110L411 135.5" stroke="black"/>
<path d="M584 110.5L525 135.5" stroke="black"/>
<path d="M119 108L178.5 135.5" stroke="black"/>
<path d="M584.5 110L642.5 135.5" stroke="black"/>
<path d="M475 53L579 78.5" stroke="black"/>
<path d="M151.5 52.5L356 80" stroke="black"/>
<rect x="430" y="22" width="88" height="32" rx="8" fill="#C0E0FA"/>
<rect x="308" y="78" width="88" height="32" rx="8" fill="#C0E0FA"/>
<rect x="538" y="78" width="88" height="32" rx="8" fill="#C0E0FA"/>
<rect x="368" y="134" width="88" height="32" rx="8" fill="#C0E0FA"/>
<rect x="136" y="134" width="88" height="32" rx="8" fill="#C0E0FA"/>
<rect x="248" y="134" width="88" height="32" rx="8" fill="#C0E0FA"/>
<rect x="600" y="134" width="88" height="32" rx="8" fill="#C0E0FA"/>
<path d="M337.438 89.4688V98H335.967V89.4688H337.438ZM340.777 92.9492V98H339.365V91.6602H340.695L340.777 92.9492ZM340.549 94.5957L340.068 94.5898C340.068 94.1523 340.123 93.748 340.232 93.377C340.342 93.0059 340.502 92.6836 340.713 92.4102C340.924 92.1328 341.185 91.9199 341.498 91.7715C341.814 91.6191 342.179 91.543 342.594 91.543C342.883 91.543 343.146 91.5859 343.385 91.6719C343.627 91.7539 343.836 91.8848 344.011 92.0645C344.191 92.2441 344.328 92.4746 344.422 92.7559C344.519 93.0371 344.568 93.377 344.568 93.7754V98H343.156V93.8984C343.156 93.5898 343.109 93.3477 343.015 93.1719C342.926 92.9961 342.795 92.8711 342.623 92.7969C342.455 92.7188 342.254 92.6797 342.019 92.6797C341.754 92.6797 341.527 92.7305 341.34 92.832C341.156 92.9336 341.006 93.0723 340.888 93.248C340.771 93.4238 340.685 93.627 340.631 93.8574C340.576 94.0879 340.549 94.334 340.549 94.5957ZM344.48 94.2207L343.818 94.3672C343.818 93.9844 343.871 93.623 343.976 93.2832C344.086 92.9395 344.244 92.6387 344.451 92.3809C344.662 92.1191 344.922 91.9141 345.23 91.7656C345.539 91.6172 345.892 91.543 346.291 91.543C346.615 91.543 346.904 91.5879 347.158 91.6777C347.416 91.7637 347.635 91.9004 347.814 92.0879C347.994 92.2754 348.131 92.5195 348.224 92.8203C348.318 93.1172 348.365 93.4766 348.365 93.8984V98H346.947V93.8926C346.947 93.5723 346.9 93.3242 346.806 93.1484C346.717 92.9727 346.588 92.8516 346.42 92.7852C346.252 92.7148 346.051 92.6797 345.816 92.6797C345.597 92.6797 345.404 92.7207 345.236 92.8027C345.072 92.8809 344.933 92.9922 344.82 93.1367C344.707 93.2773 344.621 93.4395 344.562 93.623C344.508 93.8066 344.48 94.0059 344.48 94.2207ZM353.632 96.7285V93.7051C353.632 93.4785 353.591 93.2832 353.509 93.1191C353.427 92.9551 353.302 92.8281 353.134 92.7383C352.97 92.6484 352.763 92.6035 352.513 92.6035C352.283 92.6035 352.084 92.6426 351.916 92.7207C351.748 92.7988 351.617 92.9043 351.523 93.0371C351.429 93.1699 351.382 93.3203 351.382 93.4883H349.976C349.976 93.2383 350.037 92.9961 350.158 92.7617C350.279 92.5273 350.455 92.3184 350.685 92.1348C350.916 91.9512 351.191 91.8066 351.511 91.7012C351.832 91.5957 352.191 91.543 352.589 91.543C353.066 91.543 353.488 91.623 353.855 91.7832C354.226 91.9434 354.517 92.1855 354.728 92.5098C354.943 92.8301 355.05 93.2324 355.05 93.7168V96.5352C355.05 96.8242 355.07 97.084 355.109 97.3145C355.152 97.541 355.212 97.7383 355.291 97.9062V98H353.843C353.777 97.8477 353.724 97.6543 353.685 97.4199C353.65 97.1816 353.632 96.9512 353.632 96.7285ZM353.837 94.1445L353.849 95.0176H352.835C352.574 95.0176 352.343 95.043 352.144 95.0938C351.945 95.1406 351.779 95.2109 351.646 95.3047C351.513 95.3984 351.414 95.5117 351.347 95.6445C351.281 95.7773 351.248 95.9277 351.248 96.0957C351.248 96.2637 351.287 96.418 351.365 96.5586C351.443 96.6953 351.556 96.8027 351.705 96.8809C351.857 96.959 352.041 96.998 352.255 96.998C352.544 96.998 352.796 96.9395 353.011 96.8223C353.23 96.7012 353.402 96.5547 353.527 96.3828C353.652 96.207 353.718 96.041 353.726 95.8848L354.183 96.5117C354.136 96.6719 354.056 96.8438 353.943 97.0273C353.83 97.2109 353.681 97.3867 353.498 97.5547C353.318 97.7188 353.101 97.8535 352.847 97.959C352.597 98.0645 352.308 98.1172 351.98 98.1172C351.566 98.1172 351.197 98.0352 350.873 97.8711C350.548 97.7031 350.294 97.4785 350.111 97.1973C349.927 96.9121 349.835 96.5898 349.835 96.2305C349.835 95.8945 349.898 95.5977 350.023 95.3398C350.152 95.0781 350.339 94.8594 350.585 94.6836C350.835 94.5078 351.14 94.375 351.5 94.2852C351.859 94.1914 352.269 94.1445 352.73 94.1445H353.837ZM360.827 91.6602H362.111V97.8242C362.111 98.3945 361.99 98.8789 361.747 99.2773C361.505 99.6758 361.167 99.9785 360.734 100.186C360.3 100.396 359.798 100.502 359.228 100.502C358.986 100.502 358.716 100.467 358.419 100.396C358.126 100.326 357.841 100.213 357.564 100.057C357.29 99.9043 357.062 99.7031 356.878 99.4531L357.54 98.6211C357.767 98.8906 358.017 99.0879 358.29 99.2129C358.564 99.3379 358.851 99.4004 359.152 99.4004C359.476 99.4004 359.751 99.3398 359.978 99.2188C360.208 99.1016 360.386 98.9277 360.511 98.6973C360.636 98.4668 360.699 98.1855 360.699 97.8535V93.0957L360.827 91.6602ZM356.521 94.9004V94.7773C356.521 94.2969 356.579 93.8594 356.697 93.4648C356.814 93.0664 356.982 92.7246 357.2 92.4395C357.419 92.1504 357.685 91.9297 357.997 91.7773C358.31 91.6211 358.663 91.543 359.058 91.543C359.468 91.543 359.818 91.6172 360.107 91.7656C360.4 91.9141 360.644 92.127 360.839 92.4043C361.034 92.6777 361.187 93.0059 361.296 93.3887C361.409 93.7676 361.493 94.1895 361.548 94.6543V95.0469C361.497 95.5 361.411 95.9141 361.29 96.2891C361.169 96.6641 361.009 96.9883 360.81 97.2617C360.611 97.5352 360.365 97.7461 360.072 97.8945C359.782 98.043 359.441 98.1172 359.046 98.1172C358.659 98.1172 358.31 98.0371 357.997 97.877C357.689 97.7168 357.423 97.4922 357.2 97.2031C356.982 96.9141 356.814 96.5742 356.697 96.1836C356.579 95.7891 356.521 95.3613 356.521 94.9004ZM357.933 94.7773V94.9004C357.933 95.1895 357.96 95.459 358.015 95.709C358.074 95.959 358.161 96.1797 358.279 96.3711C358.4 96.5586 358.552 96.707 358.736 96.8164C358.923 96.9219 359.144 96.9746 359.398 96.9746C359.73 96.9746 360.001 96.9043 360.212 96.7637C360.427 96.623 360.591 96.4336 360.704 96.1953C360.822 95.9531 360.904 95.6836 360.95 95.3867V94.3262C360.927 94.0957 360.878 93.8809 360.804 93.6816C360.734 93.4824 360.638 93.3086 360.517 93.1602C360.396 93.0078 360.243 92.8906 360.06 92.8086C359.876 92.7227 359.659 92.6797 359.409 92.6797C359.156 92.6797 358.935 92.7344 358.747 92.8438C358.56 92.9531 358.406 93.1035 358.284 93.2949C358.167 93.4863 358.079 93.709 358.021 93.9629C357.962 94.2168 357.933 94.4883 357.933 94.7773ZM366.61 98.1172C366.142 98.1172 365.718 98.041 365.339 97.8887C364.964 97.7324 364.644 97.5156 364.378 97.2383C364.116 96.9609 363.915 96.6348 363.774 96.2598C363.634 95.8848 363.564 95.4805 363.564 95.0469V94.8125C363.564 94.3164 363.636 93.8672 363.78 93.4648C363.925 93.0625 364.126 92.7188 364.384 92.4336C364.642 92.1445 364.946 91.9238 365.298 91.7715C365.649 91.6191 366.03 91.543 366.44 91.543C366.894 91.543 367.29 91.6191 367.63 91.7715C367.97 91.9238 368.251 92.1387 368.474 92.416C368.7 92.6895 368.868 93.0156 368.978 93.3945C369.091 93.7734 369.147 94.1914 369.147 94.6484V95.252H364.249V94.2383H367.753V94.127C367.745 93.873 367.694 93.6348 367.601 93.4121C367.511 93.1895 367.372 93.0098 367.185 92.873C366.997 92.7363 366.747 92.668 366.435 92.668C366.2 92.668 365.991 92.7188 365.808 92.8203C365.628 92.918 365.478 93.0605 365.356 93.248C365.235 93.4355 365.142 93.6621 365.075 93.9277C365.013 94.1895 364.981 94.4844 364.981 94.8125V95.0469C364.981 95.3242 365.019 95.582 365.093 95.8203C365.171 96.0547 365.284 96.2598 365.433 96.4355C365.581 96.6113 365.761 96.75 365.972 96.8516C366.183 96.9492 366.423 96.998 366.692 96.998C367.032 96.998 367.335 96.9297 367.601 96.793C367.866 96.6562 368.097 96.4629 368.292 96.2129L369.036 96.9336C368.899 97.1328 368.722 97.3242 368.503 97.5078C368.284 97.6875 368.017 97.834 367.7 97.9473C367.388 98.0605 367.024 98.1172 366.61 98.1172Z" fill="black"/>
<rect x="16" y="134" width="88" height="32" rx="8" fill="#C0E0FA"/>
<rect x="480" y="134" width="88" height="32" rx="8" fill="#C0E0FA"/>
<path d="M397.438 145.469V154H395.967V145.469H397.438ZM400.777 148.949V154H399.365V147.66H400.695L400.777 148.949ZM400.549 150.596L400.068 150.59C400.068 150.152 400.123 149.748 400.232 149.377C400.342 149.006 400.502 148.684 400.713 148.41C400.924 148.133 401.185 147.92 401.498 147.771C401.814 147.619 402.179 147.543 402.594 147.543C402.883 147.543 403.146 147.586 403.385 147.672C403.627 147.754 403.836 147.885 404.011 148.064C404.191 148.244 404.328 148.475 404.422 148.756C404.519 149.037 404.568 149.377 404.568 149.775V154H403.156V149.898C403.156 149.59 403.109 149.348 403.015 149.172C402.926 148.996 402.795 148.871 402.623 148.797C402.455 148.719 402.254 148.68 402.019 148.68C401.754 148.68 401.527 148.73 401.34 148.832C401.156 148.934 401.006 149.072 400.888 149.248C400.771 149.424 400.685 149.627 400.631 149.857C400.576 150.088 400.549 150.334 400.549 150.596ZM404.48 150.221L403.818 150.367C403.818 149.984 403.871 149.623 403.976 149.283C404.086 148.939 404.244 148.639 404.451 148.381C404.662 148.119 404.922 147.914 405.23 147.766C405.539 147.617 405.892 147.543 406.291 147.543C406.615 147.543 406.904 147.588 407.158 147.678C407.416 147.764 407.635 147.9 407.814 148.088C407.994 148.275 408.131 148.52 408.224 148.82C408.318 149.117 408.365 149.477 408.365 149.898V154H406.947V149.893C406.947 149.572 406.9 149.324 406.806 149.148C406.717 148.973 406.588 148.852 406.42 148.785C406.252 148.715 406.051 148.68 405.816 148.68C405.597 148.68 405.404 148.721 405.236 148.803C405.072 148.881 404.933 148.992 404.82 149.137C404.707 149.277 404.621 149.439 404.562 149.623C404.508 149.807 404.48 150.006 404.48 150.221ZM413.632 152.729V149.705C413.632 149.479 413.591 149.283 413.509 149.119C413.427 148.955 413.302 148.828 413.134 148.738C412.97 148.648 412.763 148.604 412.513 148.604C412.283 148.604 412.084 148.643 411.916 148.721C411.748 148.799 411.617 148.904 411.523 149.037C411.429 149.17 411.382 149.32 411.382 149.488H409.976C409.976 149.238 410.037 148.996 410.158 148.762C410.279 148.527 410.455 148.318 410.685 148.135C410.916 147.951 411.191 147.807 411.511 147.701C411.832 147.596 412.191 147.543 412.589 147.543C413.066 147.543 413.488 147.623 413.855 147.783C414.226 147.943 414.517 148.186 414.728 148.51C414.943 148.83 415.05 149.232 415.05 149.717V152.535C415.05 152.824 415.07 153.084 415.109 153.314C415.152 153.541 415.212 153.738 415.291 153.906V154H413.843C413.777 153.848 413.724 153.654 413.685 153.42C413.65 153.182 413.632 152.951 413.632 152.729ZM413.837 150.145L413.849 151.018H412.835C412.574 151.018 412.343 151.043 412.144 151.094C411.945 151.141 411.779 151.211 411.646 151.305C411.513 151.398 411.414 151.512 411.347 151.645C411.281 151.777 411.248 151.928 411.248 152.096C411.248 152.264 411.287 152.418 411.365 152.559C411.443 152.695 411.556 152.803 411.705 152.881C411.857 152.959 412.041 152.998 412.255 152.998C412.544 152.998 412.796 152.939 413.011 152.822C413.23 152.701 413.402 152.555 413.527 152.383C413.652 152.207 413.718 152.041 413.726 151.885L414.183 152.512C414.136 152.672 414.056 152.844 413.943 153.027C413.83 153.211 413.681 153.387 413.498 153.555C413.318 153.719 413.101 153.854 412.847 153.959C412.597 154.064 412.308 154.117 411.98 154.117C411.566 154.117 411.197 154.035 410.873 153.871C410.548 153.703 410.294 153.479 410.111 153.197C409.927 152.912 409.835 152.59 409.835 152.23C409.835 151.895 409.898 151.598 410.023 151.34C410.152 151.078 410.339 150.859 410.585 150.684C410.835 150.508 411.14 150.375 411.5 150.285C411.859 150.191 412.269 150.145 412.73 150.145H413.837ZM420.827 147.66H422.111V153.824C422.111 154.395 421.99 154.879 421.747 155.277C421.505 155.676 421.167 155.979 420.734 156.186C420.3 156.396 419.798 156.502 419.228 156.502C418.986 156.502 418.716 156.467 418.419 156.396C418.126 156.326 417.841 156.213 417.564 156.057C417.29 155.904 417.062 155.703 416.878 155.453L417.54 154.621C417.767 154.891 418.017 155.088 418.29 155.213C418.564 155.338 418.851 155.4 419.152 155.4C419.476 155.4 419.751 155.34 419.978 155.219C420.208 155.102 420.386 154.928 420.511 154.697C420.636 154.467 420.699 154.186 420.699 153.854V149.096L420.827 147.66ZM416.521 150.9V150.777C416.521 150.297 416.579 149.859 416.697 149.465C416.814 149.066 416.982 148.725 417.2 148.439C417.419 148.15 417.685 147.93 417.997 147.777C418.31 147.621 418.663 147.543 419.058 147.543C419.468 147.543 419.818 147.617 420.107 147.766C420.4 147.914 420.644 148.127 420.839 148.404C421.034 148.678 421.187 149.006 421.296 149.389C421.409 149.768 421.493 150.189 421.548 150.654V151.047C421.497 151.5 421.411 151.914 421.29 152.289C421.169 152.664 421.009 152.988 420.81 153.262C420.611 153.535 420.365 153.746 420.072 153.895C419.782 154.043 419.441 154.117 419.046 154.117C418.659 154.117 418.31 154.037 417.997 153.877C417.689 153.717 417.423 153.492 417.2 153.203C416.982 152.914 416.814 152.574 416.697 152.184C416.579 151.789 416.521 151.361 416.521 150.9ZM417.933 150.777V150.9C417.933 151.189 417.96 151.459 418.015 151.709C418.074 151.959 418.161 152.18 418.279 152.371C418.4 152.559 418.552 152.707 418.736 152.816C418.923 152.922 419.144 152.975 419.398 152.975C419.73 152.975 420.001 152.904 420.212 152.764C420.427 152.623 420.591 152.434 420.704 152.195C420.822 151.953 420.904 151.684 420.95 151.387V150.326C420.927 150.096 420.878 149.881 420.804 149.682C420.734 149.482 420.638 149.309 420.517 149.16C420.396 149.008 420.243 148.891 420.06 148.809C419.876 148.723 419.659 148.68 419.409 148.68C419.156 148.68 418.935 148.734 418.747 148.844C418.56 148.953 418.406 149.104 418.284 149.295C418.167 149.486 418.079 149.709 418.021 149.963C417.962 150.217 417.933 150.488 417.933 150.777ZM426.61 154.117C426.142 154.117 425.718 154.041 425.339 153.889C424.964 153.732 424.644 153.516 424.378 153.238C424.116 152.961 423.915 152.635 423.774 152.26C423.634 151.885 423.564 151.48 423.564 151.047V150.812C423.564 150.316 423.636 149.867 423.78 149.465C423.925 149.062 424.126 148.719 424.384 148.434C424.642 148.145 424.946 147.924 425.298 147.771C425.649 147.619 426.03 147.543 426.44 147.543C426.894 147.543 427.29 147.619 427.63 147.771C427.97 147.924 428.251 148.139 428.474 148.416C428.7 148.689 428.868 149.016 428.978 149.395C429.091 149.773 429.147 150.191 429.147 150.648V151.252H424.249V150.238H427.753V150.127C427.745 149.873 427.694 149.635 427.601 149.412C427.511 149.189 427.372 149.01 427.185 148.873C426.997 148.736 426.747 148.668 426.435 148.668C426.2 148.668 425.991 148.719 425.808 148.82C425.628 148.918 425.478 149.061 425.356 149.248C425.235 149.436 425.142 149.662 425.075 149.928C425.013 150.189 424.981 150.484 424.981 150.812V151.047C424.981 151.324 425.019 151.582 425.093 151.82C425.171 152.055 425.284 152.26 425.433 152.436C425.581 152.611 425.761 152.75 425.972 152.852C426.183 152.949 426.423 152.998 426.692 152.998C427.032 152.998 427.335 152.93 427.601 152.793C427.866 152.656 428.097 152.463 428.292 152.213L429.036 152.934C428.899 153.133 428.722 153.324 428.503 153.508C428.284 153.688 428.017 153.834 427.7 153.947C427.388 154.061 427.024 154.117 426.61 154.117Z" fill="black"/>
<path d="M277.438 145.469V154H275.967V145.469H277.438ZM280.777 148.949V154H279.365V147.66H280.695L280.777 148.949ZM280.549 150.596L280.068 150.59C280.068 150.152 280.123 149.748 280.232 149.377C280.342 149.006 280.502 148.684 280.713 148.41C280.924 148.133 281.185 147.92 281.498 147.771C281.814 147.619 282.179 147.543 282.594 147.543C282.883 147.543 283.146 147.586 283.385 147.672C283.627 147.754 283.836 147.885 284.011 148.064C284.191 148.244 284.328 148.475 284.422 148.756C284.519 149.037 284.568 149.377 284.568 149.775V154H283.156V149.898C283.156 149.59 283.109 149.348 283.015 149.172C282.926 148.996 282.795 148.871 282.623 148.797C282.455 148.719 282.254 148.68 282.019 148.68C281.754 148.68 281.527 148.73 281.34 148.832C281.156 148.934 281.006 149.072 280.888 149.248C280.771 149.424 280.685 149.627 280.631 149.857C280.576 150.088 280.549 150.334 280.549 150.596ZM284.48 150.221L283.818 150.367C283.818 149.984 283.871 149.623 283.976 149.283C284.086 148.939 284.244 148.639 284.451 148.381C284.662 148.119 284.922 147.914 285.23 147.766C285.539 147.617 285.892 147.543 286.291 147.543C286.615 147.543 286.904 147.588 287.158 147.678C287.416 147.764 287.635 147.9 287.814 148.088C287.994 148.275 288.131 148.52 288.224 148.82C288.318 149.117 288.365 149.477 288.365 149.898V154H286.947V149.893C286.947 149.572 286.9 149.324 286.806 149.148C286.717 148.973 286.588 148.852 286.42 148.785C286.252 148.715 286.051 148.68 285.816 148.68C285.597 148.68 285.404 148.721 285.236 148.803C285.072 148.881 284.933 148.992 284.82 149.137C284.707 149.277 284.621 149.439 284.562 149.623C284.508 149.807 284.48 150.006 284.48 150.221ZM293.632 152.729V149.705C293.632 149.479 293.591 149.283 293.509 149.119C293.427 148.955 293.302 148.828 293.134 148.738C292.97 148.648 292.763 148.604 292.513 148.604C292.283 148.604 292.084 148.643 291.916 148.721C291.748 148.799 291.617 148.904 291.523 149.037C291.429 149.17 291.382 149.32 291.382 149.488H289.976C289.976 149.238 290.037 148.996 290.158 148.762C290.279 148.527 290.455 148.318 290.685 148.135C290.916 147.951 291.191 147.807 291.511 147.701C291.832 147.596 292.191 147.543 292.589 147.543C293.066 147.543 293.488 147.623 293.855 147.783C294.226 147.943 294.517 148.186 294.728 148.51C294.943 148.83 295.05 149.232 295.05 149.717V152.535C295.05 152.824 295.07 153.084 295.109 153.314C295.152 153.541 295.212 153.738 295.291 153.906V154H293.843C293.777 153.848 293.724 153.654 293.685 153.42C293.65 153.182 293.632 152.951 293.632 152.729ZM293.837 150.145L293.849 151.018H292.835C292.574 151.018 292.343 151.043 292.144 151.094C291.945 151.141 291.779 151.211 291.646 151.305C291.513 151.398 291.414 151.512 291.347 151.645C291.281 151.777 291.248 151.928 291.248 152.096C291.248 152.264 291.287 152.418 291.365 152.559C291.443 152.695 291.556 152.803 291.705 152.881C291.857 152.959 292.041 152.998 292.255 152.998C292.544 152.998 292.796 152.939 293.011 152.822C293.23 152.701 293.402 152.555 293.527 152.383C293.652 152.207 293.718 152.041 293.726 151.885L294.183 152.512C294.136 152.672 294.056 152.844 293.943 153.027C293.83 153.211 293.681 153.387 293.498 153.555C293.318 153.719 293.101 153.854 292.847 153.959C292.597 154.064 292.308 154.117 291.98 154.117C291.566 154.117 291.197 154.035 290.873 153.871C290.548 153.703 290.294 153.479 290.111 153.197C289.927 152.912 289.835 152.59 289.835 152.23C289.835 151.895 289.898 151.598 290.023 151.34C290.152 151.078 290.339 150.859 290.585 150.684C290.835 150.508 291.14 150.375 291.5 150.285C291.859 150.191 292.269 150.145 292.73 150.145H293.837ZM300.827 147.66H302.111V153.824C302.111 154.395 301.99 154.879 301.747 155.277C301.505 155.676 301.167 155.979 300.734 156.186C300.3 156.396 299.798 156.502 299.228 156.502C298.986 156.502 298.716 156.467 298.419 156.396C298.126 156.326 297.841 156.213 297.564 156.057C297.29 155.904 297.062 155.703 296.878 155.453L297.54 154.621C297.767 154.891 298.017 155.088 298.29 155.213C298.564 155.338 298.851 155.4 299.152 155.4C299.476 155.4 299.751 155.34 299.978 155.219C300.208 155.102 300.386 154.928 300.511 154.697C300.636 154.467 300.699 154.186 300.699 153.854V149.096L300.827 147.66ZM296.521 150.9V150.777C296.521 150.297 296.579 149.859 296.697 149.465C296.814 149.066 296.982 148.725 297.2 148.439C297.419 148.15 297.685 147.93 297.997 147.777C298.31 147.621 298.663 147.543 299.058 147.543C299.468 147.543 299.818 147.617 300.107 147.766C300.4 147.914 300.644 148.127 300.839 148.404C301.034 148.678 301.187 149.006 301.296 149.389C301.409 149.768 301.493 150.189 301.548 150.654V151.047C301.497 151.5 301.411 151.914 301.29 152.289C301.169 152.664 301.009 152.988 300.81 153.262C300.611 153.535 300.365 153.746 300.072 153.895C299.782 154.043 299.441 154.117 299.046 154.117C298.659 154.117 298.31 154.037 297.997 153.877C297.689 153.717 297.423 153.492 297.2 153.203C296.982 152.914 296.814 152.574 296.697 152.184C296.579 151.789 296.521 151.361 296.521 150.9ZM297.933 150.777V150.9C297.933 151.189 297.96 151.459 298.015 151.709C298.074 151.959 298.161 152.18 298.279 152.371C298.4 152.559 298.552 152.707 298.736 152.816C298.923 152.922 299.144 152.975 299.398 152.975C299.73 152.975 300.001 152.904 300.212 152.764C300.427 152.623 300.591 152.434 300.704 152.195C300.822 151.953 300.904 151.684 300.95 151.387V150.326C300.927 150.096 300.878 149.881 300.804 149.682C300.734 149.482 300.638 149.309 300.517 149.16C300.396 149.008 300.243 148.891 300.06 148.809C299.876 148.723 299.659 148.68 299.409 148.68C299.156 148.68 298.935 148.734 298.747 148.844C298.56 148.953 298.406 149.104 298.284 149.295C298.167 149.486 298.079 149.709 298.021 149.963C297.962 150.217 297.933 150.488 297.933 150.777ZM306.61 154.117C306.142 154.117 305.718 154.041 305.339 153.889C304.964 153.732 304.644 153.516 304.378 153.238C304.116 152.961 303.915 152.635 303.774 152.26C303.634 151.885 303.564 151.48 303.564 151.047V150.812C303.564 150.316 303.636 149.867 303.78 149.465C303.925 149.062 304.126 148.719 304.384 148.434C304.642 148.145 304.946 147.924 305.298 147.771C305.649 147.619 306.03 147.543 306.44 147.543C306.894 147.543 307.29 147.619 307.63 147.771C307.97 147.924 308.251 148.139 308.474 148.416C308.7 148.689 308.868 149.016 308.978 149.395C309.091 149.773 309.147 150.191 309.147 150.648V151.252H304.249V150.238H307.753V150.127C307.745 149.873 307.694 149.635 307.601 149.412C307.511 149.189 307.372 149.01 307.185 148.873C306.997 148.736 306.747 148.668 306.435 148.668C306.2 148.668 305.991 148.719 305.808 148.82C305.628 148.918 305.478 149.061 305.356 149.248C305.235 149.436 305.142 149.662 305.075 149.928C305.013 150.189 304.981 150.484 304.981 150.812V151.047C304.981 151.324 305.019 151.582 305.093 151.82C305.171 152.055 305.284 152.26 305.433 152.436C305.581 152.611 305.761 152.75 305.972 152.852C306.183 152.949 306.423 152.998 306.692 152.998C307.032 152.998 307.335 152.93 307.601 152.793C307.866 152.656 308.097 152.463 308.292 152.213L309.036 152.934C308.899 153.133 308.722 153.324 308.503 153.508C308.284 153.688 308.017 153.834 307.7 153.947C307.388 154.061 307.024 154.117 306.61 154.117Z" fill="black"/>
<path d="M567.438 89.4688V98H565.967V89.4688H567.438ZM570.777 92.9492V98H569.365V91.6602H570.695L570.777 92.9492ZM570.549 94.5957L570.068 94.5898C570.068 94.1523 570.123 93.748 570.232 93.377C570.342 93.0059 570.502 92.6836 570.713 92.4102C570.924 92.1328 571.185 91.9199 571.498 91.7715C571.814 91.6191 572.179 91.543 572.594 91.543C572.883 91.543 573.146 91.5859 573.385 91.6719C573.627 91.7539 573.836 91.8848 574.011 92.0645C574.191 92.2441 574.328 92.4746 574.422 92.7559C574.519 93.0371 574.568 93.377 574.568 93.7754V98H573.156V93.8984C573.156 93.5898 573.109 93.3477 573.015 93.1719C572.926 92.9961 572.795 92.8711 572.623 92.7969C572.455 92.7188 572.254 92.6797 572.019 92.6797C571.754 92.6797 571.527 92.7305 571.34 92.832C571.156 92.9336 571.006 93.0723 570.888 93.248C570.771 93.4238 570.685 93.627 570.631 93.8574C570.576 94.0879 570.549 94.334 570.549 94.5957ZM574.48 94.2207L573.818 94.3672C573.818 93.9844 573.871 93.623 573.976 93.2832C574.086 92.9395 574.244 92.6387 574.451 92.3809C574.662 92.1191 574.922 91.9141 575.23 91.7656C575.539 91.6172 575.892 91.543 576.291 91.543C576.615 91.543 576.904 91.5879 577.158 91.6777C577.416 91.7637 577.635 91.9004 577.814 92.0879C577.994 92.2754 578.131 92.5195 578.224 92.8203C578.318 93.1172 578.365 93.4766 578.365 93.8984V98H576.947V93.8926C576.947 93.5723 576.9 93.3242 576.806 93.1484C576.717 92.9727 576.588 92.8516 576.42 92.7852C576.252 92.7148 576.051 92.6797 575.816 92.6797C575.597 92.6797 575.404 92.7207 575.236 92.8027C575.072 92.8809 574.933 92.9922 574.82 93.1367C574.707 93.2773 574.621 93.4395 574.562 93.623C574.508 93.8066 574.48 94.0059 574.48 94.2207ZM583.632 96.7285V93.7051C583.632 93.4785 583.591 93.2832 583.509 93.1191C583.427 92.9551 583.302 92.8281 583.134 92.7383C582.97 92.6484 582.763 92.6035 582.513 92.6035C582.283 92.6035 582.084 92.6426 581.916 92.7207C581.748 92.7988 581.617 92.9043 581.523 93.0371C581.429 93.1699 581.382 93.3203 581.382 93.4883H579.976C579.976 93.2383 580.037 92.9961 580.158 92.7617C580.279 92.5273 580.455 92.3184 580.685 92.1348C580.916 91.9512 581.191 91.8066 581.511 91.7012C581.832 91.5957 582.191 91.543 582.589 91.543C583.066 91.543 583.488 91.623 583.855 91.7832C584.226 91.9434 584.517 92.1855 584.728 92.5098C584.943 92.8301 585.05 93.2324 585.05 93.7168V96.5352C585.05 96.8242 585.07 97.084 585.109 97.3145C585.152 97.541 585.212 97.7383 585.291 97.9062V98H583.843C583.777 97.8477 583.724 97.6543 583.685 97.4199C583.65 97.1816 583.632 96.9512 583.632 96.7285ZM583.837 94.1445L583.849 95.0176H582.835C582.574 95.0176 582.343 95.043 582.144 95.0938C581.945 95.1406 581.779 95.2109 581.646 95.3047C581.513 95.3984 581.414 95.5117 581.347 95.6445C581.281 95.7773 581.248 95.9277 581.248 96.0957C581.248 96.2637 581.287 96.418 581.365 96.5586C581.443 96.6953 581.556 96.8027 581.705 96.8809C581.857 96.959 582.041 96.998 582.255 96.998C582.544 96.998 582.796 96.9395 583.011 96.8223C583.23 96.7012 583.402 96.5547 583.527 96.3828C583.652 96.207 583.718 96.041 583.726 95.8848L584.183 96.5117C584.136 96.6719 584.056 96.8438 583.943 97.0273C583.83 97.2109 583.681 97.3867 583.498 97.5547C583.318 97.7188 583.101 97.8535 582.847 97.959C582.597 98.0645 582.308 98.1172 581.98 98.1172C581.566 98.1172 581.197 98.0352 580.873 97.8711C580.548 97.7031 580.294 97.4785 580.111 97.1973C579.927 96.9121 579.835 96.5898 579.835 96.2305C579.835 95.8945 579.898 95.5977 580.023 95.3398C580.152 95.0781 580.339 94.8594 580.585 94.6836C580.835 94.5078 581.14 94.375 581.5 94.2852C581.859 94.1914 582.269 94.1445 582.73 94.1445H583.837ZM590.827 91.6602H592.111V97.8242C592.111 98.3945 591.99 98.8789 591.747 99.2773C591.505 99.6758 591.167 99.9785 590.734 100.186C590.3 100.396 589.798 100.502 589.228 100.502C588.986 100.502 588.716 100.467 588.419 100.396C588.126 100.326 587.841 100.213 587.564 100.057C587.29 99.9043 587.062 99.7031 586.878 99.4531L587.54 98.6211C587.767 98.8906 588.017 99.0879 588.29 99.2129C588.564 99.3379 588.851 99.4004 589.152 99.4004C589.476 99.4004 589.751 99.3398 589.978 99.2188C590.208 99.1016 590.386 98.9277 590.511 98.6973C590.636 98.4668 590.699 98.1855 590.699 97.8535V93.0957L590.827 91.6602ZM586.521 94.9004V94.7773C586.521 94.2969 586.579 93.8594 586.697 93.4648C586.814 93.0664 586.982 92.7246 587.2 92.4395C587.419 92.1504 587.685 91.9297 587.997 91.7773C588.31 91.6211 588.663 91.543 589.058 91.543C589.468 91.543 589.818 91.6172 590.107 91.7656C590.4 91.9141 590.644 92.127 590.839 92.4043C591.034 92.6777 591.187 93.0059 591.296 93.3887C591.409 93.7676 591.493 94.1895 591.548 94.6543V95.0469C591.497 95.5 591.411 95.9141 591.29 96.2891C591.169 96.6641 591.009 96.9883 590.81 97.2617C590.611 97.5352 590.365 97.7461 590.072 97.8945C589.782 98.043 589.441 98.1172 589.046 98.1172C588.659 98.1172 588.31 98.0371 587.997 97.877C587.689 97.7168 587.423 97.4922 587.2 97.2031C586.982 96.9141 586.814 96.5742 586.697 96.1836C586.579 95.7891 586.521 95.3613 586.521 94.9004ZM587.933 94.7773V94.9004C587.933 95.1895 587.96 95.459 588.015 95.709C588.074 95.959 588.161 96.1797 588.279 96.3711C588.4 96.5586 588.552 96.707 588.736 96.8164C588.923 96.9219 589.144 96.9746 589.398 96.9746C589.73 96.9746 590.001 96.9043 590.212 96.7637C590.427 96.623 590.591 96.4336 590.704 96.1953C590.822 95.9531 590.904 95.6836 590.95 95.3867V94.3262C590.927 94.0957 590.878 93.8809 590.804 93.6816C590.734 93.4824 590.638 93.3086 590.517 93.1602C590.396 93.0078 590.243 92.8906 590.06 92.8086C589.876 92.7227 589.659 92.6797 589.409 92.6797C589.156 92.6797 588.935 92.7344 588.747 92.8438C588.56 92.9531 588.406 93.1035 588.284 93.2949C588.167 93.4863 588.079 93.709 588.021 93.9629C587.962 94.2168 587.933 94.4883 587.933 94.7773ZM596.61 98.1172C596.142 98.1172 595.718 98.041 595.339 97.8887C594.964 97.7324 594.644 97.5156 594.378 97.2383C594.116 96.9609 593.915 96.6348 593.774 96.2598C593.634 95.8848 593.564 95.4805 593.564 95.0469V94.8125C593.564 94.3164 593.636 93.8672 593.78 93.4648C593.925 93.0625 594.126 92.7188 594.384 92.4336C594.642 92.1445 594.946 91.9238 595.298 91.7715C595.649 91.6191 596.03 91.543 596.44 91.543C596.894 91.543 597.29 91.6191 597.63 91.7715C597.97 91.9238 598.251 92.1387 598.474 92.416C598.7 92.6895 598.868 93.0156 598.978 93.3945C599.091 93.7734 599.147 94.1914 599.147 94.6484V95.252H594.249V94.2383H597.753V94.127C597.745 93.873 597.694 93.6348 597.601 93.4121C597.511 93.1895 597.372 93.0098 597.185 92.873C596.997 92.7363 596.747 92.668 596.435 92.668C596.2 92.668 595.991 92.7188 595.808 92.8203C595.628 92.918 595.478 93.0605 595.356 93.248C595.235 93.4355 595.142 93.6621 595.075 93.9277C595.013 94.1895 594.981 94.4844 594.981 94.8125V95.0469C594.981 95.3242 595.019 95.582 595.093 95.8203C595.171 96.0547 595.284 96.2598 595.433 96.4355C595.581 96.6113 595.761 96.75 595.972 96.8516C596.183 96.9492 596.423 96.998 596.692 96.998C597.032 96.998 597.335 96.9297 597.601 96.793C597.866 96.6562 598.097 96.4629 598.292 96.2129L599.036 96.9336C598.899 97.1328 598.722 97.3242 598.503 97.5078C598.284 97.6875 598.017 97.834 597.7 97.9473C597.388 98.0605 597.024 98.1172 596.61 98.1172Z" fill="black"/>
<path d="M442.438 33.4688V42H440.967V33.4688H442.438ZM445.777 36.9492V42H444.365V35.6602H445.695L445.777 36.9492ZM445.549 38.5957L445.068 38.5898C445.068 38.1523 445.123 37.748 445.232 37.377C445.342 37.0059 445.502 36.6836 445.713 36.4102C445.924 36.1328 446.185 35.9199 446.498 35.7715C446.814 35.6191 447.179 35.543 447.594 35.543C447.883 35.543 448.146 35.5859 448.385 35.6719C448.627 35.7539 448.836 35.8848 449.011 36.0645C449.191 36.2441 449.328 36.4746 449.422 36.7559C449.519 37.0371 449.568 37.377 449.568 37.7754V42H448.156V37.8984C448.156 37.5898 448.109 37.3477 448.015 37.1719C447.926 36.9961 447.795 36.8711 447.623 36.7969C447.455 36.7188 447.254 36.6797 447.019 36.6797C446.754 36.6797 446.527 36.7305 446.34 36.832C446.156 36.9336 446.006 37.0723 445.888 37.248C445.771 37.4238 445.685 37.627 445.631 37.8574C445.576 38.0879 445.549 38.334 445.549 38.5957ZM449.48 38.2207L448.818 38.3672C448.818 37.9844 448.871 37.623 448.976 37.2832C449.086 36.9395 449.244 36.6387 449.451 36.3809C449.662 36.1191 449.922 35.9141 450.23 35.7656C450.539 35.6172 450.892 35.543 451.291 35.543C451.615 35.543 451.904 35.5879 452.158 35.6777C452.416 35.7637 452.635 35.9004 452.814 36.0879C452.994 36.2754 453.131 36.5195 453.224 36.8203C453.318 37.1172 453.365 37.4766 453.365 37.8984V42H451.947V37.8926C451.947 37.5723 451.9 37.3242 451.806 37.1484C451.717 36.9727 451.588 36.8516 451.42 36.7852C451.252 36.7148 451.051 36.6797 450.816 36.6797C450.597 36.6797 450.404 36.7207 450.236 36.8027C450.072 36.8809 449.933 36.9922 449.82 37.1367C449.707 37.2773 449.621 37.4395 449.562 37.623C449.508 37.8066 449.48 38.0059 449.48 38.2207ZM458.632 40.7285V37.7051C458.632 37.4785 458.591 37.2832 458.509 37.1191C458.427 36.9551 458.302 36.8281 458.134 36.7383C457.97 36.6484 457.763 36.6035 457.513 36.6035C457.283 36.6035 457.084 36.6426 456.916 36.7207C456.748 36.7988 456.617 36.9043 456.523 37.0371C456.429 37.1699 456.382 37.3203 456.382 37.4883H454.976C454.976 37.2383 455.037 36.9961 455.158 36.7617C455.279 36.5273 455.455 36.3184 455.685 36.1348C455.916 35.9512 456.191 35.8066 456.511 35.7012C456.832 35.5957 457.191 35.543 457.589 35.543C458.066 35.543 458.488 35.623 458.855 35.7832C459.226 35.9434 459.517 36.1855 459.728 36.5098C459.943 36.8301 460.05 37.2324 460.05 37.7168V40.5352C460.05 40.8242 460.07 41.084 460.109 41.3145C460.152 41.541 460.212 41.7383 460.291 41.9062V42H458.843C458.777 41.8477 458.724 41.6543 458.685 41.4199C458.65 41.1816 458.632 40.9512 458.632 40.7285ZM458.837 38.1445L458.849 39.0176H457.835C457.574 39.0176 457.343 39.043 457.144 39.0938C456.945 39.1406 456.779 39.2109 456.646 39.3047C456.513 39.3984 456.414 39.5117 456.347 39.6445C456.281 39.7773 456.248 39.9277 456.248 40.0957C456.248 40.2637 456.287 40.418 456.365 40.5586C456.443 40.6953 456.556 40.8027 456.705 40.8809C456.857 40.959 457.041 40.998 457.255 40.998C457.544 40.998 457.796 40.9395 458.011 40.8223C458.23 40.7012 458.402 40.5547 458.527 40.3828C458.652 40.207 458.718 40.041 458.726 39.8848L459.183 40.5117C459.136 40.6719 459.056 40.8438 458.943 41.0273C458.83 41.2109 458.681 41.3867 458.498 41.5547C458.318 41.7188 458.101 41.8535 457.847 41.959C457.597 42.0645 457.308 42.1172 456.98 42.1172C456.566 42.1172 456.197 42.0352 455.873 41.8711C455.548 41.7031 455.294 41.4785 455.111 41.1973C454.927 40.9121 454.835 40.5898 454.835 40.2305C454.835 39.8945 454.898 39.5977 455.023 39.3398C455.152 39.0781 455.339 38.8594 455.585 38.6836C455.835 38.5078 456.14 38.375 456.5 38.2852C456.859 38.1914 457.269 38.1445 457.73 38.1445H458.837ZM465.827 35.6602H467.111V41.8242C467.111 42.3945 466.99 42.8789 466.747 43.2773C466.505 43.6758 466.167 43.9785 465.734 44.1855C465.3 44.3965 464.798 44.502 464.228 44.502C463.986 44.502 463.716 44.4668 463.419 44.3965C463.126 44.3262 462.841 44.2129 462.564 44.0566C462.29 43.9043 462.062 43.7031 461.878 43.4531L462.54 42.6211C462.767 42.8906 463.017 43.0879 463.29 43.2129C463.564 43.3379 463.851 43.4004 464.152 43.4004C464.476 43.4004 464.751 43.3398 464.978 43.2188C465.208 43.1016 465.386 42.9277 465.511 42.6973C465.636 42.4668 465.699 42.1855 465.699 41.8535V37.0957L465.827 35.6602ZM461.521 38.9004V38.7773C461.521 38.2969 461.579 37.8594 461.697 37.4648C461.814 37.0664 461.982 36.7246 462.2 36.4395C462.419 36.1504 462.685 35.9297 462.997 35.7773C463.31 35.6211 463.663 35.543 464.058 35.543C464.468 35.543 464.818 35.6172 465.107 35.7656C465.4 35.9141 465.644 36.127 465.839 36.4043C466.034 36.6777 466.187 37.0059 466.296 37.3887C466.409 37.7676 466.493 38.1895 466.548 38.6543V39.0469C466.497 39.5 466.411 39.9141 466.29 40.2891C466.169 40.6641 466.009 40.9883 465.81 41.2617C465.611 41.5352 465.365 41.7461 465.072 41.8945C464.782 42.043 464.441 42.1172 464.046 42.1172C463.659 42.1172 463.31 42.0371 462.997 41.877C462.689 41.7168 462.423 41.4922 462.2 41.2031C461.982 40.9141 461.814 40.5742 461.697 40.1836C461.579 39.7891 461.521 39.3613 461.521 38.9004ZM462.933 38.7773V38.9004C462.933 39.1895 462.96 39.459 463.015 39.709C463.074 39.959 463.161 40.1797 463.279 40.3711C463.4 40.5586 463.552 40.707 463.736 40.8164C463.923 40.9219 464.144 40.9746 464.398 40.9746C464.73 40.9746 465.001 40.9043 465.212 40.7637C465.427 40.623 465.591 40.4336 465.704 40.1953C465.822 39.9531 465.904 39.6836 465.95 39.3867V38.3262C465.927 38.0957 465.878 37.8809 465.804 37.6816C465.734 37.4824 465.638 37.3086 465.517 37.1602C465.396 37.0078 465.243 36.8906 465.06 36.8086C464.876 36.7227 464.659 36.6797 464.409 36.6797C464.156 36.6797 463.935 36.7344 463.747 36.8438C463.56 36.9531 463.406 37.1035 463.284 37.2949C463.167 37.4863 463.079 37.709 463.021 37.9629C462.962 38.2168 462.933 38.4883 462.933 38.7773ZM471.61 42.1172C471.142 42.1172 470.718 42.041 470.339 41.8887C469.964 41.7324 469.644 41.5156 469.378 41.2383C469.116 40.9609 468.915 40.6348 468.774 40.2598C468.634 39.8848 468.564 39.4805 468.564 39.0469V38.8125C468.564 38.3164 468.636 37.8672 468.78 37.4648C468.925 37.0625 469.126 36.7188 469.384 36.4336C469.642 36.1445 469.946 35.9238 470.298 35.7715C470.649 35.6191 471.03 35.543 471.44 35.543C471.894 35.543 472.29 35.6191 472.63 35.7715C472.97 35.9238 473.251 36.1387 473.474 36.416C473.7 36.6895 473.868 37.0156 473.978 37.3945C474.091 37.7734 474.147 38.1914 474.147 38.6484V39.252H469.249V38.2383H472.753V38.127C472.745 37.873 472.694 37.6348 472.601 37.4121C472.511 37.1895 472.372 37.0098 472.185 36.873C471.997 36.7363 471.747 36.668 471.435 36.668C471.2 36.668 470.991 36.7188 470.808 36.8203C470.628 36.918 470.478 37.0605 470.356 37.248C470.235 37.4355 470.142 37.6621 470.075 37.9277C470.013 38.1895 469.981 38.4844 469.981 38.8125V39.0469C469.981 39.3242 470.019 39.582 470.093 39.8203C470.171 40.0547 470.284 40.2598 470.433 40.4355C470.581 40.6113 470.761 40.75 470.972 40.8516C471.183 40.9492 471.423 40.998 471.692 40.998C472.032 40.998 472.335 40.9297 472.601 40.793C472.866 40.6562 473.097 40.4629 473.292 40.2129L474.036 40.9336C473.899 41.1328 473.722 41.3242 473.503 41.5078C473.284 41.6875 473.017 41.834 472.7 41.9473C472.388 42.0605 472.024 42.1172 471.61 42.1172ZM480.428 33.4688V42H478.958V33.4688H480.428ZM483.756 37.0137V42H482.344V35.6602H483.674L483.756 37.0137ZM483.504 38.5957L483.047 38.5898C483.051 38.1406 483.114 37.7285 483.235 37.3535C483.36 36.9785 483.532 36.6562 483.75 36.3867C483.973 36.1172 484.239 35.9102 484.547 35.7656C484.856 35.6172 485.2 35.543 485.578 35.543C485.883 35.543 486.159 35.5859 486.405 35.6719C486.655 35.7539 486.868 35.8887 487.043 36.0762C487.223 36.2637 487.36 36.5078 487.453 36.8086C487.547 37.1055 487.594 37.4707 487.594 37.9043V42H486.176V37.8984C486.176 37.5938 486.131 37.3535 486.041 37.1777C485.955 36.998 485.828 36.8711 485.66 36.7969C485.496 36.7188 485.291 36.6797 485.045 36.6797C484.803 36.6797 484.586 36.7305 484.395 36.832C484.203 36.9336 484.041 37.0723 483.909 37.248C483.78 37.4238 483.68 37.627 483.61 37.8574C483.539 38.0879 483.504 38.334 483.504 38.5957ZM493.143 40.6875V33H494.561V42H493.277L493.143 40.6875ZM489.018 38.9004V38.7773C489.018 38.2969 489.074 37.8594 489.188 37.4648C489.301 37.0664 489.465 36.7246 489.68 36.4395C489.895 36.1504 490.156 35.9297 490.465 35.7773C490.774 35.6211 491.121 35.543 491.508 35.543C491.891 35.543 492.227 35.6172 492.516 35.7656C492.805 35.9141 493.051 36.127 493.254 36.4043C493.457 36.6777 493.619 37.0059 493.74 37.3887C493.861 37.7676 493.947 38.1895 493.998 38.6543V39.0469C493.947 39.5 493.861 39.9141 493.74 40.2891C493.619 40.6641 493.457 40.9883 493.254 41.2617C493.051 41.5352 492.803 41.7461 492.51 41.8945C492.221 42.043 491.883 42.1172 491.496 42.1172C491.113 42.1172 490.768 42.0371 490.459 41.877C490.154 41.7168 489.895 41.4922 489.68 41.2031C489.465 40.9141 489.301 40.5742 489.188 40.1836C489.074 39.7891 489.018 39.3613 489.018 38.9004ZM490.43 38.7773V38.9004C490.43 39.1895 490.455 39.459 490.506 39.709C490.561 39.959 490.645 40.1797 490.758 40.3711C490.871 40.5586 491.018 40.707 491.197 40.8164C491.381 40.9219 491.6 40.9746 491.854 40.9746C492.174 40.9746 492.438 40.9043 492.645 40.7637C492.852 40.623 493.014 40.4336 493.131 40.1953C493.252 39.9531 493.334 39.6836 493.377 39.3867V38.3262C493.354 38.0957 493.305 37.8809 493.231 37.6816C493.16 37.4824 493.065 37.3086 492.943 37.1602C492.822 37.0078 492.672 36.8906 492.492 36.8086C492.316 36.7227 492.107 36.6797 491.865 36.6797C491.607 36.6797 491.389 36.7344 491.209 36.8438C491.029 36.9531 490.881 37.1035 490.764 37.2949C490.65 37.4863 490.566 37.709 490.512 37.9629C490.457 38.2168 490.43 38.4883 490.43 38.7773ZM499.072 42.1172C498.603 42.1172 498.18 42.041 497.801 41.8887C497.426 41.7324 497.105 41.5156 496.84 41.2383C496.578 40.9609 496.377 40.6348 496.236 40.2598C496.096 39.8848 496.025 39.4805 496.025 39.0469V38.8125C496.025 38.3164 496.097 37.8672 496.242 37.4648C496.387 37.0625 496.588 36.7188 496.846 36.4336C497.103 36.1445 497.408 35.9238 497.76 35.7715C498.111 35.6191 498.492 35.543 498.902 35.543C499.355 35.543 499.752 35.6191 500.092 35.7715C500.431 35.9238 500.713 36.1387 500.935 36.416C501.162 36.6895 501.33 37.0156 501.439 37.3945C501.553 37.7734 501.609 38.1914 501.609 38.6484V39.252H496.711V38.2383H500.215V38.127C500.207 37.873 500.156 37.6348 500.062 37.4121C499.972 37.1895 499.834 37.0098 499.646 36.873C499.459 36.7363 499.209 36.668 498.896 36.668C498.662 36.668 498.453 36.7188 498.269 36.8203C498.09 36.918 497.939 37.0605 497.818 37.248C497.697 37.4355 497.603 37.6621 497.537 37.9277C497.474 38.1895 497.443 38.4844 497.443 38.8125V39.0469C497.443 39.3242 497.48 39.582 497.555 39.8203C497.633 40.0547 497.746 40.2598 497.894 40.4355C498.043 40.6113 498.222 40.75 498.433 40.8516C498.644 40.9492 498.885 40.998 499.154 40.998C499.494 40.998 499.797 40.9297 500.062 40.793C500.328 40.6562 500.558 40.4629 500.754 40.2129L501.498 40.9336C501.361 41.1328 501.183 41.3242 500.965 41.5078C500.746 41.6875 500.478 41.834 500.162 41.9473C499.849 42.0605 499.486 42.1172 499.072 42.1172ZM504.029 35.6602L505.236 37.7637L506.466 35.6602H508.019L506.097 38.7715L508.095 42H506.543L505.254 39.8086L503.964 42H502.406L504.398 38.7715L502.482 35.6602H504.029Z" fill="black"/>
<path d="M165.438 145.469V154H163.967V145.469H165.438ZM168.777 148.949V154H167.365V147.66H168.695L168.777 148.949ZM168.549 150.596L168.068 150.59C168.068 150.152 168.123 149.748 168.232 149.377C168.342 149.006 168.502 148.684 168.713 148.41C168.924 148.133 169.185 147.92 169.498 147.771C169.814 147.619 170.179 147.543 170.594 147.543C170.883 147.543 171.146 147.586 171.385 147.672C171.627 147.754 171.836 147.885 172.011 148.064C172.191 148.244 172.328 148.475 172.422 148.756C172.519 149.037 172.568 149.377 172.568 149.775V154H171.156V149.898C171.156 149.59 171.109 149.348 171.015 149.172C170.926 148.996 170.795 148.871 170.623 148.797C170.455 148.719 170.254 148.68 170.019 148.68C169.754 148.68 169.527 148.73 169.34 148.832C169.156 148.934 169.006 149.072 168.888 149.248C168.771 149.424 168.685 149.627 168.631 149.857C168.576 150.088 168.549 150.334 168.549 150.596ZM172.48 150.221L171.818 150.367C171.818 149.984 171.871 149.623 171.976 149.283C172.086 148.939 172.244 148.639 172.451 148.381C172.662 148.119 172.922 147.914 173.23 147.766C173.539 147.617 173.892 147.543 174.291 147.543C174.615 147.543 174.904 147.588 175.158 147.678C175.416 147.764 175.635 147.9 175.814 148.088C175.994 148.275 176.131 148.52 176.224 148.82C176.318 149.117 176.365 149.477 176.365 149.898V154H174.947V149.893C174.947 149.572 174.9 149.324 174.806 149.148C174.717 148.973 174.588 148.852 174.42 148.785C174.252 148.715 174.051 148.68 173.816 148.68C173.597 148.68 173.404 148.721 173.236 148.803C173.072 148.881 172.933 148.992 172.82 149.137C172.707 149.277 172.621 149.439 172.562 149.623C172.508 149.807 172.48 150.006 172.48 150.221ZM181.632 152.729V149.705C181.632 149.479 181.591 149.283 181.509 149.119C181.427 148.955 181.302 148.828 181.134 148.738C180.97 148.648 180.763 148.604 180.513 148.604C180.283 148.604 180.084 148.643 179.916 148.721C179.748 148.799 179.617 148.904 179.523 149.037C179.429 149.17 179.382 149.32 179.382 149.488H177.976C177.976 149.238 178.037 148.996 178.158 148.762C178.279 148.527 178.455 148.318 178.685 148.135C178.916 147.951 179.191 147.807 179.511 147.701C179.832 147.596 180.191 147.543 180.589 147.543C181.066 147.543 181.488 147.623 181.855 147.783C182.226 147.943 182.517 148.186 182.728 148.51C182.943 148.83 183.05 149.232 183.05 149.717V152.535C183.05 152.824 183.07 153.084 183.109 153.314C183.152 153.541 183.212 153.738 183.291 153.906V154H181.843C181.777 153.848 181.724 153.654 181.685 153.42C181.65 153.182 181.632 152.951 181.632 152.729ZM181.837 150.145L181.849 151.018H180.835C180.574 151.018 180.343 151.043 180.144 151.094C179.945 151.141 179.779 151.211 179.646 151.305C179.513 151.398 179.414 151.512 179.347 151.645C179.281 151.777 179.248 151.928 179.248 152.096C179.248 152.264 179.287 152.418 179.365 152.559C179.443 152.695 179.556 152.803 179.705 152.881C179.857 152.959 180.041 152.998 180.255 152.998C180.544 152.998 180.796 152.939 181.011 152.822C181.23 152.701 181.402 152.555 181.527 152.383C181.652 152.207 181.718 152.041 181.726 151.885L182.183 152.512C182.136 152.672 182.056 152.844 181.943 153.027C181.83 153.211 181.681 153.387 181.498 153.555C181.318 153.719 181.101 153.854 180.847 153.959C180.597 154.064 180.308 154.117 179.98 154.117C179.566 154.117 179.197 154.035 178.873 153.871C178.548 153.703 178.294 153.479 178.111 153.197C177.927 152.912 177.835 152.59 177.835 152.23C177.835 151.895 177.898 151.598 178.023 151.34C178.152 151.078 178.339 150.859 178.585 150.684C178.835 150.508 179.14 150.375 179.5 150.285C179.859 150.191 180.269 150.145 180.73 150.145H181.837ZM188.827 147.66H190.111V153.824C190.111 154.395 189.99 154.879 189.747 155.277C189.505 155.676 189.167 155.979 188.734 156.186C188.3 156.396 187.798 156.502 187.228 156.502C186.986 156.502 186.716 156.467 186.419 156.396C186.126 156.326 185.841 156.213 185.564 156.057C185.29 155.904 185.062 155.703 184.878 155.453L185.54 154.621C185.767 154.891 186.017 155.088 186.29 155.213C186.564 155.338 186.851 155.4 187.152 155.4C187.476 155.4 187.751 155.34 187.978 155.219C188.208 155.102 188.386 154.928 188.511 154.697C188.636 154.467 188.699 154.186 188.699 153.854V149.096L188.827 147.66ZM184.521 150.9V150.777C184.521 150.297 184.579 149.859 184.697 149.465C184.814 149.066 184.982 148.725 185.2 148.439C185.419 148.15 185.685 147.93 185.997 147.777C186.31 147.621 186.663 147.543 187.058 147.543C187.468 147.543 187.818 147.617 188.107 147.766C188.4 147.914 188.644 148.127 188.839 148.404C189.034 148.678 189.187 149.006 189.296 149.389C189.409 149.768 189.493 150.189 189.548 150.654V151.047C189.497 151.5 189.411 151.914 189.29 152.289C189.169 152.664 189.009 152.988 188.81 153.262C188.611 153.535 188.365 153.746 188.072 153.895C187.782 154.043 187.441 154.117 187.046 154.117C186.659 154.117 186.31 154.037 185.997 153.877C185.689 153.717 185.423 153.492 185.2 153.203C184.982 152.914 184.814 152.574 184.697 152.184C184.579 151.789 184.521 151.361 184.521 150.9ZM185.933 150.777V150.9C185.933 151.189 185.96 151.459 186.015 151.709C186.074 151.959 186.161 152.18 186.279 152.371C186.4 152.559 186.552 152.707 186.736 152.816C186.923 152.922 187.144 152.975 187.398 152.975C187.73 152.975 188.001 152.904 188.212 152.764C188.427 152.623 188.591 152.434 188.704 152.195C188.822 151.953 188.904 151.684 188.95 151.387V150.326C188.927 150.096 188.878 149.881 188.804 149.682C188.734 149.482 188.638 149.309 188.517 149.16C188.396 149.008 188.243 148.891 188.06 148.809C187.876 148.723 187.659 148.68 187.409 148.68C187.156 148.68 186.935 148.734 186.747 148.844C186.56 148.953 186.406 149.104 186.284 149.295C186.167 149.486 186.079 149.709 186.021 149.963C185.962 150.217 185.933 150.488 185.933 150.777ZM194.61 154.117C194.142 154.117 193.718 154.041 193.339 153.889C192.964 153.732 192.644 153.516 192.378 153.238C192.116 152.961 191.915 152.635 191.774 152.26C191.634 151.885 191.564 151.48 191.564 151.047V150.812C191.564 150.316 191.636 149.867 191.78 149.465C191.925 149.062 192.126 148.719 192.384 148.434C192.642 148.145 192.946 147.924 193.298 147.771C193.649 147.619 194.03 147.543 194.44 147.543C194.894 147.543 195.29 147.619 195.63 147.771C195.97 147.924 196.251 148.139 196.474 148.416C196.7 148.689 196.868 149.016 196.978 149.395C197.091 149.773 197.147 150.191 197.147 150.648V151.252H192.249V150.238H195.753V150.127C195.745 149.873 195.694 149.635 195.601 149.412C195.511 149.189 195.372 149.01 195.185 148.873C194.997 148.736 194.747 148.668 194.435 148.668C194.2 148.668 193.991 148.719 193.808 148.82C193.628 148.918 193.478 149.061 193.356 149.248C193.235 149.436 193.142 149.662 193.075 149.928C193.013 150.189 192.981 150.484 192.981 150.812V151.047C192.981 151.324 193.019 151.582 193.093 151.82C193.171 152.055 193.284 152.26 193.433 152.436C193.581 152.611 193.761 152.75 193.972 152.852C194.183 152.949 194.423 152.998 194.692 152.998C195.032 152.998 195.335 152.93 195.601 152.793C195.866 152.656 196.097 152.463 196.292 152.213L197.036 152.934C196.899 153.133 196.722 153.324 196.503 153.508C196.284 153.688 196.017 153.834 195.7 153.947C195.388 154.061 195.024 154.117 194.61 154.117Z" fill="black"/>
<path d="M629.438 145.469V154H627.967V145.469H629.438ZM632.777 148.949V154H631.365V147.66H632.695L632.777 148.949ZM632.549 150.596L632.068 150.59C632.068 150.152 632.123 149.748 632.232 149.377C632.342 149.006 632.502 148.684 632.713 148.41C632.924 148.133 633.185 147.92 633.498 147.771C633.814 147.619 634.179 147.543 634.594 147.543C634.883 147.543 635.146 147.586 635.385 147.672C635.627 147.754 635.836 147.885 636.011 148.064C636.191 148.244 636.328 148.475 636.422 148.756C636.519 149.037 636.568 149.377 636.568 149.775V154H635.156V149.898C635.156 149.59 635.109 149.348 635.015 149.172C634.926 148.996 634.795 148.871 634.623 148.797C634.455 148.719 634.254 148.68 634.019 148.68C633.754 148.68 633.527 148.73 633.34 148.832C633.156 148.934 633.006 149.072 632.888 149.248C632.771 149.424 632.685 149.627 632.631 149.857C632.576 150.088 632.549 150.334 632.549 150.596ZM636.48 150.221L635.818 150.367C635.818 149.984 635.871 149.623 635.976 149.283C636.086 148.939 636.244 148.639 636.451 148.381C636.662 148.119 636.922 147.914 637.23 147.766C637.539 147.617 637.892 147.543 638.291 147.543C638.615 147.543 638.904 147.588 639.158 147.678C639.416 147.764 639.635 147.9 639.814 148.088C639.994 148.275 640.131 148.52 640.224 148.82C640.318 149.117 640.365 149.477 640.365 149.898V154H638.947V149.893C638.947 149.572 638.9 149.324 638.806 149.148C638.717 148.973 638.588 148.852 638.42 148.785C638.252 148.715 638.051 148.68 637.816 148.68C637.597 148.68 637.404 148.721 637.236 148.803C637.072 148.881 636.933 148.992 636.82 149.137C636.707 149.277 636.621 149.439 636.562 149.623C636.508 149.807 636.48 150.006 636.48 150.221ZM645.632 152.729V149.705C645.632 149.479 645.591 149.283 645.509 149.119C645.427 148.955 645.302 148.828 645.134 148.738C644.97 148.648 644.763 148.604 644.513 148.604C644.283 148.604 644.084 148.643 643.916 148.721C643.748 148.799 643.617 148.904 643.523 149.037C643.429 149.17 643.382 149.32 643.382 149.488H641.976C641.976 149.238 642.037 148.996 642.158 148.762C642.279 148.527 642.455 148.318 642.685 148.135C642.916 147.951 643.191 147.807 643.511 147.701C643.832 147.596 644.191 147.543 644.589 147.543C645.066 147.543 645.488 147.623 645.855 147.783C646.226 147.943 646.517 148.186 646.728 148.51C646.943 148.83 647.05 149.232 647.05 149.717V152.535C647.05 152.824 647.07 153.084 647.109 153.314C647.152 153.541 647.212 153.738 647.291 153.906V154H645.843C645.777 153.848 645.724 153.654 645.685 153.42C645.65 153.182 645.632 152.951 645.632 152.729ZM645.837 150.145L645.849 151.018H644.835C644.574 151.018 644.343 151.043 644.144 151.094C643.945 151.141 643.779 151.211 643.646 151.305C643.513 151.398 643.414 151.512 643.347 151.645C643.281 151.777 643.248 151.928 643.248 152.096C643.248 152.264 643.287 152.418 643.365 152.559C643.443 152.695 643.556 152.803 643.705 152.881C643.857 152.959 644.041 152.998 644.255 152.998C644.544 152.998 644.796 152.939 645.011 152.822C645.23 152.701 645.402 152.555 645.527 152.383C645.652 152.207 645.718 152.041 645.726 151.885L646.183 152.512C646.136 152.672 646.056 152.844 645.943 153.027C645.83 153.211 645.681 153.387 645.498 153.555C645.318 153.719 645.101 153.854 644.847 153.959C644.597 154.064 644.308 154.117 643.98 154.117C643.566 154.117 643.197 154.035 642.873 153.871C642.548 153.703 642.294 153.479 642.111 153.197C641.927 152.912 641.835 152.59 641.835 152.23C641.835 151.895 641.898 151.598 642.023 151.34C642.152 151.078 642.339 150.859 642.585 150.684C642.835 150.508 643.14 150.375 643.5 150.285C643.859 150.191 644.269 150.145 644.73 150.145H645.837ZM652.827 147.66H654.111V153.824C654.111 154.395 653.99 154.879 653.747 155.277C653.505 155.676 653.167 155.979 652.734 156.186C652.3 156.396 651.798 156.502 651.228 156.502C650.986 156.502 650.716 156.467 650.419 156.396C650.126 156.326 649.841 156.213 649.564 156.057C649.29 155.904 649.062 155.703 648.878 155.453L649.54 154.621C649.767 154.891 650.017 155.088 650.29 155.213C650.564 155.338 650.851 155.4 651.152 155.4C651.476 155.4 651.751 155.34 651.978 155.219C652.208 155.102 652.386 154.928 652.511 154.697C652.636 154.467 652.699 154.186 652.699 153.854V149.096L652.827 147.66ZM648.521 150.9V150.777C648.521 150.297 648.579 149.859 648.697 149.465C648.814 149.066 648.982 148.725 649.2 148.439C649.419 148.15 649.685 147.93 649.997 147.777C650.31 147.621 650.663 147.543 651.058 147.543C651.468 147.543 651.818 147.617 652.107 147.766C652.4 147.914 652.644 148.127 652.839 148.404C653.034 148.678 653.187 149.006 653.296 149.389C653.409 149.768 653.493 150.189 653.548 150.654V151.047C653.497 151.5 653.411 151.914 653.29 152.289C653.169 152.664 653.009 152.988 652.81 153.262C652.611 153.535 652.365 153.746 652.072 153.895C651.782 154.043 651.441 154.117 651.046 154.117C650.659 154.117 650.31 154.037 649.997 153.877C649.689 153.717 649.423 153.492 649.2 153.203C648.982 152.914 648.814 152.574 648.697 152.184C648.579 151.789 648.521 151.361 648.521 150.9ZM649.933 150.777V150.9C649.933 151.189 649.96 151.459 650.015 151.709C650.074 151.959 650.161 152.18 650.279 152.371C650.4 152.559 650.552 152.707 650.736 152.816C650.923 152.922 651.144 152.975 651.398 152.975C651.73 152.975 652.001 152.904 652.212 152.764C652.427 152.623 652.591 152.434 652.704 152.195C652.822 151.953 652.904 151.684 652.95 151.387V150.326C652.927 150.096 652.878 149.881 652.804 149.682C652.734 149.482 652.638 149.309 652.517 149.16C652.396 149.008 652.243 148.891 652.06 148.809C651.876 148.723 651.659 148.68 651.409 148.68C651.156 148.68 650.935 148.734 650.747 148.844C650.56 148.953 650.406 149.104 650.284 149.295C650.167 149.486 650.079 149.709 650.021 149.963C649.962 150.217 649.933 150.488 649.933 150.777ZM658.61 154.117C658.142 154.117 657.718 154.041 657.339 153.889C656.964 153.732 656.644 153.516 656.378 153.238C656.116 152.961 655.915 152.635 655.774 152.26C655.634 151.885 655.564 151.48 655.564 151.047V150.812C655.564 150.316 655.636 149.867 655.78 149.465C655.925 149.062 656.126 148.719 656.384 148.434C656.642 148.145 656.946 147.924 657.298 147.771C657.649 147.619 658.03 147.543 658.44 147.543C658.894 147.543 659.29 147.619 659.63 147.771C659.97 147.924 660.251 148.139 660.474 148.416C660.7 148.689 660.868 149.016 660.978 149.395C661.091 149.773 661.147 150.191 661.147 150.648V151.252H656.249V150.238H659.753V150.127C659.745 149.873 659.694 149.635 659.601 149.412C659.511 149.189 659.372 149.01 659.185 148.873C658.997 148.736 658.747 148.668 658.435 148.668C658.2 148.668 657.991 148.719 657.808 148.82C657.628 148.918 657.478 149.061 657.356 149.248C657.235 149.436 657.142 149.662 657.075 149.928C657.013 150.189 656.981 150.484 656.981 150.812V151.047C656.981 151.324 657.019 151.582 657.093 151.82C657.171 152.055 657.284 152.26 657.433 152.436C657.581 152.611 657.761 152.75 657.972 152.852C658.183 152.949 658.423 152.998 658.692 152.998C659.032 152.998 659.335 152.93 659.601 152.793C659.866 152.656 660.097 152.463 660.292 152.213L661.036 152.934C660.899 153.133 660.722 153.324 660.503 153.508C660.284 153.688 660.017 153.834 659.7 153.947C659.388 154.061 659.024 154.117 658.61 154.117Z" fill="black"/>
<path d="M45.4375 145.469V154H43.9668V145.469H45.4375ZM48.7771 148.949V154H47.365V147.66H48.6951L48.7771 148.949ZM48.5486 150.596L48.0681 150.59C48.0681 150.152 48.1228 149.748 48.2322 149.377C48.3416 149.006 48.5017 148.684 48.7127 148.41C48.9236 148.133 49.1853 147.92 49.4978 147.771C49.8142 147.619 50.1795 147.543 50.5935 147.543C50.8826 147.543 51.1463 147.586 51.3845 147.672C51.6267 147.754 51.8357 147.885 52.0115 148.064C52.1912 148.244 52.3279 148.475 52.4216 148.756C52.5193 149.037 52.5681 149.377 52.5681 149.775V154H51.156V149.898C51.156 149.59 51.1091 149.348 51.0154 149.172C50.9255 148.996 50.7947 148.871 50.6228 148.797C50.4548 148.719 50.2537 148.68 50.0193 148.68C49.7537 148.68 49.5271 148.73 49.3396 148.832C49.156 148.934 49.0056 149.072 48.8884 149.248C48.7713 149.424 48.6853 149.627 48.6306 149.857C48.5759 150.088 48.5486 150.334 48.5486 150.596ZM52.4802 150.221L51.8181 150.367C51.8181 149.984 51.8709 149.623 51.9763 149.283C52.0857 148.939 52.2439 148.639 52.4509 148.381C52.6619 148.119 52.9216 147.914 53.2302 147.766C53.5388 147.617 53.8923 147.543 54.2908 147.543C54.615 147.543 54.9041 147.588 55.158 147.678C55.4158 147.764 55.6345 147.9 55.8142 148.088C55.9939 148.275 56.1306 148.52 56.2244 148.82C56.3181 149.117 56.365 149.477 56.365 149.898V154H54.947V149.893C54.947 149.572 54.9002 149.324 54.8064 149.148C54.7166 148.973 54.5877 148.852 54.4197 148.785C54.2517 148.715 54.0505 148.68 53.8162 148.68C53.5974 148.68 53.4041 148.721 53.2361 148.803C53.072 148.881 52.9334 148.992 52.8201 149.137C52.7068 149.277 52.6209 149.439 52.5623 149.623C52.5076 149.807 52.4802 150.006 52.4802 150.221ZM61.6323 152.729V149.705C61.6323 149.479 61.5913 149.283 61.5093 149.119C61.4273 148.955 61.3023 148.828 61.1343 148.738C60.9702 148.648 60.7632 148.604 60.5132 148.604C60.2827 148.604 60.0835 148.643 59.9155 148.721C59.7476 148.799 59.6167 148.904 59.523 149.037C59.4292 149.17 59.3823 149.32 59.3823 149.488H57.9761C57.9761 149.238 58.0366 148.996 58.1577 148.762C58.2788 148.527 58.4546 148.318 58.6851 148.135C58.9155 147.951 59.1909 147.807 59.5112 147.701C59.8316 147.596 60.1909 147.543 60.5894 147.543C61.0659 147.543 61.4878 147.623 61.855 147.783C62.2261 147.943 62.5171 148.186 62.728 148.51C62.9429 148.83 63.0503 149.232 63.0503 149.717V152.535C63.0503 152.824 63.0698 153.084 63.1089 153.314C63.1519 153.541 63.2124 153.738 63.2905 153.906V154H61.8433C61.7769 153.848 61.7241 153.654 61.6851 153.42C61.6499 153.182 61.6323 152.951 61.6323 152.729ZM61.8374 150.145L61.8491 151.018H60.8355C60.5737 151.018 60.3433 151.043 60.1441 151.094C59.9448 151.141 59.7788 151.211 59.646 151.305C59.5132 151.398 59.4136 151.512 59.3472 151.645C59.2808 151.777 59.2476 151.928 59.2476 152.096C59.2476 152.264 59.2866 152.418 59.3648 152.559C59.4429 152.695 59.5562 152.803 59.7046 152.881C59.857 152.959 60.0405 152.998 60.2554 152.998C60.5445 152.998 60.7964 152.939 61.0112 152.822C61.23 152.701 61.4019 152.555 61.5269 152.383C61.6519 152.207 61.7183 152.041 61.7261 151.885L62.1831 152.512C62.1362 152.672 62.0562 152.844 61.9429 153.027C61.8296 153.211 61.6812 153.387 61.4976 153.555C61.3179 153.719 61.1011 153.854 60.8472 153.959C60.5972 154.064 60.3081 154.117 59.98 154.117C59.5659 154.117 59.1968 154.035 58.8726 153.871C58.5484 153.703 58.2945 153.479 58.1109 153.197C57.9273 152.912 57.8355 152.59 57.8355 152.23C57.8355 151.895 57.898 151.598 58.023 151.34C58.1519 151.078 58.3394 150.859 58.5855 150.684C58.8355 150.508 59.1402 150.375 59.4995 150.285C59.8589 150.191 60.2691 150.145 60.73 150.145H61.8374ZM68.8274 147.66H70.1106V153.824C70.1106 154.395 69.9895 154.879 69.7473 155.277C69.5052 155.676 69.1673 155.979 68.7337 156.186C68.3001 156.396 67.7981 156.502 67.2278 156.502C66.9856 156.502 66.7161 156.467 66.4192 156.396C66.1262 156.326 65.8411 156.213 65.5637 156.057C65.2903 155.904 65.0618 155.703 64.8782 155.453L65.5403 154.621C65.7669 154.891 66.0169 155.088 66.2903 155.213C66.5637 155.338 66.8509 155.4 67.1516 155.4C67.4759 155.4 67.7512 155.34 67.9778 155.219C68.2083 155.102 68.386 154.928 68.511 154.697C68.636 154.467 68.6985 154.186 68.6985 153.854V149.096L68.8274 147.66ZM64.5208 150.9V150.777C64.5208 150.297 64.5794 149.859 64.6966 149.465C64.8137 149.066 64.9817 148.725 65.2005 148.439C65.4192 148.15 65.6848 147.93 65.9973 147.777C66.3098 147.621 66.6634 147.543 67.0579 147.543C67.468 147.543 67.8177 147.617 68.1067 147.766C68.3997 147.914 68.6438 148.127 68.8391 148.404C69.0345 148.678 69.1868 149.006 69.2962 149.389C69.4095 149.768 69.4934 150.189 69.5481 150.654V151.047C69.4973 151.5 69.4114 151.914 69.2903 152.289C69.1692 152.664 69.0091 152.988 68.8098 153.262C68.6106 153.535 68.3645 153.746 68.0716 153.895C67.7825 154.043 67.4407 154.117 67.0462 154.117C66.6595 154.117 66.3098 154.037 65.9973 153.877C65.6887 153.717 65.4231 153.492 65.2005 153.203C64.9817 152.914 64.8137 152.574 64.6966 152.184C64.5794 151.789 64.5208 151.361 64.5208 150.9ZM65.9329 150.777V150.9C65.9329 151.189 65.9602 151.459 66.0149 151.709C66.0735 151.959 66.1614 152.18 66.2786 152.371C66.3997 152.559 66.552 152.707 66.7356 152.816C66.9231 152.922 67.1438 152.975 67.3977 152.975C67.7298 152.975 68.0012 152.904 68.2122 152.764C68.427 152.623 68.5911 152.434 68.7044 152.195C68.8216 151.953 68.9036 151.684 68.9505 151.387V150.326C68.927 150.096 68.8782 149.881 68.804 149.682C68.7337 149.482 68.638 149.309 68.5169 149.16C68.3958 149.008 68.2434 148.891 68.0598 148.809C67.8762 148.723 67.6595 148.68 67.4095 148.68C67.1555 148.68 66.9348 148.734 66.7473 148.844C66.5598 148.953 66.4055 149.104 66.2845 149.295C66.1673 149.486 66.0794 149.709 66.0208 149.963C65.9622 150.217 65.9329 150.488 65.9329 150.777ZM74.6104 154.117C74.1416 154.117 73.7178 154.041 73.3389 153.889C72.9639 153.732 72.6436 153.516 72.378 153.238C72.1162 152.961 71.9151 152.635 71.7745 152.26C71.6338 151.885 71.5635 151.48 71.5635 151.047V150.812C71.5635 150.316 71.6358 149.867 71.7803 149.465C71.9248 149.062 72.126 148.719 72.3838 148.434C72.6416 148.145 72.9463 147.924 73.2979 147.771C73.6495 147.619 74.0303 147.543 74.4405 147.543C74.8936 147.543 75.2901 147.619 75.6299 147.771C75.9698 147.924 76.251 148.139 76.4737 148.416C76.7002 148.689 76.8682 149.016 76.9776 149.395C77.0909 149.773 77.1475 150.191 77.1475 150.648V151.252H72.2491V150.238H75.753V150.127C75.7452 149.873 75.6944 149.635 75.6006 149.412C75.5108 149.189 75.3721 149.01 75.1846 148.873C74.9971 148.736 74.7471 148.668 74.4346 148.668C74.2002 148.668 73.9912 148.719 73.8077 148.82C73.628 148.918 73.4776 149.061 73.3565 149.248C73.2354 149.436 73.1416 149.662 73.0752 149.928C73.0127 150.189 72.9815 150.484 72.9815 150.812V151.047C72.9815 151.324 73.0186 151.582 73.0928 151.82C73.1709 152.055 73.2842 152.26 73.4327 152.436C73.5811 152.611 73.7608 152.75 73.9717 152.852C74.1827 152.949 74.4229 152.998 74.6924 152.998C75.0323 152.998 75.335 152.93 75.6006 152.793C75.8662 152.656 76.0967 152.463 76.292 152.213L77.0362 152.934C76.8995 153.133 76.7217 153.324 76.503 153.508C76.2842 153.688 76.0166 153.834 75.7002 153.947C75.3877 154.061 75.0245 154.117 74.6104 154.117Z" fill="black"/>
<path d="M509.438 145.469V154H507.967V145.469H509.438ZM512.777 148.949V154H511.365V147.66H512.695L512.777 148.949ZM512.549 150.596L512.068 150.59C512.068 150.152 512.123 149.748 512.232 149.377C512.342 149.006 512.502 148.684 512.713 148.41C512.924 148.133 513.185 147.92 513.498 147.771C513.814 147.619 514.179 147.543 514.594 147.543C514.883 147.543 515.146 147.586 515.385 147.672C515.627 147.754 515.836 147.885 516.011 148.064C516.191 148.244 516.328 148.475 516.422 148.756C516.519 149.037 516.568 149.377 516.568 149.775V154H515.156V149.898C515.156 149.59 515.109 149.348 515.015 149.172C514.926 148.996 514.795 148.871 514.623 148.797C514.455 148.719 514.254 148.68 514.019 148.68C513.754 148.68 513.527 148.73 513.34 148.832C513.156 148.934 513.006 149.072 512.888 149.248C512.771 149.424 512.685 149.627 512.631 149.857C512.576 150.088 512.549 150.334 512.549 150.596ZM516.48 150.221L515.818 150.367C515.818 149.984 515.871 149.623 515.976 149.283C516.086 148.939 516.244 148.639 516.451 148.381C516.662 148.119 516.922 147.914 517.23 147.766C517.539 147.617 517.892 147.543 518.291 147.543C518.615 147.543 518.904 147.588 519.158 147.678C519.416 147.764 519.635 147.9 519.814 148.088C519.994 148.275 520.131 148.52 520.224 148.82C520.318 149.117 520.365 149.477 520.365 149.898V154H518.947V149.893C518.947 149.572 518.9 149.324 518.806 149.148C518.717 148.973 518.588 148.852 518.42 148.785C518.252 148.715 518.051 148.68 517.816 148.68C517.597 148.68 517.404 148.721 517.236 148.803C517.072 148.881 516.933 148.992 516.82 149.137C516.707 149.277 516.621 149.439 516.562 149.623C516.508 149.807 516.48 150.006 516.48 150.221ZM525.632 152.729V149.705C525.632 149.479 525.591 149.283 525.509 149.119C525.427 148.955 525.302 148.828 525.134 148.738C524.97 148.648 524.763 148.604 524.513 148.604C524.283 148.604 524.084 148.643 523.916 148.721C523.748 148.799 523.617 148.904 523.523 149.037C523.429 149.17 523.382 149.32 523.382 149.488H521.976C521.976 149.238 522.037 148.996 522.158 148.762C522.279 148.527 522.455 148.318 522.685 148.135C522.916 147.951 523.191 147.807 523.511 147.701C523.832 147.596 524.191 147.543 524.589 147.543C525.066 147.543 525.488 147.623 525.855 147.783C526.226 147.943 526.517 148.186 526.728 148.51C526.943 148.83 527.05 149.232 527.05 149.717V152.535C527.05 152.824 527.07 153.084 527.109 153.314C527.152 153.541 527.212 153.738 527.291 153.906V154H525.843C525.777 153.848 525.724 153.654 525.685 153.42C525.65 153.182 525.632 152.951 525.632 152.729ZM525.837 150.145L525.849 151.018H524.835C524.574 151.018 524.343 151.043 524.144 151.094C523.945 151.141 523.779 151.211 523.646 151.305C523.513 151.398 523.414 151.512 523.347 151.645C523.281 151.777 523.248 151.928 523.248 152.096C523.248 152.264 523.287 152.418 523.365 152.559C523.443 152.695 523.556 152.803 523.705 152.881C523.857 152.959 524.041 152.998 524.255 152.998C524.544 152.998 524.796 152.939 525.011 152.822C525.23 152.701 525.402 152.555 525.527 152.383C525.652 152.207 525.718 152.041 525.726 151.885L526.183 152.512C526.136 152.672 526.056 152.844 525.943 153.027C525.83 153.211 525.681 153.387 525.498 153.555C525.318 153.719 525.101 153.854 524.847 153.959C524.597 154.064 524.308 154.117 523.98 154.117C523.566 154.117 523.197 154.035 522.873 153.871C522.548 153.703 522.294 153.479 522.111 153.197C521.927 152.912 521.835 152.59 521.835 152.23C521.835 151.895 521.898 151.598 522.023 151.34C522.152 151.078 522.339 150.859 522.585 150.684C522.835 150.508 523.14 150.375 523.5 150.285C523.859 150.191 524.269 150.145 524.73 150.145H525.837ZM532.827 147.66H534.111V153.824C534.111 154.395 533.99 154.879 533.747 155.277C533.505 155.676 533.167 155.979 532.734 156.186C532.3 156.396 531.798 156.502 531.228 156.502C530.986 156.502 530.716 156.467 530.419 156.396C530.126 156.326 529.841 156.213 529.564 156.057C529.29 155.904 529.062 155.703 528.878 155.453L529.54 154.621C529.767 154.891 530.017 155.088 530.29 155.213C530.564 155.338 530.851 155.4 531.152 155.4C531.476 155.4 531.751 155.34 531.978 155.219C532.208 155.102 532.386 154.928 532.511 154.697C532.636 154.467 532.699 154.186 532.699 153.854V149.096L532.827 147.66ZM528.521 150.9V150.777C528.521 150.297 528.579 149.859 528.697 149.465C528.814 149.066 528.982 148.725 529.2 148.439C529.419 148.15 529.685 147.93 529.997 147.777C530.31 147.621 530.663 147.543 531.058 147.543C531.468 147.543 531.818 147.617 532.107 147.766C532.4 147.914 532.644 148.127 532.839 148.404C533.034 148.678 533.187 149.006 533.296 149.389C533.409 149.768 533.493 150.189 533.548 150.654V151.047C533.497 151.5 533.411 151.914 533.29 152.289C533.169 152.664 533.009 152.988 532.81 153.262C532.611 153.535 532.365 153.746 532.072 153.895C531.782 154.043 531.441 154.117 531.046 154.117C530.659 154.117 530.31 154.037 529.997 153.877C529.689 153.717 529.423 153.492 529.2 153.203C528.982 152.914 528.814 152.574 528.697 152.184C528.579 151.789 528.521 151.361 528.521 150.9ZM529.933 150.777V150.9C529.933 151.189 529.96 151.459 530.015 151.709C530.074 151.959 530.161 152.18 530.279 152.371C530.4 152.559 530.552 152.707 530.736 152.816C530.923 152.922 531.144 152.975 531.398 152.975C531.73 152.975 532.001 152.904 532.212 152.764C532.427 152.623 532.591 152.434 532.704 152.195C532.822 151.953 532.904 151.684 532.95 151.387V150.326C532.927 150.096 532.878 149.881 532.804 149.682C532.734 149.482 532.638 149.309 532.517 149.16C532.396 149.008 532.243 148.891 532.06 148.809C531.876 148.723 531.659 148.68 531.409 148.68C531.156 148.68 530.935 148.734 530.747 148.844C530.56 148.953 530.406 149.104 530.284 149.295C530.167 149.486 530.079 149.709 530.021 149.963C529.962 150.217 529.933 150.488 529.933 150.777ZM538.61 154.117C538.142 154.117 537.718 154.041 537.339 153.889C536.964 153.732 536.644 153.516 536.378 153.238C536.116 152.961 535.915 152.635 535.774 152.26C535.634 151.885 535.564 151.48 535.564 151.047V150.812C535.564 150.316 535.636 149.867 535.78 149.465C535.925 149.062 536.126 148.719 536.384 148.434C536.642 148.145 536.946 147.924 537.298 147.771C537.649 147.619 538.03 147.543 538.44 147.543C538.894 147.543 539.29 147.619 539.63 147.771C539.97 147.924 540.251 148.139 540.474 148.416C540.7 148.689 540.868 149.016 540.978 149.395C541.091 149.773 541.147 150.191 541.147 150.648V151.252H536.249V150.238H539.753V150.127C539.745 149.873 539.694 149.635 539.601 149.412C539.511 149.189 539.372 149.01 539.185 148.873C538.997 148.736 538.747 148.668 538.435 148.668C538.2 148.668 537.991 148.719 537.808 148.82C537.628 148.918 537.478 149.061 537.356 149.248C537.235 149.436 537.142 149.662 537.075 149.928C537.013 150.189 536.981 150.484 536.981 150.812V151.047C536.981 151.324 537.019 151.582 537.093 151.82C537.171 152.055 537.284 152.26 537.433 152.436C537.581 152.611 537.761 152.75 537.972 152.852C538.183 152.949 538.423 152.998 538.692 152.998C539.032 152.998 539.335 152.93 539.601 152.793C539.866 152.656 540.097 152.463 540.292 152.213L541.036 152.934C540.899 153.133 540.722 153.324 540.503 153.508C540.284 153.688 540.017 153.834 539.7 153.947C539.388 154.061 539.024 154.117 538.61 154.117Z" fill="black"/>
<path d="M152.5 52.5L123.5 79M118.5 108.5L61.5 135" stroke="black"/>
<rect x="108" y="22" width="88" height="32" rx="8" fill="#C0E0FA"/>
<path d="M119.438 33.4688V42H117.967V33.4688H119.438ZM122.777 36.9492V42H121.365V35.6602H122.695L122.777 36.9492ZM122.549 38.5957L122.068 38.5898C122.068 38.1523 122.123 37.748 122.232 37.377C122.342 37.0059 122.502 36.6836 122.713 36.4102C122.924 36.1328 123.185 35.9199 123.498 35.7715C123.814 35.6191 124.179 35.543 124.594 35.543C124.883 35.543 125.146 35.5859 125.385 35.6719C125.627 35.7539 125.836 35.8848 126.011 36.0645C126.191 36.2441 126.328 36.4746 126.422 36.7559C126.519 37.0371 126.568 37.377 126.568 37.7754V42H125.156V37.8984C125.156 37.5898 125.109 37.3477 125.015 37.1719C124.926 36.9961 124.795 36.8711 124.623 36.7969C124.455 36.7188 124.254 36.6797 124.019 36.6797C123.754 36.6797 123.527 36.7305 123.34 36.832C123.156 36.9336 123.006 37.0723 122.888 37.248C122.771 37.4238 122.685 37.627 122.631 37.8574C122.576 38.0879 122.549 38.334 122.549 38.5957ZM126.48 38.2207L125.818 38.3672C125.818 37.9844 125.871 37.623 125.976 37.2832C126.086 36.9395 126.244 36.6387 126.451 36.3809C126.662 36.1191 126.922 35.9141 127.23 35.7656C127.539 35.6172 127.892 35.543 128.291 35.543C128.615 35.543 128.904 35.5879 129.158 35.6777C129.416 35.7637 129.635 35.9004 129.814 36.0879C129.994 36.2754 130.131 36.5195 130.224 36.8203C130.318 37.1172 130.365 37.4766 130.365 37.8984V42H128.947V37.8926C128.947 37.5723 128.9 37.3242 128.806 37.1484C128.717 36.9727 128.588 36.8516 128.42 36.7852C128.252 36.7148 128.051 36.6797 127.816 36.6797C127.597 36.6797 127.404 36.7207 127.236 36.8027C127.072 36.8809 126.933 36.9922 126.82 37.1367C126.707 37.2773 126.621 37.4395 126.562 37.623C126.508 37.8066 126.48 38.0059 126.48 38.2207ZM135.632 40.7285V37.7051C135.632 37.4785 135.591 37.2832 135.509 37.1191C135.427 36.9551 135.302 36.8281 135.134 36.7383C134.97 36.6484 134.763 36.6035 134.513 36.6035C134.283 36.6035 134.084 36.6426 133.916 36.7207C133.748 36.7988 133.617 36.9043 133.523 37.0371C133.429 37.1699 133.382 37.3203 133.382 37.4883H131.976C131.976 37.2383 132.037 36.9961 132.158 36.7617C132.279 36.5273 132.455 36.3184 132.685 36.1348C132.916 35.9512 133.191 35.8066 133.511 35.7012C133.832 35.5957 134.191 35.543 134.589 35.543C135.066 35.543 135.488 35.623 135.855 35.7832C136.226 35.9434 136.517 36.1855 136.728 36.5098C136.943 36.8301 137.05 37.2324 137.05 37.7168V40.5352C137.05 40.8242 137.07 41.084 137.109 41.3145C137.152 41.541 137.212 41.7383 137.291 41.9062V42H135.843C135.777 41.8477 135.724 41.6543 135.685 41.4199C135.65 41.1816 135.632 40.9512 135.632 40.7285ZM135.837 38.1445L135.849 39.0176H134.835C134.574 39.0176 134.343 39.043 134.144 39.0938C133.945 39.1406 133.779 39.2109 133.646 39.3047C133.513 39.3984 133.414 39.5117 133.347 39.6445C133.281 39.7773 133.248 39.9277 133.248 40.0957C133.248 40.2637 133.287 40.418 133.365 40.5586C133.443 40.6953 133.556 40.8027 133.705 40.8809C133.857 40.959 134.041 40.998 134.255 40.998C134.544 40.998 134.796 40.9395 135.011 40.8223C135.23 40.7012 135.402 40.5547 135.527 40.3828C135.652 40.207 135.718 40.041 135.726 39.8848L136.183 40.5117C136.136 40.6719 136.056 40.8438 135.943 41.0273C135.83 41.2109 135.681 41.3867 135.498 41.5547C135.318 41.7188 135.101 41.8535 134.847 41.959C134.597 42.0645 134.308 42.1172 133.98 42.1172C133.566 42.1172 133.197 42.0352 132.873 41.8711C132.548 41.7031 132.294 41.4785 132.111 41.1973C131.927 40.9121 131.835 40.5898 131.835 40.2305C131.835 39.8945 131.898 39.5977 132.023 39.3398C132.152 39.0781 132.339 38.8594 132.585 38.6836C132.835 38.5078 133.14 38.375 133.5 38.2852C133.859 38.1914 134.269 38.1445 134.73 38.1445H135.837ZM142.827 35.6602H144.111V41.8242C144.111 42.3945 143.99 42.8789 143.747 43.2773C143.505 43.6758 143.167 43.9785 142.734 44.1855C142.3 44.3965 141.798 44.502 141.228 44.502C140.986 44.502 140.716 44.4668 140.419 44.3965C140.126 44.3262 139.841 44.2129 139.564 44.0566C139.29 43.9043 139.062 43.7031 138.878 43.4531L139.54 42.6211C139.767 42.8906 140.017 43.0879 140.29 43.2129C140.564 43.3379 140.851 43.4004 141.152 43.4004C141.476 43.4004 141.751 43.3398 141.978 43.2188C142.208 43.1016 142.386 42.9277 142.511 42.6973C142.636 42.4668 142.699 42.1855 142.699 41.8535V37.0957L142.827 35.6602ZM138.521 38.9004V38.7773C138.521 38.2969 138.579 37.8594 138.697 37.4648C138.814 37.0664 138.982 36.7246 139.2 36.4395C139.419 36.1504 139.685 35.9297 139.997 35.7773C140.31 35.6211 140.663 35.543 141.058 35.543C141.468 35.543 141.818 35.6172 142.107 35.7656C142.4 35.9141 142.644 36.127 142.839 36.4043C143.034 36.6777 143.187 37.0059 143.296 37.3887C143.409 37.7676 143.493 38.1895 143.548 38.6543V39.0469C143.497 39.5 143.411 39.9141 143.29 40.2891C143.169 40.6641 143.009 40.9883 142.81 41.2617C142.611 41.5352 142.365 41.7461 142.072 41.8945C141.782 42.043 141.441 42.1172 141.046 42.1172C140.659 42.1172 140.31 42.0371 139.997 41.877C139.689 41.7168 139.423 41.4922 139.2 41.2031C138.982 40.9141 138.814 40.5742 138.697 40.1836C138.579 39.7891 138.521 39.3613 138.521 38.9004ZM139.933 38.7773V38.9004C139.933 39.1895 139.96 39.459 140.015 39.709C140.074 39.959 140.161 40.1797 140.279 40.3711C140.4 40.5586 140.552 40.707 140.736 40.8164C140.923 40.9219 141.144 40.9746 141.398 40.9746C141.73 40.9746 142.001 40.9043 142.212 40.7637C142.427 40.623 142.591 40.4336 142.704 40.1953C142.822 39.9531 142.904 39.6836 142.95 39.3867V38.3262C142.927 38.0957 142.878 37.8809 142.804 37.6816C142.734 37.4824 142.638 37.3086 142.517 37.1602C142.396 37.0078 142.243 36.8906 142.06 36.8086C141.876 36.7227 141.659 36.6797 141.409 36.6797C141.156 36.6797 140.935 36.7344 140.747 36.8438C140.56 36.9531 140.406 37.1035 140.284 37.2949C140.167 37.4863 140.079 37.709 140.021 37.9629C139.962 38.2168 139.933 38.4883 139.933 38.7773ZM148.61 42.1172C148.142 42.1172 147.718 42.041 147.339 41.8887C146.964 41.7324 146.644 41.5156 146.378 41.2383C146.116 40.9609 145.915 40.6348 145.774 40.2598C145.634 39.8848 145.564 39.4805 145.564 39.0469V38.8125C145.564 38.3164 145.636 37.8672 145.78 37.4648C145.925 37.0625 146.126 36.7188 146.384 36.4336C146.642 36.1445 146.946 35.9238 147.298 35.7715C147.649 35.6191 148.03 35.543 148.44 35.543C148.894 35.543 149.29 35.6191 149.63 35.7715C149.97 35.9238 150.251 36.1387 150.474 36.416C150.7 36.6895 150.868 37.0156 150.978 37.3945C151.091 37.7734 151.147 38.1914 151.147 38.6484V39.252H146.249V38.2383H149.753V38.127C149.745 37.873 149.694 37.6348 149.601 37.4121C149.511 37.1895 149.372 37.0098 149.185 36.873C148.997 36.7363 148.747 36.668 148.435 36.668C148.2 36.668 147.991 36.7188 147.808 36.8203C147.628 36.918 147.478 37.0605 147.356 37.248C147.235 37.4355 147.142 37.6621 147.075 37.9277C147.013 38.1895 146.981 38.4844 146.981 38.8125V39.0469C146.981 39.3242 147.019 39.582 147.093 39.8203C147.171 40.0547 147.284 40.2598 147.433 40.4355C147.581 40.6113 147.761 40.75 147.972 40.8516C148.183 40.9492 148.423 40.998 148.692 40.998C149.032 40.998 149.335 40.9297 149.601 40.793C149.866 40.6562 150.097 40.4629 150.292 40.2129L151.036 40.9336C150.899 41.1328 150.722 41.3242 150.503 41.5078C150.284 41.6875 150.017 41.834 149.7 41.9473C149.388 42.0605 149.024 42.1172 148.61 42.1172ZM157.428 33.4688V42H155.958V33.4688H157.428ZM160.756 37.0137V42H159.344V35.6602H160.674L160.756 37.0137ZM160.504 38.5957L160.047 38.5898C160.051 38.1406 160.114 37.7285 160.235 37.3535C160.36 36.9785 160.532 36.6562 160.75 36.3867C160.973 36.1172 161.239 35.9102 161.547 35.7656C161.856 35.6172 162.2 35.543 162.578 35.543C162.883 35.543 163.159 35.5859 163.405 35.6719C163.655 35.7539 163.868 35.8887 164.043 36.0762C164.223 36.2637 164.36 36.5078 164.453 36.8086C164.547 37.1055 164.594 37.4707 164.594 37.9043V42H163.176V37.8984C163.176 37.5938 163.131 37.3535 163.041 37.1777C162.955 36.998 162.828 36.8711 162.66 36.7969C162.496 36.7188 162.291 36.6797 162.045 36.6797C161.803 36.6797 161.586 36.7305 161.395 36.832C161.203 36.9336 161.041 37.0723 160.909 37.248C160.78 37.4238 160.68 37.627 160.61 37.8574C160.539 38.0879 160.504 38.334 160.504 38.5957ZM170.143 40.6875V33H171.561V42H170.277L170.143 40.6875ZM166.018 38.9004V38.7773C166.018 38.2969 166.074 37.8594 166.188 37.4648C166.301 37.0664 166.465 36.7246 166.68 36.4395C166.895 36.1504 167.156 35.9297 167.465 35.7773C167.774 35.6211 168.121 35.543 168.508 35.543C168.891 35.543 169.227 35.6172 169.516 35.7656C169.805 35.9141 170.051 36.127 170.254 36.4043C170.457 36.6777 170.619 37.0059 170.74 37.3887C170.861 37.7676 170.947 38.1895 170.998 38.6543V39.0469C170.947 39.5 170.861 39.9141 170.74 40.2891C170.619 40.6641 170.457 40.9883 170.254 41.2617C170.051 41.5352 169.803 41.7461 169.51 41.8945C169.221 42.043 168.883 42.1172 168.496 42.1172C168.113 42.1172 167.768 42.0371 167.459 41.877C167.154 41.7168 166.895 41.4922 166.68 41.2031C166.465 40.9141 166.301 40.5742 166.188 40.1836C166.074 39.7891 166.018 39.3613 166.018 38.9004ZM167.43 38.7773V38.9004C167.43 39.1895 167.455 39.459 167.506 39.709C167.561 39.959 167.645 40.1797 167.758 40.3711C167.871 40.5586 168.018 40.707 168.197 40.8164C168.381 40.9219 168.6 40.9746 168.854 40.9746C169.174 40.9746 169.438 40.9043 169.645 40.7637C169.852 40.623 170.014 40.4336 170.131 40.1953C170.252 39.9531 170.334 39.6836 170.377 39.3867V38.3262C170.354 38.0957 170.305 37.8809 170.231 37.6816C170.16 37.4824 170.065 37.3086 169.943 37.1602C169.822 37.0078 169.672 36.8906 169.492 36.8086C169.316 36.7227 169.107 36.6797 168.865 36.6797C168.607 36.6797 168.389 36.7344 168.209 36.8438C168.029 36.9531 167.881 37.1035 167.764 37.2949C167.65 37.4863 167.566 37.709 167.512 37.9629C167.457 38.2168 167.43 38.4883 167.43 38.7773ZM176.072 42.1172C175.603 42.1172 175.18 42.041 174.801 41.8887C174.426 41.7324 174.105 41.5156 173.84 41.2383C173.578 40.9609 173.377 40.6348 173.236 40.2598C173.096 39.8848 173.025 39.4805 173.025 39.0469V38.8125C173.025 38.3164 173.097 37.8672 173.242 37.4648C173.387 37.0625 173.588 36.7188 173.846 36.4336C174.103 36.1445 174.408 35.9238 174.76 35.7715C175.111 35.6191 175.492 35.543 175.902 35.543C176.355 35.543 176.752 35.6191 177.092 35.7715C177.431 35.9238 177.713 36.1387 177.935 36.416C178.162 36.6895 178.33 37.0156 178.439 37.3945C178.553 37.7734 178.609 38.1914 178.609 38.6484V39.252H173.711V38.2383H177.215V38.127C177.207 37.873 177.156 37.6348 177.062 37.4121C176.972 37.1895 176.834 37.0098 176.646 36.873C176.459 36.7363 176.209 36.668 175.896 36.668C175.662 36.668 175.453 36.7188 175.269 36.8203C175.09 36.918 174.939 37.0605 174.818 37.248C174.697 37.4355 174.603 37.6621 174.537 37.9277C174.474 38.1895 174.443 38.4844 174.443 38.8125V39.0469C174.443 39.3242 174.48 39.582 174.555 39.8203C174.633 40.0547 174.746 40.2598 174.894 40.4355C175.043 40.6113 175.222 40.75 175.433 40.8516C175.644 40.9492 175.885 40.998 176.154 40.998C176.494 40.998 176.797 40.9297 177.062 40.793C177.328 40.6562 177.558 40.4629 177.754 40.2129L178.498 40.9336C178.361 41.1328 178.183 41.3242 177.965 41.5078C177.746 41.6875 177.478 41.834 177.162 41.9473C176.849 42.0605 176.486 42.1172 176.072 42.1172ZM181.029 35.6602L182.236 37.7637L183.466 35.6602H185.019L183.097 38.7715L185.095 42H183.543L182.254 39.8086L180.964 42H179.406L181.398 38.7715L179.482 35.6602H181.029Z" fill="black"/>
<rect x="76" y="78" width="88" height="32" rx="8" fill="#C0E0FA"/>
<path d="M105.438 89.4688V98H103.967V89.4688H105.438ZM108.777 92.9492V98H107.365V91.6602H108.695L108.777 92.9492ZM108.549 94.5957L108.068 94.5898C108.068 94.1523 108.123 93.748 108.232 93.377C108.342 93.0059 108.502 92.6836 108.713 92.4102C108.924 92.1328 109.185 91.9199 109.498 91.7715C109.814 91.6191 110.179 91.543 110.594 91.543C110.883 91.543 111.146 91.5859 111.385 91.6719C111.627 91.7539 111.836 91.8848 112.011 92.0645C112.191 92.2441 112.328 92.4746 112.422 92.7559C112.519 93.0371 112.568 93.377 112.568 93.7754V98H111.156V93.8984C111.156 93.5898 111.109 93.3477 111.015 93.1719C110.926 92.9961 110.795 92.8711 110.623 92.7969C110.455 92.7188 110.254 92.6797 110.019 92.6797C109.754 92.6797 109.527 92.7305 109.34 92.832C109.156 92.9336 109.006 93.0723 108.888 93.248C108.771 93.4238 108.685 93.627 108.631 93.8574C108.576 94.0879 108.549 94.334 108.549 94.5957ZM112.48 94.2207L111.818 94.3672C111.818 93.9844 111.871 93.623 111.976 93.2832C112.086 92.9395 112.244 92.6387 112.451 92.3809C112.662 92.1191 112.922 91.9141 113.23 91.7656C113.539 91.6172 113.892 91.543 114.291 91.543C114.615 91.543 114.904 91.5879 115.158 91.6777C115.416 91.7637 115.635 91.9004 115.814 92.0879C115.994 92.2754 116.131 92.5195 116.224 92.8203C116.318 93.1172 116.365 93.4766 116.365 93.8984V98H114.947V93.8926C114.947 93.5723 114.9 93.3242 114.806 93.1484C114.717 92.9727 114.588 92.8516 114.42 92.7852C114.252 92.7148 114.051 92.6797 113.816 92.6797C113.597 92.6797 113.404 92.7207 113.236 92.8027C113.072 92.8809 112.933 92.9922 112.82 93.1367C112.707 93.2773 112.621 93.4395 112.562 93.623C112.508 93.8066 112.48 94.0059 112.48 94.2207ZM121.632 96.7285V93.7051C121.632 93.4785 121.591 93.2832 121.509 93.1191C121.427 92.9551 121.302 92.8281 121.134 92.7383C120.97 92.6484 120.763 92.6035 120.513 92.6035C120.283 92.6035 120.084 92.6426 119.916 92.7207C119.748 92.7988 119.617 92.9043 119.523 93.0371C119.429 93.1699 119.382 93.3203 119.382 93.4883H117.976C117.976 93.2383 118.037 92.9961 118.158 92.7617C118.279 92.5273 118.455 92.3184 118.685 92.1348C118.916 91.9512 119.191 91.8066 119.511 91.7012C119.832 91.5957 120.191 91.543 120.589 91.543C121.066 91.543 121.488 91.623 121.855 91.7832C122.226 91.9434 122.517 92.1855 122.728 92.5098C122.943 92.8301 123.05 93.2324 123.05 93.7168V96.5352C123.05 96.8242 123.07 97.084 123.109 97.3145C123.152 97.541 123.212 97.7383 123.291 97.9062V98H121.843C121.777 97.8477 121.724 97.6543 121.685 97.4199C121.65 97.1816 121.632 96.9512 121.632 96.7285ZM121.837 94.1445L121.849 95.0176H120.835C120.574 95.0176 120.343 95.043 120.144 95.0938C119.945 95.1406 119.779 95.2109 119.646 95.3047C119.513 95.3984 119.414 95.5117 119.347 95.6445C119.281 95.7773 119.248 95.9277 119.248 96.0957C119.248 96.2637 119.287 96.418 119.365 96.5586C119.443 96.6953 119.556 96.8027 119.705 96.8809C119.857 96.959 120.041 96.998 120.255 96.998C120.544 96.998 120.796 96.9395 121.011 96.8223C121.23 96.7012 121.402 96.5547 121.527 96.3828C121.652 96.207 121.718 96.041 121.726 95.8848L122.183 96.5117C122.136 96.6719 122.056 96.8438 121.943 97.0273C121.83 97.2109 121.681 97.3867 121.498 97.5547C121.318 97.7188 121.101 97.8535 120.847 97.959C120.597 98.0645 120.308 98.1172 119.98 98.1172C119.566 98.1172 119.197 98.0352 118.873 97.8711C118.548 97.7031 118.294 97.4785 118.111 97.1973C117.927 96.9121 117.835 96.5898 117.835 96.2305C117.835 95.8945 117.898 95.5977 118.023 95.3398C118.152 95.0781 118.339 94.8594 118.585 94.6836C118.835 94.5078 119.14 94.375 119.5 94.2852C119.859 94.1914 120.269 94.1445 120.73 94.1445H121.837ZM128.827 91.6602H130.111V97.8242C130.111 98.3945 129.99 98.8789 129.747 99.2773C129.505 99.6758 129.167 99.9785 128.734 100.186C128.3 100.396 127.798 100.502 127.228 100.502C126.986 100.502 126.716 100.467 126.419 100.396C126.126 100.326 125.841 100.213 125.564 100.057C125.29 99.9043 125.062 99.7031 124.878 99.4531L125.54 98.6211C125.767 98.8906 126.017 99.0879 126.29 99.2129C126.564 99.3379 126.851 99.4004 127.152 99.4004C127.476 99.4004 127.751 99.3398 127.978 99.2188C128.208 99.1016 128.386 98.9277 128.511 98.6973C128.636 98.4668 128.699 98.1855 128.699 97.8535V93.0957L128.827 91.6602ZM124.521 94.9004V94.7773C124.521 94.2969 124.579 93.8594 124.697 93.4648C124.814 93.0664 124.982 92.7246 125.2 92.4395C125.419 92.1504 125.685 91.9297 125.997 91.7773C126.31 91.6211 126.663 91.543 127.058 91.543C127.468 91.543 127.818 91.6172 128.107 91.7656C128.4 91.9141 128.644 92.127 128.839 92.4043C129.034 92.6777 129.187 93.0059 129.296 93.3887C129.409 93.7676 129.493 94.1895 129.548 94.6543V95.0469C129.497 95.5 129.411 95.9141 129.29 96.2891C129.169 96.6641 129.009 96.9883 128.81 97.2617C128.611 97.5352 128.365 97.7461 128.072 97.8945C127.782 98.043 127.441 98.1172 127.046 98.1172C126.659 98.1172 126.31 98.0371 125.997 97.877C125.689 97.7168 125.423 97.4922 125.2 97.2031C124.982 96.9141 124.814 96.5742 124.697 96.1836C124.579 95.7891 124.521 95.3613 124.521 94.9004ZM125.933 94.7773V94.9004C125.933 95.1895 125.96 95.459 126.015 95.709C126.074 95.959 126.161 96.1797 126.279 96.3711C126.4 96.5586 126.552 96.707 126.736 96.8164C126.923 96.9219 127.144 96.9746 127.398 96.9746C127.73 96.9746 128.001 96.9043 128.212 96.7637C128.427 96.623 128.591 96.4336 128.704 96.1953C128.822 95.9531 128.904 95.6836 128.95 95.3867V94.3262C128.927 94.0957 128.878 93.8809 128.804 93.6816C128.734 93.4824 128.638 93.3086 128.517 93.1602C128.396 93.0078 128.243 92.8906 128.06 92.8086C127.876 92.7227 127.659 92.6797 127.409 92.6797C127.156 92.6797 126.935 92.7344 126.747 92.8438C126.56 92.9531 126.406 93.1035 126.284 93.2949C126.167 93.4863 126.079 93.709 126.021 93.9629C125.962 94.2168 125.933 94.4883 125.933 94.7773ZM134.61 98.1172C134.142 98.1172 133.718 98.041 133.339 97.8887C132.964 97.7324 132.644 97.5156 132.378 97.2383C132.116 96.9609 131.915 96.6348 131.774 96.2598C131.634 95.8848 131.564 95.4805 131.564 95.0469V94.8125C131.564 94.3164 131.636 93.8672 131.78 93.4648C131.925 93.0625 132.126 92.7188 132.384 92.4336C132.642 92.1445 132.946 91.9238 133.298 91.7715C133.649 91.6191 134.03 91.543 134.44 91.543C134.894 91.543 135.29 91.6191 135.63 91.7715C135.97 91.9238 136.251 92.1387 136.474 92.416C136.7 92.6895 136.868 93.0156 136.978 93.3945C137.091 93.7734 137.147 94.1914 137.147 94.6484V95.252H132.249V94.2383H135.753V94.127C135.745 93.873 135.694 93.6348 135.601 93.4121C135.511 93.1895 135.372 93.0098 135.185 92.873C134.997 92.7363 134.747 92.668 134.435 92.668C134.2 92.668 133.991 92.7188 133.808 92.8203C133.628 92.918 133.478 93.0605 133.356 93.248C133.235 93.4355 133.142 93.6621 133.075 93.9277C133.013 94.1895 132.981 94.4844 132.981 94.8125V95.0469C132.981 95.3242 133.019 95.582 133.093 95.8203C133.171 96.0547 133.284 96.2598 133.433 96.4355C133.581 96.6113 133.761 96.75 133.972 96.8516C134.183 96.9492 134.423 96.998 134.692 96.998C135.032 96.998 135.335 96.9297 135.601 96.793C135.866 96.6562 136.097 96.4629 136.292 96.2129L137.036 96.9336C136.899 97.1328 136.722 97.3242 136.503 97.5078C136.284 97.6875 136.017 97.834 135.7 97.9473C135.388 98.0605 135.024 98.1172 134.61 98.1172Z" fill="black"/>
</svg>
