<svg width="149" height="25" viewBox="0 0 149 25" fill="none" xmlns="http://www.w3.org/2000/svg">
<g clip-path="url(#clip0_5606_406)">
<path opacity="0.25" d="M20.1483 7.40418C21.429 8.68486 21.429 10.761 20.1483 12.0417L19.7619 12.4282L14.1331 6.7991C12.8524 5.51842 10.7759 5.51842 9.49525 6.7991L3.86648 12.4282L3.48004 12.0417C2.19936 10.761 2.19936 8.68486 3.48004 7.40418L9.49525 1.38867C10.7759 0.107991 12.8527 0.107991 14.1331 1.38867L20.1483 7.40418Z" fill="white"/>
<path opacity="0.45" d="M20.1483 12.8146C21.429 14.0953 21.429 16.1715 20.1483 17.4521L14.1331 23.4677C12.8524 24.7483 10.7759 24.7483 9.49525 23.4677L3.48004 17.4521C2.19936 16.1715 2.19936 14.0953 3.48004 12.8146L3.86648 12.4282L9.49525 18.0572C10.7759 19.3379 12.8527 19.3379 14.1331 18.0572L19.7619 12.4282L20.1483 12.8146Z" fill="white"/>
<path d="M14.1331 6.79913L19.7618 12.4282L14.1331 18.0573C12.8524 19.3379 10.7759 19.3379 9.49523 18.0573L3.86646 12.4282L9.49523 6.79913C10.7759 5.51845 12.8524 5.51845 14.1331 6.79913Z" fill="white"/>
</g>
<path d="M37.395 21.5202C36.199 21.5202 35.1257 21.2442 34.175 20.6922C33.2243 20.1248 32.473 19.3582 31.921 18.3922C31.369 17.4262 31.0853 16.3375 31.07 15.1262V4.63816C31.07 4.28549 31.1773 4.00183 31.392 3.78716C31.622 3.57249 31.9057 3.46516 32.243 3.46516C32.5957 3.46516 32.8793 3.57249 33.094 3.78716C33.3087 4.00183 33.416 4.28549 33.416 4.63816V10.8482C33.9527 10.2042 34.5967 9.69816 35.348 9.33016C36.1147 8.94683 36.9503 8.75516 37.855 8.75516C38.9743 8.75516 39.9787 9.03883 40.868 9.60616C41.7573 10.1582 42.455 10.9172 42.961 11.8832C43.4823 12.8338 43.743 13.9148 43.743 15.1262C43.743 16.3375 43.4593 17.4262 42.892 18.3922C42.34 19.3582 41.5887 20.1248 40.638 20.6922C39.6873 21.2442 38.6063 21.5202 37.395 21.5202ZM37.395 19.4502C38.177 19.4502 38.8747 19.2662 39.488 18.8982C40.1013 18.5148 40.5843 17.9935 40.937 17.3342C41.305 16.6748 41.489 15.9388 41.489 15.1262C41.489 14.2982 41.305 13.5622 40.937 12.9182C40.5843 12.2742 40.1013 11.7682 39.488 11.4002C38.8747 11.0168 38.177 10.8252 37.395 10.8252C36.6283 10.8252 35.9307 11.0168 35.302 11.4002C34.6887 11.7682 34.2057 12.2742 33.853 12.9182C33.5003 13.5622 33.324 14.2982 33.324 15.1262C33.324 15.9388 33.5003 16.6748 33.853 17.3342C34.2057 17.9935 34.6887 18.5148 35.302 18.8982C35.9307 19.2662 36.6283 19.4502 37.395 19.4502ZM51.5319 21.5432C50.4739 21.5432 49.5232 21.3208 48.6799 20.8762C47.8519 20.4162 47.1925 19.7492 46.7019 18.8752C46.2265 18.0012 45.9889 16.9278 45.9889 15.6552V9.99716C45.9889 9.65983 46.0962 9.38383 46.3109 9.16916C46.5409 8.93916 46.8245 8.82416 47.1619 8.82416C47.4992 8.82416 47.7752 8.93916 47.9899 9.16916C48.2199 9.38383 48.3349 9.65983 48.3349 9.99716V15.6552C48.3349 16.5138 48.4959 17.2268 48.8179 17.7942C49.1399 18.3462 49.5769 18.7602 50.1289 19.0362C50.6809 19.2968 51.3019 19.4272 51.9919 19.4272C52.6512 19.4272 53.2339 19.2968 53.7399 19.0362C54.2612 18.7755 54.6752 18.4228 54.9819 17.9782C55.2885 17.5335 55.4419 17.0352 55.4419 16.4832H56.8909C56.8909 17.4338 56.6532 18.2925 56.1779 19.0592C55.7179 19.8258 55.0815 20.4315 54.2689 20.8762C53.4715 21.3208 52.5592 21.5432 51.5319 21.5432ZM56.6149 21.4282C56.2775 21.4282 55.9939 21.3208 55.7639 21.1062C55.5492 20.8762 55.4419 20.5925 55.4419 20.2552V9.99716C55.4419 9.64449 55.5492 9.36083 55.7639 9.14616C55.9939 8.93149 56.2775 8.82416 56.6149 8.82416C56.9675 8.82416 57.2512 8.93149 57.4659 9.14616C57.6805 9.36083 57.7879 9.64449 57.7879 9.99716V20.2552C57.7879 20.5925 57.6805 20.8762 57.4659 21.1062C57.2512 21.3208 56.9675 21.4282 56.6149 21.4282ZM62.3226 21.4282C61.9853 21.4282 61.7016 21.3208 61.4716 21.1062C61.2569 20.8762 61.1496 20.5925 61.1496 20.2552V10.0202C61.1496 9.66749 61.2569 9.38383 61.4716 9.16916C61.7016 8.95449 61.9853 8.84716 62.3226 8.84716C62.6753 8.84716 62.9589 8.95449 63.1736 9.16916C63.3883 9.38383 63.4956 9.66749 63.4956 10.0202V20.2552C63.4956 20.5925 63.3883 20.8762 63.1736 21.1062C62.9589 21.3208 62.6753 21.4282 62.3226 21.4282ZM62.3226 6.80016C61.9086 6.80016 61.5483 6.65449 61.2416 6.36316C60.9503 6.05649 60.8046 5.69616 60.8046 5.28216C60.8046 4.86816 60.9503 4.51549 61.2416 4.22416C61.5483 3.91749 61.9086 3.76416 62.3226 3.76416C62.7366 3.76416 63.0893 3.91749 63.3806 4.22416C63.6873 4.51549 63.8406 4.86816 63.8406 5.28216C63.8406 5.69616 63.6873 6.05649 63.3806 6.36316C63.0893 6.65449 62.7366 6.80016 62.3226 6.80016ZM69.85 21.4282C69.1754 21.4282 68.5774 21.2442 68.056 20.8762C67.5347 20.5082 67.1284 20.0098 66.837 19.3812C66.5457 18.7372 66.4 18.0012 66.4 17.1732V4.61516C66.4 4.27783 66.5074 4.00183 66.722 3.78716C66.9367 3.57249 67.2127 3.46516 67.55 3.46516C67.8874 3.46516 68.1634 3.57249 68.378 3.78716C68.5927 4.00183 68.7 4.27783 68.7 4.61516V17.1732C68.7 17.7405 68.8074 18.2082 69.022 18.5762C69.2367 18.9442 69.5127 19.1282 69.85 19.1282H70.425C70.7317 19.1282 70.977 19.2355 71.161 19.4502C71.3604 19.6648 71.46 19.9408 71.46 20.2782C71.46 20.6155 71.3144 20.8915 71.023 21.1062C70.7317 21.3208 70.356 21.4282 69.896 21.4282H69.85ZM77.7633 21.5202C76.5673 21.5202 75.4863 21.2442 74.5203 20.6922C73.5696 20.1248 72.8106 19.3582 72.2433 18.3922C71.6913 17.4262 71.4153 16.3375 71.4153 15.1262C71.4153 13.9148 71.6683 12.8338 72.1743 11.8832C72.6956 10.9172 73.4009 10.1582 74.2903 9.60616C75.1796 9.03883 76.1839 8.75516 77.3033 8.75516C78.2079 8.75516 79.0436 8.94683 79.8103 9.33016C80.5769 9.69816 81.2209 10.2042 81.7423 10.8482V4.63816C81.7423 4.28549 81.8496 4.00183 82.0643 3.78716C82.2943 3.57249 82.5779 3.46516 82.9153 3.46516C83.2679 3.46516 83.5516 3.57249 83.7663 3.78716C83.9809 4.00183 84.0883 4.28549 84.0883 4.63816V15.1262C84.0883 16.3375 83.8046 17.4262 83.2373 18.3922C82.6853 19.3582 81.9339 20.1248 80.9833 20.6922C80.0326 21.2442 78.9593 21.5202 77.7633 21.5202ZM77.7633 19.4502C78.5453 19.4502 79.2429 19.2662 79.8563 18.8982C80.4696 18.5148 80.9526 17.9935 81.3053 17.3342C81.6579 16.6748 81.8343 15.9388 81.8343 15.1262C81.8343 14.2982 81.6579 13.5622 81.3053 12.9182C80.9526 12.2742 80.4696 11.7682 79.8563 11.4002C79.2429 11.0168 78.5453 10.8252 77.7633 10.8252C76.9966 10.8252 76.2989 11.0168 75.6703 11.4002C75.0569 11.7682 74.5663 12.2742 74.1983 12.9182C73.8456 13.5622 73.6693 14.2982 73.6693 15.1262C73.6693 15.9388 73.8456 16.6748 74.1983 17.3342C74.5663 17.9935 75.0569 18.5148 75.6703 18.8982C76.2989 19.2662 76.9966 19.4502 77.7633 19.4502Z" fill="white"/>
<path d="M93.682 21.5432C92.4707 21.5432 91.3897 21.2672 90.439 20.7152C89.5037 20.1478 88.76 19.3812 88.208 18.4152C87.6713 17.4492 87.403 16.3605 87.403 15.1492C87.403 13.9225 87.6637 12.8262 88.185 11.8602C88.7063 10.8942 89.4193 10.1352 90.324 9.58316C91.2287 9.01583 92.2713 8.73216 93.452 8.73216C94.3873 8.73216 95.246 8.91616 96.028 9.28416C96.8253 9.65216 97.523 10.2042 98.121 10.9402C98.2897 11.1242 98.351 11.3235 98.305 11.5382C98.259 11.7375 98.1287 11.9138 97.914 12.0672C97.7453 12.1898 97.5537 12.2358 97.339 12.2052C97.1397 12.1592 96.9633 12.0442 96.81 11.8602C95.9207 10.8482 94.8013 10.3422 93.452 10.3422C92.5933 10.3422 91.8343 10.5492 91.175 10.9632C90.531 11.3772 90.025 11.9445 89.657 12.6652C89.3043 13.3858 89.128 14.2138 89.128 15.1492C89.128 16.0692 89.3197 16.8895 89.703 17.6102C90.0863 18.3308 90.623 18.8982 91.313 19.3122C92.003 19.7262 92.7927 19.9332 93.682 19.9332C94.28 19.9332 94.8243 19.8565 95.315 19.7032C95.821 19.5345 96.2657 19.2815 96.649 18.9442C96.833 18.7908 97.0247 18.7065 97.224 18.6912C97.4233 18.6758 97.6073 18.7372 97.776 18.8752C97.96 19.0438 98.0597 19.2355 98.075 19.4502C98.1057 19.6648 98.0367 19.8488 97.868 20.0022C96.7487 21.0295 95.3533 21.5432 93.682 21.5432ZM103.463 21.4282C102.849 21.4282 102.297 21.2595 101.807 20.9222C101.331 20.5848 100.956 20.1172 100.68 19.5192C100.419 18.9212 100.289 18.2312 100.289 17.4492V4.33916C100.289 4.07849 100.365 3.87149 100.519 3.71816C100.687 3.54949 100.902 3.46516 101.163 3.46516C101.423 3.46516 101.63 3.54949 101.784 3.71816C101.952 3.87149 102.037 4.07849 102.037 4.33916V17.4492C102.037 18.1085 102.167 18.6452 102.428 19.0592C102.704 19.4732 103.049 19.6802 103.463 19.6802H104.038C104.268 19.6802 104.452 19.7645 104.59 19.9332C104.728 20.0865 104.797 20.2935 104.797 20.5542C104.797 20.8148 104.697 21.0295 104.498 21.1982C104.314 21.3515 104.068 21.4282 103.762 21.4282H103.463ZM111.271 21.5432C110.044 21.5432 108.948 21.2672 107.982 20.7152C107.016 20.1632 106.257 19.4042 105.705 18.4382C105.153 17.4722 104.877 16.3758 104.877 15.1492C104.877 13.9072 105.153 12.8032 105.705 11.8372C106.257 10.8712 107.016 10.1122 107.982 9.56016C108.948 9.00816 110.044 8.73216 111.271 8.73216C112.497 8.73216 113.586 9.00816 114.537 9.56016C115.503 10.1122 116.262 10.8712 116.814 11.8372C117.366 12.8032 117.649 13.9072 117.665 15.1492C117.665 16.3758 117.381 17.4722 116.814 18.4382C116.262 19.4042 115.503 20.1632 114.537 20.7152C113.586 21.2672 112.497 21.5432 111.271 21.5432ZM111.271 19.9332C112.16 19.9332 112.957 19.7262 113.663 19.3122C114.368 18.8982 114.92 18.3308 115.319 17.6102C115.717 16.8895 115.917 16.0692 115.917 15.1492C115.917 14.2292 115.717 13.4088 115.319 12.6882C114.92 11.9522 114.368 11.3772 113.663 10.9632C112.957 10.5492 112.16 10.3422 111.271 10.3422C110.381 10.3422 109.584 10.5492 108.879 10.9632C108.173 11.3772 107.614 11.9522 107.2 12.6882C106.801 13.4088 106.602 14.2292 106.602 15.1492C106.602 16.0692 106.801 16.8895 107.2 17.6102C107.614 18.3308 108.173 18.8982 108.879 19.3122C109.584 19.7262 110.381 19.9332 111.271 19.9332ZM125.583 21.5662C124.494 21.5662 123.521 21.3438 122.662 20.8992C121.803 20.4392 121.121 19.7722 120.615 18.8982C120.124 18.0242 119.879 16.9585 119.879 15.7012V9.72116C119.879 9.47583 119.963 9.26883 120.132 9.10016C120.301 8.93149 120.508 8.84716 120.753 8.84716C121.014 8.84716 121.228 8.93149 121.397 9.10016C121.566 9.26883 121.65 9.47583 121.65 9.72116V15.7012C121.65 16.6518 121.826 17.4338 122.179 18.0472C122.547 18.6605 123.038 19.1205 123.651 19.4272C124.28 19.7338 124.985 19.8872 125.767 19.8872C126.518 19.8872 127.193 19.7415 127.791 19.4502C128.404 19.1588 128.887 18.7602 129.24 18.2542C129.593 17.7482 129.769 17.1732 129.769 16.5292H131.034C130.988 17.4952 130.72 18.3615 130.229 19.1282C129.754 19.8795 129.11 20.4775 128.297 20.9222C127.484 21.3515 126.58 21.5662 125.583 21.5662ZM130.643 21.4282C130.382 21.4282 130.168 21.3515 129.999 21.1982C129.846 21.0295 129.769 20.8072 129.769 20.5312V9.72116C129.769 9.46049 129.846 9.25349 129.999 9.10016C130.168 8.93149 130.382 8.84716 130.643 8.84716C130.904 8.84716 131.118 8.93149 131.287 9.10016C131.456 9.25349 131.54 9.46049 131.54 9.72116V20.5312C131.54 20.8072 131.456 21.0295 131.287 21.1982C131.118 21.3515 130.904 21.4282 130.643 21.4282ZM140.401 21.5432C139.19 21.5432 138.101 21.2672 137.135 20.7152C136.169 20.1478 135.403 19.3812 134.835 18.4152C134.283 17.4492 134.007 16.3528 134.007 15.1262C134.007 13.9148 134.276 12.8262 134.812 11.8602C135.364 10.8942 136.108 10.1352 137.043 9.58316C137.979 9.01583 139.037 8.73216 140.217 8.73216C141.245 8.73216 142.172 8.95449 143 9.39916C143.828 9.82849 144.495 10.4035 145.001 11.1242V4.36216C145.001 4.08616 145.086 3.87149 145.254 3.71816C145.423 3.54949 145.638 3.46516 145.898 3.46516C146.159 3.46516 146.374 3.54949 146.542 3.71816C146.711 3.87149 146.795 4.08616 146.795 4.36216V15.2182C146.765 16.4142 146.466 17.4952 145.898 18.4612C145.346 19.4118 144.587 20.1632 143.621 20.7152C142.671 21.2672 141.597 21.5432 140.401 21.5432ZM140.401 19.9332C141.291 19.9332 142.08 19.7262 142.77 19.3122C143.476 18.8828 144.028 18.3078 144.426 17.5872C144.84 16.8665 145.047 16.0462 145.047 15.1262C145.047 14.2215 144.84 13.4088 144.426 12.6882C144.028 11.9522 143.476 11.3772 142.77 10.9632C142.08 10.5492 141.291 10.3422 140.401 10.3422C139.527 10.3422 138.738 10.5492 138.032 10.9632C137.327 11.3772 136.767 11.9522 136.353 12.6882C135.939 13.4088 135.732 14.2215 135.732 15.1262C135.732 16.0462 135.939 16.8665 136.353 17.5872C136.767 18.3078 137.327 18.8828 138.032 19.3122C138.738 19.7262 139.527 19.9332 140.401 19.9332Z" fill="white"/>
<defs>
<clipPath id="clip0_5606_406">
<rect width="24" height="24" fill="white" transform="translate(0 0.428162)"/>
</clipPath>
</defs>
</svg>
