<svg viewBox="0 0 24 24" xmlns="http://www.w3.org/2000/svg"><path fill-rule="evenodd" clip-rule="evenodd" d="M12 24c6.627 0 12-5.373 12-12S18.627 0 12 0 0 5.373 0 12s5.373 12 12 12ZM6.984 4.774c.485-.19 1.04-.32 1.853-.359.814-.039 1.074-.048 3.148-.052 2.075-.004 2.335.004 3.15.04.812.035 1.368.164 1.853.352.503.193.93.454 1.355.878.425.424.687.849.883 1.35.19.486.32 1.041.359 1.854.038.815.048 1.074.052 3.148.004 2.074-.005 2.335-.04 3.15-.036.812-.164 1.368-.352 1.854a3.737 3.737 0 0 1-.878 1.354 3.746 3.746 0 0 1-1.35.884c-.486.19-1.04.32-1.853.358-.815.039-1.075.048-3.15.052-2.073.004-2.333-.004-3.148-.04-.813-.036-1.369-.163-1.854-.351a3.746 3.746 0 0 1-1.355-.878 3.74 3.74 0 0 1-.883-1.352c-.19-.485-.32-1.04-.359-1.852-.039-.815-.048-1.075-.052-3.15-.004-2.073.004-2.333.04-3.148.036-.813.163-1.368.351-1.855.195-.502.455-.929.879-1.354a3.736 3.736 0 0 1 1.35-.883Zm.523 13.189c.27.103.674.227 1.419.26.806.034 1.047.042 3.086.038 2.04-.004 2.28-.012 3.086-.05.744-.036 1.148-.16 1.417-.266.357-.14.61-.306.877-.573.267-.268.432-.522.57-.879.104-.27.228-.674.26-1.419.035-.805.043-1.047.039-3.086-.004-2.039-.012-2.28-.05-3.086-.036-.744-.16-1.149-.266-1.417a2.366 2.366 0 0 0-.573-.878 2.364 2.364 0 0 0-.88-.57c-.269-.103-.674-.227-1.418-.26-.805-.034-1.047-.042-3.086-.038-2.04.004-2.28.012-3.086.05-.744.036-1.148.16-1.417.266a2.38 2.38 0 0 0-.878.573 2.37 2.37 0 0 0-.57.88c-.103.269-.227.674-.26 1.418-.034.805-.042 1.047-.038 3.086.004 2.04.013 2.28.05 3.086.035.744.161 1.148.266 1.418.14.356.305.61.573.877.268.266.522.431.88.57Zm8.563-9.131a.917.917 0 1 1-.003-1.833.917.917 0 0 1 .003 1.833Zm-4.063 7.09a3.921 3.921 0 1 1-.015-7.843 3.921 3.921 0 0 1 .015 7.842Zm-.012-6.468a2.546 2.546 0 1 0 .01 5.092 2.546 2.546 0 0 0-.01-5.092Z"/></svg>