<svg viewBox="0 0 24 24" xmlns="http://www.w3.org/2000/svg"><path fill-rule="evenodd" clip-rule="evenodd" d="M12 24c6.627 0 12-5.373 12-12S18.627 0 12 0 0 5.373 0 12s5.373 12 12 12ZM8.176 9.66H5.174v9.035h3.002V9.66Zm-3.18-2.795c0-.885.671-1.56 1.699-1.56 1.027 0 1.66.675 1.679 1.56 0 .867-.652 1.562-1.7 1.562h-.018c-1.008 0-1.66-.695-1.66-1.562Zm7.845 4.074c.398-.614 1.112-1.49 2.706-1.49 1.976 0 3.457 1.29 3.457 4.065v5.18h-3.002v-4.833c0-1.214-.435-2.043-1.522-2.043-.829 0-1.323.559-1.54 1.098-.08.194-.099.463-.099.733v5.046H9.838s.04-8.187 0-9.035h3.003v1.28Z"/></svg>