<?xml version="1.0" standalone="no"?>
<!DOCTYPE svg PUBLIC "-//W3C//DTD SVG 1.1//EN" "http://www.w3.org/Graphics/SVG/1.1/DTD/svg11.dtd">
<svg width="100%" height="100%" viewBox="0 0 715 645" version="1.1" xmlns="http://www.w3.org/2000/svg" xmlns:xlink="http://www.w3.org/1999/xlink" xml:space="preserve" style="fill-rule:evenodd;clip-rule:evenodd;stroke-linecap:round;stroke-linejoin:round;stroke-miterlimit:1.41421;">
    <g transform="matrix(1,0,0,1,0,-10)">
        <rect x="82" y="227.5" width="68" height="17" style="fill:white;"/>
        <g transform="matrix(1,0,0,1,82,241.5)">
            <g>
                <text x="0px" y="0px" style="font-family:'Helvetica';font-size:14px;fill:black;">credentials</text>
            </g>
        </g>
        <path d="M230.723,147.624C230.723,153.576 223.748,159 215.772,159L160.392,159C152.415,159 145.945,153.576 145.945,147.624L145.945,72.179C145.945,66.228 152.415,62 160.392,62L215.772,62C223.748,62 230.723,66.228 230.723,72.179L230.723,147.624Z" style="fill:rgb(215,242,255);fill-rule:nonzero;"/>
        <path d="M230.723,147.624C230.723,153.576 223.748,159 215.772,159L160.392,159C152.415,159 145.945,153.576 145.945,147.624L145.945,72.179C145.945,66.228 152.415,62 160.392,62L215.772,62C223.748,62 230.723,66.228 230.723,72.179L230.723,147.624Z" style="fill:none;stroke-width:1px;stroke:black;"/>
        <g transform="matrix(1,0,0,1,189.371,154.996)">
            <g>
                <text x="0px" y="0px" style="font-family:'HelveticaNeue-Medium';font-size:18px;fill:black;">auth</text>
            </g>
        </g>
        <path d="M172.955,81.247L167.315,75.793L161.084,81.34L172.829,91.793L192.675,74.132L188.141,70.029L172.955,81.247Z" style="fill:rgb(104,188,54);fill-rule:nonzero;"/>
        <path d="M172.955,106.295L167.315,100.841L161.084,106.388L172.829,116.842L192.675,99.181L188.141,95.077L172.955,106.295Z" style="fill:rgb(104,188,54);fill-rule:nonzero;"/>
        <rect x="161.084" y="116.842" width="22.204" height="34.13" style="fill:rgb(215,242,255);"/>
        <g transform="matrix(1,0,0,1,161.084,144.907)">
            <g>
                <text x="0px" y="0px" style="font-family:'Helvetica-Bold';font-size:30px;fill:rgb(255,102,102);">X</text>
            </g>
        </g>
        <path d="M416.117,110.198C415.555,110.336 414.984,110.472 414.378,110.604C414.057,110.67 413.718,110.736 416.117,110.198Z" style="fill:rgb(58,142,237);fill-rule:nonzero;"/>
        <path d="M414.675,64.5C422.527,64.5 429.237,65.079 434.753,66.008C446.574,67.951 452.878,71.31 452.878,73.372C452.878,75.431 446.574,78.815 434.753,80.764C429.237,81.668 422.527,82.269 414.675,82.269C389.979,82.269 376.5,76.385 376.5,73.372C376.5,70.362 389.979,64.5 414.675,64.5Z" style="fill:rgb(58,142,237);fill-rule:nonzero;"/>
        <path d="M452.878,73.372L452.878,77.868C452.878,79.927 446.574,83.311 434.753,85.254C429.237,86.157 422.527,86.765 414.675,86.765C389.979,86.765 376.5,80.881 376.5,77.868L376.5,73.372C376.5,76.385 389.979,82.269 414.675,82.269C422.527,82.269 429.237,81.668 434.753,80.764C446.574,78.815 452.878,75.431 452.878,73.372Z" style="fill:rgb(58,142,237);fill-rule:nonzero;"/>
        <path d="M452.878,73.372L452.878,77.868C452.878,77.928 452.871,77.994 452.861,78.053L452.861,73.561C452.871,73.498 452.878,73.438 452.878,73.372Z" style="fill:rgb(58,142,237);fill-rule:nonzero;"/>
        <path d="M452.861,73.561L452.861,78.053C452.846,78.135 452.822,78.22 452.789,78.308L452.789,73.81C452.822,73.728 452.846,73.643 452.861,73.561Z" style="fill:rgb(58,142,237);fill-rule:nonzero;"/>
        <path d="M452.789,73.81L452.789,78.308C452.742,78.431 452.677,78.554 452.593,78.683L452.593,74.187C452.677,74.058 452.742,73.932 452.789,73.81Z" style="fill:rgb(58,142,237);fill-rule:nonzero;"/>
        <path d="M452.593,74.187L452.593,78.683C451.244,80.739 445.12,83.55 434.753,85.254C429.237,86.157 422.527,86.765 414.675,86.765C389.979,86.765 376.5,80.881 376.5,77.868L376.5,73.372C376.5,76.385 389.979,82.269 414.675,82.269C422.527,82.269 429.237,81.668 434.753,80.764C445.12,79.058 451.244,76.243 452.593,74.187Z" style="fill:rgb(58,142,237);fill-rule:nonzero;"/>
        <path d="M452.82,141.007C452.902,140.797 452.944,140.598 452.944,140.407L452.944,147.672C452.944,147.757 452.937,147.839 452.922,147.921C452.902,148.028 452.871,148.138 452.83,148.255L452.82,148.272C452.815,148.286 452.803,148.303 452.796,148.317C452.74,148.451 452.675,148.586 452.584,148.727C452.562,148.761 452.525,148.798 452.499,148.834C452.433,148.927 452.351,149.023 452.27,149.118C452.168,149.24 452.059,149.361 451.934,149.487C451.83,149.588 451.716,149.69 451.597,149.793C451.451,149.917 451.295,150.042 451.127,150.166C450.986,150.271 450.84,150.377 450.68,150.484C450.492,150.611 450.283,150.737 450.069,150.863C449.892,150.97 449.716,151.076 449.521,151.183C449.277,151.315 449.007,151.446 448.737,151.576C448.53,151.678 448.333,151.779 448.109,151.88C447.781,152.028 447.416,152.172 447.052,152.318C446.845,152.401 446.659,152.484 446.441,152.567C445.852,152.786 445.222,153.005 444.546,153.218C444.325,153.287 444.072,153.354 443.841,153.422C443.355,153.566 442.868,153.709 442.341,153.847C442.027,153.931 441.686,154.008 441.356,154.088C440.867,154.207 440.378,154.325 439.856,154.438C439.485,154.518 439.093,154.594 438.703,154.67C438.179,154.773 437.647,154.875 437.09,154.973C436.669,155.047 436.232,155.116 435.792,155.186C435.218,155.277 434.627,155.363 434.019,155.447C433.561,155.51 433.092,155.57 432.613,155.63C431.971,155.707 431.309,155.778 430.633,155.846C430.144,155.897 429.655,155.947 429.145,155.992C428.418,156.056 427.661,156.11 426.899,156.163C426.394,156.198 425.901,156.235 425.38,156.265C424.512,156.314 423.602,156.35 422.688,156.383C422.227,156.401 421.788,156.424 421.314,156.438C419.906,156.477 418.454,156.5 416.941,156.5C403.025,156.5 392.512,154.857 385.687,152.838C380.604,151.167 376.965,149.341 376.558,147.924L376.558,140.662C376.936,141.977 380.132,143.652 384.666,145.223L384.574,144.78C391.398,146.795 403.025,149.236 416.941,149.236C418.456,149.236 419.91,149.212 421.319,149.174C421.778,149.159 422.209,149.137 422.658,149.12C423.585,149.086 424.509,149.049 425.391,149.001C425.895,148.97 426.373,148.935 426.863,148.9C427.644,148.847 428.422,148.792 429.166,148.726C429.651,148.683 430.122,148.636 430.592,148.586C431.295,148.516 431.986,148.44 432.654,148.36C433.101,148.305 433.538,148.248 433.971,148.19C434.619,148.102 435.249,148.009 435.862,147.911L444.498,145.971C445.21,145.747 445.872,145.519 446.489,145.286L448.161,144.595C448.303,144.53 448.428,144.466 448.564,144.401C448.919,144.233 449.262,144.063 449.573,143.892C449.714,143.816 449.84,143.738 449.97,143.661C450.242,143.504 450.499,143.346 450.731,143.189C450.85,143.109 450.962,143.028 451.071,142.947C451.278,142.795 451.468,142.644 451.638,142.496C451.731,142.414 451.821,142.333 451.905,142.254C452.056,142.107 452.185,141.964 452.302,141.821C452.367,141.744 452.433,141.665 452.487,141.59L452.82,141.007Z" style="fill:rgb(58,142,237);fill-rule:nonzero;"/>
        <path d="M434.291,87.99C433.238,88.175 432.189,88.314 431.136,88.459C430.594,88.522 430.052,88.619 429.488,88.663C428.517,88.78 427.52,88.871 426.52,88.962C425.871,89.013 425.222,89.079 424.575,89.104C423.306,89.195 422.012,89.265 420.713,89.309L420.066,89.331C418.558,89.406 417.019,89.428 415.423,89.45C415.101,89.45 414.777,89.45 414.427,89.45C399.256,89.45 383.979,87.039 376.558,82.433L376.558,143.431C376.962,144.845 380.576,146.674 385.627,148.343C392.454,150.358 402.98,152.004 416.91,152.004C442.362,152.004 452.944,146.259 452.944,143.176L453,81.876C449.031,84.448 442.606,86.645 434.291,87.99Z" style="fill:rgb(58,142,237);fill-rule:nonzero;"/>
        <g transform="matrix(1,0,0,1,396.079,124.16)">
            <g>
                <text x="0px" y="0px" style="font-family:'HelveticaNeue-Medium';font-size:20px;fill:white;">TUF</text>
            </g>
        </g>
        <path d="M339.761,58C343.218,58 346,60.622 346,63.84L346,157.129C346,160.354 343.218,163 339.761,163L267.465,163C264.005,163 261.223,160.354 261.223,157.129L261.223,63.84C261.223,60.622 264.005,58 267.465,58L339.761,58Z" style="fill:rgb(58,142,237);fill-rule:nonzero;"/>
        <g transform="matrix(1,0,0,1,276.211,153.94)">
            <g>
                <text x="0px" y="0px" style="font-family:'HelveticaNeue-Medium';font-size:20px;fill:white;">server</text>
            </g>
        </g>
        <path d="M332.954,79.714L274.257,79.714L274.257,73.189L332.954,73.189L332.954,79.714ZM332.954,91.278L274.257,91.278L274.257,84.753L332.954,84.753L332.954,91.278ZM332.954,102.323L274.257,102.323L274.257,95.803L332.954,95.803L332.954,102.323" style="fill:rgb(255,255,254);fill-rule:nonzero;"/>
        <path d="M638.394,110.198C637.832,110.336 637.262,110.472 636.655,110.604C636.335,110.67 635.995,110.736 638.394,110.198Z" style="fill:rgb(58,142,237);fill-rule:nonzero;"/>
        <path d="M636.953,64.5C644.805,64.5 651.514,65.079 657.031,66.008C668.851,67.951 675.155,71.31 675.155,73.372C675.155,75.431 668.851,78.815 657.031,80.764C651.514,81.668 644.805,82.269 636.953,82.269C612.257,82.269 598.777,76.385 598.777,73.372C598.777,70.362 612.257,64.5 636.953,64.5Z" style="fill:rgb(58,142,237);fill-rule:nonzero;"/>
        <path d="M675.155,73.372L675.155,77.868C675.155,79.927 668.851,83.311 657.031,85.254C651.514,86.157 644.805,86.765 636.953,86.765C612.257,86.765 598.777,80.881 598.777,77.868L598.777,73.372C598.777,76.385 612.257,82.269 636.953,82.269C644.805,82.269 651.514,81.668 657.031,80.764C668.851,78.815 675.155,75.431 675.155,73.372Z" style="fill:rgb(58,142,237);fill-rule:nonzero;"/>
        <path d="M675.155,73.372L675.155,77.868C675.155,77.928 675.148,77.994 675.138,78.053L675.138,73.561C675.148,73.498 675.155,73.438 675.155,73.372Z" style="fill:rgb(58,142,237);fill-rule:nonzero;"/>
        <path d="M675.138,73.561L675.138,78.053C675.123,78.135 675.1,78.22 675.067,78.308L675.067,73.81C675.1,73.728 675.123,73.643 675.138,73.561Z" style="fill:rgb(58,142,237);fill-rule:nonzero;"/>
        <path d="M675.067,73.81L675.067,78.308C675.019,78.431 674.955,78.554 674.87,78.683L674.87,74.187C674.955,74.058 675.019,73.932 675.067,73.81Z" style="fill:rgb(58,142,237);fill-rule:nonzero;"/>
        <path d="M674.87,74.187L674.87,78.683C673.521,80.739 667.397,83.55 657.031,85.254C651.514,86.157 644.805,86.765 636.953,86.765C612.257,86.765 598.777,80.881 598.777,77.868L598.777,73.372C598.777,76.385 612.257,82.269 636.953,82.269C644.805,82.269 651.514,81.668 657.031,80.764C667.397,79.058 673.521,76.243 674.87,74.187Z" style="fill:rgb(58,142,237);fill-rule:nonzero;"/>
        <path d="M675.097,141.007C675.179,140.797 675.221,140.598 675.221,140.407L675.221,147.672C675.221,147.757 675.214,147.839 675.199,147.921C675.179,148.028 675.148,148.138 675.108,148.255L675.097,148.272C675.093,148.286 675.081,148.303 675.074,148.317C675.017,148.451 674.953,148.586 674.862,148.727C674.839,148.761 674.802,148.798 674.777,148.834C674.71,148.927 674.629,149.023 674.547,149.118C674.445,149.24 674.337,149.361 674.211,149.487C674.108,149.588 673.994,149.69 673.875,149.793C673.729,149.917 673.572,150.042 673.405,150.166C673.263,150.271 673.117,150.377 672.958,150.484C672.769,150.611 672.56,150.737 672.346,150.863C672.169,150.97 671.993,151.076 671.798,151.183C671.555,151.315 671.284,151.446 671.015,151.576C670.807,151.678 670.61,151.779 670.386,151.88C670.059,152.028 669.693,152.172 669.33,152.318C669.123,152.401 668.936,152.484 668.719,152.567C668.13,152.786 667.499,153.005 666.823,153.218C666.602,153.287 666.35,153.354 666.118,153.422C665.632,153.566 665.145,153.709 664.619,153.847C664.305,153.931 663.963,154.008 663.634,154.088C663.145,154.207 662.655,154.325 662.134,154.438C661.762,154.518 661.37,154.594 660.981,154.67C660.456,154.773 659.924,154.875 659.367,154.973C658.946,155.047 658.509,155.116 658.07,155.186C657.496,155.277 656.905,155.363 656.297,155.447C655.838,155.51 655.37,155.57 654.891,155.63C654.249,155.707 653.586,155.778 652.91,155.846C652.421,155.897 651.932,155.947 651.422,155.992C650.696,156.056 649.938,156.11 649.176,156.163C648.671,156.198 648.179,156.235 647.657,156.265C646.79,156.314 645.879,156.35 644.966,156.383C644.505,156.401 644.065,156.424 643.591,156.438C642.184,156.477 640.732,156.5 639.218,156.5C625.302,156.5 614.789,154.857 607.964,152.838C602.882,151.167 599.243,149.341 598.835,147.924L598.835,140.662C599.213,141.977 602.41,143.652 606.943,145.223L606.851,144.78C613.675,146.795 625.302,149.236 639.218,149.236C640.733,149.236 642.187,149.212 643.597,149.174C644.055,149.159 644.487,149.137 644.935,149.12C645.862,149.086 646.786,149.049 647.668,149.001C648.172,148.97 648.651,148.935 649.14,148.9C649.921,148.847 650.699,148.792 651.443,148.726C651.929,148.683 652.4,148.636 652.87,148.586C653.573,148.516 654.263,148.44 654.931,148.36C655.378,148.305 655.816,148.248 656.248,148.19C656.896,148.102 657.526,148.009 658.139,147.911L666.776,145.971C667.487,145.747 668.149,145.519 668.766,145.286L670.439,144.595C670.58,144.53 670.705,144.466 670.841,144.401C671.197,144.233 671.539,144.063 671.85,143.892C671.992,143.816 672.117,143.738 672.248,143.661C672.519,143.504 672.776,143.346 673.009,143.189C673.127,143.109 673.24,143.028 673.348,142.947C673.555,142.795 673.746,142.644 673.915,142.496C674.009,142.414 674.099,142.333 674.182,142.254C674.333,142.107 674.462,141.964 674.58,141.821C674.644,141.744 674.71,141.665 674.765,141.59L675.097,141.007Z" style="fill:rgb(58,142,237);fill-rule:nonzero;"/>
        <path d="M656.568,87.99C655.516,88.175 654.466,88.314 653.413,88.459C652.872,88.522 652.329,88.619 651.766,88.663C650.794,88.78 649.798,88.871 648.797,88.962C648.148,89.013 647.499,89.079 646.852,89.104C645.584,89.195 644.29,89.265 642.99,89.309L642.343,89.331C640.835,89.406 639.296,89.428 637.7,89.45C637.379,89.45 637.055,89.45 636.705,89.45C621.533,89.45 606.257,87.039 598.835,82.433L598.835,143.431C599.239,144.845 602.853,146.674 607.904,148.343C614.732,150.358 625.258,152.004 639.188,152.004C664.639,152.004 675.221,146.259 675.221,143.176L675.277,81.876C671.308,84.448 664.884,86.645 656.568,87.99Z" style="fill:rgb(58,142,237);fill-rule:nonzero;"/>
        <path d="M642.693,115.3L631.449,115.3L631.486,106.639C631.481,101.329 637.108,101.349 637.108,101.349C642.489,101.365 642.729,106.639 642.729,106.639L642.693,115.3ZM648.034,115.3L648.034,106.639C647.455,100.932 642.751,96.5 637.108,96.5C631.449,96.5 626.739,100.91 626.18,106.639L626.18,115.3L620.527,115.3L620.527,134.5L653.527,134.5L653.527,115.3L648.034,115.3" style="fill:black;fill-rule:nonzero;"/>
        <path d="M96.797,142.89C97.985,142.89 98.932,141.795 98.932,140.44C98.932,139.107 97.985,138.003 96.797,138.003L74.619,138.003C73.432,138.003 72.47,139.107 72.47,140.44C72.47,141.795 73.432,142.89 74.619,142.89L96.797,142.89M99.153,131.897C102.111,131.897 104.5,134.616 104.5,137.99L104.5,142.89C104.5,146.264 102.111,149.001 99.153,149.001L39.832,149.001C36.89,149.001 34.5,146.264 34.5,142.89L34.5,137.99C34.5,134.616 36.89,131.897 39.832,131.897L99.153,131.897" style="fill:black;fill-rule:nonzero;"/>
        <path d="M98.726,115.708L98.726,81.226C98.726,79.696 97.639,78.455 96.291,78.455L42.633,78.455C41.303,78.455 40.213,79.696 40.213,81.226L40.213,115.708C40.213,117.241 41.303,118.486 42.633,118.486L96.291,118.486C97.639,118.486 98.726,117.241 98.726,115.708M96.291,71.999C100.751,71.999 104.392,76.145 104.392,81.226L104.392,115.708C104.392,120.792 100.751,124.939 96.291,124.939L42.633,124.939C38.172,124.939 34.55,120.792 34.55,115.708L34.55,81.226C34.55,76.145 38.172,71.999 42.633,71.999L96.291,71.999" style="fill:black;fill-rule:nonzero;"/>
        <g transform="matrix(1,0,0,1,48.998,103.5)">
            <g>
                <text x="0px" y="0px" style="font-family:'CourierNewPS-BoldMT';font-size:20px;fill:black;">&gt;_</text>
            </g>
        </g>
        <path d="M69.5,149.001L69,600" style="fill:none;stroke-width:1px;stroke:rgb(136,136,136);"/>
        <path d="M188.334,159L187.834,600" style="fill:none;stroke-width:1px;stroke:rgb(136,136,136);"/>
        <path d="M303.611,163L303.111,600" style="fill:none;stroke-width:1px;stroke:rgb(136,136,136);"/>
        <path d="M414.75,156.5L414.25,601.039" style="fill:none;stroke-width:1px;stroke:rgb(136,136,136);"/>
        <path d="M525.889,163L525.25,600" style="fill:none;stroke-width:1px;stroke:rgb(136,136,136);"/>
        <path d="M637.027,156.5L636.25,600" style="fill:none;stroke-width:1px;stroke:rgb(136,136,136);"/>
        <g id="id25_Graphic">
            <rect x="61" y="178" width="17" height="334.5" style="fill:rgb(107,124,165);"/>
            <rect x="61" y="178" width="17" height="334.5" style="fill:none;stroke-width:1px;stroke:black;"/>
        </g>
        <rect x="86" y="172" width="137" height="17" style="fill:white;"/>
        <g transform="matrix(1,0,0,1,86,186)">
            <g>
                <text x="0px" y="0px" style="font-family:'Helvetica';font-size:14px;fill:black;">Upload new metadata</text>
            </g>
        </g>
        <g id="id184261_Graphic">
            <rect x="295.069" y="178" width="17" height="41.5" style="fill:rgb(107,124,165);"/>
            <rect x="295.069" y="178" width="17" height="41.5" style="fill:none;stroke-width:1px;stroke:black;"/>
        </g>
        <path id="id8_Graphic" d="M78,188L281.74,188" style="fill:none;stroke-width:1px;stroke:black;"/>
        <rect x="176.724" y="196.358" width="109" height="17" style="fill:white;"/>
        <g transform="matrix(1,0,0,1,176.724,210.358)">
            <g>
                <text x="0px" y="0px" style="font-family:'Helvetica';font-size:14px;fill:black;">401 - please auth</text>
            </g>
        </g>
        <path id="id184263_Graphic" d="M295.069,212.583L91.329,212.974" style="fill:none;stroke-width:1px;stroke:black;"/>
        <g id="id184265_Graphic">
            <rect x="179.724" y="237.142" width="17" height="37.032" style="fill:rgb(107,124,165);"/>
            <rect x="179.724" y="237.142" width="17" height="37.032" style="fill:none;stroke-width:1px;stroke:black;"/>
        </g>
        <path id="id184266_Graphic" d="M78,244L166.396,243.404" style="fill:none;stroke-width:1px;stroke:black;"/>
        <rect x="96" y="252" width="79" height="17" style="fill:white;"/>
        <g transform="matrix(1,0,0,1,96,266)">
            <g>
                <text x="0px" y="0px" style="font-family:'Helvetica';font-size:14px;fill:black;">bearer token</text>
            </g>
        </g>
        <path id="id184267_Graphic" d="M179.724,268.003L91.329,268" style="fill:none;stroke-width:1px;stroke:black;"/>
        <rect x="295.069" y="278.5" width="17" height="47.5" style="fill:rgb(107,124,165);"/>
        <rect x="295.069" y="278.5" width="17" height="47.5" style="fill:none;stroke-width:1px;stroke:black;"/>
        <rect x="303.069" y="287.04" width="17" height="28.845" style="fill:rgb(218,218,218);"/>
        <rect x="303.069" y="287.04" width="17" height="28.845" style="fill:none;stroke-width:1px;stroke:black;"/>
        <path d="M319.348,289.469C330.066,281.409 342.944,272.675 346,267C349.757,260.023 340.655,250.834 335,253C329.345,255.166 319.712,271.001 312.069,280" style="fill:none;stroke-width:1px;stroke:black;"/>
        <rect x="311.694" y="232.218" width="100.772" height="24" style="fill:white;"/>
        <g transform="matrix(1,0,0,1,316.694,248.218)">
            <g>
                <text x="0px" y="0px" style="font-family:'Helvetica';font-size:12px;fill:black;">verify(metadata)</text>
            </g>
        </g>
        <g id="id184276_Graphic">
            <rect x="406.09" y="285.531" width="17" height="27" style="fill:rgb(107,124,165);"/>
            <rect x="406.09" y="285.531" width="17" height="27" style="fill:none;stroke-width:1px;stroke:black;"/>
        </g>
        <rect x="335" y="284.385" width="59" height="34" style="fill:white;"/>
        <g transform="matrix(1,0,0,1,335,284.385)">
            <g transform="matrix(1,0,0,1,19.769,14)">
                <text x="0px" y="0px" style="font-family:'Helvetica';font-size:14px;fill:black;">get</text>
            </g>
            <g transform="matrix(1,0,0,1,0.313965,31)">
                <text x="0px" y="0px" style="font-family:'Helvetica';font-size:14px;fill:black;">metadata</text>
            </g>
        </g>
        <rect x="294.844" y="341.122" width="17" height="171.378" style="fill:rgb(107,124,165);"/>
        <rect x="294.844" y="341.122" width="17" height="171.378" style="fill:none;stroke-width:1px;stroke:black;"/>
        <rect x="303.5" y="361.872" width="17" height="32.375" style="fill:rgb(218,218,218);"/>
        <rect x="303.5" y="361.872" width="17" height="32.375" style="fill:none;stroke-width:1px;stroke:black;"/>
        <path d="M329.736,376.452C343.829,376.049 360.734,377.089 365.378,371.836C371.044,365.427 363.884,342.758 355,338.553C346.116,334.348 326.378,343.919 312.069,346.602" style="fill:none;stroke-width:1px;stroke:black;"/>
        <rect x="317.45" y="334.27" width="137" height="24" style="fill:white;"/>
        <g transform="matrix(1,0,0,1,322.45,332.27)">
            <g transform="matrix(1,0,0,1,0,11)">
                <text x="0px" y="0px" style="font-family:'Helvetica';font-size:12px;fill:black;">generate(</text>
            </g>
            <g transform="matrix(1,0,0,1,0,25)">
                <text x="0px" y="0px" style="font-family:'Helvetica';font-size:12px;fill:black;">timestamp,snapshot)</text>
            </g>
        </g>
        <path id="id184286_Graphic" d="M313,405.748L502.672,406.918" style="fill:none;stroke-width:1px;stroke:black;"/>
        <rect x="516" y="395.766" width="17" height="56.748" style="fill:rgb(107,124,165);"/>
        <rect x="516" y="395.766" width="17" height="56.748" style="fill:none;stroke-width:1px;stroke:black;"/>
        <rect x="524" y="404.306" width="17" height="28.845" style="fill:rgb(218,218,218);"/>
        <rect x="524" y="404.306" width="17" height="28.845" style="fill:none;stroke-width:1px;stroke:black;"/>
        <path d="M540.825,413.192C550.642,407.476 562.256,401.651 563.738,396.438C565.626,389.797 549.861,377.863 544.738,378.001C539.616,378.139 536.912,390.845 533,397.266" style="fill:none;stroke-width:1px;stroke:black;"/>
        <rect x="499.07" y="352.356" width="134.466" height="24" style="fill:white;"/>
        <g transform="matrix(1,0,0,1,504.07,350.356)">
            <g transform="matrix(1,0,0,1,0,11)">
                <text x="0px" y="0px" style="font-family:'Helvetica';font-size:12px;fill:black;">sign(</text>
            </g>
            <g transform="matrix(1,0,0,1,0,25)">
                <text x="0px" y="0px" style="font-family:'Helvetica';font-size:12px;fill:black;">timestamp, snapshot)</text>
            </g>
        </g>
        <path id="id184293_Graphic" d="M555.398,423.197L613.693,424.146" style="fill:none;stroke-width:1px;stroke:black;"/>
        <g id="id184294_Graphic">
            <rect x="627.019" y="408.248" width="17" height="27" style="fill:rgb(107,124,165);"/>
            <rect x="627.019" y="408.248" width="17" height="27" style="fill:none;stroke-width:1px;stroke:black;"/>
        </g>
        <g transform="matrix(1,0,0,1,562.432,405.748)">
            <g transform="matrix(1,0,0,1,1.98975,14)">
                <text x="0px" y="0px" style="font-family:'Helvetica';font-size:14px;fill:black;">private</text>
            </g>
            <g transform="matrix(1,0,0,1,8.60693,31)">
                <text x="0px" y="0px" style="font-family:'Helvetica';font-size:14px;fill:black;">keys</text>
            </g>
        </g>
        <rect x="367" y="423.734" width="126" height="34" style="fill:white;"/>
        <g transform="matrix(1,0,0,1,367,423.734)">
            <g transform="matrix(1,0,0,1,0,14)">
                <text x="0px" y="0px" style="font-family:'Helvetica';font-size:14px;fill:black;">timestamp/snapshot</text>
            </g>
            <g transform="matrix(1,0,0,1,30.7036,31)">
                <text x="0px" y="0px" style="font-family:'Helvetica';font-size:14px;fill:black;">signatures</text>
            </g>
        </g>
        <path id="id184296_Graphic" d="M516,441.234L325.397,440.299" style="fill:none;stroke-width:1px;stroke:black;"/>
        <rect x="86" y="283.5" width="190" height="17" style="fill:white;"/>
        <g transform="matrix(1,0,0,1,86,283.5)">
            <g transform="matrix(1,0,0,1,0,14)">
                <text x="0px" y="0px" style="font-family:'Helvetica';font-size:14px;fill:black;">T</text>
            </g>
            <g transform="matrix(1,0,0,1,7,14)">
                <text x="0px" y="0px" style="font-family:'Helvetica';font-size:14px;fill:black;">oken + Upload new metadata</text>
            </g>
        </g>
        <path id="id184272_Graphic" d="M77.892,299.959L281.632,299.959" style="fill:none;stroke-width:1px;stroke:black;"/>
        <rect x="362.5" y="388.748" width="126" height="17" style="fill:white;"/>
        <g transform="matrix(1,0,0,1,362.5,402.748)">
            <g>
                <text x="0px" y="0px" style="font-family:'Helvetica';font-size:14px;fill:black;">timestamp/snapshot</text>
            </g>
        </g>
        <g id="id184301_Graphic">
            <rect x="405.884" y="468.188" width="17" height="27" style="fill:rgb(107,124,165);"/>
            <rect x="405.884" y="468.188" width="17" height="27" style="fill:none;stroke-width:1px;stroke:black;"/>
        </g>
        <rect x="320.5" y="464.688" width="59" height="34" style="fill:white;"/>
        <g transform="matrix(1,0,0,1,320.5,464.688)">
            <g transform="matrix(1,0,0,1,13.938,14)">
                <text x="0px" y="0px" style="font-family:'Helvetica';font-size:14px;fill:black;">store</text>
            </g>
            <g transform="matrix(1,0,0,1,0.313965,31)">
                <text x="0px" y="0px" style="font-family:'Helvetica';font-size:14px;fill:black;">metadata</text>
            </g>
        </g>
        <path id="id184300_Graphic" d="M312.069,481.188L392.759,481.596" style="fill:none;stroke-width:1px;stroke:black;"/>
        <rect x="229.5" y="485.688" width="48" height="17" style="fill:white;"/>
        <g transform="matrix(1,0,0,1,229.5,499.688)">
            <g>
                <text x="0px" y="0px" style="font-family:'Helvetica';font-size:14px;fill:black;">200 OK</text>
            </g>
        </g>
        <path id="id184303_Graphic" d="M294.961,502L91.221,502" style="fill:none;stroke-width:1px;stroke:black;"/>
        <g id="id184305_Graphic">
            <rect x="61.529" y="544.655" width="17" height="56.748" style="fill:rgb(107,124,165);"/>
            <rect x="61.529" y="544.655" width="17" height="56.748" style="fill:none;stroke-width:1px;stroke:black;"/>
        </g>
        <rect x="87.907" y="540.707" width="168" height="17" style="fill:white;"/>
        <g transform="matrix(1,0,0,1,87.9073,540.707)">
            <g transform="matrix(1,0,0,1,0,14)">
                <text x="0px" y="0px" style="font-family:'Helvetica';font-size:14px;fill:black;">T</text>
            </g>
            <g transform="matrix(1,0,0,1,7,14)">
                <text x="0px" y="0px" style="font-family:'Helvetica';font-size:14px;fill:black;">oken + Get new metadata</text>
            </g>
        </g>
        <path id="id184307_Graphic" d="M79.8,557.166L283.54,557.166" style="fill:none;stroke-width:1px;stroke:black;"/>
        <g id="id184308_Graphic">
            <rect x="294.643" y="543.812" width="17" height="56.748" style="fill:rgb(107,124,165);"/>
            <rect x="294.643" y="543.812" width="17" height="56.748" style="fill:none;stroke-width:1px;stroke:black;"/>
        </g>
        <g id="id184309_Graphic">
            <rect x="405.884" y="558.392" width="17" height="27" style="fill:rgb(107,124,165);"/>
            <rect x="405.884" y="558.392" width="17" height="27" style="fill:none;stroke-width:1px;stroke:black;"/>
        </g>
        <rect x="329.271" y="554.892" width="59" height="34" style="fill:white;"/>
        <g transform="matrix(1,0,0,1,329.271,554.892)">
            <g transform="matrix(1,0,0,1,19.769,14)">
                <text x="0px" y="0px" style="font-family:'Helvetica';font-size:14px;fill:black;">get</text>
            </g>
            <g transform="matrix(1,0,0,1,0.313965,31)">
                <text x="0px" y="0px" style="font-family:'Helvetica';font-size:14px;fill:black;">metadata</text>
            </g>
        </g>
        <path id="id184311_Graphic" d="M325.969,572L392.759,572" style="fill:none;stroke-width:1px;stroke:black;"/>
        <rect x="127" y="571.812" width="164" height="17" style="fill:white;"/>
        <g transform="matrix(1,0,0,1,127,585.812)">
            <g>
                <text x="0px" y="0px" style="font-family:'Helvetica';font-size:14px;fill:black;">200 OK + Latest metadata</text>
            </g>
        </g>
        <path id="id184313_Graphic" d="M294.248,588.812L90.508,588.812" style="fill:none;stroke-width:1px;stroke:black;"/>
        <path id="id7_Graphic" d="M334.468,301.593L392.759,301.924" style="fill:none;stroke-width:1px;stroke:black;"/>
        <ellipse cx="332.5" cy="199.087" rx="12" ry="11.087" style="fill:rgb(241,227,0);"/>
        <ellipse cx="332.5" cy="199.087" rx="12" ry="11.087" style="fill:none;stroke-width:1px;stroke:rgb(107,102,0);"/>
        <g transform="matrix(1,0,0,1,328.052,204.863)">
            <g>
                <text x="0px" y="0px" style="font-family:'HelveticaNeue-Medium';font-size:16px;fill:black;">1</text>
            </g>
        </g>
        <ellipse cx="213.449" cy="256.658" rx="12" ry="11.087" style="fill:rgb(241,227,0);"/>
        <ellipse cx="213.449" cy="256.658" rx="12" ry="11.087" style="fill:none;stroke-width:1px;stroke:rgb(107,102,0);"/>
        <g transform="matrix(1,0,0,1,209.001,262.434)">
            <g>
                <text x="0px" y="0px" style="font-family:'HelveticaNeue-Medium';font-size:16px;fill:black;">2</text>
            </g>
        </g>
        <ellipse cx="359.078" cy="274.587" rx="12" ry="11.087" style="fill:rgb(241,227,0);"/>
        <ellipse cx="359.078" cy="274.587" rx="12" ry="11.087" style="fill:none;stroke-width:1px;stroke:rgb(107,102,0);"/>
        <g transform="matrix(1,0,0,1,354.63,280.363)">
            <g>
                <text x="0px" y="0px" style="font-family:'HelveticaNeue-Medium';font-size:16px;fill:black;">3</text>
            </g>
        </g>
        <ellipse cx="382" cy="375.182" rx="12" ry="11.087" style="fill:rgb(241,227,0);"/>
        <ellipse cx="382" cy="375.182" rx="12" ry="11.087" style="fill:none;stroke-width:1px;stroke:rgb(107,102,0);"/>
        <g transform="matrix(1,0,0,1,377.552,380.958)">
            <g>
                <text x="0px" y="0px" style="font-family:'HelveticaNeue-Medium';font-size:16px;fill:black;">4</text>
            </g>
        </g>
        <ellipse cx="553.5" cy="451.321" rx="12" ry="11.087" style="fill:rgb(241,227,0);"/>
        <ellipse cx="553.5" cy="451.321" rx="12" ry="11.087" style="fill:none;stroke-width:1px;stroke:rgb(107,102,0);"/>
        <g transform="matrix(1,0,0,1,549.052,457.097)">
            <g>
                <text x="0px" y="0px" style="font-family:'HelveticaNeue-Medium';font-size:16px;fill:black;">5</text>
            </g>
        </g>
        <ellipse cx="279" cy="474.601" rx="12" ry="11.087" style="fill:rgb(241,227,0);"/>
        <ellipse cx="279" cy="474.601" rx="12" ry="11.087" style="fill:none;stroke-width:1px;stroke:rgb(107,102,0);"/>
        <g transform="matrix(1,0,0,1,274.552,480.377)">
            <g>
                <text x="0px" y="0px" style="font-family:'HelveticaNeue-Medium';font-size:16px;fill:black;">6</text>
            </g>
        </g>
        <ellipse cx="330.896" cy="549.207" rx="12" ry="11.087" style="fill:rgb(241,227,0);"/>
        <ellipse cx="330.896" cy="549.207" rx="12" ry="11.087" style="fill:none;stroke-width:1px;stroke:rgb(107,102,0);"/>
        <g transform="matrix(1,0,0,1,326.448,554.983)">
            <g>
                <text x="0px" y="0px" style="font-family:'HelveticaNeue-Medium';font-size:16px;fill:black;">7</text>
            </g>
        </g>
        <path d="M562.039,58C565.495,58 568.277,60.622 568.277,63.84L568.277,157.129C568.277,160.354 565.495,163 562.039,163L489.743,163C486.282,163 483.5,160.354 483.5,157.129L483.5,63.84C483.5,60.622 486.282,58 489.743,58L562.039,58Z" style="fill:rgb(58,142,237);fill-rule:nonzero;"/>
        <path d="M555.231,79.714L496.534,79.714L496.534,73.189L555.231,73.189L555.231,79.714ZM555.231,91.278L496.534,91.278L496.534,84.753L555.231,84.753L555.231,91.278ZM555.231,102.323L496.534,102.323L496.534,95.803L555.231,95.803L555.231,102.323" style="fill:rgb(255,255,254);fill-rule:nonzero;"/>
        <path d="M501.196,135.669C502.599,135.657 503.713,134.504 503.697,133.124C503.676,131.74 502.539,130.637 501.146,130.637C501.138,130.637 501.133,130.637 501.123,130.641C499.735,130.662 498.608,131.803 498.635,133.195C498.644,134.561 499.767,135.669 501.152,135.669C501.166,135.669 501.183,135.669 501.196,135.669M530.625,130.342L534.121,133.604L532.539,136.544L514.4,136.796C514.362,136.92 514.171,137.36 513.846,137.948C513.578,138.464 513.252,138.971 512.851,139.426C512.488,139.882 512.054,140.325 511.547,140.719C509.758,142.174 507.599,142.886 505.447,142.886C503.004,142.886 500.577,141.967 498.73,140.191C498.465,139.944 498.209,139.666 497.969,139.377C494.583,135.273 495.188,129.235 499.323,125.887C501.115,124.426 503.279,123.715 505.431,123.715C507.594,123.715 509.742,124.431 511.488,125.829C512.805,126.798 513.656,128.199 513.699,128.277L514.713,128.323L519.14,128.262L520.698,130.979L524.449,130.627L525.888,132.104L527.204,132.391L530.625,130.342" style="fill:black;fill-rule:nonzero;"/>
        <path d="M536.025,116.216C534.622,116.229 533.509,117.381 533.524,118.762C533.547,120.146 534.683,121.248 536.076,121.248C536.083,121.248 536.09,121.248 536.098,121.244C537.486,121.223 538.613,120.083 538.588,118.69C538.577,117.324 537.454,116.216 536.069,116.216C536.055,116.216 536.039,116.216 536.025,116.216M506.597,121.544L503.101,118.282L504.683,115.342L522.822,115.089C522.859,114.965 523.051,114.525 523.377,113.938C523.644,113.421 523.97,112.915 524.369,112.459C524.733,112.004 525.168,111.561 525.674,111.166C527.465,109.711 529.623,109 531.774,109C534.219,109 536.644,109.918 538.492,111.694C538.756,111.943 539.012,112.219 539.254,112.508C542.638,116.614 542.033,122.65 537.898,125.998C536.107,127.459 533.943,128.17 531.791,128.17C529.628,128.17 527.48,127.456 525.734,126.057C524.416,125.088 523.566,123.686 523.522,123.609L522.509,123.562L518.082,123.623L516.523,120.907L512.773,121.259L511.334,119.782L510.017,119.495L506.597,121.544" style="fill:white;fill-rule:nonzero;"/>
        <path d="M556,142.886C556,150.074 550.172,155.902 542.984,155.902C535.795,155.902 529.968,150.074 529.968,142.886C529.968,135.697 535.795,129.87 542.984,129.87C550.172,129.87 556,135.697 556,142.886Z" style="fill:white;fill-rule:nonzero;"/>
        <path d="M556,142.886C556,150.074 550.172,155.902 542.984,155.902C535.795,155.902 529.968,150.074 529.968,142.886C529.968,135.697 535.795,129.87 542.984,129.87C550.172,129.87 556,135.697 556,142.886Z" style="fill:none;stroke-width:1px;stroke-linecap:butt;stroke-linejoin:miter;stroke:rgb(46,47,45);"/>
        <path d="M544.053,134.71L543.984,146.085" style="fill:none;stroke-width:1px;stroke-linecap:butt;stroke-linejoin:miter;stroke:rgb(46,47,45);"/>
        <path d="M537.553,144.949L544.553,144.949" style="fill:none;stroke-width:1px;stroke:black;"/>
        <g transform="matrix(1,0,0,1,488.68,154.846)">
            <g>
                <text x="0px" y="0px" style="font-family:'HelveticaNeue-Medium';font-size:11px;fill:white;">(signer)</text>
            </g>
        </g>
        <g transform="matrix(1,0,0,1,387.663,148.346)">
            <g>
                <text x="0px" y="0px" style="font-family:'HelveticaNeue-Medium';font-size:11px;fill:white;">(server DB)</text>
            </g>
        </g>
        <g transform="matrix(1,0,0,1,610.039,148.346)">
            <g>
                <text x="0px" y="0px" style="font-family:'HelveticaNeue-Medium';font-size:11px;fill:white;">(signer DB)</text>
            </g>
        </g>
        <g transform="matrix(1,0,0,1,46.244,68.276)">
            <g>
                <text x="0px" y="0px" style="font-family:'HelveticaNeue-Medium';font-size:16px;fill:black;">(client)</text>
            </g>
        </g>
    </g>
</svg>
