<?xml version="1.0" encoding="UTF-8" standalone="no"?>
<svg
   version="1.1"
   viewBox="0 0 419 200"
   fill="none"
   stroke="none"
   stroke-linecap="square"
   stroke-miterlimit="10"
   id="svg99"
   sodipodi:docname="docker-heirarchy-org.svg"
   width="419"
   height="200"
   inkscape:version="1.2.2 (732a01da63, 2022-12-09)"
   xmlns:inkscape="http://www.inkscape.org/namespaces/inkscape"
   xmlns:sodipodi="http://sodipodi.sourceforge.net/DTD/sodipodi-0.dtd"
   xmlns="http://www.w3.org/2000/svg"
   xmlns:svg="http://www.w3.org/2000/svg">
  <defs
     id="defs103" />
  <sodipodi:namedview
     id="namedview101"
     pagecolor="#ffffff"
     bordercolor="#000000"
     borderopacity="0.25"
     inkscape:showpageshadow="2"
     inkscape:pageopacity="0.0"
     inkscape:pagecheckerboard="0"
     inkscape:deskcolor="#d1d1d1"
     showgrid="false"
     inkscape:zoom="1.2604167"
     inkscape:cx="461.35537"
     inkscape:cy="269.75207"
     inkscape:window-width="1920"
     inkscape:window-height="1009"
     inkscape:window-x="1912"
     inkscape:window-y="-8"
     inkscape:window-maximized="1"
     inkscape:current-layer="svg99" />
  <clipPath
     id="g252b81b6625_0_0.0">
    <path
       d="M 0,0 H 960 V 540 H 0 Z"
       clip-rule="nonzero"
       id="path2" />
  </clipPath>
  <g
     clip-path="url(#g252b81b6625_0_0.0)"
     id="g97"
     transform="translate(-250,-96)">
    <path
       fill="#000000"
       fill-opacity="0"
       d="M 0,0 H 960 V 540 H 0 Z"
       fill-rule="evenodd"
       id="path5" />
    <path
       fill="#ffffff"
       d="m 426.69028,113.7665 v 0 c 0,-2.59188 2.10114,-4.69301 4.69302,-4.69301 h 157.60608 c 1.24469,0 2.43836,0.49444 3.31849,1.37455 0.88012,0.88011 1.37457,2.0738 1.37457,3.31845 v 18.77147 c 0,2.59188 -2.10114,4.69301 -4.69306,4.69301 H 431.3833 c -2.59188,0 -4.69302,-2.10113 -4.69302,-4.69301 z"
       fill-rule="evenodd"
       id="path7" />
    <path
       stroke="#086dd7"
       stroke-width="1"
       stroke-linejoin="round"
       stroke-linecap="butt"
       d="m 426.69028,113.7665 v 0 c 0,-2.59188 2.10114,-4.69301 4.69302,-4.69301 h 157.60608 c 1.24469,0 2.43836,0.49444 3.31849,1.37455 0.88012,0.88011 1.37457,2.0738 1.37457,3.31845 v 18.77147 c 0,2.59188 -2.10114,4.69301 -4.69306,4.69301 H 431.3833 c -2.59188,0 -4.69302,-2.10113 -4.69302,-4.69301 z"
       fill-rule="evenodd"
       id="path9" />
    <path
       fill="#000000"
       d="m 457.03204,123.59848 q 0,2.51562 -0.875,4.40625 -0.85938,1.89062 -2.48438,2.90625 -1.60937,1.01562 -3.70312,1.01562 -2.07813,0 -3.70313,-1.01562 -1.60937,-1.01563 -2.5,-2.89063 -0.89062,-1.875 -0.89062,-4.32812 v -0.95313 q 0,-2.5 0.875,-4.40625 0.89062,-1.90625 2.5,-2.92187 1.60937,-1.01563 3.6875,-1.01563 2.09375,0 3.70312,1 1.60938,1 2.48438,2.89063 0.89062,1.875 0.90625,4.375 z m -2.96875,-0.89063 q 0,-2.82812 -1.07813,-4.34375 -1.0625,-1.51562 -3.03125,-1.51562 -1.92187,0 -3.01562,1.51562 -1.07813,1.5 -1.10938,4.25 v 0.98438 q 0,2.8125 1.09375,4.35937 1.10938,1.53125 3.04688,1.53125 1.96875,0 3.03125,-1.5 1.0625,-1.5 1.0625,-4.39062 z m 12.27344,-1.09375 q -0.5625,-0.0937 -1.15625,-0.0937 -1.95313,0 -2.64063,1.5 v 8.67188 h -2.84375 v -12.6875 h 2.71875 l 0.0781,1.42187 q 1.03125,-1.65625 2.85937,-1.65625 0.60938,0 1,0.17188 z m 1.08984,3.64063 q 0,-2.95313 1.375,-4.71875 1.39063,-1.76563 3.6875,-1.76563 2.17188,0 3.42188,1.51563 l 0.125,-1.28125 h 2.5625 v 12.29687 q 0,2.5 -1.5625,3.9375 -1.54688,1.45313 -4.17188,1.45313 -1.40625,0 -2.73437,-0.59375 -1.32813,-0.57813 -2.01563,-1.51563 l 1.34375,-1.70312 q 1.3125,1.5625 3.23438,1.5625 1.42187,0 2.23437,-0.78125 0.82813,-0.76563 0.82813,-2.25 v -0.85938 q -1.23438,1.375 -3.28125,1.375 -2.23438,0 -3.64063,-1.76562 -1.40625,-1.78125 -1.40625,-4.90625 z m 2.82813,0.25 q 0,1.90625 0.78125,3 0.78125,1.09375 2.15625,1.09375 1.73437,0 2.5625,-1.46875 v -5.57813 q -0.8125,-1.4375 -2.53125,-1.4375 -1.40625,0 -2.1875,1.10938 -0.78125,1.10937 -0.78125,3.28125 z m 18.83984,6.1875 q -0.1875,-0.35938 -0.32812,-1.1875 -1.35938,1.42187 -3.32813,1.42187 -1.90625,0 -3.10937,-1.09375 -1.20313,-1.09375 -1.20313,-2.6875 0,-2.03125 1.5,-3.10937 1.5,-1.09375 4.3125,-1.09375 h 1.73438 v -0.82813 q 0,-0.98437 -0.54688,-1.57812 -0.54687,-0.59375 -1.67187,-0.59375 -0.96875,0 -1.59375,0.48437 -0.625,0.48438 -0.625,1.23438 h -2.84375 q 0,-1.03125 0.6875,-1.9375 0.6875,-0.92188 1.875,-1.4375 1.20312,-0.51563 2.65625,-0.51563 2.23437,0 3.54687,1.125 1.32813,1.125 1.375,3.14063 v 5.71875 q 0,1.71875 0.46875,2.73437 v 0.20313 z m -3.125,-2.04688 q 0.84375,0 1.57813,-0.40625 0.75,-0.42187 1.125,-1.10937 v -2.39063 h -1.53125 q -1.57813,0 -2.375,0.54688 -0.79688,0.54687 -0.79688,1.5625 0,0.8125 0.54688,1.3125 0.54687,0.48437 1.45312,0.48437 z m 11.1875,-10.64062 0.0781,1.46875 q 1.40625,-1.70313 3.6875,-1.70313 3.96875,0 4.03125,4.54688 v 8.375 h -2.84375 v -8.21875 q 0,-1.20313 -0.53125,-1.78125 -0.51563,-0.57813 -1.70313,-0.57813 -1.71875,0 -2.5625,1.54688 v 9.03125 h -2.84375 v -12.6875 z m 13.72266,12.6875 h -2.84375 v -12.6875 h 2.84375 z m -3.01563,-15.96875 q 0,-0.65625 0.40625,-1.09375 0.42188,-0.4375 1.1875,-0.4375 0.78125,0 1.20313,0.4375 0.42187,0.4375 0.42187,1.09375 0,0.64062 -0.42187,1.07812 -0.42188,0.42188 -1.20313,0.42188 -0.76562,0 -1.1875,-0.42188 -0.40625,-0.4375 -0.40625,-1.07812 z m 9.16016,13.6875 h 6.75 v 2.28125 h -10.28125 v -1.85938 l 6.42187,-8.53125 h -6.3125 v -2.29687 h 9.92188 v 1.8125 z m 16.60156,2.28125 q -0.1875,-0.35938 -0.32813,-1.1875 -1.35937,1.42187 -3.32812,1.42187 -1.90625,0 -3.10938,-1.09375 -1.20312,-1.09375 -1.20312,-2.6875 0,-2.03125 1.5,-3.10937 1.5,-1.09375 4.3125,-1.09375 h 1.73437 v -0.82813 q 0,-0.98437 -0.54687,-1.57812 -0.54688,-0.59375 -1.67188,-0.59375 -0.96875,0 -1.59375,0.48437 -0.625,0.48438 -0.625,1.23438 h -2.84375 q 0,-1.03125 0.6875,-1.9375 0.6875,-0.92188 1.875,-1.4375 1.20313,-0.51563 2.65625,-0.51563 2.23438,0 3.54688,1.125 1.32812,1.125 1.375,3.14063 v 5.71875 q 0,1.71875 0.46875,2.73437 v 0.20313 z m -3.125,-2.04688 q 0.84375,0 1.57812,-0.40625 0.75,-0.42187 1.125,-1.10937 v -2.39063 h -1.53125 q -1.57812,0 -2.375,0.54688 -0.79687,0.54687 -0.79687,1.5625 0,0.8125 0.54687,1.3125 0.54688,0.48437 1.45313,0.48437 z m 12.10937,-13.71875 v 3.07813 h 2.23438 v 2.10937 h -2.23438 v 7.07813 q 0,0.73437 0.28125,1.0625 0.29688,0.3125 1.03125,0.3125 0.48438,0 1,-0.10938 v 2.20313 q -0.98437,0.26562 -1.875,0.26562 -3.28125,0 -3.28125,-3.625 v -7.1875 h -2.09375 v -2.10937 h 2.09375 v -3.07813 z m 7.4336,15.76563 h -2.84375 v -12.6875 h 2.84375 z m -3.01563,-15.96875 q 0,-0.65625 0.40625,-1.09375 0.42188,-0.4375 1.1875,-0.4375 0.78125,0 1.20313,0.4375 0.42187,0.4375 0.42187,1.09375 0,0.64062 -0.42187,1.07812 -0.42188,0.42188 -1.20313,0.42188 -0.76562,0 -1.1875,-0.42188 -0.40625,-0.4375 -0.40625,-1.07812 z m 5.58203,9.51562 q 0,-1.875 0.73438,-3.35937 0.75,-1.5 2.07812,-2.29688 1.34375,-0.8125 3.07813,-0.8125 2.5625,0 4.15625,1.65625 1.60937,1.65625 1.73437,4.39063 l 0.0156,0.65625 q 0,1.875 -0.71875,3.35937 -0.71875,1.46875 -2.0625,2.28125 -1.34375,0.8125 -3.10938,0.8125 -2.67187,0 -4.29687,-1.78125 -1.60938,-1.79687 -1.60938,-4.76562 z m 2.85938,0.23438 q 0,1.96875 0.79687,3.07812 0.8125,1.09375 2.25,1.09375 1.45313,0 2.25,-1.125 0.79688,-1.125 0.79688,-3.28125 0,-1.92187 -0.82813,-3.04687 -0.8125,-1.125 -2.23437,-1.125 -1.39063,0 -2.21875,1.10937 -0.8125,1.09375 -0.8125,3.29688 z m 13.99219,-6.46875 0.0781,1.46875 q 1.40625,-1.70313 3.6875,-1.70313 3.96875,0 4.03125,4.54688 v 8.375 h -2.84375 v -8.21875 q 0,-1.20313 -0.53125,-1.78125 -0.51562,-0.57813 -1.70312,-0.57813 -1.71875,0 -2.5625,1.54688 v 9.03125 h -2.84375 v -12.6875 z"
       fill-rule="nonzero"
       id="path11" />
    <path
       fill="#ffffff"
       d="m 258.7533,112.45932 h 123.37006 v 21.38582 H 258.7533 Z"
       fill-rule="evenodd"
       id="path13" />
    <path
       stroke="#086dd7"
       stroke-width="1"
       stroke-linejoin="round"
       stroke-linecap="butt"
       d="m 258.7533,112.45932 h 123.37006 v 21.38582 H 258.7533 Z"
       fill-rule="evenodd"
       id="path15" />
    <path
       fill="#000000"
       d="m 276.16782,123.68786 q 0,1.25 -0.42188,2.1875 -0.42187,0.92188 -1.20312,1.42188 -0.76563,0.5 -1.79688,0.5 -1,0 -1.78125,-0.5 -0.78125,-0.5 -1.21875,-1.40625 -0.42187,-0.92188 -0.4375,-2.14063 v -0.60937 q 0,-1.23438 0.42188,-2.17188 0.4375,-0.9375 1.21875,-1.4375 0.78125,-0.51562 1.79687,-0.51562 1.01563,0 1.79688,0.5 0.78125,0.5 1.20312,1.4375 0.42188,0.9375 0.42188,2.1875 z m -1.10938,-0.5625 q 0,-1.51562 -0.60937,-2.32812 -0.60938,-0.8125 -1.70313,-0.8125 -1.07812,0 -1.6875,0.8125 -0.60937,0.8125 -0.625,2.25 v 0.64062 q 0,1.46875 0.60938,2.3125 0.625,0.82813 1.70312,0.82813 1.09375,0 1.6875,-0.78125 0.60938,-0.79688 0.625,-2.28125 z m 5.70313,-0.82812 q -0.25,-0.0312 -0.53125,-0.0312 -1.07813,0 -1.45313,0.90625 v 4.5 h -1.07812 v -6.34375 h 1.04687 l 0.0156,0.73437 q 0.53125,-0.84375 1.51562,-0.84375 0.3125,0 0.48438,0.0781 z m 0.62109,2.15625 q 0,-1.48438 0.6875,-2.35938 0.6875,-0.875 1.8125,-0.875 1.15625,0 1.8125,0.8125 l 0.0469,-0.70312 h 1 v 6.1875 q 0,1.23436 -0.73438,1.93749 -0.73437,0.71875 -1.95312,0.71875 -0.6875,0 -1.34375,-0.29688 -0.65625,-0.29687 -1,-0.79687 l 0.5625,-0.65625 q 0.6875,0.85937 1.70312,0.85937 0.78125,0 1.21875,-0.45312 0.45313,-0.4375 0.45313,-1.24999 v -0.54688 q -0.65625,0.76563 -1.78125,0.76563 -1.10938,0 -1.79688,-0.89063 -0.6875,-0.90625 -0.6875,-2.45312 z m 1.09375,0.125 q 0,1.0625 0.4375,1.6875 0.4375,0.60937 1.23438,0.60937 1.01562,0 1.5,-0.9375 v -2.89062 q -0.5,-0.90625 -1.5,-0.90625 -0.78125,0 -1.23438,0.60937 -0.4375,0.60938 -0.4375,1.82813 z m 9.81055,3.09375 q -0.0937,-0.1875 -0.15625,-0.67188 -0.75,0.79688 -1.79687,0.79688 -0.9375,0 -1.54688,-0.53125 -0.59375,-0.53125 -0.59375,-1.35938 0,-0.98437 0.75,-1.53125 0.75,-0.54687 2.125,-0.54687 h 1.04688 v -0.5 q 0,-0.5625 -0.34375,-0.89063 -0.32813,-0.34375 -1,-0.34375 -0.57813,0 -0.96875,0.29688 -0.39063,0.28125 -0.39063,0.70312 h -1.09375 q 0,-0.48437 0.32813,-0.92187 0.34375,-0.4375 0.92187,-0.6875 0.57813,-0.26563 1.26563,-0.26563 1.10937,0 1.71875,0.54688 0.625,0.54687 0.65625,1.5 v 2.92187 q 0,0.875 0.21875,1.39063 v 0.0937 z m -1.79687,-0.82813 q 0.51562,0 0.96875,-0.26562 0.45312,-0.26563 0.65625,-0.6875 v -1.29688 h -0.84375 q -2,0 -2,1.17188 0,0.5 0.34375,0.79687 0.34375,0.28125 0.875,0.28125 z m 5.43359,-5.51562 0.0312,0.79687 q 0.73437,-0.90625 1.90625,-0.90625 2.01562,0 2.03125,2.26563 v 4.1875 h -1.09375 v -4.20313 q 0,-0.67187 -0.3125,-1 -0.29688,-0.32812 -0.95313,-0.32812 -0.53125,0 -0.9375,0.28125 -0.39062,0.28125 -0.60937,0.73437 v 4.51563 H 294.908 v -6.34375 z m 6.77734,6.34375 h -1.07812 v -6.34375 h 1.07812 z m -1.17187,-8.01563 q 0,-0.26562 0.15625,-0.45312 0.17187,-0.1875 0.48437,-0.1875 0.3125,0 0.46875,0.1875 0.17188,0.1875 0.17188,0.45312 0,0.25 -0.17188,0.4375 -0.15625,0.17188 -0.46875,0.17188 -0.3125,0 -0.48437,-0.17188 -0.15625,-0.1875 -0.15625,-0.4375 z m 3.92773,7.125 h 3.70313 v 0.89063 h -5.03125 v -0.79688 l 3.5,-4.64062 h -3.45313 v -0.90625 h 4.8125 v 0.76562 z m 8.83789,0.89063 q -0.0937,-0.1875 -0.15625,-0.67188 -0.75,0.79688 -1.79687,0.79688 -0.9375,0 -1.54688,-0.53125 -0.59375,-0.53125 -0.59375,-1.35938 0,-0.98437 0.75,-1.53125 0.75,-0.54687 2.125,-0.54687 h 1.04688 v -0.5 q 0,-0.5625 -0.34375,-0.89063 -0.32813,-0.34375 -1,-0.34375 -0.57813,0 -0.96875,0.29688 -0.39063,0.28125 -0.39063,0.70312 h -1.09375 q 0,-0.48437 0.32813,-0.92187 0.34375,-0.4375 0.92187,-0.6875 0.57813,-0.26563 1.26563,-0.26563 1.10937,0 1.71875,0.54688 0.625,0.54687 0.65625,1.5 v 2.92187 q 0,0.875 0.21875,1.39063 v 0.0937 z m -1.79687,-0.82813 q 0.51562,0 0.96875,-0.26562 0.45312,-0.26563 0.65625,-0.6875 v -1.29688 h -0.84375 q -2,0 -2,1.17188 0,0.5 0.34375,0.79687 0.34375,0.28125 0.875,0.28125 z m 5.88672,-7.04687 v 1.53125 h 1.17187 v 0.84375 h -1.17187 v 3.92187 q 0,0.39063 0.15625,0.57813 0.15625,0.1875 0.53125,0.1875 0.1875,0 0.51562,-0.0625 v 0.875 q -0.42187,0.125 -0.82812,0.125 -0.71875,0 -1.09375,-0.4375 -0.375,-0.45313 -0.375,-1.26563 v -3.92187 h -1.15625 v -0.84375 h 1.15625 v -1.53125 z m 3.62304,7.875 h -1.07812 v -6.34375 h 1.07812 z m -1.17187,-8.01563 q 0,-0.26562 0.15625,-0.45312 0.17187,-0.1875 0.48437,-0.1875 0.3125,0 0.46875,0.1875 0.17188,0.1875 0.17188,0.45312 0,0.25 -0.17188,0.4375 -0.15625,0.17188 -0.46875,0.17188 -0.3125,0 -0.48437,-0.17188 -0.15625,-0.1875 -0.15625,-0.4375 z m 2.61523,4.78125 q 0,-0.92187 0.35938,-1.67187 0.375,-0.75 1.03125,-1.14063 0.65625,-0.40625 1.48437,-0.40625 1.29688,0 2.09375,0.89063 0.8125,0.89062 0.8125,2.39062 v 0.0781 q 0,0.92187 -0.35937,1.65625 -0.35938,0.73437 -1.01563,1.15625 -0.65625,0.40625 -1.51562,0.40625 -1.28125,0 -2.09375,-0.89063 -0.79688,-0.90625 -0.79688,-2.39062 z m 1.09375,0.14063 q 0,1.04687 0.48438,1.6875 0.5,0.64062 1.3125,0.64062 0.82812,0 1.3125,-0.64062 0.48437,-0.65625 0.48437,-1.82813 0,-1.03125 -0.5,-1.67187 -0.48437,-0.65625 -1.3125,-0.65625 -0.79687,0 -1.29687,0.64062 -0.48438,0.625 -0.48438,1.82813 z m 7.0625,-3.25 0.0312,0.79687 q 0.73438,-0.90625 1.90625,-0.90625 2.01563,0 2.03125,2.26563 v 4.1875 h -1.09375 v -4.20313 q 0,-0.67187 -0.3125,-1 -0.29687,-0.32812 -0.95312,-0.32812 -0.53125,0 -0.9375,0.28125 -0.39063,0.28125 -0.60938,0.73437 v 4.51563 h -1.07812 v -6.34375 z m 8.2793,3.10937 q 0,-0.92187 0.35938,-1.67187 0.375,-0.75 1.03125,-1.14063 0.65625,-0.40625 1.48437,-0.40625 1.29688,0 2.09375,0.89063 0.8125,0.89062 0.8125,2.39062 v 0.0781 q 0,0.92187 -0.35937,1.65625 -0.35938,0.73437 -1.01563,1.15625 -0.65625,0.40625 -1.51562,0.40625 -1.28125,0 -2.09375,-0.89063 -0.79688,-0.90625 -0.79688,-2.39062 z m 1.09375,0.14063 q 0,1.04687 0.48438,1.6875 0.5,0.64062 1.3125,0.64062 0.82812,0 1.3125,-0.64062 0.48437,-0.65625 0.48437,-1.82813 0,-1.03125 -0.5,-1.67187 -0.48437,-0.65625 -1.3125,-0.65625 -0.79687,0 -1.29687,0.64062 -0.48438,0.625 -0.48438,1.82813 z m 11.65625,1.59375 1.21875,-4.84375 h 1.07813 l -1.84375,6.34375 h -0.875 l -1.54688,-4.8125 -1.5,4.8125 h -0.875 l -1.84375,-6.34375 h 1.07813 l 1.25,4.75 1.48437,-4.75 h 0.85938 z m 4.42383,-4.84375 0.0312,0.79687 q 0.73437,-0.90625 1.90625,-0.90625 2.01562,0 2.03125,2.26563 v 4.1875 h -1.09375 v -4.20313 q 0,-0.67187 -0.3125,-1 -0.29688,-0.32812 -0.95313,-0.32812 -0.53125,0 -0.9375,0.28125 -0.39062,0.28125 -0.60937,0.73437 v 4.51563 h -1.07813 v -6.34375 z m 8.23047,6.46875 q -1.29688,0 -2.10938,-0.84375 -0.79687,-0.85938 -0.79687,-2.28125 v -0.1875 q 0,-0.95313 0.35937,-1.6875 0.35938,-0.75 1,-1.15625 0.65625,-0.42188 1.40625,-0.42188 1.23438,0 1.92188,0.8125 0.6875,0.8125 0.6875,2.32813 v 0.45312 h -4.29688 q 0.0312,0.9375 0.54688,1.51563 0.53125,0.57812 1.34375,0.57812 0.5625,0 0.95312,-0.23437 0.40625,-0.23438 0.71875,-0.625 l 0.65625,0.51562 q -0.79687,1.23438 -2.39062,1.23438 z m -0.14063,-5.6875 q -0.65625,0 -1.10937,0.48437 -0.4375,0.46875 -0.53125,1.32813 h 3.17187 v -0.0781 q -0.0469,-0.82812 -0.45312,-1.28125 -0.39063,-0.45312 -1.07813,-0.45312 z m 6.93555,0.1875 q -0.25,-0.0312 -0.53125,-0.0312 -1.07813,0 -1.45313,0.90625 v 4.5 h -1.07812 v -6.34375 h 1.04687 l 0.0156,0.73437 q 0.53125,-0.84375 1.51562,-0.84375 0.3125,0 0.48438,0.0781 z"
       fill-rule="nonzero"
       id="path17" />
    <path
       fill="#000000"
       fill-opacity="0"
       d="m 382.12335,123.15223 h 44.56693"
       fill-rule="evenodd"
       id="path19" />
    <path
       stroke="#8993a5"
       stroke-width="2"
       stroke-linejoin="round"
       stroke-linecap="butt"
       stroke-dasharray="2, 6"
       d="m 382.12335,123.15223 h 32.56693"
       fill-rule="evenodd"
       id="path21" />
    <path
       fill="#8993a5"
       stroke="#8993a5"
       stroke-width="2"
       stroke-linecap="butt"
       d="m 414.69028,126.4557 9.0762,-3.30347 -9.0762,-3.30347 z"
       fill-rule="evenodd"
       id="path23" />
    <path
       fill="#ffffff"
       d="m 400.6404,184.94235 v 0 c 0,-2.59187 2.10114,-4.69301 4.69302,-4.69301 h 77.16516 c 1.24466,0 2.43836,0.49445 3.31845,1.37456 0.88013,0.8801 1.37455,2.07379 1.37455,3.31845 v 18.77147 c 0,2.59187 -2.10111,4.69301 -4.693,4.69301 h -77.16516 c -2.59188,0 -4.69302,-2.10114 -4.69302,-4.69301 z"
       fill-rule="evenodd"
       id="path25" />
    <path
       stroke="#086dd7"
       stroke-width="1"
       stroke-linejoin="round"
       stroke-linecap="butt"
       d="m 400.6404,184.94235 v 0 c 0,-2.59187 2.10114,-4.69301 4.69302,-4.69301 h 77.16516 c 1.24466,0 2.43836,0.49445 3.31845,1.37456 0.88013,0.8801 1.37455,2.07379 1.37455,3.31845 v 18.77147 c 0,2.59187 -2.10111,4.69301 -4.693,4.69301 h -77.16516 c -2.59188,0 -4.69302,-2.10114 -4.69302,-4.69301 z"
       fill-rule="evenodd"
       id="path27" />
    <path
       fill="#000000"
       d="m 427.84375,188.19621 h -5.3125 v 14.67187 h -2.95313 v -14.67187 h -5.26562 v -2.39063 h 13.53125 z m 6.50781,14.90625 q -2.70312,0 -4.39062,-1.70313 -1.6875,-1.70312 -1.6875,-4.54687 v -0.34375 q 0,-1.90625 0.73437,-3.39063 0.73438,-1.5 2.0625,-2.32812 1.32813,-0.84375 2.95313,-0.84375 2.59375,0 4,1.65625 1.40625,1.65625 1.40625,4.67187 v 1.15625 h -8.28125 q 0.125,1.5625 1.04687,2.48438 0.92188,0.90625 2.3125,0.90625 1.96875,0 3.1875,-1.57813 l 1.54688,1.46875 q -0.76563,1.14063 -2.04688,1.76563 -1.26562,0.625 -2.84375,0.625 z m -0.34375,-10.85938 q -1.17187,0 -1.89062,0.82813 -0.71875,0.8125 -0.92188,2.26562 h 5.42188 v -0.20312 q -0.0937,-1.4375 -0.76563,-2.15625 -0.65625,-0.73438 -1.84375,-0.73438 z m 15.20703,10.625 q -0.1875,-0.35937 -0.32812,-1.1875 -1.35938,1.42188 -3.32813,1.42188 -1.90625,0 -3.10937,-1.09375 -1.20313,-1.09375 -1.20313,-2.6875 0,-2.03125 1.5,-3.10938 1.5,-1.09375 4.3125,-1.09375 h 1.73438 v -0.82812 q 0,-0.98438 -0.54688,-1.57813 -0.54687,-0.59375 -1.67187,-0.59375 -0.96875,0 -1.59375,0.48438 -0.625,0.48437 -0.625,1.23437 h -2.84375 q 0,-1.03125 0.6875,-1.9375 0.6875,-0.92187 1.875,-1.4375 1.20312,-0.51562 2.65625,-0.51562 2.23437,0 3.54687,1.125 1.32813,1.125 1.375,3.14062 v 5.71875 q 0,1.71875 0.46875,2.73438 v 0.20312 z m -3.125,-2.04687 q 0.84375,0 1.57813,-0.40625 0.75,-0.42188 1.125,-1.10938 v -2.39062 h -1.53125 q -1.57813,0 -2.375,0.54687 -0.79688,0.54688 -0.79688,1.5625 0,0.8125 0.54688,1.3125 0.54687,0.48438 1.45312,0.48438 z m 11.21875,-10.64063 0.0781,1.32813 q 1.34375,-1.5625 3.65625,-1.5625 2.54687,0 3.48437,1.95312 1.375,-1.95312 3.89063,-1.95312 2.09375,0 3.10937,1.17187 1.03125,1.15625 1.0625,3.42188 v 8.32812 h -2.84375 v -8.25 q 0,-1.20312 -0.53125,-1.76562 -0.53125,-0.5625 -1.75,-0.5625 -0.96875,0 -1.59375,0.51562 -0.60937,0.51563 -0.85937,1.35938 l 0.0156,8.70312 h -2.84375 v -8.34375 q -0.0625,-2.23437 -2.28125,-2.23437 -1.71875,0 -2.4375,1.39062 v 9.1875 h -2.84375 v -12.6875 z"
       fill-rule="nonzero"
       id="path29" />
    <path
       fill="#ffffff"
       d="m 543.6378,184.94235 v 0 c 0,-2.59187 2.10114,-4.69301 4.69299,-4.69301 h 77.16516 c 1.24469,0 2.43836,0.49445 3.31848,1.37456 0.88007,0.8801 1.37452,2.07379 1.37452,3.31845 v 18.77147 c 0,2.59187 -2.10114,4.69301 -4.693,4.69301 h -77.16516 c -2.59185,0 -4.69299,-2.10114 -4.69299,-4.69301 z"
       fill-rule="evenodd"
       id="path31" />
    <path
       stroke="#086dd7"
       stroke-width="1"
       stroke-linejoin="round"
       stroke-linecap="butt"
       d="m 543.6378,184.94235 v 0 c 0,-2.59187 2.10114,-4.69301 4.69299,-4.69301 h 77.16516 c 1.24469,0 2.43836,0.49445 3.31848,1.37456 0.88007,0.8801 1.37452,2.07379 1.37452,3.31845 v 18.77147 c 0,2.59187 -2.10114,4.69301 -4.693,4.69301 h -77.16516 c -2.59185,0 -4.69299,-2.10114 -4.69299,-4.69301 z"
       fill-rule="evenodd"
       id="path33" />
    <path
       fill="#000000"
       d="m 570.8411,188.19621 h -5.3125 v 14.67187 h -2.95313 v -14.67187 h -5.26562 v -2.39063 h 13.53125 z m 6.50781,14.90625 q -2.70312,0 -4.39062,-1.70313 -1.6875,-1.70312 -1.6875,-4.54687 v -0.34375 q 0,-1.90625 0.73437,-3.39063 0.73438,-1.5 2.0625,-2.32812 1.32813,-0.84375 2.95313,-0.84375 2.59375,0 4,1.65625 1.40625,1.65625 1.40625,4.67187 v 1.15625 h -8.28125 q 0.125,1.5625 1.04687,2.48438 0.92188,0.90625 2.3125,0.90625 1.96875,0 3.1875,-1.57813 l 1.54688,1.46875 q -0.76563,1.14063 -2.04688,1.76563 -1.26562,0.625 -2.84375,0.625 z m -0.34375,-10.85938 q -1.17187,0 -1.89062,0.82813 -0.71875,0.8125 -0.92188,2.26562 h 5.42188 v -0.20312 q -0.0937,-1.4375 -0.76563,-2.15625 -0.65625,-0.73438 -1.84375,-0.73438 z m 15.20703,10.625 q -0.1875,-0.35937 -0.32812,-1.1875 -1.35938,1.42188 -3.32813,1.42188 -1.90625,0 -3.10937,-1.09375 -1.20313,-1.09375 -1.20313,-2.6875 0,-2.03125 1.5,-3.10938 1.5,-1.09375 4.3125,-1.09375 h 1.73438 v -0.82812 q 0,-0.98438 -0.54688,-1.57813 -0.54687,-0.59375 -1.67187,-0.59375 -0.96875,0 -1.59375,0.48438 -0.625,0.48437 -0.625,1.23437 h -2.84375 q 0,-1.03125 0.6875,-1.9375 0.6875,-0.92187 1.875,-1.4375 1.20312,-0.51562 2.65625,-0.51562 2.23437,0 3.54687,1.125 1.32813,1.125 1.375,3.14062 v 5.71875 q 0,1.71875 0.46875,2.73438 v 0.20312 z m -3.125,-2.04687 q 0.84375,0 1.57813,-0.40625 0.75,-0.42188 1.125,-1.10938 v -2.39062 h -1.53125 q -1.57813,0 -2.375,0.54687 -0.79688,0.54688 -0.79688,1.5625 0,0.8125 0.54688,1.3125 0.54687,0.48438 1.45312,0.48438 z m 11.21875,-10.64063 0.0781,1.32813 q 1.34375,-1.5625 3.65625,-1.5625 2.54687,0 3.48437,1.95312 1.375,-1.95312 3.89063,-1.95312 2.09375,0 3.10937,1.17187 1.03125,1.15625 1.0625,3.42188 v 8.32812 h -2.84375 v -8.25 q 0,-1.20312 -0.53125,-1.76562 -0.53125,-0.5625 -1.75,-0.5625 -0.96875,0 -1.59375,0.51562 -0.60937,0.51563 -0.85937,1.35938 l 0.0156,8.70312 h -2.84375 v -8.34375 q -0.0625,-2.23437 -2.28125,-2.23437 -1.71875,0 -2.4375,1.39062 v 9.1875 h -2.84375 v -12.6875 z"
       fill-rule="nonzero"
       id="path35" />
    <path
       fill="#000000"
       fill-opacity="0"
       d="m 510.18634,137.23097 -66.2677,43.02362"
       fill-rule="evenodd"
       id="path37" />
    <path
       stroke="#8993a5"
       stroke-width="2"
       stroke-linejoin="round"
       stroke-linecap="butt"
       d="m 510.18634,137.23097 -56.20288,36.48915"
       fill-rule="evenodd"
       id="path39" />
    <path
       fill="#8993a5"
       stroke="#8993a5"
       stroke-width="2"
       stroke-linecap="butt"
       d="m 452.1846,170.94939 -5.81366,7.71307 9.41138,-2.17161 z"
       fill-rule="evenodd"
       id="path41" />
    <path
       fill="#000000"
       fill-opacity="0"
       d="m 510.18896,137.22572 76.72443,43.02362"
       fill-rule="evenodd"
       id="path43" />
    <path
       stroke="#8993a5"
       stroke-width="2"
       stroke-linejoin="round"
       stroke-linecap="butt"
       d="m 510.18896,137.22572 66.25775,37.15436"
       fill-rule="evenodd"
       id="path45" />
    <path
       fill="#8993a5"
       stroke="#8993a5"
       stroke-width="2"
       stroke-linecap="butt"
       d="m 574.83093,177.26144 9.53223,1.55785 -6.30072,-7.32058 z"
       fill-rule="evenodd"
       id="path47" />
    <path
       fill="#ffffff"
       d="m 377.021,251.66142 h 66.58267 v 21.38582 H 377.021 Z"
       fill-rule="evenodd"
       id="path49" />
    <path
       stroke="#086dd7"
       stroke-width="1"
       stroke-linejoin="round"
       stroke-linecap="butt"
       d="m 377.021,251.66142 h 66.58267 v 21.38582 H 377.021 Z"
       fill-rule="evenodd"
       id="path51" />
    <path
       fill="#000000"
       d="m 390.49887,258.34308 2.79687,6.95312 2.78125,-6.95312 h 1.46875 v 8.53125 h -1.125 v -3.32813 l 0.10938,-3.57812 -2.8125,6.90625 h -0.85938 l -2.79687,-6.89063 0.10937,3.5625 v 3.32813 h -1.125 v -8.53125 z m 11.49219,8.65625 q -1.29688,0 -2.10938,-0.84375 -0.79687,-0.85938 -0.79687,-2.28125 v -0.1875 q 0,-0.95313 0.35937,-1.6875 0.35938,-0.75 1,-1.15625 0.65625,-0.42188 1.40625,-0.42188 1.23438,0 1.92188,0.8125 0.6875,0.8125 0.6875,2.32813 v 0.45312 h -4.29688 q 0.0312,0.9375 0.54688,1.51563 0.53125,0.57812 1.34375,0.57812 0.5625,0 0.95312,-0.23437 0.40625,-0.23438 0.71875,-0.625 l 0.65625,0.51562 q -0.79687,1.23438 -2.39062,1.23438 z m -0.14063,-5.6875 q -0.65625,0 -1.10937,0.48437 -0.4375,0.46875 -0.53125,1.32813 h 3.17187 v -0.0781 q -0.0469,-0.82812 -0.45312,-1.28125 -0.39063,-0.45312 -1.07813,-0.45312 z m 4.88867,-0.78125 0.0312,0.70312 q 0.6875,-0.8125 1.875,-0.8125 1.32813,0 1.8125,1.01563 0.3125,-0.45313 0.8125,-0.73438 0.51563,-0.28125 1.20313,-0.28125 2.09375,0 2.125,2.20313 v 4.25 h -1.07813 v -4.1875 q 0,-0.67188 -0.3125,-1 -0.3125,-0.34375 -1.04687,-0.34375 -0.60938,0 -1.01563,0.35937 -0.39062,0.35938 -0.45312,0.96875 v 4.20313 h -1.07813 v -4.15625 q 0,-1.375 -1.35937,-1.375 -1.0625,0 -1.45313,0.90625 v 4.625 h -1.09375 v -6.34375 z m 14.86133,3.25 q 0,1.45312 -0.67187,2.34375 -0.65625,0.875 -1.78125,0.875 -1.20313,0 -1.85938,-0.85938 l -0.0625,0.73438 h -0.98437 v -9 h 1.07812 v 3.35937 q 0.65625,-0.8125 1.8125,-0.8125 1.15625,0 1.8125,0.875 0.65625,0.85938 0.65625,2.39063 z m -1.07812,-0.125 q 0,-1.10938 -0.4375,-1.70313 -0.42188,-0.60937 -1.21875,-0.60937 -1.07813,0 -1.54688,0.98437 v 2.75 q 0.5,1 1.54688,1 0.78125,0 1.21875,-0.60937 0.4375,-0.60938 0.4375,-1.8125 z m 5.07617,3.34375 q -1.29688,0 -2.10938,-0.84375 -0.79687,-0.85938 -0.79687,-2.28125 v -0.1875 q 0,-0.95313 0.35937,-1.6875 0.35938,-0.75 1,-1.15625 0.65625,-0.42188 1.40625,-0.42188 1.23438,0 1.92188,0.8125 0.6875,0.8125 0.6875,2.32813 v 0.45312 h -4.29688 q 0.0312,0.9375 0.54688,1.51563 0.53125,0.57812 1.34375,0.57812 0.5625,0 0.95312,-0.23437 0.40625,-0.23438 0.71875,-0.625 l 0.65625,0.51562 q -0.79687,1.23438 -2.39062,1.23438 z m -0.14063,-5.6875 q -0.65625,0 -1.10937,0.48437 -0.4375,0.46875 -0.53125,1.32813 h 3.17187 v -0.0781 q -0.0469,-0.82812 -0.45312,-1.28125 -0.39063,-0.45312 -1.07813,-0.45312 z m 6.93555,0.1875 q -0.25,-0.0312 -0.53125,-0.0312 -1.07812,0 -1.45312,0.90625 v 4.5 h -1.07813 v -6.34375 h 1.04688 l 0.0156,0.73437 q 0.53125,-0.84375 1.51563,-0.84375 0.3125,0 0.48437,0.0781 z"
       fill-rule="nonzero"
       id="path53" />
    <path
       fill="#ffffff"
       d="m 443.60367,251.66142 h 66.58267 v 21.38582 h -66.58267 z"
       fill-rule="evenodd"
       id="path55" />
    <path
       stroke="#086dd7"
       stroke-width="1"
       stroke-linejoin="round"
       stroke-linecap="butt"
       d="m 443.60367,251.66142 h 66.58267 v 21.38582 h -66.58267 z"
       fill-rule="evenodd"
       id="path57" />
    <path
       fill="#000000"
       d="m 457.08154,258.34308 2.79688,6.95312 2.78125,-6.95312 h 1.46875 v 8.53125 h -1.125 v -3.32813 l 0.10937,-3.57812 -2.8125,6.90625 h -0.85937 l -2.79688,-6.89063 0.10938,3.5625 v 3.32813 h -1.125 v -8.53125 z m 11.49219,8.65625 q -1.29688,0 -2.10938,-0.84375 -0.79687,-0.85938 -0.79687,-2.28125 v -0.1875 q 0,-0.95313 0.35937,-1.6875 0.35938,-0.75 1,-1.15625 0.65625,-0.42188 1.40625,-0.42188 1.23438,0 1.92188,0.8125 0.6875,0.8125 0.6875,2.32813 v 0.45312 h -4.29688 q 0.0312,0.9375 0.54688,1.51563 0.53125,0.57812 1.34375,0.57812 0.5625,0 0.95312,-0.23437 0.40625,-0.23438 0.71875,-0.625 l 0.65625,0.51562 q -0.79687,1.23438 -2.39062,1.23438 z m -0.14063,-5.6875 q -0.65625,0 -1.10937,0.48437 -0.4375,0.46875 -0.53125,1.32813 h 3.17187 v -0.0781 q -0.0469,-0.82812 -0.45312,-1.28125 -0.39063,-0.45312 -1.07813,-0.45312 z m 4.88867,-0.78125 0.0312,0.70312 q 0.6875,-0.8125 1.875,-0.8125 1.32813,0 1.8125,1.01563 0.3125,-0.45313 0.8125,-0.73438 0.51563,-0.28125 1.20313,-0.28125 2.09375,0 2.125,2.20313 v 4.25 h -1.07813 v -4.1875 q 0,-0.67188 -0.3125,-1 -0.3125,-0.34375 -1.04687,-0.34375 -0.60938,0 -1.01563,0.35937 -0.39062,0.35938 -0.45312,0.96875 v 4.20313 h -1.07813 v -4.15625 q 0,-1.375 -1.35937,-1.375 -1.0625,0 -1.45313,0.90625 v 4.625 h -1.09375 v -6.34375 z m 14.86133,3.25 q 0,1.45312 -0.67187,2.34375 -0.65625,0.875 -1.78125,0.875 -1.20313,0 -1.85938,-0.85938 l -0.0625,0.73438 h -0.98437 v -9 h 1.07812 v 3.35937 q 0.65625,-0.8125 1.8125,-0.8125 1.15625,0 1.8125,0.875 0.65625,0.85938 0.65625,2.39063 z m -1.07812,-0.125 q 0,-1.10938 -0.4375,-1.70313 -0.42188,-0.60937 -1.21875,-0.60937 -1.07813,0 -1.54688,0.98437 v 2.75 q 0.5,1 1.54688,1 0.78125,0 1.21875,-0.60937 0.4375,-0.60938 0.4375,-1.8125 z m 5.07617,3.34375 q -1.29688,0 -2.10938,-0.84375 -0.79687,-0.85938 -0.79687,-2.28125 v -0.1875 q 0,-0.95313 0.35937,-1.6875 0.35938,-0.75 1,-1.15625 0.65625,-0.42188 1.40625,-0.42188 1.23438,0 1.92188,0.8125 0.6875,0.8125 0.6875,2.32813 v 0.45312 h -4.29688 q 0.0312,0.9375 0.54688,1.51563 0.53125,0.57812 1.34375,0.57812 0.5625,0 0.95312,-0.23437 0.40625,-0.23438 0.71875,-0.625 l 0.65625,0.51562 q -0.79687,1.23438 -2.39062,1.23438 z m -0.14063,-5.6875 q -0.65625,0 -1.10937,0.48437 -0.4375,0.46875 -0.53125,1.32813 h 3.17187 v -0.0781 q -0.0469,-0.82812 -0.45312,-1.28125 -0.39063,-0.45312 -1.07813,-0.45312 z m 6.93555,0.1875 q -0.25,-0.0312 -0.53125,-0.0312 -1.07812,0 -1.45312,0.90625 v 4.5 h -1.07813 v -6.34375 h 1.04688 l 0.0156,0.73437 q 0.53125,-0.84375 1.51563,-0.84375 0.3125,0 0.48437,0.0781 z"
       fill-rule="nonzero"
       id="path59" />
    <path
       fill="#ffffff"
       d="m 520.3307,251.66142 h 66.5827 v 21.38582 h -66.5827 z"
       fill-rule="evenodd"
       id="path61" />
    <path
       stroke="#086dd7"
       stroke-width="1"
       stroke-linejoin="round"
       stroke-linecap="butt"
       d="m 520.3307,251.66142 h 66.5827 v 21.38582 h -66.5827 z"
       fill-rule="evenodd"
       id="path63" />
    <path
       fill="#000000"
       d="m 533.8086,258.34308 2.79687,6.95312 2.78125,-6.95312 h 1.46875 v 8.53125 h -1.125 v -3.32813 l 0.10938,-3.57812 -2.8125,6.90625 h -0.85938 l -2.79687,-6.89063 0.10937,3.5625 v 3.32813 h -1.125 v -8.53125 z m 11.49219,8.65625 q -1.29688,0 -2.10938,-0.84375 -0.79687,-0.85938 -0.79687,-2.28125 v -0.1875 q 0,-0.95313 0.35937,-1.6875 0.35938,-0.75 1,-1.15625 0.65625,-0.42188 1.40625,-0.42188 1.23438,0 1.92188,0.8125 0.6875,0.8125 0.6875,2.32813 v 0.45312 h -4.29688 q 0.0312,0.9375 0.54688,1.51563 0.53125,0.57812 1.34375,0.57812 0.5625,0 0.95312,-0.23437 0.40625,-0.23438 0.71875,-0.625 l 0.65625,0.51562 q -0.79687,1.23438 -2.39062,1.23438 z m -0.14063,-5.6875 q -0.65625,0 -1.10937,0.48437 -0.4375,0.46875 -0.53125,1.32813 h 3.17187 v -0.0781 q -0.0469,-0.82812 -0.45312,-1.28125 -0.39063,-0.45312 -1.07813,-0.45312 z m 4.88867,-0.78125 0.0312,0.70312 q 0.6875,-0.8125 1.875,-0.8125 1.32813,0 1.8125,1.01563 0.3125,-0.45313 0.8125,-0.73438 0.51563,-0.28125 1.20313,-0.28125 2.09375,0 2.125,2.20313 v 4.25 h -1.07813 v -4.1875 q 0,-0.67188 -0.3125,-1 -0.3125,-0.34375 -1.04687,-0.34375 -0.60938,0 -1.01563,0.35937 -0.39062,0.35938 -0.45312,0.96875 v 4.20313 h -1.07813 v -4.15625 q 0,-1.375 -1.35937,-1.375 -1.0625,0 -1.45313,0.90625 v 4.625 h -1.09375 v -6.34375 z m 14.86133,3.25 q 0,1.45312 -0.67187,2.34375 -0.65625,0.875 -1.78125,0.875 -1.20313,0 -1.85938,-0.85938 l -0.0625,0.73438 h -0.98437 v -9 h 1.07812 v 3.35937 q 0.65625,-0.8125 1.8125,-0.8125 1.15625,0 1.8125,0.875 0.65625,0.85938 0.65625,2.39063 z m -1.07812,-0.125 q 0,-1.10938 -0.4375,-1.70313 -0.42188,-0.60937 -1.21875,-0.60937 -1.07813,0 -1.54688,0.98437 v 2.75 q 0.5,1 1.54688,1 0.78125,0 1.21875,-0.60937 0.4375,-0.60938 0.4375,-1.8125 z m 5.07617,3.34375 q -1.29688,0 -2.10938,-0.84375 -0.79687,-0.85938 -0.79687,-2.28125 v -0.1875 q 0,-0.95313 0.35937,-1.6875 0.35938,-0.75 1,-1.15625 0.65625,-0.42188 1.40625,-0.42188 1.23438,0 1.92188,0.8125 0.6875,0.8125 0.6875,2.32813 v 0.45312 h -4.29688 q 0.0312,0.9375 0.54688,1.51563 0.53125,0.57812 1.34375,0.57812 0.5625,0 0.95312,-0.23437 0.40625,-0.23438 0.71875,-0.625 l 0.65625,0.51562 q -0.79687,1.23438 -2.39062,1.23438 z m -0.14063,-5.6875 q -0.65625,0 -1.10937,0.48437 -0.4375,0.46875 -0.53125,1.32813 h 3.17187 v -0.0781 q -0.0469,-0.82812 -0.45312,-1.28125 -0.39063,-0.45312 -1.07813,-0.45312 z m 6.93555,0.1875 q -0.25,-0.0312 -0.53125,-0.0312 -1.07812,0 -1.45312,0.90625 v 4.5 h -1.07813 v -6.34375 h 1.04688 l 0.0156,0.73437 q 0.53125,-0.84375 1.51563,-0.84375 0.3125,0 0.48437,0.0781 z"
       fill-rule="nonzero"
       id="path65" />
    <path
       fill="#ffffff"
       d="m 586.9134,251.66142 h 66.58264 v 21.38582 H 586.9134 Z"
       fill-rule="evenodd"
       id="path67" />
    <path
       stroke="#086dd7"
       stroke-width="1"
       stroke-linejoin="round"
       stroke-linecap="butt"
       d="m 586.9134,251.66142 h 66.58264 v 21.38582 H 586.9134 Z"
       fill-rule="evenodd"
       id="path69" />
    <path
       fill="#000000"
       d="m 600.39124,258.34308 2.79688,6.95312 2.78125,-6.95312 h 1.46875 v 8.53125 h -1.125 v -3.32813 l 0.10937,-3.57812 -2.8125,6.90625 h -0.85937 l -2.79688,-6.89063 0.10938,3.5625 v 3.32813 h -1.125 v -8.53125 z m 11.49219,8.65625 q -1.29688,0 -2.10938,-0.84375 -0.79687,-0.85938 -0.79687,-2.28125 v -0.1875 q 0,-0.95313 0.35937,-1.6875 0.35938,-0.75 1,-1.15625 0.65625,-0.42188 1.40625,-0.42188 1.23438,0 1.92188,0.8125 0.6875,0.8125 0.6875,2.32813 v 0.45312 h -4.29688 q 0.0312,0.9375 0.54688,1.51563 0.53125,0.57812 1.34375,0.57812 0.5625,0 0.95312,-0.23437 0.40625,-0.23438 0.71875,-0.625 l 0.65625,0.51562 q -0.79687,1.23438 -2.39062,1.23438 z m -0.14063,-5.6875 q -0.65625,0 -1.10937,0.48437 -0.4375,0.46875 -0.53125,1.32813 h 3.17187 v -0.0781 q -0.0469,-0.82812 -0.45312,-1.28125 -0.39063,-0.45312 -1.07813,-0.45312 z m 4.88867,-0.78125 0.0312,0.70312 q 0.6875,-0.8125 1.875,-0.8125 1.32813,0 1.8125,1.01563 0.3125,-0.45313 0.8125,-0.73438 0.51563,-0.28125 1.20313,-0.28125 2.09375,0 2.125,2.20313 v 4.25 h -1.07813 v -4.1875 q 0,-0.67188 -0.3125,-1 -0.3125,-0.34375 -1.04687,-0.34375 -0.60938,0 -1.01563,0.35937 -0.39062,0.35938 -0.45312,0.96875 v 4.20313 h -1.07813 v -4.15625 q 0,-1.375 -1.35937,-1.375 -1.0625,0 -1.45313,0.90625 v 4.625 h -1.09375 v -6.34375 z m 14.86133,3.25 q 0,1.45312 -0.67187,2.34375 -0.65625,0.875 -1.78125,0.875 -1.20313,0 -1.85938,-0.85938 l -0.0625,0.73438 h -0.98437 v -9 h 1.07812 v 3.35937 q 0.65625,-0.8125 1.8125,-0.8125 1.15625,0 1.8125,0.875 0.65625,0.85938 0.65625,2.39063 z m -1.07812,-0.125 q 0,-1.10938 -0.4375,-1.70313 -0.42188,-0.60937 -1.21875,-0.60937 -1.07813,0 -1.54688,0.98437 v 2.75 q 0.5,1 1.54688,1 0.78125,0 1.21875,-0.60937 0.4375,-0.60938 0.4375,-1.8125 z m 5.07617,3.34375 q -1.29688,0 -2.10938,-0.84375 -0.79687,-0.85938 -0.79687,-2.28125 v -0.1875 q 0,-0.95313 0.35937,-1.6875 0.35938,-0.75 1,-1.15625 0.65625,-0.42188 1.40625,-0.42188 1.23438,0 1.92188,0.8125 0.6875,0.8125 0.6875,2.32813 v 0.45312 h -4.29688 q 0.0312,0.9375 0.54688,1.51563 0.53125,0.57812 1.34375,0.57812 0.5625,0 0.95312,-0.23437 0.40625,-0.23438 0.71875,-0.625 l 0.65625,0.51562 q -0.79687,1.23438 -2.39062,1.23438 z m -0.14063,-5.6875 q -0.65625,0 -1.10937,0.48437 -0.4375,0.46875 -0.53125,1.32813 h 3.17187 v -0.0781 q -0.0469,-0.82812 -0.45312,-1.28125 -0.39063,-0.45312 -1.07813,-0.45312 z m 6.93555,0.1875 q -0.25,-0.0312 -0.53125,-0.0312 -1.07812,0 -1.45312,0.90625 v 4.5 h -1.07813 v -6.34375 h 1.04688 l 0.0156,0.73437 q 0.53125,-0.84375 1.51563,-0.84375 0.3125,0 0.48437,0.0781 z"
       fill-rule="nonzero"
       id="path71" />
    <path
       fill="#000000"
       fill-opacity="0"
       d="m 443.91602,208.40683 -33.60629,43.2441"
       fill-rule="evenodd"
       id="path73" />
    <path
       stroke="#8993a5"
       stroke-width="2"
       stroke-linejoin="round"
       stroke-linecap="butt"
       d="m 443.91602,208.40683 -26.24283,33.76891"
       fill-rule="evenodd"
       id="path75" />
    <path
       fill="#8993a5"
       stroke="#8993a5"
       stroke-width="2"
       stroke-linecap="butt"
       d="m 415.06476,240.14864 -2.96094,9.19365 8.17777,-5.13948 z"
       fill-rule="evenodd"
       id="path77" />
    <path
       fill="#000000"
       fill-opacity="0"
       d="m 443.91602,208.40683 32.97638,43.2441"
       fill-rule="evenodd"
       id="path79" />
    <path
       stroke="#8993a5"
       stroke-width="2"
       stroke-linejoin="round"
       stroke-linecap="butt"
       d="m 443.91602,208.40683 25.69989,33.70195"
       fill-rule="evenodd"
       id="path81" />
    <path
       fill="#8993a5"
       stroke="#8993a5"
       stroke-width="2"
       stroke-linecap="butt"
       d="m 466.98904,244.11191 8.13043,5.21407 -2.87674,-9.22034 z"
       fill-rule="evenodd"
       id="path83" />
    <path
       fill="#000000"
       fill-opacity="0"
       d="m 586.9134,208.40683 -33.29132,43.2441"
       fill-rule="evenodd"
       id="path85" />
    <path
       stroke="#8993a5"
       stroke-width="2"
       stroke-linejoin="round"
       stroke-linecap="butt"
       d="m 586.9134,208.40683 -25.97113,33.73544"
       fill-rule="evenodd"
       id="path87" />
    <path
       fill="#8993a5"
       stroke="#8993a5"
       stroke-width="2"
       stroke-linecap="butt"
       d="m 558.32465,240.12709 -2.91901,9.20705 8.15424,-5.1767 z"
       fill-rule="evenodd"
       id="path89" />
    <path
       fill="#000000"
       fill-opacity="0"
       d="m 586.9134,208.40683 33.29132,43.2441"
       fill-rule="evenodd"
       id="path91" />
    <path
       stroke="#8993a5"
       stroke-width="2"
       stroke-linejoin="round"
       stroke-linecap="butt"
       d="m 586.9134,208.40683 25.97113,33.73544"
       fill-rule="evenodd"
       id="path93" />
    <path
       fill="#8993a5"
       stroke="#8993a5"
       stroke-width="2"
       stroke-linecap="butt"
       d="m 610.2669,244.15744 8.15424,5.1767 -2.91901,-9.20705 z"
       fill-rule="evenodd"
       id="path95" />
  </g>
</svg>
