<?xml version="1.0" encoding="UTF-8" ?>
<!DOCTYPE svg PUBLIC "-//W3C//DTD SVG 1.1//EN" "http://www.w3.org/Graphics/SVG/1.1/DTD/svg11.dtd">
<svg width="985pt" height="491pt" viewBox="0 0 985 491" version="1.1" xmlns="http://www.w3.org/2000/svg">
<g id="#ffffffff">
</g>
<g id="#272425ff">
<path fill="#272425" opacity="1.00" d=" M 421.49 19.51 C 423.29 11.15 431.34 4.45 440.01 4.95 C 451.32 4.48 460.98 16.49 458.25 27.44 C 456.96 35.06 450.38 41.04 442.93 42.51 C 439.96 42.76 436.94 42.60 434.07 41.75 C 425.11 38.89 419.08 28.71 421.49 19.51 M 435.30 14.10 C 433.27 15.55 431.56 17.38 430.04 19.35 C 429.67 21.82 429.10 24.39 429.91 26.84 C 431.49 32.91 439.43 36.11 444.80 32.89 C 449.51 30.80 450.82 25.03 450.02 20.36 C 448.16 16.29 444.34 13.71 440.02 12.90 C 438.45 13.34 436.88 13.75 435.30 14.10 Z" />
<path fill="#272425" opacity="1.00" d=" M 391.90 78.83 C 398.63 74.47 408.06 75.00 414.19 80.23 C 416.62 82.20 418.43 84.85 419.57 87.76 C 423.86 97.63 417.59 110.41 407.07 112.87 C 398.11 115.64 387.64 110.42 384.50 101.57 C 381.11 93.47 384.51 83.45 391.90 78.83 M 394.10 88.04 C 389.57 92.88 391.65 101.95 397.89 104.26 C 403.82 107.20 412.14 102.72 412.36 95.93 C 413.09 91.43 410.19 87.50 406.67 85.09 C 402.34 83.23 397.14 84.40 394.10 88.04 Z" />
<path fill="#272425" opacity="1.00" d=" M 465.37 80.15 C 469.58 75.61 476.23 75.50 481.94 76.21 C 489.01 77.90 494.74 83.94 496.20 91.04 C 496.62 94.00 496.53 97.02 495.89 99.95 C 495.53 100.82 495.16 101.68 494.77 102.54 C 492.42 107.74 487.71 111.88 482.09 113.13 C 473.37 115.79 463.18 110.73 459.77 102.33 C 457.82 97.80 457.25 92.32 459.61 87.83 C 461.23 85.07 463.14 82.46 465.37 80.15 M 474.19 84.86 C 468.29 86.54 465.14 94.30 468.46 99.54 C 470.56 104.14 475.91 105.74 480.62 105.04 C 485.72 102.88 489.62 97.10 487.56 91.55 C 485.93 86.28 479.41 82.44 474.19 84.86 Z" />
<path fill="#272425" opacity="1.00" d=" M 547.53 78.52 C 553.20 75.19 560.75 74.89 566.47 78.29 C 571.13 80.56 574.11 85.21 575.63 90.03 C 576.22 92.98 576.28 96.01 575.77 98.97 C 573.94 106.11 567.85 112.18 560.45 113.25 C 551.26 115.17 541.65 108.85 539.07 99.95 C 538.32 97.04 538.30 94.00 538.76 91.05 C 539.78 85.87 543.17 81.41 547.53 78.52 M 554.05 84.82 C 548.60 86.40 546.04 92.30 546.97 97.62 C 548.50 100.91 551.08 103.52 554.38 105.04 C 557.21 105.23 560.05 104.97 562.71 103.93 C 564.78 102.07 566.77 99.95 567.44 97.15 C 568.78 93.65 566.72 90.05 564.82 87.18 C 561.71 85.09 557.79 82.82 554.05 84.82 Z" />
<path fill="#272425" opacity="1.00" d=" M 716.19 100.45 C 719.75 93.65 727.37 89.04 735.14 90.11 C 745.96 91.14 754.41 102.90 751.24 113.45 C 749.66 120.14 744.15 125.66 737.45 127.22 C 731.25 129.07 724.61 126.59 719.78 122.62 C 718.05 120.44 716.29 118.22 715.34 115.58 C 713.47 110.65 713.94 105.17 716.19 100.45 M 725.16 102.11 C 722.32 104.85 722.46 109.06 723.00 112.66 C 724.45 115.37 726.64 117.56 729.35 119.00 C 731.77 119.29 734.22 119.28 736.66 119.01 C 739.35 117.56 741.57 115.38 743.01 112.67 C 743.63 109.05 743.67 104.83 740.84 102.07 C 737.02 97.33 728.95 97.34 725.16 102.11 Z" />
<path fill="#272425" opacity="1.00" d=" M 203.09 120.09 C 202.21 110.84 208.95 101.36 218.27 99.88 C 228.29 97.66 238.83 105.03 240.56 115.07 C 240.89 118.04 240.79 121.07 240.00 123.97 C 237.99 130.26 232.54 135.32 226.11 136.80 C 221.93 137.21 217.38 137.48 213.62 135.26 C 207.67 132.62 203.80 126.43 203.09 120.09 M 219.43 108.00 C 216.84 109.31 213.82 110.58 212.61 113.45 C 210.50 117.48 211.72 122.21 214.17 125.79 C 216.59 127.29 219.12 129.08 222.10 129.02 C 227.62 128.77 232.75 123.66 232.27 117.98 C 232.36 115.47 230.92 113.35 229.84 111.20 C 228.12 110.08 226.38 109.00 224.60 108.00 C 222.87 108.00 221.15 108.00 219.43 108.00 Z" />
<path fill="#272425" opacity="1.00" d=" M 283.66 115.12 C 285.06 105.03 295.76 97.73 305.68 99.85 C 313.06 100.96 318.65 107.10 320.70 114.04 C 321.17 117.00 321.13 120.02 320.59 122.97 C 318.77 129.87 313.03 135.41 306.04 136.86 C 302.19 137.14 298.05 137.45 294.49 135.63 C 289.61 133.33 285.94 128.94 284.09 123.92 C 283.26 121.06 283.20 118.05 283.66 115.12 M 299.39 107.99 C 296.76 109.41 294.09 111.14 292.76 113.94 C 291.40 116.28 291.98 119.07 291.98 121.63 C 293.64 125.24 296.82 127.65 300.45 129.05 C 303.92 129.34 307.08 127.79 309.82 125.83 C 312.34 122.62 313.45 118.27 311.85 114.39 C 310.05 109.44 304.32 107.22 299.39 107.99 Z" />
<path fill="#272425" opacity="1.00" d=" M 539.15 136.97 C 541.19 128.65 549.61 122.76 558.07 123.15 C 566.89 123.35 574.48 130.45 575.99 139.01 C 576.34 142.00 576.09 145.03 575.26 147.92 C 573.21 153.73 568.43 158.62 562.41 160.20 C 557.24 161.91 551.53 160.63 546.99 157.85 C 540.18 153.59 536.86 144.65 539.15 136.97 M 548.06 137.25 C 544.57 143.20 549.00 152.09 556.04 152.38 C 560.55 153.13 564.50 150.21 566.90 146.67 C 568.76 142.32 567.59 137.11 563.93 134.07 C 559.28 129.74 550.66 131.47 548.06 137.25 Z" />
<path fill="#272425" opacity="1.00" d=" M 676.24 125.17 C 683.36 121.30 692.61 122.74 698.57 128.09 C 700.79 130.22 702.57 132.82 703.53 135.75 C 704.99 139.84 704.92 144.30 703.53 148.39 C 702.46 151.49 700.56 154.25 698.14 156.45 C 696.97 157.30 695.73 158.03 694.51 158.79 C 684.43 164.65 670.31 158.96 666.83 147.92 C 666.03 145.02 665.80 142.00 666.10 139.02 C 667.13 133.12 671.17 128.14 676.24 125.17 M 677.14 135.07 C 673.02 139.32 673.79 146.96 678.60 150.37 C 681.39 152.77 685.27 152.63 688.68 152.01 C 691.16 150.47 693.85 148.63 694.62 145.63 C 696.28 141.17 694.43 135.95 690.64 133.20 C 686.45 130.64 680.34 131.17 677.14 135.07 Z" />
<path fill="#272425" opacity="1.00" d=" M 289.24 152.21 C 295.01 146.05 305.32 145.21 312.30 149.80 C 316.82 152.38 319.55 157.19 320.77 162.13 C 321.20 165.06 321.05 168.05 320.56 170.98 C 318.20 177.26 313.00 182.93 306.15 184.10 C 296.53 186.62 285.83 179.74 283.90 170.03 C 282.21 163.72 284.43 156.60 289.24 152.21 M 292.00 162.37 C 291.44 166.04 292.07 169.68 294.16 172.78 C 298.09 176.48 304.62 177.54 308.87 173.79 C 312.56 170.87 313.27 165.69 311.91 161.40 C 311.14 160.37 310.43 159.31 309.75 158.23 C 307.47 156.56 304.88 155.27 302.03 155.05 C 297.62 155.49 293.89 158.43 292.00 162.37 Z" />
<path fill="#272425" opacity="1.00" d=" M 406.46 162.09 C 408.21 152.33 418.36 145.35 428.11 147.10 C 435.30 148.20 441.56 153.93 443.28 161.01 C 443.97 163.95 444.01 166.99 443.57 169.97 C 441.66 176.75 436.27 182.80 429.14 184.09 C 419.73 186.56 409.44 180.27 406.85 170.99 C 406.09 168.08 406.03 165.04 406.46 162.09 M 416.21 160.19 C 414.20 162.93 414.62 166.46 415.04 169.61 C 416.47 171.56 417.71 173.90 420.07 174.88 C 426.02 178.52 435.11 174.08 435.34 166.95 C 436.10 162.44 433.17 158.53 429.66 156.10 C 424.88 153.99 419.01 155.78 416.21 160.19 Z" />
<path fill="#272425" opacity="1.00" d=" M 152.73 160.75 C 158.66 153.99 169.80 152.96 177.05 158.16 C 180.87 160.64 183.44 164.73 184.70 169.05 C 185.34 171.97 185.38 175.00 184.81 177.93 C 183.21 184.29 178.22 189.76 171.93 191.68 C 165.18 193.85 157.30 191.72 152.49 186.53 C 146.04 179.51 145.77 167.52 152.73 160.75 M 163.11 163.81 C 157.97 165.36 154.69 171.35 156.33 176.50 C 157.18 180.09 160.33 182.37 163.39 184.03 C 166.22 184.22 169.06 183.98 171.72 182.94 C 173.79 181.07 175.81 178.96 176.48 176.15 C 179.00 168.78 170.30 160.58 163.11 163.81 Z" />
<path fill="#272425" opacity="1.00" d=" M 719.77 161.32 C 725.71 156.21 734.44 154.43 741.54 158.19 C 744.70 159.94 747.45 162.45 749.34 165.55 C 750.49 167.55 751.48 169.71 751.76 172.03 C 751.92 174.65 751.86 177.29 751.54 179.91 C 750.12 185.21 746.50 190.05 741.41 192.30 C 736.31 194.86 729.70 194.84 724.60 192.31 C 715.92 188.35 711.61 177.16 715.23 168.36 C 716.26 165.73 717.99 163.48 719.77 161.32 M 730.43 164.99 C 726.11 166.49 722.65 170.32 722.63 175.06 C 722.12 182.06 730.33 188.35 736.83 185.11 C 742.18 183.00 744.50 176.74 742.95 171.39 C 740.63 166.77 735.58 164.05 730.43 164.99 Z" />
<path fill="#272425" opacity="1.00" d=" M 538.74 186.01 C 540.25 176.29 550.24 169.19 559.90 170.71 C 567.50 171.61 573.89 177.71 575.74 185.04 C 576.28 187.99 576.23 191.02 575.67 193.96 C 573.75 200.80 568.15 206.59 561.05 207.87 C 557.16 208.14 552.99 208.45 549.43 206.57 C 544.70 204.23 540.95 199.94 539.19 194.97 C 538.40 192.05 538.25 188.99 538.74 186.01 M 546.97 186.39 C 546.98 188.89 546.69 191.52 547.82 193.85 C 549.20 197.06 552.48 198.62 555.45 200.05 C 559.98 200.21 565.24 198.18 566.83 193.58 C 570.43 187.11 564.18 178.42 557.01 178.96 C 552.37 178.87 548.88 182.52 546.97 186.39 Z" />
<path fill="#272425" opacity="1.00" d=" M 74.09 194.10 C 77.50 192.52 81.39 192.95 85.04 193.10 C 92.52 194.33 98.41 200.74 99.93 208.03 C 100.34 211.00 100.18 214.02 99.57 216.94 C 97.28 223.81 91.05 229.63 83.66 230.20 C 74.01 231.82 64.14 224.28 62.82 214.66 C 61.07 206.22 66.38 197.47 74.09 194.10 M 79.46 200.94 C 76.60 202.13 74.00 203.84 72.06 206.28 C 69.18 212.04 71.97 219.78 78.33 221.59 C 85.98 224.45 94.59 215.42 91.11 208.02 C 89.69 203.09 84.25 200.69 79.46 200.94 Z" />
<path fill="#272425" opacity="1.00" d=" M 283.96 208.03 C 286.01 201.34 291.43 195.51 298.14 193.37 C 302.58 192.67 307.42 192.50 311.56 194.55 C 316.68 196.91 320.26 201.84 321.75 207.19 L 321.43 208.22 C 320.62 211.36 321.04 214.64 320.88 217.85 C 318.27 227.66 306.64 234.55 296.83 231.06 C 290.29 229.25 285.14 223.59 283.74 216.98 C 283.18 214.02 283.23 210.95 283.96 208.03 M 298.38 203.03 C 296.20 204.54 293.76 206.02 292.81 208.65 C 290.06 213.93 293.11 220.62 298.32 223.00 C 301.99 223.79 306.20 223.65 309.04 220.87 C 313.74 217.00 313.73 209.02 308.99 205.19 C 306.23 202.33 302.01 202.47 298.38 203.03 Z" />
<path fill="#272425" opacity="1.00" d=" M 410.22 201.20 C 413.74 196.76 419.21 193.88 424.93 194.00 C 433.40 193.79 441.26 200.25 443.43 208.30 C 444.17 211.40 444.16 214.64 443.45 217.74 C 441.79 224.48 436.18 230.00 429.45 231.62 C 424.28 232.67 418.53 232.09 414.24 228.78 C 405.22 223.11 403.05 209.17 410.22 201.20 M 421.35 202.99 C 417.93 204.83 414.75 207.89 414.54 212.02 C 413.63 218.34 419.65 224.39 425.98 223.48 C 430.10 223.25 433.17 220.09 435.01 216.65 C 435.24 213.75 435.57 210.62 433.92 208.04 C 431.70 203.43 426.02 202.08 421.35 202.99 Z" />
<path fill="#272425" opacity="1.00" d=" M 115.74 235.74 C 119.59 231.74 125.42 230.16 130.84 230.71 C 138.51 231.51 145.01 237.72 147.01 245.03 C 147.56 247.99 147.55 251.03 146.98 253.98 C 145.23 260.30 140.19 265.71 133.87 267.61 C 127.62 268.86 120.42 268.01 115.76 263.24 C 107.91 256.38 107.84 242.59 115.74 235.74 M 124.05 240.08 C 120.88 241.38 119.36 244.56 117.96 247.46 C 117.43 253.11 121.08 258.30 126.44 259.98 C 127.81 259.98 129.18 259.99 130.56 260.00 C 135.24 258.41 139.42 254.17 139.04 248.94 C 139.06 245.18 136.42 242.32 133.71 240.08 C 130.62 238.97 127.02 238.23 124.05 240.08 Z" />
<path fill="#272425" opacity="1.00" d=" M 876.63 236.54 C 886.71 234.97 896.59 243.02 897.68 253.07 C 897.89 256.00 897.56 258.98 896.55 261.75 C 893.77 268.78 886.75 274.33 878.99 274.05 C 870.86 274.44 863.33 268.51 860.80 260.95 C 860.01 258.05 859.83 255.01 860.18 252.03 C 860.52 250.07 861.44 248.29 862.21 246.48 C 865.02 241.05 870.53 237.18 876.63 236.54 M 868.71 253.04 C 867.49 257.82 870.41 262.40 874.33 264.90 C 880.01 267.52 886.57 264.10 889.02 258.65 C 889.86 253.93 888.49 248.13 883.73 246.04 C 878.01 242.69 869.70 246.40 868.71 253.04 Z" />
<path fill="#272425" opacity="1.00" d=" M 935.80 253.01 C 937.02 245.28 943.38 238.81 951.08 237.45 C 960.70 235.43 970.89 242.34 972.83 251.91 C 973.17 256.09 973.50 260.63 971.26 264.38 C 967.57 272.54 957.25 277.05 948.80 274.01 C 942.92 272.35 938.31 267.49 936.47 261.74 C 935.58 258.92 935.39 255.93 935.80 253.01 M 947.20 248.16 C 944.90 251.14 943.46 254.73 943.99 258.55 C 945.26 261.69 947.38 264.30 950.38 265.95 C 954.34 267.05 958.45 266.17 961.79 263.83 C 963.27 261.45 965.02 259.00 965.02 256.07 C 964.94 250.44 959.76 245.23 954.03 245.65 C 951.50 245.61 949.34 247.04 947.20 248.16 Z" />
<path fill="#272425" opacity="1.00" d=" M 772.97 241.18 C 774.78 240.06 776.50 238.02 778.83 238.34 C 782.26 238.64 785.71 238.51 789.15 238.61 L 789.14 238.00 L 789.13 237.03 C 795.70 239.04 801.98 244.11 803.13 251.19 C 803.75 254.40 804.00 257.69 803.56 260.94 C 802.13 268.22 796.15 274.16 788.98 275.86 C 786.01 276.35 782.98 276.27 780.05 275.66 C 775.74 274.20 771.63 271.54 769.20 267.62 C 763.75 259.52 765.24 247.32 772.97 241.18 M 780.89 247.73 C 778.16 248.67 776.56 251.10 775.04 253.37 C 774.32 256.99 774.33 261.15 777.04 263.99 C 778.91 266.55 782.01 267.47 784.98 268.07 C 786.52 267.63 788.09 267.23 789.67 266.89 C 793.17 264.46 796.08 260.53 795.27 256.04 C 794.77 249.35 786.92 244.79 780.89 247.73 Z" />
<path fill="#272425" opacity="1.00" d=" M 505.82 270.60 C 507.36 263.70 513.01 257.80 519.92 256.20 C 524.50 255.68 529.49 255.61 533.52 258.20 C 538.38 260.78 541.57 265.75 542.81 271.01 C 543.21 273.99 543.14 277.05 542.32 279.96 C 541.88 281.18 541.29 282.33 540.79 283.52 C 538.35 288.07 534.04 291.66 528.99 292.86 C 521.25 294.96 512.25 291.50 508.19 284.51 C 505.80 280.37 504.61 275.31 505.82 270.60 M 519.33 265.11 C 517.14 266.83 515.29 268.92 513.98 271.37 C 513.92 273.45 513.92 275.54 513.96 277.63 C 515.58 280.72 517.91 283.84 521.51 284.68 C 525.66 286.00 530.22 284.02 532.80 280.69 C 534.91 277.65 534.86 273.77 533.95 270.33 C 531.36 265.05 524.69 262.44 519.33 265.11 Z" />
<path fill="#272425" opacity="1.00" d=" M 585.95 271.02 C 587.41 263.97 592.95 257.88 600.04 256.28 C 604.69 255.54 609.69 255.75 613.85 258.16 C 618.21 260.79 621.60 265.07 622.91 270.01 C 623.48 272.97 623.50 276.01 622.97 278.98 C 620.93 286.57 614.04 292.86 606.07 293.41 C 597.32 294.36 589.02 288.11 586.30 279.98 C 585.65 277.03 585.51 274.00 585.95 271.02 M 594.02 272.43 C 594.00 273.80 594.00 275.18 594.00 276.56 C 595.56 280.81 598.94 285.03 603.87 285.02 C 610.59 285.70 616.11 278.91 615.03 272.44 C 613.61 269.15 611.58 265.77 607.88 264.77 C 602.08 262.23 595.73 266.83 594.02 272.43 Z" />
<path fill="#272425" opacity="1.00" d=" M 250.90 293.81 C 252.78 284.11 263.61 277.42 273.13 279.90 C 280.62 281.21 286.26 287.78 287.82 295.02 C 288.16 298.01 287.99 301.05 287.20 303.96 C 285.16 310.01 280.08 314.87 273.92 316.58 C 267.98 317.87 261.11 316.76 256.74 312.28 C 251.59 307.85 249.00 300.41 250.90 293.81 M 264.25 289.07 C 259.51 291.16 258.13 296.94 258.98 301.64 C 260.70 305.06 263.64 307.90 267.50 308.66 C 274.30 310.04 281.01 302.89 279.31 296.13 C 278.36 289.53 269.93 285.69 264.25 289.07 Z" />
<path fill="#272425" opacity="1.00" d=" M 344.89 279.99 C 354.77 277.09 365.56 284.27 367.94 294.02 C 368.43 296.98 368.39 300.02 367.76 302.95 C 366.17 308.62 362.08 313.59 356.52 315.70 C 346.77 320.12 334.43 314.08 331.37 303.95 C 330.59 301.04 330.38 297.99 330.82 295.00 C 332.22 287.91 337.69 281.57 344.89 279.99 M 346.38 287.97 C 341.50 290.13 338.11 295.11 338.97 300.56 C 340.52 304.80 343.87 308.19 348.47 308.89 C 356.41 309.69 362.62 300.41 358.90 293.32 C 357.17 291.14 355.07 289.30 352.62 287.98 C 350.54 287.94 348.46 287.94 346.38 287.97 Z" />
<path fill="#272425" opacity="1.00" d=" M 108.34 292.22 C 112.95 289.03 119.06 288.06 124.41 289.77 C 129.41 291.11 133.31 295.07 135.79 299.47 C 136.27 300.65 136.81 301.82 137.21 303.05 C 137.89 305.95 137.89 308.98 137.52 311.93 C 135.88 317.68 131.94 322.94 126.28 325.20 C 119.48 328.27 110.96 326.55 105.75 321.25 C 102.67 318.34 100.94 314.25 100.20 310.13 C 99.28 303.28 102.54 296.02 108.34 292.22 M 109.57 312.55 C 112.10 317.99 119.61 319.93 124.55 316.59 C 128.75 314.17 129.89 308.81 129.03 304.34 C 126.92 299.89 122.16 296.48 117.08 297.58 C 110.42 298.57 106.47 306.61 109.57 312.55 Z" />
<path fill="#272425" opacity="1.00" d=" M 585.95 321.95 C 585.00 310.00 598.15 300.06 609.45 303.76 C 616.38 305.41 621.61 311.45 623.11 318.30 C 623.59 321.46 623.44 324.71 622.46 327.77 C 619.88 335.92 611.43 341.66 602.88 340.79 C 593.54 340.10 585.24 331.48 585.95 321.95 M 600.42 312.08 C 599.37 312.84 598.31 313.56 597.22 314.25 C 595.79 316.27 594.36 318.42 594.02 320.93 C 593.41 326.95 598.94 332.86 605.05 332.33 C 611.78 332.25 617.18 324.35 614.20 318.13 C 613.48 315.22 610.90 313.65 608.62 312.05 C 605.90 311.50 603.12 311.46 600.42 312.08 Z" />
<path fill="#272425" opacity="1.00" d=" M 713.59 318.31 C 715.22 309.79 723.25 302.95 731.98 303.01 C 740.31 302.83 748.11 309.08 750.29 317.02 C 751.01 319.93 751.09 322.98 750.60 325.95 C 748.92 332.79 743.38 338.63 736.46 340.24 C 727.21 342.86 716.97 336.75 714.06 327.75 C 713.10 324.70 713.00 321.44 713.59 318.31 M 721.99 318.35 C 721.82 321.07 721.28 324.03 722.61 326.56 C 723.76 329.02 726.09 330.61 728.34 332.00 C 730.77 332.30 733.22 332.32 735.66 332.03 C 739.08 330.17 742.28 327.09 742.41 322.95 C 743.28 316.70 737.35 310.73 731.10 311.59 C 726.94 311.70 723.84 314.91 721.99 318.35 Z" />
<path fill="#272425" opacity="1.00" d=" M 25.64 328.75 C 29.41 326.61 33.95 326.70 38.11 327.25 C 45.28 328.85 51.03 335.00 52.41 342.18 C 52.93 345.10 52.81 348.11 52.08 350.98 C 50.24 357.10 45.21 362.16 39.03 363.84 C 32.72 365.72 25.43 363.89 20.77 359.23 C 17.66 356.31 15.94 352.20 15.17 348.06 C 14.13 340.32 18.48 332.02 25.64 328.75 M 29.31 336.10 C 24.63 338.84 22.37 344.46 24.02 349.67 C 26.35 354.78 32.89 357.81 38.10 355.24 C 44.56 352.84 46.46 343.18 41.38 338.52 C 39.50 336.37 36.64 335.68 34.01 334.90 C 32.46 335.34 30.89 335.75 29.31 336.10 Z" />
<path fill="#272425" opacity="1.00" d=" M 238.69 337.59 C 242.69 328.44 254.50 324.35 263.48 328.35 C 269.07 330.86 273.23 336.13 274.65 342.07 C 275.01 344.97 274.96 347.95 274.26 350.81 C 272.73 355.89 269.25 360.34 264.53 362.81 C 254.82 368.46 240.65 362.84 237.86 351.87 C 237.08 348.67 236.94 345.35 237.16 342.07 C 237.28 340.47 238.08 339.04 238.69 337.59 M 251.31 336.09 C 249.64 337.46 247.81 338.79 246.78 340.76 C 244.06 345.60 245.85 352.67 251.14 354.92 C 257.51 358.74 266.48 353.44 266.29 346.03 C 266.93 338.46 257.98 332.88 251.31 336.09 Z" />
<path fill="#272425" opacity="1.00" d=" M 343.57 327.72 C 346.27 326.69 349.23 326.95 352.06 327.02 C 359.96 327.76 366.47 334.37 368.02 342.02 C 368.45 345.00 368.30 348.03 367.69 350.98 C 365.32 357.78 359.21 363.50 351.89 364.30 C 341.89 365.92 331.53 357.81 330.82 347.70 C 329.50 339.10 335.31 330.23 343.57 327.72 M 338.96 346.03 C 339.09 352.62 346.34 357.85 352.63 355.59 C 356.49 354.60 358.52 350.89 360.05 347.54 C 360.26 342.99 358.21 337.78 353.65 336.11 C 347.09 332.50 338.42 338.80 338.96 346.03 Z" />
<path fill="#272425" opacity="1.00" d=" M 463.64 328.82 C 467.36 326.59 471.85 326.80 476.01 327.13 C 483.11 328.40 488.75 334.19 490.65 341.04 C 491.19 343.98 491.24 347.00 490.73 349.96 C 488.81 356.95 483.00 363.04 475.67 364.15 C 466.47 366.02 456.68 359.94 454.09 350.94 C 453.28 348.03 453.29 344.98 453.76 342.02 C 454.82 336.41 458.75 331.61 463.64 328.82 M 470.45 334.95 C 468.00 336.19 465.30 337.29 463.70 339.65 C 461.68 342.18 461.87 345.57 461.96 348.61 C 464.17 353.98 470.55 357.97 476.19 355.24 C 480.33 353.81 482.32 349.64 482.97 345.58 C 482.58 344.17 482.22 342.75 481.91 341.33 C 480.03 336.88 475.05 334.76 470.45 334.95 Z" />
<path fill="#272425" opacity="1.00" d=" M 585.89 366.01 C 587.37 357.41 595.33 350.61 604.03 350.37 C 612.75 350.12 620.94 356.57 622.98 365.01 C 623.48 367.96 623.53 371.00 622.85 373.93 C 620.83 381.85 613.27 388.19 604.99 388.05 C 596.80 388.60 588.95 382.76 586.60 375.00 C 585.64 372.10 585.48 369.02 585.89 366.01 M 601.37 358.98 C 598.81 360.50 596.08 362.28 594.90 365.15 C 592.38 370.35 595.52 377.49 601.09 379.12 C 606.86 381.79 613.25 377.11 615.03 371.55 C 615.15 369.06 614.77 366.62 613.93 364.29 C 612.21 362.09 610.08 360.28 607.63 358.98 C 605.54 358.95 603.45 358.95 601.37 358.98 Z" />
<path fill="#272425" opacity="1.00" d=" M 67.01 371.01 C 70.63 367.27 75.65 364.44 81.01 364.95 C 89.61 364.24 97.63 370.93 99.46 379.19 C 100.14 382.06 100.09 385.05 99.60 387.95 C 97.91 393.98 93.48 399.30 87.44 401.29 C 79.75 404.19 70.23 401.29 65.71 394.36 C 60.70 387.50 61.32 377.30 67.01 371.01 M 78.56 373.37 C 72.45 374.92 68.72 382.41 71.76 388.09 C 73.86 392.47 78.85 394.65 83.56 394.02 C 85.94 392.70 88.77 391.64 90.11 389.09 C 91.87 386.16 91.63 382.60 90.92 379.40 C 90.16 378.35 89.44 377.29 88.76 376.20 C 85.88 374.08 82.21 372.05 78.56 373.37 Z" />
<path fill="#272425" opacity="1.00" d=" M 343.03 375.24 C 352.97 371.13 365.71 377.67 368.06 388.16 C 368.30 391.37 368.30 394.60 368.10 397.82 C 367.51 403.33 363.30 408.01 358.40 410.30 C 353.28 412.82 346.70 412.85 341.59 410.30 C 336.35 408.08 332.84 403.18 331.12 397.91 C 330.49 394.99 330.46 391.97 330.92 389.03 C 332.44 382.85 336.85 377.23 343.03 375.24 M 345.38 383.05 C 342.38 384.70 340.27 387.30 339.00 390.45 C 338.46 394.26 339.91 397.86 342.21 400.84 C 344.34 401.94 346.47 403.37 348.98 403.34 C 354.71 403.79 359.92 398.61 360.02 392.98 C 360.08 390.03 358.29 387.55 356.79 385.17 C 353.45 382.82 349.35 381.94 345.38 383.05 Z" />
<path fill="#272425" opacity="1.00" d=" M 457.28 381.48 C 461.98 375.33 470.75 372.37 478.13 375.02 C 484.16 376.90 488.98 382.12 490.46 388.25 C 491.32 391.32 491.32 394.57 490.50 397.64 C 488.81 404.55 482.83 410.18 475.86 411.52 C 468.59 413.00 460.61 409.63 456.55 403.43 C 452.17 396.90 452.45 387.68 457.28 381.48 M 461.90 393.97 C 462.12 397.97 465.08 401.05 468.38 402.96 C 471.28 403.29 474.47 403.79 477.12 402.20 C 481.91 399.57 484.15 393.37 481.89 388.34 C 479.49 384.83 475.60 381.90 471.12 382.61 C 465.49 382.80 461.29 388.58 461.90 393.97 Z" />
<path fill="#272425" opacity="1.00" d=" M 241.74 380.76 C 246.13 375.62 253.49 373.53 259.99 375.09 C 267.30 376.72 273.13 383.15 274.28 390.53 C 274.77 393.70 274.43 396.94 273.35 399.97 C 271.19 405.39 266.52 409.94 260.88 411.61 C 255.51 412.58 249.49 412.37 244.98 408.92 C 235.71 403.06 234.09 388.57 241.74 380.76 M 246.14 397.61 C 247.76 402.19 253.00 404.25 257.55 404.05 C 260.92 402.52 264.65 400.46 265.61 396.57 C 267.80 390.36 262.71 383.11 256.17 382.97 C 248.92 382.29 242.51 391.04 246.14 397.61 Z" />
<path fill="#272425" opacity="1.00" d=" M 166.02 404.92 C 169.48 402.39 173.67 400.64 178.03 400.96 C 186.40 400.71 193.89 407.16 196.07 415.04 C 196.70 417.98 196.76 421.03 196.18 423.99 C 194.45 430.75 189.06 436.64 182.11 438.07 C 172.86 440.67 162.44 434.49 159.77 425.38 C 157.40 418.13 160.00 409.61 166.02 404.92 M 170.20 412.20 C 168.64 414.37 167.62 416.83 167.02 419.43 C 167.52 423.18 169.25 426.61 172.28 428.93 C 174.93 429.86 177.78 430.59 180.59 429.88 C 185.03 428.36 188.79 423.84 188.09 418.96 C 188.03 413.56 183.02 409.64 177.98 409.07 C 175.11 409.26 172.53 410.61 170.20 412.20 Z" />
<path fill="#272425" opacity="1.00" d=" M 244.06 425.63 C 248.70 421.97 254.92 421.18 260.57 422.42 C 267.07 424.13 272.29 429.62 274.06 436.05 C 274.74 438.97 274.82 442.02 274.21 444.97 C 271.88 456.81 257.20 463.87 246.65 457.69 C 243.75 456.00 241.22 453.69 239.36 450.89 C 236.13 445.57 235.63 438.62 238.25 432.95 C 239.72 430.18 241.64 427.64 244.06 425.63 M 251.41 431.21 C 248.91 432.42 246.61 434.31 245.82 437.08 C 242.80 443.31 248.29 451.28 255.04 451.28 C 262.10 451.94 268.34 443.67 265.18 437.14 C 263.50 431.58 256.58 429.10 251.41 431.21 Z" />
<path fill="#272425" opacity="1.00" d=" M 163.21 455.22 C 167.91 449.06 176.70 446.56 183.94 449.27 C 190.08 451.29 194.80 456.73 196.21 463.00 C 196.73 465.91 196.68 468.91 196.08 471.81 C 194.35 477.94 189.49 483.50 183.16 484.95 C 177.89 484.64 171.81 486.42 167.34 482.79 C 158.26 477.17 156.03 463.21 163.21 455.22 M 168.10 471.67 C 169.92 474.01 172.02 476.46 175.06 477.15 C 179.84 478.48 185.37 476.09 187.19 471.37 C 190.54 464.95 185.17 456.46 177.94 456.69 C 170.45 456.16 164.95 465.04 168.10 471.67 Z" />
</g>
<g id="#70a7b9ff">
<path fill="#70a7b9" opacity="1.00" d=" M 434.07 41.75 C 436.94 42.60 439.96 42.76 442.93 42.51 C 443.07 49.21 442.97 55.91 443.00 62.61 C 449.83 69.20 458.09 74.08 465.37 80.15 C 463.14 82.46 461.23 85.07 459.61 87.83 C 458.90 86.75 458.29 85.52 457.18 84.79 C 451.37 80.62 445.72 76.20 439.98 71.95 C 434.59 75.48 429.64 79.66 424.41 83.43 C 422.74 84.80 420.61 85.78 419.57 87.76 C 418.43 84.85 416.62 82.20 414.19 80.23 C 420.71 75.26 427.15 70.10 433.97 65.57 C 434.12 57.63 433.94 49.69 434.07 41.75 Z" />
<path fill="#70a7b9" opacity="1.00" d=" M 240.56 115.07 C 254.92 114.99 269.29 114.88 283.66 115.12 C 283.20 118.05 283.26 121.06 284.09 123.92 C 269.40 124.09 254.70 123.99 240.00 123.97 C 240.79 121.07 240.89 118.04 240.56 115.07 Z" />
<path fill="#70a7b9" opacity="1.00" d=" M 698.57 128.09 C 703.65 123.26 710.13 120.25 715.34 115.58 C 716.29 118.22 718.05 120.44 719.78 122.62 L 720.32 123.58 C 716.27 126.01 712.33 128.63 708.61 131.53 C 706.87 132.89 704.57 133.68 703.53 135.75 C 702.57 132.82 700.79 130.22 698.57 128.09 Z" />
<path fill="#70a7b9" opacity="1.00" d=" M 698.14 156.45 C 700.56 154.25 702.46 151.49 703.53 148.39 C 705.82 151.18 709.06 152.97 711.99 155.01 C 714.88 156.69 717.26 159.13 720.28 160.60 L 719.77 161.32 C 717.99 163.48 716.26 165.73 715.23 168.36 C 709.73 164.12 704.02 160.16 698.14 156.45 Z" />
<path fill="#70a7b9" opacity="1.00" d=" M 184.70 169.05 C 197.22 169.00 210.22 167.97 222.01 173.02 C 227.58 175.92 233.71 178.17 238.24 182.70 C 246.59 191.18 255.10 199.50 263.43 208.00 C 270.27 208.02 277.12 207.97 283.96 208.03 C 283.23 210.95 283.18 214.02 283.74 216.98 C 264.47 217.05 245.20 216.95 225.94 217.03 C 221.12 217.19 219.28 222.35 216.21 225.20 C 208.53 232.50 201.65 240.91 192.36 246.27 C 184.59 250.64 175.89 253.26 167.04 254.03 C 160.35 253.97 153.66 254.03 146.98 253.98 C 147.55 251.03 147.56 247.99 147.01 245.03 C 153.67 244.98 160.34 244.97 167.01 245.04 C 172.04 245.27 176.72 243.10 181.47 241.77 C 186.28 239.32 191.49 237.25 195.28 233.26 C 200.60 227.79 206.12 222.52 211.39 217.01 C 174.12 216.95 136.84 217.08 99.57 216.94 C 100.18 214.02 100.34 211.00 99.93 208.03 C 150.42 207.95 200.91 208.04 251.39 207.99 C 245.95 202.32 240.28 196.86 234.78 191.25 C 226.82 184.06 216.63 179.37 206.02 177.99 C 198.95 177.95 191.88 178.09 184.81 177.93 C 185.38 175.00 185.34 171.97 184.70 169.05 Z" />
<path fill="#70a7b9" opacity="1.00" d=" M 751.76 172.03 C 757.85 172.03 763.95 171.91 770.05 172.04 C 780.97 173.69 788.81 184.33 789.03 195.06 C 789.04 209.37 788.85 223.69 789.14 238.00 L 789.15 238.61 C 785.71 238.51 782.26 238.64 778.83 238.34 C 779.60 237.04 780.21 235.64 780.03 234.10 C 779.97 223.41 780.01 212.71 780.00 202.02 C 779.88 197.49 780.64 192.78 778.79 188.49 C 776.72 184.78 773.21 181.90 769.06 180.90 C 763.37 179.17 757.37 180.40 751.54 179.91 C 751.86 177.29 751.92 174.65 751.76 172.03 Z" />
<path fill="#70a7b9" opacity="1.00" d=" M 803.13 251.19 C 804.31 251.77 805.58 252.13 806.93 252.03 C 824.68 251.98 842.43 251.98 860.18 252.03 C 859.83 255.01 860.01 258.05 860.80 260.95 C 841.72 261.02 822.64 261.05 803.56 260.94 C 804.00 257.69 803.75 254.40 803.13 251.19 Z" />
<path fill="#70a7b9" opacity="1.00" d=" M 897.68 253.07 C 910.38 252.91 923.09 253.04 935.80 253.01 C 935.39 255.93 935.58 258.92 936.47 261.74 C 923.16 261.97 909.85 261.96 896.55 261.75 C 897.56 258.98 897.89 256.00 897.68 253.07 Z" />
<path fill="#70a7b9" opacity="1.00" d=" M 780.05 275.66 C 782.98 276.27 786.01 276.35 788.98 275.86 C 788.95 285.60 789.12 295.35 788.91 305.09 C 787.94 309.01 786.99 313.19 784.29 316.32 C 780.59 322.15 773.77 325.34 767.05 326.00 C 761.57 326.04 756.08 326.01 750.60 325.95 C 751.09 322.98 751.01 319.93 750.29 317.02 C 755.20 316.99 760.12 316.97 765.04 317.04 C 772.80 317.81 779.96 310.70 780.00 303.04 C 780.04 293.91 779.93 284.78 780.05 275.66 Z" />
<path fill="#70a7b9" opacity="1.00" d=" M 287.82 295.02 C 302.15 294.97 316.49 295.01 330.82 295.00 C 330.38 297.99 330.59 301.04 331.37 303.95 C 316.65 304.03 301.92 304.03 287.20 303.96 C 287.99 301.05 288.16 298.01 287.82 295.02 Z" />
<path fill="#70a7b9" opacity="1.00" d=" M 137.21 303.05 C 142.82 303.09 148.44 303.10 154.06 303.04 C 157.75 302.93 161.29 304.31 165.00 304.14 C 175.41 306.69 185.41 311.43 193.26 318.82 C 200.93 326.59 208.71 334.24 216.37 342.02 C 223.30 342.09 230.23 342.00 237.16 342.07 C 236.94 345.35 237.08 348.67 237.86 351.87 C 236.68 351.20 235.37 350.85 234.01 350.97 C 214.82 351.03 195.63 350.98 176.44 351.00 C 168.60 358.98 160.62 366.81 152.76 374.77 C 147.74 379.27 141.68 382.31 135.44 384.73 C 130.77 386.33 125.94 387.67 121.01 388.03 C 113.87 387.96 106.73 388.06 99.60 387.95 C 100.09 385.05 100.14 382.06 99.46 379.19 C 106.98 378.76 114.52 379.11 122.05 379.01 C 126.34 378.66 130.35 376.93 134.46 375.76 C 142.99 372.17 150.00 365.97 156.23 359.26 C 158.65 356.54 161.91 354.45 163.48 351.07 C 126.35 350.89 89.21 351.07 52.08 350.98 C 52.81 348.11 52.93 345.10 52.41 342.18 C 102.73 341.82 153.06 342.21 203.39 341.99 C 197.27 335.63 190.91 329.51 184.75 323.21 C 180.20 318.78 174.10 316.69 168.41 314.22 C 163.61 313.35 158.89 311.69 153.97 311.97 C 148.48 312.01 143.00 312.04 137.52 311.93 C 137.89 308.98 137.89 305.95 137.21 303.05 Z" />
<path fill="#70a7b9" opacity="1.00" d=" M 274.65 342.07 C 280.58 342.30 286.77 341.02 292.46 343.21 C 298.42 345.70 303.31 350.57 305.79 356.54 C 306.29 358.32 307.06 360.07 307.02 361.97 C 307.00 371.31 306.99 380.65 307.00 390.00 C 312.02 389.78 317.14 390.60 322.07 389.35 C 324.98 388.77 327.97 389.05 330.92 389.03 C 330.46 391.97 330.49 394.99 331.12 397.91 C 326.38 398.25 321.60 397.60 316.90 398.27 C 313.66 399.09 310.31 399.04 307.00 399.01 C 306.98 407.68 307.01 416.36 307.01 425.03 C 306.52 432.38 301.30 438.46 295.37 442.34 C 288.97 446.29 281.30 444.73 274.21 444.97 C 274.82 442.02 274.74 438.97 274.06 436.05 C 280.89 435.57 288.98 437.86 294.32 432.28 C 300.77 425.07 298.64 414.79 299.02 405.98 C 298.68 403.71 300.01 400.56 297.68 399.09 C 292.13 399.01 286.47 398.49 281.03 399.81 C 278.48 400.16 275.90 399.96 273.35 399.97 C 274.43 396.94 274.77 393.70 274.28 390.53 C 282.53 392.32 290.73 389.57 299.00 390.00 C 298.99 382.32 299.02 374.65 299.00 366.97 C 298.48 361.75 296.87 355.78 292.01 352.96 C 286.78 349.42 280.15 351.31 274.26 350.81 C 274.96 347.95 275.01 344.97 274.65 342.07 Z" />
<path fill="#70a7b9" opacity="1.00" d=" M 196.07 415.04 C 205.38 414.96 214.69 415.03 223.99 414.99 C 231.68 415.51 240.20 418.46 244.06 425.63 C 241.64 427.64 239.72 430.18 238.25 432.95 C 236.50 429.66 233.94 426.74 230.51 425.15 C 228.69 424.67 226.90 423.95 225.00 423.98 C 215.39 423.99 205.78 424.02 196.18 423.99 C 196.76 421.03 196.70 417.98 196.07 415.04 Z" />
<path fill="#70a7b9" opacity="1.00" d=" M 239.36 450.89 C 241.22 453.69 243.75 456.00 246.65 457.69 C 244.83 459.92 243.57 462.55 241.65 464.70 C 238.70 467.24 235.18 469.11 231.61 470.63 C 219.88 472.66 207.93 471.57 196.08 471.81 C 196.68 468.91 196.73 465.91 196.21 463.00 C 205.49 462.99 214.77 462.99 224.05 463.02 C 225.42 463.08 226.73 462.70 227.97 462.14 C 228.59 462.08 229.82 461.97 230.44 461.91 C 234.72 459.48 238.07 455.73 239.36 450.89 Z" />
</g>
<g id="#cc851fff">
<path fill="#cc851f" opacity="1.00" d=" M 575.63 90.03 C 585.10 89.96 594.58 90.03 604.05 89.99 C 606.58 89.90 609.04 90.55 611.46 91.23 C 621.05 93.82 627.79 103.21 628.03 113.00 C 628.06 121.26 627.85 129.53 628.09 137.78 C 628.35 138.06 628.88 138.62 629.14 138.90 C 641.45 139.15 653.78 138.90 666.10 139.02 C 665.80 142.00 666.03 145.02 666.83 147.92 C 653.89 147.84 640.95 147.88 628.01 147.90 C 627.94 156.30 628.09 164.70 627.95 173.09 C 626.80 184.13 617.18 193.28 606.11 193.97 C 595.96 194.03 585.81 194.01 575.67 193.96 C 576.23 191.02 576.28 187.99 575.74 185.04 C 586.32 184.87 596.89 185.17 607.46 184.89 C 608.42 184.40 609.43 184.02 610.49 183.75 C 613.63 182.12 616.08 179.59 617.80 176.51 C 618.32 174.69 619.10 172.91 619.02 170.98 C 618.99 163.29 619.00 155.59 619.00 147.90 C 604.42 147.88 589.84 147.84 575.26 147.92 C 576.09 145.03 576.34 142.00 575.99 139.01 C 589.35 138.99 602.71 139.00 616.07 139.02 C 617.33 139.26 619.16 138.59 618.98 137.02 C 618.99 128.19 619.11 119.36 618.89 110.54 C 618.44 109.55 618.05 108.54 617.75 107.51 C 615.47 102.48 610.27 99.76 605.02 99.02 C 595.27 98.93 585.52 99.07 575.77 98.97 C 576.28 96.01 576.22 92.98 575.63 90.03 Z" />
<path fill="#cc851f" opacity="1.00" d=" M 496.20 91.04 C 510.38 91.10 524.57 91.08 538.76 91.05 C 538.30 94.00 538.32 97.04 539.07 99.95 C 524.68 100.03 510.28 100.04 495.89 99.95 C 496.53 97.02 496.62 94.00 496.20 91.04 Z" />
<path fill="#cc851f" opacity="1.00" d=" M 320.70 114.04 C 330.13 114.05 339.58 113.83 349.00 114.13 C 349.38 114.30 350.16 114.64 350.55 114.82 C 351.02 114.90 351.96 115.07 352.44 115.15 C 359.56 117.74 365.86 123.87 367.28 131.47 C 368.10 132.84 368.01 134.46 368.03 136.00 C 367.97 144.68 368.01 153.36 368.00 162.05 C 380.82 162.12 393.64 162.04 406.46 162.09 C 406.03 165.04 406.09 168.08 406.85 170.99 C 394.56 171.04 382.27 170.95 369.99 171.02 C 368.45 170.89 367.72 172.65 367.98 173.94 C 368.00 180.30 367.98 186.66 368.02 193.02 C 368.73 201.29 364.30 209.91 357.04 213.98 C 353.34 216.85 348.53 217.22 344.06 217.79 C 336.34 217.87 328.61 217.72 320.88 217.85 C 321.04 214.64 320.62 211.36 321.43 208.22 C 329.59 208.39 337.76 208.37 345.93 208.25 C 351.01 208.35 355.39 204.74 357.82 200.52 C 358.36 198.71 359.11 196.92 359.02 195.00 C 358.99 187.00 359.00 179.00 359.00 171.00 C 346.18 170.98 333.37 171.03 320.56 170.98 C 321.05 168.05 321.20 165.06 320.77 162.13 C 333.51 162.00 346.25 162.11 359.00 162.07 C 358.97 152.55 359.07 143.03 358.94 133.52 C 357.04 128.72 353.26 124.99 348.49 123.06 C 339.19 122.90 329.88 123.07 320.59 122.97 C 321.13 120.02 321.17 117.00 320.70 114.04 Z" />
<path fill="#cc851f" opacity="1.00" d=" M 443.28 161.01 C 452.87 160.99 462.46 161.00 472.04 160.99 C 475.61 161.24 479.29 161.96 482.45 163.72 C 488.19 166.23 492.42 171.49 494.54 177.31 C 495.15 180.18 495.65 183.08 496.05 185.99 C 510.28 186.02 524.51 185.98 538.74 186.01 C 538.25 188.99 538.40 192.05 539.19 194.97 C 524.80 195.03 510.40 194.99 496.01 194.99 C 494.82 198.50 494.91 202.38 492.73 205.53 C 490.30 210.11 486.18 213.77 481.39 215.74 C 480.37 216.04 479.36 216.38 478.37 216.75 C 475.60 217.27 472.83 217.93 470.00 217.83 C 461.15 217.74 452.29 217.89 443.45 217.74 C 444.16 214.64 444.17 211.40 443.43 208.30 C 453.59 208.26 463.76 208.47 473.92 208.21 C 479.26 208.01 483.34 203.92 485.81 199.51 C 487.58 192.98 487.51 185.99 485.85 179.45 C 484.03 175.94 481.15 172.88 477.55 171.19 C 476.48 170.94 475.45 170.58 474.47 170.11 C 464.17 169.84 453.87 170.11 443.57 169.97 C 444.01 166.99 443.97 163.95 443.28 161.01 Z" />
<path fill="#cc851f" opacity="1.00" d=" M 622.91 270.01 C 632.62 269.97 642.32 270.03 652.03 269.97 C 653.56 269.94 655.13 270.06 656.55 270.74 C 664.50 271.96 671.23 278.02 673.85 285.56 C 673.93 286.04 674.10 286.99 674.18 287.47 C 675.16 288.80 675.00 290.45 675.03 292.00 C 674.96 300.73 675.01 309.46 675.00 318.19 C 687.86 318.44 700.73 318.20 713.59 318.31 C 713.00 321.44 713.10 324.70 714.06 327.75 C 701.04 327.85 688.02 327.65 675.00 327.86 C 674.91 336.87 675.16 345.90 674.90 354.91 C 674.72 355.32 674.36 356.13 674.18 356.54 C 674.10 357.01 673.95 357.97 673.87 358.45 C 673.59 358.98 673.02 360.03 672.73 360.55 C 669.29 369.05 659.93 373.94 651.05 374.02 C 641.65 373.95 632.25 374.09 622.85 373.93 C 623.53 371.00 623.48 367.96 622.98 365.01 C 632.31 364.98 641.63 365.00 650.96 365.02 C 653.19 364.99 655.32 364.21 657.50 363.81 C 661.32 361.71 664.29 358.54 665.94 354.49 C 666.09 345.58 665.98 336.68 666.00 327.78 C 651.49 327.77 636.98 327.78 622.46 327.77 C 623.44 324.71 623.59 321.46 623.11 318.30 C 637.40 318.29 651.70 318.30 666.01 318.29 C 665.97 308.70 666.10 299.10 665.94 289.51 C 664.16 285.64 661.56 281.96 657.55 280.16 C 655.70 279.69 653.89 278.90 651.96 278.98 C 642.29 279.00 632.63 279.02 622.97 278.98 C 623.50 276.01 623.48 272.97 622.91 270.01 Z" />
<path fill="#cc851f" opacity="1.00" d=" M 542.81 271.01 C 557.19 270.99 571.57 270.99 585.95 271.02 C 585.51 274.00 585.65 277.03 586.30 279.98 C 571.64 280.01 556.97 280.03 542.32 279.96 C 543.14 277.05 543.21 273.99 542.81 271.01 Z" />
<path fill="#cc851f" opacity="1.00" d=" M 367.94 294.02 C 376.98 293.98 386.01 294.00 395.04 294.00 C 404.57 294.93 412.64 302.79 414.91 311.92 C 415.22 321.54 414.77 331.19 415.09 340.81 C 415.36 341.09 415.91 341.63 416.18 341.91 C 428.69 342.15 441.23 341.91 453.76 342.02 C 453.29 344.98 453.28 348.03 454.09 350.94 C 441.49 351.14 428.89 350.83 416.30 351.09 C 415.99 351.39 415.39 351.99 415.09 352.30 C 414.83 360.87 415.12 369.46 414.99 378.04 C 415.08 380.43 413.70 382.47 412.79 384.58 C 409.53 391.40 402.72 396.81 394.98 397.03 C 386.08 398.36 377.05 397.26 368.10 397.82 C 368.30 394.60 368.30 391.37 368.06 388.16 C 377.54 388.14 387.04 388.47 396.51 387.93 C 400.88 386.21 404.22 382.88 405.93 378.50 C 406.43 369.35 406.17 360.17 406.12 351.00 C 393.31 350.98 380.50 351.03 367.69 350.98 C 368.30 348.03 368.45 345.00 368.02 342.02 C 380.74 341.97 393.46 342.02 406.18 341.99 C 406.12 332.14 406.42 322.29 405.96 312.44 C 404.10 309.23 401.63 306.30 398.50 304.28 C 395.28 302.52 391.54 303.03 388.02 303.00 C 381.27 302.99 374.51 303.05 367.76 302.95 C 368.39 300.02 368.43 296.98 367.94 294.02 Z" />
<path fill="#cc851f" opacity="1.00" d=" M 490.65 341.04 C 500.09 340.94 509.54 341.05 518.99 340.97 C 526.93 340.99 535.12 344.91 539.22 351.88 C 541.98 356.01 543.10 361.08 543.07 366.00 C 557.34 366.01 571.61 365.99 585.89 366.01 C 585.48 369.02 585.64 372.10 586.60 375.00 C 572.13 375.01 557.65 375.00 543.18 375.00 C 542.73 378.28 541.95 381.55 540.29 384.45 C 537.50 390.63 531.64 395.30 525.03 396.77 C 513.60 398.47 502.01 397.40 490.50 397.64 C 491.32 394.57 491.32 391.32 490.46 388.25 C 501.48 388.03 512.51 388.51 523.52 387.97 C 528.59 385.97 532.58 381.81 533.92 376.48 C 533.98 368.93 535.29 360.35 529.78 354.23 C 526.50 351.62 522.29 349.80 518.04 349.97 C 508.93 350.00 499.83 350.04 490.73 349.96 C 491.24 347.00 491.19 343.98 490.65 341.04 Z" />
</g>
</svg>
