<svg width="24" height="24" viewBox="0 0 24 24" fill="blue" xmlns="http://www.w3.org/2000/svg">
<mask id="mask0_26_122" style="mask-type:alpha" maskUnits="userSpaceOnUse" x="0" y="0" width="24" height="24">
<path d="M17.9549 21.7542C16.8041 22.871 15.5344 22.6969 14.3241 22.1703C13.0373 21.6331 11.861 21.5991 10.5021 22.1703C8.80981 22.9007 7.91165 22.6884 6.89246 21.7542C1.13826 15.8301 1.98759 6.80604 8.52741 6.46631C10.1135 6.55125 11.224 7.34324 12.1583 7.40906C13.5469 7.12666 14.8761 6.31768 16.3625 6.42385C18.1482 6.56823 19.4837 7.27317 20.3755 8.54079C16.7022 10.749 17.5728 15.5902 20.9467 16.9491C20.2715 18.7221 19.4052 20.4738 17.9528 21.769L17.9549 21.7542ZM12.0309 6.40261C11.8589 3.76971 13.9928 1.60393 16.4474 1.3916C16.785 4.42794 13.6871 6.69988 12.0309 6.40261Z" fill="currentColor"/>
</mask>
<g mask="url(#mask0_26_122)">
<rect width="24" height="24" fill="currentColor" fill-opacity="0.9"/>
</g>
</svg>
