<svg 
  class="w-5 h-5 text-gray-800 dark:text-white"
  viewBox="0 0 24 24"
  fill="none"
  stroke="currentColor"
  stroke-width="2"
  stroke-linecap="round"
  stroke-linejoin="round"
  xmlns="http://www.w3.org/2000/svg"
  focusable="false"
  aria-hidden="true"
>
<path d="M18.1639 21.6147V18.6147M18.1639 18.6147V15.6147M18.1639 18.6147H15.1639M18.1639 18.6147H21.1639M19.8692 13.3281C19.9541 12.8974 20 12.4544 20 11.9999V7.21747C20 6.41796 20 6.0182 19.8692 5.67457C19.7537 5.37101 19.566 5.10015 19.3223 4.8854C19.0465 4.64231 18.6722 4.50195 17.9236 4.22122L12.5618 2.21054C12.3539 2.13258 12.25 2.0936 12.143 2.07815C12.0482 2.06444 11.9518 2.06444 11.857 2.07815C11.75 2.0936 11.6461 2.13258 11.4382 2.21054L6.0764 4.22122C5.3278 4.50195 4.9535 4.64231 4.67766 4.8854C4.43398 5.10015 4.24627 5.37101 4.13076 5.67457C4 6.0182 4 6.41796 4 7.21747V11.9999C4 16.9083 9.35396 20.4783 11.302 21.6147C11.5234 21.7439 11.6341 21.8085 11.7903 21.842C11.9116 21.868 12.0884 21.868 12.2097 21.842C12.3659 21.8085 12.4766 21.7439 12.698 21.6147C12.986 21.4467 13.3484 21.2255 13.757 20.9547M14.517 9.70865C14.517 10.4365 14.2081 11.0922 13.7143 11.5517C13.5354 11.7181 13.446 11.8013 13.4126 11.8658C13.3774 11.9337 13.3672 11.9737 13.3656 12.0501C13.364 12.1227 13.3936 12.2115 13.4528 12.3891L14.2225 14.6983C14.322 14.9966 14.3717 15.1458 14.3419 15.2645C14.3158 15.3684 14.2509 15.4584 14.1606 15.516C14.0574 15.5818 13.9002 15.5818 13.5858 15.5818H10.4142C10.0998 15.5818 9.94255 15.5818 9.83936 15.516C9.74903 15.4584 9.68416 15.3684 9.65807 15.2645C9.62826 15.1458 9.67797 14.9966 9.7774 14.6983L10.5472 12.3891C10.6063 12.2115 10.6359 12.1227 10.6344 12.0501C10.6328 11.9737 10.6226 11.9337 10.5874 11.8658C10.5539 11.8013 10.4645 11.7181 10.2857 11.5517C9.79182 11.0922 9.48291 10.4365 9.48291 9.70865C9.48291 8.31852 10.6098 7.19159 12 7.19159C13.3901 7.19159 14.517 8.31852 14.517 9.70865Z" fill="none" stroke="currentColor" stroke-width="2" stroke-linecap="round" stroke-linejoin="round"></path></svg>