<svg width="24" height="24" viewBox="0 0 24 24" fill="none" xmlns="http://www.w3.org/2000/svg">
<mask id="mask0_230_146" style="mask-type:alpha" maskUnits="userSpaceOnUse" x="2" y="2" width="20" height="20">
<path d="M18 2C20.2091 2 22 3.79086 22 6V18C22 20.2091 20.2091 22 18 22H6C3.79086 22 2 20.2091 2 18V6C2 3.79086 3.79086 2 6 2H18ZM13.625 4.85742C11.5908 4.85753 10.2617 6.09028 10.2617 8.32227V10.2842H8V12.8584H10.2617V19.082C10.715 19.1532 11.18 19.1904 11.6533 19.1904C12.1264 19.1904 12.5908 19.1531 13.0439 19.082V12.8584H15.1191L15.5146 10.2842H13.0439V8.61328C13.0441 7.9091 13.39 7.22266 14.4961 7.22266H15.6191V5.03125C15.6191 5.03125 14.5994 4.85742 13.625 4.85742Z" fill="#6C7E9D"/>
</mask>
<g mask="url(#mask0_230_146)">
<rect width="24" height="24" fill="#4B83F1"/>
</g>
</svg>
