<svg width="24" height="24" viewBox="0 0 24 24" fill="none" xmlns="http://www.w3.org/2000/svg">
  <path d="M15.1329 9.83887C16.0755 9.95803 16.7429 10.8191 16.6241 11.7617L16.4786 12.915C16.3541 13.8995 15.5254 14.689 14.5411 14.5635C13.5522 14.4372 12.9407 13.4627 13.0655 12.4736L13.21 11.3311C13.3291 10.3882 14.19 9.71983 15.1329 9.83887Z" fill="currentColor"/>
  <path d="M8.7813 9.75293C9.72891 9.82425 10.4393 10.6501 10.3682 11.5977L10.2784 12.7939C10.2035 13.7885 9.41068 14.6231 8.41607 14.5498C7.42582 14.4766 6.77123 13.5361 6.84576 12.5459L6.93658 11.3398C7.0079 10.3922 7.83369 9.68175 8.7813 9.75293Z" fill="currentColor"/>
  <path d="M9.45806 6.98145C11.5069 6.88872 13.4159 6.87248 15.4336 6.94824C16.455 6.9866 16.8836 7.00573 17.3682 7.11914C19.2852 7.56782 20.9855 9.33327 21.3624 11.2656C21.4571 11.7521 21.46 12.2718 21.46 13.4941C21.46 14.9264 21.4566 15.5405 21.3575 16.0371C20.9383 18.1365 19.2977 19.7781 17.1983 20.1973C16.7016 20.2964 16.0878 20.2998 14.6553 20.2998H10.0811C8.71799 20.2998 8.13354 20.2968 7.66021 20.207C5.52066 19.801 3.84742 18.1268 3.44146 15.9873C3.35176 15.5141 3.34869 14.9297 3.34869 13.5674C3.34869 12.3454 3.35173 11.824 3.43658 11.3633C3.80589 9.3592 5.46871 7.61849 7.45415 7.15918C7.91165 7.0534 8.37143 7.03063 9.45806 6.98145ZM17.3516 8.40332C14.4842 7.70661 11.4527 7.75081 8.43853 8.29297C7.43795 8.47297 6.93663 8.56368 6.43755 8.88184C6.0328 9.14005 5.61786 9.59152 5.39458 10.0166C5.01948 10.7313 5.01331 11.6205 4.94439 12.4062C4.80742 13.8649 4.73843 14.595 4.97271 15.0908C5.1886 15.5473 5.5117 15.8616 5.97369 16.0654C6.4755 16.2867 7.25812 16.1923 8.82232 16.0039C11.6796 15.6597 13.9776 15.7223 16.5342 16.0283C17.8763 16.189 18.5479 16.269 19.0274 16.0732C19.4599 15.8964 19.7926 15.6018 20.0196 15.1934C20.2708 14.7405 20.2715 14.0947 20.2715 12.8057C20.2715 11.9806 20.3631 11.0803 20.0352 10.3037C19.8562 9.88029 19.4279 9.33546 19.0586 9.06152C18.5706 8.69964 18.1638 8.60067 17.3516 8.40332Z" fill="currentColor"/>
  <path d="M2.86333 10.7393C2.79805 10.9707 2.7531 11.2053 2.7149 11.4424C2.64844 11.9339 2.64849 12.5225 2.64849 13.5674L2.65044 14.4492C2.65537 15.2237 2.67513 15.7025 2.75396 16.1182C2.82942 16.4813 2.92441 16.8374 3.05962 17.1836C3.05835 17.1803 3.05698 17.1771 3.05572 17.1738C1.93813 17.1766 1.02699 16.2761 1.01861 15.1572L1.00005 12.6875C0.992369 11.6362 1.8232 10.7782 2.86333 10.7393Z" fill="currentColor"/>
  <path d="M21.8536 10.4102C23.1521 10.6254 24.0736 11.8198 23.9278 13.1475L23.7588 14.6836C23.6379 15.7836 22.8507 16.646 21.8438 16.9199C21.9017 16.7485 21.9536 16.5736 21.9961 16.3955C22.1373 15.7443 22.1538 15.0859 22.1583 14.4209L22.1602 13.4941C22.1602 12.2987 22.1605 11.7 22.0499 11.1318C22.0023 10.8879 21.9358 10.6469 21.8536 10.4102Z" fill="currentColor"/>
  <path d="M13.5411 6.2041C13.2066 6.20089 12.873 6.20049 12.5391 6.20215C12.5873 5.59323 12.6651 5.08294 12.7676 4.63965C12.1906 4.29963 11.8018 3.67326 11.8018 2.95508C11.8021 1.87531 12.678 1.00005 13.7579 1C14.8377 1.00001 15.7127 1.87528 15.7129 2.95508C15.7129 4.04353 14.8176 4.92299 13.7325 4.90918C13.6498 5.27685 13.5841 5.70041 13.5411 6.2041Z" fill="currentColor"/>
</svg>
