<svg width="10" height="12" viewBox="0 0 10 12" fill="none" xmlns="http://www.w3.org/2000/svg">
<path d="M8.55237 2.00563C8.09228 1.53094 7.54504 1.15362 6.94199 0.895266C6.33893 0.636909 5.69191 0.50259 5.03796 0.5H4.99998C3.6739 0.5 2.40214 1.03807 1.46446 1.99585C0.526782 2.95362 0 4.25264 0 5.60714V8.35714C0 8.66972 0.121565 8.96949 0.337953 9.19052C0.55434 9.41154 0.847824 9.53571 1.15384 9.53571H1.92307C2.22909 9.53571 2.52257 9.41154 2.73896 9.19052C2.95535 8.96949 3.07691 8.66972 3.07691 8.35714V6.39286C3.07691 6.08028 2.95535 5.78051 2.73896 5.55948C2.52257 5.33846 2.22909 5.21429 1.92307 5.21429H0.786536C0.86071 4.39515 1.16194 3.61457 1.65491 2.96405C2.14788 2.31353 2.81218 1.82002 3.56994 1.54135C4.3277 1.26268 5.14752 1.21041 5.93333 1.39066C6.71913 1.57091 7.43835 1.97621 8.0067 2.55906C8.70136 3.27225 9.12864 4.21204 9.21391 5.21429H8.07689C7.77088 5.21429 7.47739 5.33846 7.261 5.55948C7.04462 5.78051 6.92305 6.08028 6.92305 6.39286V8.35714C6.92305 8.66972 7.04462 8.96949 7.261 9.19052C7.47739 9.41154 7.77088 9.53571 8.07689 9.53571H9.23074C9.23074 9.84829 9.10917 10.1481 8.89278 10.3691C8.6764 10.5901 8.38291 10.7143 8.07689 10.7143H5.3846C5.28259 10.7143 5.18476 10.7557 5.11263 10.8294C5.0405 10.903 4.99998 11.003 4.99998 11.1071C4.99998 11.2113 5.0405 11.3113 5.11263 11.3849C5.18476 11.4586 5.28259 11.5 5.3846 11.5H8.07689C8.58692 11.5 9.07606 11.293 9.43671 10.9247C9.79736 10.5563 9.99996 10.0567 9.99996 9.53571V5.60714C10.0025 4.93908 9.87589 4.27707 9.62749 3.65906C9.37908 3.04104 9.01373 2.47917 8.55237 2.00563ZM1.92307 6C2.02508 6 2.1229 6.04139 2.19503 6.11506C2.26716 6.18874 2.30768 6.28866 2.30768 6.39286V8.35714C2.30768 8.46133 2.26716 8.56126 2.19503 8.63494C2.1229 8.70861 2.02508 8.75 1.92307 8.75H1.15384C1.05184 8.75 0.954008 8.70861 0.881879 8.63494C0.80975 8.56126 0.769228 8.46133 0.769228 8.35714V6H1.92307ZM8.07689 8.75C7.97489 8.75 7.87706 8.70861 7.80493 8.63494C7.7328 8.56126 7.69228 8.46133 7.69228 8.35714V6.39286C7.69228 6.28866 7.7328 6.18874 7.80493 6.11506C7.87706 6.04139 7.97489 6 8.07689 6H9.23074V8.75H8.07689Z" fill="white"/>
</svg>
