<svg width="24" height="24" viewBox="0 0 24 24" fill="none" xmlns="http://www.w3.org/2000/svg">
<mask id="mask0_230_156" style="mask-type:alpha" maskUnits="userSpaceOnUse" x="2" y="2" width="20" height="20">
<path fill-rule="evenodd" clip-rule="evenodd" d="M6 2C3.79086 2 2 3.79086 2 6V18C2 20.2091 3.79086 22 6 22H18C20.2091 22 22 20.2091 22 18V6C22 3.79086 20.2091 2 18 2H6ZM7.82824 6.03828C8.21814 5.8855 8.66433 5.78086 9.31759 5.75002C9.97247 5.7186 10.1815 5.71145 11.8485 5.70826C13.5159 5.70508 13.725 5.71144 14.3798 5.7405C15.0333 5.76874 15.4797 5.87179 15.8704 6.02297C16.2746 6.17873 16.6175 6.3884 16.9593 6.72877C17.3011 7.06953 17.5115 7.41129 17.6693 7.81491C17.8218 8.20521 17.9265 8.65101 17.9575 9.30467C17.9885 9.95935 17.9961 10.1682 17.9993 11.8354C18.0025 13.5024 17.9957 13.7117 17.9671 14.367C17.9386 15.0201 17.8358 15.4666 17.6846 15.8572C17.5284 16.2614 17.3192 16.6043 16.9788 16.9461C16.6384 17.288 16.2963 17.4983 15.8927 17.6563C15.5024 17.8086 15.0566 17.9133 14.4033 17.9445C13.7485 17.9755 13.5394 17.9829 11.8718 17.9861C10.205 17.9893 9.99592 17.9829 9.34107 17.954C8.6876 17.9254 8.241 17.8226 7.85052 17.6716C7.4463 17.5152 7.10336 17.3061 6.76161 16.9656C6.41965 16.625 6.209 16.283 6.05146 15.8794C5.89868 15.4893 5.79443 15.0433 5.7632 14.3903C5.73198 13.7352 5.72462 13.5259 5.72144 11.8589C5.71825 10.1917 5.72482 9.98282 5.75345 9.32794C5.78231 8.67426 5.88475 8.22786 6.03594 7.83697C6.19209 7.43295 6.40137 7.0902 6.74212 6.74824C7.08248 6.40649 7.42461 6.19563 7.82824 6.03828ZM8.24897 16.6401C8.4656 16.7235 8.79065 16.8229 9.38922 16.849C10.0369 16.877 10.2309 16.8832 11.8698 16.88C13.5093 16.877 13.7033 16.8701 14.3508 16.8396C14.9488 16.8112 15.2738 16.7105 15.4898 16.6262C15.7765 16.5142 15.9806 16.3803 16.195 16.1657C16.4095 15.9502 16.5422 15.7455 16.6532 15.4589C16.7367 15.2421 16.836 14.9168 16.862 14.3182C16.8905 13.6709 16.8964 13.4768 16.8932 11.8374C16.8903 10.1985 16.8833 10.0043 16.8525 9.35679C16.8242 8.75862 16.7238 8.43356 16.6392 8.21773C16.5272 7.93069 16.3938 7.72698 16.1785 7.51233C15.9633 7.29769 15.7586 7.16541 15.4715 7.0544C15.2553 6.97066 14.9299 6.87159 14.3317 6.84553C13.684 6.81708 13.4898 6.81131 11.8505 6.8145C10.2116 6.81768 10.0176 6.82425 9.37011 6.85489C8.77175 6.88333 8.4471 6.98379 8.23068 7.06834C7.94421 7.18033 7.74012 7.31341 7.52548 7.52885C7.31123 7.74429 7.17856 7.94858 7.06756 8.23584C6.98441 8.45228 6.88435 8.77772 6.85869 9.37589C6.83043 10.0236 6.82448 10.2178 6.82764 11.8567C6.83064 13.4961 6.83759 13.6902 6.86804 14.3373C6.89609 14.9359 6.99733 15.2606 7.08148 15.4772C7.19348 15.7634 7.32696 15.9676 7.54199 16.1822C7.75743 16.396 7.96213 16.5291 8.24897 16.6401ZM15.1324 9.30031C14.7258 9.3011 14.3952 8.97188 14.3944 8.56527C14.3936 8.15867 14.7228 7.82804 15.1296 7.82725C15.5364 7.82645 15.867 8.15587 15.8678 8.56247C15.8684 8.96909 15.5392 9.29951 15.1324 9.30031ZM11.8662 14.9994C10.1254 15.0027 8.71128 13.5943 8.7079 11.8531C8.70451 10.1123 10.1133 8.69794 11.8541 8.69455C13.5953 8.69117 15.0096 10.1004 15.013 11.841C15.0164 13.5822 13.6072 14.996 11.8662 14.9994ZM11.8563 9.80079C10.7264 9.80278 9.81172 10.7208 9.81371 11.8509C9.8159 12.9812 10.7341 13.8957 11.864 13.8935C12.9943 13.8913 13.909 12.9735 13.9068 11.8432C13.9046 10.7129 12.9864 9.7986 11.8563 9.80079Z" fill="#6C7E9D"/>
</mask>
<g mask="url(#mask0_230_156)">
<rect width="24" height="24" fill="#4B83F1"/>
</g>
</svg>
