<svg width="24" height="24" viewBox="0 0 24 24" fill="none" xmlns="http://www.w3.org/2000/svg">
<mask id="mask0_230_168" style="mask-type:alpha" maskUnits="userSpaceOnUse" x="2" y="2" width="20" height="20">
<path d="M18 2C20.2091 2 22 3.79086 22 6V18C22 20.2091 20.2091 22 18 22H6C3.79086 22 2 20.2091 2 18V6C2 3.79086 3.79086 2 6 2H18ZM15.0762 8.78418C13.7764 8.78418 12.9253 9.62482 12.6807 10.1172H12.6494V9.00879H10.2266V17.0137H12.7461V12.6738C12.7461 11.5169 13.4782 10.9531 14.2266 10.9531C14.9329 10.9532 15.4823 11.3514 15.4824 12.6406V17.0137H18.001V12.0625C18.001 9.61838 16.4821 8.7842 15.0762 8.78418ZM6.19238 9.00293V17.0068H8.71191V9.00293H6.19238ZM7.45215 5C6.65026 5.00021 6.00023 5.64761 6 6.44629C6 7.24516 6.65011 7.89335 7.45215 7.89355C8.25436 7.89355 8.90527 7.24529 8.90527 6.44629C8.90504 5.64749 8.25422 5 7.45215 5Z" fill="#6C7E9D"/>
</mask>
<g mask="url(#mask0_230_168)">
<rect width="24" height="24" fill="#4B83F1"/>
</g>
</svg>
