<svg width="24" height="24" viewBox="0 0 24 24" fill="none" xmlns="http://www.w3.org/2000/svg">
<mask id="mask0_26_113" style="mask-type:alpha" maskUnits="userSpaceOnUse" x="3" y="1" width="18" height="22">
<path d="M19.0689 16.3388C19.2698 16.4219 19.443 16.5636 19.5674 16.7466C19.6791 16.9182 19.7575 17.1255 19.8067 17.3685C19.8333 17.5113 19.8652 17.6431 19.8998 17.7667C19.9649 17.9982 20.0631 18.2185 20.1909 18.4202C20.2534 18.5204 20.3372 18.6303 20.4409 18.7525C20.53 18.8527 20.6097 18.9817 20.6802 19.1383C20.7451 19.2791 20.7801 19.4326 20.7826 19.5886C20.7877 19.7385 20.7442 19.8859 20.6589 20.0074C20.5722 20.1253 20.4665 20.227 20.3465 20.308C20.187 20.422 20.0208 20.5222 19.8479 20.6087C19.6751 20.6938 19.5023 20.7831 19.3295 20.8764C19.071 21.0036 18.8241 21.1543 18.5916 21.3268C18.3842 21.4847 18.1755 21.6837 17.9681 21.9281C17.7263 22.2078 17.4464 22.4497 17.1372 22.6462C16.9793 22.7497 16.8078 22.8292 16.628 22.8823C16.4552 22.9318 16.2824 22.9647 16.1095 22.9785C15.708 22.9785 15.3757 22.9071 15.1124 22.7643C14.8492 22.6215 14.6205 22.3606 14.4264 21.9817C14.3706 21.8732 14.3161 21.8059 14.2603 21.7771C14.174 21.7394 14.0833 21.714 13.9904 21.7016L12.9388 21.6165C12.5931 21.589 12.2408 21.5739 11.8805 21.5739C11.5813 21.5743 11.2826 21.5991 10.9872 21.648C10.6827 21.6988 10.3809 21.7593 10.0831 21.8307C10.022 21.8444 9.95949 21.8993 9.897 21.9913C9.81921 22.1029 9.73201 22.2072 9.63643 22.303C9.50692 22.4303 9.35599 22.5322 9.19106 22.6036C8.95605 22.6984 8.70552 22.7455 8.45322 22.7423C8.22455 22.7423 7.97861 22.7176 7.71537 22.6682C7.46911 22.6239 7.23097 22.5406 7.00944 22.421C6.6098 22.2099 6.18325 22.0583 5.74247 21.9707C5.32635 21.8924 4.88763 21.8197 4.42365 21.7565C4.26987 21.7358 4.11722 21.707 3.96632 21.67C3.82692 21.6375 3.69562 21.5753 3.58078 21.4874C3.4754 21.4069 3.38753 21.3045 3.32287 21.1867C3.25197 21.0367 3.21601 20.8717 3.21784 20.7048C3.21784 20.4824 3.24576 20.2682 3.3016 20.0609C3.35743 19.855 3.38801 19.6353 3.39466 19.4074C3.39466 19.2495 3.38402 19.0957 3.36408 18.9461C3.34209 18.7858 3.32789 18.6245 3.32154 18.4628C3.32154 18.0989 3.40529 17.8312 3.57147 17.6582C3.73766 17.4866 3.97962 17.3507 4.29868 17.2504C4.44043 17.2061 4.57392 17.1374 4.69353 17.0472C4.80325 16.9618 4.90719 16.8686 5.00462 16.7685C5.10354 16.6659 5.19383 16.5547 5.2745 16.4363C5.35826 16.3141 5.45132 16.1919 5.55502 16.0711C5.5757 16.0436 5.58693 16.0098 5.58692 15.975C5.58692 15.8885 5.58293 15.8061 5.57629 15.7278L5.55502 15.4697C5.55502 14.9837 5.62814 14.4949 5.77305 14.0006C5.91928 13.5064 6.1094 13.0258 6.34471 12.5521C6.57966 12.0813 6.84342 11.6264 7.1344 11.1902C7.42422 10.7549 7.71271 10.3499 7.99589 9.97783C8.38052 9.48054 8.68572 8.92294 8.89991 8.32616C9.09933 7.755 9.20436 7.13167 9.21101 6.45892C9.21101 6.17472 9.19771 5.89189 9.16979 5.61317C9.1419 5.32805 9.12814 5.04164 9.12858 4.75507C9.12858 4.18254 9.19106 3.66768 9.3147 3.21048C9.43967 2.75191 9.63377 2.35924 9.897 2.02973C10.1602 1.70022 10.5032 1.45446 10.9247 1.2897C11.3488 1.12495 11.854 1.0357 12.4416 1.02197C13.1422 1.02197 13.6992 1.16476 14.1154 1.45171C14.5301 1.73729 14.8492 2.11211 15.0699 2.57754C15.2919 3.04161 15.4342 3.56059 15.4953 4.13311C15.5591 4.70427 15.5937 5.28366 15.6003 5.86992V6.05252C15.6003 6.34634 15.603 6.6072 15.611 6.83511C15.6234 7.29848 15.7255 7.75459 15.9114 8.1765C16.0085 8.39755 16.1534 8.63782 16.3475 8.89456C16.6799 9.34627 17.0202 9.80072 17.3659 10.2579C17.7115 10.7151 18.0266 11.1874 18.3098 11.6721C18.5943 12.1595 18.8269 12.6675 19.0064 13.1961C19.1872 13.726 19.2803 14.2972 19.2869 14.9123C19.2887 15.3972 19.2151 15.8779 19.0689 16.3388ZM10.3557 5.16284C10.4514 5.16284 10.5312 5.18755 10.595 5.23698C10.6598 5.29087 10.7098 5.36142 10.7399 5.44155C10.7732 5.52401 10.7973 5.61016 10.8117 5.6983C10.825 5.78479 10.8329 5.87404 10.8329 5.9674C10.8351 6.02637 10.8242 6.08507 10.801 6.13902C10.7783 6.1846 10.7466 6.22481 10.708 6.25709L10.583 6.36419C10.5384 6.40315 10.4971 6.44586 10.4594 6.49187C10.4095 6.57203 10.3415 6.63847 10.2613 6.68546C10.1789 6.73482 10.0991 6.78843 10.022 6.8461C9.94833 6.90128 9.87898 6.96233 9.81458 7.0287C9.78239 7.06454 9.75755 7.10673 9.74155 7.15274C9.72556 7.19875 9.71874 7.24763 9.72152 7.29643C9.72152 7.36096 9.75209 7.4145 9.81458 7.45707C9.9696 7.5579 10.0926 7.7035 10.1682 7.87582C10.2373 8.04058 10.3145 8.20121 10.3969 8.35911C10.4793 8.51562 10.587 8.64743 10.7186 8.75589C10.8502 8.86298 11.055 8.91653 11.3302 8.91653H11.394C11.6705 8.9028 11.9337 8.82729 12.1837 8.69136C12.4323 8.55544 12.6822 8.41265 12.9308 8.26163C12.9741 8.23648 13.0195 8.21535 13.0664 8.19847C13.1147 8.18068 13.16 8.1552 13.2007 8.12296L13.9585 7.51199C13.9717 7.46596 13.9823 7.41921 13.9904 7.37194C13.9985 7.32175 14.0056 7.2714 14.0117 7.22092C14.014 7.15266 13.9954 7.08538 13.9585 7.0287C13.9245 6.9789 13.8827 6.93528 13.8348 6.89964C13.7817 6.86222 13.7214 6.83694 13.658 6.8255C13.5947 6.81237 13.5324 6.794 13.4719 6.77058C13.3062 6.7354 13.1478 6.67034 13.0039 6.57837C12.8611 6.48678 12.7074 6.41478 12.5466 6.36419C12.52 6.35595 12.4987 6.33535 12.4841 6.29966C12.4683 6.25738 12.4545 6.2143 12.4429 6.1706C12.4292 6.12533 12.4256 6.07747 12.4323 6.03055C12.4398 5.9946 12.4361 5.95708 12.4216 5.92346C12.4216 5.83834 12.4283 5.7491 12.4429 5.65573C12.4573 5.56122 12.4888 5.47037 12.536 5.38801C12.5765 5.31173 12.6333 5.24599 12.7021 5.19579C12.7841 5.14639 12.8771 5.11989 12.972 5.1189C13.1874 5.1189 13.3429 5.20128 13.44 5.36604C13.537 5.5308 13.5889 5.70928 13.5955 5.9015C13.5973 5.98693 13.5795 6.07159 13.5437 6.14863C13.5082 6.22192 13.49 6.30284 13.4905 6.38478C13.4905 6.44244 13.5091 6.48089 13.5437 6.50286C13.5856 6.52656 13.6317 6.54105 13.6793 6.54542C13.8388 6.54542 13.9412 6.50697 13.9904 6.42872C14.0463 6.3197 14.0747 6.19785 14.0728 6.07449C14.0728 5.90973 14.0595 5.72713 14.0329 5.52668C14.0066 5.33274 13.95 5.14449 13.8654 4.96925C13.7879 4.80468 13.6784 4.65838 13.5437 4.53951C13.3994 4.42114 13.2186 4.36067 13.0345 4.36927C12.6756 4.36927 12.415 4.46125 12.2554 4.64798C12.0959 4.83333 12.0135 5.11204 12.0068 5.48411C12.0068 5.59121 12.0135 5.6983 12.0268 5.80539C12.0401 5.91385 12.0481 6.02094 12.0481 6.12804C12.0481 6.16373 12.0441 6.18158 12.0374 6.18158C12.0159 6.17674 11.9949 6.16937 11.9749 6.15961C11.9335 6.14227 11.8923 6.12442 11.8513 6.10607C11.8005 6.08391 11.748 6.066 11.6944 6.05252C11.6061 6.03035 11.5143 6.02662 11.4245 6.04154C11.3694 6.04876 11.3139 6.05243 11.2584 6.05252C11.1613 6.05252 11.1121 6.03467 11.1121 5.99898C11.1121 5.89189 11.1068 5.75596 11.0922 5.59121C11.0789 5.42645 11.0443 5.26169 10.9885 5.09694C10.9421 4.95035 10.8719 4.81294 10.7811 4.69054C10.6973 4.58345 10.5737 4.52578 10.4075 4.51892C10.2959 4.51626 10.1876 4.55861 10.1057 4.63699C10.0204 4.71853 9.94695 4.81241 9.8877 4.91571C9.82399 5.02725 9.78495 5.15196 9.77336 5.28091C9.76221 5.39564 9.74847 5.51009 9.73215 5.62416C9.73749 5.81358 9.76882 6.00125 9.82521 6.18158C9.85978 6.29554 9.89833 6.39576 9.93955 6.48226C9.98076 6.56738 10.0299 6.60995 10.0858 6.60995C10.119 6.60995 10.1656 6.58523 10.2201 6.53581C10.2759 6.48501 10.3038 6.4397 10.3038 6.39576C10.3038 6.3738 10.2932 6.36007 10.2719 6.3532C10.2518 6.34605 10.2307 6.34234 10.2094 6.34222C10.1616 6.34222 10.119 6.3175 10.0845 6.2667C10.0488 6.21407 10.021 6.15622 10.002 6.09508C9.98021 6.02768 9.95938 5.95994 9.93955 5.89189C9.89814 5.70664 9.92417 5.51215 10.0127 5.34544C10.0751 5.23012 10.1895 5.1697 10.3557 5.16284ZM8.09028 21.8636C8.25646 21.8636 8.41998 21.8499 8.57952 21.8197C8.73745 21.7916 8.88893 21.7334 9.02621 21.648C9.15786 21.5694 9.2656 21.4543 9.3373 21.3158C9.41294 21.1549 9.45549 20.9796 9.46227 20.8009C9.46228 20.6732 9.44115 20.5465 9.39979 20.4261C9.35755 20.3033 9.29797 20.1877 9.22297 20.0829C9.14092 19.9486 9.05078 19.8197 8.95309 19.6971C8.85536 19.574 8.76522 19.4447 8.68321 19.3099C8.55392 19.1136 8.4254 18.9169 8.29767 18.7195C8.17403 18.5273 8.04907 18.3241 7.92543 18.1085C7.81611 17.9259 7.71193 17.74 7.61301 17.5511C7.51136 17.3583 7.39299 17.1754 7.25937 17.0047C7.17499 16.8959 7.07761 16.7985 6.96955 16.715C6.85854 16.6288 6.72285 16.5834 6.58401 16.5859C6.43917 16.5837 6.29878 16.6376 6.19049 16.7369C6.06673 16.8483 5.95201 16.97 5.84749 17.1008C5.72491 17.2492 5.59301 17.389 5.45265 17.5195C5.30641 17.6555 5.12029 17.7626 4.89162 17.8408C4.73688 17.8837 4.59453 17.9647 4.47683 18.077C4.37978 18.1772 4.33059 18.331 4.33059 18.5383C4.33059 18.6811 4.34123 18.8239 4.3625 18.9666C4.38244 19.1094 4.39706 19.2536 4.40371 19.3964C4.40371 19.5886 4.37712 19.7712 4.31996 19.9428C4.26633 20.1051 4.23849 20.2752 4.23753 20.4467C4.23753 20.6403 4.304 20.7762 4.43429 20.8545C4.56723 20.9341 4.7148 20.9877 4.88098 21.0151C5.08971 21.0522 5.28647 21.0796 5.47392 21.1016C5.66004 21.1236 5.84351 21.1565 6.02431 21.1977C6.20379 21.2417 6.38326 21.287 6.56407 21.3378C6.74354 21.3872 6.93499 21.4668 7.13573 21.5739C7.17562 21.5945 7.23943 21.6206 7.32186 21.648L7.60237 21.7442C7.70607 21.7812 7.80312 21.8101 7.89352 21.8307C7.95786 21.8485 8.02378 21.8595 8.09028 21.8636ZM11.8925 20.5758C12.0866 20.5758 12.294 20.5552 12.516 20.5112C12.968 20.4238 13.4052 20.2683 13.8136 20.0499C14.0037 19.9498 14.1844 19.8317 14.3533 19.6971C14.3701 19.6775 14.3844 19.6558 14.3959 19.6325C14.4091 19.605 14.4194 19.5759 14.4264 19.546V19.5351C14.4677 19.3785 14.5022 19.2055 14.5301 19.0202C14.5589 18.8314 14.5833 18.6418 14.6033 18.4518C14.6234 18.2618 14.6477 18.0722 14.6764 17.8834C14.703 17.698 14.7282 17.5154 14.7482 17.3369C14.7761 17.1447 14.8107 16.958 14.8519 16.7795C14.8944 16.601 14.9489 16.4322 15.018 16.2743C15.0864 16.1188 15.1814 15.9774 15.2986 15.8569C15.4349 15.7212 15.5888 15.6057 15.7559 15.5136V15.4917L15.7453 15.4601C15.7476 15.3873 15.7692 15.3165 15.8077 15.2555C15.8543 15.1767 15.9063 15.1015 15.9633 15.0304C16.0186 14.9581 16.0857 14.8964 16.1614 14.8477C16.2306 14.8049 16.3036 14.769 16.3794 14.7407C16.3375 14.5681 16.2923 14.3965 16.2438 14.2258C16.1957 14.0559 16.154 13.8842 16.1188 13.7109C16.0848 13.4917 16.0436 13.2737 15.9952 13.0574C15.9567 12.8896 15.9078 12.7245 15.849 12.5631C15.7894 12.4059 15.7089 12.258 15.6097 12.1238C15.5073 11.981 15.3783 11.808 15.2268 11.6089C15.1689 11.5421 15.1164 11.4705 15.0699 11.3947C15.0338 11.3096 15.0131 11.2184 15.0087 11.1256C14.9922 11.0318 14.9713 10.9388 14.9463 10.8469C14.8529 10.4992 14.7455 10.1557 14.6245 9.8172C14.5607 9.63646 14.4842 9.46072 14.3959 9.29135C14.3252 9.15573 14.249 9.02334 14.1672 8.89456C14.0981 8.78747 14.0249 8.73393 13.9492 8.73393C13.783 8.73393 13.5849 8.80257 13.3562 8.9385C13.1289 9.07442 12.8856 9.22408 12.6304 9.38883C12.3738 9.55359 12.1252 9.70736 11.8819 9.85015C11.6399 9.99294 11.4219 10.0602 11.2278 10.0533C11.0206 10.0532 10.8195 9.9817 10.6561 9.85015C10.4801 9.71161 10.3195 9.55319 10.1775 9.37785C10.0326 9.19936 9.91163 9.04559 9.81458 8.91653C9.71753 8.78747 9.64574 8.71608 9.59655 8.70235C9.54204 8.70235 9.51013 8.74491 9.50349 8.83003C9.49608 8.92641 9.49254 9.02305 9.49285 9.11973V9.30233C9.49285 9.34627 9.4862 9.37373 9.47158 9.38883C9.3958 9.55359 9.31205 9.71422 9.22297 9.87074C9.13257 10.0286 9.0435 10.1893 8.95309 10.354C8.77401 10.6706 8.67396 11.0283 8.66194 11.3947C8.66194 11.5018 8.66859 11.6089 8.68321 11.716C8.69651 11.8231 8.73107 11.9274 8.78691 12.0277L8.76564 12.0689C8.71227 12.1454 8.65314 12.2175 8.58882 12.2844C8.52332 12.3533 8.46454 12.4288 8.41334 12.5096C8.15904 12.8975 7.97566 13.3303 7.87225 13.7864C7.76855 14.2436 7.71271 14.7091 7.70607 15.18C7.70607 15.3022 7.71404 15.4244 7.72734 15.5452C7.74063 15.6674 7.74861 15.7882 7.74861 15.9104C7.7482 15.95 7.74465 15.9895 7.73797 16.0285C7.73129 16.0675 7.72774 16.107 7.72734 16.1466C7.87512 16.1638 8.01729 16.2149 8.14346 16.2962C8.30299 16.3896 8.47582 16.5077 8.66194 16.6505C8.84807 16.7932 9.02621 16.958 9.19239 17.1447C9.35858 17.3301 9.51678 17.5113 9.66967 17.6912C9.82255 17.8696 9.9329 18.0481 10.002 18.2266C10.0712 18.4051 10.1164 18.552 10.1363 18.666C10.1399 18.749 10.127 18.8319 10.0984 18.9095C10.0698 18.9872 10.0262 19.0581 9.97012 19.1177C9.8509 19.2378 9.70996 19.3325 9.55533 19.3964C9.67366 19.6106 9.81857 19.7932 9.99139 19.9428C10.1642 20.0939 10.3517 20.2147 10.5524 20.308C10.7532 20.4014 10.9712 20.4687 11.2065 20.5112C11.4418 20.5552 11.6718 20.5758 11.8925 20.5758ZM16.0577 22.0998C16.2026 22.0998 16.3448 22.0778 16.4831 22.0352C16.6926 21.9732 16.892 21.8793 17.0747 21.7565C17.2555 21.6343 17.4204 21.4847 17.5733 21.3048C17.9344 20.8745 18.3763 20.5242 18.8721 20.2751L19.2151 20.1144C19.3328 20.0615 19.4469 20.0005 19.5568 19.9318C19.6361 19.8799 19.7097 19.8192 19.7762 19.7506C19.8096 19.7172 19.8361 19.677 19.8539 19.6327C19.8717 19.5883 19.8806 19.5406 19.8799 19.4925C19.8799 19.4373 19.8691 19.3826 19.8479 19.3319C19.8231 19.2747 19.7919 19.2208 19.7549 19.1712C19.6601 19.035 19.5701 18.8953 19.485 18.7525C19.408 18.6225 19.3418 18.4861 19.2869 18.3447L19.1207 17.9163C19.0608 17.7591 19.0119 17.5976 18.9745 17.433C18.9601 17.3822 18.9356 17.335 18.9027 17.2944C18.8359 17.1912 18.7446 17.1074 18.6376 17.0509C18.5305 16.9944 18.4113 16.9672 18.2912 16.9717C18.1672 16.9713 18.0452 17.0044 17.9375 17.0678L17.5839 17.2724C17.4608 17.3429 17.3362 17.4107 17.2103 17.4756C17.0878 17.5392 16.9526 17.5722 16.8155 17.5717C16.6929 17.5772 16.5721 17.54 16.4725 17.466C16.3769 17.3876 16.2989 17.2888 16.2438 17.1763C16.1847 17.0618 16.1327 16.9434 16.0883 16.8221L15.9633 16.4678C15.9091 16.5597 15.8468 16.6461 15.7772 16.726C15.706 16.8078 15.6497 16.9022 15.611 17.0047C15.5206 17.2189 15.4647 17.4578 15.4448 17.7227C15.4102 18.1374 15.365 18.541 15.3092 18.9351C15.2523 19.3368 15.1588 19.7322 15.03 20.1158C14.9933 20.2385 14.9653 20.3638 14.9463 20.4906C14.9256 20.6221 14.9114 20.7545 14.9037 20.8874C14.9037 21.2375 15.0087 21.5272 15.2161 21.7565C15.4235 21.9844 15.704 22.0998 16.0577 22.0998Z" fill="currentColor"/>
</mask>
<g mask="url(#mask0_26_113)">
<rect width="24" height="24" fill="currentColor" fill-opacity="0.56"/>
</g>
</svg>
