<svg viewBox="0 0 24 24" xmlns="http://www.w3.org/2000/svg"><path d="M19.521 10.387C21.645 6.058 22.001 2 22.001 2s-4.061.355-8.391 2.48a7.712 7.712 0 0 1 5.911 5.907Z"/><path opacity=".5" d="M19.52 13.617a7.712 7.712 0 0 1-6.043 5.929l.221.22a4.22 4.22 0 0 0 2.994 1.24 4.233 4.233 0 0 0 2.993-7.225l-.165-.164Z"/><path d="M16.65 12c0-.526-.088-1.031-.25-1.503a4.668 4.668 0 0 0-2.895-2.895A4.652 4.652 0 0 0 7.356 12c0 .63.126 1.232.355 1.78a4.672 4.672 0 0 0 2.511 2.512A4.652 4.652 0 0 0 16.649 12Z"/><path opacity=".5" d="M4.457 10.525a7.711 7.711 0 0 1 5.928-6.043l-.156-.156a4.232 4.232 0 1 0-5.986 5.986l.214.213Z"/><path d="M4.483 13.604C2.356 17.937 2 22 2 22s4.063-.356 8.394-2.482a7.712 7.712 0 0 1-5.911-5.914Z"/></svg>