<svg width="12" height="12" viewBox="0 0 12 12" fill="none" xmlns="http://www.w3.org/2000/svg">
<g clip-path="url(#clip0_206_69)">
<path d="M9.26151 6.04969L6.8437 5.15625L5.95308 2.73656C5.90034 2.59328 5.80491 2.46962 5.67968 2.38227C5.55446 2.29493 5.40545 2.24809 5.25277 2.24809C5.10008 2.24809 4.95108 2.29493 4.82585 2.38227C4.70062 2.46962 4.60519 2.59328 4.55245 2.73656L3.6562 5.15625L1.23651 6.04688C1.09323 6.09962 0.969574 6.19504 0.882227 6.32027C0.79488 6.4455 0.748047 6.59451 0.748047 6.74719C0.748047 6.89987 0.79488 7.04888 0.882227 7.17411C0.969574 7.29934 1.09323 7.39476 1.23651 7.4475L3.6562 8.34375L4.54683 10.7634C4.59957 10.9067 4.69499 11.0304 4.82022 11.1177C4.94545 11.2051 5.09446 11.2519 5.24714 11.2519C5.39982 11.2519 5.54883 11.2051 5.67406 11.1177C5.79929 11.0304 5.89471 10.9067 5.94745 10.7634L6.8437 8.34375L9.26339 7.45312C9.40667 7.40038 9.53033 7.30496 9.61768 7.17973C9.70502 7.0545 9.75186 6.90549 9.75186 6.75281C9.75186 6.60013 9.70502 6.45112 9.61768 6.32589C9.53033 6.20066 9.40667 6.10524 9.26339 6.0525L9.26151 6.04969ZM6.42183 7.69781C6.37093 7.71657 6.3247 7.74615 6.28634 7.78451C6.24798 7.82287 6.2184 7.8691 6.19964 7.92L5.24995 10.493L4.30214 7.92188C4.28341 7.87044 4.25365 7.82372 4.21494 7.78502C4.17623 7.74631 4.12952 7.71654 4.07808 7.69781L1.50698 6.75L4.07808 5.80219C4.12952 5.78346 4.17623 5.75369 4.21494 5.71498C4.25365 5.67628 4.28341 5.62956 4.30214 5.57812L5.24995 3.00703L6.19777 5.57812C6.21653 5.62903 6.24611 5.67525 6.28446 5.71361C6.32282 5.75197 6.36905 5.78155 6.41995 5.80031L8.99292 6.75L6.42183 7.69781ZM6.74995 1.875C6.74995 1.77554 6.78946 1.68016 6.85979 1.60984C6.93011 1.53951 7.0255 1.5 7.12495 1.5H7.87495V0.75C7.87495 0.650544 7.91446 0.555161 7.98479 0.484835C8.05511 0.414509 8.1505 0.375 8.24995 0.375C8.34941 0.375 8.44479 0.414509 8.51512 0.484835C8.58544 0.555161 8.62495 0.650544 8.62495 0.75V1.5H9.37495C9.47441 1.5 9.56979 1.53951 9.64012 1.60984C9.71044 1.68016 9.74995 1.77554 9.74995 1.875C9.74995 1.97446 9.71044 2.06984 9.64012 2.14016C9.56979 2.21049 9.47441 2.25 9.37495 2.25H8.62495V3C8.62495 3.09946 8.58544 3.19484 8.51512 3.26516C8.44479 3.33549 8.34941 3.375 8.24995 3.375C8.1505 3.375 8.05511 3.33549 7.98479 3.26516C7.91446 3.19484 7.87495 3.09946 7.87495 3V2.25H7.12495C7.0255 2.25 6.93011 2.21049 6.85979 2.14016C6.78946 2.06984 6.74995 1.97446 6.74995 1.875ZM11.625 4.125C11.625 4.22446 11.5854 4.31984 11.5151 4.39016C11.4448 4.46049 11.3494 4.5 11.25 4.5H10.875V4.875C10.875 4.97446 10.8354 5.06984 10.7651 5.14016C10.6948 5.21049 10.5994 5.25 10.5 5.25C10.4005 5.25 10.3051 5.21049 10.2348 5.14016C10.1645 5.06984 10.125 4.97446 10.125 4.875V4.5H9.74995C9.6505 4.5 9.55511 4.46049 9.48479 4.39016C9.41446 4.31984 9.37495 4.22446 9.37495 4.125C9.37495 4.02554 9.41446 3.93016 9.48479 3.85984C9.55511 3.78951 9.6505 3.75 9.74995 3.75H10.125V3.375C10.125 3.27554 10.1645 3.18016 10.2348 3.10984C10.3051 3.03951 10.4005 3 10.5 3C10.5994 3 10.6948 3.03951 10.7651 3.10984C10.8354 3.18016 10.875 3.27554 10.875 3.375V3.75H11.25C11.3494 3.75 11.4448 3.78951 11.5151 3.85984C11.5854 3.93016 11.625 4.02554 11.625 4.125Z" fill="white"/>
</g>
<defs>
<clipPath id="clip0_206_69">
<rect width="12" height="12" fill="white"/>
</clipPath>
</defs>
</svg>
