<svg width="24" height="24" viewBox="0 0 24 24" fill="none" xmlns="http://www.w3.org/2000/svg">
  <!-- sparkle icon using path, stroke currentColor -->
  <path d="M18.5 7.84656V2.84656M5.5 20.8466V15.8466M16 5.34656H21M3 18.3466H8M6.5 1.84656L5.71554 3.41547C5.45005 3.94645 5.31731 4.21194 5.13997 4.442C4.98261 4.64615 4.79959 4.82917 4.59545 4.98653C4.36538 5.16387 4.0999 5.29661 3.56892 5.5621L2 6.34656L3.56892 7.13102C4.0999 7.39651 4.36538 7.52925 4.59545 7.70659C4.79959 7.86395 4.98261 8.04696 5.13997 8.25111C5.31731 8.48117 5.45005 8.74666 5.71554 9.27764L6.5 10.8466L7.28446 9.27764C7.54995 8.74666 7.68269 8.48117 7.86003 8.25111C8.01739 8.04696 8.20041 7.86395 8.40455 7.70659C8.63462 7.52925 8.9001 7.3965 9.43108 7.13102L11 6.34656L9.43108 5.5621C8.9001 5.29661 8.63462 5.16387 8.40455 4.98653C8.20041 4.82917 8.01739 4.64615 7.86003 4.442C7.68269 4.21194 7.54995 3.94645 7.28446 3.41547L6.5 1.84656ZM17 11.8466L16.0489 13.7488C15.7834 14.2798 15.6506 14.5453 15.4733 14.7753C15.3159 14.9795 15.1329 15.1625 14.9288 15.3199C14.6987 15.4972 14.4332 15.6299 13.9023 15.8954L12 16.8466L13.9023 17.7977C14.4332 18.0632 14.6987 18.1959 14.9288 18.3733C15.1329 18.5306 15.3159 18.7136 15.4733 18.9178C15.6506 19.1478 15.7834 19.4133 16.0489 19.9443L17 21.8466L17.9511 19.9443C18.2166 19.4133 18.3494 19.1478 18.5267 18.9178C18.6841 18.7136 18.8671 18.5306 19.0712 18.3733C19.3013 18.1959 19.5668 18.0632 20.0977 17.7977L22 16.8466L20.0977 15.8954C19.5668 15.6299 19.3013 15.4972 19.0712 15.3199C18.8671 15.1625 18.6841 14.9795 18.5267 14.7753C18.3494 14.5453 18.2166 14.2798 17.9511 13.7488L17 11.8466Z"
    stroke="currentColor" stroke-width="2" stroke-linecap="round" stroke-linejoin="round" fill="none"/>
</svg>
<rect width="24" height="24" fill="currentColor" fill-opacity="1"/>
</g>
</svg>
