<svg width="1em" height="1em" viewBox="0 0 24 24" fill="none" xmlns="http://www.w3.org/2000/svg">
<mask id="mask0_5432_2240" style="mask-type:alpha" maskUnits="userSpaceOnUse" x="1" y="1" width="22" height="22">
<path d="M12 2V4M12 20V22M4 12H2M6.31412 6.31412L4.8999 4.8999M17.6859 6.31412L19.1001 4.8999M6.31412 17.69L4.8999 19.1042M17.6859 17.69L19.1001 19.1042M22 12H20M17 12C17 14.7614 14.7614 17 12 17C9.23858 17 7 14.7614 7 12C7 9.23858 9.23858 7 12 7C14.7614 7 17 9.23858 17 12Z" stroke="#6C7E9D" stroke-width="2" stroke-linecap="round" stroke-linejoin="round"/>
</mask>
<g mask="url(#mask0_5432_2240)">
<rect width="24" height="24" fill="currentColor" fill-opacity="1"/>
</g>
</svg>
