<svg viewBox="0 0 24 24" fill="none" xmlns="http://www.w3.org/2000/svg">
  <path fill="none" d="M19 17.4598C17.8179 17.9944 16.5058 18.292 15.1241 18.292C9.92376 18.292 5.70804 14.0762 5.70804 8.87588C5.70804 7.49422 6.00562 6.18206 6.5402 5C3.27319 6.47747 1 9.76523 1 13.5839C1 18.7843 5.21572 23 10.4161 23C14.2348 23 17.5225 20.7268 19 17.4598Z" stroke="currentColor" stroke-width="2" stroke-linecap="round" stroke-linejoin="round"/>
  <path fill="none" d="M19.4888 4.61889L18.1877 5.91996M12.9834 3.7265L12.9834 1.8865M20.3809 11.124L22.2209 11.124M9.73068 7.87158C11.5271 6.07516 14.4397 6.07516 16.2361 7.87158C18.0325 9.66799 18.0325 12.5805 16.2361 14.377" stroke="currentColor" stroke-width="2" stroke-linecap="round" stroke-linejoin="round"/>
</svg>
