<svg width="88" height="100" viewBox="0 0 88 100" fill="none" xmlns="http://www.w3.org/2000/svg">
<path fill-rule="evenodd" clip-rule="evenodd" d="M87.2959 26.4538C87.2993 26.3987 87.3011 26.3435 87.3011 26.2879C87.301 26.1345 87.2868 25.9829 87.2598 25.8347C87.1322 25.0932 86.673 24.4402 86.0078 24.0561C85.9331 24.013 85.8567 23.974 85.7788 23.9391L44.9503 0.342044C44.1617 -0.11371 43.1898 -0.114053 42.4007 0.340819L1.29698 24.0477C0.508064 24.5028 0.021796 25.3442 0.0213552 26.2551L1.33343e-07 73.7055C-0.000293743 74.6165 0.485191 75.4583 1.27376 75.9142L42.3563 99.6579C42.744 99.882 43.1841 100 43.6319 100H43.6851C44.1331 100 44.5732 99.882 44.9609 99.6579L86.0433 75.9142C86.8319 75.4583 87.3175 74.6165 87.317 73.7055L87.2959 26.4538Z" fill="#361E5B"/>
<path d="M43.6584 5.47933L5.10434 27.7418V72.2582L43.6584 94.5205L82.2128 72.2582V27.7418L43.6584 5.47933Z" fill="#16D6C7"/>
<path d="M82.2127 27.7417V72.2581L43.6585 94.5206V50.0042L82.2127 27.7417Z" fill="#027F9E"/>
<path d="M82.2127 27.7417L43.6585 50.0042L5.1044 27.7417L43.6585 5.47933L82.2127 27.7417Z" fill="#17A6B2"/>
</svg>
