<svg width="24" height="24" viewBox="0 0 24 24" fill="none" xmlns="http://www.w3.org/2000/svg">
<path d="M14.1604 16.8125C14.3454 16.4613 14.8724 16.4613 15.0575 16.8125C15.1827 17.0508 15.2459 17.1704 15.3296 17.2737C15.4038 17.3652 15.49 17.4472 15.5863 17.5178C15.6948 17.5974 15.8201 17.6576 16.0707 17.7768C16.4403 17.9527 16.4403 18.454 16.0707 18.6299C15.8201 18.7491 15.6948 18.8093 15.5863 18.8889C15.49 18.9595 15.4038 19.0415 15.3296 19.133C15.2459 19.2363 15.1827 19.3551 15.0575 19.5933C14.8725 19.9451 14.3453 19.9451 14.1604 19.5933C14.0351 19.3551 13.9719 19.2363 13.8882 19.133C13.814 19.0415 13.7278 18.9595 13.6315 18.8889C13.523 18.8093 13.3977 18.7491 13.1471 18.6299C12.7774 18.454 12.7775 17.9527 13.1471 17.7768C13.3977 17.6576 13.523 17.5974 13.6315 17.5178C13.7278 17.4472 13.814 17.3652 13.8882 17.2737C13.9719 17.1704 14.0351 17.0508 14.1604 16.8125Z" fill="currentColor"/>
<path fill-rule="evenodd" clip-rule="evenodd" d="M5.93855 11.9528C6.18684 11.7089 6.58915 11.7089 6.83747 11.9528L9.10245 14.1805C9.34736 14.4214 9.34724 14.8242 9.10245 15.0652L5.7662 18.3473L5.60021 18.496C4.7982 19.1516 3.64836 19.2319 2.82725 18.5792L2.65672 18.4278C1.83844 17.6224 1.78233 16.2321 2.50252 15.3495L2.65672 15.1807L5.93855 11.9528ZM3.85044 16.3094C3.61193 16.544 3.61271 17.0649 3.85044 17.299L3.9221 17.3568C3.99403 17.404 4.06853 17.4204 4.14887 17.4172C4.27136 17.4121 4.4317 17.3561 4.57248 17.2177L7.21028 14.6224L6.38755 13.8139L3.85044 16.3094Z" fill="currentColor"/>
<path d="M18.508 14.7449C18.693 14.3936 19.22 14.3936 19.4051 14.7449C19.5304 14.9832 19.5936 15.1028 19.6772 15.206C19.7514 15.2976 19.8377 15.3796 19.9339 15.4502C20.0425 15.5297 20.168 15.5892 20.4183 15.7083C20.7882 15.8842 20.7882 16.3864 20.4183 16.5623C20.1679 16.6814 20.0425 16.7409 19.9339 16.8204C19.8376 16.891 19.7515 16.9738 19.6772 17.0654C19.5936 17.1686 19.5303 17.2875 19.4051 17.5257C19.2202 17.8774 18.6929 17.8774 18.508 17.5257C18.3828 17.2874 18.3195 17.1686 18.2359 17.0654C18.1616 16.9738 18.0755 16.891 17.9792 16.8204C17.8707 16.7409 17.7451 16.6813 17.4948 16.5623C17.1251 16.3863 17.125 15.8841 17.4948 15.7083C17.7453 15.5891 17.8706 15.5297 17.9792 15.4502C18.0754 15.3796 18.1617 15.2976 18.2359 15.206C18.3196 15.1028 18.3827 14.9832 18.508 14.7449Z" fill="currentColor"/>
<path fill-rule="evenodd" clip-rule="evenodd" d="M7.53683 4.30615C8.19308 4.17877 8.90012 4.10059 9.56507 4.16702C10.2334 4.23384 10.9066 4.45295 11.4264 4.96415L14.4461 7.93477C14.7509 8.23479 14.5896 8.6711 14.5241 9.03377C14.9209 9.07759 15.5454 9.01593 15.853 9.31815L17.4658 10.9045C17.6126 11.049 17.6788 11.2555 17.6426 11.4567L17.4249 12.6607L17.4005 12.7534C17.3693 12.8432 17.3177 12.9254 17.249 12.9932L15.3269 14.884L15.2534 14.9462C15.1753 15.0024 15.0847 15.0405 14.9885 15.0573L13.7649 15.2708L13.6878 15.2795C13.5343 15.2877 13.3826 15.2414 13.2614 15.1483L13.2034 15.0975L11.5897 13.5103C11.4029 13.3261 11.4006 13.0743 11.3729 12.8322L10.9012 13.2959C10.6528 13.5399 10.2506 13.54 10.0023 13.2959L7.73729 11.0682C7.43105 10.7667 7.54835 10.3692 7.81893 10.103L7.97041 8.8754L6.9055 8.72577C6.80325 8.71138 6.70638 8.67262 6.6234 8.61377L6.54539 8.54902L4.14343 6.18565C3.79161 5.83906 3.97995 5.22677 4.46817 5.1304C5.3554 4.90181 6.24072 4.59734 7.14678 4.38927L7.53683 4.30615ZM9.39272 5.7709C9.07191 5.73885 8.69879 5.75781 8.2888 5.8164L7.8661 5.88727C7.43972 5.97006 7.00368 6.0878 6.52543 6.2259L7.4942 7.1779L8.2117 7.2794L8.37588 7.3109C9.18373 7.50483 9.73066 8.25226 9.63038 9.06615L9.47889 10.2938C9.47241 10.3462 9.46246 10.3983 9.45077 10.4495L10.4839 11.4663C10.9068 11.2103 11.4341 11.1464 11.9189 11.3079C12.5185 11.5079 12.947 12.0182 13.0292 12.623L14.0107 13.5882L14.3635 13.5269L15.8312 12.0832L15.9056 11.6737L14.8869 10.6709C14.8569 10.6693 14.8222 10.6665 14.7817 10.6648C14.7283 10.6625 14.6555 10.6599 14.5858 10.656L14.3336 10.6359C13.8765 10.5853 13.4609 10.3551 13.1852 9.99978C12.9097 9.64421 12.7979 9.19376 12.8768 8.7564L12.8868 8.7039L10.2327 6.0929C10.0903 5.95302 9.87595 5.84351 9.5433 5.79015L9.39272 5.7709Z" fill="currentColor"/>
<path d="M18.7184 6.60652C18.9958 6.07886 19.7872 6.07886 20.0646 6.60652C20.2524 6.96391 20.3463 7.14291 20.4718 7.29777C20.5832 7.43517 20.7129 7.55849 20.8573 7.6644C21.0201 7.78372 21.2084 7.87255 21.5839 8.05115C22.1387 8.31498 22.1387 9.06832 21.5839 9.33215C21.2082 9.51082 21.0202 9.6004 20.8573 9.71977C20.7129 9.82568 20.5832 9.94902 20.4718 10.0864C20.3464 10.2412 20.2524 10.4204 20.0646 10.7777C19.7871 11.3049 18.9959 11.3049 18.7184 10.7777C18.5306 10.4204 18.4366 10.2412 18.3112 10.0864C18.1998 9.94903 18.0701 9.82568 17.9257 9.71977C17.7628 9.60041 17.5748 9.51082 17.1991 9.33215C16.6443 9.06832 16.6443 8.31498 17.1991 8.05115C17.5746 7.87254 17.7629 7.78373 17.9257 7.6644C18.0701 7.55848 18.1998 7.43517 18.3112 7.29777C18.4367 7.14291 18.5306 6.96392 18.7184 6.60652Z" fill="currentColor"/>
</svg>
