<svg width="24" height="24" viewBox="0 0 24 24" fill="none" xmlns="http://www.w3.org/2000/svg">
<mask id="mask0_230_151" style="mask-type:alpha" maskUnits="userSpaceOnUse" x="2" y="2" width="20" height="20">
<path d="M18 2C20.2091 2 22 3.79086 22 6V18C22 20.2091 20.2091 22 18 22H6C3.79086 22 2 20.2091 2 18V6C2 3.79086 3.79086 2 6 2H18ZM10.9209 12.7061L7 17.2637H7.88574L11.3145 13.2783L14.0527 17.2637H17.043L12.9766 11.3457L16.7158 7H15.8301L12.583 10.7734L9.99023 7H7L10.9209 12.7061ZM12.1172 11.3154L12.5146 11.8838L15.8301 16.627H14.4697L11.7637 12.7568L11.3662 12.1885L8.20508 7.66699H9.56641L12.1172 11.3154Z" fill="#6C7E9D"/>
</mask>
<g mask="url(#mask0_230_151)">
<rect width="24" height="24" fill="#4B83F1"/>
</g>
</svg>
