<svg viewBox="0 0 24 24" xmlns="http://www.w3.org/2000/svg"><path d="M5.82 13.103h3.647c.176 0 .319-.159.319-.356V9.128c0-.196-.143-.355-.32-.355H5.82c-.177 0-.32.159-.32.355v3.62c0 .196.143.355.32.355Zm5.714-5.773h3.647c.177 0 .32-.159.32-.355v-3.62c0-.196-.143-.355-.32-.355h-3.647c-.176 0-.32.159-.32.356v3.619c0 .196.144.355.32.355Zm0 5.773h3.647c.176 0 .32-.159.32-.356V9.128c0-.196-.144-.355-.32-.355h-3.647c-.177 0-.32.159-.32.355v3.62c0 .196.143.355.32.355Z"/><path d="M22.803 12.808c-.055-.043-.561-.424-1.629-.424a5.24 5.24 0 0 0-.842.072c-.206-1.41-1.376-2.096-1.43-2.128l-.287-.164-.189.27c-.014.02-.346.502-.51 1.187-.19.805-.075 1.56.336 2.207-.496.275-1.288.347-1.452.349H3.626a.625.625 0 0 0-.626.62c-.005 1.205.195 2.37.578 3.37.454 1.184 1.13 2.055 2.007 2.59.984.6 2.587.945 4.397.945.847 0 1.69-.076 2.44-.22 1.182-.227 2.255-.615 3.19-1.152a8.74 8.74 0 0 0 2.174-1.772c1.044-1.175 1.666-2.488 2.128-3.65.063.003.124.004.184.004 1.143 0 1.846-.454 2.234-.836.42-.414.57-.826.586-.872l.082-.238-.197-.158Z"/></svg>