<svg width="24" height="24" viewBox="0 0 24 24" fill="none" xmlns="http://www.w3.org/2000/svg">
<mask id="mask0_230_161" style="mask-type:alpha" maskUnits="userSpaceOnUse" x="2" y="2" width="20" height="20">
<path d="M18 2C20.2091 2 22 3.79086 22 6V18C22 20.2091 20.2091 22 18 22H6C3.79086 22 2 20.2091 2 18V6C2 3.79086 3.79086 2 6 2H18ZM11.9355 7.72754C11.9019 7.72754 8.13938 7.7287 7.19727 7.98242C6.67567 8.12299 6.26429 8.53652 6.125 9.06152C5.87349 10.0064 5.87111 11.9686 5.87109 12C5.87111 12.0315 5.87342 13.9947 6.125 14.9395C6.26446 15.4641 6.67588 15.878 7.19727 16.0186C8.14047 16.2722 11.9019 16.2734 11.9355 16.2734C11.9792 16.2734 15.7348 16.2721 16.6748 16.0186C17.1961 15.8779 17.6077 15.4641 17.7471 14.9395C17.9986 13.9953 18 12.0314 18 12C18 11.9686 17.9985 10.0065 17.7471 9.06152C17.6079 8.5367 17.1961 8.12318 16.6748 7.98242C15.7348 7.72891 11.9792 7.72755 11.9355 7.72754ZM13.8652 12L10.6953 13.8037V10.1973L13.8652 12Z" fill="#6C7E9D"/>
</mask>
<g mask="url(#mask0_230_161)">
<rect width="24" height="24" fill="#4B83F1"/>
</g>
</svg>
